<!-- Generator: Adobe Illustrator 17.0.0, SVG Export Plug-In  -->
<svg version="1.1"
	 xmlns="http://www.w3.org/2000/svg" xmlns:xlink="http://www.w3.org/1999/xlink" xmlns:a="http://ns.adobe.com/AdobeSVGViewerExtensions/3.0/"
	 x="0px" y="0px" width="52.54px" height="60.67px" viewBox="0 0 52.54 60.67" style="enable-background:new 0 0 52.54 60.67;"
	 xml:space="preserve">
<style type="text/css">
	.st0{stroke:#E54F26;stroke-width:3;stroke-miterlimit:10;}
	.st1{fill:#FFFFFF;}
	.st2{fill:url(#XMLID_28_);}
	.st3{fill:#FFFFFF;stroke:#000000;stroke-width:1.7139;stroke-miterlimit:10;}
	.st4{fill:url(#XMLID_29_);}
</style>
<defs>
</defs>
<polygon id="XMLID_27_" class="st0" points="26.271,58.938 1.5,44.637 1.5,16.034 26.271,1.732 51.04,16.034 51.04,44.637 "/>
<g id="XMLID_1_">
	<path id="XMLID_25_" class="st1" d="M26.262,43.928c-3.284,0-6.515-1.127-9.089-3.173c-6.31-5.013-7.364-14.227-2.352-20.536
		c2.791-3.511,6.963-5.524,11.449-5.524c3.283,0,6.514,1.127,9.088,3.172c3.058,2.429,4.986,5.902,5.43,9.78
		c0.211,1.847,0.078,3.683-0.398,5.455c-0.293,1.105-0.725,2.177-1.273,3.185c-0.256,0.466-0.838,0.637-1.303,0.384
		c-0.465-0.254-0.637-0.838-0.383-1.302c0.478-0.876,0.851-1.805,1.107-2.764c0.412-1.537,0.527-3.133,0.344-4.739
		c-0.386-3.368-2.06-6.386-4.717-8.496c-2.237-1.778-5.041-2.756-7.895-2.756c-3.896,0-7.521,1.748-9.945,4.798
		c-4.355,5.484-3.439,13.485,2.043,17.842c2.238,1.777,5.042,2.756,7.896,2.756c0.53,0,0.96,0.43,0.96,0.96
		C27.222,43.498,26.792,43.928,26.262,43.928L26.262,43.928z"/>
	<path id="XMLID_17_" class="st1" d="M26.262,39.61c-2.313,0-4.589-0.792-6.402-2.236c-4.446-3.53-5.19-10.023-1.657-14.47
		c1.966-2.475,4.906-3.893,8.068-3.893c2.314,0,4.59,0.794,6.403,2.236c2.154,1.71,3.513,4.159,3.825,6.891
		c0.156,1.367,0.044,2.723-0.332,4.03c-0.146,0.509-0.681,0.803-1.188,0.654c-0.509-0.147-0.803-0.678-0.656-1.188
		c0.306-1.06,0.396-2.164,0.268-3.277c-0.254-2.224-1.359-4.216-3.113-5.609c-1.476-1.172-3.326-1.818-5.208-1.818
		c-2.575,0-4.967,1.155-6.567,3.168c-2.873,3.618-2.27,8.9,1.35,11.776c1.477,1.172,3.326,1.818,5.21,1.818
		c0.53,0,0.96,0.43,0.96,0.96C27.222,39.18,26.792,39.61,26.262,39.61L26.262,39.61z"/>
	<linearGradient id="XMLID_28_" gradientUnits="userSpaceOnUse" x1="21.2412" y1="29.3116" x2="31.29" y2="29.3116">
		<stop  offset="0" style="stop-color:#783214"/>
		<stop  offset="0.5" style="stop-color:#F16529"/>
		<stop  offset="1" style="stop-color:#783214"/>
	</linearGradient>
	<path id="XMLID_16_" class="st2" d="M31.29,29.31c0,2.775-2.249,5.024-5.024,5.024s-5.024-2.251-5.024-5.024
		c0-2.773,2.251-5.022,5.024-5.022C29.041,24.289,31.29,26.537,31.29,29.31L31.29,29.31z"/>
	<path id="XMLID_3_" class="st1" d="M26.262,35.295c-1.343,0-2.663-0.461-3.718-1.3c-2.584-2.052-3.016-5.823-0.963-8.405
		c1.142-1.438,2.852-2.262,4.689-2.262c1.345,0,2.663,0.461,3.718,1.301c2.584,2.051,3.015,5.822,0.963,8.404
		C29.808,34.469,28.1,35.295,26.262,35.295L26.262,35.295z M26.271,25.247c-1.25,0-2.41,0.559-3.188,1.536
		c-1.393,1.754-1.101,4.316,0.654,5.71c0.728,0.577,1.6,0.882,2.526,0.882c1.248,0,2.409-0.56,3.185-1.537
		c1.394-1.753,1.102-4.316-0.652-5.709C28.067,25.552,27.194,25.247,26.271,25.247L26.271,25.247z"/>
	<path id="XMLID_2_" class="st3" d="M32.54,46.802c1.361,0,2.465-1.104,2.465-2.465v-6.303c0-1.838-1.488-3.327-3.327-3.327
		l-3.37-0.007v-4.929c0-1.04-0.807-1.925-1.847-1.963c-1.092-0.038-1.989,0.834-1.989,1.917v8.611l-0.504-1.05
		c-0.275-0.573-0.792-0.896-1.326-0.896c-0.245,0-0.494,0.068-0.725,0.212c-0.73,0.457-1,1.507-0.598,2.342
		c0,0,1.659,3.887,2.846,6.433c0.404,0.868,1.274,1.424,2.232,1.424H32.54L32.54,46.802z"/>
</g>
</svg>