<!-- Generator: Adobe Illustrator 17.0.0, SVG Export Plug-In  -->
<svg version="1.1"
	 xmlns="http://www.w3.org/2000/svg" xmlns:xlink="http://www.w3.org/1999/xlink" xmlns:a="http://ns.adobe.com/AdobeSVGViewerExtensions/3.0/"
	 x="0px" y="0px" width="278.987px" height="103.867px" viewBox="0 0 278.987 103.867"
	 style="enable-background:new 0 0 278.987 103.867;" xml:space="preserve">
<style type="text/css">
	.st0{fill:#E54F26;}
	.st1{fill:#FFFFFF;stroke:#000000;stroke-width:1.7139;stroke-miterlimit:10;}
</style>
<defs>
</defs>
<g id="XMLID_1_">
	<g>
		<path d="M121.045,83.714l0.964,0.243c-0.202,0.792-0.565,1.396-1.09,1.811c-0.525,0.415-1.166,0.623-1.925,0.623
			c-0.784,0-1.423-0.159-1.914-0.479c-0.491-0.319-0.866-0.781-1.122-1.388c-0.257-0.605-0.385-1.256-0.385-1.951
			c0-0.759,0.145-1.42,0.435-1.984c0.289-0.564,0.701-0.993,1.236-1.286c0.534-0.293,1.123-0.439,1.766-0.439
			c0.728,0,1.341,0.186,1.837,0.557c0.497,0.37,0.843,0.892,1.038,1.563l-0.948,0.224c-0.169-0.529-0.414-0.915-0.735-1.157
			c-0.321-0.241-0.725-0.362-1.212-0.362c-0.56,0-1.027,0.135-1.402,0.402c-0.376,0.269-0.64,0.628-0.792,1.08
			s-0.229,0.918-0.229,1.398c0,0.619,0.09,1.159,0.271,1.621s0.461,0.807,0.842,1.035s0.793,0.343,1.236,0.343
			c0.539,0,0.996-0.155,1.37-0.467S120.913,84.326,121.045,83.714z"/>
		<path d="M123.062,86.267v-7.28h0.894v7.28H123.062z"/>
		<path d="M125.347,80.015v-1.028h0.894v1.028H125.347z M125.347,86.267v-5.273h0.894v5.273H125.347z"/>
		<path d="M131.042,84.335l0.88,0.114c-0.097,0.605-0.343,1.08-0.738,1.423s-0.881,0.514-1.457,0.514
			c-0.722,0-1.302-0.235-1.74-0.708c-0.439-0.472-0.658-1.147-0.658-2.028c0-0.569,0.094-1.067,0.283-1.494
			c0.188-0.428,0.476-0.748,0.861-0.961c0.386-0.214,0.805-0.32,1.259-0.32c0.572,0,1.041,0.145,1.405,0.435
			c0.364,0.289,0.598,0.7,0.7,1.233l-0.869,0.134c-0.083-0.354-0.229-0.62-0.439-0.799s-0.464-0.269-0.762-0.269
			c-0.45,0-0.816,0.161-1.098,0.484s-0.422,0.833-0.422,1.532c0,0.708,0.136,1.223,0.407,1.544c0.271,0.321,0.625,0.481,1.063,0.481
			c0.351,0,0.644-0.107,0.879-0.322C130.83,85.113,130.979,84.782,131.042,84.335z"/>
		<path d="M135.511,88.288v-7.295h0.814v0.685c0.192-0.268,0.409-0.469,0.651-0.603c0.241-0.135,0.534-0.201,0.879-0.201
			c0.45,0,0.847,0.115,1.191,0.348c0.345,0.231,0.604,0.559,0.779,0.98c0.176,0.422,0.264,0.885,0.264,1.388
			c0,0.54-0.097,1.025-0.291,1.458c-0.193,0.432-0.475,0.763-0.844,0.993c-0.369,0.229-0.757,0.345-1.164,0.345
			c-0.299,0-0.565-0.063-0.803-0.188c-0.236-0.126-0.431-0.285-0.583-0.477v2.567H135.511z M136.32,83.659
			c0,0.679,0.138,1.181,0.412,1.505c0.275,0.324,0.607,0.486,0.999,0.486c0.396,0,0.737-0.168,1.021-0.504
			c0.282-0.336,0.424-0.856,0.424-1.562c0-0.672-0.138-1.175-0.414-1.51c-0.276-0.334-0.607-0.501-0.991-0.501
			c-0.381,0-0.718,0.178-1.011,0.533C136.467,82.464,136.32,82.98,136.32,83.659z"/>
		<path d="M144.608,85.616c-0.331,0.281-0.649,0.479-0.955,0.596c-0.307,0.116-0.636,0.174-0.986,0.174
			c-0.579,0-1.024-0.142-1.336-0.425c-0.311-0.283-0.467-0.645-0.467-1.085c0-0.258,0.059-0.494,0.177-0.707
			c0.117-0.214,0.271-0.386,0.462-0.515s0.404-0.227,0.643-0.293c0.176-0.046,0.44-0.091,0.795-0.134
			c0.722-0.086,1.253-0.188,1.594-0.308c0.004-0.123,0.005-0.2,0.005-0.233c0-0.364-0.084-0.621-0.253-0.771
			c-0.229-0.201-0.568-0.303-1.019-0.303c-0.42,0-0.73,0.074-0.931,0.222c-0.2,0.146-0.349,0.407-0.444,0.781l-0.874-0.119
			c0.079-0.374,0.21-0.676,0.393-0.906c0.182-0.229,0.445-0.407,0.789-0.531c0.345-0.124,0.743-0.186,1.197-0.186
			c0.45,0,0.815,0.053,1.097,0.158c0.282,0.106,0.489,0.239,0.621,0.4c0.133,0.16,0.226,0.363,0.278,0.608
			c0.029,0.152,0.045,0.427,0.045,0.824v1.191c0,0.831,0.019,1.356,0.057,1.577c0.038,0.22,0.113,0.431,0.227,0.633h-0.934
			C144.695,86.081,144.636,85.864,144.608,85.616z M144.534,83.62c-0.324,0.132-0.811,0.245-1.46,0.337
			c-0.367,0.054-0.627,0.113-0.779,0.179c-0.152,0.066-0.271,0.164-0.353,0.291c-0.083,0.128-0.124,0.269-0.124,0.425
			c0,0.238,0.09,0.437,0.271,0.596s0.444,0.238,0.792,0.238c0.344,0,0.65-0.075,0.919-0.226c0.268-0.151,0.465-0.357,0.591-0.618
			c0.096-0.202,0.144-0.5,0.144-0.895V83.62z"/>
		<path d="M146.813,86.267v-5.273h0.805v0.799c0.205-0.374,0.395-0.62,0.568-0.739s0.365-0.179,0.574-0.179
			c0.301,0,0.607,0.096,0.918,0.288l-0.308,0.829c-0.219-0.129-0.437-0.194-0.655-0.194c-0.195,0-0.371,0.06-0.526,0.177
			s-0.267,0.28-0.333,0.489c-0.1,0.317-0.148,0.665-0.148,1.043v2.761H146.813z"/>
		<path d="M153.651,85.616c-0.331,0.281-0.649,0.479-0.955,0.596c-0.307,0.116-0.636,0.174-0.986,0.174
			c-0.579,0-1.024-0.142-1.336-0.425c-0.311-0.283-0.467-0.645-0.467-1.085c0-0.258,0.059-0.494,0.177-0.707
			c0.117-0.214,0.271-0.386,0.462-0.515s0.404-0.227,0.643-0.293c0.176-0.046,0.44-0.091,0.795-0.134
			c0.722-0.086,1.253-0.188,1.594-0.308c0.004-0.123,0.005-0.2,0.005-0.233c0-0.364-0.084-0.621-0.253-0.771
			c-0.229-0.201-0.568-0.303-1.019-0.303c-0.42,0-0.73,0.074-0.931,0.222c-0.2,0.146-0.349,0.407-0.444,0.781l-0.874-0.119
			c0.079-0.374,0.21-0.676,0.393-0.906c0.182-0.229,0.445-0.407,0.789-0.531c0.345-0.124,0.743-0.186,1.197-0.186
			c0.45,0,0.815,0.053,1.097,0.158c0.282,0.106,0.489,0.239,0.621,0.4c0.133,0.16,0.226,0.363,0.278,0.608
			c0.029,0.152,0.045,0.427,0.045,0.824v1.191c0,0.831,0.019,1.356,0.057,1.577c0.038,0.22,0.113,0.431,0.227,0.633h-0.934
			C153.738,86.081,153.679,85.864,153.651,85.616z M153.577,83.62c-0.324,0.132-0.811,0.245-1.46,0.337
			c-0.367,0.054-0.627,0.113-0.779,0.179c-0.152,0.066-0.271,0.164-0.353,0.291c-0.083,0.128-0.124,0.269-0.124,0.425
			c0,0.238,0.09,0.437,0.271,0.596s0.444,0.238,0.792,0.238c0.344,0,0.65-0.075,0.919-0.226c0.268-0.151,0.465-0.357,0.591-0.618
			c0.096-0.202,0.144-0.5,0.144-0.895V83.62z"/>
		<path d="M158.691,86.267v-5.273h0.8v0.739c0.166-0.258,0.386-0.466,0.661-0.623c0.274-0.157,0.587-0.235,0.938-0.235
			c0.391,0,0.711,0.081,0.961,0.243c0.249,0.162,0.426,0.389,0.528,0.68c0.417-0.615,0.96-0.923,1.629-0.923
			c0.523,0,0.926,0.145,1.207,0.435c0.281,0.289,0.422,0.735,0.422,1.338v3.62h-0.889v-3.322c0-0.357-0.029-0.615-0.087-0.772
			c-0.059-0.157-0.163-0.283-0.315-0.38c-0.152-0.096-0.331-0.144-0.536-0.144c-0.371,0-0.679,0.123-0.924,0.37
			c-0.245,0.246-0.368,0.642-0.368,1.184v3.064h-0.894V82.84c0-0.397-0.072-0.695-0.219-0.894c-0.146-0.198-0.384-0.298-0.715-0.298
			c-0.251,0-0.484,0.066-0.697,0.198c-0.214,0.133-0.368,0.326-0.465,0.581c-0.096,0.255-0.144,0.623-0.144,1.103v2.736H158.691z"/>
		<path d="M170.604,85.616c-0.331,0.281-0.649,0.479-0.955,0.596c-0.307,0.116-0.636,0.174-0.986,0.174
			c-0.579,0-1.024-0.142-1.336-0.425c-0.311-0.283-0.467-0.645-0.467-1.085c0-0.258,0.059-0.494,0.177-0.707
			c0.117-0.214,0.271-0.386,0.462-0.515s0.404-0.227,0.643-0.293c0.176-0.046,0.44-0.091,0.795-0.134
			c0.722-0.086,1.253-0.188,1.594-0.308c0.004-0.123,0.005-0.2,0.005-0.233c0-0.364-0.084-0.621-0.253-0.771
			c-0.229-0.201-0.568-0.303-1.019-0.303c-0.42,0-0.73,0.074-0.931,0.222c-0.2,0.146-0.349,0.407-0.444,0.781l-0.874-0.119
			c0.079-0.374,0.21-0.676,0.393-0.906c0.182-0.229,0.445-0.407,0.789-0.531c0.345-0.124,0.743-0.186,1.197-0.186
			c0.45,0,0.815,0.053,1.097,0.158c0.282,0.106,0.489,0.239,0.621,0.4c0.133,0.16,0.226,0.363,0.278,0.608
			c0.029,0.152,0.045,0.427,0.045,0.824v1.191c0,0.831,0.019,1.356,0.057,1.577c0.038,0.22,0.113,0.431,0.227,0.633h-0.934
			C170.691,86.081,170.632,85.864,170.604,85.616z M170.53,83.62c-0.324,0.132-0.811,0.245-1.46,0.337
			c-0.367,0.054-0.627,0.113-0.779,0.179c-0.152,0.066-0.271,0.164-0.353,0.291c-0.083,0.128-0.124,0.269-0.124,0.425
			c0,0.238,0.09,0.437,0.271,0.596s0.444,0.238,0.792,0.238c0.344,0,0.65-0.075,0.919-0.226c0.268-0.151,0.465-0.357,0.591-0.618
			c0.096-0.202,0.144-0.5,0.144-0.895V83.62z M168.792,80.337l0.661-1.39h1.172l-1.093,1.39H168.792z"/>
		<path d="M172.462,84.692l0.885-0.139c0.049,0.354,0.188,0.625,0.414,0.814c0.227,0.188,0.544,0.282,0.951,0.282
			c0.41,0,0.715-0.083,0.914-0.25c0.198-0.167,0.298-0.363,0.298-0.589c0-0.202-0.088-0.36-0.264-0.477
			c-0.122-0.079-0.427-0.181-0.913-0.303c-0.656-0.166-1.11-0.309-1.363-0.43c-0.254-0.121-0.445-0.288-0.576-0.502
			c-0.131-0.213-0.196-0.449-0.196-0.707c0-0.235,0.054-0.453,0.161-0.653s0.254-0.366,0.439-0.499
			c0.14-0.103,0.329-0.189,0.568-0.261c0.24-0.071,0.498-0.106,0.772-0.106c0.414,0,0.777,0.06,1.09,0.179
			c0.313,0.119,0.544,0.28,0.693,0.483c0.148,0.204,0.251,0.477,0.308,0.817l-0.874,0.119c-0.04-0.271-0.154-0.483-0.345-0.636
			s-0.46-0.229-0.808-0.229c-0.41,0-0.703,0.068-0.879,0.204c-0.175,0.136-0.263,0.294-0.263,0.477c0,0.116,0.036,0.22,0.109,0.313
			c0.072,0.097,0.187,0.176,0.342,0.238c0.09,0.033,0.354,0.109,0.79,0.229c0.632,0.169,1.073,0.308,1.323,0.415
			s0.446,0.264,0.589,0.469c0.142,0.206,0.213,0.461,0.213,0.765c0,0.299-0.087,0.579-0.261,0.842
			c-0.174,0.264-0.424,0.467-0.752,0.611c-0.328,0.144-0.698,0.216-1.112,0.216c-0.686,0-1.208-0.143-1.566-0.427
			C172.791,85.674,172.562,85.252,172.462,84.692z"/>
		<path d="M120.542,90.968v-1.028h0.894v1.028H120.542z M120.542,97.22v-5.273h0.894v5.273H120.542z"/>
		<path d="M122.796,97.22v-5.273h0.805v0.749c0.388-0.579,0.947-0.868,1.679-0.868c0.317,0,0.61,0.057,0.877,0.171
			c0.266,0.114,0.466,0.264,0.598,0.449c0.133,0.186,0.226,0.406,0.278,0.661c0.033,0.165,0.05,0.455,0.05,0.868v3.243h-0.894
			v-3.208c0-0.364-0.035-0.637-0.104-0.816c-0.069-0.181-0.193-0.325-0.37-0.433s-0.385-0.161-0.623-0.161
			c-0.381,0-0.71,0.121-0.986,0.362c-0.276,0.242-0.414,0.7-0.414,1.376v2.88H122.796z"/>
		<path d="M128.666,97.22v-4.578h-0.789v-0.695h0.789v-0.562c0-0.354,0.031-0.617,0.095-0.79c0.086-0.231,0.237-0.419,0.454-0.563
			c0.217-0.144,0.521-0.216,0.911-0.216c0.252,0,0.53,0.03,0.834,0.09l-0.134,0.779c-0.186-0.033-0.36-0.05-0.526-0.05
			c-0.271,0-0.464,0.059-0.576,0.174c-0.112,0.116-0.169,0.333-0.169,0.65v0.487h1.028v0.695h-1.028v4.578H128.666z"/>
		<path d="M130.945,94.583c0-0.977,0.271-1.7,0.814-2.17c0.453-0.391,1.006-0.586,1.658-0.586c0.726,0,1.317,0.237,1.778,0.712
			c0.46,0.476,0.689,1.132,0.689,1.97c0,0.679-0.102,1.212-0.305,1.601c-0.204,0.39-0.5,0.691-0.89,0.907
			c-0.389,0.215-0.813,0.322-1.273,0.322c-0.738,0-1.335-0.236-1.79-0.71S130.945,95.474,130.945,94.583z M131.864,94.583
			c0,0.675,0.146,1.181,0.441,1.517s0.666,0.504,1.112,0.504c0.443,0,0.813-0.168,1.107-0.506s0.442-0.853,0.442-1.545
			c0-0.652-0.148-1.146-0.444-1.482c-0.297-0.336-0.665-0.504-1.105-0.504c-0.446,0-0.817,0.167-1.112,0.502
			C132.011,93.402,131.864,93.907,131.864,94.583z"/>
		<path d="M136.924,97.22v-5.273h0.805v0.799c0.205-0.374,0.395-0.62,0.568-0.739s0.365-0.179,0.574-0.179
			c0.301,0,0.607,0.096,0.918,0.288l-0.308,0.829c-0.219-0.129-0.437-0.194-0.655-0.194c-0.195,0-0.371,0.06-0.526,0.177
			s-0.267,0.28-0.333,0.489c-0.1,0.317-0.148,0.665-0.148,1.043v2.761H136.924z"/>
		<path d="M140.32,97.22v-5.273h0.8v0.739c0.166-0.258,0.386-0.466,0.661-0.623c0.274-0.157,0.587-0.235,0.938-0.235
			c0.391,0,0.711,0.081,0.961,0.243c0.249,0.162,0.426,0.389,0.528,0.68c0.417-0.615,0.96-0.923,1.629-0.923
			c0.523,0,0.926,0.145,1.207,0.435c0.281,0.289,0.422,0.735,0.422,1.338v3.62h-0.889v-3.322c0-0.357-0.029-0.615-0.087-0.772
			c-0.059-0.157-0.163-0.283-0.315-0.38c-0.152-0.096-0.331-0.144-0.536-0.144c-0.371,0-0.679,0.123-0.924,0.37
			c-0.245,0.246-0.368,0.642-0.368,1.184v3.064h-0.894v-3.427c0-0.397-0.072-0.695-0.219-0.894
			c-0.146-0.198-0.384-0.298-0.715-0.298c-0.251,0-0.484,0.066-0.697,0.198c-0.214,0.133-0.368,0.326-0.465,0.581
			c-0.096,0.255-0.144,0.623-0.144,1.103v2.736H140.32z"/>
		<path d="M152.233,96.569c-0.331,0.281-0.649,0.479-0.955,0.596c-0.307,0.116-0.636,0.174-0.986,0.174
			c-0.579,0-1.024-0.142-1.336-0.425c-0.311-0.283-0.467-0.645-0.467-1.085c0-0.258,0.059-0.494,0.177-0.707
			c0.117-0.214,0.271-0.386,0.462-0.515s0.404-0.227,0.643-0.293c0.176-0.046,0.44-0.091,0.795-0.134
			c0.722-0.086,1.253-0.188,1.594-0.308c0.004-0.123,0.005-0.2,0.005-0.233c0-0.364-0.084-0.621-0.253-0.771
			c-0.229-0.201-0.568-0.303-1.019-0.303c-0.42,0-0.73,0.074-0.931,0.222c-0.2,0.146-0.349,0.407-0.444,0.781l-0.874-0.119
			c0.079-0.374,0.21-0.676,0.393-0.906c0.182-0.229,0.445-0.407,0.789-0.531c0.345-0.124,0.743-0.186,1.197-0.186
			c0.45,0,0.815,0.053,1.097,0.158c0.282,0.106,0.489,0.239,0.621,0.4c0.133,0.16,0.226,0.363,0.278,0.608
			c0.029,0.152,0.045,0.427,0.045,0.824v1.191c0,0.831,0.019,1.356,0.057,1.577c0.038,0.22,0.113,0.431,0.227,0.633h-0.934
			C152.32,97.034,152.261,96.817,152.233,96.569z M152.159,94.573c-0.324,0.132-0.811,0.245-1.46,0.337
			c-0.367,0.054-0.627,0.113-0.779,0.179c-0.152,0.066-0.271,0.164-0.353,0.291c-0.083,0.128-0.124,0.269-0.124,0.425
			c0,0.238,0.09,0.437,0.271,0.596s0.444,0.238,0.792,0.238c0.344,0,0.65-0.075,0.919-0.226c0.268-0.151,0.465-0.357,0.591-0.618
			c0.096-0.202,0.144-0.5,0.144-0.895V94.573z"/>
		<path d="M157.89,95.288l0.88,0.114c-0.097,0.605-0.343,1.08-0.738,1.423s-0.881,0.514-1.457,0.514
			c-0.722,0-1.302-0.235-1.74-0.708c-0.439-0.472-0.658-1.147-0.658-2.028c0-0.569,0.094-1.067,0.283-1.494
			c0.188-0.428,0.476-0.748,0.861-0.961c0.386-0.214,0.805-0.32,1.259-0.32c0.572,0,1.041,0.145,1.405,0.435
			c0.364,0.289,0.598,0.7,0.7,1.233l-0.869,0.134c-0.083-0.354-0.229-0.62-0.439-0.799s-0.464-0.269-0.762-0.269
			c-0.45,0-0.816,0.161-1.098,0.484s-0.422,0.833-0.422,1.532c0,0.708,0.136,1.223,0.407,1.544c0.271,0.321,0.625,0.481,1.063,0.481
			c0.351,0,0.644-0.107,0.879-0.322C157.678,96.066,157.827,95.735,157.89,95.288z"/>
		<path d="M159.539,90.968v-1.028h0.894v1.028H159.539z M159.539,97.22v-5.273h0.894v5.273H159.539z"/>
		<path d="M161.461,94.583c0-0.977,0.271-1.7,0.814-2.17c0.453-0.391,1.006-0.586,1.658-0.586c0.726,0,1.317,0.237,1.778,0.712
			c0.46,0.476,0.689,1.132,0.689,1.97c0,0.679-0.102,1.212-0.305,1.601c-0.204,0.39-0.5,0.691-0.89,0.907
			c-0.389,0.215-0.813,0.322-1.273,0.322c-0.738,0-1.335-0.236-1.79-0.71S161.461,95.474,161.461,94.583z M162.38,94.583
			c0,0.675,0.146,1.181,0.441,1.517s0.666,0.504,1.112,0.504c0.443,0,0.813-0.168,1.107-0.506s0.442-0.853,0.442-1.545
			c0-0.652-0.148-1.146-0.444-1.482c-0.297-0.336-0.665-0.504-1.105-0.504c-0.446,0-0.817,0.167-1.112,0.502
			C162.526,93.402,162.38,93.907,162.38,94.583z M163.437,91.29l0.66-1.39h1.172l-1.093,1.39H163.437z"/>
		<path d="M167.449,97.22v-5.273h0.805v0.749c0.388-0.579,0.947-0.868,1.679-0.868c0.317,0,0.61,0.057,0.877,0.171
			c0.266,0.114,0.466,0.264,0.598,0.449c0.133,0.186,0.226,0.406,0.278,0.661c0.033,0.165,0.05,0.455,0.05,0.868v3.243h-0.894
			v-3.208c0-0.364-0.035-0.637-0.104-0.816c-0.069-0.181-0.193-0.325-0.37-0.433s-0.385-0.161-0.623-0.161
			c-0.381,0-0.71,0.121-0.986,0.362c-0.276,0.242-0.414,0.7-0.414,1.376v2.88H167.449z"/>
	</g>
	<g id="XMLID_2_">
		<path id="XMLID_9_" d="M94.326,100.241c-3.165,0-6.277-1.087-8.758-3.058c-6.079-4.83-7.096-13.707-2.266-19.787
			c2.689-3.383,6.709-5.323,11.031-5.323c3.165,0,6.275,1.086,8.757,3.058c2.946,2.339,4.804,5.687,5.233,9.423
			c0.201,1.78,0.073,3.548-0.385,5.256c-0.284,1.065-0.7,2.098-1.229,3.068c-0.245,0.449-0.807,0.614-1.255,0.37
			c-0.448-0.245-0.612-0.808-0.368-1.255c0.46-0.844,0.819-1.739,1.066-2.663c0.397-1.48,0.509-3.018,0.332-4.565
			c-0.371-3.246-1.984-6.153-4.545-8.188c-2.156-1.713-4.857-2.655-7.607-2.655c-3.754,0-7.247,1.686-9.582,4.623
			c-4.196,5.284-3.314,12.994,1.968,17.191c2.157,1.713,4.857,2.656,7.608,2.656c0.51,0,0.926,0.414,0.926,0.924
			C95.252,99.825,94.838,100.241,94.326,100.241L94.326,100.241z"/>
		<path id="XMLID_8_" d="M94.326,96.08c-2.23,0-4.42-0.764-6.169-2.154c-4.285-3.402-5.002-9.658-1.598-13.942
			c1.895-2.384,4.728-3.751,7.774-3.751c2.23,0,4.422,0.766,6.171,2.154c2.074,1.648,3.384,4.008,3.686,6.641
			c0.149,1.316,0.042,2.623-0.32,3.883c-0.141,0.49-0.655,0.772-1.144,0.631c-0.491-0.143-0.774-0.654-0.634-1.145
			c0.295-1.022,0.382-2.086,0.259-3.158c-0.245-2.143-1.31-4.062-2.999-5.404c-1.423-1.13-3.206-1.753-5.02-1.753
			c-2.479,0-4.784,1.114-6.328,3.053c-2.769,3.487-2.187,8.576,1.302,11.347c1.422,1.129,3.205,1.753,5.02,1.753
			c0.512,0,0.926,0.414,0.926,0.924C95.252,95.666,94.838,96.08,94.326,96.08L94.326,96.08z"/>
		<path id="XMLID_7_" class="st0" d="M99.171,86.156c0,2.674-2.167,4.841-4.842,4.841c-2.673,0-4.84-2.169-4.84-4.841
			c0-2.672,2.168-4.839,4.84-4.839C97.004,81.317,99.171,83.484,99.171,86.156L99.171,86.156z"/>
		<path id="XMLID_4_" d="M94.326,91.921c-1.294,0-2.567-0.442-3.583-1.251c-2.489-1.978-2.903-5.611-0.928-8.1
			c1.101-1.385,2.747-2.179,4.518-2.179c1.295,0,2.567,0.444,3.583,1.253c2.488,1.977,2.904,5.61,0.927,8.098
			C97.743,91.127,96.098,91.921,94.326,91.921L94.326,91.921z M94.334,82.24c-1.203,0-2.322,0.539-3.071,1.481
			c-1.341,1.689-1.061,4.159,0.633,5.502c0.7,0.557,1.54,0.85,2.433,0.85c1.203,0,2.32-0.539,3.068-1.48
			c1.345-1.689,1.063-4.159-0.63-5.502C96.066,82.535,95.226,82.24,94.334,82.24L94.334,82.24z"/>
		<path id="XMLID_3_" class="st1" d="M100.376,103.01c1.311,0,2.376-1.063,2.376-2.375v-6.073c0-1.771-1.436-3.206-3.207-3.206
			l-3.247-0.006v-4.749c0-1.002-0.778-1.854-1.78-1.892c-1.051-0.036-1.916,0.804-1.916,1.848v8.297l-0.485-1.012
			c-0.265-0.552-0.764-0.863-1.278-0.863c-0.236,0-0.475,0.067-0.697,0.205c-0.705,0.441-0.965,1.451-0.577,2.257
			c0,0,1.599,3.745,2.741,6.197c0.391,0.837,1.229,1.372,2.152,1.372H100.376L100.376,103.01z"/>
	</g>
</g>
<g>
	<g>
		<path d="M44.395,20.659H17.441c-0.508,0-0.923-0.413-0.923-0.923c0-0.508,0.415-0.921,0.923-0.921h26.953
			c0.51,0,0.922,0.413,0.922,0.921C45.316,20.246,44.904,20.659,44.395,20.659z"/>
	</g>
	<g>
		<path d="M23.284,31.138H0.922C0.412,31.138,0,30.725,0,30.216c0-0.509,0.412-0.922,0.922-0.922h22.362
			c0.51,0,0.922,0.413,0.922,0.922C24.206,30.725,23.794,31.138,23.284,31.138z"/>
	</g>
	<g>
		<path d="M12.102,20.659h-3.9c-0.511,0-0.923-0.413-0.923-0.923c0-0.508,0.412-0.921,0.923-0.921h3.9
			c0.509,0,0.922,0.413,0.922,0.921C13.024,20.246,12.611,20.659,12.102,20.659z"/>
	</g>
</g>
<g>
	<g>
		<path d="M234.593,20.659h26.952c0.51,0,0.924-0.413,0.924-0.923c0-0.508-0.414-0.921-0.924-0.921h-26.952
			c-0.51,0-0.923,0.413-0.923,0.921C233.67,20.246,234.083,20.659,234.593,20.659z"/>
	</g>
	<g>
		<path d="M255.703,31.138h22.361c0.51,0,0.923-0.413,0.923-0.922c0-0.509-0.413-0.922-0.923-0.922h-22.361
			c-0.51,0-0.922,0.413-0.922,0.922C254.781,30.725,255.193,31.138,255.703,31.138z"/>
	</g>
	<g>
		<path d="M266.885,20.659h3.9c0.51,0,0.923-0.413,0.923-0.923c0-0.508-0.413-0.921-0.923-0.921h-3.9
			c-0.51,0-0.922,0.413-0.922,0.921C265.963,20.246,266.375,20.659,266.885,20.659z"/>
	</g>
</g>
<g>
	<g>
		<path d="M244.311,94.24h-26.952c-0.509,0-0.923,0.413-0.923,0.922c0,0.509,0.414,0.922,0.923,0.922h26.952
			c0.51,0,0.923-0.413,0.923-0.922C245.233,94.653,244.82,94.24,244.311,94.24z"/>
	</g>
	<g>
		<path d="M223.2,83.762h-22.362c-0.509,0-0.921,0.413-0.921,0.922c0,0.509,0.412,0.921,0.921,0.921H223.2
			c0.511,0,0.923-0.412,0.923-0.921C224.123,84.175,223.711,83.762,223.2,83.762z"/>
	</g>
	<g>
		<path d="M212.018,94.24h-3.899c-0.511,0-0.923,0.413-0.923,0.922c0,0.509,0.412,0.922,0.923,0.922h3.899
			c0.511,0,0.923-0.413,0.923-0.922C212.941,94.653,212.529,94.24,212.018,94.24z"/>
	</g>
</g>
<g>
	<g>
		<path d="M13.964,94.24h26.952c0.509,0,0.923,0.413,0.923,0.922c0,0.509-0.414,0.922-0.923,0.922H13.964
			c-0.51,0-0.923-0.413-0.923-0.922C13.041,94.653,13.454,94.24,13.964,94.24z"/>
	</g>
	<g>
		<path d="M35.074,83.762h22.362c0.509,0,0.921,0.413,0.921,0.922c0,0.509-0.412,0.921-0.921,0.921H35.074
			c-0.51,0-0.923-0.412-0.923-0.921C34.151,84.175,34.564,83.762,35.074,83.762z"/>
	</g>
	<g>
		<path d="M46.256,94.24h3.9c0.51,0,0.922,0.413,0.922,0.922c0,0.509-0.412,0.922-0.922,0.922h-3.9c-0.51,0-0.922-0.413-0.922-0.922
			C45.334,94.653,45.746,94.24,46.256,94.24z"/>
	</g>
</g>
<g>
	<g>
		<path d="M104.385,1.844h26.952c0.509,0,0.921-0.414,0.921-0.922c0-0.51-0.412-0.922-0.921-0.922h-26.952
			c-0.51,0-0.923,0.412-0.923,0.922C103.462,1.43,103.875,1.844,104.385,1.844z"/>
	</g>
	<g>
		<path d="M136.677,1.844h3.9c0.511,0,0.923-0.414,0.923-0.922c0-0.51-0.412-0.922-0.923-0.922h-3.9
			c-0.51,0-0.923,0.412-0.923,0.922C135.754,1.43,136.167,1.844,136.677,1.844z"/>
	</g>
</g>
</svg>