<!-- Generator: Adobe Illustrator 17.0.0, SVG Export Plug-In  -->
<svg version="1.1"
	 xmlns="http://www.w3.org/2000/svg" xmlns:xlink="http://www.w3.org/1999/xlink" xmlns:a="http://ns.adobe.com/AdobeSVGViewerExtensions/3.0/"
	 x="0px" y="0px" width="388.032px" height="270.277px" viewBox="0 0 388.032 270.277"
	 style="enable-background:new 0 0 388.032 270.277;" xml:space="preserve">
<style type="text/css">
	.st0{fill:#E54F26;}
	.st1{fill:#FFFFFF;stroke:#000000;stroke-width:1.7139;stroke-miterlimit:10;}
</style>
<defs>
</defs>
<g>
	<g>
		<path d="M50.535,24.343H23.581c-0.507,0-0.923-0.413-0.923-0.923c0-0.508,0.416-0.921,0.923-0.921h26.954
			c0.51,0,0.922,0.413,0.922,0.921C51.457,23.93,51.045,24.343,50.535,24.343z"/>
	</g>
	<g>
		<path d="M29.424,34.821H7.063c-0.51,0-0.922-0.413-0.922-0.922s0.412-0.922,0.922-0.922h22.361c0.51,0,0.922,0.413,0.922,0.922
			S29.934,34.821,29.424,34.821z"/>
	</g>
	<g>
		<path d="M18.242,24.343h-3.9c-0.51,0-0.922-0.413-0.922-0.923c0-0.508,0.412-0.921,0.922-0.921h3.9
			c0.51,0,0.922,0.413,0.922,0.921C19.164,23.93,18.752,24.343,18.242,24.343z"/>
	</g>
</g>
<g>
	<g>
		<path d="M337.5,25.199h26.951c0.51,0,0.924-0.413,0.924-0.923c0-0.508-0.414-0.921-0.924-0.921H337.5
			c-0.51,0-0.924,0.413-0.924,0.921C336.576,24.786,336.99,25.199,337.5,25.199z"/>
	</g>
	<g>
		<path d="M358.608,35.678h22.362c0.509,0,0.924-0.413,0.924-0.922c0-0.509-0.415-0.922-0.924-0.922h-22.362
			c-0.51,0-0.92,0.413-0.92,0.922C357.688,35.265,358.099,35.678,358.608,35.678z"/>
	</g>
	<g>
		<path d="M369.791,25.199h3.9c0.509,0,0.924-0.413,0.924-0.923c0-0.508-0.415-0.921-0.924-0.921h-3.9
			c-0.511,0-0.922,0.413-0.922,0.921C368.869,24.786,369.28,25.199,369.791,25.199z"/>
	</g>
</g>
<g>
	<g>
		<path d="M374.605,125.053h-26.953c-0.508,0-0.922,0.413-0.922,0.922c0,0.509,0.414,0.922,0.922,0.922h26.953
			c0.51,0,0.922-0.413,0.922-0.922C375.527,125.466,375.115,125.053,374.605,125.053z"/>
	</g>
	<g>
		<path d="M353.496,114.574h-22.363c-0.51,0-0.923,0.413-0.923,0.922c0,0.509,0.413,0.921,0.923,0.921h22.363
			c0.51,0,0.922-0.412,0.922-0.921C354.418,114.987,354.006,114.574,353.496,114.574z"/>
	</g>
	<g>
		<path d="M342.313,125.053h-3.9c-0.511,0-0.923,0.413-0.923,0.922c0,0.509,0.412,0.922,0.923,0.922h3.9
			c0.511,0,0.923-0.413,0.923-0.922C343.236,125.466,342.824,125.053,342.313,125.053z"/>
	</g>
</g>
<g>
	<g>
		<path d="M16.303,125.053h26.951c0.509,0,0.924,0.413,0.924,0.922c0,0.509-0.415,0.922-0.924,0.922H16.303
			c-0.51,0-0.925-0.413-0.925-0.922C15.378,125.466,15.793,125.053,16.303,125.053z"/>
	</g>
	<g>
		<path d="M37.412,114.574h22.363c0.508,0,0.92,0.413,0.92,0.922c0,0.509-0.412,0.921-0.92,0.921H37.412
			c-0.51,0-0.922-0.412-0.922-0.921C36.49,114.987,36.902,114.574,37.412,114.574z"/>
	</g>
	<g>
		<path d="M48.594,125.053h3.899c0.513,0,0.923,0.413,0.923,0.922c0,0.509-0.41,0.922-0.923,0.922h-3.899
			c-0.51,0-0.922-0.413-0.922-0.922C47.672,125.466,48.084,125.053,48.594,125.053z"/>
	</g>
</g>
<g>
	<g>
		<path d="M387.111,201.388h-26.953c-0.508,0-0.922,0.413-0.922,0.922c0,0.509,0.414,0.922,0.922,0.922h26.953
			c0.51,0,0.921-0.413,0.921-0.922C388.032,201.801,387.621,201.388,387.111,201.388z"/>
	</g>
	<g>
		<path d="M366.002,190.909h-22.363c-0.51,0-0.922,0.413-0.922,0.922c0,0.509,0.412,0.921,0.922,0.921h22.363
			c0.509,0,0.922-0.412,0.922-0.921C366.924,191.322,366.511,190.909,366.002,190.909z"/>
	</g>
	<g>
		<path d="M354.818,201.388h-3.898c-0.512,0-0.924,0.413-0.924,0.922c0,0.509,0.412,0.922,0.924,0.922h3.898
			c0.511,0,0.924-0.413,0.924-0.922C355.742,201.801,355.329,201.388,354.818,201.388z"/>
	</g>
</g>
<g>
	<g>
		<path d="M0.924,208.987h26.951c0.51,0,0.922,0.413,0.922,0.922c0,0.509-0.412,0.922-0.922,0.922H0.924
			c-0.511,0-0.924-0.413-0.924-0.922C0,209.4,0.413,208.987,0.924,208.987z"/>
	</g>
	<g>
		<path d="M22.032,198.509h22.365c0.507,0,0.918,0.413,0.918,0.922c0,0.509-0.411,0.921-0.918,0.921H22.032
			c-0.509,0-0.921-0.412-0.921-0.921C21.111,198.922,21.523,198.509,22.032,198.509z"/>
	</g>
	<g>
		<path d="M33.214,208.987h3.901c0.51,0,0.922,0.413,0.922,0.922c0,0.509-0.412,0.922-0.922,0.922h-3.901
			c-0.509,0-0.921-0.413-0.921-0.922C32.293,209.4,32.705,208.987,33.214,208.987z"/>
	</g>
</g>
<g>
	<g>
		<path d="M110.875,1.844h26.953c0.508,0,0.92-0.414,0.92-0.922c0-0.51-0.412-0.922-0.92-0.922h-26.953
			c-0.511,0-0.922,0.412-0.922,0.922C109.953,1.43,110.364,1.844,110.875,1.844z"/>
	</g>
	<g>
		<path d="M143.165,1.844h3.901c0.512,0,0.924-0.414,0.924-0.922c0-0.51-0.412-0.922-0.924-0.922h-3.901
			c-0.507,0-0.921,0.412-0.921,0.922C142.244,1.43,142.658,1.844,143.165,1.844z"/>
	</g>
</g>
<g>
	<g>
		<path d="M267.639,1.844h-26.953c-0.508,0-0.92-0.414-0.92-0.922c0-0.51,0.412-0.922,0.92-0.922h26.953
			c0.509,0,0.922,0.412,0.922,0.922C268.56,1.43,268.147,1.844,267.639,1.844z"/>
	</g>
	<g>
		<path d="M235.347,1.844h-3.899c-0.512,0-0.924-0.414-0.924-0.922c0-0.51,0.412-0.922,0.924-0.922h3.899
			c0.509,0,0.923,0.412,0.923,0.922C236.27,1.43,235.855,1.844,235.347,1.844z"/>
	</g>
</g>
<g id="XMLID_1_">
	<g>
		<path d="M185.699,250.124l0.964,0.243c-0.202,0.792-0.565,1.396-1.09,1.811c-0.525,0.415-1.166,0.623-1.925,0.623
			c-0.784,0-1.423-0.159-1.914-0.479c-0.491-0.319-0.866-0.781-1.122-1.388c-0.257-0.605-0.385-1.256-0.385-1.951
			c0-0.759,0.145-1.42,0.435-1.984c0.289-0.564,0.701-0.993,1.236-1.286c0.534-0.293,1.123-0.439,1.766-0.439
			c0.728,0,1.341,0.186,1.837,0.557c0.497,0.37,0.843,0.892,1.038,1.563l-0.948,0.224c-0.169-0.529-0.414-0.915-0.735-1.157
			c-0.321-0.241-0.725-0.362-1.212-0.362c-0.56,0-1.027,0.135-1.402,0.402c-0.376,0.269-0.64,0.628-0.792,1.08
			s-0.229,0.918-0.229,1.398c0,0.619,0.09,1.159,0.271,1.621s0.461,0.807,0.842,1.035s0.793,0.343,1.236,0.343
			c0.539,0,0.996-0.155,1.37-0.467S185.567,250.736,185.699,250.124z"/>
		<path d="M187.716,252.677v-7.28h0.894v7.28H187.716z"/>
		<path d="M190.001,246.425v-1.028h0.894v1.028H190.001z M190.001,252.677v-5.273h0.894v5.273H190.001z"/>
		<path d="M195.696,250.745l0.88,0.114c-0.097,0.605-0.343,1.08-0.738,1.423s-0.881,0.514-1.457,0.514
			c-0.722,0-1.302-0.235-1.74-0.708c-0.439-0.472-0.658-1.147-0.658-2.028c0-0.569,0.094-1.067,0.283-1.494
			c0.188-0.428,0.476-0.748,0.861-0.961c0.386-0.214,0.805-0.32,1.259-0.32c0.572,0,1.041,0.145,1.405,0.435
			c0.364,0.289,0.598,0.7,0.7,1.233l-0.869,0.134c-0.083-0.354-0.229-0.62-0.439-0.799s-0.464-0.269-0.762-0.269
			c-0.45,0-0.816,0.161-1.098,0.484s-0.422,0.833-0.422,1.532c0,0.708,0.136,1.223,0.407,1.544c0.271,0.321,0.625,0.481,1.063,0.481
			c0.351,0,0.644-0.107,0.879-0.322C195.484,251.523,195.634,251.192,195.696,250.745z"/>
		<path d="M200.165,254.698v-7.295h0.814v0.685c0.192-0.268,0.409-0.469,0.651-0.603c0.241-0.135,0.534-0.201,0.879-0.201
			c0.45,0,0.847,0.115,1.191,0.348c0.345,0.231,0.604,0.559,0.779,0.98c0.176,0.422,0.264,0.885,0.264,1.388
			c0,0.54-0.097,1.025-0.291,1.458c-0.193,0.432-0.475,0.763-0.844,0.993c-0.369,0.229-0.757,0.345-1.164,0.345
			c-0.299,0-0.565-0.063-0.803-0.188c-0.236-0.126-0.431-0.285-0.583-0.477v2.567H200.165z M200.975,250.069
			c0,0.679,0.138,1.181,0.412,1.505c0.275,0.324,0.607,0.486,0.999,0.486c0.396,0,0.737-0.168,1.021-0.504
			c0.282-0.336,0.424-0.856,0.424-1.562c0-0.672-0.138-1.175-0.414-1.51c-0.276-0.334-0.607-0.501-0.991-0.501
			c-0.381,0-0.718,0.178-1.011,0.533C201.121,248.874,200.975,249.391,200.975,250.069z"/>
		<path d="M209.263,252.026c-0.331,0.281-0.649,0.479-0.955,0.596c-0.307,0.116-0.636,0.174-0.986,0.174
			c-0.579,0-1.024-0.142-1.336-0.425c-0.311-0.283-0.467-0.645-0.467-1.085c0-0.258,0.059-0.494,0.177-0.707
			c0.117-0.214,0.271-0.386,0.462-0.515s0.404-0.227,0.643-0.293c0.176-0.046,0.44-0.091,0.795-0.134
			c0.722-0.086,1.253-0.188,1.594-0.308c0.004-0.123,0.005-0.2,0.005-0.233c0-0.364-0.084-0.621-0.253-0.771
			c-0.229-0.201-0.568-0.303-1.019-0.303c-0.42,0-0.73,0.074-0.931,0.222c-0.2,0.146-0.349,0.407-0.444,0.781l-0.874-0.119
			c0.079-0.374,0.21-0.676,0.393-0.906c0.182-0.229,0.445-0.407,0.789-0.531c0.345-0.124,0.743-0.186,1.197-0.186
			c0.45,0,0.815,0.053,1.097,0.158c0.282,0.106,0.489,0.239,0.621,0.4c0.133,0.16,0.226,0.363,0.278,0.608
			c0.029,0.152,0.045,0.427,0.045,0.824v1.191c0,0.831,0.019,1.356,0.057,1.577c0.038,0.22,0.113,0.431,0.227,0.633h-0.934
			C209.35,252.491,209.29,252.274,209.263,252.026z M209.188,250.03c-0.324,0.132-0.811,0.245-1.46,0.337
			c-0.367,0.054-0.627,0.113-0.779,0.179c-0.152,0.066-0.271,0.164-0.353,0.291c-0.083,0.128-0.124,0.269-0.124,0.425
			c0,0.238,0.09,0.437,0.271,0.596s0.444,0.238,0.792,0.238c0.344,0,0.65-0.075,0.919-0.226c0.268-0.151,0.465-0.357,0.591-0.618
			c0.096-0.202,0.144-0.5,0.144-0.895V250.03z"/>
		<path d="M211.468,252.677v-5.273h0.805v0.799c0.205-0.374,0.395-0.62,0.568-0.739s0.365-0.179,0.574-0.179
			c0.301,0,0.607,0.096,0.918,0.288l-0.308,0.829c-0.219-0.129-0.437-0.194-0.655-0.194c-0.195,0-0.371,0.06-0.526,0.177
			s-0.267,0.28-0.333,0.489c-0.1,0.317-0.148,0.665-0.148,1.043v2.761H211.468z"/>
		<path d="M218.306,252.026c-0.331,0.281-0.649,0.479-0.955,0.596c-0.307,0.116-0.636,0.174-0.986,0.174
			c-0.579,0-1.024-0.142-1.336-0.425c-0.311-0.283-0.467-0.645-0.467-1.085c0-0.258,0.059-0.494,0.177-0.707
			c0.117-0.214,0.271-0.386,0.462-0.515s0.404-0.227,0.643-0.293c0.176-0.046,0.44-0.091,0.795-0.134
			c0.722-0.086,1.253-0.188,1.594-0.308c0.004-0.123,0.005-0.2,0.005-0.233c0-0.364-0.084-0.621-0.253-0.771
			c-0.229-0.201-0.568-0.303-1.019-0.303c-0.42,0-0.73,0.074-0.931,0.222c-0.2,0.146-0.349,0.407-0.444,0.781l-0.874-0.119
			c0.079-0.374,0.21-0.676,0.393-0.906c0.182-0.229,0.445-0.407,0.789-0.531c0.345-0.124,0.743-0.186,1.197-0.186
			c0.45,0,0.815,0.053,1.097,0.158c0.282,0.106,0.489,0.239,0.621,0.4c0.133,0.16,0.226,0.363,0.278,0.608
			c0.029,0.152,0.045,0.427,0.045,0.824v1.191c0,0.831,0.019,1.356,0.057,1.577c0.038,0.22,0.113,0.431,0.227,0.633h-0.934
			C218.393,252.491,218.333,252.274,218.306,252.026z M218.231,250.03c-0.324,0.132-0.811,0.245-1.46,0.337
			c-0.367,0.054-0.627,0.113-0.779,0.179c-0.152,0.066-0.271,0.164-0.353,0.291c-0.083,0.128-0.124,0.269-0.124,0.425
			c0,0.238,0.09,0.437,0.271,0.596s0.444,0.238,0.792,0.238c0.344,0,0.65-0.075,0.919-0.226c0.268-0.151,0.465-0.357,0.591-0.618
			c0.096-0.202,0.144-0.5,0.144-0.895V250.03z"/>
		<path d="M223.346,252.677v-5.273h0.8v0.739c0.166-0.258,0.386-0.466,0.661-0.623c0.274-0.157,0.587-0.235,0.938-0.235
			c0.391,0,0.711,0.081,0.961,0.243c0.249,0.162,0.426,0.389,0.528,0.68c0.417-0.615,0.96-0.923,1.629-0.923
			c0.523,0,0.926,0.145,1.207,0.435c0.281,0.289,0.422,0.735,0.422,1.338v3.62h-0.889v-3.322c0-0.357-0.029-0.615-0.087-0.772
			c-0.059-0.157-0.163-0.283-0.315-0.38c-0.152-0.096-0.331-0.144-0.536-0.144c-0.371,0-0.679,0.123-0.924,0.37
			c-0.245,0.246-0.368,0.642-0.368,1.184v3.064h-0.894v-3.427c0-0.397-0.072-0.695-0.219-0.894
			c-0.146-0.198-0.384-0.298-0.715-0.298c-0.251,0-0.484,0.066-0.697,0.198c-0.214,0.133-0.368,0.326-0.465,0.581
			c-0.096,0.255-0.144,0.623-0.144,1.103v2.736H223.346z"/>
		<path d="M235.259,252.026c-0.331,0.281-0.649,0.479-0.955,0.596c-0.307,0.116-0.636,0.174-0.986,0.174
			c-0.579,0-1.024-0.142-1.336-0.425c-0.311-0.283-0.467-0.645-0.467-1.085c0-0.258,0.059-0.494,0.177-0.707
			c0.117-0.214,0.271-0.386,0.462-0.515s0.404-0.227,0.643-0.293c0.176-0.046,0.44-0.091,0.795-0.134
			c0.722-0.086,1.253-0.188,1.594-0.308c0.004-0.123,0.005-0.2,0.005-0.233c0-0.364-0.084-0.621-0.253-0.771
			c-0.229-0.201-0.568-0.303-1.019-0.303c-0.42,0-0.73,0.074-0.931,0.222c-0.2,0.146-0.349,0.407-0.444,0.781l-0.874-0.119
			c0.079-0.374,0.21-0.676,0.393-0.906c0.182-0.229,0.445-0.407,0.789-0.531c0.345-0.124,0.743-0.186,1.197-0.186
			c0.45,0,0.815,0.053,1.097,0.158c0.282,0.106,0.489,0.239,0.621,0.4c0.133,0.16,0.226,0.363,0.278,0.608
			c0.029,0.152,0.045,0.427,0.045,0.824v1.191c0,0.831,0.019,1.356,0.057,1.577c0.038,0.22,0.113,0.431,0.227,0.633h-0.934
			C235.346,252.491,235.286,252.274,235.259,252.026z M235.185,250.03c-0.324,0.132-0.811,0.245-1.46,0.337
			c-0.367,0.054-0.627,0.113-0.779,0.179c-0.152,0.066-0.271,0.164-0.353,0.291c-0.083,0.128-0.124,0.269-0.124,0.425
			c0,0.238,0.09,0.437,0.271,0.596s0.444,0.238,0.792,0.238c0.344,0,0.65-0.075,0.919-0.226c0.268-0.151,0.465-0.357,0.591-0.618
			c0.096-0.202,0.144-0.5,0.144-0.895V250.03z M233.446,246.747l0.661-1.39h1.172l-1.093,1.39H233.446z"/>
		<path d="M237.116,251.103l0.885-0.139c0.049,0.354,0.188,0.625,0.414,0.814c0.227,0.188,0.544,0.282,0.951,0.282
			c0.41,0,0.715-0.083,0.914-0.25c0.198-0.167,0.298-0.363,0.298-0.589c0-0.202-0.088-0.36-0.264-0.477
			c-0.122-0.079-0.427-0.181-0.913-0.303c-0.656-0.166-1.11-0.309-1.363-0.43c-0.254-0.121-0.445-0.288-0.576-0.502
			c-0.131-0.213-0.196-0.449-0.196-0.707c0-0.235,0.054-0.453,0.161-0.653s0.254-0.366,0.439-0.499
			c0.14-0.103,0.329-0.189,0.568-0.261c0.24-0.071,0.498-0.106,0.772-0.106c0.414,0,0.777,0.06,1.09,0.179
			c0.313,0.119,0.544,0.28,0.693,0.483c0.148,0.204,0.251,0.477,0.308,0.817l-0.874,0.119c-0.04-0.271-0.154-0.483-0.345-0.636
			s-0.46-0.229-0.808-0.229c-0.41,0-0.703,0.068-0.879,0.204c-0.175,0.136-0.263,0.294-0.263,0.477c0,0.116,0.036,0.22,0.109,0.313
			c0.072,0.097,0.187,0.176,0.342,0.238c0.09,0.033,0.354,0.109,0.79,0.229c0.632,0.169,1.073,0.308,1.323,0.415
			s0.446,0.264,0.589,0.469c0.142,0.206,0.213,0.461,0.213,0.765c0,0.299-0.087,0.579-0.261,0.842
			c-0.174,0.264-0.424,0.467-0.752,0.611c-0.328,0.144-0.698,0.216-1.112,0.216c-0.686,0-1.208-0.143-1.566-0.427
			C237.445,252.084,237.216,251.662,237.116,251.103z"/>
		<path d="M185.196,257.378v-1.028h0.894v1.028H185.196z M185.196,263.63v-5.273h0.894v5.273H185.196z"/>
		<path d="M187.45,263.63v-5.273h0.805v0.749c0.388-0.579,0.947-0.868,1.679-0.868c0.317,0,0.61,0.057,0.877,0.171
			c0.266,0.114,0.466,0.264,0.598,0.449c0.133,0.186,0.226,0.406,0.278,0.661c0.033,0.165,0.05,0.455,0.05,0.868v3.243h-0.894
			v-3.208c0-0.364-0.035-0.637-0.104-0.816c-0.069-0.181-0.193-0.325-0.37-0.433s-0.385-0.161-0.623-0.161
			c-0.381,0-0.71,0.121-0.986,0.362c-0.276,0.242-0.414,0.7-0.414,1.376v2.88H187.45z"/>
		<path d="M193.32,263.63v-4.578h-0.789v-0.695h0.789v-0.562c0-0.354,0.031-0.617,0.095-0.79c0.086-0.231,0.237-0.419,0.454-0.563
			c0.217-0.144,0.521-0.216,0.911-0.216c0.252,0,0.53,0.03,0.834,0.09l-0.134,0.779c-0.186-0.033-0.36-0.05-0.526-0.05
			c-0.271,0-0.464,0.059-0.576,0.174c-0.112,0.116-0.169,0.333-0.169,0.65v0.487h1.028v0.695h-1.028v4.578H193.32z"/>
		<path d="M195.6,260.993c0-0.977,0.271-1.7,0.814-2.17c0.453-0.391,1.006-0.586,1.658-0.586c0.726,0,1.317,0.237,1.778,0.712
			c0.46,0.476,0.689,1.132,0.689,1.97c0,0.679-0.102,1.212-0.305,1.601c-0.204,0.39-0.5,0.691-0.89,0.907
			c-0.389,0.215-0.813,0.322-1.273,0.322c-0.738,0-1.335-0.236-1.79-0.71S195.6,261.884,195.6,260.993z M196.519,260.993
			c0,0.675,0.146,1.181,0.441,1.517s0.666,0.504,1.112,0.504c0.443,0,0.813-0.168,1.107-0.506s0.442-0.853,0.442-1.545
			c0-0.652-0.148-1.146-0.444-1.482c-0.297-0.336-0.665-0.504-1.105-0.504c-0.446,0-0.817,0.167-1.112,0.502
			C196.665,259.813,196.519,260.317,196.519,260.993z"/>
		<path d="M201.578,263.63v-5.273h0.805v0.799c0.205-0.374,0.395-0.62,0.568-0.739s0.365-0.179,0.574-0.179
			c0.301,0,0.607,0.096,0.918,0.288l-0.308,0.829c-0.219-0.129-0.437-0.194-0.655-0.194c-0.195,0-0.371,0.06-0.526,0.177
			s-0.267,0.28-0.333,0.489c-0.1,0.317-0.148,0.665-0.148,1.043v2.761H201.578z"/>
		<path d="M204.975,263.63v-5.273h0.8v0.739c0.166-0.258,0.386-0.466,0.661-0.623c0.274-0.157,0.587-0.235,0.938-0.235
			c0.391,0,0.711,0.081,0.961,0.243c0.249,0.162,0.426,0.389,0.528,0.68c0.417-0.615,0.96-0.923,1.629-0.923
			c0.523,0,0.926,0.145,1.207,0.435c0.281,0.289,0.422,0.735,0.422,1.338v3.62h-0.889v-3.322c0-0.357-0.029-0.615-0.087-0.772
			c-0.059-0.157-0.163-0.283-0.315-0.38c-0.152-0.096-0.331-0.144-0.536-0.144c-0.371,0-0.679,0.123-0.924,0.37
			c-0.245,0.246-0.368,0.642-0.368,1.184v3.064h-0.894v-3.427c0-0.397-0.072-0.695-0.219-0.894
			c-0.146-0.198-0.384-0.298-0.715-0.298c-0.251,0-0.484,0.066-0.697,0.198c-0.214,0.133-0.368,0.326-0.465,0.581
			c-0.096,0.255-0.144,0.623-0.144,1.103v2.736H204.975z"/>
		<path d="M216.888,262.979c-0.331,0.281-0.649,0.479-0.955,0.596c-0.307,0.116-0.636,0.174-0.986,0.174
			c-0.579,0-1.024-0.142-1.336-0.425c-0.311-0.283-0.467-0.645-0.467-1.085c0-0.258,0.059-0.494,0.177-0.707
			c0.117-0.214,0.271-0.386,0.462-0.515s0.404-0.227,0.643-0.293c0.176-0.046,0.44-0.091,0.795-0.134
			c0.722-0.086,1.253-0.188,1.594-0.308c0.004-0.123,0.005-0.2,0.005-0.233c0-0.364-0.084-0.621-0.253-0.771
			c-0.229-0.201-0.568-0.303-1.019-0.303c-0.42,0-0.73,0.074-0.931,0.222c-0.2,0.146-0.349,0.407-0.444,0.781l-0.874-0.119
			c0.079-0.374,0.21-0.676,0.393-0.906c0.182-0.229,0.445-0.407,0.789-0.531c0.345-0.124,0.743-0.186,1.197-0.186
			c0.45,0,0.815,0.053,1.097,0.158c0.282,0.106,0.489,0.239,0.621,0.4c0.133,0.16,0.226,0.363,0.278,0.608
			c0.029,0.152,0.045,0.427,0.045,0.824v1.191c0,0.831,0.019,1.356,0.057,1.577c0.038,0.22,0.113,0.431,0.227,0.633h-0.934
			C216.975,263.444,216.915,263.228,216.888,262.979z M216.813,260.983c-0.324,0.132-0.811,0.245-1.46,0.337
			c-0.367,0.054-0.627,0.113-0.779,0.179c-0.152,0.066-0.271,0.164-0.353,0.291c-0.083,0.128-0.124,0.269-0.124,0.425
			c0,0.238,0.09,0.437,0.271,0.596s0.444,0.238,0.792,0.238c0.344,0,0.65-0.075,0.919-0.226c0.268-0.151,0.465-0.357,0.591-0.618
			c0.096-0.202,0.144-0.5,0.144-0.895V260.983z"/>
		<path d="M222.544,261.698l0.88,0.114c-0.097,0.605-0.343,1.08-0.738,1.423s-0.881,0.514-1.457,0.514
			c-0.722,0-1.302-0.235-1.74-0.708c-0.439-0.472-0.658-1.147-0.658-2.028c0-0.569,0.094-1.067,0.283-1.494
			c0.188-0.428,0.476-0.748,0.861-0.961c0.386-0.214,0.805-0.32,1.259-0.32c0.572,0,1.041,0.145,1.405,0.435
			c0.364,0.289,0.598,0.7,0.7,1.233l-0.869,0.134c-0.083-0.354-0.229-0.62-0.439-0.799s-0.464-0.269-0.762-0.269
			c-0.45,0-0.816,0.161-1.098,0.484s-0.422,0.833-0.422,1.532c0,0.708,0.136,1.223,0.407,1.544c0.271,0.321,0.625,0.481,1.063,0.481
			c0.351,0,0.644-0.107,0.879-0.322C222.332,262.477,222.481,262.146,222.544,261.698z"/>
		<path d="M224.193,257.378v-1.028h0.894v1.028H224.193z M224.193,263.63v-5.273h0.894v5.273H224.193z"/>
		<path d="M226.115,260.993c0-0.977,0.271-1.7,0.814-2.17c0.453-0.391,1.006-0.586,1.658-0.586c0.726,0,1.317,0.237,1.778,0.712
			c0.46,0.476,0.689,1.132,0.689,1.97c0,0.679-0.102,1.212-0.305,1.601c-0.204,0.39-0.5,0.691-0.89,0.907
			c-0.389,0.215-0.813,0.322-1.273,0.322c-0.738,0-1.335-0.236-1.79-0.71S226.115,261.884,226.115,260.993z M227.034,260.993
			c0,0.675,0.146,1.181,0.441,1.517s0.666,0.504,1.112,0.504c0.443,0,0.813-0.168,1.107-0.506s0.442-0.853,0.442-1.545
			c0-0.652-0.148-1.146-0.444-1.482c-0.297-0.336-0.665-0.504-1.105-0.504c-0.446,0-0.817,0.167-1.112,0.502
			C227.181,259.813,227.034,260.317,227.034,260.993z M228.092,257.7l0.66-1.39h1.172l-1.093,1.39H228.092z"/>
		<path d="M232.103,263.63v-5.273h0.805v0.749c0.388-0.579,0.947-0.868,1.679-0.868c0.317,0,0.61,0.057,0.877,0.171
			c0.266,0.114,0.466,0.264,0.598,0.449c0.133,0.186,0.226,0.406,0.278,0.661c0.033,0.165,0.05,0.455,0.05,0.868v3.243h-0.894
			v-3.208c0-0.364-0.035-0.637-0.104-0.816c-0.069-0.181-0.193-0.325-0.37-0.433s-0.385-0.161-0.623-0.161
			c-0.381,0-0.71,0.121-0.986,0.362c-0.276,0.242-0.414,0.7-0.414,1.376v2.88H232.103z"/>
	</g>
	<g id="XMLID_2_">
		<path id="XMLID_9_" d="M158.98,266.651c-3.164,0-6.276-1.087-8.757-3.058c-6.078-4.83-7.096-13.707-2.266-19.787
			c2.69-3.383,6.708-5.323,11.031-5.323c3.166,0,6.274,1.086,8.756,3.058c2.947,2.339,4.805,5.686,5.234,9.423
			c0.201,1.78,0.074,3.548-0.385,5.256c-0.283,1.065-0.699,2.098-1.23,3.068c-0.243,0.449-0.806,0.614-1.253,0.37
			c-0.45-0.245-0.614-0.808-0.369-1.255c0.461-0.844,0.821-1.739,1.066-2.663c0.398-1.48,0.51-3.018,0.332-4.565
			c-0.371-3.246-1.984-6.153-4.545-8.188c-2.156-1.713-4.857-2.655-7.607-2.655c-3.754,0-7.246,1.686-9.582,4.623
			c-4.197,5.284-3.314,12.994,1.969,17.191c2.156,1.713,4.855,2.656,7.607,2.656c0.51,0,0.926,0.414,0.926,0.924
			C159.906,266.235,159.492,266.651,158.98,266.651L158.98,266.651z"/>
		<path id="XMLID_8_" d="M158.98,262.49c-2.231,0-4.419-0.764-6.167-2.154c-4.285-3.402-5.002-9.658-1.6-13.942
			c1.896-2.384,4.729-3.751,7.775-3.751c2.23,0,4.422,0.766,6.172,2.154c2.074,1.648,3.383,4.008,3.686,6.641
			c0.148,1.316,0.041,2.623-0.32,3.883c-0.141,0.49-0.656,0.773-1.145,0.631c-0.49-0.143-0.773-0.654-0.633-1.145
			c0.294-1.022,0.381-2.086,0.258-3.158c-0.244-2.143-1.311-4.062-2.998-5.404c-1.424-1.13-3.207-1.753-5.02-1.753
			c-2.48,0-4.785,1.114-6.328,3.053c-2.77,3.487-2.188,8.576,1.301,11.347c1.421,1.129,3.204,1.753,5.019,1.753
			c0.513,0,0.927,0.414,0.927,0.924C159.906,262.076,159.492,262.49,158.98,262.49L158.98,262.49z"/>
		<path id="XMLID_7_" class="st0" d="M163.826,252.566c0,2.674-2.168,4.841-4.842,4.841c-2.674,0-4.84-2.169-4.84-4.841
			c0-2.672,2.169-4.839,4.84-4.839C161.658,247.727,163.826,249.895,163.826,252.566L163.826,252.566z"/>
		<path id="XMLID_4_" d="M158.98,258.331c-1.291,0-2.566-0.442-3.582-1.251c-2.489-1.978-2.904-5.611-0.927-8.1
			c1.1-1.385,2.746-2.179,4.518-2.179c1.295,0,2.566,0.444,3.582,1.253c2.488,1.977,2.904,5.61,0.926,8.098
			C162.397,257.537,160.752,258.331,158.98,258.331L158.98,258.331z M158.988,248.65c-1.203,0-2.323,0.539-3.07,1.48
			c-1.342,1.689-1.06,4.159,0.632,5.502c0.699,0.557,1.54,0.85,2.433,0.85c1.203,0,2.32-0.539,3.067-1.48
			c1.348-1.689,1.063-4.159-0.628-5.502C160.721,248.945,159.881,248.65,158.988,248.65L158.988,248.65z"/>
		<path id="XMLID_3_" class="st1" d="M165.031,269.42c1.311,0,2.375-1.063,2.375-2.375v-6.073c0-1.771-1.436-3.206-3.207-3.206
			l-3.246-0.006v-4.749c0-1.002-0.779-1.854-1.781-1.892c-1.051-0.036-1.916,0.804-1.916,1.848v8.297l-0.483-1.012
			c-0.267-0.552-0.765-0.863-1.28-0.863c-0.236,0-0.475,0.067-0.698,0.205c-0.704,0.441-0.965,1.451-0.575,2.257
			c0,0,1.597,3.745,2.74,6.197c0.391,0.837,1.229,1.372,2.152,1.372H165.031L165.031,269.42z"/>
	</g>
</g>
<g>
	<g>
		<path d="M78.619,260.65h26.951c0.51,0,0.922,0.413,0.922,0.922c0,0.509-0.412,0.922-0.922,0.922H78.619
			c-0.51,0-0.924-0.413-0.924-0.922C77.695,261.064,78.109,260.65,78.619,260.65z"/>
	</g>
	<g>
		<path d="M99.729,250.172h22.363c0.507,0,0.92,0.413,0.92,0.922c0,0.509-0.413,0.921-0.92,0.921H99.729
			c-0.51,0-0.922-0.412-0.922-0.921C98.807,250.585,99.219,250.172,99.729,250.172z"/>
	</g>
	<g>
		<path d="M110.909,260.65h3.901c0.51,0,0.921,0.413,0.921,0.922c0,0.509-0.411,0.922-0.921,0.922h-3.901
			c-0.51,0-0.921-0.413-0.921-0.922C109.988,261.064,110.399,260.65,110.909,260.65z"/>
	</g>
</g>
<g>
	<g>
		<path d="M311.902,260.65h-26.954c-0.507,0-0.921,0.413-0.921,0.922c0,0.509,0.414,0.922,0.921,0.922h26.954
			c0.51,0,0.922-0.413,0.922-0.922C312.824,261.064,312.412,260.65,311.902,260.65z"/>
	</g>
	<g>
		<path d="M290.791,250.172H268.43c-0.51,0-0.922,0.413-0.922,0.922c0,0.509,0.412,0.921,0.922,0.921h22.361
			c0.51,0,0.923-0.412,0.923-0.921C291.714,250.585,291.301,250.172,290.791,250.172z"/>
	</g>
	<g>
		<path d="M279.608,260.65h-3.899c-0.51,0-0.922,0.413-0.922,0.922c0,0.509,0.412,0.922,0.922,0.922h3.899
			c0.511,0,0.923-0.413,0.923-0.922C280.531,261.064,280.119,260.65,279.608,260.65z"/>
	</g>
</g>
</svg>