<?xml version="1.0" encoding="utf-8"?>
<!-- Generator: Adobe Illustrator 17.0.0, SVG Export Plug-In . SVG Version: 6.00 Build 0)  -->
<!DOCTYPE svg PUBLIC "-//W3C//DTD SVG 1.1//EN" "http://www.w3.org/Graphics/SVG/1.1/DTD/svg11.dtd" [
	<!ENTITY ns_extend "http://ns.adobe.com/Extensibility/1.0/">
	<!ENTITY ns_ai "http://ns.adobe.com/AdobeIllustrator/10.0/">
	<!ENTITY ns_graphs "http://ns.adobe.com/Graphs/1.0/">
	<!ENTITY ns_vars "http://ns.adobe.com/Variables/1.0/">
	<!ENTITY ns_imrep "http://ns.adobe.com/ImageReplacement/1.0/">
	<!ENTITY ns_sfw "http://ns.adobe.com/SaveForWeb/1.0/">
	<!ENTITY ns_custom "http://ns.adobe.com/GenericCustomNamespace/1.0/">
	<!ENTITY ns_adobe_xpath "http://ns.adobe.com/XPath/1.0/">
]>
<svg version="1.1" id="Capa_1" xmlns:x="&ns_extend;" xmlns:i="&ns_ai;" xmlns:graph="&ns_graphs;"
	 xmlns="http://www.w3.org/2000/svg" xmlns:xlink="http://www.w3.org/1999/xlink" x="0px" y="0px" width="21.645px"
	 height="21.646px" viewBox="0 0 21.645 21.646" style="enable-background:new 0 0 21.645 21.646;" xml:space="preserve">
<style type="text/css">
	.st0{fill:#E54F26;}
	.st1{fill:#FFFFFF;}
	.st2{fill:none;stroke:#000000;stroke-miterlimit:10;}
</style>
<metadata>
	<sfw  xmlns="&ns_sfw;">
		<slices></slices>
		<sliceSourceBounds  width="21.646" height="21.647" y="295.677" x="384.677" bottomLeftOrigin="true"></sliceSourceBounds>
	</sfw>
</metadata>
<path class="st0" d="M3.166,18.48c-4.222-4.222-4.222-11.092,0-15.314s11.092-4.222,15.312,0c4.223,4.221,4.223,11.091,0,15.314
	C14.258,22.702,7.388,22.702,3.166,18.48L3.166,18.48z"/>
<path class="st1" d="M16.804,4.84c-3.3-3.297-8.666-3.296-11.963,0c-3.3,3.298-3.3,8.668,0,11.965c3.297,3.298,8.663,3.298,11.963,0
	C20.103,13.508,20.103,8.139,16.804,4.84L16.804,4.84z"/>
<path id="XMLID_6_" class="st2" d="M14.405,7.239c0.604,0.605,0.604,1.585,0,2.187l-1.367,1.369l1.367,1.369
	c0.604,0.602,0.604,1.581,0,2.186c-0.603,0.603-1.583,0.603-2.185,0l-1.367-1.367L9.485,14.35c-0.604,0.603-1.581,0.603-2.187,0
	c-0.604-0.605-0.604-1.584,0-2.186l1.365-1.369L7.298,9.426c-0.604-0.602-0.604-1.582,0-2.187c0.605-0.603,1.582-0.603,2.187,0
	l1.368,1.368l1.367-1.368C12.822,6.636,13.802,6.636,14.405,7.239L14.405,7.239z"/>
</svg>
