<!-- Generator: Adobe Illustrator 17.0.0, SVG Export Plug-In  -->
<svg version="1.1"
	 xmlns="http://www.w3.org/2000/svg" xmlns:xlink="http://www.w3.org/1999/xlink" xmlns:a="http://ns.adobe.com/AdobeSVGViewerExtensions/3.0/"
	 x="0px" y="0px" width="465.292px" height="125.31px" viewBox="0 0 465.292 125.31"
	 style="enable-background:new 0 0 465.292 125.31;" xml:space="preserve">
<style type="text/css">
	.st0{fill:#E54F26;}
	.st1{fill:#FFFFFF;stroke:#000000;stroke-width:1.7139;stroke-miterlimit:10;}
</style>
<defs>
</defs>
<g>
	<g>
		<path d="M44.395,34.528H17.441c-0.508,0-0.923-0.413-0.923-0.923c0-0.508,0.415-0.921,0.923-0.921h26.953
			c0.51,0,0.922,0.413,0.922,0.921C45.316,34.115,44.904,34.528,44.395,34.528z"/>
	</g>
	<g>
		<path d="M23.284,45.007H0.922C0.412,45.007,0,44.594,0,44.085c0-0.509,0.412-0.922,0.922-0.922h22.362
			c0.51,0,0.922,0.413,0.922,0.922C24.206,44.594,23.794,45.007,23.284,45.007z"/>
	</g>
	<g>
		<path d="M12.102,34.528h-3.9c-0.511,0-0.923-0.413-0.923-0.923c0-0.508,0.412-0.921,0.923-0.921h3.9
			c0.509,0,0.922,0.413,0.922,0.921C13.024,34.115,12.611,34.528,12.102,34.528z"/>
	</g>
</g>
<g>
	<g>
		<path d="M420.897,36.54h26.952c0.51,0,0.924-0.413,0.924-0.923c0-0.508-0.414-0.921-0.924-0.921h-26.952
			c-0.51,0-0.923,0.413-0.923,0.921C419.975,36.127,420.388,36.54,420.897,36.54z"/>
	</g>
	<g>
		<path d="M442.008,47.019h22.361c0.51,0,0.923-0.413,0.923-0.922s-0.413-0.922-0.923-0.922h-22.361
			c-0.51,0-0.922,0.413-0.922,0.922S441.498,47.019,442.008,47.019z"/>
	</g>
	<g>
		<path d="M453.189,36.54h3.9c0.51,0,0.923-0.413,0.923-0.923c0-0.508-0.413-0.921-0.923-0.921h-3.9
			c-0.51,0-0.922,0.413-0.922,0.921C452.268,36.127,452.68,36.54,453.189,36.54z"/>
	</g>
</g>
<g>
	<g>
		<path d="M346.125,115.684h-26.952c-0.509,0-0.923,0.413-0.923,0.922c0,0.509,0.414,0.922,0.923,0.922h26.952
			c0.51,0,0.923-0.413,0.923-0.922C347.048,116.097,346.635,115.684,346.125,115.684z"/>
	</g>
	<g>
		<path d="M325.015,105.205h-22.362c-0.509,0-0.921,0.413-0.921,0.922c0,0.509,0.412,0.921,0.921,0.921h22.362
			c0.511,0,0.923-0.412,0.923-0.921C325.938,105.618,325.525,105.205,325.015,105.205z"/>
	</g>
	<g>
		<path d="M313.833,115.684h-3.899c-0.511,0-0.923,0.413-0.923,0.922c0,0.509,0.412,0.922,0.923,0.922h3.899
			c0.511,0,0.923-0.413,0.923-0.922C314.756,116.097,314.344,115.684,313.833,115.684z"/>
	</g>
</g>
<g>
	<g>
		<path d="M115.778,115.684h26.952c0.509,0,0.923,0.413,0.923,0.922c0,0.509-0.414,0.922-0.923,0.922h-26.952
			c-0.51,0-0.923-0.413-0.923-0.922C114.855,116.097,115.269,115.684,115.778,115.684z"/>
	</g>
	<g>
		<path d="M136.889,105.205h22.362c0.509,0,0.921,0.413,0.921,0.922c0,0.509-0.412,0.921-0.921,0.921h-22.362
			c-0.51,0-0.923-0.412-0.923-0.921C135.966,105.618,136.379,105.205,136.889,105.205z"/>
	</g>
	<g>
		<path d="M148.07,115.684h3.9c0.51,0,0.922,0.413,0.922,0.922c0,0.509-0.412,0.922-0.922,0.922h-3.9
			c-0.51,0-0.922-0.413-0.922-0.922C147.148,116.097,147.561,115.684,148.07,115.684z"/>
	</g>
</g>
<g>
	<g>
		<path d="M213.6,1.844h26.952c0.509,0,0.921-0.414,0.921-0.922c0-0.51-0.412-0.922-0.921-0.922H213.6
			c-0.51,0-0.923,0.412-0.923,0.922C212.677,1.43,213.09,1.844,213.6,1.844z"/>
	</g>
	<g>
		<path d="M245.892,1.844h3.899c0.511,0,0.923-0.414,0.923-0.922c0-0.51-0.412-0.922-0.923-0.922h-3.899
			c-0.51,0-0.923,0.412-0.923,0.922C244.969,1.43,245.382,1.844,245.892,1.844z"/>
	</g>
</g>
<g id="XMLID_1_">
	<g>
		<path d="M222.859,105.157l0.964,0.243c-0.202,0.792-0.565,1.396-1.09,1.811c-0.525,0.415-1.166,0.623-1.925,0.623
			c-0.784,0-1.423-0.159-1.914-0.479c-0.491-0.319-0.866-0.781-1.122-1.388c-0.257-0.605-0.385-1.256-0.385-1.951
			c0-0.759,0.145-1.42,0.435-1.984c0.289-0.564,0.701-0.993,1.236-1.286c0.534-0.293,1.123-0.439,1.766-0.439
			c0.728,0,1.341,0.186,1.837,0.557c0.497,0.37,0.843,0.892,1.038,1.563l-0.948,0.224c-0.169-0.529-0.414-0.915-0.735-1.157
			c-0.321-0.241-0.725-0.362-1.212-0.362c-0.56,0-1.027,0.135-1.402,0.402c-0.376,0.269-0.64,0.628-0.792,1.08
			s-0.229,0.918-0.229,1.398c0,0.619,0.09,1.159,0.271,1.621s0.461,0.807,0.842,1.035s0.793,0.343,1.236,0.343
			c0.539,0,0.996-0.155,1.37-0.467S222.728,105.77,222.859,105.157z"/>
		<path d="M224.876,107.71v-7.28h0.894v7.28H224.876z"/>
		<path d="M227.161,101.458v-1.028h0.894v1.028H227.161z M227.161,107.71v-5.273h0.894v5.273H227.161z"/>
		<path d="M232.856,105.778l0.88,0.114c-0.097,0.605-0.343,1.08-0.738,1.423s-0.881,0.514-1.457,0.514
			c-0.722,0-1.302-0.235-1.74-0.708c-0.439-0.472-0.658-1.147-0.658-2.028c0-0.569,0.094-1.067,0.283-1.494
			c0.188-0.428,0.476-0.748,0.861-0.961c0.386-0.214,0.805-0.32,1.259-0.32c0.572,0,1.041,0.145,1.405,0.435
			c0.364,0.289,0.598,0.7,0.7,1.233l-0.869,0.134c-0.083-0.354-0.229-0.62-0.439-0.799s-0.464-0.269-0.762-0.269
			c-0.45,0-0.816,0.161-1.098,0.484s-0.422,0.833-0.422,1.532c0,0.708,0.136,1.223,0.407,1.544c0.271,0.321,0.625,0.481,1.063,0.481
			c0.351,0,0.644-0.107,0.879-0.322C232.645,106.557,232.794,106.226,232.856,105.778z"/>
		<path d="M237.325,109.731v-7.295h0.814v0.685c0.192-0.268,0.409-0.469,0.651-0.603c0.241-0.135,0.534-0.201,0.879-0.201
			c0.45,0,0.847,0.115,1.191,0.348c0.345,0.231,0.604,0.559,0.779,0.98c0.176,0.422,0.264,0.885,0.264,1.388
			c0,0.54-0.097,1.025-0.291,1.458c-0.193,0.432-0.475,0.763-0.844,0.993c-0.369,0.229-0.757,0.345-1.164,0.345
			c-0.299,0-0.565-0.063-0.803-0.188c-0.236-0.126-0.431-0.285-0.583-0.477v2.567H237.325z M238.135,105.103
			c0,0.679,0.138,1.181,0.412,1.505c0.275,0.324,0.607,0.486,0.999,0.486c0.396,0,0.737-0.168,1.021-0.504
			c0.282-0.336,0.424-0.856,0.424-1.562c0-0.672-0.138-1.175-0.414-1.51c-0.276-0.334-0.607-0.501-0.991-0.501
			c-0.381,0-0.718,0.178-1.011,0.533C238.281,103.907,238.135,104.424,238.135,105.103z"/>
		<path d="M246.423,107.06c-0.331,0.281-0.649,0.479-0.955,0.596c-0.307,0.116-0.636,0.174-0.986,0.174
			c-0.579,0-1.024-0.142-1.336-0.425c-0.311-0.283-0.467-0.645-0.467-1.085c0-0.258,0.059-0.494,0.177-0.707
			c0.117-0.214,0.271-0.386,0.462-0.515s0.404-0.227,0.643-0.293c0.176-0.046,0.44-0.091,0.795-0.134
			c0.722-0.086,1.253-0.188,1.594-0.308c0.004-0.123,0.005-0.2,0.005-0.233c0-0.364-0.084-0.621-0.253-0.771
			c-0.229-0.201-0.568-0.303-1.019-0.303c-0.42,0-0.73,0.074-0.931,0.222c-0.2,0.146-0.349,0.407-0.444,0.781l-0.874-0.119
			c0.079-0.374,0.21-0.676,0.393-0.906c0.182-0.229,0.445-0.407,0.789-0.531c0.345-0.124,0.743-0.186,1.197-0.186
			c0.45,0,0.815,0.053,1.097,0.158c0.282,0.106,0.489,0.239,0.621,0.4c0.133,0.16,0.226,0.363,0.278,0.608
			c0.029,0.152,0.045,0.427,0.045,0.824v1.191c0,0.831,0.019,1.356,0.057,1.577c0.038,0.22,0.113,0.431,0.227,0.633h-0.934
			C246.51,107.524,246.45,107.308,246.423,107.06z M246.349,105.063c-0.324,0.132-0.811,0.245-1.46,0.337
			c-0.367,0.054-0.627,0.113-0.779,0.179c-0.152,0.066-0.271,0.164-0.353,0.291c-0.083,0.128-0.124,0.269-0.124,0.425
			c0,0.238,0.09,0.437,0.271,0.596s0.444,0.238,0.792,0.238c0.344,0,0.65-0.075,0.919-0.226c0.268-0.151,0.465-0.357,0.591-0.618
			c0.096-0.202,0.144-0.5,0.144-0.895V105.063z"/>
		<path d="M248.628,107.71v-5.273h0.805v0.799c0.205-0.374,0.395-0.62,0.568-0.739s0.365-0.179,0.574-0.179
			c0.301,0,0.607,0.096,0.918,0.288l-0.308,0.829c-0.219-0.129-0.437-0.194-0.655-0.194c-0.195,0-0.371,0.06-0.526,0.177
			s-0.267,0.28-0.333,0.489c-0.1,0.317-0.148,0.665-0.148,1.043v2.761H248.628z"/>
		<path d="M255.466,107.06c-0.331,0.281-0.649,0.479-0.955,0.596c-0.307,0.116-0.636,0.174-0.986,0.174
			c-0.579,0-1.024-0.142-1.336-0.425c-0.311-0.283-0.467-0.645-0.467-1.085c0-0.258,0.059-0.494,0.177-0.707
			c0.117-0.214,0.271-0.386,0.462-0.515s0.404-0.227,0.643-0.293c0.176-0.046,0.44-0.091,0.795-0.134
			c0.722-0.086,1.253-0.188,1.594-0.308c0.004-0.123,0.005-0.2,0.005-0.233c0-0.364-0.084-0.621-0.253-0.771
			c-0.229-0.201-0.568-0.303-1.019-0.303c-0.42,0-0.73,0.074-0.931,0.222c-0.2,0.146-0.349,0.407-0.444,0.781l-0.874-0.119
			c0.079-0.374,0.21-0.676,0.393-0.906c0.182-0.229,0.445-0.407,0.789-0.531c0.345-0.124,0.743-0.186,1.197-0.186
			c0.45,0,0.815,0.053,1.097,0.158c0.282,0.106,0.489,0.239,0.621,0.4c0.133,0.16,0.226,0.363,0.278,0.608
			c0.029,0.152,0.045,0.427,0.045,0.824v1.191c0,0.831,0.019,1.356,0.057,1.577c0.038,0.22,0.113,0.431,0.227,0.633h-0.934
			C255.553,107.524,255.493,107.308,255.466,107.06z M255.392,105.063c-0.324,0.132-0.811,0.245-1.46,0.337
			c-0.367,0.054-0.627,0.113-0.779,0.179c-0.152,0.066-0.271,0.164-0.353,0.291c-0.083,0.128-0.124,0.269-0.124,0.425
			c0,0.238,0.09,0.437,0.271,0.596s0.444,0.238,0.792,0.238c0.344,0,0.65-0.075,0.919-0.226c0.268-0.151,0.465-0.357,0.591-0.618
			c0.096-0.202,0.144-0.5,0.144-0.895V105.063z"/>
		<path d="M260.506,107.71v-5.273h0.8v0.739c0.166-0.258,0.386-0.466,0.661-0.623c0.274-0.157,0.587-0.235,0.938-0.235
			c0.391,0,0.711,0.081,0.961,0.243c0.249,0.162,0.426,0.389,0.528,0.68c0.417-0.615,0.96-0.923,1.629-0.923
			c0.523,0,0.926,0.145,1.207,0.435c0.281,0.289,0.422,0.735,0.422,1.338v3.62h-0.889v-3.322c0-0.357-0.029-0.615-0.087-0.772
			c-0.059-0.157-0.163-0.283-0.315-0.38c-0.152-0.096-0.331-0.144-0.536-0.144c-0.371,0-0.679,0.123-0.924,0.37
			c-0.245,0.246-0.368,0.642-0.368,1.184v3.064h-0.894v-3.427c0-0.397-0.072-0.695-0.219-0.894
			c-0.146-0.198-0.384-0.298-0.715-0.298c-0.251,0-0.484,0.066-0.697,0.198c-0.214,0.133-0.368,0.326-0.465,0.581
			c-0.096,0.255-0.144,0.623-0.144,1.103v2.736H260.506z"/>
		<path d="M272.419,107.06c-0.331,0.281-0.649,0.479-0.955,0.596c-0.307,0.116-0.636,0.174-0.986,0.174
			c-0.579,0-1.024-0.142-1.336-0.425c-0.311-0.283-0.467-0.645-0.467-1.085c0-0.258,0.059-0.494,0.177-0.707
			c0.117-0.214,0.271-0.386,0.462-0.515s0.404-0.227,0.643-0.293c0.176-0.046,0.44-0.091,0.795-0.134
			c0.722-0.086,1.253-0.188,1.594-0.308c0.004-0.123,0.005-0.2,0.005-0.233c0-0.364-0.084-0.621-0.253-0.771
			c-0.229-0.201-0.568-0.303-1.019-0.303c-0.42,0-0.73,0.074-0.931,0.222c-0.2,0.146-0.349,0.407-0.444,0.781l-0.874-0.119
			c0.079-0.374,0.21-0.676,0.393-0.906c0.182-0.229,0.445-0.407,0.789-0.531c0.345-0.124,0.743-0.186,1.197-0.186
			c0.45,0,0.815,0.053,1.097,0.158c0.282,0.106,0.489,0.239,0.621,0.4c0.133,0.16,0.226,0.363,0.278,0.608
			c0.029,0.152,0.045,0.427,0.045,0.824v1.191c0,0.831,0.019,1.356,0.057,1.577c0.038,0.22,0.113,0.431,0.227,0.633h-0.934
			C272.506,107.524,272.446,107.308,272.419,107.06z M272.345,105.063c-0.324,0.132-0.811,0.245-1.46,0.337
			c-0.367,0.054-0.627,0.113-0.779,0.179c-0.152,0.066-0.271,0.164-0.353,0.291c-0.083,0.128-0.124,0.269-0.124,0.425
			c0,0.238,0.09,0.437,0.271,0.596s0.444,0.238,0.792,0.238c0.344,0,0.65-0.075,0.919-0.226c0.268-0.151,0.465-0.357,0.591-0.618
			c0.096-0.202,0.144-0.5,0.144-0.895V105.063z M270.606,101.78l0.661-1.39h1.172l-1.093,1.39H270.606z"/>
		<path d="M274.276,106.136l0.885-0.139c0.049,0.354,0.188,0.625,0.414,0.814c0.227,0.188,0.544,0.282,0.951,0.282
			c0.41,0,0.715-0.083,0.914-0.25c0.198-0.167,0.298-0.363,0.298-0.589c0-0.202-0.088-0.36-0.264-0.477
			c-0.122-0.079-0.427-0.181-0.913-0.303c-0.656-0.166-1.11-0.309-1.363-0.43c-0.254-0.121-0.445-0.288-0.576-0.502
			c-0.131-0.213-0.196-0.449-0.196-0.707c0-0.235,0.054-0.453,0.161-0.653s0.254-0.366,0.439-0.499
			c0.14-0.103,0.329-0.189,0.568-0.261c0.24-0.071,0.498-0.106,0.772-0.106c0.414,0,0.777,0.06,1.09,0.179
			c0.313,0.119,0.544,0.28,0.693,0.483c0.148,0.204,0.251,0.477,0.308,0.817l-0.874,0.119c-0.04-0.271-0.154-0.483-0.345-0.636
			s-0.46-0.229-0.808-0.229c-0.41,0-0.703,0.068-0.879,0.204c-0.175,0.136-0.263,0.294-0.263,0.477c0,0.116,0.036,0.22,0.109,0.313
			c0.072,0.097,0.187,0.176,0.342,0.238c0.09,0.033,0.354,0.109,0.79,0.229c0.632,0.169,1.073,0.308,1.323,0.415
			s0.446,0.264,0.589,0.469c0.142,0.206,0.213,0.461,0.213,0.765c0,0.299-0.087,0.579-0.261,0.842
			c-0.174,0.264-0.424,0.467-0.752,0.611c-0.328,0.144-0.698,0.216-1.112,0.216c-0.686,0-1.208-0.143-1.566-0.427
			C274.605,107.117,274.376,106.695,274.276,106.136z"/>
		<path d="M222.356,112.411v-1.028h0.894v1.028H222.356z M222.356,118.663v-5.273h0.894v5.273H222.356z"/>
		<path d="M224.61,118.663v-5.273h0.805v0.749c0.388-0.579,0.947-0.868,1.679-0.868c0.317,0,0.61,0.057,0.877,0.171
			c0.266,0.114,0.466,0.264,0.598,0.449c0.133,0.186,0.226,0.406,0.278,0.661c0.033,0.165,0.05,0.455,0.05,0.868v3.243h-0.894
			v-3.208c0-0.364-0.035-0.637-0.104-0.816c-0.069-0.181-0.193-0.325-0.37-0.433s-0.385-0.161-0.623-0.161
			c-0.381,0-0.71,0.121-0.986,0.362c-0.276,0.242-0.414,0.7-0.414,1.376v2.88H224.61z"/>
		<path d="M230.48,118.663v-4.578h-0.789v-0.695h0.789v-0.562c0-0.354,0.031-0.617,0.095-0.79c0.086-0.231,0.237-0.419,0.454-0.563
			c0.217-0.144,0.521-0.216,0.911-0.216c0.252,0,0.53,0.03,0.834,0.09l-0.134,0.779c-0.186-0.033-0.36-0.05-0.526-0.05
			c-0.271,0-0.464,0.059-0.576,0.174c-0.112,0.116-0.169,0.333-0.169,0.65v0.487h1.028v0.695h-1.028v4.578H230.48z"/>
		<path d="M232.76,116.026c0-0.977,0.271-1.7,0.814-2.17c0.453-0.391,1.006-0.586,1.658-0.586c0.726,0,1.317,0.237,1.778,0.712
			c0.46,0.476,0.689,1.132,0.689,1.97c0,0.679-0.102,1.212-0.305,1.601c-0.204,0.39-0.5,0.691-0.89,0.907
			c-0.389,0.215-0.813,0.322-1.273,0.322c-0.738,0-1.335-0.236-1.79-0.71S232.76,116.917,232.76,116.026z M233.679,116.026
			c0,0.675,0.146,1.181,0.441,1.517s0.666,0.504,1.112,0.504c0.443,0,0.813-0.168,1.107-0.506s0.442-0.853,0.442-1.545
			c0-0.652-0.148-1.146-0.444-1.482c-0.297-0.336-0.665-0.504-1.105-0.504c-0.446,0-0.817,0.167-1.112,0.502
			C233.825,114.846,233.679,115.351,233.679,116.026z"/>
		<path d="M238.738,118.663v-5.273h0.805v0.799c0.205-0.374,0.395-0.62,0.568-0.739s0.365-0.179,0.574-0.179
			c0.301,0,0.607,0.096,0.918,0.288l-0.308,0.829c-0.219-0.129-0.437-0.194-0.655-0.194c-0.195,0-0.371,0.06-0.526,0.177
			s-0.267,0.28-0.333,0.489c-0.1,0.317-0.148,0.665-0.148,1.043v2.761H238.738z"/>
		<path d="M242.135,118.663v-5.273h0.8v0.739c0.166-0.258,0.386-0.466,0.661-0.623c0.274-0.157,0.587-0.235,0.938-0.235
			c0.391,0,0.711,0.081,0.961,0.243c0.249,0.162,0.426,0.389,0.528,0.68c0.417-0.615,0.96-0.923,1.629-0.923
			c0.523,0,0.926,0.145,1.207,0.435c0.281,0.289,0.422,0.735,0.422,1.338v3.62h-0.889v-3.322c0-0.357-0.029-0.615-0.087-0.772
			c-0.059-0.157-0.163-0.283-0.315-0.38c-0.152-0.096-0.331-0.144-0.536-0.144c-0.371,0-0.679,0.123-0.924,0.37
			c-0.245,0.246-0.368,0.642-0.368,1.184v3.064h-0.894v-3.427c0-0.397-0.072-0.695-0.219-0.894
			c-0.146-0.198-0.384-0.298-0.715-0.298c-0.251,0-0.484,0.066-0.697,0.198c-0.214,0.133-0.368,0.326-0.465,0.581
			c-0.096,0.255-0.144,0.623-0.144,1.103v2.736H242.135z"/>
		<path d="M254.048,118.013c-0.331,0.281-0.649,0.479-0.955,0.596c-0.307,0.116-0.636,0.174-0.986,0.174
			c-0.579,0-1.024-0.142-1.336-0.425c-0.311-0.283-0.467-0.645-0.467-1.085c0-0.258,0.059-0.494,0.177-0.707
			c0.117-0.214,0.271-0.386,0.462-0.515s0.404-0.227,0.643-0.293c0.176-0.046,0.44-0.091,0.795-0.134
			c0.722-0.086,1.253-0.188,1.594-0.308c0.004-0.123,0.005-0.2,0.005-0.233c0-0.364-0.084-0.621-0.253-0.771
			c-0.229-0.201-0.568-0.303-1.019-0.303c-0.42,0-0.73,0.074-0.931,0.222c-0.2,0.146-0.349,0.407-0.444,0.781l-0.874-0.119
			c0.079-0.374,0.21-0.676,0.393-0.906c0.182-0.229,0.445-0.407,0.789-0.531c0.345-0.124,0.743-0.186,1.197-0.186
			c0.45,0,0.815,0.053,1.097,0.158c0.282,0.106,0.489,0.239,0.621,0.4c0.133,0.16,0.226,0.363,0.278,0.608
			c0.029,0.152,0.045,0.427,0.045,0.824v1.191c0,0.831,0.019,1.356,0.057,1.577c0.038,0.22,0.113,0.431,0.227,0.633h-0.934
			C254.135,118.478,254.075,118.261,254.048,118.013z M253.974,116.017c-0.324,0.132-0.811,0.245-1.46,0.337
			c-0.367,0.054-0.627,0.113-0.779,0.179c-0.152,0.066-0.271,0.164-0.353,0.291c-0.083,0.128-0.124,0.269-0.124,0.425
			c0,0.238,0.09,0.437,0.271,0.596s0.444,0.238,0.792,0.238c0.344,0,0.65-0.075,0.919-0.226c0.268-0.151,0.465-0.357,0.591-0.618
			c0.096-0.202,0.144-0.5,0.144-0.895V116.017z"/>
		<path d="M259.704,116.731l0.88,0.114c-0.097,0.605-0.343,1.08-0.738,1.423s-0.881,0.514-1.457,0.514
			c-0.722,0-1.302-0.235-1.74-0.708c-0.439-0.472-0.658-1.147-0.658-2.028c0-0.569,0.094-1.067,0.283-1.494
			c0.188-0.428,0.476-0.748,0.861-0.961c0.386-0.214,0.805-0.32,1.259-0.32c0.572,0,1.041,0.145,1.405,0.435
			c0.364,0.289,0.598,0.7,0.7,1.233l-0.869,0.134c-0.083-0.354-0.229-0.62-0.439-0.799s-0.464-0.269-0.762-0.269
			c-0.45,0-0.816,0.161-1.098,0.484s-0.422,0.833-0.422,1.532c0,0.708,0.136,1.223,0.407,1.544c0.271,0.321,0.625,0.481,1.063,0.481
			c0.351,0,0.644-0.107,0.879-0.322C259.492,117.51,259.642,117.179,259.704,116.731z"/>
		<path d="M261.354,112.411v-1.028h0.894v1.028H261.354z M261.354,118.663v-5.273h0.894v5.273H261.354z"/>
		<path d="M263.275,116.026c0-0.977,0.271-1.7,0.814-2.17c0.453-0.391,1.006-0.586,1.658-0.586c0.726,0,1.317,0.237,1.778,0.712
			c0.46,0.476,0.689,1.132,0.689,1.97c0,0.679-0.102,1.212-0.305,1.601c-0.204,0.39-0.5,0.691-0.89,0.907
			c-0.389,0.215-0.813,0.322-1.273,0.322c-0.738,0-1.335-0.236-1.79-0.71S263.275,116.917,263.275,116.026z M264.194,116.026
			c0,0.675,0.146,1.181,0.441,1.517s0.666,0.504,1.112,0.504c0.443,0,0.813-0.168,1.107-0.506s0.442-0.853,0.442-1.545
			c0-0.652-0.148-1.146-0.444-1.482c-0.297-0.336-0.665-0.504-1.105-0.504c-0.446,0-0.817,0.167-1.112,0.502
			C264.341,114.846,264.194,115.351,264.194,116.026z M265.252,112.733l0.66-1.39h1.172l-1.093,1.39H265.252z"/>
		<path d="M269.264,118.663v-5.273h0.805v0.749c0.388-0.579,0.947-0.868,1.679-0.868c0.317,0,0.61,0.057,0.877,0.171
			c0.266,0.114,0.466,0.264,0.598,0.449c0.133,0.186,0.226,0.406,0.278,0.661c0.033,0.165,0.05,0.455,0.05,0.868v3.243h-0.894
			v-3.208c0-0.364-0.035-0.637-0.104-0.816c-0.069-0.181-0.193-0.325-0.37-0.433s-0.385-0.161-0.623-0.161
			c-0.381,0-0.71,0.121-0.986,0.362c-0.276,0.242-0.414,0.7-0.414,1.376v2.88H269.264z"/>
	</g>
	<g id="XMLID_2_">
		<path id="XMLID_9_" d="M196.141,121.685c-3.165,0-6.277-1.087-8.758-3.058c-6.079-4.83-7.096-13.707-2.266-19.787
			c2.688-3.383,6.709-5.323,11.031-5.323c3.165,0,6.275,1.086,8.757,3.058c2.946,2.339,4.804,5.686,5.233,9.423
			c0.201,1.78,0.073,3.548-0.385,5.256c-0.284,1.065-0.7,2.098-1.229,3.068c-0.245,0.449-0.807,0.614-1.255,0.37
			c-0.448-0.245-0.612-0.808-0.368-1.255c0.46-0.844,0.819-1.739,1.066-2.663c0.397-1.48,0.509-3.018,0.332-4.565
			c-0.371-3.246-1.984-6.153-4.545-8.188c-2.156-1.713-4.857-2.655-7.607-2.655c-3.754,0-7.247,1.686-9.582,4.623
			c-4.196,5.284-3.314,12.994,1.968,17.191c2.157,1.713,4.857,2.656,7.608,2.656c0.51,0,0.926,0.414,0.926,0.924
			C197.066,121.269,196.652,121.685,196.141,121.685L196.141,121.685z"/>
		<path id="XMLID_8_" d="M196.141,117.523c-2.23,0-4.42-0.764-6.169-2.154c-4.285-3.402-5.002-9.658-1.598-13.942
			c1.895-2.384,4.728-3.751,7.774-3.751c2.23,0,4.422,0.766,6.171,2.154c2.074,1.648,3.384,4.008,3.686,6.641
			c0.149,1.316,0.042,2.623-0.32,3.883c-0.141,0.49-0.655,0.772-1.144,0.631c-0.491-0.143-0.774-0.654-0.634-1.145
			c0.295-1.022,0.382-2.086,0.259-3.158c-0.245-2.143-1.31-4.062-2.999-5.404c-1.423-1.13-3.206-1.753-5.02-1.753
			c-2.48,0-4.784,1.114-6.328,3.053c-2.769,3.487-2.187,8.576,1.302,11.347c1.422,1.129,3.205,1.753,5.02,1.753
			c0.512,0,0.926,0.414,0.926,0.924C197.066,117.109,196.652,117.523,196.141,117.523L196.141,117.523z"/>
		<path id="XMLID_7_" class="st0" d="M200.985,107.6c0,2.674-2.167,4.841-4.842,4.841c-2.673,0-4.84-2.169-4.84-4.841
			c0-2.672,2.168-4.839,4.84-4.839C198.818,102.761,200.985,104.928,200.985,107.6L200.985,107.6z"/>
		<path id="XMLID_4_" d="M196.141,113.364c-1.294,0-2.566-0.442-3.583-1.251c-2.489-1.978-2.903-5.611-0.928-8.1
			c1.101-1.385,2.747-2.179,4.518-2.179c1.295,0,2.567,0.444,3.583,1.253c2.488,1.977,2.904,5.61,0.927,8.098
			C199.558,112.57,197.912,113.364,196.141,113.364L196.141,113.364z M196.148,103.684c-1.203,0-2.322,0.539-3.071,1.48
			c-1.341,1.689-1.061,4.159,0.633,5.502c0.7,0.557,1.54,0.85,2.433,0.85c1.203,0,2.32-0.539,3.068-1.48
			c1.345-1.689,1.063-4.159-0.63-5.502C197.881,103.979,197.04,103.684,196.148,103.684L196.148,103.684z"/>
		<path id="XMLID_3_" class="st1" d="M202.19,124.453c1.311,0,2.376-1.063,2.376-2.375v-6.073c0-1.771-1.436-3.206-3.207-3.206
			l-3.247-0.006v-4.749c0-1.002-0.778-1.854-1.78-1.892c-1.051-0.036-1.916,0.804-1.916,1.848v8.297l-0.485-1.012
			c-0.265-0.552-0.764-0.863-1.278-0.863c-0.236,0-0.475,0.067-0.697,0.205c-0.705,0.441-0.965,1.451-0.577,2.257
			c0,0,1.599,3.745,2.741,6.197c0.391,0.837,1.229,1.372,2.152,1.372H202.19L202.19,124.453z"/>
	</g>
</g>
</svg>