<?xml version="1.0" encoding="utf-8"?>
<!-- Generator: Adobe Illustrator 17.0.0, SVG Export Plug-In . SVG Version: 6.00 Build 0)  -->
<!DOCTYPE svg PUBLIC "-//W3C//DTD SVG 1.1//EN" "http://www.w3.org/Graphics/SVG/1.1/DTD/svg11.dtd" [
	<!ENTITY ns_extend "http://ns.adobe.com/Extensibility/1.0/">
	<!ENTITY ns_ai "http://ns.adobe.com/AdobeIllustrator/10.0/">
	<!ENTITY ns_graphs "http://ns.adobe.com/Graphs/1.0/">
	<!ENTITY ns_vars "http://ns.adobe.com/Variables/1.0/">
	<!ENTITY ns_imrep "http://ns.adobe.com/ImageReplacement/1.0/">
	<!ENTITY ns_sfw "http://ns.adobe.com/SaveForWeb/1.0/">
	<!ENTITY ns_custom "http://ns.adobe.com/GenericCustomNamespace/1.0/">
	<!ENTITY ns_adobe_xpath "http://ns.adobe.com/XPath/1.0/">
]>
<svg version="1.1" id="Capa_1" xmlns:x="&ns_extend;" xmlns:i="&ns_ai;" xmlns:graph="&ns_graphs;"
	 xmlns="http://www.w3.org/2000/svg" xmlns:xlink="http://www.w3.org/1999/xlink" x="0px" y="0px" width="244.366px"
	 height="343.98px" viewBox="0 0 244.366 343.98" style="enable-background:new 0 0 244.366 343.98;" xml:space="preserve">
<style type="text/css">
	.st0{fill:#E54F26;}
	.st1{fill:#F16529;}
	.st2{fill:#EBEAEA;}
	.st3{fill:#FFFFFF;}
	.st4{opacity:0.75;enable-background:new    ;}
</style>
<metadata><?xpacket begin="﻿" id="W5M0MpCehiHzreSzNTczkc9d"?>
<x:xmpmeta xmlns:x="adobe:ns:meta/" x:xmptk="Adobe XMP Core 5.5-c014 79.151739, 2013/04/03-12:12:15        ">
   <rdf:RDF xmlns:rdf="http://www.w3.org/1999/02/22-rdf-syntax-ns#">
      <rdf:Description rdf:about=""
            xmlns:dc="http://purl.org/dc/elements/1.1/"
            xmlns:xmp="http://ns.adobe.com/xap/1.0/"
            xmlns:xmpGImg="http://ns.adobe.com/xap/1.0/g/img/"
            xmlns:xmpMM="http://ns.adobe.com/xap/1.0/mm/"
            xmlns:stRef="http://ns.adobe.com/xap/1.0/sType/ResourceRef#"
            xmlns:stEvt="http://ns.adobe.com/xap/1.0/sType/ResourceEvent#"
            xmlns:illustrator="http://ns.adobe.com/illustrator/1.0/"
            xmlns:xmpTPg="http://ns.adobe.com/xap/1.0/t/pg/"
            xmlns:stDim="http://ns.adobe.com/xap/1.0/sType/Dimensions#"
            xmlns:xmpG="http://ns.adobe.com/xap/1.0/g/"
            xmlns:pdf="http://ns.adobe.com/pdf/1.3/">
         <dc:format>image/svg+xml</dc:format>
         <dc:title>
            <rdf:Alt>
               <rdf:li xml:lang="x-default">Imprimir</rdf:li>
            </rdf:Alt>
         </dc:title>
         <xmp:MetadataDate>2017-08-14T12:38:08-05:00</xmp:MetadataDate>
         <xmp:ModifyDate>2017-08-14T12:38:08-05:00</xmp:ModifyDate>
         <xmp:CreateDate>2017-08-14T12:38:08-05:00</xmp:CreateDate>
         <xmp:CreatorTool>Adobe Illustrator CC (Windows)</xmp:CreatorTool>
         <xmp:Thumbnails>
            <rdf:Alt>
               <rdf:li rdf:parseType="Resource">
                  <xmpGImg:width>184</xmpGImg:width>
                  <xmpGImg:height>256</xmpGImg:height>
                  <xmpGImg:format>JPEG</xmpGImg:format>
                  <xmpGImg:image>/9j/4AAQSkZJRgABAgEASABIAAD/7QAsUGhvdG9zaG9wIDMuMAA4QklNA+0AAAAAABAASAAAAAEA&#xA;AQBIAAAAAQAB/+4ADkFkb2JlAGTAAAAAAf/bAIQABgQEBAUEBgUFBgkGBQYJCwgGBggLDAoKCwoK&#xA;DBAMDAwMDAwQDA4PEA8ODBMTFBQTExwbGxscHx8fHx8fHx8fHwEHBwcNDA0YEBAYGhURFRofHx8f&#xA;Hx8fHx8fHx8fHx8fHx8fHx8fHx8fHx8fHx8fHx8fHx8fHx8fHx8fHx8fHx8f/8AAEQgBAAC4AwER&#xA;AAIRAQMRAf/EAaIAAAAHAQEBAQEAAAAAAAAAAAQFAwIGAQAHCAkKCwEAAgIDAQEBAQEAAAAAAAAA&#xA;AQACAwQFBgcICQoLEAACAQMDAgQCBgcDBAIGAnMBAgMRBAAFIRIxQVEGE2EicYEUMpGhBxWxQiPB&#xA;UtHhMxZi8CRygvElQzRTkqKyY3PCNUQnk6OzNhdUZHTD0uIIJoMJChgZhJRFRqS0VtNVKBry4/PE&#xA;1OT0ZXWFlaW1xdXl9WZ2hpamtsbW5vY3R1dnd4eXp7fH1+f3OEhYaHiImKi4yNjo+Ck5SVlpeYmZ&#xA;qbnJ2en5KjpKWmp6ipqqusra6voRAAICAQIDBQUEBQYECAMDbQEAAhEDBCESMUEFURNhIgZxgZEy&#xA;obHwFMHR4SNCFVJicvEzJDRDghaSUyWiY7LCB3PSNeJEgxdUkwgJChgZJjZFGidkdFU38qOzwygp&#xA;0+PzhJSktMTU5PRldYWVpbXF1eX1RlZmdoaWprbG1ub2R1dnd4eXp7fH1+f3OEhYaHiImKi4yNjo&#xA;+DlJWWl5iZmpucnZ6fkqOkpaanqKmqq6ytrq+v/aAAwDAQACEQMRAD8A9U4q7FX5l/mF/wAp95l/&#xA;7at9/wBRL4q9q/5wl/5T/Xf+2Uf+omLFX1B+bH/krPOX/bD1L/qDkxV+auKvsr/nGL/1nnX/APjP&#xA;qX/ULHir41xV2KuxVNfKf/KU6N/zHW3/ACeXFX1X/wA5vf8AKLeWv+Y6b/kzir4/xV9lf84ifmx+&#xA;mtAfyNqs1dT0WPnpbud5bKtPTFepgJA/1CP5TiqXf85g/mybKwj/AC90mal1eqtxrsiHdIK8orfb&#xA;vIRzb/JA7Nir5GxV9gf84Q/8ot5l/wCY6H/kzir5q/Nj/wAmn5y/7bmpf9RkmKvVf+cKv/Jp6r/2&#xA;w7j/AKjLTFX2pirsVdirsVdirsVfmX+YX/KfeZf+2rff9RL4qnH5T/mxrP5a6zearpVnbXk15bfV&#xA;ZI7r1OIX1FkqPTZDWqYq9B8yf85f+d9e8u6podzo2mRW+q2c9jNLGLjmqXMTRMy8pCOQD7VGKvBs&#xA;Vfav/OJdiNQ/JDUrAv6Yu7+9gMgFSokgiStNq0rirH/+hHNK/wCpun/6Qk/6rYq+cvzN8mx+TPPW&#xA;reWIrpr2PTZEjW6ZBGX5xJJUoC1Pt064qmP5N/lxD+YfnWLy3NfNpySQTT/WUjEpBiANOJZOtfHF&#xA;X0NpX/OFWmafqdnfjzXPIbSeOcRmzQBjG4elfWNK0xVv/nN7/lFvLX/MdN/yZxV8f4qm/lLzRq3l&#xA;XzJYeYNIk9K/06USxE/ZYdHRx3V0JVh4HFVDzBr2qeYNbvda1WYz6hqEzz3Mp7s5rQDso6KOw2xV&#xA;L8VfYH/OEP8Ayi3mX/mOh/5M4q+avzY/8mn5y/7bmpf9RkmKvVf+cKv/ACaeq/8AbDuP+oy0xV9q&#xA;Yq7FXYq7FXYq7FX5l/mF/wAp95l/7at9/wBRL4qlml6JrOrzPBpVhc6hNGvOSK1heZlWtORWMMQK&#xA;nriqPuPIvne2t5bm58vanDbwo0k00lncIiIgqzMxQAAAVJOKpHir7f8A+cNv/JRzf9tW5/5NQ4q9&#xA;1xV+e3/OSP8A5O3zT/xnh/6hosVT/wD5xD/8nLbf8wN3/wARGKvurFXzX/zm9/yi3lr/AJjpv+TO&#xA;Kvj/ABVn/wCdv5X3X5d+eLnSQGfSLmtzo9y2/O3Y7Ix7vEfgb7+4xVHfkB+VEv5h+d4re5jb/D+m&#xA;cbnWZRUApX93AD/NMwp/qhj2xV5lir7A/wCcIf8AlFvMv/MdD/yZxV81fmx/5NPzl/23NS/6jJMV&#xA;eg/84l+aPLvlv8xtRvtf1K30uzk0eaCO4upFiRpWurZggZqblUY09sVfWf8Ayuv8o/8Aqb9K/wCk&#xA;qL+uKpp5e/MPyN5kvXsdA12y1S8jjM8lvazJK6xKyqXKqTsGdRX3xVkOKuxV2KuxV+Zf5hf8p95l&#xA;/wC2rff9RL4q9q/5wl/5T/Xf+2Uf+omLFX1B+bH/AJKzzl/2w9S/6g5MVfmrir7f/wCcNv8AyUc3&#xA;/bVuf+TUOKvdcVfnt/zkj/5O3zT/AMZ4f+oaLFU//wCcQ/8Ayctt/wAwN3/xEYq+6sVfNf8Azm9/&#xA;yi3lr/mOm/5M4q+P8Vfof+ev5VW/5i+SZtPiVV1yxrc6LcMeIEwFGiZv5JV+E+Bo3bFUb+Tf5Z2P&#xA;5eeSLTRYgr6jJS41e6X/AHbdOBzof5EpwT2FepOKvzjxV9gf84Q/8ot5l/5jof8Akzir5q/Nj/ya&#xA;fnL/ALbmpf8AUZJirFMVdir6A/5wq/8AJp6r/wBsO4/6jLTFX2pirsVdirsVeK6v/wA4k/lZquq3&#xA;uqXU2pi5v55bmcJcRheczl24gxGgq22Ksl/LT8iPJH5datdapoEl69zdwfVpRdSpIvDmr7BY03qg&#xA;xVm+vaNaa5oWo6LelxZ6pazWVyYyFf0riNon4kg0bixptirxj/oTb8o/9/ar/wBJMX/VHFXpv5df&#xA;l15f8geX20LQmnayad7km5dZH5yKqt8SqgpRB2xVlGKvJPOX/OMX5b+bvM195i1WXUV1DUGV5xBP&#xA;GkdURYxxUxMRsg74qi/y+/5x18geRPMaeYNEkv2vkikhUXMySR8ZRRvhWNDX6cVeoYqwz8zPyn8r&#xA;/mNY2Vl5ge5SGwlaaA2sixtydeJ5Fkeopirz3/oTb8o/9/ar/wBJMX/VHFXuuKuxV4V/0Jt+Uf8A&#xA;v7Vf+kmL/qjir0L8s/yn8r/lzY3tl5fe5eG/lWac3UiyNyReI4lUSgpirDNe/wCcT/yv1zXdR1q9&#xA;l1MXmqXU17ciO4jVPVuJGlfiDEaLyY03xVAf9CbflH/v7Vf+kmL/AKo4q7/oTb8o/wDf2q/9JMX/&#xA;AFRxVln5bfkD5G/LzXZ9a0CS9e8uLV7KQXUySJ6TyRymgWNPi5Qr3xV6TirsVdirsVdirsVdirsV&#xA;dirsVdirsVdirsVdirsVdirsVdirsVdirsVdirsVdir4hl/5yM/OqKV428xfEjFWpZ2PUGn++Mxf&#xA;Ek7HwIdyz/oZD86P+pi/6c7H/qhj4kl8CHc7/oZD86P+pi/6c7H/AKoY+JJfAh3O/wChkPzo/wCp&#xA;i/6c7H/qhj4kl8CHc7/oZD86P+pi/wCnOx/6oY+JJfAh3O/6GQ/Oj/qYv+nOx/6oY+JJfAh3O/6G&#xA;Q/Oj/qYv+nOx/wCqGPiSXwIdzv8AoZD86P8AqYv+nOx/6oY+JJfAh3O/6GQ/Oj/qYv8Apzsf+qGP&#xA;iSXwIdzv+hkPzo/6mL/pzsf+qGPiSXwIdzv+hkPzo/6mL/pzsf8Aqhj4kl8CHc7/AKGQ/Oj/AKmL&#xA;/pzsf+qGPiSXwIdzv+hkPzo/6mL/AKc7H/qhj4kl8CHc7/oZD86P+pi/6c7H/qhj4kl8CHc7/oZD&#xA;86P+pi/6c7H/AKoY+JJfAh3O/wChkPzo/wCpi/6c7H/qhj4kl8CHc7/oZD86P+pi/wCnOx/6oY+J&#xA;JfAh3O/6GQ/Oj/qYv+nOx/6oY+JJfAh3O/6GQ/Oj/qYv+nOx/wCqGPiSXwIdzv8AoZD86P8AqYv+&#xA;nOx/6oY+JJfAh3O/6GQ/Oj/qYv8Apzsf+qGPiSXwIdzv+hkPzo/6mL/pzsf+qGPiSXwIdzPvyN/O&#xA;X80PNX5labpGs6z9b0uRLiS6t/q1pHyEcDlPjjiRxSTidj+GShMkteXDERJAeIedrE2HnPXrE/8A&#xA;HrqN3D1r/dzuvX6MrIpyAbFpLgS7FXYq7FXYq7FXYq7FXYq7FXYq7FXYq7FXYq7FXYq7FXYq7FXY&#xA;q9r/AOcS7EXH5m3M7Daz0yeRSQD8TSxR/R8LnLMQ3aNQaiwn86bT6r+a3miL+a/kl61/vqS/8b5G&#xA;XMtsD6R7mFZFkqACnTIq3QeGKHUHhirqDwxV1B4Yq6g8MVdQeGKuoPDFXUHhiqx+uEJW4VdirsVd&#xA;irsVdirsVdirsVdir6G/5w6sS/mDzHfU2gtIIC1OnrSM1K+/o5biG7j6k+mmF/8AOTFuYvzj1mQ/&#xA;8fEdpIPotY4/+NMjk+os8H0B5bkG1VXoMiVdih2KuxV2KuxV2KuxV2KrH64QlbhV2KuxV2KuxV2K&#xA;uxV2KuxV2KvqH/nDi0KaT5nvKbTT2sINO8SSN1/565dh6uLqujDP+cuLRYfzKsp1/wCPnSoWf/WW&#xA;eZP+IquRy82enPpeI5W3qifZyJVvFC4RuRUKSPljSLDvTk/lP3HDRXiDvTk/lP3HGivEHenJ/Kfu&#xA;ONFeIO9OT+U/ccaK8Qd6cn8p+440V4g705P5T9xxorxBZIjg7qfuwgJsLODeB+7Ctu4N4H7sVt3B&#xA;vA/ditu4N4H7sVt3BvA/ditu4N4H7sVtxBHUUwJaxV2KuxV9ff8AOI9oIvy2vpytHuNVmPKlCVSC&#xA;FQK9wCGzIw8nC1X1D3MK/wCcxrEprXlq+ptPbXMFain7mRG6df8Ad2Qyjds0x9JD52ypyVROmAq3&#xA;gQn+mtysoj7EfcSMzMf0h1+YeoorJtTsVdirsVdirsVUpPtfRiq3FXYq7FXYq7FXYqletNvEv+sf&#xA;1ZRm6OXpRzSzKXLdirsVfbX/ADjNYi2/J/SZaUa8lup2FKH/AHoeIV+iMZk4hs4GoPqYT/zmNZl9&#xA;F8tXlNobm5hJ2/3bGjfP/dWQzdGzS9Xy3lLlr06HAVXYEJ5pDVswP5WI/j/HMrCfS4OoHqRuWtDs&#xA;VdirsVdirsVUpPtfRiq3FXYq7FXYq7FXYqlGst/pCL4JX7ycx8vNzdMPSl+VOS7FXYq+9fyRsjZf&#xA;lP5YhK8S1ks9CCNp2MwO/j6mZWMel12c3MsL/wCctrX1fyztJQKm31WBydtg0MyfrYZHNybNL9R9&#xA;z4+zHc1enfAVXYEJxop/cOPBq/eBmTg5OHqeYTHLnGdiqx54YzR5FU9aMQP14DIBkIk8gt+tWv8A&#xA;v5P+CH9cHGO9Phy7i761a/7+T/gh/XHjHevhy7i761a/7+T/AIIf1x4x3r4cu4qcl1a8v75On8w/&#xA;rjxDvXw5dxWfWrb/AH8n/BD+uPEO9fDl3F31q2/38n/BD+uPEO9fDl3F31q2/wB/J/wQ/rjxDvXw&#xA;5dxd9atv9/J/wQ/rjxDvXw5dxd9atv8Afyf8EP648Q718OXcXfWrb/fyf8EP648Q718OXcUo1ORZ&#xA;LolWDKAACDUZRkNlzcEajuhMrbnYq7FX6IeRbRrPyR5etGHFrfTLOIqQRQpbotKHftmXDkHWZfqP&#xA;vYX/AM5K2Qufye1l+rWr2s6dOv1mND1/yXORyjZs059T4jzGc9cnXAVX4EJpoh/vh/qn9eX4Ori6&#xA;romuZDiOxVKNaX97E3ipH3H+3MfONw5mmOxS3KHJdirsVWP1whK3CrsVdirsVdirsVdirsVdiqpB&#xA;C008cKfakYIvfdjQYqH6TQxRwxJDEvGONQiL4KooBma6om2G/nTYm9/KnzRCByKWEs9Nv+Pek1d/&#xA;D08hkHpbMBqYfA+YrsVyfawFV+BCY6K3+kOvilfuI/rl2Dm4+pGwTjMlwnYqlmtr8MTeBI++n9Mo&#xA;zjk5WmPNKcx3LdirsVWP1whK3CrsVdirsVdirsVdirsVdiqeeRbH9IedvL9jSoutStITWtKPOimt&#xA;N++EC0E0LfohmY6pJfO1obzyZr1mByNzp13CBStecDr0+nIz5Fni+oe9+duYjs21+0MSqpkUI3SW&#xA;peAfzKR/H+GW4T6mnUD0p5mU4DsVQep28s8CrEvJg1aVA2ofHK8sSRs3YJiJ3Sz9GX3++v8Ahl/r&#xA;lHhS7nK8eHe79GX3++v+GX+uPhS7l8eHe79GX3++v+GX+uPhS7l8eHesfTL6v93/AMMv9cIxyXx4&#xA;d639GXv++/8Ahl/rj4ck+PDvd+jL3/ff/DL/AFx8OS+PDvd+jL3/AH3/AMMv9cfDkvjw73foy9/3&#xA;3/wy/wBcfDkvjw73foy9/wB9/wDDL/XHw5L48O936Nvf99/8Mv8AXHw5L48O9C5BtdirsVZv+SVm&#xA;bz82PLEQFeN6k1N/90Ay9v8AUyUeYYZDUT7n3rmW6xp0SRGR1Do4KsrCoIOxBBxV+bN1A1vczQN9&#xA;qF2javWqmmYTtypjqMUKmRQidONL2I+5H3gjJ4/qDXm+gvUbD8qvM99f6HYwNbev5gtGvrDlIwAi&#xA;ReREh4/C1B03zMdchrL8ufMVza31xJ6Fkmm30OmXq3UhiMc88giBbYgIrN8TV2GKpprX5OeYNH0Z&#xA;tXutU0lrT05JoPTvAzTiL7YgHECQjpQHFUTqf5D+dbC3vZPW0+6n0+L6xc2Vtc87hYwOXL0yqnpu&#xA;PHtiqG0H8l/OGtaPb6nbvZQG9RpdOsbm4Ed1dIvVoY6EU/1mHj0xVT8v/lB5n1rS01KO5sbGKS4k&#xA;s0ivpzBIZ4jRkClT8Xt1xVLLz8tvNFrH5iku4o7dvK/1f9JxO/xEXRIiMXEMGBAr1G2KrrP8rvNd&#xA;7LoEVpHFM/mOKS4sQrkcIoaeo0xIAQCvv9+Ko/VfyU862N/pVrALXU49ZkMNleWM3q25dAWcM7Kn&#xA;HiqsTt2Phirtc/JfzdpEulK8tleW+r3kenW95aTGWFLmV+CxykqrLRga0B6YqjvI/wCVGpTeaL06&#xA;1DaNougXT2uqSXNyba2lnVSFhWbizbvxr8PQ+4xVLj+UfnW98w65pcVlBDf6VGbyWzRyUaKSrRi2&#xA;Px8wR9kE17HfFWOan5U1Wx8p2XmWYxjT9Rkmgt1DH1Q8FQ/JSAB08cB5JiNwwHMN2rsVdir1P/nG&#xA;W1M35w6RIBtbRXcp69DbSR/8zMnj+oNWf6C+2cynXOxV+eXn+xFh578xWS/ZttTvIk24jik7gEDe&#xA;m2YZFF2sTYtIMCVXIoVbU0uYj/lr+vJQ5hjk+kvqrypqemp5p/LN3u4VSDQZknYyKAjGEji5J+E+&#xA;xzNdYgPNPm/QfM35Marq0Zit/MN7NZR61bKwVnnt5EUSqnWjx0NR8uxxVhfn25tpPyy/LyGOVHlh&#xA;i1ITRqwLJyniI5Abivvir17zH5m0i617zpp2ipYW/mj9Fx/UdXZlc3UTRr60IdmCB1+FUFeu5Hw4&#xA;qkGh2llrVx5A82W+q2MGleWdOhtdYS4nEUkMtshVqof5j0xVLrnRh538gR2+k6hZ27N5ivr0teTr&#xA;CVglZ+L8T8X7Y2piqZaxq2i+atf/ADI0LSdStmvdYttMj0t5JVSG4eyDessch+E0LADx69N8Va07&#xA;WdD0XX/K3lS81O2F9a6Feabd3aSBreC6vODxo0vSv7un0jxxVKfI+gWv5debvLsvmHzPatJcyTxv&#xA;pcEvqQ2wkgkVJ5JCwVQzMoqUH2jvQHFUmsfIc3kzWvKsmqeZLSSebXLNv0PaymSMRLcITcyPyVVF&#xA;FHVe496Ksj1Wyt/N+kecvLGl6jZpq480S6nHFczLGslsYlj5xtvyoVJNOn0jFU3/AMbWGneZ/NV9&#xA;pd/b3Nzonl22topuQaKa6tSzMqVPx7mhpirEPz013yvq35aaFfaAY4ory6ubqeyVgXhmnUmZWQGq&#xA;/vS3t4bUyM+RbMQ9QfOeYjsnYq7FXuH/ADiNaLL+Y9/Owr9X0qYp12Z54V/4jyyzFzaNT9L68zJc&#xA;B2Kvg388bE2X5teZ4SKc7wz0Ip/vQizV/wCSmYkhuXZ4zcR7mC5FmqjoMihcjcXVh+yQfuxBUiwm&#xA;/wCmbb+R/uH9cyfGDhflpO/TNt/I/wBw/rj4wX8tLyd+mbb+R/uH9cfGC/lpeTv0zbfyP9w/rj4w&#xA;X8tLyd+mbb+R/uH9cfGC/lpeTv0zbfyP9w/rj4wX8tLyU5NZt+WyP09v64fGCfy0u9Z+mYP5G/D+&#xA;uPihfyx73fpmD+Rvw/rj4oX8se9Ug1OKaVY1RgW6E07CuGOQE0xngMRaMyxodiqF1I0spPeg/EZD&#xA;J9LdgHrCRZiuwdirsVfRf/OHFiX1bzPfdoLe1g6/7+eRun/PHLcI3cbUnYB9Q5kOE7FXxR/zk5aG&#xA;D84NUlIoLqC0lBoRUC3SKvv/AHeYuT6i7HB9AeVZBtVF6DIlW8UOxV2KuxV2KuxV2KrH64QlbhV2&#xA;KozShW8U+AJ/CmWYubTqD6U7zJde7FUFq5paAeLAfrOV5eTkaYepJcxnOdirsVfU3/OHNpx0HzJd&#xA;/wC/rq3i6/76jZun/PXLsPVxNUeT6Gy9xHYq+Rf+cu7NYvzE065VaC40qLkd6F455gd/9UrmNl5u&#xA;fpvp+Lw3K29UT7ORKt4oZHZmtpD/AKgH3DM2HIOtyfUVbJMHYqxq4FJ5B4Mw/HMGXN2cOQU8DJ2K&#xA;rH64QlbhV2Ko/RxW5Y+CH9Yy3FzcfUn0pxmQ4LsVS7WT+6jHixP3DKc3JytKNylOUOY7FXYq+wv+&#xA;cSrcxflhcyH/AI+NVuJB9EMMf/GmZGHk4Wq+oe57VlrjOxV8wf8AOZFiE1HyvfAbzQ3cBO/+6miY&#xA;V7f7tOUZhu5ulOxD5yylyV6dMBVdgQn+mGtlHXtUficy8X0uvzj1lFZY1OxVjt8vG7lH+UT9++YW&#xA;QeouyxG4hQyLN2KrH64QlbhV2Kploo+KU+AA++uXYeri6o7BNcvcN2KpXrR+KJfAMfvplGbo5mlH&#xA;NLMpcp2KuxV9v/8AONtotv8Ak5obb8rhrqV967m6lUU/2KjMnF9Lgag+t6bljQ7FXz3/AM5i2Rfy&#xA;55dvqbQXk0BbfYzRBqeG/o5Tm6OXpTzfK+UOWvTvgKrsCE70hq2lP5WI/Uf45lYT6XB1A9SOy1od&#xA;iqFuNOtp2LsCrnqwP9crljBbYZpR2QUuiyjeNww8Dsf45UcB6N8dSOoQctpcxfbjIHj1H3jKzAhu&#xA;jkieRQz/AGhgDYrRWF1J9mMgeLbfrywQJa5Zojqi4tGPWWT6F/qcmMPe0S1XcEfb2sNupEYO/Uk1&#xA;rTLYxAceeQy5quSYOxVJ9Yatyo8EH4k5j5ebnaYelAZU5DsVdir76/JmxNl+VfleEinPT4Z9yD/v&#xA;QPW7f8ZMysYoOuzG5lmWTanYq8X/AOcsrUzflfDJSv1bU7eU9dqxTR9v+MmVZuTk6X6j7nx3mO5q&#xA;9O+AquwITjRW/cyL4NX7x/ZmTg5OHqRuExy5xnYq7FXYq7FVF44w/IKAxG5AFcFJstYUOxV2KuxV&#xA;2KpHqhreMPAAfhXMbJzdhpx6EJlbc7FXYq/RXydaGz8o6HZkUNtp9rCQaH7EKr227Zlw5B1mT6j7&#xA;03yTB2KvM/8AnJC0W4/JzXiRV4Dayod9it1ED0/yScry/S36f63w/mM565OuAqvwIRdhei1Z+Sll&#xA;eladRSv9csxz4WrLi4k0i1Kzk/b4Hwbb8emXjLEuJLDIIkMGFQajxGWNTeKuxV2KqUn2voxVbirs&#xA;VdiqySWKMVdwvzNMBICREnkhZdWtk2Srn2FB+OQOUN0dPI89kpuJjNM0tKcu3X2yiRs25sI8IpTy&#xA;LJ2Kq1nbtc3cFuu7TSLGAKDdmA7/ADxSH6TKqqoVQAoFABsABma6h2KuxVh/5w2P138rfNMO3w6b&#xA;cT7kj+4Qzdv9TITFhtwmpB8B5iuxXJ9rAVX4EOxV2Kr0lkjNUYqfY0wgkIMQeaKi1a6T7REg9xQ/&#xA;hlgzENMtPEoyLWYG2kUofEbjLBmHVplpj0RcVzby/wB3IGPhXf7ssEgeTTKBHMOlIBqelMkxQst/&#xA;aR9ZAT4Lv+rIGYDbHDI9EJLrI6RR/S39BkDm7m6Ol7yhJdQu5Or8R4Lt/blZyEt0cMR0Q5JJqTU+&#xA;JyDa1irsVdirsVZD+XVmt75/8tWjfYn1SzR6U+ybhOXXbphHNEjQJfoXmY6p2KuxVKfN1p9c8qa1&#xA;af8ALTYXMXWn24WXr9ORnyLPGfUPe/OnMR2ba9RiVVMih2KuxV2KuxV2KuxVqWWRqBnLADYEk5Ky&#xA;oiAp4pdirsVdirsVdirsVdirPPyKsTe/m55ZhA5FLoz02/4943mrv4enkojcMMhqJfeGZbrHYq7F&#xA;XYq/Nq/tzbX1xbHrBK8fj9hiv8MwnblQxQ2CRirYc98FKuDjBSt1xQ7FXYq7FVj9cIStwq7FXYq7&#xA;FXYq7FXYq7FXrH/OMFoZ/wA3tOlAqLW3upidtqwtF/zMyeP6g1Z/oL7UzKdc7FXYq7FXzf55/wCc&#xA;TL3UNUv9V0DXYvVvbiW4NlfRsiqZXL8RNF6lacqf3eUHEejmR1I6h4/5k/I380vL/J7vQZ7i3Wp+&#xA;sWVLpOI/aIh5Oo/1lGVmJDfHJE8iwV0eNyjqUdTRlYUIPuDkWa3FXYq7FVwY40rYfxGClbDA98FK&#xA;tfrhCrcKuxV2KuxV2KuxVFadpep6ncra6bZz310+yQW0byyH5KgYnFXpPlr/AJxq/NXW+DzafHo9&#xA;s+/rahIIzQf8VIJJgfmgyYxktUs0R1e9/k5+QEX5faxLrdzq36S1Ca1a19JIRHFH6jo7MrMzsx/d&#xA;0rtsTtlsMdbuNlz8QoPXstcd2KuxV2KuxV2KpL5h8k+UfMUbJrmj2moFhx9WaJGlAH8stPUX/Ytk&#xA;TEFnHJKPIvK/Mv8Azib+X+o85NFubvRJyfhRW+tW4/2Ep9T/AJK5A4h0bo6k9Q8q8yf84o/mNpvK&#xA;TSZbTW4ATxWKT6vPQdyk3FPoEhys4i3R1ET5PLdf8o+afL0vpa5pN1pzHZTcQvGrU2+ByOLD5HIE&#xA;U3Ag8kowJdirsVdirsVdirsVZX5a/Kv8w/MoRtH0G7ngk+xdOnoQH5TTGOM/8FhESeTGUxHmXqvl&#xA;v/nEHzPchZPMGs22moRUwWqNdSj/ACWJ9FFPuC2WDEWmWpiOW71Xy3/zjJ+Vej8XubObWbhaH1L+&#xA;UlajrSKIRRkezA5YMQaZamR5bPTNM0fSdKtxbaXZW9hbDcQW0SQp/wACgUZMABoMieaLwodirsVd&#xA;irsVdirsVdirsVdirsVWTQwzxNDNGssTijxuAysD2IOxxSDTAfMn5CflVr/N59Disrh+lxp5NqwP&#xA;jwjpET/rIcrOMFtjnkPN5V5l/wCcPN3k8s6/tX4LXUo+3vPCP+ZWQOHubo6odQ8q8yfkL+augc3n&#xA;0OW8t1rS4sCLpSB1bhHWVR/rIMrMCG6OWJ5FhtjoGu6hfGwsNOubu+U0a1ghkklB90UFh92RbDs9&#xA;J8t/84yfmprASS5s4dHt33El/KFen/GKISyA+zKMmMZLVLPEdXqvlv8A5xC8sW3GTzDrFzqMgoTB&#xA;aqtrFXuCT6rsPcFcsGHvaZaruD1Xy3+Vn5eeW+DaPoNpBNGQUuXT1pwR3E03qSD/AILLBABolmke&#xA;rKsk1uxV2KuxV2KuxV2KuxV//9k=</xmpGImg:image>
               </rdf:li>
            </rdf:Alt>
         </xmp:Thumbnails>
         <xmpMM:InstanceID>xmp.iid:9632bbfa-e7aa-9149-8890-086b45e44cdd</xmpMM:InstanceID>
         <xmpMM:DocumentID>xmp.did:9632bbfa-e7aa-9149-8890-086b45e44cdd</xmpMM:DocumentID>
         <xmpMM:OriginalDocumentID>uuid:5D20892493BFDB11914A8590D31508C8</xmpMM:OriginalDocumentID>
         <xmpMM:RenditionClass>proof:pdf</xmpMM:RenditionClass>
         <xmpMM:DerivedFrom rdf:parseType="Resource">
            <stRef:instanceID>xmp.iid:8e647ab5-4f95-0348-a568-810b47b8be45</stRef:instanceID>
            <stRef:documentID>xmp.did:8e647ab5-4f95-0348-a568-810b47b8be45</stRef:documentID>
            <stRef:originalDocumentID>uuid:5D20892493BFDB11914A8590D31508C8</stRef:originalDocumentID>
            <stRef:renditionClass>proof:pdf</stRef:renditionClass>
         </xmpMM:DerivedFrom>
         <xmpMM:History>
            <rdf:Seq>
               <rdf:li rdf:parseType="Resource">
                  <stEvt:action>saved</stEvt:action>
                  <stEvt:instanceID>xmp.iid:c34fcb8d-e8f1-8b48-96f0-dfe390e32e91</stEvt:instanceID>
                  <stEvt:when>2017-08-14T12:20:04-05:00</stEvt:when>
                  <stEvt:softwareAgent>Adobe Illustrator CC (Windows)</stEvt:softwareAgent>
                  <stEvt:changed>/</stEvt:changed>
               </rdf:li>
               <rdf:li rdf:parseType="Resource">
                  <stEvt:action>saved</stEvt:action>
                  <stEvt:instanceID>xmp.iid:9632bbfa-e7aa-9149-8890-086b45e44cdd</stEvt:instanceID>
                  <stEvt:when>2017-08-14T12:38:08-05:00</stEvt:when>
                  <stEvt:softwareAgent>Adobe Illustrator CC (Windows)</stEvt:softwareAgent>
                  <stEvt:changed>/</stEvt:changed>
               </rdf:li>
            </rdf:Seq>
         </xmpMM:History>
         <illustrator:StartupProfile>Print</illustrator:StartupProfile>
         <xmpTPg:HasVisibleOverprint>False</xmpTPg:HasVisibleOverprint>
         <xmpTPg:HasVisibleTransparency>True</xmpTPg:HasVisibleTransparency>
         <xmpTPg:NPages>1</xmpTPg:NPages>
         <xmpTPg:MaxPageSize rdf:parseType="Resource">
            <stDim:w>244.365997</stDim:w>
            <stDim:h>343.980011</stDim:h>
            <stDim:unit>Pixels</stDim:unit>
         </xmpTPg:MaxPageSize>
         <xmpTPg:PlateNames>
            <rdf:Seq>
               <rdf:li>Cyan</rdf:li>
               <rdf:li>Magenta</rdf:li>
               <rdf:li>Yellow</rdf:li>
               <rdf:li>Black</rdf:li>
            </rdf:Seq>
         </xmpTPg:PlateNames>
         <xmpTPg:SwatchGroups>
            <rdf:Seq>
               <rdf:li rdf:parseType="Resource">
                  <xmpG:groupName>Grupo de muestras por defecto</xmpG:groupName>
                  <xmpG:groupType>0</xmpG:groupType>
               </rdf:li>
            </rdf:Seq>
         </xmpTPg:SwatchGroups>
         <pdf:Producer>Adobe PDF library 10.01</pdf:Producer>
      </rdf:Description>
   </rdf:RDF>
</x:xmpmeta>
                                                                                                    
                                                                                                    
                                                                                                    
                                                                                                    
                                                                                                    
                                                                                                    
                                                                                                    
                                                                                                    
                                                                                                    
                                                                                                    
                                                                                                    
                                                                                                    
                                                                                                    
                                                                                                    
                                                                                                    
                                                                                                    
                                                                                                    
                                                                                                    
                                                                                                    
                                                                                                    
                           
<?xpacket end="w"?>
	</metadata>
<g>
	<polygon class="st0" points="244.366,67.418 122.183,67.418 122.183,67.418 0,67.418 22.897,315.833 122.183,343.98 
		122.183,343.98 122.183,343.98 122.183,343.98 122.183,343.98 221.433,315.833 	"/>
	<path d="M52.432,15.386H38.321V0H22.715v46.379h15.607V30.993h14.111v15.386H68V0H52.432V15.386z M161.271,0h-1.386l-9.663,15.86
		L140.56,0h-1.093h-14.366h-0.73v46.379h15.096V23.227l10.718,16.698l0.036,0.037l0,0l0,0l0.038-0.037l11.012-17.173v23.627h15.095
		V0h-1.058H161.271z M74.818,15.606h13.564V46.38h15.605V15.606h13.564V0H74.818V15.606z M199.883,30.774V0h-15.568v46.379h3.938
		h11.631h21.73V30.774H199.883z"/>
	<polygon class="st1" points="122.183,87.654 122.183,322.943 122.183,322.943 41.784,300.151 22.205,87.654 	"/>
	<polygon class="st2" points="199.044,118.137 45.285,118.137 53.891,211.149 54.073,210.566 159.117,210.566 155.689,249.91 
		122.183,259.57 88.163,249.765 86.123,225.954 55.239,225.954 59.651,273.536 122.183,291.294 184.714,273.536 193.321,180.158 
		81.856,180.158 78.977,149.02 196.201,149.02 	"/>
	<g>
		<path class="st3" d="M122.183,118.137H45.285l8.606,93.013l0.182-0.583h68.11v-30.409H81.856l-2.879-31.138h43.206
			C122.183,149.02,122.183,118.137,122.183,118.137z M86.123,225.954H55.239l4.412,47.582l62.532,17.719V259.57l-34.02-9.806
			L86.123,225.954z"/>
	</g>
</g>
<polygon class="st4" points="244.366,67.418 122.183,67.418 122.183,67.418 0,67.418 22.897,315.833 122.183,343.98 122.183,343.98 
	122.183,343.98 122.183,343.98 122.183,343.98 221.433,315.833 "/>
<g>
	<path class="st3" d="M55.677,203.509v-13.696h2.674v13.696H55.677z"/>
	<path class="st3" d="M69.644,203.509l-5.425-8.407v8.407h-2.674v-13.696h2.386l5.425,8.387v-8.387h2.674v13.696H69.644z"/>
	<path class="st3" d="M80.456,192.198v11.311h-2.674v-11.311h-3.578v-2.386h9.829v2.386H80.456z"/>
	<path class="st3" d="M93.48,203.509l-2.674-5.464h-1.924v5.464h-2.674v-13.696h5.367c2.79,0,4.443,1.905,4.443,4.194
		c0,1.924-1.173,3.117-2.5,3.597l3.058,5.905H93.48z M91.403,192.198h-2.521v3.617h2.521c1.173,0,1.943-0.75,1.943-1.809
		C93.345,192.948,92.575,192.198,91.403,192.198z"/>
	<path class="st3" d="M107.081,202.124c-0.962,0.962-2.135,1.501-3.693,1.501c-1.559,0-2.751-0.539-3.713-1.501
		c-1.385-1.384-1.346-3.097-1.346-5.463s-0.039-4.079,1.346-5.464c0.962-0.962,2.154-1.501,3.713-1.501
		c1.558,0,2.731,0.539,3.693,1.501c1.384,1.385,1.366,3.097,1.366,5.464C108.447,199.027,108.466,200.739,107.081,202.124z
		 M105.1,192.814c-0.385-0.443-0.981-0.731-1.712-0.731s-1.346,0.288-1.732,0.731c-0.519,0.577-0.654,1.212-0.654,3.848
		c0,2.635,0.135,3.27,0.654,3.847c0.385,0.443,1.001,0.731,1.732,0.731s1.327-0.288,1.712-0.731
		c0.519-0.577,0.673-1.212,0.673-3.847C105.773,194.025,105.62,193.391,105.1,192.814z"/>
	<path class="st3" d="M119.74,202.201c-0.905,0.904-2.194,1.307-3.617,1.307h-4.944v-13.696h4.944c1.423,0,2.712,0.404,3.617,1.308
		c1.538,1.538,1.384,3.424,1.384,5.482S121.279,200.662,119.74,202.201z M117.874,193.044c-0.462-0.557-1.078-0.846-2-0.846h-2.02
		v8.926h2.02c0.923,0,1.538-0.288,2-0.846c0.5-0.615,0.577-1.597,0.577-3.674S118.374,193.66,117.874,193.044z"/>
	<path class="st3" d="M128.685,203.625c-2.808,0-5.04-1.904-5.04-4.809v-9.002h2.674v8.907c0,1.577,0.924,2.52,2.366,2.52
		c1.442,0,2.385-0.942,2.385-2.52v-8.907h2.655v9.002C133.725,201.72,131.493,203.625,128.685,203.625z"/>
	<path class="st3" d="M141.286,203.625c-1.462,0-2.693-0.5-3.693-1.501c-0.596-0.596-0.962-1.288-1.116-2.058
		c-0.154-0.77-0.231-1.905-0.231-3.405c0-1.501,0.077-2.636,0.231-3.405c0.154-0.788,0.519-1.462,1.116-2.058
		c1.001-1.001,2.231-1.501,3.693-1.501c2.635,0,4.578,1.539,5.04,4.328h-2.712c-0.289-1.173-1.02-1.943-2.308-1.943
		c-0.731,0-1.308,0.231-1.712,0.711c-0.558,0.596-0.674,1.212-0.674,3.867c0,2.655,0.116,3.27,0.674,3.866
		c0.404,0.48,0.981,0.711,1.712,0.711c1.288,0,2.019-0.769,2.308-1.943h2.712C145.865,202.086,143.903,203.625,141.286,203.625z"/>
	<path class="st3" d="M152.599,203.625c-1.462,0-2.693-0.5-3.693-1.501c-0.596-0.596-0.962-1.288-1.116-2.058
		c-0.154-0.77-0.231-1.905-0.231-3.405c0-1.501,0.077-2.636,0.231-3.405c0.154-0.788,0.519-1.462,1.116-2.058
		c1.001-1.001,2.231-1.501,3.693-1.501c2.635,0,4.578,1.539,5.04,4.328h-2.712c-0.289-1.173-1.02-1.943-2.308-1.943
		c-0.731,0-1.308,0.231-1.712,0.711c-0.558,0.596-0.674,1.212-0.674,3.867c0,2.655,0.116,3.27,0.674,3.866
		c0.404,0.48,0.981,0.711,1.712,0.711c1.288,0,2.019-0.769,2.308-1.943h2.712C157.177,202.086,155.214,203.625,152.599,203.625z"/>
	<path class="st3" d="M159.947,203.509v-13.696h2.674v13.696H159.947z"/>
	<path class="st3" d="M174.106,202.124c-0.963,0.962-2.135,1.501-3.693,1.501c-1.559,0-2.751-0.539-3.713-1.501
		c-1.385-1.384-1.346-3.097-1.346-5.463s-0.039-4.079,1.346-5.464c0.962-0.962,2.154-1.501,3.713-1.501
		c1.558,0,2.731,0.539,3.693,1.501c1.384,1.385,1.366,3.097,1.366,5.464C175.472,199.027,175.491,200.739,174.106,202.124z
		 M172.125,192.814c-0.385-0.443-0.981-0.731-1.712-0.731c-0.731,0-1.346,0.288-1.732,0.731c-0.519,0.577-0.654,1.212-0.654,3.848
		c0,2.635,0.135,3.27,0.654,3.847c0.385,0.443,1.001,0.731,1.732,0.731c0.731,0,1.327-0.288,1.712-0.731
		c0.519-0.577,0.673-1.212,0.673-3.847C172.797,194.025,172.644,193.391,172.125,192.814z M171.028,188.485h-1.674l1.231-3.27h2.636
		L171.028,188.485z"/>
	<path class="st3" d="M186.303,203.509l-5.425-8.407v8.407h-2.674v-13.696h2.386l5.425,8.387v-8.387h2.674v13.696H186.303z"/>
</g>
</svg>
