<!-- Generator: Adobe Illustrator 17.0.0, SVG Export Plug-In  -->
<svg version="1.1"
	 xmlns="http://www.w3.org/2000/svg" xmlns:xlink="http://www.w3.org/1999/xlink" xmlns:a="http://ns.adobe.com/AdobeSVGViewerExtensions/3.0/"
	 x="0px" y="0px" width="153.941px" height="45.314px" viewBox="0 0 153.941 45.314"
	 style="enable-background:new 0 0 153.941 45.314;" xml:space="preserve">
<style type="text/css">
	.st0{fill:#FFFFFF;}
	.st1{fill:#FFFFFF;stroke:#E54F26;stroke-width:1.7139;stroke-miterlimit:10;}
</style>
<defs>
</defs>
<g>
	<g id="XMLID_1_">
		<path id="XMLID_9_" class="st0" d="M148.973,45.314c-1.273,0-2.547-0.484-3.516-1.453l-11.854-12.227
			c-0.468-0.469-0.468-1.227,0-1.693c0.467-0.467,1.225-0.467,1.692,0l11.854,12.226c1.006,1.006,2.64,1.006,3.645,0
			c1.006-1.004,1.006-2.641,0-3.645l-11.616-11.99c-0.468-0.469-0.468-1.227,0-1.693c0.468-0.467,1.224-0.467,1.691,0l11.617,11.99
			c1.939,1.938,1.939,5.092,0,7.031C151.518,44.83,150.245,45.314,148.973,45.314L148.973,45.314z M148.973,45.314"/>
		<path id="XMLID_6_" class="st1" d="M126.568,9.047c1.341,0,2.429,1.088,2.429,2.428v3.035h3.036c1.34,0,2.428,1.088,2.428,2.43
			c0,1.34-1.088,2.428-2.428,2.428h-3.036v3.035c0,1.342-1.088,2.43-2.429,2.43c-1.342,0-2.43-1.088-2.43-2.43v-3.035h-3.035
			c-1.34,0-2.429-1.088-2.429-2.428c0-1.342,1.089-2.43,2.429-2.43h3.035v-3.035C124.139,10.135,125.227,9.047,126.568,9.047
			L126.568,9.047z M126.568,9.047"/>
		<path id="XMLID_2_" class="st0" d="M126.568,34.008c-9.377,0-17.005-7.627-17.005-17.002C109.563,7.629,117.191,0,126.568,0
			c9.375,0,17.004,7.629,17.004,17.006C143.572,26.381,135.943,34.008,126.568,34.008L126.568,34.008z M126.568,3.719
			c-7.327,0-13.285,5.961-13.285,13.287c0,7.324,5.958,13.285,13.285,13.285c7.325,0,13.285-5.961,13.285-13.285
			C139.854,9.68,133.894,3.719,126.568,3.719L126.568,3.719z M126.568,2.395"/>
	</g>
	<g>
		<path class="st0" d="M7.211,17.657l1.27,0.32c-0.267,1.043-0.745,1.838-1.437,2.386c-0.691,0.547-1.537,0.821-2.536,0.821
			c-1.033,0-1.874-0.211-2.522-0.632c-0.647-0.421-1.141-1.031-1.479-1.829C0.169,17.925,0,17.068,0,16.151
			c0-0.998,0.19-1.87,0.572-2.614c0.382-0.743,0.925-1.309,1.629-1.694c0.705-0.386,1.48-0.579,2.327-0.579
			c0.959,0,1.767,0.244,2.421,0.732c0.654,0.489,1.11,1.176,1.367,2.062l-1.249,0.295c-0.223-0.698-0.546-1.206-0.969-1.525
			c-0.424-0.318-0.956-0.478-1.597-0.478c-0.737,0-1.354,0.177-1.849,0.53s-0.844,0.828-1.044,1.423
			c-0.201,0.596-0.301,1.21-0.301,1.843c0,0.815,0.118,1.527,0.356,2.137c0.237,0.608,0.607,1.063,1.109,1.364
			c0.501,0.301,1.045,0.451,1.629,0.451c0.711,0,1.313-0.205,1.807-0.615S7.036,18.464,7.211,17.657z"/>
		<path class="st0" d="M9.868,21.02v-9.594h1.178v9.594H9.868z"/>
		<path class="st0" d="M12.878,12.781v-1.354h1.179v1.354H12.878z M12.878,21.02v-6.949h1.179v6.949H12.878z"/>
		<path class="st0" d="M20.384,18.475l1.158,0.15c-0.126,0.799-0.45,1.424-0.972,1.875c-0.521,0.452-1.161,0.678-1.92,0.678
			c-0.951,0-1.716-0.311-2.294-0.933s-0.867-1.513-0.867-2.673c0-0.751,0.124-1.407,0.373-1.97c0.249-0.563,0.627-0.985,1.136-1.267
			c0.508-0.281,1.061-0.422,1.658-0.422c0.755,0,1.372,0.19,1.853,0.572c0.479,0.382,0.787,0.924,0.923,1.626l-1.146,0.177
			c-0.109-0.467-0.303-0.817-0.579-1.054c-0.277-0.235-0.612-0.354-1.005-0.354c-0.593,0-1.075,0.213-1.446,0.639
			c-0.37,0.425-0.556,1.099-0.556,2.019c0,0.934,0.179,1.612,0.536,2.035s0.825,0.635,1.4,0.635c0.463,0,0.849-0.142,1.158-0.425
			C20.104,19.5,20.301,19.063,20.384,18.475z"/>
		<path class="st0" d="M26.274,23.684v-9.612h1.073v0.902c0.253-0.354,0.538-0.618,0.856-0.795s0.705-0.265,1.158-0.265
			c0.594,0,1.117,0.152,1.571,0.458c0.453,0.306,0.796,0.736,1.027,1.292c0.231,0.557,0.347,1.166,0.347,1.829
			c0,0.711-0.128,1.352-0.383,1.921s-0.626,1.006-1.112,1.309c-0.486,0.304-0.998,0.455-1.535,0.455
			c-0.393,0-0.744-0.083-1.057-0.249c-0.312-0.166-0.568-0.375-0.769-0.628v3.383H26.274z M27.341,17.585
			c0,0.895,0.181,1.556,0.543,1.982c0.362,0.428,0.801,0.642,1.315,0.642c0.523,0,0.972-0.222,1.345-0.664s0.56-1.129,0.56-2.059
			c0-0.885-0.183-1.548-0.547-1.989c-0.364-0.44-0.799-0.66-1.305-0.66c-0.502,0-0.946,0.234-1.332,0.703
			S27.341,16.69,27.341,17.585z"/>
		<path class="st0" d="M38.262,20.163c-0.436,0.371-0.855,0.633-1.26,0.785c-0.403,0.153-0.836,0.229-1.299,0.229
			c-0.763,0-1.35-0.187-1.76-0.56s-0.615-0.85-0.615-1.43c0-0.341,0.077-0.651,0.232-0.933c0.154-0.281,0.357-0.507,0.608-0.678
			c0.251-0.17,0.533-0.299,0.848-0.386c0.23-0.062,0.58-0.12,1.047-0.177c0.951-0.113,1.651-0.249,2.101-0.405
			c0.004-0.162,0.007-0.265,0.007-0.308c0-0.48-0.111-0.818-0.334-1.015c-0.301-0.266-0.748-0.399-1.342-0.399
			c-0.554,0-0.963,0.098-1.227,0.291c-0.265,0.194-0.46,0.538-0.586,1.031l-1.151-0.157c0.104-0.493,0.276-0.891,0.517-1.194
			c0.24-0.303,0.587-0.536,1.04-0.7c0.454-0.164,0.979-0.245,1.577-0.245c0.594,0,1.076,0.069,1.446,0.209
			c0.371,0.14,0.644,0.315,0.818,0.527c0.175,0.211,0.297,0.479,0.366,0.801c0.039,0.201,0.059,0.563,0.059,1.087v1.57
			c0,1.095,0.025,1.788,0.076,2.078c0.05,0.29,0.149,0.568,0.297,0.834h-1.229C38.376,20.776,38.297,20.49,38.262,20.163z
			 M38.164,17.532c-0.428,0.175-1.069,0.323-1.924,0.445c-0.484,0.07-0.827,0.148-1.027,0.235c-0.201,0.088-0.355,0.215-0.465,0.383
			s-0.164,0.354-0.164,0.56c0,0.314,0.119,0.576,0.357,0.785c0.237,0.21,0.585,0.314,1.043,0.314c0.454,0,0.857-0.1,1.211-0.298
			s0.613-0.47,0.779-0.814c0.126-0.267,0.189-0.659,0.189-1.178V17.532z"/>
		<path class="st0" d="M41.167,21.02v-6.949h1.061v1.053c0.271-0.492,0.521-0.817,0.749-0.975c0.229-0.157,0.481-0.235,0.756-0.235
			c0.396,0,0.801,0.126,1.211,0.379l-0.406,1.093c-0.288-0.17-0.575-0.255-0.863-0.255c-0.258,0-0.489,0.077-0.694,0.232
			s-0.351,0.37-0.438,0.645c-0.131,0.419-0.196,0.877-0.196,1.374v3.639H41.167z"/>
		<path class="st0" d="M50.178,20.163c-0.436,0.371-0.855,0.633-1.26,0.785c-0.403,0.153-0.836,0.229-1.299,0.229
			c-0.763,0-1.35-0.187-1.76-0.56s-0.615-0.85-0.615-1.43c0-0.341,0.077-0.651,0.232-0.933c0.154-0.281,0.357-0.507,0.608-0.678
			c0.251-0.17,0.533-0.299,0.848-0.386c0.23-0.062,0.58-0.12,1.047-0.177c0.951-0.113,1.651-0.249,2.101-0.405
			c0.004-0.162,0.007-0.265,0.007-0.308c0-0.48-0.111-0.818-0.334-1.015c-0.301-0.266-0.748-0.399-1.342-0.399
			c-0.554,0-0.963,0.098-1.227,0.291c-0.265,0.194-0.46,0.538-0.586,1.031l-1.151-0.157c0.104-0.493,0.276-0.891,0.517-1.194
			c0.24-0.303,0.587-0.536,1.04-0.7c0.454-0.164,0.979-0.245,1.577-0.245c0.594,0,1.076,0.069,1.446,0.209
			c0.371,0.14,0.644,0.315,0.818,0.527c0.175,0.211,0.297,0.479,0.366,0.801c0.039,0.201,0.059,0.563,0.059,1.087v1.57
			c0,1.095,0.025,1.788,0.076,2.078c0.05,0.29,0.149,0.568,0.297,0.834h-1.229C50.292,20.776,50.213,20.49,50.178,20.163z
			 M50.08,17.532c-0.428,0.175-1.069,0.323-1.924,0.445c-0.484,0.07-0.827,0.148-1.027,0.235c-0.201,0.088-0.355,0.215-0.465,0.383
			S46.5,18.95,46.5,19.155c0,0.314,0.119,0.576,0.357,0.785c0.237,0.21,0.585,0.314,1.043,0.314c0.454,0,0.857-0.1,1.211-0.298
			s0.613-0.47,0.779-0.814c0.126-0.267,0.189-0.659,0.189-1.178V17.532z"/>
		<path class="st0" d="M61.354,20.163c-0.436,0.371-0.855,0.633-1.26,0.785c-0.403,0.153-0.836,0.229-1.299,0.229
			c-0.763,0-1.35-0.187-1.76-0.56s-0.615-0.85-0.615-1.43c0-0.341,0.077-0.651,0.232-0.933c0.154-0.281,0.357-0.507,0.608-0.678
			c0.251-0.17,0.533-0.299,0.848-0.386c0.23-0.062,0.58-0.12,1.047-0.177c0.951-0.113,1.651-0.249,2.101-0.405
			c0.004-0.162,0.007-0.265,0.007-0.308c0-0.48-0.111-0.818-0.334-1.015c-0.301-0.266-0.748-0.399-1.342-0.399
			c-0.554,0-0.963,0.098-1.227,0.291c-0.265,0.194-0.46,0.538-0.586,1.031l-1.151-0.157c0.104-0.493,0.276-0.891,0.517-1.194
			c0.24-0.303,0.587-0.536,1.04-0.7c0.454-0.164,0.979-0.245,1.577-0.245c0.594,0,1.076,0.069,1.446,0.209
			c0.371,0.14,0.644,0.315,0.818,0.527c0.175,0.211,0.297,0.479,0.366,0.801c0.039,0.201,0.059,0.563,0.059,1.087v1.57
			c0,1.095,0.025,1.788,0.076,2.078c0.05,0.29,0.149,0.568,0.297,0.834h-1.229C61.469,20.776,61.39,20.49,61.354,20.163z
			 M61.257,17.532c-0.428,0.175-1.069,0.323-1.924,0.445c-0.484,0.07-0.827,0.148-1.027,0.235c-0.201,0.088-0.355,0.215-0.465,0.383
			s-0.164,0.354-0.164,0.56c0,0.314,0.119,0.576,0.357,0.785c0.237,0.21,0.585,0.314,1.043,0.314c0.454,0,0.857-0.1,1.211-0.298
			s0.613-0.47,0.779-0.814c0.126-0.267,0.189-0.659,0.189-1.178V17.532z"/>
		<path class="st0" d="M64.273,21.02v-6.949h1.053v0.975c0.219-0.34,0.509-0.614,0.871-0.821c0.361-0.207,0.774-0.311,1.236-0.311
			c0.515,0,0.937,0.106,1.267,0.32c0.329,0.214,0.562,0.513,0.697,0.896c0.549-0.812,1.265-1.217,2.146-1.217
			c0.689,0,1.22,0.19,1.591,0.572c0.37,0.382,0.556,0.97,0.556,1.764v4.771h-1.171v-4.378c0-0.471-0.038-0.811-0.114-1.018
			c-0.077-0.207-0.215-0.374-0.416-0.501c-0.2-0.126-0.437-0.189-0.707-0.189c-0.488,0-0.894,0.163-1.217,0.487
			c-0.323,0.325-0.484,0.846-0.484,1.561v4.038h-1.178v-4.516c0-0.523-0.096-0.916-0.288-1.178s-0.506-0.393-0.942-0.393
			c-0.331,0-0.638,0.088-0.919,0.262c-0.281,0.175-0.485,0.43-0.612,0.766c-0.126,0.336-0.189,0.82-0.189,1.453v3.605H64.273z"/>
		<path class="st0" d="M75.438,23.684v-9.612h1.073v0.902c0.253-0.354,0.538-0.618,0.856-0.795s0.705-0.265,1.158-0.265
			c0.594,0,1.117,0.152,1.571,0.458c0.453,0.306,0.796,0.736,1.027,1.292c0.231,0.557,0.347,1.166,0.347,1.829
			c0,0.711-0.128,1.352-0.383,1.921s-0.626,1.006-1.112,1.309c-0.486,0.304-0.998,0.455-1.535,0.455
			c-0.393,0-0.744-0.083-1.057-0.249c-0.312-0.166-0.568-0.375-0.769-0.628v3.383H75.438z M76.504,17.585
			c0,0.895,0.181,1.556,0.543,1.982c0.362,0.428,0.801,0.642,1.315,0.642c0.523,0,0.972-0.222,1.345-0.664s0.56-1.129,0.56-2.059
			c0-0.885-0.183-1.548-0.547-1.989c-0.364-0.44-0.799-0.66-1.305-0.66c-0.502,0-0.946,0.234-1.332,0.703
			S76.504,16.69,76.504,17.585z"/>
		<path class="st0" d="M82.864,21.02v-9.594h1.178v9.594H82.864z"/>
		<path class="st0" d="M85.874,12.781v-1.354h1.179v1.354H85.874z M85.874,21.02v-6.949h1.179v6.949H85.874z"/>
		<path class="st0" d="M93.38,20.163c-0.436,0.371-0.855,0.633-1.26,0.785c-0.403,0.153-0.836,0.229-1.299,0.229
			c-0.763,0-1.35-0.187-1.76-0.56s-0.615-0.85-0.615-1.43c0-0.341,0.077-0.651,0.232-0.933c0.154-0.281,0.357-0.507,0.608-0.678
			c0.251-0.17,0.533-0.299,0.848-0.386c0.23-0.062,0.58-0.12,1.047-0.177c0.951-0.113,1.651-0.249,2.101-0.405
			c0.004-0.162,0.007-0.265,0.007-0.308c0-0.48-0.111-0.818-0.334-1.015c-0.301-0.266-0.748-0.399-1.342-0.399
			c-0.554,0-0.963,0.098-1.227,0.291c-0.265,0.194-0.46,0.538-0.586,1.031l-1.151-0.157c0.104-0.493,0.276-0.891,0.517-1.194
			c0.24-0.303,0.587-0.536,1.04-0.7c0.454-0.164,0.979-0.245,1.577-0.245c0.594,0,1.076,0.069,1.446,0.209
			c0.371,0.14,0.644,0.315,0.818,0.527c0.175,0.211,0.297,0.479,0.366,0.801c0.039,0.201,0.059,0.563,0.059,1.087v1.57
			c0,1.095,0.025,1.788,0.076,2.078c0.05,0.29,0.149,0.568,0.297,0.834h-1.229C93.494,20.776,93.415,20.49,93.38,20.163z
			 M93.282,17.532c-0.428,0.175-1.069,0.323-1.924,0.445c-0.484,0.07-0.827,0.148-1.027,0.235c-0.201,0.088-0.355,0.215-0.465,0.383
			s-0.164,0.354-0.164,0.56c0,0.314,0.119,0.576,0.357,0.785c0.237,0.21,0.585,0.314,1.043,0.314c0.454,0,0.857-0.1,1.211-0.298
			s0.613-0.47,0.779-0.814c0.126-0.267,0.189-0.659,0.189-1.178V17.532z"/>
		<path class="st0" d="M96.285,21.02v-6.949h1.061v1.053c0.271-0.492,0.521-0.817,0.749-0.975c0.229-0.157,0.481-0.235,0.756-0.235
			c0.396,0,0.801,0.126,1.211,0.379l-0.406,1.093c-0.288-0.17-0.575-0.255-0.863-0.255c-0.258,0-0.489,0.077-0.694,0.232
			s-0.351,0.37-0.438,0.645c-0.131,0.419-0.196,0.877-0.196,1.374v3.639H96.285z"/>
	</g>
</g>
</svg>