<!-- Generator: Adobe Illustrator 17.0.0, SVG Export Plug-In  -->
<svg version="1.1"
	 xmlns="http://www.w3.org/2000/svg" xmlns:xlink="http://www.w3.org/1999/xlink" xmlns:a="http://ns.adobe.com/AdobeSVGViewerExtensions/3.0/"
	 x="0px" y="0px" width="118.225px" height="27.083px" viewBox="0 0 118.225 27.083"
	 style="enable-background:new 0 0 118.225 27.083;" xml:space="preserve">
<style type="text/css">
	.st0{fill:none;stroke:#E54F26;stroke-miterlimit:10;}
</style>
<defs>
</defs>
<g>
	<g id="XMLID_1_">
		<path id="XMLID_9_" d="M115.255,27.083c-0.76,0-1.521-0.29-2.102-0.869l-7.083-7.307c-0.28-0.28-0.28-0.733,0-1.012
			c0.278-0.28,0.731-0.28,1.011,0l7.084,7.307c0.602,0.602,1.578,0.602,2.18,0c0.6-0.6,0.6-1.578,0-2.178l-6.944-7.167
			c-0.278-0.279-0.278-0.733,0-1.012c0.279-0.279,0.733-0.279,1.012,0l6.942,7.166c1.16,1.158,1.16,3.043,0,4.202
			C116.776,26.793,116.017,27.083,115.255,27.083L115.255,27.083z M115.255,27.083"/>
		<path id="XMLID_6_" class="st0" d="M101.864,5.407c0.801,0,1.453,0.65,1.453,1.45v1.815h1.813c0.802,0,1.452,0.648,1.452,1.451
			c0,0.801-0.65,1.451-1.452,1.451h-1.813v1.813c0,0.803-0.652,1.452-1.453,1.452c-0.801,0-1.452-0.649-1.452-1.452v-1.813h-1.813
			c-0.801,0-1.451-0.65-1.451-1.451c0-0.803,0.65-1.451,1.451-1.451h1.813V6.857C100.412,6.058,101.063,5.407,101.864,5.407
			L101.864,5.407z M101.864,5.407"/>
		<path id="XMLID_2_" d="M101.864,20.325c-5.605,0-10.163-4.559-10.163-10.162C91.701,4.559,96.259,0,101.864,0
			c5.604,0,10.162,4.559,10.162,10.163C112.026,15.767,107.468,20.325,101.864,20.325L101.864,20.325z M101.864,2.222
			c-4.379,0-7.939,3.563-7.939,7.941c0,4.378,3.561,7.941,7.939,7.941s7.94-3.563,7.94-7.941
			C109.805,5.785,106.243,2.222,101.864,2.222L101.864,2.222z M101.864,1.431"/>
	</g>
	<g>
		<path d="M6.094,13.036l1.072,0.271c-0.225,0.881-0.629,1.553-1.214,2.016c-0.584,0.463-1.299,0.694-2.143,0.694
			c-0.874,0-1.584-0.179-2.132-0.534c-0.547-0.355-0.964-0.871-1.25-1.546C0.143,13.264,0,12.539,0,11.765
			c0-0.844,0.161-1.58,0.483-2.209S1.265,8.449,1.86,8.123s1.251-0.489,1.966-0.489c0.811,0,1.493,0.207,2.046,0.619
			c0.553,0.413,0.938,0.994,1.156,1.742l-1.057,0.249c-0.188-0.59-0.461-1.02-0.818-1.288c-0.357-0.27-0.808-0.404-1.35-0.404
			C3.181,8.552,2.66,8.701,2.242,9C1.823,9.299,1.529,9.699,1.36,10.202c-0.17,0.504-0.255,1.022-0.255,1.557
			c0,0.689,0.101,1.292,0.302,1.806c0.2,0.515,0.513,0.898,0.937,1.153C2.769,14.972,3.228,15.1,3.721,15.1
			c0.602,0,1.11-0.174,1.526-0.521C5.664,14.233,5.946,13.719,6.094,13.036z"/>
		<path d="M8.339,15.879V7.772h0.995v8.106H8.339z"/>
		<path d="M10.882,8.917V7.772h0.995v1.145H10.882z M10.882,15.879v-5.873h0.995v5.873H10.882z"/>
		<path d="M17.225,13.727l0.979,0.128c-0.107,0.674-0.381,1.202-0.821,1.584s-0.981,0.572-1.623,0.572
			c-0.804,0-1.45-0.263-1.938-0.788s-0.732-1.278-0.732-2.259c0-0.634,0.105-1.189,0.315-1.665s0.529-0.832,0.959-1.069
			c0.43-0.238,0.896-0.357,1.402-0.357c0.638,0,1.159,0.162,1.564,0.484s0.666,0.78,0.78,1.374l-0.968,0.149
			c-0.093-0.395-0.256-0.691-0.489-0.891c-0.234-0.199-0.518-0.298-0.85-0.298c-0.501,0-0.908,0.18-1.222,0.539
			s-0.47,0.928-0.47,1.706c0,0.788,0.15,1.361,0.453,1.72c0.302,0.357,0.696,0.536,1.184,0.536c0.391,0,0.717-0.12,0.979-0.359
			C16.988,14.594,17.154,14.226,17.225,13.727z"/>
		<path d="M22.2,18.13v-8.124h0.907v0.764c0.214-0.299,0.455-0.522,0.725-0.672c0.269-0.149,0.595-0.225,0.979-0.225
			c0.502,0,0.944,0.13,1.327,0.388c0.384,0.258,0.673,0.622,0.868,1.092c0.195,0.471,0.293,0.985,0.293,1.546
			c0,0.601-0.107,1.142-0.323,1.623c-0.216,0.48-0.529,0.85-0.94,1.105c-0.411,0.257-0.843,0.385-1.296,0.385
			c-0.332,0-0.63-0.07-0.894-0.21c-0.264-0.141-0.48-0.317-0.649-0.531v2.859H22.2z M23.102,12.976c0,0.756,0.153,1.314,0.459,1.676
			c0.307,0.361,0.677,0.542,1.112,0.542c0.442,0,0.82-0.188,1.136-0.562s0.473-0.954,0.473-1.739c0-0.748-0.153-1.309-0.461-1.681
			c-0.309-0.372-0.676-0.559-1.104-0.559c-0.424,0-0.799,0.198-1.125,0.595C23.265,11.644,23.102,12.22,23.102,12.976z"/>
		<path d="M32.332,15.154c-0.369,0.313-0.724,0.535-1.064,0.664c-0.342,0.129-0.707,0.193-1.098,0.193
			c-0.646,0-1.142-0.157-1.488-0.473s-0.52-0.718-0.52-1.209c0-0.287,0.065-0.55,0.196-0.787c0.131-0.238,0.303-0.429,0.515-0.572
			c0.212-0.145,0.45-0.253,0.716-0.327c0.195-0.051,0.49-0.101,0.885-0.148c0.804-0.097,1.396-0.211,1.775-0.344
			c0.003-0.136,0.005-0.223,0.005-0.26c0-0.405-0.094-0.691-0.281-0.856c-0.255-0.226-0.633-0.338-1.134-0.338
			c-0.469,0-0.814,0.082-1.037,0.246s-0.388,0.454-0.495,0.871l-0.973-0.133c0.088-0.416,0.233-0.753,0.437-1.009
			c0.202-0.257,0.496-0.454,0.879-0.592c0.384-0.139,0.828-0.208,1.333-0.208c0.501,0,0.908,0.06,1.222,0.178
			s0.544,0.266,0.691,0.445c0.147,0.179,0.251,0.404,0.31,0.677c0.033,0.17,0.05,0.476,0.05,0.918v1.327
			c0,0.926,0.021,1.511,0.063,1.756c0.043,0.245,0.127,0.48,0.252,0.705h-1.04C32.428,15.673,32.361,15.431,32.332,15.154z
			 M32.249,12.932c-0.361,0.147-0.903,0.272-1.626,0.376c-0.409,0.059-0.699,0.125-0.868,0.199c-0.17,0.073-0.301,0.182-0.393,0.323
			c-0.093,0.142-0.139,0.3-0.139,0.473c0,0.266,0.101,0.486,0.302,0.664c0.201,0.177,0.495,0.265,0.882,0.265
			c0.384,0,0.725-0.083,1.023-0.251c0.298-0.168,0.518-0.397,0.657-0.688c0.107-0.225,0.161-0.557,0.161-0.995V12.932z"/>
		<path d="M34.787,15.879v-5.873h0.896v0.891c0.229-0.416,0.44-0.691,0.634-0.824s0.406-0.199,0.639-0.199
			c0.335,0,0.677,0.107,1.022,0.321l-0.343,0.924c-0.243-0.145-0.486-0.216-0.729-0.216c-0.218,0-0.413,0.065-0.586,0.196
			c-0.174,0.131-0.297,0.313-0.371,0.544c-0.11,0.354-0.166,0.741-0.166,1.162v3.074H34.787z"/>
		<path d="M42.402,15.154c-0.369,0.313-0.724,0.535-1.064,0.664c-0.342,0.129-0.707,0.193-1.098,0.193
			c-0.646,0-1.142-0.157-1.488-0.473s-0.52-0.718-0.52-1.209c0-0.287,0.065-0.55,0.196-0.787c0.131-0.238,0.303-0.429,0.515-0.572
			c0.212-0.145,0.45-0.253,0.716-0.327c0.195-0.051,0.49-0.101,0.885-0.148c0.804-0.097,1.396-0.211,1.775-0.344
			c0.003-0.136,0.005-0.223,0.005-0.26c0-0.405-0.094-0.691-0.281-0.856c-0.255-0.226-0.633-0.338-1.134-0.338
			c-0.469,0-0.814,0.082-1.037,0.246s-0.388,0.454-0.495,0.871l-0.973-0.133c0.088-0.416,0.233-0.753,0.437-1.009
			c0.202-0.257,0.496-0.454,0.879-0.592c0.384-0.139,0.828-0.208,1.333-0.208c0.501,0,0.908,0.06,1.222,0.178
			s0.544,0.266,0.691,0.445c0.147,0.179,0.251,0.404,0.31,0.677c0.033,0.17,0.05,0.476,0.05,0.918v1.327
			c0,0.926,0.021,1.511,0.063,1.756c0.043,0.245,0.127,0.48,0.252,0.705h-1.04C42.498,15.673,42.432,15.431,42.402,15.154z
			 M42.319,12.932c-0.361,0.147-0.903,0.272-1.626,0.376c-0.409,0.059-0.699,0.125-0.868,0.199c-0.17,0.073-0.301,0.182-0.393,0.323
			c-0.093,0.142-0.139,0.3-0.139,0.473c0,0.266,0.101,0.486,0.302,0.664c0.201,0.177,0.495,0.265,0.882,0.265
			c0.384,0,0.725-0.083,1.023-0.251c0.298-0.168,0.518-0.397,0.657-0.688c0.107-0.225,0.161-0.557,0.161-0.995V12.932z"/>
		<path d="M51.848,15.154c-0.369,0.313-0.724,0.535-1.064,0.664c-0.342,0.129-0.707,0.193-1.098,0.193
			c-0.646,0-1.142-0.157-1.488-0.473s-0.52-0.718-0.52-1.209c0-0.287,0.065-0.55,0.196-0.787c0.131-0.238,0.303-0.429,0.515-0.572
			c0.212-0.145,0.45-0.253,0.716-0.327c0.195-0.051,0.49-0.101,0.885-0.148c0.804-0.097,1.396-0.211,1.775-0.344
			c0.003-0.136,0.005-0.223,0.005-0.26c0-0.405-0.094-0.691-0.281-0.856c-0.255-0.226-0.633-0.338-1.134-0.338
			c-0.469,0-0.814,0.082-1.037,0.246s-0.388,0.454-0.495,0.871l-0.973-0.133c0.088-0.416,0.233-0.753,0.437-1.009
			c0.202-0.257,0.496-0.454,0.879-0.592c0.384-0.139,0.828-0.208,1.333-0.208c0.501,0,0.908,0.06,1.222,0.178
			s0.544,0.266,0.691,0.445c0.147,0.179,0.251,0.404,0.31,0.677c0.033,0.17,0.05,0.476,0.05,0.918v1.327
			c0,0.926,0.021,1.511,0.063,1.756c0.043,0.245,0.127,0.48,0.252,0.705h-1.04C51.943,15.673,51.877,15.431,51.848,15.154z
			 M51.765,12.932c-0.361,0.147-0.903,0.272-1.626,0.376c-0.409,0.059-0.699,0.125-0.868,0.199c-0.17,0.073-0.301,0.182-0.393,0.323
			c-0.093,0.142-0.139,0.3-0.139,0.473c0,0.266,0.101,0.486,0.302,0.664c0.201,0.177,0.495,0.265,0.882,0.265
			c0.384,0,0.725-0.083,1.023-0.251c0.298-0.168,0.518-0.397,0.657-0.688c0.107-0.225,0.161-0.557,0.161-0.995V12.932z"/>
		<path d="M54.313,15.879v-5.873h0.891v0.824c0.185-0.287,0.43-0.519,0.735-0.694c0.307-0.175,0.654-0.263,1.045-0.263
			c0.436,0,0.792,0.091,1.07,0.271s0.475,0.434,0.589,0.758c0.465-0.686,1.069-1.029,1.814-1.029c0.582,0,1.03,0.162,1.344,0.484
			c0.313,0.322,0.47,0.819,0.47,1.49v4.031h-0.99V12.18c0-0.398-0.032-0.685-0.097-0.86c-0.064-0.175-0.182-0.315-0.351-0.423
			c-0.17-0.106-0.369-0.16-0.598-0.16c-0.413,0-0.756,0.138-1.028,0.412c-0.273,0.274-0.409,0.714-0.409,1.318v3.412h-0.995v-3.815
			c0-0.442-0.082-0.774-0.244-0.995c-0.162-0.222-0.428-0.332-0.796-0.332c-0.28,0-0.539,0.073-0.777,0.221
			c-0.237,0.147-0.41,0.363-0.517,0.647c-0.107,0.284-0.16,0.693-0.16,1.228v3.047H54.313z"/>
		<path d="M63.747,18.13v-8.124h0.907v0.764c0.214-0.299,0.455-0.522,0.725-0.672c0.269-0.149,0.595-0.225,0.979-0.225
			c0.502,0,0.944,0.13,1.327,0.388c0.384,0.258,0.673,0.622,0.868,1.092c0.195,0.471,0.293,0.985,0.293,1.546
			c0,0.601-0.107,1.142-0.323,1.623c-0.216,0.48-0.529,0.85-0.94,1.105c-0.411,0.257-0.843,0.385-1.296,0.385
			c-0.332,0-0.63-0.07-0.894-0.21c-0.264-0.141-0.48-0.317-0.649-0.531v2.859H63.747z M64.648,12.976
			c0,0.756,0.153,1.314,0.459,1.676c0.307,0.361,0.677,0.542,1.112,0.542c0.442,0,0.82-0.188,1.136-0.562s0.473-0.954,0.473-1.739
			c0-0.748-0.153-1.309-0.461-1.681c-0.309-0.372-0.676-0.559-1.104-0.559c-0.424,0-0.799,0.198-1.125,0.595
			C64.812,11.644,64.648,12.22,64.648,12.976z"/>
		<path d="M70.024,15.879V7.772h0.995v8.106H70.024z"/>
		<path d="M72.567,8.917V7.772h0.995v1.145H72.567z M72.567,15.879v-5.873h0.995v5.873H72.567z"/>
		<path d="M78.91,15.154c-0.369,0.313-0.724,0.535-1.064,0.664c-0.342,0.129-0.707,0.193-1.098,0.193
			c-0.646,0-1.142-0.157-1.488-0.473s-0.52-0.718-0.52-1.209c0-0.287,0.065-0.55,0.196-0.787c0.131-0.238,0.303-0.429,0.515-0.572
			c0.212-0.145,0.45-0.253,0.716-0.327c0.195-0.051,0.49-0.101,0.885-0.148c0.804-0.097,1.396-0.211,1.775-0.344
			c0.003-0.136,0.005-0.223,0.005-0.26c0-0.405-0.094-0.691-0.281-0.856c-0.255-0.226-0.633-0.338-1.134-0.338
			c-0.469,0-0.814,0.082-1.037,0.246s-0.388,0.454-0.495,0.871l-0.973-0.133c0.088-0.416,0.233-0.753,0.437-1.009
			c0.202-0.257,0.496-0.454,0.879-0.592c0.384-0.139,0.828-0.208,1.333-0.208c0.501,0,0.908,0.06,1.222,0.178
			s0.544,0.266,0.691,0.445c0.147,0.179,0.251,0.404,0.31,0.677c0.033,0.17,0.05,0.476,0.05,0.918v1.327
			c0,0.926,0.021,1.511,0.063,1.756c0.043,0.245,0.127,0.48,0.252,0.705h-1.04C79.006,15.673,78.939,15.431,78.91,15.154z
			 M78.827,12.932c-0.361,0.147-0.903,0.272-1.626,0.376c-0.409,0.059-0.699,0.125-0.868,0.199c-0.17,0.073-0.301,0.182-0.393,0.323
			c-0.093,0.142-0.139,0.3-0.139,0.473c0,0.266,0.101,0.486,0.302,0.664c0.201,0.177,0.495,0.265,0.882,0.265
			c0.384,0,0.725-0.083,1.023-0.251c0.298-0.168,0.518-0.397,0.657-0.688c0.107-0.225,0.161-0.557,0.161-0.995V12.932z"/>
		<path d="M81.365,15.879v-5.873h0.896v0.891c0.229-0.416,0.44-0.691,0.634-0.824s0.406-0.199,0.639-0.199
			c0.335,0,0.677,0.107,1.022,0.321l-0.343,0.924c-0.243-0.145-0.486-0.216-0.729-0.216c-0.218,0-0.413,0.065-0.586,0.196
			c-0.174,0.131-0.297,0.313-0.371,0.544c-0.11,0.354-0.166,0.741-0.166,1.162v3.074H81.365z"/>
	</g>
</g>
</svg>