<?xml version="1.0" encoding="utf-8"?>
<!-- Generator: Adobe Illustrator 17.0.0, SVG Export Plug-In . SVG Version: 6.00 Build 0)  -->
<!DOCTYPE svg PUBLIC "-//W3C//DTD SVG 1.1//EN" "http://www.w3.org/Graphics/SVG/1.1/DTD/svg11.dtd" [
	<!ENTITY ns_extend "http://ns.adobe.com/Extensibility/1.0/">
	<!ENTITY ns_ai "http://ns.adobe.com/AdobeIllustrator/10.0/">
	<!ENTITY ns_graphs "http://ns.adobe.com/Graphs/1.0/">
	<!ENTITY ns_vars "http://ns.adobe.com/Variables/1.0/">
	<!ENTITY ns_imrep "http://ns.adobe.com/ImageReplacement/1.0/">
	<!ENTITY ns_sfw "http://ns.adobe.com/SaveForWeb/1.0/">
	<!ENTITY ns_custom "http://ns.adobe.com/GenericCustomNamespace/1.0/">
	<!ENTITY ns_adobe_xpath "http://ns.adobe.com/XPath/1.0/">
]>
<svg version="1.1" id="Capa_1" xmlns:x="&ns_extend;" xmlns:i="&ns_ai;" xmlns:graph="&ns_graphs;"
	 xmlns="http://www.w3.org/2000/svg" xmlns:xlink="http://www.w3.org/1999/xlink" x="0px" y="0px" width="100.275px"
	 height="32.974px" viewBox="0 0 100.275 32.974" style="enable-background:new 0 0 100.275 32.974;" xml:space="preserve">
<style type="text/css">
	.st0{fill:url(#XMLID_6_);}
	.st1{fill:#FFFFFF;stroke:#000000;stroke-width:1.7139;stroke-miterlimit:10;}
</style>
<metadata>
	<sfw  xmlns="&ns_sfw;">
		<slices></slices>
		<sliceSourceBounds  width="100.276" height="32.974" y="290.013" x="345.363" bottomLeftOrigin="true"></sliceSourceBounds>
	</sfw>
</metadata>
<g id="XMLID_1_">
	<g>
		<path d="M42.348,12.084l1,0.253c-0.21,0.821-0.587,1.448-1.132,1.88c-0.544,0.431-1.21,0.646-1.997,0.646
			c-0.814,0-1.478-0.166-1.987-0.498c-0.511-0.331-0.899-0.812-1.165-1.44c-0.267-0.629-0.4-1.304-0.4-2.026
			c0-0.787,0.15-1.473,0.451-2.059s0.729-1.032,1.284-1.336s1.166-0.456,1.833-0.456c0.756,0,1.392,0.192,1.907,0.577
			c0.516,0.385,0.875,0.926,1.077,1.624L42.235,9.48c-0.176-0.549-0.43-0.949-0.763-1.201c-0.334-0.25-0.753-0.376-1.259-0.376
			c-0.58,0-1.065,0.14-1.456,0.418c-0.39,0.278-0.664,0.651-0.822,1.121s-0.237,0.953-0.237,1.451c0,0.643,0.094,1.204,0.281,1.683
			c0.188,0.48,0.479,0.838,0.874,1.076c0.395,0.236,0.823,0.355,1.283,0.355c0.561,0,1.035-0.162,1.423-0.484
			C41.948,13.199,42.21,12.721,42.348,12.084z"/>
		<path d="M44.442,14.734V7.177h0.928v7.558h-0.928V14.734z"/>
		<path d="M46.813,8.244V7.177h0.928v1.067H46.813z M46.813,14.734V9.26h0.928v5.475h-0.928V14.734z"/>
		<path d="M52.726,12.729l0.913,0.119c-0.101,0.629-0.355,1.121-0.766,1.477c-0.411,0.355-0.915,0.533-1.514,0.533
			c-0.749,0-1.352-0.244-1.807-0.734c-0.456-0.489-0.684-1.191-0.684-2.105c0-0.592,0.099-1.108,0.294-1.552
			c0.196-0.443,0.494-0.776,0.895-0.997c0.4-0.223,0.836-0.333,1.307-0.333c0.595,0,1.081,0.15,1.459,0.451
			c0.379,0.301,0.621,0.728,0.728,1.28l-0.902,0.14c-0.086-0.368-0.238-0.644-0.456-0.829C51.974,9.992,51.711,9.9,51.401,9.9
			c-0.467,0-0.847,0.168-1.139,0.503s-0.438,0.865-0.438,1.591c0,0.734,0.141,1.27,0.423,1.604c0.281,0.332,0.649,0.5,1.104,0.5
			c0.364,0,0.668-0.112,0.912-0.336C52.506,13.537,52.661,13.193,52.726,12.729z"/>
		<path d="M57.367,16.832V9.26h0.845v0.711c0.2-0.278,0.425-0.487,0.676-0.627c0.251-0.139,0.555-0.208,0.912-0.208
			c0.468,0,0.88,0.12,1.237,0.36c0.357,0.241,0.628,0.58,0.81,1.019c0.183,0.438,0.273,0.919,0.273,1.44
			c0,0.561-0.101,1.064-0.302,1.514s-0.493,0.792-0.876,1.031c-0.384,0.238-0.786,0.357-1.209,0.357
			c-0.31,0-0.587-0.064-0.833-0.195c-0.245-0.131-0.447-0.295-0.605-0.494v2.664H57.367z M58.206,12.027
			c0,0.705,0.143,1.226,0.428,1.563s0.631,0.506,1.036,0.506c0.413,0,0.766-0.175,1.06-0.523c0.294-0.35,0.441-0.89,0.441-1.621
			c0-0.698-0.144-1.221-0.431-1.568s-0.63-0.521-1.028-0.521c-0.396,0-0.745,0.185-1.05,0.554
			C58.359,10.786,58.206,11.323,58.206,12.027z"/>
		<path d="M66.811,14.059c-0.344,0.293-0.675,0.499-0.992,0.619c-0.318,0.12-0.659,0.18-1.023,0.18
			c-0.602,0-1.063-0.146-1.387-0.439c-0.323-0.295-0.484-0.67-0.484-1.127c0-0.268,0.061-0.514,0.183-0.734
			c0.122-0.223,0.282-0.4,0.479-0.534s0.42-0.235,0.668-0.304c0.182-0.049,0.457-0.095,0.824-0.14
			c0.75-0.089,1.301-0.196,1.655-0.319c0.003-0.127,0.005-0.208,0.005-0.242c0-0.379-0.088-0.645-0.263-0.799
			c-0.237-0.21-0.59-0.314-1.057-0.314c-0.437,0-0.759,0.076-0.967,0.229s-0.362,0.424-0.462,0.813l-0.907-0.124
			c0.083-0.388,0.219-0.702,0.407-0.94c0.189-0.239,0.463-0.423,0.82-0.552s0.771-0.193,1.242-0.193c0.468,0,0.848,0.055,1.14,0.165
			c0.292,0.109,0.507,0.248,0.645,0.415c0.137,0.167,0.233,0.377,0.288,0.632c0.031,0.158,0.047,0.443,0.047,0.855v1.237
			c0,0.862,0.02,1.408,0.059,1.637c0.04,0.229,0.118,0.448,0.235,0.657h-0.97C66.901,14.542,66.838,14.316,66.811,14.059z
			 M66.734,11.986c-0.337,0.138-0.842,0.254-1.516,0.351c-0.382,0.056-0.651,0.117-0.81,0.187c-0.158,0.068-0.28,0.168-0.366,0.301
			s-0.129,0.279-0.129,0.441c0,0.247,0.094,0.453,0.281,0.618s0.461,0.247,0.822,0.247c0.357,0,0.676-0.078,0.954-0.234
			s0.482-0.37,0.613-0.642c0.1-0.21,0.149-0.519,0.149-0.929v-0.34H66.734z"/>
		<path d="M69.1,14.734V9.26h0.835v0.83c0.214-0.389,0.41-0.645,0.591-0.769s0.379-0.186,0.596-0.186c0.313,0,0.63,0.1,0.953,0.299
			l-0.319,0.86c-0.227-0.133-0.454-0.2-0.681-0.2c-0.203,0-0.385,0.062-0.547,0.183c-0.161,0.122-0.276,0.291-0.345,0.508
			c-0.104,0.33-0.155,0.691-0.155,1.083v2.866H69.1z"/>
		<path d="M76.199,14.059c-0.344,0.293-0.675,0.499-0.992,0.619c-0.318,0.12-0.659,0.18-1.023,0.18
			c-0.602,0-1.063-0.146-1.387-0.439c-0.323-0.295-0.484-0.67-0.484-1.127c0-0.268,0.061-0.514,0.183-0.734
			c0.122-0.223,0.282-0.4,0.479-0.534s0.42-0.235,0.668-0.304c0.182-0.049,0.457-0.095,0.824-0.14
			c0.75-0.089,1.301-0.196,1.655-0.319c0.003-0.127,0.005-0.208,0.005-0.242c0-0.379-0.088-0.645-0.263-0.799
			c-0.237-0.21-0.59-0.314-1.057-0.314c-0.437,0-0.759,0.076-0.967,0.229s-0.362,0.424-0.462,0.813l-0.907-0.124
			c0.083-0.388,0.219-0.702,0.407-0.94c0.189-0.239,0.463-0.423,0.82-0.552s0.771-0.193,1.242-0.193c0.468,0,0.848,0.055,1.14,0.165
			c0.292,0.109,0.507,0.248,0.645,0.415c0.137,0.167,0.233,0.377,0.288,0.632c0.031,0.158,0.047,0.443,0.047,0.855v1.237
			c0,0.862,0.02,1.408,0.059,1.637c0.04,0.229,0.118,0.448,0.235,0.657h-0.97C76.289,14.542,76.226,14.316,76.199,14.059z
			 M76.122,11.986c-0.337,0.138-0.842,0.254-1.516,0.351c-0.382,0.056-0.651,0.117-0.81,0.187c-0.158,0.068-0.28,0.168-0.366,0.301
			s-0.129,0.279-0.129,0.441c0,0.247,0.094,0.453,0.281,0.618s0.461,0.247,0.822,0.247c0.357,0,0.676-0.078,0.954-0.234
			s0.482-0.37,0.613-0.642c0.1-0.21,0.149-0.519,0.149-0.929v-0.34H76.122z"/>
		<path d="M81.432,14.734V9.26h0.83v0.768c0.172-0.268,0.4-0.483,0.686-0.646c0.285-0.164,0.609-0.245,0.974-0.245
			c0.406,0,0.738,0.084,0.998,0.253c0.26,0.168,0.442,0.403,0.549,0.706c0.434-0.64,0.997-0.959,1.691-0.959
			c0.543,0,0.96,0.15,1.253,0.451c0.292,0.301,0.438,0.764,0.438,1.39v3.758h-0.923v-3.449c0-0.371-0.029-0.639-0.09-0.801
			c-0.061-0.164-0.169-0.295-0.327-0.395s-0.344-0.15-0.557-0.15c-0.386,0-0.705,0.129-0.959,0.385
			c-0.255,0.256-0.382,0.666-0.382,1.229v3.181h-0.928v-3.557c0-0.413-0.076-0.723-0.227-0.929s-0.399-0.31-0.743-0.31
			c-0.261,0-0.502,0.069-0.724,0.207c-0.222,0.137-0.383,0.338-0.482,0.604c-0.1,0.264-0.149,0.646-0.149,1.144v2.841h-0.928V14.734
			z"/>
		<path d="M93.799,14.059c-0.344,0.293-0.675,0.499-0.992,0.619c-0.318,0.12-0.659,0.18-1.023,0.18
			c-0.602,0-1.063-0.146-1.387-0.439c-0.323-0.295-0.484-0.67-0.484-1.127c0-0.268,0.061-0.514,0.183-0.734
			c0.122-0.223,0.282-0.4,0.479-0.534s0.42-0.235,0.668-0.304c0.182-0.049,0.457-0.095,0.824-0.14
			c0.75-0.089,1.301-0.196,1.655-0.319c0.003-0.127,0.005-0.208,0.005-0.242c0-0.379-0.088-0.645-0.263-0.799
			c-0.237-0.21-0.59-0.314-1.057-0.314c-0.437,0-0.759,0.076-0.967,0.229s-0.362,0.424-0.462,0.813l-0.907-0.124
			c0.083-0.388,0.219-0.702,0.407-0.94c0.189-0.239,0.463-0.423,0.82-0.552s0.771-0.193,1.242-0.193c0.468,0,0.848,0.055,1.14,0.165
			c0.292,0.109,0.507,0.248,0.645,0.415c0.137,0.167,0.233,0.377,0.288,0.632c0.031,0.158,0.047,0.443,0.047,0.855v1.237
			c0,0.862,0.02,1.408,0.059,1.637c0.04,0.229,0.118,0.448,0.235,0.657h-0.97C93.889,14.542,93.827,14.316,93.799,14.059z
			 M93.722,11.986c-0.337,0.138-0.842,0.254-1.516,0.351c-0.382,0.056-0.651,0.117-0.81,0.187c-0.158,0.068-0.28,0.168-0.366,0.301
			s-0.129,0.279-0.129,0.441c0,0.247,0.094,0.453,0.281,0.618s0.461,0.247,0.822,0.247c0.357,0,0.676-0.078,0.954-0.234
			s0.482-0.37,0.613-0.642c0.1-0.21,0.149-0.519,0.149-0.929v-0.34H93.722z M91.917,8.578l0.686-1.443h1.217l-1.134,1.443H91.917z"
			/>
		<path d="M95.728,13.1l0.917-0.145c0.052,0.369,0.195,0.65,0.431,0.846c0.235,0.196,0.564,0.295,0.987,0.295
			c0.426,0,0.742-0.088,0.948-0.261c0.207-0.174,0.31-0.378,0.31-0.611c0-0.21-0.091-0.374-0.273-0.495
			c-0.127-0.082-0.443-0.188-0.948-0.314c-0.681-0.172-1.152-0.32-1.415-0.445s-0.463-0.299-0.599-0.521
			c-0.136-0.221-0.203-0.466-0.203-0.734c0-0.244,0.056-0.47,0.168-0.678c0.111-0.208,0.264-0.381,0.456-0.518
			c0.145-0.107,0.341-0.197,0.59-0.271c0.249-0.073,0.517-0.11,0.802-0.11c0.43,0,0.807,0.062,1.132,0.186
			c0.324,0.124,0.564,0.291,0.719,0.503c0.155,0.211,0.262,0.494,0.32,0.848l-0.908,0.124c-0.041-0.282-0.16-0.502-0.357-0.66
			c-0.198-0.158-0.478-0.237-0.838-0.237c-0.427,0-0.73,0.07-0.913,0.211c-0.182,0.142-0.272,0.307-0.272,0.496
			c0,0.119,0.037,0.229,0.113,0.324c0.075,0.1,0.193,0.182,0.355,0.248c0.093,0.033,0.366,0.113,0.819,0.236
			c0.656,0.176,1.114,0.318,1.374,0.431s0.463,0.274,0.611,0.487c0.147,0.213,0.222,0.478,0.222,0.794
			c0,0.31-0.091,0.601-0.271,0.874c-0.181,0.273-0.441,0.484-0.781,0.634c-0.341,0.149-0.726,0.224-1.155,0.224
			c-0.711,0-1.253-0.146-1.626-0.443C96.069,14.119,95.831,13.682,95.728,13.1z"/>
		<path d="M41.826,19.613v-1.066h0.928v1.066H41.826z M41.826,26.104v-5.476h0.928v5.476H41.826z"/>
		<path d="M44.166,26.104v-5.476h0.835v0.779c0.402-0.602,0.982-0.902,1.742-0.902c0.33,0,0.634,0.059,0.91,0.178
			s0.483,0.273,0.621,0.467c0.138,0.192,0.233,0.421,0.289,0.686c0.034,0.172,0.052,0.473,0.052,0.902v3.366h-0.929v-3.331
			c0-0.377-0.036-0.66-0.108-0.848c-0.071-0.188-0.2-0.336-0.384-0.448s-0.399-0.167-0.646-0.167c-0.396,0-0.736,0.125-1.023,0.376
			s-0.431,0.727-0.431,1.428v2.99C45.094,26.104,44.166,26.104,44.166,26.104z"/>
		<path d="M50.26,26.104v-4.753h-0.82v-0.723h0.82v-0.582c0-0.367,0.032-0.641,0.098-0.82c0.089-0.24,0.246-0.436,0.472-0.584
			c0.225-0.15,0.54-0.225,0.946-0.225c0.261,0,0.55,0.031,0.866,0.093l-0.14,0.81c-0.192-0.035-0.375-0.052-0.546-0.052
			c-0.282,0-0.481,0.06-0.599,0.181c-0.117,0.12-0.175,0.346-0.175,0.675v0.505h1.066v0.723h-1.066v4.753L50.26,26.104L50.26,26.104
			z"/>
		<path d="M52.626,23.367c0-1.014,0.282-1.766,0.846-2.253c0.471-0.405,1.045-0.608,1.722-0.608c0.753,0,1.368,0.246,1.846,0.74
			c0.478,0.492,0.717,1.174,0.717,2.043c0,0.705-0.106,1.26-0.317,1.663s-0.519,0.718-0.923,0.94
			c-0.404,0.225-0.845,0.336-1.322,0.336c-0.767,0-1.386-0.246-1.858-0.737S52.626,24.291,52.626,23.367z M53.581,23.367
			c0,0.701,0.152,1.227,0.458,1.574c0.307,0.35,0.691,0.523,1.155,0.523c0.461,0,0.844-0.175,1.149-0.525s0.459-0.885,0.459-1.604
			c0-0.677-0.153-1.189-0.461-1.539c-0.308-0.349-0.69-0.523-1.147-0.523c-0.464,0-0.849,0.174-1.155,0.521
			C53.733,22.142,53.581,22.666,53.581,23.367z"/>
		<path d="M58.833,26.104v-5.476h0.835v0.83c0.214-0.388,0.41-0.645,0.591-0.768c0.181-0.124,0.379-0.186,0.596-0.186
			c0.313,0,0.63,0.1,0.953,0.299l-0.319,0.861c-0.227-0.135-0.454-0.201-0.681-0.201c-0.203,0-0.385,0.061-0.547,0.183
			c-0.161,0.122-0.276,0.292-0.345,0.508c-0.104,0.33-0.155,0.69-0.155,1.083v2.866h-0.928V26.104z"/>
		<path d="M62.36,26.104v-5.476h0.83v0.769c0.172-0.269,0.4-0.483,0.686-0.647c0.285-0.162,0.609-0.244,0.974-0.244
			c0.406,0,0.738,0.084,0.998,0.252c0.26,0.169,0.442,0.404,0.549,0.707c0.434-0.64,0.997-0.959,1.691-0.959
			c0.543,0,0.96,0.15,1.253,0.451c0.292,0.301,0.438,0.764,0.438,1.389v3.759h-0.923v-3.448c0-0.372-0.029-0.639-0.09-0.803
			c-0.061-0.162-0.169-0.295-0.327-0.395s-0.344-0.148-0.557-0.148c-0.386,0-0.705,0.127-0.959,0.383
			c-0.255,0.257-0.382,0.666-0.382,1.23v3.181h-0.928v-3.558c0-0.412-0.076-0.721-0.227-0.928c-0.151-0.206-0.399-0.309-0.743-0.309
			c-0.261,0-0.502,0.068-0.724,0.205c-0.222,0.139-0.383,0.34-0.482,0.604c-0.1,0.266-0.149,0.646-0.149,1.145v2.841H62.36V26.104z"
			/>
		<path d="M74.727,25.43c-0.344,0.291-0.675,0.498-0.992,0.618c-0.318,0.12-0.659,0.181-1.023,0.181
			c-0.602,0-1.063-0.147-1.387-0.441c-0.323-0.293-0.484-0.669-0.484-1.126c0-0.269,0.061-0.513,0.183-0.735
			c0.122-0.221,0.282-0.398,0.479-0.533c0.197-0.134,0.42-0.235,0.668-0.305c0.182-0.047,0.457-0.094,0.824-0.139
			c0.75-0.09,1.301-0.195,1.655-0.319c0.003-0.128,0.005-0.208,0.005-0.242c0-0.378-0.088-0.645-0.263-0.8
			c-0.237-0.209-0.59-0.314-1.057-0.314c-0.437,0-0.759,0.077-0.967,0.23c-0.208,0.152-0.362,0.423-0.462,0.812l-0.907-0.124
			c0.083-0.389,0.219-0.701,0.407-0.941c0.189-0.238,0.463-0.422,0.82-0.551s0.771-0.193,1.242-0.193
			c0.468,0,0.848,0.055,1.14,0.165s0.507,0.248,0.645,0.415c0.137,0.166,0.233,0.377,0.288,0.631
			c0.031,0.158,0.047,0.443,0.047,0.856v1.237c0,0.862,0.02,1.408,0.059,1.637c0.04,0.229,0.118,0.447,0.235,0.657h-0.97
			C74.817,25.912,74.754,25.687,74.727,25.43z M74.65,23.356c-0.337,0.138-0.842,0.255-1.516,0.351
			c-0.382,0.055-0.651,0.117-0.81,0.186s-0.28,0.17-0.366,0.302s-0.129,0.279-0.129,0.44c0,0.248,0.094,0.454,0.281,0.619
			s0.461,0.248,0.822,0.248c0.357,0,0.676-0.078,0.954-0.235c0.278-0.156,0.482-0.37,0.613-0.642c0.1-0.209,0.149-0.52,0.149-0.928
			v-0.341H74.65z"/>
		<path d="M80.599,24.1l0.913,0.118c-0.101,0.629-0.355,1.121-0.766,1.478c-0.411,0.355-0.915,0.533-1.514,0.533
			c-0.749,0-1.352-0.245-1.807-0.734c-0.456-0.49-0.684-1.192-0.684-2.106c0-0.591,0.099-1.108,0.294-1.552
			c0.196-0.443,0.494-0.775,0.895-0.998c0.4-0.221,0.836-0.332,1.307-0.332c0.595,0,1.081,0.15,1.459,0.451
			c0.379,0.301,0.621,0.728,0.728,1.281l-0.902,0.139c-0.086-0.367-0.238-0.645-0.456-0.83c-0.219-0.186-0.482-0.278-0.792-0.278
			c-0.467,0-0.847,0.168-1.139,0.503s-0.438,0.865-0.438,1.59c0,0.736,0.141,1.271,0.423,1.604c0.281,0.334,0.649,0.5,1.104,0.5
			c0.364,0,0.668-0.111,0.912-0.335S80.534,24.562,80.599,24.1z"/>
		<path d="M82.311,19.613v-1.066h0.928v1.066H82.311z M82.311,26.104v-5.476h0.928v5.476H82.311z"/>
		<path d="M84.306,23.367c0-1.014,0.282-1.766,0.846-2.253c0.471-0.405,1.045-0.608,1.722-0.608c0.753,0,1.368,0.246,1.846,0.74
			c0.478,0.492,0.717,1.174,0.717,2.043c0,0.705-0.106,1.26-0.317,1.663s-0.519,0.718-0.923,0.94
			c-0.404,0.225-0.845,0.336-1.322,0.336c-0.767,0-1.386-0.246-1.858-0.737S84.306,24.291,84.306,23.367z M85.26,23.367
			c0,0.701,0.152,1.227,0.458,1.574c0.307,0.35,0.691,0.523,1.155,0.523c0.461,0,0.844-0.175,1.149-0.525s0.459-0.885,0.459-1.604
			c0-0.677-0.153-1.189-0.461-1.539c-0.308-0.349-0.69-0.523-1.147-0.523c-0.464,0-0.849,0.174-1.155,0.521
			C85.413,22.142,85.26,22.666,85.26,23.367z M86.358,19.949l0.686-1.443h1.217l-1.134,1.443H86.358z"/>
		<path d="M90.524,26.104v-5.476h0.835v0.779c0.402-0.602,0.982-0.902,1.742-0.902c0.33,0,0.634,0.059,0.91,0.178
			s0.483,0.273,0.621,0.467c0.138,0.192,0.233,0.421,0.289,0.686c0.034,0.172,0.052,0.473,0.052,0.902v3.366h-0.929v-3.331
			c0-0.377-0.036-0.66-0.108-0.848c-0.071-0.188-0.2-0.336-0.384-0.448s-0.399-0.167-0.646-0.167c-0.396,0-0.736,0.125-1.023,0.376
			s-0.431,0.727-0.431,1.428v2.99C91.452,26.104,90.524,26.104,90.524,26.104z"/>
	</g>
	<g id="XMLID_2_">
		<path id="XMLID_9_" d="M14.612,29.243c-3.287,0-6.518-1.128-9.093-3.174c-6.311-5.015-7.366-14.23-2.352-20.543
			C5.957,2.015,10.131,0,14.62,0c3.285,0,6.515,1.128,9.09,3.175c3.059,2.428,4.988,5.903,5.432,9.781
			c0.211,1.849,0.078,3.684-0.396,5.457c-0.296,1.105-0.727,2.178-1.276,3.186c-0.255,0.467-0.838,0.638-1.303,0.384
			c-0.464-0.254-0.636-0.837-0.382-1.302c0.477-0.876,0.85-1.806,1.107-2.766c0.412-1.537,0.527-3.133,0.344-4.739
			c-0.385-3.37-2.061-6.388-4.718-8.499c-2.237-1.779-5.042-2.758-7.898-2.758c-3.897,0-7.523,1.75-9.947,4.801
			c-4.357,5.484-3.441,13.489,2.043,17.847c2.238,1.778,5.043,2.757,7.898,2.757c0.53,0,0.96,0.43,0.96,0.96
			C15.571,28.812,15.141,29.243,14.612,29.243L14.612,29.243z"/>
		<path id="XMLID_8_" d="M14.612,24.923c-2.316,0-4.591-0.793-6.406-2.236C3.758,19.154,3.014,12.66,6.548,8.212
			c1.967-2.475,4.908-3.894,8.071-3.894c2.316,0,4.59,0.795,6.404,2.237c2.155,1.712,3.515,4.161,3.827,6.894
			c0.155,1.367,0.044,2.724-0.332,4.031c-0.147,0.509-0.681,0.803-1.188,0.654c-0.509-0.146-0.802-0.679-0.656-1.188
			c0.307-1.062,0.396-2.166,0.269-3.279c-0.254-2.224-1.36-4.216-3.114-5.61c-1.477-1.173-3.328-1.819-5.211-1.819
			c-2.574,0-4.968,1.156-6.568,3.17c-2.875,3.619-2.271,8.903,1.35,11.779c1.477,1.172,3.328,1.819,5.213,1.819
			c0.529,0,0.959,0.43,0.959,0.96C15.571,24.493,15.141,24.923,14.612,24.923L14.612,24.923z"/>
		
			<linearGradient id="XMLID_6_" gradientUnits="userSpaceOnUse" x1="9.59" y1="19.353" x2="19.639" y2="19.353" gradientTransform="matrix(1 0 0 -1 0 33.974)">
			<stop  offset="0" style="stop-color:#783214"/>
			<stop  offset="0.5" style="stop-color:#F16529"/>
			<stop  offset="1" style="stop-color:#783214"/>
		</linearGradient>
		<path id="XMLID_7_" class="st0" d="M19.639,14.62c0,2.776-2.248,5.025-5.024,5.025S9.59,17.395,9.59,14.62
			c0-2.773,2.251-5.023,5.025-5.023C17.391,9.597,19.639,11.847,19.639,14.62L19.639,14.62z"/>
		<path id="XMLID_4_" d="M14.612,20.605c-1.344,0-2.665-0.46-3.721-1.299c-2.584-2.053-3.015-5.825-0.963-8.409
			c1.143-1.438,2.853-2.262,4.689-2.262c1.346,0,2.665,0.461,3.72,1.301c2.584,2.053,3.016,5.824,0.963,8.407
			C18.159,19.78,16.45,20.605,14.612,20.605L14.612,20.605z M14.62,10.556c-1.25,0-2.411,0.559-3.188,1.537
			c-1.393,1.754-1.101,4.317,0.655,5.711c0.728,0.578,1.601,0.883,2.526,0.883c1.249,0,2.409-0.561,3.185-1.537
			c1.396-1.755,1.103-4.318-0.653-5.713C16.418,10.861,15.543,10.556,14.62,10.556L14.62,10.556z"/>
		<path id="XMLID_3_" class="st1" d="M20.891,32.117c1.361,0,2.465-1.104,2.465-2.465v-6.306c0-1.838-1.489-3.328-3.327-3.328
			l-3.371-0.006v-4.931c0-1.04-0.808-1.925-1.848-1.964c-1.092-0.037-1.989,0.834-1.989,1.918v8.613l-0.505-1.05
			c-0.274-0.573-0.792-0.896-1.326-0.896c-0.245,0-0.495,0.069-0.725,0.213c-0.731,0.458-1.001,1.507-0.599,2.343
			c0,0,1.66,3.889,2.847,6.434c0.404,0.87,1.274,1.425,2.233,1.425L20.891,32.117L20.891,32.117z"/>
	</g>
</g>
</svg>
