<!-- Generator: Adobe Illustrator 17.0.0, SVG Export Plug-In  -->
<svg version="1.1"
	 xmlns="http://www.w3.org/2000/svg" xmlns:xlink="http://www.w3.org/1999/xlink" xmlns:a="http://ns.adobe.com/AdobeSVGViewerExtensions/3.0/"
	 x="0px" y="0px" width="200.489px" height="59.665px" viewBox="0 0 200.489 59.665"
	 style="enable-background:new 0 0 200.489 59.665;" xml:space="preserve">
<style type="text/css">
	.st0{fill:#E54F26;}
	.st1{fill:url(#SVGID_1_);}
	.st2{fill:#F5F5F5;}
	.st3{fill:#FFFFFF;}
	.st4{fill:url(#XMLID_17_);}
	.st5{fill:url(#XMLID_18_);}
	.st6{fill:url(#XMLID_19_);}
	.st7{fill:url(#XMLID_20_);}
	.st8{fill:url(#SVGID_2_);}
	.st9{fill:url(#XMLID_21_);}
	.st10{fill:url(#XMLID_22_);}
	.st11{fill:url(#XMLID_23_);}
	.st12{fill:url(#XMLID_24_);}
</style>
<defs>
</defs>
<g>
	<polygon id="XMLID_16_" points="139.367,4.737 145.014,0 145.014,4.737 	"/>
	<rect x="0" y="7.105" class="st0" width="200.489" height="50.192"/>
	<linearGradient id="SVGID_1_" gradientUnits="userSpaceOnUse" x1="0" y1="29.8325" x2="200.4892" y2="29.8325">
		<stop  offset="0" style="stop-color:#F5F5F5"/>
		<stop  offset="1" style="stop-color:#E8E8E8"/>
	</linearGradient>
	<rect x="0" y="4.737" class="st1" width="200.489" height="50.19"/>
	<rect id="XMLID_15_" x="145.014" y="0" class="st0" width="36.802" height="59.665"/>
	<polygon id="XMLID_14_" points="139.367,57.206 145.014,59.665 145.014,57.206 	"/>
	<rect id="XMLID_13_" x="143.192" y="4.829" class="st2" width="1.732" height="52.377"/>
	<g id="XMLID_10_">
		<path id="XMLID_12_" class="st3" d="M178.174,41.537l-5.832-5.828c-0.363-0.365-0.912-0.548-1.456-0.548l-1.912-1.912
			c3.277-4.373,3.005-10.566-1.004-14.574c-4.372-4.373-11.387-4.373-15.76,0c-4.372,4.371-4.372,11.386,0,15.759
			c4.01,4.009,10.203,4.279,14.575,1.001l1.913,1.913c0,0.547,0.184,1.003,0.547,1.457l5.828,5.831c0.732,0.728,1.916,0.728,2.644,0
			l0.457-0.455C178.899,43.359,178.899,42.268,178.174,41.537L178.174,41.537z M165.51,31.974c-3.006,3.007-7.923,3.007-10.929,0
			c-3.008-3.006-3.008-7.926,0-10.931c3.006-3.006,7.923-3.006,10.929,0C168.608,24.048,168.517,28.968,165.51,31.974L165.51,31.974
			z"/>
		<path id="XMLID_11_" class="st3" d="M163.143,25.323h-1.822v-1.821c0-0.638-0.548-1.184-1.185-1.184l0,0
			c-0.639,0-1.184,0.547-1.184,1.184v1.821h-1.823c-0.637,0-1.185,0.547-1.185,1.184l0,0c0,0.64,0.548,1.185,1.185,1.185h1.823
			v1.823c0,0.636,0.545,1.185,1.184,1.185l0,0c0.637,0,1.185-0.549,1.185-1.185v-1.823h1.822c0.637,0,1.185-0.545,1.185-1.185l0,0
			C164.327,25.87,163.779,25.323,163.143,25.323L163.143,25.323z"/>
	</g>
	<g>
		<path d="M59.226,28.858V21.87h5.182v1.183h-3.771v1.549h3.509v1.178h-3.509v1.901h3.904v1.178H59.226z"/>
		<path d="M68.26,21.87h1.405v4.424c0,0.578-0.051,1.023-0.152,1.335c-0.137,0.406-0.384,0.733-0.743,0.979
			s-0.833,0.369-1.421,0.369c-0.689,0-1.22-0.193-1.592-0.579s-0.56-0.952-0.563-1.699l1.33-0.152
			c0.016,0.4,0.074,0.683,0.176,0.848c0.153,0.252,0.385,0.377,0.696,0.377c0.314,0,0.537-0.09,0.667-0.27
			c0.131-0.18,0.196-0.552,0.196-1.117V21.87z"/>
		<path d="M71.167,28.858V21.87h5.182v1.183h-3.771v1.549h3.509v1.178h-3.509v1.901h3.904v1.178H71.167z"/>
		<path d="M77.66,28.858V21.87h2.111l1.269,4.767l1.253-4.767h2.117v6.988h-1.312v-5.501l-1.387,5.501h-1.358l-1.383-5.501v5.501
			H77.66z"/>
		<path d="M85.811,28.858V21.87h2.265c0.858,0,1.417,0.035,1.678,0.104c0.4,0.105,0.735,0.333,1.006,0.685s0.405,0.805,0.405,1.36
			c0,0.43-0.078,0.79-0.233,1.083c-0.156,0.292-0.354,0.521-0.594,0.688s-0.483,0.277-0.731,0.331
			c-0.337,0.066-0.825,0.101-1.464,0.101h-0.92v2.636H85.811z M87.222,23.053v1.982h0.772c0.556,0,0.928-0.036,1.115-0.109
			s0.335-0.188,0.441-0.344c0.106-0.155,0.159-0.336,0.159-0.543c0-0.254-0.074-0.464-0.224-0.629s-0.339-0.269-0.567-0.311
			c-0.169-0.031-0.507-0.047-1.016-0.047H87.222z"/>
		<path d="M92.36,28.858v-6.931h1.411v5.753h3.509v1.178H92.36z"/>
		<path d="M97.999,25.407c0-0.712,0.106-1.31,0.319-1.792c0.159-0.356,0.376-0.676,0.651-0.959c0.274-0.282,0.576-0.492,0.903-0.629
			c0.436-0.185,0.938-0.276,1.506-0.276c1.03,0,1.854,0.319,2.472,0.958s0.928,1.527,0.928,2.665c0,1.128-0.307,2.011-0.92,2.647
			c-0.614,0.638-1.434,0.956-2.46,0.956c-1.039,0-1.865-0.317-2.479-0.951C98.306,27.393,97.999,26.52,97.999,25.407z
			 M99.453,25.359c0,0.791,0.183,1.392,0.549,1.8c0.365,0.408,0.829,0.612,1.392,0.612s1.024-0.202,1.385-0.607
			s0.541-1.014,0.541-1.823c0-0.801-0.176-1.398-0.526-1.793c-0.352-0.394-0.818-0.591-1.399-0.591
			c-0.582,0-1.051,0.199-1.406,0.599C99.631,23.954,99.453,24.556,99.453,25.359z"/>
		<path d="M108.586,21.87h2.579c0.582,0,1.025,0.045,1.33,0.134c0.41,0.12,0.761,0.335,1.054,0.644
			c0.292,0.308,0.515,0.686,0.667,1.132s0.229,0.997,0.229,1.651c0,0.575-0.072,1.071-0.215,1.487
			c-0.175,0.509-0.425,0.92-0.748,1.235c-0.245,0.238-0.576,0.424-0.992,0.558c-0.312,0.099-0.728,0.147-1.249,0.147h-2.655V21.87z
			 M109.997,23.053v4.628h1.054c0.395,0,0.679-0.021,0.854-0.066c0.229-0.058,0.419-0.154,0.569-0.291
			c0.151-0.137,0.274-0.361,0.369-0.674c0.096-0.313,0.144-0.74,0.144-1.28s-0.048-0.955-0.144-1.244
			c-0.095-0.289-0.229-0.515-0.4-0.677c-0.171-0.162-0.389-0.271-0.652-0.329c-0.197-0.045-0.584-0.066-1.158-0.066H109.997z"/>
		<path d="M115.641,28.858V21.87h5.182v1.183h-3.771v1.549h3.509v1.178h-3.509v1.901h3.904v1.178H115.641z"/>
		<path d="M53.792,40.573v-6.988h2.111l1.269,4.767l1.253-4.767h2.117v6.988H59.23v-5.501l-1.387,5.501h-1.358l-1.383-5.501v5.501
			H53.792z"/>
		<path d="M68.244,40.573H66.71l-0.61-1.587h-2.794l-0.576,1.587h-1.497l2.722-6.988h1.492L68.244,40.573z M65.646,37.809
			l-0.963-2.594l-0.943,2.594H65.646z"/>
		<path d="M74.617,39.687c0.347,0.248,0.724,0.445,1.13,0.591l-0.52,0.997c-0.213-0.064-0.421-0.151-0.624-0.263
			c-0.045-0.022-0.358-0.229-0.939-0.619c-0.458,0.2-0.965,0.3-1.521,0.3c-1.074,0-1.916-0.316-2.524-0.948
			c-0.608-0.633-0.913-1.521-0.913-2.665c0-1.141,0.306-2.028,0.916-2.662c0.609-0.634,1.438-0.951,2.483-0.951
			c1.036,0,1.857,0.317,2.464,0.951c0.607,0.634,0.911,1.521,0.911,2.662c0,0.604-0.085,1.135-0.253,1.592
			C75.101,39.02,74.897,39.359,74.617,39.687z M73.482,38.891c0.182-0.213,0.317-0.471,0.408-0.772s0.136-0.648,0.136-1.039
			c0-0.808-0.178-1.41-0.534-1.809c-0.355-0.399-0.821-0.599-1.396-0.599s-1.042,0.2-1.399,0.601s-0.536,1.003-0.536,1.807
			c0,0.816,0.179,1.428,0.536,1.833s0.81,0.607,1.356,0.607c0.203,0,0.396-0.033,0.577-0.1c-0.286-0.188-0.577-0.334-0.873-0.438
			l0.396-0.806C72.617,38.334,73.061,38.573,73.482,38.891z"/>
		<path d="M76.577,33.585h1.41v3.785c0,0.601,0.018,0.989,0.053,1.168c0.061,0.286,0.204,0.516,0.432,0.688
			c0.227,0.173,0.538,0.26,0.932,0.26c0.4,0,0.702-0.082,0.906-0.245c0.203-0.164,0.325-0.365,0.366-0.604
			c0.042-0.238,0.063-0.634,0.063-1.187v-3.866h1.411v3.671c0,0.839-0.038,1.432-0.114,1.777c-0.076,0.347-0.217,0.639-0.422,0.878
			c-0.205,0.238-0.479,0.428-0.822,0.569c-0.344,0.142-0.792,0.212-1.345,0.212c-0.667,0-1.174-0.077-1.519-0.231
			s-0.617-0.354-0.817-0.601s-0.332-0.504-0.396-0.774c-0.092-0.4-0.138-0.991-0.138-1.773V33.585z"/>
		<path d="M83.636,40.573v-6.988h5.182v1.183h-3.771v1.549h3.509v1.178h-3.509v1.901h3.904v1.178H83.636z"/>
		<path d="M91.721,40.573v-5.806h-2.073v-1.183H95.2v1.183h-2.068v5.806H91.721z"/>
		<path d="M102.412,40.573h-1.534l-0.61-1.587h-2.794l-0.576,1.587H95.4l2.722-6.988h1.492L102.412,40.573z M99.814,37.809
			l-0.963-2.594l-0.943,2.594H99.814z"/>
		<path d="M107.632,38.004L109,38.437c-0.21,0.763-0.559,1.329-1.047,1.699c-0.487,0.371-1.106,0.556-1.856,0.556
			c-0.928,0-1.69-0.317-2.288-0.951s-0.896-1.501-0.896-2.601c0-1.163,0.301-2.066,0.901-2.71s1.391-0.965,2.369-0.965
			c0.854,0,1.549,0.253,2.083,0.758c0.318,0.299,0.557,0.728,0.715,1.287l-1.396,0.334c-0.083-0.362-0.255-0.648-0.517-0.858
			c-0.263-0.21-0.581-0.314-0.956-0.314c-0.519,0-0.938,0.186-1.261,0.558c-0.323,0.372-0.484,0.975-0.484,1.807
			c0,0.884,0.159,1.513,0.477,1.888c0.318,0.375,0.731,0.563,1.24,0.563c0.374,0,0.697-0.119,0.967-0.357
			C107.32,38.891,107.515,38.516,107.632,38.004z"/>
		<path d="M110.167,40.573v-6.988h1.411v6.988H110.167z"/>
		<path d="M112.636,37.122c0-0.712,0.106-1.31,0.319-1.792c0.159-0.356,0.376-0.676,0.651-0.959
			c0.274-0.282,0.576-0.492,0.903-0.629c0.436-0.185,0.938-0.276,1.506-0.276c1.03,0,1.854,0.319,2.472,0.958
			s0.928,1.527,0.928,2.665c0,1.128-0.307,2.011-0.92,2.647c-0.614,0.638-1.434,0.956-2.46,0.956c-1.039,0-1.865-0.317-2.479-0.951
			C112.942,39.107,112.636,38.234,112.636,37.122z M114.09,37.074c0,0.791,0.183,1.392,0.549,1.8
			c0.365,0.408,0.829,0.612,1.392,0.612s1.024-0.202,1.385-0.607s0.541-1.014,0.541-1.823c0-0.801-0.176-1.398-0.526-1.793
			c-0.352-0.394-0.818-0.591-1.399-0.591c-0.582,0-1.051,0.199-1.406,0.599C114.268,35.669,114.09,36.27,114.09,37.074z
			 M115.158,33.185l0.657-1.425h1.502l-1.311,1.425H115.158z"/>
		<path d="M120.53,40.573v-6.988h1.373l2.86,4.667v-4.667h1.311v6.988h-1.416l-2.817-4.558v4.558H120.53z"/>
	</g>
	<g>
		<path class="st3" d="M155.442,54.227V48.5h2.16c0.38,0,0.671,0.019,0.871,0.055c0.281,0.047,0.517,0.136,0.707,0.268
			s0.343,0.315,0.459,0.553s0.174,0.497,0.174,0.781c0,0.487-0.155,0.899-0.465,1.236s-0.87,0.506-1.68,0.506H156.2v2.328H155.442z
			 M156.2,51.223h1.48c0.489,0,0.837-0.091,1.043-0.273s0.309-0.438,0.309-0.77c0-0.239-0.061-0.444-0.182-0.615
			s-0.28-0.283-0.479-0.338c-0.128-0.034-0.363-0.051-0.707-0.051H156.2V51.223z"/>
		<path class="st3" d="M160.778,54.227V48.5h1.973c0.445,0,0.785,0.027,1.02,0.082c0.328,0.075,0.608,0.212,0.84,0.41
			c0.302,0.255,0.528,0.581,0.678,0.979s0.225,0.851,0.225,1.361c0,0.435-0.051,0.82-0.152,1.156s-0.231,0.614-0.391,0.834
			s-0.333,0.394-0.521,0.52s-0.417,0.222-0.684,0.287s-0.573,0.098-0.92,0.098H160.778z M161.536,53.551h1.223
			c0.378,0,0.674-0.035,0.889-0.105s0.386-0.169,0.514-0.297c0.18-0.18,0.319-0.421,0.42-0.725s0.15-0.671,0.15-1.104
			c0-0.599-0.099-1.06-0.295-1.381s-0.436-0.537-0.717-0.646c-0.203-0.078-0.53-0.117-0.98-0.117h-1.203V53.551z"/>
		<path class="st3" d="M166.595,54.227V48.5h3.863v0.676h-3.105v1.773h2.688v0.676h-2.688v2.602H166.595z"/>
	</g>
	<g id="XMLID_1_">
		<rect x="12.761" y="15.589" class="st0" width="23.416" height="27.145"/>
		<path id="XMLID_6_" d="M39.216,44.986H15.798V43.71h21.359V17.843h2.059V44.986L39.216,44.986z M12.761,15.589h23.416v27.145
			H12.761V15.589L12.761,15.589z M37.157,16.864V14.61H11.78v29.1h3.039v2.256h25.376V16.864H37.157L37.157,16.864z"/>
		<linearGradient id="XMLID_17_" gradientUnits="userSpaceOnUse" x1="25.0556" y1="38.8106" x2="26.0849" y2="38.8106">
			<stop  offset="0" style="stop-color:#F5F5F5"/>
			<stop  offset="1" style="stop-color:#E8E8E8"/>
		</linearGradient>
		<polygon id="XMLID_5_" class="st4" points="25.056,38.321 26.085,38.321 26.085,39.3 25.056,39.3 25.056,38.321 		"/>
		<linearGradient id="XMLID_18_" gradientUnits="userSpaceOnUse" x1="27.2646" y1="38.8106" x2="28.293" y2="38.8106">
			<stop  offset="0" style="stop-color:#F5F5F5"/>
			<stop  offset="1" style="stop-color:#E8E8E8"/>
		</linearGradient>
		<polygon id="XMLID_4_" class="st5" points="27.265,38.321 28.293,38.321 28.293,39.3 27.265,39.3 27.265,38.321 		"/>
		<linearGradient id="XMLID_19_" gradientUnits="userSpaceOnUse" x1="29.5185" y1="38.8106" x2="30.5478" y2="38.8106">
			<stop  offset="0" style="stop-color:#F5F5F5"/>
			<stop  offset="1" style="stop-color:#E8E8E8"/>
		</linearGradient>
		<polygon id="XMLID_3_" class="st6" points="29.518,38.321 30.548,38.321 30.548,39.3 29.518,39.3 29.518,38.321 		"/>
		<linearGradient id="XMLID_20_" gradientUnits="userSpaceOnUse" x1="31.7197" y1="38.8106" x2="32.751" y2="38.8106">
			<stop  offset="0" style="stop-color:#F5F5F5"/>
			<stop  offset="1" style="stop-color:#E8E8E8"/>
		</linearGradient>
		<polygon id="XMLID_2_" class="st7" points="31.72,38.321 32.751,38.321 32.751,39.3 31.72,39.3 31.72,38.321 		"/>
	</g>
	<path class="st3" d="M18.668,21.807c0,0.492,0.069,0.968,0.14,1.461c0.07,0.489,0.14,0.982,0.14,1.475c0,0.615-0.176,1.3-1.425,1.3
		v0.896c1.249,0,1.425,0.757,1.425,1.3c0,0.476-0.069,0.949-0.14,1.425s-0.14,0.966-0.14,1.441c0,1.772,1.086,2.407,2.549,2.407
		h0.368v-0.966h-0.316c-0.985,0-1.389-0.545-1.389-1.53c0-0.42,0.051-0.827,0.122-1.267c0.071-0.42,0.124-0.859,0.124-1.332
		c0.02-1.128-0.474-1.723-1.268-1.918v-0.033c0.794-0.212,1.281-0.773,1.268-1.9c0-0.474-0.053-0.896-0.124-1.333
		c-0.071-0.423-0.122-0.847-0.122-1.25c0-0.948,0.351-1.511,1.389-1.511h0.316v-0.966h-0.368
		C19.723,19.505,18.668,20.189,18.668,21.807z"/>
	<path class="st3" d="M28.825,24.742c0-0.492,0.074-0.985,0.145-1.475c0.068-0.493,0.141-0.966,0.141-1.461
		c0-1.617-1.072-2.302-2.568-2.302H26.19v0.966h0.32c1.018,0.017,1.388,0.563,1.388,1.511c0,0.403-0.069,0.827-0.124,1.25
		c-0.07,0.44-0.141,0.859-0.141,1.333c0,1.127,0.492,1.688,1.266,1.9v0.033c-0.773,0.195-1.266,0.79-1.266,1.918
		c0,0.473,0.07,0.912,0.141,1.332c0.055,0.443,0.124,0.847,0.124,1.267c0,0.985-0.423,1.511-1.405,1.53H26.19v0.966h0.372
		c1.44,0,2.548-0.635,2.548-2.407c0-0.476-0.072-0.966-0.141-1.441c-0.07-0.476-0.145-0.949-0.145-1.425
		c0-0.546,0.178-1.3,1.426-1.3v-0.896C29.003,26.042,28.825,25.357,28.825,24.742z"/>
</g>
</svg>