<!-- Generator: Adobe Illustrator 17.0.0, SVG Export Plug-In  -->
<svg version="1.1"
	 xmlns="http://www.w3.org/2000/svg" xmlns:xlink="http://www.w3.org/1999/xlink" xmlns:a="http://ns.adobe.com/AdobeSVGViewerExtensions/3.0/"
	 x="0px" y="0px" width="426.738px" height="357.642px" viewBox="0 0 426.738 357.642"
	 style="enable-background:new 0 0 426.738 357.642;" xml:space="preserve">
<style type="text/css">
	.st0{fill:none;stroke:#000000;stroke-width:3;stroke-linejoin:round;stroke-miterlimit:10;stroke-dasharray:10.2548;}
	.st1{fill:#6D6E71;stroke:#282F39;stroke-width:6;stroke-linejoin:round;stroke-miterlimit:10;}
	.st2{fill:#939598;stroke:#000000;stroke-width:6;stroke-linejoin:round;stroke-miterlimit:10;}
	.st3{fill:#F1F2F2;}
	.st4{opacity:0.6;}
	.st5{fill:#D1D3D4;}
	.st6{opacity:0.6;fill:#D1D3D4;}
	.st7{fill:none;stroke:#000000;stroke-width:6;stroke-linejoin:round;stroke-miterlimit:10;}
	.st8{fill:#58595B;}
	.st9{fill:#E54F26;}
	.st10{fill:#D1D3D4;stroke:#231F20;stroke-width:5.8599;stroke-linejoin:round;stroke-miterlimit:10;}
	.st11{fill:#D1D3D4;stroke:#282F39;stroke-width:5.8599;stroke-linejoin:round;stroke-miterlimit:10;}
	.st12{fill:#C1C1C1;}
	.st13{fill:#BCBEC0;stroke:#000000;stroke-width:6;stroke-linejoin:round;stroke-miterlimit:10;}
	.st14{fill:#E54F26;stroke:#000000;stroke-width:6;stroke-linejoin:round;stroke-miterlimit:10;}
	.st15{fill:#A7A9AC;}
	.st16{fill:#FFFFFF;stroke:#000000;stroke-width:6;stroke-linejoin:round;stroke-miterlimit:10;}
	.st17{fill:#D1D3D4;stroke:#000000;stroke-width:6;stroke-linejoin:round;stroke-miterlimit:10;}
	.st18{stroke:#000000;stroke-miterlimit:10;}
	.st19{stroke:#000000;stroke-width:2;stroke-miterlimit:10;}
	.st20{fill:#282F39;stroke:#FFFFFF;stroke-width:2;stroke-miterlimit:10;}
	.st21{fill:#282F39;stroke:#000000;stroke-width:2;stroke-miterlimit:10;}
	.st22{fill:#F3951F;stroke:#000000;stroke-width:2;stroke-miterlimit:10;}
</style>
<defs>
</defs>
<g>
	<path class="st0" d="M128.877,275.892c-24.875-22.789-40.473-55.541-40.473-91.936c0-68.847,55.811-124.655,124.656-124.655
		c68.844,0,124.652,55.809,124.652,124.655c0,34.421-13.953,65.585-36.509,88.144"/>
	<path class="st0" d="M125.898,319.121c-42.061-28.415-69.715-76.536-69.715-131.115c0-87.328,70.793-158.121,158.123-158.121
		c87.326,0,158.119,70.793,158.119,158.121c0,52.743-25.826,99.457-65.518,128.184"/>
	<g>
		<path class="st1" d="M290.951,114.987c0-6.196-6.18-12.158-12.377-12.158H147.688c-6.192,0-11.736,5.962-11.736,12.158v32.842h155
			V114.987z"/>
		<polyline class="st2" points="290.951,338.829 290.951,147.829 135.951,147.829 135.951,338.829 		"/>
	</g>
	<path class="st3" d="M281.951,160.634c0-1.549-1.256-2.805-2.805-2.805H150.756c-1.549,0-2.805,1.256-2.805,2.805v160.391
		c0,1.549,1.256,2.805,2.805,2.805h128.391c1.549,0,2.805-1.256,2.805-2.805V160.634z"/>
	<g>
		<g class="st4">
			<rect x="156.951" y="242.829" class="st5" width="13" height="32"/>
			<rect x="175.951" y="242.829" class="st5" width="93" height="32"/>
			<rect x="242.951" y="197.829" class="st5" width="26" height="34"/>
			<rect x="159.951" y="197.829" class="st5" width="75" height="34"/>
			<rect x="159.951" y="169.829" class="st5" width="109" height="18"/>
		</g>
		<rect x="156.951" y="282.829" class="st6" width="113" height="28"/>
	</g>
	<line class="st7" x1="112.951" y1="338.829" x2="314.951" y2="338.829"/>
	<path class="st8" d="M177.605,124.329c0,1.807,1.463,2.5,3.271,2.5h42.072c1.807,0,3.271-0.693,3.271-2.5
		c0-1.809-1.465-2.5-3.271-2.5h-42.072C179.068,121.829,177.605,122.521,177.605,124.329
		C177.605,124.329,177.605,122.521,177.605,124.329z"/>
	<path class="st8" d="M235.922,124.329c0,1.818,1.475,2.5,3.293,2.5h6.578c1.816,0,3.293-0.682,3.293-2.5
		c0-1.818-1.477-2.5-3.293-2.5h-6.578C237.396,121.829,235.922,122.511,235.922,124.329
		C235.922,124.329,235.922,122.511,235.922,124.329z"/>
	<g>
		<path class="st9" d="M368.496,143.848c-6.004,0-11.57,2.12-16.172,5.298c-3.117-3.549-7.404-5.892-12.27-6.701
			c0.201-1.363,0.307-2.691,0.307-4.109c0-15.745-12.766-28.474-28.506-28.474c-15.742,0-28.508,12.778-28.508,28.524
			c0,2.321,0.285,4.582,0.811,6.741c-2.107-0.497-4.309-1.283-6.572-1.283c-15.742,0-28.502,11.985-28.502,27.985h147.922
			C397.006,155.829,384.245,143.848,368.496,143.848z"/>
		<path class="st10" d="M249.541,172.875"/>
		<path class="st11" d="M284.158,145.137c0,0,3.48,2.792,4.623,3.388"/>
		<path class="st11" d="M352.324,149.405c0,0-1.572,2.692-1.641,4.762"/>
	</g>
	<g>
		<path class="st12" d="M46.85,94.508c6.162,0,11.881,1.876,16.6,5.138c3.201-3.641,7.602-6.197,12.594-7.025
			c-0.205-1.4-0.314-2.836-0.314-4.293c0-16.159,13.102-29.261,29.256-29.261c16.156,0,29.262,13.096,29.262,29.254
			c0,2.387-0.295,4.698-0.832,6.914c2.162-0.513,4.42-0.725,6.742-0.725c16.158,0,29.255,12.319,29.255,29.319H17.592
			C17.592,106.829,30.69,94.508,46.85,94.508z"/>
		<path class="st10" d="M168.939,123.7"/>
		<path class="st11" d="M133.414,95.233c0,0-3.576,2.866-4.748,3.476"/>
		<path class="st11" d="M63.449,99.612c0,0,1.615,2.764,1.684,4.889"/>
	</g>
	<g>
		<polygon class="st13" points="272.951,242.796 314.734,211.486 272.951,180.179 272.951,195.829 220.951,195.829 220.951,223.829 
			272.951,223.829 		"/>
	</g>
	<g>
		<polygon class="st14" points="145.951,231.577 104.17,262.887 145.951,294.195 145.951,277.829 197.951,277.829 197.951,249.829 
			145.951,249.829 		"/>
	</g>
	<line class="st7" x1="197.951" y1="237.829" x2="197.951" y2="289.829"/>
	<line class="st7" x1="220.951" y1="185.829" x2="220.951" y2="236.829"/>
	<g>
		<polygon class="st15" points="144.029,195.829 151.84,210.244 159.648,195.829 195.951,195.829 195.951,166.829 109.951,166.829 
			109.951,195.829 		"/>
		<line class="st7" x1="117.951" y1="174.829" x2="135.951" y2="174.829"/>
		<line class="st7" x1="117.951" y1="187.829" x2="181.951" y2="187.829"/>
		<line class="st7" x1="145.951" y1="174.829" x2="164.951" y2="174.829"/>
	</g>
	<g>
		<polygon class="st9" points="281.43,273.829 273.621,259.412 265.813,273.829 229.951,273.829 229.951,302.829 316.951,302.829 
			316.951,273.829 		"/>
		<line class="st7" x1="306.951" y1="293.829" x2="290.951" y2="293.829"/>
		<line class="st7" x1="306.951" y1="281.829" x2="243.951" y2="281.829"/>
		<line class="st7" x1="280.951" y1="293.829" x2="261.951" y2="293.829"/>
	</g>
	<g>
		<path class="st16" d="M214.605,57.391c0-0.004-0.002-0.008-0.002-0.012c0,0.004,0.041,0.008,0.041,0.012
			c3.084-2.18,5.307-5.78,5.307-8.586V35.72c0,0,0.402-10.905-10.5-10.905c-10.906,0-10.5,10.905-10.5,10.905v13.085
			c0,2.806,2.294,6.406,5.375,8.586c0-0.004,0.053-0.008,0.057-0.012c-0.004,0.004,0.023,0.008,0.023,0.012
			c-0.234,1.384-1.023,3.433-3.615,4.583c-2.771,1.233-8.611,3.955-12.212,7.551c5.457,4.75,12.587,7.635,20.392,7.635
			c8.076,0,15.432-3.084,20.957-8.137c-3.621-3.345-9.055-5.875-11.697-7.049C215.639,60.823,214.84,58.774,214.605,57.391z"/>
		<path class="st14" d="M208.973,15.002c-17.164,0-31.078,13.913-31.078,31.077c0,9.36,4.142,17.748,10.691,23.445
			c3.6-3.596,9.447-6.318,12.219-7.551c2.592-1.15,3.285-3.199,3.521-4.583c-3.081-2.18-5.375-5.78-5.375-8.586V35.72
			c0,0-0.406-10.905,10.5-10.905c10.902,0,10.5,10.905,10.5,10.905v13.085c0,2.806-2.223,6.406-5.307,8.586
			c0.232,1.384,1.014,3.433,3.605,4.583c2.643,1.174,8.068,3.704,11.695,7.049c6.217-5.68,10.111-13.857,10.111-22.943
			C240.057,28.915,226.137,15.002,208.973,15.002z"/>
	</g>
	<g>
		<path class="st13" d="M54.15,200.296c0-0.002-0.002-0.007-0.004-0.013c0.002,0.006,0.27,0.011,0.27,0.013
			c3.084-2.18,5.535-5.78,5.535-8.586v-13.084c0,0-0.098-10.904-11-10.904c-10.906,0-11,10.904-11,10.904v13.084
			c0,2.806,2.566,6.406,5.65,8.586c0-0.002,0.186-0.007,0.189-0.013c-0.004,0.006,0.091,0.011,0.091,0.013
			c-0.235,1.383-0.989,3.433-3.581,4.584c-2.773,1.23-8.594,3.956-12.194,7.551c5.456,4.75,12.598,7.634,20.401,7.634
			c8.076,0,15.436-3.083,20.963-8.137c-3.623-3.344-9.055-5.875-11.697-7.048C55.182,203.729,54.385,201.679,54.15,200.296z"/>
		<path class="st16" d="M48.519,157.908c-17.164,0-31.08,13.914-31.08,31.077c0,9.359,4.144,17.747,10.692,23.445
			c3.6-3.595,9.445-6.32,12.219-7.551c2.592-1.151,3.016-3.201,3.252-4.584c-3.084-2.18-5.65-5.78-5.65-8.586v-13.084
			c0,0,0.094-10.904,11-10.904c10.902,0,11,10.904,11,10.904v13.084c0,2.806-2.451,6.406-5.535,8.586
			c0.232,1.383,0.902,3.433,3.492,4.584c2.643,1.173,8.01,3.704,11.635,7.048c6.217-5.68,10.084-13.855,10.084-22.942
			C79.627,171.822,65.684,157.908,48.519,157.908z"/>
	</g>
	<g>
		<path class="st16" d="M377.568,259.213c0-0.003-0.002-0.008-0.002-0.013c0,0.005,0.059,0.01,0.059,0.013
			c3.086-2.179,5.326-5.78,5.326-8.585v-13.084c0,0,0.402-10.906-10.5-10.906c-10.906,0-10.5,10.906-10.5,10.906v13.084
			c0,2.805,2.275,6.406,5.357,8.585c0-0.003,0.043-0.008,0.045-0.013c-0.002,0.005,0.018,0.01,0.018,0.013
			c-0.232,1.384-1.021,3.433-3.615,4.585c-2.773,1.23-8.613,3.956-12.213,7.549c5.455,4.75,12.586,7.636,20.393,7.636
			c8.074,0,15.432-3.083,20.959-8.137c-3.623-3.345-9.057-5.875-11.699-7.048C378.603,262.646,377.803,260.597,377.568,259.213z"/>
		<path class="st17" d="M371.936,216.825c-17.164,0-31.078,13.914-31.078,31.077c0,9.359,4.142,17.747,10.691,23.444
			c3.6-3.593,9.446-6.318,12.219-7.549c2.594-1.152,3.305-3.201,3.541-4.585c-3.082-2.179-5.357-5.78-5.357-8.585v-13.084
			c0,0-0.406-10.906,10.5-10.906c10.902,0,10.5,10.906,10.5,10.906v13.084c0,2.805-2.24,6.406-5.326,8.585
			c0.23,1.384,1.008,3.433,3.598,4.585c2.643,1.173,8.064,3.703,11.689,7.048c6.215-5.68,10.107-13.857,10.107-22.943
			C403.02,230.739,389.102,216.825,371.936,216.825z"/>
	</g>
	<g>
		<rect x="40.092" y="42.572" class="st18" width="62.613" height="1.544"/>
		<rect x="61.512" y="37.63" class="st18" width="41.193" height="1.544"/>
	</g>
	<g>
		<rect x="337.621" y="324.139" class="st18" width="62.612" height="1.544"/>
		<rect x="337.62" y="319.196" class="st18" width="41.19" height="1.544"/>
	</g>
	<g>
		<g>
			<path class="st18" d="M328.5,37.79l4.752-3.306c0.152-0.021,0.293-0.102,0.389-0.235c0.074-0.11,0.104-0.238,0.096-0.361
				c0.009-0.123-0.021-0.251-0.096-0.361c-0.096-0.136-0.236-0.217-0.389-0.235l-4.752-3.304c-0.26-0.18-0.613-0.118-0.789,0.142
				c-0.18,0.255-0.117,0.61,0.141,0.787l4.273,2.972l-4.273,2.971c-0.258,0.179-0.32,0.532-0.141,0.788
				C327.887,37.903,328.24,37.968,328.5,37.79z"/>
		</g>
		<g>
			<path class="st18" d="M323.411,37.79l4.755-3.306c0.149-0.021,0.293-0.102,0.389-0.235c0.074-0.11,0.104-0.238,0.098-0.361
				c0.006-0.123-0.023-0.251-0.098-0.361c-0.096-0.136-0.24-0.217-0.389-0.235l-4.755-3.304c-0.257-0.18-0.608-0.118-0.786,0.142
				c-0.18,0.255-0.117,0.61,0.141,0.787l4.275,2.972l-4.275,2.971c-0.258,0.179-0.32,0.532-0.141,0.788
				C322.803,37.903,323.154,37.968,323.411,37.79z"/>
		</g>
		<g>
			<path class="st18" d="M318.329,38.008l4.751-3.306c0.152-0.021,0.295-0.1,0.387-0.236c0.076-0.108,0.107-0.236,0.1-0.362
				c0.008-0.123-0.023-0.249-0.1-0.36c-0.092-0.134-0.234-0.215-0.387-0.234l-4.751-3.306c-0.261-0.179-0.612-0.114-0.792,0.142
				c-0.178,0.259-0.115,0.611,0.143,0.789l4.274,2.97l-4.274,2.974c-0.258,0.176-0.32,0.531-0.143,0.787
				C317.717,38.122,318.068,38.184,318.329,38.008z"/>
		</g>
		<g>
			<path class="st18" d="M313.242,38.008l4.756-3.306c0.148-0.021,0.289-0.1,0.381-0.236c0.082-0.108,0.109-0.236,0.1-0.362
				c0.01-0.123-0.017-0.249-0.1-0.36c-0.092-0.134-0.232-0.215-0.381-0.234l-4.756-3.306c-0.258-0.179-0.611-0.114-0.791,0.142
				c-0.18,0.259-0.113,0.611,0.146,0.789l4.272,2.97l-4.272,2.974c-0.26,0.176-0.326,0.531-0.146,0.787
				C312.631,38.122,312.984,38.184,313.242,38.008z"/>
		</g>
	</g>
	<g>
		<g>
			<path class="st18" d="M58.834,301.483l-4.75-3.307c-0.152-0.021-0.293-0.101-0.389-0.234c-0.075-0.111-0.105-0.239-0.098-0.362
				c-0.008-0.123,0.022-0.251,0.098-0.361c0.096-0.136,0.236-0.216,0.389-0.235l4.75-3.304c0.262-0.18,0.613-0.118,0.791,0.143
				c0.178,0.255,0.115,0.61-0.141,0.786l-4.275,2.972l4.275,2.971c0.256,0.179,0.318,0.532,0.141,0.788
				C59.447,301.596,59.096,301.661,58.834,301.483z"/>
		</g>
		<g>
			<path class="st18" d="M63.924,301.483l-4.754-3.307c-0.148-0.021-0.295-0.101-0.389-0.234c-0.074-0.111-0.105-0.239-0.1-0.362
				c-0.006-0.123,0.025-0.251,0.1-0.361c0.094-0.136,0.24-0.216,0.389-0.235l4.754-3.304c0.258-0.18,0.607-0.118,0.785,0.143
				c0.182,0.255,0.117,0.61-0.139,0.786l-4.277,2.972l4.277,2.971c0.256,0.179,0.32,0.532,0.139,0.788
				C64.531,301.596,64.182,301.661,63.924,301.483z"/>
		</g>
		<g>
			<path class="st18" d="M69.006,301.7l-4.75-3.306c-0.152-0.021-0.295-0.1-0.389-0.235c-0.076-0.109-0.107-0.237-0.1-0.363
				c-0.008-0.123,0.023-0.249,0.1-0.359c0.094-0.135,0.236-0.216,0.389-0.235l4.75-3.306c0.26-0.178,0.614-0.114,0.791,0.143
				c0.178,0.258,0.115,0.61-0.143,0.789l-4.273,2.969l4.273,2.975c0.258,0.176,0.32,0.531,0.143,0.786
				C69.62,301.815,69.266,301.877,69.006,301.7z"/>
		</g>
		<g>
			<path class="st18" d="M74.094,301.7l-4.756-3.306c-0.15-0.021-0.291-0.1-0.383-0.235c-0.08-0.109-0.107-0.237-0.1-0.363
				c-0.008-0.123,0.02-0.249,0.1-0.359c0.092-0.135,0.232-0.216,0.383-0.235l4.756-3.306c0.256-0.178,0.611-0.114,0.789,0.143
				c0.18,0.258,0.113,0.61-0.145,0.789l-4.273,2.969l4.273,2.975c0.258,0.176,0.324,0.531,0.145,0.786
				C74.705,301.815,74.35,301.877,74.094,301.7z"/>
		</g>
	</g>
	<g>
		<rect x="211.467" y="1" class="st19" width="24.984" height="1.236"/>
		<rect x="179.451" y="1" class="st19" width="24.986" height="1.236"/>
		<rect x="172.424" y="1" class="st19" width="2.342" height="1.236"/>
	</g>
	<g>
		<rect x="203.457" y="355.405" class="st20" width="24.984" height="1.236"/>
		<rect x="235.469" y="355.405" class="st20" width="24.986" height="1.236"/>
		<rect x="265.141" y="355.405" class="st20" width="2.342" height="1.236"/>
	</g>
	<g>
		<g>
			<path class="st21" d="M23.783,274.412h21.932c0.447,0,0.81-0.363,0.81-0.811c0-0.448-0.363-0.811-0.81-0.811H23.783
				c-0.45,0-0.81,0.362-0.81,0.811C22.973,274.049,23.333,274.412,23.783,274.412z"/>
		</g>
		<g>
			<path class="st21" d="M10.213,274.412h8.707c0.45,0,0.813-0.363,0.813-0.811c0-0.448-0.362-0.811-0.813-0.811h-8.707
				c-0.447,0-0.81,0.362-0.81,0.811C9.403,274.049,9.766,274.412,10.213,274.412z"/>
		</g>
		<g>
			<path class="st21" d="M1.809,274.412h4.252c0.447,0,0.811-0.363,0.811-0.811c0-0.448-0.363-0.811-0.811-0.811H1.809
				c-0.447,0-0.809,0.362-0.809,0.811C1,274.049,1.361,274.412,1.809,274.412z"/>
		</g>
		<g>
			<g>
				<g>
					<path class="st22" d="M21.406,249.593c0.207,0,0.413-0.08,0.57-0.237l18.329-18.33c0.317-0.315,0.317-0.828,0-1.146
						c-0.313-0.316-0.827-0.316-1.144,0l-18.33,18.329c-0.316,0.317-0.316,0.829,0,1.146
						C20.99,249.513,21.197,249.593,21.406,249.593z"/>
				</g>
				<g>
					<path class="st22" d="M39.736,249.593c0.205,0,0.412-0.08,0.569-0.237c0.317-0.317,0.317-0.829,0-1.146L21.977,229.88
						c-0.315-0.316-0.828-0.316-1.145,0c-0.316,0.317-0.316,0.83,0,1.146l18.33,18.33C39.319,249.513,39.527,249.593,39.736,249.593
						z"/>
				</g>
			</g>
		</g>
	</g>
	<g>
		<g>
			<path class="st21" d="M402.957,124.441h-21.934c-0.449,0-0.811-0.363-0.811-0.811c0-0.448,0.361-0.811,0.811-0.811h21.934
				c0.447,0,0.809,0.362,0.809,0.811C403.766,124.078,403.404,124.441,402.957,124.441z"/>
		</g>
		<g>
			<path class="st21" d="M416.523,124.441h-8.707c-0.446,0-0.811-0.363-0.811-0.811c0-0.448,0.364-0.811,0.811-0.811h8.707
				c0.449,0,0.811,0.362,0.811,0.811C417.334,124.078,416.973,124.441,416.523,124.441z"/>
		</g>
		<g>
			<path class="st21" d="M424.928,124.441h-4.25c-0.447,0-0.811-0.363-0.811-0.811c0-0.448,0.363-0.811,0.811-0.811h4.25
				c0.449,0,0.811,0.362,0.811,0.811C425.738,124.078,425.377,124.441,424.928,124.441z"/>
		</g>
		<g>
			<g>
				<g>
					<path class="st22" d="M405.332,99.622c-0.207,0-0.414-0.08-0.572-0.237l-18.328-18.33c-0.316-0.315-0.316-0.828,0-1.146
						c0.316-0.316,0.828-0.316,1.146,0l18.329,18.328c0.316,0.318,0.316,0.83,0,1.148C405.748,99.542,405.541,99.622,405.332,99.622
						z"/>
				</g>
				<g>
					<path class="st22" d="M387.004,99.622c-0.207,0-0.414-0.08-0.572-0.237c-0.316-0.317-0.316-0.829,0-1.148l18.328-18.328
						c0.317-0.316,0.83-0.316,1.147,0c0.316,0.317,0.316,0.83,0,1.146l-18.329,18.33C387.418,99.542,387.211,99.622,387.004,99.622z
						"/>
				</g>
			</g>
		</g>
	</g>
</g>
</svg>