<!-- Generator: Adobe Illustrator 17.0.0, SVG Export Plug-In  -->
<svg version="1.1"
	 xmlns="http://www.w3.org/2000/svg" xmlns:xlink="http://www.w3.org/1999/xlink" xmlns:a="http://ns.adobe.com/AdobeSVGViewerExtensions/3.0/"
	 x="0px" y="0px" width="335.096px" height="143.463px" viewBox="0 0 335.096 143.463"
	 style="enable-background:new 0 0 335.096 143.463;" xml:space="preserve">
<style type="text/css">
	.st0{fill:#FFFFFF;stroke:#000000;stroke-width:3;stroke-miterlimit:10;}
	.st1{fill:none;stroke:#000000;stroke-miterlimit:10;}
	.st2{fill:none;stroke:#E54F26;stroke-width:2;stroke-miterlimit:10;}
</style>
<defs>
</defs>
<g>
	<rect x="1.5" y="1.5" class="st0" width="332.096" height="140.463"/>
	<rect x="24.214" y="42.379" class="st1" width="12.462" height="24.221"/>
	<rect x="38.75" y="42.379" class="st1" width="269.292" height="24.221"/>
	<g>
		<path d="M27.56,62.533V51.758h1.203v1.012c0.283-0.396,0.604-0.693,0.961-0.892c0.357-0.197,0.79-0.297,1.299-0.297
			c0.665,0,1.252,0.172,1.76,0.514c0.509,0.343,0.893,0.825,1.152,1.449c0.259,0.623,0.389,1.307,0.389,2.05
			c0,0.797-0.144,1.515-0.43,2.153c-0.285,0.638-0.701,1.127-1.247,1.467c-0.545,0.34-1.118,0.51-1.72,0.51
			c-0.44,0-0.835-0.093-1.185-0.278s-0.638-0.421-0.862-0.704v3.792H27.56z M28.756,55.696c0,1.003,0.202,1.744,0.608,2.223
			c0.406,0.479,0.897,0.72,1.475,0.72c0.587,0,1.089-0.249,1.508-0.745c0.418-0.496,0.627-1.266,0.627-2.307
			c0-0.993-0.204-1.736-0.612-2.23c-0.409-0.494-0.896-0.741-1.464-0.741c-0.563,0-1.061,0.264-1.493,0.789
			S28.756,54.694,28.756,55.696z"/>
	</g>
	<g>
		<path d="M47.538,23.035v-8.304h3.133c0.551,0,0.972,0.026,1.263,0.079c0.408,0.068,0.75,0.197,1.025,0.389
			c0.275,0.19,0.497,0.458,0.666,0.801c0.168,0.344,0.252,0.722,0.252,1.133c0,0.706-0.225,1.304-0.675,1.793
			c-0.449,0.489-1.261,0.733-2.436,0.733h-2.129v3.376H47.538z M48.638,18.68h2.146c0.71,0,1.214-0.133,1.512-0.396
			c0.299-0.265,0.448-0.637,0.448-1.116c0-0.348-0.088-0.645-0.264-0.892c-0.176-0.248-0.407-0.411-0.694-0.49
			c-0.185-0.049-0.526-0.073-1.024-0.073h-2.124V18.68z"/>
		<path d="M54.542,23.035V17.02h0.918v0.912c0.234-0.427,0.45-0.708,0.648-0.844s0.416-0.204,0.654-0.204
			c0.344,0,0.693,0.109,1.048,0.329l-0.352,0.945c-0.249-0.147-0.498-0.221-0.747-0.221c-0.223,0-0.423,0.067-0.601,0.201
			s-0.304,0.32-0.38,0.558c-0.113,0.362-0.17,0.759-0.17,1.189v3.149H54.542z"/>
		<path d="M57.445,20.027c0-1.113,0.31-1.938,0.93-2.475c0.517-0.446,1.147-0.669,1.892-0.669c0.827,0,1.503,0.271,2.027,0.813
			c0.525,0.542,0.787,1.291,0.787,2.246c0,0.774-0.115,1.383-0.348,1.827c-0.232,0.443-0.57,0.788-1.014,1.033
			c-0.444,0.246-0.929,0.368-1.453,0.368c-0.842,0-1.522-0.27-2.042-0.81S57.445,21.043,57.445,20.027z M58.493,20.027
			c0,0.771,0.168,1.348,0.505,1.73c0.336,0.384,0.759,0.575,1.269,0.575c0.506,0,0.927-0.192,1.263-0.578
			c0.336-0.385,0.504-0.972,0.504-1.762c0-0.743-0.169-1.307-0.507-1.69c-0.338-0.383-0.758-0.575-1.26-0.575
			c-0.51,0-0.933,0.191-1.269,0.572C58.661,18.682,58.493,19.257,58.493,20.027z"/>
		<path d="M63.686,25.341V17.02h0.929v0.782c0.219-0.306,0.467-0.535,0.742-0.688s0.609-0.229,1.003-0.229
			c0.513,0,0.966,0.133,1.359,0.396c0.393,0.265,0.688,0.638,0.889,1.119s0.301,1.009,0.301,1.583c0,0.615-0.11,1.169-0.332,1.662
			c-0.221,0.493-0.542,0.87-0.963,1.133s-0.863,0.394-1.328,0.394c-0.34,0-0.645-0.071-0.914-0.215
			c-0.271-0.144-0.492-0.325-0.666-0.544v2.929H63.686z M64.608,20.062c0,0.774,0.157,1.346,0.471,1.716s0.692,0.556,1.139,0.556
			c0.453,0,0.841-0.191,1.164-0.575c0.322-0.383,0.483-0.977,0.483-1.781c0-0.767-0.157-1.341-0.473-1.722
			c-0.315-0.382-0.691-0.572-1.13-0.572c-0.435,0-0.818,0.203-1.152,0.608C64.776,18.697,64.608,19.287,64.608,20.062z"/>
		<path d="M69.551,15.904v-1.173h1.02v1.173H69.551z M69.551,23.035V17.02h1.02v6.016H69.551z"/>
		<path d="M75.648,21.098l1.053,0.131c-0.166,0.615-0.474,1.093-0.923,1.433s-1.023,0.51-1.722,0.51
			c-0.88,0-1.577-0.271-2.093-0.813s-0.773-1.302-0.773-2.28c0-1.012,0.261-1.797,0.781-2.355c0.521-0.56,1.197-0.839,2.028-0.839
			c0.804,0,1.461,0.274,1.971,0.821c0.51,0.548,0.765,1.318,0.765,2.312c0,0.06-0.002,0.15-0.006,0.271h-4.485
			c0.037,0.661,0.225,1.167,0.561,1.518c0.336,0.352,0.755,0.527,1.258,0.527c0.373,0,0.692-0.099,0.957-0.295
			C75.283,21.842,75.493,21.528,75.648,21.098z M72.301,19.45h3.358c-0.045-0.507-0.174-0.886-0.385-1.139
			c-0.325-0.393-0.746-0.589-1.264-0.589c-0.468,0-0.861,0.156-1.181,0.47S72.335,18.925,72.301,19.45z"/>
		<path d="M81.292,23.035v-0.759c-0.381,0.597-0.942,0.895-1.682,0.895c-0.479,0-0.921-0.132-1.323-0.396
			c-0.401-0.264-0.713-0.633-0.935-1.107c-0.221-0.474-0.331-1.019-0.331-1.634c0-0.601,0.1-1.146,0.3-1.634
			c0.2-0.489,0.501-0.864,0.901-1.125c0.399-0.26,0.848-0.391,1.342-0.391c0.362,0,0.686,0.076,0.969,0.229s0.514,0.353,0.691,0.598
			v-2.979h1.014v8.304H81.292z M78.069,20.033c0,0.771,0.162,1.346,0.487,1.728c0.324,0.382,0.708,0.572,1.149,0.572
			c0.445,0,0.824-0.183,1.136-0.547s0.468-0.92,0.468-1.668c0-0.823-0.159-1.428-0.477-1.813c-0.316-0.385-0.708-0.578-1.172-0.578
			c-0.453,0-0.832,0.186-1.136,0.556S78.069,19.236,78.069,20.033z"/>
		<path d="M87.174,22.293c-0.377,0.321-0.74,0.548-1.09,0.68c-0.35,0.133-0.725,0.198-1.124,0.198c-0.661,0-1.169-0.161-1.524-0.484
			c-0.354-0.322-0.532-0.735-0.532-1.237c0-0.295,0.067-0.563,0.201-0.808c0.134-0.243,0.31-0.438,0.527-0.586
			c0.217-0.147,0.461-0.259,0.733-0.334c0.2-0.053,0.502-0.104,0.906-0.153c0.823-0.098,1.429-0.215,1.817-0.351
			c0.004-0.14,0.006-0.229,0.006-0.267c0-0.415-0.096-0.708-0.289-0.878c-0.26-0.23-0.647-0.346-1.161-0.346
			c-0.479,0-0.833,0.084-1.062,0.252c-0.229,0.169-0.397,0.466-0.507,0.893l-0.997-0.136c0.091-0.427,0.24-0.771,0.447-1.034
			c0.208-0.262,0.508-0.464,0.9-0.605c0.394-0.142,0.848-0.213,1.365-0.213c0.514,0,0.931,0.061,1.252,0.182
			s0.557,0.272,0.708,0.456c0.151,0.183,0.257,0.414,0.317,0.693c0.034,0.174,0.051,0.487,0.051,0.94v1.359
			c0,0.948,0.021,1.547,0.065,1.798c0.043,0.252,0.129,0.492,0.258,0.723h-1.065C87.272,22.823,87.204,22.576,87.174,22.293z
			 M87.089,20.017c-0.37,0.15-0.925,0.279-1.665,0.385c-0.419,0.061-0.716,0.128-0.889,0.204c-0.174,0.075-0.309,0.186-0.402,0.331
			c-0.095,0.146-0.142,0.307-0.142,0.484c0,0.271,0.103,0.498,0.309,0.68s0.507,0.271,0.903,0.271c0.393,0,0.742-0.086,1.048-0.258
			c0.306-0.171,0.53-0.406,0.674-0.705c0.109-0.229,0.164-0.569,0.164-1.02V20.017z"/>
		<path d="M93.012,23.035v-0.759c-0.381,0.597-0.942,0.895-1.682,0.895c-0.479,0-0.921-0.132-1.323-0.396
			c-0.401-0.264-0.713-0.633-0.935-1.107c-0.221-0.474-0.331-1.019-0.331-1.634c0-0.601,0.1-1.146,0.3-1.634
			c0.2-0.489,0.501-0.864,0.901-1.125c0.399-0.26,0.848-0.391,1.342-0.391c0.362,0,0.686,0.076,0.969,0.229s0.514,0.353,0.691,0.598
			v-2.979h1.014v8.304H93.012z M89.789,20.033c0,0.771,0.162,1.346,0.487,1.728c0.324,0.382,0.708,0.572,1.149,0.572
			c0.445,0,0.824-0.183,1.136-0.547s0.468-0.92,0.468-1.668c0-0.823-0.159-1.428-0.477-1.813c-0.316-0.385-0.708-0.578-1.172-0.578
			c-0.453,0-0.832,0.186-1.136,0.556S89.789,19.236,89.789,20.033z"/>
	</g>
	<g>
		<path d="M22.709,86.21l1.036-0.091c0.049,0.416,0.163,0.757,0.343,1.022c0.18,0.267,0.458,0.481,0.835,0.646
			c0.378,0.165,0.803,0.247,1.274,0.247c0.42,0,0.79-0.063,1.11-0.188c0.321-0.124,0.56-0.295,0.717-0.513
			c0.156-0.217,0.235-0.453,0.235-0.71c0-0.261-0.076-0.488-0.227-0.683c-0.151-0.194-0.4-0.358-0.748-0.49
			c-0.223-0.087-0.716-0.222-1.479-0.405c-0.763-0.183-1.297-0.355-1.603-0.518c-0.396-0.208-0.692-0.466-0.887-0.773
			s-0.292-0.652-0.292-1.034c0-0.419,0.119-0.811,0.357-1.175c0.237-0.364,0.585-0.641,1.042-0.83
			c0.457-0.188,0.965-0.283,1.523-0.283c0.615,0,1.158,0.1,1.629,0.298c0.47,0.198,0.831,0.489,1.084,0.875
			c0.253,0.385,0.39,0.821,0.408,1.309l-1.054,0.079c-0.057-0.525-0.248-0.922-0.574-1.189c-0.327-0.269-0.81-0.402-1.447-0.402
			c-0.665,0-1.149,0.122-1.453,0.365s-0.456,0.537-0.456,0.881c0,0.298,0.107,0.544,0.323,0.736c0.211,0.192,0.764,0.39,1.656,0.592
			c0.894,0.202,1.506,0.379,1.838,0.529c0.483,0.224,0.841,0.506,1.07,0.847c0.23,0.342,0.346,0.736,0.346,1.182
			c0,0.441-0.126,0.857-0.379,1.249c-0.253,0.391-0.617,0.694-1.091,0.911c-0.474,0.218-1.007,0.326-1.6,0.326
			c-0.752,0-1.382-0.109-1.89-0.328c-0.508-0.22-0.906-0.549-1.194-0.989C22.876,87.263,22.724,86.766,22.709,86.21z"/>
		<path d="M34.216,86.94l1.053,0.131c-0.166,0.615-0.474,1.093-0.923,1.433s-1.023,0.51-1.722,0.51c-0.88,0-1.577-0.271-2.093-0.813
			s-0.773-1.302-0.773-2.28c0-1.012,0.261-1.797,0.781-2.355c0.521-0.56,1.197-0.839,2.028-0.839c0.804,0,1.461,0.274,1.971,0.821
			c0.51,0.548,0.765,1.318,0.765,2.312c0,0.06-0.002,0.15-0.006,0.271h-4.485c0.037,0.661,0.225,1.167,0.561,1.518
			c0.336,0.352,0.755,0.527,1.258,0.527c0.373,0,0.692-0.099,0.957-0.295C33.851,87.685,34.061,87.371,34.216,86.94z M30.868,85.293
			h3.358c-0.045-0.507-0.174-0.886-0.385-1.139c-0.325-0.393-0.746-0.589-1.264-0.589c-0.468,0-0.861,0.156-1.181,0.47
			S30.902,84.768,30.868,85.293z"/>
		<path d="M35.935,88.878v-8.304h1.02v8.304H35.935z"/>
		<path d="M42.062,86.94l1.053,0.131c-0.166,0.615-0.474,1.093-0.923,1.433s-1.023,0.51-1.722,0.51c-0.88,0-1.577-0.271-2.093-0.813
			s-0.773-1.302-0.773-2.28c0-1.012,0.261-1.797,0.781-2.355c0.521-0.56,1.197-0.839,2.028-0.839c0.804,0,1.461,0.274,1.971,0.821
			c0.51,0.548,0.765,1.318,0.765,2.312c0,0.06-0.002,0.15-0.006,0.271h-4.485c0.037,0.661,0.225,1.167,0.561,1.518
			c0.336,0.352,0.755,0.527,1.258,0.527c0.373,0,0.692-0.099,0.957-0.295C41.696,87.685,41.906,87.371,42.062,86.94z M38.714,85.293
			h3.358c-0.045-0.507-0.174-0.886-0.385-1.139c-0.325-0.393-0.746-0.589-1.264-0.589c-0.468,0-0.861,0.156-1.181,0.47
			S38.748,84.768,38.714,85.293z"/>
		<path d="M47.728,86.675l1.003,0.13c-0.109,0.691-0.39,1.232-0.841,1.623s-1.006,0.586-1.663,0.586
			c-0.823,0-1.484-0.269-1.984-0.807c-0.501-0.538-0.751-1.31-0.751-2.314c0-0.649,0.107-1.218,0.323-1.704
			c0.215-0.487,0.542-0.853,0.982-1.097c0.439-0.243,0.918-0.365,1.436-0.365c0.653,0,1.188,0.165,1.604,0.496
			c0.415,0.33,0.682,0.799,0.798,1.407l-0.991,0.153c-0.094-0.404-0.261-0.708-0.501-0.912c-0.239-0.204-0.529-0.306-0.869-0.306
			c-0.514,0-0.931,0.184-1.252,0.552s-0.481,0.951-0.481,1.747c0,0.809,0.155,1.396,0.465,1.762s0.713,0.55,1.212,0.55
			c0.4,0,0.734-0.123,1.002-0.368C47.486,87.562,47.656,87.185,47.728,86.675z"/>
		<path d="M51.236,87.966l0.147,0.9c-0.287,0.061-0.544,0.091-0.771,0.091c-0.37,0-0.656-0.059-0.86-0.176
			c-0.204-0.116-0.348-0.271-0.431-0.461c-0.083-0.191-0.125-0.592-0.125-1.204v-3.461H48.45v-0.793h0.747v-1.489l1.015-0.611v2.101
			h1.024v0.793h-1.024v3.518c0,0.291,0.018,0.478,0.054,0.561c0.035,0.083,0.094,0.149,0.176,0.198
			c0.081,0.05,0.197,0.074,0.348,0.074C50.902,88.006,51.052,87.992,51.236,87.966z"/>
		<path d="M51.262,85.87c0-1.113,0.31-1.938,0.93-2.475c0.517-0.446,1.147-0.669,1.892-0.669c0.827,0,1.503,0.271,2.027,0.813
			c0.525,0.542,0.787,1.291,0.787,2.246c0,0.774-0.115,1.383-0.348,1.827c-0.232,0.443-0.57,0.788-1.014,1.033
			c-0.444,0.246-0.929,0.368-1.453,0.368c-0.842,0-1.522-0.27-2.042-0.81S51.262,86.886,51.262,85.87z M52.31,85.87
			c0,0.771,0.168,1.348,0.505,1.73c0.336,0.384,0.759,0.575,1.269,0.575c0.506,0,0.927-0.192,1.263-0.578
			c0.336-0.385,0.504-0.972,0.504-1.762c0-0.743-0.169-1.307-0.507-1.69c-0.338-0.383-0.758-0.575-1.26-0.575
			c-0.51,0-0.933,0.191-1.269,0.572C52.478,84.524,52.31,85.1,52.31,85.87z"/>
		<path d="M57.489,88.878v-6.016h0.918v0.912c0.234-0.427,0.45-0.708,0.648-0.844s0.416-0.204,0.654-0.204
			c0.344,0,0.693,0.109,1.048,0.329l-0.352,0.945c-0.249-0.147-0.498-0.221-0.747-0.221c-0.223,0-0.423,0.067-0.601,0.201
			s-0.304,0.32-0.38,0.558c-0.113,0.362-0.17,0.759-0.17,1.189v3.149H57.489z"/>
	</g>
	<g>
		<path d="M146.301,88.878v-8.304h2.86c0.646,0,1.139,0.04,1.479,0.119c0.476,0.109,0.882,0.308,1.218,0.595
			c0.438,0.37,0.766,0.843,0.983,1.419c0.217,0.576,0.325,1.233,0.325,1.974c0,0.631-0.073,1.189-0.221,1.677
			s-0.336,0.891-0.566,1.209c-0.23,0.319-0.482,0.57-0.756,0.754c-0.274,0.183-0.604,0.321-0.991,0.416
			c-0.388,0.095-0.832,0.142-1.334,0.142H146.301z M147.4,87.898h1.772c0.548,0,0.978-0.052,1.289-0.153s0.56-0.245,0.744-0.431
			c0.261-0.261,0.464-0.61,0.609-1.051c0.146-0.439,0.218-0.973,0.218-1.6c0-0.869-0.143-1.536-0.428-2.003
			c-0.285-0.466-0.632-0.778-1.039-0.937c-0.295-0.113-0.769-0.17-1.422-0.17H147.4V87.898z"/>
		<path d="M158.074,86.94l1.053,0.131c-0.166,0.615-0.474,1.093-0.923,1.433s-1.023,0.51-1.722,0.51
			c-0.88,0-1.577-0.271-2.093-0.813s-0.773-1.302-0.773-2.28c0-1.012,0.261-1.797,0.781-2.355c0.521-0.56,1.197-0.839,2.028-0.839
			c0.804,0,1.461,0.274,1.971,0.821c0.51,0.548,0.765,1.318,0.765,2.312c0,0.06-0.002,0.15-0.006,0.271h-4.485
			c0.037,0.661,0.225,1.167,0.561,1.518c0.336,0.352,0.755,0.527,1.258,0.527c0.373,0,0.692-0.099,0.957-0.295
			C157.709,87.685,157.919,87.371,158.074,86.94z M154.727,85.293h3.358c-0.045-0.507-0.174-0.886-0.385-1.139
			c-0.325-0.393-0.746-0.589-1.264-0.589c-0.468,0-0.861,0.156-1.181,0.47S154.761,84.768,154.727,85.293z"/>
		<path d="M163.74,86.675l1.003,0.13c-0.109,0.691-0.39,1.232-0.841,1.623s-1.006,0.586-1.663,0.586
			c-0.823,0-1.484-0.269-1.984-0.807c-0.501-0.538-0.751-1.31-0.751-2.314c0-0.649,0.107-1.218,0.323-1.704
			c0.215-0.487,0.542-0.853,0.982-1.097c0.439-0.243,0.918-0.365,1.436-0.365c0.653,0,1.188,0.165,1.604,0.496
			c0.415,0.33,0.682,0.799,0.798,1.407l-0.991,0.153c-0.094-0.404-0.261-0.708-0.501-0.912c-0.239-0.204-0.529-0.306-0.869-0.306
			c-0.514,0-0.931,0.184-1.252,0.552s-0.481,0.951-0.481,1.747c0,0.809,0.155,1.396,0.465,1.762s0.713,0.55,1.212,0.55
			c0.4,0,0.734-0.123,1.002-0.368C163.499,87.562,163.669,87.185,163.74,86.675z"/>
		<path d="M165.002,88.878v-8.304h1.02v8.304H165.002z"/>
		<path d="M170.935,88.136c-0.377,0.321-0.74,0.548-1.09,0.68c-0.35,0.133-0.725,0.198-1.124,0.198
			c-0.661,0-1.169-0.161-1.524-0.484c-0.354-0.322-0.532-0.735-0.532-1.237c0-0.295,0.067-0.563,0.201-0.808
			c0.134-0.243,0.31-0.438,0.527-0.586c0.217-0.147,0.461-0.259,0.733-0.334c0.2-0.053,0.502-0.104,0.906-0.153
			c0.823-0.098,1.429-0.215,1.817-0.351c0.004-0.14,0.006-0.229,0.006-0.267c0-0.415-0.096-0.708-0.289-0.878
			c-0.26-0.23-0.647-0.346-1.161-0.346c-0.479,0-0.833,0.084-1.062,0.252c-0.229,0.169-0.397,0.466-0.507,0.893l-0.997-0.136
			c0.091-0.427,0.24-0.771,0.447-1.034c0.208-0.262,0.508-0.464,0.9-0.605c0.394-0.142,0.848-0.213,1.365-0.213
			c0.514,0,0.931,0.061,1.252,0.182s0.557,0.272,0.708,0.456c0.151,0.183,0.257,0.414,0.317,0.693
			c0.034,0.174,0.051,0.487,0.051,0.94v1.359c0,0.948,0.021,1.547,0.065,1.798c0.043,0.252,0.129,0.492,0.258,0.723h-1.065
			C171.033,88.666,170.965,88.419,170.935,88.136z M170.85,85.859c-0.37,0.15-0.925,0.279-1.665,0.385
			c-0.419,0.061-0.716,0.128-0.889,0.204c-0.174,0.075-0.309,0.186-0.402,0.331c-0.095,0.146-0.142,0.307-0.142,0.484
			c0,0.271,0.103,0.498,0.309,0.68s0.507,0.271,0.903,0.271c0.393,0,0.742-0.086,1.048-0.258c0.306-0.171,0.53-0.406,0.674-0.705
			c0.109-0.229,0.164-0.569,0.164-1.02V85.859z"/>
		<path d="M172.857,88.878v-6.016h0.918v0.912c0.234-0.427,0.45-0.708,0.648-0.844s0.416-0.204,0.654-0.204
			c0.344,0,0.693,0.109,1.048,0.329l-0.352,0.945c-0.249-0.147-0.498-0.221-0.747-0.221c-0.223,0-0.423,0.067-0.601,0.201
			s-0.304,0.32-0.38,0.558c-0.113,0.362-0.17,0.759-0.17,1.189v3.149H172.857z"/>
		<path d="M180.065,88.136c-0.377,0.321-0.74,0.548-1.09,0.68c-0.35,0.133-0.725,0.198-1.124,0.198
			c-0.661,0-1.169-0.161-1.524-0.484c-0.354-0.322-0.532-0.735-0.532-1.237c0-0.295,0.067-0.563,0.201-0.808
			c0.134-0.243,0.31-0.438,0.527-0.586c0.217-0.147,0.461-0.259,0.733-0.334c0.2-0.053,0.502-0.104,0.906-0.153
			c0.823-0.098,1.429-0.215,1.817-0.351c0.004-0.14,0.006-0.229,0.006-0.267c0-0.415-0.096-0.708-0.289-0.878
			c-0.26-0.23-0.647-0.346-1.161-0.346c-0.479,0-0.833,0.084-1.062,0.252c-0.229,0.169-0.397,0.466-0.507,0.893l-0.997-0.136
			c0.091-0.427,0.24-0.771,0.447-1.034c0.208-0.262,0.508-0.464,0.9-0.605c0.394-0.142,0.848-0.213,1.365-0.213
			c0.514,0,0.931,0.061,1.252,0.182s0.557,0.272,0.708,0.456c0.151,0.183,0.257,0.414,0.317,0.693
			c0.034,0.174,0.051,0.487,0.051,0.94v1.359c0,0.948,0.021,1.547,0.065,1.798c0.043,0.252,0.129,0.492,0.258,0.723h-1.065
			C180.164,88.666,180.096,88.419,180.065,88.136z M179.98,85.859c-0.37,0.15-0.925,0.279-1.665,0.385
			c-0.419,0.061-0.716,0.128-0.889,0.204c-0.174,0.075-0.309,0.186-0.402,0.331c-0.095,0.146-0.142,0.307-0.142,0.484
			c0,0.271,0.103,0.498,0.309,0.68s0.507,0.271,0.903,0.271c0.393,0,0.742-0.086,1.048-0.258c0.306-0.171,0.53-0.406,0.674-0.705
			c0.109-0.229,0.164-0.569,0.164-1.02V85.859z"/>
		<path d="M185.925,86.675l1.003,0.13c-0.109,0.691-0.39,1.232-0.841,1.623s-1.006,0.586-1.663,0.586
			c-0.823,0-1.484-0.269-1.984-0.807c-0.501-0.538-0.751-1.31-0.751-2.314c0-0.649,0.107-1.218,0.323-1.704
			c0.215-0.487,0.542-0.853,0.982-1.097c0.439-0.243,0.918-0.365,1.436-0.365c0.653,0,1.188,0.165,1.604,0.496
			c0.415,0.33,0.682,0.799,0.798,1.407l-0.991,0.153c-0.094-0.404-0.261-0.708-0.501-0.912c-0.239-0.204-0.529-0.306-0.869-0.306
			c-0.514,0-0.931,0.184-1.252,0.552s-0.481,0.951-0.481,1.747c0,0.809,0.155,1.396,0.465,1.762s0.713,0.55,1.212,0.55
			c0.4,0,0.734-0.123,1.002-0.368C185.684,87.562,185.853,87.185,185.925,86.675z"/>
		<path d="M187.215,81.747v-1.173h1.02v1.173H187.215z M187.215,88.878v-6.016h1.02v6.016H187.215z"/>
		<path d="M188.814,85.87c0-1.113,0.31-1.938,0.93-2.475c0.517-0.446,1.147-0.669,1.892-0.669c0.827,0,1.503,0.271,2.027,0.813
			c0.525,0.542,0.787,1.291,0.787,2.246c0,0.774-0.115,1.383-0.348,1.827c-0.232,0.443-0.57,0.788-1.014,1.033
			c-0.444,0.246-0.929,0.368-1.453,0.368c-0.842,0-1.522-0.27-2.042-0.81S188.814,86.886,188.814,85.87z M189.862,85.87
			c0,0.771,0.168,1.348,0.505,1.73c0.336,0.384,0.759,0.575,1.269,0.575c0.506,0,0.927-0.192,1.263-0.578
			c0.336-0.385,0.504-0.972,0.504-1.762c0-0.743-0.169-1.307-0.507-1.69c-0.338-0.383-0.758-0.575-1.26-0.575
			c-0.51,0-0.933,0.191-1.269,0.572C190.03,84.524,189.862,85.1,189.862,85.87z M191.069,82.115l0.753-1.586h1.337l-1.246,1.586
			H191.069z"/>
		<path d="M195.054,88.878v-6.016h0.918v0.855c0.441-0.66,1.079-0.991,1.914-0.991c0.362,0,0.695,0.065,1,0.195
			c0.304,0.131,0.531,0.302,0.683,0.513c0.15,0.212,0.257,0.463,0.316,0.754c0.038,0.188,0.057,0.519,0.057,0.991v3.698h-1.02
			v-3.659c0-0.415-0.039-0.726-0.118-0.932c-0.08-0.206-0.221-0.37-0.422-0.493c-0.202-0.122-0.439-0.184-0.711-0.184
			c-0.435,0-0.81,0.138-1.125,0.413c-0.315,0.276-0.473,0.799-0.473,1.569v3.285H195.054z"/>
	</g>
	<g>
		<path d="M140.988,131.567v-8.304h3.682c0.74,0,1.303,0.075,1.688,0.224c0.386,0.149,0.693,0.413,0.924,0.79
			c0.229,0.378,0.345,0.795,0.345,1.252c0,0.589-0.19,1.086-0.571,1.49c-0.382,0.403-0.971,0.66-1.768,0.77
			c0.291,0.14,0.512,0.278,0.663,0.414c0.32,0.294,0.625,0.662,0.911,1.104l1.444,2.26h-1.382l-1.099-1.728
			c-0.321-0.498-0.585-0.88-0.793-1.145c-0.208-0.264-0.394-0.449-0.558-0.555s-0.332-0.18-0.502-0.221
			c-0.124-0.026-0.328-0.04-0.611-0.04h-1.274v3.688H140.988z M142.087,126.929h2.362c0.502,0,0.895-0.052,1.178-0.156
			c0.283-0.104,0.498-0.27,0.646-0.498s0.221-0.477,0.221-0.745c0-0.393-0.143-0.716-0.427-0.969
			c-0.285-0.253-0.736-0.379-1.352-0.379h-2.628V126.929z"/>
		<path d="M152.744,129.63l1.053,0.131c-0.166,0.615-0.474,1.093-0.923,1.433s-1.023,0.51-1.722,0.51
			c-0.88,0-1.577-0.271-2.093-0.813s-0.773-1.302-0.773-2.28c0-1.012,0.261-1.797,0.781-2.355c0.521-0.56,1.197-0.839,2.028-0.839
			c0.804,0,1.461,0.274,1.971,0.821c0.51,0.548,0.765,1.318,0.765,2.312c0,0.06-0.002,0.15-0.006,0.271h-4.485
			c0.037,0.661,0.225,1.167,0.561,1.518c0.336,0.352,0.755,0.527,1.258,0.527c0.373,0,0.692-0.099,0.957-0.295
			C152.379,130.374,152.589,130.061,152.744,129.63z M149.396,127.982h3.358c-0.045-0.507-0.174-0.886-0.385-1.139
			c-0.325-0.393-0.746-0.589-1.264-0.589c-0.468,0-0.861,0.156-1.181,0.47S149.431,127.457,149.396,127.982z"/>
		<path d="M154.299,132.065l0.991,0.147c0.041,0.306,0.156,0.529,0.345,0.669c0.253,0.188,0.599,0.283,1.037,0.283
			c0.472,0,0.836-0.095,1.093-0.283c0.257-0.189,0.431-0.453,0.521-0.793c0.053-0.208,0.077-0.645,0.073-1.309
			c-0.445,0.524-1,0.787-1.665,0.787c-0.827,0-1.467-0.298-1.92-0.895s-0.68-1.313-0.68-2.147c0-0.573,0.104-1.104,0.312-1.589
			c0.207-0.484,0.509-0.859,0.903-1.124c0.395-0.264,0.858-0.396,1.391-0.396c0.71,0,1.295,0.287,1.756,0.861v-0.726h0.94v5.2
			c0,0.937-0.096,1.6-0.286,1.991c-0.191,0.391-0.493,0.699-0.906,0.926c-0.414,0.227-0.923,0.34-1.526,0.34
			c-0.718,0-1.298-0.161-1.739-0.484S154.283,132.715,154.299,132.065z M155.143,128.452c0,0.789,0.156,1.365,0.47,1.728
			s0.706,0.544,1.179,0.544c0.468,0,0.86-0.181,1.178-0.541s0.476-0.926,0.476-1.696c0-0.736-0.163-1.292-0.489-1.665
			c-0.327-0.374-0.721-0.562-1.182-0.562c-0.453,0-0.838,0.185-1.155,0.553S155.143,127.728,155.143,128.452z"/>
		<path d="M160.323,131.567v-8.304h1.02v8.304H160.323z"/>
		<path d="M166.256,130.825c-0.377,0.321-0.74,0.548-1.09,0.68c-0.35,0.133-0.725,0.198-1.124,0.198
			c-0.661,0-1.169-0.161-1.524-0.484c-0.354-0.322-0.532-0.735-0.532-1.237c0-0.295,0.067-0.563,0.201-0.808
			c0.134-0.243,0.31-0.438,0.527-0.586c0.217-0.147,0.461-0.259,0.733-0.334c0.2-0.053,0.502-0.104,0.906-0.153
			c0.823-0.098,1.429-0.215,1.817-0.351c0.004-0.14,0.006-0.229,0.006-0.267c0-0.415-0.096-0.708-0.289-0.878
			c-0.26-0.23-0.647-0.346-1.161-0.346c-0.479,0-0.833,0.084-1.062,0.252c-0.229,0.169-0.397,0.466-0.507,0.893l-0.997-0.136
			c0.091-0.427,0.24-0.771,0.447-1.034c0.208-0.262,0.508-0.464,0.9-0.605c0.394-0.142,0.848-0.213,1.365-0.213
			c0.514,0,0.931,0.061,1.252,0.182s0.557,0.272,0.708,0.456c0.151,0.183,0.257,0.414,0.317,0.693
			c0.034,0.174,0.051,0.487,0.051,0.94v1.359c0,0.948,0.021,1.547,0.065,1.798c0.043,0.252,0.129,0.492,0.258,0.723h-1.065
			C166.354,131.355,166.286,131.108,166.256,130.825z M166.171,128.549c-0.37,0.15-0.925,0.279-1.665,0.385
			c-0.419,0.061-0.716,0.128-0.889,0.204c-0.174,0.075-0.309,0.186-0.402,0.331c-0.095,0.146-0.142,0.307-0.142,0.484
			c0,0.271,0.103,0.498,0.309,0.68s0.507,0.271,0.903,0.271c0.393,0,0.742-0.086,1.048-0.258c0.306-0.171,0.53-0.406,0.674-0.705
			c0.109-0.229,0.164-0.569,0.164-1.02V128.549z"/>
		<path d="M167.782,129.771l1.009-0.158c0.057,0.404,0.214,0.714,0.473,0.929c0.259,0.216,0.62,0.323,1.085,0.323
			c0.468,0,0.815-0.096,1.042-0.286s0.34-0.414,0.34-0.671c0-0.23-0.1-0.412-0.3-0.544c-0.14-0.091-0.487-0.206-1.043-0.346
			c-0.747-0.188-1.266-0.353-1.555-0.49c-0.288-0.138-0.508-0.328-0.656-0.572c-0.149-0.243-0.225-0.512-0.225-0.807
			c0-0.269,0.062-0.517,0.185-0.745s0.29-0.418,0.501-0.569c0.159-0.116,0.375-0.216,0.648-0.297
			c0.274-0.081,0.567-0.122,0.881-0.122c0.473,0,0.887,0.068,1.243,0.204c0.357,0.136,0.62,0.32,0.79,0.552
			c0.17,0.232,0.287,0.543,0.352,0.933l-0.997,0.136c-0.045-0.31-0.177-0.552-0.394-0.726c-0.217-0.173-0.523-0.26-0.92-0.26
			c-0.469,0-0.803,0.077-1.003,0.231c-0.2,0.155-0.3,0.337-0.3,0.544c0,0.133,0.041,0.251,0.124,0.357
			c0.083,0.109,0.214,0.2,0.391,0.271c0.103,0.038,0.402,0.125,0.901,0.261c0.721,0.192,1.224,0.35,1.509,0.473
			s0.509,0.301,0.672,0.535c0.162,0.234,0.243,0.525,0.243,0.872c0,0.34-0.099,0.66-0.297,0.96
			c-0.198,0.301-0.484,0.533-0.858,0.697s-0.797,0.246-1.269,0.246c-0.782,0-1.378-0.162-1.787-0.487
			C168.157,130.892,167.895,130.41,167.782,129.771z"/>
		<path d="M182.084,128.656l1.099,0.277c-0.229,0.902-0.645,1.591-1.243,2.064s-1.33,0.711-2.194,0.711
			c-0.896,0-1.623-0.183-2.184-0.547s-0.987-0.892-1.28-1.583c-0.293-0.69-0.438-1.433-0.438-2.226c0-0.865,0.165-1.619,0.495-2.263
			c0.33-0.645,0.801-1.133,1.41-1.468c0.61-0.334,1.281-0.501,2.014-0.501c0.831,0,1.529,0.212,2.096,0.635s0.961,1.018,1.184,1.784
			l-1.081,0.255c-0.193-0.604-0.473-1.044-0.839-1.32c-0.366-0.275-0.827-0.413-1.382-0.413c-0.638,0-1.172,0.153-1.6,0.459
			c-0.429,0.306-0.73,0.716-0.904,1.231c-0.173,0.516-0.26,1.047-0.26,1.595c0,0.706,0.103,1.322,0.309,1.85
			c0.205,0.526,0.525,0.92,0.96,1.181c0.434,0.261,0.904,0.391,1.41,0.391c0.615,0,1.137-0.178,1.563-0.532
			S181.934,129.355,182.084,128.656z"/>
		<path d="M183.572,128.899l1.036-0.091c0.049,0.416,0.163,0.757,0.343,1.022c0.18,0.267,0.458,0.481,0.835,0.646
			c0.378,0.165,0.803,0.247,1.274,0.247c0.42,0,0.79-0.063,1.11-0.188c0.321-0.124,0.56-0.295,0.717-0.513
			c0.156-0.217,0.235-0.453,0.235-0.71c0-0.261-0.076-0.488-0.227-0.683c-0.151-0.194-0.4-0.358-0.748-0.49
			c-0.223-0.087-0.716-0.222-1.479-0.405c-0.763-0.183-1.297-0.355-1.603-0.518c-0.396-0.208-0.692-0.466-0.887-0.773
			s-0.292-0.652-0.292-1.034c0-0.419,0.119-0.811,0.357-1.175c0.237-0.364,0.585-0.641,1.042-0.83
			c0.457-0.188,0.965-0.283,1.523-0.283c0.615,0,1.158,0.1,1.629,0.298c0.47,0.198,0.831,0.489,1.084,0.875
			c0.253,0.385,0.39,0.821,0.408,1.309l-1.054,0.079c-0.057-0.525-0.248-0.922-0.574-1.189c-0.327-0.269-0.81-0.402-1.447-0.402
			c-0.665,0-1.149,0.122-1.453,0.365s-0.456,0.537-0.456,0.881c0,0.298,0.107,0.544,0.323,0.736c0.211,0.192,0.764,0.39,1.656,0.592
			c0.894,0.202,1.506,0.379,1.838,0.529c0.483,0.224,0.841,0.506,1.07,0.847c0.23,0.342,0.346,0.736,0.346,1.182
			c0,0.441-0.126,0.857-0.379,1.249c-0.253,0.391-0.617,0.694-1.091,0.911c-0.474,0.218-1.007,0.326-1.6,0.326
			c-0.752,0-1.382-0.109-1.89-0.328c-0.508-0.22-0.906-0.549-1.194-0.989C183.739,129.952,183.587,129.455,183.572,128.899z"/>
		<path d="M190.718,128.899l1.036-0.091c0.049,0.416,0.163,0.757,0.343,1.022c0.18,0.267,0.458,0.481,0.835,0.646
			c0.378,0.165,0.803,0.247,1.274,0.247c0.42,0,0.79-0.063,1.11-0.188c0.321-0.124,0.56-0.295,0.717-0.513
			c0.156-0.217,0.235-0.453,0.235-0.71c0-0.261-0.076-0.488-0.227-0.683c-0.151-0.194-0.4-0.358-0.748-0.49
			c-0.223-0.087-0.716-0.222-1.479-0.405c-0.763-0.183-1.297-0.355-1.603-0.518c-0.396-0.208-0.692-0.466-0.887-0.773
			s-0.292-0.652-0.292-1.034c0-0.419,0.119-0.811,0.357-1.175c0.237-0.364,0.585-0.641,1.042-0.83
			c0.457-0.188,0.965-0.283,1.523-0.283c0.615,0,1.158,0.1,1.629,0.298c0.47,0.198,0.831,0.489,1.084,0.875
			c0.253,0.385,0.39,0.821,0.408,1.309l-1.054,0.079c-0.057-0.525-0.248-0.922-0.574-1.189c-0.327-0.269-0.81-0.402-1.447-0.402
			c-0.665,0-1.149,0.122-1.453,0.365s-0.456,0.537-0.456,0.881c0,0.298,0.107,0.544,0.323,0.736c0.211,0.192,0.764,0.39,1.656,0.592
			c0.894,0.202,1.506,0.379,1.838,0.529c0.483,0.224,0.841,0.506,1.07,0.847c0.23,0.342,0.346,0.736,0.346,1.182
			c0,0.441-0.126,0.857-0.379,1.249c-0.253,0.391-0.617,0.694-1.091,0.911c-0.474,0.218-1.007,0.326-1.6,0.326
			c-0.752,0-1.382-0.109-1.89-0.328c-0.508-0.22-0.906-0.549-1.194-0.989C190.885,129.952,190.732,129.455,190.718,128.899z"/>
	</g>
	<g>
		<path d="M180.789,23.035v-8.304h3.133c0.551,0,0.972,0.026,1.263,0.079c0.408,0.068,0.75,0.197,1.025,0.389
			c0.275,0.19,0.497,0.458,0.666,0.801c0.168,0.344,0.252,0.722,0.252,1.133c0,0.706-0.225,1.304-0.675,1.793
			c-0.449,0.489-1.261,0.733-2.436,0.733h-2.129v3.376H180.789z M181.889,18.68h2.146c0.71,0,1.214-0.133,1.512-0.396
			c0.299-0.265,0.448-0.637,0.448-1.116c0-0.348-0.088-0.645-0.264-0.892c-0.176-0.248-0.407-0.411-0.694-0.49
			c-0.185-0.049-0.526-0.073-1.024-0.073h-2.124V18.68z"/>
		<path d="M187.793,23.035V17.02h0.918v0.912c0.234-0.427,0.45-0.708,0.648-0.844s0.416-0.204,0.654-0.204
			c0.344,0,0.693,0.109,1.048,0.329l-0.352,0.945c-0.249-0.147-0.498-0.221-0.747-0.221c-0.223,0-0.423,0.067-0.601,0.201
			s-0.304,0.32-0.38,0.558c-0.113,0.362-0.17,0.759-0.17,1.189v3.149H187.793z"/>
		<path d="M190.696,20.027c0-1.113,0.31-1.938,0.93-2.475c0.517-0.446,1.147-0.669,1.892-0.669c0.827,0,1.503,0.271,2.027,0.813
			c0.525,0.542,0.787,1.291,0.787,2.246c0,0.774-0.115,1.383-0.348,1.827c-0.232,0.443-0.57,0.788-1.014,1.033
			c-0.444,0.246-0.929,0.368-1.453,0.368c-0.842,0-1.522-0.27-2.042-0.81S190.696,21.043,190.696,20.027z M191.744,20.027
			c0,0.771,0.168,1.348,0.505,1.73c0.336,0.384,0.759,0.575,1.269,0.575c0.506,0,0.927-0.192,1.263-0.578
			c0.336-0.385,0.504-0.972,0.504-1.762c0-0.743-0.169-1.307-0.507-1.69c-0.338-0.383-0.758-0.575-1.26-0.575
			c-0.51,0-0.933,0.191-1.269,0.572C191.912,18.682,191.744,19.257,191.744,20.027z"/>
		<path d="M196.936,25.341V17.02h0.929v0.782c0.219-0.306,0.467-0.535,0.742-0.688s0.609-0.229,1.003-0.229
			c0.513,0,0.966,0.133,1.359,0.396c0.393,0.265,0.688,0.638,0.889,1.119s0.301,1.009,0.301,1.583c0,0.615-0.11,1.169-0.332,1.662
			c-0.221,0.493-0.542,0.87-0.963,1.133s-0.863,0.394-1.328,0.394c-0.34,0-0.645-0.071-0.914-0.215
			c-0.271-0.144-0.492-0.325-0.666-0.544v2.929H196.936z M197.859,20.062c0,0.774,0.157,1.346,0.471,1.716s0.692,0.556,1.139,0.556
			c0.453,0,0.841-0.191,1.164-0.575c0.322-0.383,0.483-0.977,0.483-1.781c0-0.767-0.157-1.341-0.473-1.722
			c-0.315-0.382-0.691-0.572-1.13-0.572c-0.435,0-0.818,0.203-1.152,0.608C198.027,18.697,197.859,19.287,197.859,20.062z"/>
		<path d="M202.802,15.904v-1.173h1.02v1.173H202.802z M202.802,23.035V17.02h1.02v6.016H202.802z"/>
		<path d="M208.899,21.098l1.053,0.131c-0.166,0.615-0.474,1.093-0.923,1.433s-1.023,0.51-1.722,0.51
			c-0.88,0-1.577-0.271-2.093-0.813s-0.773-1.302-0.773-2.28c0-1.012,0.261-1.797,0.781-2.355c0.521-0.56,1.197-0.839,2.028-0.839
			c0.804,0,1.461,0.274,1.971,0.821c0.51,0.548,0.765,1.318,0.765,2.312c0,0.06-0.002,0.15-0.006,0.271h-4.485
			c0.037,0.661,0.225,1.167,0.561,1.518c0.336,0.352,0.755,0.527,1.258,0.527c0.373,0,0.692-0.099,0.957-0.295
			C208.534,21.842,208.744,21.528,208.899,21.098z M205.552,19.45h3.358c-0.045-0.507-0.174-0.886-0.385-1.139
			c-0.325-0.393-0.746-0.589-1.264-0.589c-0.468,0-0.861,0.156-1.181,0.47S205.586,18.925,205.552,19.45z"/>
		<path d="M214.543,23.035v-0.759c-0.381,0.597-0.942,0.895-1.682,0.895c-0.479,0-0.921-0.132-1.323-0.396
			c-0.401-0.264-0.713-0.633-0.935-1.107c-0.221-0.474-0.331-1.019-0.331-1.634c0-0.601,0.1-1.146,0.3-1.634
			c0.2-0.489,0.501-0.864,0.901-1.125c0.399-0.26,0.848-0.391,1.342-0.391c0.362,0,0.686,0.076,0.969,0.229s0.514,0.353,0.691,0.598
			v-2.979h1.014v8.304H214.543z M211.32,20.033c0,0.771,0.162,1.346,0.487,1.728c0.324,0.382,0.708,0.572,1.149,0.572
			c0.445,0,0.824-0.183,1.136-0.547s0.468-0.92,0.468-1.668c0-0.823-0.159-1.428-0.477-1.813c-0.316-0.385-0.708-0.578-1.172-0.578
			c-0.453,0-0.832,0.186-1.136,0.556S211.32,19.236,211.32,20.033z"/>
		<path d="M220.425,22.293c-0.377,0.321-0.74,0.548-1.09,0.68c-0.35,0.133-0.725,0.198-1.124,0.198
			c-0.661,0-1.169-0.161-1.524-0.484c-0.354-0.322-0.532-0.735-0.532-1.237c0-0.295,0.067-0.563,0.201-0.808
			c0.134-0.243,0.31-0.438,0.527-0.586c0.217-0.147,0.461-0.259,0.733-0.334c0.2-0.053,0.502-0.104,0.906-0.153
			c0.823-0.098,1.429-0.215,1.817-0.351c0.004-0.14,0.006-0.229,0.006-0.267c0-0.415-0.096-0.708-0.289-0.878
			c-0.26-0.23-0.647-0.346-1.161-0.346c-0.479,0-0.833,0.084-1.062,0.252c-0.229,0.169-0.397,0.466-0.507,0.893l-0.997-0.136
			c0.091-0.427,0.24-0.771,0.447-1.034c0.208-0.262,0.508-0.464,0.9-0.605c0.394-0.142,0.848-0.213,1.365-0.213
			c0.514,0,0.931,0.061,1.252,0.182s0.557,0.272,0.708,0.456c0.151,0.183,0.257,0.414,0.317,0.693
			c0.034,0.174,0.051,0.487,0.051,0.94v1.359c0,0.948,0.021,1.547,0.065,1.798c0.043,0.252,0.129,0.492,0.258,0.723h-1.065
			C220.523,22.823,220.455,22.576,220.425,22.293z M220.34,20.017c-0.37,0.15-0.925,0.279-1.665,0.385
			c-0.419,0.061-0.716,0.128-0.889,0.204c-0.174,0.075-0.309,0.186-0.402,0.331c-0.095,0.146-0.142,0.307-0.142,0.484
			c0,0.271,0.103,0.498,0.309,0.68s0.507,0.271,0.903,0.271c0.393,0,0.742-0.086,1.048-0.258c0.306-0.171,0.53-0.406,0.674-0.705
			c0.109-0.229,0.164-0.569,0.164-1.02V20.017z"/>
		<path d="M226.263,23.035v-0.759c-0.381,0.597-0.942,0.895-1.682,0.895c-0.479,0-0.921-0.132-1.323-0.396
			c-0.401-0.264-0.713-0.633-0.935-1.107c-0.221-0.474-0.331-1.019-0.331-1.634c0-0.601,0.1-1.146,0.3-1.634
			c0.2-0.489,0.501-0.864,0.901-1.125c0.399-0.26,0.848-0.391,1.342-0.391c0.362,0,0.686,0.076,0.969,0.229s0.514,0.353,0.691,0.598
			v-2.979h1.014v8.304H226.263z M223.04,20.033c0,0.771,0.162,1.346,0.487,1.728c0.324,0.382,0.708,0.572,1.149,0.572
			c0.445,0,0.824-0.183,1.136-0.547s0.468-0.92,0.468-1.668c0-0.823-0.159-1.428-0.477-1.813c-0.316-0.385-0.708-0.578-1.172-0.578
			c-0.453,0-0.832,0.186-1.136,0.556S223.04,19.236,223.04,20.033z"/>
	</g>
	<g>
		<path d="M115.412,23.035l-3.218-8.304h1.189l2.158,6.032c0.174,0.483,0.319,0.937,0.437,1.359
			c0.128-0.453,0.277-0.906,0.447-1.359l2.243-6.032h1.121l-3.251,8.304H115.412z"/>
		<path d="M123.117,22.293c-0.377,0.321-0.74,0.548-1.09,0.68c-0.35,0.133-0.725,0.198-1.124,0.198
			c-0.661,0-1.169-0.161-1.524-0.484c-0.354-0.322-0.532-0.735-0.532-1.237c0-0.295,0.067-0.563,0.201-0.808
			c0.134-0.243,0.31-0.438,0.527-0.586c0.217-0.147,0.461-0.259,0.733-0.334c0.2-0.053,0.502-0.104,0.906-0.153
			c0.823-0.098,1.429-0.215,1.817-0.351c0.004-0.14,0.006-0.229,0.006-0.267c0-0.415-0.096-0.708-0.289-0.878
			c-0.26-0.23-0.647-0.346-1.161-0.346c-0.479,0-0.833,0.084-1.062,0.252c-0.229,0.169-0.397,0.466-0.507,0.893l-0.997-0.136
			c0.091-0.427,0.24-0.771,0.447-1.034c0.208-0.262,0.508-0.464,0.9-0.605c0.394-0.142,0.848-0.213,1.365-0.213
			c0.514,0,0.931,0.061,1.252,0.182s0.557,0.272,0.708,0.456c0.151,0.183,0.257,0.414,0.317,0.693
			c0.034,0.174,0.051,0.487,0.051,0.94v1.359c0,0.948,0.021,1.547,0.065,1.798c0.043,0.252,0.129,0.492,0.258,0.723h-1.065
			C123.216,22.823,123.147,22.576,123.117,22.293z M123.032,20.017c-0.37,0.15-0.925,0.279-1.665,0.385
			c-0.419,0.061-0.716,0.128-0.889,0.204c-0.174,0.075-0.309,0.186-0.402,0.331c-0.095,0.146-0.142,0.307-0.142,0.484
			c0,0.271,0.103,0.498,0.309,0.68s0.507,0.271,0.903,0.271c0.393,0,0.742-0.086,1.048-0.258c0.306-0.171,0.53-0.406,0.674-0.705
			c0.109-0.229,0.164-0.569,0.164-1.02V20.017z"/>
		<path d="M125.029,23.035v-8.304h1.02v8.304H125.029z"/>
		<path d="M126.658,20.027c0-1.113,0.31-1.938,0.93-2.475c0.517-0.446,1.147-0.669,1.892-0.669c0.827,0,1.503,0.271,2.027,0.813
			c0.525,0.542,0.787,1.291,0.787,2.246c0,0.774-0.115,1.383-0.348,1.827c-0.232,0.443-0.57,0.788-1.014,1.033
			c-0.444,0.246-0.929,0.368-1.453,0.368c-0.842,0-1.522-0.27-2.042-0.81S126.658,21.043,126.658,20.027z M127.706,20.027
			c0,0.771,0.168,1.348,0.505,1.73c0.336,0.384,0.759,0.575,1.269,0.575c0.506,0,0.927-0.192,1.263-0.578
			c0.336-0.385,0.504-0.972,0.504-1.762c0-0.743-0.169-1.307-0.507-1.69c-0.338-0.383-0.758-0.575-1.26-0.575
			c-0.51,0-0.933,0.191-1.269,0.572C127.874,18.682,127.706,19.257,127.706,20.027z"/>
		<path d="M132.886,23.035V17.02h0.918v0.912c0.234-0.427,0.45-0.708,0.648-0.844s0.416-0.204,0.654-0.204
			c0.344,0,0.693,0.109,1.048,0.329l-0.352,0.945c-0.249-0.147-0.498-0.221-0.747-0.221c-0.223,0-0.423,0.067-0.601,0.201
			s-0.304,0.32-0.38,0.558c-0.113,0.362-0.17,0.759-0.17,1.189v3.149H132.886z"/>
	</g>
	<g>
		<path d="M259.952,23.035l-3.218-8.304h1.189l2.158,6.032c0.174,0.483,0.319,0.937,0.437,1.359
			c0.128-0.453,0.277-0.906,0.447-1.359l2.243-6.032h1.121l-3.251,8.304H259.952z"/>
		<path d="M267.657,22.293c-0.377,0.321-0.74,0.548-1.09,0.68c-0.35,0.133-0.725,0.198-1.124,0.198
			c-0.661,0-1.169-0.161-1.524-0.484c-0.354-0.322-0.532-0.735-0.532-1.237c0-0.295,0.067-0.563,0.201-0.808
			c0.134-0.243,0.31-0.438,0.527-0.586c0.217-0.147,0.461-0.259,0.733-0.334c0.2-0.053,0.502-0.104,0.906-0.153
			c0.823-0.098,1.429-0.215,1.817-0.351c0.004-0.14,0.006-0.229,0.006-0.267c0-0.415-0.096-0.708-0.289-0.878
			c-0.26-0.23-0.647-0.346-1.161-0.346c-0.479,0-0.833,0.084-1.062,0.252c-0.229,0.169-0.397,0.466-0.507,0.893l-0.997-0.136
			c0.091-0.427,0.24-0.771,0.447-1.034c0.208-0.262,0.508-0.464,0.9-0.605c0.394-0.142,0.848-0.213,1.365-0.213
			c0.514,0,0.931,0.061,1.252,0.182s0.557,0.272,0.708,0.456c0.151,0.183,0.257,0.414,0.317,0.693
			c0.034,0.174,0.051,0.487,0.051,0.94v1.359c0,0.948,0.021,1.547,0.065,1.798c0.043,0.252,0.129,0.492,0.258,0.723h-1.065
			C267.756,22.823,267.687,22.576,267.657,22.293z M267.572,20.017c-0.37,0.15-0.925,0.279-1.665,0.385
			c-0.419,0.061-0.716,0.128-0.889,0.204c-0.174,0.075-0.309,0.186-0.402,0.331c-0.095,0.146-0.142,0.307-0.142,0.484
			c0,0.271,0.103,0.498,0.309,0.68s0.507,0.271,0.903,0.271c0.393,0,0.742-0.086,1.048-0.258c0.306-0.171,0.53-0.406,0.674-0.705
			c0.109-0.229,0.164-0.569,0.164-1.02V20.017z"/>
		<path d="M269.569,23.035v-8.304h1.02v8.304H269.569z"/>
		<path d="M271.198,20.027c0-1.113,0.31-1.938,0.93-2.475c0.517-0.446,1.147-0.669,1.892-0.669c0.827,0,1.503,0.271,2.027,0.813
			c0.525,0.542,0.787,1.291,0.787,2.246c0,0.774-0.115,1.383-0.348,1.827c-0.232,0.443-0.57,0.788-1.014,1.033
			c-0.444,0.246-0.929,0.368-1.453,0.368c-0.842,0-1.522-0.27-2.042-0.81S271.198,21.043,271.198,20.027z M272.246,20.027
			c0,0.771,0.168,1.348,0.505,1.73c0.336,0.384,0.759,0.575,1.269,0.575c0.506,0,0.927-0.192,1.263-0.578
			c0.336-0.385,0.504-0.972,0.504-1.762c0-0.743-0.169-1.307-0.507-1.69c-0.338-0.383-0.758-0.575-1.26-0.575
			c-0.51,0-0.933,0.191-1.269,0.572C272.414,18.682,272.246,19.257,272.246,20.027z"/>
		<path d="M277.426,23.035V17.02h0.918v0.912c0.234-0.427,0.45-0.708,0.648-0.844s0.416-0.204,0.654-0.204
			c0.344,0,0.693,0.109,1.048,0.329l-0.352,0.945c-0.249-0.147-0.498-0.221-0.747-0.221c-0.223,0-0.423,0.067-0.601,0.201
			s-0.304,0.32-0.38,0.558c-0.113,0.362-0.17,0.759-0.17,1.189v3.149H277.426z"/>
	</g>
	<g>
		<path d="M41.156,55.059c0.377-0.01,0.684-0.111,0.921-0.305s0.395-0.458,0.473-0.796c0.078-0.337,0.12-0.914,0.125-1.731
			c0.005-0.816,0.02-1.354,0.044-1.613c0.044-0.411,0.126-0.741,0.246-0.99c0.119-0.25,0.268-0.449,0.443-0.599
			c0.177-0.148,0.401-0.263,0.675-0.341c0.187-0.049,0.489-0.073,0.91-0.073h0.41v1.151h-0.227c-0.509,0-0.847,0.092-1.013,0.275
			s-0.249,0.593-0.249,1.229c0,1.281-0.027,2.091-0.081,2.429c-0.088,0.523-0.238,0.927-0.451,1.21
			c-0.213,0.284-0.547,0.535-1.001,0.756c0.537,0.225,0.928,0.568,1.17,1.03s0.363,1.219,0.363,2.271
			c0,0.954,0.01,1.521,0.029,1.702c0.039,0.332,0.138,0.564,0.297,0.696c0.159,0.133,0.471,0.198,0.936,0.198h0.227v1.152h-0.41
			c-0.479,0-0.827-0.04-1.042-0.118c-0.313-0.112-0.572-0.294-0.777-0.546s-0.339-0.571-0.399-0.958
			c-0.062-0.386-0.095-1.02-0.1-1.899s-0.047-1.489-0.125-1.827c-0.078-0.337-0.235-0.604-0.473-0.799
			c-0.237-0.196-0.544-0.299-0.921-0.309V55.059z"/>
		<path d="M56.004,56.694l1.298,0.169c-0.142,0.895-0.505,1.596-1.089,2.102c-0.585,0.506-1.303,0.759-2.153,0.759
			c-1.066,0-1.923-0.349-2.571-1.045c-0.647-0.697-0.972-1.696-0.972-2.997c0-0.841,0.14-1.577,0.418-2.208
			c0.279-0.631,0.703-1.104,1.272-1.419c0.57-0.315,1.189-0.474,1.86-0.474c0.846,0,1.538,0.214,2.075,0.643
			c0.538,0.428,0.883,1.035,1.035,1.822l-1.284,0.198c-0.122-0.523-0.339-0.917-0.649-1.181c-0.311-0.265-0.686-0.396-1.126-0.396
			c-0.665,0-1.205,0.238-1.621,0.715c-0.416,0.478-0.623,1.231-0.623,2.264c0,1.046,0.2,1.807,0.602,2.281
			c0.4,0.475,0.924,0.712,1.569,0.712c0.519,0,0.951-0.159,1.299-0.478C55.69,57.844,55.911,57.355,56.004,56.694z"/>
		<path d="M57.94,55.652c0-1.442,0.4-2.511,1.203-3.205c0.67-0.577,1.486-0.866,2.45-0.866c1.07,0,1.946,0.352,2.626,1.053
			c0.68,0.702,1.02,1.672,1.02,2.909c0,1.002-0.15,1.791-0.451,2.365c-0.301,0.575-0.738,1.021-1.313,1.339
			c-0.574,0.317-1.201,0.477-1.881,0.477c-1.091,0-1.973-0.35-2.645-1.049C58.276,57.976,57.94,56.968,57.94,55.652z M59.297,55.652
			c0,0.998,0.218,1.745,0.653,2.241s0.983,0.745,1.644,0.745c0.655,0,1.2-0.25,1.636-0.749c0.435-0.498,0.652-1.259,0.652-2.281
			c0-0.963-0.219-1.693-0.656-2.189s-0.981-0.745-1.632-0.745c-0.66,0-1.208,0.247-1.644,0.741S59.297,54.655,59.297,55.652z"/>
		<path d="M66.758,59.548V48.794h1.32v10.754H66.758z"/>
		<path d="M69.634,55.652c0-1.442,0.4-2.511,1.203-3.205c0.67-0.577,1.486-0.866,2.45-0.866c1.07,0,1.946,0.352,2.626,1.053
			c0.68,0.702,1.02,1.672,1.02,2.909c0,1.002-0.15,1.791-0.451,2.365c-0.301,0.575-0.738,1.021-1.313,1.339
			c-0.574,0.317-1.201,0.477-1.881,0.477c-1.091,0-1.973-0.35-2.645-1.049C69.97,57.976,69.634,56.968,69.634,55.652z M70.99,55.652
			c0,0.998,0.218,1.745,0.653,2.241s0.983,0.745,1.644,0.745c0.655,0,1.2-0.25,1.636-0.749c0.435-0.498,0.652-1.259,0.652-2.281
			c0-0.963-0.219-1.693-0.656-2.189s-0.981-0.745-1.632-0.745c-0.66,0-1.208,0.247-1.644,0.741S70.99,54.655,70.99,55.652z"/>
		<path d="M78.466,59.548v-7.79h1.188v1.181c0.303-0.553,0.583-0.917,0.84-1.093c0.257-0.177,0.539-0.265,0.848-0.265
			c0.444,0,0.897,0.143,1.356,0.426l-0.454,1.225c-0.323-0.19-0.646-0.286-0.969-0.286c-0.288,0-0.548,0.087-0.777,0.261
			c-0.23,0.174-0.394,0.415-0.491,0.723c-0.147,0.47-0.221,0.983-0.221,1.54v4.079H78.466z"/>
		<path d="M92.198,53.261v-1.503h1.504v1.503H92.198z M92.198,59.548v-1.504h1.504v1.504H92.198z"/>
		<path d="M99.944,59.731l0.638-3.125h-1.239v-1.093h1.46l0.542-2.663h-2.002v-1.093h2.223l0.638-3.147h1.101l-0.638,3.147h2.311
			l0.638-3.147h1.108l-0.639,3.147h1.27v1.093h-1.489l-0.551,2.663h2.04v1.093h-2.26l-0.639,3.125h-1.1l0.631-3.125h-2.304
			l-0.639,3.125H99.944z M101.902,55.514h2.304l0.55-2.663h-2.311L101.902,55.514z"/>
		<path d="M108.85,59.548v-6.764h-1.166v-1.026h1.166v-0.829c0-0.523,0.047-0.912,0.14-1.167c0.127-0.342,0.351-0.619,0.671-0.832
			s0.77-0.319,1.347-0.319c0.371,0,0.782,0.044,1.232,0.132l-0.198,1.152c-0.274-0.049-0.533-0.074-0.778-0.074
			c-0.4,0-0.685,0.086-0.851,0.257c-0.166,0.172-0.249,0.492-0.249,0.961v0.72h1.519v1.026h-1.519v6.764H108.85z"/>
		<path d="M112.752,59.548v-6.764h-1.166v-1.026h1.166v-0.829c0-0.523,0.047-0.912,0.14-1.167c0.127-0.342,0.351-0.619,0.671-0.832
			s0.77-0.319,1.347-0.319c0.371,0,0.782,0.044,1.232,0.132l-0.198,1.152c-0.274-0.049-0.533-0.074-0.778-0.074
			c-0.4,0-0.685,0.086-0.851,0.257c-0.166,0.172-0.249,0.492-0.249,0.961v0.72h1.519v1.026h-1.519v6.764H112.752z"/>
		<path d="M116.243,54.244c0-1.271,0.131-2.295,0.393-3.07c0.262-0.774,0.65-1.373,1.167-1.793c0.516-0.421,1.165-0.631,1.947-0.631
			c0.577,0,1.083,0.116,1.519,0.349c0.436,0.231,0.795,0.566,1.078,1.005c0.284,0.438,0.507,0.971,0.668,1.599
			c0.161,0.629,0.242,1.476,0.242,2.542c0,1.262-0.13,2.28-0.389,3.056c-0.26,0.774-0.647,1.374-1.163,1.797
			s-1.168,0.635-1.955,0.635c-1.037,0-1.851-0.372-2.442-1.115C116.599,57.722,116.243,56.264,116.243,54.244z M117.601,54.244
			c0,1.766,0.207,2.94,0.62,3.524c0.413,0.585,0.923,0.877,1.529,0.877s1.116-0.293,1.529-0.88s0.62-1.761,0.62-3.521
			c0-1.771-0.207-2.946-0.62-3.528s-0.928-0.873-1.544-0.873c-0.606,0-1.091,0.257-1.452,0.771
			C117.828,51.269,117.601,52.479,117.601,54.244z"/>
		<path d="M124.599,54.244c0-1.271,0.131-2.295,0.393-3.07c0.262-0.774,0.65-1.373,1.167-1.793c0.516-0.421,1.165-0.631,1.947-0.631
			c0.577,0,1.083,0.116,1.519,0.349c0.436,0.231,0.795,0.566,1.078,1.005c0.284,0.438,0.507,0.971,0.668,1.599
			c0.161,0.629,0.242,1.476,0.242,2.542c0,1.262-0.13,2.28-0.389,3.056c-0.26,0.774-0.647,1.374-1.163,1.797
			s-1.168,0.635-1.955,0.635c-1.037,0-1.851-0.372-2.442-1.115C124.954,57.722,124.599,56.264,124.599,54.244z M125.956,54.244
			c0,1.766,0.207,2.94,0.62,3.524c0.413,0.585,0.923,0.877,1.529,0.877c0.606,0,1.116-0.293,1.529-0.88s0.62-1.761,0.62-3.521
			c0-1.771-0.207-2.946-0.62-3.528s-0.928-0.873-1.544-0.873c-0.606,0-1.091,0.257-1.452,0.771
			C126.184,51.269,125.956,52.479,125.956,54.244z"/>
		<path d="M132.954,54.244c0-1.271,0.131-2.295,0.393-3.07c0.262-0.774,0.65-1.373,1.167-1.793c0.516-0.421,1.165-0.631,1.947-0.631
			c0.577,0,1.083,0.116,1.519,0.349c0.436,0.231,0.795,0.566,1.078,1.005c0.284,0.438,0.507,0.971,0.668,1.599
			c0.161,0.629,0.242,1.476,0.242,2.542c0,1.262-0.13,2.28-0.389,3.056c-0.26,0.774-0.647,1.374-1.163,1.797
			s-1.168,0.635-1.955,0.635c-1.037,0-1.851-0.372-2.442-1.115C133.31,57.722,132.954,56.264,132.954,54.244z M134.311,54.244
			c0,1.766,0.207,2.94,0.62,3.524c0.413,0.585,0.923,0.877,1.529,0.877s1.116-0.293,1.529-0.88s0.62-1.761,0.62-3.521
			c0-1.771-0.207-2.946-0.62-3.528s-0.928-0.873-1.544-0.873c-0.606,0-1.091,0.257-1.452,0.771
			C134.539,51.269,134.311,52.479,134.311,54.244z"/>
		<path d="M141.31,54.244c0-1.271,0.131-2.295,0.393-3.07c0.262-0.774,0.65-1.373,1.167-1.793c0.516-0.421,1.165-0.631,1.947-0.631
			c0.577,0,1.083,0.116,1.519,0.349c0.436,0.231,0.795,0.566,1.078,1.005c0.284,0.438,0.507,0.971,0.668,1.599
			c0.161,0.629,0.242,1.476,0.242,2.542c0,1.262-0.13,2.28-0.389,3.056c-0.26,0.774-0.647,1.374-1.163,1.797
			s-1.168,0.635-1.955,0.635c-1.037,0-1.851-0.372-2.442-1.115C141.665,57.722,141.31,56.264,141.31,54.244z M142.667,54.244
			c0,1.766,0.207,2.94,0.62,3.524c0.413,0.585,0.923,0.877,1.529,0.877s1.116-0.293,1.529-0.88s0.62-1.761,0.62-3.521
			c0-1.771-0.207-2.946-0.62-3.528s-0.928-0.873-1.544-0.873c-0.606,0-1.091,0.257-1.452,0.771
			C142.895,51.269,142.667,52.479,142.667,54.244z"/>
		<path d="M158.725,59.548v-1.504h1.504v1.504c0,0.553-0.098,0.999-0.293,1.339c-0.196,0.34-0.507,0.603-0.932,0.788l-0.367-0.564
			c0.278-0.122,0.484-0.302,0.616-0.539s0.205-0.578,0.22-1.023H158.725z M158.725,53.261v-1.503h1.504v1.503H158.725z"/>
		<path d="M167.043,59.548v-6.764h-1.166v-1.026h1.166v-0.829c0-0.523,0.047-0.912,0.14-1.167c0.127-0.342,0.351-0.619,0.671-0.832
			s0.77-0.319,1.347-0.319c0.371,0,0.782,0.044,1.232,0.132l-0.198,1.152c-0.274-0.049-0.533-0.074-0.778-0.074
			c-0.4,0-0.685,0.086-0.851,0.257c-0.166,0.172-0.249,0.492-0.249,0.961v0.72h1.519v1.026h-1.519v6.764H167.043z"/>
		<path d="M170.41,55.652c0-1.442,0.4-2.511,1.203-3.205c0.67-0.577,1.486-0.866,2.45-0.866c1.07,0,1.946,0.352,2.626,1.053
			c0.68,0.702,1.02,1.672,1.02,2.909c0,1.002-0.15,1.791-0.451,2.365c-0.301,0.575-0.738,1.021-1.313,1.339
			c-0.574,0.317-1.201,0.477-1.881,0.477c-1.091,0-1.973-0.35-2.645-1.049C170.746,57.976,170.41,56.968,170.41,55.652z
			 M171.767,55.652c0,0.998,0.218,1.745,0.653,2.241s0.983,0.745,1.644,0.745c0.655,0,1.2-0.25,1.636-0.749
			c0.435-0.498,0.652-1.259,0.652-2.281c0-0.963-0.219-1.693-0.656-2.189s-0.981-0.745-1.632-0.745c-0.66,0-1.208,0.247-1.644,0.741
			S171.767,54.655,171.767,55.652z"/>
		<path d="M179.257,59.548v-7.79h1.188v1.107c0.572-0.855,1.398-1.284,2.479-1.284c0.47,0,0.901,0.085,1.295,0.253
			c0.394,0.169,0.688,0.391,0.884,0.664c0.195,0.274,0.332,0.6,0.411,0.976c0.049,0.245,0.073,0.673,0.073,1.284v4.79h-1.32v-4.739
			c0-0.537-0.052-0.939-0.154-1.206s-0.285-0.479-0.547-0.639c-0.262-0.158-0.568-0.238-0.92-0.238
			c-0.563,0-1.048,0.179-1.457,0.535c-0.408,0.357-0.612,1.035-0.612,2.032v4.255H179.257z"/>
		<path d="M190.495,58.367l0.191,1.166c-0.372,0.078-0.705,0.117-0.998,0.117c-0.479,0-0.851-0.076-1.115-0.228
			c-0.264-0.151-0.45-0.351-0.558-0.598s-0.161-0.767-0.161-1.559v-4.482h-0.969v-1.026h0.969v-1.93l1.313-0.792v2.722h1.327v1.026
			h-1.327v4.556c0,0.377,0.022,0.619,0.069,0.727c0.046,0.107,0.122,0.193,0.228,0.257c0.104,0.063,0.255,0.095,0.451,0.095
			C190.062,58.418,190.256,58.401,190.495,58.367z"/>
		<path d="M191.272,56.32v-1.328h4.057v1.328H191.272z"/>
		<path d="M197.104,59.548v-6.764h-1.166v-1.026h1.166v-0.829c0-0.523,0.047-0.912,0.14-1.167c0.127-0.342,0.351-0.619,0.671-0.832
			s0.77-0.319,1.347-0.319c0.371,0,0.782,0.044,1.232,0.132l-0.198,1.152c-0.274-0.049-0.533-0.074-0.778-0.074
			c-0.4,0-0.685,0.086-0.851,0.257c-0.166,0.172-0.249,0.492-0.249,0.961v0.72h1.519v1.026h-1.519v6.764H197.104z"/>
		<path d="M206.047,58.587c-0.489,0.416-0.96,0.709-1.412,0.88c-0.453,0.172-0.938,0.257-1.456,0.257
			c-0.856,0-1.514-0.209-1.974-0.627s-0.689-0.952-0.689-1.603c0-0.382,0.087-0.73,0.261-1.046c0.173-0.315,0.4-0.568,0.682-0.759
			s0.598-0.335,0.95-0.433c0.259-0.068,0.65-0.135,1.174-0.198c1.065-0.127,1.851-0.279,2.354-0.455
			c0.005-0.181,0.008-0.296,0.008-0.345c0-0.538-0.125-0.917-0.375-1.137c-0.337-0.299-0.838-0.448-1.503-0.448
			c-0.621,0-1.08,0.109-1.376,0.327s-0.515,0.603-0.656,1.155l-1.291-0.176c0.117-0.553,0.311-0.999,0.579-1.339
			c0.27-0.34,0.658-0.602,1.167-0.785c0.508-0.184,1.098-0.275,1.768-0.275c0.665,0,1.205,0.078,1.621,0.235
			c0.416,0.156,0.722,0.353,0.917,0.59s0.332,0.537,0.411,0.899c0.044,0.225,0.065,0.631,0.065,1.217v1.761
			c0,1.228,0.028,2.004,0.085,2.329c0.056,0.325,0.167,0.638,0.333,0.936h-1.379C206.174,59.274,206.086,58.954,206.047,58.587z
			 M205.936,55.638c-0.479,0.196-1.198,0.362-2.156,0.499c-0.543,0.078-0.927,0.166-1.152,0.264
			c-0.225,0.099-0.398,0.241-0.521,0.43s-0.184,0.397-0.184,0.627c0,0.353,0.134,0.646,0.4,0.881
			c0.266,0.234,0.656,0.352,1.17,0.352c0.508,0,0.961-0.111,1.356-0.334c0.396-0.222,0.688-0.526,0.873-0.913
			c0.142-0.298,0.213-0.738,0.213-1.32V55.638z"/>
		<path d="M209.318,59.548v-7.79h1.181v1.093c0.245-0.382,0.57-0.688,0.977-0.921c0.405-0.232,0.867-0.349,1.386-0.349
			c0.577,0,1.051,0.12,1.42,0.359c0.369,0.24,0.63,0.575,0.781,1.005c0.616-0.909,1.418-1.364,2.406-1.364
			c0.772,0,1.366,0.214,1.782,0.643c0.416,0.428,0.623,1.087,0.623,1.977v5.348h-1.313v-4.907c0-0.528-0.043-0.909-0.129-1.141
			c-0.085-0.232-0.24-0.42-0.466-0.562c-0.225-0.142-0.488-0.213-0.792-0.213c-0.548,0-1.002,0.183-1.364,0.547
			s-0.543,0.947-0.543,1.749v4.526h-1.32v-5.062c0-0.587-0.107-1.027-0.323-1.32c-0.215-0.294-0.567-0.44-1.056-0.44
			c-0.372,0-0.716,0.098-1.031,0.294c-0.315,0.195-0.544,0.481-0.686,0.857c-0.142,0.377-0.213,0.92-0.213,1.629v4.042H209.318z"/>
		<path d="M221.841,50.313v-1.519h1.32v1.519H221.841z M221.841,59.548v-7.79h1.32v7.79H221.841z"/>
		<path d="M225.142,59.548V48.794h1.32v10.754H225.142z"/>
		<path d="M228.45,62.548l-0.146-1.239c0.288,0.078,0.54,0.117,0.755,0.117c0.294,0,0.528-0.049,0.705-0.146
			c0.176-0.098,0.32-0.235,0.433-0.411c0.083-0.132,0.218-0.46,0.403-0.982c0.024-0.074,0.063-0.182,0.117-0.323l-2.956-7.805h1.423
			l1.621,4.511c0.211,0.572,0.398,1.174,0.565,1.805c0.151-0.606,0.332-1.198,0.543-1.775l1.665-4.54h1.32l-2.964,7.922
			c-0.318,0.856-0.564,1.445-0.741,1.769c-0.234,0.435-0.503,0.754-0.807,0.957c-0.303,0.203-0.665,0.305-1.086,0.305
			C229.047,62.71,228.763,62.655,228.45,62.548z"/>
		<path d="M244.735,53.261v-1.503h1.504v1.503H244.735z M244.735,59.548v-1.504h1.504v1.504H244.735z"/>
		<path d="M250.874,59.548l4.131-10.754h1.533l4.401,10.754h-1.622l-1.254-3.257h-4.497l-1.181,3.257H250.874z M253.978,55.132
			h3.646l-1.122-2.979c-0.343-0.904-0.597-1.647-0.763-2.229c-0.138,0.689-0.33,1.374-0.58,2.054L253.978,55.132z"/>
		<path d="M261.893,59.548v-7.79h1.188v1.181c0.303-0.553,0.583-0.917,0.84-1.093c0.257-0.177,0.539-0.265,0.848-0.265
			c0.444,0,0.897,0.143,1.356,0.426l-0.454,1.225c-0.323-0.19-0.646-0.286-0.969-0.286c-0.288,0-0.548,0.087-0.777,0.261
			c-0.23,0.174-0.394,0.415-0.491,0.723c-0.147,0.47-0.221,0.983-0.221,1.54v4.079H261.893z"/>
		<path d="M266.918,50.313v-1.519h1.32v1.519H266.918z M266.918,59.548v-7.79h1.32v7.79H266.918z"/>
		<path d="M275.332,58.587c-0.489,0.416-0.96,0.709-1.412,0.88c-0.453,0.172-0.938,0.257-1.456,0.257
			c-0.856,0-1.514-0.209-1.974-0.627s-0.689-0.952-0.689-1.603c0-0.382,0.087-0.73,0.261-1.046c0.173-0.315,0.4-0.568,0.682-0.759
			s0.598-0.335,0.95-0.433c0.259-0.068,0.65-0.135,1.174-0.198c1.065-0.127,1.851-0.279,2.354-0.455
			c0.005-0.181,0.008-0.296,0.008-0.345c0-0.538-0.125-0.917-0.375-1.137c-0.337-0.299-0.838-0.448-1.503-0.448
			c-0.621,0-1.08,0.109-1.376,0.327s-0.515,0.603-0.656,1.155l-1.291-0.176c0.117-0.553,0.311-0.999,0.579-1.339
			c0.27-0.34,0.658-0.602,1.167-0.785c0.508-0.184,1.098-0.275,1.768-0.275c0.665,0,1.205,0.078,1.621,0.235
			c0.416,0.156,0.722,0.353,0.917,0.59s0.332,0.537,0.411,0.899c0.044,0.225,0.065,0.631,0.065,1.217v1.761
			c0,1.228,0.028,2.004,0.085,2.329c0.056,0.325,0.167,0.638,0.333,0.936h-1.379C275.459,59.274,275.371,58.954,275.332,58.587z
			 M275.222,55.638c-0.479,0.196-1.198,0.362-2.156,0.499c-0.543,0.078-0.927,0.166-1.152,0.264
			c-0.225,0.099-0.398,0.241-0.521,0.43s-0.184,0.397-0.184,0.627c0,0.353,0.134,0.646,0.4,0.881
			c0.266,0.234,0.656,0.352,1.17,0.352c0.508,0,0.961-0.111,1.356-0.334c0.396-0.222,0.688-0.526,0.873-0.913
			c0.142-0.298,0.213-0.738,0.213-1.32V55.638z"/>
		<path d="M278.574,59.548V48.794h1.32v10.754H278.574z"/>
		<path d="M290.634,59.548v-1.504h1.504v1.504c0,0.553-0.098,0.999-0.293,1.339c-0.196,0.34-0.507,0.603-0.932,0.788l-0.367-0.564
			c0.278-0.122,0.484-0.302,0.616-0.539s0.205-0.578,0.22-1.023H290.634z M290.634,53.261v-1.503h1.504v1.503H290.634z"/>
		<path d="M302.238,55.059v1.195c-0.376,0.01-0.684,0.112-0.92,0.309c-0.237,0.195-0.396,0.461-0.474,0.796s-0.12,0.91-0.125,1.728
			c-0.005,0.816-0.02,1.354-0.044,1.613c-0.044,0.416-0.126,0.747-0.245,0.994c-0.12,0.247-0.268,0.445-0.444,0.595
			c-0.176,0.148-0.4,0.263-0.675,0.341c-0.186,0.054-0.489,0.081-0.909,0.081h-0.411v-1.152h0.228c0.509,0,0.846-0.092,1.013-0.274
			c0.166-0.184,0.249-0.596,0.249-1.236c0-1.223,0.021-1.998,0.066-2.325c0.078-0.543,0.234-0.978,0.469-1.303
			c0.235-0.325,0.567-0.578,0.998-0.759c-0.563-0.27-0.959-0.625-1.188-1.067s-0.345-1.189-0.345-2.241
			c0-0.954-0.013-1.523-0.037-1.709c-0.034-0.328-0.131-0.557-0.289-0.687c-0.159-0.129-0.471-0.194-0.936-0.194h-0.228V48.61h0.411
			c0.479,0,0.826,0.039,1.041,0.117c0.313,0.107,0.572,0.289,0.778,0.543c0.205,0.254,0.338,0.575,0.399,0.961
			c0.062,0.387,0.094,1.02,0.099,1.9c0.005,0.88,0.047,1.487,0.125,1.822s0.236,0.601,0.474,0.796
			C301.555,54.946,301.862,55.049,302.238,55.059z"/>
	</g>
	<rect x="49.219" y="46.141" class="st1" width="39.35" height="18.186"/>
	<rect x="96.719" y="46.141" class="st1" width="56.907" height="18.186"/>
	<rect x="163.503" y="46.141" class="st1" width="79.481" height="18.186"/>
	<rect x="250.351" y="46.141" class="st1" width="39.038" height="18.186"/>
	<line class="st1" x1="68.894" y1="46.141" x2="68.894" y2="26.077"/>
	<line class="st1" x1="125.566" y1="46.141" x2="125.566" y2="26.077"/>
	<line class="st1" x1="46.644" y1="26.077" x2="95.152" y2="26.077"/>
	<line class="st1" x1="112.145" y1="26.077" x2="137.166" y2="26.077"/>
	<line class="st1" x1="202.146" y1="46.141" x2="202.146" y2="26.077"/>
	<line class="st1" x1="270.105" y1="46.141" x2="270.105" y2="26.077"/>
	<line class="st1" x1="179.896" y1="26.077" x2="228.405" y2="26.077"/>
	<line class="st1" x1="256.685" y1="26.077" x2="281.706" y2="26.077"/>
	<line class="st1" x1="30.446" y1="66.6" x2="30.446" y2="77.834"/>
	<line class="st1" x1="173.396" y1="66.6" x2="173.396" y2="77.834"/>
	<polyline class="st2" points="12.537,59.548 12.537,112.61 322.624,112.61 322.624,59.548 	"/>
	<line class="st2" x1="167.581" y1="119.508" x2="167.581" y2="112.61"/>
</g>
</svg>