<!-- Generator: Adobe Illustrator 17.0.0, SVG Export Plug-In  -->
<svg version="1.1"
	 xmlns="http://www.w3.org/2000/svg" xmlns:xlink="http://www.w3.org/1999/xlink" xmlns:a="http://ns.adobe.com/AdobeSVGViewerExtensions/3.0/"
	 x="0px" y="0px" width="171.399px" height="18.713px" viewBox="0 0 171.399 18.713"
	 style="enable-background:new 0 0 171.399 18.713;" xml:space="preserve">
<style type="text/css">
	.st0{fill:#F16529;}
</style>
<defs>
</defs>
<g>
	<path class="st0" d="M9.896,15.983c-0.233,0.542-0.553,1.016-0.959,1.422s-0.881,0.726-1.422,0.958
		c-0.541,0.233-1.121,0.35-1.739,0.35H4.481c-0.618,0-1.2-0.116-1.745-0.35c-0.547-0.232-1.022-0.552-1.429-0.958
		s-0.726-0.88-0.958-1.422C0.116,15.441,0,14.861,0,14.244V4.469c0-0.617,0.116-1.197,0.35-1.739
		c0.232-0.542,0.552-1.016,0.958-1.422S2.189,0.582,2.736,0.35C3.281,0.116,3.863,0,4.481,0h1.295c0.618,0,1.198,0.116,1.739,0.35
		c0.541,0.232,1.016,0.552,1.422,0.958s0.726,0.88,0.959,1.422c0.232,0.542,0.349,1.122,0.349,1.739v9.775
		C10.245,14.861,10.129,15.441,9.896,15.983z M8.607,4.469c0-0.406-0.076-0.785-0.229-1.137C8.227,2.981,8.02,2.674,7.757,2.412
		S7.188,1.942,6.836,1.79C6.485,1.638,6.106,1.562,5.7,1.562H4.558c-0.406,0-0.785,0.076-1.136,0.229
		C3.07,1.942,2.762,2.15,2.494,2.412c-0.266,0.262-0.476,0.569-0.628,0.92c-0.152,0.352-0.229,0.73-0.229,1.137v9.775
		c0,0.406,0.076,0.785,0.229,1.137c0.152,0.351,0.362,0.66,0.628,0.926c0.268,0.268,0.576,0.477,0.928,0.629
		c0.351,0.152,0.729,0.229,1.136,0.229H5.7c0.406,0,0.785-0.076,1.136-0.229c0.352-0.152,0.658-0.361,0.921-0.629
		c0.263-0.266,0.47-0.575,0.622-0.926c0.152-0.352,0.229-0.73,0.229-1.137V4.469z"/>
	<path class="st0" d="M18.37,18.459c-0.474,0-0.921-0.089-1.339-0.267c-0.42-0.178-0.783-0.423-1.092-0.736
		c-0.31-0.313-0.555-0.677-0.736-1.092c-0.183-0.415-0.273-0.858-0.273-1.333V6.944h-2.336V5.459h2.336V2.336l1.562-0.254v3.377
		h3.301v1.485h-3.301v8.163c0,0.262,0.049,0.506,0.146,0.73c0.098,0.224,0.23,0.42,0.4,0.59s0.368,0.303,0.597,0.4
		c0.229,0.097,0.474,0.146,0.736,0.146h1.422v1.485H18.37z"/>
	<path class="st0" d="M26.482,6.944c-0.313,0-0.607,0.06-0.883,0.178c-0.274,0.118-0.514,0.279-0.717,0.482S24.52,8.047,24.4,8.322
		c-0.119,0.274-0.178,0.568-0.178,0.882v9.255h-1.562v-13h0.521l0.851,1.32c0.355-0.482,0.802-0.865,1.339-1.148
		c0.538-0.284,1.124-0.426,1.759-0.426h0.914v1.739H26.482z"/>
	<path class="st0" d="M38.512,16.377c-0.199,0.465-0.473,0.871-0.819,1.219s-0.753,0.62-1.219,0.818
		c-0.466,0.199-0.96,0.299-1.485,0.299h-1.041c-0.525,0-1.02-0.1-1.485-0.299c-0.466-0.198-0.872-0.471-1.219-0.818
		s-0.62-0.754-0.819-1.219c-0.198-0.465-0.298-0.961-0.298-1.485V9.026c0-0.524,0.1-1.021,0.298-1.485
		c0.199-0.465,0.473-0.871,0.819-1.219s0.753-0.62,1.219-0.818c0.466-0.199,0.96-0.299,1.485-0.299h1.041
		c0.525,0,1.02,0.1,1.485,0.299c0.466,0.198,0.872,0.471,1.219,0.818s0.62,0.754,0.819,1.219c0.198,0.465,0.298,0.961,0.298,1.485
		v5.865C38.81,15.416,38.71,15.912,38.512,16.377z M37.248,8.938c0-0.313-0.059-0.607-0.178-0.883
		c-0.119-0.274-0.279-0.514-0.482-0.717s-0.442-0.363-0.717-0.482c-0.275-0.119-0.57-0.178-0.883-0.178h-1.041
		c-0.313,0-0.607,0.059-0.883,0.178c-0.274,0.119-0.514,0.279-0.717,0.482s-0.363,0.442-0.482,0.717
		c-0.119,0.275-0.178,0.57-0.178,0.883v6.043c0,0.313,0.059,0.607,0.178,0.883c0.119,0.274,0.279,0.514,0.482,0.717
		s0.442,0.363,0.717,0.482c0.275,0.119,0.57,0.178,0.883,0.178h1.041c0.313,0,0.607-0.059,0.883-0.178
		c0.274-0.119,0.514-0.279,0.717-0.482s0.363-0.442,0.482-0.717c0.119-0.275,0.178-0.57,0.178-0.883V8.938z"/>
	<path class="st0" d="M50.87,15.158c0,0.525-0.106,1.005-0.317,1.441c-0.211,0.436-0.5,0.811-0.863,1.123s-0.785,0.557-1.264,0.73
		c-0.478,0.173-0.979,0.26-1.504,0.26h-1.041c-0.525,0-1.026-0.1-1.504-0.299c-0.479-0.198-0.897-0.471-1.258-0.818
		c-0.359-0.348-0.646-0.754-0.863-1.219c-0.215-0.465-0.323-0.961-0.323-1.485v-0.521l1.562-0.254v0.863
		c0,0.313,0.065,0.607,0.197,0.883c0.131,0.274,0.307,0.514,0.526,0.717s0.474,0.363,0.762,0.482s0.589,0.178,0.901,0.178h1.041
		c0.313,0,0.613-0.047,0.901-0.14s0.544-0.227,0.769-0.399c0.224-0.174,0.401-0.383,0.533-0.629
		c0.131-0.246,0.196-0.525,0.196-0.838c0-0.465-0.102-0.846-0.305-1.143s-0.472-0.544-0.806-0.742
		c-0.335-0.199-0.716-0.364-1.143-0.496c-0.428-0.131-0.865-0.262-1.314-0.393c-0.449-0.132-0.887-0.281-1.314-0.451
		c-0.427-0.17-0.808-0.392-1.143-0.666c-0.334-0.275-0.603-0.621-0.806-1.035s-0.305-0.932-0.305-1.549
		c0-0.525,0.102-1.005,0.305-1.441c0.203-0.436,0.478-0.811,0.825-1.123s0.751-0.557,1.213-0.73c0.461-0.173,0.953-0.26,1.479-0.26
		h0.914c0.525,0,1.02,0.1,1.485,0.299c0.466,0.198,0.872,0.471,1.219,0.818s0.62,0.754,0.819,1.219
		c0.198,0.465,0.298,0.961,0.298,1.485v0.051l-1.562,0.254V8.938c0-0.313-0.059-0.607-0.178-0.883
		c-0.119-0.274-0.279-0.514-0.482-0.717s-0.442-0.363-0.717-0.482c-0.275-0.119-0.57-0.178-0.883-0.178h-0.914
		c-0.313,0-0.607,0.047-0.883,0.14c-0.274,0.093-0.514,0.227-0.717,0.399c-0.203,0.174-0.363,0.383-0.482,0.629
		s-0.178,0.525-0.178,0.838c0,0.449,0.102,0.814,0.305,1.098c0.203,0.284,0.472,0.523,0.807,0.718
		c0.334,0.194,0.715,0.357,1.143,0.489c0.427,0.131,0.863,0.266,1.307,0.406c0.445,0.139,0.881,0.298,1.309,0.476
		c0.427,0.178,0.808,0.406,1.143,0.686c0.334,0.279,0.603,0.628,0.806,1.048C50.769,14.021,50.87,14.541,50.87,15.158z"/>
	<path class="st0" d="M68.23,16.377c-0.198,0.465-0.471,0.871-0.818,1.219s-0.754,0.62-1.219,0.818
		c-0.465,0.199-0.961,0.299-1.485,0.299h-1.041c-0.524,0-1.021-0.1-1.485-0.299c-0.465-0.198-0.871-0.471-1.219-0.818
		s-0.62-0.754-0.818-1.219c-0.199-0.465-0.299-0.961-0.299-1.485V9.026c0-0.524,0.1-1.021,0.299-1.485
		c0.198-0.465,0.471-0.871,0.818-1.219s0.754-0.62,1.219-0.818c0.465-0.199,0.961-0.299,1.485-0.299h1.041
		c0.524,0,1.021,0.1,1.485,0.299c0.465,0.198,0.871,0.471,1.219,0.818s0.62,0.754,0.818,1.219c0.199,0.465,0.299,0.961,0.299,1.485
		v3.06h-7.122v2.895c0,0.313,0.06,0.607,0.178,0.883c0.118,0.274,0.279,0.514,0.482,0.717s0.442,0.363,0.718,0.482
		c0.274,0.119,0.568,0.178,0.882,0.178h1.041c0.313,0,0.607-0.059,0.882-0.178c0.275-0.119,0.515-0.279,0.718-0.482
		s0.364-0.442,0.482-0.717c0.118-0.275,0.178-0.57,0.178-0.883v-0.863l1.562,0.254v0.521C68.529,15.416,68.43,15.912,68.23,16.377z
		 M66.968,8.938c0-0.313-0.06-0.607-0.178-0.883c-0.118-0.274-0.279-0.514-0.482-0.717s-0.442-0.363-0.718-0.482
		c-0.274-0.119-0.568-0.178-0.882-0.178h-1.041c-0.313,0-0.607,0.059-0.882,0.178c-0.275,0.119-0.515,0.279-0.718,0.482
		s-0.364,0.442-0.482,0.717c-0.118,0.275-0.178,0.57-0.178,0.883v1.93h5.561V8.938z"/>
	<path class="st0" d="M80.59,15.158c0,0.525-0.105,1.005-0.317,1.441c-0.212,0.436-0.499,0.811-0.863,1.123s-0.785,0.557-1.263,0.73
		c-0.479,0.173-0.98,0.26-1.505,0.26h-1.041c-0.524,0-1.026-0.1-1.505-0.299c-0.478-0.198-0.896-0.471-1.256-0.818
		c-0.36-0.348-0.648-0.754-0.863-1.219c-0.217-0.465-0.324-0.961-0.324-1.485v-0.521l1.562-0.254v0.863
		c0,0.313,0.065,0.607,0.196,0.883c0.132,0.274,0.307,0.514,0.527,0.717s0.475,0.363,0.762,0.482s0.588,0.178,0.901,0.178h1.041
		c0.313,0,0.614-0.047,0.901-0.14s0.544-0.227,0.768-0.399c0.225-0.174,0.402-0.383,0.533-0.629
		c0.132-0.246,0.197-0.525,0.197-0.838c0-0.465-0.102-0.846-0.305-1.143s-0.472-0.544-0.807-0.742
		c-0.334-0.199-0.715-0.364-1.143-0.496c-0.427-0.131-0.865-0.262-1.313-0.393c-0.448-0.132-0.887-0.281-1.313-0.451
		c-0.428-0.17-0.809-0.392-1.143-0.666c-0.335-0.275-0.604-0.621-0.807-1.035s-0.305-0.932-0.305-1.549
		c0-0.525,0.102-1.005,0.305-1.441c0.203-0.436,0.479-0.811,0.825-1.123s0.751-0.557,1.212-0.73c0.462-0.173,0.955-0.26,1.479-0.26
		h0.914c0.524,0,1.021,0.1,1.485,0.299c0.465,0.198,0.871,0.471,1.219,0.818s0.62,0.754,0.818,1.219
		c0.199,0.465,0.299,0.961,0.299,1.485v0.051l-1.562,0.254V8.938c0-0.313-0.06-0.607-0.178-0.883
		c-0.118-0.274-0.279-0.514-0.482-0.717s-0.442-0.363-0.718-0.482c-0.274-0.119-0.568-0.178-0.882-0.178h-0.914
		c-0.313,0-0.607,0.047-0.882,0.14c-0.275,0.093-0.515,0.227-0.718,0.399c-0.203,0.174-0.364,0.383-0.482,0.629
		s-0.178,0.525-0.178,0.838c0,0.449,0.102,0.814,0.305,1.098c0.203,0.284,0.472,0.523,0.806,0.718
		c0.335,0.194,0.716,0.357,1.143,0.489c0.428,0.131,0.863,0.266,1.309,0.406c0.443,0.139,0.88,0.298,1.307,0.476
		c0.428,0.178,0.809,0.406,1.143,0.686c0.335,0.279,0.604,0.628,0.807,1.048C80.488,14.021,80.59,14.541,80.59,15.158z"/>
	<path class="st0" d="M88.321,18.459c-0.474,0-0.921-0.089-1.339-0.267c-0.42-0.178-0.783-0.423-1.092-0.736
		c-0.31-0.313-0.555-0.677-0.736-1.092c-0.183-0.415-0.273-0.858-0.273-1.333V6.944h-2.336V5.459h2.336V2.336l1.562-0.254v3.377
		h3.301v1.485h-3.301v8.163c0,0.262,0.049,0.506,0.146,0.73c0.098,0.224,0.23,0.42,0.4,0.59s0.368,0.303,0.597,0.4
		c0.229,0.097,0.474,0.146,0.736,0.146h1.422v1.485H88.321z"/>
	<path class="st0" d="M93.006,2.336V0.254h1.815v2.082H93.006z M93.133,18.459v-13h1.562v13H93.133z"/>
	<path class="st0" d="M98.858,18.459V0.254h1.562v18.205H98.858z"/>
	<path class="st0" d="M112.449,16.377c-0.199,0.465-0.473,0.871-0.819,1.219s-0.753,0.62-1.219,0.818
		c-0.466,0.199-0.96,0.299-1.485,0.299h-1.041c-0.525,0-1.02-0.1-1.485-0.299c-0.466-0.198-0.872-0.471-1.219-0.818
		s-0.62-0.754-0.819-1.219c-0.198-0.465-0.298-0.961-0.298-1.485V9.026c0-0.524,0.1-1.021,0.298-1.485
		c0.199-0.465,0.473-0.871,0.819-1.219s0.753-0.62,1.219-0.818c0.466-0.199,0.96-0.299,1.485-0.299h1.041
		c0.525,0,1.02,0.1,1.485,0.299c0.466,0.198,0.872,0.471,1.219,0.818s0.62,0.754,0.819,1.219c0.198,0.465,0.298,0.961,0.298,1.485
		v5.865C112.747,15.416,112.647,15.912,112.449,16.377z M111.186,8.938c0-0.313-0.059-0.607-0.178-0.883
		c-0.119-0.274-0.279-0.514-0.482-0.717s-0.442-0.363-0.717-0.482c-0.275-0.119-0.57-0.178-0.883-0.178h-1.041
		c-0.313,0-0.607,0.059-0.883,0.178c-0.274,0.119-0.514,0.279-0.717,0.482s-0.363,0.442-0.482,0.717
		c-0.119,0.275-0.178,0.57-0.178,0.883v6.043c0,0.313,0.059,0.607,0.178,0.883c0.119,0.274,0.279,0.514,0.482,0.717
		s0.442,0.363,0.717,0.482c0.275,0.119,0.57,0.178,0.883,0.178h1.041c0.313,0,0.607-0.059,0.883-0.178
		c0.274-0.119,0.514-0.279,0.717-0.482s0.363-0.442,0.482-0.717c0.119-0.275,0.178-0.57,0.178-0.883V8.938z"/>
	<path class="st0" d="M124.808,15.158c0,0.525-0.106,1.005-0.317,1.441c-0.211,0.436-0.5,0.811-0.863,1.123s-0.785,0.557-1.264,0.73
		c-0.478,0.173-0.979,0.26-1.504,0.26h-1.041c-0.525,0-1.026-0.1-1.504-0.299c-0.479-0.198-0.897-0.471-1.258-0.818
		c-0.359-0.348-0.646-0.754-0.863-1.219c-0.215-0.465-0.323-0.961-0.323-1.485v-0.521l1.562-0.254v0.863
		c0,0.313,0.065,0.607,0.197,0.883c0.131,0.274,0.307,0.514,0.526,0.717s0.474,0.363,0.762,0.482s0.589,0.178,0.901,0.178h1.041
		c0.313,0,0.613-0.047,0.901-0.14s0.544-0.227,0.769-0.399c0.224-0.174,0.401-0.383,0.533-0.629
		c0.131-0.246,0.196-0.525,0.196-0.838c0-0.465-0.102-0.846-0.305-1.143s-0.472-0.544-0.806-0.742
		c-0.335-0.199-0.716-0.364-1.143-0.496c-0.428-0.131-0.865-0.262-1.314-0.393c-0.449-0.132-0.887-0.281-1.314-0.451
		c-0.427-0.17-0.808-0.392-1.143-0.666c-0.334-0.275-0.603-0.621-0.806-1.035s-0.305-0.932-0.305-1.549
		c0-0.525,0.102-1.005,0.305-1.441c0.203-0.436,0.478-0.811,0.825-1.123s0.751-0.557,1.213-0.73c0.461-0.173,0.953-0.26,1.479-0.26
		h0.914c0.525,0,1.02,0.1,1.485,0.299c0.466,0.198,0.872,0.471,1.219,0.818s0.62,0.754,0.819,1.219
		c0.198,0.465,0.298,0.961,0.298,1.485v0.051l-1.562,0.254V8.938c0-0.313-0.059-0.607-0.178-0.883
		c-0.119-0.274-0.279-0.514-0.482-0.717s-0.442-0.363-0.717-0.482c-0.275-0.119-0.57-0.178-0.883-0.178h-0.914
		c-0.313,0-0.607,0.047-0.883,0.14c-0.274,0.093-0.514,0.227-0.717,0.399c-0.203,0.174-0.363,0.383-0.482,0.629
		s-0.178,0.525-0.178,0.838c0,0.449,0.102,0.814,0.305,1.098c0.203,0.284,0.472,0.523,0.807,0.718
		c0.334,0.194,0.715,0.357,1.143,0.489c0.427,0.131,0.863,0.266,1.307,0.406c0.445,0.139,0.881,0.298,1.309,0.476
		c0.427,0.178,0.808,0.406,1.143,0.686c0.334,0.279,0.603,0.628,0.806,1.048C124.706,14.021,124.808,14.541,124.808,15.158z"/>
	<path class="st0" d="M143.934,15.983c-0.233,0.542-0.553,1.016-0.959,1.422s-0.881,0.726-1.422,0.958
		c-0.541,0.233-1.121,0.35-1.739,0.35h-1.295c-0.618,0-1.2-0.116-1.745-0.35c-0.547-0.232-1.022-0.552-1.429-0.958
		s-0.726-0.88-0.958-1.422c-0.233-0.542-0.35-1.122-0.35-1.739V4.469c0-0.617,0.116-1.197,0.35-1.739
		c0.232-0.542,0.552-1.016,0.958-1.422s0.882-0.726,1.429-0.958C137.318,0.116,137.9,0,138.519,0h1.295
		c0.618,0,1.198,0.116,1.739,0.35c0.541,0.232,1.016,0.552,1.422,0.958s0.726,0.88,0.959,1.422c0.232,0.542,0.349,1.122,0.349,1.739
		v0.736l-1.638,0.254v-0.99c0-0.406-0.076-0.785-0.229-1.137c-0.152-0.351-0.359-0.658-0.622-0.92s-0.569-0.47-0.921-0.622
		c-0.351-0.152-0.729-0.229-1.136-0.229h-1.143c-0.406,0-0.785,0.076-1.136,0.229c-0.352,0.152-0.66,0.36-0.928,0.622
		c-0.266,0.262-0.476,0.569-0.628,0.92c-0.152,0.352-0.229,0.73-0.229,1.137v9.775c0,0.406,0.076,0.785,0.229,1.137
		c0.152,0.351,0.362,0.66,0.628,0.926c0.268,0.268,0.576,0.477,0.928,0.629c0.351,0.152,0.729,0.229,1.136,0.229h1.143
		c0.406,0,0.785-0.076,1.136-0.229c0.352-0.152,0.658-0.361,0.921-0.629c0.263-0.266,0.47-0.575,0.622-0.926
		c0.152-0.352,0.229-0.73,0.229-1.137v-0.99l1.638,0.267v0.724C144.282,14.861,144.166,15.441,143.934,15.983z"/>
	<path class="st0" d="M157.904,14.244c0,0.617-0.125,1.197-0.375,1.739c-0.249,0.542-0.584,1.016-1.002,1.422
		c-0.42,0.406-0.906,0.726-1.461,0.958c-0.554,0.233-1.141,0.35-1.758,0.35h-1.308c-0.618,0-1.204-0.116-1.759-0.35
		c-0.554-0.232-1.041-0.552-1.459-0.958c-0.42-0.406-0.754-0.88-1.004-1.422c-0.249-0.542-0.374-1.122-0.374-1.739v-0.724
		l1.638-0.267v0.99c0,0.406,0.082,0.785,0.248,1.137c0.164,0.351,0.387,0.66,0.666,0.926c0.279,0.268,0.604,0.477,0.971,0.629
		c0.369,0.152,0.756,0.229,1.162,0.229h1.143c0.406,0,0.791-0.076,1.155-0.229s0.686-0.361,0.965-0.629
		c0.279-0.266,0.501-0.575,0.667-0.926c0.164-0.352,0.247-0.73,0.247-1.137v-0.546c0-0.626-0.122-1.147-0.368-1.562
		s-0.571-0.768-0.978-1.061c-0.406-0.291-0.865-0.539-1.378-0.742c-0.512-0.203-1.039-0.406-1.58-0.609s-1.068-0.428-1.58-0.673
		c-0.513-0.245-0.972-0.552-1.378-0.921c-0.406-0.367-0.731-0.818-0.978-1.352s-0.368-1.189-0.368-1.968V4.469
		c0-0.617,0.116-1.197,0.349-1.739c0.233-0.542,0.553-1.016,0.959-1.422s0.883-0.726,1.428-0.958c0.547-0.233,1.129-0.35,1.746-0.35
		h1.168c0.617,0,1.197,0.116,1.739,0.35c0.542,0.232,1.016,0.552,1.422,0.958s0.726,0.88,0.958,1.422
		c0.233,0.542,0.35,1.122,0.35,1.739v0.47l-1.638,0.267V4.469c0-0.406-0.076-0.785-0.229-1.137c-0.152-0.351-0.36-0.658-0.622-0.92
		s-0.569-0.47-0.92-0.622c-0.352-0.152-0.73-0.229-1.137-0.229h-1.016c-0.406,0-0.785,0.076-1.137,0.229
		c-0.351,0.152-0.66,0.36-0.926,0.622c-0.268,0.262-0.477,0.569-0.629,0.92c-0.152,0.352-0.229,0.73-0.229,1.137v0.343
		c0,0.584,0.123,1.075,0.368,1.473s0.571,0.738,0.978,1.022c0.406,0.283,0.865,0.528,1.377,0.736
		c0.513,0.207,1.039,0.418,1.581,0.635c0.542,0.215,1.068,0.452,1.581,0.711c0.512,0.258,0.971,0.575,1.377,0.951
		c0.406,0.377,0.732,0.836,0.978,1.378s0.368,1.202,0.368,1.98V14.244z"/>
	<path class="st0" d="M171.399,14.244c0,0.617-0.125,1.197-0.374,1.739c-0.25,0.542-0.584,1.016-1.004,1.422
		c-0.418,0.406-0.905,0.726-1.459,0.958c-0.555,0.233-1.141,0.35-1.759,0.35h-1.308c-0.617,0-1.204-0.116-1.758-0.35
		c-0.555-0.232-1.041-0.552-1.461-0.958c-0.418-0.406-0.753-0.88-1.002-1.422c-0.25-0.542-0.375-1.122-0.375-1.739v-0.724
		l1.638-0.267v0.99c0,0.406,0.083,0.785,0.247,1.137c0.166,0.351,0.388,0.66,0.667,0.926c0.279,0.268,0.603,0.477,0.972,0.629
		c0.367,0.152,0.755,0.229,1.161,0.229h1.143c0.406,0,0.792-0.076,1.155-0.229s0.686-0.361,0.965-0.629
		c0.279-0.266,0.502-0.575,0.666-0.926c0.166-0.352,0.248-0.73,0.248-1.137v-0.546c0-0.626-0.123-1.147-0.368-1.562
		s-0.571-0.768-0.978-1.061c-0.406-0.291-0.865-0.539-1.377-0.742c-0.513-0.203-1.039-0.406-1.581-0.609s-1.068-0.428-1.581-0.673
		c-0.512-0.245-0.971-0.552-1.377-0.921c-0.406-0.367-0.732-0.818-0.978-1.352s-0.368-1.189-0.368-1.968V4.469
		c0-0.617,0.116-1.197,0.35-1.739c0.232-0.542,0.552-1.016,0.958-1.422s0.882-0.726,1.429-0.958c0.545-0.233,1.127-0.35,1.745-0.35
		h1.168c0.618,0,1.198,0.116,1.739,0.35c0.541,0.232,1.016,0.552,1.422,0.958s0.726,0.88,0.959,1.422
		c0.232,0.542,0.349,1.122,0.349,1.739v0.47l-1.638,0.267V4.469c0-0.406-0.076-0.785-0.229-1.137
		c-0.152-0.351-0.359-0.658-0.622-0.92s-0.569-0.47-0.921-0.622c-0.351-0.152-0.729-0.229-1.136-0.229h-1.016
		c-0.406,0-0.785,0.076-1.136,0.229c-0.352,0.152-0.66,0.36-0.928,0.622c-0.266,0.262-0.476,0.569-0.628,0.92
		c-0.152,0.352-0.229,0.73-0.229,1.137v0.343c0,0.584,0.122,1.075,0.368,1.473s0.571,0.738,0.978,1.022
		c0.406,0.283,0.865,0.528,1.378,0.736c0.512,0.207,1.039,0.418,1.58,0.635c0.541,0.215,1.068,0.452,1.58,0.711
		c0.513,0.258,0.972,0.575,1.378,0.951c0.406,0.377,0.731,0.836,0.978,1.378s0.368,1.202,0.368,1.98V14.244z"/>
</g>
</svg>