<!-- Generator: Adobe Illustrator 17.0.0, SVG Export Plug-In  -->
<svg version="1.1"
	 xmlns="http://www.w3.org/2000/svg" xmlns:xlink="http://www.w3.org/1999/xlink" xmlns:a="http://ns.adobe.com/AdobeSVGViewerExtensions/3.0/"
	 x="0px" y="0px" width="267.3px" height="23.664px" viewBox="0 0 267.3 23.664" style="enable-background:new 0 0 267.3 23.664;"
	 xml:space="preserve">
<style type="text/css">
	.st0{fill:#F16529;}
</style>
<defs>
</defs>
<g>
	<path class="st0" d="M0,18.459V0.254h1.638v16.644h6.97v1.562H0z"/>
	<path class="st0" d="M11.083,2.336V0.254h1.815v2.082H11.083z M11.21,18.459v-13h1.562v13H11.21z"/>
	<path class="st0" d="M24.8,16.377c-0.198,0.465-0.471,0.871-0.818,1.219s-0.754,0.62-1.219,0.818
		c-0.465,0.199-0.961,0.299-1.485,0.299h-1.041c-0.524,0-1.021-0.1-1.485-0.299c-0.465-0.198-0.871-0.471-1.219-0.818
		s-0.62-0.754-0.818-1.219c-0.199-0.465-0.299-0.961-0.299-1.485V0.254h1.562v6.297c0.355-0.424,0.782-0.754,1.282-0.99
		s1.041-0.355,1.625-0.355h0.394c0.524,0,1.021,0.1,1.485,0.299c0.465,0.198,0.871,0.471,1.219,0.818s0.62,0.754,0.818,1.219
		c0.199,0.465,0.299,0.961,0.299,1.485v5.865C25.099,15.416,24.999,15.912,24.8,16.377z M23.537,8.938
		c0-0.313-0.06-0.607-0.178-0.883c-0.118-0.274-0.279-0.514-0.482-0.717s-0.442-0.363-0.718-0.482
		c-0.274-0.119-0.568-0.178-0.882-0.178h-1.041c-0.313,0-0.607,0.059-0.882,0.178c-0.275,0.119-0.515,0.279-0.718,0.482
		s-0.364,0.442-0.482,0.717c-0.118,0.275-0.178,0.57-0.178,0.883v6.043c0,0.313,0.06,0.607,0.178,0.883
		c0.118,0.274,0.279,0.514,0.482,0.717s0.442,0.363,0.718,0.482c0.274,0.119,0.568,0.178,0.882,0.178h1.041
		c0.313,0,0.607-0.059,0.882-0.178c0.275-0.119,0.515-0.279,0.718-0.482s0.364-0.442,0.482-0.717
		c0.118-0.275,0.178-0.57,0.178-0.883V8.938z"/>
	<path class="st0" d="M32.043,6.944c-0.313,0-0.607,0.06-0.882,0.178c-0.275,0.118-0.515,0.279-0.718,0.482
		s-0.364,0.442-0.482,0.718c-0.118,0.274-0.178,0.568-0.178,0.882v9.255h-1.562v-13h0.521l0.851,1.32
		c0.355-0.482,0.802-0.865,1.34-1.148c0.537-0.284,1.123-0.426,1.758-0.426h0.914v1.739H32.043z"/>
	<path class="st0" d="M44.071,16.377c-0.198,0.465-0.471,0.871-0.818,1.219s-0.754,0.62-1.219,0.818
		c-0.465,0.199-0.961,0.299-1.485,0.299h-1.041c-0.524,0-1.021-0.1-1.485-0.299c-0.465-0.198-0.871-0.471-1.219-0.818
		s-0.62-0.754-0.818-1.219c-0.199-0.465-0.299-0.961-0.299-1.485V9.026c0-0.524,0.1-1.021,0.299-1.485
		c0.198-0.465,0.471-0.871,0.818-1.219s0.754-0.62,1.219-0.818c0.465-0.199,0.961-0.299,1.485-0.299h1.041
		c0.524,0,1.021,0.1,1.485,0.299c0.465,0.198,0.871,0.471,1.219,0.818s0.62,0.754,0.818,1.219c0.199,0.465,0.299,0.961,0.299,1.485
		v3.06h-7.122v2.895c0,0.313,0.06,0.607,0.178,0.883c0.118,0.274,0.279,0.514,0.482,0.717s0.442,0.363,0.718,0.482
		c0.274,0.119,0.568,0.178,0.882,0.178h1.041c0.313,0,0.607-0.059,0.882-0.178c0.275-0.119,0.515-0.279,0.718-0.482
		s0.364-0.442,0.482-0.717c0.118-0.275,0.178-0.57,0.178-0.883v-0.863l1.562,0.254v0.521C44.37,15.416,44.271,15.912,44.071,16.377z
		 M42.809,8.938c0-0.313-0.06-0.607-0.178-0.883c-0.118-0.274-0.279-0.514-0.482-0.717s-0.442-0.363-0.718-0.482
		c-0.274-0.119-0.568-0.178-0.882-0.178h-1.041c-0.313,0-0.607,0.059-0.882,0.178c-0.275,0.119-0.515,0.279-0.718,0.482
		s-0.364,0.442-0.482,0.717c-0.118,0.275-0.178,0.57-0.178,0.883v1.93h5.561V8.938z"/>
	<path class="st0" d="M51.314,6.944c-0.313,0-0.607,0.06-0.882,0.178c-0.275,0.118-0.515,0.279-0.718,0.482
		s-0.364,0.442-0.482,0.718c-0.118,0.274-0.178,0.568-0.178,0.882v9.255h-1.562v-13h0.521l0.851,1.32
		c0.355-0.482,0.802-0.865,1.34-1.148c0.537-0.284,1.123-0.426,1.758-0.426h0.914v1.739H51.314z"/>
	<path class="st0" d="M55.605,3.377h-1.168l2.082-3.123h2.603L55.605,3.377z M55.479,18.459v-13h1.562v13H55.479z"/>
	<path class="st0" d="M68.847,18.459l-0.863-1.295c-0.355,0.465-0.8,0.84-1.333,1.123c-0.533,0.284-1.117,0.426-1.752,0.426h-0.394
		c-0.525,0-1.02-0.1-1.485-0.299c-0.466-0.198-0.872-0.471-1.219-0.818s-0.62-0.754-0.819-1.219
		c-0.198-0.465-0.298-0.961-0.298-1.485v-0.127c0-0.524,0.1-1.021,0.298-1.485c0.199-0.465,0.473-0.871,0.819-1.219
		s0.753-0.62,1.219-0.818c0.466-0.199,0.96-0.299,1.485-0.299h3.301V8.938c0-0.313-0.059-0.607-0.178-0.883
		c-0.119-0.274-0.279-0.514-0.482-0.717s-0.442-0.363-0.717-0.482c-0.275-0.119-0.57-0.178-0.883-0.178h-0.914
		c-0.313,0-0.607,0.059-0.883,0.178c-0.274,0.119-0.514,0.279-0.717,0.482S62.669,7.78,62.55,8.055
		c-0.119,0.275-0.178,0.57-0.178,0.883v0.47l-1.562-0.254V9.026c0-0.524,0.1-1.021,0.298-1.485c0.199-0.465,0.473-0.871,0.819-1.219
		s0.753-0.62,1.219-0.818c0.466-0.199,0.96-0.299,1.485-0.299h0.914c0.525,0,1.02,0.1,1.485,0.299
		c0.466,0.198,0.872,0.471,1.219,0.818s0.62,0.754,0.819,1.219c0.198,0.465,0.298,0.961,0.298,1.485v9.433H68.847z M67.806,12.162
		h-3.301c-0.313,0-0.607,0.059-0.883,0.178c-0.274,0.119-0.514,0.281-0.717,0.488c-0.203,0.208-0.363,0.449-0.482,0.725
		c-0.119,0.274-0.178,0.568-0.178,0.882v0.546c0,0.313,0.059,0.607,0.178,0.883c0.119,0.274,0.279,0.514,0.482,0.717
		s0.442,0.363,0.717,0.482c0.275,0.119,0.57,0.178,0.883,0.178h1.041c0.313,0,0.607-0.059,0.883-0.178
		c0.274-0.119,0.514-0.279,0.717-0.482s0.363-0.442,0.482-0.717c0.119-0.275,0.178-0.57,0.178-0.883V12.162z"/>
	<path class="st0" d="M81.428,15.158c0,0.525-0.106,1.005-0.317,1.441c-0.211,0.436-0.5,0.811-0.863,1.123s-0.785,0.557-1.264,0.73
		c-0.478,0.173-0.979,0.26-1.504,0.26h-1.041c-0.525,0-1.026-0.1-1.504-0.299c-0.479-0.198-0.897-0.471-1.258-0.818
		c-0.359-0.348-0.646-0.754-0.863-1.219c-0.215-0.465-0.323-0.961-0.323-1.485v-0.521l1.562-0.254v0.863
		c0,0.313,0.065,0.607,0.197,0.883c0.131,0.274,0.307,0.514,0.526,0.717s0.474,0.363,0.762,0.482s0.589,0.178,0.901,0.178h1.041
		c0.313,0,0.613-0.047,0.901-0.14s0.544-0.227,0.769-0.399c0.224-0.174,0.401-0.383,0.533-0.629
		c0.131-0.246,0.196-0.525,0.196-0.838c0-0.465-0.102-0.846-0.305-1.143s-0.472-0.544-0.806-0.742
		c-0.335-0.199-0.716-0.364-1.143-0.496c-0.428-0.131-0.865-0.262-1.314-0.393c-0.449-0.132-0.887-0.281-1.314-0.451
		c-0.427-0.17-0.808-0.392-1.143-0.666c-0.334-0.275-0.603-0.621-0.806-1.035s-0.305-0.932-0.305-1.549
		c0-0.525,0.102-1.005,0.305-1.441c0.203-0.436,0.478-0.811,0.825-1.123s0.751-0.557,1.213-0.73c0.461-0.173,0.953-0.26,1.479-0.26
		h0.914c0.525,0,1.02,0.1,1.485,0.299c0.466,0.198,0.872,0.471,1.219,0.818s0.62,0.754,0.819,1.219
		c0.198,0.465,0.298,0.961,0.298,1.485v0.051l-1.562,0.254V8.938c0-0.313-0.059-0.607-0.178-0.883
		c-0.119-0.274-0.279-0.514-0.482-0.717s-0.442-0.363-0.717-0.482c-0.275-0.119-0.57-0.178-0.883-0.178h-0.914
		c-0.313,0-0.607,0.047-0.883,0.14c-0.274,0.093-0.514,0.227-0.717,0.399c-0.203,0.174-0.363,0.383-0.482,0.629
		s-0.178,0.525-0.178,0.838c0,0.449,0.102,0.814,0.305,1.098c0.203,0.284,0.472,0.523,0.807,0.718
		c0.334,0.194,0.715,0.357,1.143,0.489c0.427,0.131,0.863,0.266,1.307,0.406c0.445,0.139,0.881,0.298,1.309,0.476
		c0.427,0.178,0.808,0.406,1.143,0.686c0.334,0.279,0.603,0.628,0.806,1.048C81.326,14.021,81.428,14.541,81.428,15.158z"/>
	<path class="st0" d="M92.511,23.664H91l2.311-6.322L89.096,5.459h1.562l3.39,9.852l0.051,0.673l0.051-0.673l3.377-9.852h1.562
		L92.511,23.664z"/>
	<path class="st0" d="M111.097,1.739c-0.262,0-0.506,0.049-0.73,0.146c-0.224,0.098-0.42,0.23-0.59,0.4s-0.303,0.368-0.4,0.597
		c-0.097,0.229-0.146,0.474-0.146,0.736v1.841h3.034v1.485h-3.034v11.515h-1.562V6.944h-2.349V5.459h2.349V3.694
		c0-0.474,0.089-0.921,0.267-1.339c0.178-0.42,0.423-0.785,0.736-1.099s0.677-0.559,1.092-0.736s0.858-0.267,1.333-0.267h1.435
		v1.485H111.097z"/>
	<path class="st0" d="M117.914,6.944c-0.313,0-0.607,0.06-0.882,0.178c-0.275,0.118-0.515,0.279-0.718,0.482
		s-0.364,0.442-0.482,0.718c-0.118,0.274-0.178,0.568-0.178,0.882v9.255h-1.562v-13h0.521l0.851,1.32
		c0.355-0.482,0.802-0.865,1.34-1.148c0.537-0.284,1.123-0.426,1.758-0.426h0.914v1.739H117.914z"/>
	<path class="st0" d="M129.721,18.459l-0.863-1.295c-0.355,0.465-0.8,0.84-1.333,1.123c-0.533,0.284-1.117,0.426-1.752,0.426h-0.394
		c-0.524,0-1.021-0.1-1.485-0.299c-0.465-0.198-0.871-0.471-1.219-0.818s-0.62-0.754-0.818-1.219
		c-0.199-0.465-0.299-0.961-0.299-1.485v-0.127c0-0.524,0.1-1.021,0.299-1.485c0.198-0.465,0.471-0.871,0.818-1.219
		s0.754-0.62,1.219-0.818c0.465-0.199,0.961-0.299,1.485-0.299h3.301V8.938c0-0.313-0.06-0.607-0.178-0.883
		c-0.118-0.274-0.279-0.514-0.482-0.717s-0.442-0.363-0.718-0.482c-0.274-0.119-0.568-0.178-0.882-0.178h-0.914
		c-0.313,0-0.607,0.059-0.882,0.178c-0.275,0.119-0.515,0.279-0.718,0.482s-0.364,0.442-0.482,0.717
		c-0.118,0.275-0.178,0.57-0.178,0.883v0.47l-1.562-0.254V9.026c0-0.524,0.1-1.021,0.299-1.485c0.198-0.465,0.471-0.871,0.818-1.219
		s0.754-0.62,1.219-0.818c0.465-0.199,0.961-0.299,1.485-0.299h0.914c0.524,0,1.021,0.1,1.485,0.299
		c0.465,0.198,0.871,0.471,1.219,0.818s0.62,0.754,0.818,1.219c0.199,0.465,0.299,0.961,0.299,1.485v9.433H129.721z M128.68,12.162
		h-3.301c-0.313,0-0.607,0.059-0.882,0.178c-0.275,0.119-0.515,0.281-0.718,0.488c-0.203,0.208-0.364,0.449-0.482,0.725
		c-0.118,0.274-0.178,0.568-0.178,0.882v0.546c0,0.313,0.06,0.607,0.178,0.883c0.118,0.274,0.279,0.514,0.482,0.717
		s0.442,0.363,0.718,0.482c0.274,0.119,0.568,0.178,0.882,0.178h1.041c0.313,0,0.607-0.059,0.882-0.178
		c0.275-0.119,0.515-0.279,0.718-0.482s0.364-0.442,0.482-0.717c0.118-0.275,0.178-0.57,0.178-0.883V12.162z"/>
	<path class="st0" d="M147.088,18.459V8.938c0-0.313-0.06-0.607-0.178-0.883c-0.118-0.274-0.279-0.514-0.482-0.717
		s-0.442-0.363-0.718-0.482c-0.274-0.119-0.568-0.178-0.882-0.178h-0.774c-0.313,0-0.607,0.059-0.883,0.178
		c-0.274,0.119-0.516,0.279-0.723,0.482c-0.208,0.203-0.371,0.442-0.489,0.717c-0.118,0.275-0.178,0.57-0.178,0.883v9.521h-1.549
		V8.938c0-0.313-0.06-0.607-0.178-0.883c-0.118-0.274-0.281-0.514-0.489-0.717c-0.207-0.203-0.448-0.363-0.723-0.482
		c-0.275-0.119-0.57-0.178-0.883-0.178h-0.774c-0.313,0-0.607,0.059-0.882,0.178c-0.275,0.119-0.515,0.279-0.718,0.482
		s-0.364,0.442-0.482,0.717c-0.118,0.275-0.178,0.57-0.178,0.883v9.521h-1.562v-13h0.521l0.851,1.32
		c0.355-0.482,0.802-0.865,1.34-1.148c0.537-0.284,1.123-0.426,1.758-0.426h0.127c0.736,0,1.4,0.182,1.993,0.546
		s1.05,0.847,1.371,1.447c0.161-0.296,0.36-0.567,0.597-0.813s0.5-0.455,0.787-0.628c0.287-0.174,0.602-0.31,0.939-0.406
		c0.338-0.098,0.689-0.146,1.054-0.146h0.127c0.524,0,1.021,0.1,1.485,0.299c0.465,0.198,0.871,0.471,1.219,0.818
		s0.62,0.754,0.818,1.219c0.199,0.465,0.299,0.961,0.299,1.485v9.433H147.088z"/>
	<path class="st0" d="M160.157,16.377c-0.198,0.465-0.471,0.871-0.818,1.219s-0.754,0.62-1.219,0.818
		c-0.465,0.199-0.961,0.299-1.485,0.299h-1.041c-0.524,0-1.021-0.1-1.485-0.299c-0.465-0.198-0.871-0.471-1.219-0.818
		s-0.62-0.754-0.818-1.219c-0.199-0.465-0.299-0.961-0.299-1.485V9.026c0-0.524,0.1-1.021,0.299-1.485
		c0.198-0.465,0.471-0.871,0.818-1.219s0.754-0.62,1.219-0.818c0.465-0.199,0.961-0.299,1.485-0.299h1.041
		c0.524,0,1.021,0.1,1.485,0.299c0.465,0.198,0.871,0.471,1.219,0.818s0.62,0.754,0.818,1.219c0.199,0.465,0.299,0.961,0.299,1.485
		v3.06h-7.122v2.895c0,0.313,0.06,0.607,0.178,0.883c0.118,0.274,0.279,0.514,0.482,0.717s0.442,0.363,0.718,0.482
		c0.274,0.119,0.568,0.178,0.882,0.178h1.041c0.313,0,0.607-0.059,0.882-0.178c0.275-0.119,0.515-0.279,0.718-0.482
		s0.364-0.442,0.482-0.717c0.118-0.275,0.178-0.57,0.178-0.883v-0.863l1.562,0.254v0.521
		C160.456,15.416,160.356,15.912,160.157,16.377z M158.895,8.938c0-0.313-0.06-0.607-0.178-0.883
		c-0.118-0.274-0.279-0.514-0.482-0.717s-0.442-0.363-0.718-0.482c-0.274-0.119-0.568-0.178-0.882-0.178h-1.041
		c-0.313,0-0.607,0.059-0.882,0.178c-0.275,0.119-0.515,0.279-0.718,0.482s-0.364,0.442-0.482,0.717
		c-0.118,0.275-0.178,0.57-0.178,0.883v1.93h5.561V8.938z"/>
	<path class="st0" d="M174.522,18.459h-0.851l-3.047-9.801l-0.051-0.673l-0.051,0.673l-3.047,9.801h-0.863l-4.342-13h1.587
		l3.098,9.826l0.051,0.673l0.051-0.673l3.047-9.826h0.939l3.034,9.826l0.051,0.673l0.051-0.673l3.098-9.826h1.587L174.522,18.459z"
		/>
	<path class="st0" d="M189.077,16.377c-0.198,0.465-0.471,0.871-0.818,1.219s-0.754,0.62-1.219,0.818
		c-0.465,0.199-0.961,0.299-1.485,0.299h-1.041c-0.524,0-1.021-0.1-1.485-0.299c-0.465-0.198-0.871-0.471-1.219-0.818
		s-0.62-0.754-0.818-1.219c-0.199-0.465-0.299-0.961-0.299-1.485V9.026c0-0.524,0.1-1.021,0.299-1.485
		c0.198-0.465,0.471-0.871,0.818-1.219s0.754-0.62,1.219-0.818c0.465-0.199,0.961-0.299,1.485-0.299h1.041
		c0.524,0,1.021,0.1,1.485,0.299c0.465,0.198,0.871,0.471,1.219,0.818s0.62,0.754,0.818,1.219c0.199,0.465,0.299,0.961,0.299,1.485
		v5.865C189.376,15.416,189.276,15.912,189.077,16.377z M187.814,8.938c0-0.313-0.06-0.607-0.178-0.883
		c-0.118-0.274-0.279-0.514-0.482-0.717s-0.442-0.363-0.718-0.482c-0.274-0.119-0.568-0.178-0.882-0.178h-1.041
		c-0.313,0-0.607,0.059-0.882,0.178c-0.275,0.119-0.515,0.279-0.718,0.482s-0.364,0.442-0.482,0.717
		c-0.118,0.275-0.178,0.57-0.178,0.883v6.043c0,0.313,0.06,0.607,0.178,0.883c0.118,0.274,0.279,0.514,0.482,0.717
		s0.442,0.363,0.718,0.482c0.274,0.119,0.568,0.178,0.882,0.178h1.041c0.313,0,0.607-0.059,0.882-0.178
		c0.275-0.119,0.515-0.279,0.718-0.482s0.364-0.442,0.482-0.717c0.118-0.275,0.178-0.57,0.178-0.883V8.938z"/>
	<path class="st0" d="M196.32,6.944c-0.313,0-0.607,0.06-0.882,0.178c-0.275,0.118-0.515,0.279-0.718,0.482
		s-0.364,0.442-0.482,0.718c-0.118,0.274-0.178,0.568-0.178,0.882v9.255h-1.562v-13h0.521l0.851,1.32
		c0.355-0.482,0.802-0.865,1.34-1.148c0.537-0.284,1.123-0.426,1.758-0.426h0.914v1.739H196.32z"/>
	<path class="st0" d="M200.484,18.459V0.254h1.562v18.205H200.484z M207.657,18.459l-5.307-6.5l5.307-6.5h2.031l-5.434,6.5
		l5.434,6.5H207.657z"/>
	<path class="st0" d="M220.708,15.158c0,0.525-0.105,1.005-0.317,1.441c-0.212,0.436-0.499,0.811-0.863,1.123
		s-0.785,0.557-1.263,0.73c-0.479,0.173-0.98,0.26-1.505,0.26h-1.041c-0.524,0-1.026-0.1-1.505-0.299
		c-0.478-0.198-0.896-0.471-1.256-0.818c-0.36-0.348-0.648-0.754-0.863-1.219c-0.217-0.465-0.324-0.961-0.324-1.485v-0.521
		l1.562-0.254v0.863c0,0.313,0.065,0.607,0.196,0.883c0.132,0.274,0.307,0.514,0.527,0.717s0.475,0.363,0.762,0.482
		s0.588,0.178,0.901,0.178h1.041c0.313,0,0.614-0.047,0.901-0.14s0.544-0.227,0.768-0.399c0.225-0.174,0.402-0.383,0.533-0.629
		c0.132-0.246,0.197-0.525,0.197-0.838c0-0.465-0.102-0.846-0.305-1.143s-0.472-0.544-0.807-0.742
		c-0.334-0.199-0.715-0.364-1.143-0.496c-0.427-0.131-0.865-0.262-1.313-0.393c-0.448-0.132-0.887-0.281-1.313-0.451
		c-0.428-0.17-0.809-0.392-1.143-0.666c-0.335-0.275-0.604-0.621-0.807-1.035s-0.305-0.932-0.305-1.549
		c0-0.525,0.102-1.005,0.305-1.441c0.203-0.436,0.479-0.811,0.825-1.123s0.751-0.557,1.212-0.73c0.462-0.173,0.955-0.26,1.479-0.26
		h0.914c0.524,0,1.021,0.1,1.485,0.299c0.465,0.198,0.871,0.471,1.219,0.818s0.62,0.754,0.818,1.219
		c0.199,0.465,0.299,0.961,0.299,1.485v0.051l-1.562,0.254V8.938c0-0.313-0.06-0.607-0.178-0.883
		c-0.118-0.274-0.279-0.514-0.482-0.717s-0.442-0.363-0.718-0.482c-0.274-0.119-0.568-0.178-0.882-0.178h-0.914
		c-0.313,0-0.607,0.047-0.882,0.14c-0.275,0.093-0.515,0.227-0.718,0.399c-0.203,0.174-0.364,0.383-0.482,0.629
		s-0.178,0.525-0.178,0.838c0,0.449,0.102,0.814,0.305,1.098c0.203,0.284,0.472,0.523,0.806,0.718
		c0.335,0.194,0.716,0.357,1.143,0.489c0.428,0.131,0.863,0.266,1.309,0.406c0.443,0.139,0.88,0.298,1.307,0.476
		c0.428,0.178,0.809,0.406,1.143,0.686c0.335,0.279,0.604,0.628,0.807,1.048C220.606,14.021,220.708,14.541,220.708,15.158z"/>
	<path class="st0" d="M239.833,15.983c-0.232,0.542-0.552,1.016-0.958,1.422s-0.88,0.726-1.422,0.958
		c-0.542,0.233-1.122,0.35-1.739,0.35h-1.295c-0.617,0-1.199-0.116-1.746-0.35c-0.545-0.232-1.021-0.552-1.428-0.958
		s-0.726-0.88-0.959-1.422c-0.232-0.542-0.349-1.122-0.349-1.739V4.469c0-0.617,0.116-1.197,0.349-1.739
		c0.233-0.542,0.553-1.016,0.959-1.422s0.883-0.726,1.428-0.958C233.22,0.116,233.802,0,234.419,0h1.295
		c0.617,0,1.197,0.116,1.739,0.35c0.542,0.232,1.016,0.552,1.422,0.958s0.726,0.88,0.958,1.422c0.233,0.542,0.35,1.122,0.35,1.739
		v0.736l-1.638,0.254v-0.99c0-0.406-0.076-0.785-0.229-1.137c-0.152-0.351-0.36-0.658-0.622-0.92s-0.569-0.47-0.92-0.622
		c-0.352-0.152-0.73-0.229-1.137-0.229h-1.143c-0.406,0-0.785,0.076-1.137,0.229c-0.351,0.152-0.66,0.36-0.926,0.622
		c-0.268,0.262-0.477,0.569-0.629,0.92c-0.152,0.352-0.229,0.73-0.229,1.137v9.775c0,0.406,0.076,0.785,0.229,1.137
		c0.152,0.351,0.361,0.66,0.629,0.926c0.266,0.268,0.575,0.477,0.926,0.629c0.352,0.152,0.73,0.229,1.137,0.229h1.143
		c0.406,0,0.785-0.076,1.137-0.229c0.351-0.152,0.658-0.361,0.92-0.629c0.262-0.266,0.47-0.575,0.622-0.926
		c0.152-0.352,0.229-0.73,0.229-1.137v-0.99l1.638,0.267v0.724C240.183,14.861,240.066,15.441,239.833,15.983z"/>
	<path class="st0" d="M253.805,14.244c0,0.617-0.125,1.197-0.374,1.739c-0.25,0.542-0.584,1.016-1.004,1.422
		c-0.418,0.406-0.905,0.726-1.459,0.958c-0.555,0.233-1.141,0.35-1.759,0.35h-1.308c-0.617,0-1.204-0.116-1.758-0.35
		c-0.555-0.232-1.041-0.552-1.461-0.958c-0.418-0.406-0.753-0.88-1.002-1.422c-0.25-0.542-0.375-1.122-0.375-1.739v-0.724
		l1.638-0.267v0.99c0,0.406,0.083,0.785,0.247,1.137c0.166,0.351,0.388,0.66,0.667,0.926c0.279,0.268,0.603,0.477,0.972,0.629
		c0.367,0.152,0.755,0.229,1.161,0.229h1.143c0.406,0,0.792-0.076,1.155-0.229s0.686-0.361,0.965-0.629
		c0.279-0.266,0.502-0.575,0.666-0.926c0.166-0.352,0.248-0.73,0.248-1.137v-0.546c0-0.626-0.123-1.147-0.368-1.562
		s-0.571-0.768-0.978-1.061c-0.406-0.291-0.865-0.539-1.377-0.742c-0.513-0.203-1.039-0.406-1.581-0.609s-1.068-0.428-1.581-0.673
		c-0.512-0.245-0.971-0.552-1.377-0.921c-0.406-0.367-0.732-0.818-0.978-1.352s-0.368-1.189-0.368-1.968V4.469
		c0-0.617,0.116-1.197,0.35-1.739c0.232-0.542,0.552-1.016,0.958-1.422s0.882-0.726,1.429-0.958c0.545-0.233,1.127-0.35,1.745-0.35
		h1.168c0.618,0,1.198,0.116,1.739,0.35c0.541,0.232,1.016,0.552,1.422,0.958s0.726,0.88,0.959,1.422
		c0.232,0.542,0.349,1.122,0.349,1.739v0.47l-1.638,0.267V4.469c0-0.406-0.076-0.785-0.229-1.137
		c-0.152-0.351-0.359-0.658-0.622-0.92s-0.569-0.47-0.921-0.622c-0.351-0.152-0.729-0.229-1.136-0.229h-1.016
		c-0.406,0-0.785,0.076-1.136,0.229c-0.352,0.152-0.66,0.36-0.928,0.622c-0.266,0.262-0.476,0.569-0.628,0.92
		c-0.152,0.352-0.229,0.73-0.229,1.137v0.343c0,0.584,0.122,1.075,0.368,1.473s0.571,0.738,0.978,1.022
		c0.406,0.283,0.865,0.528,1.378,0.736c0.512,0.207,1.039,0.418,1.58,0.635c0.541,0.215,1.068,0.452,1.58,0.711
		c0.513,0.258,0.972,0.575,1.378,0.951c0.406,0.377,0.731,0.836,0.978,1.378s0.368,1.202,0.368,1.98V14.244z"/>
	<path class="st0" d="M267.3,14.244c0,0.617-0.125,1.197-0.375,1.739c-0.249,0.542-0.584,1.016-1.002,1.422
		c-0.42,0.406-0.906,0.726-1.461,0.958c-0.554,0.233-1.141,0.35-1.758,0.35h-1.308c-0.618,0-1.204-0.116-1.759-0.35
		c-0.554-0.232-1.041-0.552-1.459-0.958c-0.42-0.406-0.754-0.88-1.004-1.422c-0.249-0.542-0.374-1.122-0.374-1.739v-0.724
		l1.638-0.267v0.99c0,0.406,0.082,0.785,0.248,1.137c0.164,0.351,0.387,0.66,0.666,0.926c0.279,0.268,0.604,0.477,0.971,0.629
		c0.369,0.152,0.756,0.229,1.162,0.229h1.143c0.406,0,0.791-0.076,1.155-0.229s0.686-0.361,0.965-0.629
		c0.279-0.266,0.501-0.575,0.667-0.926c0.164-0.352,0.247-0.73,0.247-1.137v-0.546c0-0.626-0.122-1.147-0.368-1.562
		s-0.571-0.768-0.978-1.061c-0.406-0.291-0.865-0.539-1.378-0.742c-0.512-0.203-1.039-0.406-1.58-0.609s-1.068-0.428-1.58-0.673
		c-0.513-0.245-0.972-0.552-1.378-0.921c-0.406-0.367-0.731-0.818-0.978-1.352s-0.368-1.189-0.368-1.968V4.469
		c0-0.617,0.116-1.197,0.349-1.739c0.233-0.542,0.553-1.016,0.959-1.422s0.883-0.726,1.428-0.958c0.547-0.233,1.129-0.35,1.746-0.35
		h1.168c0.617,0,1.197,0.116,1.739,0.35c0.542,0.232,1.016,0.552,1.422,0.958s0.726,0.88,0.958,1.422
		c0.233,0.542,0.35,1.122,0.35,1.739v0.47l-1.638,0.267V4.469c0-0.406-0.076-0.785-0.229-1.137c-0.152-0.351-0.36-0.658-0.622-0.92
		s-0.569-0.47-0.92-0.622c-0.352-0.152-0.73-0.229-1.137-0.229h-1.016c-0.406,0-0.785,0.076-1.137,0.229
		c-0.351,0.152-0.66,0.36-0.926,0.622c-0.268,0.262-0.477,0.569-0.629,0.92c-0.152,0.352-0.229,0.73-0.229,1.137v0.343
		c0,0.584,0.123,1.075,0.368,1.473s0.571,0.738,0.978,1.022c0.406,0.283,0.865,0.528,1.377,0.736
		c0.513,0.207,1.039,0.418,1.581,0.635c0.542,0.215,1.068,0.452,1.581,0.711c0.512,0.258,0.971,0.575,1.377,0.951
		c0.406,0.377,0.732,0.836,0.978,1.378s0.368,1.202,0.368,1.98V14.244z"/>
</g>
</svg>