<!-- Generator: Adobe Illustrator 17.0.0, SVG Export Plug-In  -->
<svg version="1.1"
	 xmlns="http://www.w3.org/2000/svg" xmlns:xlink="http://www.w3.org/1999/xlink" xmlns:a="http://ns.adobe.com/AdobeSVGViewerExtensions/3.0/"
	 x="0px" y="0px" width="307.608px" height="62.096px" viewBox="0 0 307.608 62.096"
	 style="enable-background:new 0 0 307.608 62.096;" xml:space="preserve">
<style type="text/css">
	.st0{fill-rule:evenodd;clip-rule:evenodd;fill:#888586;}
	.st1{fill-rule:evenodd;clip-rule:evenodd;fill:#E7E3E2;}
	.st2{fill:#E54F26;}
	.st3{fill:url(#XMLID_13_);}
	.st4{fill:url(#XMLID_14_);}
	.st5{fill:url(#XMLID_15_);}
	.st6{fill:url(#XMLID_16_);}
	.st7{fill:#FFFFFF;}
	.st8{fill-rule:evenodd;clip-rule:evenodd;fill:#E54F26;}
	.st9{fill-rule:evenodd;clip-rule:evenodd;}
	.st10{fill:url(#XMLID_17_);}
	.st11{fill:url(#XMLID_18_);}
	.st12{fill:url(#XMLID_19_);}
	.st13{fill:url(#XMLID_20_);}
</style>
<defs>
</defs>
<g>
	<polygon class="st0" points="0,56.326 0,62.096 208.188,62.096 307.608,62.096 307.608,56.326 282.733,56.326 208.188,56.326 
		133.598,56.326 	"/>
	<rect x="0" y="0" class="st1" width="307.608" height="58.25"/>
	<g id="XMLID_4_">
		<rect x="13.268" y="13.421" class="st2" width="23.416" height="27.145"/>
		<path id="XMLID_9_" d="M39.723,42.818H16.307v-1.276h21.359V15.675h2.057V42.818L39.723,42.818z M13.268,13.421h23.416v27.144
			H13.268V13.421L13.268,13.421z M37.666,14.696v-2.254H12.289v29.1h3.036v2.256h25.378V14.696H37.666L37.666,14.696z"/>
		<linearGradient id="XMLID_13_" gradientUnits="userSpaceOnUse" x1="25.5625" y1="36.6426" x2="26.5909" y2="36.6426">
			<stop  offset="0" style="stop-color:#F5F5F5"/>
			<stop  offset="1" style="stop-color:#E8E8E8"/>
		</linearGradient>
		<polygon id="XMLID_8_" class="st3" points="25.563,36.153 26.591,36.153 26.591,37.132 25.563,37.132 25.563,36.153 		"/>
		<linearGradient id="XMLID_14_" gradientUnits="userSpaceOnUse" x1="27.7715" y1="36.6426" x2="28.8008" y2="36.6426">
			<stop  offset="0" style="stop-color:#F5F5F5"/>
			<stop  offset="1" style="stop-color:#E8E8E8"/>
		</linearGradient>
		<polygon id="XMLID_7_" class="st4" points="27.771,36.153 28.801,36.153 28.801,37.132 27.771,37.132 27.771,36.153 		"/>
		<linearGradient id="XMLID_15_" gradientUnits="userSpaceOnUse" x1="30.0245" y1="36.6426" x2="31.0547" y2="36.6426">
			<stop  offset="0" style="stop-color:#F5F5F5"/>
			<stop  offset="1" style="stop-color:#E8E8E8"/>
		</linearGradient>
		<polygon id="XMLID_6_" class="st5" points="30.024,36.153 31.055,36.153 31.055,37.132 30.024,37.132 30.024,36.153 		"/>
		<linearGradient id="XMLID_16_" gradientUnits="userSpaceOnUse" x1="32.2276" y1="36.6426" x2="33.2579" y2="36.6426">
			<stop  offset="0" style="stop-color:#F5F5F5"/>
			<stop  offset="1" style="stop-color:#E8E8E8"/>
		</linearGradient>
		<polygon id="XMLID_5_" class="st6" points="32.228,36.153 33.258,36.153 33.258,37.132 32.228,37.132 32.228,36.153 		"/>
	</g>
	<path class="st7" d="M19.175,19.639c0,0.492,0.069,0.968,0.14,1.461c0.07,0.489,0.14,0.982,0.14,1.475c0,0.615-0.175,1.3-1.425,1.3
		v0.896c1.25,0,1.425,0.757,1.425,1.3c0,0.476-0.069,0.949-0.14,1.425c-0.07,0.476-0.14,0.966-0.14,1.441
		c0,1.773,1.087,2.407,2.55,2.407h0.366v-0.966h-0.316c-0.985,0-1.389-0.545-1.389-1.53c0-0.42,0.051-0.827,0.123-1.267
		c0.07-0.42,0.123-0.859,0.123-1.332c0.019-1.128-0.473-1.723-1.268-1.918v-0.033c0.795-0.212,1.283-0.774,1.268-1.9
		c0-0.474-0.053-0.896-0.123-1.333c-0.072-0.423-0.123-0.847-0.123-1.25c0-0.948,0.351-1.511,1.389-1.511h0.316v-0.966h-0.366
		C20.23,17.337,19.175,18.021,19.175,19.639z"/>
	<path class="st7" d="M29.334,22.574c0-0.492,0.072-0.985,0.142-1.475c0.071-0.493,0.142-0.966,0.142-1.461
		c0-1.617-1.072-2.302-2.566-2.302h-0.354v0.966h0.32c1.018,0.017,1.389,0.563,1.389,1.511c0,0.403-0.07,0.827-0.125,1.25
		c-0.071,0.439-0.141,0.859-0.141,1.333c0,1.127,0.492,1.688,1.266,1.9v0.033c-0.773,0.195-1.266,0.79-1.266,1.918
		c0,0.473,0.069,0.912,0.141,1.332c0.055,0.443,0.125,0.847,0.125,1.267c0,0.985-0.424,1.511-1.406,1.53h-0.303v0.966h0.373
		c1.44,0,2.547-0.635,2.547-2.407c0-0.476-0.07-0.966-0.142-1.441c-0.069-0.476-0.142-0.949-0.142-1.425
		c0-0.546,0.177-1.3,1.424-1.3v-0.896C29.511,23.874,29.334,23.189,29.334,22.574z"/>
	<rect x="229.011" y="0" class="st8" width="78.598" height="58.25"/>
	<polygon class="st9" points="229.011,62.096 229.011,58.25 307.608,58.25 307.608,62.096 233.412,62.096 	"/>
	<g>
		<path d="M74.343,22.864H79.3c0.98,0,1.713,0.041,2.194,0.123c0.482,0.082,0.914,0.253,1.295,0.512
			c0.38,0.26,0.697,0.604,0.951,1.036s0.381,0.915,0.381,1.451c0,0.58-0.157,1.113-0.47,1.598c-0.313,0.485-0.737,0.85-1.273,1.092
			c0.756,0.22,1.337,0.595,1.743,1.125c0.405,0.53,0.608,1.153,0.608,1.869c0,0.563-0.131,1.112-0.393,1.646
			c-0.263,0.532-0.621,0.958-1.074,1.276c-0.454,0.319-1.014,0.515-1.68,0.588c-0.417,0.046-1.424,0.073-3.02,0.085h-4.221V22.864z
			 M76.847,24.929v2.867h1.641c0.976,0,1.582-0.014,1.818-0.042c0.429-0.051,0.766-0.199,1.011-0.444
			c0.246-0.245,0.368-0.568,0.368-0.969c0-0.383-0.105-0.694-0.317-0.935c-0.211-0.239-0.525-0.385-0.942-0.436
			c-0.248-0.028-0.962-0.042-2.141-0.042H76.847z M76.847,29.859v3.316h2.317c0.902,0,1.475-0.025,1.717-0.076
			c0.373-0.068,0.676-0.232,0.91-0.495c0.233-0.262,0.351-0.613,0.351-1.053c0-0.372-0.09-0.688-0.271-0.947
			c-0.181-0.26-0.441-0.448-0.782-0.567c-0.342-0.118-1.082-0.178-2.221-0.178H76.847z"/>
		<path d="M88.416,29.141c0-1.263,0.188-2.323,0.566-3.18c0.282-0.632,0.667-1.198,1.154-1.7c0.488-0.502,1.022-0.874,1.604-1.117
			c0.772-0.327,1.663-0.49,2.673-0.49c1.827,0,3.289,0.566,4.386,1.7c1.097,1.133,1.645,2.709,1.645,4.729
			c0,2.001-0.544,3.567-1.632,4.698c-1.089,1.131-2.544,1.696-4.365,1.696c-1.844,0-3.31-0.563-4.398-1.688
			C88.96,32.664,88.416,31.114,88.416,29.141z M90.996,29.057c0,1.403,0.324,2.468,0.973,3.192s1.472,1.087,2.47,1.087
			s1.816-0.359,2.457-1.078c0.64-0.719,0.96-1.798,0.96-3.235c0-1.421-0.312-2.481-0.935-3.181s-1.451-1.049-2.482-1.049
			c-1.032,0-1.864,0.354-2.495,1.062C91.312,26.562,90.996,27.63,90.996,29.057z"/>
		<path d="M103.216,35.265l4.237-6.471l-3.84-5.93h2.927l2.486,3.984l2.437-3.984h2.901l-3.857,6.022l4.237,6.378h-3.02
			l-2.749-4.288l-2.757,4.288H103.216z"/>
		<path d="M124.966,35.265v-12.4h3.747l2.25,8.459l2.225-8.459h3.755v12.4h-2.326v-9.761l-2.461,9.761h-2.41l-2.453-9.761v9.761
			H124.966z"/>
		<path d="M141.001,29.141c0-1.263,0.188-2.323,0.566-3.18c0.282-0.632,0.667-1.198,1.154-1.7c0.488-0.502,1.022-0.874,1.604-1.117
			c0.772-0.327,1.663-0.49,2.673-0.49c1.827,0,3.289,0.566,4.386,1.7c1.097,1.133,1.645,2.709,1.645,4.729
			c0,2.001-0.544,3.567-1.632,4.698c-1.089,1.131-2.544,1.696-4.365,1.696c-1.844,0-3.31-0.563-4.398-1.688
			C141.545,32.664,141.001,31.114,141.001,29.141z M143.581,29.057c0,1.403,0.324,2.468,0.973,3.192s1.472,1.087,2.47,1.087
			s1.816-0.359,2.457-1.078c0.64-0.719,0.96-1.798,0.96-3.235c0-1.421-0.312-2.481-0.935-3.181s-1.451-1.049-2.482-1.049
			c-1.032,0-1.864,0.354-2.495,1.062C143.897,26.562,143.581,27.63,143.581,29.057z"/>
		<path d="M157.054,22.864h4.576c1.031,0,1.818,0.079,2.359,0.237c0.728,0.214,1.351,0.595,1.869,1.142
			c0.52,0.547,0.914,1.217,1.185,2.009c0.271,0.793,0.406,1.77,0.406,2.931c0,1.021-0.127,1.9-0.381,2.64
			c-0.311,0.902-0.753,1.632-1.328,2.19c-0.435,0.423-1.021,0.753-1.759,0.989c-0.553,0.176-1.292,0.263-2.217,0.263h-4.711V22.864z
			 M159.558,24.962v8.214h1.869c0.699,0,1.204-0.04,1.514-0.119c0.406-0.102,0.743-0.273,1.011-0.516s0.486-0.642,0.655-1.197
			c0.17-0.555,0.254-1.312,0.254-2.271s-0.084-1.694-0.254-2.208c-0.169-0.513-0.405-0.913-0.71-1.201
			c-0.305-0.287-0.69-0.481-1.159-0.583c-0.35-0.079-1.034-0.119-2.055-0.119H159.558z"/>
		<path d="M171.65,35.265v-12.4h9.193v2.098h-6.69v2.749h6.226v2.09h-6.226v3.375h6.928v2.089H171.65z"/>
		<path d="M185.351,35.265V22.966h2.504v10.21h6.225v2.089H185.351z"/>
	</g>
	<g id="XMLID_1_">
		<path id="XMLID_3_" class="st7" d="M247.24,45.656c-1.069,1.073-1.069,2.679,0,3.886l0.672,0.669c1.068,1.069,2.811,1.069,3.885,0
			l8.57-8.571c0.531-0.668,0.801-1.338,0.801-2.142l2.813-2.812c6.426,4.819,15.53,4.421,21.424-1.472
			c6.43-6.428,6.43-16.74,0-23.165c-6.426-6.429-16.738-6.429-23.164,0c-5.893,5.892-6.296,14.995-1.477,21.424l-2.811,2.811
			c-0.8,0-1.605,0.269-2.141,0.806L247.24,45.656L247.24,45.656z M265.855,31.598c-4.42-4.419-4.555-11.65,0-16.067
			c4.418-4.419,11.647-4.419,16.066,0c4.417,4.417,4.417,11.648,0,16.067C277.502,36.018,270.273,36.018,265.855,31.598
			L265.855,31.598z"/>
		<path id="XMLID_2_" class="st7" d="M269.336,21.821h2.678v-2.677c0-0.938,0.805-1.741,1.74-1.741l0,0
			c0.941,0,1.742,0.804,1.742,1.741v2.677h2.679c0.936,0,1.741,0.805,1.741,1.74l0,0c0,0.94-0.805,1.741-1.741,1.741h-2.679v2.681
			c0,0.935-0.801,1.741-1.742,1.741l0,0c-0.936,0-1.74-0.807-1.74-1.741v-2.681h-2.678c-0.936,0-1.742-0.801-1.742-1.741l0,0
			C267.594,22.626,268.4,21.821,269.336,21.821L269.336,21.821z"/>
	</g>
</g>
</svg>