<!-- Generator: Adobe Illustrator 17.0.0, SVG Export Plug-In  -->
<svg version="1.1"
	 xmlns="http://www.w3.org/2000/svg" xmlns:xlink="http://www.w3.org/1999/xlink" xmlns:a="http://ns.adobe.com/AdobeSVGViewerExtensions/3.0/"
	 x="0px" y="0px" width="234.939px" height="23.664px" viewBox="0 0 234.939 23.664"
	 style="enable-background:new 0 0 234.939 23.664;" xml:space="preserve">
<style type="text/css">
	.st0{fill:#F16529;}
</style>
<defs>
</defs>
<g>
	<path class="st0" d="M8.824,18.459l-4.939-7.77H1.639v7.77H0V0.254h5.777c0.617,0,1.197,0.116,1.738,0.35
		c0.542,0.232,1.016,0.552,1.422,0.958S9.664,2.443,9.896,2.99c0.232,0.545,0.35,1.127,0.35,1.745v1.473
		c0,0.618-0.117,1.2-0.35,1.745C9.664,8.5,9.344,8.976,8.938,9.382s-0.88,0.726-1.422,0.958c-0.541,0.233-1.121,0.35-1.738,0.35
		l4.938,7.77H8.824z M8.607,4.735c0-0.406-0.076-0.785-0.229-1.136C8.227,3.248,8.02,2.939,7.758,2.672
		c-0.263-0.266-0.57-0.476-0.921-0.628S6.107,1.815,5.701,1.815H1.639v7.313h4.063c0.406,0,0.785-0.076,1.136-0.229
		s0.658-0.362,0.921-0.628C8.02,8.004,8.227,7.695,8.379,7.344c0.152-0.351,0.229-0.729,0.229-1.136V4.735z"/>
	<path class="st0" d="M21.703,16.377c-0.199,0.465-0.472,0.871-0.818,1.219c-0.348,0.348-0.754,0.62-1.219,0.818
		c-0.466,0.199-0.961,0.299-1.486,0.299h-1.041c-0.524,0-1.02-0.1-1.484-0.299c-0.466-0.198-0.872-0.471-1.219-0.818
		c-0.348-0.348-0.621-0.754-0.819-1.219s-0.298-0.961-0.298-1.485V9.026c0-0.524,0.1-1.021,0.298-1.485s0.472-0.871,0.819-1.219
		c0.347-0.348,0.753-0.62,1.219-0.818c0.465-0.199,0.96-0.299,1.484-0.299h1.041c0.525,0,1.021,0.1,1.486,0.299
		c0.465,0.198,0.871,0.471,1.219,0.818c0.347,0.348,0.619,0.754,0.818,1.219s0.299,0.961,0.299,1.485v3.06h-7.123v2.895
		c0,0.313,0.06,0.607,0.178,0.883c0.119,0.274,0.279,0.514,0.482,0.717s0.443,0.363,0.718,0.482s0.569,0.178,0.882,0.178h1.041
		c0.313,0,0.607-0.059,0.883-0.178s0.514-0.279,0.717-0.482s0.364-0.442,0.482-0.717c0.119-0.275,0.178-0.57,0.178-0.883v-0.863
		l1.563,0.254v0.521C22.002,15.416,21.902,15.912,21.703,16.377z M20.439,8.938c0-0.313-0.059-0.607-0.178-0.883
		c-0.118-0.274-0.279-0.514-0.482-0.717s-0.441-0.363-0.717-0.482s-0.569-0.178-0.883-0.178h-1.041
		c-0.313,0-0.607,0.059-0.882,0.178s-0.515,0.279-0.718,0.482s-0.363,0.442-0.482,0.717c-0.118,0.275-0.178,0.57-0.178,0.883v1.93
		h5.561V8.938z"/>
	<path class="st0" d="M33.637,21.544c-0.199,0.44-0.472,0.817-0.818,1.13c-0.348,0.313-0.754,0.557-1.219,0.73
		c-0.466,0.173-0.961,0.26-1.486,0.26h-0.646c-0.525,0-1.021-0.087-1.486-0.26c-0.465-0.174-0.871-0.418-1.219-0.73
		c-0.347-0.313-0.619-0.689-0.818-1.13s-0.299-0.923-0.299-1.447v-0.051c0-0.508,0.094-0.974,0.279-1.396
		c0.187-0.423,0.44-0.792,0.762-1.104c-0.406-0.246-0.729-0.578-0.971-0.996c-0.241-0.42-0.361-0.883-0.361-1.391
		c0-0.457,0.097-0.883,0.291-1.275c0.195-0.395,0.462-0.713,0.801-0.959c-0.406-0.355-0.729-0.783-0.965-1.282
		c-0.237-0.499-0.355-1.046-0.355-1.638V9.026c0-0.524,0.1-1.021,0.298-1.485s0.472-0.871,0.819-1.219
		c0.347-0.348,0.753-0.62,1.219-0.818c0.465-0.199,0.96-0.299,1.484-0.299h0.648c0.635,0,1.221,0.142,1.758,0.426
		c0.537,0.283,0.984,0.666,1.34,1.148l0.85-1.32h0.521v4.545c0,0.525-0.1,1.02-0.299,1.485s-0.472,0.872-0.818,1.219
		c-0.348,0.347-0.754,0.62-1.219,0.819c-0.466,0.198-0.961,0.298-1.486,0.298h-2.26c-0.178,0-0.347,0.036-0.508,0.108
		c-0.16,0.071-0.303,0.166-0.425,0.285s-0.218,0.26-0.286,0.426c-0.067,0.164-0.102,0.336-0.102,0.514s0.034,0.348,0.102,0.508
		c0.068,0.16,0.164,0.303,0.286,0.426c0.122,0.122,0.265,0.217,0.425,0.285c0.161,0.068,0.33,0.102,0.508,0.102h2.133
		c0.525,0,1.021,0.087,1.486,0.26c0.465,0.174,0.871,0.418,1.219,0.73c0.347,0.313,0.619,0.689,0.818,1.13s0.299,0.923,0.299,1.447
		v0.051C33.936,20.621,33.836,21.104,33.637,21.544z M32.514,8.938c0-0.313-0.06-0.607-0.178-0.883
		c-0.119-0.274-0.281-0.514-0.489-0.717s-0.448-0.363-0.724-0.482s-0.569-0.178-0.883-0.178h-1.295
		c-0.313,0-0.607,0.059-0.882,0.178s-0.515,0.279-0.718,0.482s-0.363,0.442-0.482,0.717c-0.118,0.275-0.178,0.57-0.178,0.883v1.155
		c0,0.313,0.06,0.607,0.178,0.882c0.119,0.275,0.279,0.515,0.482,0.718s0.443,0.364,0.718,0.482s0.569,0.178,0.882,0.178h1.295
		c0.313,0,0.607-0.06,0.883-0.178s0.516-0.279,0.724-0.482s0.37-0.442,0.489-0.718c0.118-0.274,0.178-0.568,0.178-0.882V8.938z
		 M32.449,19.97c0-0.313-0.059-0.595-0.178-0.845c-0.118-0.249-0.279-0.459-0.482-0.628s-0.441-0.3-0.717-0.394
		s-0.569-0.14-0.883-0.14h-0.799c-0.313,0-0.607,0.046-0.883,0.14s-0.514,0.225-0.717,0.394s-0.364,0.379-0.482,0.628
		c-0.119,0.25-0.178,0.531-0.178,0.845v0.203c0,0.313,0.059,0.593,0.178,0.838c0.118,0.245,0.279,0.455,0.482,0.628
		c0.203,0.174,0.441,0.307,0.717,0.4s0.569,0.14,0.883,0.14h0.799c0.313,0,0.607-0.046,0.883-0.14s0.514-0.227,0.717-0.4
		c0.203-0.173,0.364-0.383,0.482-0.628c0.119-0.245,0.178-0.524,0.178-0.838V19.97z"/>
	<path class="st0" d="M37.451,18.459V0.254h1.563v18.205H37.451z"/>
	<path class="st0" d="M50.82,18.459l-0.863-1.295c-0.355,0.465-0.801,0.84-1.334,1.123c-0.533,0.284-1.117,0.426-1.752,0.426h-0.393
		c-0.525,0-1.021-0.1-1.486-0.299c-0.465-0.198-0.871-0.471-1.219-0.818c-0.347-0.348-0.619-0.754-0.818-1.219
		s-0.299-0.961-0.299-1.485v-0.127c0-0.524,0.1-1.021,0.299-1.485s0.472-0.871,0.818-1.219c0.348-0.348,0.754-0.62,1.219-0.818
		c0.466-0.199,0.961-0.299,1.486-0.299h3.301V8.938c0-0.313-0.06-0.607-0.178-0.883c-0.119-0.274-0.279-0.514-0.482-0.717
		s-0.443-0.363-0.718-0.482s-0.569-0.178-0.882-0.178h-0.914c-0.313,0-0.607,0.059-0.883,0.178s-0.514,0.279-0.717,0.482
		s-0.364,0.442-0.482,0.717c-0.119,0.275-0.178,0.57-0.178,0.883v0.47l-1.563-0.254V9.026c0-0.524,0.1-1.021,0.299-1.485
		S43.554,6.67,43.9,6.322c0.348-0.348,0.754-0.62,1.219-0.818c0.466-0.199,0.961-0.299,1.486-0.299h0.914
		c0.524,0,1.02,0.1,1.484,0.299c0.466,0.198,0.872,0.471,1.219,0.818c0.348,0.348,0.621,0.754,0.819,1.219s0.298,0.961,0.298,1.485
		v9.433H50.82z M49.779,12.162h-3.301c-0.313,0-0.607,0.059-0.883,0.178s-0.514,0.281-0.717,0.488
		c-0.203,0.208-0.364,0.449-0.482,0.725c-0.119,0.274-0.178,0.568-0.178,0.882v0.546c0,0.313,0.059,0.607,0.178,0.883
		c0.118,0.274,0.279,0.514,0.482,0.717s0.441,0.363,0.717,0.482s0.569,0.178,0.883,0.178h1.041c0.313,0,0.607-0.059,0.882-0.178
		s0.515-0.279,0.718-0.482s0.363-0.442,0.482-0.717c0.118-0.275,0.178-0.57,0.178-0.883V12.162z"/>
	<path class="st0" d="M63.4,15.158c0,0.525-0.105,1.005-0.316,1.441c-0.212,0.436-0.5,0.811-0.863,1.123
		c-0.364,0.313-0.785,0.557-1.264,0.73c-0.479,0.173-0.979,0.26-1.504,0.26h-1.041c-0.525,0-1.027-0.1-1.505-0.299
		c-0.478-0.198-0.897-0.471-1.257-0.818s-0.647-0.754-0.863-1.219s-0.324-0.961-0.324-1.485v-0.521l1.563-0.254v0.863
		c0,0.313,0.064,0.607,0.196,0.883c0.132,0.274,0.307,0.514,0.526,0.717c0.221,0.203,0.475,0.363,0.762,0.482
		c0.288,0.119,0.589,0.178,0.902,0.178h1.041c0.313,0,0.613-0.047,0.9-0.14c0.288-0.093,0.545-0.227,0.769-0.399
		c0.224-0.174,0.401-0.383,0.533-0.629s0.196-0.525,0.196-0.838c0-0.465-0.102-0.846-0.305-1.143s-0.471-0.544-0.806-0.742
		c-0.335-0.199-0.716-0.364-1.143-0.496c-0.427-0.131-0.865-0.262-1.313-0.393c-0.449-0.132-0.887-0.281-1.314-0.451
		s-0.809-0.392-1.143-0.666c-0.334-0.275-0.604-0.621-0.807-1.035s-0.305-0.932-0.305-1.549c0-0.525,0.102-1.005,0.305-1.441
		c0.203-0.436,0.479-0.811,0.826-1.123c0.347-0.313,0.75-0.557,1.212-0.73c0.462-0.173,0.954-0.26,1.479-0.26h0.914
		c0.524,0,1.02,0.1,1.484,0.299c0.466,0.198,0.872,0.471,1.219,0.818c0.348,0.348,0.621,0.754,0.819,1.219s0.298,0.961,0.298,1.485
		v0.051l-1.561,0.254V8.938c0-0.313-0.06-0.607-0.178-0.883c-0.119-0.274-0.279-0.514-0.482-0.717s-0.443-0.363-0.718-0.482
		s-0.569-0.178-0.882-0.178h-0.914c-0.313,0-0.607,0.047-0.883,0.14s-0.514,0.227-0.717,0.399c-0.203,0.174-0.364,0.383-0.482,0.629
		c-0.119,0.246-0.178,0.525-0.178,0.838c0,0.449,0.102,0.814,0.305,1.098c0.203,0.284,0.471,0.523,0.806,0.718
		s0.716,0.357,1.143,0.489c0.427,0.131,0.863,0.266,1.308,0.406c0.444,0.139,0.881,0.298,1.308,0.476s0.808,0.406,1.143,0.686
		s0.603,0.628,0.806,1.048C63.299,14.021,63.4,14.541,63.4,15.158z"/>
	<path class="st0" d="M80.762,16.377c-0.199,0.465-0.472,0.871-0.818,1.219c-0.348,0.348-0.754,0.62-1.219,0.818
		c-0.466,0.199-0.961,0.299-1.486,0.299h-1.041c-0.524,0-1.02-0.1-1.484-0.299c-0.466-0.198-0.872-0.471-1.219-0.818
		c-0.348-0.348-0.621-0.754-0.819-1.219s-0.298-0.961-0.298-1.485V9.026c0-0.524,0.1-1.021,0.298-1.485s0.472-0.871,0.819-1.219
		c0.347-0.348,0.753-0.62,1.219-0.818c0.465-0.199,0.96-0.299,1.484-0.299h1.041c0.525,0,1.021,0.1,1.486,0.299
		c0.465,0.198,0.871,0.471,1.219,0.818c0.347,0.348,0.619,0.754,0.818,1.219s0.299,0.961,0.299,1.485v5.865
		C81.061,15.416,80.961,15.912,80.762,16.377z M79.498,8.938c0-0.313-0.059-0.607-0.178-0.883c-0.118-0.274-0.279-0.514-0.482-0.717
		s-0.441-0.363-0.717-0.482s-0.569-0.178-0.883-0.178h-1.041c-0.313,0-0.607,0.059-0.882,0.178s-0.515,0.279-0.718,0.482
		s-0.363,0.442-0.482,0.717c-0.118,0.275-0.178,0.57-0.178,0.883v6.043c0,0.313,0.06,0.607,0.178,0.883
		c0.119,0.274,0.279,0.514,0.482,0.717s0.443,0.363,0.718,0.482s0.569,0.178,0.882,0.178h1.041c0.313,0,0.607-0.059,0.883-0.178
		s0.514-0.279,0.717-0.482s0.364-0.442,0.482-0.717c0.119-0.275,0.178-0.57,0.178-0.883V8.938z"/>
	<path class="st0" d="M98.548,16.377c-0.198,0.465-0.472,0.871-0.819,1.219c-0.347,0.348-0.753,0.62-1.219,0.818
		c-0.465,0.199-0.96,0.299-1.484,0.299h-1.041c-0.525,0-1.021-0.1-1.486-0.299c-0.465-0.198-0.871-0.471-1.219-0.818
		c-0.347-0.348-0.619-0.754-0.818-1.219s-0.299-0.961-0.299-1.485V9.026c0-0.524,0.1-1.021,0.299-1.485s0.472-0.871,0.818-1.219
		c0.348-0.348,0.754-0.62,1.219-0.818c0.466-0.199,0.961-0.299,1.486-0.299h1.041c0.524,0,1.02,0.1,1.484,0.299
		c0.466,0.198,0.872,0.471,1.219,0.818c0.348,0.348,0.621,0.754,0.819,1.219s0.298,0.961,0.298,1.485v0.521l-1.561,0.254V8.938
		c0-0.313-0.06-0.607-0.178-0.883c-0.119-0.274-0.279-0.514-0.482-0.717s-0.443-0.363-0.718-0.482s-0.569-0.178-0.882-0.178h-1.041
		c-0.313,0-0.607,0.059-0.883,0.178s-0.514,0.279-0.717,0.482s-0.364,0.442-0.482,0.717c-0.119,0.275-0.178,0.57-0.178,0.883v6.043
		c0,0.313,0.059,0.607,0.178,0.883c0.118,0.274,0.279,0.514,0.482,0.717s0.441,0.363,0.717,0.482s0.569,0.178,0.883,0.178h1.041
		c0.313,0,0.607-0.059,0.882-0.178s0.515-0.279,0.718-0.482s0.363-0.442,0.482-0.717c0.118-0.275,0.178-0.57,0.178-0.883v-0.863
		l1.561,0.254v0.521C98.846,15.416,98.746,15.912,98.548,16.377z"/>
	<path class="st0" d="M110.354,16.377c-0.198,0.465-0.472,0.871-0.819,1.219c-0.347,0.348-0.753,0.62-1.219,0.818
		c-0.465,0.199-0.96,0.299-1.484,0.299h-1.041c-0.525,0-1.021-0.1-1.486-0.299c-0.465-0.198-0.871-0.471-1.219-0.818
		c-0.347-0.348-0.619-0.754-0.818-1.219s-0.299-0.961-0.299-1.485V9.026c0-0.524,0.1-1.021,0.299-1.485s0.472-0.871,0.818-1.219
		c0.348-0.348,0.754-0.62,1.219-0.818c0.466-0.199,0.961-0.299,1.486-0.299h1.041c0.524,0,1.02,0.1,1.484,0.299
		c0.466,0.198,0.872,0.471,1.219,0.818c0.348,0.348,0.621,0.754,0.819,1.219s0.298,0.961,0.298,1.485v5.865
		C110.652,15.416,110.553,15.912,110.354,16.377z M109.092,8.938c0-0.313-0.06-0.607-0.178-0.883
		c-0.119-0.274-0.279-0.514-0.482-0.717s-0.443-0.363-0.718-0.482s-0.569-0.178-0.882-0.178h-1.041
		c-0.313,0-0.607,0.059-0.883,0.178s-0.514,0.279-0.717,0.482s-0.364,0.442-0.482,0.717c-0.119,0.275-0.178,0.57-0.178,0.883v6.043
		c0,0.313,0.059,0.607,0.178,0.883c0.118,0.274,0.279,0.514,0.482,0.717s0.441,0.363,0.717,0.482s0.569,0.178,0.883,0.178h1.041
		c0.313,0,0.607-0.059,0.882-0.178s0.515-0.279,0.718-0.482s0.363-0.442,0.482-0.717c0.118-0.275,0.178-0.57,0.178-0.883V8.938z"/>
	<path class="st0" d="M127.5,18.459V8.938c0-0.313-0.06-0.607-0.178-0.883c-0.119-0.274-0.279-0.514-0.482-0.717
		s-0.443-0.363-0.718-0.482s-0.569-0.178-0.882-0.178h-0.775c-0.313,0-0.607,0.059-0.882,0.178s-0.517,0.279-0.724,0.482
		s-0.37,0.442-0.488,0.717c-0.119,0.275-0.178,0.57-0.178,0.883v9.521h-1.549V8.938c0-0.313-0.06-0.607-0.178-0.883
		c-0.119-0.274-0.281-0.514-0.489-0.717s-0.448-0.363-0.724-0.482s-0.569-0.178-0.883-0.178h-0.773
		c-0.313,0-0.607,0.059-0.883,0.178s-0.514,0.279-0.717,0.482s-0.364,0.442-0.482,0.717c-0.119,0.275-0.178,0.57-0.178,0.883v9.521
		h-1.563v-13h0.521l0.85,1.32c0.355-0.482,0.803-0.865,1.34-1.148c0.537-0.284,1.123-0.426,1.758-0.426h0.127
		c0.736,0,1.401,0.182,1.994,0.546c0.592,0.364,1.049,0.847,1.371,1.447c0.16-0.296,0.359-0.567,0.596-0.813
		c0.237-0.245,0.5-0.455,0.787-0.628c0.288-0.174,0.602-0.31,0.939-0.406c0.339-0.098,0.69-0.146,1.055-0.146h0.127
		c0.524,0,1.02,0.1,1.484,0.299c0.466,0.198,0.872,0.471,1.219,0.818c0.348,0.348,0.621,0.754,0.819,1.219s0.298,0.961,0.298,1.485
		v9.433H127.5z"/>
	<path class="st0" d="M140.348,18.459l-0.863-1.295c-0.355,0.465-0.801,0.84-1.334,1.123c-0.533,0.284-1.117,0.426-1.752,0.426
		h-0.393c-0.525,0-1.021-0.1-1.486-0.299c-0.465-0.198-0.871-0.471-1.219-0.818c-0.347-0.348-0.619-0.754-0.818-1.219
		s-0.299-0.961-0.299-1.485v-0.127c0-0.524,0.1-1.021,0.299-1.485s0.472-0.871,0.818-1.219c0.348-0.348,0.754-0.62,1.219-0.818
		c0.466-0.199,0.961-0.299,1.486-0.299h3.301V8.938c0-0.313-0.06-0.607-0.178-0.883c-0.119-0.274-0.279-0.514-0.482-0.717
		s-0.443-0.363-0.718-0.482s-0.569-0.178-0.882-0.178h-0.914c-0.313,0-0.607,0.059-0.883,0.178s-0.514,0.279-0.717,0.482
		s-0.364,0.442-0.482,0.717c-0.119,0.275-0.178,0.57-0.178,0.883v0.47l-1.563-0.254V9.026c0-0.524,0.1-1.021,0.299-1.485
		s0.472-0.871,0.818-1.219c0.348-0.348,0.754-0.62,1.219-0.818c0.466-0.199,0.961-0.299,1.486-0.299h0.914
		c0.524,0,1.02,0.1,1.484,0.299c0.466,0.198,0.872,0.471,1.219,0.818c0.348,0.348,0.621,0.754,0.819,1.219s0.298,0.961,0.298,1.485
		v9.433H140.348z M139.307,12.162h-3.301c-0.313,0-0.607,0.059-0.883,0.178s-0.514,0.281-0.717,0.488
		c-0.203,0.208-0.364,0.449-0.482,0.725c-0.119,0.274-0.178,0.568-0.178,0.882v0.546c0,0.313,0.059,0.607,0.178,0.883
		c0.118,0.274,0.279,0.514,0.482,0.717s0.441,0.363,0.717,0.482s0.569,0.178,0.883,0.178h1.041c0.313,0,0.607-0.059,0.882-0.178
		s0.515-0.279,0.718-0.482s0.363-0.442,0.482-0.717c0.118-0.275,0.178-0.57,0.178-0.883V12.162z"/>
	<path class="st0" d="M151.113,18.459V8.938c0-0.313-0.06-0.607-0.178-0.883c-0.119-0.274-0.279-0.514-0.482-0.717
		s-0.443-0.363-0.718-0.482s-0.569-0.178-0.882-0.178h-1.041c-0.313,0-0.607,0.059-0.883,0.178s-0.514,0.279-0.717,0.482
		s-0.364,0.442-0.482,0.717c-0.119,0.275-0.178,0.57-0.178,0.883v9.521h-1.563v-13h0.521l0.85,1.32
		c0.355-0.482,0.803-0.865,1.34-1.148c0.537-0.284,1.123-0.426,1.758-0.426h0.395c0.524,0,1.02,0.1,1.484,0.299
		c0.466,0.198,0.872,0.471,1.219,0.818c0.348,0.348,0.621,0.754,0.819,1.219s0.298,0.961,0.298,1.485v9.433H151.113z"/>
	<path class="st0" d="M163.961,18.459l-0.863-1.32c-0.355,0.482-0.801,0.865-1.334,1.148c-0.533,0.284-1.117,0.426-1.752,0.426
		h-0.393c-0.525,0-1.021-0.1-1.486-0.299c-0.465-0.198-0.871-0.471-1.219-0.818c-0.347-0.348-0.619-0.754-0.818-1.219
		s-0.299-0.961-0.299-1.485V9.026c0-0.524,0.1-1.021,0.299-1.485s0.472-0.871,0.818-1.219c0.348-0.348,0.754-0.62,1.219-0.818
		c0.466-0.199,0.961-0.299,1.486-0.299h0.393c0.584,0,1.126,0.119,1.625,0.355c0.5,0.236,0.928,0.566,1.283,0.99V0.254h1.561v18.205
		H163.961z M162.92,8.938c0-0.313-0.06-0.607-0.178-0.883c-0.119-0.274-0.279-0.514-0.482-0.717s-0.443-0.363-0.718-0.482
		s-0.569-0.178-0.882-0.178h-1.041c-0.313,0-0.607,0.059-0.883,0.178s-0.514,0.279-0.717,0.482s-0.364,0.442-0.482,0.717
		c-0.119,0.275-0.178,0.57-0.178,0.883v6.043c0,0.313,0.059,0.607,0.178,0.883c0.118,0.274,0.279,0.514,0.482,0.717
		s0.441,0.363,0.717,0.482s0.569,0.178,0.883,0.178h1.041c0.313,0,0.607-0.059,0.882-0.178s0.515-0.279,0.718-0.482
		s0.363-0.442,0.482-0.717c0.118-0.275,0.178-0.57,0.178-0.883V8.938z"/>
	<path class="st0" d="M175.989,16.377c-0.198,0.465-0.472,0.871-0.819,1.219c-0.347,0.348-0.753,0.62-1.219,0.818
		c-0.465,0.199-0.96,0.299-1.484,0.299h-1.041c-0.525,0-1.021-0.1-1.486-0.299c-0.465-0.198-0.871-0.471-1.219-0.818
		c-0.347-0.348-0.619-0.754-0.818-1.219s-0.299-0.961-0.299-1.485V9.026c0-0.524,0.1-1.021,0.299-1.485s0.472-0.871,0.818-1.219
		c0.348-0.348,0.754-0.62,1.219-0.818c0.466-0.199,0.961-0.299,1.486-0.299h1.041c0.524,0,1.02,0.1,1.484,0.299
		c0.466,0.198,0.872,0.471,1.219,0.818c0.348,0.348,0.621,0.754,0.819,1.219s0.298,0.961,0.298,1.485v5.865
		C176.287,15.416,176.188,15.912,175.989,16.377z M174.727,8.938c0-0.313-0.06-0.607-0.178-0.883
		c-0.119-0.274-0.279-0.514-0.482-0.717s-0.443-0.363-0.718-0.482s-0.569-0.178-0.882-0.178h-1.041
		c-0.313,0-0.607,0.059-0.883,0.178s-0.514,0.279-0.717,0.482s-0.364,0.442-0.482,0.717c-0.119,0.275-0.178,0.57-0.178,0.883v6.043
		c0,0.313,0.059,0.607,0.178,0.883c0.118,0.274,0.279,0.514,0.482,0.717s0.441,0.363,0.717,0.482s0.569,0.178,0.883,0.178h1.041
		c0.313,0,0.607-0.059,0.882-0.178s0.515-0.279,0.718-0.482s0.363-0.442,0.482-0.717c0.118-0.275,0.178-0.57,0.178-0.883V8.938z"/>
	<path class="st0" d="M188.348,15.158c0,0.525-0.105,1.005-0.316,1.441c-0.212,0.436-0.5,0.811-0.863,1.123
		c-0.364,0.313-0.785,0.557-1.264,0.73c-0.479,0.173-0.979,0.26-1.504,0.26h-1.041c-0.525,0-1.027-0.1-1.505-0.299
		c-0.478-0.198-0.897-0.471-1.257-0.818s-0.647-0.754-0.863-1.219s-0.324-0.961-0.324-1.485v-0.521l1.563-0.254v0.863
		c0,0.313,0.064,0.607,0.196,0.883c0.132,0.274,0.307,0.514,0.526,0.717c0.221,0.203,0.475,0.363,0.762,0.482
		c0.288,0.119,0.589,0.178,0.902,0.178h1.041c0.313,0,0.613-0.047,0.9-0.14c0.288-0.093,0.545-0.227,0.769-0.399
		c0.224-0.174,0.401-0.383,0.533-0.629s0.196-0.525,0.196-0.838c0-0.465-0.102-0.846-0.305-1.143s-0.471-0.544-0.806-0.742
		c-0.335-0.199-0.716-0.364-1.143-0.496c-0.427-0.131-0.865-0.262-1.313-0.393c-0.449-0.132-0.887-0.281-1.314-0.451
		s-0.809-0.392-1.143-0.666c-0.334-0.275-0.604-0.621-0.807-1.035s-0.305-0.932-0.305-1.549c0-0.525,0.102-1.005,0.305-1.441
		c0.203-0.436,0.479-0.811,0.826-1.123c0.347-0.313,0.75-0.557,1.212-0.73c0.462-0.173,0.954-0.26,1.479-0.26h0.914
		c0.524,0,1.02,0.1,1.484,0.299c0.466,0.198,0.872,0.471,1.219,0.818c0.348,0.348,0.621,0.754,0.819,1.219s0.298,0.961,0.298,1.485
		v0.051l-1.561,0.254V8.938c0-0.313-0.06-0.607-0.178-0.883c-0.119-0.274-0.279-0.514-0.482-0.717s-0.443-0.363-0.718-0.482
		s-0.569-0.178-0.882-0.178h-0.914c-0.313,0-0.607,0.047-0.883,0.14s-0.514,0.227-0.717,0.399c-0.203,0.174-0.364,0.383-0.482,0.629
		c-0.119,0.246-0.178,0.525-0.178,0.838c0,0.449,0.102,0.814,0.305,1.098c0.203,0.284,0.471,0.523,0.806,0.718
		s0.716,0.357,1.143,0.489c0.427,0.131,0.863,0.266,1.308,0.406c0.444,0.139,0.881,0.298,1.308,0.476s0.808,0.406,1.143,0.686
		s0.603,0.628,0.806,1.048C188.246,14.021,188.348,14.541,188.348,15.158z"/>
	<path class="st0" d="M207.474,15.983c-0.233,0.542-0.552,1.016-0.958,1.422s-0.881,0.726-1.422,0.958
		c-0.542,0.233-1.122,0.35-1.74,0.35h-1.295c-0.617,0-1.199-0.116-1.745-0.35c-0.546-0.232-1.022-0.552-1.429-0.958
		s-0.725-0.88-0.958-1.422s-0.349-1.122-0.349-1.739V4.469c0-0.617,0.115-1.197,0.349-1.739s0.552-1.016,0.958-1.422
		s0.883-0.726,1.429-0.958c0.546-0.233,1.128-0.35,1.745-0.35h1.295c0.618,0,1.198,0.116,1.74,0.35
		c0.541,0.232,1.016,0.552,1.422,0.958s0.725,0.88,0.958,1.422s0.349,1.122,0.349,1.739v0.736l-1.637,0.254v-0.99
		c0-0.406-0.076-0.785-0.229-1.137c-0.152-0.351-0.36-0.658-0.623-0.92c-0.262-0.262-0.568-0.47-0.92-0.622s-0.73-0.229-1.137-0.229
		h-1.143c-0.406,0-0.785,0.076-1.136,0.229s-0.66,0.36-0.927,0.622s-0.477,0.569-0.629,0.92c-0.152,0.352-0.229,0.73-0.229,1.137
		v9.775c0,0.406,0.076,0.785,0.229,1.137c0.152,0.351,0.362,0.66,0.629,0.926c0.267,0.268,0.576,0.477,0.927,0.629
		s0.729,0.229,1.136,0.229h1.143c0.406,0,0.785-0.076,1.137-0.229s0.658-0.361,0.92-0.629c0.263-0.266,0.471-0.575,0.623-0.926
		c0.152-0.352,0.229-0.73,0.229-1.137v-0.99l1.637,0.267v0.724C207.822,14.861,207.707,15.441,207.474,15.983z"/>
	<path class="st0" d="M221.445,14.244c0,0.617-0.125,1.197-0.375,1.739s-0.584,1.016-1.003,1.422s-0.905,0.726-1.46,0.958
		c-0.555,0.233-1.141,0.35-1.758,0.35h-1.309c-0.617,0-1.203-0.116-1.758-0.35c-0.555-0.232-1.041-0.552-1.46-0.958
		s-0.753-0.88-1.003-1.422s-0.375-1.122-0.375-1.739v-0.724l1.639-0.267v0.99c0,0.406,0.082,0.785,0.247,1.137
		c0.165,0.351,0.388,0.66,0.667,0.926c0.279,0.268,0.603,0.477,0.971,0.629s0.756,0.229,1.162,0.229h1.143
		c0.406,0,0.791-0.076,1.154-0.229c0.364-0.152,0.686-0.361,0.965-0.629c0.279-0.266,0.502-0.575,0.667-0.926
		c0.165-0.352,0.247-0.73,0.247-1.137v-0.546c0-0.626-0.122-1.147-0.367-1.562c-0.246-0.414-0.572-0.768-0.979-1.061
		c-0.406-0.291-0.865-0.539-1.377-0.742s-1.039-0.406-1.58-0.609c-0.542-0.203-1.068-0.428-1.581-0.673s-0.972-0.552-1.378-0.921
		c-0.406-0.367-0.731-0.818-0.977-1.352c-0.246-0.533-0.369-1.189-0.369-1.968V4.469c0-0.617,0.117-1.197,0.35-1.739
		s0.553-1.016,0.959-1.422s0.882-0.726,1.428-0.958c0.546-0.233,1.128-0.35,1.746-0.35h1.168c0.617,0,1.197,0.116,1.738,0.35
		c0.542,0.232,1.016,0.552,1.422,0.958s0.727,0.88,0.959,1.422s0.35,1.122,0.35,1.739v0.47l-1.639,0.267V4.469
		c0-0.406-0.076-0.785-0.229-1.137c-0.152-0.351-0.359-0.658-0.621-0.92c-0.263-0.262-0.57-0.47-0.921-0.622
		s-0.729-0.229-1.136-0.229h-1.016c-0.406,0-0.785,0.076-1.137,0.229s-0.66,0.36-0.927,0.622s-0.476,0.569-0.628,0.92
		c-0.152,0.352-0.229,0.73-0.229,1.137v0.343c0,0.584,0.122,1.075,0.367,1.473c0.246,0.397,0.572,0.738,0.979,1.022
		c0.406,0.283,0.865,0.528,1.377,0.736c0.512,0.207,1.039,0.418,1.58,0.635c0.542,0.215,1.068,0.452,1.581,0.711
		c0.513,0.258,0.972,0.575,1.378,0.951c0.406,0.377,0.731,0.836,0.977,1.378c0.246,0.542,0.369,1.202,0.369,1.98V14.244z"/>
	<path class="st0" d="M234.939,14.244c0,0.617-0.125,1.197-0.374,1.739s-0.584,1.016-1.003,1.422s-0.906,0.726-1.46,0.958
		c-0.554,0.233-1.141,0.35-1.759,0.35h-1.307c-0.618,0-1.205-0.116-1.759-0.35c-0.554-0.232-1.041-0.552-1.46-0.958
		s-0.754-0.88-1.003-1.422s-0.374-1.122-0.374-1.739v-0.724l1.637-0.267v0.99c0,0.406,0.083,0.785,0.248,1.137
		c0.165,0.351,0.387,0.66,0.666,0.926c0.279,0.268,0.604,0.477,0.972,0.629s0.755,0.229,1.161,0.229h1.143
		c0.406,0,0.792-0.076,1.156-0.229c0.363-0.152,0.686-0.361,0.965-0.629c0.279-0.266,0.501-0.575,0.666-0.926
		c0.165-0.352,0.248-0.73,0.248-1.137v-0.546c0-0.626-0.123-1.147-0.369-1.562c-0.245-0.414-0.57-0.768-0.977-1.061
		c-0.406-0.291-0.865-0.539-1.378-0.742s-1.039-0.406-1.581-0.609c-0.541-0.203-1.068-0.428-1.58-0.673s-0.971-0.552-1.377-0.921
		c-0.406-0.367-0.732-0.818-0.979-1.352c-0.245-0.533-0.367-1.189-0.367-1.968V4.469c0-0.617,0.115-1.197,0.349-1.739
		s0.552-1.016,0.958-1.422s0.883-0.726,1.429-0.958c0.546-0.233,1.128-0.35,1.745-0.35h1.168c0.618,0,1.198,0.116,1.74,0.35
		c0.541,0.232,1.016,0.552,1.422,0.958s0.725,0.88,0.958,1.422s0.349,1.122,0.349,1.739v0.47l-1.637,0.267V4.469
		c0-0.406-0.076-0.785-0.229-1.137c-0.152-0.351-0.36-0.658-0.623-0.92c-0.262-0.262-0.568-0.47-0.92-0.622s-0.73-0.229-1.137-0.229
		h-1.016c-0.406,0-0.785,0.076-1.136,0.229s-0.66,0.36-0.927,0.622s-0.477,0.569-0.629,0.92c-0.152,0.352-0.229,0.73-0.229,1.137
		v0.343c0,0.584,0.123,1.075,0.369,1.473c0.245,0.397,0.57,0.738,0.977,1.022c0.406,0.283,0.865,0.528,1.378,0.736
		c0.513,0.207,1.039,0.418,1.581,0.635c0.541,0.215,1.068,0.452,1.58,0.711c0.512,0.258,0.971,0.575,1.377,0.951
		c0.406,0.377,0.732,0.836,0.979,1.378c0.245,0.542,0.367,1.202,0.367,1.98V14.244z"/>
</g>
</svg>