<!-- Generator: Adobe Illustrator 17.0.0, SVG Export Plug-In  -->
<svg version="1.1"
	 xmlns="http://www.w3.org/2000/svg" xmlns:xlink="http://www.w3.org/1999/xlink" xmlns:a="http://ns.adobe.com/AdobeSVGViewerExtensions/3.0/"
	 x="0px" y="0px" width="277.189px" height="23.664px" viewBox="0 0 277.189 23.664" enable-background="new 0 0 277.189 23.664"
	 xml:space="preserve">
<defs>
</defs>
<g>
	<path fill="#F16529" d="M1.638,1.815v6.767h6.97v1.562h-6.97v8.315H0V0.254h10.245v1.562H1.638z"/>
	<path fill="#F16529" d="M20.713,16.377c-0.199,0.465-0.473,0.871-0.819,1.219s-0.753,0.62-1.219,0.818
		c-0.466,0.199-0.96,0.299-1.485,0.299h-1.041c-0.525,0-1.02-0.1-1.485-0.299c-0.466-0.198-0.872-0.471-1.219-0.818
		s-0.62-0.754-0.819-1.219c-0.198-0.465-0.298-0.961-0.298-1.485V9.026c0-0.524,0.1-1.021,0.298-1.485
		c0.199-0.465,0.473-0.871,0.819-1.219s0.753-0.62,1.219-0.818c0.466-0.199,0.96-0.299,1.485-0.299h1.041
		c0.525,0,1.02,0.1,1.485,0.299c0.466,0.198,0.872,0.471,1.219,0.818s0.62,0.754,0.819,1.219c0.198,0.465,0.298,0.961,0.298,1.485
		v5.865C21.011,15.416,20.911,15.912,20.713,16.377z M19.449,8.938c0-0.313-0.059-0.607-0.178-0.883
		c-0.119-0.274-0.279-0.514-0.482-0.717s-0.442-0.363-0.717-0.482c-0.275-0.119-0.57-0.178-0.883-0.178h-1.041
		c-0.313,0-0.607,0.059-0.883,0.178c-0.274,0.119-0.514,0.279-0.717,0.482s-0.363,0.442-0.482,0.717
		c-0.119,0.275-0.178,0.57-0.178,0.883v6.043c0,0.313,0.059,0.607,0.178,0.883c0.119,0.274,0.279,0.514,0.482,0.717
		s0.442,0.363,0.717,0.482c0.275,0.119,0.57,0.178,0.883,0.178h1.041c0.313,0,0.607-0.059,0.883-0.178
		c0.274-0.119,0.514-0.279,0.717-0.482s0.363-0.442,0.482-0.717c0.119-0.275,0.178-0.57,0.178-0.883V8.938z"/>
	<path fill="#F16529" d="M27.955,6.944c-0.313,0-0.607,0.06-0.883,0.178c-0.274,0.118-0.514,0.279-0.717,0.482
		s-0.363,0.442-0.482,0.718c-0.119,0.274-0.178,0.568-0.178,0.882v9.255h-1.562v-13h0.521l0.851,1.32
		c0.355-0.482,0.802-0.865,1.339-1.148c0.538-0.284,1.124-0.426,1.759-0.426h0.914v1.739H27.955z"/>
	<path fill="#F16529" d="M45.322,18.459V8.938c0-0.313-0.059-0.607-0.178-0.883c-0.119-0.274-0.279-0.514-0.482-0.717
		s-0.442-0.363-0.717-0.482c-0.275-0.119-0.57-0.178-0.883-0.178h-0.774c-0.313,0-0.607,0.059-0.882,0.178
		c-0.275,0.119-0.517,0.279-0.725,0.482c-0.207,0.203-0.369,0.442-0.488,0.717c-0.119,0.275-0.178,0.57-0.178,0.883v9.521h-1.549
		V8.938c0-0.313-0.059-0.607-0.178-0.883c-0.119-0.274-0.281-0.514-0.488-0.717c-0.208-0.203-0.449-0.363-0.725-0.482
		c-0.274-0.119-0.568-0.178-0.882-0.178H35.42c-0.313,0-0.607,0.059-0.883,0.178c-0.274,0.119-0.514,0.279-0.717,0.482
		s-0.363,0.442-0.482,0.717c-0.119,0.275-0.178,0.57-0.178,0.883v9.521h-1.562v-13h0.521l0.851,1.32
		c0.355-0.482,0.802-0.865,1.339-1.148c0.538-0.284,1.124-0.426,1.759-0.426h0.127c0.736,0,1.401,0.182,1.993,0.546
		s1.049,0.847,1.371,1.447c0.16-0.296,0.359-0.567,0.597-0.813s0.499-0.455,0.787-0.628c0.288-0.174,0.601-0.31,0.939-0.406
		c0.339-0.098,0.69-0.146,1.054-0.146h0.127c0.525,0,1.02,0.1,1.485,0.299c0.466,0.198,0.872,0.471,1.219,0.818
		s0.62,0.754,0.819,1.219c0.198,0.465,0.298,0.961,0.298,1.485v9.433H45.322z"/>
	<path fill="#F16529" d="M58.17,18.459l-0.863-1.32c-0.355,0.482-0.8,0.865-1.333,1.148c-0.533,0.284-1.117,0.426-1.752,0.426
		h-0.394c-0.525,0-1.02-0.1-1.485-0.299c-0.466-0.198-0.872-0.471-1.219-0.818s-0.62-0.754-0.819-1.219
		c-0.198-0.465-0.298-0.961-0.298-1.485V5.459h1.562v9.521c0,0.313,0.059,0.607,0.178,0.883c0.119,0.274,0.279,0.514,0.482,0.717
		s0.442,0.363,0.717,0.482c0.275,0.119,0.57,0.178,0.883,0.178h1.041c0.313,0,0.607-0.059,0.883-0.178
		c0.274-0.119,0.514-0.279,0.717-0.482s0.363-0.442,0.482-0.717c0.119-0.275,0.178-0.57,0.178-0.883V5.459h1.562v13H58.17z"/>
	<path fill="#F16529" d="M62.334,18.459V0.254h1.562v18.205H62.334z"/>
	<path fill="#F16529" d="M75.702,18.459l-0.863-1.295c-0.355,0.465-0.8,0.84-1.333,1.123c-0.533,0.284-1.117,0.426-1.752,0.426
		H71.36c-0.524,0-1.021-0.1-1.485-0.299c-0.465-0.198-0.871-0.471-1.219-0.818s-0.62-0.754-0.818-1.219
		c-0.199-0.465-0.299-0.961-0.299-1.485v-0.127c0-0.524,0.1-1.021,0.299-1.485c0.198-0.465,0.471-0.871,0.818-1.219
		s0.754-0.62,1.219-0.818c0.465-0.199,0.961-0.299,1.485-0.299h3.301V8.938c0-0.313-0.06-0.607-0.178-0.883
		c-0.118-0.274-0.279-0.514-0.482-0.717s-0.442-0.363-0.718-0.482c-0.274-0.119-0.568-0.178-0.882-0.178h-0.914
		c-0.313,0-0.607,0.059-0.882,0.178c-0.275,0.119-0.515,0.279-0.718,0.482s-0.364,0.442-0.482,0.717
		c-0.118,0.275-0.178,0.57-0.178,0.883v0.47l-1.562-0.254V9.026c0-0.524,0.1-1.021,0.299-1.485c0.198-0.465,0.471-0.871,0.818-1.219
		s0.754-0.62,1.219-0.818c0.465-0.199,0.961-0.299,1.485-0.299h0.914c0.524,0,1.021,0.1,1.485,0.299
		c0.465,0.198,0.871,0.471,1.219,0.818s0.62,0.754,0.818,1.219c0.199,0.465,0.299,0.961,0.299,1.485v9.433H75.702z M74.661,12.162
		H71.36c-0.313,0-0.607,0.059-0.882,0.178c-0.275,0.119-0.515,0.281-0.718,0.488c-0.203,0.208-0.364,0.449-0.482,0.725
		c-0.118,0.274-0.178,0.568-0.178,0.882v0.546c0,0.313,0.06,0.607,0.178,0.883c0.118,0.274,0.279,0.514,0.482,0.717
		s0.442,0.363,0.718,0.482c0.274,0.119,0.568,0.178,0.882,0.178h1.041c0.313,0,0.607-0.059,0.882-0.178
		c0.275-0.119,0.515-0.279,0.718-0.482s0.364-0.442,0.482-0.717c0.118-0.275,0.178-0.57,0.178-0.883V12.162z"/>
	<path fill="#F16529" d="M83.167,6.944c-0.313,0-0.607,0.06-0.882,0.178c-0.275,0.118-0.515,0.279-0.718,0.482
		s-0.364,0.442-0.482,0.718c-0.118,0.274-0.178,0.568-0.178,0.882v9.255h-1.562v-13h0.521l0.851,1.32
		c0.355-0.482,0.802-0.865,1.34-1.148c0.537-0.284,1.123-0.426,1.758-0.426h0.914v1.739H83.167z"/>
	<path fill="#F16529" d="M87.204,2.336V0.254h1.815v2.082H87.204z M87.331,18.459v-13h1.562v13H87.331z"/>
	<path fill="#F16529" d="M100.922,16.377c-0.199,0.465-0.473,0.871-0.819,1.219s-0.753,0.62-1.219,0.818
		c-0.466,0.199-0.96,0.299-1.485,0.299h-1.041c-0.525,0-1.02-0.1-1.485-0.299c-0.466-0.198-0.872-0.471-1.219-0.818
		s-0.62-0.754-0.819-1.219c-0.198-0.465-0.298-0.961-0.298-1.485V9.026c0-0.524,0.1-1.021,0.298-1.485
		c0.199-0.465,0.473-0.871,0.819-1.219s0.753-0.62,1.219-0.818c0.466-0.199,0.96-0.299,1.485-0.299h1.041
		c0.525,0,1.02,0.1,1.485,0.299c0.466,0.198,0.872,0.471,1.219,0.818s0.62,0.754,0.819,1.219c0.198,0.465,0.298,0.961,0.298,1.485
		v5.865C101.22,15.416,101.12,15.912,100.922,16.377z M99.658,8.938c0-0.313-0.059-0.607-0.178-0.883
		c-0.119-0.274-0.279-0.514-0.482-0.717s-0.442-0.363-0.717-0.482c-0.275-0.119-0.57-0.178-0.883-0.178h-1.041
		c-0.313,0-0.607,0.059-0.883,0.178c-0.274,0.119-0.514,0.279-0.717,0.482s-0.363,0.442-0.482,0.717
		c-0.119,0.275-0.178,0.57-0.178,0.883v6.043c0,0.313,0.059,0.607,0.178,0.883c0.119,0.274,0.279,0.514,0.482,0.717
		s0.442,0.363,0.717,0.482c0.275,0.119,0.57,0.178,0.883,0.178h1.041c0.313,0,0.607-0.059,0.883-0.178
		c0.274-0.119,0.514-0.279,0.717-0.482s0.363-0.442,0.482-0.717c0.119-0.275,0.178-0.57,0.178-0.883V8.938z"/>
	<path fill="#F16529" d="M113.28,15.158c0,0.525-0.106,1.005-0.317,1.441c-0.211,0.436-0.5,0.811-0.863,1.123
		s-0.785,0.557-1.264,0.73c-0.478,0.173-0.979,0.26-1.504,0.26h-1.041c-0.525,0-1.026-0.1-1.504-0.299
		c-0.479-0.198-0.897-0.471-1.258-0.818c-0.359-0.348-0.646-0.754-0.863-1.219c-0.215-0.465-0.323-0.961-0.323-1.485v-0.521
		l1.562-0.254v0.863c0,0.313,0.065,0.607,0.197,0.883c0.131,0.274,0.307,0.514,0.526,0.717s0.474,0.363,0.762,0.482
		s0.589,0.178,0.901,0.178h1.041c0.313,0,0.613-0.047,0.901-0.14s0.544-0.227,0.769-0.399c0.224-0.174,0.401-0.383,0.533-0.629
		c0.131-0.246,0.196-0.525,0.196-0.838c0-0.465-0.102-0.846-0.305-1.143s-0.472-0.544-0.806-0.742
		c-0.335-0.199-0.716-0.364-1.143-0.496c-0.428-0.131-0.865-0.262-1.314-0.393c-0.449-0.132-0.887-0.281-1.314-0.451
		c-0.427-0.17-0.808-0.392-1.143-0.666c-0.334-0.275-0.603-0.621-0.806-1.035s-0.305-0.932-0.305-1.549
		c0-0.525,0.102-1.005,0.305-1.441c0.203-0.436,0.478-0.811,0.825-1.123s0.751-0.557,1.213-0.73c0.461-0.173,0.953-0.26,1.479-0.26
		h0.914c0.525,0,1.02,0.1,1.485,0.299c0.466,0.198,0.872,0.471,1.219,0.818s0.62,0.754,0.819,1.219
		c0.198,0.465,0.298,0.961,0.298,1.485v0.051l-1.562,0.254V8.938c0-0.313-0.059-0.607-0.178-0.883
		c-0.119-0.274-0.279-0.514-0.482-0.717s-0.442-0.363-0.717-0.482c-0.275-0.119-0.57-0.178-0.883-0.178h-0.914
		c-0.313,0-0.607,0.047-0.883,0.14c-0.274,0.093-0.514,0.227-0.717,0.399c-0.203,0.174-0.363,0.383-0.482,0.629
		s-0.178,0.525-0.178,0.838c0,0.449,0.102,0.814,0.305,1.098c0.203,0.284,0.472,0.523,0.807,0.718
		c0.334,0.194,0.715,0.357,1.143,0.489c0.427,0.131,0.863,0.266,1.307,0.406c0.445,0.139,0.881,0.298,1.309,0.476
		c0.427,0.178,0.808,0.406,1.143,0.686c0.334,0.279,0.603,0.628,0.806,1.048C113.179,14.021,113.28,14.541,113.28,15.158z"/>
	<path fill="#F16529" d="M130.641,16.377c-0.198,0.465-0.471,0.871-0.818,1.219s-0.754,0.62-1.219,0.818
		c-0.465,0.199-0.961,0.299-1.485,0.299h-1.041c-0.524,0-1.021-0.1-1.485-0.299c-0.465-0.198-0.871-0.471-1.219-0.818
		s-0.62-0.754-0.818-1.219c-0.199-0.465-0.299-0.961-0.299-1.485V9.026c0-0.524,0.1-1.021,0.299-1.485
		c0.198-0.465,0.471-0.871,0.818-1.219s0.754-0.62,1.219-0.818c0.465-0.199,0.961-0.299,1.485-0.299h1.041
		c0.524,0,1.021,0.1,1.485,0.299c0.465,0.198,0.871,0.471,1.219,0.818s0.62,0.754,0.818,1.219c0.199,0.465,0.299,0.961,0.299,1.485
		v0.521l-1.562,0.254V8.938c0-0.313-0.06-0.607-0.178-0.883c-0.118-0.274-0.279-0.514-0.482-0.717S128.275,6.975,128,6.855
		c-0.274-0.119-0.568-0.178-0.882-0.178h-1.041c-0.313,0-0.607,0.059-0.882,0.178c-0.275,0.119-0.515,0.279-0.718,0.482
		s-0.364,0.442-0.482,0.717c-0.118,0.275-0.178,0.57-0.178,0.883v6.043c0,0.313,0.06,0.607,0.178,0.883
		c0.118,0.274,0.279,0.514,0.482,0.717s0.442,0.363,0.718,0.482c0.274,0.119,0.568,0.178,0.882,0.178h1.041
		c0.313,0,0.607-0.059,0.882-0.178c0.275-0.119,0.515-0.279,0.718-0.482s0.364-0.442,0.482-0.717
		c0.118-0.275,0.178-0.57,0.178-0.883v-0.863l1.562,0.254v0.521C130.939,15.416,130.84,15.912,130.641,16.377z"/>
	<path fill="#F16529" d="M142.447,16.377c-0.198,0.465-0.471,0.871-0.818,1.219s-0.754,0.62-1.219,0.818
		c-0.465,0.199-0.961,0.299-1.485,0.299h-1.041c-0.524,0-1.021-0.1-1.485-0.299c-0.465-0.198-0.871-0.471-1.219-0.818
		s-0.62-0.754-0.818-1.219c-0.199-0.465-0.299-0.961-0.299-1.485V9.026c0-0.524,0.1-1.021,0.299-1.485
		c0.198-0.465,0.471-0.871,0.818-1.219s0.754-0.62,1.219-0.818c0.465-0.199,0.961-0.299,1.485-0.299h1.041
		c0.524,0,1.021,0.1,1.485,0.299c0.465,0.198,0.871,0.471,1.219,0.818s0.62,0.754,0.818,1.219c0.199,0.465,0.299,0.961,0.299,1.485
		v5.865C142.746,15.416,142.646,15.912,142.447,16.377z M141.185,8.938c0-0.313-0.06-0.607-0.178-0.883
		c-0.118-0.274-0.279-0.514-0.482-0.717s-0.442-0.363-0.718-0.482c-0.274-0.119-0.568-0.178-0.882-0.178h-1.041
		c-0.313,0-0.607,0.059-0.882,0.178c-0.275,0.119-0.515,0.279-0.718,0.482s-0.364,0.442-0.482,0.717
		c-0.118,0.275-0.178,0.57-0.178,0.883v6.043c0,0.313,0.06,0.607,0.178,0.883c0.118,0.274,0.279,0.514,0.482,0.717
		s0.442,0.363,0.718,0.482c0.274,0.119,0.568,0.178,0.882,0.178h1.041c0.313,0,0.607-0.059,0.882-0.178
		c0.275-0.119,0.515-0.279,0.718-0.482s0.364-0.442,0.482-0.717c0.118-0.275,0.178-0.57,0.178-0.883V8.938z"/>
	<path fill="#F16529" d="M152.991,18.459V8.938c0-0.313-0.06-0.607-0.178-0.883c-0.118-0.274-0.279-0.514-0.482-0.717
		s-0.442-0.363-0.718-0.482c-0.274-0.119-0.568-0.178-0.882-0.178h-1.041c-0.313,0-0.607,0.059-0.882,0.178
		c-0.275,0.119-0.515,0.279-0.718,0.482s-0.364,0.442-0.482,0.717c-0.118,0.275-0.178,0.57-0.178,0.883v9.521h-1.562v-13h0.521
		l0.851,1.32c0.355-0.482,0.802-0.865,1.34-1.148c0.537-0.284,1.123-0.426,1.758-0.426h0.394c0.524,0,1.021,0.1,1.485,0.299
		c0.465,0.198,0.871,0.471,1.219,0.818s0.62,0.754,0.818,1.219c0.199,0.465,0.299,0.961,0.299,1.485v9.433H152.991z"/>
	<path fill="#F16529" d="M172.783,18.459v-8.315h-6.97v8.315h-1.638V0.254h1.638v8.328h6.97V0.254h1.638v18.205H172.783z"/>
	<path fill="#F16529" d="M183.003,1.815v16.644h-1.638V1.815h-4.342V0.254h10.321v1.562H183.003z"/>
	<path fill="#F16529" d="M201.157,18.459V5.979l-0.114,0.774l-4.228,11.705h-0.863l-4.266-11.705l-0.102-0.774v12.479h-1.638V0.254
		h0.851l5.522,14.93l0.051,0.673l0.051-0.673l5.51-14.93h0.863v18.205H201.157z"/>
	<path fill="#F16529" d="M206.68,18.459V0.254h1.638v16.644h6.97v1.562H206.68z"/>
	<path fill="#F16529" d="M225.456,23.664h-1.511l2.311-6.322l-4.215-11.883h1.562l3.39,9.852l0.051,0.673l0.051-0.673l3.377-9.852
		h1.562L225.456,23.664z"/>
	<path fill="#F16529" d="M249.723,15.983c-0.232,0.542-0.552,1.016-0.958,1.422s-0.88,0.726-1.422,0.958
		c-0.542,0.233-1.122,0.35-1.739,0.35h-1.295c-0.617,0-1.199-0.116-1.746-0.35c-0.545-0.232-1.021-0.552-1.428-0.958
		s-0.726-0.88-0.959-1.422c-0.232-0.542-0.349-1.122-0.349-1.739V4.469c0-0.617,0.116-1.197,0.349-1.739
		c0.233-0.542,0.553-1.016,0.959-1.422s0.883-0.726,1.428-0.958c0.547-0.233,1.129-0.35,1.746-0.35h1.295
		c0.617,0,1.197,0.116,1.739,0.35c0.542,0.232,1.016,0.552,1.422,0.958s0.726,0.88,0.958,1.422c0.233,0.542,0.35,1.122,0.35,1.739
		v0.736l-1.638,0.254v-0.99c0-0.406-0.076-0.785-0.229-1.137c-0.152-0.351-0.36-0.658-0.622-0.92s-0.569-0.47-0.92-0.622
		c-0.352-0.152-0.73-0.229-1.137-0.229h-1.143c-0.406,0-0.785,0.076-1.137,0.229c-0.351,0.152-0.66,0.36-0.926,0.622
		c-0.268,0.262-0.477,0.569-0.629,0.92c-0.152,0.352-0.229,0.73-0.229,1.137v9.775c0,0.406,0.076,0.785,0.229,1.137
		c0.152,0.351,0.361,0.66,0.629,0.926c0.266,0.268,0.575,0.477,0.926,0.629c0.352,0.152,0.73,0.229,1.137,0.229h1.143
		c0.406,0,0.785-0.076,1.137-0.229c0.351-0.152,0.658-0.361,0.92-0.629c0.262-0.266,0.47-0.575,0.622-0.926
		c0.152-0.352,0.229-0.73,0.229-1.137v-0.99l1.638,0.267v0.724C250.072,14.861,249.956,15.441,249.723,15.983z"/>
	<path fill="#F16529" d="M263.694,14.244c0,0.617-0.125,1.197-0.374,1.739c-0.25,0.542-0.584,1.016-1.004,1.422
		c-0.418,0.406-0.905,0.726-1.459,0.958c-0.555,0.233-1.141,0.35-1.759,0.35h-1.308c-0.617,0-1.204-0.116-1.758-0.35
		c-0.555-0.232-1.041-0.552-1.461-0.958c-0.418-0.406-0.753-0.88-1.002-1.422c-0.25-0.542-0.375-1.122-0.375-1.739v-0.724
		l1.638-0.267v0.99c0,0.406,0.083,0.785,0.247,1.137c0.166,0.351,0.388,0.66,0.667,0.926c0.279,0.268,0.603,0.477,0.972,0.629
		c0.367,0.152,0.755,0.229,1.161,0.229h1.143c0.406,0,0.792-0.076,1.155-0.229s0.686-0.361,0.965-0.629
		c0.279-0.266,0.502-0.575,0.666-0.926c0.166-0.352,0.248-0.73,0.248-1.137v-0.546c0-0.626-0.123-1.147-0.368-1.562
		s-0.571-0.768-0.978-1.061c-0.406-0.291-0.865-0.539-1.377-0.742c-0.513-0.203-1.039-0.406-1.581-0.609s-1.068-0.428-1.581-0.673
		c-0.512-0.245-0.971-0.552-1.377-0.921c-0.406-0.367-0.732-0.818-0.978-1.352s-0.368-1.189-0.368-1.968V4.469
		c0-0.617,0.116-1.197,0.35-1.739c0.232-0.542,0.552-1.016,0.958-1.422s0.882-0.726,1.429-0.958C256.73,0.116,257.313,0,257.931,0
		h1.168c0.618,0,1.198,0.116,1.739,0.35c0.541,0.232,1.016,0.552,1.422,0.958s0.726,0.88,0.959,1.422
		c0.232,0.542,0.349,1.122,0.349,1.739v0.47l-1.638,0.267V4.469c0-0.406-0.076-0.785-0.229-1.137
		c-0.152-0.351-0.359-0.658-0.622-0.92s-0.569-0.47-0.921-0.622c-0.351-0.152-0.729-0.229-1.136-0.229h-1.016
		c-0.406,0-0.785,0.076-1.136,0.229c-0.352,0.152-0.66,0.36-0.928,0.622c-0.266,0.262-0.476,0.569-0.628,0.92
		c-0.152,0.352-0.229,0.73-0.229,1.137v0.343c0,0.584,0.122,1.075,0.368,1.473s0.571,0.738,0.978,1.022
		c0.406,0.283,0.865,0.528,1.378,0.736c0.512,0.207,1.039,0.418,1.58,0.635c0.541,0.215,1.068,0.452,1.58,0.711
		c0.513,0.258,0.972,0.575,1.378,0.951c0.406,0.377,0.731,0.836,0.978,1.378s0.368,1.202,0.368,1.98V14.244z"/>
	<path fill="#F16529" d="M277.189,14.244c0,0.617-0.125,1.197-0.375,1.739c-0.249,0.542-0.584,1.016-1.002,1.422
		c-0.42,0.406-0.906,0.726-1.461,0.958c-0.554,0.233-1.141,0.35-1.758,0.35h-1.308c-0.618,0-1.204-0.116-1.759-0.35
		c-0.554-0.232-1.041-0.552-1.459-0.958c-0.42-0.406-0.754-0.88-1.004-1.422c-0.249-0.542-0.374-1.122-0.374-1.739v-0.724
		l1.638-0.267v0.99c0,0.406,0.082,0.785,0.248,1.137c0.164,0.351,0.387,0.66,0.666,0.926c0.279,0.268,0.604,0.477,0.971,0.629
		c0.369,0.152,0.756,0.229,1.162,0.229h1.143c0.406,0,0.791-0.076,1.155-0.229s0.686-0.361,0.965-0.629
		c0.279-0.266,0.501-0.575,0.667-0.926c0.164-0.352,0.247-0.73,0.247-1.137v-0.546c0-0.626-0.122-1.147-0.368-1.562
		s-0.571-0.768-0.978-1.061c-0.406-0.291-0.865-0.539-1.378-0.742c-0.512-0.203-1.039-0.406-1.58-0.609s-1.068-0.428-1.58-0.673
		c-0.513-0.245-0.972-0.552-1.378-0.921c-0.406-0.367-0.731-0.818-0.978-1.352s-0.368-1.189-0.368-1.968V4.469
		c0-0.617,0.116-1.197,0.349-1.739c0.233-0.542,0.553-1.016,0.959-1.422s0.883-0.726,1.428-0.958c0.547-0.233,1.129-0.35,1.746-0.35
		h1.168c0.617,0,1.197,0.116,1.739,0.35c0.542,0.232,1.016,0.552,1.422,0.958s0.726,0.88,0.958,1.422
		c0.233,0.542,0.35,1.122,0.35,1.739v0.47l-1.638,0.267V4.469c0-0.406-0.076-0.785-0.229-1.137c-0.152-0.351-0.36-0.658-0.622-0.92
		s-0.569-0.47-0.92-0.622c-0.352-0.152-0.73-0.229-1.137-0.229h-1.016c-0.406,0-0.785,0.076-1.137,0.229
		c-0.351,0.152-0.66,0.36-0.926,0.622c-0.268,0.262-0.477,0.569-0.629,0.92c-0.152,0.352-0.229,0.73-0.229,1.137v0.343
		c0,0.584,0.123,1.075,0.368,1.473s0.571,0.738,0.978,1.022c0.406,0.283,0.865,0.528,1.377,0.736
		c0.513,0.207,1.039,0.418,1.581,0.635c0.542,0.215,1.068,0.452,1.581,0.711c0.512,0.258,0.971,0.575,1.377,0.951
		c0.406,0.377,0.732,0.836,0.978,1.378s0.368,1.202,0.368,1.98V14.244z"/>
</g>
</svg>