<!-- Generator: Adobe Illustrator 17.0.0, SVG Export Plug-In  -->
<svg version="1.1"
	 xmlns="http://www.w3.org/2000/svg" xmlns:xlink="http://www.w3.org/1999/xlink" xmlns:a="http://ns.adobe.com/AdobeSVGViewerExtensions/3.0/"
	 x="0px" y="0px" width="307.608px" height="62.095px" viewBox="0 0 307.608 62.095"
	 style="enable-background:new 0 0 307.608 62.095;" xml:space="preserve">
<style type="text/css">
	.st0{fill-rule:evenodd;clip-rule:evenodd;fill:#888586;}
	.st1{fill-rule:evenodd;clip-rule:evenodd;fill:#E7E3E2;}
	.st2{fill-rule:evenodd;clip-rule:evenodd;fill:#E54F26;}
	.st3{fill-rule:evenodd;clip-rule:evenodd;}
	.st4{fill:#FFFFFF;}
	.st5{fill:#E54F26;}
	.st6{fill:url(#XMLID_13_);}
	.st7{fill:url(#XMLID_14_);}
	.st8{fill:url(#XMLID_15_);}
	.st9{fill:url(#XMLID_16_);}
	.st10{fill:url(#XMLID_17_);}
	.st11{fill:url(#XMLID_18_);}
	.st12{fill:url(#XMLID_19_);}
	.st13{fill:url(#XMLID_20_);}
</style>
<defs>
</defs>
<g>
	<polygon class="st0" points="0,56.325 0,62.095 208.188,62.095 307.608,62.095 307.608,56.325 282.733,56.325 208.188,56.325 
		133.598,56.325 	"/>
	<rect x="0" y="0" class="st1" width="307.608" height="58.249"/>
	<rect x="229.011" y="0" class="st2" width="78.598" height="58.249"/>
	<polygon class="st3" points="229.011,62.095 229.011,58.249 307.608,58.249 307.608,62.095 233.412,62.095 	"/>
	<g>
		<path d="M82.762,35.264v-12.4h2.504v4.881h4.906v-4.881h2.503v12.4h-2.503v-5.422h-4.906v5.422H82.762z"/>
		<path d="M97.343,35.264v-12.4h9.193v2.098h-6.69v2.749h6.226v2.09h-6.226v3.375h6.928v2.089H97.343z"/>
		<path d="M110.982,35.264v-12.4h5.27c1.325,0,2.288,0.112,2.889,0.335s1.081,0.618,1.442,1.188c0.36,0.569,0.541,1.221,0.541,1.953
			c0,0.931-0.273,1.699-0.82,2.305c-0.547,0.606-1.364,0.989-2.453,1.146c0.542,0.316,0.988,0.663,1.341,1.04
			c0.353,0.378,0.827,1.049,1.425,2.014l1.515,2.419h-2.994l-1.811-2.698c-0.643-0.964-1.082-1.571-1.319-1.822
			c-0.236-0.251-0.487-0.424-0.753-0.517c-0.265-0.093-0.685-0.14-1.26-0.14h-0.508v5.177H110.982z M113.486,28.108h1.853
			c1.201,0,1.951-0.051,2.25-0.152s0.532-0.276,0.702-0.524c0.169-0.248,0.253-0.559,0.253-0.931c0-0.417-0.111-0.754-0.334-1.011
			s-0.537-0.419-0.942-0.486c-0.203-0.028-0.813-0.043-1.827-0.043h-1.954V28.108z"/>
		<path d="M125.564,35.264v-12.4h9.193v2.098h-6.69v2.749h6.226v2.09h-6.226v3.375h6.928v2.089H125.564z"/>
		<path d="M139.221,35.264v-12.4h2.436l5.075,8.281v-8.281h2.326v12.4h-2.513l-4.999-8.086v8.086H139.221z"/>
		<path d="M161.718,30.705l2.428,0.77c-0.372,1.354-0.991,2.358-1.856,3.015c-0.866,0.657-1.964,0.986-3.295,0.986
			c-1.646,0-3-0.563-4.061-1.688c-1.06-1.125-1.59-2.663-1.59-4.614c0-2.064,0.533-3.667,1.599-4.809s2.467-1.713,4.204-1.713
			c1.517,0,2.749,0.448,3.696,1.345c0.563,0.53,0.986,1.291,1.269,2.284l-2.479,0.592c-0.146-0.643-0.452-1.15-0.917-1.522
			c-0.466-0.372-1.031-0.559-1.696-0.559c-0.919,0-1.665,0.33-2.237,0.99c-0.572,0.659-0.858,1.729-0.858,3.205
			c0,1.568,0.282,2.685,0.846,3.35c0.563,0.666,1.297,0.998,2.199,0.998c0.665,0,1.237-0.211,1.717-0.634
			S161.509,31.612,161.718,30.705z"/>
		<path d="M168.297,35.264v-12.4h2.503v12.4H168.297z"/>
		<path d="M186.445,35.264h-2.724l-1.083-2.816h-4.956l-1.023,2.816h-2.656l4.83-12.4h2.647L186.445,35.264z M181.835,30.357
			l-1.708-4.601l-1.675,4.601H181.835z"/>
	</g>
	<g id="XMLID_10_">
		<path id="XMLID_12_" class="st4" d="M247.24,45.878c-1.069,1.073-1.069,2.679,0,3.886l0.672,0.669
			c1.068,1.069,2.811,1.069,3.885,0l8.57-8.571c0.531-0.668,0.801-1.338,0.801-2.143l2.813-2.812
			c6.426,4.819,15.53,4.421,21.424-1.472c6.43-6.428,6.43-16.74,0-23.165c-6.426-6.429-16.738-6.429-23.164,0
			c-5.893,5.892-6.296,14.995-1.477,21.424l-2.811,2.811c-0.8,0-1.605,0.268-2.141,0.806L247.24,45.878L247.24,45.878z
			 M265.855,31.819c-4.42-4.419-4.555-11.65,0-16.067c4.418-4.419,11.647-4.419,16.066,0c4.417,4.417,4.417,11.649,0,16.067
			C277.502,36.239,270.273,36.239,265.855,31.819L265.855,31.819z"/>
		<path id="XMLID_11_" class="st4" d="M269.336,22.043h2.678v-2.677c0-0.938,0.805-1.741,1.74-1.741l0,0
			c0.941,0,1.742,0.804,1.742,1.741v2.677h2.679c0.936,0,1.741,0.805,1.741,1.74l0,0c0,0.94-0.805,1.741-1.741,1.741h-2.679v2.681
			c0,0.935-0.801,1.741-1.742,1.741l0,0c-0.936,0-1.74-0.807-1.74-1.741v-2.681h-2.678c-0.936,0-1.742-0.801-1.742-1.741l0,0
			C267.594,22.848,268.4,22.043,269.336,22.043L269.336,22.043z"/>
	</g>
	<g id="XMLID_1_">
		<rect x="13.268" y="11.862" class="st5" width="23.416" height="27.145"/>
		<path id="XMLID_6_" d="M39.723,41.26H16.307v-1.276h21.359V14.116h2.057V41.26L39.723,41.26z M13.268,11.862h23.416v27.145H13.268
			V11.862L13.268,11.862z M37.666,13.138v-2.254H12.289v29.1h3.036v2.256h25.378V13.138H37.666L37.666,13.138z"/>
		<linearGradient id="XMLID_13_" gradientUnits="userSpaceOnUse" x1="25.5625" y1="35.084" x2="26.5909" y2="35.084">
			<stop  offset="0" style="stop-color:#F5F5F5"/>
			<stop  offset="1" style="stop-color:#E8E8E8"/>
		</linearGradient>
		<polygon id="XMLID_5_" class="st6" points="25.563,34.595 26.591,34.595 26.591,35.573 25.563,35.573 25.563,34.595 		"/>
		<linearGradient id="XMLID_14_" gradientUnits="userSpaceOnUse" x1="27.7715" y1="35.084" x2="28.8008" y2="35.084">
			<stop  offset="0" style="stop-color:#F5F5F5"/>
			<stop  offset="1" style="stop-color:#E8E8E8"/>
		</linearGradient>
		<polygon id="XMLID_4_" class="st7" points="27.771,34.595 28.801,34.595 28.801,35.573 27.771,35.573 27.771,34.595 		"/>
		<linearGradient id="XMLID_15_" gradientUnits="userSpaceOnUse" x1="30.0245" y1="35.084" x2="31.0547" y2="35.084">
			<stop  offset="0" style="stop-color:#F5F5F5"/>
			<stop  offset="1" style="stop-color:#E8E8E8"/>
		</linearGradient>
		<polygon id="XMLID_3_" class="st8" points="30.024,34.595 31.055,34.595 31.055,35.573 30.024,35.573 30.024,34.595 		"/>
		<linearGradient id="XMLID_16_" gradientUnits="userSpaceOnUse" x1="32.2276" y1="35.084" x2="33.2579" y2="35.084">
			<stop  offset="0" style="stop-color:#F5F5F5"/>
			<stop  offset="1" style="stop-color:#E8E8E8"/>
		</linearGradient>
		<polygon id="XMLID_2_" class="st9" points="32.228,34.595 33.258,34.595 33.258,35.573 32.228,35.573 32.228,34.595 		"/>
	</g>
	<path class="st4" d="M19.175,18.08c0,0.492,0.069,0.968,0.14,1.461c0.07,0.489,0.14,0.982,0.14,1.475c0,0.615-0.175,1.3-1.425,1.3
		v0.896c1.25,0,1.425,0.757,1.425,1.3c0,0.476-0.069,0.949-0.14,1.425c-0.07,0.476-0.14,0.966-0.14,1.441
		c0,1.773,1.087,2.407,2.55,2.407h0.366v-0.966h-0.316c-0.985,0-1.389-0.545-1.389-1.53c0-0.42,0.051-0.827,0.123-1.267
		c0.07-0.42,0.123-0.859,0.123-1.332c0.019-1.128-0.473-1.723-1.268-1.918v-0.033c0.795-0.212,1.283-0.774,1.268-1.9
		c0-0.474-0.053-0.896-0.123-1.333c-0.072-0.423-0.123-0.847-0.123-1.25c0-0.948,0.351-1.511,1.389-1.511h0.316v-0.966h-0.366
		C20.23,15.778,19.175,16.463,19.175,18.08z"/>
	<path class="st4" d="M29.334,21.016c0-0.492,0.072-0.985,0.142-1.475c0.071-0.493,0.142-0.966,0.142-1.461
		c0-1.617-1.072-2.302-2.566-2.302h-0.354v0.966h0.32c1.018,0.017,1.389,0.563,1.389,1.511c0,0.403-0.07,0.827-0.125,1.25
		c-0.071,0.439-0.141,0.859-0.141,1.333c0,1.127,0.492,1.688,1.266,1.9v0.033c-0.773,0.195-1.266,0.79-1.266,1.918
		c0,0.473,0.069,0.912,0.141,1.332c0.055,0.443,0.125,0.847,0.125,1.267c0,0.985-0.424,1.511-1.406,1.53h-0.303v0.966h0.373
		c1.44,0,2.547-0.635,2.547-2.407c0-0.476-0.07-0.966-0.142-1.441c-0.069-0.476-0.142-0.949-0.142-1.425
		c0-0.546,0.177-1.3,1.424-1.3v-0.896C29.511,22.315,29.334,21.631,29.334,21.016z"/>
</g>
</svg>