<?xml version="1.0" encoding="utf-8"?>
<!-- Generator: Adobe Illustrator 17.0.0, SVG Export Plug-In . SVG Version: 6.00 Build 0)  -->
<!DOCTYPE svg PUBLIC "-//W3C//DTD SVG 1.1//EN" "http://www.w3.org/Graphics/SVG/1.1/DTD/svg11.dtd" [
	<!ENTITY ns_extend "http://ns.adobe.com/Extensibility/1.0/">
	<!ENTITY ns_ai "http://ns.adobe.com/AdobeIllustrator/10.0/">
	<!ENTITY ns_graphs "http://ns.adobe.com/Graphs/1.0/">
	<!ENTITY ns_vars "http://ns.adobe.com/Variables/1.0/">
	<!ENTITY ns_imrep "http://ns.adobe.com/ImageReplacement/1.0/">
	<!ENTITY ns_sfw "http://ns.adobe.com/SaveForWeb/1.0/">
	<!ENTITY ns_custom "http://ns.adobe.com/GenericCustomNamespace/1.0/">
	<!ENTITY ns_adobe_xpath "http://ns.adobe.com/XPath/1.0/">
]>
<svg version="1.1" id="Capa_1" xmlns:x="&ns_extend;" xmlns:i="&ns_ai;" xmlns:graph="&ns_graphs;"
	 xmlns="http://www.w3.org/2000/svg" xmlns:xlink="http://www.w3.org/1999/xlink" x="0px" y="0px" width="653.373px"
	 height="36.215px" viewBox="0 0 653.373 36.215" enable-background="new 0 0 653.373 36.215" xml:space="preserve">
<metadata>
	<sfw  xmlns="&ns_sfw;">
		<slices></slices>
		<sliceSourceBounds  width="653.373" height="36.215" x="312.814" y="382.393" bottomLeftOrigin="true"></sliceSourceBounds>
	</sfw>
</metadata>
<linearGradient id="SVGID_1_" gradientUnits="userSpaceOnUse" x1="-244" y1="113.1075" x2="409.373" y2="113.1075" gradientTransform="matrix(1 0 0 -1 244 131.215)">
	<stop  offset="0" style="stop-color:#783214"/>
	<stop  offset="0.5" style="stop-color:#F16529"/>
	<stop  offset="1" style="stop-color:#783214"/>
</linearGradient>
<polygon fill="url(#SVGID_1_)" points="0,36.215 7.814,0 653.373,0 630.754,35.953 "/>
<g>
	<rect x="49.078" y="23.751" fill="#F1F1F1" width="19.658" height="7.609"/>
	<g>
		<path d="M69.344,10.559c-0.004-0.131-0.045-0.263-0.135-0.365L63.646,3.84l-0.004-0.003c-0.033-0.038-0.07-0.068-0.113-0.095
			c-0.012-0.009-0.024-0.016-0.037-0.021c-0.035-0.021-0.07-0.036-0.111-0.048c-0.01-0.003-0.019-0.007-0.031-0.009
			c-0.041-0.01-0.084-0.016-0.129-0.016H49.553c-0.623,0-1.133,0.507-1.133,1.13V31.36c0,0.625,0.51,1.132,1.133,1.132h18.662
			c0.627,0,1.133-0.507,1.133-1.132V10.622C69.348,10.602,69.346,10.58,69.344,10.559z M49.553,4.778h13.102v5.786
			c0,0.313,0.254,0.565,0.566,0.565h4.994l0.004,11.724H49.553V4.778z M53.914,29.797h-1.135v-2.163h-1.873v2.163h-1.139v-5.166
			h1.139v1.986h1.873v-1.986h1.135V29.797z M58.387,25.612h-1.371v4.184h-1.143v-4.184h-1.348V24.63h3.861L58.387,25.612
			L58.387,25.612z M63.285,29.797l-0.076-1.979c-0.021-0.621-0.043-1.371-0.043-2.122h-0.023c-0.156,0.659-0.365,1.395-0.559,2.001
			l-0.611,2.013h-0.887l-0.537-1.998c-0.164-0.605-0.336-1.342-0.453-2.016h-0.018c-0.027,0.697-0.053,1.496-0.09,2.138L59.9,29.797
			h-1.05l0.32-5.166h1.514l0.49,1.725c0.158,0.599,0.314,1.242,0.428,1.846h0.021c0.143-0.596,0.314-1.277,0.477-1.853l0.539-1.718
			h1.481l0.277,5.166H63.285L63.285,29.797z M68.406,29.797H65.27v-5.166h1.141v4.185h1.996L68.406,29.797L68.406,29.797z"/>
		<polygon points="52.533,16.691 56.867,18.704 56.867,17.748 53.59,16.313 53.59,16.294 56.867,14.858 56.867,13.902 
			52.533,15.914 		"/>
		<polygon points="57.535,19.066 58.449,19.066 60.377,12.521 59.467,12.521 		"/>
		<polygon points="60.904,14.858 64.254,16.294 64.254,16.313 60.904,17.748 60.904,18.704 65.236,16.719 65.236,15.888 
			60.904,13.902 		"/>
	</g>
</g>
<g>
	<path fill="#F1F1F1" d="M83.109,27.556V10.05h9.851v1.501h-8.276v6.506h6.702v1.501h-6.702v6.494h8.276v1.502H83.109z"/>
	<path fill="#F1F1F1" d="M105.558,23.503c0,0.594-0.12,1.151-0.36,1.672c-0.24,0.521-0.562,0.977-0.964,1.367
		c-0.403,0.391-0.871,0.698-1.404,0.922c-0.533,0.224-1.097,0.336-1.69,0.336h-1.257c-0.594,0-1.158-0.112-1.691-0.336
		c-0.533-0.224-1.001-0.531-1.403-0.922c-0.403-0.391-0.725-0.846-0.965-1.367c-0.24-0.521-0.36-1.078-0.36-1.672v-0.696
		l1.575-0.256v0.952c0,0.391,0.079,0.755,0.238,1.093c0.158,0.337,0.372,0.635,0.641,0.891c0.269,0.257,0.58,0.458,0.934,0.604
		c0.354,0.146,0.727,0.22,1.117,0.22h1.099c0.391,0,0.761-0.073,1.111-0.22c0.35-0.146,0.659-0.348,0.928-0.604
		c0.269-0.256,0.482-0.554,0.641-0.891c0.158-0.338,0.238-0.702,0.238-1.093v-0.525c0-0.602-0.118-1.103-0.354-1.501
		c-0.236-0.398-0.549-0.738-0.94-1.02c-0.391-0.28-0.832-0.519-1.325-0.714c-0.492-0.195-0.999-0.391-1.52-0.586
		c-0.521-0.195-1.027-0.411-1.52-0.647c-0.493-0.236-0.934-0.531-1.325-0.885c-0.391-0.354-0.704-0.787-0.94-1.3
		c-0.236-0.513-0.354-1.143-0.354-1.892v-0.33c0-0.594,0.112-1.151,0.335-1.672c0.224-0.521,0.531-0.977,0.922-1.367
		s0.849-0.698,1.373-0.921c0.525-0.224,1.084-0.336,1.679-0.336h1.123c0.594,0,1.151,0.112,1.672,0.336
		c0.521,0.224,0.977,0.531,1.367,0.921s0.698,0.847,0.921,1.367c0.224,0.521,0.336,1.079,0.336,1.672v0.452l-1.575,0.256v-0.708
		c0-0.391-0.073-0.755-0.22-1.093c-0.146-0.337-0.346-0.632-0.598-0.885c-0.252-0.252-0.547-0.452-0.885-0.598
		c-0.338-0.146-0.702-0.22-1.093-0.22h-0.977c-0.391,0-0.755,0.073-1.093,0.22c-0.337,0.146-0.635,0.346-0.891,0.598
		c-0.257,0.252-0.458,0.547-0.604,0.885c-0.146,0.338-0.22,0.702-0.22,1.093v0.33c0,0.562,0.118,1.034,0.354,1.416
		c0.236,0.383,0.549,0.71,0.94,0.983c0.391,0.272,0.832,0.508,1.324,0.708c0.493,0.199,0.999,0.402,1.52,0.61
		c0.521,0.207,1.027,0.435,1.52,0.684c0.492,0.248,0.934,0.553,1.324,0.915s0.704,0.804,0.94,1.324
		c0.236,0.521,0.354,1.156,0.354,1.904V23.503z"/>
	<path fill="#F1F1F1" d="M113.187,11.552v16.004h-1.575V11.552h-4.175V10.05h9.924v1.501H113.187z"/>
	<path fill="#F1F1F1" d="M119.864,27.556V10.05h1.575v17.505H119.864z"/>
	<path fill="#F1F1F1" d="M125.186,27.556V10.05h1.575v16.003h6.702v1.502H125.186z"/>
	<path fill="#F1F1F1" d="M145.224,25.175c-0.224,0.521-0.531,0.977-0.921,1.367s-0.847,0.698-1.367,0.922
		c-0.521,0.224-1.079,0.336-1.672,0.336h-1.245c-0.594,0-1.153-0.112-1.679-0.336c-0.524-0.224-0.982-0.531-1.373-0.922
		s-0.698-0.846-0.922-1.367c-0.224-0.521-0.335-1.078-0.335-1.672v-9.4c0-0.594,0.112-1.151,0.335-1.672
		c0.224-0.521,0.531-0.977,0.922-1.367s0.849-0.698,1.373-0.921c0.525-0.224,1.084-0.336,1.679-0.336h1.245
		c0.594,0,1.151,0.112,1.672,0.336c0.521,0.224,0.977,0.531,1.367,0.921s0.698,0.847,0.921,1.367
		c0.224,0.521,0.336,1.079,0.336,1.672v9.4C145.56,24.097,145.448,24.654,145.224,25.175z M143.985,14.103
		c0-0.391-0.073-0.755-0.22-1.093c-0.146-0.337-0.346-0.632-0.598-0.885c-0.252-0.252-0.547-0.452-0.885-0.598
		c-0.338-0.146-0.702-0.22-1.093-0.22h-1.099c-0.391,0-0.755,0.073-1.093,0.22c-0.337,0.146-0.635,0.346-0.891,0.598
		c-0.257,0.252-0.458,0.547-0.604,0.885c-0.146,0.338-0.22,0.702-0.22,1.093v9.4c0,0.391,0.073,0.755,0.22,1.093
		c0.146,0.337,0.348,0.635,0.604,0.891c0.256,0.257,0.553,0.458,0.891,0.604c0.338,0.146,0.702,0.22,1.093,0.22h1.099
		c0.391,0,0.755-0.073,1.093-0.22c0.337-0.146,0.632-0.348,0.885-0.604c0.252-0.256,0.452-0.554,0.598-0.891
		c0.146-0.338,0.22-0.702,0.22-1.093V14.103z"/>
	<path fill="#F1F1F1" d="M158.915,23.503c0,0.594-0.12,1.151-0.36,1.672c-0.24,0.521-0.562,0.977-0.964,1.367
		c-0.403,0.391-0.871,0.698-1.404,0.922c-0.533,0.224-1.097,0.336-1.69,0.336h-1.257c-0.594,0-1.158-0.112-1.691-0.336
		c-0.533-0.224-1.001-0.531-1.403-0.922c-0.403-0.391-0.725-0.846-0.965-1.367c-0.24-0.521-0.36-1.078-0.36-1.672v-0.696
		l1.575-0.256v0.952c0,0.391,0.079,0.755,0.238,1.093c0.158,0.337,0.372,0.635,0.641,0.891c0.269,0.257,0.58,0.458,0.934,0.604
		c0.354,0.146,0.727,0.22,1.117,0.22h1.099c0.391,0,0.761-0.073,1.111-0.22c0.35-0.146,0.659-0.348,0.928-0.604
		c0.269-0.256,0.482-0.554,0.641-0.891c0.158-0.338,0.238-0.702,0.238-1.093v-0.525c0-0.602-0.118-1.103-0.354-1.501
		c-0.236-0.398-0.549-0.738-0.94-1.02c-0.391-0.28-0.832-0.519-1.325-0.714c-0.492-0.195-0.999-0.391-1.52-0.586
		c-0.521-0.195-1.027-0.411-1.52-0.647c-0.493-0.236-0.934-0.531-1.325-0.885c-0.391-0.354-0.704-0.787-0.94-1.3
		c-0.236-0.513-0.354-1.143-0.354-1.892v-0.33c0-0.594,0.112-1.151,0.335-1.672c0.224-0.521,0.531-0.977,0.922-1.367
		s0.849-0.698,1.373-0.921c0.525-0.224,1.084-0.336,1.679-0.336h1.123c0.594,0,1.151,0.112,1.672,0.336
		c0.521,0.224,0.977,0.531,1.367,0.921s0.698,0.847,0.921,1.367c0.224,0.521,0.336,1.079,0.336,1.672v0.452l-1.575,0.256v-0.708
		c0-0.391-0.073-0.755-0.22-1.093c-0.146-0.337-0.346-0.632-0.598-0.885c-0.252-0.252-0.547-0.452-0.885-0.598
		c-0.338-0.146-0.702-0.22-1.093-0.22h-0.977c-0.391,0-0.755,0.073-1.093,0.22c-0.337,0.146-0.635,0.346-0.891,0.598
		c-0.257,0.252-0.458,0.547-0.604,0.885c-0.146,0.338-0.22,0.702-0.22,1.093v0.33c0,0.562,0.118,1.034,0.354,1.416
		c0.236,0.383,0.549,0.71,0.94,0.983c0.391,0.272,0.832,0.508,1.324,0.708c0.493,0.199,0.999,0.402,1.52,0.61
		c0.521,0.207,1.027,0.435,1.52,0.684c0.492,0.248,0.934,0.553,1.324,0.915s0.704,0.804,0.94,1.324
		c0.236,0.521,0.354,1.156,0.354,1.904V23.503z"/>
	<path fill="#F1F1F1" d="M168.045,27.556V10.05h9.851v1.501h-8.276v6.506h6.702v1.501h-6.702v6.494h8.276v1.502H168.045z"/>
	<path fill="#F1F1F1" d="M189.92,27.556l-7.3-12.745l-0.146-0.757v13.501h-1.575V10.05h0.818l7.3,12.756l0.159,0.745V10.05h1.575
		v17.505H189.92z"/>
	<path fill="#F1F1F1" d="M209.763,25.175c-0.224,0.521-0.531,0.977-0.921,1.367s-0.847,0.698-1.367,0.922
		c-0.521,0.224-1.079,0.336-1.672,0.336h-1.245c-0.594,0-1.153-0.112-1.679-0.336c-0.524-0.224-0.982-0.531-1.373-0.922
		s-0.698-0.846-0.922-1.367c-0.224-0.521-0.335-1.078-0.335-1.672v-9.4c0-0.594,0.112-1.151,0.335-1.672
		c0.224-0.521,0.531-0.977,0.922-1.367s0.849-0.698,1.373-0.921c0.525-0.224,1.084-0.336,1.679-0.336h1.245
		c0.594,0,1.151,0.112,1.672,0.336c0.521,0.224,0.977,0.531,1.367,0.921s0.698,0.847,0.921,1.367
		c0.224,0.521,0.336,1.079,0.336,1.672v0.708l-1.575,0.244v-0.952c0-0.391-0.073-0.755-0.22-1.093
		c-0.146-0.337-0.346-0.632-0.598-0.885c-0.252-0.252-0.547-0.452-0.885-0.598c-0.338-0.146-0.702-0.22-1.093-0.22h-1.099
		c-0.391,0-0.755,0.073-1.093,0.22c-0.337,0.146-0.635,0.346-0.891,0.598c-0.257,0.252-0.458,0.547-0.604,0.885
		c-0.146,0.338-0.22,0.702-0.22,1.093v9.4c0,0.391,0.073,0.755,0.22,1.093c0.146,0.337,0.348,0.635,0.604,0.891
		c0.256,0.257,0.553,0.458,0.891,0.604c0.338,0.146,0.702,0.22,1.093,0.22h1.099c0.391,0,0.755-0.073,1.093-0.22
		c0.337-0.146,0.632-0.348,0.885-0.604c0.252-0.256,0.452-0.554,0.598-0.891c0.146-0.338,0.22-0.702,0.22-1.093v-0.952l1.575,0.256
		v0.696C210.099,24.097,209.987,24.654,209.763,25.175z"/>
	<path fill="#F1F1F1" d="M220.169,23.479h-5.542l-1.147,4.077h-1.636l5.127-17.505h0.83l5.151,17.505h-1.624L220.169,23.479z
		 M215.055,21.977h4.7l-2.307-8.069l-0.049-0.647l-0.049,0.647L215.055,21.977z"/>
	<path fill="#F1F1F1" d="M234.793,23.503c0,0.594-0.12,1.151-0.36,1.672c-0.24,0.521-0.562,0.977-0.964,1.367
		c-0.403,0.391-0.871,0.698-1.404,0.922c-0.533,0.224-1.097,0.336-1.69,0.336h-1.257c-0.594,0-1.158-0.112-1.691-0.336
		c-0.533-0.224-1.001-0.531-1.403-0.922c-0.403-0.391-0.725-0.846-0.965-1.367c-0.24-0.521-0.36-1.078-0.36-1.672v-0.696
		l1.575-0.256v0.952c0,0.391,0.079,0.755,0.238,1.093c0.158,0.337,0.372,0.635,0.641,0.891c0.269,0.257,0.58,0.458,0.934,0.604
		c0.354,0.146,0.727,0.22,1.117,0.22h1.099c0.391,0,0.761-0.073,1.111-0.22c0.35-0.146,0.659-0.348,0.928-0.604
		c0.269-0.256,0.482-0.554,0.641-0.891c0.158-0.338,0.238-0.702,0.238-1.093v-0.525c0-0.602-0.118-1.103-0.354-1.501
		c-0.236-0.398-0.549-0.738-0.94-1.02c-0.391-0.28-0.832-0.519-1.325-0.714c-0.492-0.195-0.999-0.391-1.52-0.586
		c-0.521-0.195-1.027-0.411-1.52-0.647c-0.493-0.236-0.934-0.531-1.325-0.885c-0.391-0.354-0.704-0.787-0.94-1.3
		c-0.236-0.513-0.354-1.143-0.354-1.892v-0.33c0-0.594,0.112-1.151,0.335-1.672c0.224-0.521,0.531-0.977,0.922-1.367
		s0.849-0.698,1.373-0.921c0.525-0.224,1.084-0.336,1.679-0.336h1.123c0.594,0,1.151,0.112,1.672,0.336
		c0.521,0.224,0.977,0.531,1.367,0.921s0.698,0.847,0.921,1.367c0.224,0.521,0.336,1.079,0.336,1.672v0.452l-1.575,0.256v-0.708
		c0-0.391-0.073-0.755-0.22-1.093c-0.146-0.337-0.346-0.632-0.598-0.885c-0.252-0.252-0.547-0.452-0.885-0.598
		c-0.338-0.146-0.702-0.22-1.093-0.22h-0.977c-0.391,0-0.755,0.073-1.093,0.22c-0.337,0.146-0.635,0.346-0.891,0.598
		c-0.257,0.252-0.458,0.547-0.604,0.885c-0.146,0.338-0.22,0.702-0.22,1.093v0.33c0,0.562,0.118,1.034,0.354,1.416
		c0.236,0.383,0.549,0.71,0.94,0.983c0.391,0.272,0.832,0.508,1.324,0.708c0.493,0.199,0.999,0.402,1.52,0.61
		c0.521,0.207,1.027,0.435,1.52,0.684c0.492,0.248,0.934,0.553,1.324,0.915s0.704,0.804,0.94,1.324
		c0.236,0.521,0.354,1.156,0.354,1.904V23.503z"/>
	<path fill="#F1F1F1" d="M247.434,25.175c-0.224,0.521-0.531,0.977-0.921,1.367s-0.847,0.698-1.367,0.922
		c-0.521,0.224-1.079,0.336-1.672,0.336h-1.245c-0.594,0-1.153-0.112-1.679-0.336c-0.524-0.224-0.982-0.531-1.373-0.922
		s-0.698-0.846-0.922-1.367c-0.224-0.521-0.335-1.078-0.335-1.672v-9.4c0-0.594,0.112-1.151,0.335-1.672
		c0.224-0.521,0.531-0.977,0.922-1.367s0.849-0.698,1.373-0.921c0.525-0.224,1.084-0.336,1.679-0.336h1.245
		c0.594,0,1.151,0.112,1.672,0.336c0.521,0.224,0.977,0.531,1.367,0.921s0.698,0.847,0.921,1.367
		c0.224,0.521,0.336,1.079,0.336,1.672v0.708l-1.575,0.244v-0.952c0-0.391-0.073-0.755-0.22-1.093
		c-0.146-0.337-0.346-0.632-0.598-0.885c-0.252-0.252-0.547-0.452-0.885-0.598c-0.338-0.146-0.702-0.22-1.093-0.22h-1.099
		c-0.391,0-0.755,0.073-1.093,0.22c-0.337,0.146-0.635,0.346-0.891,0.598c-0.257,0.252-0.458,0.547-0.604,0.885
		c-0.146,0.338-0.22,0.702-0.22,1.093v9.4c0,0.391,0.073,0.755,0.22,1.093c0.146,0.337,0.348,0.635,0.604,0.891
		c0.256,0.257,0.553,0.458,0.891,0.604c0.338,0.146,0.702,0.22,1.093,0.22h1.099c0.391,0,0.755-0.073,1.093-0.22
		c0.337-0.146,0.632-0.348,0.885-0.604c0.252-0.256,0.452-0.554,0.598-0.891c0.146-0.338,0.22-0.702,0.22-1.093v-0.952l1.575,0.256
		v0.696C247.77,24.097,247.658,24.654,247.434,25.175z"/>
	<path fill="#F1F1F1" d="M257.84,23.479h-5.542l-1.147,4.077h-1.636l5.127-17.505h0.83l5.151,17.505H259L257.84,23.479z
		 M252.726,21.977h4.7l-2.307-8.069l-0.049-0.647l-0.049,0.647L252.726,21.977z"/>
	<path fill="#F1F1F1" d="M272.385,24.931c-0.224,0.521-0.531,0.977-0.922,1.367s-0.849,0.698-1.373,0.922
		c-0.525,0.224-1.085,0.336-1.679,0.336h-5.542V10.05h5.542c0.594,0,1.153,0.112,1.679,0.336c0.524,0.224,0.982,0.531,1.373,0.921
		s0.698,0.848,0.922,1.374c0.224,0.524,0.335,1.084,0.335,1.678v8.899C272.721,23.853,272.609,24.41,272.385,24.931z
		 M271.146,14.359c0-0.391-0.073-0.755-0.22-1.092c-0.146-0.338-0.348-0.635-0.604-0.892c-0.256-0.256-0.553-0.458-0.891-0.604
		c-0.338-0.146-0.702-0.22-1.093-0.22h-3.894v14.502h3.894c0.391,0,0.755-0.073,1.093-0.22c0.337-0.146,0.635-0.346,0.891-0.598
		c0.257-0.252,0.458-0.548,0.604-0.885c0.146-0.338,0.22-0.702,0.22-1.093V14.359z"/>
	<path fill="#F1F1F1" d="M276.468,27.556V10.05h9.851v1.501h-8.276v6.506h6.702v1.501h-6.702v6.494h8.276v1.502H276.468z"/>
	<path fill="#F1F1F1" d="M294.571,20.256c0-1.359,0.13-2.625,0.391-3.797c0.26-1.172,0.623-2.264,1.086-3.278
		c0.464-1.013,1.015-1.953,1.654-2.819c0.639-0.867,1.336-1.67,2.093-2.411l0.879,0.879c-0.667,0.692-1.284,1.457-1.849,2.295
		c-0.566,0.838-1.052,1.739-1.459,2.704c-0.407,0.964-0.725,1.983-0.952,3.058c-0.228,1.074-0.342,2.198-0.342,3.37
		s0.114,2.295,0.342,3.369c0.228,1.074,0.545,2.094,0.952,3.058c0.407,0.965,0.893,1.865,1.459,2.704
		c0.565,0.838,1.182,1.603,1.849,2.295l-0.879,0.879c-0.757-0.741-1.455-1.544-2.093-2.411c-0.639-0.866-1.19-1.809-1.654-2.826
		c-0.464-1.017-0.826-2.111-1.086-3.283C294.701,22.868,294.571,21.607,294.571,20.256z"/>
	<path fill="#F1F1F1" d="M303.8,15.434h-0.635V10.05h1.88L303.8,15.434z M306.79,15.434h-0.623V10.05h1.88L306.79,15.434z"/>
	<path fill="#F1F1F1" d="M320.554,25.175c-0.224,0.521-0.531,0.977-0.921,1.367s-0.847,0.698-1.367,0.922
		c-0.521,0.224-1.079,0.336-1.672,0.336h-1.245c-0.594,0-1.153-0.112-1.679-0.336c-0.524-0.224-0.982-0.531-1.373-0.922
		s-0.698-0.846-0.922-1.367c-0.224-0.521-0.335-1.078-0.335-1.672v-9.4c0-0.594,0.112-1.151,0.335-1.672
		c0.224-0.521,0.531-0.977,0.922-1.367s0.849-0.698,1.373-0.921c0.525-0.224,1.084-0.336,1.679-0.336h1.245
		c0.594,0,1.151,0.112,1.672,0.336c0.521,0.224,0.977,0.531,1.367,0.921s0.698,0.847,0.921,1.367
		c0.224,0.521,0.336,1.079,0.336,1.672v0.708l-1.575,0.244v-0.952c0-0.391-0.073-0.755-0.22-1.093
		c-0.146-0.337-0.346-0.632-0.598-0.885c-0.252-0.252-0.547-0.452-0.885-0.598c-0.338-0.146-0.702-0.22-1.093-0.22h-1.099
		c-0.391,0-0.755,0.073-1.093,0.22c-0.337,0.146-0.635,0.346-0.891,0.598c-0.257,0.252-0.458,0.547-0.604,0.885
		c-0.146,0.338-0.22,0.702-0.22,1.093v9.4c0,0.391,0.073,0.755,0.22,1.093c0.146,0.337,0.348,0.635,0.604,0.891
		c0.256,0.257,0.553,0.458,0.891,0.604c0.338,0.146,0.702,0.22,1.093,0.22h1.099c0.391,0,0.755-0.073,1.093-0.22
		c0.337-0.146,0.632-0.348,0.885-0.604c0.252-0.256,0.452-0.554,0.598-0.891c0.146-0.338,0.22-0.702,0.22-1.093v-0.952l1.575,0.256
		v0.696C320.89,24.097,320.778,24.654,320.554,25.175z"/>
	<path fill="#F1F1F1" d="M331.742,27.556l-0.83-1.245c-0.342,0.447-0.77,0.808-1.282,1.08s-1.074,0.409-1.685,0.409h-0.378
		c-0.505,0-0.981-0.096-1.429-0.287c-0.448-0.191-0.838-0.453-1.172-0.787c-0.334-0.334-0.596-0.725-0.788-1.172
		c-0.191-0.447-0.287-0.924-0.287-1.429v-0.122c0-0.504,0.096-0.98,0.287-1.428c0.191-0.447,0.454-0.838,0.788-1.172
		c0.333-0.334,0.724-0.597,1.172-0.787c0.447-0.191,0.923-0.287,1.429-0.287h3.174V18.4c0-0.301-0.058-0.584-0.171-0.849
		c-0.114-0.264-0.269-0.494-0.464-0.689s-0.426-0.35-0.689-0.464c-0.265-0.114-0.548-0.171-0.849-0.171h-0.879
		c-0.302,0-0.584,0.057-0.849,0.171c-0.264,0.114-0.494,0.269-0.689,0.464s-0.35,0.425-0.464,0.689
		c-0.114,0.265-0.171,0.548-0.171,0.849v0.452l-1.501-0.244v-0.122c0-0.504,0.096-0.98,0.287-1.428
		c0.191-0.447,0.454-0.838,0.788-1.172c0.333-0.333,0.724-0.596,1.172-0.787c0.447-0.191,0.923-0.287,1.429-0.287h0.879
		c0.504,0,0.98,0.096,1.428,0.287c0.447,0.191,0.838,0.454,1.172,0.787c0.334,0.334,0.597,0.725,0.788,1.172
		c0.19,0.448,0.286,0.924,0.286,1.428v9.07H331.742z M330.741,21.501h-3.174c-0.302,0-0.584,0.057-0.849,0.171
		c-0.264,0.114-0.494,0.271-0.689,0.47s-0.35,0.432-0.464,0.696c-0.114,0.264-0.171,0.547-0.171,0.848v0.525
		c0,0.301,0.057,0.584,0.171,0.849c0.114,0.264,0.269,0.494,0.464,0.689s0.425,0.35,0.689,0.464
		c0.265,0.114,0.547,0.171,0.849,0.171h1.001c0.301,0,0.584-0.057,0.849-0.171c0.264-0.114,0.494-0.269,0.689-0.464
		s0.35-0.426,0.464-0.689c0.113-0.265,0.171-0.548,0.171-0.849V21.501z"/>
	<path fill="#F1F1F1" d="M343.84,24.382c0,0.505-0.104,0.966-0.307,1.386c-0.203,0.419-0.48,0.779-0.83,1.08
		s-0.754,0.535-1.215,0.702c-0.459,0.166-0.941,0.25-1.445,0.25h-1.002c-0.504,0-0.986-0.096-1.445-0.287
		c-0.461-0.191-0.863-0.453-1.209-0.787s-0.623-0.725-0.83-1.172s-0.312-0.924-0.312-1.429v-0.5l1.501-0.244v0.83
		c0,0.301,0.063,0.584,0.189,0.849c0.127,0.264,0.295,0.494,0.508,0.689c0.211,0.195,0.455,0.35,0.732,0.464
		c0.275,0.114,0.564,0.171,0.865,0.171h1.002c0.301,0,0.59-0.045,0.867-0.135c0.275-0.089,0.521-0.218,0.738-0.384
		c0.215-0.167,0.385-0.368,0.512-0.604s0.189-0.505,0.189-0.806c0-0.447-0.098-0.813-0.293-1.099s-0.453-0.523-0.775-0.714
		c-0.322-0.191-0.688-0.351-1.098-0.477c-0.412-0.126-0.832-0.252-1.264-0.378c-0.432-0.127-0.854-0.271-1.264-0.434
		c-0.412-0.163-0.777-0.377-1.1-0.641c-0.32-0.265-0.578-0.597-0.773-0.995c-0.196-0.398-0.294-0.896-0.294-1.49
		c0-0.504,0.098-0.966,0.294-1.386c0.195-0.419,0.459-0.779,0.793-1.08c0.334-0.301,0.721-0.535,1.166-0.702
		c0.443-0.167,0.916-0.25,1.422-0.25h0.879c0.504,0,0.98,0.096,1.428,0.287c0.447,0.191,0.838,0.454,1.172,0.787
		c0.334,0.334,0.596,0.725,0.787,1.172c0.191,0.448,0.287,0.924,0.287,1.428v0.049l-1.502,0.244V18.4
		c0-0.301-0.057-0.584-0.17-0.849c-0.115-0.264-0.27-0.494-0.465-0.689s-0.426-0.35-0.689-0.464
		c-0.264-0.114-0.547-0.171-0.848-0.171h-0.879c-0.301,0-0.584,0.045-0.85,0.134c-0.264,0.09-0.494,0.218-0.689,0.384
		c-0.195,0.167-0.35,0.369-0.463,0.604c-0.115,0.236-0.172,0.505-0.172,0.806c0,0.432,0.098,0.784,0.293,1.056
		s0.453,0.503,0.775,0.689c0.322,0.188,0.688,0.344,1.1,0.471c0.41,0.126,0.83,0.256,1.256,0.391
		c0.428,0.134,0.848,0.286,1.258,0.457s0.777,0.391,1.1,0.659c0.32,0.269,0.58,0.604,0.775,1.008
		C343.742,23.289,343.84,23.788,343.84,24.382z"/>
	<path fill="#F1F1F1" d="M354.783,25.554c-0.191,0.447-0.454,0.838-0.787,1.172c-0.334,0.334-0.725,0.596-1.172,0.787
		c-0.448,0.191-0.924,0.287-1.429,0.287h-1.001c-0.505,0-0.98-0.096-1.428-0.287c-0.448-0.191-0.839-0.453-1.172-0.787
		c-0.334-0.334-0.597-0.725-0.788-1.172s-0.286-0.924-0.286-1.429v-5.64c0-0.504,0.095-0.98,0.286-1.428
		c0.191-0.447,0.454-0.838,0.788-1.172c0.333-0.333,0.724-0.596,1.172-0.787c0.447-0.191,0.923-0.287,1.428-0.287h1.001
		c0.505,0,0.98,0.096,1.429,0.287c0.447,0.191,0.838,0.454,1.172,0.787c0.333,0.334,0.596,0.725,0.787,1.172
		c0.19,0.448,0.287,0.924,0.287,1.428v0.501l-1.502,0.244V18.4c0-0.301-0.057-0.584-0.171-0.849
		c-0.114-0.264-0.269-0.494-0.464-0.689s-0.426-0.35-0.689-0.464c-0.265-0.114-0.548-0.171-0.849-0.171h-1.001
		c-0.301,0-0.584,0.057-0.849,0.171c-0.265,0.114-0.494,0.269-0.689,0.464s-0.35,0.425-0.464,0.689
		c-0.114,0.265-0.171,0.548-0.171,0.849v5.811c0,0.301,0.057,0.584,0.171,0.849c0.114,0.264,0.269,0.494,0.464,0.689
		s0.425,0.35,0.689,0.464s0.548,0.171,0.849,0.171h1.001c0.301,0,0.584-0.057,0.849-0.171c0.264-0.114,0.494-0.269,0.689-0.464
		s0.35-0.426,0.464-0.689c0.114-0.265,0.171-0.548,0.171-0.849v-0.83l1.502,0.244v0.5C355.07,24.63,354.974,25.107,354.783,25.554z"
		/>
	<path fill="#F1F1F1" d="M365.921,27.556l-0.83-1.245c-0.342,0.447-0.769,0.808-1.282,1.08c-0.512,0.272-1.074,0.409-1.684,0.409
		h-0.379c-0.505,0-0.98-0.096-1.428-0.287c-0.448-0.191-0.839-0.453-1.172-0.787c-0.334-0.334-0.597-0.725-0.788-1.172
		s-0.286-0.924-0.286-1.429v-0.122c0-0.504,0.095-0.98,0.286-1.428s0.454-0.838,0.788-1.172c0.333-0.334,0.724-0.597,1.172-0.787
		c0.447-0.191,0.923-0.287,1.428-0.287h3.174V18.4c0-0.301-0.057-0.584-0.171-0.849c-0.114-0.264-0.269-0.494-0.464-0.689
		s-0.426-0.35-0.689-0.464c-0.265-0.114-0.548-0.171-0.849-0.171h-0.879c-0.301,0-0.584,0.057-0.849,0.171
		c-0.265,0.114-0.494,0.269-0.689,0.464s-0.35,0.425-0.464,0.689c-0.114,0.265-0.171,0.548-0.171,0.849v0.452l-1.502-0.244v-0.122
		c0-0.504,0.096-0.98,0.287-1.428c0.191-0.447,0.454-0.838,0.787-1.172c0.334-0.333,0.725-0.596,1.172-0.787
		c0.448-0.191,0.924-0.287,1.429-0.287h0.879c0.505,0,0.98,0.096,1.429,0.287c0.447,0.191,0.838,0.454,1.172,0.787
		c0.333,0.334,0.596,0.725,0.787,1.172c0.19,0.448,0.287,0.924,0.287,1.428v9.07H365.921z M364.92,21.501h-3.174
		c-0.301,0-0.584,0.057-0.849,0.171s-0.494,0.271-0.689,0.47s-0.35,0.432-0.464,0.696c-0.114,0.264-0.171,0.547-0.171,0.848v0.525
		c0,0.301,0.057,0.584,0.171,0.849c0.114,0.264,0.269,0.494,0.464,0.689s0.425,0.35,0.689,0.464s0.548,0.171,0.849,0.171h1.001
		c0.301,0,0.584-0.057,0.849-0.171c0.264-0.114,0.494-0.269,0.689-0.464s0.35-0.426,0.464-0.689
		c0.114-0.265,0.171-0.548,0.171-0.849V21.501z"/>
	<path fill="#F1F1F1" d="M377.274,27.556l-0.83-1.27c-0.342,0.464-0.769,0.832-1.282,1.104c-0.512,0.272-1.074,0.409-1.684,0.409
		H373.1c-0.505,0-0.98-0.096-1.428-0.287c-0.448-0.191-0.839-0.453-1.172-0.787c-0.334-0.334-0.597-0.725-0.788-1.172
		s-0.286-0.924-0.286-1.429v-5.64c0-0.504,0.095-0.98,0.286-1.428c0.191-0.447,0.454-0.838,0.788-1.172
		c0.333-0.333,0.724-0.596,1.172-0.787c0.447-0.191,0.923-0.287,1.428-0.287h0.379c0.561,0,1.082,0.114,1.563,0.342
		c0.479,0.228,0.891,0.545,1.232,0.952V10.05h1.502v17.505H377.274z M376.273,18.4c0-0.301-0.057-0.584-0.171-0.849
		c-0.114-0.264-0.269-0.494-0.464-0.689s-0.426-0.35-0.689-0.464c-0.265-0.114-0.548-0.171-0.849-0.171H373.1
		c-0.301,0-0.584,0.057-0.849,0.171c-0.265,0.114-0.494,0.269-0.689,0.464s-0.35,0.425-0.464,0.689
		c-0.114,0.265-0.171,0.548-0.171,0.849v5.811c0,0.301,0.057,0.584,0.171,0.849c0.114,0.264,0.269,0.494,0.464,0.689
		s0.425,0.35,0.689,0.464s0.548,0.171,0.849,0.171h1.001c0.301,0,0.584-0.057,0.849-0.171c0.264-0.114,0.494-0.269,0.689-0.464
		s0.35-0.426,0.464-0.689c0.114-0.265,0.171-0.548,0.171-0.849V18.4z"/>
	<path fill="#F1F1F1" d="M388.626,27.556l-0.83-1.245c-0.342,0.447-0.769,0.808-1.282,1.08c-0.512,0.272-1.074,0.409-1.684,0.409
		h-0.379c-0.505,0-0.98-0.096-1.428-0.287c-0.448-0.191-0.839-0.453-1.172-0.787c-0.334-0.334-0.597-0.725-0.788-1.172
		s-0.286-0.924-0.286-1.429v-0.122c0-0.504,0.095-0.98,0.286-1.428s0.454-0.838,0.788-1.172c0.333-0.334,0.724-0.597,1.172-0.787
		c0.447-0.191,0.923-0.287,1.428-0.287h3.174V18.4c0-0.301-0.057-0.584-0.171-0.849c-0.114-0.264-0.269-0.494-0.464-0.689
		s-0.426-0.35-0.689-0.464c-0.265-0.114-0.548-0.171-0.849-0.171h-0.879c-0.301,0-0.584,0.057-0.849,0.171
		c-0.265,0.114-0.494,0.269-0.689,0.464s-0.35,0.425-0.464,0.689c-0.114,0.265-0.171,0.548-0.171,0.849v0.452l-1.502-0.244v-0.122
		c0-0.504,0.096-0.98,0.287-1.428c0.191-0.447,0.454-0.838,0.787-1.172c0.334-0.333,0.725-0.596,1.172-0.787
		c0.448-0.191,0.924-0.287,1.429-0.287h0.879c0.505,0,0.98,0.096,1.429,0.287c0.447,0.191,0.838,0.454,1.172,0.787
		c0.333,0.334,0.596,0.725,0.787,1.172c0.19,0.448,0.287,0.924,0.287,1.428v9.07H388.626z M387.625,21.501h-3.174
		c-0.301,0-0.584,0.057-0.849,0.171s-0.494,0.271-0.689,0.47s-0.35,0.432-0.464,0.696c-0.114,0.264-0.171,0.547-0.171,0.848v0.525
		c0,0.301,0.057,0.584,0.171,0.849c0.114,0.264,0.269,0.494,0.464,0.689s0.425,0.35,0.689,0.464s0.548,0.171,0.849,0.171h1.001
		c0.301,0,0.584-0.057,0.849-0.171c0.264-0.114,0.494-0.269,0.689-0.464s0.35-0.426,0.464-0.689
		c0.114-0.265,0.171-0.548,0.171-0.849V21.501z"/>
	<path fill="#F1F1F1" d="M391.874,19.901v-1.416h4.675v1.416H391.874z"/>
	<path fill="#F1F1F1" d="M409.403,23.503c0,0.594-0.12,1.151-0.36,1.672c-0.24,0.521-0.562,0.977-0.964,1.367
		c-0.403,0.391-0.871,0.698-1.404,0.922s-1.097,0.336-1.69,0.336h-1.258c-0.594,0-1.157-0.112-1.69-0.336s-1.001-0.531-1.403-0.922
		c-0.403-0.391-0.725-0.846-0.965-1.367c-0.24-0.521-0.359-1.078-0.359-1.672v-0.696l1.574-0.256v0.952
		c0,0.391,0.079,0.755,0.238,1.093c0.158,0.337,0.372,0.635,0.641,0.891c0.269,0.257,0.58,0.458,0.934,0.604
		c0.354,0.146,0.727,0.22,1.117,0.22h1.099c0.391,0,0.761-0.073,1.11-0.22c0.351-0.146,0.66-0.348,0.928-0.604
		c0.27-0.256,0.482-0.554,0.642-0.891c0.158-0.338,0.237-0.702,0.237-1.093v-0.525c0-0.602-0.117-1.103-0.354-1.501
		s-0.549-0.738-0.939-1.02c-0.391-0.28-0.833-0.519-1.325-0.714s-0.999-0.391-1.52-0.586s-1.027-0.411-1.52-0.647
		c-0.493-0.236-0.935-0.531-1.325-0.885c-0.391-0.354-0.703-0.787-0.939-1.3s-0.354-1.143-0.354-1.892v-0.33
		c0-0.594,0.111-1.151,0.335-1.672c0.224-0.521,0.531-0.977,0.922-1.367s0.849-0.698,1.373-0.921
		c0.525-0.224,1.085-0.336,1.679-0.336h1.123c0.594,0,1.151,0.112,1.672,0.336c0.521,0.224,0.977,0.531,1.367,0.921
		s0.698,0.847,0.922,1.367c0.224,0.521,0.336,1.079,0.336,1.672v0.452l-1.574,0.256v-0.708c0-0.391-0.074-0.755-0.221-1.093
		c-0.146-0.337-0.346-0.632-0.598-0.885c-0.252-0.252-0.548-0.452-0.885-0.598c-0.338-0.146-0.702-0.22-1.093-0.22h-0.977
		c-0.391,0-0.755,0.073-1.093,0.22s-0.635,0.346-0.891,0.598c-0.257,0.252-0.458,0.547-0.604,0.885
		c-0.146,0.338-0.22,0.702-0.22,1.093v0.33c0,0.562,0.118,1.034,0.354,1.416c0.236,0.383,0.55,0.71,0.94,0.983
		c0.391,0.272,0.832,0.508,1.324,0.708c0.492,0.199,0.999,0.402,1.521,0.61c0.521,0.207,1.026,0.435,1.52,0.684
		c0.492,0.248,0.934,0.553,1.324,0.915s0.704,0.804,0.939,1.324c0.236,0.521,0.354,1.156,0.354,1.904V23.503z"/>
	<path fill="#F1F1F1" d="M416.837,27.556c-0.456,0-0.885-0.086-1.288-0.257c-0.402-0.171-0.753-0.406-1.05-0.708
		c-0.297-0.301-0.533-0.65-0.708-1.05c-0.175-0.398-0.263-0.825-0.263-1.281v-7.776h-2.246v-1.428h2.246v-3.003l1.502-0.244v3.247
		h3.174v1.428h-3.174v7.85c0,0.252,0.047,0.486,0.141,0.702c0.093,0.215,0.222,0.404,0.385,0.567
		c0.162,0.163,0.354,0.291,0.573,0.385c0.22,0.093,0.456,0.14,0.708,0.14h1.367v1.429H416.837z"/>
	<path fill="#F1F1F1" d="M422.988,32.561h-1.452l2.222-6.079l-4.053-11.426h1.502l3.259,9.473l0.049,0.646l0.049-0.646l3.247-9.473
		h1.502L422.988,32.561z"/>
	<path fill="#F1F1F1" d="M431.314,27.556V10.05h1.502v17.505H431.314z"/>
	<path fill="#F1F1F1" d="M444.383,25.554c-0.191,0.447-0.454,0.838-0.787,1.172c-0.334,0.334-0.725,0.596-1.172,0.787
		c-0.448,0.191-0.924,0.287-1.429,0.287h-1.001c-0.505,0-0.98-0.096-1.428-0.287c-0.448-0.191-0.839-0.453-1.172-0.787
		c-0.334-0.334-0.597-0.725-0.788-1.172s-0.286-0.924-0.286-1.429v-5.64c0-0.504,0.095-0.98,0.286-1.428
		c0.191-0.447,0.454-0.838,0.788-1.172c0.333-0.333,0.724-0.596,1.172-0.787c0.447-0.191,0.923-0.287,1.428-0.287h1.001
		c0.505,0,0.98,0.096,1.429,0.287c0.447,0.191,0.838,0.454,1.172,0.787c0.333,0.334,0.596,0.725,0.787,1.172
		c0.19,0.448,0.287,0.924,0.287,1.428v2.942h-6.849v2.783c0,0.301,0.057,0.584,0.171,0.849c0.114,0.264,0.269,0.494,0.464,0.689
		s0.425,0.35,0.689,0.464s0.548,0.171,0.849,0.171h1.001c0.301,0,0.584-0.057,0.849-0.171c0.264-0.114,0.494-0.269,0.689-0.464
		s0.35-0.426,0.464-0.689c0.114-0.265,0.171-0.548,0.171-0.849v-0.83l1.502,0.244v0.5C444.67,24.63,444.573,25.107,444.383,25.554z
		 M443.168,18.4c0-0.301-0.057-0.584-0.171-0.849c-0.114-0.264-0.269-0.494-0.464-0.689s-0.426-0.35-0.689-0.464
		c-0.265-0.114-0.548-0.171-0.849-0.171h-1.001c-0.301,0-0.584,0.057-0.849,0.171c-0.265,0.114-0.494,0.269-0.689,0.464
		s-0.35,0.425-0.464,0.689c-0.114,0.265-0.171,0.548-0.171,0.849v1.856h5.347V18.4z"/>
	<path fill="#F1F1F1" d="M463.517,23.503c0,0.594-0.12,1.151-0.36,1.672c-0.24,0.521-0.562,0.977-0.964,1.367
		c-0.403,0.391-0.871,0.698-1.404,0.922s-1.097,0.336-1.69,0.336h-1.258c-0.594,0-1.157-0.112-1.69-0.336s-1.001-0.531-1.403-0.922
		c-0.403-0.391-0.725-0.846-0.965-1.367c-0.24-0.521-0.359-1.078-0.359-1.672v-0.696l1.574-0.256v0.952
		c0,0.391,0.079,0.755,0.238,1.093c0.158,0.337,0.372,0.635,0.641,0.891c0.269,0.257,0.58,0.458,0.934,0.604
		c0.354,0.146,0.727,0.22,1.117,0.22h1.099c0.391,0,0.761-0.073,1.11-0.22c0.351-0.146,0.66-0.348,0.928-0.604
		c0.27-0.256,0.482-0.554,0.642-0.891c0.158-0.338,0.237-0.702,0.237-1.093v-0.525c0-0.602-0.117-1.103-0.354-1.501
		s-0.549-0.738-0.939-1.02c-0.391-0.28-0.833-0.519-1.325-0.714s-0.999-0.391-1.52-0.586s-1.027-0.411-1.52-0.647
		c-0.493-0.236-0.935-0.531-1.325-0.885c-0.391-0.354-0.703-0.787-0.939-1.3s-0.354-1.143-0.354-1.892v-0.33
		c0-0.594,0.111-1.151,0.335-1.672c0.224-0.521,0.531-0.977,0.922-1.367s0.849-0.698,1.373-0.921
		c0.525-0.224,1.085-0.336,1.679-0.336h1.123c0.594,0,1.151,0.112,1.672,0.336c0.521,0.224,0.977,0.531,1.367,0.921
		s0.698,0.847,0.922,1.367c0.224,0.521,0.336,1.079,0.336,1.672v0.452l-1.574,0.256v-0.708c0-0.391-0.074-0.755-0.221-1.093
		c-0.146-0.337-0.346-0.632-0.598-0.885c-0.252-0.252-0.548-0.452-0.885-0.598c-0.338-0.146-0.702-0.22-1.093-0.22h-0.977
		c-0.391,0-0.755,0.073-1.093,0.22s-0.635,0.346-0.891,0.598c-0.257,0.252-0.458,0.547-0.604,0.885
		c-0.146,0.338-0.22,0.702-0.22,1.093v0.33c0,0.562,0.118,1.034,0.354,1.416c0.236,0.383,0.55,0.71,0.94,0.983
		c0.391,0.272,0.832,0.508,1.324,0.708c0.492,0.199,0.999,0.402,1.521,0.61c0.521,0.207,1.026,0.435,1.52,0.684
		c0.492,0.248,0.934,0.553,1.324,0.915s0.704,0.804,0.939,1.324c0.236,0.521,0.354,1.156,0.354,1.904V23.503z"/>
	<path fill="#F1F1F1" d="M473.246,27.556V18.4c0-0.301-0.057-0.584-0.171-0.849c-0.114-0.264-0.269-0.494-0.464-0.689
		s-0.426-0.35-0.689-0.464c-0.265-0.114-0.548-0.171-0.849-0.171h-1.001c-0.301,0-0.584,0.057-0.849,0.171
		c-0.265,0.114-0.494,0.269-0.689,0.464s-0.35,0.425-0.464,0.689c-0.114,0.265-0.171,0.548-0.171,0.849v9.156h-1.501V10.05h1.501
		v6.055c0.342-0.407,0.753-0.724,1.233-0.952c0.479-0.228,1-0.342,1.563-0.342h0.378c0.505,0,0.98,0.096,1.429,0.287
		c0.447,0.191,0.838,0.454,1.172,0.787c0.333,0.334,0.596,0.725,0.787,1.172c0.19,0.448,0.287,0.924,0.287,1.428v9.07H473.246z"/>
	<path fill="#F1F1F1" d="M485.812,25.554c-0.191,0.447-0.454,0.838-0.787,1.172c-0.334,0.334-0.725,0.596-1.172,0.787
		c-0.448,0.191-0.924,0.287-1.429,0.287h-1.001c-0.505,0-0.98-0.096-1.428-0.287c-0.448-0.191-0.839-0.453-1.172-0.787
		c-0.334-0.334-0.597-0.725-0.788-1.172s-0.286-0.924-0.286-1.429v-5.64c0-0.504,0.095-0.98,0.286-1.428
		c0.191-0.447,0.454-0.838,0.788-1.172c0.333-0.333,0.724-0.596,1.172-0.787c0.447-0.191,0.923-0.287,1.428-0.287h1.001
		c0.505,0,0.98,0.096,1.429,0.287c0.447,0.191,0.838,0.454,1.172,0.787c0.333,0.334,0.596,0.725,0.787,1.172
		c0.19,0.448,0.287,0.924,0.287,1.428v2.942h-6.849v2.783c0,0.301,0.057,0.584,0.171,0.849c0.114,0.264,0.269,0.494,0.464,0.689
		s0.425,0.35,0.689,0.464s0.548,0.171,0.849,0.171h1.001c0.301,0,0.584-0.057,0.849-0.171c0.264-0.114,0.494-0.269,0.689-0.464
		s0.35-0.426,0.464-0.689c0.114-0.265,0.171-0.548,0.171-0.849v-0.83l1.502,0.244v0.5C486.1,24.63,486.003,25.107,485.812,25.554z
		 M484.598,18.4c0-0.301-0.057-0.584-0.171-0.849c-0.114-0.264-0.269-0.494-0.464-0.689s-0.426-0.35-0.689-0.464
		c-0.265-0.114-0.548-0.171-0.849-0.171h-1.001c-0.301,0-0.584,0.057-0.849,0.171c-0.265,0.114-0.494,0.269-0.689,0.464
		s-0.35,0.425-0.464,0.689c-0.114,0.265-0.171,0.548-0.171,0.849v1.856h5.347V18.4z"/>
	<path fill="#F1F1F1" d="M497.166,25.554c-0.191,0.447-0.454,0.838-0.787,1.172c-0.334,0.334-0.725,0.596-1.172,0.787
		c-0.448,0.191-0.924,0.287-1.429,0.287h-1.001c-0.505,0-0.98-0.096-1.428-0.287c-0.448-0.191-0.839-0.453-1.172-0.787
		c-0.334-0.334-0.597-0.725-0.788-1.172s-0.286-0.924-0.286-1.429v-5.64c0-0.504,0.095-0.98,0.286-1.428
		c0.191-0.447,0.454-0.838,0.788-1.172c0.333-0.333,0.724-0.596,1.172-0.787c0.447-0.191,0.923-0.287,1.428-0.287h1.001
		c0.505,0,0.98,0.096,1.429,0.287c0.447,0.191,0.838,0.454,1.172,0.787c0.333,0.334,0.596,0.725,0.787,1.172
		c0.19,0.448,0.287,0.924,0.287,1.428v2.942h-6.849v2.783c0,0.301,0.057,0.584,0.171,0.849c0.114,0.264,0.269,0.494,0.464,0.689
		s0.425,0.35,0.689,0.464s0.548,0.171,0.849,0.171h1.001c0.301,0,0.584-0.057,0.849-0.171c0.264-0.114,0.494-0.269,0.689-0.464
		s0.35-0.426,0.464-0.689c0.114-0.265,0.171-0.548,0.171-0.849v-0.83l1.502,0.244v0.5C497.453,24.63,497.356,25.107,497.166,25.554z
		 M495.951,18.4c0-0.301-0.057-0.584-0.171-0.849c-0.114-0.264-0.269-0.494-0.464-0.689s-0.426-0.35-0.689-0.464
		c-0.265-0.114-0.548-0.171-0.849-0.171h-1.001c-0.301,0-0.584,0.057-0.849,0.171c-0.265,0.114-0.494,0.269-0.689,0.464
		s-0.35,0.425-0.464,0.689c-0.114,0.265-0.171,0.548-0.171,0.849v1.856h5.347V18.4z"/>
	<path fill="#F1F1F1" d="M505.008,27.556c-0.456,0-0.885-0.086-1.288-0.257c-0.402-0.171-0.753-0.406-1.05-0.708
		c-0.297-0.301-0.533-0.65-0.708-1.05c-0.175-0.398-0.263-0.825-0.263-1.281v-7.776h-2.246v-1.428h2.246v-3.003l1.502-0.244v3.247
		h3.174v1.428h-3.174v7.85c0,0.252,0.047,0.486,0.141,0.702c0.093,0.215,0.222,0.404,0.385,0.567
		c0.162,0.163,0.354,0.291,0.573,0.385c0.22,0.093,0.456,0.14,0.708,0.14h1.367v1.429H505.008z"/>
	<path fill="#F1F1F1" d="M510.014,15.434h-0.635V10.05h1.879L510.014,15.434z M513.004,15.434h-0.623V10.05h1.881L513.004,15.434z"
		/>
	<path fill="#F1F1F1" d="M530.82,25.554c-0.191,0.447-0.454,0.838-0.787,1.172c-0.334,0.334-0.725,0.596-1.172,0.787
		c-0.448,0.191-0.924,0.287-1.429,0.287h-1.001c-0.505,0-0.98-0.096-1.428-0.287c-0.448-0.191-0.839-0.453-1.172-0.787
		c-0.334-0.334-0.597-0.725-0.788-1.172s-0.286-0.924-0.286-1.429v-5.64c0-0.504,0.095-0.98,0.286-1.428
		c0.191-0.447,0.454-0.838,0.788-1.172c0.333-0.333,0.724-0.596,1.172-0.787c0.447-0.191,0.923-0.287,1.428-0.287h1.001
		c0.505,0,0.98,0.096,1.429,0.287c0.447,0.191,0.838,0.454,1.172,0.787c0.333,0.334,0.596,0.725,0.787,1.172
		c0.19,0.448,0.287,0.924,0.287,1.428v5.64C531.107,24.63,531.011,25.107,530.82,25.554z M529.605,18.4
		c0-0.301-0.057-0.584-0.171-0.849c-0.114-0.264-0.269-0.494-0.464-0.689s-0.426-0.35-0.689-0.464
		c-0.265-0.114-0.548-0.171-0.849-0.171h-1.001c-0.301,0-0.584,0.057-0.849,0.171c-0.265,0.114-0.494,0.269-0.689,0.464
		s-0.35,0.425-0.464,0.689c-0.114,0.265-0.171,0.548-0.171,0.849v5.811c0,0.301,0.057,0.584,0.171,0.849
		c0.114,0.264,0.269,0.494,0.464,0.689s0.425,0.35,0.689,0.464s0.548,0.171,0.849,0.171h1.001c0.301,0,0.584-0.057,0.849-0.171
		c0.264-0.114,0.494-0.269,0.689-0.464s0.35-0.426,0.464-0.689c0.114-0.265,0.171-0.548,0.171-0.849V18.4z"/>
	<path fill="#F1F1F1" d="M549.618,25.175c-0.224,0.521-0.53,0.977-0.921,1.367s-0.847,0.698-1.367,0.922
		c-0.521,0.224-1.079,0.336-1.673,0.336h-1.245c-0.594,0-1.153-0.112-1.679-0.336c-0.524-0.224-0.982-0.531-1.373-0.922
		s-0.698-0.846-0.922-1.367c-0.224-0.521-0.335-1.078-0.335-1.672v-9.4c0-0.594,0.111-1.151,0.335-1.672
		c0.224-0.521,0.531-0.977,0.922-1.367s0.849-0.698,1.373-0.921c0.525-0.224,1.085-0.336,1.679-0.336h1.245
		c0.594,0,1.151,0.112,1.673,0.336c0.521,0.224,0.977,0.531,1.367,0.921s0.697,0.847,0.921,1.367
		c0.224,0.521,0.336,1.079,0.336,1.672v0.708l-1.575,0.244v-0.952c0-0.391-0.072-0.755-0.219-1.093
		c-0.146-0.337-0.347-0.632-0.599-0.885c-0.252-0.252-0.548-0.452-0.885-0.598c-0.338-0.146-0.702-0.22-1.093-0.22h-1.099
		c-0.391,0-0.755,0.073-1.093,0.22s-0.635,0.346-0.891,0.598c-0.257,0.252-0.458,0.547-0.604,0.885
		c-0.146,0.338-0.22,0.702-0.22,1.093v9.4c0,0.391,0.073,0.755,0.22,1.093c0.146,0.337,0.348,0.635,0.604,0.891
		c0.256,0.257,0.553,0.458,0.891,0.604s0.702,0.22,1.093,0.22h1.099c0.391,0,0.755-0.073,1.093-0.22
		c0.337-0.146,0.633-0.348,0.885-0.604c0.252-0.256,0.452-0.554,0.599-0.891c0.146-0.338,0.219-0.702,0.219-1.093v-0.952
		l1.575,0.256v0.696C549.954,24.097,549.842,24.654,549.618,25.175z"/>
	<path fill="#F1F1F1" d="M563.053,23.503c0,0.594-0.12,1.151-0.36,1.672c-0.24,0.521-0.562,0.977-0.964,1.367
		c-0.403,0.391-0.871,0.698-1.404,0.922s-1.097,0.336-1.69,0.336h-1.258c-0.594,0-1.157-0.112-1.69-0.336s-1.001-0.531-1.403-0.922
		c-0.403-0.391-0.725-0.846-0.965-1.367c-0.24-0.521-0.359-1.078-0.359-1.672v-0.696l1.574-0.256v0.952
		c0,0.391,0.079,0.755,0.238,1.093c0.158,0.337,0.372,0.635,0.641,0.891c0.269,0.257,0.58,0.458,0.934,0.604
		c0.354,0.146,0.727,0.22,1.117,0.22h1.099c0.391,0,0.761-0.073,1.11-0.22c0.351-0.146,0.66-0.348,0.928-0.604
		c0.27-0.256,0.482-0.554,0.642-0.891c0.158-0.338,0.237-0.702,0.237-1.093v-0.525c0-0.602-0.117-1.103-0.354-1.501
		s-0.549-0.738-0.939-1.02c-0.391-0.28-0.833-0.519-1.325-0.714s-0.999-0.391-1.52-0.586s-1.027-0.411-1.52-0.647
		c-0.493-0.236-0.935-0.531-1.325-0.885c-0.391-0.354-0.703-0.787-0.939-1.3s-0.354-1.143-0.354-1.892v-0.33
		c0-0.594,0.111-1.151,0.335-1.672c0.224-0.521,0.531-0.977,0.922-1.367s0.849-0.698,1.373-0.921
		c0.525-0.224,1.085-0.336,1.679-0.336h1.123c0.594,0,1.151,0.112,1.672,0.336c0.521,0.224,0.977,0.531,1.367,0.921
		s0.698,0.847,0.922,1.367c0.224,0.521,0.336,1.079,0.336,1.672v0.452l-1.574,0.256v-0.708c0-0.391-0.074-0.755-0.221-1.093
		c-0.146-0.337-0.346-0.632-0.598-0.885c-0.252-0.252-0.548-0.452-0.885-0.598c-0.338-0.146-0.702-0.22-1.093-0.22h-0.977
		c-0.391,0-0.755,0.073-1.093,0.22s-0.635,0.346-0.891,0.598c-0.257,0.252-0.458,0.547-0.604,0.885
		c-0.146,0.338-0.22,0.702-0.22,1.093v0.33c0,0.562,0.118,1.034,0.354,1.416c0.236,0.383,0.55,0.71,0.94,0.983
		c0.391,0.272,0.832,0.508,1.324,0.708c0.492,0.199,0.999,0.402,1.521,0.61c0.521,0.207,1.026,0.435,1.52,0.684
		c0.492,0.248,0.934,0.553,1.324,0.915s0.704,0.804,0.939,1.324c0.236,0.521,0.354,1.156,0.354,1.904V23.503z"/>
	<path fill="#F1F1F1" d="M576.028,23.503c0,0.594-0.12,1.151-0.36,1.672c-0.24,0.521-0.562,0.977-0.964,1.367
		c-0.403,0.391-0.871,0.698-1.404,0.922s-1.097,0.336-1.69,0.336h-1.258c-0.594,0-1.157-0.112-1.69-0.336s-1.001-0.531-1.403-0.922
		c-0.403-0.391-0.725-0.846-0.965-1.367c-0.24-0.521-0.359-1.078-0.359-1.672v-0.696l1.574-0.256v0.952
		c0,0.391,0.079,0.755,0.238,1.093c0.158,0.337,0.372,0.635,0.641,0.891c0.269,0.257,0.58,0.458,0.934,0.604
		c0.354,0.146,0.727,0.22,1.117,0.22h1.099c0.391,0,0.761-0.073,1.11-0.22c0.351-0.146,0.66-0.348,0.928-0.604
		c0.27-0.256,0.482-0.554,0.642-0.891c0.158-0.338,0.237-0.702,0.237-1.093v-0.525c0-0.602-0.117-1.103-0.354-1.501
		s-0.549-0.738-0.939-1.02c-0.391-0.28-0.833-0.519-1.325-0.714s-0.999-0.391-1.52-0.586s-1.027-0.411-1.52-0.647
		c-0.493-0.236-0.935-0.531-1.325-0.885c-0.391-0.354-0.703-0.787-0.939-1.3s-0.354-1.143-0.354-1.892v-0.33
		c0-0.594,0.111-1.151,0.335-1.672c0.224-0.521,0.531-0.977,0.922-1.367s0.849-0.698,1.373-0.921
		c0.525-0.224,1.085-0.336,1.679-0.336h1.123c0.594,0,1.151,0.112,1.672,0.336c0.521,0.224,0.977,0.531,1.367,0.921
		s0.698,0.847,0.922,1.367c0.224,0.521,0.336,1.079,0.336,1.672v0.452l-1.574,0.256v-0.708c0-0.391-0.074-0.755-0.221-1.093
		c-0.146-0.337-0.346-0.632-0.598-0.885c-0.252-0.252-0.548-0.452-0.885-0.598c-0.338-0.146-0.702-0.22-1.093-0.22h-0.977
		c-0.391,0-0.755,0.073-1.093,0.22s-0.635,0.346-0.891,0.598c-0.257,0.252-0.458,0.547-0.604,0.885
		c-0.146,0.338-0.22,0.702-0.22,1.093v0.33c0,0.562,0.118,1.034,0.354,1.416c0.236,0.383,0.55,0.71,0.94,0.983
		c0.391,0.272,0.832,0.508,1.324,0.708c0.492,0.199,0.999,0.402,1.521,0.61c0.521,0.207,1.026,0.435,1.52,0.684
		c0.492,0.248,0.934,0.553,1.324,0.915s0.704,0.804,0.939,1.324c0.236,0.521,0.354,1.156,0.354,1.904V23.503z"/>
	<path fill="#F1F1F1" d="M584.256,20.256c0,1.351-0.13,2.612-0.391,3.784c-0.26,1.172-0.622,2.267-1.086,3.283
		c-0.464,1.018-1.016,1.96-1.654,2.826c-0.639,0.867-1.336,1.67-2.094,2.411l-0.879-0.879c0.676-0.692,1.295-1.457,1.855-2.295
		c0.563-0.839,1.046-1.739,1.453-2.704c0.407-0.964,0.725-1.983,0.952-3.058s0.342-2.197,0.342-3.369s-0.114-2.295-0.342-3.37
		s-0.545-2.094-0.952-3.058c-0.407-0.965-0.891-1.866-1.453-2.704c-0.561-0.838-1.18-1.603-1.855-2.295l0.879-0.879
		c0.758,0.741,1.455,1.544,2.094,2.411c0.639,0.866,1.19,1.807,1.654,2.819c0.464,1.014,0.826,2.106,1.086,3.278
		C584.126,17.631,584.256,18.897,584.256,20.256z"/>
</g>
</svg>
