<!-- Generator: Adobe Illustrator 17.0.0, SVG Export Plug-In  -->
<svg version="1.1"
	 xmlns="http://www.w3.org/2000/svg" xmlns:xlink="http://www.w3.org/1999/xlink" xmlns:a="http://ns.adobe.com/AdobeSVGViewerExtensions/3.0/"
	 x="0px" y="0px" width="240.297px" height="48.508px" viewBox="0 0 240.297 48.508" enable-background="new 0 0 240.297 48.508"
	 xml:space="preserve">
<defs>
</defs>
<g>
	<polygon fill-rule="evenodd" clip-rule="evenodd" fill="#888586" points="0,44.001 0,48.508 162.631,48.508 240.297,48.508 
		240.297,44.001 220.863,44.001 162.631,44.001 104.363,44.001 	"/>
	<rect x="0" y="0" fill-rule="evenodd" clip-rule="evenodd" fill="#E7E3E2" width="240.297" height="45.504"/>
	<rect x="178.898" y="0" fill-rule="evenodd" clip-rule="evenodd" fill="#E54F26" width="61.398" height="45.504"/>
	<polygon fill-rule="evenodd" clip-rule="evenodd" points="178.898,48.508 178.898,45.504 240.297,45.504 240.297,48.508 
		182.336,48.508 	"/>
	<g>
		<path fill="#282F39" d="M18.183,27.548v-9.687h2.927l1.758,6.607l1.738-6.607h2.934v9.687h-1.817v-7.625l-1.923,7.625h-1.883
			L20,19.923v7.625H18.183z"/>
		<path fill="#282F39" d="M30.709,22.764c0-0.986,0.147-1.814,0.443-2.484c0.22-0.493,0.521-0.936,0.901-1.328
			c0.381-0.392,0.799-0.683,1.252-0.872c0.604-0.255,1.3-0.383,2.088-0.383c1.428,0,2.569,0.442,3.426,1.328
			c0.857,0.885,1.285,2.116,1.285,3.693c0,1.563-0.425,2.787-1.274,3.671c-0.851,0.883-1.987,1.324-3.41,1.324
			c-1.44,0-2.585-0.439-3.436-1.318S30.709,24.306,30.709,22.764z M32.725,22.698c0,1.097,0.253,1.928,0.76,2.494
			s1.149,0.849,1.93,0.849c0.779,0,1.419-0.28,1.919-0.842s0.75-1.404,0.75-2.527c0-1.11-0.243-1.938-0.73-2.484
			c-0.486-0.547-1.133-0.819-1.938-0.819c-0.807,0-1.456,0.276-1.949,0.829C32.971,20.75,32.725,21.584,32.725,22.698z"/>
		<path fill="#282F39" d="M43.248,17.861h3.575c0.806,0,1.42,0.062,1.844,0.185c0.567,0.168,1.055,0.465,1.46,0.893
			c0.405,0.427,0.714,0.95,0.925,1.569c0.212,0.619,0.317,1.382,0.317,2.289c0,0.798-0.1,1.484-0.298,2.062
			c-0.242,0.705-0.588,1.275-1.037,1.712c-0.339,0.33-0.797,0.588-1.374,0.772c-0.432,0.137-1.009,0.205-1.731,0.205h-3.681V17.861z
			 M45.204,19.5v6.416h1.46c0.547,0,0.94-0.031,1.184-0.093c0.316-0.079,0.58-0.214,0.789-0.403s0.38-0.501,0.512-0.935
			c0.133-0.434,0.198-1.025,0.198-1.774s-0.065-1.323-0.198-1.725c-0.132-0.4-0.316-0.713-0.555-0.938
			c-0.237-0.225-0.54-0.377-0.905-0.456c-0.273-0.062-0.809-0.093-1.605-0.093H45.204z"/>
		<path fill="#282F39" d="M54.65,27.548v-9.687h7.183V19.5h-5.227v2.147h4.863v1.632h-4.863v2.637h5.411v1.632H54.65z"/>
		<path fill="#282F39" d="M65.353,27.548V17.94h1.956v7.976h4.863v1.632H65.353z"/>
		<path fill="#282F39" d="M74.793,22.764c0-0.986,0.147-1.814,0.443-2.484c0.22-0.493,0.521-0.936,0.901-1.328
			c0.381-0.392,0.799-0.683,1.252-0.872c0.604-0.255,1.3-0.383,2.088-0.383c1.428,0,2.569,0.442,3.426,1.328
			c0.857,0.885,1.285,2.116,1.285,3.693c0,1.563-0.425,2.787-1.274,3.671c-0.851,0.883-1.987,1.324-3.41,1.324
			c-1.44,0-2.585-0.439-3.436-1.318S74.793,24.306,74.793,22.764z M76.809,22.698c0,1.097,0.253,1.928,0.76,2.494
			s1.149,0.849,1.93,0.849c0.779,0,1.419-0.28,1.919-0.842s0.75-1.404,0.75-2.527c0-1.11-0.243-1.938-0.73-2.484
			c-0.486-0.547-1.133-0.819-1.938-0.819c-0.807,0-1.456,0.276-1.949,0.829C77.055,20.75,76.809,21.584,76.809,22.698z"/>
		<path fill="#282F39" d="M92.716,17.861h3.575c0.806,0,1.42,0.062,1.844,0.185c0.567,0.168,1.055,0.465,1.46,0.893
			c0.405,0.427,0.714,0.95,0.925,1.569c0.212,0.619,0.317,1.382,0.317,2.289c0,0.798-0.1,1.484-0.298,2.062
			c-0.242,0.705-0.588,1.275-1.037,1.712c-0.339,0.33-0.797,0.588-1.374,0.772c-0.432,0.137-1.009,0.205-1.731,0.205h-3.681V17.861z
			 M94.672,19.5v6.416h1.46c0.547,0,0.94-0.031,1.184-0.093c0.316-0.079,0.58-0.214,0.789-0.403s0.38-0.501,0.512-0.935
			c0.133-0.434,0.198-1.025,0.198-1.774s-0.065-1.323-0.198-1.725c-0.132-0.4-0.316-0.713-0.555-0.938
			c-0.237-0.225-0.54-0.377-0.905-0.456c-0.273-0.062-0.809-0.093-1.605-0.093H94.672z"/>
		<path fill="#282F39" d="M104.119,27.548v-9.687h7.183V19.5h-5.227v2.147h4.863v1.632h-4.863v2.637h5.411v1.632H104.119z"/>
		<path fill="#282F39" d="M126.35,23.986l1.896,0.602c-0.291,1.057-0.774,1.842-1.451,2.355c-0.676,0.513-1.534,0.77-2.573,0.77
			c-1.286,0-2.344-0.439-3.172-1.318s-1.242-2.08-1.242-3.604c0-1.611,0.417-2.864,1.249-3.756c0.833-0.892,1.927-1.338,3.284-1.338
			c1.185,0,2.147,0.35,2.888,1.051c0.44,0.414,0.771,1.009,0.99,1.783l-1.936,0.463c-0.114-0.502-0.354-0.898-0.717-1.189
			c-0.363-0.29-0.805-0.436-1.325-0.436c-0.718,0-1.301,0.258-1.747,0.772c-0.447,0.516-0.671,1.351-0.671,2.505
			c0,1.225,0.22,2.097,0.661,2.616c0.44,0.52,1.013,0.779,1.718,0.779c0.52,0,0.967-0.165,1.341-0.495
			C125.918,25.216,126.186,24.695,126.35,23.986z"/>
		<path fill="#282F39" d="M140.283,27.548h-2.128l-0.846-2.2h-3.872l-0.799,2.2h-2.075l3.772-9.687h2.068L140.283,27.548z
			 M136.682,23.716l-1.334-3.595l-1.309,3.595H136.682z"/>
		<path fill="#282F39" d="M146.439,17.861h1.949v6.132c0,0.802-0.07,1.418-0.211,1.85c-0.189,0.564-0.533,1.017-1.031,1.358
			c-0.497,0.341-1.154,0.512-1.969,0.512c-0.956,0-1.691-0.268-2.207-0.803s-0.775-1.32-0.779-2.355l1.844-0.212
			c0.021,0.556,0.103,0.947,0.244,1.177c0.211,0.348,0.533,0.521,0.965,0.521c0.436,0,0.744-0.124,0.925-0.373
			s0.271-0.766,0.271-1.55V17.861z"/>
		<path fill="#282F39" d="M160.83,27.548h-2.128l-0.846-2.2h-3.872l-0.799,2.2h-2.075l3.772-9.687h2.068L160.83,27.548z
			 M157.228,23.716l-1.334-3.595l-1.309,3.595H157.228z"/>
	</g>
	<g id="XMLID_1_">
		<path id="XMLID_3_" fill="#FFFFFF" d="M193.236,35.93c-0.832,0.837-0.832,2.089,0,3.029l0.523,0.521
			c0.834,0.834,2.191,0.834,3.029,0l6.68-6.681c0.414-0.522,0.625-1.045,0.625-1.672l2.193-2.191
			c5.008,3.758,12.107,3.447,16.701-1.146c5.012-5.012,5.012-13.05,0-18.058c-5.01-5.012-13.049-5.012-18.059,0
			c-4.594,4.592-4.908,11.689-1.15,16.7l-2.191,2.191c-0.623,0-1.252,0.208-1.67,0.628L193.236,35.93L193.236,35.93z
			 M207.748,24.971c-3.445-3.445-3.551-9.083,0-12.525c3.443-3.445,9.078-3.445,12.525,0c3.443,3.442,3.443,9.08,0,12.525
			C216.826,28.416,211.191,28.416,207.748,24.971L207.748,24.971z"/>
		<path id="XMLID_2_" fill="#FFFFFF" d="M210.461,17.35h2.088v-2.086c0-0.732,0.627-1.358,1.355-1.358l0,0
			c0.734,0,1.359,0.626,1.359,1.358v2.086h2.088c0.73,0,1.357,0.627,1.357,1.356l0,0c0,0.733-0.627,1.358-1.357,1.358h-2.088v2.09
			c0,0.728-0.625,1.357-1.359,1.357l0,0c-0.729,0-1.355-0.63-1.355-1.357v-2.09h-2.088c-0.729,0-1.357-0.624-1.357-1.358l0,0
			C209.104,17.976,209.732,17.35,210.461,17.35L210.461,17.35z"/>
	</g>
</g>
</svg>