<?xml version="1.0" encoding="utf-8"?>
<!-- Generator: Adobe Illustrator 17.0.0, SVG Export Plug-In . SVG Version: 6.00 Build 0)  -->
<!DOCTYPE svg PUBLIC "-//W3C//DTD SVG 1.1//EN" "http://www.w3.org/Graphics/SVG/1.1/DTD/svg11.dtd" [
	<!ENTITY ns_extend "http://ns.adobe.com/Extensibility/1.0/">
	<!ENTITY ns_ai "http://ns.adobe.com/AdobeIllustrator/10.0/">
	<!ENTITY ns_graphs "http://ns.adobe.com/Graphs/1.0/">
	<!ENTITY ns_vars "http://ns.adobe.com/Variables/1.0/">
	<!ENTITY ns_imrep "http://ns.adobe.com/ImageReplacement/1.0/">
	<!ENTITY ns_sfw "http://ns.adobe.com/SaveForWeb/1.0/">
	<!ENTITY ns_custom "http://ns.adobe.com/GenericCustomNamespace/1.0/">
	<!ENTITY ns_adobe_xpath "http://ns.adobe.com/XPath/1.0/">
]>
<svg version="1.1" id="Capa_1" xmlns:x="&ns_extend;" xmlns:i="&ns_ai;" xmlns:graph="&ns_graphs;"
	 xmlns="http://www.w3.org/2000/svg" xmlns:xlink="http://www.w3.org/1999/xlink" x="0px" y="0px" width="366.341px"
	 height="162.98px" viewBox="0 0 366.341 162.98" enable-background="new 0 0 366.341 162.98" xml:space="preserve">
<metadata>
	<sfw  xmlns="&ns_sfw;">
		<slices></slices>
		<sliceSourceBounds  width="366.341" height="162.98" x="456.329" y="319.01" bottomLeftOrigin="true"></sliceSourceBounds>
	</sfw>
</metadata>
<g>
	<rect x="1.5" y="1.5" fill="#FFFFFF" stroke="#000000" stroke-width="3" stroke-miterlimit="10" width="363.341" height="159.98"/>
	<rect x="32.006" y="41.915" fill="none" stroke="#000000" stroke-miterlimit="10" width="81.745" height="31.629"/>
	<rect x="115.802" y="41.915" fill="none" stroke="#000000" stroke-miterlimit="10" width="199.224" height="31.629"/>
	<g>
		<g>
			<path d="M35.413,60.369l1.868-0.163c0.089,0.749,0.295,1.363,0.618,1.843s0.825,0.868,1.506,1.164s1.447,0.444,2.298,0.444
				c0.756,0,1.423-0.112,2.001-0.337c0.579-0.225,1.01-0.532,1.292-0.924s0.424-0.818,0.424-1.282c0-0.47-0.136-0.879-0.408-1.23
				c-0.272-0.35-0.722-0.645-1.348-0.883c-0.402-0.156-1.291-0.399-2.666-0.73c-1.375-0.33-2.338-0.642-2.89-0.934
				c-0.715-0.375-1.247-0.839-1.598-1.395c-0.351-0.555-0.525-1.176-0.525-1.863c0-0.756,0.214-1.462,0.643-2.119
				c0.429-0.656,1.056-1.155,1.879-1.495c0.824-0.341,1.739-0.511,2.747-0.511c1.109,0,2.088,0.179,2.936,0.536
				s1.499,0.883,1.955,1.577s0.701,1.48,0.735,2.359l-1.899,0.143c-0.102-0.946-0.447-1.661-1.036-2.145S42.486,51.7,41.336,51.7
				c-1.198,0-2.071,0.22-2.619,0.658c-0.549,0.439-0.822,0.969-0.822,1.588c0,0.538,0.193,0.98,0.582,1.328
				c0.381,0.347,1.377,0.702,2.986,1.066c1.61,0.364,2.715,0.683,3.313,0.955c0.871,0.401,1.515,0.91,1.931,1.526
				c0.415,0.616,0.622,1.326,0.622,2.129c0,0.797-0.228,1.547-0.684,2.252c-0.456,0.704-1.111,1.252-1.966,1.644
				s-1.816,0.587-2.885,0.587c-1.354,0-2.49-0.197-3.405-0.592c-0.916-0.395-1.634-0.989-2.154-1.782
				C35.714,62.267,35.44,61.37,35.413,60.369z"/>
			<path d="M57.224,61.686l1.899,0.234c-0.3,1.11-0.854,1.972-1.664,2.584c-0.811,0.612-1.845,0.919-3.104,0.919
				c-1.586,0-2.844-0.488-3.773-1.466c-0.929-0.977-1.394-2.347-1.394-4.109c0-1.824,0.47-3.24,1.409-4.248
				c0.939-1.007,2.158-1.511,3.655-1.511c1.45,0,2.635,0.493,3.554,1.48s1.379,2.376,1.379,4.166c0,0.108-0.004,0.272-0.011,0.49
				h-8.087c0.068,1.191,0.405,2.104,1.011,2.736c0.606,0.633,1.361,0.949,2.267,0.949c0.675,0,1.25-0.177,1.727-0.53
				C56.566,63.027,56.944,62.463,57.224,61.686z M51.189,58.715h6.055c-0.082-0.912-0.313-1.596-0.694-2.052
				c-0.585-0.708-1.345-1.063-2.277-1.063c-0.844,0-1.554,0.282-2.129,0.848S51.25,57.769,51.189,58.715z"/>
			<path d="M61.391,65.179v-14.97h1.838v14.97H61.391z"/>
			<path d="M73.501,61.686L75.4,61.92c-0.3,1.11-0.854,1.972-1.664,2.584c-0.811,0.612-1.845,0.919-3.104,0.919
				c-1.586,0-2.844-0.488-3.773-1.466c-0.929-0.977-1.394-2.347-1.394-4.109c0-1.824,0.47-3.24,1.409-4.248
				c0.939-1.007,2.158-1.511,3.655-1.511c1.45,0,2.635,0.493,3.554,1.48s1.379,2.376,1.379,4.166c0,0.108-0.004,0.272-0.011,0.49
				h-8.087c0.068,1.191,0.405,2.104,1.011,2.736c0.606,0.633,1.361,0.949,2.267,0.949c0.675,0,1.25-0.177,1.727-0.53
				C72.844,63.027,73.222,62.463,73.501,61.686z M67.467,58.715h6.055c-0.082-0.912-0.313-1.596-0.694-2.052
				c-0.585-0.708-1.345-1.063-2.277-1.063c-0.844,0-1.554,0.282-2.129,0.848S67.527,57.769,67.467,58.715z"/>
			<path d="M84.785,61.207l1.807,0.234c-0.197,1.246-0.702,2.221-1.516,2.926c-0.813,0.704-1.813,1.057-2.997,1.057
				c-1.484,0-2.677-0.485-3.579-1.455s-1.354-2.36-1.354-4.171c0-1.171,0.194-2.195,0.582-3.074
				c0.389-0.878,0.979-1.536,1.772-1.976c0.793-0.439,1.655-0.658,2.588-0.658c1.178,0,2.141,0.298,2.89,0.894
				s1.229,1.441,1.44,2.537l-1.787,0.275c-0.17-0.729-0.472-1.276-0.903-1.644c-0.433-0.368-0.955-0.552-1.568-0.552
				c-0.926,0-1.678,0.332-2.256,0.996c-0.579,0.663-0.868,1.714-0.868,3.149c0,1.457,0.279,2.516,0.837,3.176
				c0.559,0.66,1.287,0.99,2.186,0.99c0.722,0,1.324-0.221,1.808-0.663S84.655,62.126,84.785,61.207z"/>
			<path d="M92.178,63.535l0.266,1.623c-0.518,0.109-0.98,0.163-1.389,0.163c-0.668,0-1.185-0.105-1.553-0.316
				c-0.367-0.211-0.626-0.488-0.775-0.832c-0.15-0.344-0.225-1.067-0.225-2.17v-6.239h-1.349v-1.429h1.349v-2.686l1.827-1.104v3.789
				h1.849v1.429h-1.849v6.342c0,0.524,0.032,0.861,0.098,1.011c0.064,0.149,0.17,0.269,0.316,0.357
				c0.146,0.088,0.355,0.133,0.628,0.133C91.575,63.606,91.844,63.582,92.178,63.535z"/>
			<path d="M93.291,59.757c0-2.009,0.559-3.496,1.675-4.463c0.933-0.803,2.069-1.204,3.41-1.204c1.491,0,2.71,0.488,3.656,1.465
				c0.945,0.977,1.419,2.326,1.419,4.049c0,1.396-0.209,2.493-0.628,3.293s-1.028,1.421-1.828,1.863s-1.673,0.664-2.619,0.664
				c-1.518,0-2.745-0.486-3.681-1.46C93.759,62.99,93.291,61.588,93.291,59.757z M95.18,59.757c0,1.389,0.304,2.429,0.909,3.119
				c0.605,0.691,1.368,1.036,2.287,1.036c0.912,0,1.671-0.347,2.277-1.041c0.605-0.694,0.909-1.753,0.909-3.176
				c0-1.341-0.306-2.357-0.914-3.048c-0.609-0.691-1.367-1.036-2.272-1.036c-0.919,0-1.682,0.344-2.287,1.031
				S95.18,58.368,95.18,59.757z"/>
			<path d="M105.586,65.179V54.335h1.654v1.644c0.422-0.77,0.812-1.276,1.169-1.521s0.75-0.367,1.179-0.367
				c0.62,0,1.25,0.197,1.89,0.592l-0.633,1.705c-0.449-0.266-0.899-0.398-1.349-0.398c-0.401,0-0.762,0.121-1.082,0.363
				c-0.32,0.241-0.548,0.576-0.685,1.006c-0.204,0.653-0.306,1.368-0.306,2.144v5.678h-1.837V65.179z"/>
		</g>
	</g>
	<g>
		<g>
			<path d="M43.286,7.187h1.289v5.627c0,0.979-0.11,1.757-0.332,2.333c-0.222,0.575-0.621,1.044-1.199,1.405
				c-0.578,0.36-1.337,0.541-2.275,0.541c-0.913,0-1.659-0.157-2.239-0.472c-0.581-0.314-0.995-0.77-1.243-1.365
				s-0.372-1.41-0.372-2.442V7.187h1.289v5.621c0,0.846,0.079,1.469,0.236,1.87c0.157,0.4,0.428,0.71,0.811,0.927
				s0.852,0.325,1.405,0.325c0.948,0,1.623-0.215,2.026-0.645c0.403-0.429,0.604-1.255,0.604-2.478V7.187z"/>
			<path d="M46.569,16.928V9.871h1.076v1.004c0.518-0.775,1.267-1.163,2.245-1.163c0.426,0,0.816,0.076,1.173,0.229
				c0.356,0.152,0.624,0.354,0.801,0.602s0.301,0.542,0.372,0.884c0.044,0.221,0.066,0.608,0.066,1.162v4.339h-1.196v-4.292
				c0-0.487-0.046-0.852-0.139-1.093c-0.094-0.242-0.259-0.435-0.495-0.578c-0.237-0.145-0.516-0.216-0.834-0.216
				c-0.51,0-0.949,0.161-1.319,0.484c-0.369,0.323-0.555,0.938-0.555,1.841v3.854H46.569z"/>
			<path d="M54.143,8.562V7.187h1.196v1.375H54.143z M54.143,16.928V9.871h1.196v7.057C55.339,16.928,54.143,16.928,54.143,16.928z"
				/>
			<path d="M56.715,13.399c0-1.307,0.363-2.274,1.089-2.903c0.607-0.522,1.347-0.784,2.22-0.784c0.97,0,1.763,0.318,2.379,0.953
				c0.615,0.636,0.923,1.515,0.923,2.635c0,0.908-0.136,1.622-0.408,2.143s-0.669,0.925-1.189,1.213s-1.089,0.432-1.704,0.432
				c-0.988,0-1.786-0.316-2.396-0.95C57.019,15.504,56.715,14.591,56.715,13.399z M57.943,13.399c0,0.904,0.197,1.58,0.592,2.03
				c0.395,0.449,0.891,0.674,1.488,0.674c0.594,0,1.087-0.226,1.481-0.678c0.395-0.451,0.592-1.141,0.592-2.066
				c0-0.872-0.198-1.533-0.595-1.983c-0.396-0.449-0.89-0.674-1.479-0.674c-0.598,0-1.094,0.224-1.488,0.671
				S57.943,12.496,57.943,13.399z M59.359,8.994l0.883-1.86h1.568l-1.462,1.86H59.359z"/>
			<path d="M64.727,16.928V9.871h1.076v1.004c0.518-0.775,1.267-1.163,2.245-1.163c0.426,0,0.816,0.076,1.173,0.229
				c0.356,0.152,0.624,0.354,0.801,0.602s0.301,0.542,0.372,0.884c0.044,0.221,0.066,0.608,0.066,1.162v4.339h-1.196v-4.292
				c0-0.487-0.046-0.852-0.139-1.093c-0.094-0.242-0.259-0.435-0.495-0.578c-0.237-0.145-0.516-0.216-0.834-0.216
				c-0.51,0-0.949,0.161-1.319,0.484c-0.369,0.323-0.555,0.938-0.555,1.841v3.854H64.727z"/>
			<path d="M80.652,16.928v-0.891c-0.447,0.7-1.104,1.05-1.973,1.05c-0.563,0-1.08-0.155-1.552-0.465s-0.837-0.743-1.097-1.299
				c-0.259-0.556-0.389-1.195-0.389-1.917c0-0.704,0.117-1.343,0.353-1.917c0.234-0.573,0.587-1.013,1.057-1.318
				c0.469-0.306,0.994-0.459,1.574-0.459c0.426,0,0.804,0.09,1.137,0.27c0.332,0.179,0.602,0.413,0.811,0.7V7.187h1.189v9.74
				L80.652,16.928L80.652,16.928z M76.872,13.406c0,0.903,0.19,1.579,0.571,2.026s0.831,0.671,1.349,0.671
				c0.522,0,0.967-0.213,1.332-0.641c0.366-0.428,0.549-1.08,0.549-1.957c0-0.966-0.187-1.674-0.559-2.126s-0.83-0.678-1.375-0.678
				c-0.531,0-0.976,0.217-1.332,0.651C77.05,11.787,76.872,12.472,76.872,13.406z"/>
			<path d="M88.473,14.655l1.235,0.153c-0.194,0.722-0.556,1.282-1.083,1.681s-1.2,0.598-2.02,0.598
				c-1.032,0-1.851-0.317-2.455-0.953c-0.604-0.636-0.907-1.527-0.907-2.675c0-1.187,0.306-2.108,0.917-2.764
				s1.404-0.983,2.379-0.983c0.943,0,1.714,0.321,2.313,0.964c0.598,0.642,0.896,1.546,0.896,2.711c0,0.07-0.002,0.177-0.007,0.318
				h-5.262c0.044,0.775,0.264,1.369,0.657,1.781c0.395,0.411,0.886,0.617,1.476,0.617c0.438,0,0.813-0.115,1.123-0.345
				S88.291,15.16,88.473,14.655z M84.546,12.722h3.939c-0.053-0.594-0.203-1.038-0.451-1.335c-0.381-0.461-0.875-0.691-1.481-0.691
				c-0.55,0-1.012,0.184-1.386,0.552C84.793,11.614,84.586,12.106,84.546,12.722z"/>
			<path d="M94.99,19.632V9.871h1.089v0.917c0.257-0.358,0.547-0.628,0.871-0.807c0.323-0.18,0.715-0.27,1.176-0.27
				c0.603,0,1.134,0.155,1.595,0.465c0.46,0.311,0.808,0.748,1.043,1.313c0.234,0.564,0.353,1.184,0.353,1.857
				c0,0.722-0.13,1.372-0.389,1.95c-0.26,0.578-0.636,1.021-1.13,1.328c-0.494,0.309-1.014,0.462-1.559,0.462
				c-0.398,0-0.756-0.084-1.072-0.252c-0.317-0.169-0.577-0.381-0.781-0.638v3.435H94.99V19.632z M96.073,13.439
				c0,0.908,0.184,1.579,0.551,2.014c0.368,0.434,0.813,0.65,1.336,0.65c0.531,0,0.986-0.225,1.365-0.674
				c0.379-0.45,0.568-1.146,0.568-2.09c0-0.899-0.186-1.572-0.555-2.02c-0.37-0.447-0.813-0.672-1.326-0.672
				c-0.509,0-0.96,0.238-1.352,0.715C96.269,11.84,96.073,12.531,96.073,13.439z"/>
			<path d="M107.161,16.058c-0.442,0.376-0.869,0.642-1.278,0.797c-0.41,0.155-0.85,0.232-1.319,0.232
				c-0.775,0-1.371-0.189-1.787-0.567c-0.416-0.379-0.625-0.863-0.625-1.452c0-0.346,0.079-0.661,0.236-0.947
				c0.157-0.285,0.363-0.515,0.618-0.688s0.541-0.303,0.86-0.392c0.234-0.063,0.589-0.122,1.063-0.18
				c0.966-0.115,1.677-0.252,2.133-0.412c0.005-0.163,0.007-0.268,0.007-0.312c0-0.487-0.112-0.831-0.339-1.03
				c-0.306-0.271-0.76-0.405-1.362-0.405c-0.563,0-0.978,0.099-1.245,0.296c-0.269,0.197-0.467,0.546-0.595,1.046l-1.17-0.159
				c0.106-0.501,0.281-0.904,0.525-1.213c0.243-0.308,0.596-0.545,1.057-0.711c0.46-0.166,0.994-0.249,1.601-0.249
				c0.603,0,1.092,0.071,1.469,0.213c0.376,0.142,0.653,0.32,0.83,0.535c0.178,0.215,0.302,0.485,0.372,0.813
				c0.04,0.204,0.061,0.571,0.061,1.103v1.595c0,1.112,0.025,1.815,0.076,2.11c0.051,0.294,0.151,0.576,0.303,0.847h-1.25
				C107.276,16.68,107.197,16.39,107.161,16.058z M107.061,13.387c-0.434,0.177-1.085,0.327-1.953,0.451
				c-0.491,0.071-0.839,0.151-1.043,0.239c-0.204,0.089-0.361,0.219-0.472,0.389c-0.111,0.171-0.166,0.36-0.166,0.568
				c0,0.319,0.12,0.585,0.362,0.797c0.241,0.213,0.595,0.319,1.06,0.319c0.46,0,0.87-0.101,1.229-0.303
				c0.359-0.201,0.623-0.477,0.791-0.827c0.129-0.27,0.192-0.669,0.192-1.195C107.061,13.825,107.061,13.387,107.061,13.387z"/>
			<path d="M110.111,16.928V9.871h1.076v1.07c0.274-0.501,0.528-0.831,0.761-0.99s0.488-0.239,0.768-0.239
				c0.403,0,0.813,0.129,1.229,0.386l-0.412,1.109c-0.293-0.173-0.585-0.259-0.877-0.259c-0.262,0-0.496,0.078-0.704,0.235
				c-0.209,0.157-0.357,0.376-0.445,0.654c-0.133,0.426-0.199,0.891-0.199,1.396v3.694L110.111,16.928L110.111,16.928z"/>
			<path d="M119.486,14.655l1.235,0.153c-0.194,0.722-0.556,1.282-1.083,1.681s-1.2,0.598-2.02,0.598
				c-1.032,0-1.851-0.317-2.455-0.953c-0.604-0.636-0.907-1.527-0.907-2.675c0-1.187,0.306-2.108,0.917-2.764
				s1.404-0.983,2.379-0.983c0.943,0,1.714,0.321,2.313,0.964c0.598,0.642,0.896,1.546,0.896,2.711c0,0.07-0.002,0.177-0.007,0.318
				h-5.262c0.044,0.775,0.264,1.369,0.657,1.781c0.395,0.411,0.886,0.617,1.476,0.617c0.438,0,0.813-0.115,1.123-0.345
				C119.059,15.528,119.305,15.16,119.486,14.655z M115.56,12.722h3.939c-0.053-0.594-0.203-1.038-0.451-1.335
				c-0.381-0.461-0.875-0.691-1.481-0.691c-0.55,0-1.012,0.184-1.386,0.552C115.807,11.614,115.6,12.106,115.56,12.722z"/>
			<path d="M120.701,19.665l0.227-1.017c0.239,0.063,0.427,0.093,0.564,0.093c0.243,0,0.426-0.08,0.545-0.242s0.18-0.565,0.18-1.213
				V9.871h1.195v7.442c0,0.868-0.112,1.473-0.339,1.813c-0.288,0.443-0.766,0.664-1.435,0.664
				C121.315,19.791,121.003,19.749,120.701,19.665z M122.217,8.576V7.187h1.195v1.389H122.217z"/>
			<path d="M129.851,16.058c-0.442,0.376-0.869,0.642-1.278,0.797c-0.41,0.155-0.85,0.232-1.319,0.232
				c-0.775,0-1.371-0.189-1.787-0.567c-0.416-0.379-0.625-0.863-0.625-1.452c0-0.346,0.079-0.661,0.236-0.947
				c0.157-0.285,0.363-0.515,0.618-0.688s0.541-0.303,0.86-0.392c0.234-0.063,0.589-0.122,1.063-0.18
				c0.966-0.115,1.677-0.252,2.133-0.412c0.005-0.163,0.007-0.268,0.007-0.312c0-0.487-0.112-0.831-0.339-1.03
				c-0.306-0.271-0.76-0.405-1.362-0.405c-0.563,0-0.978,0.099-1.245,0.296c-0.269,0.197-0.467,0.546-0.595,1.046l-1.17-0.159
				c0.106-0.501,0.281-0.904,0.525-1.213c0.243-0.308,0.596-0.545,1.057-0.711c0.46-0.166,0.994-0.249,1.601-0.249
				c0.603,0,1.092,0.071,1.469,0.213c0.376,0.142,0.653,0.32,0.83,0.535c0.178,0.215,0.302,0.485,0.372,0.813
				c0.04,0.204,0.061,0.571,0.061,1.103v1.595c0,1.112,0.025,1.815,0.076,2.11c0.051,0.294,0.151,0.576,0.303,0.847h-1.25
				C129.966,16.68,129.887,16.39,129.851,16.058z M129.751,13.387c-0.434,0.177-1.085,0.327-1.953,0.451
				c-0.491,0.071-0.839,0.151-1.043,0.239c-0.204,0.089-0.361,0.219-0.472,0.389c-0.111,0.171-0.166,0.36-0.166,0.568
				c0,0.319,0.12,0.585,0.362,0.797c0.241,0.213,0.595,0.319,1.06,0.319c0.46,0,0.87-0.101,1.229-0.303
				c0.359-0.201,0.623-0.477,0.791-0.827c0.129-0.27,0.192-0.669,0.192-1.195V13.387z"/>
			<path d="M132.336,14.821l1.183-0.186c0.066,0.474,0.251,0.837,0.555,1.09c0.303,0.252,0.728,0.378,1.272,0.378
				c0.549,0,0.956-0.111,1.223-0.335c0.266-0.224,0.398-0.486,0.398-0.787c0-0.271-0.117-0.483-0.353-0.639
				c-0.164-0.106-0.571-0.241-1.223-0.405c-0.877-0.221-1.484-0.413-1.823-0.574c-0.339-0.162-0.596-0.386-0.771-0.671
				c-0.175-0.286-0.262-0.602-0.262-0.947c0-0.314,0.071-0.605,0.216-0.874c0.144-0.268,0.34-0.49,0.588-0.667
				c0.187-0.138,0.439-0.254,0.761-0.35c0.321-0.095,0.665-0.143,1.033-0.143c0.554,0,1.04,0.08,1.458,0.239
				c0.419,0.159,0.728,0.375,0.928,0.647c0.199,0.272,0.336,0.638,0.411,1.094l-1.169,0.159c-0.054-0.363-0.207-0.646-0.462-0.851
				s-0.614-0.306-1.08-0.306c-0.549,0-0.94,0.091-1.176,0.272c-0.234,0.182-0.352,0.395-0.352,0.638
				c0,0.155,0.048,0.295,0.146,0.419c0.098,0.128,0.25,0.234,0.459,0.318c0.119,0.045,0.472,0.146,1.057,0.306
				c0.846,0.227,1.436,0.411,1.771,0.556c0.334,0.144,0.597,0.353,0.787,0.627c0.19,0.275,0.286,0.616,0.286,1.023
				c0,0.398-0.117,0.774-0.35,1.126c-0.232,0.353-0.567,0.625-1.006,0.817c-0.438,0.193-0.936,0.289-1.488,0.289
				c-0.917,0-1.616-0.19-2.097-0.571S132.469,15.57,132.336,14.821z"/>
		</g>
	</g>
	<g>
		<g>
			<path d="M47.409,98.141l1.216-0.105c0.058,0.487,0.191,0.887,0.402,1.199c0.21,0.312,0.537,0.564,0.979,0.757
				c0.443,0.193,0.941,0.289,1.495,0.289c0.492,0,0.926-0.073,1.303-0.219c0.376-0.146,0.656-0.347,0.84-0.602
				s0.276-0.532,0.276-0.834c0-0.306-0.089-0.572-0.267-0.801c-0.177-0.228-0.469-0.419-0.877-0.574
				c-0.261-0.103-0.839-0.261-1.733-0.476c-0.896-0.215-1.521-0.417-1.881-0.607c-0.465-0.244-0.812-0.546-1.04-0.907
				s-0.342-0.765-0.342-1.213c0-0.491,0.14-0.951,0.419-1.378c0.278-0.428,0.687-0.752,1.222-0.974
				c0.536-0.222,1.132-0.332,1.788-0.332c0.722,0,1.358,0.116,1.91,0.349c0.551,0.232,0.976,0.574,1.272,1.026
				s0.456,0.964,0.479,1.535l-1.236,0.093c-0.066-0.615-0.291-1.081-0.675-1.396c-0.383-0.314-0.948-0.472-1.697-0.472
				c-0.779,0-1.348,0.143-1.704,0.429c-0.356,0.285-0.535,0.63-0.535,1.033c0,0.35,0.127,0.638,0.379,0.863
				c0.248,0.227,0.896,0.458,1.943,0.694c1.048,0.237,1.767,0.444,2.156,0.622c0.567,0.261,0.985,0.592,1.256,0.993
				c0.27,0.4,0.405,0.862,0.405,1.385c0,0.519-0.148,1.007-0.445,1.465c-0.297,0.459-0.723,0.815-1.279,1.07
				s-1.182,0.382-1.877,0.382c-0.881,0-1.62-0.129-2.216-0.386s-1.063-0.643-1.401-1.159C47.605,99.376,47.427,98.792,47.409,98.141
				z"/>
			<path d="M61.602,98.998l1.235,0.153c-0.194,0.722-0.556,1.282-1.083,1.681s-1.2,0.598-2.02,0.598
				c-1.032,0-1.851-0.317-2.455-0.953s-0.907-1.527-0.907-2.675c0-1.187,0.306-2.108,0.917-2.764s1.404-0.983,2.379-0.983
				c0.943,0,1.714,0.321,2.313,0.964c0.598,0.642,0.896,1.546,0.896,2.711c0,0.07-0.002,0.177-0.007,0.318h-5.262
				c0.044,0.775,0.264,1.369,0.657,1.781c0.395,0.411,0.886,0.617,1.476,0.617c0.438,0,0.813-0.115,1.123-0.345
				C61.174,99.871,61.42,99.503,61.602,98.998z M57.675,97.064h3.939c-0.053-0.594-0.203-1.038-0.451-1.335
				c-0.381-0.461-0.875-0.691-1.481-0.691c-0.55,0-1.012,0.184-1.386,0.552C57.922,95.957,57.715,96.449,57.675,97.064z"/>
			<path d="M64.311,101.27v-9.74h1.196v9.74H64.311z"/>
			<path d="M72.192,98.998l1.235,0.153c-0.194,0.722-0.556,1.282-1.083,1.681s-1.2,0.598-2.02,0.598
				c-1.032,0-1.851-0.317-2.455-0.953s-0.907-1.527-0.907-2.675c0-1.187,0.306-2.108,0.917-2.764s1.404-0.983,2.379-0.983
				c0.943,0,1.714,0.321,2.313,0.964c0.598,0.642,0.896,1.546,0.896,2.711c0,0.07-0.002,0.177-0.007,0.318h-5.262
				c0.044,0.775,0.264,1.369,0.657,1.781c0.395,0.411,0.886,0.617,1.476,0.617c0.438,0,0.813-0.115,1.123-0.345
				C71.765,99.871,72.011,99.503,72.192,98.998z M68.266,97.064h3.939c-0.053-0.594-0.203-1.038-0.451-1.335
				c-0.381-0.461-0.875-0.691-1.481-0.691c-0.55,0-1.012,0.184-1.386,0.552C68.513,95.957,68.306,96.449,68.266,97.064z"/>
			<path d="M79.533,98.686l1.177,0.153c-0.129,0.811-0.458,1.445-0.987,1.903c-0.529,0.459-1.179,0.688-1.949,0.688
				c-0.966,0-1.742-0.315-2.329-0.946c-0.587-0.632-0.881-1.536-0.881-2.715c0-0.762,0.127-1.428,0.379-1.999
				c0.253-0.572,0.637-1,1.153-1.286s1.077-0.429,1.684-0.429c0.767,0,1.394,0.194,1.881,0.581c0.487,0.388,0.799,0.938,0.937,1.651
				l-1.163,0.18c-0.11-0.474-0.307-0.831-0.588-1.07c-0.281-0.238-0.621-0.358-1.02-0.358c-0.603,0-1.092,0.216-1.469,0.647
				c-0.376,0.433-0.564,1.115-0.564,2.05c0,0.948,0.182,1.637,0.545,2.066s0.837,0.645,1.422,0.645c0.47,0,0.861-0.144,1.176-0.432
				S79.449,99.284,79.533,98.686z"/>
			<path d="M84.344,100.201l0.173,1.056c-0.336,0.071-0.638,0.106-0.903,0.106c-0.435,0-0.771-0.068-1.01-0.206
				c-0.239-0.137-0.408-0.317-0.505-0.541c-0.098-0.224-0.146-0.694-0.146-1.412v-4.06h-0.877v-0.931h0.877v-1.747l1.189-0.718
				v2.465h1.202v0.931h-1.202v4.126c0,0.341,0.021,0.561,0.063,0.658s0.11,0.175,0.205,0.232c0.096,0.058,0.231,0.086,0.409,0.086
				C83.952,100.247,84.127,100.231,84.344,100.201z"/>
			<path d="M85.068,97.742c0-1.307,0.363-2.274,1.089-2.903c0.607-0.522,1.347-0.784,2.22-0.784c0.97,0,1.763,0.318,2.379,0.953
				c0.615,0.636,0.923,1.515,0.923,2.635c0,0.908-0.136,1.622-0.408,2.143s-0.669,0.925-1.189,1.213s-1.089,0.432-1.704,0.432
				c-0.988,0-1.786-0.316-2.396-0.95C85.372,99.847,85.068,98.934,85.068,97.742z M86.297,97.742c0,0.904,0.197,1.58,0.592,2.03
				c0.395,0.449,0.891,0.674,1.488,0.674c0.594,0,1.087-0.226,1.481-0.678c0.395-0.451,0.592-1.141,0.592-2.066
				c0-0.872-0.198-1.533-0.595-1.983c-0.396-0.449-0.89-0.674-1.479-0.674c-0.598,0-1.094,0.224-1.488,0.671
				S86.297,96.839,86.297,97.742z"/>
			<path d="M93.067,101.27v-7.057h1.076v1.07c0.274-0.501,0.528-0.831,0.761-0.99s0.488-0.239,0.768-0.239
				c0.403,0,0.813,0.129,1.229,0.386l-0.412,1.109c-0.293-0.173-0.585-0.259-0.877-0.259c-0.262,0-0.496,0.078-0.704,0.235
				c-0.209,0.157-0.357,0.376-0.445,0.654c-0.133,0.426-0.199,0.891-0.199,1.396v3.694L93.067,101.27L93.067,101.27z"/>
		</g>
	</g>
	<g>
		<g>
			<path d="M138.51,155.857v-9.74h4.319c0.868,0,1.528,0.087,1.979,0.262c0.452,0.176,0.813,0.484,1.083,0.928
				c0.271,0.442,0.405,0.932,0.405,1.468c0,0.691-0.224,1.273-0.671,1.748c-0.447,0.474-1.139,0.774-2.073,0.903
				c0.342,0.164,0.601,0.325,0.777,0.485c0.377,0.345,0.733,0.777,1.07,1.295l1.694,2.651h-1.621l-1.289-2.026
				c-0.377-0.585-0.687-1.032-0.931-1.342c-0.243-0.311-0.462-0.527-0.654-0.651s-0.389-0.211-0.588-0.26
				c-0.146-0.03-0.386-0.046-0.718-0.046h-1.495v4.325L138.51,155.857L138.51,155.857z M139.799,150.416h2.771
				c0.59,0,1.05-0.062,1.383-0.183c0.332-0.122,0.584-0.317,0.757-0.585s0.26-0.56,0.26-0.874c0-0.46-0.168-0.839-0.502-1.136
				c-0.335-0.297-0.862-0.445-1.585-0.445H139.8L139.799,150.416L139.799,150.416z"/>
			<path d="M152.995,153.585l1.235,0.153c-0.194,0.722-0.556,1.282-1.083,1.681s-1.2,0.598-2.02,0.598
				c-1.032,0-1.851-0.317-2.455-0.953s-0.907-1.527-0.907-2.675c0-1.187,0.306-2.108,0.917-2.764s1.404-0.983,2.379-0.983
				c0.943,0,1.714,0.321,2.313,0.964c0.598,0.642,0.896,1.546,0.896,2.711c0,0.07-0.002,0.177-0.007,0.318h-5.262
				c0.044,0.775,0.264,1.369,0.657,1.781c0.395,0.411,0.886,0.617,1.476,0.617c0.438,0,0.813-0.115,1.123-0.345
				C152.567,154.458,152.813,154.09,152.995,153.585z M149.068,151.651h3.939c-0.053-0.594-0.203-1.038-0.451-1.335
				c-0.381-0.461-0.875-0.691-1.481-0.691c-0.55,0-1.012,0.184-1.386,0.552C149.315,150.544,149.108,151.036,149.068,151.651z"/>
			<path d="M155.513,156.442l1.163,0.173c0.048,0.358,0.184,0.62,0.405,0.783c0.296,0.222,0.702,0.333,1.216,0.333
				c0.554,0,0.98-0.111,1.282-0.333c0.301-0.221,0.505-0.531,0.611-0.93c0.062-0.244,0.091-0.755,0.086-1.535
				c-0.522,0.616-1.174,0.924-1.953,0.924c-0.97,0-1.721-0.35-2.253-1.05c-0.531-0.7-0.797-1.539-0.797-2.519
				c0-0.673,0.122-1.294,0.365-1.863c0.244-0.569,0.597-1.009,1.06-1.319s1.007-0.465,1.632-0.465c0.832,0,1.519,0.337,2.06,1.01
				V148.8h1.103v6.1c0,1.099-0.111,1.877-0.335,2.336c-0.224,0.458-0.578,0.82-1.063,1.086s-1.082,0.398-1.79,0.398
				c-0.842,0-1.522-0.188-2.04-0.567C155.745,157.774,155.495,157.204,155.513,156.442z M156.503,152.203
				c0,0.926,0.184,1.602,0.551,2.026c0.368,0.426,0.829,0.638,1.383,0.638c0.549,0,1.01-0.211,1.382-0.635
				c0.372-0.423,0.558-1.086,0.558-1.989c0-0.864-0.191-1.515-0.574-1.954c-0.384-0.438-0.845-0.657-1.386-0.657
				c-0.531,0-0.983,0.216-1.355,0.647C156.688,150.712,156.503,151.353,156.503,152.203z"/>
			<path d="M163.272,155.857v-9.74h1.196v9.74H163.272z"/>
			<path d="M170.927,154.987c-0.442,0.376-0.869,0.642-1.278,0.797c-0.41,0.155-0.85,0.232-1.319,0.232
				c-0.775,0-1.371-0.189-1.787-0.567c-0.416-0.379-0.625-0.863-0.625-1.452c0-0.346,0.079-0.661,0.236-0.947
				c0.157-0.285,0.363-0.515,0.618-0.688s0.541-0.303,0.86-0.392c0.234-0.063,0.589-0.122,1.063-0.18
				c0.966-0.115,1.677-0.252,2.133-0.412c0.005-0.163,0.007-0.268,0.007-0.312c0-0.487-0.112-0.831-0.339-1.03
				c-0.306-0.271-0.76-0.405-1.362-0.405c-0.563,0-0.978,0.099-1.245,0.296c-0.269,0.197-0.467,0.546-0.595,1.046l-1.17-0.159
				c0.106-0.501,0.281-0.904,0.525-1.213c0.243-0.308,0.596-0.545,1.057-0.711c0.46-0.166,0.994-0.249,1.601-0.249
				c0.603,0,1.092,0.071,1.469,0.213c0.376,0.142,0.653,0.32,0.83,0.535c0.178,0.215,0.302,0.485,0.372,0.813
				c0.04,0.204,0.061,0.571,0.061,1.103v1.595c0,1.112,0.025,1.815,0.076,2.11c0.051,0.294,0.151,0.576,0.303,0.847h-1.25
				C171.042,155.609,170.963,155.319,170.927,154.987z M170.827,152.316c-0.434,0.177-1.085,0.327-1.953,0.451
				c-0.491,0.071-0.839,0.151-1.043,0.239c-0.204,0.089-0.361,0.219-0.472,0.389c-0.111,0.171-0.166,0.36-0.166,0.568
				c0,0.319,0.12,0.585,0.362,0.797c0.241,0.213,0.595,0.319,1.06,0.319c0.46,0,0.87-0.101,1.229-0.303
				c0.359-0.201,0.623-0.477,0.791-0.827c0.129-0.27,0.192-0.669,0.192-1.195V152.316z"/>
			<path d="M173.412,153.751l1.183-0.186c0.066,0.474,0.251,0.837,0.555,1.09c0.303,0.252,0.728,0.378,1.272,0.378
				c0.549,0,0.956-0.111,1.223-0.335c0.266-0.224,0.398-0.486,0.398-0.787c0-0.271-0.117-0.483-0.353-0.639
				c-0.164-0.106-0.571-0.241-1.223-0.405c-0.877-0.221-1.484-0.413-1.823-0.574c-0.339-0.162-0.596-0.386-0.771-0.671
				c-0.175-0.286-0.262-0.602-0.262-0.947c0-0.314,0.071-0.605,0.216-0.874c0.144-0.268,0.34-0.49,0.588-0.667
				c0.187-0.138,0.439-0.254,0.761-0.35c0.321-0.095,0.665-0.143,1.033-0.143c0.554,0,1.04,0.08,1.458,0.239
				c0.419,0.159,0.728,0.375,0.928,0.647c0.199,0.272,0.336,0.638,0.411,1.094l-1.169,0.159c-0.054-0.363-0.207-0.646-0.462-0.851
				s-0.614-0.306-1.08-0.306c-0.549,0-0.94,0.091-1.176,0.272c-0.234,0.182-0.352,0.395-0.352,0.638
				c0,0.155,0.048,0.295,0.146,0.419c0.098,0.128,0.25,0.234,0.459,0.318c0.119,0.045,0.472,0.146,1.057,0.306
				c0.846,0.227,1.436,0.411,1.771,0.556c0.334,0.144,0.597,0.353,0.787,0.627c0.19,0.275,0.286,0.616,0.286,1.023
				c0,0.398-0.117,0.774-0.35,1.126c-0.232,0.353-0.567,0.625-1.006,0.817c-0.438,0.193-0.936,0.289-1.488,0.289
				c-0.917,0-1.616-0.19-2.097-0.571S173.545,154.5,173.412,153.751z"/>
			<path d="M191.577,152.442l1.289,0.325c-0.271,1.059-0.757,1.866-1.459,2.422c-0.702,0.557-1.561,0.834-2.574,0.834
				c-1.05,0-1.904-0.214-2.562-0.641c-0.658-0.428-1.158-1.047-1.502-1.857c-0.343-0.811-0.515-1.681-0.515-2.611
				c0-1.015,0.193-1.899,0.581-2.654s0.939-1.329,1.654-1.721c0.716-0.393,1.503-0.588,2.362-0.588c0.975,0,1.794,0.248,2.459,0.744
				c0.664,0.496,1.127,1.193,1.389,2.093l-1.27,0.299c-0.226-0.709-0.554-1.225-0.983-1.548s-0.97-0.485-1.621-0.485
				c-0.749,0-1.374,0.18-1.877,0.538c-0.503,0.359-0.856,0.841-1.06,1.445s-0.306,1.229-0.306,1.87c0,0.828,0.12,1.552,0.362,2.17
				c0.241,0.617,0.616,1.079,1.126,1.385c0.509,0.306,1.061,0.459,1.654,0.459c0.722,0,1.333-0.208,1.834-0.625
				C191.061,153.88,191.399,153.262,191.577,152.442z"/>
			<path d="M194.016,152.728l1.216-0.105c0.058,0.487,0.191,0.887,0.402,1.199c0.21,0.312,0.537,0.564,0.979,0.757
				c0.443,0.193,0.941,0.289,1.495,0.289c0.492,0,0.926-0.073,1.303-0.219c0.376-0.146,0.656-0.347,0.84-0.602
				s0.276-0.532,0.276-0.834c0-0.306-0.089-0.572-0.267-0.801c-0.177-0.228-0.469-0.419-0.877-0.574
				c-0.261-0.103-0.839-0.261-1.733-0.476c-0.896-0.215-1.521-0.417-1.881-0.607c-0.465-0.244-0.812-0.546-1.04-0.907
				s-0.342-0.765-0.342-1.213c0-0.491,0.14-0.951,0.419-1.378c0.278-0.428,0.687-0.752,1.222-0.974
				c0.536-0.222,1.132-0.332,1.788-0.332c0.722,0,1.358,0.116,1.91,0.349c0.551,0.232,0.976,0.574,1.272,1.026
				s0.456,0.964,0.479,1.535l-1.236,0.093c-0.066-0.615-0.291-1.081-0.675-1.396c-0.383-0.314-0.948-0.472-1.697-0.472
				c-0.779,0-1.348,0.143-1.704,0.429c-0.356,0.285-0.535,0.63-0.535,1.033c0,0.35,0.127,0.638,0.379,0.863
				c0.248,0.227,0.896,0.458,1.943,0.694c1.048,0.237,1.767,0.444,2.156,0.622c0.567,0.261,0.985,0.592,1.256,0.993
				c0.27,0.4,0.405,0.862,0.405,1.385c0,0.519-0.148,1.007-0.445,1.465c-0.297,0.459-0.723,0.815-1.279,1.07
				s-1.182,0.382-1.877,0.382c-0.881,0-1.62-0.129-2.216-0.386s-1.063-0.643-1.401-1.159
				C194.212,153.963,194.033,153.379,194.016,152.728z"/>
			<path d="M203.092,152.728l1.216-0.105c0.058,0.487,0.191,0.887,0.402,1.199c0.21,0.312,0.537,0.564,0.979,0.757
				c0.443,0.193,0.941,0.289,1.495,0.289c0.492,0,0.926-0.073,1.303-0.219c0.376-0.146,0.656-0.347,0.84-0.602
				s0.276-0.532,0.276-0.834c0-0.306-0.089-0.572-0.267-0.801c-0.177-0.228-0.469-0.419-0.877-0.574
				c-0.261-0.103-0.839-0.261-1.733-0.476c-0.896-0.215-1.521-0.417-1.881-0.607c-0.465-0.244-0.812-0.546-1.04-0.907
				s-0.342-0.765-0.342-1.213c0-0.491,0.14-0.951,0.419-1.378c0.278-0.428,0.687-0.752,1.222-0.974
				c0.536-0.222,1.132-0.332,1.788-0.332c0.722,0,1.358,0.116,1.91,0.349c0.551,0.232,0.976,0.574,1.272,1.026
				s0.456,0.964,0.479,1.535l-1.236,0.093c-0.066-0.615-0.291-1.081-0.675-1.396c-0.383-0.314-0.948-0.472-1.697-0.472
				c-0.779,0-1.348,0.143-1.704,0.429c-0.356,0.285-0.535,0.63-0.535,1.033c0,0.35,0.127,0.638,0.379,0.863
				c0.248,0.227,0.896,0.458,1.943,0.694c1.048,0.237,1.767,0.444,2.156,0.622c0.567,0.261,0.985,0.592,1.256,0.993
				c0.27,0.4,0.405,0.862,0.405,1.385c0,0.519-0.148,1.007-0.445,1.465c-0.297,0.459-0.723,0.815-1.279,1.07
				s-1.182,0.382-1.877,0.382c-0.881,0-1.62-0.129-2.216-0.386s-1.063-0.643-1.401-1.159
				C203.288,153.963,203.109,153.379,203.092,152.728z"/>
		</g>
	</g>
	<g>
		<g>
			<path d="M231.407,101.27v-9.74h3.355c0.758,0,1.335,0.046,1.734,0.14c0.558,0.128,1.034,0.36,1.428,0.697
				c0.515,0.435,0.898,0.989,1.153,1.664c0.255,0.676,0.382,1.447,0.382,2.315c0,0.74-0.086,1.396-0.259,1.967
				s-0.395,1.045-0.665,1.419c-0.27,0.374-0.565,0.669-0.887,0.884s-0.709,0.378-1.163,0.488s-0.976,0.166-1.564,0.166
				C234.921,101.27,231.407,101.27,231.407,101.27z M232.696,100.121h2.079c0.643,0,1.146-0.06,1.512-0.18
				c0.366-0.119,0.657-0.288,0.874-0.505c0.306-0.306,0.544-0.716,0.714-1.232c0.171-0.516,0.256-1.142,0.256-1.877
				c0-1.019-0.167-1.802-0.501-2.349c-0.335-0.547-0.741-0.914-1.22-1.1c-0.346-0.133-0.901-0.199-1.668-0.199h-2.046
				L232.696,100.121L232.696,100.121z"/>
			<path d="M245.912,98.998l1.235,0.153c-0.194,0.722-0.556,1.282-1.083,1.681s-1.2,0.598-2.02,0.598
				c-1.032,0-1.851-0.317-2.455-0.953s-0.907-1.527-0.907-2.675c0-1.187,0.306-2.108,0.917-2.764s1.404-0.983,2.379-0.983
				c0.943,0,1.714,0.321,2.313,0.964c0.598,0.642,0.896,1.546,0.896,2.711c0,0.07-0.002,0.177-0.007,0.318h-5.262
				c0.044,0.775,0.264,1.369,0.657,1.781c0.395,0.411,0.886,0.617,1.476,0.617c0.438,0,0.813-0.115,1.123-0.345
				C245.484,99.871,245.73,99.503,245.912,98.998z M241.985,97.064h3.939c-0.053-0.594-0.203-1.038-0.451-1.335
				c-0.381-0.461-0.875-0.691-1.481-0.691c-0.55,0-1.012,0.184-1.386,0.552C242.232,95.957,242.025,96.449,241.985,97.064z"/>
			<path d="M253.253,98.686l1.177,0.153c-0.129,0.811-0.458,1.445-0.987,1.903c-0.529,0.459-1.179,0.688-1.949,0.688
				c-0.966,0-1.742-0.315-2.329-0.946c-0.587-0.632-0.881-1.536-0.881-2.715c0-0.762,0.127-1.428,0.379-1.999
				c0.253-0.572,0.637-1,1.153-1.286s1.077-0.429,1.684-0.429c0.767,0,1.394,0.194,1.881,0.581c0.487,0.388,0.799,0.938,0.937,1.651
				l-1.163,0.18c-0.11-0.474-0.307-0.831-0.588-1.07c-0.281-0.238-0.621-0.358-1.02-0.358c-0.603,0-1.092,0.216-1.469,0.647
				c-0.376,0.433-0.564,1.115-0.564,2.05c0,0.948,0.182,1.637,0.545,2.066s0.837,0.645,1.422,0.645c0.47,0,0.861-0.144,1.176-0.432
				S253.169,99.284,253.253,98.686z"/>
			<path d="M256.229,101.27v-9.74h1.196v9.74H256.229z"/>
			<path d="M263.884,100.4c-0.442,0.376-0.869,0.642-1.278,0.797c-0.41,0.155-0.85,0.232-1.319,0.232
				c-0.775,0-1.371-0.189-1.787-0.567c-0.416-0.379-0.625-0.863-0.625-1.452c0-0.346,0.079-0.661,0.236-0.947
				c0.157-0.285,0.363-0.515,0.618-0.688s0.541-0.303,0.86-0.392c0.234-0.063,0.589-0.122,1.063-0.18
				c0.966-0.115,1.677-0.252,2.133-0.412c0.005-0.163,0.007-0.268,0.007-0.312c0-0.487-0.112-0.831-0.339-1.03
				c-0.306-0.271-0.76-0.405-1.362-0.405c-0.563,0-0.978,0.099-1.245,0.296c-0.269,0.197-0.467,0.546-0.595,1.046l-1.17-0.159
				c0.106-0.501,0.281-0.904,0.525-1.213c0.243-0.308,0.596-0.545,1.057-0.711c0.46-0.166,0.994-0.249,1.601-0.249
				c0.603,0,1.092,0.071,1.469,0.213c0.376,0.142,0.653,0.32,0.83,0.535c0.178,0.215,0.302,0.485,0.372,0.813
				c0.04,0.204,0.061,0.571,0.061,1.103v1.595c0,1.112,0.025,1.815,0.076,2.11c0.051,0.294,0.151,0.576,0.303,0.847h-1.25
				C263.999,101.022,263.92,100.732,263.884,100.4z M263.784,97.729c-0.434,0.177-1.085,0.327-1.953,0.451
				c-0.491,0.071-0.839,0.151-1.043,0.239c-0.204,0.089-0.361,0.219-0.472,0.389c-0.111,0.171-0.166,0.36-0.166,0.568
				c0,0.319,0.12,0.585,0.362,0.797c0.241,0.213,0.595,0.319,1.06,0.319c0.46,0,0.87-0.101,1.229-0.303
				c0.359-0.201,0.623-0.477,0.791-0.827c0.129-0.27,0.192-0.669,0.192-1.195V97.729z"/>
			<path d="M266.834,101.27v-7.057h1.076v1.07c0.274-0.501,0.528-0.831,0.761-0.99s0.488-0.239,0.768-0.239
				c0.403,0,0.813,0.129,1.229,0.386l-0.412,1.109c-0.293-0.173-0.585-0.259-0.877-0.259c-0.262,0-0.496,0.078-0.704,0.235
				c-0.209,0.157-0.357,0.376-0.445,0.654c-0.133,0.426-0.199,0.891-0.199,1.396v3.694L266.834,101.27L266.834,101.27z"/>
			<path d="M275.982,100.4c-0.442,0.376-0.869,0.642-1.278,0.797c-0.41,0.155-0.85,0.232-1.319,0.232
				c-0.775,0-1.371-0.189-1.787-0.567c-0.416-0.379-0.625-0.863-0.625-1.452c0-0.346,0.079-0.661,0.236-0.947
				c0.157-0.285,0.363-0.515,0.618-0.688s0.541-0.303,0.86-0.392c0.234-0.063,0.589-0.122,1.063-0.18
				c0.966-0.115,1.677-0.252,2.133-0.412c0.005-0.163,0.007-0.268,0.007-0.312c0-0.487-0.112-0.831-0.339-1.03
				c-0.306-0.271-0.76-0.405-1.362-0.405c-0.563,0-0.978,0.099-1.245,0.296c-0.269,0.197-0.467,0.546-0.595,1.046l-1.17-0.159
				c0.106-0.501,0.281-0.904,0.525-1.213c0.243-0.308,0.596-0.545,1.057-0.711c0.46-0.166,0.994-0.249,1.601-0.249
				c0.603,0,1.092,0.071,1.469,0.213c0.376,0.142,0.653,0.32,0.83,0.535c0.178,0.215,0.302,0.485,0.372,0.813
				c0.04,0.204,0.061,0.571,0.061,1.103v1.595c0,1.112,0.025,1.815,0.076,2.11c0.051,0.294,0.151,0.576,0.303,0.847h-1.25
				C276.098,101.022,276.019,100.732,275.982,100.4z M275.883,97.729c-0.434,0.177-1.085,0.327-1.953,0.451
				c-0.491,0.071-0.839,0.151-1.043,0.239c-0.204,0.089-0.361,0.219-0.472,0.389c-0.111,0.171-0.166,0.36-0.166,0.568
				c0,0.319,0.12,0.585,0.362,0.797c0.241,0.213,0.595,0.319,1.06,0.319c0.46,0,0.87-0.101,1.229-0.303
				c0.359-0.201,0.623-0.477,0.791-0.827c0.129-0.27,0.192-0.669,0.192-1.195V97.729z"/>
			<path d="M283.55,98.686l1.177,0.153c-0.129,0.811-0.458,1.445-0.987,1.903c-0.529,0.459-1.179,0.688-1.949,0.688
				c-0.966,0-1.742-0.315-2.329-0.946c-0.587-0.632-0.881-1.536-0.881-2.715c0-0.762,0.127-1.428,0.379-1.999
				c0.253-0.572,0.637-1,1.153-1.286c0.516-0.286,1.077-0.429,1.684-0.429c0.767,0,1.394,0.194,1.881,0.581
				c0.487,0.388,0.799,0.938,0.937,1.651l-1.163,0.18c-0.11-0.474-0.307-0.831-0.588-1.07c-0.281-0.238-0.621-0.358-1.02-0.358
				c-0.603,0-1.092,0.216-1.469,0.647c-0.376,0.433-0.564,1.115-0.564,2.05c0,0.948,0.182,1.637,0.545,2.066
				s0.837,0.645,1.422,0.645c0.47,0,0.861-0.144,1.176-0.432S283.466,99.284,283.55,98.686z"/>
			<path d="M285.756,92.905V91.53h1.196v1.375H285.756z M285.756,101.27v-7.057h1.196v7.057H285.756z"/>
			<path d="M288.328,97.742c0-1.307,0.363-2.274,1.089-2.903c0.607-0.522,1.347-0.784,2.22-0.784c0.97,0,1.763,0.318,2.379,0.953
				c0.615,0.636,0.923,1.515,0.923,2.635c0,0.908-0.136,1.622-0.408,2.143s-0.669,0.925-1.189,1.213s-1.089,0.432-1.704,0.432
				c-0.988,0-1.786-0.316-2.396-0.95C288.632,99.847,288.328,98.934,288.328,97.742z M289.557,97.742c0,0.904,0.197,1.58,0.592,2.03
				c0.395,0.449,0.891,0.674,1.488,0.674c0.594,0,1.087-0.226,1.481-0.678c0.395-0.451,0.592-1.141,0.592-2.066
				c0-0.872-0.198-1.533-0.595-1.983c-0.396-0.449-0.89-0.674-1.479-0.674c-0.598,0-1.094,0.224-1.488,0.671
				S289.557,96.839,289.557,97.742z M290.973,93.337l0.883-1.86h1.568l-1.462,1.86H290.973z"/>
			<path d="M296.341,101.27v-7.057h1.076v1.004c0.518-0.775,1.267-1.163,2.245-1.163c0.426,0,0.816,0.076,1.173,0.229
				c0.356,0.152,0.624,0.354,0.801,0.602s0.301,0.542,0.372,0.884c0.044,0.221,0.066,0.608,0.066,1.162v4.339h-1.196v-4.292
				c0-0.487-0.046-0.852-0.139-1.093c-0.094-0.242-0.259-0.435-0.495-0.578c-0.237-0.145-0.516-0.216-0.834-0.216
				c-0.51,0-0.949,0.161-1.319,0.484c-0.369,0.323-0.555,0.938-0.555,1.841v3.854C297.536,101.27,296.341,101.27,296.341,101.27z"/>
		</g>
	</g>
	<g>
		<g>
			<path d="M190.904,14.619l1.216-0.105c0.058,0.487,0.191,0.887,0.402,1.199c0.21,0.312,0.537,0.564,0.979,0.757
				c0.443,0.193,0.941,0.289,1.495,0.289c0.492,0,0.926-0.073,1.303-0.219c0.376-0.146,0.656-0.347,0.84-0.602
				c0.184-0.255,0.276-0.532,0.276-0.834c0-0.306-0.089-0.572-0.267-0.801c-0.177-0.228-0.469-0.419-0.877-0.574
				c-0.261-0.103-0.839-0.261-1.733-0.476c-0.896-0.215-1.521-0.417-1.881-0.607c-0.465-0.244-0.812-0.546-1.04-0.907
				c-0.228-0.361-0.342-0.765-0.342-1.213c0-0.491,0.14-0.951,0.419-1.378c0.278-0.428,0.687-0.752,1.222-0.974
				c0.536-0.222,1.132-0.332,1.788-0.332c0.722,0,1.358,0.116,1.91,0.349c0.551,0.232,0.976,0.574,1.272,1.026
				s0.456,0.964,0.479,1.535l-1.236,0.093c-0.066-0.615-0.291-1.081-0.675-1.396c-0.383-0.314-0.948-0.472-1.697-0.472
				c-0.779,0-1.348,0.143-1.704,0.429c-0.356,0.285-0.535,0.63-0.535,1.033c0,0.35,0.127,0.638,0.379,0.863
				c0.248,0.227,0.896,0.458,1.943,0.694c1.048,0.237,1.767,0.444,2.156,0.622c0.567,0.261,0.985,0.592,1.256,0.993
				c0.27,0.4,0.405,0.862,0.405,1.385c0,0.519-0.148,1.007-0.445,1.465c-0.297,0.459-0.723,0.815-1.279,1.07
				s-1.182,0.382-1.877,0.382c-0.881,0-1.62-0.129-2.216-0.386s-1.063-0.643-1.401-1.159
				C191.101,15.854,190.922,15.27,190.904,14.619z"/>
			<path d="M205.097,15.477l1.235,0.153c-0.194,0.722-0.556,1.282-1.083,1.681s-1.2,0.598-2.02,0.598
				c-1.032,0-1.851-0.317-2.455-0.953s-0.907-1.527-0.907-2.675c0-1.187,0.306-2.108,0.917-2.764s1.404-0.983,2.379-0.983
				c0.943,0,1.714,0.321,2.313,0.964c0.598,0.642,0.896,1.546,0.896,2.711c0,0.07-0.002,0.177-0.007,0.318h-5.262
				c0.044,0.775,0.264,1.369,0.657,1.781c0.395,0.411,0.886,0.617,1.476,0.617c0.438,0,0.813-0.115,1.123-0.345
				C204.669,16.35,204.915,15.981,205.097,15.477z M201.17,13.543h3.939c-0.053-0.594-0.203-1.038-0.451-1.335
				c-0.381-0.461-0.875-0.691-1.481-0.691c-0.55,0-1.012,0.184-1.386,0.552C201.417,12.436,201.21,12.928,201.17,13.543z"/>
			<path d="M207.834,20.453v-9.761h1.089v0.917c0.257-0.358,0.547-0.628,0.871-0.807c0.323-0.18,0.715-0.27,1.176-0.27
				c0.603,0,1.134,0.155,1.595,0.465c0.46,0.311,0.808,0.748,1.043,1.313c0.234,0.564,0.353,1.184,0.353,1.857
				c0,0.722-0.13,1.372-0.389,1.95c-0.26,0.578-0.636,1.021-1.13,1.328c-0.494,0.309-1.014,0.462-1.559,0.462
				c-0.398,0-0.756-0.084-1.072-0.252c-0.317-0.169-0.577-0.381-0.781-0.638v3.435h-1.196V20.453z M208.917,14.261
				c0,0.908,0.184,1.579,0.551,2.014c0.368,0.434,0.813,0.65,1.336,0.65c0.531,0,0.986-0.225,1.365-0.674
				c0.379-0.45,0.568-1.146,0.568-2.09c0-0.899-0.186-1.572-0.555-2.02c-0.37-0.447-0.813-0.672-1.326-0.672
				c-0.509,0-0.96,0.238-1.352,0.715C209.112,12.661,208.917,13.353,208.917,14.261z"/>
			<path d="M220.005,16.879c-0.442,0.376-0.869,0.642-1.278,0.797c-0.41,0.155-0.85,0.232-1.319,0.232
				c-0.775,0-1.371-0.189-1.787-0.567c-0.416-0.379-0.625-0.863-0.625-1.452c0-0.346,0.079-0.661,0.236-0.947
				c0.157-0.285,0.363-0.515,0.618-0.688s0.541-0.303,0.86-0.392c0.234-0.063,0.589-0.122,1.063-0.18
				c0.966-0.115,1.677-0.252,2.133-0.412c0.005-0.163,0.007-0.268,0.007-0.312c0-0.487-0.112-0.831-0.339-1.03
				c-0.306-0.271-0.76-0.405-1.362-0.405c-0.563,0-0.978,0.099-1.245,0.296c-0.269,0.197-0.467,0.546-0.595,1.046l-1.17-0.159
				c0.106-0.501,0.281-0.904,0.525-1.213c0.243-0.308,0.596-0.545,1.057-0.711c0.46-0.166,0.994-0.249,1.601-0.249
				c0.603,0,1.092,0.071,1.469,0.213c0.376,0.142,0.653,0.32,0.83,0.535c0.178,0.215,0.302,0.485,0.372,0.813
				c0.04,0.204,0.061,0.571,0.061,1.103v1.595c0,1.112,0.025,1.815,0.076,2.11c0.051,0.294,0.151,0.576,0.303,0.847h-1.25
				C220.12,17.501,220.041,17.211,220.005,16.879z M219.905,14.208c-0.434,0.177-1.085,0.327-1.953,0.451
				c-0.491,0.071-0.839,0.151-1.043,0.239c-0.204,0.089-0.361,0.219-0.472,0.389c-0.111,0.171-0.166,0.36-0.166,0.568
				c0,0.319,0.12,0.585,0.362,0.797c0.241,0.213,0.595,0.319,1.06,0.319c0.46,0,0.87-0.101,1.229-0.303
				c0.359-0.201,0.623-0.477,0.791-0.827c0.129-0.27,0.192-0.669,0.192-1.195V14.208z"/>
			<path d="M222.955,17.749v-7.057h1.076v1.07c0.274-0.501,0.528-0.831,0.761-0.99s0.488-0.239,0.768-0.239
				c0.403,0,0.813,0.129,1.229,0.386l-0.412,1.109c-0.293-0.173-0.585-0.259-0.877-0.259c-0.262,0-0.496,0.078-0.704,0.235
				c-0.209,0.157-0.357,0.376-0.445,0.654c-0.133,0.426-0.199,0.891-0.199,1.396v3.694h-1.197V17.749z"/>
			<path d="M232.103,16.879c-0.442,0.376-0.869,0.642-1.278,0.797c-0.41,0.155-0.85,0.232-1.319,0.232
				c-0.775,0-1.371-0.189-1.787-0.567c-0.416-0.379-0.625-0.863-0.625-1.452c0-0.346,0.079-0.661,0.236-0.947
				c0.157-0.285,0.363-0.515,0.618-0.688s0.541-0.303,0.86-0.392c0.234-0.063,0.589-0.122,1.063-0.18
				c0.966-0.115,1.677-0.252,2.133-0.412c0.005-0.163,0.007-0.268,0.007-0.312c0-0.487-0.112-0.831-0.339-1.03
				c-0.306-0.271-0.76-0.405-1.362-0.405c-0.563,0-0.978,0.099-1.245,0.296c-0.269,0.197-0.467,0.546-0.595,1.046l-1.17-0.159
				c0.106-0.501,0.281-0.904,0.525-1.213c0.243-0.308,0.596-0.545,1.057-0.711c0.46-0.166,0.994-0.249,1.601-0.249
				c0.603,0,1.092,0.071,1.469,0.213c0.376,0.142,0.653,0.32,0.83,0.535c0.178,0.215,0.302,0.485,0.372,0.813
				c0.04,0.204,0.061,0.571,0.061,1.103v1.595c0,1.112,0.025,1.815,0.076,2.11c0.051,0.294,0.151,0.576,0.303,0.847h-1.25
				C232.219,17.501,232.14,17.211,232.103,16.879z M232.004,14.208c-0.434,0.177-1.085,0.327-1.953,0.451
				c-0.491,0.071-0.839,0.151-1.043,0.239c-0.204,0.089-0.361,0.219-0.472,0.389c-0.111,0.171-0.166,0.36-0.166,0.568
				c0,0.319,0.12,0.585,0.362,0.797c0.241,0.213,0.595,0.319,1.06,0.319c0.46,0,0.87-0.101,1.229-0.303
				c0.359-0.201,0.623-0.477,0.791-0.827c0.129-0.27,0.192-0.669,0.192-1.195V14.208z"/>
			<path d="M239.671,15.164l1.177,0.153c-0.129,0.811-0.458,1.445-0.987,1.903c-0.529,0.459-1.179,0.688-1.949,0.688
				c-0.966,0-1.742-0.315-2.329-0.946c-0.587-0.632-0.881-1.536-0.881-2.715c0-0.762,0.127-1.428,0.379-1.999
				c0.253-0.572,0.637-1,1.153-1.286s1.077-0.429,1.684-0.429c0.767,0,1.394,0.194,1.881,0.581c0.487,0.388,0.799,0.938,0.937,1.651
				l-1.163,0.18c-0.11-0.474-0.307-0.831-0.588-1.07c-0.281-0.238-0.621-0.358-1.02-0.358c-0.603,0-1.092,0.216-1.469,0.647
				c-0.376,0.433-0.564,1.115-0.564,2.05c0,0.948,0.182,1.637,0.545,2.066c0.363,0.43,0.837,0.645,1.422,0.645
				c0.47,0,0.861-0.144,1.176-0.432S239.587,15.763,239.671,15.164z"/>
			<path d="M241.877,9.384V8.009h1.196v1.375H241.877z M241.877,17.749v-7.057h1.196v7.057H241.877z"/>
			<path d="M244.449,14.221c0-1.307,0.363-2.274,1.089-2.903c0.607-0.522,1.347-0.784,2.22-0.784c0.97,0,1.763,0.318,2.379,0.953
				c0.615,0.636,0.923,1.515,0.923,2.635c0,0.908-0.136,1.622-0.408,2.143s-0.669,0.925-1.189,1.213s-1.089,0.432-1.704,0.432
				c-0.988,0-1.786-0.316-2.396-0.95C244.753,16.325,244.449,15.412,244.449,14.221z M245.678,14.221c0,0.904,0.197,1.58,0.592,2.03
				c0.395,0.449,0.891,0.674,1.488,0.674c0.594,0,1.087-0.226,1.481-0.678c0.395-0.451,0.592-1.141,0.592-2.066
				c0-0.872-0.198-1.533-0.595-1.983c-0.396-0.449-0.89-0.674-1.479-0.674c-0.598,0-1.094,0.224-1.488,0.671
				S245.678,13.317,245.678,14.221z M247.094,9.815l0.883-1.86h1.568l-1.462,1.86H247.094z"/>
			<path d="M252.462,17.749v-7.057h1.076v1.004c0.518-0.775,1.267-1.163,2.245-1.163c0.426,0,0.816,0.076,1.173,0.229
				c0.356,0.152,0.624,0.354,0.801,0.602s0.301,0.542,0.372,0.884c0.044,0.221,0.066,0.608,0.066,1.162v4.339h-1.196v-4.292
				c0-0.487-0.046-0.852-0.139-1.093c-0.094-0.242-0.259-0.435-0.495-0.578c-0.237-0.145-0.516-0.216-0.834-0.216
				c-0.51,0-0.949,0.161-1.319,0.484c-0.369,0.323-0.555,0.938-0.555,1.841v3.854H252.462z"/>
			<path d="M268.387,17.749v-0.891c-0.447,0.7-1.104,1.05-1.973,1.05c-0.563,0-1.08-0.155-1.552-0.465s-0.837-0.743-1.097-1.299
				c-0.259-0.556-0.389-1.195-0.389-1.917c0-0.704,0.117-1.343,0.353-1.917c0.234-0.573,0.587-1.013,1.057-1.318
				c0.469-0.306,0.994-0.459,1.574-0.459c0.426,0,0.804,0.09,1.137,0.27c0.332,0.179,0.602,0.413,0.811,0.7V8.009h1.189v9.74
				H268.387z M264.606,14.228c0,0.903,0.19,1.579,0.571,2.026s0.831,0.671,1.349,0.671c0.522,0,0.967-0.213,1.332-0.641
				c0.366-0.428,0.549-1.08,0.549-1.957c0-0.966-0.187-1.674-0.559-2.126s-0.83-0.678-1.375-0.678c-0.531,0-0.976,0.217-1.332,0.651
				C264.784,12.608,264.606,13.293,264.606,14.228z"/>
			<path d="M276.207,15.477l1.235,0.153c-0.194,0.722-0.556,1.282-1.083,1.681s-1.2,0.598-2.02,0.598
				c-1.032,0-1.851-0.317-2.455-0.953s-0.907-1.527-0.907-2.675c0-1.187,0.306-2.108,0.917-2.764s1.404-0.983,2.379-0.983
				c0.943,0,1.714,0.321,2.313,0.964c0.598,0.642,0.896,1.546,0.896,2.711c0,0.07-0.002,0.177-0.007,0.318h-5.262
				c0.044,0.775,0.264,1.369,0.657,1.781c0.395,0.411,0.886,0.617,1.476,0.617c0.438,0,0.813-0.115,1.123-0.345
				C275.779,16.35,276.025,15.981,276.207,15.477z M272.28,13.543h3.939c-0.053-0.594-0.203-1.038-0.451-1.335
				c-0.381-0.461-0.875-0.691-1.481-0.691c-0.55,0-1.012,0.184-1.386,0.552C272.527,12.436,272.32,12.928,272.28,13.543z"/>
			<path d="M282.725,20.453v-9.761h1.089v0.917c0.257-0.358,0.547-0.628,0.871-0.807c0.323-0.18,0.715-0.27,1.176-0.27
				c0.603,0,1.134,0.155,1.595,0.465c0.46,0.311,0.808,0.748,1.043,1.313c0.234,0.564,0.353,1.184,0.353,1.857
				c0,0.722-0.13,1.372-0.389,1.95c-0.26,0.578-0.636,1.021-1.13,1.328c-0.494,0.309-1.014,0.462-1.559,0.462
				c-0.398,0-0.756-0.084-1.072-0.252c-0.317-0.169-0.577-0.381-0.781-0.638v3.435h-1.196V20.453z M283.808,14.261
				c0,0.908,0.184,1.579,0.551,2.014c0.368,0.434,0.813,0.65,1.336,0.65c0.531,0,0.986-0.225,1.365-0.674
				c0.379-0.45,0.568-1.146,0.568-2.09c0-0.899-0.186-1.572-0.555-2.02c-0.37-0.447-0.813-0.672-1.326-0.672
				c-0.509,0-0.96,0.238-1.352,0.715C284.003,12.661,283.808,13.353,283.808,14.261z"/>
			<path d="M294.895,16.879c-0.442,0.376-0.869,0.642-1.278,0.797c-0.41,0.155-0.85,0.232-1.319,0.232
				c-0.775,0-1.371-0.189-1.787-0.567c-0.416-0.379-0.625-0.863-0.625-1.452c0-0.346,0.079-0.661,0.236-0.947
				c0.157-0.285,0.363-0.515,0.618-0.688s0.541-0.303,0.86-0.392c0.234-0.063,0.589-0.122,1.063-0.18
				c0.966-0.115,1.677-0.252,2.133-0.412c0.005-0.163,0.007-0.268,0.007-0.312c0-0.487-0.112-0.831-0.339-1.03
				c-0.306-0.271-0.76-0.405-1.362-0.405c-0.563,0-0.978,0.099-1.245,0.296c-0.269,0.197-0.467,0.546-0.595,1.046l-1.17-0.159
				c0.106-0.501,0.281-0.904,0.525-1.213c0.243-0.308,0.596-0.545,1.057-0.711c0.46-0.166,0.994-0.249,1.601-0.249
				c0.603,0,1.092,0.071,1.469,0.213c0.376,0.142,0.653,0.32,0.83,0.535c0.178,0.215,0.302,0.485,0.372,0.813
				c0.04,0.204,0.061,0.571,0.061,1.103v1.595c0,1.112,0.025,1.815,0.076,2.11c0.051,0.294,0.151,0.576,0.303,0.847h-1.25
				C295.011,17.501,294.932,17.211,294.895,16.879z M294.796,14.208c-0.434,0.177-1.085,0.327-1.953,0.451
				c-0.491,0.071-0.839,0.151-1.043,0.239c-0.204,0.089-0.361,0.219-0.472,0.389c-0.111,0.171-0.166,0.36-0.166,0.568
				c0,0.319,0.12,0.585,0.362,0.797c0.241,0.213,0.595,0.319,1.06,0.319c0.46,0,0.87-0.101,1.229-0.303
				c0.359-0.201,0.623-0.477,0.791-0.827c0.129-0.27,0.192-0.669,0.192-1.195V14.208z"/>
			<path d="M297.846,17.749v-7.057h1.076v1.07c0.274-0.501,0.528-0.831,0.761-0.99s0.488-0.239,0.768-0.239
				c0.403,0,0.813,0.129,1.229,0.386l-0.412,1.109c-0.293-0.173-0.585-0.259-0.877-0.259c-0.262,0-0.496,0.078-0.704,0.235
				c-0.209,0.157-0.357,0.376-0.445,0.654c-0.133,0.426-0.199,0.891-0.199,1.396v3.694h-1.197V17.749z"/>
			<path d="M307.221,15.477l1.235,0.153c-0.194,0.722-0.556,1.282-1.083,1.681s-1.2,0.598-2.02,0.598
				c-1.032,0-1.851-0.317-2.455-0.953s-0.907-1.527-0.907-2.675c0-1.187,0.306-2.108,0.917-2.764s1.404-0.983,2.379-0.983
				c0.943,0,1.714,0.321,2.313,0.964c0.598,0.642,0.896,1.546,0.896,2.711c0,0.07-0.002,0.177-0.007,0.318h-5.262
				c0.044,0.775,0.264,1.369,0.657,1.781c0.395,0.411,0.886,0.617,1.476,0.617c0.438,0,0.813-0.115,1.123-0.345
				C306.793,16.35,307.039,15.981,307.221,15.477z M303.294,13.543h3.939c-0.053-0.594-0.203-1.038-0.451-1.335
				c-0.381-0.461-0.875-0.691-1.481-0.691c-0.55,0-1.012,0.184-1.386,0.552C303.541,12.436,303.334,12.928,303.294,13.543z"/>
			<path d="M309.479,15.643l1.183-0.186c0.066,0.474,0.251,0.837,0.555,1.09c0.303,0.252,0.728,0.378,1.272,0.378
				c0.549,0,0.956-0.111,1.223-0.335c0.266-0.224,0.398-0.486,0.398-0.787c0-0.271-0.117-0.483-0.353-0.639
				c-0.164-0.106-0.571-0.241-1.223-0.405c-0.877-0.221-1.484-0.413-1.823-0.574c-0.339-0.162-0.596-0.386-0.771-0.671
				c-0.175-0.286-0.262-0.602-0.262-0.947c0-0.314,0.071-0.605,0.216-0.874c0.144-0.268,0.34-0.49,0.588-0.667
				c0.187-0.138,0.439-0.254,0.761-0.35c0.321-0.095,0.665-0.143,1.033-0.143c0.554,0,1.04,0.08,1.458,0.239
				c0.419,0.159,0.728,0.375,0.928,0.647c0.199,0.272,0.336,0.638,0.411,1.094l-1.169,0.159c-0.054-0.363-0.207-0.646-0.462-0.851
				s-0.614-0.306-1.08-0.306c-0.549,0-0.94,0.091-1.176,0.272c-0.234,0.182-0.352,0.395-0.352,0.638
				c0,0.155,0.048,0.295,0.146,0.419c0.098,0.128,0.25,0.234,0.459,0.318c0.119,0.045,0.472,0.146,1.057,0.306
				c0.846,0.227,1.436,0.411,1.771,0.556c0.334,0.144,0.597,0.353,0.787,0.627c0.19,0.275,0.286,0.616,0.286,1.023
				c0,0.398-0.117,0.774-0.35,1.126c-0.232,0.353-0.567,0.625-1.006,0.817c-0.438,0.193-0.936,0.289-1.488,0.289
				c-0.917,0-1.616-0.19-2.097-0.571S309.612,16.392,309.479,15.643z"/>
		</g>
	</g>
	<g>
		<path d="M118.841,58.93c0.524-0.014,0.951-0.155,1.281-0.424s0.55-0.639,0.659-1.108c0.108-0.47,0.166-1.272,0.173-2.409
			s0.027-1.886,0.062-2.247c0.062-0.571,0.176-1.031,0.342-1.378c0.167-0.348,0.373-0.625,0.618-0.832
			c0.245-0.208,0.559-0.366,0.939-0.476c0.259-0.067,0.681-0.102,1.267-0.102h0.571v1.603h-0.316c-0.708,0-1.178,0.128-1.409,0.384
			c-0.231,0.255-0.347,0.825-0.347,1.71c0,1.783-0.038,2.91-0.112,3.38c-0.123,0.729-0.332,1.29-0.629,1.685
			c-0.296,0.396-0.761,0.746-1.394,1.052c0.749,0.313,1.292,0.792,1.629,1.435c0.337,0.644,0.506,1.697,0.506,3.161
			c0,1.327,0.013,2.116,0.04,2.368c0.055,0.463,0.192,0.786,0.414,0.971c0.221,0.184,0.655,0.275,1.302,0.275h0.316v1.604h-0.571
			c-0.668,0-1.151-0.055-1.45-0.164c-0.436-0.156-0.797-0.41-1.083-0.761c-0.285-0.351-0.471-0.795-0.556-1.332
			c-0.086-0.538-0.132-1.42-0.139-2.645c-0.007-1.226-0.064-2.073-0.173-2.543c-0.109-0.47-0.329-0.841-0.659-1.113
			c-0.33-0.271-0.757-0.415-1.281-0.429C118.841,60.595,118.841,58.93,118.841,58.93z"/>
		<path d="M132.433,69.335v-15h1.674v1.408c0.396-0.551,0.841-0.965,1.338-1.24s1.1-0.413,1.808-0.413
			c0.926,0,1.742,0.238,2.45,0.715s1.242,1.148,1.604,2.017c0.36,0.867,0.541,1.819,0.541,2.854c0,1.109-0.199,2.108-0.598,2.997
			c-0.397,0.889-0.977,1.569-1.735,2.042c-0.759,0.474-1.558,0.71-2.395,0.71c-0.612,0-1.162-0.13-1.649-0.388
			c-0.486-0.259-0.887-0.586-1.199-0.98v5.279L132.433,69.335L132.433,69.335z M134.097,59.818c0,1.396,0.282,2.427,0.848,3.094
			c0.564,0.667,1.249,1,2.052,1c0.817,0,1.517-0.345,2.099-1.036c0.582-0.69,0.873-1.762,0.873-3.211
			c0-1.382-0.284-2.417-0.853-3.104s-1.247-1.031-2.037-1.031c-0.783,0-1.476,0.366-2.078,1.098S134.097,58.423,134.097,59.818z"/>
		<path d="M144.043,65.179V54.335h1.654v1.644c0.422-0.77,0.812-1.276,1.169-1.521s0.75-0.367,1.179-0.367
			c0.62,0,1.25,0.197,1.89,0.592l-0.633,1.705c-0.449-0.266-0.899-0.398-1.349-0.398c-0.401,0-0.762,0.121-1.082,0.363
			c-0.32,0.241-0.548,0.576-0.685,1.006c-0.204,0.653-0.306,1.368-0.306,2.144v5.678h-1.837V65.179z"/>
		<path d="M150.343,59.757c0-2.009,0.559-3.496,1.675-4.463c0.933-0.803,2.069-1.204,3.41-1.204c1.491,0,2.71,0.488,3.656,1.465
			c0.945,0.977,1.419,2.326,1.419,4.049c0,1.396-0.209,2.493-0.628,3.293s-1.028,1.421-1.828,1.863s-1.673,0.664-2.619,0.664
			c-1.518,0-2.745-0.486-3.681-1.46C150.811,62.99,150.343,61.588,150.343,59.757z M152.231,59.757c0,1.389,0.304,2.429,0.909,3.119
			c0.605,0.691,1.368,1.036,2.287,1.036c0.912,0,1.671-0.347,2.277-1.041c0.605-0.694,0.909-1.753,0.909-3.176
			c0-1.341-0.306-2.357-0.914-3.048c-0.609-0.691-1.367-1.036-2.272-1.036c-0.919,0-1.682,0.344-2.287,1.031
			S152.231,58.368,152.231,59.757z"/>
		<path d="M162.658,69.335v-15h1.674v1.408c0.396-0.551,0.841-0.965,1.338-1.24s1.1-0.413,1.808-0.413
			c0.926,0,1.742,0.238,2.45,0.715s1.242,1.148,1.604,2.017c0.36,0.867,0.541,1.819,0.541,2.854c0,1.109-0.199,2.108-0.598,2.997
			c-0.397,0.889-0.977,1.569-1.735,2.042c-0.759,0.474-1.558,0.71-2.395,0.71c-0.612,0-1.162-0.13-1.649-0.388
			c-0.486-0.259-0.887-0.586-1.199-0.98v5.279L162.658,69.335L162.658,69.335z M164.322,59.818c0,1.396,0.282,2.427,0.848,3.094
			c0.564,0.667,1.249,1,2.052,1c0.817,0,1.517-0.345,2.099-1.036c0.582-0.69,0.873-1.762,0.873-3.211
			c0-1.382-0.284-2.417-0.853-3.104s-1.247-1.031-2.037-1.031c-0.783,0-1.476,0.366-2.078,1.098S164.322,58.423,164.322,59.818z"/>
		<path d="M174.299,52.323v-2.114h1.838v2.114H174.299z M174.299,65.179V54.335h1.838v10.844H174.299z"/>
		<path d="M186.358,61.686l1.899,0.234c-0.3,1.11-0.854,1.972-1.664,2.584c-0.811,0.612-1.845,0.919-3.104,0.919
			c-1.586,0-2.844-0.488-3.773-1.466c-0.929-0.977-1.394-2.347-1.394-4.109c0-1.824,0.47-3.24,1.409-4.248
			c0.939-1.007,2.158-1.511,3.655-1.511c1.45,0,2.635,0.493,3.554,1.48s1.379,2.376,1.379,4.166c0,0.108-0.004,0.272-0.011,0.49
			h-8.087c0.068,1.191,0.405,2.104,1.011,2.736c0.606,0.633,1.361,0.949,2.267,0.949c0.675,0,1.25-0.177,1.727-0.53
			C185.701,63.027,186.079,62.463,186.358,61.686z M180.324,58.715h6.055c-0.082-0.912-0.313-1.596-0.694-2.052
			c-0.585-0.708-1.345-1.063-2.277-1.063c-0.844,0-1.554,0.282-2.129,0.848S180.385,57.769,180.324,58.715z"/>
		<path d="M197.602,65.179v-1.368c-0.688,1.075-1.698,1.613-3.033,1.613c-0.864,0-1.659-0.238-2.384-0.715
			c-0.726-0.477-1.287-1.142-1.685-1.996s-0.598-1.836-0.598-2.946c0-1.082,0.181-2.064,0.541-2.945
			c0.361-0.882,0.902-1.558,1.624-2.027c0.721-0.47,1.527-0.704,2.42-0.704c0.653,0,1.235,0.138,1.746,0.413
			s0.926,0.635,1.245,1.077V50.21h1.828v14.97h-1.704V65.179z M191.791,59.767c0,1.389,0.293,2.427,0.879,3.114
			c0.585,0.688,1.276,1.031,2.072,1.031c0.804,0,1.486-0.328,2.048-0.985c0.562-0.656,0.842-1.659,0.842-3.007
			c0-1.484-0.286-2.573-0.857-3.268c-0.572-0.694-1.276-1.041-2.113-1.041c-0.817,0-1.5,0.333-2.048,1
			C192.065,57.279,191.791,58.33,191.791,59.767z"/>
		<path d="M209.273,63.841c-0.681,0.579-1.336,0.987-1.966,1.226s-1.306,0.357-2.027,0.357c-1.191,0-2.106-0.291-2.746-0.873
			c-0.641-0.582-0.96-1.326-0.96-2.231c0-0.53,0.12-1.016,0.362-1.455c0.241-0.438,0.558-0.791,0.949-1.057s0.833-0.466,1.322-0.603
			c0.361-0.095,0.905-0.188,1.634-0.275c1.484-0.177,2.577-0.389,3.278-0.633c0.007-0.252,0.01-0.412,0.01-0.48
			c0-0.749-0.173-1.276-0.521-1.583c-0.47-0.415-1.168-0.622-2.093-0.622c-0.865,0-1.503,0.151-1.915,0.454
			s-0.717,0.839-0.914,1.608l-1.797-0.245c0.163-0.77,0.432-1.391,0.807-1.863c0.374-0.474,0.915-0.838,1.623-1.093
			c0.708-0.256,1.528-0.383,2.461-0.383c0.926,0,1.679,0.108,2.257,0.326c0.579,0.218,1.004,0.492,1.276,0.822
			s0.463,0.747,0.572,1.251c0.062,0.313,0.092,0.878,0.092,1.695v2.45c0,1.709,0.039,2.789,0.117,3.242s0.233,0.887,0.465,1.302
			h-1.92C209.45,64.798,209.327,64.352,209.273,63.841z M209.12,59.736c-0.667,0.272-1.668,0.504-3.002,0.694
			c-0.756,0.108-1.29,0.231-1.604,0.367c-0.313,0.137-0.555,0.336-0.725,0.598c-0.171,0.262-0.256,0.553-0.256,0.873
			c0,0.49,0.186,0.898,0.557,1.226c0.371,0.326,0.914,0.49,1.629,0.49c0.708,0,1.338-0.155,1.889-0.465
			c0.552-0.31,0.957-0.733,1.216-1.271c0.197-0.415,0.296-1.027,0.296-1.838L209.12,59.736L209.12,59.736z"/>
		<path d="M220.863,65.179v-1.368c-0.688,1.075-1.698,1.613-3.033,1.613c-0.864,0-1.659-0.238-2.384-0.715
			c-0.726-0.477-1.287-1.142-1.685-1.996s-0.598-1.836-0.598-2.946c0-1.082,0.181-2.064,0.541-2.945
			c0.361-0.882,0.902-1.558,1.624-2.027c0.721-0.47,1.527-0.704,2.42-0.704c0.653,0,1.235,0.138,1.746,0.413
			s0.926,0.635,1.245,1.077V50.21h1.828v14.97h-1.704V65.179z M215.053,59.767c0,1.389,0.293,2.427,0.879,3.114
			c0.585,0.688,1.276,1.031,2.072,1.031c0.804,0,1.486-0.328,2.048-0.985c0.562-0.656,0.842-1.659,0.842-3.007
			c0-1.484-0.286-2.573-0.857-3.268c-0.572-0.694-1.276-1.041-2.113-1.041c-0.817,0-1.5,0.333-2.048,1
			C215.327,57.279,215.053,58.33,215.053,59.767z"/>
		<path d="M231.779,56.428v-2.093h2.094v2.093H231.779z M231.779,65.179v-2.094h2.094v2.094H231.779z"/>
		<path d="M245.902,65.179l-4.125-10.844h1.94l2.328,6.494c0.251,0.701,0.482,1.43,0.694,2.185c0.163-0.571,0.391-1.259,0.684-2.063
			l2.41-6.616h1.889l-4.104,10.844H245.902z"/>
		<path d="M260.423,63.841c-0.681,0.579-1.336,0.987-1.966,1.226s-1.306,0.357-2.027,0.357c-1.191,0-2.106-0.291-2.746-0.873
			c-0.641-0.582-0.96-1.326-0.96-2.231c0-0.53,0.12-1.016,0.362-1.455c0.241-0.438,0.558-0.791,0.949-1.057s0.833-0.466,1.322-0.603
			c0.361-0.095,0.905-0.188,1.634-0.275c1.484-0.177,2.577-0.389,3.278-0.633c0.007-0.252,0.01-0.412,0.01-0.48
			c0-0.749-0.173-1.276-0.521-1.583c-0.47-0.415-1.168-0.622-2.093-0.622c-0.865,0-1.503,0.151-1.915,0.454
			c-0.412,0.303-0.717,0.839-0.914,1.608l-1.797-0.245c0.163-0.77,0.432-1.391,0.807-1.863c0.374-0.474,0.915-0.838,1.623-1.093
			c0.708-0.256,1.528-0.383,2.461-0.383c0.926,0,1.679,0.108,2.257,0.326c0.579,0.218,1.004,0.492,1.276,0.822
			s0.463,0.747,0.572,1.251c0.062,0.313,0.092,0.878,0.092,1.695v2.45c0,1.709,0.039,2.789,0.117,3.242s0.233,0.887,0.465,1.302
			h-1.92C260.6,64.798,260.477,64.352,260.423,63.841z M260.27,59.736c-0.667,0.272-1.668,0.504-3.002,0.694
			c-0.756,0.108-1.29,0.231-1.604,0.367c-0.313,0.137-0.555,0.336-0.725,0.598c-0.171,0.262-0.256,0.553-0.256,0.873
			c0,0.49,0.186,0.898,0.557,1.226c0.371,0.326,0.914,0.49,1.629,0.49c0.708,0,1.338-0.155,1.889-0.465
			c0.552-0.31,0.957-0.733,1.216-1.271c0.197-0.415,0.296-1.027,0.296-1.838V59.736z"/>
		<path d="M264.936,65.179v-14.97h1.838v14.97H264.936z"/>
		<path d="M268.939,59.757c0-2.009,0.559-3.496,1.675-4.463c0.933-0.803,2.069-1.204,3.41-1.204c1.491,0,2.71,0.488,3.656,1.465
			c0.945,0.977,1.419,2.326,1.419,4.049c0,1.396-0.209,2.493-0.628,3.293s-1.028,1.421-1.828,1.863s-1.673,0.664-2.619,0.664
			c-1.518,0-2.745-0.486-3.681-1.46C269.407,62.99,268.939,61.588,268.939,59.757z M270.828,59.757c0,1.389,0.304,2.429,0.909,3.119
			c0.605,0.691,1.368,1.036,2.287,1.036c0.912,0,1.671-0.347,2.277-1.041c0.605-0.694,0.909-1.753,0.909-3.176
			c0-1.341-0.306-2.357-0.914-3.048c-0.609-0.691-1.367-1.036-2.272-1.036c-0.919,0-1.682,0.344-2.287,1.031
			S270.828,58.368,270.828,59.757z"/>
		<path d="M281.234,65.179V54.335h1.654v1.644c0.422-0.77,0.812-1.276,1.169-1.521s0.75-0.367,1.179-0.367
			c0.62,0,1.25,0.197,1.89,0.592l-0.633,1.705c-0.449-0.266-0.899-0.398-1.349-0.398c-0.401,0-0.762,0.121-1.082,0.363
			c-0.32,0.241-0.548,0.576-0.685,1.006c-0.204,0.653-0.306,1.368-0.306,2.144v5.678h-1.837V65.179z"/>
		<path d="M294.509,65.179v-2.094h2.094v2.094c0,0.77-0.137,1.391-0.409,1.863c-0.272,0.474-0.704,0.839-1.297,1.098l-0.51-0.786
			c0.388-0.17,0.674-0.42,0.857-0.75c0.184-0.331,0.286-0.806,0.307-1.425C295.551,65.179,294.509,65.179,294.509,65.179z
			 M294.509,56.428v-2.093h2.094v2.093H294.509z"/>
		<path d="M310.664,58.93v1.664c-0.524,0.014-0.952,0.157-1.282,0.429c-0.33,0.272-0.55,0.642-0.658,1.108
			c-0.109,0.466-0.167,1.268-0.174,2.404c-0.007,1.137-0.027,1.886-0.062,2.247c-0.061,0.578-0.175,1.039-0.342,1.383
			s-0.373,0.62-0.617,0.827c-0.245,0.208-0.559,0.366-0.939,0.476c-0.259,0.074-0.682,0.112-1.267,0.112h-0.572v-1.604h0.317
			c0.707,0,1.177-0.128,1.409-0.383c0.23-0.256,0.347-0.829,0.347-1.721c0-1.702,0.03-2.78,0.092-3.237
			c0.109-0.755,0.327-1.359,0.653-1.813c0.327-0.452,0.79-0.805,1.389-1.057c-0.782-0.374-1.334-0.869-1.654-1.485
			c-0.319-0.616-0.479-1.656-0.479-3.12c0-1.327-0.017-2.12-0.051-2.379c-0.048-0.456-0.183-0.774-0.403-0.954
			c-0.222-0.181-0.655-0.271-1.302-0.271h-0.317v-1.603h0.572c0.667,0,1.15,0.055,1.45,0.163c0.436,0.15,0.796,0.402,1.082,0.756
			s0.472,0.8,0.557,1.338c0.085,0.537,0.131,1.419,0.138,2.645s0.064,2.071,0.174,2.537c0.108,0.467,0.328,0.836,0.658,1.108
			S310.14,58.916,310.664,58.93z"/>
	</g>
	<line fill="none" stroke="#000000" stroke-miterlimit="10" x1="72.878" y1="87.099" x2="72.878" y2="73.544"/>
	<line fill="none" stroke="#000000" stroke-miterlimit="10" x1="265.323" y1="87.099" x2="265.323" y2="73.544"/>
	<rect x="229.177" y="48.487" fill="none" stroke="#000000" stroke-miterlimit="10" width="7.6" height="21.976"/>
	<rect x="292.323" y="48.487" fill="none" stroke="#000000" stroke-miterlimit="10" width="7.599" height="21.976"/>
	<polyline fill="none" stroke="#000000" stroke-miterlimit="10" points="232.975,48.487 232.975,35.892 82.671,21.103 	"/>
	<line fill="none" stroke="#000000" stroke-miterlimit="10" x1="36.154" y1="21.103" x2="139.942" y2="21.103"/>
	<polyline fill="none" stroke="#000000" stroke-miterlimit="10" points="296.122,48.487 296.122,35.892 255.466,21.103 	"/>
	<line fill="none" stroke="#000000" stroke-miterlimit="10" x1="190.294" y1="21.103" x2="316.806" y2="21.103"/>
	<polyline fill="none" stroke="#E54F26" stroke-width="2" stroke-miterlimit="10" points="15.987,55.367 15.987,132.284 
		328.994,132.284 328.994,55.367 	"/>
	
		<line fill="none" stroke="#E54F26" stroke-width="2" stroke-miterlimit="10" x1="173.054" y1="141.545" x2="173.054" y2="132.284"/>
</g>
</svg>
