<!-- Generator: Adobe Illustrator 17.0.0, SVG Export Plug-In  -->
<svg version="1.1"
	 xmlns="http://www.w3.org/2000/svg" xmlns:xlink="http://www.w3.org/1999/xlink" xmlns:a="http://ns.adobe.com/AdobeSVGViewerExtensions/3.0/"
	 x="0px" y="0px" width="426.891px" height="204.419px" viewBox="0 0 426.891 204.419"
	 style="enable-background:new 0 0 426.891 204.419;" xml:space="preserve">
<style type="text/css">
	.st0{fill:#FFFFFF;stroke:#231F20;stroke-width:2;stroke-linejoin:round;stroke-miterlimit:10;}
	.st1{stroke:#000000;stroke-width:2;stroke-miterlimit:10;}
	.st2{fill:none;stroke:#FFFFFF;stroke-width:2;stroke-linejoin:round;stroke-miterlimit:10;}
	.st3{fill:#FFFFFF;}
	.st4{fill:#C4C5C6;}
	.st5{fill:#F1F1F1;stroke:#231F20;stroke-width:2;stroke-linejoin:round;stroke-miterlimit:10;}
	.st6{fill:#BCBDBF;}
	.st7{fill:#F1F1F1;stroke:#050505;stroke-miterlimit:10;}
	.st8{fill:#929497;stroke:#000000;stroke-width:2;stroke-linejoin:round;stroke-miterlimit:10;}
	.st9{opacity:0.3;}
	.st10{fill:#F1F1F1;}
	.st11{fill:#E7E6E6;}
	.st12{fill:#D1D2D3;}
	.st13{fill:#BCBDBF;stroke:#000000;stroke-width:2;stroke-linejoin:round;stroke-miterlimit:10;}
	.st14{fill:#F1F1F1;stroke:#000000;stroke-width:2;stroke-linejoin:round;stroke-miterlimit:10;}
	.st15{opacity:0.8;fill:#FFFFFF;}
	.st16{fill:#E54F26;stroke:#000000;stroke-width:2;stroke-linecap:round;stroke-linejoin:round;stroke-miterlimit:10;}
	.st17{stroke:#E54F26;stroke-width:2;stroke-miterlimit:10;}
	.st18{fill:#A7A8AC;stroke:#000000;stroke-width:2;stroke-linejoin:round;stroke-miterlimit:10;}
	.st19{fill:none;stroke:#E54F26;stroke-width:2;stroke-linejoin:round;stroke-miterlimit:10;}
	.st20{fill:none;stroke:#231F20;stroke-width:2;stroke-linejoin:round;stroke-miterlimit:10;}
	.st21{fill:#929497;stroke:#231F20;stroke-width:2;stroke-linejoin:round;stroke-miterlimit:10;}
	.st22{fill:#E54F26;}
	.st23{fill:none;stroke:#000000;stroke-width:2;stroke-linejoin:round;stroke-miterlimit:10;}
	.st24{fill:#F1F1F1;stroke:#E54F26;stroke-width:2;stroke-linejoin:round;stroke-miterlimit:10;}
	.st25{fill:#D1D2D3;stroke:#000000;stroke-miterlimit:10;}
	.st26{fill:#FFFFFF;stroke:#000000;stroke-width:2;stroke-linejoin:round;stroke-miterlimit:10;}
	.st27{fill:none;stroke:#E54F26;stroke-width:2;stroke-miterlimit:10;}
	.st28{fill-rule:evenodd;clip-rule:evenodd;}
	.st29{fill-rule:evenodd;clip-rule:evenodd;fill:#FFFFFF;}
	.st30{fill:#FFFFFF;stroke:#000000;stroke-width:1.5;stroke-miterlimit:10;}
	.st31{fill:none;stroke:#000000;stroke-width:3;stroke-miterlimit:10;}
</style>
<defs>
</defs>
<g>
	<g>
		<rect x="4.619" y="151.731" width="59.861" height="1.476"/>
		<rect x="25.1" y="147.007" width="39.381" height="1.477"/>
	</g>
	<g>
		<rect x="350.238" y="168.743" width="59.862" height="1.476"/>
		<rect x="350.238" y="164.019" width="39.381" height="1.477"/>
	</g>
	<g>
		<rect x="51.095" y="95.153" class="st0" width="81.124" height="64.768"/>
		<rect x="58.296" y="102.35" class="st1" width="66.073" height="49.721"/>
		<polyline class="st2" points="57.563,135.225 85.424,120.754 112.676,136.456 		"/>
		<polyline class="st2" points="101.02,129.739 111.133,120.754 124.992,129.739 		"/>
		<circle class="st3" cx="97.435" cy="111.979" r="6.312"/>
	</g>
	<g>
		<path class="st4" d="M138.764,49.93v-4.61c0.655-0.267,1.648-0.613,2.442-1.035l3.23,3.262c0.308,0.309,0.798,0.309,1.108,0
			l4.664-4.673c0.309-0.311,0.305-0.81-0.004-1.119l-3.264-3.45c0.424-0.791,0.768-1.376,1.031-2.686h4.613
			c0.439,0,0.568,0.023,0.568-0.417v-6.608c0-0.438-0.129-0.826-0.568-0.826h-4.613c-0.264-1.31-0.607-1.688-1.031-2.479l3.26-3.253
			c0.313-0.31,0.313-0.806,0-1.116l-4.674-4.671c-0.307-0.311-0.811-0.309-1.119,0.002l-3.202,3.26
			c-0.794-0.419-1.787-0.768-2.442-1.036v-4.612c0-0.436-0.468-1.142-0.904-1.142h-6.608c-0.439,0-0.991,0.705-0.991,1.142v4.612
			c-0.656,0.268-1.611,0.617-2.396,1.036l-3.213-3.259c-0.308-0.312-0.785-0.312-1.094,0l-4.664,4.672
			c-0.307,0.31-0.303,0.809,0.008,1.119l3.266,3.246c-0.422,0.791-0.769,1.169-1.031,2.479h-4.613c-0.436,0-1.311,0.389-1.311,0.826
			v6.608c0,0.439,0.875,0.417,1.311,0.417h4.613c0.266,1.31,0.615,1.895,1.035,2.686l-3.264,3.356c-0.309,0.311-0.309,0.856,0,1.166
			l4.674,4.695c0.311,0.31,0.809,0.322,1.119,0.012l3.164-3.256c0.785,0.422,1.74,0.775,2.396,1.042v4.61
			c0,0.438,0.553,0.736,0.991,0.736h6.608C138.296,50.666,138.764,50.368,138.764,49.93z"/>
		<path class="st5" d="M134.385,38.047c-3.273,0-5.93-2.657-5.93-5.932c0-3.271,2.656-5.93,5.93-5.93c3.275,0,5.93,2.658,5.93,5.93
			C140.314,35.39,137.66,38.047,134.385,38.047z"/>
	</g>
	<g>
		<rect x="181.938" y="159.921" class="st6" width="37.295" height="24.86"/>
		<g>
			<path class="st7" d="M286.619,53.307c0-5.172-3.846-9.837-9.246-9.837H123.299c-5.404,0-10.053,4.665-10.053,9.837v77.174
				h173.373V53.307z"/>
			<path class="st5" d="M113.246,130.48v20.638c0,5.177,4.648,8.803,10.053,8.803h154.074c5.4,0,9.246-3.626,9.246-8.803V130.48
				H113.246z"/>
		</g>
		<circle class="st6" cx="200.335" cy="145.28" r="6.045"/>
		<rect x="174.744" y="184.781" class="st5" width="50.379" height="6.541"/>
		<rect x="124.369" y="53.938" class="st8" width="151.779" height="76.543"/>
		<g class="st9">
			<rect x="134.84" y="63.749" class="st10" width="131.494" height="20.282"/>
			<rect x="134.84" y="89.265" class="st10" width="87.008" height="16.354"/>
			<rect x="230.353" y="89.265" class="st10" width="35.328" height="16.354"/>
			<rect x="134.84" y="111.508" class="st10" width="130.842" height="9.159"/>
		</g>
	</g>
	<rect x="277.457" y="81.414" class="st11" width="9.162" height="3.926"/>
	<rect x="113.246" y="123.284" class="st11" width="9.814" height="3.272"/>
	<g>
		<g>
			<path class="st12" d="M94.273,191.138c0,1.789,1.344,3.456,3.035,3.456h44.098c1.691,0,3.244-1.667,3.244-3.456v-7.665H94.273
				V191.138z"/>
			<path class="st12" d="M144.65,129.832c0-1.787-1.553-3.275-3.244-3.275H97.309c-1.691,0-3.035,1.488-3.035,3.275v7.847h50.377
				V129.832z"/>
			<rect x="94.273" y="137.679" class="st13" width="50.377" height="45.794"/>
		</g>
		<line class="st14" x1="112.592" y1="132.445" x2="119.789" y2="132.445"/>
		<line class="st14" x1="123.061" y1="132.445" x2="126.334" y2="132.445"/>
		<rect x="100.164" y="143.566" class="st15" width="37.944" height="18.973"/>
		<rect x="100.164" y="167.119" class="st15" width="37.944" height="11.118"/>
		<line class="st14" x1="105.397" y1="150.106" x2="112.592" y2="150.106"/>
		<line class="st14" x1="105.397" y1="172.352" x2="114.557" y2="172.352"/>
		<line class="st14" x1="123.717" y1="172.352" x2="133.527" y2="172.352"/>
		<line class="st14" x1="105.397" y1="155.342" x2="133.527" y2="155.342"/>
	</g>
	<g>
		<path class="st12" d="M197.592,40.199h5.991c0-11.123,10.871-18.295,10.871-18.295L197.592,2.245l-16.863,19.706
			c0,0,10.872,7.125,10.872,18.248H197.592z"/>
		<g>
			<rect x="184.559" y="116.742" class="st16" width="24.859" height="13.738"/>
			<polygon class="st17" points="209.418,46.086 207.455,46.086 207.455,40.199 186.521,40.199 186.521,46.086 184.559,46.086 
				184.559,110.853 209.418,110.853 			"/>
			<rect x="184.559" y="110.853" class="st18" width="24.859" height="5.89"/>
		</g>
		<line class="st19" x1="185.865" y1="46.086" x2="200.26" y2="46.086"/>
		<line class="st20" x1="197.644" y1="2.252" x2="197.644" y2="19.918"/>
		<circle class="st21" cx="197.673" cy="24.093" r="3.81"/>
	</g>
	<g>
		<g>
			<rect x="218.579" y="22.534" class="st22" width="20.933" height="106.639"/>
			<line class="st23" x1="230.354" y1="30.387" x2="219.232" y2="30.387"/>
			<line class="st23" x1="227.732" y1="38.233" x2="219.232" y2="38.233"/>
			<line class="st23" x1="230.354" y1="47.397" x2="219.232" y2="47.397"/>
			<line class="st23" x1="227.732" y1="57.209" x2="219.232" y2="57.209"/>
			<line class="st23" x1="230.354" y1="65.713" x2="219.232" y2="65.713"/>
			<line class="st23" x1="227.732" y1="76.182" x2="219.232" y2="76.182"/>
			<line class="st23" x1="230.354" y1="85.34" x2="219.232" y2="85.34"/>
			<line class="st23" x1="227.732" y1="94.499" x2="219.232" y2="94.499"/>
			<line class="st23" x1="230.354" y1="103.659" x2="219.232" y2="103.659"/>
			<line class="st23" x1="227.732" y1="112.163" x2="219.232" y2="112.163"/>
			<line class="st23" x1="230.354" y1="122.631" x2="219.232" y2="122.631"/>
		</g>
		<line class="st23" x1="218.579" y1="22.534" x2="218.579" y2="129.173"/>
	</g>
	<g>
		<g>
			<rect x="164.933" y="114.778" class="st12" width="13.082" height="3.273"/>
			<rect x="164.933" y="45.431" class="st17" width="13.082" height="69.348"/>
			<rect x="165.586" y="118.051" class="st8" width="11.775" height="12.43"/>
		</g>
		<polygon class="st24" points="171.756,31.362 165.3,44.859 178.213,44.859 		"/>
		<line class="st19" x1="170.818" y1="45.431" x2="170.818" y2="109.546"/>
	</g>
	<g>
		<path class="st25" d="M360.545,91.555c0-3.481-2.625-6.215-6.105-6.215H231.666c-3.482,0-6.543,2.733-6.543,6.215v89.955h135.422
			V91.555z"/>
		<path class="st5" d="M215.305,181.51v6.227c0,3.479,3.065,6.202,7.072,6.202h141.348c4.01,0,7.285-2.724,7.285-6.202v-6.227
			H215.305z"/>
		<rect x="234.934" y="93.19" class="st22" width="116.451" height="78.508"/>
		<line class="st20" x1="285.309" y1="188.05" x2="300.353" y2="188.05"/>
		<g class="st9">
			<rect x="242.783" y="100.386" class="st3" width="102.059" height="20.937"/>
			<rect x="242.783" y="127.863" class="st3" width="67.385" height="18.32"/>
			<rect x="316.712" y="127.863" class="st3" width="27.477" height="18.32"/>
			<rect x="242.783" y="152.07" class="st3" width="101.405" height="10.469"/>
		</g>
	</g>
	<g>
		<rect x="291.852" y="62.441" class="st26" width="51.684" height="40.563"/>
		<rect x="297.738" y="66.368" width="40.561" height="31.402"/>
		<polyline class="st2" points="295.926,87.503 313.447,78.403 330.58,88.278 		"/>
		<polyline class="st2" points="323.252,84.057 329.615,78.403 338.325,84.057 		"/>
		<path class="st3" d="M324.969,72.884c0,2.193-1.775,3.972-3.971,3.972c-2.191,0-3.969-1.778-3.969-3.972
			c0-2.189,1.777-3.967,3.969-3.967C323.194,68.917,324.969,70.694,324.969,72.884z"/>
	</g>
	<line class="st23" x1="248.674" y1="157.304" x2="255.869" y2="157.304"/>
	<line class="st23" x1="265.682" y1="157.304" x2="271.568" y2="157.304"/>
	<line class="st23" x1="281.385" y1="157.304" x2="288.579" y2="157.304"/>
	<line class="st23" x1="297.738" y1="157.304" x2="304.934" y2="157.304"/>
	<line class="st23" x1="281.385" y1="116.742" x2="284.653" y2="116.742"/>
	<line class="st23" x1="289.889" y1="116.742" x2="293.815" y2="116.742"/>
	<line class="st23" x1="299.047" y1="116.742" x2="302.318" y2="116.742"/>
	<line class="st23" x1="314.094" y1="157.304" x2="320.635" y2="157.304"/>
	<line class="st23" x1="329.796" y1="157.304" x2="336.992" y2="157.304"/>
	<polyline class="st23" points="242.783,127.863 242.783,146.184 310.168,146.184 	"/>
	<g>
		<line class="st23" x1="343.535" y1="143.566" x2="327.18" y2="143.566"/>
		<line class="st23" x1="323.252" y1="143.566" x2="317.365" y2="143.566"/>
		<line class="st23" x1="343.535" y1="137.679" x2="327.18" y2="137.679"/>
		<line class="st23" x1="323.252" y1="137.679" x2="317.365" y2="137.679"/>
		<line class="st23" x1="343.535" y1="129.173" x2="327.18" y2="129.173"/>
		<line class="st23" x1="323.252" y1="129.173" x2="317.365" y2="129.173"/>
	</g>
	<g>
		<polygon class="st22" points="147.268,61.789 91.66,61.789 91.66,97.771 121.098,97.771 121.098,111.628 134.685,97.771 
			147.268,97.771 		"/>
		<polyline class="st23" points="108.967,72.87 102.716,79.124 109.146,85.554 		"/>
		<polyline class="st23" points="130.51,85.866 137.076,79.301 130.51,72.734 		"/>
		<line class="st23" x1="115.228" y1="90.637" x2="125.387" y2="67.786"/>
	</g>
	<line class="st23" x1="111.285" y1="42.814" x2="89.041" y2="42.814"/>
	<line class="st23" x1="108.67" y1="31.695" x2="77.919" y2="31.695"/>
	<line class="st23" x1="109.977" y1="19.264" x2="97.545" y2="19.264"/>
	<g>
		<polygon class="st11" points="380.17,120.014 333.065,120.014 333.065,152.07 357.273,152.07 357.273,163.786 369.371,152.07 
			380.17,152.07 		"/>
		<line class="st23" x1="338.955" y1="126.557" x2="348.114" y2="126.557"/>
		<line class="st23" x1="338.955" y1="133.752" x2="374.94" y2="133.752"/>
		<line class="st23" x1="338.955" y1="140.949" x2="374.94" y2="140.949"/>
		<line class="st23" x1="338.955" y1="146.836" x2="346.805" y2="146.836"/>
		<line class="st23" x1="352.041" y1="146.836" x2="361.85" y2="146.836"/>
		<line class="st23" x1="365.123" y1="146.836" x2="374.94" y2="146.836"/>
		<line class="st23" x1="352.693" y1="126.557" x2="374.94" y2="126.557"/>
	</g>
	<g>
		<polygon points="65.49,78.145 97.545,78.145 97.545,57.209 80.537,57.209 80.537,49.474 72.805,57.209 65.49,57.209 		"/>
		<line class="st27" x1="69.412" y1="67.021" x2="74.648" y2="67.021"/>
		<line class="st27" x1="79.229" y1="67.021" x2="83.809" y2="67.021"/>
		<line class="st27" x1="88.387" y1="67.021" x2="92.967" y2="67.021"/>
	</g>
	<g>
		<g>
			<path class="st28" d="M344.233,41.156c1.466-2.387,2.407-5.005,2.827-7.726l8.248-1.424l-2.218-12.794l-8.252,1.445
				c-0.646-1.193-1.423-2.346-2.323-3.435c-0.9-1.067-1.904-2.031-2.951-2.89l2.868-7.852l-12.167-4.482l-2.889,7.875
				c-2.744-0.084-5.507,0.376-8.104,1.402l-5.36-6.43l-9.967,8.334l5.36,6.407c-1.467,2.387-2.408,5.026-2.827,7.728l-8.25,1.444
				l2.221,12.773l8.249-1.424c0.649,1.193,1.424,2.345,2.324,3.412c0.9,1.091,1.906,2.053,2.952,2.89l-2.889,7.873l12.186,4.461
				l2.891-7.873c2.742,0.084,5.508-0.377,8.103-1.403l5.362,6.429l9.964-8.313L344.233,41.156z"/>
			<path class="st29" d="M330.938,35.355c2.742-2.303,3.119-6.386,0.817-9.13c-2.305-2.764-6.388-3.12-9.153-0.837
				c-2.741,2.304-3.119,6.407-0.815,9.149C324.088,37.282,328.172,37.659,330.938,35.355L330.938,35.355z M334.957,40.172
				c5.402-4.524,6.135-12.564,1.612-17.986c-4.521-5.403-12.563-6.136-17.986-1.612c-5.401,4.523-6.136,12.584-1.612,17.986
				C321.493,43.984,329.534,44.694,334.957,40.172L334.957,40.172z"/>
		</g>
		<g>
			<path class="st28" d="M291.549,14.291c-0.775-1.78-1.903-3.371-3.285-4.669l2.429-5.277l-8.21-3.768l-2.426,5.276
				c-0.924-0.105-1.887-0.105-2.871-0.022c-0.963,0.106-1.906,0.294-2.806,0.566l-3.372-4.753l-7.369,5.215l3.372,4.752
				c-1.112,1.528-1.949,3.287-2.389,5.193l-5.8,0.523l0.836,8.982l5.803-0.544c0.795,1.78,1.924,3.372,3.308,4.67l-2.43,5.297
				l8.189,3.749l2.428-5.278c0.943,0.105,1.905,0.105,2.867,0.022c0.985-0.084,1.929-0.272,2.828-0.545l3.371,4.733l7.35-5.214
				L290,28.446c1.132-1.528,1.949-3.288,2.389-5.172l5.8-0.546l-0.839-8.981L291.549,14.291z"/>
			<path class="st29" d="M283.007,19.609c-0.23-2.471-2.43-4.293-4.92-4.062c-2.472,0.231-4.293,2.429-4.063,4.899
				c0.23,2.471,2.43,4.313,4.899,4.084C281.416,24.278,283.237,22.102,283.007,19.609L283.007,19.609z M287.342,19.212
				c-0.461-4.879-4.775-8.459-9.653-8.019c-4.88,0.461-8.459,4.774-8.022,9.651c0.462,4.88,4.797,8.482,9.676,8.021
				C284.223,28.403,287.801,24.091,287.342,19.212L287.342,19.212z"/>
		</g>
	</g>
	<g>
		<path class="st30" d="M63.887,35.196h-1.061c0.182-0.699,0.279-1.433,0.279-2.187c0-4.774-3.869-8.646-8.643-8.646
			c-1.571,0-3.043,0.421-4.313,1.153c-1.492-7.694-8.264-13.505-16.396-13.505c-8.129,0-14.898,5.806-16.396,13.496
			c-0.834-0.252-1.721-0.388-2.639-0.388c-5.061,0-9.162,4.101-9.162,9.16c0,0.431,0.031,0.853,0.09,1.268
			c-2.842,0.933-4.897,3.605-4.897,6.76c0,3.93,3.184,7.114,7.112,7.114h56.024c3.928,0,7.113-3.185,7.113-7.114
			C71,38.38,67.814,35.196,63.887,35.196z"/>
	</g>
	<g>
		<path class="st30" d="M420.039,97.96h-0.908c0.155-0.6,0.24-1.229,0.24-1.876c0-4.095-3.319-7.414-7.414-7.414
			c-1.348,0-2.608,0.36-3.697,0.988c-1.281-6.599-7.088-11.582-14.063-11.582c-6.973,0-12.778,4.979-14.063,11.575
			c-0.716-0.216-1.477-0.333-2.264-0.333c-4.34,0-7.857,3.518-7.857,7.856c0,0.369,0.027,0.731,0.076,1.087
			c-2.438,0.8-4.199,3.093-4.199,5.798c0,3.37,2.732,6.102,6.1,6.102h48.049c3.371,0,6.102-2.731,6.102-6.102
			C426.141,100.69,423.41,97.96,420.039,97.96z"/>
	</g>
	<g>
		<g>
			<path d="M42.228,95.82H20.766c-0.363,0-0.657-0.294-0.657-0.657c0-0.363,0.294-0.657,0.657-0.657h21.462
				c0.363,0,0.657,0.294,0.657,0.657C42.885,95.526,42.591,95.82,42.228,95.82z"/>
		</g>
		<g>
			<path d="M50.985,88.406h-12.49c-0.363,0-0.659-0.293-0.659-0.656c0-0.363,0.296-0.658,0.659-0.658h12.49
				c0.362,0,0.655,0.295,0.655,0.658C51.641,88.113,51.348,88.406,50.985,88.406z"/>
		</g>
	</g>
	<g>
		<g>
			<path d="M375.424,23.898h21.461c0.363,0,0.659-0.294,0.659-0.657s-0.296-0.657-0.659-0.657h-21.461
				c-0.362,0-0.658,0.294-0.658,0.657S375.061,23.898,375.424,23.898z"/>
		</g>
		<g>
			<path d="M366.667,16.484h12.49c0.363,0,0.657-0.293,0.657-0.656c0-0.363-0.294-0.658-0.657-0.658h-12.49
				c-0.36,0-0.656,0.295-0.656,0.658C366.011,16.191,366.307,16.484,366.667,16.484z"/>
		</g>
	</g>
	<g id="XMLID_15_">
		<g id="XMLID_19_">
			<line id="XMLID_21_" class="st31" x1="57.465" y1="169.749" x2="53.68" y2="173.535"/>
			<line id="XMLID_20_" class="st31" x1="48.51" y1="178.704" x2="44.725" y2="182.489"/>
		</g>
		<g id="XMLID_16_">
			<line id="XMLID_18_" class="st31" x1="44.725" y1="169.749" x2="48.51" y2="173.535"/>
			<line id="XMLID_17_" class="st31" x1="53.68" y1="178.704" x2="57.465" y2="182.489"/>
		</g>
	</g>
	<g id="XMLID_8_">
		<g id="XMLID_12_">
			<line id="XMLID_14_" class="st31" x1="376.402" y1="57.439" x2="372.617" y2="61.225"/>
			<line id="XMLID_13_" class="st31" x1="367.447" y1="66.394" x2="363.662" y2="70.179"/>
		</g>
		<g id="XMLID_9_">
			<line id="XMLID_11_" class="st31" x1="363.662" y1="57.439" x2="367.447" y2="61.225"/>
			<line id="XMLID_10_" class="st31" x1="372.617" y1="66.394" x2="376.402" y2="70.179"/>
		</g>
	</g>
	<g id="XMLID_1_">
		<g id="XMLID_5_">
			<line id="XMLID_7_" class="st31" x1="171.303" y1="1.061" x2="167.518" y2="4.847"/>
			<line id="XMLID_6_" class="st31" x1="162.348" y1="10.016" x2="158.563" y2="13.801"/>
		</g>
		<g id="XMLID_2_">
			<line id="XMLID_4_" class="st31" x1="158.563" y1="1.061" x2="162.348" y2="4.847"/>
			<line id="XMLID_3_" class="st31" x1="167.518" y1="10.016" x2="171.303" y2="13.801"/>
		</g>
	</g>
	<g>
		<rect x="164.224" y="202.96" width="29.483" height="1.459"/>
		<rect x="126.444" y="202.96" width="29.487" height="1.459"/>
		<rect x="118.153" y="202.96" width="2.763" height="1.459"/>
	</g>
	<g>
		<rect x="220.897" y="202.96" width="29.482" height="1.459"/>
		<rect x="258.672" y="202.96" width="29.486" height="1.459"/>
		<rect x="293.686" y="202.96" width="2.765" height="1.459"/>
	</g>
</g>
</svg>