<!-- Generator: Adobe Illustrator 17.0.0, SVG Export Plug-In  -->
<svg version="1.1"
	 xmlns="http://www.w3.org/2000/svg" xmlns:xlink="http://www.w3.org/1999/xlink" xmlns:a="http://ns.adobe.com/AdobeSVGViewerExtensions/3.0/"
	 x="0px" y="0px" width="390.419px" height="23.664px" viewBox="0 0 390.419 23.664"
	 style="enable-background:new 0 0 390.419 23.664;" xml:space="preserve">
<style type="text/css">
	.st0{fill:#F16529;}
</style>
<defs>
</defs>
<g>
	<path class="st0" d="M0,18.459V0.254h10.245v1.562H1.638v6.767h6.97v1.562h-6.97v6.754h8.607v1.562H0z"/>
	<path class="st0" d="M14.631,21.322c-0.198,0.461-0.471,0.865-0.818,1.212s-0.754,0.622-1.219,0.825s-0.961,0.305-1.485,0.305
		v-1.485c0.313,0,0.607-0.06,0.882-0.178c0.275-0.118,0.515-0.279,0.718-0.482s0.364-0.442,0.482-0.718
		c0.118-0.274,0.178-0.568,0.178-0.882V5.459h1.562v14.384C14.93,20.367,14.83,20.86,14.631,21.322z M13.241,2.336V0.254h1.815
		v2.082H13.241z"/>
	<path class="st0" d="M26.959,16.377c-0.199,0.465-0.473,0.871-0.819,1.219s-0.753,0.62-1.219,0.818
		c-0.466,0.199-0.96,0.299-1.485,0.299h-1.041c-0.525,0-1.02-0.1-1.485-0.299c-0.466-0.198-0.872-0.471-1.219-0.818
		s-0.62-0.754-0.819-1.219c-0.198-0.465-0.298-0.961-0.298-1.485V9.026c0-0.524,0.1-1.021,0.298-1.485
		c0.199-0.465,0.473-0.871,0.819-1.219s0.753-0.62,1.219-0.818c0.466-0.199,0.96-0.299,1.485-0.299h1.041
		c0.525,0,1.02,0.1,1.485,0.299c0.466,0.198,0.872,0.471,1.219,0.818s0.62,0.754,0.819,1.219c0.198,0.465,0.298,0.961,0.298,1.485
		v3.06h-7.122v2.895c0,0.313,0.059,0.607,0.178,0.883c0.119,0.274,0.279,0.514,0.482,0.717s0.442,0.363,0.717,0.482
		c0.275,0.119,0.57,0.178,0.883,0.178h1.041c0.313,0,0.607-0.059,0.883-0.178c0.274-0.119,0.514-0.279,0.717-0.482
		s0.363-0.442,0.482-0.717c0.119-0.275,0.178-0.57,0.178-0.883v-0.863l1.562,0.254v0.521C27.257,15.416,27.157,15.912,26.959,16.377
		z M25.695,8.938c0-0.313-0.059-0.607-0.178-0.883c-0.119-0.274-0.279-0.514-0.482-0.717s-0.442-0.363-0.717-0.482
		c-0.275-0.119-0.57-0.178-0.883-0.178h-1.041c-0.313,0-0.607,0.059-0.883,0.178c-0.274,0.119-0.514,0.279-0.717,0.482
		s-0.363,0.442-0.482,0.717c-0.119,0.275-0.178,0.57-0.178,0.883v1.93h5.561V8.938z"/>
	<path class="st0" d="M44.104,18.459V8.938c0-0.313-0.059-0.607-0.178-0.883c-0.119-0.274-0.279-0.514-0.482-0.717
		s-0.442-0.363-0.717-0.482c-0.275-0.119-0.57-0.178-0.883-0.178h-0.774c-0.313,0-0.607,0.059-0.882,0.178
		c-0.275,0.119-0.517,0.279-0.725,0.482c-0.207,0.203-0.369,0.442-0.488,0.717c-0.119,0.275-0.178,0.57-0.178,0.883v9.521h-1.549
		V8.938c0-0.313-0.059-0.607-0.178-0.883c-0.119-0.274-0.281-0.514-0.488-0.717c-0.208-0.203-0.449-0.363-0.725-0.482
		c-0.274-0.119-0.568-0.178-0.882-0.178h-0.774c-0.313,0-0.607,0.059-0.883,0.178c-0.274,0.119-0.514,0.279-0.717,0.482
		s-0.363,0.442-0.482,0.717C32,8.33,31.941,8.625,31.941,8.938v9.521H30.38v-13H30.9l0.851,1.32
		c0.355-0.482,0.802-0.865,1.339-1.148c0.538-0.284,1.124-0.426,1.759-0.426h0.127c0.736,0,1.401,0.182,1.993,0.546
		s1.049,0.847,1.371,1.447c0.16-0.296,0.359-0.567,0.597-0.813s0.499-0.455,0.787-0.628c0.288-0.174,0.601-0.31,0.939-0.406
		c0.339-0.098,0.69-0.146,1.054-0.146h0.127c0.525,0,1.02,0.1,1.485,0.299c0.466,0.198,0.872,0.471,1.219,0.818
		s0.62,0.754,0.819,1.219c0.198,0.465,0.298,0.961,0.298,1.485v9.433H44.104z"/>
	<path class="st0" d="M57.174,16.377c-0.199,0.465-0.473,0.871-0.819,1.219s-0.753,0.62-1.219,0.818
		c-0.466,0.199-0.96,0.299-1.485,0.299h-0.394c-0.584,0-1.126-0.119-1.625-0.355s-0.927-0.566-1.282-0.99v6.297h-1.562V5.459h0.521
		l0.851,1.32c0.355-0.482,0.802-0.865,1.339-1.148c0.538-0.284,1.124-0.426,1.759-0.426h0.394c0.525,0,1.02,0.1,1.485,0.299
		c0.466,0.198,0.872,0.471,1.219,0.818s0.62,0.754,0.819,1.219c0.198,0.465,0.298,0.961,0.298,1.485v5.865
		C57.472,15.416,57.372,15.912,57.174,16.377z M55.91,8.938c0-0.313-0.059-0.607-0.178-0.883c-0.119-0.274-0.279-0.514-0.482-0.717
		s-0.442-0.363-0.717-0.482c-0.275-0.119-0.57-0.178-0.883-0.178h-1.041c-0.313,0-0.607,0.059-0.883,0.178
		c-0.274,0.119-0.514,0.279-0.717,0.482s-0.363,0.442-0.482,0.717c-0.119,0.275-0.178,0.57-0.178,0.883v6.043
		c0,0.313,0.059,0.607,0.178,0.883c0.119,0.274,0.279,0.514,0.482,0.717s0.442,0.363,0.717,0.482
		c0.275,0.119,0.57,0.178,0.883,0.178h1.041c0.313,0,0.607-0.059,0.883-0.178c0.274-0.119,0.514-0.279,0.717-0.482
		s0.363-0.442,0.482-0.717c0.119-0.275,0.178-0.57,0.178-0.883V8.938z"/>
	<path class="st0" d="M61.115,18.459V0.254h1.562v18.205H61.115z"/>
	<path class="st0" d="M74.705,16.377c-0.198,0.465-0.471,0.871-0.818,1.219s-0.754,0.62-1.219,0.818
		c-0.465,0.199-0.961,0.299-1.485,0.299h-1.041c-0.524,0-1.021-0.1-1.485-0.299c-0.465-0.198-0.871-0.471-1.219-0.818
		s-0.62-0.754-0.818-1.219c-0.199-0.465-0.299-0.961-0.299-1.485V9.026c0-0.524,0.1-1.021,0.299-1.485
		c0.198-0.465,0.471-0.871,0.818-1.219s0.754-0.62,1.219-0.818c0.465-0.199,0.961-0.299,1.485-0.299h1.041
		c0.524,0,1.021,0.1,1.485,0.299c0.465,0.198,0.871,0.471,1.219,0.818s0.62,0.754,0.818,1.219c0.199,0.465,0.299,0.961,0.299,1.485
		v5.865C75.004,15.416,74.904,15.912,74.705,16.377z M73.442,8.938c0-0.313-0.06-0.607-0.178-0.883
		c-0.118-0.274-0.279-0.514-0.482-0.717s-0.442-0.363-0.718-0.482c-0.274-0.119-0.568-0.178-0.882-0.178h-1.041
		c-0.313,0-0.607,0.059-0.882,0.178c-0.275,0.119-0.515,0.279-0.718,0.482S68.178,7.78,68.06,8.055
		c-0.118,0.275-0.178,0.57-0.178,0.883v6.043c0,0.313,0.06,0.607,0.178,0.883c0.118,0.274,0.279,0.514,0.482,0.717
		s0.442,0.363,0.718,0.482c0.274,0.119,0.568,0.178,0.882,0.178h1.041c0.313,0,0.607-0.059,0.882-0.178
		c0.275-0.119,0.515-0.279,0.718-0.482s0.364-0.442,0.482-0.717c0.118-0.275,0.178-0.57,0.178-0.883V8.938z"/>
	<path class="st0" d="M92.27,18.459l-0.863-1.32c-0.355,0.482-0.8,0.865-1.333,1.148c-0.533,0.284-1.117,0.426-1.752,0.426h-0.394
		c-0.525,0-1.02-0.1-1.485-0.299c-0.466-0.198-0.872-0.471-1.219-0.818s-0.62-0.754-0.819-1.219
		c-0.198-0.465-0.298-0.961-0.298-1.485V9.026c0-0.524,0.1-1.021,0.298-1.485c0.199-0.465,0.473-0.871,0.819-1.219
		s0.753-0.62,1.219-0.818c0.466-0.199,0.96-0.299,1.485-0.299h0.394c0.584,0,1.126,0.119,1.625,0.355s0.927,0.566,1.282,0.99V0.254
		h1.562v18.205H92.27z M91.229,8.938c0-0.313-0.059-0.607-0.178-0.883c-0.119-0.274-0.279-0.514-0.482-0.717
		s-0.442-0.363-0.717-0.482c-0.275-0.119-0.57-0.178-0.883-0.178h-1.041c-0.313,0-0.607,0.059-0.883,0.178
		c-0.274,0.119-0.514,0.279-0.717,0.482s-0.363,0.442-0.482,0.717c-0.119,0.275-0.178,0.57-0.178,0.883v6.043
		c0,0.313,0.059,0.607,0.178,0.883c0.119,0.274,0.279,0.514,0.482,0.717s0.442,0.363,0.717,0.482
		c0.275,0.119,0.57,0.178,0.883,0.178h1.041c0.313,0,0.607-0.059,0.883-0.178c0.274-0.119,0.514-0.279,0.717-0.482
		s0.363-0.442,0.482-0.717c0.119-0.275,0.178-0.57,0.178-0.883V8.938z"/>
	<path class="st0" d="M104.299,16.377c-0.199,0.465-0.473,0.871-0.819,1.219s-0.753,0.62-1.219,0.818
		c-0.466,0.199-0.96,0.299-1.485,0.299h-1.041c-0.525,0-1.02-0.1-1.485-0.299c-0.466-0.198-0.872-0.471-1.219-0.818
		s-0.62-0.754-0.819-1.219c-0.198-0.465-0.298-0.961-0.298-1.485V9.026c0-0.524,0.1-1.021,0.298-1.485
		c0.199-0.465,0.473-0.871,0.819-1.219s0.753-0.62,1.219-0.818c0.466-0.199,0.96-0.299,1.485-0.299h1.041
		c0.525,0,1.02,0.1,1.485,0.299c0.466,0.198,0.872,0.471,1.219,0.818s0.62,0.754,0.819,1.219c0.198,0.465,0.298,0.961,0.298,1.485
		v3.06h-7.122v2.895c0,0.313,0.059,0.607,0.178,0.883c0.119,0.274,0.279,0.514,0.482,0.717s0.442,0.363,0.717,0.482
		c0.275,0.119,0.57,0.178,0.883,0.178h1.041c0.313,0,0.607-0.059,0.883-0.178c0.274-0.119,0.514-0.279,0.717-0.482
		s0.363-0.442,0.482-0.717c0.119-0.275,0.178-0.57,0.178-0.883v-0.863l1.562,0.254v0.521
		C104.597,15.416,104.497,15.912,104.299,16.377z M103.035,8.938c0-0.313-0.059-0.607-0.178-0.883
		c-0.119-0.274-0.279-0.514-0.482-0.717s-0.442-0.363-0.717-0.482c-0.275-0.119-0.57-0.178-0.883-0.178h-1.041
		c-0.313,0-0.607,0.059-0.883,0.178c-0.274,0.119-0.514,0.279-0.717,0.482s-0.363,0.442-0.482,0.717
		c-0.119,0.275-0.178,0.57-0.178,0.883v1.93h5.561V8.938z"/>
	<path class="st0" d="M127.423,18.459V8.938c0-0.313-0.06-0.607-0.178-0.883c-0.118-0.274-0.279-0.514-0.482-0.717
		s-0.442-0.363-0.718-0.482c-0.274-0.119-0.568-0.178-0.882-0.178h-0.774c-0.313,0-0.607,0.059-0.883,0.178
		c-0.274,0.119-0.516,0.279-0.723,0.482c-0.208,0.203-0.371,0.442-0.489,0.717c-0.118,0.275-0.178,0.57-0.178,0.883v9.521h-1.549
		V8.938c0-0.313-0.06-0.607-0.178-0.883c-0.118-0.274-0.281-0.514-0.489-0.717c-0.207-0.203-0.448-0.363-0.723-0.482
		c-0.275-0.119-0.57-0.178-0.883-0.178h-0.774c-0.313,0-0.607,0.059-0.882,0.178c-0.275,0.119-0.515,0.279-0.718,0.482
		s-0.364,0.442-0.482,0.717c-0.118,0.275-0.178,0.57-0.178,0.883v9.521h-1.562v-13h0.521l0.851,1.32
		c0.355-0.482,0.802-0.865,1.34-1.148c0.537-0.284,1.123-0.426,1.758-0.426h0.127c0.736,0,1.4,0.182,1.993,0.546
		s1.05,0.847,1.371,1.447c0.161-0.296,0.36-0.567,0.597-0.813s0.5-0.455,0.787-0.628c0.287-0.174,0.602-0.31,0.939-0.406
		c0.338-0.098,0.689-0.146,1.054-0.146h0.127c0.524,0,1.021,0.1,1.485,0.299c0.465,0.198,0.871,0.471,1.219,0.818
		s0.62,0.754,0.818,1.219c0.199,0.465,0.299,0.961,0.299,1.485v9.433H127.423z"/>
	<path class="st0" d="M140.271,18.459l-0.863-1.295c-0.355,0.465-0.8,0.84-1.333,1.123c-0.533,0.284-1.117,0.426-1.752,0.426h-0.394
		c-0.524,0-1.021-0.1-1.485-0.299c-0.465-0.198-0.871-0.471-1.219-0.818s-0.62-0.754-0.818-1.219
		c-0.199-0.465-0.299-0.961-0.299-1.485v-0.127c0-0.524,0.1-1.021,0.299-1.485c0.198-0.465,0.471-0.871,0.818-1.219
		s0.754-0.62,1.219-0.818c0.465-0.199,0.961-0.299,1.485-0.299h3.301V8.938c0-0.313-0.06-0.607-0.178-0.883
		c-0.118-0.274-0.279-0.514-0.482-0.717s-0.442-0.363-0.718-0.482c-0.274-0.119-0.568-0.178-0.882-0.178h-0.914
		c-0.313,0-0.607,0.059-0.882,0.178c-0.275,0.119-0.515,0.279-0.718,0.482s-0.364,0.442-0.482,0.717
		c-0.118,0.275-0.178,0.57-0.178,0.883v0.47l-1.562-0.254V9.026c0-0.524,0.1-1.021,0.299-1.485c0.198-0.465,0.471-0.871,0.818-1.219
		s0.754-0.62,1.219-0.818c0.465-0.199,0.961-0.299,1.485-0.299h0.914c0.524,0,1.021,0.1,1.485,0.299
		c0.465,0.198,0.871,0.471,1.219,0.818s0.62,0.754,0.818,1.219c0.199,0.465,0.299,0.961,0.299,1.485v9.433H140.271z M139.229,12.162
		h-3.301c-0.313,0-0.607,0.059-0.882,0.178c-0.275,0.119-0.515,0.281-0.718,0.488c-0.203,0.208-0.364,0.449-0.482,0.725
		c-0.118,0.274-0.178,0.568-0.178,0.882v0.546c0,0.313,0.06,0.607,0.178,0.883c0.118,0.274,0.279,0.514,0.482,0.717
		s0.442,0.363,0.718,0.482c0.274,0.119,0.568,0.178,0.882,0.178h1.041c0.313,0,0.607-0.059,0.882-0.178
		c0.275-0.119,0.515-0.279,0.718-0.482s0.364-0.442,0.482-0.717c0.118-0.275,0.178-0.57,0.178-0.883V12.162z"/>
	<path class="st0" d="M151.036,23.664v-6.297c-0.355,0.424-0.782,0.754-1.282,0.99s-1.041,0.355-1.625,0.355h-0.394
		c-0.524,0-1.021-0.1-1.485-0.299c-0.465-0.198-0.871-0.471-1.219-0.818s-0.62-0.754-0.818-1.219
		c-0.199-0.465-0.299-0.961-0.299-1.485V9.026c0-0.524,0.1-1.021,0.299-1.485c0.198-0.465,0.471-0.871,0.818-1.219
		s0.754-0.62,1.219-0.818c0.465-0.199,0.961-0.299,1.485-0.299h0.394c0.635,0,1.219,0.142,1.752,0.426
		c0.533,0.283,0.978,0.666,1.333,1.148l0.863-1.32h0.521v18.205H151.036z M151.036,8.938c0-0.313-0.06-0.607-0.178-0.883
		c-0.118-0.274-0.279-0.514-0.482-0.717s-0.442-0.363-0.718-0.482c-0.274-0.119-0.568-0.178-0.882-0.178h-1.041
		c-0.313,0-0.607,0.059-0.882,0.178c-0.275,0.119-0.515,0.279-0.718,0.482s-0.364,0.442-0.482,0.717
		c-0.118,0.275-0.178,0.57-0.178,0.883v6.043c0,0.313,0.06,0.607,0.178,0.883c0.118,0.274,0.279,0.514,0.482,0.717
		s0.442,0.363,0.718,0.482c0.274,0.119,0.568,0.178,0.882,0.178h1.041c0.313,0,0.607-0.059,0.882-0.178
		c0.275-0.119,0.515-0.279,0.718-0.482s0.364-0.442,0.482-0.717c0.118-0.275,0.178-0.57,0.178-0.883V8.938z"/>
	<path class="st0" d="M163.884,18.459l-0.863-1.32c-0.355,0.482-0.8,0.865-1.333,1.148c-0.533,0.284-1.117,0.426-1.752,0.426h-0.394
		c-0.524,0-1.021-0.1-1.485-0.299c-0.465-0.198-0.871-0.471-1.219-0.818s-0.62-0.754-0.818-1.219
		c-0.199-0.465-0.299-0.961-0.299-1.485V5.459h1.562v9.521c0,0.313,0.06,0.607,0.178,0.883c0.118,0.274,0.279,0.514,0.482,0.717
		s0.442,0.363,0.718,0.482c0.274,0.119,0.568,0.178,0.882,0.178h1.041c0.313,0,0.607-0.059,0.882-0.178
		c0.275-0.119,0.515-0.279,0.718-0.482s0.364-0.442,0.482-0.717c0.118-0.275,0.178-0.57,0.178-0.883V5.459h1.562v13H163.884z"/>
	<path class="st0" d="M175.912,16.377c-0.198,0.465-0.471,0.871-0.818,1.219s-0.754,0.62-1.219,0.818
		c-0.465,0.199-0.961,0.299-1.485,0.299h-1.041c-0.524,0-1.021-0.1-1.485-0.299c-0.465-0.198-0.871-0.471-1.219-0.818
		s-0.62-0.754-0.818-1.219c-0.199-0.465-0.299-0.961-0.299-1.485V9.026c0-0.524,0.1-1.021,0.299-1.485
		c0.198-0.465,0.471-0.871,0.818-1.219s0.754-0.62,1.219-0.818c0.465-0.199,0.961-0.299,1.485-0.299h1.041
		c0.524,0,1.021,0.1,1.485,0.299c0.465,0.198,0.871,0.471,1.219,0.818s0.62,0.754,0.818,1.219c0.199,0.465,0.299,0.961,0.299,1.485
		v3.06h-7.122v2.895c0,0.313,0.06,0.607,0.178,0.883c0.118,0.274,0.279,0.514,0.482,0.717s0.442,0.363,0.718,0.482
		c0.274,0.119,0.568,0.178,0.882,0.178h1.041c0.313,0,0.607-0.059,0.882-0.178c0.275-0.119,0.515-0.279,0.718-0.482
		s0.364-0.442,0.482-0.717c0.118-0.275,0.178-0.57,0.178-0.883v-0.863l1.562,0.254v0.521
		C176.211,15.416,176.111,15.912,175.912,16.377z M174.649,8.938c0-0.313-0.06-0.607-0.178-0.883
		c-0.118-0.274-0.279-0.514-0.482-0.717s-0.442-0.363-0.718-0.482c-0.274-0.119-0.568-0.178-0.882-0.178h-1.041
		c-0.313,0-0.607,0.059-0.882,0.178c-0.275,0.119-0.515,0.279-0.718,0.482s-0.364,0.442-0.482,0.717
		c-0.118,0.275-0.178,0.57-0.178,0.883v1.93h5.561V8.938z"/>
	<path class="st0" d="M184.069,18.459c-0.474,0-0.921-0.089-1.339-0.267c-0.42-0.178-0.783-0.423-1.092-0.736
		c-0.31-0.313-0.555-0.677-0.736-1.092c-0.183-0.415-0.273-0.858-0.273-1.333V6.944h-2.336V5.459h2.336V2.336l1.562-0.254v3.377
		h3.301v1.485h-3.301v8.163c0,0.262,0.049,0.506,0.146,0.73c0.098,0.224,0.23,0.42,0.4,0.59s0.368,0.303,0.597,0.4
		c0.229,0.097,0.474,0.146,0.736,0.146h1.422v1.485H184.069z"/>
	<path class="st0" d="M196.523,18.459l-0.863-1.295c-0.355,0.465-0.8,0.84-1.333,1.123c-0.533,0.284-1.117,0.426-1.752,0.426h-0.394
		c-0.525,0-1.02-0.1-1.485-0.299c-0.466-0.198-0.872-0.471-1.219-0.818s-0.62-0.754-0.819-1.219
		c-0.198-0.465-0.298-0.961-0.298-1.485v-0.127c0-0.524,0.1-1.021,0.298-1.485c0.199-0.465,0.473-0.871,0.819-1.219
		s0.753-0.62,1.219-0.818c0.466-0.199,0.96-0.299,1.485-0.299h3.301V8.938c0-0.313-0.059-0.607-0.178-0.883
		c-0.119-0.274-0.279-0.514-0.482-0.717s-0.442-0.363-0.717-0.482c-0.275-0.119-0.57-0.178-0.883-0.178h-0.914
		c-0.313,0-0.607,0.059-0.883,0.178c-0.274,0.119-0.514,0.279-0.717,0.482s-0.363,0.442-0.482,0.717
		c-0.119,0.275-0.178,0.57-0.178,0.883v0.47l-1.562-0.254V9.026c0-0.524,0.1-1.021,0.298-1.485c0.199-0.465,0.473-0.871,0.819-1.219
		s0.753-0.62,1.219-0.818c0.466-0.199,0.96-0.299,1.485-0.299h0.914c0.525,0,1.02,0.1,1.485,0.299
		c0.466,0.198,0.872,0.471,1.219,0.818s0.62,0.754,0.819,1.219c0.198,0.465,0.298,0.961,0.298,1.485v9.433H196.523z M195.482,12.162
		h-3.301c-0.313,0-0.607,0.059-0.883,0.178c-0.274,0.119-0.514,0.281-0.717,0.488c-0.203,0.208-0.363,0.449-0.482,0.725
		c-0.119,0.274-0.178,0.568-0.178,0.882v0.546c0,0.313,0.059,0.607,0.178,0.883c0.119,0.274,0.279,0.514,0.482,0.717
		s0.442,0.363,0.717,0.482c0.275,0.119,0.57,0.178,0.883,0.178h1.041c0.313,0,0.607-0.059,0.883-0.178
		c0.274-0.119,0.514-0.279,0.717-0.482s0.363-0.442,0.482-0.717c0.119-0.275,0.178-0.57,0.178-0.883V12.162z"/>
	<path class="st0" d="M208.553,16.377c-0.199,0.465-0.473,0.871-0.819,1.219s-0.753,0.62-1.219,0.818
		c-0.466,0.199-0.96,0.299-1.485,0.299h-1.041c-0.525,0-1.02-0.1-1.485-0.299c-0.466-0.198-0.872-0.471-1.219-0.818
		s-0.62-0.754-0.819-1.219c-0.198-0.465-0.298-0.961-0.298-1.485V9.026c0-0.524,0.1-1.021,0.298-1.485
		c0.199-0.465,0.473-0.871,0.819-1.219s0.753-0.62,1.219-0.818c0.466-0.199,0.96-0.299,1.485-0.299h1.041
		c0.525,0,1.02,0.1,1.485,0.299c0.466,0.198,0.872,0.471,1.219,0.818s0.62,0.754,0.819,1.219c0.198,0.465,0.298,0.961,0.298,1.485
		v0.521l-1.562,0.254V8.938c0-0.313-0.059-0.607-0.178-0.883c-0.119-0.274-0.279-0.514-0.482-0.717s-0.442-0.363-0.717-0.482
		c-0.275-0.119-0.57-0.178-0.883-0.178h-1.041c-0.313,0-0.607,0.059-0.883,0.178c-0.274,0.119-0.514,0.279-0.717,0.482
		s-0.363,0.442-0.482,0.717c-0.119,0.275-0.178,0.57-0.178,0.883v6.043c0,0.313,0.059,0.607,0.178,0.883
		c0.119,0.274,0.279,0.514,0.482,0.717s0.442,0.363,0.717,0.482c0.275,0.119,0.57,0.178,0.883,0.178h1.041
		c0.313,0,0.607-0.059,0.883-0.178c0.274-0.119,0.514-0.279,0.717-0.482s0.363-0.442,0.482-0.717
		c0.119-0.275,0.178-0.57,0.178-0.883v-0.863l1.562,0.254v0.521C208.851,15.416,208.751,15.912,208.553,16.377z"/>
	<path class="st0" d="M212.367,2.336V0.254h1.815v2.082H212.367z M212.494,18.459v-13h1.562v13H212.494z"/>
	<path class="st0" d="M226.084,16.377c-0.198,0.465-0.471,0.871-0.818,1.219s-0.754,0.62-1.219,0.818
		c-0.465,0.199-0.961,0.299-1.485,0.299h-1.041c-0.524,0-1.021-0.1-1.485-0.299c-0.465-0.198-0.871-0.471-1.219-0.818
		s-0.62-0.754-0.818-1.219c-0.199-0.465-0.299-0.961-0.299-1.485V9.026c0-0.524,0.1-1.021,0.299-1.485
		c0.198-0.465,0.471-0.871,0.818-1.219s0.754-0.62,1.219-0.818c0.465-0.199,0.961-0.299,1.485-0.299h1.041
		c0.524,0,1.021,0.1,1.485,0.299c0.465,0.198,0.871,0.471,1.219,0.818s0.62,0.754,0.818,1.219c0.199,0.465,0.299,0.961,0.299,1.485
		v5.865C226.383,15.416,226.283,15.912,226.084,16.377z M224.821,8.938c0-0.313-0.06-0.607-0.178-0.883
		c-0.118-0.274-0.279-0.514-0.482-0.717s-0.442-0.363-0.718-0.482c-0.274-0.119-0.568-0.178-0.882-0.178h-1.041
		c-0.313,0-0.607,0.059-0.882,0.178c-0.275,0.119-0.515,0.279-0.718,0.482s-0.364,0.442-0.482,0.717
		c-0.118,0.275-0.178,0.57-0.178,0.883v6.043c0,0.313,0.06,0.607,0.178,0.883c0.118,0.274,0.279,0.514,0.482,0.717
		s0.442,0.363,0.718,0.482c0.274,0.119,0.568,0.178,0.882,0.178h1.041c0.313,0,0.607-0.059,0.882-0.178
		c0.275-0.119,0.515-0.279,0.718-0.482s0.364-0.442,0.482-0.717c0.118-0.275,0.178-0.57,0.178-0.883V8.938z M221.394,3.377h-1.168
		l2.069-3.123h2.603L221.394,3.377z"/>
	<path class="st0" d="M236.628,18.459V8.938c0-0.313-0.06-0.607-0.178-0.883c-0.118-0.274-0.279-0.514-0.482-0.717
		s-0.442-0.363-0.718-0.482c-0.274-0.119-0.568-0.178-0.882-0.178h-1.041c-0.313,0-0.607,0.059-0.882,0.178
		c-0.275,0.119-0.515,0.279-0.718,0.482s-0.364,0.442-0.482,0.717c-0.118,0.275-0.178,0.57-0.178,0.883v9.521h-1.562v-13h0.521
		l0.851,1.32c0.355-0.482,0.802-0.865,1.34-1.148c0.537-0.284,1.123-0.426,1.758-0.426h0.394c0.524,0,1.021,0.1,1.485,0.299
		c0.465,0.198,0.871,0.471,1.219,0.818s0.62,0.754,0.818,1.219c0.199,0.465,0.299,0.961,0.299,1.485v9.433H236.628z"/>
	<path class="st0" d="M255.678,16.377c-0.199,0.465-0.473,0.871-0.819,1.219s-0.753,0.62-1.219,0.818
		c-0.466,0.199-0.96,0.299-1.485,0.299h-1.041c-0.525,0-1.02-0.1-1.485-0.299c-0.466-0.198-0.872-0.471-1.219-0.818
		s-0.62-0.754-0.819-1.219c-0.198-0.465-0.298-0.961-0.298-1.485V9.026c0-0.524,0.1-1.021,0.298-1.485
		c0.199-0.465,0.473-0.871,0.819-1.219s0.753-0.62,1.219-0.818c0.466-0.199,0.96-0.299,1.485-0.299h1.041
		c0.525,0,1.02,0.1,1.485,0.299c0.466,0.198,0.872,0.471,1.219,0.818s0.62,0.754,0.819,1.219c0.198,0.465,0.298,0.961,0.298,1.485
		v3.06h-7.122v2.895c0,0.313,0.059,0.607,0.178,0.883c0.119,0.274,0.279,0.514,0.482,0.717s0.442,0.363,0.717,0.482
		c0.275,0.119,0.57,0.178,0.883,0.178h1.041c0.313,0,0.607-0.059,0.883-0.178c0.274-0.119,0.514-0.279,0.717-0.482
		s0.363-0.442,0.482-0.717c0.119-0.275,0.178-0.57,0.178-0.883v-0.863l1.562,0.254v0.521
		C255.976,15.416,255.876,15.912,255.678,16.377z M254.414,8.938c0-0.313-0.059-0.607-0.178-0.883
		c-0.119-0.274-0.279-0.514-0.482-0.717s-0.442-0.363-0.717-0.482c-0.275-0.119-0.57-0.178-0.883-0.178h-1.041
		c-0.313,0-0.607,0.059-0.883,0.178c-0.274,0.119-0.514,0.279-0.717,0.482s-0.363,0.442-0.482,0.717
		c-0.119,0.275-0.178,0.57-0.178,0.883v1.93h5.561V8.938z"/>
	<path class="st0" d="M266.221,18.459V8.938c0-0.313-0.059-0.607-0.178-0.883c-0.119-0.274-0.279-0.514-0.482-0.717
		s-0.442-0.363-0.717-0.482c-0.275-0.119-0.57-0.178-0.883-0.178h-1.041c-0.313,0-0.607,0.059-0.883,0.178
		c-0.274,0.119-0.514,0.279-0.717,0.482s-0.363,0.442-0.482,0.717c-0.119,0.275-0.178,0.57-0.178,0.883v9.521h-1.562v-13h0.521
		l0.851,1.32c0.355-0.482,0.802-0.865,1.339-1.148c0.538-0.284,1.124-0.426,1.759-0.426h0.394c0.525,0,1.02,0.1,1.485,0.299
		c0.466,0.198,0.872,0.471,1.219,0.818s0.62,0.754,0.819,1.219c0.198,0.465,0.298,0.961,0.298,1.485v9.433H266.221z"/>
	<path class="st0" d="M286.013,18.459v-8.315h-6.97v8.315h-1.638V0.254h1.638v8.328h6.97V0.254h1.638v18.205H286.013z"/>
	<path class="st0" d="M296.232,1.815v16.644h-1.638V1.815h-4.342V0.254h10.321v1.562H296.232z"/>
	<path class="st0" d="M314.387,18.459V5.979l-0.114,0.774l-4.228,11.705h-0.863l-4.266-11.705l-0.102-0.774v12.479h-1.638V0.254
		h0.851l5.522,14.93l0.051,0.673l0.051-0.673l5.51-14.93h0.863v18.205H314.387z"/>
	<path class="st0" d="M319.909,18.459V0.254h1.638v16.644h6.97v1.562H319.909z"/>
	<path class="st0" d="M338.686,23.664h-1.511l2.311-6.322l-4.215-11.883h1.562l3.39,9.852l0.051,0.673l0.051-0.673l3.377-9.852
		h1.562L338.686,23.664z"/>
	<path class="st0" d="M362.952,15.983c-0.232,0.542-0.552,1.016-0.958,1.422s-0.88,0.726-1.422,0.958
		c-0.542,0.233-1.121,0.35-1.739,0.35h-1.295c-0.618,0-1.199-0.116-1.746-0.35c-0.545-0.232-1.021-0.552-1.428-0.958
		s-0.726-0.88-0.959-1.422c-0.232-0.542-0.349-1.122-0.349-1.739V4.469c0-0.617,0.116-1.197,0.349-1.739
		c0.233-0.542,0.553-1.016,0.959-1.422s0.883-0.726,1.428-0.958C356.339,0.116,356.92,0,357.538,0h1.295
		c0.618,0,1.197,0.116,1.739,0.35c0.542,0.232,1.016,0.552,1.422,0.958s0.726,0.88,0.958,1.422c0.233,0.542,0.35,1.122,0.35,1.739
		v0.736l-1.638,0.254v-0.99c0-0.406-0.076-0.785-0.229-1.137c-0.152-0.351-0.359-0.658-0.622-0.92s-0.569-0.47-0.92-0.622
		c-0.352-0.152-0.73-0.229-1.137-0.229h-1.143c-0.406,0-0.785,0.076-1.137,0.229c-0.351,0.152-0.66,0.36-0.926,0.622
		c-0.268,0.262-0.477,0.569-0.629,0.92c-0.152,0.352-0.229,0.73-0.229,1.137v9.775c0,0.406,0.076,0.785,0.229,1.137
		c0.152,0.351,0.361,0.66,0.629,0.926c0.266,0.268,0.575,0.477,0.926,0.629c0.352,0.152,0.73,0.229,1.137,0.229h1.143
		c0.406,0,0.785-0.076,1.137-0.229c0.351-0.152,0.657-0.361,0.92-0.629c0.263-0.266,0.47-0.575,0.622-0.926
		c0.152-0.352,0.229-0.73,0.229-1.137v-0.99l1.638,0.267v0.724C363.302,14.861,363.186,15.441,362.952,15.983z"/>
	<path class="st0" d="M376.924,14.244c0,0.617-0.125,1.197-0.375,1.739c-0.249,0.542-0.584,1.016-1.002,1.422
		c-0.42,0.406-0.906,0.726-1.461,0.958c-0.554,0.233-1.14,0.35-1.758,0.35h-1.308c-0.618,0-1.204-0.116-1.759-0.35
		c-0.554-0.232-1.041-0.552-1.459-0.958c-0.42-0.406-0.754-0.88-1.004-1.422c-0.249-0.542-0.374-1.122-0.374-1.739v-0.724
		l1.638-0.267v0.99c0,0.406,0.082,0.785,0.248,1.137c0.164,0.351,0.387,0.66,0.666,0.926c0.279,0.268,0.604,0.477,0.971,0.629
		c0.369,0.152,0.756,0.229,1.162,0.229h1.143c0.406,0,0.791-0.076,1.155-0.229s0.686-0.361,0.965-0.629
		c0.279-0.266,0.501-0.575,0.667-0.926c0.164-0.352,0.247-0.73,0.247-1.137v-0.546c0-0.626-0.123-1.147-0.368-1.562
		s-0.571-0.768-0.978-1.061c-0.406-0.291-0.865-0.539-1.378-0.742c-0.512-0.203-1.038-0.406-1.58-0.609s-1.068-0.428-1.58-0.673
		c-0.513-0.245-0.972-0.552-1.378-0.921c-0.406-0.367-0.732-0.818-0.978-1.352s-0.368-1.189-0.368-1.968V4.469
		c0-0.617,0.116-1.197,0.349-1.739c0.233-0.542,0.553-1.016,0.959-1.422s0.883-0.726,1.428-0.958C369.961,0.116,370.542,0,371.16,0
		h1.168c0.618,0,1.197,0.116,1.739,0.35c0.542,0.232,1.016,0.552,1.422,0.958s0.726,0.88,0.958,1.422
		c0.233,0.542,0.35,1.122,0.35,1.739v0.47l-1.638,0.267V4.469c0-0.406-0.076-0.785-0.229-1.137c-0.152-0.351-0.359-0.658-0.622-0.92
		s-0.569-0.47-0.92-0.622c-0.352-0.152-0.73-0.229-1.137-0.229h-1.016c-0.406,0-0.785,0.076-1.137,0.229
		c-0.351,0.152-0.66,0.36-0.926,0.622c-0.268,0.262-0.477,0.569-0.629,0.92c-0.152,0.352-0.229,0.73-0.229,1.137v0.343
		c0,0.584,0.123,1.075,0.368,1.473s0.571,0.738,0.978,1.022c0.406,0.283,0.865,0.528,1.377,0.736
		c0.513,0.207,1.039,0.418,1.581,0.635c0.542,0.215,1.068,0.452,1.581,0.711c0.512,0.258,0.971,0.575,1.377,0.951
		c0.406,0.377,0.732,0.836,0.978,1.378s0.368,1.202,0.368,1.98V14.244z"/>
	<path class="st0" d="M390.419,14.244c0,0.617-0.125,1.197-0.375,1.739c-0.249,0.542-0.584,1.016-1.002,1.422
		c-0.42,0.406-0.906,0.726-1.461,0.958c-0.554,0.233-1.14,0.35-1.758,0.35h-1.308c-0.618,0-1.204-0.116-1.759-0.35
		c-0.554-0.232-1.041-0.552-1.459-0.958c-0.42-0.406-0.754-0.88-1.004-1.422c-0.249-0.542-0.374-1.122-0.374-1.739v-0.724
		l1.638-0.267v0.99c0,0.406,0.082,0.785,0.248,1.137c0.164,0.351,0.387,0.66,0.666,0.926c0.279,0.268,0.604,0.477,0.971,0.629
		c0.369,0.152,0.756,0.229,1.162,0.229h1.143c0.406,0,0.791-0.076,1.155-0.229s0.686-0.361,0.965-0.629
		c0.279-0.266,0.501-0.575,0.667-0.926c0.164-0.352,0.247-0.73,0.247-1.137v-0.546c0-0.626-0.123-1.147-0.368-1.562
		s-0.571-0.768-0.978-1.061c-0.406-0.291-0.865-0.539-1.378-0.742c-0.512-0.203-1.038-0.406-1.58-0.609s-1.068-0.428-1.58-0.673
		c-0.513-0.245-0.972-0.552-1.378-0.921c-0.406-0.367-0.732-0.818-0.978-1.352s-0.368-1.189-0.368-1.968V4.469
		c0-0.617,0.116-1.197,0.349-1.739c0.233-0.542,0.553-1.016,0.959-1.422s0.883-0.726,1.428-0.958c0.547-0.233,1.128-0.35,1.746-0.35
		h1.168c0.618,0,1.197,0.116,1.739,0.35c0.542,0.232,1.016,0.552,1.422,0.958s0.726,0.88,0.958,1.422
		c0.233,0.542,0.35,1.122,0.35,1.739v0.47l-1.638,0.267V4.469c0-0.406-0.076-0.785-0.229-1.137c-0.152-0.351-0.359-0.658-0.622-0.92
		s-0.569-0.47-0.92-0.622c-0.352-0.152-0.73-0.229-1.137-0.229h-1.016c-0.406,0-0.785,0.076-1.137,0.229
		c-0.351,0.152-0.66,0.36-0.926,0.622c-0.268,0.262-0.477,0.569-0.629,0.92c-0.152,0.352-0.229,0.73-0.229,1.137v0.343
		c0,0.584,0.123,1.075,0.368,1.473s0.571,0.738,0.978,1.022c0.406,0.283,0.865,0.528,1.377,0.736
		c0.513,0.207,1.039,0.418,1.581,0.635c0.542,0.215,1.068,0.452,1.581,0.711c0.512,0.258,0.971,0.575,1.377,0.951
		c0.406,0.377,0.732,0.836,0.978,1.378s0.368,1.202,0.368,1.98V14.244z"/>
</g>
</svg>