<!-- Generator: Adobe Illustrator 17.0.0, SVG Export Plug-In  -->
<svg version="1.1"
	 xmlns="http://www.w3.org/2000/svg" xmlns:xlink="http://www.w3.org/1999/xlink" xmlns:a="http://ns.adobe.com/AdobeSVGViewerExtensions/3.0/"
	 x="0px" y="0px" width="261.156px" height="23.664px" viewBox="0 0 261.156 23.664"
	 style="enable-background:new 0 0 261.156 23.664;" xml:space="preserve">
<style type="text/css">
	.st0{fill:#F16529;}
</style>
<defs>
</defs>
<g>
	<path class="st0" d="M9.896,15.983c-0.232,0.542-0.553,1.016-0.959,1.422s-0.88,0.726-1.422,0.958
		c-0.541,0.233-1.121,0.35-1.738,0.35H4.482c-0.618,0-1.2-0.116-1.746-0.35c-0.546-0.232-1.021-0.552-1.428-0.958
		s-0.727-0.88-0.959-1.422S0,14.861,0,14.244V4.469c0-0.617,0.117-1.197,0.35-1.739s0.553-1.016,0.959-1.422S2.19,0.582,2.736,0.35
		C3.282,0.116,3.864,0,4.482,0h1.295c0.617,0,1.197,0.116,1.738,0.35c0.542,0.232,1.016,0.552,1.422,0.958s0.727,0.88,0.959,1.422
		s0.35,1.122,0.35,1.739v0.736L8.607,5.459v-0.99c0-0.406-0.076-0.785-0.229-1.137C8.227,2.981,8.02,2.674,7.758,2.412
		C7.495,2.15,7.188,1.942,6.837,1.79S6.107,1.562,5.701,1.562H4.559c-0.406,0-0.785,0.076-1.137,0.229s-0.66,0.36-0.927,0.622
		S2.02,2.981,1.867,3.332c-0.152,0.352-0.229,0.73-0.229,1.137v9.775c0,0.406,0.076,0.785,0.229,1.137
		c0.152,0.351,0.361,0.66,0.628,0.926c0.267,0.268,0.575,0.477,0.927,0.629s0.73,0.229,1.137,0.229h1.143
		c0.406,0,0.785-0.076,1.136-0.229s0.658-0.361,0.921-0.629c0.262-0.266,0.469-0.575,0.621-0.926
		c0.152-0.352,0.229-0.73,0.229-1.137v-0.99l1.639,0.267v0.724C10.246,14.861,10.129,15.441,9.896,15.983z"/>
	<path class="st0" d="M21.754,16.377c-0.199,0.465-0.472,0.871-0.818,1.219c-0.348,0.348-0.754,0.62-1.219,0.818
		c-0.466,0.199-0.961,0.299-1.486,0.299h-1.041c-0.524,0-1.02-0.1-1.484-0.299c-0.466-0.198-0.872-0.471-1.219-0.818
		c-0.348-0.348-0.621-0.754-0.819-1.219s-0.298-0.961-0.298-1.485V9.026c0-0.524,0.1-1.021,0.298-1.485s0.472-0.871,0.819-1.219
		c0.347-0.348,0.753-0.62,1.219-0.818c0.465-0.199,0.96-0.299,1.484-0.299h1.041c0.525,0,1.021,0.1,1.486,0.299
		c0.465,0.198,0.871,0.471,1.219,0.818c0.347,0.348,0.619,0.754,0.818,1.219s0.299,0.961,0.299,1.485v5.865
		C22.053,15.416,21.953,15.912,21.754,16.377z M20.49,8.938c0-0.313-0.059-0.607-0.178-0.883c-0.118-0.274-0.279-0.514-0.482-0.717
		s-0.441-0.363-0.717-0.482s-0.569-0.178-0.883-0.178h-1.041c-0.313,0-0.607,0.059-0.882,0.178s-0.515,0.279-0.718,0.482
		s-0.363,0.442-0.482,0.717c-0.118,0.275-0.178,0.57-0.178,0.883v6.043c0,0.313,0.06,0.607,0.178,0.883
		c0.119,0.274,0.279,0.514,0.482,0.717s0.443,0.363,0.718,0.482s0.569,0.178,0.882,0.178h1.041c0.313,0,0.607-0.059,0.883-0.178
		s0.514-0.279,0.717-0.482s0.364-0.442,0.482-0.717c0.119-0.275,0.178-0.57,0.178-0.883V8.938z"/>
	<path class="st0" d="M32.297,18.459V8.938c0-0.313-0.059-0.607-0.178-0.883c-0.118-0.274-0.279-0.514-0.482-0.717
		s-0.441-0.363-0.717-0.482s-0.569-0.178-0.883-0.178h-1.041c-0.313,0-0.607,0.059-0.882,0.178S27.6,7.135,27.396,7.338
		s-0.363,0.442-0.482,0.717c-0.118,0.275-0.178,0.57-0.178,0.883v9.521h-1.561v-13h0.52l0.852,1.32
		c0.355-0.482,0.801-0.865,1.339-1.148c0.538-0.284,1.124-0.426,1.759-0.426h0.393c0.525,0,1.021,0.1,1.486,0.299
		c0.465,0.198,0.871,0.471,1.219,0.818c0.347,0.348,0.619,0.754,0.818,1.219s0.299,0.961,0.299,1.485v9.433H32.297z"/>
	<path class="st0" d="M45.367,16.377c-0.199,0.465-0.472,0.871-0.818,1.219c-0.348,0.348-0.754,0.62-1.219,0.818
		c-0.466,0.199-0.961,0.299-1.486,0.299h-1.041c-0.524,0-1.02-0.1-1.484-0.299c-0.466-0.198-0.872-0.471-1.219-0.818
		c-0.348-0.348-0.621-0.754-0.819-1.219s-0.298-0.961-0.298-1.485V9.026c0-0.524,0.1-1.021,0.298-1.485S37.752,6.67,38.1,6.322
		c0.347-0.348,0.753-0.62,1.219-0.818c0.465-0.199,0.96-0.299,1.484-0.299h1.041c0.525,0,1.021,0.1,1.486,0.299
		c0.465,0.198,0.871,0.471,1.219,0.818c0.347,0.348,0.619,0.754,0.818,1.219s0.299,0.961,0.299,1.485v0.521l-1.563,0.254V8.938
		c0-0.313-0.059-0.607-0.178-0.883c-0.118-0.274-0.279-0.514-0.482-0.717s-0.441-0.363-0.717-0.482s-0.569-0.178-0.883-0.178h-1.041
		c-0.313,0-0.607,0.059-0.882,0.178s-0.515,0.279-0.718,0.482S38.84,7.78,38.721,8.055c-0.118,0.275-0.178,0.57-0.178,0.883v6.043
		c0,0.313,0.06,0.607,0.178,0.883c0.119,0.274,0.279,0.514,0.482,0.717s0.443,0.363,0.718,0.482s0.569,0.178,0.882,0.178h1.041
		c0.313,0,0.607-0.059,0.883-0.178s0.514-0.279,0.717-0.482s0.364-0.442,0.482-0.717c0.119-0.275,0.178-0.57,0.178-0.883v-0.863
		l1.563,0.254v0.521C45.666,15.416,45.566,15.912,45.367,16.377z"/>
	<path class="st0" d="M57.174,16.377c-0.199,0.465-0.472,0.871-0.818,1.219c-0.348,0.348-0.754,0.62-1.219,0.818
		c-0.466,0.199-0.961,0.299-1.486,0.299h-1.041c-0.524,0-1.02-0.1-1.484-0.299c-0.466-0.198-0.872-0.471-1.219-0.818
		c-0.348-0.348-0.621-0.754-0.819-1.219s-0.298-0.961-0.298-1.485V9.026c0-0.524,0.1-1.021,0.298-1.485s0.472-0.871,0.819-1.219
		c0.347-0.348,0.753-0.62,1.219-0.818c0.465-0.199,0.96-0.299,1.484-0.299h1.041c0.525,0,1.021,0.1,1.486,0.299
		c0.465,0.198,0.871,0.471,1.219,0.818c0.347,0.348,0.619,0.754,0.818,1.219s0.299,0.961,0.299,1.485v3.06H50.35v2.895
		c0,0.313,0.06,0.607,0.178,0.883c0.119,0.274,0.279,0.514,0.482,0.717s0.443,0.363,0.718,0.482s0.569,0.178,0.882,0.178h1.041
		c0.313,0,0.607-0.059,0.883-0.178s0.514-0.279,0.717-0.482s0.364-0.442,0.482-0.717c0.119-0.275,0.178-0.57,0.178-0.883v-0.863
		l1.563,0.254v0.521C57.473,15.416,57.373,15.912,57.174,16.377z M55.91,8.938c0-0.313-0.059-0.607-0.178-0.883
		c-0.118-0.274-0.279-0.514-0.482-0.717s-0.441-0.363-0.717-0.482s-0.569-0.178-0.883-0.178h-1.041
		c-0.313,0-0.607,0.059-0.882,0.178s-0.515,0.279-0.718,0.482s-0.363,0.442-0.482,0.717c-0.118,0.275-0.178,0.57-0.178,0.883v1.93
		h5.561V8.938z"/>
	<path class="st0" d="M68.98,16.377c-0.199,0.465-0.472,0.871-0.818,1.219c-0.348,0.348-0.754,0.62-1.219,0.818
		c-0.466,0.199-0.961,0.299-1.486,0.299h-0.393c-0.584,0-1.126-0.119-1.625-0.355c-0.5-0.236-0.928-0.566-1.283-0.99v6.297h-1.561
		V5.459h0.52l0.852,1.32c0.355-0.482,0.801-0.865,1.339-1.148c0.538-0.284,1.124-0.426,1.759-0.426h0.393
		c0.525,0,1.021,0.1,1.486,0.299c0.465,0.198,0.871,0.471,1.219,0.818c0.347,0.348,0.619,0.754,0.818,1.219s0.299,0.961,0.299,1.485
		v5.865C69.279,15.416,69.18,15.912,68.98,16.377z M67.717,8.938c0-0.313-0.059-0.607-0.178-0.883
		c-0.118-0.274-0.279-0.514-0.482-0.717s-0.441-0.363-0.717-0.482s-0.569-0.178-0.883-0.178h-1.041
		c-0.313,0-0.607,0.059-0.882,0.178s-0.515,0.279-0.718,0.482s-0.363,0.442-0.482,0.717c-0.118,0.275-0.178,0.57-0.178,0.883v6.043
		c0,0.313,0.06,0.607,0.178,0.883c0.119,0.274,0.279,0.514,0.482,0.717s0.443,0.363,0.718,0.482s0.569,0.178,0.882,0.178h1.041
		c0.313,0,0.607-0.059,0.883-0.178s0.514-0.279,0.717-0.482s0.364-0.442,0.482-0.717c0.119-0.275,0.178-0.57,0.178-0.883V8.938z"/>
	<path class="st0" d="M77.137,18.459c-0.474,0-0.92-0.089-1.339-0.267s-0.782-0.423-1.092-0.736s-0.554-0.677-0.736-1.092
		s-0.272-0.858-0.272-1.333V6.944h-2.336V5.459h2.336V2.336l1.561-0.254v3.377h3.301v1.485h-3.301v8.163
		c0,0.262,0.049,0.506,0.146,0.73c0.098,0.224,0.23,0.42,0.4,0.59c0.169,0.17,0.367,0.303,0.596,0.4
		c0.229,0.097,0.475,0.146,0.736,0.146h1.422v1.485H77.137z"/>
	<path class="st0" d="M89.813,16.377c-0.198,0.465-0.472,0.871-0.819,1.219c-0.347,0.348-0.753,0.62-1.219,0.818
		c-0.465,0.199-0.96,0.299-1.484,0.299H85.25c-0.525,0-1.021-0.1-1.486-0.299c-0.465-0.198-0.871-0.471-1.219-0.818
		c-0.347-0.348-0.619-0.754-0.818-1.219s-0.299-0.961-0.299-1.485V9.026c0-0.524,0.1-1.021,0.299-1.485s0.472-0.871,0.818-1.219
		c0.348-0.348,0.754-0.62,1.219-0.818c0.466-0.199,0.961-0.299,1.486-0.299h1.041c0.524,0,1.02,0.1,1.484,0.299
		c0.466,0.198,0.872,0.471,1.219,0.818c0.348,0.348,0.621,0.754,0.819,1.219s0.298,0.961,0.298,1.485v5.865
		C90.111,15.416,90.012,15.912,89.813,16.377z M88.551,8.938c0-0.313-0.06-0.607-0.178-0.883c-0.119-0.274-0.279-0.514-0.482-0.717
		s-0.443-0.363-0.718-0.482s-0.569-0.178-0.882-0.178H85.25c-0.313,0-0.607,0.059-0.883,0.178s-0.514,0.279-0.717,0.482
		s-0.364,0.442-0.482,0.717c-0.119,0.275-0.178,0.57-0.178,0.883v6.043c0,0.313,0.059,0.607,0.178,0.883
		c0.118,0.274,0.279,0.514,0.482,0.717s0.441,0.363,0.717,0.482s0.569,0.178,0.883,0.178h1.041c0.313,0,0.607-0.059,0.882-0.178
		s0.515-0.279,0.718-0.482s0.363-0.442,0.482-0.717c0.118-0.275,0.178-0.57,0.178-0.883V8.938z"/>
	<path class="st0" d="M102.172,15.158c0,0.525-0.105,1.005-0.316,1.441c-0.212,0.436-0.5,0.811-0.863,1.123
		c-0.364,0.313-0.785,0.557-1.264,0.73c-0.479,0.173-0.979,0.26-1.504,0.26h-1.041c-0.525,0-1.027-0.1-1.505-0.299
		c-0.478-0.198-0.897-0.471-1.257-0.818s-0.647-0.754-0.863-1.219s-0.324-0.961-0.324-1.485v-0.521l1.563-0.254v0.863
		c0,0.313,0.064,0.607,0.196,0.883c0.132,0.274,0.307,0.514,0.526,0.717c0.221,0.203,0.475,0.363,0.762,0.482
		c0.288,0.119,0.589,0.178,0.902,0.178h1.041c0.313,0,0.613-0.047,0.9-0.14c0.288-0.093,0.545-0.227,0.769-0.399
		c0.224-0.174,0.401-0.383,0.533-0.629s0.196-0.525,0.196-0.838c0-0.465-0.102-0.846-0.305-1.143s-0.471-0.544-0.806-0.742
		c-0.335-0.199-0.716-0.364-1.143-0.496c-0.427-0.131-0.865-0.262-1.313-0.393c-0.449-0.132-0.887-0.281-1.314-0.451
		s-0.809-0.392-1.143-0.666c-0.334-0.275-0.604-0.621-0.807-1.035s-0.305-0.932-0.305-1.549c0-0.525,0.102-1.005,0.305-1.441
		c0.203-0.436,0.479-0.811,0.826-1.123c0.347-0.313,0.75-0.557,1.212-0.73c0.462-0.173,0.954-0.26,1.479-0.26h0.914
		c0.524,0,1.02,0.1,1.484,0.299c0.466,0.198,0.872,0.471,1.219,0.818c0.348,0.348,0.621,0.754,0.819,1.219s0.298,0.961,0.298,1.485
		v0.051l-1.561,0.254V8.938c0-0.313-0.06-0.607-0.178-0.883c-0.119-0.274-0.279-0.514-0.482-0.717s-0.443-0.363-0.718-0.482
		s-0.569-0.178-0.882-0.178h-0.914c-0.313,0-0.607,0.047-0.883,0.14s-0.514,0.227-0.717,0.399c-0.203,0.174-0.364,0.383-0.482,0.629
		c-0.119,0.246-0.178,0.525-0.178,0.838c0,0.449,0.102,0.814,0.305,1.098c0.203,0.284,0.471,0.523,0.806,0.718
		s0.716,0.357,1.143,0.489c0.427,0.131,0.863,0.266,1.308,0.406c0.444,0.139,0.881,0.298,1.308,0.476s0.808,0.406,1.143,0.686
		s0.603,0.628,0.806,1.048C102.07,14.021,102.172,14.541,102.172,15.158z"/>
	<path class="st0" d="M119.533,16.377c-0.199,0.465-0.472,0.871-0.818,1.219c-0.348,0.348-0.754,0.62-1.219,0.818
		c-0.466,0.199-0.961,0.299-1.486,0.299h-1.041c-0.524,0-1.02-0.1-1.484-0.299c-0.466-0.198-0.872-0.471-1.219-0.818
		c-0.348-0.348-0.621-0.754-0.819-1.219s-0.298-0.961-0.298-1.485V0.254h1.561v6.297c0.355-0.424,0.783-0.754,1.283-0.99
		c0.499-0.236,1.041-0.355,1.625-0.355h0.393c0.525,0,1.021,0.1,1.486,0.299c0.465,0.198,0.871,0.471,1.219,0.818
		c0.347,0.348,0.619,0.754,0.818,1.219s0.299,0.961,0.299,1.485v5.865C119.832,15.416,119.732,15.912,119.533,16.377z M118.27,8.938
		c0-0.313-0.059-0.607-0.178-0.883c-0.118-0.274-0.279-0.514-0.482-0.717s-0.441-0.363-0.717-0.482s-0.569-0.178-0.883-0.178h-1.041
		c-0.313,0-0.607,0.059-0.882,0.178s-0.515,0.279-0.718,0.482s-0.363,0.442-0.482,0.717c-0.118,0.275-0.178,0.57-0.178,0.883v6.043
		c0,0.313,0.06,0.607,0.178,0.883c0.119,0.274,0.279,0.514,0.482,0.717s0.443,0.363,0.718,0.482s0.569,0.178,0.882,0.178h1.041
		c0.313,0,0.607-0.059,0.883-0.178s0.514-0.279,0.717-0.482s0.364-0.442,0.482-0.717c0.119-0.275,0.178-0.57,0.178-0.883V8.938z"/>
	<path class="st0" d="M131.117,18.459l-0.863-1.295c-0.355,0.465-0.799,0.84-1.332,1.123c-0.533,0.284-1.117,0.426-1.752,0.426
		h-0.395c-0.524,0-1.02-0.1-1.484-0.299c-0.466-0.198-0.872-0.471-1.219-0.818c-0.348-0.348-0.621-0.754-0.819-1.219
		s-0.298-0.961-0.298-1.485v-0.127c0-0.524,0.1-1.021,0.298-1.485s0.472-0.871,0.819-1.219c0.347-0.348,0.753-0.62,1.219-0.818
		c0.465-0.199,0.96-0.299,1.484-0.299h3.301V8.938c0-0.313-0.059-0.607-0.178-0.883c-0.118-0.274-0.279-0.514-0.482-0.717
		s-0.441-0.363-0.717-0.482s-0.569-0.178-0.883-0.178h-0.914c-0.313,0-0.607,0.059-0.882,0.178s-0.515,0.279-0.718,0.482
		s-0.363,0.442-0.482,0.717c-0.118,0.275-0.178,0.57-0.178,0.883v0.47l-1.561-0.254V9.026c0-0.524,0.1-1.021,0.298-1.485
		s0.472-0.871,0.819-1.219c0.347-0.348,0.753-0.62,1.219-0.818c0.465-0.199,0.96-0.299,1.484-0.299h0.914
		c0.525,0,1.021,0.1,1.486,0.299c0.465,0.198,0.871,0.471,1.219,0.818c0.347,0.348,0.619,0.754,0.818,1.219s0.299,0.961,0.299,1.485
		v9.433H131.117z M130.076,12.162h-3.301c-0.313,0-0.607,0.059-0.882,0.178s-0.515,0.281-0.718,0.488
		c-0.203,0.208-0.363,0.449-0.482,0.725c-0.118,0.274-0.178,0.568-0.178,0.882v0.546c0,0.313,0.06,0.607,0.178,0.883
		c0.119,0.274,0.279,0.514,0.482,0.717s0.443,0.363,0.718,0.482s0.569,0.178,0.882,0.178h1.041c0.313,0,0.607-0.059,0.883-0.178
		s0.514-0.279,0.717-0.482s0.364-0.442,0.482-0.717c0.119-0.275,0.178-0.57,0.178-0.883V12.162z M126.648,3.377h-1.168l2.07-3.123
		h2.602L126.648,3.377z"/>
	<path class="st0" d="M143.699,15.158c0,0.525-0.106,1.005-0.318,1.441c-0.211,0.436-0.499,0.811-0.863,1.123
		c-0.363,0.313-0.785,0.557-1.263,0.73c-0.478,0.173-0.979,0.26-1.505,0.26h-1.041c-0.524,0-1.025-0.1-1.504-0.299
		c-0.479-0.198-0.896-0.471-1.257-0.818s-0.647-0.754-0.863-1.219s-0.323-0.961-0.323-1.485v-0.521l1.561-0.254v0.863
		c0,0.313,0.066,0.607,0.197,0.883c0.131,0.274,0.307,0.514,0.527,0.717c0.22,0.203,0.474,0.363,0.762,0.482
		c0.287,0.119,0.588,0.178,0.9,0.178h1.041c0.313,0,0.614-0.047,0.902-0.14c0.287-0.093,0.543-0.227,0.768-0.399
		c0.225-0.174,0.402-0.383,0.533-0.629s0.197-0.525,0.197-0.838c0-0.465-0.102-0.846-0.305-1.143s-0.473-0.544-0.807-0.742
		c-0.334-0.199-0.715-0.364-1.143-0.496c-0.428-0.131-0.865-0.262-1.314-0.393c-0.448-0.132-0.887-0.281-1.313-0.451
		s-0.808-0.392-1.143-0.666c-0.335-0.275-0.603-0.621-0.806-1.035s-0.305-0.932-0.305-1.549c0-0.525,0.102-1.005,0.305-1.441
		c0.203-0.436,0.478-0.811,0.824-1.123c0.348-0.313,0.752-0.557,1.213-0.73c0.461-0.173,0.954-0.26,1.479-0.26h0.914
		c0.525,0,1.021,0.1,1.486,0.299c0.465,0.198,0.871,0.471,1.219,0.818c0.347,0.348,0.619,0.754,0.818,1.219s0.299,0.961,0.299,1.485
		v0.051l-1.563,0.254V8.938c0-0.313-0.059-0.607-0.178-0.883c-0.118-0.274-0.279-0.514-0.482-0.717s-0.441-0.363-0.717-0.482
		s-0.569-0.178-0.883-0.178h-0.914c-0.313,0-0.607,0.047-0.882,0.14s-0.515,0.227-0.718,0.399c-0.203,0.174-0.363,0.383-0.482,0.629
		c-0.118,0.246-0.178,0.525-0.178,0.838c0,0.449,0.102,0.814,0.305,1.098c0.203,0.284,0.473,0.523,0.807,0.718
		s0.715,0.357,1.143,0.489c0.428,0.131,0.863,0.266,1.308,0.406c0.444,0.139,0.88,0.298,1.308,0.476s0.809,0.406,1.143,0.686
		s0.604,0.628,0.807,1.048C143.598,14.021,143.699,14.541,143.699,15.158z"/>
	<path class="st0" d="M147.088,2.336V0.254h1.816v2.082H147.088z M147.215,18.459v-13h1.563v13H147.215z"/>
	<path class="st0" d="M160.806,16.377c-0.198,0.465-0.472,0.871-0.819,1.219c-0.347,0.348-0.753,0.62-1.219,0.818
		c-0.465,0.199-0.96,0.299-1.484,0.299h-1.041c-0.525,0-1.021-0.1-1.486-0.299c-0.465-0.198-0.871-0.471-1.219-0.818
		c-0.347-0.348-0.619-0.754-0.818-1.219s-0.299-0.961-0.299-1.485V9.026c0-0.524,0.1-1.021,0.299-1.485s0.472-0.871,0.818-1.219
		c0.348-0.348,0.754-0.62,1.219-0.818c0.466-0.199,0.961-0.299,1.486-0.299h1.041c0.524,0,1.02,0.1,1.484,0.299
		c0.466,0.198,0.872,0.471,1.219,0.818c0.348,0.348,0.621,0.754,0.819,1.219s0.298,0.961,0.298,1.485v0.521l-1.561,0.254V8.938
		c0-0.313-0.06-0.607-0.178-0.883c-0.119-0.274-0.279-0.514-0.482-0.717s-0.443-0.363-0.718-0.482s-0.569-0.178-0.882-0.178h-1.041
		c-0.313,0-0.607,0.059-0.883,0.178s-0.514,0.279-0.717,0.482s-0.364,0.442-0.482,0.717c-0.119,0.275-0.178,0.57-0.178,0.883v6.043
		c0,0.313,0.059,0.607,0.178,0.883c0.118,0.274,0.279,0.514,0.482,0.717s0.441,0.363,0.717,0.482s0.569,0.178,0.883,0.178h1.041
		c0.313,0,0.607-0.059,0.882-0.178s0.515-0.279,0.718-0.482s0.363-0.442,0.482-0.717c0.118-0.275,0.178-0.57,0.178-0.883v-0.863
		l1.561,0.254v0.521C161.104,15.416,161.004,15.912,160.806,16.377z"/>
	<path class="st0" d="M172.612,16.377c-0.198,0.465-0.472,0.871-0.819,1.219c-0.347,0.348-0.753,0.62-1.219,0.818
		c-0.465,0.199-0.96,0.299-1.484,0.299h-1.041c-0.525,0-1.021-0.1-1.486-0.299c-0.465-0.198-0.871-0.471-1.219-0.818
		c-0.347-0.348-0.619-0.754-0.818-1.219s-0.299-0.961-0.299-1.485V9.026c0-0.524,0.1-1.021,0.299-1.485s0.472-0.871,0.818-1.219
		c0.348-0.348,0.754-0.62,1.219-0.818c0.466-0.199,0.961-0.299,1.486-0.299h1.041c0.524,0,1.02,0.1,1.484,0.299
		c0.466,0.198,0.872,0.471,1.219,0.818c0.348,0.348,0.621,0.754,0.819,1.219s0.298,0.961,0.298,1.485v5.865
		C172.91,15.416,172.811,15.912,172.612,16.377z M171.35,8.938c0-0.313-0.06-0.607-0.178-0.883
		c-0.119-0.274-0.279-0.514-0.482-0.717s-0.443-0.363-0.718-0.482s-0.569-0.178-0.882-0.178h-1.041
		c-0.313,0-0.607,0.059-0.883,0.178s-0.514,0.279-0.717,0.482s-0.364,0.442-0.482,0.717c-0.119,0.275-0.178,0.57-0.178,0.883v6.043
		c0,0.313,0.059,0.607,0.178,0.883c0.118,0.274,0.279,0.514,0.482,0.717s0.441,0.363,0.717,0.482s0.569,0.178,0.883,0.178h1.041
		c0.313,0,0.607-0.059,0.882-0.178s0.515-0.279,0.718-0.482s0.363-0.442,0.482-0.717c0.118-0.275,0.178-0.57,0.178-0.883V8.938z"/>
	<path class="st0" d="M184.971,15.158c0,0.525-0.105,1.005-0.316,1.441c-0.212,0.436-0.5,0.811-0.863,1.123
		c-0.364,0.313-0.785,0.557-1.264,0.73c-0.479,0.173-0.979,0.26-1.504,0.26h-1.041c-0.525,0-1.027-0.1-1.505-0.299
		c-0.478-0.198-0.897-0.471-1.257-0.818s-0.647-0.754-0.863-1.219s-0.324-0.961-0.324-1.485v-0.521l1.563-0.254v0.863
		c0,0.313,0.064,0.607,0.196,0.883c0.132,0.274,0.307,0.514,0.526,0.717c0.221,0.203,0.475,0.363,0.762,0.482
		c0.288,0.119,0.589,0.178,0.902,0.178h1.041c0.313,0,0.613-0.047,0.9-0.14c0.288-0.093,0.545-0.227,0.769-0.399
		c0.224-0.174,0.401-0.383,0.533-0.629s0.196-0.525,0.196-0.838c0-0.465-0.102-0.846-0.305-1.143s-0.471-0.544-0.806-0.742
		c-0.335-0.199-0.716-0.364-1.143-0.496c-0.427-0.131-0.865-0.262-1.313-0.393c-0.449-0.132-0.887-0.281-1.314-0.451
		s-0.809-0.392-1.143-0.666c-0.334-0.275-0.604-0.621-0.807-1.035s-0.305-0.932-0.305-1.549c0-0.525,0.102-1.005,0.305-1.441
		c0.203-0.436,0.479-0.811,0.826-1.123c0.347-0.313,0.75-0.557,1.212-0.73c0.462-0.173,0.954-0.26,1.479-0.26h0.914
		c0.524,0,1.02,0.1,1.484,0.299c0.466,0.198,0.872,0.471,1.219,0.818c0.348,0.348,0.621,0.754,0.819,1.219s0.298,0.961,0.298,1.485
		v0.051l-1.561,0.254V8.938c0-0.313-0.06-0.607-0.178-0.883c-0.119-0.274-0.279-0.514-0.482-0.717s-0.443-0.363-0.718-0.482
		s-0.569-0.178-0.882-0.178h-0.914c-0.313,0-0.607,0.047-0.883,0.14s-0.514,0.227-0.717,0.399c-0.203,0.174-0.364,0.383-0.482,0.629
		c-0.119,0.246-0.178,0.525-0.178,0.838c0,0.449,0.102,0.814,0.305,1.098c0.203,0.284,0.471,0.523,0.806,0.718
		s0.716,0.357,1.143,0.489c0.427,0.131,0.863,0.266,1.308,0.406c0.444,0.139,0.881,0.298,1.308,0.476s0.808,0.406,1.143,0.686
		s0.603,0.628,0.806,1.048C184.869,14.021,184.971,14.541,184.971,15.158z"/>
	<path class="st0" d="M202.109,18.459l-0.863-1.32c-0.355,0.482-0.799,0.865-1.332,1.148c-0.533,0.284-1.117,0.426-1.752,0.426
		h-0.395c-0.524,0-1.02-0.1-1.484-0.299c-0.466-0.198-0.872-0.471-1.219-0.818c-0.348-0.348-0.621-0.754-0.819-1.219
		s-0.298-0.961-0.298-1.485V9.026c0-0.524,0.1-1.021,0.298-1.485s0.472-0.871,0.819-1.219c0.347-0.348,0.753-0.62,1.219-0.818
		c0.465-0.199,0.96-0.299,1.484-0.299h0.395c0.584,0,1.125,0.119,1.625,0.355c0.499,0.236,0.926,0.566,1.281,0.99V0.254h1.563
		v18.205H202.109z M201.068,8.938c0-0.313-0.059-0.607-0.178-0.883c-0.118-0.274-0.279-0.514-0.482-0.717s-0.441-0.363-0.717-0.482
		s-0.569-0.178-0.883-0.178h-1.041c-0.313,0-0.607,0.059-0.882,0.178s-0.515,0.279-0.718,0.482s-0.363,0.442-0.482,0.717
		c-0.118,0.275-0.178,0.57-0.178,0.883v6.043c0,0.313,0.06,0.607,0.178,0.883c0.119,0.274,0.279,0.514,0.482,0.717
		s0.443,0.363,0.718,0.482s0.569,0.178,0.882,0.178h1.041c0.313,0,0.607-0.059,0.883-0.178s0.514-0.279,0.717-0.482
		s0.364-0.442,0.482-0.717c0.119-0.275,0.178-0.57,0.178-0.883V8.938z"/>
	<path class="st0" d="M214.139,16.377c-0.199,0.465-0.472,0.871-0.818,1.219c-0.348,0.348-0.754,0.62-1.219,0.818
		c-0.466,0.199-0.961,0.299-1.486,0.299h-1.041c-0.524,0-1.02-0.1-1.484-0.299c-0.466-0.198-0.872-0.471-1.219-0.818
		c-0.348-0.348-0.621-0.754-0.819-1.219s-0.298-0.961-0.298-1.485V9.026c0-0.524,0.1-1.021,0.298-1.485s0.472-0.871,0.819-1.219
		c0.347-0.348,0.753-0.62,1.219-0.818c0.465-0.199,0.96-0.299,1.484-0.299h1.041c0.525,0,1.021,0.1,1.486,0.299
		c0.465,0.198,0.871,0.471,1.219,0.818c0.347,0.348,0.619,0.754,0.818,1.219s0.299,0.961,0.299,1.485v3.06h-7.123v2.895
		c0,0.313,0.06,0.607,0.178,0.883c0.119,0.274,0.279,0.514,0.482,0.717s0.443,0.363,0.718,0.482s0.569,0.178,0.882,0.178h1.041
		c0.313,0,0.607-0.059,0.883-0.178s0.514-0.279,0.717-0.482s0.364-0.442,0.482-0.717c0.119-0.275,0.178-0.57,0.178-0.883v-0.863
		l1.563,0.254v0.521C214.438,15.416,214.338,15.912,214.139,16.377z M212.875,8.938c0-0.313-0.059-0.607-0.178-0.883
		c-0.118-0.274-0.279-0.514-0.482-0.717s-0.441-0.363-0.717-0.482s-0.569-0.178-0.883-0.178h-1.041
		c-0.313,0-0.607,0.059-0.882,0.178s-0.515,0.279-0.718,0.482s-0.363,0.442-0.482,0.717c-0.118,0.275-0.178,0.57-0.178,0.883v1.93
		h5.561V8.938z"/>
	<path class="st0" d="M233.689,15.983c-0.232,0.542-0.553,1.016-0.959,1.422s-0.88,0.726-1.422,0.958
		c-0.541,0.233-1.121,0.35-1.738,0.35h-1.295c-0.618,0-1.2-0.116-1.746-0.35c-0.546-0.232-1.021-0.552-1.428-0.958
		s-0.727-0.88-0.959-1.422s-0.35-1.122-0.35-1.739V4.469c0-0.617,0.117-1.197,0.35-1.739s0.553-1.016,0.959-1.422
		s0.882-0.726,1.428-0.958c0.546-0.233,1.128-0.35,1.746-0.35h1.295c0.617,0,1.197,0.116,1.738,0.35
		c0.542,0.232,1.016,0.552,1.422,0.958s0.727,0.88,0.959,1.422s0.35,1.122,0.35,1.739v0.736L232.4,5.459v-0.99
		c0-0.406-0.076-0.785-0.229-1.137c-0.152-0.351-0.359-0.658-0.621-0.92c-0.263-0.262-0.57-0.47-0.921-0.622
		s-0.729-0.229-1.136-0.229h-1.143c-0.406,0-0.785,0.076-1.137,0.229s-0.66,0.36-0.927,0.622s-0.476,0.569-0.628,0.92
		c-0.152,0.352-0.229,0.73-0.229,1.137v9.775c0,0.406,0.076,0.785,0.229,1.137c0.152,0.351,0.361,0.66,0.628,0.926
		c0.267,0.268,0.575,0.477,0.927,0.629s0.73,0.229,1.137,0.229h1.143c0.406,0,0.785-0.076,1.136-0.229s0.658-0.361,0.921-0.629
		c0.262-0.266,0.469-0.575,0.621-0.926c0.152-0.352,0.229-0.73,0.229-1.137v-0.99l1.639,0.267v0.724
		C234.039,14.861,233.922,15.441,233.689,15.983z"/>
	<path class="st0" d="M247.66,14.244c0,0.617-0.125,1.197-0.374,1.739s-0.584,1.016-1.003,1.422s-0.906,0.726-1.46,0.958
		c-0.554,0.233-1.141,0.35-1.759,0.35h-1.307c-0.618,0-1.205-0.116-1.759-0.35c-0.554-0.232-1.041-0.552-1.46-0.958
		s-0.754-0.88-1.003-1.422s-0.374-1.122-0.374-1.739v-0.724l1.637-0.267v0.99c0,0.406,0.083,0.785,0.248,1.137
		c0.165,0.351,0.387,0.66,0.666,0.926c0.279,0.268,0.604,0.477,0.972,0.629s0.755,0.229,1.161,0.229h1.143
		c0.406,0,0.792-0.076,1.156-0.229c0.363-0.152,0.686-0.361,0.965-0.629c0.279-0.266,0.501-0.575,0.666-0.926
		c0.165-0.352,0.248-0.73,0.248-1.137v-0.546c0-0.626-0.123-1.147-0.369-1.562c-0.245-0.414-0.57-0.768-0.977-1.061
		c-0.406-0.291-0.865-0.539-1.378-0.742s-1.039-0.406-1.581-0.609c-0.541-0.203-1.068-0.428-1.58-0.673s-0.971-0.552-1.377-0.921
		c-0.406-0.367-0.732-0.818-0.979-1.352c-0.245-0.533-0.367-1.189-0.367-1.968V4.469c0-0.617,0.115-1.197,0.349-1.739
		s0.552-1.016,0.958-1.422s0.883-0.726,1.429-0.958c0.546-0.233,1.128-0.35,1.745-0.35h1.168c0.618,0,1.198,0.116,1.74,0.35
		c0.541,0.232,1.016,0.552,1.422,0.958s0.725,0.88,0.958,1.422s0.349,1.122,0.349,1.739v0.47l-1.637,0.267V4.469
		c0-0.406-0.076-0.785-0.229-1.137c-0.152-0.351-0.36-0.658-0.623-0.92c-0.262-0.262-0.568-0.47-0.92-0.622s-0.73-0.229-1.137-0.229
		h-1.016c-0.406,0-0.785,0.076-1.136,0.229s-0.66,0.36-0.927,0.622s-0.477,0.569-0.629,0.92c-0.152,0.352-0.229,0.73-0.229,1.137
		v0.343c0,0.584,0.123,1.075,0.369,1.473c0.245,0.397,0.57,0.738,0.977,1.022c0.406,0.283,0.865,0.528,1.378,0.736
		c0.513,0.207,1.039,0.418,1.581,0.635c0.541,0.215,1.068,0.452,1.58,0.711c0.512,0.258,0.971,0.575,1.377,0.951
		c0.406,0.377,0.732,0.836,0.979,1.378c0.245,0.542,0.367,1.202,0.367,1.98V14.244z"/>
	<path class="st0" d="M261.156,14.244c0,0.617-0.125,1.197-0.375,1.739s-0.584,1.016-1.003,1.422s-0.905,0.726-1.46,0.958
		c-0.555,0.233-1.141,0.35-1.758,0.35h-1.309c-0.617,0-1.203-0.116-1.758-0.35c-0.555-0.232-1.041-0.552-1.46-0.958
		s-0.753-0.88-1.003-1.422s-0.375-1.122-0.375-1.739v-0.724l1.639-0.267v0.99c0,0.406,0.082,0.785,0.247,1.137
		c0.165,0.351,0.388,0.66,0.667,0.926c0.279,0.268,0.603,0.477,0.971,0.629s0.756,0.229,1.162,0.229h1.143
		c0.406,0,0.791-0.076,1.154-0.229c0.364-0.152,0.686-0.361,0.965-0.629c0.279-0.266,0.502-0.575,0.667-0.926
		c0.165-0.352,0.247-0.73,0.247-1.137v-0.546c0-0.626-0.122-1.147-0.367-1.562c-0.246-0.414-0.572-0.768-0.979-1.061
		c-0.406-0.291-0.865-0.539-1.377-0.742s-1.039-0.406-1.58-0.609c-0.542-0.203-1.068-0.428-1.581-0.673s-0.972-0.552-1.378-0.921
		c-0.406-0.367-0.731-0.818-0.977-1.352c-0.246-0.533-0.369-1.189-0.369-1.968V4.469c0-0.617,0.117-1.197,0.35-1.739
		s0.553-1.016,0.959-1.422s0.882-0.726,1.428-0.958c0.546-0.233,1.128-0.35,1.746-0.35h1.168c0.617,0,1.197,0.116,1.738,0.35
		c0.542,0.232,1.016,0.552,1.422,0.958s0.727,0.88,0.959,1.422s0.35,1.122,0.35,1.739v0.47l-1.639,0.267V4.469
		c0-0.406-0.076-0.785-0.229-1.137c-0.152-0.351-0.359-0.658-0.621-0.92c-0.263-0.262-0.57-0.47-0.921-0.622
		s-0.729-0.229-1.136-0.229h-1.016c-0.406,0-0.785,0.076-1.137,0.229s-0.66,0.36-0.927,0.622s-0.476,0.569-0.628,0.92
		c-0.152,0.352-0.229,0.73-0.229,1.137v0.343c0,0.584,0.122,1.075,0.367,1.473c0.246,0.397,0.572,0.738,0.979,1.022
		c0.406,0.283,0.865,0.528,1.377,0.736c0.512,0.207,1.039,0.418,1.58,0.635c0.542,0.215,1.068,0.452,1.581,0.711
		c0.513,0.258,0.972,0.575,1.378,0.951c0.406,0.377,0.731,0.836,0.977,1.378c0.246,0.542,0.369,1.202,0.369,1.98V14.244z"/>
</g>
</svg>