<!-- Generator: Adobe Illustrator 17.0.0, SVG Export Plug-In  -->
<svg version="1.1"
	 xmlns="http://www.w3.org/2000/svg" xmlns:xlink="http://www.w3.org/1999/xlink" xmlns:a="http://ns.adobe.com/AdobeSVGViewerExtensions/3.0/"
	 x="0px" y="0px" width="240.297px" height="48.508px" viewBox="0 0 240.297 48.508"
	 style="enable-background:new 0 0 240.297 48.508;" xml:space="preserve">
<style type="text/css">
	.st0{fill-rule:evenodd;clip-rule:evenodd;fill:#888586;}
	.st1{fill-rule:evenodd;clip-rule:evenodd;fill:#E7E3E2;}
	.st2{fill-rule:evenodd;clip-rule:evenodd;fill:#E54F26;}
	.st3{fill-rule:evenodd;clip-rule:evenodd;}
	.st4{fill:#FFFFFF;}
</style>
<defs>
</defs>
<g>
	<polygon class="st0" points="0,44.001 0,48.508 162.631,48.508 240.297,48.508 240.297,44.001 220.863,44.001 162.631,44.001 
		104.363,44.001 	"/>
	<rect x="0" y="0" class="st1" width="240.297" height="45.504"/>
	<rect x="178.898" y="0" class="st2" width="61.398" height="45.504"/>
	<polygon class="st3" points="178.898,48.508 178.898,45.504 240.297,45.504 240.297,48.508 182.336,48.508 	"/>
	<g>
		<path d="M22.54,17.861h3.872c0.767,0,1.338,0.032,1.715,0.096c0.376,0.064,0.713,0.197,1.011,0.399
			c0.297,0.203,0.545,0.473,0.743,0.81s0.297,0.715,0.297,1.134c0,0.453-0.122,0.87-0.366,1.248
			c-0.244,0.379-0.576,0.663-0.994,0.853c0.59,0.172,1.044,0.465,1.36,0.879c0.317,0.414,0.477,0.901,0.477,1.46
			c0,0.441-0.103,0.869-0.308,1.285c-0.205,0.417-0.484,0.749-0.839,0.998s-0.792,0.402-1.312,0.459
			c-0.326,0.035-1.112,0.058-2.359,0.066H22.54V17.861z M24.496,19.474v2.24h1.281c0.763,0,1.236-0.012,1.421-0.033
			c0.335-0.04,0.598-0.155,0.789-0.347c0.192-0.192,0.288-0.444,0.288-0.757c0-0.3-0.083-0.543-0.248-0.73
			c-0.165-0.187-0.411-0.301-0.736-0.34c-0.194-0.022-0.751-0.033-1.672-0.033H24.496z M24.496,23.326v2.59h1.811
			c0.704,0,1.151-0.021,1.341-0.06c0.291-0.053,0.527-0.182,0.71-0.387c0.184-0.205,0.274-0.479,0.274-0.822
			c0-0.291-0.07-0.538-0.211-0.74c-0.142-0.203-0.345-0.351-0.611-0.442c-0.267-0.093-0.845-0.139-1.734-0.139H24.496z"/>
		<path d="M33.533,22.764c0-0.986,0.147-1.814,0.443-2.484c0.22-0.493,0.521-0.936,0.901-1.328c0.381-0.392,0.799-0.683,1.252-0.872
			c0.604-0.255,1.3-0.383,2.088-0.383c1.428,0,2.569,0.442,3.426,1.328c0.857,0.885,1.285,2.116,1.285,3.693
			c0,1.563-0.425,2.787-1.274,3.671c-0.851,0.883-1.987,1.324-3.41,1.324c-1.44,0-2.585-0.439-3.436-1.318
			S33.533,24.306,33.533,22.764z M35.549,22.698c0,1.097,0.253,1.928,0.76,2.494s1.149,0.849,1.93,0.849
			c0.779,0,1.419-0.28,1.919-0.842s0.75-1.404,0.75-2.527c0-1.11-0.243-1.938-0.73-2.484c-0.486-0.547-1.133-0.819-1.938-0.819
			c-0.807,0-1.456,0.276-1.949,0.829C35.795,20.75,35.549,21.584,35.549,22.698z"/>
		<path d="M46.086,27.548v-9.687h4.116c1.035,0,1.787,0.087,2.257,0.261c0.469,0.175,0.845,0.483,1.126,0.929
			c0.282,0.445,0.423,0.954,0.423,1.526c0,0.727-0.213,1.327-0.641,1.801s-1.066,0.771-1.916,0.895
			c0.423,0.247,0.771,0.518,1.047,0.813c0.275,0.295,0.646,0.819,1.113,1.572l1.184,1.89h-2.34l-1.414-2.107
			c-0.502-0.754-0.846-1.229-1.03-1.424c-0.186-0.196-0.381-0.331-0.588-0.403c-0.207-0.073-0.535-0.109-0.984-0.109h-0.396v4.044
			H46.086z M48.042,21.958h1.446c0.938,0,1.524-0.04,1.758-0.119s0.416-0.216,0.549-0.409c0.132-0.194,0.198-0.437,0.198-0.728
			c0-0.325-0.087-0.589-0.262-0.789c-0.174-0.2-0.419-0.327-0.736-0.38c-0.158-0.022-0.634-0.033-1.427-0.033h-1.526V21.958z"/>
		<path d="M57.468,17.861h3.575c0.806,0,1.42,0.062,1.844,0.185c0.567,0.168,1.055,0.465,1.46,0.893
			c0.405,0.427,0.714,0.95,0.925,1.569c0.212,0.619,0.317,1.382,0.317,2.289c0,0.798-0.1,1.484-0.298,2.062
			c-0.242,0.705-0.588,1.275-1.037,1.712c-0.339,0.33-0.797,0.588-1.374,0.772c-0.432,0.137-1.009,0.205-1.731,0.205h-3.681V17.861z
			 M59.424,19.5v6.416h1.46c0.547,0,0.94-0.031,1.184-0.093c0.316-0.079,0.58-0.214,0.789-0.403s0.38-0.501,0.512-0.935
			c0.133-0.434,0.198-1.025,0.198-1.774s-0.065-1.323-0.198-1.725c-0.132-0.4-0.316-0.713-0.555-0.938
			c-0.237-0.225-0.54-0.377-0.905-0.456C61.635,19.531,61.1,19.5,60.303,19.5H59.424z"/>
		<path d="M68.871,27.548v-9.687h7.183V19.5h-5.227v2.147h4.863v1.632h-4.863v2.637h5.411v1.632H68.871z"/>
		<path d="M79.527,27.548v-9.687h4.116c1.035,0,1.787,0.087,2.257,0.261c0.469,0.175,0.845,0.483,1.126,0.929
			c0.282,0.445,0.423,0.954,0.423,1.526c0,0.727-0.213,1.327-0.641,1.801s-1.066,0.771-1.916,0.895
			c0.423,0.247,0.771,0.518,1.047,0.813c0.275,0.295,0.646,0.819,1.113,1.572l1.184,1.89h-2.34l-1.414-2.107
			c-0.502-0.754-0.846-1.229-1.03-1.424c-0.186-0.196-0.381-0.331-0.588-0.403c-0.207-0.073-0.535-0.109-0.984-0.109h-0.396v4.044
			H79.527z M81.483,21.958h1.446c0.938,0,1.524-0.04,1.758-0.119s0.416-0.216,0.549-0.409c0.132-0.194,0.198-0.437,0.198-0.728
			c0-0.325-0.087-0.589-0.262-0.789c-0.174-0.2-0.419-0.327-0.736-0.38c-0.158-0.022-0.634-0.033-1.427-0.033h-1.526V21.958z"/>
		<path d="M90.692,24.964v-1.856h3.647v1.856H90.692z"/>
		<path d="M97.054,27.548v-9.687h4.116c1.035,0,1.787,0.087,2.257,0.261c0.469,0.175,0.845,0.483,1.126,0.929
			c0.282,0.445,0.423,0.954,0.423,1.526c0,0.727-0.213,1.327-0.641,1.801s-1.066,0.771-1.916,0.895
			c0.423,0.247,0.771,0.518,1.047,0.813c0.275,0.295,0.646,0.819,1.113,1.572l1.184,1.89h-2.34l-1.414-2.107
			c-0.502-0.754-0.846-1.229-1.03-1.424c-0.186-0.196-0.381-0.331-0.588-0.403c-0.207-0.073-0.535-0.109-0.984-0.109H99.01v4.044
			H97.054z M99.01,21.958h1.446c0.938,0,1.524-0.04,1.758-0.119s0.416-0.216,0.549-0.409c0.132-0.194,0.198-0.437,0.198-0.728
			c0-0.325-0.087-0.589-0.262-0.789c-0.174-0.2-0.419-0.327-0.736-0.38c-0.158-0.022-0.634-0.033-1.427-0.033H99.01V21.958z"/>
		<path d="M117.179,27.548h-2.128l-0.846-2.2h-3.872l-0.799,2.2h-2.075l3.772-9.687h2.068L117.179,27.548z M113.577,23.716
			l-1.334-3.595l-1.309,3.595H113.577z"/>
		<path d="M119.832,17.861h3.575c0.806,0,1.42,0.062,1.844,0.185c0.567,0.168,1.055,0.465,1.46,0.893
			c0.405,0.427,0.714,0.95,0.925,1.569c0.212,0.619,0.317,1.382,0.317,2.289c0,0.798-0.1,1.484-0.298,2.062
			c-0.242,0.705-0.588,1.275-1.037,1.712c-0.339,0.33-0.797,0.588-1.374,0.772c-0.432,0.137-1.009,0.205-1.731,0.205h-3.681V17.861z
			 M121.788,19.5v6.416h1.46c0.547,0,0.94-0.031,1.184-0.093c0.316-0.079,0.58-0.214,0.789-0.403s0.38-0.501,0.512-0.935
			c0.133-0.434,0.198-1.025,0.198-1.774s-0.065-1.323-0.198-1.725c-0.132-0.4-0.316-0.713-0.555-0.938
			c-0.237-0.225-0.54-0.377-0.905-0.456c-0.273-0.062-0.809-0.093-1.605-0.093H121.788z"/>
		<path d="M131.176,27.548v-9.687h1.956v9.687H131.176z"/>
		<path d="M136.606,17.861h1.955v5.246c0,0.833,0.024,1.372,0.073,1.619c0.083,0.396,0.283,0.715,0.598,0.955
			c0.315,0.239,0.746,0.359,1.292,0.359c0.555,0,0.974-0.113,1.255-0.34c0.282-0.227,0.452-0.506,0.509-0.836
			c0.058-0.33,0.086-0.879,0.086-1.646v-5.358h1.956v5.088c0,1.163-0.053,1.984-0.158,2.465c-0.106,0.479-0.301,0.885-0.585,1.216
			c-0.284,0.33-0.664,0.593-1.14,0.789s-1.097,0.294-1.863,0.294c-0.925,0-1.627-0.106-2.104-0.32
			c-0.479-0.214-0.855-0.491-1.134-0.833c-0.277-0.341-0.46-0.699-0.548-1.073c-0.128-0.555-0.191-1.374-0.191-2.458V17.861z"/>
		<path d="M147.521,24.396l1.902-0.186c0.115,0.639,0.348,1.108,0.697,1.407c0.351,0.3,0.822,0.449,1.417,0.449
			c0.63,0,1.104-0.133,1.425-0.399c0.319-0.267,0.479-0.578,0.479-0.935c0-0.229-0.067-0.424-0.201-0.585
			c-0.135-0.161-0.369-0.301-0.704-0.42c-0.229-0.079-0.751-0.22-1.565-0.423c-1.049-0.26-1.784-0.579-2.207-0.958
			c-0.595-0.533-0.893-1.183-0.893-1.949c0-0.493,0.14-0.955,0.42-1.384c0.279-0.43,0.683-0.757,1.209-0.981
			s1.162-0.337,1.906-0.337c1.216,0,2.131,0.267,2.745,0.8c0.615,0.532,0.938,1.244,0.969,2.134l-1.956,0.086
			c-0.084-0.498-0.264-0.855-0.539-1.074c-0.275-0.218-0.688-0.326-1.238-0.326c-0.568,0-1.014,0.116-1.335,0.35
			c-0.207,0.15-0.311,0.351-0.311,0.602c0,0.229,0.097,0.425,0.291,0.588c0.246,0.207,0.846,0.423,1.797,0.647
			s1.655,0.457,2.111,0.697s0.813,0.568,1.07,0.984s0.387,0.931,0.387,1.543c0,0.555-0.154,1.075-0.463,1.56
			s-0.744,0.845-1.309,1.08c-0.563,0.235-1.266,0.354-2.107,0.354c-1.225,0-2.165-0.283-2.821-0.85
			C148.04,26.305,147.647,25.479,147.521,24.396z"/>
	</g>
	<g id="XMLID_1_">
		<path id="XMLID_3_" class="st4" d="M193.236,35.93c-0.832,0.837-0.832,2.089,0,3.029l0.523,0.521c0.834,0.834,2.191,0.834,3.029,0
			l6.68-6.681c0.413-0.522,0.625-1.045,0.625-1.672l2.193-2.191c5.008,3.758,12.107,3.447,16.701-1.146
			c5.012-5.012,5.012-13.05,0-18.058c-5.01-5.012-13.049-5.012-18.059,0c-4.594,4.592-4.908,11.689-1.15,16.7l-2.191,2.191
			c-0.623,0-1.252,0.208-1.67,0.628L193.236,35.93L193.236,35.93z M207.748,24.971c-3.445-3.445-3.551-9.083,0-12.525
			c3.443-3.445,9.078-3.445,12.525,0c3.443,3.442,3.443,9.08,0,12.525C216.826,28.416,211.191,28.416,207.748,24.971L207.748,24.971
			z"/>
		<path id="XMLID_2_" class="st4" d="M210.461,17.35h2.088v-2.086c0-0.732,0.627-1.358,1.355-1.358l0,0
			c0.734,0,1.358,0.626,1.358,1.358v2.086h2.089c0.73,0,1.357,0.627,1.357,1.356l0,0c0,0.733-0.628,1.358-1.357,1.358h-2.089v2.09
			c0,0.728-0.624,1.357-1.358,1.357l0,0c-0.729,0-1.355-0.63-1.355-1.357v-2.09h-2.088c-0.73,0-1.357-0.624-1.357-1.358l0,0
			C209.104,17.976,209.731,17.35,210.461,17.35L210.461,17.35z"/>
	</g>
</g>
</svg>