<!-- Generator: Adobe Illustrator 17.0.0, SVG Export Plug-In  -->
<svg version="1.1"
	 xmlns="http://www.w3.org/2000/svg" xmlns:xlink="http://www.w3.org/1999/xlink" xmlns:a="http://ns.adobe.com/AdobeSVGViewerExtensions/3.0/"
	 x="0px" y="0px" width="437.818px" height="78.776px" viewBox="0 0 437.818 78.776"
	 style="enable-background:new 0 0 437.818 78.776;" xml:space="preserve">
<style type="text/css">
	.st0{fill:#FFFFFF;stroke:#000000;stroke-width:3;stroke-miterlimit:10;}
	.st1{fill:none;stroke:#000000;stroke-miterlimit:10;}
	.st2{fill:none;stroke:#000000;stroke-width:0.75;stroke-miterlimit:10;}
	.st3{fill:none;stroke:#E54F26;stroke-width:0.75;stroke-miterlimit:10;}
</style>
<defs>
</defs>
<g>
	<g>
		<polygon class="st0" points="436.318,77.276 234.85,77.276 1.5,77.276 1.5,1.5 436.318,1.5 		"/>
		<rect x="12.458" y="9.245" class="st1" width="230.877" height="60.199"/>
		<g>
			<path d="M14.377,16.374l0.284-1.391h-0.552v-0.486h0.649L15,13.312h-0.891v-0.485h0.989l0.283-1.4h0.489l-0.283,1.4h1.027
				l0.284-1.4h0.493l-0.284,1.4h0.564v0.485h-0.662l-0.245,1.185h0.907v0.486h-1.005l-0.284,1.391h-0.489l0.28-1.391H15.15
				l-0.284,1.391H14.377z M15.248,14.497h1.024l0.245-1.185H15.49L15.248,14.497z"/>
			<path d="M18.198,16.292v-3.465h0.525v0.485c0.108-0.169,0.254-0.306,0.434-0.409c0.181-0.104,0.387-0.155,0.617-0.155
				c0.257,0,0.467,0.054,0.631,0.16c0.165,0.106,0.28,0.256,0.348,0.447c0.274-0.405,0.631-0.607,1.07-0.607
				c0.344,0,0.608,0.096,0.793,0.286c0.186,0.19,0.277,0.483,0.277,0.879v2.379H22.31v-2.183c0-0.235-0.019-0.404-0.057-0.508
				s-0.107-0.187-0.207-0.25c-0.101-0.063-0.218-0.094-0.353-0.094c-0.244,0-0.446,0.081-0.607,0.242
				c-0.161,0.162-0.241,0.422-0.241,0.778v2.014h-0.588V14.04c0-0.261-0.048-0.456-0.144-0.587s-0.252-0.195-0.47-0.195
				c-0.165,0-0.317,0.043-0.458,0.13s-0.242,0.215-0.306,0.382c-0.063,0.168-0.094,0.409-0.094,0.725v1.798H18.198z"/>
			<path d="M26.137,15.176l0.607,0.075c-0.096,0.354-0.273,0.63-0.532,0.825c-0.259,0.196-0.59,0.294-0.992,0.294
				c-0.507,0-0.908-0.156-1.205-0.468c-0.297-0.313-0.445-0.75-0.445-1.313c0-0.583,0.149-1.035,0.45-1.357
				c0.3-0.322,0.689-0.483,1.168-0.483c0.463,0,0.842,0.158,1.136,0.474c0.293,0.315,0.44,0.759,0.44,1.331
				c0,0.035-0.001,0.087-0.004,0.156h-2.584c0.021,0.381,0.13,0.673,0.323,0.875s0.435,0.304,0.725,0.304
				c0.215,0,0.398-0.057,0.551-0.17S26.048,15.424,26.137,15.176z M24.209,14.227h1.935c-0.026-0.292-0.101-0.51-0.222-0.656
				c-0.188-0.226-0.43-0.339-0.728-0.339c-0.271,0-0.497,0.09-0.681,0.271S24.229,13.924,24.209,14.227z"/>
			<path d="M27.481,16.292v-3.465h0.528v0.492c0.255-0.381,0.622-0.571,1.104-0.571c0.209,0,0.4,0.038,0.575,0.113
				c0.176,0.074,0.307,0.173,0.394,0.295s0.148,0.267,0.183,0.434c0.021,0.109,0.033,0.3,0.033,0.571v2.131H29.71v-2.107
				c0-0.24-0.022-0.419-0.068-0.537c-0.046-0.119-0.127-0.213-0.243-0.284c-0.116-0.07-0.253-0.105-0.409-0.105
				c-0.25,0-0.467,0.079-0.647,0.237c-0.182,0.159-0.272,0.461-0.272,0.904v1.893H27.481z"/>
			<path d="M33.47,16.292v-0.509c-0.271,0.392-0.637,0.587-1.1,0.587c-0.205,0-0.396-0.039-0.573-0.117
				c-0.177-0.078-0.309-0.177-0.395-0.295c-0.086-0.119-0.146-0.265-0.182-0.437c-0.023-0.115-0.035-0.298-0.035-0.548v-2.146h0.587
				v1.922c0,0.307,0.012,0.513,0.036,0.619c0.037,0.155,0.115,0.276,0.234,0.364c0.12,0.088,0.268,0.132,0.444,0.132
				c0.176,0,0.342-0.045,0.496-0.135c0.154-0.091,0.264-0.214,0.328-0.369c0.063-0.155,0.096-0.381,0.096-0.677v-1.856h0.588v3.465
				H33.47z"/>
			<path d="M34.66,14.295c0.168-0.004,0.305-0.05,0.41-0.136s0.176-0.203,0.21-0.354c0.035-0.15,0.054-0.407,0.056-0.771
				s0.009-0.603,0.02-0.718c0.02-0.183,0.056-0.329,0.109-0.44c0.054-0.11,0.119-0.199,0.197-0.266s0.179-0.117,0.301-0.152
				c0.082-0.021,0.217-0.032,0.404-0.032h0.183v0.513h-0.101c-0.227,0-0.377,0.04-0.451,0.122c-0.073,0.081-0.11,0.264-0.11,0.547
				c0,0.569-0.012,0.93-0.036,1.08c-0.039,0.232-0.106,0.412-0.2,0.538c-0.095,0.126-0.243,0.238-0.446,0.336
				c0.239,0.101,0.413,0.253,0.521,0.459c0.108,0.205,0.162,0.542,0.162,1.01c0,0.424,0.004,0.676,0.013,0.757
				c0.018,0.147,0.062,0.251,0.132,0.31c0.071,0.059,0.21,0.089,0.417,0.089h0.101v0.512h-0.183c-0.213,0-0.368-0.018-0.463-0.052
				c-0.14-0.051-0.255-0.132-0.347-0.243c-0.091-0.112-0.15-0.254-0.178-0.426s-0.042-0.454-0.044-0.846
				c-0.002-0.392-0.021-0.662-0.056-0.812c-0.034-0.149-0.104-0.269-0.21-0.355s-0.242-0.133-0.41-0.137V14.295z"/>
			<path d="M51.764,23.786l0.085,0.519c-0.165,0.035-0.313,0.053-0.443,0.053c-0.214,0-0.379-0.034-0.496-0.102
				s-0.2-0.156-0.248-0.266c-0.048-0.11-0.072-0.341-0.072-0.693v-1.994h-0.431v-0.456h0.431v-0.858l0.584-0.353v1.211h0.591v0.456
				h-0.591v2.026c0,0.168,0.011,0.275,0.031,0.323s0.055,0.086,0.102,0.114s0.113,0.042,0.2,0.042
				C51.571,23.809,51.657,23.802,51.764,23.786z"/>
			<path d="M54.71,23.195l0.607,0.075c-0.096,0.354-0.273,0.63-0.532,0.825c-0.259,0.196-0.59,0.294-0.992,0.294
				c-0.507,0-0.908-0.156-1.205-0.468c-0.297-0.313-0.445-0.75-0.445-1.313c0-0.583,0.149-1.035,0.45-1.357
				c0.3-0.322,0.689-0.483,1.168-0.483c0.463,0,0.842,0.158,1.136,0.474c0.293,0.315,0.44,0.759,0.44,1.331
				c0,0.035-0.001,0.087-0.004,0.156h-2.584c0.021,0.381,0.13,0.673,0.323,0.875s0.435,0.304,0.725,0.304
				c0.215,0,0.398-0.057,0.551-0.17S54.621,23.443,54.71,23.195z M52.782,22.246h1.935c-0.026-0.292-0.101-0.51-0.222-0.656
				c-0.188-0.226-0.43-0.339-0.728-0.339c-0.271,0-0.497,0.09-0.681,0.271S52.802,21.943,52.782,22.246z"/>
			<path d="M55.663,24.312l1.267-1.801l-1.172-1.664h0.734l0.531,0.812c0.101,0.155,0.181,0.284,0.242,0.389
				c0.096-0.144,0.184-0.271,0.264-0.382l0.584-0.818h0.702l-1.197,1.631l1.288,1.834h-0.721l-0.711-1.077l-0.189-0.29l-0.91,1.367
				H55.663z"/>
			<path d="M60.679,23.786l0.085,0.519c-0.165,0.035-0.313,0.053-0.443,0.053c-0.214,0-0.379-0.034-0.496-0.102
				s-0.2-0.156-0.248-0.266c-0.048-0.11-0.072-0.341-0.072-0.693v-1.994h-0.431v-0.456h0.431v-0.858l0.584-0.353v1.211h0.591v0.456
				h-0.591v2.026c0,0.168,0.011,0.275,0.031,0.323s0.055,0.086,0.102,0.114s0.113,0.042,0.2,0.042
				C60.486,23.809,60.572,23.802,60.679,23.786z"/>
			<path d="M61.024,22.876v-0.591h1.805v0.591H61.024z"/>
			<path d="M65.74,23.884c-0.218,0.186-0.428,0.315-0.629,0.392s-0.417,0.114-0.647,0.114c-0.381,0-0.673-0.093-0.878-0.278
				c-0.204-0.187-0.307-0.424-0.307-0.714c0-0.169,0.039-0.324,0.116-0.465c0.077-0.14,0.179-0.253,0.304-0.338
				c0.125-0.084,0.266-0.148,0.422-0.192c0.115-0.03,0.29-0.06,0.522-0.088c0.475-0.057,0.823-0.124,1.048-0.202
				c0.002-0.08,0.003-0.132,0.003-0.153c0-0.239-0.056-0.408-0.167-0.506c-0.149-0.133-0.373-0.199-0.669-0.199
				c-0.275,0-0.479,0.049-0.611,0.146s-0.229,0.268-0.292,0.514l-0.574-0.078c0.052-0.246,0.138-0.444,0.258-0.596
				c0.119-0.151,0.292-0.268,0.519-0.349c0.227-0.082,0.488-0.123,0.786-0.123c0.296,0,0.536,0.035,0.722,0.104
				c0.185,0.07,0.32,0.157,0.407,0.263c0.088,0.105,0.148,0.239,0.184,0.4c0.02,0.1,0.029,0.28,0.029,0.541v0.783
				c0,0.546,0.012,0.892,0.037,1.036s0.074,0.283,0.148,0.416h-0.613C65.797,24.189,65.757,24.047,65.74,23.884z M65.691,22.572
				c-0.214,0.087-0.533,0.161-0.96,0.222c-0.241,0.035-0.412,0.074-0.512,0.118c-0.101,0.043-0.178,0.106-0.232,0.19
				c-0.054,0.084-0.081,0.177-0.081,0.279c0,0.156,0.059,0.287,0.178,0.392c0.118,0.104,0.292,0.156,0.521,0.156
				c0.226,0,0.428-0.05,0.604-0.148s0.306-0.234,0.389-0.406c0.063-0.133,0.095-0.328,0.095-0.587V22.572z"/>
			<path d="M67.183,24.312v-4.783h0.587v4.783H67.183z"/>
			<path d="M68.683,20.203v-0.675h0.588v0.675H68.683z M68.683,24.312v-3.465h0.588v3.465H68.683z"/>
			<path d="M70.057,24.599l0.571,0.085c0.023,0.176,0.09,0.305,0.198,0.385c0.146,0.109,0.345,0.163,0.598,0.163
				c0.271,0,0.481-0.054,0.63-0.163c0.147-0.108,0.248-0.261,0.3-0.457c0.03-0.119,0.045-0.37,0.043-0.753
				c-0.257,0.302-0.577,0.453-0.96,0.453c-0.477,0-0.845-0.172-1.106-0.516c-0.261-0.344-0.391-0.756-0.391-1.236
				c0-0.331,0.06-0.636,0.179-0.916c0.12-0.279,0.293-0.495,0.521-0.647s0.494-0.229,0.802-0.229c0.408,0,0.746,0.166,1.011,0.496
				v-0.417h0.542v2.995c0,0.539-0.055,0.922-0.165,1.146c-0.109,0.226-0.283,0.403-0.521,0.534c-0.238,0.13-0.531,0.195-0.88,0.195
				c-0.413,0-0.747-0.093-1.002-0.279C70.171,25.253,70.048,24.973,70.057,24.599z M70.543,22.517c0,0.455,0.09,0.787,0.271,0.995
				c0.181,0.209,0.407,0.313,0.679,0.313c0.27,0,0.496-0.104,0.679-0.312s0.274-0.533,0.274-0.978c0-0.424-0.095-0.744-0.282-0.959
				c-0.188-0.216-0.415-0.323-0.681-0.323c-0.261,0-0.483,0.106-0.666,0.318S70.543,22.1,70.543,22.517z"/>
			<path d="M73.881,24.312v-3.465h0.528v0.492c0.255-0.381,0.622-0.571,1.104-0.571c0.209,0,0.4,0.038,0.575,0.113
				c0.176,0.074,0.307,0.173,0.394,0.295s0.148,0.267,0.183,0.434c0.021,0.109,0.033,0.3,0.033,0.571v2.131h-0.588v-2.107
				c0-0.24-0.022-0.419-0.068-0.537c-0.046-0.119-0.127-0.213-0.243-0.284c-0.116-0.07-0.253-0.105-0.409-0.105
				c-0.25,0-0.467,0.079-0.647,0.237c-0.182,0.159-0.272,0.461-0.272,0.904v1.893H73.881z"/>
			<path d="M77.761,21.515v-0.668h0.669v0.668H77.761z M77.761,24.312v-0.669h0.669v0.669H77.761z"/>
			<path d="M81.298,24.312v-4.783h0.587v4.783H81.298z"/>
			<path d="M85.167,23.195l0.607,0.075c-0.096,0.354-0.273,0.63-0.532,0.825c-0.259,0.196-0.59,0.294-0.992,0.294
				c-0.507,0-0.908-0.156-1.205-0.468c-0.297-0.313-0.445-0.75-0.445-1.313c0-0.583,0.149-1.035,0.45-1.357
				c0.3-0.322,0.689-0.483,1.168-0.483c0.463,0,0.842,0.158,1.136,0.474c0.293,0.315,0.44,0.759,0.44,1.331
				c0,0.035-0.001,0.087-0.004,0.156h-2.584c0.021,0.381,0.13,0.673,0.323,0.875s0.435,0.304,0.725,0.304
				c0.215,0,0.398-0.057,0.551-0.17S85.078,23.443,85.167,23.195z M83.239,22.246h1.935c-0.026-0.292-0.101-0.51-0.222-0.656
				c-0.188-0.226-0.43-0.339-0.728-0.339c-0.271,0-0.497,0.09-0.681,0.271S83.259,21.943,83.239,22.246z"/>
			<path d="M86.652,24.312v-3.009h-0.52v-0.456h0.52v-0.369c0-0.232,0.021-0.405,0.062-0.519c0.057-0.152,0.156-0.276,0.299-0.371
				c0.143-0.094,0.342-0.142,0.599-0.142c0.165,0,0.348,0.02,0.548,0.059l-0.088,0.513c-0.122-0.021-0.237-0.033-0.346-0.033
				c-0.179,0-0.305,0.038-0.379,0.114c-0.073,0.076-0.11,0.219-0.11,0.428v0.32h0.676v0.456h-0.676v3.009H86.652z"/>
			<path d="M89.65,23.786l0.085,0.519c-0.165,0.035-0.313,0.053-0.443,0.053c-0.214,0-0.379-0.034-0.496-0.102
				s-0.2-0.156-0.248-0.266c-0.048-0.11-0.072-0.341-0.072-0.693v-1.994h-0.431v-0.456h0.431v-0.858l0.584-0.353v1.211h0.591v0.456
				H89.06v2.026c0,0.168,0.011,0.275,0.031,0.323s0.055,0.086,0.102,0.114s0.113,0.042,0.2,0.042
				C89.458,23.809,89.544,23.802,89.65,23.786z"/>
			<path d="M90.378,24.312v-0.669h0.669v0.669c0,0.246-0.043,0.444-0.131,0.596c-0.087,0.151-0.225,0.268-0.414,0.351l-0.163-0.251
				c0.124-0.055,0.216-0.135,0.274-0.24s0.091-0.257,0.098-0.455H90.378z M90.378,21.515v-0.668h0.669v0.668H90.378z"/>
			<path d="M51.023,32.33h-0.545v-4.783h0.587v1.706c0.248-0.311,0.564-0.467,0.95-0.467c0.213,0,0.414,0.043,0.604,0.129
				s0.348,0.207,0.47,0.362c0.123,0.155,0.22,0.344,0.289,0.563s0.104,0.454,0.104,0.704c0,0.594-0.146,1.053-0.44,1.377
				s-0.646,0.486-1.058,0.486c-0.408,0-0.729-0.171-0.962-0.512V32.33z M51.017,30.571c0,0.416,0.057,0.716,0.17,0.9
				c0.185,0.303,0.435,0.454,0.75,0.454c0.257,0,0.479-0.111,0.666-0.335c0.187-0.223,0.28-0.555,0.28-0.997
				c0-0.452-0.09-0.786-0.269-1.001c-0.18-0.216-0.396-0.323-0.651-0.323c-0.257,0-0.479,0.111-0.666,0.334
				C51.11,29.827,51.017,30.149,51.017,30.571z"/>
			<path d="M56.46,31.902c-0.218,0.186-0.428,0.315-0.629,0.392s-0.417,0.114-0.647,0.114c-0.381,0-0.673-0.093-0.878-0.278
				c-0.204-0.187-0.307-0.424-0.307-0.714c0-0.169,0.039-0.324,0.116-0.465c0.077-0.14,0.179-0.253,0.304-0.338
				c0.125-0.084,0.266-0.148,0.422-0.192c0.115-0.03,0.29-0.06,0.522-0.088c0.475-0.057,0.823-0.124,1.048-0.202
				c0.002-0.08,0.003-0.132,0.003-0.153c0-0.239-0.056-0.408-0.167-0.506c-0.149-0.133-0.373-0.199-0.669-0.199
				c-0.275,0-0.479,0.049-0.611,0.146s-0.229,0.268-0.292,0.514l-0.574-0.078c0.052-0.246,0.138-0.444,0.258-0.596
				c0.119-0.151,0.292-0.268,0.519-0.349c0.227-0.082,0.488-0.123,0.786-0.123c0.296,0,0.536,0.035,0.722,0.104
				c0.185,0.07,0.32,0.157,0.407,0.263c0.088,0.105,0.148,0.239,0.184,0.4c0.02,0.1,0.029,0.28,0.029,0.541v0.783
				c0,0.546,0.012,0.892,0.037,1.036s0.074,0.283,0.148,0.416h-0.613C56.517,32.208,56.477,32.065,56.46,31.902z M56.411,30.591
				c-0.214,0.087-0.533,0.161-0.96,0.222c-0.241,0.035-0.412,0.074-0.512,0.118c-0.101,0.043-0.178,0.106-0.232,0.19
				c-0.054,0.084-0.081,0.177-0.081,0.279c0,0.156,0.059,0.287,0.178,0.392c0.118,0.104,0.292,0.156,0.521,0.156
				c0.226,0,0.428-0.05,0.604-0.148s0.306-0.234,0.389-0.406c0.063-0.133,0.095-0.328,0.095-0.587V30.591z"/>
			<path d="M60.177,31.061l0.577,0.075c-0.063,0.398-0.225,0.71-0.484,0.935c-0.26,0.226-0.579,0.338-0.958,0.338
				c-0.474,0-0.855-0.155-1.144-0.465s-0.433-0.754-0.433-1.333c0-0.374,0.063-0.701,0.187-0.982c0.124-0.28,0.313-0.49,0.565-0.631
				c0.254-0.141,0.529-0.211,0.828-0.211c0.376,0,0.684,0.096,0.923,0.286s0.393,0.46,0.46,0.811l-0.57,0.088
				c-0.055-0.232-0.151-0.407-0.289-0.525c-0.139-0.117-0.306-0.176-0.501-0.176c-0.296,0-0.536,0.105-0.722,0.318
				c-0.185,0.212-0.277,0.547-0.277,1.006c0,0.466,0.09,0.805,0.268,1.016c0.179,0.211,0.411,0.316,0.698,0.316
				c0.231,0,0.424-0.071,0.578-0.213C60.037,31.572,60.135,31.354,60.177,31.061z"/>
			<path d="M61.26,32.33v-4.783h0.588v2.728l1.39-1.409h0.761l-1.325,1.285l1.459,2.18h-0.725l-1.146-1.771l-0.414,0.397v1.374
				H61.26z"/>
			<path d="M64.491,32.617l0.571,0.085c0.023,0.176,0.09,0.305,0.198,0.385c0.146,0.109,0.345,0.163,0.598,0.163
				c0.271,0,0.481-0.054,0.63-0.163c0.147-0.108,0.248-0.261,0.3-0.457c0.03-0.119,0.045-0.37,0.043-0.753
				c-0.257,0.302-0.577,0.453-0.96,0.453c-0.477,0-0.845-0.172-1.106-0.516c-0.261-0.344-0.391-0.756-0.391-1.236
				c0-0.331,0.06-0.636,0.179-0.916c0.12-0.279,0.293-0.495,0.521-0.647s0.494-0.229,0.802-0.229c0.408,0,0.746,0.166,1.011,0.496
				v-0.417h0.542v2.995c0,0.539-0.055,0.922-0.165,1.146c-0.109,0.226-0.283,0.403-0.521,0.534c-0.238,0.13-0.531,0.195-0.88,0.195
				c-0.413,0-0.747-0.093-1.002-0.279C64.606,33.271,64.482,32.991,64.491,32.617z M64.978,30.535c0,0.455,0.09,0.787,0.271,0.995
				c0.181,0.209,0.407,0.313,0.679,0.313c0.27,0,0.496-0.104,0.679-0.312s0.274-0.533,0.274-0.978c0-0.424-0.095-0.744-0.282-0.959
				c-0.188-0.216-0.415-0.323-0.681-0.323c-0.261,0-0.483,0.106-0.666,0.318S64.978,30.118,64.978,30.535z"/>
			<path d="M68.309,32.33v-3.465h0.529v0.524c0.135-0.245,0.259-0.407,0.373-0.485c0.114-0.079,0.24-0.118,0.377-0.118
				c0.198,0,0.399,0.063,0.604,0.189l-0.202,0.545c-0.144-0.085-0.287-0.127-0.431-0.127c-0.128,0-0.243,0.038-0.346,0.115
				c-0.103,0.078-0.175,0.185-0.219,0.322c-0.065,0.208-0.098,0.437-0.098,0.685v1.814H68.309z"/>
			<path d="M70.322,30.598c0-0.642,0.179-1.117,0.535-1.426c0.298-0.257,0.661-0.386,1.09-0.386c0.477,0,0.866,0.156,1.168,0.469
				c0.303,0.312,0.454,0.743,0.454,1.294c0,0.445-0.067,0.796-0.201,1.052s-0.328,0.454-0.584,0.596s-0.534,0.212-0.837,0.212
				c-0.485,0-0.877-0.155-1.176-0.467C70.472,31.631,70.322,31.183,70.322,30.598z M70.926,30.598c0,0.443,0.097,0.775,0.291,0.997
				c0.193,0.221,0.437,0.331,0.73,0.331c0.292,0,0.534-0.111,0.728-0.333c0.194-0.222,0.291-0.561,0.291-1.015
				c0-0.429-0.098-0.754-0.292-0.975c-0.195-0.221-0.438-0.331-0.727-0.331c-0.294,0-0.537,0.11-0.73,0.33
				C71.022,29.822,70.926,30.153,70.926,30.598z"/>
			<path d="M76.529,32.33v-0.509c-0.271,0.392-0.637,0.587-1.1,0.587c-0.205,0-0.396-0.039-0.573-0.117
				c-0.177-0.078-0.309-0.177-0.395-0.295c-0.086-0.119-0.146-0.265-0.182-0.437c-0.023-0.115-0.035-0.298-0.035-0.548v-2.146h0.587
				v1.922c0,0.307,0.012,0.513,0.036,0.619c0.037,0.155,0.115,0.276,0.234,0.364c0.12,0.088,0.268,0.132,0.444,0.132
				c0.176,0,0.342-0.045,0.496-0.135c0.154-0.091,0.264-0.214,0.328-0.369c0.063-0.155,0.096-0.381,0.096-0.677v-1.856h0.588v3.465
				H76.529z"/>
			<path d="M77.975,32.33v-3.465h0.528v0.492c0.255-0.381,0.622-0.571,1.104-0.571c0.209,0,0.4,0.038,0.575,0.113
				c0.176,0.074,0.307,0.173,0.394,0.295s0.148,0.267,0.183,0.434c0.021,0.109,0.033,0.3,0.033,0.571v2.131h-0.588v-2.107
				c0-0.24-0.022-0.419-0.068-0.537c-0.046-0.119-0.127-0.213-0.243-0.284c-0.116-0.07-0.253-0.105-0.409-0.105
				c-0.25,0-0.467,0.079-0.647,0.237c-0.182,0.159-0.272,0.461-0.272,0.904v1.893H77.975z"/>
			<path d="M83.939,32.33v-0.438c-0.22,0.344-0.543,0.516-0.969,0.516c-0.276,0-0.53-0.076-0.762-0.229
				c-0.232-0.152-0.411-0.364-0.539-0.638c-0.127-0.272-0.19-0.587-0.19-0.941c0-0.346,0.058-0.659,0.173-0.941
				c0.115-0.281,0.288-0.497,0.519-0.647s0.488-0.226,0.773-0.226c0.209,0,0.395,0.044,0.559,0.133
				c0.163,0.088,0.295,0.202,0.397,0.344v-1.716h0.584v4.783H83.939z M82.083,30.601c0,0.444,0.094,0.775,0.28,0.995
				c0.188,0.22,0.408,0.33,0.663,0.33c0.256,0,0.475-0.105,0.654-0.315c0.179-0.21,0.269-0.53,0.269-0.961
				c0-0.474-0.091-0.822-0.273-1.044c-0.184-0.222-0.408-0.333-0.676-0.333c-0.261,0-0.479,0.106-0.654,0.32
				C82.171,29.806,82.083,30.142,82.083,30.601z"/>
			<path d="M85.571,29.533v-0.668h0.669v0.668H85.571z M85.571,32.33v-0.669h0.669v0.669H85.571z"/>
			<path d="M89.017,32.412l0.284-1.391h-0.552v-0.486h0.649l0.241-1.185h-0.891v-0.485h0.989l0.283-1.4h0.489l-0.283,1.4h1.027
				l0.284-1.4h0.493l-0.284,1.4h0.564v0.485H91.65l-0.245,1.185h0.907v0.486h-1.005l-0.284,1.391h-0.489l0.28-1.391H89.79
				l-0.284,1.391H89.017z M89.888,30.535h1.024l0.245-1.185H90.13L89.888,30.535z"/>
			<path d="M95.1,31.061l0.577,0.075c-0.063,0.398-0.225,0.71-0.484,0.935c-0.26,0.226-0.579,0.338-0.958,0.338
				c-0.474,0-0.855-0.155-1.144-0.465s-0.433-0.754-0.433-1.333c0-0.374,0.063-0.701,0.187-0.982c0.124-0.28,0.313-0.49,0.565-0.631
				c0.254-0.141,0.529-0.211,0.828-0.211c0.376,0,0.684,0.096,0.923,0.286s0.393,0.46,0.46,0.811l-0.57,0.088
				c-0.055-0.232-0.151-0.407-0.289-0.525c-0.139-0.117-0.306-0.176-0.501-0.176c-0.296,0-0.536,0.105-0.722,0.318
				c-0.185,0.212-0.277,0.547-0.277,1.006c0,0.466,0.09,0.805,0.268,1.016c0.179,0.211,0.411,0.316,0.698,0.316
				c0.231,0,0.424-0.071,0.578-0.213C94.96,31.572,95.058,31.354,95.1,31.061z"/>
			<path d="M98.441,31.061l0.577,0.075c-0.063,0.398-0.225,0.71-0.484,0.935c-0.26,0.226-0.579,0.338-0.958,0.338
				c-0.474,0-0.855-0.155-1.144-0.465S96,31.189,96,30.61c0-0.374,0.063-0.701,0.187-0.982c0.124-0.28,0.313-0.49,0.565-0.631
				c0.254-0.141,0.529-0.211,0.828-0.211c0.376,0,0.684,0.096,0.923,0.286s0.393,0.46,0.46,0.811l-0.57,0.088
				c-0.055-0.232-0.151-0.407-0.289-0.525c-0.139-0.117-0.306-0.176-0.501-0.176c-0.296,0-0.536,0.105-0.722,0.318
				c-0.185,0.212-0.277,0.547-0.277,1.006c0,0.466,0.09,0.805,0.268,1.016c0.179,0.211,0.411,0.316,0.698,0.316
				c0.231,0,0.424-0.071,0.578-0.213C98.302,31.572,98.399,31.354,98.441,31.061z"/>
			<path d="M101.783,31.061l0.577,0.075c-0.063,0.398-0.225,0.71-0.484,0.935c-0.26,0.226-0.579,0.338-0.958,0.338
				c-0.474,0-0.855-0.155-1.144-0.465s-0.433-0.754-0.433-1.333c0-0.374,0.063-0.701,0.187-0.982c0.124-0.28,0.313-0.49,0.565-0.631
				c0.254-0.141,0.529-0.211,0.828-0.211c0.376,0,0.684,0.096,0.923,0.286s0.393,0.46,0.46,0.811l-0.57,0.088
				c-0.055-0.232-0.151-0.407-0.289-0.525c-0.139-0.117-0.306-0.176-0.501-0.176c-0.296,0-0.536,0.105-0.722,0.318
				c-0.185,0.212-0.277,0.547-0.277,1.006c0,0.466,0.09,0.805,0.268,1.016c0.179,0.211,0.411,0.316,0.698,0.316
				c0.231,0,0.424-0.071,0.578-0.213C101.644,31.572,101.741,31.354,101.783,31.061z"/>
			<path d="M105.125,31.061l0.577,0.075c-0.063,0.398-0.225,0.71-0.484,0.935c-0.26,0.226-0.579,0.338-0.958,0.338
				c-0.474,0-0.855-0.155-1.144-0.465s-0.433-0.754-0.433-1.333c0-0.374,0.063-0.701,0.187-0.982c0.124-0.28,0.313-0.49,0.565-0.631
				c0.254-0.141,0.529-0.211,0.828-0.211c0.376,0,0.684,0.096,0.923,0.286s0.393,0.46,0.46,0.811l-0.57,0.088
				c-0.055-0.232-0.151-0.407-0.289-0.525c-0.139-0.117-0.306-0.176-0.501-0.176c-0.296,0-0.536,0.105-0.722,0.318
				c-0.185,0.212-0.277,0.547-0.277,1.006c0,0.466,0.09,0.805,0.268,1.016c0.179,0.211,0.411,0.316,0.698,0.316
				c0.231,0,0.424-0.071,0.578-0.213C104.985,31.572,105.083,31.354,105.125,31.061z"/>
			<path d="M108.467,31.061l0.577,0.075c-0.063,0.398-0.225,0.71-0.484,0.935c-0.26,0.226-0.579,0.338-0.958,0.338
				c-0.474,0-0.855-0.155-1.144-0.465s-0.433-0.754-0.433-1.333c0-0.374,0.063-0.701,0.187-0.982c0.124-0.28,0.313-0.49,0.565-0.631
				c0.254-0.141,0.529-0.211,0.828-0.211c0.376,0,0.684,0.096,0.923,0.286s0.393,0.46,0.46,0.811l-0.57,0.088
				c-0.055-0.232-0.151-0.407-0.289-0.525c-0.139-0.117-0.306-0.176-0.501-0.176c-0.296,0-0.536,0.105-0.722,0.318
				c-0.185,0.212-0.277,0.547-0.277,1.006c0,0.466,0.09,0.805,0.268,1.016c0.179,0.211,0.411,0.316,0.698,0.316
				c0.231,0,0.424-0.071,0.578-0.213C108.327,31.572,108.425,31.354,108.467,31.061z"/>
			<path d="M111.809,31.061l0.577,0.075c-0.063,0.398-0.225,0.71-0.484,0.935c-0.26,0.226-0.579,0.338-0.958,0.338
				c-0.474,0-0.855-0.155-1.144-0.465s-0.433-0.754-0.433-1.333c0-0.374,0.063-0.701,0.187-0.982c0.124-0.28,0.313-0.49,0.565-0.631
				c0.254-0.141,0.529-0.211,0.828-0.211c0.376,0,0.684,0.096,0.923,0.286s0.393,0.46,0.46,0.811l-0.57,0.088
				c-0.055-0.232-0.151-0.407-0.289-0.525c-0.139-0.117-0.306-0.176-0.501-0.176c-0.296,0-0.536,0.105-0.722,0.318
				c-0.185,0.212-0.277,0.547-0.277,1.006c0,0.466,0.09,0.805,0.268,1.016c0.179,0.211,0.411,0.316,0.698,0.316
				c0.231,0,0.424-0.071,0.578-0.213C111.669,31.572,111.767,31.354,111.809,31.061z"/>
			<path d="M113.042,32.33v-0.669h0.669v0.669c0,0.246-0.043,0.444-0.131,0.596c-0.087,0.151-0.225,0.268-0.414,0.351l-0.163-0.251
				c0.124-0.055,0.216-0.135,0.274-0.24s0.091-0.257,0.098-0.455H113.042z M113.042,29.533v-0.668h0.669v0.668H113.042z"/>
			<path d="M50.481,41.678v-4.793h0.535v0.45c0.126-0.177,0.269-0.309,0.428-0.396c0.158-0.089,0.351-0.133,0.577-0.133
				c0.296,0,0.557,0.076,0.783,0.229s0.397,0.367,0.513,0.645s0.173,0.581,0.173,0.912c0,0.354-0.063,0.674-0.191,0.958
				c-0.127,0.283-0.312,0.501-0.555,0.652c-0.242,0.151-0.497,0.227-0.765,0.227c-0.196,0-0.372-0.041-0.527-0.124
				c-0.155-0.082-0.283-0.187-0.383-0.313v1.688H50.481z M51.014,38.637c0,0.445,0.09,0.775,0.271,0.988
				c0.181,0.214,0.399,0.32,0.656,0.32c0.261,0,0.484-0.11,0.67-0.331c0.187-0.222,0.279-0.563,0.279-1.026
				c0-0.441-0.091-0.772-0.272-0.992s-0.398-0.33-0.651-0.33c-0.25,0-0.471,0.117-0.664,0.352
				C51.109,37.851,51.014,38.19,51.014,38.637z"/>
			<path d="M56.46,39.922c-0.218,0.186-0.428,0.315-0.629,0.392s-0.417,0.114-0.647,0.114c-0.381,0-0.673-0.093-0.878-0.278
				c-0.204-0.187-0.307-0.424-0.307-0.714c0-0.169,0.039-0.324,0.116-0.465c0.077-0.14,0.179-0.253,0.304-0.338
				c0.125-0.084,0.266-0.148,0.422-0.192c0.115-0.03,0.29-0.06,0.522-0.088c0.475-0.057,0.823-0.124,1.048-0.202
				c0.002-0.08,0.003-0.132,0.003-0.153c0-0.239-0.056-0.408-0.167-0.506c-0.149-0.133-0.373-0.199-0.669-0.199
				c-0.275,0-0.479,0.049-0.611,0.146s-0.229,0.268-0.292,0.514l-0.574-0.078c0.052-0.246,0.138-0.444,0.258-0.596
				c0.119-0.151,0.292-0.268,0.519-0.349c0.227-0.082,0.488-0.123,0.786-0.123c0.296,0,0.536,0.035,0.722,0.104
				c0.185,0.07,0.32,0.157,0.407,0.263c0.088,0.105,0.148,0.239,0.184,0.4c0.02,0.1,0.029,0.28,0.029,0.541v0.783
				c0,0.546,0.012,0.892,0.037,1.036s0.074,0.283,0.148,0.416h-0.613C56.517,40.228,56.477,40.085,56.46,39.922z M56.411,38.61
				c-0.214,0.087-0.533,0.161-0.96,0.222c-0.241,0.035-0.412,0.074-0.512,0.118c-0.101,0.043-0.178,0.106-0.232,0.19
				c-0.054,0.084-0.081,0.177-0.081,0.279c0,0.156,0.059,0.287,0.178,0.392c0.118,0.104,0.292,0.156,0.521,0.156
				c0.226,0,0.428-0.05,0.604-0.148s0.306-0.234,0.389-0.406c0.063-0.133,0.095-0.328,0.095-0.587V38.61z"/>
			<path d="M60.163,40.35v-0.438c-0.22,0.344-0.543,0.516-0.969,0.516c-0.276,0-0.53-0.076-0.762-0.229
				c-0.232-0.152-0.411-0.364-0.539-0.638c-0.127-0.272-0.19-0.587-0.19-0.941c0-0.346,0.058-0.659,0.173-0.941
				c0.115-0.281,0.288-0.497,0.519-0.647s0.488-0.226,0.773-0.226c0.209,0,0.395,0.044,0.559,0.133
				c0.163,0.088,0.295,0.202,0.397,0.344v-1.716h0.584v4.783H60.163z M58.307,38.62c0,0.444,0.094,0.775,0.28,0.995
				c0.188,0.22,0.408,0.33,0.663,0.33c0.256,0,0.475-0.105,0.654-0.315c0.179-0.21,0.269-0.53,0.269-0.961
				c0-0.474-0.091-0.822-0.273-1.044c-0.184-0.222-0.408-0.333-0.676-0.333c-0.261,0-0.479,0.106-0.654,0.32
				C58.395,37.825,58.307,38.161,58.307,38.62z"/>
			<path d="M63.88,40.35v-0.438c-0.22,0.344-0.543,0.516-0.969,0.516c-0.276,0-0.53-0.076-0.762-0.229
				c-0.232-0.152-0.411-0.364-0.539-0.638c-0.127-0.272-0.19-0.587-0.19-0.941c0-0.346,0.058-0.659,0.173-0.941
				c0.115-0.281,0.288-0.497,0.519-0.647s0.488-0.226,0.773-0.226c0.209,0,0.395,0.044,0.559,0.133
				c0.163,0.088,0.295,0.202,0.397,0.344v-1.716h0.584v4.783H63.88z M62.023,38.62c0,0.444,0.094,0.775,0.28,0.995
				c0.188,0.22,0.408,0.33,0.663,0.33c0.256,0,0.475-0.105,0.654-0.315c0.179-0.21,0.269-0.53,0.269-0.961
				c0-0.474-0.091-0.822-0.273-1.044c-0.184-0.222-0.408-0.333-0.676-0.333c-0.261,0-0.479,0.106-0.654,0.32
				C62.111,37.825,62.023,38.161,62.023,38.62z"/>
			<path d="M65.352,36.241v-0.675h0.588v0.675H65.352z M65.352,40.35v-3.465h0.588v3.465H65.352z"/>
			<path d="M66.833,40.35v-3.465h0.528v0.492c0.255-0.381,0.622-0.571,1.104-0.571c0.209,0,0.4,0.038,0.575,0.113
				c0.176,0.074,0.307,0.173,0.394,0.295s0.148,0.267,0.183,0.434c0.021,0.109,0.033,0.3,0.033,0.571v2.131h-0.588v-2.107
				c0-0.24-0.022-0.419-0.068-0.537c-0.046-0.119-0.127-0.213-0.243-0.284c-0.116-0.07-0.253-0.105-0.409-0.105
				c-0.25,0-0.467,0.079-0.647,0.237c-0.182,0.159-0.272,0.461-0.272,0.904v1.893H66.833z"/>
			<path d="M70.442,40.637l0.571,0.085c0.023,0.176,0.09,0.305,0.198,0.385c0.146,0.109,0.345,0.163,0.598,0.163
				c0.271,0,0.481-0.054,0.63-0.163c0.147-0.108,0.248-0.261,0.3-0.457c0.03-0.119,0.045-0.37,0.043-0.753
				c-0.257,0.302-0.577,0.453-0.96,0.453c-0.477,0-0.845-0.172-1.106-0.516c-0.261-0.344-0.391-0.756-0.391-1.236
				c0-0.331,0.06-0.636,0.179-0.916c0.12-0.279,0.293-0.495,0.521-0.647s0.494-0.229,0.802-0.229c0.408,0,0.746,0.166,1.011,0.496
				v-0.417h0.542v2.995c0,0.539-0.055,0.922-0.165,1.146c-0.109,0.226-0.283,0.403-0.521,0.534c-0.238,0.13-0.531,0.195-0.88,0.195
				c-0.413,0-0.747-0.093-1.002-0.279C70.557,41.291,70.434,41.011,70.442,40.637z M70.929,38.555c0,0.455,0.09,0.787,0.271,0.995
				c0.181,0.209,0.407,0.313,0.679,0.313c0.27,0,0.496-0.104,0.679-0.312s0.274-0.533,0.274-0.978c0-0.424-0.095-0.744-0.282-0.959
				c-0.188-0.216-0.415-0.323-0.681-0.323c-0.261,0-0.483,0.106-0.666,0.318S70.929,38.138,70.929,38.555z"/>
			<path d="M74.43,37.553v-0.668h0.669v0.668H74.43z M74.43,40.35v-0.669h0.669v0.669H74.43z"/>
			<path d="M77.816,39.097l0.617-0.053c0.045,0.301,0.151,0.526,0.317,0.678c0.167,0.151,0.367,0.227,0.603,0.227
				c0.282,0,0.521-0.106,0.718-0.319c0.195-0.214,0.294-0.496,0.294-0.849c0-0.335-0.095-0.6-0.282-0.793
				c-0.188-0.193-0.435-0.291-0.739-0.291c-0.189,0-0.36,0.044-0.513,0.129c-0.152,0.087-0.271,0.198-0.358,0.335l-0.552-0.072
				l0.463-2.457h2.379v0.562h-1.908l-0.258,1.286c0.287-0.2,0.588-0.301,0.903-0.301c0.418,0,0.771,0.145,1.058,0.435
				c0.287,0.289,0.431,0.661,0.431,1.115c0,0.434-0.126,0.808-0.379,1.123c-0.307,0.387-0.726,0.581-1.256,0.581
				c-0.436,0-0.79-0.122-1.065-0.366C78.013,39.822,77.856,39.499,77.816,39.097z"/>
			<path d="M81.696,41.678v-4.793h0.535v0.45c0.126-0.177,0.269-0.309,0.428-0.396c0.158-0.089,0.351-0.133,0.577-0.133
				c0.296,0,0.557,0.076,0.783,0.229s0.397,0.367,0.513,0.645s0.173,0.581,0.173,0.912c0,0.354-0.063,0.674-0.191,0.958
				c-0.127,0.283-0.312,0.501-0.555,0.652c-0.242,0.151-0.497,0.227-0.765,0.227c-0.196,0-0.372-0.041-0.527-0.124
				c-0.155-0.082-0.283-0.187-0.383-0.313v1.688H81.696z M82.229,38.637c0,0.445,0.09,0.775,0.271,0.988
				c0.181,0.214,0.399,0.32,0.656,0.32c0.261,0,0.484-0.11,0.67-0.331c0.187-0.222,0.279-0.563,0.279-1.026
				c0-0.441-0.091-0.772-0.272-0.992s-0.398-0.33-0.651-0.33c-0.25,0-0.471,0.117-0.664,0.352
				C82.324,37.851,82.229,38.19,82.229,38.637z"/>
			<path d="M85.022,40.35l1.267-1.801l-1.172-1.664h0.734l0.531,0.812c0.101,0.155,0.181,0.284,0.242,0.389
				c0.096-0.144,0.184-0.271,0.264-0.382l0.584-0.818h0.702l-1.197,1.631l1.288,1.834h-0.721l-0.711-1.077l-0.189-0.29l-0.91,1.367
				H85.022z"/>
			<path d="M92.66,40.35h-0.587v-3.743c-0.142,0.136-0.327,0.271-0.557,0.405s-0.436,0.236-0.618,0.304v-0.568
				c0.328-0.154,0.615-0.342,0.861-0.562s0.42-0.433,0.522-0.639h0.378V40.35z"/>
			<path d="M94.165,39.097l0.617-0.053c0.045,0.301,0.151,0.526,0.317,0.678c0.167,0.151,0.367,0.227,0.603,0.227
				c0.282,0,0.521-0.106,0.718-0.319c0.195-0.214,0.294-0.496,0.294-0.849c0-0.335-0.095-0.6-0.282-0.793
				c-0.188-0.193-0.435-0.291-0.739-0.291c-0.189,0-0.36,0.044-0.513,0.129c-0.152,0.087-0.271,0.198-0.358,0.335l-0.552-0.072
				l0.463-2.457h2.379v0.562h-1.908l-0.258,1.286c0.287-0.2,0.588-0.301,0.903-0.301c0.418,0,0.771,0.145,1.058,0.435
				c0.287,0.289,0.431,0.661,0.431,1.115c0,0.434-0.126,0.808-0.379,1.123c-0.307,0.387-0.726,0.581-1.256,0.581
				c-0.436,0-0.79-0.122-1.065-0.366C94.361,39.822,94.204,39.499,94.165,39.097z"/>
			<path d="M98.045,41.678v-4.793h0.535v0.45c0.126-0.177,0.269-0.309,0.428-0.396c0.158-0.089,0.351-0.133,0.577-0.133
				c0.296,0,0.557,0.076,0.783,0.229s0.397,0.367,0.513,0.645s0.173,0.581,0.173,0.912c0,0.354-0.063,0.674-0.191,0.958
				c-0.127,0.283-0.312,0.501-0.555,0.652c-0.242,0.151-0.497,0.227-0.765,0.227c-0.196,0-0.372-0.041-0.527-0.124
				c-0.155-0.082-0.283-0.187-0.383-0.313v1.688H98.045z M98.577,38.637c0,0.445,0.09,0.775,0.271,0.988
				c0.181,0.214,0.399,0.32,0.656,0.32c0.261,0,0.484-0.11,0.67-0.331c0.187-0.222,0.279-0.563,0.279-1.026
				c0-0.441-0.091-0.772-0.272-0.992s-0.398-0.33-0.651-0.33c-0.25,0-0.471,0.117-0.664,0.352
				C98.673,37.851,98.577,38.19,98.577,38.637z"/>
			<path d="M101.37,40.35l1.267-1.801l-1.172-1.664h0.734l0.531,0.812c0.101,0.155,0.181,0.284,0.242,0.389
				c0.096-0.144,0.184-0.271,0.264-0.382l0.584-0.818h0.702l-1.197,1.631l1.288,1.834h-0.721l-0.711-1.077l-0.189-0.29l-0.91,1.367
				H101.37z"/>
			<path d="M105.257,40.35v-0.669h0.669v0.669c0,0.246-0.043,0.444-0.131,0.596c-0.087,0.151-0.225,0.268-0.414,0.351l-0.163-0.251
				c0.124-0.055,0.216-0.135,0.274-0.24s0.091-0.257,0.098-0.455H105.257z M105.257,37.553v-0.668h0.669v0.668H105.257z"/>
			<path d="M51.023,48.369h-0.545v-4.783h0.587v1.706c0.248-0.311,0.564-0.467,0.95-0.467c0.213,0,0.414,0.043,0.604,0.129
				s0.348,0.207,0.47,0.362c0.123,0.155,0.22,0.344,0.289,0.563s0.104,0.454,0.104,0.704c0,0.594-0.146,1.053-0.44,1.377
				s-0.646,0.486-1.058,0.486c-0.408,0-0.729-0.171-0.962-0.512V48.369z M51.017,46.61c0,0.416,0.057,0.716,0.17,0.9
				c0.185,0.303,0.435,0.454,0.75,0.454c0.257,0,0.479-0.111,0.666-0.335c0.187-0.223,0.28-0.555,0.28-0.997
				c0-0.452-0.09-0.786-0.269-1.001c-0.18-0.216-0.396-0.323-0.651-0.323c-0.257,0-0.479,0.111-0.666,0.334
				C51.11,45.866,51.017,46.188,51.017,46.61z"/>
			<path d="M56.46,47.941c-0.218,0.186-0.428,0.315-0.629,0.392s-0.417,0.114-0.647,0.114c-0.381,0-0.673-0.093-0.878-0.278
				c-0.204-0.187-0.307-0.424-0.307-0.714c0-0.169,0.039-0.324,0.116-0.465c0.077-0.14,0.179-0.253,0.304-0.338
				c0.125-0.084,0.266-0.148,0.422-0.192c0.115-0.03,0.29-0.06,0.522-0.088c0.475-0.057,0.823-0.124,1.048-0.202
				c0.002-0.08,0.003-0.132,0.003-0.153c0-0.239-0.056-0.408-0.167-0.506c-0.149-0.133-0.373-0.199-0.669-0.199
				c-0.275,0-0.479,0.049-0.611,0.146s-0.229,0.268-0.292,0.514l-0.574-0.078c0.052-0.246,0.138-0.444,0.258-0.596
				c0.119-0.151,0.292-0.268,0.519-0.349c0.227-0.082,0.488-0.123,0.786-0.123c0.296,0,0.536,0.035,0.722,0.104
				c0.185,0.07,0.32,0.157,0.407,0.263c0.088,0.105,0.148,0.239,0.184,0.4c0.02,0.1,0.029,0.28,0.029,0.541v0.783
				c0,0.546,0.012,0.892,0.037,1.036s0.074,0.283,0.148,0.416h-0.613C56.517,48.247,56.477,48.104,56.46,47.941z M56.411,46.63
				c-0.214,0.087-0.533,0.161-0.96,0.222c-0.241,0.035-0.412,0.074-0.512,0.118c-0.101,0.043-0.178,0.106-0.232,0.19
				c-0.054,0.084-0.081,0.177-0.081,0.279c0,0.156,0.059,0.287,0.178,0.392c0.118,0.104,0.292,0.156,0.521,0.156
				c0.226,0,0.428-0.05,0.604-0.148s0.306-0.234,0.389-0.406c0.063-0.133,0.095-0.328,0.095-0.587V46.63z"/>
			<path d="M60.177,47.1l0.577,0.075c-0.063,0.398-0.225,0.71-0.484,0.935c-0.26,0.226-0.579,0.338-0.958,0.338
				c-0.474,0-0.855-0.155-1.144-0.465s-0.433-0.754-0.433-1.333c0-0.374,0.063-0.701,0.187-0.982c0.124-0.28,0.313-0.49,0.565-0.631
				c0.254-0.141,0.529-0.211,0.828-0.211c0.376,0,0.684,0.096,0.923,0.286s0.393,0.46,0.46,0.811l-0.57,0.088
				c-0.055-0.232-0.151-0.407-0.289-0.525c-0.139-0.117-0.306-0.176-0.501-0.176c-0.296,0-0.536,0.105-0.722,0.318
				c-0.185,0.212-0.277,0.547-0.277,1.006c0,0.466,0.09,0.805,0.268,1.016c0.179,0.211,0.411,0.316,0.698,0.316
				c0.231,0,0.424-0.071,0.578-0.213C60.037,47.611,60.135,47.394,60.177,47.1z"/>
			<path d="M61.26,48.369v-4.783h0.588v2.728l1.39-1.409h0.761l-1.325,1.285l1.459,2.18h-0.725l-1.146-1.771l-0.414,0.397v1.374
				H61.26z"/>
			<path d="M64.491,48.656l0.571,0.085c0.023,0.176,0.09,0.305,0.198,0.385c0.146,0.109,0.345,0.163,0.598,0.163
				c0.271,0,0.481-0.054,0.63-0.163c0.147-0.108,0.248-0.261,0.3-0.457c0.03-0.119,0.045-0.37,0.043-0.753
				c-0.257,0.302-0.577,0.453-0.96,0.453c-0.477,0-0.845-0.172-1.106-0.516c-0.261-0.344-0.391-0.756-0.391-1.236
				c0-0.331,0.06-0.636,0.179-0.916c0.12-0.279,0.293-0.495,0.521-0.647s0.494-0.229,0.802-0.229c0.408,0,0.746,0.166,1.011,0.496
				v-0.417h0.542v2.995c0,0.539-0.055,0.922-0.165,1.146c-0.109,0.226-0.283,0.403-0.521,0.534c-0.238,0.13-0.531,0.195-0.88,0.195
				c-0.413,0-0.747-0.093-1.002-0.279C64.606,49.311,64.482,49.03,64.491,48.656z M64.978,46.574c0,0.455,0.09,0.787,0.271,0.995
				c0.181,0.209,0.407,0.313,0.679,0.313c0.27,0,0.496-0.104,0.679-0.312s0.274-0.533,0.274-0.978c0-0.424-0.095-0.744-0.282-0.959
				c-0.188-0.216-0.415-0.323-0.681-0.323c-0.261,0-0.483,0.106-0.666,0.318S64.978,46.157,64.978,46.574z"/>
			<path d="M68.309,48.369v-3.465h0.529v0.524c0.135-0.245,0.259-0.407,0.373-0.485c0.114-0.079,0.24-0.118,0.377-0.118
				c0.198,0,0.399,0.063,0.604,0.189l-0.202,0.545c-0.144-0.085-0.287-0.127-0.431-0.127c-0.128,0-0.243,0.038-0.346,0.115
				c-0.103,0.078-0.175,0.185-0.219,0.322c-0.065,0.208-0.098,0.437-0.098,0.685v1.814H68.309z"/>
			<path d="M70.322,46.637c0-0.642,0.179-1.117,0.535-1.426c0.298-0.257,0.661-0.386,1.09-0.386c0.477,0,0.866,0.156,1.168,0.469
				c0.303,0.312,0.454,0.743,0.454,1.294c0,0.445-0.067,0.796-0.201,1.052s-0.328,0.454-0.584,0.596s-0.534,0.212-0.837,0.212
				c-0.485,0-0.877-0.155-1.176-0.467C70.472,47.67,70.322,47.222,70.322,46.637z M70.926,46.637c0,0.443,0.097,0.775,0.291,0.997
				c0.193,0.221,0.437,0.331,0.73,0.331c0.292,0,0.534-0.111,0.728-0.333c0.194-0.222,0.291-0.561,0.291-1.015
				c0-0.429-0.098-0.754-0.292-0.975c-0.195-0.221-0.438-0.331-0.727-0.331c-0.294,0-0.537,0.11-0.73,0.33
				C71.022,45.861,70.926,46.192,70.926,46.637z"/>
			<path d="M76.529,48.369V47.86c-0.271,0.392-0.637,0.587-1.1,0.587c-0.205,0-0.396-0.039-0.573-0.117
				c-0.177-0.078-0.309-0.177-0.395-0.295c-0.086-0.119-0.146-0.265-0.182-0.437c-0.023-0.115-0.035-0.298-0.035-0.548v-2.146h0.587
				v1.922c0,0.307,0.012,0.513,0.036,0.619c0.037,0.155,0.115,0.276,0.234,0.364c0.12,0.088,0.268,0.132,0.444,0.132
				c0.176,0,0.342-0.045,0.496-0.135c0.154-0.091,0.264-0.214,0.328-0.369c0.063-0.155,0.096-0.381,0.096-0.677v-1.856h0.588v3.465
				H76.529z"/>
			<path d="M77.975,48.369v-3.465h0.528v0.492c0.255-0.381,0.622-0.571,1.104-0.571c0.209,0,0.4,0.038,0.575,0.113
				c0.176,0.074,0.307,0.173,0.394,0.295s0.148,0.267,0.183,0.434c0.021,0.109,0.033,0.3,0.033,0.571v2.131h-0.588v-2.107
				c0-0.24-0.022-0.419-0.068-0.537c-0.046-0.119-0.127-0.213-0.243-0.284c-0.116-0.07-0.253-0.105-0.409-0.105
				c-0.25,0-0.467,0.079-0.647,0.237c-0.182,0.159-0.272,0.461-0.272,0.904v1.893H77.975z"/>
			<path d="M83.939,48.369v-0.438c-0.22,0.344-0.543,0.516-0.969,0.516c-0.276,0-0.53-0.076-0.762-0.229
				c-0.232-0.152-0.411-0.364-0.539-0.638c-0.127-0.272-0.19-0.587-0.19-0.941c0-0.346,0.058-0.659,0.173-0.941
				c0.115-0.281,0.288-0.497,0.519-0.647s0.488-0.226,0.773-0.226c0.209,0,0.395,0.044,0.559,0.133
				c0.163,0.088,0.295,0.202,0.397,0.344v-1.716h0.584v4.783H83.939z M82.083,46.64c0,0.444,0.094,0.775,0.28,0.995
				c0.188,0.22,0.408,0.33,0.663,0.33c0.256,0,0.475-0.105,0.654-0.315c0.179-0.21,0.269-0.53,0.269-0.961
				c0-0.474-0.091-0.822-0.273-1.044c-0.184-0.222-0.408-0.333-0.676-0.333c-0.261,0-0.479,0.106-0.654,0.32
				C82.171,45.845,82.083,46.181,82.083,46.64z"/>
			<path d="M85.571,45.572v-0.668h0.669v0.668H85.571z M85.571,48.369V47.7h0.669v0.669H85.571z"/>
			<path d="M88.893,46.934v-0.591h1.805v0.591H88.893z"/>
			<path d="M91.986,48.369l-1.061-3.465h0.607l0.551,2l0.206,0.744c0.009-0.037,0.068-0.275,0.179-0.715l0.552-2.029h0.604
				l0.52,2.01l0.173,0.662l0.199-0.669l0.594-2.003h0.57l-1.083,3.465h-0.61l-0.551-2.075l-0.134-0.591L92.6,48.369H91.986z"/>
			<path d="M98.545,47.253l0.607,0.075c-0.096,0.354-0.273,0.63-0.532,0.825c-0.259,0.196-0.59,0.294-0.992,0.294
				c-0.507,0-0.908-0.156-1.205-0.468c-0.297-0.313-0.445-0.75-0.445-1.313c0-0.583,0.149-1.035,0.45-1.357
				c0.3-0.322,0.689-0.483,1.168-0.483c0.463,0,0.842,0.158,1.136,0.474c0.293,0.315,0.44,0.759,0.44,1.331
				c0,0.035-0.001,0.087-0.004,0.156h-2.584c0.021,0.381,0.13,0.673,0.323,0.875s0.435,0.304,0.725,0.304
				c0.215,0,0.398-0.057,0.551-0.17S98.456,47.501,98.545,47.253z M96.617,46.304h1.935c-0.026-0.292-0.101-0.51-0.222-0.656
				c-0.188-0.226-0.43-0.339-0.728-0.339c-0.271,0-0.497,0.09-0.681,0.271S96.637,46.001,96.617,46.304z"/>
			<path d="M100.432,48.369h-0.545v-4.783h0.587v1.706c0.248-0.311,0.564-0.467,0.95-0.467c0.213,0,0.414,0.043,0.604,0.129
				s0.348,0.207,0.47,0.362c0.123,0.155,0.22,0.344,0.289,0.563s0.104,0.454,0.104,0.704c0,0.594-0.146,1.053-0.44,1.377
				s-0.646,0.486-1.058,0.486c-0.408,0-0.729-0.171-0.962-0.512V48.369z M100.425,46.61c0,0.416,0.057,0.716,0.17,0.9
				c0.185,0.303,0.435,0.454,0.75,0.454c0.257,0,0.479-0.111,0.666-0.335c0.187-0.223,0.28-0.555,0.28-0.997
				c0-0.452-0.09-0.786-0.269-1.001c-0.18-0.216-0.396-0.323-0.651-0.323c-0.257,0-0.479,0.111-0.666,0.334
				C100.519,45.866,100.425,46.188,100.425,46.61z"/>
			<path d="M103.609,48.369v-4.783h0.588v2.728l1.39-1.409h0.761l-1.325,1.285l1.459,2.18h-0.725l-1.146-1.771l-0.414,0.397v1.374
				H103.609z"/>
			<path d="M106.951,44.261v-0.675h0.588v0.675H106.951z M106.951,48.369v-3.465h0.588v3.465H106.951z"/>
			<path d="M109.715,47.844l0.085,0.519c-0.165,0.035-0.313,0.053-0.443,0.053c-0.214,0-0.379-0.034-0.496-0.102
				s-0.2-0.156-0.248-0.266c-0.048-0.11-0.072-0.341-0.072-0.693V45.36h-0.431v-0.456h0.431v-0.858l0.584-0.353v1.211h0.591v0.456
				h-0.591v2.026c0,0.168,0.011,0.275,0.031,0.323s0.055,0.086,0.102,0.114s0.113,0.042,0.2,0.042
				C109.522,47.866,109.608,47.859,109.715,47.844z"/>
			<path d="M110.061,46.934v-0.591h1.805v0.591H110.061z"/>
			<path d="M112.502,48.369v-4.783h0.587v4.783H112.502z"/>
			<path d="M114.002,44.261v-0.675h0.588v0.675H114.002z M114.002,48.369v-3.465h0.588v3.465H114.002z"/>
			<path d="M115.483,48.369v-3.465h0.528v0.492c0.255-0.381,0.622-0.571,1.104-0.571c0.209,0,0.4,0.038,0.575,0.113
				c0.176,0.074,0.307,0.173,0.394,0.295s0.148,0.267,0.183,0.434c0.021,0.109,0.033,0.3,0.033,0.571v2.131h-0.588v-2.107
				c0-0.24-0.022-0.419-0.068-0.537c-0.046-0.119-0.127-0.213-0.243-0.284c-0.116-0.07-0.253-0.105-0.409-0.105
				c-0.25,0-0.467,0.079-0.647,0.237c-0.182,0.159-0.272,0.461-0.272,0.904v1.893H115.483z"/>
			<path d="M121.572,47.253l0.607,0.075c-0.096,0.354-0.273,0.63-0.532,0.825c-0.259,0.196-0.59,0.294-0.992,0.294
				c-0.507,0-0.908-0.156-1.205-0.468c-0.297-0.313-0.445-0.75-0.445-1.313c0-0.583,0.149-1.035,0.45-1.357
				c0.3-0.322,0.689-0.483,1.168-0.483c0.463,0,0.842,0.158,1.136,0.474c0.293,0.315,0.44,0.759,0.44,1.331
				c0,0.035-0.001,0.087-0.004,0.156h-2.584c0.021,0.381,0.13,0.673,0.323,0.875s0.435,0.304,0.725,0.304
				c0.215,0,0.398-0.057,0.551-0.17S121.483,47.501,121.572,47.253z M119.645,46.304h1.935c-0.026-0.292-0.101-0.51-0.222-0.656
				c-0.188-0.226-0.43-0.339-0.728-0.339c-0.271,0-0.497,0.09-0.681,0.271S119.664,46.001,119.645,46.304z"/>
			<path d="M125.179,47.941c-0.218,0.186-0.428,0.315-0.629,0.392s-0.417,0.114-0.647,0.114c-0.381,0-0.673-0.093-0.878-0.278
				c-0.204-0.187-0.307-0.424-0.307-0.714c0-0.169,0.039-0.324,0.116-0.465c0.077-0.14,0.179-0.253,0.304-0.338
				c0.125-0.084,0.266-0.148,0.422-0.192c0.115-0.03,0.29-0.06,0.522-0.088c0.475-0.057,0.823-0.124,1.048-0.202
				c0.002-0.08,0.003-0.132,0.003-0.153c0-0.239-0.056-0.408-0.167-0.506c-0.149-0.133-0.373-0.199-0.669-0.199
				c-0.275,0-0.479,0.049-0.611,0.146s-0.229,0.268-0.292,0.514l-0.574-0.078c0.052-0.246,0.138-0.444,0.258-0.596
				c0.119-0.151,0.292-0.268,0.519-0.349c0.227-0.082,0.488-0.123,0.786-0.123c0.296,0,0.536,0.035,0.722,0.104
				c0.185,0.07,0.32,0.157,0.407,0.263c0.088,0.105,0.148,0.239,0.184,0.4c0.02,0.1,0.029,0.28,0.029,0.541v0.783
				c0,0.546,0.012,0.892,0.037,1.036s0.074,0.283,0.148,0.416h-0.613C125.235,48.247,125.195,48.104,125.179,47.941z M125.13,46.63
				c-0.214,0.087-0.533,0.161-0.96,0.222c-0.241,0.035-0.412,0.074-0.512,0.118c-0.101,0.043-0.178,0.106-0.232,0.19
				c-0.054,0.084-0.081,0.177-0.081,0.279c0,0.156,0.059,0.287,0.178,0.392c0.118,0.104,0.292,0.156,0.521,0.156
				c0.226,0,0.428-0.05,0.604-0.148s0.306-0.234,0.389-0.406c0.063-0.133,0.095-0.328,0.095-0.587V46.63z"/>
			<path d="M126.627,48.369v-3.465h0.529v0.524c0.135-0.245,0.259-0.407,0.373-0.485c0.114-0.079,0.24-0.118,0.377-0.118
				c0.198,0,0.399,0.063,0.604,0.189l-0.202,0.545c-0.144-0.085-0.287-0.127-0.431-0.127c-0.128,0-0.243,0.038-0.346,0.115
				c-0.103,0.078-0.175,0.185-0.219,0.322c-0.065,0.208-0.098,0.437-0.098,0.685v1.814H126.627z"/>
			<path d="M128.631,46.934v-0.591h1.805v0.591H128.631z"/>
			<path d="M130.978,48.656l0.571,0.085c0.023,0.176,0.09,0.305,0.198,0.385c0.146,0.109,0.345,0.163,0.598,0.163
				c0.271,0,0.481-0.054,0.63-0.163c0.147-0.108,0.248-0.261,0.3-0.457c0.03-0.119,0.045-0.37,0.043-0.753
				c-0.257,0.302-0.577,0.453-0.96,0.453c-0.477,0-0.845-0.172-1.106-0.516c-0.261-0.344-0.391-0.756-0.391-1.236
				c0-0.331,0.06-0.636,0.179-0.916c0.12-0.279,0.293-0.495,0.521-0.647s0.494-0.229,0.802-0.229c0.408,0,0.746,0.166,1.011,0.496
				v-0.417h0.542v2.995c0,0.539-0.055,0.922-0.165,1.146c-0.109,0.226-0.283,0.403-0.521,0.534c-0.238,0.13-0.531,0.195-0.88,0.195
				c-0.413,0-0.747-0.093-1.002-0.279C131.092,49.311,130.969,49.03,130.978,48.656z M131.464,46.574
				c0,0.455,0.09,0.787,0.271,0.995c0.181,0.209,0.407,0.313,0.679,0.313c0.27,0,0.496-0.104,0.679-0.312s0.274-0.533,0.274-0.978
				c0-0.424-0.095-0.744-0.282-0.959c-0.188-0.216-0.415-0.323-0.681-0.323c-0.261,0-0.483,0.106-0.666,0.318
				S131.464,46.157,131.464,46.574z"/>
			<path d="M134.795,48.369v-3.465h0.529v0.524c0.135-0.245,0.259-0.407,0.373-0.485c0.114-0.079,0.24-0.118,0.377-0.118
				c0.198,0,0.399,0.063,0.604,0.189l-0.202,0.545c-0.144-0.085-0.287-0.127-0.431-0.127c-0.128,0-0.243,0.038-0.346,0.115
				c-0.103,0.078-0.175,0.185-0.219,0.322c-0.065,0.208-0.098,0.437-0.098,0.685v1.814H134.795z"/>
			<path d="M139.289,47.941c-0.218,0.186-0.428,0.315-0.629,0.392s-0.417,0.114-0.647,0.114c-0.381,0-0.673-0.093-0.878-0.278
				c-0.204-0.187-0.307-0.424-0.307-0.714c0-0.169,0.039-0.324,0.116-0.465c0.077-0.14,0.179-0.253,0.304-0.338
				c0.125-0.084,0.266-0.148,0.422-0.192c0.115-0.03,0.29-0.06,0.522-0.088c0.475-0.057,0.823-0.124,1.048-0.202
				c0.002-0.08,0.003-0.132,0.003-0.153c0-0.239-0.056-0.408-0.167-0.506c-0.149-0.133-0.373-0.199-0.669-0.199
				c-0.275,0-0.479,0.049-0.611,0.146s-0.229,0.268-0.292,0.514l-0.574-0.078c0.052-0.246,0.138-0.444,0.258-0.596
				c0.119-0.151,0.292-0.268,0.519-0.349c0.227-0.082,0.488-0.123,0.786-0.123c0.296,0,0.536,0.035,0.722,0.104
				c0.185,0.07,0.32,0.157,0.407,0.263c0.088,0.105,0.148,0.239,0.184,0.4c0.02,0.1,0.029,0.28,0.029,0.541v0.783
				c0,0.546,0.012,0.892,0.037,1.036s0.074,0.283,0.148,0.416h-0.613C139.346,48.247,139.306,48.104,139.289,47.941z M139.24,46.63
				c-0.214,0.087-0.533,0.161-0.96,0.222c-0.241,0.035-0.412,0.074-0.512,0.118c-0.101,0.043-0.178,0.106-0.232,0.19
				c-0.054,0.084-0.081,0.177-0.081,0.279c0,0.156,0.059,0.287,0.178,0.392c0.118,0.104,0.292,0.156,0.521,0.156
				c0.226,0,0.428-0.05,0.604-0.148s0.306-0.234,0.389-0.406c0.063-0.133,0.095-0.328,0.095-0.587V46.63z"/>
			<path d="M142.992,48.369v-0.438c-0.22,0.344-0.543,0.516-0.969,0.516c-0.276,0-0.53-0.076-0.762-0.229
				c-0.232-0.152-0.411-0.364-0.539-0.638c-0.127-0.272-0.19-0.587-0.19-0.941c0-0.346,0.058-0.659,0.173-0.941
				c0.115-0.281,0.288-0.497,0.519-0.647s0.488-0.226,0.773-0.226c0.209,0,0.395,0.044,0.559,0.133
				c0.163,0.088,0.295,0.202,0.397,0.344v-1.716h0.584v4.783H142.992z M141.136,46.64c0,0.444,0.094,0.775,0.28,0.995
				c0.188,0.22,0.408,0.33,0.663,0.33c0.256,0,0.475-0.105,0.654-0.315c0.179-0.21,0.269-0.53,0.269-0.961
				c0-0.474-0.091-0.822-0.273-1.044c-0.184-0.222-0.408-0.333-0.676-0.333c-0.261,0-0.479,0.106-0.654,0.32
				C141.224,45.845,141.136,46.181,141.136,46.64z"/>
			<path d="M144.464,44.261v-0.675h0.588v0.675H144.464z M144.464,48.369v-3.465h0.588v3.465H144.464z"/>
			<path d="M148.317,47.253l0.607,0.075c-0.096,0.354-0.273,0.63-0.532,0.825c-0.259,0.196-0.59,0.294-0.992,0.294
				c-0.507,0-0.908-0.156-1.205-0.468c-0.297-0.313-0.445-0.75-0.445-1.313c0-0.583,0.149-1.035,0.45-1.357
				c0.3-0.322,0.689-0.483,1.168-0.483c0.463,0,0.842,0.158,1.136,0.474c0.293,0.315,0.44,0.759,0.44,1.331
				c0,0.035-0.001,0.087-0.004,0.156h-2.584c0.021,0.381,0.13,0.673,0.323,0.875s0.435,0.304,0.725,0.304
				c0.215,0,0.398-0.057,0.551-0.17S148.229,47.501,148.317,47.253z M146.39,46.304h1.935c-0.026-0.292-0.101-0.51-0.222-0.656
				c-0.188-0.226-0.43-0.339-0.728-0.339c-0.271,0-0.497,0.09-0.681,0.271S146.409,46.001,146.39,46.304z"/>
			<path d="M149.662,48.369v-3.465h0.528v0.492c0.255-0.381,0.622-0.571,1.104-0.571c0.209,0,0.4,0.038,0.575,0.113
				c0.176,0.074,0.307,0.173,0.394,0.295s0.148,0.267,0.183,0.434c0.021,0.109,0.033,0.3,0.033,0.571v2.131h-0.588v-2.107
				c0-0.24-0.022-0.419-0.068-0.537c-0.046-0.119-0.127-0.213-0.243-0.284c-0.116-0.07-0.253-0.105-0.409-0.105
				c-0.25,0-0.467,0.079-0.647,0.237c-0.182,0.159-0.272,0.461-0.272,0.904v1.893H149.662z"/>
			<path d="M154.661,47.844l0.085,0.519c-0.165,0.035-0.313,0.053-0.443,0.053c-0.214,0-0.379-0.034-0.496-0.102
				s-0.2-0.156-0.248-0.266c-0.048-0.11-0.072-0.341-0.072-0.693V45.36h-0.431v-0.456h0.431v-0.858l0.584-0.353v1.211h0.591v0.456
				h-0.591v2.026c0,0.168,0.011,0.275,0.031,0.323s0.055,0.086,0.102,0.114s0.113,0.042,0.2,0.042
				C154.469,47.866,154.555,47.859,154.661,47.844z"/>
			<path d="M156.357,49.775c-0.323-0.409-0.598-0.888-0.822-1.436c-0.224-0.548-0.336-1.116-0.336-1.703
				c0-0.518,0.084-1.014,0.252-1.488c0.195-0.55,0.498-1.099,0.906-1.645h0.422c-0.264,0.452-0.438,0.775-0.522,0.969
				c-0.133,0.301-0.237,0.614-0.313,0.94c-0.094,0.406-0.141,0.815-0.141,1.227c0,1.047,0.325,2.092,0.977,3.136H156.357z"/>
			<path d="M158.743,47.844l0.085,0.519c-0.165,0.035-0.313,0.053-0.443,0.053c-0.214,0-0.379-0.034-0.496-0.102
				s-0.2-0.156-0.248-0.266c-0.048-0.11-0.072-0.341-0.072-0.693V45.36h-0.431v-0.456h0.431v-0.858l0.584-0.353v1.211h0.591v0.456
				h-0.591v2.026c0,0.168,0.011,0.275,0.031,0.323s0.055,0.086,0.102,0.114s0.113,0.042,0.2,0.042
				C158.551,47.866,158.637,47.859,158.743,47.844z"/>
			<path d="M159.099,46.637c0-0.642,0.179-1.117,0.535-1.426c0.298-0.257,0.661-0.386,1.09-0.386c0.477,0,0.866,0.156,1.168,0.469
				c0.303,0.312,0.454,0.743,0.454,1.294c0,0.445-0.067,0.796-0.201,1.052s-0.328,0.454-0.584,0.596s-0.534,0.212-0.837,0.212
				c-0.485,0-0.877-0.155-1.176-0.467C159.248,47.67,159.099,47.222,159.099,46.637z M159.702,46.637
				c0,0.443,0.097,0.775,0.291,0.997c0.193,0.221,0.437,0.331,0.73,0.331c0.292,0,0.534-0.111,0.728-0.333
				c0.194-0.222,0.291-0.561,0.291-1.015c0-0.429-0.098-0.754-0.292-0.975c-0.195-0.221-0.438-0.331-0.727-0.331
				c-0.294,0-0.537,0.11-0.73,0.33C159.799,45.861,159.702,46.192,159.702,46.637z"/>
			<path d="M163.034,49.697v-4.793h0.535v0.45c0.126-0.177,0.269-0.309,0.428-0.396c0.158-0.089,0.351-0.133,0.577-0.133
				c0.296,0,0.557,0.076,0.783,0.229s0.397,0.367,0.513,0.645s0.173,0.581,0.173,0.912c0,0.354-0.063,0.674-0.191,0.958
				c-0.127,0.283-0.312,0.501-0.555,0.652c-0.242,0.151-0.497,0.227-0.765,0.227c-0.196,0-0.372-0.041-0.527-0.124
				c-0.155-0.082-0.283-0.187-0.383-0.313v1.688H163.034z M163.566,46.656c0,0.445,0.09,0.775,0.271,0.988
				c0.181,0.214,0.399,0.32,0.656,0.32c0.261,0,0.484-0.11,0.67-0.331c0.187-0.222,0.279-0.563,0.279-1.026
				c0-0.441-0.091-0.772-0.272-0.992s-0.398-0.33-0.651-0.33c-0.25,0-0.471,0.117-0.664,0.352
				C163.662,45.87,163.566,46.21,163.566,46.656z"/>
			<path d="M166.904,48.369V47.7h0.669v0.669c0,0.246-0.043,0.444-0.131,0.596c-0.087,0.151-0.225,0.268-0.414,0.351l-0.163-0.251
				c0.124-0.055,0.216-0.135,0.274-0.24s0.091-0.257,0.098-0.455H166.904z"/>
			<path d="M170.359,48.451l0.284-1.391h-0.552v-0.486h0.649l0.241-1.185h-0.891v-0.485h0.989l0.283-1.4h0.489l-0.283,1.4h1.027
				l0.284-1.4h0.493l-0.284,1.4h0.564v0.485h-0.662l-0.245,1.185h0.907v0.486h-1.005l-0.284,1.391h-0.489l0.28-1.391h-1.024
				l-0.284,1.391H170.359z M171.23,46.574h1.024l0.245-1.185h-1.027L171.23,46.574z"/>
			<path d="M174.288,48.369v-4.783h3.228v0.564h-2.594v1.481h2.244v0.564h-2.244v2.173H174.288z"/>
			<path d="M178.37,48.369v-4.783h3.228v0.564h-2.594v1.481h2.244v0.564h-2.244v2.173H178.37z"/>
			<path d="M182.452,48.369v-4.783h3.228v0.564h-2.594v1.481h2.244v0.564h-2.244v2.173H182.452z"/>
			<path d="M186.534,48.369v-4.783h3.228v0.564h-2.594v1.481h2.244v0.564h-2.244v2.173H186.534z"/>
			<path d="M190.616,48.369v-4.783h3.228v0.564h-2.594v1.481h2.244v0.564h-2.244v2.173H190.616z"/>
			<path d="M194.698,48.369v-4.783h3.228v0.564h-2.594v1.481h2.244v0.564h-2.244v2.173H194.698z"/>
			<path d="M198.826,48.369V47.7h0.669v0.669c0,0.246-0.043,0.444-0.131,0.596c-0.087,0.151-0.225,0.268-0.414,0.351l-0.163-0.251
				c0.124-0.055,0.216-0.135,0.274-0.24s0.091-0.257,0.098-0.455H198.826z"/>
			<path d="M202.281,48.451l0.284-1.391h-0.552v-0.486h0.649l0.241-1.185h-0.891v-0.485h0.989l0.283-1.4h0.489l-0.283,1.4h1.027
				l0.284-1.4h0.493l-0.284,1.4h0.564v0.485h-0.662l-0.245,1.185h0.907v0.486h-1.005l-0.284,1.391h-0.489l0.28-1.391h-1.024
				l-0.284,1.391H202.281z M203.152,46.574h1.024l0.245-1.185h-1.027L203.152,46.574z"/>
			<path d="M205.939,46.01c0-0.565,0.059-1.021,0.175-1.365s0.289-0.61,0.519-0.798s0.519-0.28,0.866-0.28
				c0.257,0,0.482,0.052,0.676,0.154c0.193,0.104,0.354,0.253,0.479,0.447s0.226,0.432,0.297,0.711
				c0.072,0.28,0.107,0.657,0.107,1.131c0,0.562-0.058,1.015-0.173,1.359s-0.287,0.611-0.517,0.8
				c-0.229,0.188-0.52,0.282-0.87,0.282c-0.461,0-0.823-0.166-1.086-0.496C206.097,47.557,205.939,46.908,205.939,46.01z
				 M206.543,46.01c0,0.785,0.092,1.309,0.276,1.568c0.184,0.26,0.41,0.39,0.68,0.39s0.497-0.131,0.681-0.392
				s0.275-0.783,0.275-1.566c0-0.787-0.092-1.311-0.275-1.569s-0.413-0.389-0.688-0.389c-0.27,0-0.484,0.114-0.646,0.343
				C206.645,44.687,206.543,45.225,206.543,46.01z"/>
			<path d="M209.656,46.01c0-0.565,0.059-1.021,0.175-1.365s0.289-0.61,0.519-0.798s0.519-0.28,0.866-0.28
				c0.257,0,0.482,0.052,0.676,0.154c0.193,0.104,0.354,0.253,0.479,0.447s0.226,0.432,0.297,0.711
				c0.072,0.28,0.107,0.657,0.107,1.131c0,0.562-0.058,1.015-0.173,1.359s-0.287,0.611-0.517,0.8
				c-0.229,0.188-0.52,0.282-0.87,0.282c-0.461,0-0.823-0.166-1.086-0.496C209.814,47.557,209.656,46.908,209.656,46.01z
				 M210.26,46.01c0,0.785,0.092,1.309,0.276,1.568c0.184,0.26,0.41,0.39,0.68,0.39s0.497-0.131,0.681-0.392
				s0.275-0.783,0.275-1.566c0-0.787-0.092-1.311-0.275-1.569s-0.413-0.389-0.688-0.389c-0.27,0-0.484,0.114-0.646,0.343
				C210.361,44.687,210.26,45.225,210.26,46.01z"/>
			<path d="M216.421,44.757l-0.584,0.046c-0.053-0.23-0.126-0.398-0.222-0.503c-0.159-0.167-0.355-0.251-0.588-0.251
				c-0.188,0-0.352,0.053-0.492,0.156c-0.186,0.136-0.331,0.332-0.438,0.591s-0.162,0.628-0.167,1.106
				c0.142-0.216,0.314-0.375,0.52-0.479c0.204-0.104,0.418-0.157,0.643-0.157c0.392,0,0.725,0.145,1,0.433s0.413,0.661,0.413,1.118
				c0,0.3-0.065,0.579-0.194,0.837c-0.13,0.258-0.308,0.455-0.533,0.592c-0.227,0.137-0.483,0.206-0.771,0.206
				c-0.489,0-0.889-0.181-1.197-0.54c-0.31-0.36-0.464-0.954-0.464-1.78c0-0.925,0.171-1.597,0.513-2.017
				c0.298-0.365,0.699-0.548,1.204-0.548c0.376,0,0.685,0.105,0.925,0.316S216.373,44.385,216.421,44.757z M214.022,46.819
				c0,0.202,0.043,0.396,0.129,0.581c0.086,0.185,0.206,0.325,0.36,0.422s0.316,0.146,0.486,0.146c0.248,0,0.461-0.1,0.64-0.3
				s0.268-0.473,0.268-0.816c0-0.33-0.088-0.591-0.265-0.781c-0.176-0.19-0.397-0.285-0.665-0.285c-0.266,0-0.491,0.095-0.676,0.285
				S214.022,46.511,214.022,46.819z"/>
			<path d="M220.138,44.757l-0.584,0.046c-0.053-0.23-0.126-0.398-0.222-0.503c-0.159-0.167-0.355-0.251-0.588-0.251
				c-0.188,0-0.352,0.053-0.492,0.156c-0.186,0.136-0.331,0.332-0.438,0.591s-0.162,0.628-0.167,1.106
				c0.142-0.216,0.314-0.375,0.52-0.479c0.204-0.104,0.418-0.157,0.643-0.157c0.392,0,0.725,0.145,1,0.433s0.413,0.661,0.413,1.118
				c0,0.3-0.065,0.579-0.194,0.837c-0.13,0.258-0.308,0.455-0.533,0.592c-0.227,0.137-0.483,0.206-0.771,0.206
				c-0.489,0-0.889-0.181-1.197-0.54c-0.31-0.36-0.464-0.954-0.464-1.78c0-0.925,0.171-1.597,0.513-2.017
				c0.298-0.365,0.699-0.548,1.204-0.548c0.376,0,0.685,0.105,0.925,0.316S220.09,44.385,220.138,44.757z M217.739,46.819
				c0,0.202,0.043,0.396,0.129,0.581c0.086,0.185,0.206,0.325,0.36,0.422s0.316,0.146,0.486,0.146c0.248,0,0.461-0.1,0.64-0.3
				s0.268-0.473,0.268-0.816c0-0.33-0.088-0.591-0.265-0.781c-0.176-0.19-0.397-0.285-0.665-0.285c-0.266,0-0.491,0.095-0.676,0.285
				S217.739,46.511,217.739,46.819z"/>
			<path d="M220.895,47.263l0.564-0.052c0.048,0.266,0.14,0.458,0.274,0.577c0.135,0.12,0.308,0.18,0.519,0.18
				c0.181,0,0.339-0.041,0.475-0.124c0.137-0.083,0.248-0.193,0.335-0.331c0.087-0.139,0.16-0.325,0.219-0.56
				c0.059-0.235,0.088-0.475,0.088-0.718c0-0.026-0.001-0.065-0.003-0.118c-0.118,0.188-0.278,0.339-0.481,0.456
				c-0.204,0.116-0.424,0.174-0.661,0.174c-0.396,0-0.73-0.144-1.005-0.431s-0.411-0.665-0.411-1.135
				c0-0.485,0.143-0.876,0.429-1.172s0.645-0.443,1.075-0.443c0.312,0,0.596,0.083,0.854,0.251c0.258,0.167,0.454,0.406,0.588,0.716
				c0.134,0.311,0.2,0.759,0.2,1.347c0,0.611-0.066,1.098-0.199,1.46s-0.33,0.638-0.592,0.827c-0.263,0.189-0.569,0.284-0.922,0.284
				c-0.374,0-0.68-0.104-0.917-0.313C221.085,47.932,220.942,47.64,220.895,47.263z M223.3,45.151c0-0.337-0.09-0.604-0.27-0.803
				c-0.18-0.197-0.396-0.297-0.647-0.297c-0.261,0-0.488,0.107-0.682,0.32c-0.194,0.213-0.291,0.489-0.291,0.829
				c0,0.304,0.092,0.552,0.276,0.742c0.184,0.19,0.41,0.285,0.68,0.285c0.272,0,0.495-0.095,0.671-0.285
				C223.212,45.753,223.3,45.489,223.3,45.151z"/>
			<path d="M224.611,47.263l0.564-0.052c0.048,0.266,0.14,0.458,0.274,0.577c0.135,0.12,0.308,0.18,0.519,0.18
				c0.181,0,0.339-0.041,0.475-0.124c0.137-0.083,0.248-0.193,0.335-0.331c0.087-0.139,0.16-0.325,0.219-0.56
				c0.059-0.235,0.088-0.475,0.088-0.718c0-0.026-0.001-0.065-0.003-0.118c-0.118,0.188-0.278,0.339-0.481,0.456
				c-0.204,0.116-0.424,0.174-0.661,0.174c-0.396,0-0.73-0.144-1.005-0.431s-0.411-0.665-0.411-1.135
				c0-0.485,0.143-0.876,0.429-1.172s0.645-0.443,1.075-0.443c0.312,0,0.596,0.083,0.854,0.251c0.258,0.167,0.454,0.406,0.588,0.716
				c0.134,0.311,0.2,0.759,0.2,1.347c0,0.611-0.066,1.098-0.199,1.46s-0.33,0.638-0.592,0.827c-0.263,0.189-0.569,0.284-0.922,0.284
				c-0.374,0-0.68-0.104-0.917-0.313C224.802,47.932,224.659,47.64,224.611,47.263z M227.017,45.151c0-0.337-0.09-0.604-0.27-0.803
				c-0.18-0.197-0.396-0.297-0.647-0.297c-0.261,0-0.488,0.107-0.682,0.32c-0.194,0.213-0.291,0.489-0.291,0.829
				c0,0.304,0.092,0.552,0.276,0.742c0.184,0.19,0.41,0.285,0.68,0.285c0.272,0,0.495-0.095,0.671-0.285
				C226.929,45.753,227.017,45.489,227.017,45.151z"/>
			<path d="M228.788,49.775h-0.421c0.65-1.044,0.976-2.089,0.976-3.136c0-0.409-0.047-0.814-0.14-1.217
				c-0.074-0.326-0.178-0.64-0.311-0.94c-0.085-0.195-0.26-0.521-0.525-0.979h0.421c0.409,0.546,0.712,1.095,0.907,1.645
				c0.168,0.475,0.252,0.971,0.252,1.488c0,0.587-0.113,1.155-0.338,1.703C229.384,48.888,229.11,49.366,228.788,49.775z"/>
			<path d="M230.782,48.369V47.7h0.669v0.669c0,0.246-0.043,0.444-0.131,0.596c-0.087,0.151-0.225,0.268-0.414,0.351l-0.163-0.251
				c0.124-0.055,0.216-0.135,0.274-0.24s0.091-0.257,0.098-0.455H230.782z M230.782,45.572v-0.668h0.669v0.668H230.782z"/>
			<path d="M51.023,56.388h-0.545v-4.783h0.587v1.706c0.248-0.311,0.564-0.467,0.95-0.467c0.213,0,0.414,0.043,0.604,0.129
				s0.348,0.207,0.47,0.362c0.123,0.155,0.22,0.344,0.289,0.563s0.104,0.454,0.104,0.704c0,0.594-0.146,1.053-0.44,1.377
				s-0.646,0.486-1.058,0.486c-0.408,0-0.729-0.171-0.962-0.512V56.388z M51.017,54.629c0,0.416,0.057,0.716,0.17,0.9
				c0.185,0.303,0.435,0.454,0.75,0.454c0.257,0,0.479-0.111,0.666-0.335c0.187-0.223,0.28-0.555,0.28-0.997
				c0-0.452-0.09-0.786-0.269-1.001c-0.18-0.216-0.396-0.323-0.651-0.323c-0.257,0-0.479,0.111-0.666,0.334
				C51.11,53.885,51.017,54.207,51.017,54.629z"/>
			<path d="M56.46,55.96c-0.218,0.186-0.428,0.315-0.629,0.392s-0.417,0.114-0.647,0.114c-0.381,0-0.673-0.093-0.878-0.278
				c-0.204-0.187-0.307-0.424-0.307-0.714c0-0.169,0.039-0.324,0.116-0.465c0.077-0.14,0.179-0.253,0.304-0.338
				c0.125-0.084,0.266-0.148,0.422-0.192c0.115-0.03,0.29-0.06,0.522-0.088c0.475-0.057,0.823-0.124,1.048-0.202
				c0.002-0.08,0.003-0.132,0.003-0.153c0-0.239-0.056-0.408-0.167-0.506c-0.149-0.133-0.373-0.199-0.669-0.199
				c-0.275,0-0.479,0.049-0.611,0.146s-0.229,0.268-0.292,0.514l-0.574-0.078c0.052-0.246,0.138-0.444,0.258-0.596
				c0.119-0.151,0.292-0.268,0.519-0.349c0.227-0.082,0.488-0.123,0.786-0.123c0.296,0,0.536,0.035,0.722,0.104
				c0.185,0.07,0.32,0.157,0.407,0.263c0.088,0.105,0.148,0.239,0.184,0.4c0.02,0.1,0.029,0.28,0.029,0.541v0.783
				c0,0.546,0.012,0.892,0.037,1.036s0.074,0.283,0.148,0.416h-0.613C56.517,56.266,56.477,56.123,56.46,55.96z M56.411,54.648
				c-0.214,0.087-0.533,0.161-0.96,0.222c-0.241,0.035-0.412,0.074-0.512,0.118c-0.101,0.043-0.178,0.106-0.232,0.19
				c-0.054,0.084-0.081,0.177-0.081,0.279c0,0.156,0.059,0.287,0.178,0.392c0.118,0.104,0.292,0.156,0.521,0.156
				c0.226,0,0.428-0.05,0.604-0.148s0.306-0.234,0.389-0.406c0.063-0.133,0.095-0.328,0.095-0.587V54.648z"/>
			<path d="M60.177,55.118l0.577,0.075c-0.063,0.398-0.225,0.71-0.484,0.935c-0.26,0.226-0.579,0.338-0.958,0.338
				c-0.474,0-0.855-0.155-1.144-0.465s-0.433-0.754-0.433-1.333c0-0.374,0.063-0.701,0.187-0.982c0.124-0.28,0.313-0.49,0.565-0.631
				c0.254-0.141,0.529-0.211,0.828-0.211c0.376,0,0.684,0.096,0.923,0.286s0.393,0.46,0.46,0.811l-0.57,0.088
				c-0.055-0.232-0.151-0.407-0.289-0.525c-0.139-0.117-0.306-0.176-0.501-0.176c-0.296,0-0.536,0.105-0.722,0.318
				c-0.185,0.212-0.277,0.547-0.277,1.006c0,0.466,0.09,0.805,0.268,1.016c0.179,0.211,0.411,0.316,0.698,0.316
				c0.231,0,0.424-0.071,0.578-0.213C60.037,55.63,60.135,55.412,60.177,55.118z"/>
			<path d="M61.26,56.388v-4.783h0.588v2.728l1.39-1.409h0.761l-1.325,1.285l1.459,2.18h-0.725l-1.146-1.771l-0.414,0.397v1.374
				H61.26z"/>
			<path d="M64.491,56.675l0.571,0.085c0.023,0.176,0.09,0.305,0.198,0.385c0.146,0.109,0.345,0.163,0.598,0.163
				c0.271,0,0.481-0.054,0.63-0.163c0.147-0.108,0.248-0.261,0.3-0.457c0.03-0.119,0.045-0.37,0.043-0.753
				c-0.257,0.302-0.577,0.453-0.96,0.453c-0.477,0-0.845-0.172-1.106-0.516c-0.261-0.344-0.391-0.756-0.391-1.236
				c0-0.331,0.06-0.636,0.179-0.916c0.12-0.279,0.293-0.495,0.521-0.647s0.494-0.229,0.802-0.229c0.408,0,0.746,0.166,1.011,0.496
				v-0.417h0.542v2.995c0,0.539-0.055,0.922-0.165,1.146c-0.109,0.226-0.283,0.403-0.521,0.534c-0.238,0.13-0.531,0.195-0.88,0.195
				c-0.413,0-0.747-0.093-1.002-0.279C64.606,57.329,64.482,57.049,64.491,56.675z M64.978,54.593c0,0.455,0.09,0.787,0.271,0.995
				c0.181,0.209,0.407,0.313,0.679,0.313c0.27,0,0.496-0.104,0.679-0.312s0.274-0.533,0.274-0.978c0-0.424-0.095-0.744-0.282-0.959
				c-0.188-0.216-0.415-0.323-0.681-0.323c-0.261,0-0.483,0.106-0.666,0.318S64.978,54.176,64.978,54.593z"/>
			<path d="M68.309,56.388v-3.465h0.529v0.524c0.135-0.245,0.259-0.407,0.373-0.485c0.114-0.079,0.24-0.118,0.377-0.118
				c0.198,0,0.399,0.063,0.604,0.189l-0.202,0.545c-0.144-0.085-0.287-0.127-0.431-0.127c-0.128,0-0.243,0.038-0.346,0.115
				c-0.103,0.078-0.175,0.185-0.219,0.322c-0.065,0.208-0.098,0.437-0.098,0.685v1.814H68.309z"/>
			<path d="M70.322,54.655c0-0.642,0.179-1.117,0.535-1.426c0.298-0.257,0.661-0.386,1.09-0.386c0.477,0,0.866,0.156,1.168,0.469
				c0.303,0.312,0.454,0.743,0.454,1.294c0,0.445-0.067,0.796-0.201,1.052s-0.328,0.454-0.584,0.596s-0.534,0.212-0.837,0.212
				c-0.485,0-0.877-0.155-1.176-0.467C70.472,55.688,70.322,55.24,70.322,54.655z M70.926,54.655c0,0.443,0.097,0.775,0.291,0.997
				c0.193,0.221,0.437,0.331,0.73,0.331c0.292,0,0.534-0.111,0.728-0.333c0.194-0.222,0.291-0.561,0.291-1.015
				c0-0.429-0.098-0.754-0.292-0.975c-0.195-0.221-0.438-0.331-0.727-0.331c-0.294,0-0.537,0.11-0.73,0.33
				C71.022,53.88,70.926,54.211,70.926,54.655z"/>
			<path d="M76.529,56.388v-0.509c-0.271,0.392-0.637,0.587-1.1,0.587c-0.205,0-0.396-0.039-0.573-0.117
				c-0.177-0.078-0.309-0.177-0.395-0.295c-0.086-0.119-0.146-0.265-0.182-0.437c-0.023-0.115-0.035-0.298-0.035-0.548v-2.146h0.587
				v1.922c0,0.307,0.012,0.513,0.036,0.619c0.037,0.155,0.115,0.276,0.234,0.364c0.12,0.088,0.268,0.132,0.444,0.132
				c0.176,0,0.342-0.045,0.496-0.135c0.154-0.091,0.264-0.214,0.328-0.369c0.063-0.155,0.096-0.381,0.096-0.677v-1.856h0.588v3.465
				H76.529z"/>
			<path d="M77.975,56.388v-3.465h0.528v0.492c0.255-0.381,0.622-0.571,1.104-0.571c0.209,0,0.4,0.038,0.575,0.113
				c0.176,0.074,0.307,0.173,0.394,0.295s0.148,0.267,0.183,0.434c0.021,0.109,0.033,0.3,0.033,0.571v2.131h-0.588V54.28
				c0-0.24-0.022-0.419-0.068-0.537c-0.046-0.119-0.127-0.213-0.243-0.284c-0.116-0.07-0.253-0.105-0.409-0.105
				c-0.25,0-0.467,0.079-0.647,0.237c-0.182,0.159-0.272,0.461-0.272,0.904v1.893H77.975z"/>
			<path d="M83.939,56.388V55.95c-0.22,0.344-0.543,0.516-0.969,0.516c-0.276,0-0.53-0.076-0.762-0.229
				c-0.232-0.152-0.411-0.364-0.539-0.638c-0.127-0.272-0.19-0.587-0.19-0.941c0-0.346,0.058-0.659,0.173-0.941
				c0.115-0.281,0.288-0.497,0.519-0.647s0.488-0.226,0.773-0.226c0.209,0,0.395,0.044,0.559,0.133
				c0.163,0.088,0.295,0.202,0.397,0.344v-1.716h0.584v4.783H83.939z M82.083,54.658c0,0.444,0.094,0.775,0.28,0.995
				c0.188,0.22,0.408,0.33,0.663,0.33c0.256,0,0.475-0.105,0.654-0.315c0.179-0.21,0.269-0.53,0.269-0.961
				c0-0.474-0.091-0.822-0.273-1.044C83.492,53.441,83.268,53.33,83,53.33c-0.261,0-0.479,0.106-0.654,0.32
				C82.171,53.863,82.083,54.199,82.083,54.658z"/>
			<path d="M85.571,53.591v-0.668h0.669v0.668H85.571z M85.571,56.388v-0.669h0.669v0.669H85.571z"/>
			<path d="M88.893,54.952v-0.591h1.805v0.591H88.893z"/>
			<path d="M91.347,56.388v-3.465h0.525v0.485c0.108-0.169,0.254-0.306,0.434-0.409c0.181-0.104,0.387-0.155,0.617-0.155
				c0.257,0,0.467,0.054,0.631,0.16c0.165,0.106,0.28,0.256,0.348,0.447c0.274-0.405,0.631-0.607,1.07-0.607
				c0.344,0,0.608,0.096,0.793,0.286c0.186,0.19,0.277,0.483,0.277,0.879v2.379h-0.584v-2.183c0-0.235-0.019-0.404-0.057-0.508
				s-0.107-0.187-0.207-0.25c-0.101-0.063-0.218-0.094-0.353-0.094c-0.244,0-0.446,0.081-0.607,0.242
				c-0.161,0.162-0.241,0.422-0.241,0.778v2.014h-0.588v-2.252c0-0.261-0.048-0.456-0.144-0.587s-0.252-0.195-0.47-0.195
				c-0.165,0-0.317,0.043-0.458,0.13s-0.242,0.215-0.306,0.382c-0.063,0.168-0.094,0.409-0.094,0.725v1.798H91.347z"/>
			<path d="M96.694,54.655c0-0.642,0.179-1.117,0.535-1.426c0.298-0.257,0.661-0.386,1.09-0.386c0.477,0,0.866,0.156,1.168,0.469
				c0.303,0.312,0.454,0.743,0.454,1.294c0,0.445-0.067,0.796-0.201,1.052s-0.328,0.454-0.584,0.596s-0.534,0.212-0.837,0.212
				c-0.485,0-0.877-0.155-1.176-0.467C96.844,55.688,96.694,55.24,96.694,54.655z M97.298,54.655c0,0.443,0.097,0.775,0.291,0.997
				c0.193,0.221,0.437,0.331,0.73,0.331c0.292,0,0.534-0.111,0.728-0.333c0.194-0.222,0.291-0.561,0.291-1.015
				c0-0.429-0.098-0.754-0.292-0.975c-0.195-0.221-0.438-0.331-0.727-0.331c-0.294,0-0.537,0.11-0.73,0.33
				C97.395,53.88,97.298,54.211,97.298,54.655z"/>
			<path d="M100.32,56.388v-0.477l2.205-2.532c-0.25,0.014-0.471,0.02-0.662,0.02h-1.413v-0.476h2.833v0.388l-1.877,2.199
				l-0.362,0.401c0.264-0.02,0.511-0.029,0.741-0.029h1.603v0.506H100.32z"/>
			<path d="M103.743,54.952v-0.591h1.805v0.591H103.743z"/>
			<path d="M106.185,56.388v-4.783h0.587v4.783H106.185z"/>
			<path d="M107.685,52.279v-0.675h0.588v0.675H107.685z M107.685,56.388v-3.465h0.588v3.465H107.685z"/>
			<path d="M109.166,56.388v-3.465h0.528v0.492c0.255-0.381,0.622-0.571,1.104-0.571c0.209,0,0.4,0.038,0.575,0.113
				c0.176,0.074,0.307,0.173,0.394,0.295s0.148,0.267,0.183,0.434c0.021,0.109,0.033,0.3,0.033,0.571v2.131h-0.588V54.28
				c0-0.24-0.022-0.419-0.068-0.537c-0.046-0.119-0.127-0.213-0.243-0.284c-0.116-0.07-0.253-0.105-0.409-0.105
				c-0.25,0-0.467,0.079-0.647,0.237c-0.182,0.159-0.272,0.461-0.272,0.904v1.893H109.166z"/>
			<path d="M115.255,55.271l0.607,0.075c-0.096,0.354-0.273,0.63-0.532,0.825c-0.259,0.196-0.59,0.294-0.992,0.294
				c-0.507,0-0.908-0.156-1.205-0.468c-0.297-0.313-0.445-0.75-0.445-1.313c0-0.583,0.149-1.035,0.45-1.357
				c0.3-0.322,0.689-0.483,1.168-0.483c0.463,0,0.842,0.158,1.136,0.474c0.293,0.315,0.44,0.759,0.44,1.331
				c0,0.035-0.001,0.087-0.004,0.156h-2.584c0.021,0.381,0.13,0.673,0.323,0.875s0.435,0.304,0.725,0.304
				c0.215,0,0.398-0.057,0.551-0.17S115.166,55.52,115.255,55.271z M113.327,54.322h1.935c-0.026-0.292-0.101-0.51-0.222-0.656
				c-0.188-0.226-0.43-0.339-0.728-0.339c-0.271,0-0.497,0.09-0.681,0.271S113.347,54.02,113.327,54.322z"/>
			<path d="M118.861,55.96c-0.218,0.186-0.428,0.315-0.629,0.392s-0.417,0.114-0.647,0.114c-0.381,0-0.673-0.093-0.878-0.278
				c-0.204-0.187-0.307-0.424-0.307-0.714c0-0.169,0.039-0.324,0.116-0.465c0.077-0.14,0.179-0.253,0.304-0.338
				c0.125-0.084,0.266-0.148,0.422-0.192c0.115-0.03,0.29-0.06,0.522-0.088c0.475-0.057,0.823-0.124,1.048-0.202
				c0.002-0.08,0.003-0.132,0.003-0.153c0-0.239-0.056-0.408-0.167-0.506c-0.149-0.133-0.373-0.199-0.669-0.199
				c-0.275,0-0.479,0.049-0.611,0.146s-0.229,0.268-0.292,0.514l-0.574-0.078c0.052-0.246,0.138-0.444,0.258-0.596
				c0.119-0.151,0.292-0.268,0.519-0.349c0.227-0.082,0.488-0.123,0.786-0.123c0.296,0,0.536,0.035,0.722,0.104
				c0.185,0.07,0.32,0.157,0.407,0.263c0.088,0.105,0.148,0.239,0.184,0.4c0.02,0.1,0.029,0.28,0.029,0.541v0.783
				c0,0.546,0.012,0.892,0.037,1.036s0.074,0.283,0.148,0.416h-0.613C118.918,56.266,118.878,56.123,118.861,55.96z M118.813,54.648
				c-0.214,0.087-0.533,0.161-0.96,0.222c-0.241,0.035-0.412,0.074-0.512,0.118c-0.101,0.043-0.178,0.106-0.232,0.19
				c-0.054,0.084-0.081,0.177-0.081,0.279c0,0.156,0.059,0.287,0.178,0.392c0.118,0.104,0.292,0.156,0.521,0.156
				c0.226,0,0.428-0.05,0.604-0.148s0.306-0.234,0.389-0.406c0.063-0.133,0.095-0.328,0.095-0.587V54.648z"/>
			<path d="M120.31,56.388v-3.465h0.529v0.524c0.135-0.245,0.259-0.407,0.373-0.485c0.114-0.079,0.24-0.118,0.377-0.118
				c0.198,0,0.399,0.063,0.604,0.189l-0.202,0.545c-0.144-0.085-0.287-0.127-0.431-0.127c-0.128,0-0.243,0.038-0.346,0.115
				c-0.103,0.078-0.175,0.185-0.219,0.322c-0.065,0.208-0.098,0.437-0.098,0.685v1.814H120.31z"/>
			<path d="M122.314,54.952v-0.591h1.805v0.591H122.314z"/>
			<path d="M124.66,56.675l0.571,0.085c0.023,0.176,0.09,0.305,0.198,0.385c0.146,0.109,0.345,0.163,0.598,0.163
				c0.271,0,0.481-0.054,0.63-0.163c0.147-0.108,0.248-0.261,0.3-0.457c0.03-0.119,0.045-0.37,0.043-0.753
				c-0.257,0.302-0.577,0.453-0.96,0.453c-0.477,0-0.845-0.172-1.106-0.516c-0.261-0.344-0.391-0.756-0.391-1.236
				c0-0.331,0.06-0.636,0.179-0.916c0.12-0.279,0.293-0.495,0.521-0.647s0.494-0.229,0.802-0.229c0.408,0,0.746,0.166,1.011,0.496
				v-0.417h0.542v2.995c0,0.539-0.055,0.922-0.165,1.146c-0.109,0.226-0.283,0.403-0.521,0.534c-0.238,0.13-0.531,0.195-0.88,0.195
				c-0.413,0-0.747-0.093-1.002-0.279C124.774,57.329,124.651,57.049,124.66,56.675z M125.147,54.593
				c0,0.455,0.09,0.787,0.271,0.995c0.181,0.209,0.407,0.313,0.679,0.313c0.27,0,0.496-0.104,0.679-0.312s0.274-0.533,0.274-0.978
				c0-0.424-0.095-0.744-0.282-0.959c-0.188-0.216-0.415-0.323-0.681-0.323c-0.261,0-0.483,0.106-0.666,0.318
				S125.147,54.176,125.147,54.593z"/>
			<path d="M128.478,56.388v-3.465h0.529v0.524c0.135-0.245,0.259-0.407,0.373-0.485c0.114-0.079,0.24-0.118,0.377-0.118
				c0.198,0,0.399,0.063,0.604,0.189l-0.202,0.545c-0.144-0.085-0.287-0.127-0.431-0.127c-0.128,0-0.243,0.038-0.346,0.115
				c-0.103,0.078-0.175,0.185-0.219,0.322c-0.065,0.208-0.098,0.437-0.098,0.685v1.814H128.478z"/>
			<path d="M132.972,55.96c-0.218,0.186-0.428,0.315-0.629,0.392s-0.417,0.114-0.647,0.114c-0.381,0-0.673-0.093-0.878-0.278
				c-0.204-0.187-0.307-0.424-0.307-0.714c0-0.169,0.039-0.324,0.116-0.465c0.077-0.14,0.179-0.253,0.304-0.338
				c0.125-0.084,0.266-0.148,0.422-0.192c0.115-0.03,0.29-0.06,0.522-0.088c0.475-0.057,0.823-0.124,1.048-0.202
				c0.002-0.08,0.003-0.132,0.003-0.153c0-0.239-0.056-0.408-0.167-0.506c-0.149-0.133-0.373-0.199-0.669-0.199
				c-0.275,0-0.479,0.049-0.611,0.146s-0.229,0.268-0.292,0.514l-0.574-0.078c0.052-0.246,0.138-0.444,0.258-0.596
				c0.119-0.151,0.292-0.268,0.519-0.349c0.227-0.082,0.488-0.123,0.786-0.123c0.296,0,0.536,0.035,0.722,0.104
				c0.185,0.07,0.32,0.157,0.407,0.263c0.088,0.105,0.148,0.239,0.184,0.4c0.02,0.1,0.029,0.28,0.029,0.541v0.783
				c0,0.546,0.012,0.892,0.037,1.036s0.074,0.283,0.148,0.416h-0.613C133.028,56.266,132.988,56.123,132.972,55.96z M132.923,54.648
				c-0.214,0.087-0.533,0.161-0.96,0.222c-0.241,0.035-0.412,0.074-0.512,0.118c-0.101,0.043-0.178,0.106-0.232,0.19
				c-0.054,0.084-0.081,0.177-0.081,0.279c0,0.156,0.059,0.287,0.178,0.392c0.118,0.104,0.292,0.156,0.521,0.156
				c0.226,0,0.428-0.05,0.604-0.148s0.306-0.234,0.389-0.406c0.063-0.133,0.095-0.328,0.095-0.587V54.648z"/>
			<path d="M136.675,56.388V55.95c-0.22,0.344-0.543,0.516-0.969,0.516c-0.276,0-0.53-0.076-0.762-0.229
				c-0.232-0.152-0.411-0.364-0.539-0.638c-0.127-0.272-0.19-0.587-0.19-0.941c0-0.346,0.058-0.659,0.173-0.941
				c0.115-0.281,0.288-0.497,0.519-0.647s0.488-0.226,0.773-0.226c0.209,0,0.395,0.044,0.559,0.133
				c0.163,0.088,0.295,0.202,0.397,0.344v-1.716h0.584v4.783H136.675z M134.818,54.658c0,0.444,0.094,0.775,0.28,0.995
				c0.188,0.22,0.408,0.33,0.663,0.33c0.256,0,0.475-0.105,0.654-0.315c0.179-0.21,0.269-0.53,0.269-0.961
				c0-0.474-0.091-0.822-0.273-1.044c-0.184-0.222-0.408-0.333-0.676-0.333c-0.261,0-0.479,0.106-0.654,0.32
				C134.906,53.863,134.818,54.199,134.818,54.658z"/>
			<path d="M138.147,52.279v-0.675h0.588v0.675H138.147z M138.147,56.388v-3.465h0.588v3.465H138.147z"/>
			<path d="M142,55.271l0.607,0.075c-0.096,0.354-0.273,0.63-0.532,0.825c-0.259,0.196-0.59,0.294-0.992,0.294
				c-0.507,0-0.908-0.156-1.205-0.468c-0.297-0.313-0.445-0.75-0.445-1.313c0-0.583,0.149-1.035,0.45-1.357
				c0.3-0.322,0.689-0.483,1.168-0.483c0.463,0,0.842,0.158,1.136,0.474c0.293,0.315,0.44,0.759,0.44,1.331
				c0,0.035-0.001,0.087-0.004,0.156h-2.584c0.021,0.381,0.13,0.673,0.323,0.875s0.435,0.304,0.725,0.304
				c0.215,0,0.398-0.057,0.551-0.17S141.911,55.52,142,55.271z M140.072,54.322h1.935c-0.026-0.292-0.101-0.51-0.222-0.656
				c-0.188-0.226-0.43-0.339-0.728-0.339c-0.271,0-0.497,0.09-0.681,0.271S140.092,54.02,140.072,54.322z"/>
			<path d="M143.345,56.388v-3.465h0.528v0.492c0.255-0.381,0.622-0.571,1.104-0.571c0.209,0,0.4,0.038,0.575,0.113
				c0.176,0.074,0.307,0.173,0.394,0.295s0.148,0.267,0.183,0.434c0.021,0.109,0.033,0.3,0.033,0.571v2.131h-0.588V54.28
				c0-0.24-0.022-0.419-0.068-0.537c-0.046-0.119-0.127-0.213-0.243-0.284c-0.116-0.07-0.253-0.105-0.409-0.105
				c-0.25,0-0.467,0.079-0.647,0.237c-0.182,0.159-0.272,0.461-0.272,0.904v1.893H143.345z"/>
			<path d="M148.344,55.862l0.085,0.519c-0.165,0.035-0.313,0.053-0.443,0.053c-0.214,0-0.379-0.034-0.496-0.102
				s-0.2-0.156-0.248-0.266c-0.048-0.11-0.072-0.341-0.072-0.693v-1.994h-0.431v-0.456h0.431v-0.858l0.584-0.353v1.211h0.591v0.456
				h-0.591v2.026c0,0.168,0.011,0.275,0.031,0.323s0.055,0.086,0.102,0.114s0.113,0.042,0.2,0.042
				C148.151,55.885,148.237,55.878,148.344,55.862z"/>
			<path d="M150.04,57.794c-0.323-0.409-0.598-0.888-0.822-1.436c-0.224-0.548-0.336-1.116-0.336-1.703
				c0-0.518,0.084-1.014,0.252-1.488c0.195-0.55,0.498-1.099,0.906-1.645h0.422c-0.264,0.452-0.438,0.775-0.522,0.969
				c-0.133,0.301-0.237,0.614-0.313,0.94c-0.094,0.406-0.141,0.815-0.141,1.227c0,1.047,0.325,2.092,0.977,3.136H150.04z"/>
			<path d="M152.426,55.862l0.085,0.519c-0.165,0.035-0.313,0.053-0.443,0.053c-0.214,0-0.379-0.034-0.496-0.102
				s-0.2-0.156-0.248-0.266c-0.048-0.11-0.072-0.341-0.072-0.693v-1.994h-0.431v-0.456h0.431v-0.858l0.584-0.353v1.211h0.591v0.456
				h-0.591v2.026c0,0.168,0.011,0.275,0.031,0.323s0.055,0.086,0.102,0.114s0.113,0.042,0.2,0.042
				C152.233,55.885,152.319,55.878,152.426,55.862z"/>
			<path d="M152.781,54.655c0-0.642,0.179-1.117,0.535-1.426c0.298-0.257,0.661-0.386,1.09-0.386c0.477,0,0.866,0.156,1.168,0.469
				c0.303,0.312,0.454,0.743,0.454,1.294c0,0.445-0.067,0.796-0.201,1.052s-0.328,0.454-0.584,0.596s-0.534,0.212-0.837,0.212
				c-0.485,0-0.877-0.155-1.176-0.467C152.931,55.688,152.781,55.24,152.781,54.655z M153.385,54.655
				c0,0.443,0.097,0.775,0.291,0.997c0.193,0.221,0.437,0.331,0.73,0.331c0.292,0,0.534-0.111,0.728-0.333
				c0.194-0.222,0.291-0.561,0.291-1.015c0-0.429-0.098-0.754-0.292-0.975c-0.195-0.221-0.438-0.331-0.727-0.331
				c-0.294,0-0.537,0.11-0.73,0.33C153.481,53.88,153.385,54.211,153.385,54.655z"/>
			<path d="M156.717,57.716v-4.793h0.535v0.45c0.126-0.177,0.269-0.309,0.428-0.396c0.158-0.089,0.351-0.133,0.577-0.133
				c0.296,0,0.557,0.076,0.783,0.229s0.397,0.367,0.513,0.645s0.173,0.581,0.173,0.912c0,0.354-0.063,0.674-0.191,0.958
				c-0.127,0.283-0.312,0.501-0.555,0.652c-0.242,0.151-0.497,0.227-0.765,0.227c-0.196,0-0.372-0.041-0.527-0.124
				c-0.155-0.082-0.283-0.187-0.383-0.313v1.688H156.717z M157.249,54.675c0,0.445,0.09,0.775,0.271,0.988
				c0.181,0.214,0.399,0.32,0.656,0.32c0.261,0,0.484-0.11,0.67-0.331c0.187-0.222,0.279-0.563,0.279-1.026
				c0-0.441-0.091-0.772-0.272-0.992s-0.398-0.33-0.651-0.33c-0.25,0-0.471,0.117-0.664,0.352
				C157.345,53.889,157.249,54.229,157.249,54.675z"/>
			<path d="M160.587,56.388v-0.669h0.669v0.669c0,0.246-0.043,0.444-0.131,0.596c-0.087,0.151-0.225,0.268-0.414,0.351l-0.163-0.251
				c0.124-0.055,0.216-0.135,0.274-0.24s0.091-0.257,0.098-0.455H160.587z"/>
			<path d="M164.042,56.47l0.284-1.391h-0.552v-0.486h0.649l0.241-1.185h-0.891v-0.485h0.989l0.283-1.4h0.489l-0.283,1.4h1.027
				l0.284-1.4h0.493l-0.284,1.4h0.564v0.485h-0.662l-0.245,1.185h0.907v0.486h-1.005l-0.284,1.391h-0.489l0.28-1.391h-1.024
				l-0.284,1.391H164.042z M164.913,54.593h1.024l0.245-1.185h-1.027L164.913,54.593z"/>
			<path d="M167.971,56.388v-4.783h3.228v0.564h-2.594v1.481h2.244v0.564h-2.244v2.173H167.971z"/>
			<path d="M172.053,56.388v-4.783h3.228v0.564h-2.594v1.481h2.244v0.564h-2.244v2.173H172.053z"/>
			<path d="M176.135,56.388v-4.783h3.228v0.564h-2.594v1.481h2.244v0.564h-2.244v2.173H176.135z"/>
			<path d="M180.217,56.388v-4.783h3.228v0.564h-2.594v1.481h2.244v0.564h-2.244v2.173H180.217z"/>
			<path d="M184.299,56.388v-4.783h3.228v0.564h-2.594v1.481h2.244v0.564h-2.244v2.173H184.299z"/>
			<path d="M188.381,56.388v-4.783h3.228v0.564h-2.594v1.481h2.244v0.564h-2.244v2.173H188.381z"/>
			<path d="M192.509,56.388v-0.669h0.669v0.669c0,0.246-0.043,0.444-0.131,0.596c-0.087,0.151-0.225,0.268-0.414,0.351l-0.163-0.251
				c0.124-0.055,0.216-0.135,0.274-0.24s0.091-0.257,0.098-0.455H192.509z"/>
			<path d="M195.964,56.47l0.284-1.391h-0.552v-0.486h0.649l0.241-1.185h-0.891v-0.485h0.989l0.283-1.4h0.489l-0.283,1.4h1.027
				l0.284-1.4h0.493l-0.284,1.4h0.564v0.485h-0.662l-0.245,1.185h0.907v0.486h-1.005l-0.284,1.391h-0.489l0.28-1.391h-1.024
				l-0.284,1.391H195.964z M196.835,54.593h1.024l0.245-1.185h-1.027L196.835,54.593z"/>
			<path d="M199.622,54.028c0-0.565,0.059-1.021,0.175-1.365s0.289-0.61,0.519-0.798s0.519-0.28,0.866-0.28
				c0.257,0,0.482,0.052,0.676,0.154c0.193,0.104,0.354,0.253,0.479,0.447s0.226,0.432,0.297,0.711
				c0.072,0.28,0.107,0.657,0.107,1.131c0,0.562-0.058,1.015-0.173,1.359s-0.287,0.611-0.517,0.8
				c-0.229,0.188-0.52,0.282-0.87,0.282c-0.461,0-0.823-0.166-1.086-0.496C199.779,55.575,199.622,54.927,199.622,54.028z
				 M200.226,54.028c0,0.785,0.092,1.309,0.276,1.568c0.184,0.26,0.41,0.39,0.68,0.39s0.497-0.131,0.681-0.392
				s0.275-0.783,0.275-1.566c0-0.787-0.092-1.311-0.275-1.569s-0.413-0.389-0.688-0.389c-0.27,0-0.484,0.114-0.646,0.343
				C200.327,52.705,200.226,53.243,200.226,54.028z"/>
			<path d="M203.339,54.028c0-0.565,0.059-1.021,0.175-1.365s0.289-0.61,0.519-0.798s0.519-0.28,0.866-0.28
				c0.257,0,0.482,0.052,0.676,0.154c0.193,0.104,0.354,0.253,0.479,0.447s0.226,0.432,0.297,0.711
				c0.072,0.28,0.107,0.657,0.107,1.131c0,0.562-0.058,1.015-0.173,1.359s-0.287,0.611-0.517,0.8
				c-0.229,0.188-0.52,0.282-0.87,0.282c-0.461,0-0.823-0.166-1.086-0.496C203.496,55.575,203.339,54.927,203.339,54.028z
				 M203.942,54.028c0,0.785,0.092,1.309,0.276,1.568c0.184,0.26,0.41,0.39,0.68,0.39s0.497-0.131,0.681-0.392
				s0.275-0.783,0.275-1.566c0-0.787-0.092-1.311-0.275-1.569s-0.413-0.389-0.688-0.389c-0.27,0-0.484,0.114-0.646,0.343
				C204.044,52.705,203.942,53.243,203.942,54.028z"/>
			<path d="M210.104,52.775l-0.584,0.046c-0.053-0.23-0.126-0.398-0.222-0.503c-0.159-0.167-0.355-0.251-0.588-0.251
				c-0.188,0-0.352,0.053-0.492,0.156c-0.186,0.136-0.331,0.332-0.438,0.591s-0.162,0.628-0.167,1.106
				c0.142-0.216,0.314-0.375,0.52-0.479c0.204-0.104,0.418-0.157,0.643-0.157c0.392,0,0.725,0.145,1,0.433s0.413,0.661,0.413,1.118
				c0,0.3-0.065,0.579-0.194,0.837c-0.13,0.258-0.308,0.455-0.533,0.592c-0.227,0.137-0.483,0.206-0.771,0.206
				c-0.489,0-0.889-0.181-1.197-0.54c-0.31-0.36-0.464-0.954-0.464-1.78c0-0.925,0.171-1.597,0.513-2.017
				c0.298-0.365,0.699-0.548,1.204-0.548c0.376,0,0.685,0.105,0.925,0.316S210.056,52.403,210.104,52.775z M207.705,54.838
				c0,0.202,0.043,0.396,0.129,0.581c0.086,0.185,0.206,0.325,0.36,0.422s0.316,0.146,0.486,0.146c0.248,0,0.461-0.1,0.64-0.3
				s0.268-0.473,0.268-0.816c0-0.33-0.088-0.591-0.265-0.781c-0.176-0.19-0.397-0.285-0.665-0.285c-0.266,0-0.491,0.095-0.676,0.285
				S207.705,54.529,207.705,54.838z"/>
			<path d="M213.82,52.775l-0.584,0.046c-0.053-0.23-0.126-0.398-0.222-0.503c-0.159-0.167-0.355-0.251-0.588-0.251
				c-0.188,0-0.352,0.053-0.492,0.156c-0.186,0.136-0.331,0.332-0.438,0.591s-0.162,0.628-0.167,1.106
				c0.142-0.216,0.314-0.375,0.52-0.479c0.204-0.104,0.418-0.157,0.643-0.157c0.392,0,0.725,0.145,1,0.433s0.413,0.661,0.413,1.118
				c0,0.3-0.065,0.579-0.194,0.837c-0.13,0.258-0.308,0.455-0.533,0.592c-0.227,0.137-0.483,0.206-0.771,0.206
				c-0.489,0-0.889-0.181-1.197-0.54c-0.31-0.36-0.464-0.954-0.464-1.78c0-0.925,0.171-1.597,0.513-2.017
				c0.298-0.365,0.699-0.548,1.204-0.548c0.376,0,0.685,0.105,0.925,0.316S213.772,52.403,213.82,52.775z M211.422,54.838
				c0,0.202,0.043,0.396,0.129,0.581c0.086,0.185,0.206,0.325,0.36,0.422s0.316,0.146,0.486,0.146c0.248,0,0.461-0.1,0.64-0.3
				s0.268-0.473,0.268-0.816c0-0.33-0.088-0.591-0.265-0.781c-0.176-0.19-0.397-0.285-0.665-0.285c-0.266,0-0.491,0.095-0.676,0.285
				S211.422,54.529,211.422,54.838z"/>
			<path d="M214.577,55.281l0.564-0.052c0.048,0.266,0.14,0.458,0.274,0.577c0.135,0.12,0.308,0.18,0.519,0.18
				c0.181,0,0.339-0.041,0.475-0.124c0.137-0.083,0.248-0.193,0.335-0.331c0.087-0.139,0.16-0.325,0.219-0.56
				c0.059-0.235,0.088-0.475,0.088-0.718c0-0.026-0.001-0.065-0.003-0.118c-0.118,0.188-0.278,0.339-0.481,0.456
				c-0.204,0.116-0.424,0.174-0.661,0.174c-0.396,0-0.73-0.144-1.005-0.431s-0.411-0.665-0.411-1.135
				c0-0.485,0.143-0.876,0.429-1.172s0.645-0.443,1.075-0.443c0.312,0,0.596,0.083,0.854,0.251c0.258,0.167,0.454,0.406,0.588,0.716
				c0.134,0.311,0.2,0.759,0.2,1.347c0,0.611-0.066,1.098-0.199,1.46s-0.33,0.638-0.592,0.827c-0.263,0.189-0.569,0.284-0.922,0.284
				c-0.374,0-0.68-0.104-0.917-0.313C214.768,55.95,214.625,55.658,214.577,55.281z M216.982,53.17c0-0.337-0.09-0.604-0.27-0.803
				c-0.18-0.197-0.396-0.297-0.647-0.297c-0.261,0-0.488,0.107-0.682,0.32c-0.194,0.213-0.291,0.489-0.291,0.829
				c0,0.304,0.092,0.552,0.276,0.742c0.184,0.19,0.41,0.285,0.68,0.285c0.272,0,0.495-0.095,0.671-0.285
				C216.895,53.771,216.982,53.508,216.982,53.17z"/>
			<path d="M218.294,55.281l0.564-0.052c0.048,0.266,0.14,0.458,0.274,0.577c0.135,0.12,0.308,0.18,0.519,0.18
				c0.181,0,0.339-0.041,0.475-0.124c0.137-0.083,0.248-0.193,0.335-0.331c0.087-0.139,0.16-0.325,0.219-0.56
				c0.059-0.235,0.088-0.475,0.088-0.718c0-0.026-0.001-0.065-0.003-0.118c-0.118,0.188-0.278,0.339-0.481,0.456
				c-0.204,0.116-0.424,0.174-0.661,0.174c-0.396,0-0.73-0.144-1.005-0.431s-0.411-0.665-0.411-1.135
				c0-0.485,0.143-0.876,0.429-1.172s0.645-0.443,1.075-0.443c0.312,0,0.596,0.083,0.854,0.251c0.258,0.167,0.454,0.406,0.588,0.716
				c0.134,0.311,0.2,0.759,0.2,1.347c0,0.611-0.066,1.098-0.199,1.46s-0.33,0.638-0.592,0.827c-0.263,0.189-0.569,0.284-0.922,0.284
				c-0.374,0-0.68-0.104-0.917-0.313C218.484,55.95,218.342,55.658,218.294,55.281z M220.699,53.17c0-0.337-0.09-0.604-0.27-0.803
				c-0.18-0.197-0.396-0.297-0.647-0.297c-0.261,0-0.488,0.107-0.682,0.32c-0.194,0.213-0.291,0.489-0.291,0.829
				c0,0.304,0.092,0.552,0.276,0.742c0.184,0.19,0.41,0.285,0.68,0.285c0.272,0,0.495-0.095,0.671-0.285
				C220.611,53.771,220.699,53.508,220.699,53.17z"/>
			<path d="M222.471,57.794h-0.421c0.65-1.044,0.976-2.089,0.976-3.136c0-0.409-0.047-0.814-0.14-1.217
				c-0.074-0.326-0.178-0.64-0.311-0.94c-0.085-0.195-0.26-0.521-0.525-0.979h0.421c0.409,0.546,0.712,1.095,0.907,1.645
				c0.168,0.475,0.252,0.971,0.252,1.488c0,0.587-0.113,1.155-0.338,1.703C223.066,56.906,222.793,57.385,222.471,57.794z"/>
			<path d="M224.465,56.388v-0.669h0.669v0.669c0,0.246-0.043,0.444-0.131,0.596c-0.087,0.151-0.225,0.268-0.414,0.351l-0.163-0.251
				c0.124-0.055,0.216-0.135,0.274-0.24s0.091-0.257,0.098-0.455H224.465z M224.465,53.591v-0.668h0.669v0.668H224.465z"/>
			<path d="M16.084,62.41v0.532c-0.168,0.004-0.305,0.05-0.41,0.137s-0.176,0.205-0.21,0.354c-0.035,0.148-0.054,0.405-0.056,0.768
				c-0.002,0.363-0.009,0.603-0.02,0.719c-0.02,0.185-0.056,0.332-0.109,0.441c-0.054,0.11-0.119,0.198-0.197,0.265
				s-0.179,0.117-0.301,0.151c-0.082,0.024-0.217,0.036-0.404,0.036h-0.183v-0.512h0.102c0.226,0,0.376-0.041,0.45-0.123
				c0.073-0.081,0.11-0.265,0.11-0.55c0-0.544,0.01-0.889,0.029-1.034c0.035-0.241,0.104-0.435,0.209-0.579s0.253-0.257,0.444-0.338
				c-0.251-0.119-0.427-0.277-0.529-0.475c-0.102-0.197-0.153-0.529-0.153-0.997c0-0.424-0.005-0.678-0.016-0.76
				c-0.016-0.146-0.059-0.248-0.129-0.306c-0.071-0.058-0.21-0.086-0.416-0.086h-0.102v-0.513h0.183
				c0.213,0,0.368,0.018,0.464,0.053c0.139,0.048,0.254,0.128,0.346,0.241c0.091,0.113,0.15,0.256,0.178,0.428
				s0.042,0.453,0.044,0.845s0.021,0.662,0.056,0.811c0.034,0.149,0.104,0.268,0.21,0.354S15.916,62.406,16.084,62.41z"/>
		</g>
	</g>
	<rect x="281.668" y="28.444" class="st2" width="140" height="29.242"/>
	<rect x="47.335" y="42.278" class="st3" width="187.665" height="16.667"/>
	<polyline class="st2" points="235.336,51.351 249.867,51.351 249.867,28.677 268.497,28.677 	"/>
	<polygon points="267.61,30.771 272.907,28.677 267.61,26.581 	"/>
	<circle class="st2" cx="281.668" cy="28.444" r="8.416"/>
	<g>
		<path d="M297.66,42.351h1.012v0.566c0.362-0.44,0.793-0.66,1.293-0.66c0.266,0,0.496,0.055,0.691,0.164s0.355,0.274,0.48,0.496
			c0.183-0.222,0.379-0.387,0.59-0.496s0.437-0.164,0.676-0.164c0.305,0,0.563,0.062,0.773,0.186s0.368,0.306,0.473,0.545
			c0.075,0.177,0.113,0.464,0.113,0.859v2.652h-1.098v-2.371c0-0.411-0.038-0.677-0.113-0.797c-0.102-0.156-0.258-0.234-0.469-0.234
			c-0.153,0-0.298,0.047-0.434,0.141s-0.233,0.231-0.293,0.412s-0.09,0.467-0.09,0.857v1.992h-1.098v-2.273
			c0-0.403-0.02-0.664-0.059-0.781s-0.1-0.204-0.182-0.262s-0.193-0.086-0.334-0.086c-0.169,0-0.321,0.046-0.457,0.137
			s-0.232,0.223-0.291,0.395s-0.088,0.457-0.088,0.855v2.016h-1.098V42.351z"/>
		<path d="M307.258,45.179l1.094,0.184c-0.141,0.401-0.362,0.706-0.666,0.916s-0.683,0.314-1.139,0.314
			c-0.722,0-1.255-0.235-1.602-0.707c-0.273-0.378-0.41-0.854-0.41-1.43c0-0.688,0.18-1.226,0.539-1.615s0.813-0.584,1.363-0.584
			c0.617,0,1.104,0.204,1.461,0.611s0.527,1.032,0.512,1.873h-2.75c0.008,0.325,0.097,0.579,0.266,0.76s0.38,0.271,0.633,0.271
			c0.172,0,0.316-0.047,0.434-0.141S307.198,45.387,307.258,45.179z M307.32,44.069c-0.008-0.317-0.09-0.56-0.246-0.725
			s-0.347-0.248-0.57-0.248c-0.239,0-0.438,0.087-0.594,0.262s-0.233,0.411-0.23,0.711H307.32z"/>
		<path d="M313.078,46.499h-1.098v-2.117c0-0.448-0.023-0.737-0.07-0.869s-0.123-0.233-0.229-0.307s-0.232-0.109-0.381-0.109
			c-0.19,0-0.36,0.052-0.512,0.156s-0.255,0.242-0.311,0.414s-0.084,0.489-0.084,0.953v1.879h-1.098v-4.148h1.02v0.609
			c0.362-0.469,0.817-0.703,1.367-0.703c0.242,0,0.464,0.044,0.664,0.131s0.353,0.198,0.455,0.334s0.175,0.289,0.215,0.461
			s0.061,0.418,0.061,0.738V46.499z"/>
		<path d="M316.922,46.499v-0.621c-0.151,0.222-0.35,0.396-0.596,0.523s-0.506,0.191-0.779,0.191c-0.278,0-0.528-0.062-0.75-0.184
			s-0.382-0.294-0.48-0.516s-0.148-0.527-0.148-0.918v-2.625h1.098v1.906c0,0.583,0.021,0.94,0.061,1.072s0.114,0.235,0.221,0.313
			s0.242,0.115,0.406,0.115c0.188,0,0.355-0.052,0.504-0.154s0.25-0.23,0.305-0.383s0.082-0.525,0.082-1.119v-1.75h1.098v4.148
			H316.922z"/>
		<path d="M323.875,46.499h-1.098v-4.137c-0.401,0.375-0.874,0.652-1.418,0.832v-0.996c0.286-0.094,0.598-0.271,0.934-0.533
			s0.566-0.567,0.691-0.916h0.891V46.499z"/>
		<path d="M332.336,42.351h1.012v0.566c0.362-0.44,0.793-0.66,1.293-0.66c0.266,0,0.496,0.055,0.691,0.164s0.355,0.274,0.48,0.496
			c0.183-0.222,0.379-0.387,0.59-0.496s0.437-0.164,0.676-0.164c0.305,0,0.563,0.062,0.773,0.186s0.368,0.306,0.473,0.545
			c0.075,0.177,0.113,0.464,0.113,0.859v2.652h-1.098v-2.371c0-0.411-0.038-0.677-0.113-0.797c-0.102-0.156-0.258-0.234-0.469-0.234
			c-0.153,0-0.298,0.047-0.434,0.141s-0.233,0.231-0.293,0.412s-0.09,0.467-0.09,0.857v1.992h-1.098v-2.273
			c0-0.403-0.02-0.664-0.059-0.781s-0.1-0.204-0.182-0.262s-0.193-0.086-0.334-0.086c-0.169,0-0.321,0.046-0.457,0.137
			s-0.232,0.223-0.291,0.395s-0.088,0.457-0.088,0.855v2.016h-1.098V42.351z"/>
		<path d="M341.934,45.179l1.094,0.184c-0.141,0.401-0.362,0.706-0.666,0.916s-0.683,0.314-1.139,0.314
			c-0.722,0-1.255-0.235-1.602-0.707c-0.273-0.378-0.41-0.854-0.41-1.43c0-0.688,0.18-1.226,0.539-1.615s0.813-0.584,1.363-0.584
			c0.617,0,1.104,0.204,1.461,0.611s0.527,1.032,0.512,1.873h-2.75c0.008,0.325,0.097,0.579,0.266,0.76s0.38,0.271,0.633,0.271
			c0.172,0,0.316-0.047,0.434-0.141S341.874,45.387,341.934,45.179z M341.996,44.069c-0.008-0.317-0.09-0.56-0.246-0.725
			s-0.347-0.248-0.57-0.248c-0.239,0-0.438,0.087-0.594,0.262s-0.233,0.411-0.23,0.711H341.996z"/>
		<path d="M347.754,46.499h-1.098v-2.117c0-0.448-0.023-0.737-0.07-0.869s-0.123-0.233-0.229-0.307s-0.232-0.109-0.381-0.109
			c-0.19,0-0.36,0.052-0.512,0.156s-0.255,0.242-0.311,0.414s-0.084,0.489-0.084,0.953v1.879h-1.098v-4.148h1.02v0.609
			c0.362-0.469,0.817-0.703,1.367-0.703c0.242,0,0.464,0.044,0.664,0.131s0.353,0.198,0.455,0.334s0.175,0.289,0.215,0.461
			s0.061,0.418,0.061,0.738V46.499z"/>
		<path d="M351.598,46.499v-0.621c-0.151,0.222-0.35,0.396-0.596,0.523s-0.506,0.191-0.779,0.191c-0.278,0-0.528-0.062-0.75-0.184
			s-0.382-0.294-0.48-0.516s-0.148-0.527-0.148-0.918v-2.625h1.098v1.906c0,0.583,0.021,0.94,0.061,1.072s0.114,0.235,0.221,0.313
			s0.242,0.115,0.406,0.115c0.188,0,0.355-0.052,0.504-0.154s0.25-0.23,0.305-0.383s0.082-0.525,0.082-1.119v-1.75h1.098v4.148
			H351.598z"/>
		<path d="M359.449,45.479v1.02h-3.848c0.042-0.386,0.167-0.751,0.375-1.096s0.62-0.803,1.234-1.373
			c0.495-0.461,0.798-0.773,0.91-0.938c0.151-0.227,0.227-0.45,0.227-0.672c0-0.245-0.065-0.433-0.197-0.564
			s-0.313-0.197-0.545-0.197c-0.229,0-0.411,0.069-0.547,0.207s-0.214,0.367-0.234,0.688l-1.094-0.109
			c0.065-0.604,0.27-1.038,0.613-1.301s0.773-0.395,1.289-0.395c0.565,0,1.009,0.152,1.332,0.457s0.484,0.684,0.484,1.137
			c0,0.258-0.046,0.503-0.139,0.736s-0.239,0.478-0.439,0.732c-0.133,0.169-0.372,0.413-0.719,0.73s-0.565,0.528-0.658,0.633
			s-0.167,0.206-0.225,0.305H359.449z"/>
		<path d="M369.234,42.351h1.012v0.566c0.362-0.44,0.793-0.66,1.293-0.66c0.266,0,0.496,0.055,0.691,0.164s0.355,0.274,0.48,0.496
			c0.183-0.222,0.379-0.387,0.59-0.496s0.437-0.164,0.676-0.164c0.305,0,0.563,0.062,0.773,0.186s0.368,0.306,0.473,0.545
			c0.075,0.177,0.113,0.464,0.113,0.859v2.652h-1.098v-2.371c0-0.411-0.038-0.677-0.113-0.797c-0.102-0.156-0.258-0.234-0.469-0.234
			c-0.153,0-0.298,0.047-0.434,0.141s-0.233,0.231-0.293,0.412s-0.09,0.467-0.09,0.857v1.992h-1.098v-2.273
			c0-0.403-0.02-0.664-0.059-0.781s-0.1-0.204-0.182-0.262s-0.193-0.086-0.334-0.086c-0.169,0-0.321,0.046-0.457,0.137
			s-0.232,0.223-0.291,0.395s-0.088,0.457-0.088,0.855v2.016h-1.098V42.351z"/>
		<path d="M378.832,45.179l1.094,0.184c-0.141,0.401-0.362,0.706-0.666,0.916s-0.683,0.314-1.139,0.314
			c-0.722,0-1.255-0.235-1.602-0.707c-0.273-0.378-0.41-0.854-0.41-1.43c0-0.688,0.18-1.226,0.539-1.615s0.813-0.584,1.363-0.584
			c0.617,0,1.104,0.204,1.461,0.611s0.527,1.032,0.512,1.873h-2.75c0.008,0.325,0.097,0.579,0.266,0.76s0.38,0.271,0.633,0.271
			c0.172,0,0.316-0.047,0.434-0.141S378.772,45.387,378.832,45.179z M378.895,44.069c-0.008-0.317-0.09-0.56-0.246-0.725
			s-0.347-0.248-0.57-0.248c-0.239,0-0.438,0.087-0.594,0.262s-0.233,0.411-0.23,0.711H378.895z"/>
		<path d="M384.652,46.499h-1.098v-2.117c0-0.448-0.023-0.737-0.07-0.869s-0.123-0.233-0.229-0.307s-0.232-0.109-0.381-0.109
			c-0.19,0-0.36,0.052-0.512,0.156s-0.255,0.242-0.311,0.414s-0.084,0.489-0.084,0.953v1.879h-1.098v-4.148h1.02v0.609
			c0.362-0.469,0.817-0.703,1.367-0.703c0.242,0,0.464,0.044,0.664,0.131s0.353,0.198,0.455,0.334s0.175,0.289,0.215,0.461
			s0.061,0.418,0.061,0.738V46.499z"/>
		<path d="M388.496,46.499v-0.621c-0.151,0.222-0.35,0.396-0.596,0.523s-0.506,0.191-0.779,0.191c-0.278,0-0.528-0.062-0.75-0.184
			s-0.382-0.294-0.48-0.516s-0.148-0.527-0.148-0.918v-2.625h1.098v1.906c0,0.583,0.021,0.94,0.061,1.072s0.114,0.235,0.221,0.313
			s0.242,0.115,0.406,0.115c0.188,0,0.355-0.052,0.504-0.154s0.25-0.23,0.305-0.383s0.082-0.525,0.082-1.119v-1.75h1.098v4.148
			H388.496z"/>
		<path d="M392.602,44.979l1.063-0.129c0.034,0.271,0.125,0.478,0.273,0.621s0.328,0.215,0.539,0.215
			c0.227,0,0.417-0.086,0.572-0.258s0.232-0.403,0.232-0.695c0-0.276-0.074-0.495-0.223-0.656s-0.329-0.242-0.543-0.242
			c-0.141,0-0.309,0.027-0.504,0.082l0.121-0.895c0.297,0.008,0.523-0.057,0.68-0.193s0.234-0.318,0.234-0.545
			c0-0.192-0.058-0.347-0.172-0.461s-0.267-0.172-0.457-0.172c-0.188,0-0.348,0.065-0.48,0.195s-0.214,0.32-0.242,0.57l-1.012-0.172
			c0.07-0.347,0.177-0.623,0.318-0.83s0.34-0.37,0.594-0.488s0.538-0.178,0.854-0.178c0.539,0,0.972,0.172,1.297,0.516
			c0.269,0.281,0.402,0.599,0.402,0.953c0,0.503-0.274,0.903-0.824,1.203c0.328,0.07,0.591,0.228,0.787,0.473
			s0.295,0.54,0.295,0.887c0,0.503-0.184,0.931-0.551,1.285s-0.824,0.531-1.371,0.531c-0.519,0-0.948-0.149-1.289-0.447
			S392.656,45.461,392.602,44.979z"/>
	</g>
</g>
</svg>