<!-- Generator: Adobe Illustrator 17.0.0, SVG Export Plug-In  -->
<svg version="1.1"
	 xmlns="http://www.w3.org/2000/svg" xmlns:xlink="http://www.w3.org/1999/xlink" xmlns:a="http://ns.adobe.com/AdobeSVGViewerExtensions/3.0/"
	 x="0px" y="0px" width="466.649px" height="98.225px" viewBox="0 0 466.649 98.225" enable-background="new 0 0 466.649 98.225"
	 xml:space="preserve">
<defs>
</defs>
<g>
	<rect x="1.5" y="1.5" fill="#FFFFFF" stroke="#000000" stroke-width="3" stroke-miterlimit="10" width="463.649" height="95.225"/>
	<rect x="25.983" y="10.858" fill="none" stroke="#E54F26" stroke-miterlimit="10" width="5.493" height="5.471"/>
	<line fill="none" stroke="#E54F26" stroke-miterlimit="10" x1="26.923" y1="13.593" x2="30.623" y2="13.593"/>
	<line fill="none" stroke="#E54F26" stroke-miterlimit="10" x1="28.732" y1="45.894" x2="31.477" y2="45.894"/>
	<g>
		<path d="M35.07,16.026h0.147c0.153,0,0.284,0.054,0.394,0.162s0.164,0.238,0.164,0.392c0,0.158-0.056,0.291-0.166,0.397
			s-0.241,0.16-0.392,0.16H35.07c-0.153,0-0.284-0.054-0.394-0.162c-0.109-0.107-0.164-0.238-0.164-0.392
			c0-0.158,0.055-0.291,0.166-0.397C34.789,16.08,34.92,16.026,35.07,16.026z"/>
		<path d="M38.613,13.464v0.349c0.293-0.314,0.587-0.472,0.882-0.472c0.178,0,0.333,0.047,0.468,0.142
			c0.134,0.094,0.246,0.236,0.336,0.428c0.153-0.191,0.309-0.334,0.466-0.428c0.156-0.095,0.314-0.142,0.474-0.142
			c0.248,0,0.446,0.08,0.594,0.241c0.194,0.208,0.292,0.436,0.292,0.681v2.407h0.291c0.082,0,0.141,0.016,0.176,0.048
			c0.036,0.031,0.054,0.072,0.054,0.125c0,0.049-0.018,0.09-0.054,0.123c-0.035,0.032-0.094,0.049-0.176,0.049h-0.636v-2.719
			c0-0.175-0.054-0.319-0.16-0.435s-0.229-0.172-0.369-0.172c-0.126,0-0.258,0.047-0.397,0.141c-0.14,0.095-0.298,0.28-0.476,0.556
			v2.284h0.287c0.082,0,0.141,0.016,0.176,0.048c0.036,0.031,0.054,0.072,0.054,0.125c0,0.049-0.018,0.09-0.054,0.123
			c-0.035,0.032-0.094,0.049-0.176,0.049h-0.636V14.32c0-0.183-0.054-0.334-0.162-0.453s-0.229-0.178-0.363-0.178
			c-0.123,0-0.244,0.039-0.364,0.118c-0.167,0.112-0.342,0.306-0.525,0.578v2.284h0.291c0.082,0,0.141,0.016,0.177,0.048
			c0.035,0.031,0.053,0.072,0.053,0.125c0,0.049-0.018,0.09-0.053,0.123c-0.036,0.032-0.095,0.049-0.177,0.049h-0.927
			c-0.082,0-0.141-0.017-0.176-0.049c-0.036-0.033-0.054-0.074-0.054-0.123c0-0.053,0.018-0.094,0.054-0.125
			c0.035-0.032,0.094-0.048,0.176-0.048h0.291v-2.857h-0.291c-0.082,0-0.141-0.017-0.176-0.05c-0.036-0.032-0.054-0.075-0.054-0.127
			c0-0.049,0.018-0.09,0.054-0.123c0.035-0.033,0.094-0.049,0.176-0.049H38.613z"/>
		<path d="M45.403,13.464v3.206h1.354c0.085,0,0.145,0.016,0.181,0.048c0.035,0.031,0.053,0.072,0.053,0.125
			c0,0.049-0.018,0.09-0.053,0.123c-0.036,0.032-0.096,0.049-0.181,0.049h-3.051c-0.082,0-0.141-0.017-0.177-0.049
			c-0.035-0.033-0.053-0.074-0.053-0.123c0-0.053,0.018-0.094,0.053-0.125c0.036-0.032,0.095-0.048,0.177-0.048h1.353v-2.857h-1.004
			c-0.082,0-0.142-0.017-0.179-0.05c-0.037-0.032-0.056-0.073-0.056-0.123c0-0.052,0.019-0.094,0.054-0.127s0.096-0.049,0.181-0.049
			H45.403z M45.392,11.696v0.89h-0.509v-0.89H45.392z"/>
		<path d="M49.431,14.698v1.972h1.181c0.082,0,0.141,0.016,0.177,0.048c0.035,0.031,0.053,0.072,0.053,0.125
			c0,0.049-0.018,0.09-0.053,0.123c-0.036,0.032-0.095,0.049-0.177,0.049h-1.988c-0.082,0-0.141-0.017-0.177-0.049
			c-0.035-0.033-0.053-0.074-0.053-0.123c0-0.053,0.018-0.094,0.053-0.125c0.036-0.032,0.095-0.048,0.177-0.048h0.463v-4.108h-0.463
			c-0.082,0-0.141-0.016-0.177-0.047c-0.035-0.032-0.053-0.073-0.053-0.125c0-0.053,0.021-0.096,0.062-0.132
			c0.029-0.027,0.086-0.041,0.168-0.041h3.793v1.186c0,0.082-0.017,0.141-0.05,0.176c-0.032,0.036-0.073,0.054-0.122,0.054
			c-0.053,0-0.095-0.018-0.128-0.054c-0.032-0.035-0.049-0.094-0.049-0.176v-0.841h-2.637v1.792h1.234v-0.39
			c0-0.082,0.017-0.141,0.049-0.177c0.033-0.035,0.075-0.053,0.127-0.053c0.05,0,0.091,0.018,0.123,0.053
			c0.033,0.036,0.05,0.095,0.05,0.177v1.123c0,0.082-0.017,0.142-0.05,0.177c-0.032,0.035-0.073,0.054-0.123,0.054
			c-0.052,0-0.094-0.019-0.127-0.054c-0.032-0.035-0.049-0.095-0.049-0.177v-0.389H49.431z"/>
		<path d="M57.226,15.247c0,0.525-0.188,0.974-0.564,1.346c-0.376,0.371-0.829,0.558-1.359,0.558c-0.535,0-0.99-0.187-1.365-0.561
			c-0.374-0.373-0.562-0.82-0.562-1.343c0-0.524,0.188-0.974,0.562-1.347c0.375-0.373,0.83-0.56,1.365-0.56
			c0.53,0,0.983,0.186,1.359,0.558C57.037,14.269,57.226,14.72,57.226,15.247z M56.877,15.247c0-0.432-0.154-0.8-0.462-1.103
			c-0.308-0.304-0.68-0.455-1.117-0.455s-0.81,0.152-1.117,0.457s-0.461,0.672-0.461,1.101c0,0.427,0.153,0.793,0.461,1.1
			c0.308,0.306,0.68,0.459,1.117,0.459s0.81-0.152,1.117-0.457S56.877,15.677,56.877,15.247z"/>
		<path d="M59.928,13.464v0.869c0.448-0.404,0.784-0.665,1.007-0.781s0.429-0.175,0.617-0.175c0.205,0,0.396,0.069,0.572,0.208
			c0.176,0.138,0.265,0.242,0.265,0.313c0,0.052-0.018,0.095-0.052,0.129s-0.077,0.052-0.129,0.052
			c-0.027,0-0.051-0.005-0.069-0.015c-0.02-0.01-0.055-0.04-0.107-0.093c-0.096-0.096-0.179-0.161-0.25-0.196
			c-0.071-0.036-0.141-0.054-0.209-0.054c-0.15,0-0.331,0.061-0.543,0.181s-0.579,0.414-1.102,0.882v1.886h1.525
			c0.085,0,0.146,0.016,0.181,0.048c0.035,0.031,0.054,0.072,0.054,0.125c0,0.049-0.019,0.09-0.054,0.123
			c-0.035,0.032-0.096,0.049-0.181,0.049h-2.702c-0.082,0-0.141-0.016-0.176-0.047c-0.036-0.031-0.054-0.072-0.054-0.121
			c0-0.047,0.017-0.086,0.052-0.117c0.033-0.031,0.093-0.047,0.178-0.047h0.833v-2.87h-0.636c-0.082,0-0.141-0.017-0.177-0.05
			c-0.035-0.032-0.053-0.075-0.053-0.127c0-0.049,0.017-0.09,0.051-0.123s0.094-0.049,0.179-0.049H59.928z"/>
		<path d="M63.811,13.464v0.349c0.293-0.314,0.587-0.472,0.882-0.472c0.178,0,0.333,0.047,0.468,0.142
			c0.134,0.094,0.246,0.236,0.336,0.428c0.153-0.191,0.309-0.334,0.466-0.428c0.156-0.095,0.314-0.142,0.474-0.142
			c0.248,0,0.446,0.08,0.594,0.241c0.194,0.208,0.292,0.436,0.292,0.681v2.407h0.291c0.082,0,0.141,0.016,0.176,0.048
			c0.036,0.031,0.054,0.072,0.054,0.125c0,0.049-0.018,0.09-0.054,0.123c-0.035,0.032-0.094,0.049-0.176,0.049h-0.636v-2.719
			c0-0.175-0.054-0.319-0.16-0.435s-0.229-0.172-0.369-0.172c-0.126,0-0.258,0.047-0.397,0.141c-0.14,0.095-0.298,0.28-0.476,0.556
			v2.284h0.287c0.082,0,0.141,0.016,0.176,0.048c0.036,0.031,0.054,0.072,0.054,0.125c0,0.049-0.018,0.09-0.054,0.123
			c-0.035,0.032-0.094,0.049-0.176,0.049h-0.636V14.32c0-0.183-0.054-0.334-0.162-0.453s-0.229-0.178-0.363-0.178
			c-0.123,0-0.244,0.039-0.364,0.118c-0.167,0.112-0.342,0.306-0.525,0.578v2.284h0.291c0.082,0,0.141,0.016,0.177,0.048
			c0.035,0.031,0.053,0.072,0.053,0.125c0,0.049-0.018,0.09-0.053,0.123c-0.036,0.032-0.095,0.049-0.177,0.049h-0.927
			c-0.082,0-0.141-0.017-0.176-0.049c-0.036-0.033-0.054-0.074-0.054-0.123c0-0.053,0.018-0.094,0.054-0.125
			c0.035-0.032,0.094-0.048,0.176-0.048h0.291v-2.857h-0.291c-0.082,0-0.141-0.017-0.176-0.05c-0.036-0.032-0.054-0.075-0.054-0.127
			c0-0.049,0.018-0.09,0.054-0.123c0.035-0.033,0.094-0.049,0.176-0.049H63.811z"/>
		<path d="M71.409,17.015v-0.496c-0.5,0.421-1.034,0.632-1.603,0.632c-0.413,0-0.736-0.105-0.968-0.314
			c-0.232-0.209-0.349-0.465-0.349-0.769c0-0.333,0.152-0.625,0.459-0.873c0.306-0.249,0.753-0.373,1.341-0.373
			c0.158,0,0.331,0.01,0.517,0.03s0.387,0.053,0.603,0.097v-0.558c0-0.189-0.087-0.353-0.262-0.492
			c-0.176-0.14-0.438-0.209-0.788-0.209c-0.268,0-0.644,0.077-1.127,0.233c-0.088,0.027-0.144,0.041-0.168,0.041
			c-0.044,0-0.082-0.017-0.113-0.049c-0.031-0.033-0.047-0.074-0.047-0.123c0-0.047,0.014-0.084,0.041-0.111
			c0.038-0.041,0.192-0.097,0.463-0.168c0.427-0.115,0.749-0.172,0.968-0.172c0.435,0,0.773,0.107,1.018,0.321
			c0.243,0.215,0.364,0.458,0.364,0.729v2.279h0.46c0.084,0,0.145,0.016,0.18,0.048c0.036,0.031,0.054,0.072,0.054,0.125
			c0,0.049-0.018,0.09-0.054,0.123c-0.035,0.032-0.096,0.049-0.18,0.049H71.409z M71.409,15.301
			c-0.161-0.047-0.332-0.081-0.513-0.103c-0.18-0.022-0.37-0.033-0.569-0.033c-0.5,0-0.892,0.108-1.173,0.324
			c-0.213,0.161-0.32,0.354-0.32,0.578c0,0.208,0.082,0.383,0.244,0.525c0.163,0.142,0.4,0.213,0.712,0.213
			c0.298,0,0.574-0.06,0.83-0.179s0.519-0.308,0.789-0.567V15.301z"/>
		<path d="M80.3,14.973c0.137,0.104,0.229,0.202,0.278,0.295c0.063,0.123,0.095,0.27,0.095,0.439v1.472
			c0,0.156,0.045,0.283,0.135,0.384c0.091,0.1,0.202,0.156,0.337,0.17c0.084,0.008,0.141,0.024,0.168,0.049
			c0.035,0.033,0.053,0.074,0.053,0.123c0,0.052-0.018,0.094-0.053,0.125c-0.036,0.031-0.088,0.048-0.156,0.048
			c-0.216,0-0.396-0.068-0.541-0.205c-0.194-0.189-0.291-0.419-0.291-0.689v-1.476c0-0.15-0.045-0.277-0.136-0.38
			c-0.09-0.103-0.205-0.159-0.344-0.17c-0.077-0.009-0.13-0.027-0.16-0.058s-0.045-0.072-0.045-0.127
			c0-0.052,0.015-0.093,0.045-0.123s0.083-0.049,0.16-0.058c0.142-0.011,0.257-0.067,0.346-0.17s0.134-0.229,0.134-0.38v-1.476
			c0-0.257,0.082-0.471,0.246-0.642s0.36-0.257,0.59-0.257c0.066,0,0.116,0.017,0.152,0.05c0.035,0.032,0.053,0.073,0.053,0.123
			c0,0.049-0.018,0.09-0.053,0.123c-0.024,0.027-0.081,0.045-0.168,0.053c-0.137,0.014-0.25,0.071-0.339,0.173
			c-0.089,0.101-0.133,0.227-0.133,0.377v1.476c0,0.173-0.027,0.312-0.082,0.417C80.536,14.764,80.438,14.869,80.3,14.973z"/>
		<path d="M69.072,27.092l-0.427,0.004l-0.759-2.214l-0.754,2.214l-0.427-0.004l-0.714-3.202h-0.168
			c-0.082,0-0.141-0.017-0.176-0.05c-0.036-0.032-0.054-0.075-0.054-0.127c0-0.049,0.018-0.09,0.054-0.123
			c0.035-0.033,0.094-0.049,0.176-0.049h0.947c0.082,0,0.141,0.016,0.177,0.049c0.035,0.033,0.053,0.075,0.053,0.127
			c0,0.05-0.018,0.091-0.053,0.123c-0.036,0.033-0.095,0.05-0.177,0.05h-0.438l0.611,2.73l0.733-2.182h0.41l0.755,2.182l0.586-2.73
			h-0.435c-0.082,0-0.142-0.017-0.179-0.05c-0.036-0.032-0.055-0.075-0.055-0.127c0-0.049,0.018-0.09,0.053-0.123
			c0.036-0.033,0.096-0.049,0.181-0.049h0.943c0.085,0,0.145,0.016,0.181,0.049c0.035,0.033,0.053,0.075,0.053,0.127
			c0,0.05-0.018,0.091-0.053,0.123c-0.036,0.033-0.096,0.05-0.181,0.05h-0.164L69.072,27.092z"/>
		<path d="M73.107,23.541v3.206h1.354c0.085,0,0.145,0.016,0.181,0.048c0.035,0.031,0.053,0.072,0.053,0.125
			c0,0.049-0.018,0.09-0.053,0.123c-0.036,0.032-0.096,0.049-0.181,0.049H71.41c-0.082,0-0.141-0.017-0.177-0.049
			c-0.035-0.033-0.053-0.074-0.053-0.123c0-0.053,0.018-0.094,0.053-0.125c0.036-0.032,0.095-0.048,0.177-0.048h1.353V23.89h-1.004
			c-0.082,0-0.142-0.017-0.179-0.05c-0.037-0.032-0.056-0.073-0.056-0.123c0-0.052,0.019-0.094,0.054-0.127s0.096-0.049,0.181-0.049
			H73.107z M73.096,21.773v0.89h-0.509v-0.89H73.096z"/>
		<path d="M79.652,21.945v4.802h0.459c0.085,0,0.146,0.016,0.181,0.048c0.036,0.031,0.054,0.072,0.054,0.125
			c0,0.049-0.018,0.09-0.054,0.123c-0.035,0.032-0.096,0.049-0.181,0.049h-0.808v-0.685c-0.398,0.547-0.906,0.82-1.521,0.82
			c-0.312,0-0.61-0.083-0.896-0.248c-0.286-0.166-0.512-0.401-0.677-0.708c-0.165-0.306-0.248-0.622-0.248-0.947
			c0-0.328,0.083-0.645,0.248-0.949s0.391-0.54,0.677-0.707c0.285-0.167,0.586-0.25,0.9-0.25c0.601,0,1.106,0.273,1.517,0.819
			v-1.943h-0.459c-0.085,0-0.145-0.017-0.181-0.049c-0.035-0.033-0.053-0.075-0.053-0.127c0-0.05,0.018-0.091,0.053-0.123
			c0.036-0.033,0.096-0.05,0.181-0.05H79.652z M79.304,25.324c0-0.438-0.147-0.807-0.442-1.107c-0.296-0.3-0.646-0.45-1.054-0.45
			c-0.41,0-0.763,0.15-1.059,0.45c-0.295,0.301-0.442,0.67-0.442,1.107c0,0.435,0.147,0.804,0.442,1.105
			c0.296,0.302,0.648,0.453,1.059,0.453c0.407,0,0.758-0.151,1.054-0.453C79.156,26.128,79.304,25.759,79.304,25.324z"/>
		<path d="M82.298,23.541h1.87c0.082,0,0.141,0.016,0.176,0.049c0.036,0.033,0.054,0.075,0.054,0.127
			c0,0.05-0.018,0.091-0.054,0.123c-0.035,0.033-0.094,0.05-0.176,0.05h-1.87v2.292c0,0.199,0.08,0.366,0.24,0.5
			c0.159,0.134,0.394,0.201,0.703,0.201c0.232,0,0.483-0.035,0.754-0.104c0.271-0.07,0.481-0.148,0.632-0.236
			c0.055-0.035,0.1-0.053,0.136-0.053c0.043,0,0.082,0.017,0.114,0.051c0.033,0.034,0.05,0.075,0.05,0.121
			c0,0.041-0.019,0.079-0.054,0.115c-0.088,0.09-0.3,0.188-0.638,0.293s-0.661,0.158-0.97,0.158c-0.402,0-0.722-0.095-0.96-0.283
			c-0.237-0.188-0.356-0.443-0.356-0.763V23.89h-0.636c-0.082,0-0.141-0.017-0.176-0.05c-0.036-0.032-0.054-0.075-0.054-0.127
			c0-0.049,0.018-0.09,0.054-0.123c0.035-0.033,0.094-0.049,0.176-0.049h0.636v-1.018c0-0.082,0.017-0.141,0.049-0.176
			c0.033-0.036,0.074-0.054,0.123-0.054c0.053,0,0.095,0.018,0.128,0.054c0.032,0.035,0.049,0.094,0.049,0.176V23.541z"/>
		<path d="M86.911,21.945v2.12c0.219-0.237,0.429-0.405,0.63-0.502c0.201-0.098,0.426-0.146,0.675-0.146
			c0.268,0,0.495,0.047,0.683,0.142c0.187,0.094,0.344,0.239,0.469,0.435c0.126,0.195,0.189,0.4,0.189,0.617v2.136h0.385
			c0.085,0,0.145,0.016,0.179,0.048c0.034,0.031,0.051,0.072,0.051,0.125c0,0.049-0.017,0.09-0.051,0.123
			c-0.034,0.032-0.094,0.049-0.179,0.049h-1.119c-0.085,0-0.145-0.017-0.181-0.049c-0.035-0.033-0.053-0.074-0.053-0.123
			c0-0.053,0.018-0.094,0.053-0.125c0.036-0.032,0.096-0.048,0.181-0.048h0.386v-2.111c0-0.249-0.09-0.457-0.269-0.623
			c-0.18-0.167-0.429-0.251-0.749-0.251c-0.251,0-0.466,0.062-0.644,0.185c-0.129,0.088-0.34,0.294-0.636,0.619v2.182h0.39
			c0.082,0,0.141,0.016,0.177,0.048c0.035,0.031,0.053,0.072,0.053,0.125c0,0.049-0.018,0.09-0.053,0.123
			c-0.036,0.032-0.095,0.049-0.177,0.049h-1.123c-0.082,0-0.142-0.017-0.177-0.049c-0.035-0.033-0.054-0.074-0.054-0.123
			c0-0.053,0.019-0.094,0.054-0.125c0.035-0.032,0.095-0.048,0.177-0.048h0.39v-4.453h-0.464c-0.082,0-0.141-0.017-0.176-0.049
			c-0.036-0.033-0.054-0.075-0.054-0.127c0-0.05,0.018-0.091,0.054-0.123c0.035-0.033,0.094-0.05,0.176-0.05H86.911z"/>
		<path d="M93.014,23.541h0.147c0.153,0,0.284,0.055,0.394,0.164s0.164,0.239,0.164,0.39c0,0.161-0.056,0.295-0.166,0.401
			s-0.241,0.16-0.392,0.16h-0.147c-0.153,0-0.284-0.055-0.394-0.164s-0.164-0.239-0.164-0.39c0-0.161,0.055-0.295,0.166-0.402
			C92.732,23.594,92.863,23.541,93.014,23.541z M93.014,26.103h0.147c0.153,0,0.284,0.054,0.394,0.162s0.164,0.238,0.164,0.392
			c0,0.158-0.056,0.291-0.166,0.397s-0.241,0.16-0.392,0.16h-0.147c-0.153,0-0.284-0.054-0.394-0.162
			c-0.109-0.107-0.164-0.238-0.164-0.392c0-0.158,0.055-0.291,0.166-0.397C92.732,26.157,92.863,26.103,93.014,26.103z"/>
		<path d="M103.336,21.876v4.871h1.181c0.082,0,0.141,0.016,0.176,0.048c0.036,0.031,0.054,0.072,0.054,0.125
			c0,0.049-0.018,0.09-0.054,0.123c-0.035,0.032-0.094,0.049-0.176,0.049h-2.706c-0.082,0-0.142-0.017-0.177-0.049
			c-0.035-0.033-0.054-0.074-0.054-0.123c0-0.053,0.019-0.094,0.054-0.125c0.035-0.032,0.095-0.048,0.177-0.048h1.181v-4.396
			l-1.124,0.353c-0.055,0.017-0.094,0.024-0.118,0.024c-0.041,0-0.079-0.017-0.113-0.051s-0.051-0.074-0.051-0.121
			c0-0.041,0.014-0.079,0.041-0.115c0.021-0.021,0.066-0.045,0.135-0.069L103.336,21.876z"/>
		<path d="M108.913,24.422c0.287,0.14,0.503,0.324,0.649,0.552c0.146,0.229,0.22,0.474,0.22,0.736c0,0.407-0.153,0.76-0.459,1.058
			c-0.307,0.298-0.679,0.447-1.116,0.447s-0.809-0.149-1.115-0.447c-0.306-0.298-0.459-0.65-0.459-1.058
			c0-0.26,0.073-0.504,0.22-0.732c0.146-0.228,0.364-0.413,0.653-0.556c-0.251-0.145-0.435-0.295-0.549-0.45
			c-0.159-0.222-0.238-0.467-0.238-0.734c0-0.377,0.146-0.707,0.437-0.99s0.642-0.425,1.052-0.425c0.413,0,0.765,0.142,1.055,0.425
			c0.289,0.283,0.435,0.613,0.435,0.99c0,0.268-0.08,0.511-0.238,0.729C109.346,24.126,109.164,24.277,108.913,24.422z
			 M109.438,25.718c0-0.303-0.117-0.567-0.353-0.791c-0.235-0.225-0.527-0.336-0.878-0.336c-0.35,0-0.642,0.111-0.877,0.336
			c-0.235,0.224-0.353,0.486-0.353,0.787c0,0.312,0.118,0.582,0.354,0.813c0.236,0.229,0.528,0.344,0.875,0.344
			c0.348,0,0.64-0.114,0.876-0.344C109.319,26.296,109.438,26.027,109.438,25.718z M109.344,23.25c0-0.296-0.11-0.549-0.331-0.761
			c-0.22-0.212-0.489-0.318-0.81-0.318c-0.317,0-0.586,0.106-0.806,0.32c-0.22,0.213-0.33,0.465-0.33,0.754
			c0,0.269,0.108,0.503,0.326,0.703c0.217,0.201,0.487,0.302,0.81,0.302c0.325,0,0.597-0.101,0.814-0.302
			C109.234,23.748,109.344,23.515,109.344,23.25z"/>
		<path d="M114.826,24.095v0.853c0,0.741-0.177,1.327-0.529,1.759c-0.275,0.339-0.624,0.509-1.045,0.509
			c-0.203,0-0.394-0.04-0.572-0.121c-0.18-0.08-0.332-0.193-0.457-0.338c-0.08-0.091-0.166-0.235-0.261-0.435
			c-0.095-0.2-0.162-0.383-0.203-0.55c-0.063-0.235-0.094-0.51-0.094-0.824v-0.853c0-0.744,0.176-1.332,0.528-1.764
			c0.276-0.339,0.625-0.509,1.046-0.509c0.205,0,0.396,0.041,0.574,0.121c0.178,0.081,0.329,0.193,0.455,0.339
			c0.082,0.093,0.169,0.239,0.263,0.438c0.093,0.199,0.161,0.381,0.205,0.545C114.796,23.501,114.826,23.777,114.826,24.095z
			 M114.481,24.14c0-0.325-0.046-0.628-0.137-0.908c-0.092-0.28-0.195-0.504-0.31-0.671c-0.068-0.096-0.157-0.178-0.267-0.246
			c-0.156-0.096-0.331-0.144-0.525-0.144c-0.386,0-0.688,0.197-0.906,0.591s-0.328,0.853-0.328,1.378v0.759
			c0,0.325,0.046,0.628,0.138,0.91c0.092,0.281,0.196,0.506,0.313,0.672c0.065,0.094,0.153,0.174,0.263,0.242
			c0.155,0.099,0.332,0.147,0.529,0.147c0.382,0,0.683-0.197,0.901-0.593c0.219-0.395,0.328-0.854,0.328-1.379V24.14z"/>
		<path d="M116.987,23.541v0.627c0.205-0.249,0.426-0.436,0.66-0.562c0.235-0.126,0.513-0.188,0.833-0.188
			c0.339,0,0.651,0.079,0.938,0.237c0.287,0.159,0.51,0.38,0.667,0.662c0.157,0.283,0.235,0.581,0.235,0.893
			c0,0.494-0.177,0.918-0.531,1.269c-0.354,0.352-0.789,0.527-1.306,0.527c-0.615,0-1.114-0.25-1.497-0.751v2.075h0.837
			c0.082,0,0.141,0.016,0.176,0.047c0.036,0.032,0.054,0.073,0.054,0.125c0,0.05-0.018,0.091-0.054,0.123
			c-0.035,0.033-0.094,0.05-0.176,0.05h-1.645c-0.082,0-0.141-0.016-0.176-0.047c-0.036-0.032-0.054-0.073-0.054-0.126
			c0-0.052,0.018-0.093,0.054-0.125c0.035-0.031,0.094-0.047,0.176-0.047h0.464v-4.44h-0.464c-0.082,0-0.141-0.017-0.176-0.05
			c-0.036-0.032-0.054-0.075-0.054-0.127c0-0.049,0.018-0.09,0.054-0.123c0.035-0.033,0.094-0.049,0.176-0.049H116.987z
			 M119.973,25.21c0-0.396-0.145-0.736-0.433-1.02s-0.641-0.424-1.056-0.424c-0.418,0-0.772,0.142-1.063,0.426
			c-0.289,0.284-0.435,0.624-0.435,1.018c0,0.396,0.146,0.736,0.435,1.021c0.29,0.284,0.645,0.427,1.063,0.427
			c0.413,0,0.764-0.142,1.054-0.425C119.828,25.95,119.973,25.608,119.973,25.21z"/>
		<path d="M123.562,25.234l1.578,1.513c0.104,0,0.17,0.005,0.197,0.015s0.051,0.029,0.071,0.06s0.031,0.063,0.031,0.099
			c0,0.049-0.018,0.09-0.054,0.123c-0.035,0.032-0.096,0.049-0.18,0.049h-1.107c-0.085,0-0.146-0.017-0.181-0.049
			c-0.035-0.033-0.054-0.074-0.054-0.123c0-0.053,0.019-0.094,0.054-0.125c0.035-0.032,0.096-0.048,0.181-0.048h0.569l-1.341-1.283
			l-1.332,1.283h0.574c0.082,0,0.141,0.016,0.176,0.048c0.035,0.031,0.054,0.072,0.054,0.125c0,0.049-0.019,0.09-0.054,0.123
			c-0.035,0.032-0.094,0.049-0.176,0.049h-1.12c-0.082,0-0.141-0.017-0.176-0.049c-0.036-0.033-0.054-0.074-0.054-0.123
			c0-0.036,0.011-0.068,0.031-0.099s0.043-0.05,0.069-0.06s0.091-0.015,0.194-0.015l1.579-1.513l-1.402-1.345
			c-0.099,0-0.16-0.006-0.187-0.017s-0.049-0.031-0.069-0.062s-0.031-0.063-0.031-0.099c0-0.049,0.018-0.09,0.054-0.123
			c0.035-0.033,0.096-0.049,0.18-0.049h0.939c0.085,0,0.145,0.016,0.179,0.049s0.051,0.075,0.051,0.127
			c0,0.05-0.017,0.091-0.051,0.123c-0.034,0.033-0.094,0.05-0.179,0.05h-0.41l1.16,1.119l1.169-1.119h-0.41
			c-0.082,0-0.142-0.017-0.178-0.05c-0.037-0.032-0.056-0.075-0.056-0.127c0-0.049,0.018-0.09,0.053-0.123
			c0.036-0.033,0.096-0.049,0.181-0.049h0.939c0.082,0,0.141,0.016,0.176,0.049c0.036,0.033,0.054,0.075,0.054,0.127
			c0,0.033-0.011,0.064-0.031,0.095s-0.043,0.051-0.069,0.062s-0.088,0.017-0.187,0.017L123.562,25.234z"/>
		<path d="M127.691,25.853h1.082l-1.16,1.902c-0.058,0.093-0.104,0.152-0.138,0.177s-0.074,0.037-0.121,0.037
			c-0.065,0-0.12-0.021-0.164-0.062s-0.065-0.091-0.065-0.148c0-0.032,0.008-0.075,0.024-0.127L127.691,25.853z M128.29,23.541
			h0.151c0.153,0,0.283,0.055,0.392,0.164s0.162,0.239,0.162,0.39c0,0.161-0.055,0.295-0.164,0.401s-0.239,0.16-0.39,0.16h-0.151
			c-0.153,0-0.284-0.055-0.392-0.164c-0.108-0.109-0.162-0.239-0.162-0.39c0-0.161,0.055-0.295,0.166-0.402
			C128.013,23.594,128.142,23.541,128.29,23.541z"/>
		<path d="M69.322,33.968v-0.115c0-0.085,0.017-0.145,0.049-0.181c0.033-0.035,0.074-0.053,0.123-0.053
			c0.053,0,0.095,0.018,0.128,0.053c0.032,0.036,0.049,0.096,0.049,0.181v0.779c-0.003,0.085-0.02,0.145-0.052,0.181
			c-0.031,0.035-0.072,0.053-0.125,0.053c-0.046,0-0.085-0.016-0.116-0.047s-0.05-0.084-0.056-0.158
			c-0.017-0.194-0.145-0.378-0.384-0.554c-0.239-0.175-0.561-0.262-0.965-0.262c-0.512,0-0.899,0.159-1.165,0.479
			c-0.266,0.319-0.397,0.687-0.397,1.099c0,0.446,0.146,0.813,0.438,1.104s0.671,0.435,1.136,0.435c0.268,0,0.541-0.05,0.818-0.147
			c0.277-0.099,0.528-0.257,0.752-0.476c0.058-0.055,0.108-0.082,0.152-0.082c0.046,0,0.085,0.016,0.116,0.047
			c0.032,0.031,0.048,0.07,0.048,0.117c0,0.117-0.139,0.267-0.414,0.446c-0.446,0.293-0.942,0.439-1.489,0.439
			c-0.555,0-1.011-0.178-1.367-0.531c-0.356-0.354-0.535-0.803-0.535-1.348c0-0.555,0.183-1.015,0.548-1.382
			c0.364-0.366,0.824-0.549,1.38-0.549C68.521,33.496,68.964,33.653,69.322,33.968z"/>
		<path d="M73.1,32.023v4.802h1.353c0.085,0,0.146,0.016,0.181,0.048c0.036,0.031,0.054,0.072,0.054,0.125
			c0,0.049-0.018,0.09-0.054,0.123c-0.035,0.032-0.096,0.049-0.181,0.049h-3.051c-0.082,0-0.141-0.017-0.176-0.049
			c-0.036-0.033-0.054-0.074-0.054-0.123c0-0.053,0.018-0.094,0.054-0.125c0.035-0.032,0.094-0.048,0.176-0.048h1.354v-4.453h-0.992
			c-0.082,0-0.142-0.017-0.179-0.049c-0.037-0.033-0.055-0.075-0.055-0.127c0-0.05,0.018-0.091,0.053-0.123
			c0.035-0.033,0.096-0.05,0.181-0.05H73.1z"/>
		<path d="M79.829,35.477h-3.511c0.061,0.445,0.247,0.805,0.561,1.076c0.313,0.272,0.7,0.408,1.162,0.408
			c0.257,0,0.526-0.043,0.808-0.127c0.281-0.085,0.512-0.197,0.689-0.337c0.052-0.041,0.097-0.062,0.135-0.062
			c0.044,0,0.082,0.018,0.115,0.052c0.032,0.034,0.049,0.074,0.049,0.121c0,0.046-0.021,0.092-0.065,0.135
			c-0.131,0.137-0.364,0.265-0.699,0.384s-0.679,0.179-1.031,0.179c-0.591,0-1.083-0.193-1.479-0.581
			c-0.395-0.387-0.593-0.854-0.593-1.404c0-0.5,0.186-0.929,0.556-1.287c0.371-0.358,0.829-0.537,1.376-0.537
			c0.563,0,1.026,0.184,1.391,0.551C79.655,34.415,79.834,34.892,79.829,35.477z M79.48,35.128c-0.068-0.38-0.248-0.689-0.539-0.927
			c-0.291-0.238-0.638-0.356-1.04-0.356c-0.401,0-0.747,0.117-1.037,0.353s-0.471,0.545-0.541,0.931H79.48z"/>
		<path d="M83.995,37.17v-0.496c-0.5,0.421-1.034,0.632-1.603,0.632c-0.413,0-0.736-0.105-0.968-0.314
			c-0.232-0.209-0.349-0.465-0.349-0.769c0-0.333,0.152-0.625,0.459-0.873c0.306-0.249,0.753-0.373,1.341-0.373
			c0.158,0,0.331,0.01,0.517,0.03s0.387,0.053,0.603,0.097v-0.558c0-0.189-0.087-0.353-0.262-0.492
			c-0.176-0.14-0.438-0.209-0.788-0.209c-0.268,0-0.644,0.077-1.127,0.233c-0.088,0.027-0.144,0.041-0.168,0.041
			c-0.044,0-0.082-0.017-0.113-0.049c-0.031-0.033-0.047-0.074-0.047-0.123c0-0.047,0.014-0.084,0.041-0.111
			c0.038-0.041,0.192-0.097,0.463-0.168c0.427-0.115,0.749-0.172,0.968-0.172c0.435,0,0.773,0.107,1.018,0.321
			c0.243,0.215,0.364,0.458,0.364,0.729v2.279h0.46c0.084,0,0.145,0.016,0.18,0.048c0.036,0.031,0.054,0.072,0.054,0.125
			c0,0.049-0.018,0.09-0.054,0.123c-0.035,0.032-0.096,0.049-0.18,0.049H83.995z M83.995,35.456
			c-0.161-0.047-0.332-0.081-0.513-0.103c-0.18-0.022-0.37-0.033-0.569-0.033c-0.5,0-0.892,0.108-1.173,0.324
			c-0.213,0.161-0.32,0.354-0.32,0.578c0,0.208,0.082,0.383,0.244,0.525c0.163,0.142,0.4,0.213,0.712,0.213
			c0.298,0,0.574-0.06,0.83-0.179s0.519-0.308,0.789-0.567V35.456z"/>
		<path d="M87.633,33.619v0.869c0.448-0.404,0.784-0.665,1.007-0.781s0.429-0.175,0.617-0.175c0.205,0,0.396,0.069,0.572,0.208
			c0.176,0.138,0.265,0.242,0.265,0.313c0,0.052-0.018,0.095-0.052,0.129s-0.077,0.052-0.129,0.052
			c-0.027,0-0.051-0.005-0.069-0.015c-0.02-0.01-0.055-0.04-0.107-0.093c-0.096-0.096-0.179-0.161-0.25-0.196
			c-0.071-0.036-0.141-0.054-0.209-0.054c-0.15,0-0.331,0.061-0.543,0.181s-0.579,0.414-1.102,0.882v1.886h1.525
			c0.085,0,0.146,0.016,0.181,0.048c0.035,0.031,0.054,0.072,0.054,0.125c0,0.049-0.019,0.09-0.054,0.123
			c-0.035,0.032-0.096,0.049-0.181,0.049h-2.702c-0.082,0-0.141-0.016-0.176-0.047c-0.036-0.031-0.054-0.072-0.054-0.121
			c0-0.047,0.017-0.086,0.052-0.117c0.033-0.031,0.093-0.047,0.178-0.047h0.833v-2.87h-0.636c-0.082,0-0.141-0.017-0.177-0.05
			c-0.035-0.032-0.053-0.075-0.053-0.127c0-0.049,0.017-0.09,0.051-0.123s0.094-0.049,0.179-0.049H87.633z"/>
		<path d="M93.014,33.619h0.147c0.153,0,0.284,0.055,0.394,0.164s0.164,0.239,0.164,0.39c0,0.161-0.056,0.295-0.166,0.401
			s-0.241,0.16-0.392,0.16h-0.147c-0.153,0-0.284-0.055-0.394-0.164s-0.164-0.239-0.164-0.39c0-0.161,0.055-0.295,0.166-0.402
			C92.732,33.672,92.863,33.619,93.014,33.619z M93.014,36.182h0.147c0.153,0,0.284,0.054,0.394,0.162s0.164,0.238,0.164,0.392
			c0,0.158-0.056,0.291-0.166,0.397s-0.241,0.16-0.392,0.16h-0.147c-0.153,0-0.284-0.054-0.394-0.162
			c-0.109-0.107-0.164-0.238-0.164-0.392c0-0.158,0.055-0.291,0.166-0.397C92.732,36.235,92.863,36.182,93.014,36.182z"/>
		<path d="M101.867,32.023v2.284c0.416-0.541,0.917-0.812,1.505-0.812c0.503,0,0.934,0.183,1.292,0.547
			c0.358,0.365,0.537,0.813,0.537,1.343c0,0.536-0.181,0.99-0.543,1.362c-0.362,0.371-0.791,0.558-1.286,0.558
			c-0.602,0-1.103-0.271-1.505-0.813v0.677h-0.808c-0.082,0-0.141-0.017-0.176-0.049c-0.036-0.033-0.054-0.074-0.054-0.123
			c0-0.053,0.018-0.094,0.054-0.125c0.035-0.032,0.094-0.048,0.176-0.048h0.464v-4.453h-0.464c-0.082,0-0.141-0.017-0.176-0.049
			c-0.036-0.033-0.054-0.075-0.054-0.127c0-0.05,0.018-0.091,0.054-0.123c0.035-0.033,0.094-0.05,0.176-0.05H101.867z
			 M104.856,35.402c0-0.435-0.148-0.803-0.446-1.104c-0.298-0.303-0.646-0.453-1.046-0.453s-0.748,0.15-1.046,0.453
			c-0.298,0.302-0.446,0.67-0.446,1.104s0.148,0.804,0.446,1.105s0.646,0.453,1.046,0.453s0.748-0.151,1.046-0.453
			S104.856,35.837,104.856,35.402z"/>
		<path d="M110.131,35.402c0,0.525-0.188,0.974-0.564,1.346c-0.376,0.371-0.829,0.558-1.359,0.558c-0.535,0-0.99-0.187-1.365-0.561
			c-0.374-0.373-0.562-0.82-0.562-1.343c0-0.524,0.188-0.974,0.562-1.347c0.375-0.373,0.83-0.56,1.365-0.56
			c0.53,0,0.983,0.186,1.359,0.558C109.942,34.425,110.131,34.875,110.131,35.402z M109.782,35.402c0-0.432-0.154-0.8-0.462-1.103
			c-0.308-0.304-0.68-0.455-1.117-0.455s-0.81,0.152-1.117,0.457s-0.461,0.672-0.461,1.101c0,0.427,0.153,0.793,0.461,1.1
			c0.308,0.306,0.68,0.459,1.117,0.459s0.81-0.152,1.117-0.457S109.782,35.832,109.782,35.402z"/>
		<path d="M112.538,33.619h1.87c0.082,0,0.141,0.016,0.176,0.049c0.036,0.033,0.054,0.075,0.054,0.127
			c0,0.05-0.018,0.091-0.054,0.123c-0.035,0.033-0.094,0.05-0.176,0.05h-1.87v2.292c0,0.199,0.08,0.366,0.24,0.5
			c0.159,0.134,0.394,0.201,0.703,0.201c0.232,0,0.483-0.035,0.754-0.104c0.271-0.07,0.481-0.148,0.632-0.236
			c0.055-0.035,0.1-0.053,0.136-0.053c0.043,0,0.082,0.017,0.114,0.051c0.033,0.034,0.05,0.075,0.05,0.121
			c0,0.041-0.019,0.079-0.054,0.115c-0.088,0.09-0.3,0.188-0.638,0.293s-0.661,0.158-0.97,0.158c-0.402,0-0.722-0.095-0.96-0.283
			c-0.237-0.188-0.356-0.443-0.356-0.763v-2.292h-0.636c-0.082,0-0.141-0.017-0.176-0.05c-0.036-0.032-0.054-0.075-0.054-0.127
			c0-0.049,0.018-0.09,0.054-0.123c0.035-0.033,0.094-0.049,0.176-0.049h0.636v-1.018c0-0.082,0.017-0.141,0.049-0.176
			c0.033-0.036,0.074-0.054,0.123-0.054c0.053,0,0.095,0.018,0.128,0.054c0.032,0.035,0.049,0.094,0.049,0.176V33.619z"/>
		<path d="M117.151,32.023v2.12c0.219-0.237,0.429-0.405,0.63-0.502c0.201-0.098,0.426-0.146,0.675-0.146
			c0.268,0,0.495,0.047,0.683,0.142c0.187,0.094,0.344,0.239,0.469,0.435c0.126,0.195,0.189,0.4,0.189,0.617v2.136h0.385
			c0.085,0,0.145,0.016,0.179,0.048c0.034,0.031,0.051,0.072,0.051,0.125c0,0.049-0.017,0.09-0.051,0.123
			c-0.034,0.032-0.094,0.049-0.179,0.049h-1.119c-0.085,0-0.145-0.017-0.181-0.049c-0.035-0.033-0.053-0.074-0.053-0.123
			c0-0.053,0.018-0.094,0.053-0.125c0.036-0.032,0.096-0.048,0.181-0.048h0.386v-2.111c0-0.249-0.09-0.457-0.269-0.623
			c-0.18-0.167-0.429-0.251-0.749-0.251c-0.251,0-0.466,0.062-0.644,0.185c-0.129,0.088-0.34,0.294-0.636,0.619v2.182h0.39
			c0.082,0,0.141,0.016,0.177,0.048c0.035,0.031,0.053,0.072,0.053,0.125c0,0.049-0.018,0.09-0.053,0.123
			c-0.036,0.032-0.095,0.049-0.177,0.049h-1.123c-0.082,0-0.142-0.017-0.177-0.049c-0.035-0.033-0.054-0.074-0.054-0.123
			c0-0.053,0.019-0.094,0.054-0.125c0.035-0.032,0.095-0.048,0.177-0.048h0.39v-4.453h-0.464c-0.082,0-0.141-0.017-0.176-0.049
			c-0.036-0.033-0.054-0.075-0.054-0.127c0-0.05,0.018-0.091,0.054-0.123c0.035-0.033,0.094-0.05,0.176-0.05H117.151z"/>
		<path d="M122.651,35.932h1.082l-1.16,1.902c-0.058,0.093-0.104,0.152-0.138,0.177s-0.074,0.037-0.121,0.037
			c-0.065,0-0.12-0.021-0.164-0.062s-0.065-0.091-0.065-0.148c0-0.032,0.008-0.075,0.024-0.127L122.651,35.932z M123.25,33.619
			h0.151c0.153,0,0.283,0.055,0.392,0.164s0.162,0.239,0.162,0.39c0,0.161-0.055,0.295-0.164,0.401s-0.239,0.16-0.39,0.16h-0.151
			c-0.153,0-0.284-0.055-0.392-0.164c-0.108-0.109-0.162-0.239-0.162-0.39c0-0.161,0.055-0.295,0.166-0.402
			C122.973,33.672,123.102,33.619,123.25,33.619z"/>
		<path d="M35.345,45.205c-0.14-0.104-0.232-0.202-0.278-0.295c-0.063-0.121-0.095-0.266-0.095-0.436v-1.476
			c0-0.153-0.045-0.28-0.136-0.382c-0.09-0.101-0.202-0.157-0.336-0.168c-0.087-0.008-0.144-0.024-0.168-0.049
			c-0.035-0.036-0.054-0.078-0.054-0.127c0-0.05,0.018-0.091,0.052-0.123c0.034-0.033,0.085-0.05,0.153-0.05
			c0.219,0,0.399,0.07,0.542,0.209c0.193,0.187,0.291,0.416,0.291,0.689v1.476c0,0.15,0.046,0.277,0.137,0.38
			c0.092,0.103,0.207,0.159,0.347,0.17c0.074,0.009,0.127,0.027,0.158,0.058s0.047,0.071,0.047,0.123
			c0,0.055-0.016,0.097-0.047,0.127s-0.084,0.049-0.158,0.058c-0.142,0.011-0.258,0.067-0.349,0.17
			c-0.09,0.103-0.135,0.229-0.135,0.38v1.476c0,0.257-0.082,0.471-0.246,0.642s-0.359,0.257-0.587,0.257
			c-0.068,0-0.119-0.017-0.153-0.05c-0.034-0.032-0.052-0.075-0.052-0.127c0-0.049,0.017-0.09,0.05-0.123
			c0.027-0.024,0.085-0.041,0.172-0.049c0.137-0.014,0.25-0.072,0.339-0.175c0.088-0.103,0.133-0.229,0.133-0.379v-1.472
			c0-0.173,0.027-0.313,0.082-0.419S35.205,45.309,35.345,45.205z"/>
		<path d="M35.07,56.337h0.147c0.153,0,0.284,0.054,0.394,0.162s0.164,0.238,0.164,0.392c0,0.158-0.056,0.291-0.166,0.397
			s-0.241,0.16-0.392,0.16H35.07c-0.153,0-0.284-0.054-0.394-0.162c-0.109-0.107-0.164-0.238-0.164-0.392
			c0-0.158,0.055-0.291,0.166-0.397C34.789,56.391,34.92,56.337,35.07,56.337z"/>
		<path d="M38.613,53.774v0.349c0.293-0.314,0.587-0.472,0.882-0.472c0.178,0,0.333,0.047,0.468,0.142
			c0.134,0.094,0.246,0.236,0.336,0.428c0.153-0.191,0.309-0.334,0.466-0.428c0.156-0.095,0.314-0.142,0.474-0.142
			c0.248,0,0.446,0.08,0.594,0.241c0.194,0.208,0.292,0.436,0.292,0.681v2.407h0.291c0.082,0,0.141,0.016,0.176,0.048
			c0.036,0.031,0.054,0.072,0.054,0.125c0,0.049-0.018,0.09-0.054,0.123c-0.035,0.032-0.094,0.049-0.176,0.049h-0.636v-2.719
			c0-0.175-0.054-0.319-0.16-0.435S41.39,54,41.25,54c-0.126,0-0.258,0.047-0.397,0.141c-0.14,0.095-0.298,0.28-0.476,0.556v2.284
			h0.287c0.082,0,0.141,0.016,0.176,0.048c0.036,0.031,0.054,0.072,0.054,0.125c0,0.049-0.018,0.09-0.054,0.123
			c-0.035,0.032-0.094,0.049-0.176,0.049h-0.636v-2.694c0-0.183-0.054-0.334-0.162-0.453S39.637,54,39.503,54
			c-0.123,0-0.244,0.039-0.364,0.118c-0.167,0.112-0.342,0.306-0.525,0.578v2.284h0.291c0.082,0,0.141,0.016,0.177,0.048
			c0.035,0.031,0.053,0.072,0.053,0.125c0,0.049-0.018,0.09-0.053,0.123c-0.036,0.032-0.095,0.049-0.177,0.049h-0.927
			c-0.082,0-0.141-0.017-0.176-0.049c-0.036-0.033-0.054-0.074-0.054-0.123c0-0.053,0.018-0.094,0.054-0.125
			c0.035-0.032,0.094-0.048,0.176-0.048h0.291v-2.857h-0.291c-0.082,0-0.141-0.017-0.176-0.05c-0.036-0.032-0.054-0.075-0.054-0.127
			c0-0.049,0.018-0.09,0.054-0.123c0.035-0.033,0.094-0.049,0.176-0.049H38.613z"/>
		<path d="M45.403,53.774v3.206h1.354c0.085,0,0.145,0.016,0.181,0.048c0.035,0.031,0.053,0.072,0.053,0.125
			c0,0.049-0.018,0.09-0.053,0.123c-0.036,0.032-0.096,0.049-0.181,0.049h-3.051c-0.082,0-0.141-0.017-0.177-0.049
			c-0.035-0.033-0.053-0.074-0.053-0.123c0-0.053,0.018-0.094,0.053-0.125c0.036-0.032,0.095-0.048,0.177-0.048h1.353v-2.857h-1.004
			c-0.082,0-0.142-0.017-0.179-0.05C43.839,54.041,43.82,54,43.82,53.95c0-0.052,0.019-0.094,0.054-0.127s0.096-0.049,0.181-0.049
			H45.403z M45.392,52.007v0.89h-0.509v-0.89H45.392z"/>
		<path d="M49.431,55.009v1.972h1.181c0.082,0,0.141,0.016,0.177,0.048c0.035,0.031,0.053,0.072,0.053,0.125
			c0,0.049-0.018,0.09-0.053,0.123c-0.036,0.032-0.095,0.049-0.177,0.049h-1.988c-0.082,0-0.141-0.017-0.177-0.049
			c-0.035-0.033-0.053-0.074-0.053-0.123c0-0.053,0.018-0.094,0.053-0.125c0.036-0.032,0.095-0.048,0.177-0.048h0.463v-4.108h-0.463
			c-0.082,0-0.141-0.016-0.177-0.047c-0.035-0.032-0.053-0.073-0.053-0.125c0-0.053,0.021-0.096,0.062-0.132
			c0.029-0.027,0.086-0.041,0.168-0.041h3.793v1.186c0,0.082-0.017,0.141-0.05,0.176c-0.032,0.036-0.073,0.054-0.122,0.054
			c-0.053,0-0.095-0.018-0.128-0.054c-0.032-0.035-0.049-0.094-0.049-0.176v-0.841h-2.637v1.792h1.234v-0.39
			c0-0.082,0.017-0.141,0.049-0.177c0.033-0.035,0.075-0.053,0.127-0.053c0.05,0,0.091,0.018,0.123,0.053
			c0.033,0.036,0.05,0.095,0.05,0.177v1.123c0,0.082-0.017,0.142-0.05,0.177c-0.032,0.035-0.073,0.054-0.123,0.054
			c-0.052,0-0.094-0.019-0.127-0.054c-0.032-0.035-0.049-0.095-0.049-0.177v-0.389H49.431z"/>
		<path d="M57.226,55.558c0,0.525-0.188,0.974-0.564,1.346c-0.376,0.371-0.829,0.558-1.359,0.558c-0.535,0-0.99-0.187-1.365-0.561
			c-0.374-0.373-0.562-0.82-0.562-1.343c0-0.524,0.188-0.974,0.562-1.347c0.375-0.373,0.83-0.56,1.365-0.56
			c0.53,0,0.983,0.186,1.359,0.558C57.037,54.58,57.226,55.03,57.226,55.558z M56.877,55.558c0-0.432-0.154-0.8-0.462-1.103
			C56.107,54.151,55.735,54,55.298,54s-0.81,0.152-1.117,0.457s-0.461,0.672-0.461,1.101c0,0.427,0.153,0.793,0.461,1.1
			c0.308,0.306,0.68,0.459,1.117,0.459s0.81-0.152,1.117-0.457S56.877,55.987,56.877,55.558z"/>
		<path d="M59.928,53.774v0.869c0.448-0.404,0.784-0.665,1.007-0.781s0.429-0.175,0.617-0.175c0.205,0,0.396,0.069,0.572,0.208
			c0.176,0.138,0.265,0.242,0.265,0.313c0,0.052-0.018,0.095-0.052,0.129s-0.077,0.052-0.129,0.052
			c-0.027,0-0.051-0.005-0.069-0.015c-0.02-0.01-0.055-0.04-0.107-0.093c-0.096-0.096-0.179-0.161-0.25-0.196
			c-0.071-0.036-0.141-0.054-0.209-0.054c-0.15,0-0.331,0.061-0.543,0.181s-0.579,0.414-1.102,0.882v1.886h1.525
			c0.085,0,0.146,0.016,0.181,0.048c0.035,0.031,0.054,0.072,0.054,0.125c0,0.049-0.019,0.09-0.054,0.123
			c-0.035,0.032-0.096,0.049-0.181,0.049h-2.702c-0.082,0-0.141-0.016-0.176-0.047c-0.036-0.031-0.054-0.072-0.054-0.121
			c0-0.047,0.017-0.086,0.052-0.117c0.033-0.031,0.093-0.047,0.178-0.047h0.833v-2.87h-0.636c-0.082,0-0.141-0.017-0.177-0.05
			c-0.035-0.032-0.053-0.075-0.053-0.127c0-0.049,0.017-0.09,0.051-0.123s0.094-0.049,0.179-0.049H59.928z"/>
		<path d="M63.811,53.774v0.349c0.293-0.314,0.587-0.472,0.882-0.472c0.178,0,0.333,0.047,0.468,0.142
			c0.134,0.094,0.246,0.236,0.336,0.428c0.153-0.191,0.309-0.334,0.466-0.428c0.156-0.095,0.314-0.142,0.474-0.142
			c0.248,0,0.446,0.08,0.594,0.241c0.194,0.208,0.292,0.436,0.292,0.681v2.407h0.291c0.082,0,0.141,0.016,0.176,0.048
			c0.036,0.031,0.054,0.072,0.054,0.125c0,0.049-0.018,0.09-0.054,0.123c-0.035,0.032-0.094,0.049-0.176,0.049h-0.636v-2.719
			c0-0.175-0.054-0.319-0.16-0.435S66.587,54,66.447,54c-0.126,0-0.258,0.047-0.397,0.141c-0.14,0.095-0.298,0.28-0.476,0.556v2.284
			h0.287c0.082,0,0.141,0.016,0.176,0.048c0.036,0.031,0.054,0.072,0.054,0.125c0,0.049-0.018,0.09-0.054,0.123
			c-0.035,0.032-0.094,0.049-0.176,0.049h-0.636v-2.694c0-0.183-0.054-0.334-0.162-0.453S64.834,54,64.7,54
			c-0.123,0-0.244,0.039-0.364,0.118c-0.167,0.112-0.342,0.306-0.525,0.578v2.284h0.291c0.082,0,0.141,0.016,0.177,0.048
			c0.035,0.031,0.053,0.072,0.053,0.125c0,0.049-0.018,0.09-0.053,0.123c-0.036,0.032-0.095,0.049-0.177,0.049h-0.927
			c-0.082,0-0.141-0.017-0.176-0.049c-0.036-0.033-0.054-0.074-0.054-0.123c0-0.053,0.018-0.094,0.054-0.125
			c0.035-0.032,0.094-0.048,0.176-0.048h0.291v-2.857h-0.291c-0.082,0-0.141-0.017-0.176-0.05c-0.036-0.032-0.054-0.075-0.054-0.127
			c0-0.049,0.018-0.09,0.054-0.123c0.035-0.033,0.094-0.049,0.176-0.049H63.811z"/>
		<path d="M71.409,57.325v-0.496c-0.5,0.421-1.034,0.632-1.603,0.632c-0.413,0-0.736-0.105-0.968-0.314
			c-0.232-0.209-0.349-0.465-0.349-0.769c0-0.333,0.152-0.625,0.459-0.873c0.306-0.249,0.753-0.373,1.341-0.373
			c0.158,0,0.331,0.01,0.517,0.03s0.387,0.053,0.603,0.097v-0.558c0-0.189-0.087-0.353-0.262-0.492
			C70.972,54.069,70.71,54,70.359,54c-0.268,0-0.644,0.077-1.127,0.233c-0.088,0.027-0.144,0.041-0.168,0.041
			c-0.044,0-0.082-0.017-0.113-0.049c-0.031-0.033-0.047-0.074-0.047-0.123c0-0.047,0.014-0.084,0.041-0.111
			c0.038-0.041,0.192-0.097,0.463-0.168c0.427-0.115,0.749-0.172,0.968-0.172c0.435,0,0.773,0.107,1.018,0.321
			c0.243,0.215,0.364,0.458,0.364,0.729v2.279h0.46c0.084,0,0.145,0.016,0.18,0.048c0.036,0.031,0.054,0.072,0.054,0.125
			c0,0.049-0.018,0.09-0.054,0.123c-0.035,0.032-0.096,0.049-0.18,0.049H71.409z M71.409,55.611
			c-0.161-0.047-0.332-0.081-0.513-0.103c-0.18-0.022-0.37-0.033-0.569-0.033c-0.5,0-0.892,0.108-1.173,0.324
			c-0.213,0.161-0.32,0.354-0.32,0.578c0,0.208,0.082,0.383,0.244,0.525c0.163,0.142,0.4,0.213,0.712,0.213
			c0.298,0,0.574-0.06,0.83-0.179s0.519-0.308,0.789-0.567V55.611z"/>
		<path d="M80.681,53.774v3.206h1.354c0.085,0,0.145,0.016,0.181,0.048c0.035,0.031,0.053,0.072,0.053,0.125
			c0,0.049-0.018,0.09-0.053,0.123c-0.036,0.032-0.096,0.049-0.181,0.049h-3.051c-0.082,0-0.141-0.017-0.177-0.049
			c-0.035-0.033-0.053-0.074-0.053-0.123c0-0.053,0.018-0.094,0.053-0.125c0.036-0.032,0.095-0.048,0.177-0.048h1.353v-2.857h-1.004
			c-0.082,0-0.142-0.017-0.179-0.05c-0.037-0.032-0.056-0.073-0.056-0.123c0-0.052,0.019-0.094,0.054-0.127s0.096-0.049,0.181-0.049
			H80.681z M80.669,52.007v0.89H80.16v-0.89H80.669z"/>
		<path d="M84.425,53.774v0.521c0.241-0.243,0.458-0.411,0.652-0.505c0.194-0.093,0.413-0.139,0.656-0.139
			c0.262,0,0.501,0.056,0.718,0.168c0.152,0.082,0.291,0.218,0.416,0.408c0.124,0.189,0.187,0.385,0.187,0.584v2.169h0.291
			c0.082,0,0.141,0.016,0.177,0.048c0.035,0.031,0.053,0.072,0.053,0.125c0,0.049-0.018,0.09-0.053,0.123
			c-0.036,0.032-0.095,0.049-0.177,0.049h-0.923c-0.085,0-0.145-0.017-0.181-0.049c-0.035-0.033-0.053-0.074-0.053-0.123
			c0-0.053,0.018-0.094,0.053-0.125c0.036-0.032,0.096-0.048,0.181-0.048h0.287v-2.111c0-0.243-0.089-0.449-0.267-0.617
			S86.027,54,85.729,54c-0.228,0-0.424,0.046-0.591,0.137c-0.167,0.092-0.404,0.319-0.714,0.683v2.161h0.39
			c0.082,0,0.141,0.016,0.177,0.048c0.035,0.031,0.053,0.072,0.053,0.125c0,0.049-0.018,0.09-0.053,0.123
			c-0.036,0.032-0.095,0.049-0.177,0.049h-1.123c-0.082,0-0.142-0.017-0.177-0.049c-0.035-0.033-0.054-0.074-0.054-0.123
			c0-0.053,0.019-0.094,0.054-0.125c0.035-0.032,0.095-0.048,0.177-0.048h0.39v-2.857h-0.292c-0.082,0-0.141-0.017-0.176-0.05
			c-0.036-0.032-0.054-0.075-0.054-0.127c0-0.049,0.018-0.09,0.054-0.123c0.035-0.033,0.094-0.049,0.176-0.049H84.425z"/>
		<path d="M89.279,53.774v0.627c0.205-0.249,0.426-0.436,0.66-0.562c0.235-0.126,0.513-0.188,0.833-0.188
			c0.339,0,0.651,0.079,0.938,0.237c0.287,0.159,0.51,0.38,0.667,0.662c0.157,0.283,0.235,0.581,0.235,0.893
			c0,0.494-0.177,0.918-0.531,1.269c-0.354,0.352-0.789,0.527-1.306,0.527c-0.615,0-1.114-0.25-1.497-0.751v2.075h0.837
			c0.082,0,0.141,0.016,0.176,0.047c0.036,0.032,0.054,0.073,0.054,0.125c0,0.05-0.018,0.091-0.054,0.123
			c-0.035,0.033-0.094,0.05-0.176,0.05h-1.645c-0.082,0-0.141-0.016-0.176-0.047c-0.036-0.032-0.054-0.073-0.054-0.126
			c0-0.052,0.018-0.093,0.054-0.125c0.035-0.031,0.094-0.047,0.176-0.047h0.464v-4.44h-0.464c-0.082,0-0.141-0.017-0.176-0.05
			c-0.036-0.032-0.054-0.075-0.054-0.127c0-0.049,0.018-0.09,0.054-0.123c0.035-0.033,0.094-0.049,0.176-0.049H89.279z
			 M92.265,55.443c0-0.396-0.145-0.736-0.433-1.02S91.191,54,90.776,54c-0.418,0-0.772,0.142-1.063,0.426
			c-0.289,0.284-0.435,0.624-0.435,1.018c0,0.396,0.146,0.736,0.435,1.021c0.29,0.284,0.645,0.427,1.063,0.427
			c0.413,0,0.764-0.142,1.054-0.425C92.12,56.184,92.265,55.842,92.265,55.443z"/>
		<path d="M96.797,57.325v-0.504c-0.471,0.426-0.979,0.64-1.526,0.64c-0.336,0-0.592-0.092-0.767-0.275
			c-0.227-0.24-0.34-0.521-0.34-0.841v-2.222H93.7c-0.082,0-0.141-0.017-0.176-0.05c-0.036-0.032-0.054-0.075-0.054-0.127
			c0-0.049,0.018-0.09,0.054-0.123c0.035-0.033,0.094-0.049,0.176-0.049h0.808v2.57c0,0.225,0.071,0.409,0.214,0.554
			c0.142,0.146,0.319,0.218,0.533,0.218c0.56,0,1.074-0.257,1.542-0.771v-2.222h-0.636c-0.082,0-0.142-0.017-0.177-0.05
			c-0.035-0.032-0.053-0.075-0.053-0.127c0-0.049,0.018-0.09,0.053-0.123s0.095-0.049,0.177-0.049h0.979v3.206h0.291
			c0.082,0,0.141,0.016,0.177,0.048c0.035,0.031,0.053,0.072,0.053,0.125c0,0.049-0.018,0.09-0.053,0.123
			c-0.036,0.032-0.095,0.049-0.177,0.049H96.797z"/>
		<path d="M99.949,53.774h1.87c0.082,0,0.141,0.016,0.176,0.049c0.036,0.033,0.054,0.075,0.054,0.127
			c0,0.05-0.018,0.091-0.054,0.123c-0.035,0.033-0.094,0.05-0.176,0.05h-1.87v2.292c0,0.199,0.08,0.366,0.24,0.5
			c0.159,0.134,0.394,0.201,0.703,0.201c0.232,0,0.483-0.035,0.754-0.104c0.271-0.07,0.481-0.148,0.632-0.236
			c0.055-0.035,0.1-0.053,0.136-0.053c0.043,0,0.082,0.017,0.114,0.051c0.033,0.034,0.05,0.075,0.05,0.121
			c0,0.041-0.019,0.079-0.054,0.115c-0.088,0.09-0.3,0.188-0.638,0.293s-0.661,0.158-0.97,0.158c-0.402,0-0.722-0.095-0.96-0.283
			c-0.237-0.188-0.356-0.443-0.356-0.763v-2.292h-0.636c-0.082,0-0.141-0.017-0.176-0.05c-0.036-0.032-0.054-0.075-0.054-0.127
			c0-0.049,0.018-0.09,0.054-0.123c0.035-0.033,0.094-0.049,0.176-0.049h0.636v-1.018c0-0.082,0.017-0.141,0.049-0.176
			c0.033-0.036,0.074-0.054,0.123-0.054c0.053,0,0.095,0.018,0.128,0.054c0.032,0.035,0.049,0.094,0.049,0.176V53.774z"/>
		<path d="M110.537,55.283c0.137,0.104,0.229,0.202,0.278,0.295c0.063,0.123,0.095,0.27,0.095,0.439v1.472
			c0,0.156,0.045,0.283,0.135,0.384c0.091,0.1,0.202,0.156,0.337,0.17c0.084,0.008,0.141,0.024,0.168,0.049
			c0.035,0.033,0.053,0.074,0.053,0.123c0,0.052-0.018,0.094-0.053,0.125c-0.036,0.031-0.088,0.048-0.156,0.048
			c-0.216,0-0.396-0.068-0.541-0.205c-0.194-0.189-0.291-0.419-0.291-0.689v-1.476c0-0.15-0.045-0.277-0.136-0.38
			c-0.09-0.103-0.205-0.159-0.344-0.17c-0.077-0.009-0.13-0.027-0.16-0.058s-0.045-0.072-0.045-0.127
			c0-0.052,0.015-0.093,0.045-0.123s0.083-0.049,0.16-0.058c0.142-0.011,0.257-0.067,0.346-0.17s0.134-0.229,0.134-0.38v-1.476
			c0-0.257,0.082-0.471,0.246-0.642s0.36-0.257,0.59-0.257c0.066,0,0.116,0.017,0.152,0.05c0.035,0.032,0.053,0.073,0.053,0.123
			c0,0.049-0.018,0.09-0.053,0.123c-0.024,0.027-0.081,0.045-0.168,0.053c-0.137,0.014-0.25,0.071-0.339,0.173
			c-0.089,0.101-0.133,0.227-0.133,0.377v1.476c0,0.173-0.027,0.312-0.082,0.417C110.773,55.074,110.676,55.18,110.537,55.283z"/>
		<path d="M76.646,67.402l-0.427,0.004l-0.759-2.214l-0.754,2.214l-0.427-0.004L73.566,64.2h-0.168c-0.082,0-0.141-0.017-0.176-0.05
			c-0.036-0.032-0.054-0.075-0.054-0.127c0-0.049,0.018-0.09,0.054-0.123c0.035-0.033,0.094-0.049,0.176-0.049h0.947
			c0.082,0,0.141,0.016,0.177,0.049c0.035,0.033,0.053,0.075,0.053,0.127c0,0.05-0.018,0.091-0.053,0.123
			c-0.036,0.033-0.095,0.05-0.177,0.05h-0.438l0.611,2.73l0.733-2.182h0.41l0.755,2.182l0.586-2.73h-0.435
			c-0.082,0-0.142-0.017-0.179-0.05c-0.036-0.032-0.055-0.075-0.055-0.127c0-0.049,0.018-0.09,0.053-0.123
			c0.036-0.033,0.096-0.049,0.181-0.049h0.943c0.085,0,0.145,0.016,0.181,0.049c0.035,0.033,0.053,0.075,0.053,0.127
			c0,0.05-0.018,0.091-0.053,0.123c-0.036,0.033-0.096,0.05-0.181,0.05h-0.164L76.646,67.402z"/>
		<path d="M80.681,63.852v3.206h1.354c0.085,0,0.145,0.016,0.181,0.048c0.035,0.031,0.053,0.072,0.053,0.125
			c0,0.049-0.018,0.09-0.053,0.123c-0.036,0.032-0.096,0.049-0.181,0.049h-3.051c-0.082,0-0.141-0.017-0.177-0.049
			c-0.035-0.033-0.053-0.074-0.053-0.123c0-0.053,0.018-0.094,0.053-0.125c0.036-0.032,0.095-0.048,0.177-0.048h1.353V64.2h-1.004
			c-0.082,0-0.142-0.017-0.179-0.05c-0.037-0.032-0.056-0.073-0.056-0.123c0-0.052,0.019-0.094,0.054-0.127s0.096-0.049,0.181-0.049
			H80.681z M80.669,62.084v0.89H80.16v-0.89H80.669z"/>
		<path d="M87.226,62.256v4.802h0.459c0.085,0,0.146,0.016,0.181,0.048c0.036,0.031,0.054,0.072,0.054,0.125
			c0,0.049-0.018,0.09-0.054,0.123c-0.035,0.032-0.096,0.049-0.181,0.049h-0.808v-0.685c-0.398,0.547-0.906,0.82-1.521,0.82
			c-0.312,0-0.61-0.083-0.896-0.248c-0.286-0.166-0.512-0.401-0.677-0.708c-0.165-0.306-0.248-0.622-0.248-0.947
			c0-0.328,0.083-0.645,0.248-0.949s0.391-0.54,0.677-0.707c0.285-0.167,0.586-0.25,0.9-0.25c0.601,0,1.106,0.273,1.517,0.819
			v-1.943h-0.459c-0.085,0-0.145-0.017-0.181-0.049c-0.035-0.033-0.053-0.075-0.053-0.127c0-0.05,0.018-0.091,0.053-0.123
			c0.036-0.033,0.096-0.05,0.181-0.05H87.226z M86.877,65.635c0-0.438-0.147-0.807-0.442-1.107c-0.296-0.3-0.646-0.45-1.054-0.45
			c-0.41,0-0.763,0.15-1.059,0.45c-0.295,0.301-0.442,0.67-0.442,1.107c0,0.435,0.147,0.804,0.442,1.105
			c0.296,0.302,0.648,0.453,1.059,0.453c0.407,0,0.758-0.151,1.054-0.453C86.729,66.438,86.877,66.069,86.877,65.635z"/>
		<path d="M89.87,63.852h1.87c0.082,0,0.141,0.016,0.176,0.049c0.036,0.033,0.054,0.075,0.054,0.127c0,0.05-0.018,0.091-0.054,0.123
			c-0.035,0.033-0.094,0.05-0.176,0.05h-1.87v2.292c0,0.199,0.08,0.366,0.24,0.5c0.159,0.134,0.394,0.201,0.703,0.201
			c0.232,0,0.483-0.035,0.754-0.104c0.271-0.07,0.481-0.148,0.632-0.236c0.055-0.035,0.1-0.053,0.136-0.053
			c0.043,0,0.082,0.017,0.114,0.051c0.033,0.034,0.05,0.075,0.05,0.121c0,0.041-0.019,0.079-0.054,0.115
			c-0.088,0.09-0.3,0.188-0.638,0.293s-0.661,0.158-0.97,0.158c-0.402,0-0.722-0.095-0.96-0.283
			c-0.237-0.188-0.356-0.443-0.356-0.763V64.2h-0.636c-0.082,0-0.141-0.017-0.176-0.05c-0.036-0.032-0.054-0.075-0.054-0.127
			c0-0.049,0.018-0.09,0.054-0.123c0.035-0.033,0.094-0.049,0.176-0.049h0.636v-1.018c0-0.082,0.017-0.141,0.049-0.176
			c0.033-0.036,0.074-0.054,0.123-0.054c0.053,0,0.095,0.018,0.128,0.054c0.032,0.035,0.049,0.094,0.049,0.176V63.852z"/>
		<path d="M94.483,62.256v2.12c0.219-0.237,0.429-0.405,0.63-0.502c0.201-0.098,0.426-0.146,0.675-0.146
			c0.268,0,0.495,0.047,0.683,0.142c0.187,0.094,0.344,0.239,0.469,0.435c0.126,0.195,0.189,0.4,0.189,0.617v2.136h0.385
			c0.085,0,0.145,0.016,0.179,0.048c0.034,0.031,0.051,0.072,0.051,0.125c0,0.049-0.017,0.09-0.051,0.123
			c-0.034,0.032-0.094,0.049-0.179,0.049h-1.119c-0.085,0-0.145-0.017-0.181-0.049c-0.035-0.033-0.053-0.074-0.053-0.123
			c0-0.053,0.018-0.094,0.053-0.125c0.036-0.032,0.096-0.048,0.181-0.048h0.386v-2.111c0-0.249-0.09-0.457-0.269-0.623
			c-0.18-0.167-0.429-0.251-0.749-0.251c-0.251,0-0.466,0.062-0.644,0.185c-0.129,0.088-0.34,0.294-0.636,0.619v2.182h0.39
			c0.082,0,0.141,0.016,0.177,0.048c0.035,0.031,0.053,0.072,0.053,0.125c0,0.049-0.018,0.09-0.053,0.123
			c-0.036,0.032-0.095,0.049-0.177,0.049H93.75c-0.082,0-0.142-0.017-0.177-0.049c-0.035-0.033-0.054-0.074-0.054-0.123
			c0-0.053,0.019-0.094,0.054-0.125c0.035-0.032,0.095-0.048,0.177-0.048h0.39v-4.453h-0.464c-0.082,0-0.141-0.017-0.176-0.049
			c-0.036-0.033-0.054-0.075-0.054-0.127c0-0.05,0.018-0.091,0.054-0.123c0.035-0.033,0.094-0.05,0.176-0.05H94.483z"/>
		<path d="M100.585,63.852h0.147c0.153,0,0.284,0.055,0.394,0.164s0.164,0.239,0.164,0.39c0,0.161-0.056,0.295-0.166,0.401
			s-0.241,0.16-0.392,0.16h-0.147c-0.153,0-0.284-0.055-0.394-0.164s-0.164-0.239-0.164-0.39c0-0.161,0.055-0.295,0.166-0.402
			C100.304,63.904,100.435,63.852,100.585,63.852z M100.585,66.414h0.147c0.153,0,0.284,0.054,0.394,0.162s0.164,0.238,0.164,0.392
			c0,0.158-0.056,0.291-0.166,0.397s-0.241,0.16-0.392,0.16h-0.147c-0.153,0-0.284-0.054-0.394-0.162
			c-0.109-0.107-0.164-0.238-0.164-0.392c0-0.158,0.055-0.291,0.166-0.397C100.304,66.468,100.435,66.414,100.585,66.414z"/>
		<path d="M110.906,62.186v4.871h1.181c0.082,0,0.141,0.016,0.176,0.048c0.036,0.031,0.054,0.072,0.054,0.125
			c0,0.049-0.018,0.09-0.054,0.123c-0.035,0.032-0.094,0.049-0.176,0.049h-2.706c-0.082,0-0.142-0.017-0.177-0.049
			c-0.035-0.033-0.054-0.074-0.054-0.123c0-0.053,0.019-0.094,0.054-0.125c0.035-0.032,0.095-0.048,0.177-0.048h1.181v-4.396
			l-1.124,0.353c-0.055,0.017-0.094,0.024-0.118,0.024c-0.041,0-0.079-0.017-0.113-0.051s-0.051-0.074-0.051-0.121
			c0-0.041,0.014-0.079,0.041-0.115c0.021-0.021,0.066-0.045,0.135-0.069L110.906,62.186z"/>
		<path d="M117.356,64.405v0.853c0,0.741-0.177,1.327-0.529,1.759c-0.275,0.339-0.624,0.509-1.045,0.509
			c-0.203,0-0.394-0.04-0.572-0.121c-0.18-0.08-0.332-0.193-0.457-0.338c-0.08-0.091-0.166-0.235-0.261-0.435
			c-0.095-0.2-0.162-0.383-0.203-0.55c-0.063-0.235-0.094-0.51-0.094-0.824v-0.853c0-0.744,0.176-1.332,0.528-1.764
			c0.276-0.339,0.625-0.509,1.046-0.509c0.205,0,0.396,0.041,0.574,0.121c0.178,0.081,0.329,0.193,0.455,0.339
			c0.082,0.093,0.169,0.239,0.263,0.438c0.093,0.199,0.161,0.381,0.205,0.545C117.326,63.811,117.356,64.088,117.356,64.405z
			 M117.012,64.45c0-0.325-0.046-0.628-0.137-0.908c-0.092-0.28-0.195-0.504-0.31-0.671c-0.068-0.096-0.157-0.178-0.267-0.246
			c-0.156-0.096-0.331-0.144-0.525-0.144c-0.386,0-0.688,0.197-0.906,0.591s-0.328,0.853-0.328,1.378v0.759
			c0,0.325,0.046,0.628,0.138,0.91c0.092,0.281,0.196,0.506,0.313,0.672c0.065,0.094,0.153,0.174,0.263,0.242
			c0.155,0.099,0.332,0.147,0.529,0.147c0.382,0,0.683-0.197,0.901-0.593c0.219-0.395,0.328-0.854,0.328-1.379V64.45z"/>
		<path d="M122.396,64.405v0.853c0,0.741-0.177,1.327-0.529,1.759c-0.275,0.339-0.624,0.509-1.045,0.509
			c-0.203,0-0.394-0.04-0.572-0.121c-0.18-0.08-0.332-0.193-0.457-0.338c-0.08-0.091-0.166-0.235-0.261-0.435
			c-0.095-0.2-0.162-0.383-0.203-0.55c-0.063-0.235-0.094-0.51-0.094-0.824v-0.853c0-0.744,0.176-1.332,0.528-1.764
			c0.276-0.339,0.625-0.509,1.046-0.509c0.205,0,0.396,0.041,0.574,0.121c0.178,0.081,0.329,0.193,0.455,0.339
			c0.082,0.093,0.169,0.239,0.263,0.438c0.093,0.199,0.161,0.381,0.205,0.545C122.366,63.811,122.396,64.088,122.396,64.405z
			 M122.052,64.45c0-0.325-0.046-0.628-0.137-0.908c-0.092-0.28-0.195-0.504-0.31-0.671c-0.068-0.096-0.157-0.178-0.267-0.246
			c-0.156-0.096-0.331-0.144-0.525-0.144c-0.386,0-0.688,0.197-0.906,0.591s-0.328,0.853-0.328,1.378v0.759
			c0,0.325,0.046,0.628,0.138,0.91c0.092,0.281,0.196,0.506,0.313,0.672c0.065,0.094,0.153,0.174,0.263,0.242
			c0.155,0.099,0.332,0.147,0.529,0.147c0.382,0,0.683-0.197,0.901-0.593c0.219-0.395,0.328-0.854,0.328-1.379V64.45z"/>
		<path d="M127.493,64.43l-3.19,1.037c-0.038,0.011-0.067,0.017-0.086,0.017c-0.03,0-0.057-0.013-0.08-0.037
			s-0.035-0.054-0.035-0.086c0-0.027,0.01-0.055,0.029-0.082c0.014-0.017,0.045-0.033,0.094-0.049l3.19-1.038
			c0.038-0.011,0.068-0.017,0.09-0.017c0.027,0,0.053,0.013,0.076,0.037s0.035,0.054,0.035,0.086c0,0.027-0.01,0.055-0.029,0.082
			C127.573,64.396,127.542,64.413,127.493,64.43z M126.378,63.236c0,0.295-0.104,0.547-0.31,0.754
			c-0.207,0.208-0.453,0.313-0.74,0.313c-0.29,0-0.537-0.104-0.742-0.313c-0.205-0.207-0.308-0.459-0.308-0.754
			c0-0.296,0.103-0.546,0.308-0.753c0.205-0.206,0.452-0.31,0.742-0.31c0.289,0,0.537,0.104,0.742,0.31
			C126.275,62.69,126.378,62.94,126.378,63.236z M126.132,63.236c0-0.228-0.079-0.42-0.236-0.578
			c-0.157-0.159-0.347-0.238-0.567-0.238c-0.222,0-0.411,0.079-0.568,0.238c-0.157,0.158-0.235,0.351-0.235,0.578
			c0,0.227,0.078,0.42,0.235,0.578s0.347,0.237,0.568,0.237c0.221,0,0.41-0.079,0.567-0.237S126.132,63.463,126.132,63.236z
			 M127.439,66.438c0,0.296-0.103,0.546-0.31,0.753c-0.206,0.206-0.454,0.31-0.744,0.31c-0.287,0-0.534-0.104-0.74-0.312
			c-0.206-0.208-0.31-0.458-0.31-0.751c0-0.295,0.103-0.547,0.308-0.754c0.205-0.208,0.452-0.313,0.742-0.313
			s0.538,0.104,0.744,0.313C127.337,65.892,127.439,66.144,127.439,66.438z M127.189,66.438c0-0.229-0.078-0.423-0.235-0.58
			s-0.347-0.235-0.568-0.235s-0.411,0.079-0.568,0.237c-0.157,0.159-0.235,0.352-0.235,0.578c0,0.225,0.078,0.416,0.235,0.576
			s0.347,0.24,0.568,0.24s0.411-0.079,0.568-0.238C127.111,66.858,127.189,66.666,127.189,66.438z"/>
		<path d="M130.221,66.164h1.082l-1.16,1.902c-0.058,0.093-0.104,0.152-0.138,0.177s-0.074,0.037-0.121,0.037
			c-0.065,0-0.12-0.021-0.164-0.062s-0.065-0.091-0.065-0.148c0-0.032,0.008-0.075,0.024-0.127L130.221,66.164z M130.819,63.852
			h0.151c0.153,0,0.283,0.055,0.392,0.164s0.162,0.239,0.162,0.39c0,0.161-0.055,0.295-0.164,0.401s-0.239,0.16-0.39,0.16h-0.151
			c-0.153,0-0.284-0.055-0.392-0.164c-0.108-0.109-0.162-0.239-0.162-0.39c0-0.161,0.055-0.295,0.166-0.402
			C130.542,63.904,130.671,63.852,130.819,63.852z"/>
		<path d="M76.896,74.278v-0.115c0-0.085,0.017-0.145,0.049-0.181c0.033-0.035,0.074-0.053,0.123-0.053
			c0.053,0,0.095,0.018,0.128,0.053c0.032,0.036,0.049,0.096,0.049,0.181v0.779c-0.003,0.085-0.02,0.145-0.052,0.181
			c-0.031,0.035-0.072,0.053-0.125,0.053c-0.046,0-0.085-0.016-0.116-0.047s-0.05-0.084-0.056-0.158
			c-0.017-0.194-0.145-0.378-0.384-0.554c-0.239-0.175-0.561-0.262-0.965-0.262c-0.512,0-0.899,0.159-1.165,0.479
			c-0.266,0.319-0.397,0.687-0.397,1.099c0,0.446,0.146,0.813,0.438,1.104s0.671,0.435,1.136,0.435c0.268,0,0.541-0.05,0.818-0.147
			c0.277-0.099,0.528-0.257,0.752-0.476c0.058-0.055,0.108-0.082,0.152-0.082c0.046,0,0.085,0.016,0.116,0.047
			c0.032,0.031,0.048,0.07,0.048,0.117c0,0.117-0.139,0.267-0.414,0.446c-0.446,0.293-0.942,0.439-1.489,0.439
			c-0.555,0-1.011-0.178-1.367-0.531c-0.356-0.354-0.535-0.803-0.535-1.348c0-0.555,0.183-1.015,0.548-1.382
			c0.364-0.366,0.824-0.549,1.38-0.549C76.096,73.807,76.538,73.964,76.896,74.278z"/>
		<path d="M80.673,72.334v4.802h1.353c0.085,0,0.146,0.016,0.181,0.048c0.036,0.031,0.054,0.072,0.054,0.125
			c0,0.049-0.018,0.09-0.054,0.123c-0.035,0.032-0.096,0.049-0.181,0.049h-3.051c-0.082,0-0.141-0.017-0.176-0.049
			c-0.036-0.033-0.054-0.074-0.054-0.123c0-0.053,0.018-0.094,0.054-0.125c0.035-0.032,0.094-0.048,0.176-0.048h1.354v-4.453h-0.992
			c-0.082,0-0.142-0.017-0.179-0.049c-0.037-0.033-0.055-0.075-0.055-0.127c0-0.05,0.018-0.091,0.053-0.123
			c0.035-0.033,0.096-0.05,0.181-0.05H80.673z"/>
		<path d="M87.402,75.787h-3.511c0.061,0.445,0.247,0.805,0.561,1.076c0.313,0.272,0.7,0.408,1.162,0.408
			c0.257,0,0.526-0.043,0.808-0.127c0.281-0.085,0.512-0.197,0.689-0.337c0.052-0.041,0.097-0.062,0.135-0.062
			c0.044,0,0.082,0.018,0.115,0.052c0.032,0.034,0.049,0.074,0.049,0.121c0,0.046-0.021,0.092-0.065,0.135
			c-0.131,0.137-0.364,0.265-0.699,0.384s-0.679,0.179-1.031,0.179c-0.591,0-1.083-0.193-1.479-0.581
			c-0.395-0.387-0.593-0.854-0.593-1.404c0-0.5,0.186-0.929,0.556-1.287c0.371-0.358,0.829-0.537,1.376-0.537
			c0.563,0,1.026,0.184,1.391,0.551C87.229,74.726,87.407,75.202,87.402,75.787z M87.054,75.438
			c-0.068-0.38-0.248-0.689-0.539-0.927c-0.291-0.238-0.638-0.356-1.04-0.356c-0.401,0-0.747,0.117-1.037,0.353
			s-0.471,0.545-0.541,0.931H87.054z"/>
		<path d="M91.567,77.48v-0.496c-0.5,0.421-1.034,0.632-1.603,0.632c-0.413,0-0.736-0.105-0.968-0.314
			c-0.232-0.209-0.349-0.465-0.349-0.769c0-0.333,0.152-0.625,0.459-0.873c0.306-0.249,0.753-0.373,1.341-0.373
			c0.158,0,0.331,0.01,0.517,0.03s0.387,0.053,0.603,0.097v-0.558c0-0.189-0.087-0.353-0.262-0.492
			c-0.176-0.14-0.438-0.209-0.788-0.209c-0.268,0-0.644,0.077-1.127,0.233c-0.088,0.027-0.144,0.041-0.168,0.041
			c-0.044,0-0.082-0.017-0.113-0.049c-0.031-0.033-0.047-0.074-0.047-0.123c0-0.047,0.014-0.084,0.041-0.111
			c0.038-0.041,0.192-0.097,0.463-0.168c0.427-0.115,0.749-0.172,0.968-0.172c0.435,0,0.773,0.107,1.018,0.321
			c0.243,0.215,0.364,0.458,0.364,0.729v2.279h0.46c0.084,0,0.145,0.016,0.18,0.048c0.036,0.031,0.054,0.072,0.054,0.125
			c0,0.049-0.018,0.09-0.054,0.123c-0.035,0.032-0.096,0.049-0.18,0.049H91.567z M91.567,75.767
			c-0.161-0.047-0.332-0.081-0.513-0.103c-0.18-0.022-0.37-0.033-0.569-0.033c-0.5,0-0.892,0.108-1.173,0.324
			c-0.213,0.161-0.32,0.354-0.32,0.578c0,0.208,0.082,0.383,0.244,0.525c0.163,0.142,0.4,0.213,0.712,0.213
			c0.298,0,0.574-0.06,0.83-0.179s0.519-0.308,0.789-0.567V75.767z"/>
		<path d="M95.205,73.93v0.869c0.448-0.404,0.784-0.665,1.007-0.781s0.429-0.175,0.617-0.175c0.205,0,0.396,0.069,0.572,0.208
			c0.176,0.138,0.265,0.242,0.265,0.313c0,0.052-0.018,0.095-0.052,0.129s-0.077,0.052-0.129,0.052
			c-0.027,0-0.051-0.005-0.069-0.015c-0.02-0.01-0.055-0.04-0.107-0.093c-0.096-0.096-0.179-0.161-0.25-0.196
			c-0.071-0.036-0.141-0.054-0.209-0.054c-0.15,0-0.331,0.061-0.543,0.181s-0.579,0.414-1.102,0.882v1.886h1.525
			c0.085,0,0.146,0.016,0.181,0.048c0.035,0.031,0.054,0.072,0.054,0.125c0,0.049-0.019,0.09-0.054,0.123
			c-0.035,0.032-0.096,0.049-0.181,0.049h-2.702c-0.082,0-0.141-0.016-0.176-0.047c-0.036-0.031-0.054-0.072-0.054-0.121
			c0-0.047,0.017-0.086,0.052-0.117c0.033-0.031,0.093-0.047,0.178-0.047h0.833v-2.87h-0.636c-0.082,0-0.141-0.017-0.177-0.05
			c-0.035-0.032-0.053-0.075-0.053-0.127c0-0.049,0.017-0.09,0.051-0.123s0.094-0.049,0.179-0.049H95.205z"/>
		<path d="M100.585,73.93h0.147c0.153,0,0.284,0.055,0.394,0.164s0.164,0.239,0.164,0.39c0,0.161-0.056,0.295-0.166,0.401
			s-0.241,0.16-0.392,0.16h-0.147c-0.153,0-0.284-0.055-0.394-0.164s-0.164-0.239-0.164-0.39c0-0.161,0.055-0.295,0.166-0.402
			C100.304,73.982,100.435,73.93,100.585,73.93z M100.585,76.492h0.147c0.153,0,0.284,0.054,0.394,0.162s0.164,0.238,0.164,0.392
			c0,0.158-0.056,0.291-0.166,0.397s-0.241,0.16-0.392,0.16h-0.147c-0.153,0-0.284-0.054-0.394-0.162
			c-0.109-0.107-0.164-0.238-0.164-0.392c0-0.158,0.055-0.291,0.166-0.397C100.304,76.546,100.435,76.492,100.585,76.492z"/>
		<path d="M109.438,72.334v2.284c0.416-0.541,0.917-0.812,1.505-0.812c0.503,0,0.934,0.183,1.292,0.547
			c0.358,0.365,0.537,0.813,0.537,1.343c0,0.536-0.181,0.99-0.543,1.362c-0.362,0.371-0.791,0.558-1.286,0.558
			c-0.602,0-1.103-0.271-1.505-0.813v0.677h-0.808c-0.082,0-0.141-0.017-0.176-0.049c-0.036-0.033-0.054-0.074-0.054-0.123
			c0-0.053,0.018-0.094,0.054-0.125c0.035-0.032,0.094-0.048,0.176-0.048h0.464v-4.453h-0.464c-0.082,0-0.141-0.017-0.176-0.049
			c-0.036-0.033-0.054-0.075-0.054-0.127c0-0.05,0.018-0.091,0.054-0.123c0.035-0.033,0.094-0.05,0.176-0.05H109.438z
			 M112.427,75.713c0-0.435-0.148-0.803-0.446-1.104c-0.298-0.303-0.646-0.453-1.046-0.453s-0.748,0.15-1.046,0.453
			c-0.298,0.302-0.446,0.67-0.446,1.104s0.148,0.804,0.446,1.105s0.646,0.453,1.046,0.453s0.748-0.151,1.046-0.453
			S112.427,76.147,112.427,75.713z"/>
		<path d="M117.701,75.713c0,0.525-0.188,0.974-0.564,1.346c-0.376,0.371-0.829,0.558-1.359,0.558c-0.535,0-0.99-0.187-1.365-0.561
			c-0.374-0.373-0.562-0.82-0.562-1.343c0-0.524,0.188-0.974,0.562-1.347c0.375-0.373,0.83-0.56,1.365-0.56
			c0.53,0,0.983,0.186,1.359,0.558C117.513,74.735,117.701,75.186,117.701,75.713z M117.353,75.713c0-0.432-0.154-0.8-0.462-1.103
			c-0.308-0.304-0.68-0.455-1.117-0.455s-0.81,0.152-1.117,0.457s-0.461,0.672-0.461,1.101c0,0.427,0.153,0.793,0.461,1.1
			c0.308,0.306,0.68,0.459,1.117,0.459s0.81-0.152,1.117-0.457S117.353,76.143,117.353,75.713z"/>
		<path d="M120.108,73.93h1.87c0.082,0,0.141,0.016,0.176,0.049c0.036,0.033,0.054,0.075,0.054,0.127
			c0,0.05-0.018,0.091-0.054,0.123c-0.035,0.033-0.094,0.05-0.176,0.05h-1.87v2.292c0,0.199,0.08,0.366,0.24,0.5
			c0.159,0.134,0.394,0.201,0.703,0.201c0.232,0,0.483-0.035,0.754-0.104c0.271-0.07,0.481-0.148,0.632-0.236
			c0.055-0.035,0.1-0.053,0.136-0.053c0.043,0,0.082,0.017,0.114,0.051c0.033,0.034,0.05,0.075,0.05,0.121
			c0,0.041-0.019,0.079-0.054,0.115c-0.088,0.09-0.3,0.188-0.638,0.293s-0.661,0.158-0.97,0.158c-0.402,0-0.722-0.095-0.96-0.283
			c-0.237-0.188-0.356-0.443-0.356-0.763v-2.292h-0.636c-0.082,0-0.141-0.017-0.176-0.05c-0.036-0.032-0.054-0.075-0.054-0.127
			c0-0.049,0.018-0.09,0.054-0.123c0.035-0.033,0.094-0.049,0.176-0.049h0.636v-1.018c0-0.082,0.017-0.141,0.049-0.176
			c0.033-0.036,0.074-0.054,0.123-0.054c0.053,0,0.095,0.018,0.128,0.054c0.032,0.035,0.049,0.094,0.049,0.176V73.93z"/>
		<path d="M124.721,72.334v2.12c0.219-0.237,0.429-0.405,0.63-0.502c0.201-0.098,0.426-0.146,0.675-0.146
			c0.268,0,0.495,0.047,0.683,0.142c0.187,0.094,0.344,0.239,0.469,0.435c0.126,0.195,0.189,0.4,0.189,0.617v2.136h0.385
			c0.085,0,0.145,0.016,0.179,0.048c0.034,0.031,0.051,0.072,0.051,0.125c0,0.049-0.017,0.09-0.051,0.123
			c-0.034,0.032-0.094,0.049-0.179,0.049h-1.119c-0.085,0-0.145-0.017-0.181-0.049c-0.035-0.033-0.053-0.074-0.053-0.123
			c0-0.053,0.018-0.094,0.053-0.125c0.036-0.032,0.096-0.048,0.181-0.048h0.386v-2.111c0-0.249-0.09-0.457-0.269-0.623
			c-0.18-0.167-0.429-0.251-0.749-0.251c-0.251,0-0.466,0.062-0.644,0.185c-0.129,0.088-0.34,0.294-0.636,0.619v2.182h0.39
			c0.082,0,0.141,0.016,0.177,0.048c0.035,0.031,0.053,0.072,0.053,0.125c0,0.049-0.018,0.09-0.053,0.123
			c-0.036,0.032-0.095,0.049-0.177,0.049h-1.123c-0.082,0-0.142-0.017-0.177-0.049c-0.035-0.033-0.054-0.074-0.054-0.123
			c0-0.053,0.019-0.094,0.054-0.125c0.035-0.032,0.095-0.048,0.177-0.048h0.39v-4.453h-0.464c-0.082,0-0.141-0.017-0.176-0.049
			c-0.036-0.033-0.054-0.075-0.054-0.127c0-0.05,0.018-0.091,0.054-0.123c0.035-0.033,0.094-0.05,0.176-0.05H124.721z"/>
		<path d="M130.221,76.242h1.082l-1.16,1.902c-0.058,0.093-0.104,0.152-0.138,0.177s-0.074,0.037-0.121,0.037
			c-0.065,0-0.12-0.021-0.164-0.062s-0.065-0.091-0.065-0.148c0-0.032,0.008-0.075,0.024-0.127L130.221,76.242z M130.819,73.93
			h0.151c0.153,0,0.283,0.055,0.392,0.164s0.162,0.239,0.162,0.39c0,0.161-0.055,0.295-0.164,0.401s-0.239,0.16-0.39,0.16h-0.151
			c-0.153,0-0.284-0.055-0.392-0.164c-0.108-0.109-0.162-0.239-0.162-0.39c0-0.161,0.055-0.295,0.166-0.402
			C130.542,73.982,130.671,73.93,130.819,73.93z"/>
		<path d="M35.345,85.516c-0.14-0.104-0.232-0.202-0.278-0.295c-0.063-0.121-0.095-0.266-0.095-0.436V83.31
			c0-0.153-0.045-0.28-0.136-0.382c-0.09-0.101-0.202-0.157-0.336-0.168c-0.087-0.008-0.144-0.024-0.168-0.049
			c-0.035-0.036-0.054-0.078-0.054-0.127c0-0.05,0.018-0.091,0.052-0.123c0.034-0.033,0.085-0.05,0.153-0.05
			c0.219,0,0.399,0.07,0.542,0.209c0.193,0.187,0.291,0.416,0.291,0.689v1.476c0,0.15,0.046,0.277,0.137,0.38
			c0.092,0.103,0.207,0.159,0.347,0.17c0.074,0.009,0.127,0.027,0.158,0.058s0.047,0.071,0.047,0.123
			c0,0.055-0.016,0.097-0.047,0.127S35.874,85.691,35.8,85.7c-0.142,0.011-0.258,0.067-0.349,0.17
			c-0.09,0.103-0.135,0.229-0.135,0.38v1.476c0,0.257-0.082,0.471-0.246,0.642s-0.359,0.257-0.587,0.257
			c-0.068,0-0.119-0.017-0.153-0.05c-0.034-0.032-0.052-0.075-0.052-0.127c0-0.049,0.017-0.09,0.05-0.123
			c0.027-0.024,0.085-0.041,0.172-0.049c0.137-0.014,0.25-0.072,0.339-0.175c0.088-0.103,0.133-0.229,0.133-0.379V86.25
			c0-0.173,0.027-0.313,0.082-0.419S35.205,85.619,35.345,85.516z"/>
	</g>
	<g>
		<path d="M15.618,14.345c0.287,0.14,0.503,0.324,0.649,0.552c0.146,0.229,0.22,0.474,0.22,0.736c0,0.407-0.153,0.76-0.459,1.058
			c-0.307,0.298-0.679,0.447-1.116,0.447s-0.809-0.149-1.115-0.447c-0.306-0.298-0.459-0.65-0.459-1.058
			c0-0.26,0.073-0.504,0.22-0.732c0.146-0.228,0.364-0.413,0.653-0.556c-0.251-0.145-0.435-0.295-0.549-0.45
			c-0.159-0.222-0.238-0.467-0.238-0.734c0-0.377,0.146-0.707,0.437-0.99s0.642-0.425,1.052-0.425c0.413,0,0.765,0.142,1.055,0.425
			c0.289,0.283,0.435,0.613,0.435,0.99c0,0.268-0.08,0.511-0.238,0.729C16.051,14.049,15.869,14.2,15.618,14.345z M16.143,15.641
			c0-0.303-0.117-0.567-0.353-0.791c-0.235-0.225-0.527-0.336-0.878-0.336c-0.35,0-0.642,0.111-0.877,0.336
			c-0.235,0.224-0.353,0.486-0.353,0.787c0,0.312,0.118,0.582,0.354,0.813c0.236,0.229,0.528,0.344,0.875,0.344
			c0.348,0,0.64-0.114,0.876-0.344C16.024,16.219,16.143,15.95,16.143,15.641z M16.049,13.173c0-0.296-0.11-0.549-0.331-0.761
			c-0.22-0.212-0.489-0.318-0.81-0.318c-0.317,0-0.586,0.106-0.806,0.32c-0.22,0.213-0.33,0.465-0.33,0.754
			c0,0.269,0.108,0.503,0.326,0.703c0.217,0.201,0.487,0.302,0.81,0.302c0.325,0,0.597-0.101,0.814-0.302
			C15.939,13.671,16.049,13.437,16.049,13.173z"/>
		<path d="M18.468,16.67h2.646v-0.135c0-0.082,0.017-0.141,0.049-0.177c0.033-0.035,0.075-0.053,0.127-0.053
			c0.05,0,0.091,0.018,0.123,0.053c0.033,0.036,0.05,0.095,0.05,0.177v0.479h-3.33v-0.509c0.7-0.629,1.381-1.269,2.042-1.919
			c0.309-0.304,0.521-0.526,0.636-0.668c0.115-0.143,0.193-0.268,0.235-0.375c0.043-0.108,0.064-0.217,0.064-0.326
			c0-0.296-0.119-0.557-0.357-0.783c-0.237-0.228-0.524-0.341-0.861-0.341c-0.301,0-0.567,0.086-0.799,0.259
			c-0.232,0.172-0.383,0.385-0.451,0.64c-0.017,0.065-0.037,0.107-0.062,0.127c-0.033,0.027-0.071,0.041-0.115,0.041
			c-0.046,0-0.085-0.016-0.117-0.047C18.315,13.081,18.3,13.044,18.3,13c0-0.131,0.072-0.309,0.216-0.533
			c0.144-0.224,0.342-0.4,0.594-0.528c0.253-0.129,0.513-0.193,0.777-0.193c0.43,0,0.799,0.149,1.107,0.447s0.463,0.636,0.463,1.013
			c0,0.159-0.025,0.305-0.077,0.437c-0.053,0.133-0.141,0.277-0.265,0.435c-0.125,0.157-0.348,0.395-0.671,0.712
			c-0.809,0.798-1.468,1.417-1.977,1.857V16.67z"/>
	</g>
	<g>
		<path d="M15.618,24.771c0.287,0.14,0.503,0.324,0.649,0.552c0.146,0.229,0.22,0.474,0.22,0.736c0,0.407-0.153,0.76-0.459,1.058
			c-0.307,0.298-0.679,0.447-1.116,0.447s-0.809-0.149-1.115-0.447c-0.306-0.298-0.459-0.65-0.459-1.058
			c0-0.26,0.073-0.504,0.22-0.732c0.146-0.228,0.364-0.413,0.653-0.556c-0.251-0.145-0.435-0.295-0.549-0.45
			c-0.159-0.222-0.238-0.467-0.238-0.734c0-0.377,0.146-0.707,0.437-0.99s0.642-0.425,1.052-0.425c0.413,0,0.765,0.142,1.055,0.425
			c0.289,0.283,0.435,0.613,0.435,0.99c0,0.268-0.08,0.511-0.238,0.729C16.051,24.476,15.869,24.627,15.618,24.771z M16.143,26.067
			c0-0.303-0.117-0.567-0.353-0.791c-0.235-0.225-0.527-0.336-0.878-0.336c-0.35,0-0.642,0.111-0.877,0.336
			c-0.235,0.224-0.353,0.486-0.353,0.787c0,0.312,0.118,0.582,0.354,0.813c0.236,0.229,0.528,0.344,0.875,0.344
			c0.348,0,0.64-0.114,0.876-0.344C16.024,26.645,16.143,26.377,16.143,26.067z M16.049,23.6c0-0.296-0.11-0.549-0.331-0.761
			c-0.22-0.212-0.489-0.318-0.81-0.318c-0.317,0-0.586,0.106-0.806,0.32c-0.22,0.213-0.33,0.465-0.33,0.754
			c0,0.269,0.108,0.503,0.326,0.703c0.217,0.201,0.487,0.302,0.81,0.302c0.325,0,0.597-0.101,0.814-0.302
			C15.939,24.098,16.049,23.864,16.049,23.6z"/>
		<path d="M20.658,24.641c0.316,0.143,0.559,0.337,0.726,0.584c0.167,0.248,0.25,0.506,0.25,0.773c0,0.413-0.168,0.777-0.502,1.093
			c-0.335,0.315-0.754,0.474-1.257,0.474c-0.296,0-0.602-0.063-0.919-0.188s-0.538-0.255-0.664-0.386
			c-0.041-0.044-0.062-0.09-0.062-0.14c0-0.043,0.016-0.082,0.047-0.114c0.031-0.033,0.069-0.05,0.113-0.05
			c0.043,0,0.093,0.021,0.147,0.062c0.424,0.314,0.872,0.472,1.345,0.472c0.399,0,0.733-0.125,1.003-0.375
			c0.269-0.25,0.403-0.528,0.403-0.834c0-0.205-0.066-0.406-0.198-0.604c-0.133-0.196-0.323-0.352-0.572-0.465
			s-0.5-0.171-0.755-0.171c-0.082,0-0.141-0.016-0.176-0.047c-0.036-0.031-0.054-0.073-0.054-0.125c0-0.049,0.018-0.09,0.052-0.123
			c0.034-0.032,0.085-0.049,0.153-0.049l0.295,0.004c0.31,0,0.564-0.095,0.765-0.283c0.201-0.188,0.302-0.407,0.302-0.656
			c0-0.257-0.105-0.483-0.315-0.681c-0.211-0.196-0.485-0.295-0.824-0.295c-0.238,0-0.457,0.041-0.656,0.123
			s-0.359,0.194-0.479,0.336c-0.044,0.055-0.077,0.089-0.101,0.101c-0.023,0.013-0.05,0.019-0.08,0.019
			c-0.047,0-0.086-0.016-0.119-0.047c-0.032-0.031-0.049-0.069-0.049-0.113c0-0.109,0.119-0.247,0.356-0.414
			c0.331-0.232,0.707-0.349,1.128-0.349c0.435,0,0.791,0.131,1.07,0.392c0.278,0.262,0.418,0.572,0.418,0.934
			c0,0.229-0.067,0.446-0.201,0.651S20.918,24.518,20.658,24.641z"/>
	</g>
	<g>
		<path d="M15.618,35.044c0.287,0.14,0.503,0.324,0.649,0.552c0.146,0.229,0.22,0.474,0.22,0.736c0,0.407-0.153,0.76-0.459,1.058
			c-0.307,0.298-0.679,0.447-1.116,0.447s-0.809-0.149-1.115-0.447c-0.306-0.298-0.459-0.65-0.459-1.058
			c0-0.26,0.073-0.504,0.22-0.732c0.146-0.228,0.364-0.413,0.653-0.556c-0.251-0.145-0.435-0.295-0.549-0.45
			c-0.159-0.222-0.238-0.467-0.238-0.734c0-0.377,0.146-0.707,0.437-0.99s0.642-0.425,1.052-0.425c0.413,0,0.765,0.142,1.055,0.425
			c0.289,0.283,0.435,0.613,0.435,0.99c0,0.268-0.08,0.511-0.238,0.729C16.051,34.748,15.869,34.899,15.618,35.044z M16.143,36.34
			c0-0.303-0.117-0.567-0.353-0.791c-0.235-0.225-0.527-0.336-0.878-0.336c-0.35,0-0.642,0.111-0.877,0.336
			c-0.235,0.224-0.353,0.486-0.353,0.787c0,0.312,0.118,0.582,0.354,0.813c0.236,0.229,0.528,0.344,0.875,0.344
			c0.348,0,0.64-0.114,0.876-0.344C16.024,36.918,16.143,36.649,16.143,36.34z M16.049,33.872c0-0.296-0.11-0.549-0.331-0.761
			c-0.22-0.212-0.489-0.318-0.81-0.318c-0.317,0-0.586,0.106-0.806,0.32c-0.22,0.213-0.33,0.465-0.33,0.754
			c0,0.269,0.108,0.503,0.326,0.703c0.217,0.201,0.487,0.302,0.81,0.302c0.325,0,0.597-0.101,0.814-0.302
			C15.939,34.37,16.049,34.137,16.049,33.872z"/>
		<path d="M20.592,36.274h-2.283v-0.397l1.915-3.31h0.717v3.362h0.287c0.085,0,0.146,0.017,0.181,0.048s0.054,0.073,0.054,0.125
			c0,0.049-0.019,0.09-0.054,0.123c-0.035,0.032-0.096,0.049-0.181,0.049H20.94v1.095h0.287c0.085,0,0.146,0.016,0.181,0.048
			c0.035,0.031,0.054,0.072,0.054,0.125c0,0.049-0.019,0.09-0.054,0.123c-0.035,0.032-0.096,0.049-0.181,0.049h-1.279
			c-0.085,0-0.145-0.017-0.181-0.049c-0.035-0.033-0.053-0.074-0.053-0.123c0-0.053,0.018-0.094,0.053-0.125
			c0.036-0.032,0.096-0.048,0.181-0.048h0.644V36.274z M20.592,35.93v-3.014h-0.18l-1.743,3.014H20.592z"/>
	</g>
	<g>
		<path d="M15.618,44.976c0.287,0.14,0.503,0.324,0.649,0.552c0.146,0.229,0.22,0.474,0.22,0.736c0,0.407-0.153,0.76-0.459,1.058
			c-0.307,0.298-0.679,0.447-1.116,0.447s-0.809-0.149-1.115-0.447c-0.306-0.298-0.459-0.65-0.459-1.058
			c0-0.26,0.073-0.504,0.22-0.732c0.146-0.228,0.364-0.413,0.653-0.556c-0.251-0.145-0.435-0.295-0.549-0.45
			c-0.159-0.222-0.238-0.467-0.238-0.734c0-0.377,0.146-0.707,0.437-0.99s0.642-0.425,1.052-0.425c0.413,0,0.765,0.142,1.055,0.425
			c0.289,0.283,0.435,0.613,0.435,0.99c0,0.268-0.08,0.511-0.238,0.729C16.051,44.68,15.869,44.831,15.618,44.976z M16.143,46.271
			c0-0.303-0.117-0.567-0.353-0.791c-0.235-0.225-0.527-0.336-0.878-0.336c-0.35,0-0.642,0.111-0.877,0.336
			c-0.235,0.224-0.353,0.486-0.353,0.787c0,0.312,0.118,0.582,0.354,0.813c0.236,0.229,0.528,0.344,0.875,0.344
			c0.348,0,0.64-0.114,0.876-0.344C16.024,46.85,16.143,46.581,16.143,46.271z M16.049,43.804c0-0.296-0.11-0.549-0.331-0.761
			c-0.22-0.212-0.489-0.318-0.81-0.318c-0.317,0-0.586,0.106-0.806,0.32c-0.22,0.213-0.33,0.465-0.33,0.754
			c0,0.269,0.108,0.503,0.326,0.703c0.217,0.201,0.487,0.302,0.81,0.302c0.325,0,0.597-0.101,0.814-0.302
			C15.939,44.302,16.049,44.068,16.049,43.804z"/>
		<path d="M19.001,42.848v1.686c0.202-0.085,0.396-0.148,0.582-0.19c0.187-0.043,0.362-0.063,0.529-0.063
			c0.432,0,0.794,0.151,1.085,0.455c0.291,0.303,0.437,0.702,0.437,1.197c0,0.547-0.164,0.989-0.492,1.328s-0.738,0.509-1.23,0.509
			c-0.325,0-0.638-0.072-0.938-0.218c-0.214-0.101-0.407-0.227-0.582-0.377c-0.104-0.09-0.156-0.165-0.156-0.226
			c0-0.049,0.017-0.091,0.049-0.125c0.033-0.034,0.071-0.051,0.115-0.051c0.047,0,0.096,0.024,0.147,0.073
			c0.413,0.386,0.862,0.578,1.35,0.578c0.401,0,0.733-0.137,0.996-0.412c0.263-0.274,0.394-0.64,0.394-1.097
			c0-0.388-0.113-0.7-0.34-0.937c-0.228-0.237-0.516-0.355-0.865-0.355c-0.358,0-0.717,0.095-1.075,0.283
			c-0.087,0.044-0.148,0.065-0.185,0.065c-0.049,0-0.089-0.017-0.118-0.049c-0.03-0.033-0.045-0.079-0.045-0.14v-2.284h2.402
			c0.082,0,0.141,0.017,0.177,0.05c0.035,0.032,0.053,0.075,0.053,0.127c0,0.049-0.018,0.09-0.053,0.123
			c-0.036,0.032-0.095,0.049-0.177,0.049H19.001z"/>
	</g>
	<g>
		<path d="M15.618,65.032c0.287,0.14,0.503,0.324,0.649,0.552c0.146,0.229,0.22,0.474,0.22,0.736c0,0.407-0.153,0.76-0.459,1.058
			c-0.307,0.298-0.679,0.447-1.116,0.447s-0.809-0.149-1.115-0.447c-0.306-0.298-0.459-0.65-0.459-1.058
			c0-0.26,0.073-0.504,0.22-0.732c0.146-0.228,0.364-0.413,0.653-0.556c-0.251-0.145-0.435-0.295-0.549-0.45
			c-0.159-0.222-0.238-0.467-0.238-0.734c0-0.377,0.146-0.707,0.437-0.99s0.642-0.425,1.052-0.425c0.413,0,0.765,0.142,1.055,0.425
			c0.289,0.283,0.435,0.613,0.435,0.99c0,0.268-0.08,0.511-0.238,0.729C16.051,64.736,15.869,64.888,15.618,65.032z M16.143,66.328
			c0-0.303-0.117-0.567-0.353-0.791c-0.235-0.225-0.527-0.336-0.878-0.336c-0.35,0-0.642,0.111-0.877,0.336
			c-0.235,0.224-0.353,0.486-0.353,0.787c0,0.312,0.118,0.582,0.354,0.813c0.236,0.229,0.528,0.344,0.875,0.344
			c0.348,0,0.64-0.114,0.876-0.344C16.024,66.906,16.143,66.638,16.143,66.328z M16.049,63.86c0-0.296-0.11-0.549-0.331-0.761
			c-0.22-0.212-0.489-0.318-0.81-0.318c-0.317,0-0.586,0.106-0.806,0.32c-0.22,0.213-0.33,0.465-0.33,0.754
			c0,0.269,0.108,0.503,0.326,0.703c0.217,0.201,0.487,0.302,0.81,0.302c0.325,0,0.597-0.101,0.814-0.302
			C15.939,64.358,16.049,64.125,16.049,63.86z"/>
		<path d="M21.109,63.061v-0.156h-2.469v0.304c0,0.082-0.016,0.141-0.048,0.176c-0.031,0.036-0.073,0.054-0.125,0.054
			c-0.049,0-0.09-0.018-0.123-0.054c-0.032-0.035-0.049-0.094-0.049-0.176v-0.652h3.161v0.55l-1.386,4.429
			c-0.021,0.071-0.048,0.118-0.078,0.142c-0.029,0.023-0.063,0.034-0.103,0.034c-0.049,0-0.09-0.016-0.123-0.049
			c-0.032-0.033-0.049-0.071-0.049-0.115c0-0.027,0.008-0.065,0.024-0.114L21.109,63.061z"/>
	</g>
	<g>
		<path d="M15.618,53.998c0.287,0.14,0.503,0.324,0.649,0.552c0.146,0.229,0.22,0.474,0.22,0.736c0,0.407-0.153,0.76-0.459,1.058
			c-0.307,0.298-0.679,0.447-1.116,0.447s-0.809-0.149-1.115-0.447c-0.306-0.298-0.459-0.65-0.459-1.058
			c0-0.26,0.073-0.504,0.22-0.732c0.146-0.228,0.364-0.413,0.653-0.556c-0.251-0.145-0.435-0.295-0.549-0.45
			c-0.159-0.222-0.238-0.467-0.238-0.734c0-0.377,0.146-0.707,0.437-0.99s0.642-0.425,1.052-0.425c0.413,0,0.765,0.142,1.055,0.425
			c0.289,0.283,0.435,0.613,0.435,0.99c0,0.268-0.08,0.511-0.238,0.729C16.051,53.702,15.869,53.853,15.618,53.998z M16.143,55.294
			c0-0.303-0.117-0.567-0.353-0.791c-0.235-0.225-0.527-0.336-0.878-0.336c-0.35,0-0.642,0.111-0.877,0.336
			c-0.235,0.224-0.353,0.486-0.353,0.787c0,0.312,0.118,0.582,0.354,0.813c0.236,0.229,0.528,0.344,0.875,0.344
			c0.348,0,0.64-0.114,0.876-0.344C16.024,55.872,16.143,55.603,16.143,55.294z M16.049,52.826c0-0.296-0.11-0.549-0.331-0.761
			c-0.22-0.212-0.489-0.318-0.81-0.318c-0.317,0-0.586,0.106-0.806,0.32c-0.22,0.213-0.33,0.465-0.33,0.754
			c0,0.269,0.108,0.503,0.326,0.703c0.217,0.201,0.487,0.302,0.81,0.302c0.325,0,0.597-0.101,0.814-0.302
			C15.939,53.324,16.049,53.091,16.049,52.826z"/>
		<path d="M18.923,54.49c0.214-0.314,0.433-0.547,0.658-0.697c0.226-0.149,0.477-0.225,0.753-0.225c0.366,0,0.691,0.152,0.976,0.457
			s0.427,0.681,0.427,1.13c0,0.409-0.13,0.785-0.39,1.125c-0.26,0.341-0.618,0.511-1.074,0.511c-0.298,0-0.576-0.092-0.835-0.274
			c-0.258-0.184-0.461-0.465-0.608-0.845c-0.184-0.474-0.274-0.997-0.274-1.571c0-0.432,0.086-0.833,0.258-1.205
			c0.131-0.287,0.307-0.539,0.525-0.757c0.218-0.217,0.474-0.395,0.765-0.533c0.291-0.138,0.605-0.207,0.945-0.207
			c0.229,0,0.421,0.047,0.573,0.14c0.066,0.041,0.099,0.096,0.099,0.164c0,0.049-0.015,0.09-0.045,0.121s-0.068,0.047-0.115,0.047
			c-0.035,0-0.077-0.014-0.127-0.041c-0.112-0.055-0.251-0.082-0.418-0.082c-0.533,0-1.02,0.229-1.458,0.688
			c-0.438,0.457-0.658,1.002-0.658,1.634C18.898,54.158,18.907,54.299,18.923,54.49z M19.001,55.061
			c0.104,0.498,0.268,0.853,0.49,1.066c0.223,0.213,0.486,0.319,0.789,0.319c0.307,0,0.568-0.119,0.785-0.358
			c0.218-0.239,0.326-0.55,0.326-0.933c0-0.358-0.109-0.655-0.328-0.891c-0.219-0.234-0.466-0.353-0.742-0.353
			c-0.265,0-0.521,0.113-0.767,0.341C19.391,54.403,19.206,54.673,19.001,55.061z"/>
	</g>
	<g>
		<path d="M15.618,74.769c0.287,0.14,0.503,0.324,0.649,0.552c0.146,0.229,0.22,0.474,0.22,0.736c0,0.407-0.153,0.76-0.459,1.058
			c-0.307,0.298-0.679,0.447-1.116,0.447s-0.809-0.149-1.115-0.447c-0.306-0.298-0.459-0.65-0.459-1.058
			c0-0.26,0.073-0.504,0.22-0.732c0.146-0.228,0.364-0.413,0.653-0.556c-0.251-0.145-0.435-0.295-0.549-0.45
			c-0.159-0.222-0.238-0.467-0.238-0.734c0-0.377,0.146-0.707,0.437-0.99s0.642-0.425,1.052-0.425c0.413,0,0.765,0.142,1.055,0.425
			c0.289,0.283,0.435,0.613,0.435,0.99c0,0.268-0.08,0.511-0.238,0.729C16.051,74.473,15.869,74.624,15.618,74.769z M16.143,76.064
			c0-0.303-0.117-0.567-0.353-0.791c-0.235-0.225-0.527-0.336-0.878-0.336c-0.35,0-0.642,0.111-0.877,0.336
			c-0.235,0.224-0.353,0.486-0.353,0.787c0,0.312,0.118,0.582,0.354,0.813c0.236,0.229,0.528,0.344,0.875,0.344
			c0.348,0,0.64-0.114,0.876-0.344C16.024,76.643,16.143,76.374,16.143,76.064z M16.049,73.597c0-0.296-0.11-0.549-0.331-0.761
			c-0.22-0.212-0.489-0.318-0.81-0.318c-0.317,0-0.586,0.106-0.806,0.32c-0.22,0.213-0.33,0.465-0.33,0.754
			c0,0.269,0.108,0.503,0.326,0.703c0.217,0.201,0.487,0.302,0.81,0.302c0.325,0,0.597-0.101,0.814-0.302
			C15.939,74.095,16.049,73.861,16.049,73.597z"/>
		<path d="M20.658,74.769c0.287,0.14,0.503,0.324,0.649,0.552c0.146,0.229,0.22,0.474,0.22,0.736c0,0.407-0.153,0.76-0.459,1.058
			c-0.307,0.298-0.679,0.447-1.116,0.447s-0.809-0.149-1.115-0.447c-0.306-0.298-0.459-0.65-0.459-1.058
			c0-0.26,0.073-0.504,0.22-0.732c0.146-0.228,0.364-0.413,0.653-0.556c-0.251-0.145-0.435-0.295-0.549-0.45
			c-0.159-0.222-0.238-0.467-0.238-0.734c0-0.377,0.146-0.707,0.437-0.99s0.642-0.425,1.052-0.425c0.413,0,0.765,0.142,1.055,0.425
			c0.289,0.283,0.435,0.613,0.435,0.99c0,0.268-0.08,0.511-0.238,0.729C21.091,74.473,20.909,74.624,20.658,74.769z M21.183,76.064
			c0-0.303-0.117-0.567-0.353-0.791c-0.235-0.225-0.527-0.336-0.878-0.336c-0.35,0-0.642,0.111-0.877,0.336
			c-0.235,0.224-0.353,0.486-0.353,0.787c0,0.312,0.118,0.582,0.354,0.813c0.236,0.229,0.528,0.344,0.875,0.344
			c0.348,0,0.64-0.114,0.876-0.344C21.064,76.643,21.183,76.374,21.183,76.064z M21.089,73.597c0-0.296-0.11-0.549-0.331-0.761
			c-0.22-0.212-0.489-0.318-0.81-0.318c-0.317,0-0.586,0.106-0.806,0.32c-0.22,0.213-0.33,0.465-0.33,0.754
			c0,0.269,0.108,0.503,0.326,0.703c0.217,0.201,0.487,0.302,0.81,0.302c0.325,0,0.597-0.101,0.814-0.302
			C20.979,74.095,21.089,73.861,21.089,73.597z"/>
	</g>
	<g>
		<path d="M15.618,85.479c0.287,0.14,0.503,0.324,0.649,0.552c0.146,0.229,0.22,0.474,0.22,0.736c0,0.407-0.153,0.76-0.459,1.058
			c-0.307,0.298-0.679,0.447-1.116,0.447s-0.809-0.149-1.115-0.447c-0.306-0.298-0.459-0.65-0.459-1.058
			c0-0.26,0.073-0.504,0.22-0.732c0.146-0.228,0.364-0.413,0.653-0.556c-0.251-0.145-0.435-0.295-0.549-0.45
			c-0.159-0.222-0.238-0.467-0.238-0.734c0-0.377,0.146-0.707,0.437-0.99s0.642-0.425,1.052-0.425c0.413,0,0.765,0.142,1.055,0.425
			c0.289,0.283,0.435,0.613,0.435,0.99c0,0.268-0.08,0.511-0.238,0.729C16.051,85.184,15.869,85.335,15.618,85.479z M16.143,86.775
			c0-0.303-0.117-0.567-0.353-0.791c-0.235-0.225-0.527-0.336-0.878-0.336c-0.35,0-0.642,0.111-0.877,0.336
			c-0.235,0.224-0.353,0.486-0.353,0.787c0,0.312,0.118,0.582,0.354,0.813c0.236,0.229,0.528,0.344,0.875,0.344
			c0.348,0,0.64-0.114,0.876-0.344C16.024,87.353,16.143,87.085,16.143,86.775z M16.049,84.308c0-0.296-0.11-0.549-0.331-0.761
			c-0.22-0.212-0.489-0.318-0.81-0.318c-0.317,0-0.586,0.106-0.806,0.32c-0.22,0.213-0.33,0.465-0.33,0.754
			c0,0.269,0.108,0.503,0.326,0.703c0.217,0.201,0.487,0.302,0.81,0.302c0.325,0,0.597-0.101,0.814-0.302
			C15.939,84.806,16.049,84.572,16.049,84.308z"/>
		<path d="M21.363,85.238c-0.178,0.314-0.389,0.551-0.634,0.709c-0.244,0.159-0.495,0.238-0.752,0.238
			c-0.238,0-0.469-0.068-0.691-0.205s-0.399-0.337-0.531-0.601c-0.131-0.265-0.196-0.541-0.196-0.831c0-0.421,0.13-0.804,0.392-1.15
			c0.261-0.346,0.61-0.519,1.048-0.519c0.312,0,0.596,0.098,0.853,0.291c0.257,0.194,0.456,0.476,0.599,0.845
			c0.184,0.474,0.274,1.022,0.274,1.648c0,0.487-0.077,0.892-0.233,1.214c-0.104,0.219-0.256,0.431-0.457,0.636
			s-0.428,0.372-0.679,0.5c-0.345,0.173-0.703,0.259-1.074,0.259c-0.246,0-0.447-0.047-0.604-0.14
			c-0.07-0.044-0.106-0.099-0.106-0.164c0-0.046,0.017-0.085,0.05-0.116c0.032-0.032,0.072-0.048,0.118-0.048
			c0.033,0,0.081,0.016,0.144,0.045c0.107,0.053,0.23,0.078,0.369,0.078c0.583,0,1.083-0.21,1.501-0.629
			c0.418-0.42,0.628-0.945,0.628-1.577C21.38,85.607,21.374,85.445,21.363,85.238z M21.298,84.664
			c-0.146-0.555-0.325-0.933-0.54-1.134c-0.214-0.201-0.465-0.302-0.752-0.302c-0.293,0-0.55,0.123-0.771,0.369
			c-0.222,0.246-0.333,0.562-0.333,0.947c0,0.375,0.111,0.685,0.333,0.929c0.221,0.245,0.471,0.367,0.75,0.367
			c0.161,0,0.32-0.044,0.478-0.131c0.157-0.088,0.306-0.219,0.445-0.395C20.998,85.198,21.128,84.981,21.298,84.664z"/>
	</g>
	<line fill="none" stroke="#E54F26" stroke-miterlimit="10" x1="28.732" y1="16.329" x2="28.732" y2="46.247"/>
	<rect x="25.983" y="51.795" fill="none" stroke="#E54F26" stroke-miterlimit="10" width="5.493" height="5.472"/>
	<line fill="none" stroke="#E54F26" stroke-miterlimit="10" x1="26.923" y1="54.53" x2="30.623" y2="54.53"/>
	<line fill="none" stroke="#E54F26" stroke-miterlimit="10" x1="28.732" y1="86.83" x2="31.477" y2="86.83"/>
	<line fill="none" stroke="#E54F26" stroke-miterlimit="10" x1="28.732" y1="57.267" x2="28.732" y2="87.184"/>
</g>
</svg>