<!-- Generator: Adobe Illustrator 17.0.0, SVG Export Plug-In  -->
<svg version="1.1"
	 xmlns="http://www.w3.org/2000/svg" xmlns:xlink="http://www.w3.org/1999/xlink" xmlns:a="http://ns.adobe.com/AdobeSVGViewerExtensions/3.0/"
	 x="0px" y="0px" width="200.489px" height="59.665px" viewBox="0 0 200.489 59.665"
	 style="enable-background:new 0 0 200.489 59.665;" xml:space="preserve">
<style type="text/css">
	.st0{fill:#E54F26;}
	.st1{fill:url(#SVGID_1_);}
	.st2{fill:#F5F5F5;}
	.st3{fill:#FFFFFF;}
	.st4{fill:url(#XMLID_17_);}
	.st5{fill:url(#XMLID_18_);}
	.st6{fill:url(#XMLID_19_);}
	.st7{fill:url(#XMLID_20_);}
	.st8{fill:url(#SVGID_2_);}
	.st9{fill:url(#XMLID_21_);}
	.st10{fill:url(#XMLID_22_);}
	.st11{fill:url(#XMLID_23_);}
	.st12{fill:url(#XMLID_24_);}
</style>
<defs>
</defs>
<g>
	<polygon id="XMLID_16_" points="139.367,4.737 145.013,0 145.013,4.737 	"/>
	<rect x="0" y="7.106" class="st0" width="200.489" height="50.191"/>
	<linearGradient id="SVGID_1_" gradientUnits="userSpaceOnUse" x1="0" y1="29.8326" x2="200.4893" y2="29.8326">
		<stop  offset="0" style="stop-color:#F5F5F5"/>
		<stop  offset="1" style="stop-color:#E8E8E8"/>
	</linearGradient>
	<rect x="0" y="4.737" class="st1" width="200.489" height="50.19"/>
	<rect id="XMLID_15_" x="145.012" y="0" class="st0" width="36.804" height="59.665"/>
	<polygon id="XMLID_14_" points="139.367,57.206 145.013,59.665 145.013,57.206 	"/>
	<rect id="XMLID_13_" x="143.194" y="4.829" class="st2" width="1.731" height="52.377"/>
	<g id="XMLID_10_">
		<path id="XMLID_12_" class="st3" d="M178.174,41.537l-5.832-5.828c-0.364-0.365-0.913-0.548-1.456-0.548l-1.912-1.912
			c3.278-4.373,3.004-10.566-1.005-14.574c-4.372-4.373-11.386-4.373-15.758,0c-4.373,4.371-4.373,11.386,0,15.759
			c4.009,4.009,10.203,4.279,14.574,1.001l1.913,1.913c0,0.547,0.184,1.003,0.546,1.457l5.83,5.831c0.73,0.728,1.915,0.728,2.643,0
			l0.457-0.455C178.9,43.359,178.9,42.268,178.174,41.537L178.174,41.537z M165.51,31.974c-3.006,3.007-7.923,3.007-10.931,0
			c-3.005-3.006-3.005-7.926,0-10.931c3.008-3.006,7.925-3.006,10.931,0C168.608,24.048,168.517,28.968,165.51,31.974L165.51,31.974
			z"/>
		<path id="XMLID_11_" class="st3" d="M163.142,25.323h-1.821v-1.821c0-0.638-0.547-1.185-1.184-1.185l0,0
			c-0.642,0-1.186,0.547-1.186,1.185v1.821h-1.823c-0.636,0-1.183,0.547-1.183,1.184l0,0c0,0.64,0.547,1.184,1.183,1.184h1.823
			v1.823c0,0.636,0.544,1.185,1.186,1.185l0,0c0.637,0,1.184-0.549,1.184-1.185v-1.823h1.821c0.637,0,1.186-0.545,1.186-1.184l0,0
			C164.327,25.87,163.778,25.323,163.142,25.323L163.142,25.323z"/>
	</g>
	<g>
		<path d="M54.53,27.585l1.373-0.134c0.083,0.461,0.25,0.799,0.503,1.016c0.253,0.216,0.594,0.324,1.022,0.324
			c0.454,0,0.797-0.097,1.027-0.289s0.346-0.417,0.346-0.674c0-0.166-0.049-0.307-0.146-0.422c-0.097-0.116-0.267-0.218-0.508-0.303
			c-0.165-0.058-0.542-0.159-1.13-0.306c-0.756-0.188-1.287-0.418-1.592-0.691c-0.429-0.384-0.644-0.853-0.644-1.406
			c0-0.355,0.101-0.688,0.303-0.998s0.492-0.546,0.872-0.708s0.838-0.243,1.375-0.243c0.878,0,1.538,0.192,1.981,0.577
			c0.443,0.384,0.676,0.897,0.698,1.539l-1.411,0.063c-0.061-0.359-0.19-0.617-0.389-0.774c-0.198-0.158-0.496-0.236-0.894-0.236
			c-0.41,0-0.731,0.084-0.963,0.253c-0.149,0.107-0.225,0.252-0.225,0.434c0,0.165,0.07,0.307,0.21,0.424
			c0.178,0.149,0.61,0.306,1.297,0.468s1.194,0.329,1.522,0.503c0.329,0.173,0.587,0.409,0.772,0.71
			c0.187,0.3,0.279,0.671,0.279,1.113c0,0.4-0.111,0.775-0.334,1.125s-0.537,0.609-0.943,0.779c-0.407,0.17-0.914,0.255-1.521,0.255
			c-0.883,0-1.562-0.204-2.035-0.612S54.623,28.366,54.53,27.585z"/>
		<path d="M61.399,29.858V22.87h5.182v1.183h-3.771v1.549h3.509v1.178h-3.509v1.901h3.904v1.178H61.399z"/>
		<path d="M67.949,29.858v-6.931h1.411v5.753h3.509v1.178H67.949z"/>
		<path d="M73.874,29.858V22.87h5.182v1.183h-3.771v1.549h3.509v1.178h-3.509v1.901h3.904v1.178H73.874z"/>
		<path d="M84.857,27.289l1.368,0.434c-0.21,0.763-0.559,1.329-1.047,1.699c-0.487,0.371-1.106,0.556-1.856,0.556
			c-0.928,0-1.69-0.317-2.288-0.951s-0.896-1.501-0.896-2.601c0-1.163,0.301-2.066,0.901-2.71s1.391-0.965,2.369-0.965
			c0.854,0,1.549,0.253,2.083,0.758c0.318,0.299,0.557,0.728,0.715,1.287L84.81,25.13c-0.083-0.362-0.255-0.648-0.517-0.858
			c-0.263-0.21-0.581-0.314-0.956-0.314c-0.519,0-0.938,0.186-1.261,0.558c-0.323,0.372-0.484,0.975-0.484,1.807
			c0,0.884,0.159,1.513,0.477,1.888c0.318,0.375,0.731,0.563,1.24,0.563c0.374,0,0.697-0.119,0.967-0.357
			C84.546,28.176,84.74,27.801,84.857,27.289z"/>
		<path d="M89.009,29.858v-5.806h-2.073V22.87h5.553v1.183H90.42v5.806H89.009z"/>
		<path d="M93.112,26.407c0-0.712,0.106-1.31,0.319-1.792c0.159-0.356,0.376-0.676,0.651-0.959c0.274-0.282,0.576-0.492,0.903-0.629
			c0.436-0.185,0.938-0.276,1.506-0.276c1.03,0,1.854,0.319,2.472,0.958s0.928,1.527,0.928,2.665c0,1.128-0.307,2.011-0.92,2.647
			c-0.614,0.638-1.434,0.956-2.46,0.956c-1.039,0-1.865-0.317-2.479-0.951C93.419,28.393,93.112,27.52,93.112,26.407z
			 M94.566,26.359c0,0.791,0.183,1.392,0.549,1.8c0.365,0.408,0.829,0.612,1.392,0.612s1.024-0.202,1.385-0.607
			s0.541-1.014,0.541-1.823c0-0.801-0.176-1.398-0.526-1.793c-0.352-0.394-0.818-0.591-1.399-0.591
			c-0.582,0-1.051,0.199-1.406,0.599C94.744,24.954,94.566,25.556,94.566,26.359z"/>
		<path d="M100.997,29.858V22.87h2.97c0.747,0,1.29,0.063,1.628,0.188c0.339,0.125,0.609,0.349,0.813,0.67
			c0.204,0.32,0.306,0.688,0.306,1.101c0,0.524-0.154,0.958-0.463,1.299c-0.308,0.342-0.769,0.558-1.382,0.646
			c0.305,0.178,0.557,0.373,0.755,0.586c0.199,0.213,0.467,0.591,0.804,1.135l0.854,1.363h-1.688l-1.021-1.521
			c-0.362-0.544-0.61-0.886-0.743-1.027c-0.134-0.142-0.275-0.238-0.425-0.291c-0.149-0.052-0.386-0.078-0.71-0.078h-0.286v2.917
			H100.997z M102.408,25.825h1.044c0.677,0,1.1-0.028,1.268-0.085c0.169-0.058,0.301-0.156,0.396-0.296
			c0.095-0.14,0.143-0.314,0.143-0.524c0-0.235-0.063-0.425-0.188-0.569c-0.125-0.145-0.303-0.236-0.531-0.274
			c-0.114-0.016-0.458-0.023-1.029-0.023h-1.102V25.825z"/>
		<path d="M108.042,29.858V22.87h5.182v1.183h-3.771v1.549h3.509v1.178h-3.509v1.901h3.904v1.178H108.042z"/>
		<path d="M114.196,27.585l1.373-0.134c0.083,0.461,0.25,0.799,0.503,1.016c0.253,0.216,0.594,0.324,1.022,0.324
			c0.454,0,0.797-0.097,1.027-0.289s0.346-0.417,0.346-0.674c0-0.166-0.049-0.307-0.146-0.422c-0.097-0.116-0.267-0.218-0.508-0.303
			c-0.165-0.058-0.542-0.159-1.13-0.306c-0.756-0.188-1.287-0.418-1.592-0.691c-0.429-0.384-0.644-0.853-0.644-1.406
			c0-0.355,0.101-0.688,0.303-0.998s0.492-0.546,0.872-0.708s0.838-0.243,1.375-0.243c0.878,0,1.538,0.192,1.981,0.577
			c0.443,0.384,0.676,0.897,0.698,1.539l-1.411,0.063c-0.061-0.359-0.19-0.617-0.389-0.774c-0.198-0.158-0.496-0.236-0.894-0.236
			c-0.41,0-0.731,0.084-0.963,0.253c-0.149,0.107-0.225,0.252-0.225,0.434c0,0.165,0.07,0.307,0.21,0.424
			c0.178,0.149,0.61,0.306,1.297,0.468s1.194,0.329,1.522,0.503c0.329,0.173,0.587,0.409,0.772,0.71
			c0.187,0.3,0.279,0.671,0.279,1.113c0,0.4-0.111,0.775-0.334,1.125s-0.537,0.609-0.943,0.779c-0.407,0.17-0.914,0.255-1.521,0.255
			c-0.883,0-1.562-0.204-2.035-0.612S114.289,28.366,114.196,27.585z"/>
		<path d="M123.053,29.978l1.73-7.227h1.006l-1.749,7.227H123.053z"/>
		<path d="M65.993,41.573v-6.988h2.111l1.269,4.767l1.253-4.767h2.117v6.988h-1.312v-5.501l-1.387,5.501h-1.358l-1.383-5.501v5.501
			H65.993z"/>
		<path d="M74.144,41.573v-6.988h5.182v1.183h-3.771v1.549h3.509v1.178h-3.509v1.901h3.904v1.178H74.144z M75.937,34.185
			l0.657-1.425h1.502l-1.311,1.425H75.937z"/>
		<path d="M82.229,41.573v-5.806h-2.073v-1.183h5.553v1.183H83.64v5.806H82.229z"/>
		<path d="M86.332,38.122c0-0.712,0.106-1.31,0.319-1.792c0.159-0.356,0.376-0.676,0.651-0.959c0.274-0.282,0.576-0.492,0.903-0.629
			c0.436-0.185,0.938-0.276,1.506-0.276c1.03,0,1.854,0.319,2.472,0.958s0.928,1.527,0.928,2.665c0,1.128-0.307,2.011-0.92,2.647
			c-0.614,0.638-1.434,0.956-2.46,0.956c-1.039,0-1.865-0.317-2.479-0.951C86.639,40.107,86.332,39.234,86.332,38.122z
			 M87.786,38.074c0,0.791,0.183,1.392,0.549,1.8c0.365,0.408,0.829,0.612,1.392,0.612s1.024-0.202,1.385-0.607
			s0.541-1.014,0.541-1.823c0-0.801-0.176-1.398-0.526-1.793c-0.352-0.394-0.818-0.591-1.399-0.591
			c-0.582,0-1.051,0.199-1.406,0.599C87.964,36.669,87.786,37.271,87.786,38.074z"/>
		<path d="M94.207,34.585h2.579c0.582,0,1.025,0.045,1.33,0.134c0.41,0.12,0.761,0.335,1.054,0.644
			c0.292,0.308,0.515,0.686,0.667,1.132s0.229,0.997,0.229,1.651c0,0.575-0.072,1.071-0.215,1.487
			c-0.175,0.509-0.425,0.92-0.748,1.235c-0.245,0.238-0.576,0.424-0.992,0.558c-0.312,0.099-0.728,0.147-1.249,0.147h-2.655V34.585z
			 M95.618,35.768v4.628h1.054c0.395,0,0.679-0.021,0.854-0.066c0.229-0.058,0.419-0.154,0.569-0.291
			c0.151-0.137,0.274-0.361,0.369-0.674c0.096-0.313,0.144-0.74,0.144-1.28s-0.048-0.955-0.144-1.244
			c-0.095-0.289-0.229-0.515-0.4-0.677c-0.171-0.162-0.389-0.271-0.652-0.329c-0.197-0.045-0.584-0.066-1.158-0.066H95.618z"/>
		<path d="M100.976,38.122c0-0.712,0.106-1.31,0.319-1.792c0.159-0.356,0.376-0.676,0.651-0.959
			c0.274-0.282,0.576-0.492,0.903-0.629c0.436-0.185,0.938-0.276,1.506-0.276c1.03,0,1.854,0.319,2.472,0.958
			s0.928,1.527,0.928,2.665c0,1.128-0.307,2.011-0.92,2.647c-0.614,0.638-1.434,0.956-2.46,0.956c-1.039,0-1.865-0.317-2.479-0.951
			C101.282,40.107,100.976,39.234,100.976,38.122z M102.43,38.074c0,0.791,0.183,1.392,0.549,1.8
			c0.365,0.408,0.829,0.612,1.392,0.612s1.024-0.202,1.385-0.607s0.541-1.014,0.541-1.823c0-0.801-0.176-1.398-0.526-1.793
			c-0.352-0.394-0.818-0.591-1.399-0.591c-0.582,0-1.051,0.199-1.406,0.599C102.607,36.669,102.43,37.271,102.43,38.074z"/>
		<path d="M108.498,39.3l1.373-0.134c0.083,0.461,0.25,0.799,0.503,1.016c0.253,0.216,0.594,0.324,1.022,0.324
			c0.454,0,0.797-0.097,1.027-0.289s0.346-0.417,0.346-0.674c0-0.166-0.049-0.307-0.146-0.422c-0.097-0.116-0.267-0.218-0.508-0.303
			c-0.165-0.058-0.542-0.159-1.13-0.306c-0.756-0.188-1.287-0.418-1.592-0.691c-0.429-0.384-0.644-0.853-0.644-1.406
			c0-0.355,0.101-0.688,0.303-0.998s0.492-0.546,0.872-0.708s0.838-0.243,1.375-0.243c0.878,0,1.538,0.192,1.981,0.577
			c0.443,0.384,0.676,0.897,0.698,1.539l-1.411,0.063c-0.061-0.359-0.19-0.617-0.389-0.774c-0.198-0.158-0.496-0.236-0.894-0.236
			c-0.41,0-0.731,0.084-0.963,0.253c-0.149,0.107-0.225,0.252-0.225,0.434c0,0.165,0.07,0.307,0.21,0.424
			c0.178,0.149,0.61,0.306,1.297,0.468s1.194,0.329,1.522,0.503c0.329,0.173,0.587,0.409,0.772,0.71
			c0.187,0.3,0.279,0.671,0.279,1.113c0,0.4-0.111,0.775-0.334,1.125s-0.537,0.609-0.943,0.779c-0.407,0.17-0.914,0.255-1.521,0.255
			c-0.883,0-1.562-0.204-2.035-0.612S108.591,40.081,108.498,39.3z"/>
	</g>
	<g>
		<path class="st3" d="M155.442,54.227V48.5h2.16c0.38,0,0.671,0.019,0.871,0.055c0.281,0.047,0.517,0.136,0.707,0.268
			s0.343,0.315,0.459,0.553s0.174,0.497,0.174,0.781c0,0.487-0.155,0.899-0.465,1.236s-0.87,0.506-1.68,0.506H156.2v2.328H155.442z
			 M156.2,51.223h1.48c0.489,0,0.837-0.091,1.043-0.273s0.309-0.438,0.309-0.77c0-0.239-0.061-0.444-0.182-0.615
			s-0.28-0.283-0.479-0.338c-0.128-0.034-0.363-0.051-0.707-0.051H156.2V51.223z"/>
		<path class="st3" d="M160.778,54.227V48.5h1.973c0.445,0,0.785,0.027,1.02,0.082c0.328,0.075,0.608,0.212,0.84,0.41
			c0.302,0.255,0.528,0.581,0.678,0.979s0.225,0.851,0.225,1.361c0,0.435-0.051,0.82-0.152,1.156s-0.231,0.614-0.391,0.834
			s-0.333,0.394-0.521,0.52s-0.417,0.222-0.684,0.287s-0.573,0.098-0.92,0.098H160.778z M161.536,53.551h1.223
			c0.378,0,0.674-0.035,0.889-0.105s0.386-0.169,0.514-0.297c0.18-0.18,0.319-0.421,0.42-0.725s0.15-0.671,0.15-1.104
			c0-0.599-0.099-1.06-0.295-1.381s-0.436-0.537-0.717-0.646c-0.203-0.078-0.53-0.117-0.98-0.117h-1.203V53.551z"/>
		<path class="st3" d="M166.595,54.227V48.5h3.863v0.676h-3.105v1.773h2.688v0.676h-2.688v2.602H166.595z"/>
	</g>
	<g id="XMLID_1_">
		<rect x="12.761" y="15.589" class="st0" width="23.416" height="27.145"/>
		<path id="XMLID_6_" d="M39.216,44.986H15.799V43.71h21.359V17.843h2.058V44.986L39.216,44.986z M12.761,15.589h23.416v27.144
			H12.761V15.589L12.761,15.589z M37.158,16.864V14.61H11.781v29.1h3.038v2.256h25.375V16.864H37.158L37.158,16.864z"/>
		<linearGradient id="XMLID_17_" gradientUnits="userSpaceOnUse" x1="25.0557" y1="38.8106" x2="26.084" y2="38.8106">
			<stop  offset="0" style="stop-color:#F5F5F5"/>
			<stop  offset="1" style="stop-color:#E8E8E8"/>
		</linearGradient>
		<polygon id="XMLID_5_" class="st4" points="25.056,38.321 26.084,38.321 26.084,39.3 25.056,39.3 25.056,38.321 		"/>
		<linearGradient id="XMLID_18_" gradientUnits="userSpaceOnUse" x1="27.2647" y1="38.8106" x2="28.292" y2="38.8106">
			<stop  offset="0" style="stop-color:#F5F5F5"/>
			<stop  offset="1" style="stop-color:#E8E8E8"/>
		</linearGradient>
		<polygon id="XMLID_4_" class="st5" points="27.265,38.321 28.292,38.321 28.292,39.3 27.265,39.3 27.265,38.321 		"/>
		<linearGradient id="XMLID_19_" gradientUnits="userSpaceOnUse" x1="29.5176" y1="38.8106" x2="30.5479" y2="38.8106">
			<stop  offset="0" style="stop-color:#F5F5F5"/>
			<stop  offset="1" style="stop-color:#E8E8E8"/>
		</linearGradient>
		<polygon id="XMLID_3_" class="st6" points="29.518,38.321 30.548,38.321 30.548,39.3 29.518,39.3 29.518,38.321 		"/>
		<linearGradient id="XMLID_20_" gradientUnits="userSpaceOnUse" x1="31.7207" y1="38.8106" x2="32.751" y2="38.8106">
			<stop  offset="0" style="stop-color:#F5F5F5"/>
			<stop  offset="1" style="stop-color:#E8E8E8"/>
		</linearGradient>
		<polygon id="XMLID_2_" class="st7" points="31.721,38.321 32.751,38.321 32.751,39.3 31.721,39.3 31.721,38.321 		"/>
	</g>
	<path class="st3" d="M18.668,21.807c0,0.492,0.069,0.968,0.14,1.461c0.07,0.489,0.139,0.982,0.139,1.475
		c0,0.615-0.175,1.3-1.425,1.3v0.896c1.25,0,1.425,0.757,1.425,1.3c0,0.476-0.068,0.949-0.139,1.425
		c-0.07,0.476-0.14,0.966-0.14,1.441c0,1.772,1.086,2.407,2.549,2.407h0.368v-0.966h-0.316c-0.985,0-1.389-0.545-1.389-1.53
		c0-0.42,0.051-0.827,0.122-1.267c0.071-0.42,0.124-0.859,0.124-1.332c0.02-1.128-0.474-1.723-1.268-1.918v-0.033
		c0.794-0.212,1.282-0.773,1.268-1.9c0-0.474-0.053-0.897-0.124-1.333c-0.071-0.423-0.122-0.847-0.122-1.25
		c0-0.948,0.352-1.511,1.389-1.511h0.316v-0.966h-0.368C19.723,19.505,18.668,20.19,18.668,21.807z"/>
	<path class="st3" d="M28.826,24.742c0-0.492,0.073-0.985,0.143-1.475c0.07-0.493,0.142-0.966,0.142-1.461
		c0-1.617-1.073-2.302-2.567-2.302H26.19v0.966h0.32c1.017,0.017,1.388,0.563,1.388,1.511c0,0.403-0.071,0.827-0.124,1.25
		c-0.071,0.439-0.142,0.859-0.142,1.333c0,1.127,0.493,1.688,1.267,1.9v0.033c-0.773,0.195-1.267,0.79-1.267,1.918
		c0,0.473,0.07,0.912,0.142,1.332c0.053,0.443,0.124,0.847,0.124,1.267c0,0.985-0.423,1.511-1.405,1.53H26.19v0.966h0.371
		c1.442,0,2.549-0.635,2.549-2.407c0-0.476-0.071-0.966-0.142-1.441c-0.069-0.476-0.143-0.949-0.143-1.425
		c0-0.546,0.178-1.3,1.425-1.3v-0.896C29.004,26.042,28.826,25.358,28.826,24.742z"/>
</g>
</svg>