<!-- Generator: Adobe Illustrator 17.0.0, SVG Export Plug-In  -->
<svg version="1.1"
	 xmlns="http://www.w3.org/2000/svg" xmlns:xlink="http://www.w3.org/1999/xlink" xmlns:a="http://ns.adobe.com/AdobeSVGViewerExtensions/3.0/"
	 x="0px" y="0px" width="657.632px" height="380.56px" viewBox="0 0 657.632 380.56"
	 style="enable-background:new 0 0 657.632 380.56;" xml:space="preserve">
<style type="text/css">
	.st0{stroke:#000000;stroke-width:0.75;stroke-miterlimit:10;}
	.st1{fill:none;stroke:#E54F26;stroke-width:3;stroke-miterlimit:10;}
	.st2{fill:#ECF0F1;stroke:#282F39;stroke-miterlimit:10;}
	.st3{fill:#E54F26;}
	.st4{fill:#ECF0F1;}
	.st5{fill:#E2E1E0;}
	.st6{fill:#7A7A7A;stroke:#FFFFFF;stroke-miterlimit:10;}
	.st7{opacity:0.1;}
	.st8{fill:#E8E8E8;}
	.st9{fill:#282F39;}
	.st10{fill:#A5A5A5;stroke:#FFFFFF;stroke-miterlimit:10;}
	.st11{fill:#D1D2D3;}
	.st12{fill:#90E3FF;}
	.st13{fill:#FFFFFF;}
</style>
<defs>
</defs>
<g>
	<g>
		<g>
			<path class="st0" d="M139.673,36.771h16.056c0.403,0,0.727-0.325,0.727-0.728c0-0.402-0.324-0.729-0.727-0.729h-16.056
				c-0.402,0-0.729,0.326-0.729,0.729C138.944,36.445,139.27,36.771,139.673,36.771z"/>
		</g>
		<g>
			<path class="st0" d="M145.898,27.021h9.83c0.403,0,0.727-0.326,0.727-0.729c0-0.402-0.324-0.729-0.727-0.729h-9.83
				c-0.403,0-0.73,0.327-0.73,0.729C145.169,26.695,145.495,27.021,145.898,27.021z"/>
		</g>
	</g>
	<g>
		<g>
			<path class="st0" d="M511.78,199.053h16.057c0.402,0,0.727-0.325,0.727-0.728c0-0.402-0.324-0.729-0.727-0.729H511.78
				c-0.4,0-0.729,0.326-0.729,0.729C511.052,198.728,511.38,199.053,511.78,199.053z"/>
		</g>
		<g>
			<path class="st0" d="M518.005,189.304h9.832c0.402,0,0.727-0.326,0.727-0.729c0-0.402-0.324-0.729-0.727-0.729h-9.832
				c-0.402,0-0.729,0.327-0.729,0.729C517.276,188.978,517.602,189.304,518.005,189.304z"/>
		</g>
	</g>
	<g>
		<g>
			<path class="st0" d="M417.208,263.699h-16.057c-0.402,0-0.729-0.326-0.729-0.729c0-0.402,0.326-0.729,0.729-0.729h16.057
				c0.4,0,0.728,0.326,0.728,0.729C417.936,263.373,417.608,263.699,417.208,263.699z"/>
		</g>
		<g>
			<path class="st0" d="M410.982,253.949h-9.831c-0.402,0-0.729-0.326-0.729-0.729c0-0.402,0.326-0.73,0.729-0.73h9.831
				c0.403,0,0.73,0.327,0.73,0.73C411.712,253.623,411.386,253.949,410.982,253.949z"/>
		</g>
	</g>
	<g>
		<g>
			<path class="st0" d="M279.456,357.938h-16.057c-0.402,0-0.729-0.326-0.729-0.728c0-0.402,0.326-0.729,0.729-0.729h16.057
				c0.401,0,0.727,0.326,0.727,0.729C280.183,357.611,279.857,357.938,279.456,357.938z"/>
		</g>
		<g>
			<path class="st0" d="M273.229,348.188h-9.83c-0.402,0-0.729-0.326-0.729-0.728c0-0.401,0.326-0.729,0.729-0.729h9.83
				c0.404,0,0.73,0.327,0.73,0.729C273.959,347.861,273.634,348.188,273.229,348.188z"/>
		</g>
	</g>
	<g>
		<path class="st0" d="M60.106,277.419H36.333c-0.402,0-0.728-0.325-0.728-0.728c0-0.402,0.325-0.729,0.728-0.729h23.773
			c0.403,0,0.729,0.326,0.729,0.729C60.835,277.094,60.51,277.419,60.106,277.419z"/>
	</g>
	<g>
		<path class="st0" d="M50.169,260.248H36.333c-0.402,0-0.728-0.326-0.728-0.729c0-0.402,0.325-0.728,0.728-0.728h13.836
			c0.401,0,0.727,0.326,0.727,0.728C50.896,259.922,50.57,260.248,50.169,260.248z"/>
	</g>
	<g>
		<rect x="17.742" y="92.626" class="st0" width="66.308" height="1.634"/>
		<rect x="40.428" y="87.392" class="st0" width="43.622" height="1.636"/>
	</g>
	<g>
		<rect x="168.909" y="378.551" class="st0" width="66.309" height="1.634"/>
		<rect x="191.597" y="373.316" class="st0" width="43.621" height="1.636"/>
	</g>
	<g>
		<rect x="31.318" y="230.437" class="st0" width="66.31" height="1.634"/>
		<rect x="54.005" y="225.202" class="st0" width="43.623" height="1.636"/>
	</g>
	<g>
		<rect x="0.375" y="177.854" class="st0" width="66.308" height="1.634"/>
		<rect x="23.062" y="172.619" class="st0" width="43.62" height="1.636"/>
	</g>
	<g>
		<rect x="349.695" y="300.202" class="st0" width="66.31" height="1.634"/>
		<rect x="349.695" y="294.968" class="st0" width="43.622" height="1.636"/>
	</g>
	<g>
		<rect x="355.531" y="91.911" class="st0" width="66.308" height="1.634"/>
		<rect x="355.531" y="86.678" class="st0" width="43.622" height="1.635"/>
	</g>
	<g id="XMLID_36_">
		<g id="XMLID_40_">
			<line id="XMLID_42_" class="st1" x1="303.406" y1="30.37" x2="299.213" y2="34.563"/>
			<line id="XMLID_41_" class="st1" x1="293.487" y1="40.29" x2="289.296" y2="44.482"/>
		</g>
		<g id="XMLID_37_">
			<line id="XMLID_39_" class="st1" x1="289.296" y1="30.37" x2="293.487" y2="34.563"/>
			<line id="XMLID_38_" class="st1" x1="299.213" y1="40.29" x2="303.406" y2="44.482"/>
		</g>
	</g>
	<g id="XMLID_29_">
		<g id="XMLID_33_">
			<line id="XMLID_35_" class="st1" x1="107.347" y1="362.639" x2="103.153" y2="366.832"/>
			<line id="XMLID_34_" class="st1" x1="97.428" y1="372.557" x2="93.235" y2="376.75"/>
		</g>
		<g id="XMLID_30_">
			<line id="XMLID_32_" class="st1" x1="93.235" y1="362.639" x2="97.428" y2="366.832"/>
			<line id="XMLID_31_" class="st1" x1="103.153" y1="372.557" x2="107.347" y2="376.75"/>
		</g>
	</g>
	<g id="XMLID_22_">
		<g id="XMLID_26_">
			<line id="XMLID_28_" class="st1" x1="46.851" y1="289.621" x2="42.657" y2="293.814"/>
			<line id="XMLID_27_" class="st1" x1="36.931" y1="299.539" x2="32.739" y2="303.733"/>
		</g>
		<g id="XMLID_23_">
			<line id="XMLID_25_" class="st1" x1="32.739" y1="289.621" x2="36.931" y2="293.814"/>
			<line id="XMLID_24_" class="st1" x1="42.657" y1="299.539" x2="46.851" y2="303.733"/>
		</g>
	</g>
	<g id="XMLID_15_">
		<g id="XMLID_19_">
			<line id="XMLID_21_" class="st1" x1="485.919" y1="204.934" x2="481.726" y2="209.126"/>
			<line id="XMLID_20_" class="st1" x1="476" y1="214.852" x2="471.808" y2="219.046"/>
		</g>
		<g id="XMLID_16_">
			<line id="XMLID_18_" class="st1" x1="471.808" y1="204.934" x2="476" y2="209.126"/>
			<line id="XMLID_17_" class="st1" x1="481.726" y1="214.852" x2="485.919" y2="219.046"/>
		</g>
	</g>
	<g id="XMLID_8_">
		<g id="XMLID_12_">
			<line id="XMLID_14_" class="st1" x1="585.517" y1="251.038" x2="581.323" y2="255.23"/>
			<line id="XMLID_13_" class="st1" x1="575.598" y1="260.956" x2="571.405" y2="265.15"/>
		</g>
		<g id="XMLID_9_">
			<line id="XMLID_11_" class="st1" x1="571.405" y1="251.038" x2="575.598" y2="255.23"/>
			<line id="XMLID_10_" class="st1" x1="581.323" y1="260.956" x2="585.517" y2="265.15"/>
		</g>
	</g>
	<g id="XMLID_1_">
		<g id="XMLID_5_">
			<line id="XMLID_7_" class="st1" x1="402.783" y1="330.694" x2="398.589" y2="334.887"/>
			<line id="XMLID_6_" class="st1" x1="392.864" y1="340.613" x2="388.672" y2="344.807"/>
		</g>
		<g id="XMLID_2_">
			<line id="XMLID_4_" class="st1" x1="388.672" y1="330.694" x2="392.864" y2="334.887"/>
			<line id="XMLID_3_" class="st1" x1="398.589" y1="340.613" x2="402.783" y2="344.807"/>
		</g>
	</g>
	<g>
		<rect x="111.72" y="47.674" class="st0" width="32.66" height="1.616"/>
		<rect x="69.872" y="47.674" class="st0" width="32.66" height="1.616"/>
		<rect x="60.688" y="47.674" class="st0" width="3.061" height="1.616"/>
	</g>
	<g>
		<rect x="585.99" y="41.578" class="st0" width="32.659" height="1.616"/>
		<rect x="544.143" y="41.578" class="st0" width="32.66" height="1.616"/>
		<rect x="534.959" y="41.578" class="st0" width="3.062" height="1.616"/>
	</g>
	<g>
		<rect x="518.378" y="245.79" class="st0" width="32.658" height="1.616"/>
		<rect x="476.531" y="245.79" class="st0" width="32.659" height="1.616"/>
		<rect x="467.347" y="245.79" class="st0" width="3.06" height="1.616"/>
	</g>
	<g>
		<rect x="104.518" y="343.76" class="st0" width="32.659" height="1.617"/>
		<rect x="62.671" y="343.76" class="st0" width="32.661" height="1.617"/>
		<rect x="53.486" y="343.76" class="st0" width="3.063" height="1.617"/>
	</g>
	<g>
		<rect x="235.699" y="0.375" class="st0" width="32.658" height="1.617"/>
		<rect x="277.544" y="0.375" class="st0" width="32.66" height="1.617"/>
		<rect x="316.328" y="0.375" class="st0" width="3.06" height="1.617"/>
	</g>
	<g>
		<rect x="337.85" y="47.824" class="st0" width="32.659" height="1.617"/>
		<rect x="379.694" y="47.824" class="st0" width="32.66" height="1.617"/>
		<rect x="418.478" y="47.824" class="st0" width="3.062" height="1.617"/>
	</g>
	<g>
		<rect x="320.41" y="361.83" class="st0" width="32.657" height="1.616"/>
		<rect x="362.255" y="361.83" class="st0" width="32.661" height="1.616"/>
		<rect x="401.039" y="361.83" class="st0" width="3.06" height="1.616"/>
	</g>
	<g>
		<g id="Web_2_">
			<path class="st2" d="M386.13,315.629c0,7.306-5.434,13.229-12.133,13.229H81.749c-6.7,0-12.134-5.924-12.134-13.229V80.805
				c0-7.308,5.434-13.231,12.134-13.231h292.248c6.699,0,12.133,5.924,12.133,13.231V315.629z"/>
			<path class="st3" d="M373.997,67.573H81.749c-6.7,0-12.134,5.924-12.134,13.231v51.264H386.13V80.805
				C386.13,73.497,380.696,67.573,373.997,67.573z"/>
			<ellipse class="st4" cx="329.839" cy="79.333" rx="6.068" ry="6.615"/>
			<path class="st4" d="M355.964,79.333c0,3.654-2.719,6.615-6.066,6.615c-3.352,0-6.068-2.961-6.068-6.615
				c0-3.653,2.717-6.614,6.068-6.614C353.245,72.719,355.964,75.68,355.964,79.333z"/>
			<ellipse class="st4" cx="370.795" cy="79.333" rx="6.067" ry="6.615"/>
			<path class="st5" d="M307.255,89.577c0,5.656-4.207,10.243-9.396,10.243H112.888c-5.19,0-9.396-4.587-9.396-10.243l0,0
				c0-5.657,4.207-10.244,9.396-10.244h184.972C303.048,79.333,307.255,83.92,307.255,89.577L307.255,89.577z"/>
			<rect x="85.287" y="144.196" width="188.766" height="104.366"/>
			<rect x="85.287" y="267.673" width="285.509" height="19.108"/>
			<rect x="85.12" y="295.601" width="285.504" height="19.11"/>
		</g>
		<g id="Map_1_">
			<g id="Map4_1_">
				<polygon class="st6" points="30.84,109.053 30.84,192.141 90.977,192.141 90.977,123.021 77.603,109.053 				"/>
				<polygon class="st7" points="77.854,122.605 91.429,136.18 91.429,122.605 81.589,117.065 				"/>
				<polygon class="st8" points="90.977,123.021 77.602,123.231 77.602,109.053 				"/>
				<g>
					<rect x="39.172" y="125.145" width="7.615" height="7.617"/>
					<rect x="39.172" y="134.465" class="st9" width="7.615" height="1.715"/>
					<rect x="46.787" y="134.465" class="st3" width="10.323" height="1.715"/>
					<rect x="57.11" y="134.465" class="st5" width="10.566" height="1.715"/>
					<rect x="49.493" y="125.145" width="7.617" height="7.617"/>
					<rect x="60.059" y="125.145" width="7.616" height="7.617"/>
				</g>
			</g>
			<g id="Map3_1_">
				<polygon class="st6" points="369.515,102.293 369.515,227.726 460.304,227.726 460.304,123.377 440.119,102.293 				"/>
				<polygon class="st7" points="440.497,122.749 460.986,143.241 460.986,122.749 446.132,114.384 				"/>
				<polygon class="st8" points="460.304,123.377 440.115,123.693 440.115,102.293 				"/>
				<g>
					<rect x="382.095" y="126.584" width="11.498" height="11.498"/>
					<rect x="382.095" y="140.652" width="11.498" height="2.589"/>
					<rect x="393.593" y="140.652" class="st3" width="15.588" height="2.589"/>
					<rect x="409.181" y="140.652" class="st5" width="15.949" height="2.589"/>
					<rect x="397.681" y="126.584" width="11.5" height="11.498"/>
					<rect x="413.63" y="126.584" width="11.5" height="11.498"/>
				</g>
			</g>
			<g id="Map2_1_">
				<polygon class="st10" points="157.948,222.306 157.948,347.738 248.735,347.738 248.735,243.391 228.549,222.306 				"/>
				<polygon class="st7" points="228.927,242.766 249.419,263.255 249.419,242.766 234.563,234.396 				"/>
				<polygon class="st8" points="248.735,243.391 228.549,243.707 228.549,222.306 				"/>
				<g>
					<rect x="170.53" y="246.598" width="11.497" height="11.496"/>
					<rect x="170.53" y="260.668" width="11.497" height="2.587"/>
					<rect x="182.027" y="260.668" class="st3" width="15.584" height="2.587"/>
					<rect x="197.611" y="260.668" class="st5" width="15.949" height="2.587"/>
					<rect x="186.112" y="246.598" width="11.499" height="11.496"/>
					<rect x="202.063" y="246.598" width="11.497" height="11.496"/>
				</g>
			</g>
			<g id="Map1_1_">
				<polygon class="st10" points="167.825,23.261 167.825,148.691 258.612,148.691 258.612,44.346 238.428,23.261 				"/>
				<polygon class="st7" points="238.804,43.719 259.296,64.208 259.296,43.719 244.443,35.35 				"/>
				<polygon class="st8" points="258.612,44.346 238.428,44.662 238.428,23.261 				"/>
				<g>
					<rect x="180.406" y="47.552" width="11.499" height="11.497"/>
					<rect x="180.406" y="61.621" width="11.499" height="2.587"/>
					<rect x="191.905" y="61.621" class="st3" width="15.582" height="2.587"/>
					<rect x="207.487" y="61.621" class="st5" width="15.951" height="2.587"/>
					<rect x="195.992" y="47.552" width="11.495" height="11.497"/>
					<rect x="211.94" y="47.552" width="11.498" height="11.497"/>
				</g>
			</g>
		</g>
		<g id="Line_2_">
			<g>
				<polygon class="st6" points="166.515,170.088 153.335,156.907 60.06,156.907 60.06,153.199 154.868,153.199 169.134,167.467 
									"/>
			</g>
			<path class="st6" d="M67.263,154.439c0,3.979-3.224,7.205-7.203,7.205s-7.207-3.227-7.207-7.205c0-3.982,3.228-7.207,7.207-7.207
				S67.263,150.457,67.263,154.439z"/>
			<circle class="st6" cx="167.825" cy="168.85" r="7.206"/>
			<g>
				<rect x="205.637" y="92.193" class="st6" width="3.704" height="76.656"/>
			</g>
			<g>
				<polygon class="st6" points="209.12,193.449 206.501,190.831 231.73,165.603 413.63,165.603 413.63,169.307 233.266,169.307 
									"/>
			</g>
			<g>
				<polygon class="st6" points="205.585,293.946 201.878,293.946 201.878,228.813 166.515,193.449 169.134,190.831 
					205.585,227.277 				"/>
			</g>
			<circle class="st6" cx="167.825" cy="192.141" r="7.206"/>
			<circle class="st6" cx="203.341" cy="293.946" r="7.205"/>
			<circle class="st6" cx="207.49" cy="168.85" r="7.206"/>
			<circle class="st6" cx="414.91" cy="167.572" r="7.206"/>
			<circle class="st6" cx="207.811" cy="192.141" r="7.204"/>
			<circle class="st6" cx="207.49" cy="89.577" r="7.206"/>
		</g>
	</g>
	<g>
		<g>
			<g>
				<path d="M541.143,105.941h-85.045c-0.354,0-0.641-0.286-0.641-0.64c0-0.354,0.287-0.639,0.641-0.639h85.045
					c0.354,0,0.639,0.285,0.639,0.639C541.782,105.655,541.497,105.941,541.143,105.941z"/>
			</g>
			<g>
				<path d="M535.265,128.131h-59.818c-0.355,0-0.641-0.285-0.641-0.64c0-0.353,0.285-0.639,0.641-0.639h59.818
					c0.352,0,0.639,0.286,0.639,0.639C535.903,127.846,535.616,128.131,535.265,128.131z"/>
			</g>
			<g>
				<path d="M482.282,134.965c-0.166,0-0.328-0.063-0.453-0.188l-6.836-6.833c-0.119-0.121-0.188-0.283-0.188-0.453
					c0-0.17,0.068-0.332,0.188-0.451l6.836-6.836c0.25-0.25,0.654-0.25,0.904,0s0.25,0.654,0,0.903l-6.385,6.384l6.385,6.383
					c0.25,0.249,0.25,0.654,0,0.903C482.608,134.902,482.444,134.965,482.282,134.965z"/>
			</g>
			<g>
				<path d="M462.933,112.776c-0.164,0-0.326-0.063-0.451-0.188l-6.836-6.835c-0.25-0.25-0.25-0.654,0-0.903l6.836-6.836
					c0.248-0.249,0.654-0.249,0.902,0c0.25,0.25,0.25,0.655,0,0.904l-6.383,6.383l6.383,6.383c0.25,0.25,0.25,0.654,0,0.904
					C463.261,112.714,463.095,112.776,462.933,112.776z"/>
			</g>
			<g>
				<path d="M511.768,157.155c-0.164,0-0.328-0.063-0.453-0.187l-6.834-6.835c-0.25-0.25-0.25-0.654,0-0.903l6.834-6.838
					c0.25-0.25,0.654-0.25,0.904,0c0.25,0.249,0.25,0.653,0,0.904l-6.383,6.384l6.383,6.384c0.25,0.25,0.25,0.654,0,0.904
					C512.095,157.093,511.931,157.155,511.768,157.155z"/>
			</g>
			<g>
				<path d="M541.143,150.321h-36.211c-0.353,0-0.639-0.286-0.639-0.641c0-0.352,0.285-0.639,0.639-0.639h36.211
					c0.354,0,0.639,0.287,0.639,0.639C541.782,150.035,541.497,150.321,541.143,150.321z"/>
			</g>
		</g>
		<g>
			<g>
				<path class="st11" d="M636.761,121.523h20.403c0-8.781-2.331-17.011-6.396-24.128h-17.727
					C635.405,104.513,636.761,112.742,636.761,121.523z"/>
				<path d="M657.164,121.992h-20.403c-0.26,0-0.468-0.21-0.468-0.469c0-8.407-1.276-16.699-3.696-23.98
					c-0.047-0.143-0.022-0.299,0.066-0.421c0.088-0.122,0.229-0.194,0.379-0.194h17.727c0.168,0,0.32,0.09,0.406,0.235
					c4.225,7.398,6.457,15.821,6.457,24.36C657.632,121.782,657.423,121.992,657.164,121.992z M637.227,121.057h19.468
					c-0.08-8.126-2.22-16.129-6.2-23.193h-16.809C635.962,104.952,637.183,112.945,637.227,121.057z"/>
			</g>
			<g>
				<path class="st11" d="M633.042,97.396h17.727c-8.393-14.7-24.207-24.62-42.348-24.62
					C618.966,72.775,628.163,82.695,633.042,97.396z"/>
				<path d="M650.768,97.863h-17.727c-0.201,0-0.381-0.129-0.445-0.32c-4.973-14.988-14.238-24.3-24.176-24.3
					c-0.259,0-0.469-0.208-0.469-0.468c0-0.258,0.21-0.467,0.469-0.467c17.619,0,34.002,9.524,42.754,24.854
					c0.082,0.146,0.081,0.323-0.002,0.467C651.089,97.775,650.935,97.863,650.768,97.863z M633.38,96.928h16.575
					c-7.495-12.632-20.325-21.107-34.643-23.186C622.837,76.918,629.419,85.205,633.38,96.928z"/>
			</g>
			<g>
				<polygon class="st12" points="608.419,72.775 608.419,72.775 608.419,72.775 				"/>
				<path d="M608.444,73.243c-0.258,0-0.471-0.208-0.471-0.468c0-0.258,0.204-0.467,0.461-0.467h0.01
					c0.26,0,0.469,0.209,0.469,0.467C608.913,73.035,608.704,73.243,608.444,73.243z"/>
			</g>
			<g>
				<path class="st11" d="M608.421,170.271c18.141,0,33.955-9.92,42.348-24.621h-17.727
					C628.163,160.352,618.966,170.271,608.421,170.271z"/>
				<path d="M608.421,170.74c-0.259,0-0.469-0.209-0.469-0.469c0-0.258,0.21-0.467,0.469-0.467c9.938,0,19.203-9.313,24.176-24.301
					c0.064-0.191,0.244-0.32,0.445-0.32h17.727c0.166,0,0.32,0.088,0.404,0.233c0.083,0.144,0.084,0.322,0.002,0.467
					C642.423,161.215,626.04,170.74,608.421,170.74z M633.38,146.119c-3.961,11.723-10.543,20.011-18.068,23.188
					c14.318-2.08,27.148-10.555,34.643-23.188H633.38z"/>
			</g>
			<g>
				<path class="st11" d="M633.042,145.65h17.727c4.065-7.116,6.396-15.346,6.396-24.127h-20.403
					C636.761,130.305,635.405,138.534,633.042,145.65z"/>
				<path d="M650.768,146.119h-17.727c-0.15,0-0.291-0.072-0.379-0.194c-0.089-0.122-0.113-0.278-0.066-0.421
					c2.42-7.28,3.696-15.573,3.696-23.98c0-0.258,0.208-0.467,0.468-0.467h20.403c0.259,0,0.468,0.209,0.468,0.467
					c0,8.538-2.232,16.963-6.457,24.359C651.089,146.029,650.937,146.119,650.768,146.119z M633.687,145.184h16.809
					c3.98-7.064,6.12-15.066,6.2-23.191h-19.468C637.183,130.102,635.962,138.095,633.687,145.184z"/>
			</g>
			<g>
				<path class="st12" d="M580.074,121.523h-20.405c0,8.781,2.336,17.011,6.395,24.127h17.728
					C581.429,138.534,580.074,130.305,580.074,121.523z"/>
				<path d="M583.791,146.119h-17.728c-0.168,0-0.322-0.09-0.404-0.236c-4.225-7.402-6.459-15.826-6.459-24.359
					c0-0.258,0.211-0.467,0.469-0.467h20.405c0.259,0,0.468,0.209,0.468,0.467c0,8.406,1.276,16.697,3.691,23.98
					c0.049,0.143,0.023,0.299-0.063,0.421C584.083,146.047,583.94,146.119,583.791,146.119z M566.337,145.184h16.809
					c-2.273-7.09-3.494-15.084-3.539-23.191H560.14C560.22,130.111,562.356,138.114,566.337,145.184z"/>
			</g>
			<g>
				<path class="st11" d="M608.419,72.775L608.419,72.775c-18.143,0-33.959,9.918-42.355,24.62h17.728
					C588.671,82.695,597.868,72.775,608.419,72.775z"/>
				<path d="M583.791,97.863h-17.728c-0.165,0-0.319-0.088-0.403-0.233c-0.083-0.144-0.085-0.321-0.001-0.467
					c8.754-15.33,25.139-24.854,42.76-24.854c0.258,0,0.467,0.209,0.467,0.467c0,0.26-0.209,0.468-0.467,0.468
					c-9.943,0-19.207,9.312-24.185,24.3C584.171,97.734,583.993,97.863,583.791,97.863z M566.88,96.928h16.575
					c3.96-11.723,10.544-20.01,18.069-23.186C587.208,75.821,574.374,84.296,566.88,96.928z"/>
			</g>
			<g>
				<path class="st11" d="M583.791,145.65h-17.728c8.396,14.704,24.213,24.621,42.355,24.621l0,0
					C597.868,170.271,588.671,160.352,583.791,145.65z"/>
				<path d="M608.419,170.74c-17.621,0-34.008-9.525-42.76-24.857c-0.084-0.145-0.082-0.322,0.001-0.467
					c0.084-0.145,0.238-0.233,0.403-0.233h17.728c0.202,0,0.38,0.129,0.442,0.32c4.979,14.988,14.242,24.301,24.185,24.301
					c0.258,0,0.467,0.209,0.467,0.467C608.886,170.531,608.677,170.74,608.419,170.74z M566.878,146.119
					c7.496,12.633,20.33,21.107,34.646,23.188c-7.525-3.177-14.109-11.465-18.069-23.188H566.878z"/>
			</g>
			<g>
				<path class="st12" d="M583.791,97.396h-17.728c-4.059,7.117-6.395,15.347-6.395,24.128h20.405
					C580.074,112.742,581.429,104.513,583.791,97.396z"/>
				<path d="M580.074,121.992h-20.405c-0.258,0-0.469-0.21-0.469-0.469c0-8.533,2.234-16.957,6.459-24.359
					c0.082-0.146,0.236-0.236,0.404-0.236h17.728c0.149,0,0.292,0.072,0.38,0.194c0.086,0.122,0.111,0.278,0.063,0.421
					c-2.415,7.283-3.691,15.576-3.691,23.98C580.542,121.782,580.333,121.992,580.074,121.992z M560.14,121.057h19.467
					c0.045-8.109,1.266-16.104,3.539-23.193h-16.809C562.356,104.934,560.22,112.936,560.14,121.057z"/>
			</g>
			<g>
				<polygon class="st12" points="608.419,170.271 608.419,170.271 608.419,170.271 				"/>
				<path d="M608.444,170.74c-0.258,0-0.471-0.209-0.471-0.469c0-0.258,0.204-0.467,0.461-0.467h0.01
					c0.26,0,0.469,0.209,0.469,0.467C608.913,170.531,608.704,170.74,608.444,170.74z"/>
			</g>
			<g>
				<polygon class="st12" points="608.419,170.271 608.421,170.271 608.419,170.271 				"/>
				<path d="M608.421,170.74h-0.002c-0.262,0-0.471-0.209-0.471-0.469c0-0.258,0.209-0.467,0.471-0.467
					c0.258,0,0.467,0.209,0.467,0.467C608.886,170.531,608.679,170.74,608.421,170.74z"/>
			</g>
			<g>
				<polygon class="st12" points="608.419,72.775 608.419,72.775 608.421,72.775 				"/>
				<path d="M608.421,73.243h-0.002c-0.262,0-0.471-0.208-0.471-0.468c0-0.258,0.209-0.467,0.471-0.467
					c0.258,0,0.467,0.209,0.467,0.467C608.886,73.035,608.679,73.243,608.421,73.243z"/>
			</g>
			<g>
				<path class="st11" d="M636.761,121.523c0-8.781-1.355-17.011-3.719-24.128h-24.623v24.128H636.761z"/>
				<path d="M636.761,121.992h-28.342c-0.262,0-0.471-0.21-0.471-0.469V97.396c0-0.259,0.209-0.468,0.471-0.468h24.623
					c0.201,0,0.381,0.13,0.443,0.32c2.449,7.375,3.742,15.77,3.742,24.275C637.227,121.782,637.018,121.992,636.761,121.992z
					 M608.886,121.057h27.406c-0.047-8.125-1.285-16.126-3.59-23.193h-23.816V121.057z"/>
			</g>
			<g>
				<path class="st11" d="M608.419,145.65h24.623c2.363-7.116,3.719-15.346,3.719-24.127h-28.342V145.65z"/>
				<path d="M633.042,146.119h-24.623c-0.262,0-0.471-0.209-0.471-0.469v-24.127c0-0.258,0.209-0.467,0.471-0.467h28.342
					c0.258,0,0.467,0.209,0.467,0.467c0,8.507-1.293,16.9-3.742,24.275C633.423,145.99,633.243,146.119,633.042,146.119z
					 M608.886,145.184h23.816c2.305-7.068,3.543-15.068,3.59-23.191h-27.406V145.184z"/>
			</g>
			<g>
				<path class="st11" d="M608.419,72.775c-10.551,0-19.748,9.92-24.628,24.62h24.628V72.775z"/>
				<path d="M608.419,97.863h-24.628c-0.15,0-0.292-0.072-0.38-0.194c-0.088-0.122-0.111-0.279-0.064-0.421
					c5.109-15.384,14.715-24.939,25.072-24.939c0.258,0,0.467,0.209,0.467,0.467v24.62
					C608.886,97.654,608.677,97.863,608.419,97.863z M584.441,96.928h23.507V73.25C598.323,73.533,589.386,82.533,584.441,96.928z"
					/>
			</g>
			<g>
				<path class="st11" d="M608.419,97.396h-24.628c-2.362,7.117-3.717,15.347-3.717,24.128h28.345V97.396z"/>
				<path d="M608.419,121.992h-28.345c-0.259,0-0.47-0.21-0.47-0.469c0-8.504,1.295-16.898,3.742-24.275
					c0.064-0.19,0.242-0.32,0.444-0.32h24.628c0.258,0,0.467,0.209,0.467,0.468v24.128
					C608.886,121.782,608.677,121.992,608.419,121.992z M580.543,121.057h27.405V97.863H584.13
					C581.825,104.934,580.589,112.934,580.543,121.057z"/>
			</g>
			<g>
				<path class="st11" d="M608.419,121.523h-28.345c0,8.781,1.354,17.011,3.717,24.127h24.628V121.523z"/>
				<path d="M608.419,146.119h-24.628c-0.202,0-0.38-0.129-0.444-0.32c-2.447-7.377-3.742-15.771-3.742-24.275
					c0-0.258,0.211-0.467,0.47-0.467h28.345c0.258,0,0.467,0.209,0.467,0.467v24.127
					C608.886,145.91,608.677,146.119,608.419,146.119z M584.13,145.184h23.818v-23.191h-27.405
					C580.589,130.112,581.825,138.114,584.13,145.184z"/>
			</g>
			<g>
				<path class="st11" d="M633.042,145.65h-24.623v24.621l0,0h0.002C618.966,170.271,628.163,160.352,633.042,145.65z"/>
				<path d="M608.421,170.74h-0.002c-0.262,0-0.471-0.209-0.471-0.469V145.65c0-0.258,0.209-0.467,0.471-0.467h24.623
					c0.15,0,0.291,0.072,0.381,0.194c0.086,0.122,0.111,0.278,0.063,0.421C628.38,161.184,618.776,170.74,608.421,170.74z
					 M608.886,146.119v23.678c9.625-0.281,18.565-9.281,23.504-23.678H608.886z"/>
			</g>
			<g>
				<path class="st11" d="M608.419,97.396h24.623c-4.879-14.7-14.076-24.62-24.621-24.62h-0.002l0,0V97.396z"/>
				<path d="M633.042,97.863h-24.623c-0.262,0-0.471-0.209-0.471-0.468v-24.62c0-0.258,0.209-0.467,0.471-0.467
					c10.357,0,19.961,9.556,25.066,24.939c0.049,0.144,0.023,0.3-0.063,0.421C633.333,97.791,633.192,97.863,633.042,97.863z
					 M608.886,96.928h23.504c-4.941-14.396-13.879-23.396-23.504-23.678V96.928z"/>
			</g>
			<g>
				<path class="st11" d="M583.791,145.65c4.88,14.701,14.077,24.621,24.628,24.621V145.65H583.791z"/>
				<path d="M608.419,170.74c-10.357,0-19.965-9.557-25.072-24.941c-0.047-0.143-0.023-0.299,0.064-0.421
					c0.088-0.122,0.23-0.194,0.38-0.194h24.628c0.258,0,0.467,0.209,0.467,0.467v24.621
					C608.886,170.531,608.677,170.74,608.419,170.74z M584.441,146.119c4.944,14.396,13.882,23.395,23.507,23.678v-23.678H584.441z"
					/>
			</g>
		</g>
		<g>
			<g>
				<circle class="st3" cx="560.921" cy="129.621" r="41.113"/>
				<path d="M560.923,171.202c-22.93,0-41.582-18.653-41.582-41.581c0-22.928,18.652-41.58,41.582-41.58
					c22.927,0,41.58,18.652,41.58,41.58C602.503,152.549,583.85,171.202,560.923,171.202z M560.923,88.977
					c-22.413,0-40.646,18.233-40.646,40.644c0,22.411,18.233,40.645,40.646,40.645c22.41,0,40.643-18.233,40.643-40.645
					C601.565,107.21,583.333,88.977,560.923,88.977z"/>
			</g>
			<g>
				<path class="st13" d="M590.248,129.621c0-16.197-13.129-29.329-29.325-29.329c-16.201,0-29.332,13.132-29.332,29.329
					c0,16.197,13.131,29.33,29.332,29.33C577.119,158.951,590.248,145.818,590.248,129.621z"/>
				<path d="M560.923,159.419c-16.432,0-29.801-13.367-29.801-29.798c0-16.43,13.369-29.797,29.801-29.797
					c16.428,0,29.793,13.367,29.793,29.797C590.716,146.052,577.351,159.419,560.923,159.419z M560.923,100.76
					c-15.916,0-28.865,12.947-28.865,28.861c0,15.915,12.949,28.863,28.865,28.863c15.912,0,28.857-12.948,28.857-28.863
					C589.78,113.707,576.835,100.76,560.923,100.76z"/>
			</g>
			<g>
				<path class="st3" d="M578.948,129.622c0-9.957-8.07-18.028-18.025-18.028c-9.959,0-18.029,8.071-18.029,18.028
					c0,9.958,8.07,18.028,18.029,18.028C570.878,147.65,578.948,139.58,578.948,129.622z"/>
				<path d="M560.923,148.117c-10.201,0-18.498-8.296-18.498-18.495s8.297-18.497,18.498-18.497
					c10.197,0,18.494,8.298,18.494,18.497S571.12,148.117,560.923,148.117z M560.923,112.061c-9.684,0-17.563,7.879-17.563,17.562
					s7.879,17.561,17.563,17.561c9.68,0,17.559-7.878,17.559-17.561S570.602,112.061,560.923,112.061z"/>
			</g>
			<g>
				<path class="st13" d="M568.79,129.62c0-4.345-3.525-7.867-7.867-7.867c-4.35,0-7.869,3.522-7.869,7.867
					c0,4.348,3.519,7.872,7.869,7.872C565.265,137.492,568.79,133.968,568.79,129.62z"/>
				<path d="M560.923,137.96c-4.598,0-8.336-3.742-8.336-8.34c0-4.597,3.738-8.335,8.336-8.335c4.596,0,8.336,3.738,8.336,8.335
					C569.259,134.218,565.518,137.96,560.923,137.96z M560.923,122.221c-4.08,0-7.4,3.318-7.4,7.399c0,4.082,3.32,7.405,7.4,7.405
					c4.08,0,7.4-3.323,7.4-7.405C568.323,125.539,565.003,122.221,560.923,122.221z"/>
			</g>
			<g>
				<line class="st13" x1="560.923" y1="129.621" x2="504.119" y2="72.623"/>
				<path class="st13" d="M560.923,130.089c-0.121,0-0.24-0.046-0.332-0.138l-56.803-56.996c-0.182-0.184-0.182-0.48,0.002-0.663
					c0.184-0.183,0.477-0.183,0.66,0.001l56.805,56.998c0.18,0.184,0.18,0.479-0.002,0.661
					C561.161,130.043,561.04,130.089,560.923,130.089z"/>
			</g>
			<g>
				<polygon class="st11" points="511.867,85.85 495.507,74.301 504.119,72.623 505.8,64.011 517.071,80.748 516.868,85.371 				"/>
				<path d="M511.867,86.318c-0.097,0-0.19-0.03-0.27-0.086l-16.359-11.55c-0.152-0.108-0.227-0.297-0.188-0.481
					c0.039-0.182,0.185-0.324,0.369-0.359l8.303-1.617l1.619-8.303c0.037-0.187,0.182-0.332,0.368-0.37
					c0.183-0.036,0.374,0.04,0.479,0.197l11.274,16.737c0.055,0.084,0.082,0.182,0.078,0.283l-0.201,4.623
					c-0.014,0.233-0.192,0.423-0.426,0.445l-5.002,0.478C511.897,86.316,511.882,86.318,511.867,86.318z M496.673,74.551
					l15.323,10.816l4.425-0.422l0.178-4.063l-10.555-15.674l-1.465,7.505c-0.037,0.187-0.184,0.333-0.37,0.368L496.673,74.551z"/>
			</g>
			<g>
				<line class="st13" x1="562.534" y1="128.01" x2="559.312" y2="131.233"/>
				<path d="M559.312,131.701c-0.121,0-0.24-0.045-0.332-0.137c-0.182-0.184-0.182-0.479,0-0.662l3.223-3.223
					c0.183-0.184,0.479-0.184,0.662,0c0.182,0.182,0.182,0.478,0,0.66l-3.223,3.225C559.55,131.656,559.431,131.701,559.312,131.701
					z"/>
			</g>
		</g>
	</g>
</g>
</svg>