<?xml version="1.0" encoding="utf-8"?>
<!-- Generator: Adobe Illustrator 17.0.0, SVG Export Plug-In . SVG Version: 6.00 Build 0)  -->
<!DOCTYPE svg PUBLIC "-//W3C//DTD SVG 1.1//EN" "http://www.w3.org/Graphics/SVG/1.1/DTD/svg11.dtd" [
	<!ENTITY ns_extend "http://ns.adobe.com/Extensibility/1.0/">
	<!ENTITY ns_ai "http://ns.adobe.com/AdobeIllustrator/10.0/">
	<!ENTITY ns_graphs "http://ns.adobe.com/Graphs/1.0/">
	<!ENTITY ns_vars "http://ns.adobe.com/Variables/1.0/">
	<!ENTITY ns_imrep "http://ns.adobe.com/ImageReplacement/1.0/">
	<!ENTITY ns_sfw "http://ns.adobe.com/SaveForWeb/1.0/">
	<!ENTITY ns_custom "http://ns.adobe.com/GenericCustomNamespace/1.0/">
	<!ENTITY ns_adobe_xpath "http://ns.adobe.com/XPath/1.0/">
]>
<svg version="1.1" id="Capa_1" xmlns:x="&ns_extend;" xmlns:i="&ns_ai;" xmlns:graph="&ns_graphs;"
	 xmlns="http://www.w3.org/2000/svg" xmlns:xlink="http://www.w3.org/1999/xlink" x="0px" y="0px" width="888.301px"
	 height="504.951px" viewBox="0 0 888.301 504.951" enable-background="new 0 0 888.301 504.951" xml:space="preserve">
<metadata>
	<sfw  xmlns="&ns_sfw;">
		<slices></slices>
		<sliceSourceBounds  width="888.301" height="504.951" x="-144.651" y="-91.976" bottomLeftOrigin="true"></sliceSourceBounds>
	</sfw>
</metadata>
<line fill="none" stroke="#E54F26" stroke-miterlimit="10" x1="13.217" y1="34.56" x2="873.801" y2="34.56"/>
<g>
	<g>
		<path fill="#FFFFFF" d="M225.732,18.201V0.306h5.408l3.246,12.207l3.211-12.207h5.42v17.896h-3.357V4.114l-3.551,14.087h-3.48
			L229.09,4.114v14.087H225.732z"/>
		<path fill="#FFFFFF" d="M245.873,9.363c0-1.823,0.273-3.353,0.818-4.59c0.408-0.911,0.963-1.729,1.666-2.453
			c0.705-0.725,1.477-1.262,2.314-1.611c1.115-0.473,2.4-0.709,3.857-0.709c2.637,0,4.746,0.818,6.328,2.454
			c1.584,1.636,2.375,3.91,2.375,6.823c0,2.89-0.785,5.15-2.355,6.781c-1.57,1.632-3.67,2.447-6.299,2.447
			c-2.662,0-4.777-0.812-6.348-2.435C246.66,14.447,245.873,12.212,245.873,9.363z M249.598,9.241c0,2.026,0.467,3.563,1.402,4.608
			c0.938,1.046,2.125,1.568,3.564,1.568c1.441,0,2.623-0.519,3.547-1.557c0.924-1.037,1.385-2.594,1.385-4.669
			c0-2.051-0.449-3.581-1.348-4.59c-0.9-1.009-2.094-1.514-3.584-1.514c-1.488,0-2.689,0.511-3.6,1.532
			C250.053,5.643,249.598,7.183,249.598,9.241z"/>
		<path fill="#FFFFFF" d="M266.039,0.306h6.604c1.49,0,2.625,0.114,3.406,0.342c1.051,0.31,1.949,0.858,2.697,1.647
			c0.75,0.79,1.318,1.757,1.709,2.899c0.391,1.144,0.586,2.554,0.586,4.229c0,1.474-0.182,2.743-0.549,3.809
			c-0.447,1.303-1.086,2.356-1.916,3.162c-0.627,0.61-1.473,1.086-2.539,1.428c-0.797,0.253-1.863,0.379-3.199,0.379h-6.799V0.306z
			 M269.652,3.333v11.853h2.697c1.01,0,1.738-0.057,2.186-0.17c0.586-0.146,1.072-0.396,1.459-0.745s0.701-0.926,0.945-1.728
			c0.244-0.801,0.367-1.894,0.367-3.277s-0.123-2.445-0.367-3.186c-0.244-0.741-0.586-1.318-1.025-1.734
			c-0.439-0.414-0.996-0.695-1.672-0.842c-0.504-0.114-1.492-0.171-2.967-0.171C271.275,3.333,269.652,3.333,269.652,3.333z"/>
		<path fill="#FFFFFF" d="M284.105,18.201V0.306h13.27v3.027h-9.656v3.968h8.984v3.015h-8.984v4.87h9.998v3.016L284.105,18.201
			L284.105,18.201z"/>
		<path fill="#FFFFFF" d="M300.879,18.201V0.452h3.613v14.733h8.984v3.016H300.879z"/>
		<path fill="#FFFFFF" d="M315.318,9.363c0-1.823,0.273-3.353,0.818-4.59c0.408-0.911,0.963-1.729,1.666-2.453
			c0.705-0.725,1.477-1.262,2.314-1.611c1.115-0.473,2.4-0.709,3.857-0.709c2.637,0,4.746,0.818,6.328,2.454
			c1.584,1.636,2.375,3.91,2.375,6.823c0,2.89-0.785,5.15-2.355,6.781c-1.57,1.632-3.67,2.447-6.299,2.447
			c-2.662,0-4.777-0.812-6.348-2.435C316.105,14.447,315.318,12.212,315.318,9.363z M319.043,9.241c0,2.026,0.467,3.563,1.402,4.608
			c0.938,1.046,2.125,1.568,3.564,1.568c1.441,0,2.623-0.519,3.547-1.557c0.924-1.037,1.385-2.594,1.385-4.669
			c0-2.051-0.449-3.581-1.348-4.59c-0.9-1.009-2.094-1.514-3.584-1.514c-1.488,0-2.689,0.511-3.6,1.532
			C319.498,5.643,319.043,7.183,319.043,9.241z"/>
		<path fill="#FFFFFF" d="M342.43,0.306h6.604c1.49,0,2.625,0.114,3.406,0.342c1.051,0.31,1.949,0.858,2.697,1.647
			c0.75,0.79,1.318,1.757,1.709,2.899c0.391,1.144,0.586,2.554,0.586,4.229c0,1.474-0.182,2.743-0.549,3.809
			c-0.447,1.303-1.086,2.356-1.916,3.162c-0.627,0.61-1.473,1.086-2.539,1.428c-0.797,0.253-1.863,0.379-3.199,0.379h-6.799V0.306z
			 M346.043,3.333v11.853h2.697c1.01,0,1.738-0.057,2.186-0.17c0.586-0.146,1.072-0.396,1.459-0.745s0.701-0.926,0.945-1.728
			c0.244-0.801,0.367-1.894,0.367-3.277s-0.123-2.445-0.367-3.186c-0.244-0.741-0.586-1.318-1.025-1.734
			c-0.439-0.414-0.996-0.695-1.672-0.842c-0.504-0.114-1.492-0.171-2.967-0.171C347.666,3.333,346.043,3.333,346.043,3.333z"/>
		<path fill="#FFFFFF" d="M360.496,18.201V0.306h13.27v3.027h-9.656v3.968h8.984v3.015h-8.984v4.87h9.998v3.016L360.496,18.201
			L360.496,18.201z"/>
		<path fill="#FFFFFF" d="M384.215,18.201V0.452h3.613v14.733h8.984v3.016H384.215z"/>
		<path fill="#FFFFFF" d="M415.527,18.201h-3.932l-1.563-4.064h-7.152l-1.477,4.064h-3.834l6.971-17.896h3.82L415.527,18.201z
			 M408.875,11.121l-2.467-6.641l-2.416,6.641H408.875z"/>
		<path fill="#FFFFFF" d="M434.912,11.621l3.504,1.111c-0.537,1.953-1.432,3.404-2.68,4.352c-1.25,0.948-2.834,1.422-4.756,1.422
			c-2.375,0-4.328-0.812-5.859-2.435c-1.529-1.624-2.295-3.844-2.295-6.659c0-2.979,0.77-5.292,2.309-6.939
			C426.672,0.824,428.695,0,431.201,0c2.189,0,3.967,0.647,5.334,1.941c0.814,0.765,1.424,1.863,1.832,3.296l-3.578,0.854
			c-0.211-0.928-0.652-1.66-1.324-2.197c-0.67-0.537-1.486-0.806-2.447-0.806c-1.326,0-2.402,0.476-3.229,1.429
			c-0.826,0.951-1.238,2.494-1.238,4.626c0,2.263,0.406,3.874,1.221,4.834c0.813,0.96,1.871,1.44,3.174,1.44
			c0.959,0,1.785-0.305,2.477-0.916C434.115,13.893,434.611,12.932,434.912,11.621z"/>
		<path fill="#FFFFFF" d="M457.654,18.201h-3.932l-1.563-4.064h-7.152l-1.477,4.064h-3.834l6.971-17.896h3.82L457.654,18.201z
			 M451.002,11.121l-2.467-6.641l-2.416,6.641H451.002z"/>
		<path fill="#FFFFFF" d="M466.029,0.306h3.6v11.328c0,1.481-0.129,2.62-0.391,3.418c-0.35,1.042-0.984,1.878-1.904,2.509
			c-0.918,0.631-2.131,0.945-3.637,0.945c-1.766,0-3.125-0.494-4.078-1.482c-0.951-0.989-1.432-2.439-1.439-4.352l3.406-0.391
			c0.041,1.025,0.191,1.749,0.451,2.172c0.391,0.644,0.984,0.965,1.781,0.965c0.807,0,1.377-0.229,1.709-0.689
			c0.334-0.46,0.502-1.414,0.502-2.863L466.029,0.306L466.029,0.306z"/>
		<path fill="#FFFFFF" d="M489.613,18.201h-3.932l-1.563-4.064h-7.152l-1.477,4.064h-3.834l6.971-17.896h3.82L489.613,18.201z
			 M482.961,11.121l-2.467-6.641l-2.416,6.641H482.961z"/>
		<path fill="#E54F26" d="M503.211,23.463h-2.355c-1.244-1.881-2.193-3.834-2.844-5.859c-0.65-2.027-0.977-3.988-0.977-5.885
			c0-2.352,0.402-4.577,1.209-6.677c0.699-1.823,1.586-3.503,2.66-5.042h2.344c-1.115,2.467-1.881,4.564-2.301,6.293
			c-0.42,1.729-0.629,3.563-0.629,5.5c0,1.334,0.125,2.701,0.373,4.102c0.248,1.399,0.588,2.729,1.02,3.991
			C501.996,20.716,502.496,21.908,503.211,23.463z"/>
		<path fill="#E54F26" d="M505.885,0.306h7.154c1.416,0,2.471,0.06,3.168,0.177c0.695,0.118,1.318,0.364,1.867,0.738
			c0.549,0.375,1.008,0.873,1.373,1.496c0.367,0.622,0.549,1.32,0.549,2.094c0,0.838-0.225,1.606-0.678,2.307
			c-0.451,0.7-1.063,1.225-1.836,1.574c1.09,0.318,1.928,0.859,2.514,1.624s0.879,1.664,0.879,2.698
			c0,0.813-0.189,1.604-0.566,2.374c-0.379,0.769-0.896,1.384-1.551,1.843c-0.656,0.46-1.463,0.743-2.424,0.849
			c-0.602,0.065-2.055,0.105-4.357,0.122h-6.092L505.885,0.306L505.885,0.306z M509.498,3.284v4.138h2.369
			c1.408,0,2.283-0.02,2.625-0.061c0.617-0.073,1.104-0.287,1.457-0.641c0.355-0.354,0.531-0.82,0.531-1.398
			c0-0.553-0.152-1.002-0.457-1.349c-0.305-0.346-0.76-0.556-1.361-0.628c-0.357-0.041-1.387-0.062-3.088-0.062L509.498,3.284
			L509.498,3.284z M509.498,10.4v4.785h3.346c1.301,0,2.127-0.036,2.479-0.109c0.537-0.098,0.973-0.336,1.311-0.714
			c0.338-0.379,0.508-0.886,0.508-1.521c0-0.537-0.131-0.992-0.391-1.367c-0.262-0.374-0.637-0.646-1.129-0.817
			c-0.494-0.171-1.561-0.257-3.205-0.257H509.498z"/>
		<path fill="#E54F26" d="M523.193,9.363c0-1.823,0.273-3.353,0.818-4.59c0.408-0.911,0.963-1.729,1.666-2.453
			c0.705-0.725,1.477-1.262,2.314-1.611C529.107,0.236,530.393,0,531.85,0c2.637,0,4.746,0.818,6.328,2.454
			c1.584,1.636,2.375,3.91,2.375,6.823c0,2.89-0.785,5.15-2.355,6.781c-1.57,1.632-3.67,2.447-6.299,2.447
			c-2.662,0-4.777-0.812-6.348-2.435C523.98,14.447,523.193,12.212,523.193,9.363z M526.918,9.241c0,2.026,0.467,3.563,1.402,4.608
			c0.938,1.046,2.125,1.568,3.564,1.568c1.441,0,2.623-0.519,3.547-1.557c0.924-1.037,1.385-2.594,1.385-4.669
			c0-2.051-0.449-3.581-1.348-4.59c-0.9-1.009-2.094-1.514-3.584-1.514c-1.488,0-2.689,0.511-3.6,1.532
			C527.373,5.643,526.918,7.183,526.918,9.241z"/>
		<path fill="#E54F26" d="M541.553,18.201l6.115-9.338l-5.541-8.558h4.223l3.59,5.749l3.516-5.749h4.188l-5.566,8.691l6.115,9.204
			h-4.357l-3.969-6.189l-3.979,6.189L541.553,18.201L541.553,18.201z"/>
		<path fill="#E54F26" d="M566.943,18.201V0.306h5.408l3.248,12.207l3.209-12.207h5.42v17.896h-3.355V4.114l-3.553,14.087h-3.479
			L570.3,4.114v14.087H566.943z"/>
		<path fill="#E54F26" d="M587.086,9.363c0-1.823,0.273-3.353,0.818-4.59c0.406-0.911,0.961-1.729,1.666-2.453
			c0.703-0.725,1.475-1.262,2.313-1.611C592.998,0.236,594.283,0,595.74,0c2.637,0,4.746,0.818,6.33,2.454
			c1.582,1.636,2.375,3.91,2.375,6.823c0,2.89-0.787,5.15-2.357,6.781c-1.57,1.632-3.67,2.447-6.299,2.447
			c-2.66,0-4.777-0.812-6.348-2.435C587.871,14.447,587.086,12.212,587.086,9.363z M590.809,9.241c0,2.026,0.469,3.563,1.404,4.608
			s2.125,1.568,3.564,1.568c1.441,0,2.623-0.519,3.547-1.557c0.922-1.037,1.385-2.594,1.385-4.669c0-2.051-0.449-3.581-1.35-4.59
			c-0.898-1.009-2.092-1.514-3.582-1.514c-1.488,0-2.689,0.511-3.602,1.532C591.266,5.643,590.809,7.183,590.809,9.241z"/>
		<path fill="#E54F26" d="M607.252,0.306h6.604c1.49,0,2.625,0.114,3.406,0.342c1.051,0.31,1.949,0.858,2.697,1.647
			c0.75,0.79,1.318,1.757,1.709,2.899c0.391,1.144,0.586,2.554,0.586,4.229c0,1.474-0.182,2.743-0.549,3.809
			c-0.447,1.303-1.086,2.356-1.916,3.162c-0.627,0.61-1.473,1.086-2.539,1.428c-0.797,0.253-1.863,0.379-3.199,0.379h-6.799V0.306z
			 M610.865,3.333v11.853h2.697c1.01,0,1.738-0.057,2.186-0.17c0.586-0.146,1.072-0.396,1.459-0.745s0.701-0.926,0.945-1.728
			c0.244-0.801,0.367-1.894,0.367-3.277s-0.123-2.445-0.367-3.186s-0.586-1.318-1.025-1.734c-0.439-0.414-0.996-0.695-1.672-0.842
			c-0.504-0.114-1.492-0.171-2.967-0.171C612.488,3.333,610.865,3.333,610.865,3.333z"/>
		<path fill="#E54F26" d="M625.318,18.201V0.306h13.27v3.027h-9.656v3.968h8.984v3.015h-8.984v4.87h9.998v3.016L625.318,18.201
			L625.318,18.201z"/>
		<path fill="#E54F26" d="M642.092,18.201V0.452h3.613v14.733h8.984v3.016H642.092z"/>
		<path fill="#E54F26" d="M656.287,23.463c0.676-1.449,1.152-2.56,1.43-3.333c0.275-0.773,0.533-1.664,0.768-2.673
			c0.236-1.01,0.412-1.968,0.525-2.875c0.115-0.907,0.172-1.838,0.172-2.789c0-1.938-0.209-3.771-0.623-5.5
			c-0.416-1.729-1.18-3.826-2.295-6.293h2.332c1.229,1.75,2.182,3.605,2.861,5.566c0.68,1.962,1.02,3.951,1.02,5.97
			c0,1.701-0.268,3.523-0.805,5.469c-0.611,2.181-1.615,4.333-3.016,6.458H656.287z"/>
	</g>
</g>
<g>
	
		<rect x="1.5" y="76.902" fill="#FFFFFF" stroke="#000000" stroke-width="3" stroke-miterlimit="10" width="885.301" height="426.549"/>
	<g>
		<path fill="#E54F26" d="M24.59,131.94v-22.35h16.572v3.781h-12.06v4.955h11.221v3.766h-11.22v6.083h12.486v3.766L24.59,131.94
			L24.59,131.94z"/>
		<path fill="#E54F26" d="M49.578,115.749v15.688c0,2.063-0.135,3.519-0.404,4.368c-0.269,0.848-0.787,1.512-1.555,1.989
			s-1.746,0.717-2.935,0.717c-0.427,0-0.887-0.038-1.38-0.114c-0.493-0.077-1.023-0.191-1.593-0.344l0.746-3.659
			c0.204,0.041,0.395,0.074,0.572,0.1s0.343,0.038,0.495,0.038c0.438,0,0.796-0.094,1.075-0.282s0.465-0.414,0.557-0.679
			c0.091-0.264,0.137-1.057,0.137-2.378v-15.444C45.293,115.749,49.578,115.749,49.578,115.749z M45.294,113.554v-3.964h4.284v3.964
			H45.294z"/>
		<path fill="#E54F26" d="M63.437,126.787l4.269,0.717c-0.549,1.565-1.415,2.757-2.599,3.575c-1.185,0.818-2.666,1.228-4.444,1.228
			c-2.815,0-4.899-0.92-6.251-2.76c-1.067-1.474-1.601-3.334-1.601-5.58c0-2.684,0.701-4.784,2.104-6.304s3.177-2.279,5.321-2.279
			c2.408,0,4.309,0.795,5.701,2.386s2.059,4.027,1.998,7.311H57.201c0.03,1.271,0.376,2.259,1.037,2.965
			c0.66,0.707,1.483,1.06,2.47,1.06c0.671,0,1.234-0.183,1.691-0.549C62.857,128.19,63.203,127.601,63.437,126.787z M63.681,122.458
			c-0.03-1.24-0.351-2.183-0.961-2.828c-0.609-0.646-1.352-0.969-2.226-0.969c-0.936,0-1.707,0.341-2.317,1.021
			c-0.609,0.682-0.91,1.606-0.899,2.775L63.681,122.458L63.681,122.458z"/>
		<path fill="#E54F26" d="M71.105,115.749h3.948v2.211c1.413-1.718,3.096-2.576,5.047-2.576c1.037,0,1.937,0.213,2.698,0.64
			c0.763,0.428,1.388,1.073,1.875,1.937c0.712-0.863,1.479-1.509,2.303-1.937c0.823-0.427,1.702-0.64,2.638-0.64
			c1.188,0,2.195,0.241,3.019,0.724c0.823,0.483,1.438,1.192,1.845,2.127c0.294,0.691,0.441,1.81,0.441,3.354v10.352h-4.283v-9.254
			c0-1.606-0.147-2.643-0.442-3.11c-0.396-0.61-1.006-0.915-1.83-0.915c-0.6,0-1.163,0.184-1.691,0.549
			c-0.529,0.366-0.91,0.902-1.144,1.608c-0.234,0.707-0.351,1.822-0.351,3.347v7.775h-4.284v-8.873c0-1.575-0.076-2.592-0.229-3.049
			c-0.153-0.458-0.39-0.798-0.709-1.021c-0.32-0.224-0.755-0.336-1.304-0.336c-0.661,0-1.256,0.178-1.784,0.534
			c-0.528,0.355-0.907,0.869-1.136,1.539c-0.229,0.671-0.343,1.784-0.343,3.339v7.867h-4.284
			C71.105,131.941,71.105,115.749,71.105,115.749z"/>
		<path fill="#E54F26" d="M99.066,115.749h3.994v2.379c0.519-0.813,1.22-1.474,2.104-1.982c0.884-0.508,1.864-0.762,2.942-0.762
			c1.88,0,3.476,0.736,4.787,2.21c1.311,1.475,1.967,3.527,1.967,6.16c0,2.703-0.661,4.805-1.982,6.304s-2.922,2.249-4.802,2.249
			c-0.895,0-1.706-0.179-2.433-0.534s-1.491-0.965-2.294-1.829v8.156h-4.284L99.066,115.749L99.066,115.749z M103.305,123.57
			c0,1.819,0.36,3.164,1.082,4.032c0.722,0.869,1.602,1.304,2.638,1.304c0.996,0,1.824-0.398,2.485-1.196
			c0.66-0.798,0.991-2.106,0.991-3.926c0-1.697-0.341-2.958-1.021-3.781c-0.682-0.823-1.524-1.234-2.531-1.234
			c-1.047,0-1.916,0.403-2.606,1.212C103.65,120.788,103.305,121.985,103.305,123.57z"/>
		<path fill="#E54F26" d="M118.261,131.94v-22.35h4.284v22.351L118.261,131.94L118.261,131.94z"/>
		<path fill="#E54F26" d="M125.944,123.616c0-1.423,0.351-2.8,1.052-4.132c0.701-1.331,1.695-2.348,2.98-3.049
			c1.286-0.701,2.722-1.052,4.308-1.052c2.449,0,4.456,0.795,6.021,2.386s2.349,3.601,2.349,6.029c0,2.45-0.791,4.48-2.371,6.091
			c-1.581,1.611-3.57,2.417-5.969,2.417c-1.484,0-2.899-0.336-4.246-1.007s-2.371-1.654-3.072-2.95S125.944,125.477,125.944,123.616
			z M130.335,123.845c0,1.606,0.382,2.836,1.144,3.689c0.763,0.854,1.702,1.281,2.82,1.281s2.056-0.428,2.813-1.281
			c0.757-0.854,1.136-2.094,1.136-3.72c0-1.586-0.379-2.806-1.136-3.659c-0.758-0.854-1.695-1.28-2.813-1.28s-2.058,0.427-2.82,1.28
			C130.717,121.009,130.335,122.239,130.335,123.845z"/>
		<path fill="#E54F26" d="M169.532,131.94h-3.979v-2.378c-0.661,0.925-1.44,1.613-2.34,2.065s-1.807,0.679-2.722,0.679
			c-1.86,0-3.453-0.75-4.779-2.249c-1.327-1.499-1.99-3.591-1.99-6.273c0-2.744,0.646-4.83,1.937-6.259
			c1.291-1.428,2.922-2.142,4.894-2.142c1.81,0,3.375,0.752,4.696,2.256v-8.05h4.284L169.532,131.94L169.532,131.94z
			 M158.098,123.494c0,1.729,0.238,2.979,0.717,3.751c0.69,1.118,1.656,1.677,2.896,1.677c0.985,0,1.824-0.419,2.516-1.258
			c0.69-0.839,1.036-2.091,1.036-3.758c0-1.86-0.335-3.199-1.006-4.018s-1.529-1.228-2.576-1.228c-1.017,0-1.868,0.404-2.554,1.212
			C158.44,120.682,158.098,121.889,158.098,123.494z"/>
		<path fill="#E54F26" d="M183.131,126.787l4.269,0.717c-0.549,1.565-1.415,2.757-2.599,3.575c-1.185,0.818-2.666,1.228-4.444,1.228
			c-2.815,0-4.899-0.92-6.251-2.76c-1.067-1.474-1.601-3.334-1.601-5.58c0-2.684,0.701-4.784,2.104-6.304s3.177-2.279,5.321-2.279
			c2.408,0,4.309,0.795,5.701,2.386s2.059,4.027,1.998,7.311h-10.733c0.03,1.271,0.376,2.259,1.037,2.965
			c0.66,0.707,1.483,1.06,2.47,1.06c0.671,0,1.234-0.183,1.691-0.549C182.552,128.19,182.897,127.601,183.131,126.787z
			 M183.375,122.458c-0.03-1.24-0.351-2.183-0.961-2.828c-0.609-0.646-1.352-0.969-2.226-0.969c-0.936,0-1.707,0.341-2.317,1.021
			c-0.609,0.682-0.91,1.606-0.899,2.775L183.375,122.458L183.375,122.458z"/>
		<path fill="#E54F26" d="M199.475,115.749h3.948v2.211c1.413-1.718,3.096-2.576,5.047-2.576c1.037,0,1.937,0.213,2.698,0.64
			c0.763,0.428,1.388,1.073,1.875,1.937c0.712-0.863,1.479-1.509,2.303-1.937c0.823-0.427,1.702-0.64,2.638-0.64
			c1.188,0,2.195,0.241,3.019,0.724c0.823,0.483,1.438,1.192,1.845,2.127c0.294,0.691,0.441,1.81,0.441,3.354v10.352h-4.283v-9.254
			c0-1.606-0.147-2.643-0.442-3.11c-0.396-0.61-1.006-0.915-1.83-0.915c-0.6,0-1.163,0.184-1.691,0.549
			c-0.529,0.366-0.91,0.902-1.144,1.608c-0.234,0.707-0.351,1.822-0.351,3.347v7.775h-4.284v-8.873c0-1.575-0.076-2.592-0.229-3.049
			c-0.153-0.458-0.39-0.798-0.709-1.021c-0.32-0.224-0.755-0.336-1.304-0.336c-0.661,0-1.256,0.178-1.784,0.534
			c-0.528,0.355-0.907,0.869-1.136,1.539c-0.229,0.671-0.343,1.784-0.343,3.339v7.867h-4.284L199.475,115.749L199.475,115.749z"/>
		<path fill="#E54F26" d="M226.566,123.616c0-1.423,0.351-2.8,1.052-4.132c0.701-1.331,1.695-2.348,2.98-3.049
			c1.286-0.701,2.722-1.052,4.308-1.052c2.449,0,4.456,0.795,6.021,2.386s2.349,3.601,2.349,6.029c0,2.45-0.791,4.48-2.371,6.091
			c-1.581,1.611-3.57,2.417-5.969,2.417c-1.484,0-2.899-0.336-4.246-1.007s-2.371-1.654-3.072-2.95S226.566,125.477,226.566,123.616
			z M230.957,123.845c0,1.606,0.382,2.836,1.144,3.689c0.763,0.854,1.702,1.281,2.82,1.281s2.056-0.428,2.813-1.281
			c0.757-0.854,1.136-2.094,1.136-3.72c0-1.586-0.379-2.806-1.136-3.659c-0.758-0.854-1.695-1.28-2.813-1.28s-2.058,0.427-2.82,1.28
			C231.339,121.009,230.957,122.239,230.957,123.845z"/>
		<path fill="#E54F26" d="M261.479,131.94H257.5v-2.378c-0.661,0.925-1.44,1.613-2.34,2.065s-1.807,0.679-2.722,0.679
			c-1.86,0-3.453-0.75-4.779-2.249c-1.327-1.499-1.99-3.591-1.99-6.273c0-2.744,0.646-4.83,1.937-6.259
			c1.291-1.428,2.922-2.142,4.894-2.142c1.81,0,3.375,0.752,4.696,2.256v-8.05h4.284L261.479,131.94L261.479,131.94z
			 M250.045,123.494c0,1.729,0.238,2.979,0.717,3.751c0.69,1.118,1.656,1.677,2.896,1.677c0.985,0,1.824-0.419,2.516-1.258
			c0.69-0.839,1.036-2.091,1.036-3.758c0-1.86-0.335-3.199-1.006-4.018s-1.529-1.228-2.576-1.228c-1.017,0-1.868,0.404-2.554,1.212
			C250.388,120.682,250.045,121.889,250.045,123.494z"/>
		<path fill="#E54F26" d="M275.078,126.787l4.269,0.717c-0.549,1.565-1.415,2.757-2.599,3.575c-1.185,0.818-2.666,1.228-4.444,1.228
			c-2.815,0-4.899-0.92-6.251-2.76c-1.067-1.474-1.601-3.334-1.601-5.58c0-2.684,0.701-4.784,2.104-6.304s3.177-2.279,5.321-2.279
			c2.408,0,4.309,0.795,5.701,2.386s2.059,4.027,1.998,7.311h-10.733c0.03,1.271,0.376,2.259,1.037,2.965
			c0.66,0.707,1.483,1.06,2.47,1.06c0.671,0,1.234-0.183,1.691-0.549C274.499,128.19,274.845,127.601,275.078,126.787z
			 M275.322,122.458c-0.03-1.24-0.351-2.183-0.961-2.828c-0.609-0.646-1.352-0.969-2.226-0.969c-0.936,0-1.707,0.341-2.317,1.021
			c-0.609,0.682-0.91,1.606-0.899,2.775L275.322,122.458L275.322,122.458z"/>
		<path fill="#E54F26" d="M283.067,131.94v-22.35h4.284v22.351L283.067,131.94L283.067,131.94z"/>
		<path fill="#E54F26" d="M290.751,123.616c0-1.423,0.351-2.8,1.052-4.132c0.701-1.331,1.695-2.348,2.98-3.049
			c1.286-0.701,2.722-1.052,4.308-1.052c2.449,0,4.456,0.795,6.021,2.386s2.349,3.601,2.349,6.029c0,2.45-0.791,4.48-2.371,6.091
			c-1.581,1.611-3.57,2.417-5.969,2.417c-1.484,0-2.899-0.336-4.246-1.007s-2.371-1.654-3.072-2.95S290.751,125.477,290.751,123.616
			z M295.142,123.845c0,1.606,0.382,2.836,1.144,3.689c0.763,0.854,1.702,1.281,2.82,1.281s2.056-0.428,2.813-1.281
			c0.757-0.854,1.136-2.094,1.136-3.72c0-1.586-0.379-2.806-1.136-3.659c-0.758-0.854-1.695-1.28-2.813-1.28s-2.058,0.427-2.82,1.28
			C295.523,121.009,295.142,122.239,295.142,123.845z"/>
		<path fill="#E54F26" d="M334.339,131.94h-3.979v-2.378c-0.661,0.925-1.44,1.613-2.34,2.065s-1.807,0.679-2.722,0.679
			c-1.86,0-3.453-0.75-4.779-2.249c-1.327-1.499-1.99-3.591-1.99-6.273c0-2.744,0.646-4.83,1.937-6.259
			c1.291-1.428,2.922-2.142,4.894-2.142c1.81,0,3.375,0.752,4.696,2.256v-8.05h4.284v22.351H334.339z M322.904,123.494
			c0,1.729,0.238,2.979,0.717,3.751c0.69,1.118,1.656,1.677,2.896,1.677c0.985,0,1.824-0.419,2.516-1.258
			c0.69-0.839,1.036-2.091,1.036-3.758c0-1.86-0.335-3.199-1.006-4.018s-1.529-1.228-2.576-1.228c-1.017,0-1.868,0.404-2.554,1.212
			C323.247,120.682,322.904,121.889,322.904,123.494z"/>
		<path fill="#E54F26" d="M347.938,126.787l4.269,0.717c-0.549,1.565-1.415,2.757-2.599,3.575c-1.185,0.818-2.666,1.228-4.444,1.228
			c-2.815,0-4.899-0.92-6.251-2.76c-1.067-1.474-1.601-3.334-1.601-5.58c0-2.684,0.701-4.784,2.104-6.304s3.177-2.279,5.321-2.279
			c2.408,0,4.309,0.795,5.701,2.386s2.059,4.027,1.998,7.311h-10.733c0.03,1.271,0.376,2.259,1.037,2.965
			c0.66,0.707,1.483,1.06,2.47,1.06c0.671,0,1.234-0.183,1.691-0.549C347.358,128.19,347.704,127.601,347.938,126.787z
			 M348.182,122.458c-0.03-1.24-0.351-2.183-0.961-2.828c-0.609-0.646-1.352-0.969-2.226-0.969c-0.936,0-1.707,0.341-2.317,1.021
			c-0.609,0.682-0.91,1.606-0.899,2.775L348.182,122.458L348.182,122.458z"/>
		<path fill="#E54F26" d="M378.719,120.536l-4.223,0.763c-0.143-0.844-0.465-1.479-0.968-1.905c-0.504-0.428-1.157-0.641-1.96-0.641
			c-1.066,0-1.918,0.368-2.554,1.105c-0.635,0.736-0.952,1.969-0.952,3.697c0,1.921,0.322,3.277,0.968,4.07
			c0.646,0.793,1.512,1.189,2.6,1.189c0.813,0,1.479-0.231,1.997-0.694c0.519-0.462,0.884-1.258,1.098-2.386l4.208,0.717
			c-0.438,1.931-1.275,3.39-2.516,4.375c-1.24,0.986-2.902,1.479-4.985,1.479c-2.368,0-4.256-0.747-5.664-2.241
			c-1.407-1.494-2.111-3.563-2.111-6.205c0-2.673,0.706-4.754,2.119-6.243s3.323-2.233,5.732-2.233c1.972,0,3.539,0.424,4.703,1.272
			S378.211,118.799,378.719,120.536z"/>
		<path fill="#E54F26" d="M385.168,120.689l-3.888-0.702c0.438-1.564,1.189-2.724,2.257-3.476s2.652-1.128,4.757-1.128
			c1.91,0,3.333,0.226,4.269,0.678c0.935,0.453,1.593,1.027,1.975,1.724c0.381,0.696,0.571,1.974,0.571,3.834l-0.046,5.001
			c0,1.423,0.069,2.472,0.206,3.147c0.138,0.677,0.394,1.4,0.77,2.173H391.8c-0.111-0.284-0.249-0.706-0.411-1.266
			c-0.071-0.254-0.122-0.422-0.152-0.503c-0.732,0.712-1.515,1.245-2.348,1.601c-0.834,0.355-1.724,0.534-2.668,0.534
			c-1.667,0-2.981-0.452-3.941-1.357c-0.961-0.904-1.44-2.048-1.44-3.43c0-0.915,0.218-1.73,0.655-2.447
			c0.437-0.717,1.049-1.266,1.837-1.646s1.924-0.714,3.407-0.999c2.003-0.376,3.39-0.727,4.162-1.052v-0.427
			c0-0.823-0.203-1.41-0.609-1.761c-0.407-0.351-1.174-0.526-2.302-0.526c-0.763,0-1.357,0.15-1.784,0.45
			S385.433,119.937,385.168,120.689z M390.9,124.165c-0.549,0.183-1.418,0.401-2.606,0.655c-1.189,0.255-1.967,0.504-2.333,0.747
			c-0.559,0.396-0.838,0.899-0.838,1.51c0,0.6,0.223,1.118,0.67,1.555c0.447,0.438,1.017,0.656,1.708,0.656
			c0.772,0,1.51-0.254,2.211-0.763c0.518-0.386,0.858-0.858,1.021-1.418c0.111-0.366,0.167-1.062,0.167-2.089V124.165z"/>
		<path fill="#E54F26" d="M403.524,115.749v15.688c0,2.063-0.135,3.519-0.404,4.368c-0.269,0.848-0.787,1.512-1.555,1.989
			s-1.746,0.717-2.935,0.717c-0.427,0-0.887-0.038-1.38-0.114c-0.493-0.077-1.023-0.191-1.593-0.344l0.746-3.659
			c0.204,0.041,0.395,0.074,0.572,0.1s0.343,0.038,0.495,0.038c0.438,0,0.796-0.094,1.075-0.282s0.465-0.414,0.557-0.679
			c0.091-0.264,0.137-1.057,0.137-2.378v-15.444C399.239,115.749,403.524,115.749,403.524,115.749z M399.24,113.554v-3.964h4.284
			v3.964H399.24z"/>
		<path fill="#E54F26" d="M411.208,120.689l-3.888-0.702c0.438-1.564,1.189-2.724,2.257-3.476s2.652-1.128,4.757-1.128
			c1.91,0,3.333,0.226,4.269,0.678c0.935,0.453,1.593,1.027,1.975,1.724c0.381,0.696,0.571,1.974,0.571,3.834l-0.046,5.001
			c0,1.423,0.069,2.472,0.206,3.147c0.138,0.677,0.394,1.4,0.77,2.173h-4.238c-0.111-0.284-0.249-0.706-0.411-1.266
			c-0.071-0.254-0.122-0.422-0.152-0.503c-0.732,0.712-1.515,1.245-2.348,1.601c-0.834,0.355-1.724,0.534-2.668,0.534
			c-1.667,0-2.981-0.452-3.941-1.357c-0.961-0.904-1.44-2.048-1.44-3.43c0-0.915,0.218-1.73,0.655-2.447
			c0.437-0.717,1.049-1.266,1.837-1.646s1.924-0.714,3.407-0.999c2.003-0.376,3.39-0.727,4.162-1.052v-0.427
			c0-0.823-0.203-1.41-0.609-1.761c-0.407-0.351-1.174-0.526-2.302-0.526c-0.763,0-1.357,0.15-1.784,0.45
			S411.473,119.937,411.208,120.689z M416.94,124.165c-0.549,0.183-1.418,0.401-2.606,0.655c-1.189,0.255-1.967,0.504-2.333,0.747
			c-0.559,0.396-0.838,0.899-0.838,1.51c0,0.6,0.223,1.118,0.67,1.555c0.447,0.438,1.017,0.656,1.708,0.656
			c0.772,0,1.51-0.254,2.211-0.763c0.518-0.386,0.858-0.858,1.021-1.418c0.111-0.366,0.167-1.062,0.167-2.089V124.165z"/>
		<path fill="#E54F26" d="M437.248,120.689l-3.888-0.702c0.438-1.564,1.189-2.724,2.257-3.476s2.652-1.128,4.757-1.128
			c1.91,0,3.333,0.226,4.269,0.678c0.935,0.453,1.593,1.027,1.975,1.724c0.381,0.696,0.571,1.974,0.571,3.834l-0.046,5.001
			c0,1.423,0.069,2.472,0.206,3.147c0.138,0.677,0.394,1.4,0.77,2.173h-4.238c-0.111-0.284-0.249-0.706-0.411-1.266
			c-0.071-0.254-0.122-0.422-0.152-0.503c-0.732,0.712-1.515,1.245-2.348,1.601c-0.834,0.355-1.724,0.534-2.668,0.534
			c-1.667,0-2.981-0.452-3.941-1.357c-0.961-0.904-1.44-2.048-1.44-3.43c0-0.915,0.218-1.73,0.655-2.447
			c0.437-0.717,1.049-1.266,1.837-1.646s1.924-0.714,3.407-0.999c2.003-0.376,3.39-0.727,4.162-1.052v-0.427
			c0-0.823-0.203-1.41-0.609-1.761c-0.407-0.351-1.174-0.526-2.302-0.526c-0.763,0-1.357,0.15-1.784,0.45
			S437.513,119.937,437.248,120.689z M442.98,124.165c-0.549,0.183-1.418,0.401-2.606,0.655c-1.189,0.255-1.967,0.504-2.333,0.747
			c-0.559,0.396-0.838,0.899-0.838,1.51c0,0.6,0.223,1.118,0.67,1.555c0.447,0.438,1.017,0.656,1.708,0.656
			c0.772,0,1.51-0.254,2.211-0.763c0.518-0.386,0.858-0.858,1.021-1.418c0.111-0.366,0.167-1.062,0.167-2.089V124.165z"/>
		<path fill="#E54F26" d="M451.29,115.749h3.994v2.379c0.519-0.813,1.22-1.474,2.104-1.982s1.864-0.762,2.942-0.762
			c1.88,0,3.476,0.736,4.787,2.21c1.311,1.475,1.967,3.527,1.967,6.16c0,2.703-0.661,4.805-1.982,6.304s-2.922,2.249-4.802,2.249
			c-0.895,0-1.706-0.179-2.433-0.534s-1.491-0.965-2.294-1.829v8.156h-4.284v-22.351H451.29z M455.528,123.57
			c0,1.819,0.36,3.164,1.082,4.032c0.722,0.869,1.602,1.304,2.638,1.304c0.996,0,1.824-0.398,2.485-1.196
			c0.66-0.798,0.991-2.106,0.991-3.926c0-1.697-0.341-2.958-1.021-3.781c-0.682-0.823-1.524-1.234-2.531-1.234
			c-1.047,0-1.916,0.403-2.606,1.212C455.874,120.788,455.528,121.985,455.528,123.57z"/>
		<path fill="#E54F26" d="M470.484,131.94v-22.35h4.284v22.351L470.484,131.94L470.484,131.94z"/>
		<path fill="#E54F26" d="M479.159,113.554v-3.964h4.284v3.964H479.159z M479.159,131.94v-16.191h4.284v16.191H479.159z"/>
		<path fill="#E54F26" d="M501.951,120.536l-4.223,0.763c-0.143-0.844-0.465-1.479-0.968-1.905c-0.504-0.428-1.157-0.641-1.96-0.641
			c-1.066,0-1.918,0.368-2.554,1.105c-0.635,0.736-0.952,1.969-0.952,3.697c0,1.921,0.322,3.277,0.968,4.07
			c0.646,0.793,1.512,1.189,2.6,1.189c0.813,0,1.479-0.231,1.997-0.694c0.519-0.462,0.884-1.258,1.098-2.386l4.208,0.717
			c-0.438,1.931-1.275,3.39-2.516,4.375c-1.24,0.986-2.902,1.479-4.985,1.479c-2.368,0-4.256-0.747-5.664-2.241
			c-1.407-1.494-2.111-3.563-2.111-6.205c0-2.673,0.706-4.754,2.119-6.243s3.323-2.233,5.732-2.233c1.972,0,3.539,0.424,4.703,1.272
			S501.443,118.799,501.951,120.536z"/>
		<path fill="#E54F26" d="M508.4,120.689l-3.888-0.702c0.438-1.564,1.189-2.724,2.257-3.476s2.652-1.128,4.757-1.128
			c1.91,0,3.333,0.226,4.269,0.678c0.935,0.453,1.593,1.027,1.975,1.724c0.381,0.696,0.571,1.974,0.571,3.834l-0.046,5.001
			c0,1.423,0.069,2.472,0.206,3.147c0.138,0.677,0.394,1.4,0.77,2.173h-4.238c-0.111-0.284-0.249-0.706-0.411-1.266
			c-0.071-0.254-0.122-0.422-0.152-0.503c-0.732,0.712-1.515,1.245-2.348,1.601c-0.834,0.355-1.724,0.534-2.668,0.534
			c-1.667,0-2.981-0.452-3.941-1.357c-0.961-0.904-1.44-2.048-1.44-3.43c0-0.915,0.218-1.73,0.655-2.447
			c0.437-0.717,1.049-1.266,1.837-1.646s1.924-0.714,3.407-0.999c2.003-0.376,3.39-0.727,4.162-1.052v-0.427
			c0-0.823-0.203-1.41-0.609-1.761c-0.407-0.351-1.174-0.526-2.302-0.526c-0.763,0-1.357,0.15-1.784,0.45
			S508.665,119.937,508.4,120.689z M514.133,124.165c-0.549,0.183-1.418,0.401-2.606,0.655c-1.189,0.255-1.967,0.504-2.333,0.747
			c-0.559,0.396-0.838,0.899-0.838,1.51c0,0.6,0.223,1.118,0.67,1.555c0.447,0.438,1.017,0.656,1.708,0.656
			c0.772,0,1.51-0.254,2.211-0.763c0.518-0.386,0.858-0.858,1.021-1.418c0.111-0.366,0.167-1.062,0.167-2.089V124.165z"/>
		<path fill="#E54F26" d="M537.414,131.94h-3.979v-2.378c-0.661,0.925-1.44,1.613-2.34,2.065s-1.807,0.679-2.722,0.679
			c-1.86,0-3.453-0.75-4.779-2.249c-1.327-1.499-1.99-3.591-1.99-6.273c0-2.744,0.646-4.83,1.937-6.259
			c1.291-1.428,2.922-2.142,4.894-2.142c1.81,0,3.375,0.752,4.696,2.256v-8.05h4.284L537.414,131.94L537.414,131.94z
			 M525.979,123.494c0,1.729,0.238,2.979,0.717,3.751c0.69,1.118,1.656,1.677,2.896,1.677c0.985,0,1.824-0.419,2.516-1.258
			c0.69-0.839,1.036-2.091,1.036-3.758c0-1.86-0.335-3.199-1.006-4.018s-1.529-1.228-2.576-1.228c-1.017,0-1.868,0.404-2.554,1.212
			C526.322,120.682,525.979,121.889,525.979,123.494z"/>
		<path fill="#E54F26" d="M540.646,123.616c0-1.423,0.351-2.8,1.052-4.132c0.701-1.331,1.695-2.348,2.98-3.049
			c1.286-0.701,2.722-1.052,4.308-1.052c2.449,0,4.456,0.795,6.021,2.386s2.349,3.601,2.349,6.029c0,2.45-0.791,4.48-2.371,6.091
			c-1.581,1.611-3.57,2.417-5.969,2.417c-1.484,0-2.899-0.336-4.246-1.007s-2.371-1.654-3.072-2.95S540.646,125.477,540.646,123.616
			z M545.036,123.845c0,1.606,0.382,2.836,1.144,3.689c0.763,0.854,1.702,1.281,2.82,1.281s2.056-0.428,2.813-1.281
			c0.757-0.854,1.136-2.094,1.136-3.72c0-1.586-0.379-2.806-1.136-3.659c-0.758-0.854-1.695-1.28-2.813-1.28s-2.058,0.427-2.82,1.28
			C545.418,121.009,545.036,122.239,545.036,123.845z"/>
		<path fill="#E54F26" d="M572.585,120.689l-3.888-0.702c0.438-1.564,1.189-2.724,2.257-3.476s2.652-1.128,4.757-1.128
			c1.91,0,3.333,0.226,4.269,0.678c0.935,0.453,1.593,1.027,1.975,1.724c0.381,0.696,0.571,1.974,0.571,3.834l-0.046,5.001
			c0,1.423,0.069,2.472,0.206,3.147c0.138,0.677,0.394,1.4,0.77,2.173h-4.238c-0.111-0.284-0.249-0.706-0.411-1.266
			c-0.071-0.254-0.122-0.422-0.152-0.503c-0.732,0.712-1.515,1.245-2.348,1.601c-0.834,0.355-1.724,0.534-2.668,0.534
			c-1.667,0-2.981-0.452-3.941-1.357c-0.961-0.904-1.44-2.048-1.44-3.43c0-0.915,0.218-1.73,0.655-2.447
			c0.437-0.717,1.049-1.266,1.837-1.646s1.924-0.714,3.407-0.999c2.003-0.376,3.39-0.727,4.162-1.052v-0.427
			c0-0.823-0.203-1.41-0.609-1.761c-0.407-0.351-1.174-0.526-2.302-0.526c-0.763,0-1.357,0.15-1.784,0.45
			S572.85,119.937,572.585,120.689z M578.317,124.165c-0.549,0.183-1.418,0.401-2.606,0.655c-1.189,0.255-1.967,0.504-2.333,0.747
			c-0.559,0.396-0.838,0.899-0.838,1.51c0,0.6,0.223,1.118,0.67,1.555c0.447,0.438,1.017,0.656,1.708,0.656
			c0.772,0,1.51-0.254,2.211-0.763c0.518-0.386,0.858-0.858,1.021-1.418c0.111-0.366,0.167-1.062,0.167-2.089L578.317,124.165
			L578.317,124.165z"/>
		<path fill="#E54F26" d="M606.08,131.94v-2.424c-0.589,0.863-1.364,1.545-2.324,2.043c-0.961,0.498-1.975,0.747-3.042,0.747
			c-1.088,0-2.063-0.239-2.927-0.717s-1.489-1.148-1.876-2.013c-0.386-0.863-0.579-2.058-0.579-3.583v-10.245h4.284v7.44
			c0,2.276,0.079,3.672,0.236,4.185c0.157,0.514,0.444,0.92,0.861,1.22s0.945,0.45,1.586,0.45c0.731,0,1.387-0.201,1.967-0.603
			c0.579-0.401,0.976-0.899,1.188-1.494c0.214-0.595,0.32-2.051,0.32-4.368v-6.83h4.284v16.191h-3.978V131.94z"/>
		<path fill="#E54F26" d="M629.224,131.94h-4.284v-8.264c0-1.747-0.092-2.878-0.274-3.392s-0.48-0.912-0.892-1.197
			c-0.412-0.284-0.907-0.427-1.487-0.427c-0.741,0-1.407,0.204-1.997,0.61c-0.589,0.406-0.993,0.945-1.212,1.616
			c-0.219,0.67-0.327,1.91-0.327,3.72v7.333h-4.284v-16.191h3.979v2.379c1.413-1.83,3.191-2.744,5.336-2.744
			c0.945,0,1.81,0.17,2.592,0.511c0.783,0.341,1.375,0.774,1.776,1.304c0.401,0.528,0.681,1.128,0.839,1.799
			c0.157,0.671,0.236,1.631,0.236,2.881L629.224,131.94L629.224,131.94z"/>
		<path fill="#E54F26" d="M651.619,126.787l4.269,0.717c-0.549,1.565-1.415,2.757-2.599,3.575c-1.185,0.818-2.666,1.228-4.444,1.228
			c-2.815,0-4.899-0.92-6.251-2.76c-1.067-1.474-1.601-3.334-1.601-5.58c0-2.684,0.701-4.784,2.104-6.304s3.177-2.279,5.321-2.279
			c2.408,0,4.309,0.795,5.701,2.386s2.059,4.027,1.998,7.311h-10.733c0.03,1.271,0.376,2.259,1.037,2.965
			c0.66,0.707,1.483,1.06,2.47,1.06c0.671,0,1.234-0.183,1.691-0.549C651.04,128.19,651.386,127.601,651.619,126.787z
			 M651.863,122.458c-0.03-1.24-0.351-2.183-0.961-2.828c-0.609-0.646-1.352-0.969-2.226-0.969c-0.936,0-1.707,0.341-2.317,1.021
			c-0.609,0.682-0.91,1.606-0.899,2.775L651.863,122.458L651.863,122.458z"/>
		<path fill="#E54F26" d="M659.608,131.94v-22.35h4.284v22.351L659.608,131.94L659.608,131.94z"/>
		<path fill="#E54F26" d="M677.659,126.787l4.269,0.717c-0.549,1.565-1.415,2.757-2.599,3.575c-1.185,0.818-2.666,1.228-4.444,1.228
			c-2.815,0-4.899-0.92-6.251-2.76c-1.067-1.474-1.601-3.334-1.601-5.58c0-2.684,0.701-4.784,2.104-6.304s3.177-2.279,5.321-2.279
			c2.408,0,4.309,0.795,5.701,2.386s2.059,4.027,1.998,7.311h-10.733c0.03,1.271,0.376,2.259,1.037,2.965
			c0.66,0.707,1.483,1.06,2.47,1.06c0.671,0,1.234-0.183,1.691-0.549C677.08,128.19,677.426,127.601,677.659,126.787z
			 M677.903,122.458c-0.03-1.24-0.351-2.183-0.961-2.828c-0.609-0.646-1.352-0.969-2.226-0.969c-0.936,0-1.707,0.341-2.317,1.021
			c-0.609,0.682-0.91,1.606-0.899,2.775L677.903,122.458L677.903,122.458z"/>
		<path fill="#E54F26" d="M685.328,115.749h3.948v2.211c1.413-1.718,3.096-2.576,5.047-2.576c1.037,0,1.937,0.213,2.698,0.64
			c0.763,0.428,1.388,1.073,1.875,1.937c0.712-0.863,1.479-1.509,2.303-1.937c0.823-0.427,1.702-0.64,2.638-0.64
			c1.188,0,2.195,0.241,3.019,0.724c0.823,0.483,1.438,1.192,1.845,2.127c0.294,0.691,0.441,1.81,0.441,3.354v10.352h-4.283v-9.254
			c0-1.606-0.147-2.643-0.442-3.11c-0.396-0.61-1.006-0.915-1.83-0.915c-0.6,0-1.163,0.184-1.691,0.549
			c-0.529,0.366-0.91,0.902-1.144,1.608c-0.234,0.707-0.351,1.822-0.351,3.347v7.775h-4.284v-8.873c0-1.575-0.076-2.592-0.229-3.049
			c-0.153-0.458-0.39-0.798-0.709-1.021c-0.32-0.224-0.755-0.336-1.304-0.336c-0.661,0-1.256,0.178-1.784,0.534
			c-0.528,0.355-0.907,0.869-1.136,1.539c-0.229,0.671-0.343,1.784-0.343,3.339v7.867h-4.284L685.328,115.749L685.328,115.749z"/>
		<path fill="#E54F26" d="M722.787,126.787l4.269,0.717c-0.549,1.565-1.415,2.757-2.599,3.575c-1.185,0.818-2.666,1.228-4.444,1.228
			c-2.815,0-4.899-0.92-6.251-2.76c-1.067-1.474-1.601-3.334-1.601-5.58c0-2.684,0.701-4.784,2.104-6.304s3.177-2.279,5.321-2.279
			c2.408,0,4.309,0.795,5.701,2.386s2.059,4.027,1.998,7.311h-10.733c0.03,1.271,0.376,2.259,1.037,2.965
			c0.66,0.707,1.483,1.06,2.47,1.06c0.671,0,1.234-0.183,1.691-0.549C722.208,128.19,722.554,127.601,722.787,126.787z
			 M723.031,122.458c-0.03-1.24-0.351-2.183-0.961-2.828c-0.609-0.646-1.352-0.969-2.226-0.969c-0.936,0-1.707,0.341-2.317,1.021
			c-0.609,0.682-0.91,1.606-0.899,2.775L723.031,122.458L723.031,122.458z"/>
		<path fill="#E54F26" d="M745.504,131.94h-4.284v-8.264c0-1.747-0.092-2.878-0.274-3.392s-0.48-0.912-0.892-1.197
			c-0.412-0.284-0.907-0.427-1.487-0.427c-0.741,0-1.407,0.204-1.997,0.61c-0.589,0.406-0.993,0.945-1.212,1.616
			c-0.219,0.67-0.327,1.91-0.327,3.72v7.333h-4.284v-16.191h3.979v2.379c1.413-1.83,3.191-2.744,5.336-2.744
			c0.945,0,1.81,0.17,2.592,0.511c0.783,0.341,1.375,0.774,1.776,1.304c0.401,0.528,0.681,1.128,0.839,1.799
			c0.157,0.671,0.236,1.631,0.236,2.881L745.504,131.94L745.504,131.94z"/>
		<path fill="#E54F26" d="M757.273,115.749v3.415h-2.928v6.525c0,1.321,0.028,2.092,0.084,2.31c0.056,0.219,0.184,0.399,0.382,0.542
			c0.197,0.142,0.439,0.213,0.724,0.213c0.396,0,0.971-0.137,1.723-0.411l0.366,3.323c-0.996,0.427-2.125,0.641-3.385,0.641
			c-0.772,0-1.469-0.13-2.089-0.389c-0.62-0.26-1.074-0.595-1.364-1.007c-0.29-0.411-0.49-0.968-0.603-1.669
			c-0.091-0.498-0.137-1.504-0.137-3.019v-7.06h-1.967v-3.415h1.967v-3.217l4.299-2.5v5.717h2.928V115.749z"/>
		<path fill="#E54F26" d="M759.255,123.616c0-1.423,0.351-2.8,1.052-4.132c0.701-1.331,1.695-2.348,2.98-3.049
			c1.286-0.701,2.722-1.052,4.308-1.052c2.449,0,4.456,0.795,6.021,2.386s2.349,3.601,2.349,6.029c0,2.45-0.791,4.48-2.371,6.091
			c-1.581,1.611-3.57,2.417-5.969,2.417c-1.484,0-2.899-0.336-4.246-1.007s-2.371-1.654-3.072-2.95S759.255,125.477,759.255,123.616
			z M763.646,123.845c0,1.606,0.382,2.836,1.144,3.689c0.763,0.854,1.702,1.281,2.82,1.281s2.056-0.428,2.813-1.281
			c0.757-0.854,1.136-2.094,1.136-3.72c0-1.586-0.379-2.806-1.136-3.659c-0.758-0.854-1.695-1.28-2.813-1.28s-2.058,0.427-2.82,1.28
			C764.027,121.009,763.646,122.239,763.646,123.845z"/>
		<path fill="#E54F26" d="M788.039,131.94v-22.35h4.513v8.797h8.843v-8.797h4.513v22.351h-4.513v-9.772h-8.843v9.772L788.039,131.94
			L788.039,131.94z"/>
		<path fill="#E54F26" d="M815.604,131.94v-18.569h-6.632v-3.781h17.762v3.781h-6.617v18.569H815.604z"/>
		<path fill="#E54F26" d="M829.584,131.94v-22.35h6.754l4.055,15.246l4.01-15.246h6.77v22.351h-4.192v-17.594l-4.437,17.594h-4.346
			l-4.421-17.594v17.594L829.584,131.94L829.584,131.94z"/>
		<path fill="#E54F26" d="M855.775,131.94v-22.167h4.513v18.401h11.221v3.766H855.775z"/>
	</g>
	<g>
		<g id="Body_1_">
			<g>
				<path d="M769.746,167.007H158.053c-2.475,0-4.482,2.008-4.482,4.484V456.56h620.662V171.491
					C774.232,169.015,772.227,167.007,769.746,167.007z"/>
			</g>
		</g>
		<g id="Right_3_">
			<g>
				<path fill="#DBDBDB" d="M606.727,186.271c-1.19-1.992-4.065-3.568-6.445-3.568H449.369c-2.381,0-5.072,1.576-6.029,3.568
					l-14.797,30.809h196.598L606.727,186.271z"/>
			</g>
		</g>
		<g id="Close_3_">
			<g>
				<path fill="#B4B4B4" d="M451.76,190.324c-1.568,0-2.84,1.272-2.84,2.841c0,1.564,1.272,2.835,2.84,2.835
					c1.564,0,2.836-1.271,2.836-2.835C454.596,191.597,453.324,190.324,451.76,190.324z M453.254,194.107l-0.857,0.551l-0.625-0.75
					l-0.658,0.75l-0.85-0.551l0.857-0.98l-0.791-0.951l-0.066,0.043l-0.078-0.215l0.145,0.172l0.783-0.509l0.643,0.733l0.641-0.733
					l0.857,0.552l-0.828,0.944L453.254,194.107z"/>
			</g>
		</g>
		<g id="Left_3_">
			<g>
				<path fill="#E6E6E6" d="M427.787,186.271c-1.188-1.992-4.061-3.568-6.441-3.568H270.432c-2.383,0-5.072,1.576-6.029,3.568
					l-14.799,30.809H446.2L427.787,186.271z"/>
			</g>
		</g>
		<g id="Close_1_">
			<g>
				<path fill="#CBCBCB" d="M274.264,190.324c-1.566,0-2.836,1.272-2.836,2.841c0,1.564,1.27,2.835,2.836,2.835
					c1.564,0,2.842-1.271,2.842-2.835C277.105,191.597,275.828,190.324,274.264,190.324z M275.762,194.107l-0.855,0.551
					l-0.625-0.749l-0.656,0.749l-0.855-0.551l0.859-0.981l-0.793-0.95l-0.066,0.043l-0.076-0.215l0.143,0.172l0.789-0.509
					l0.641,0.731l0.641-0.731l0.855,0.552l-0.826,0.944L275.762,194.107z"/>
			</g>
		</g>
		<g id="Background_1_">
			<g>
				<rect x="153.57" y="212.594" fill="#E6E6E6" width="620.662" height="42.225"/>
			</g>
		</g>
		<g id="Left_1_">
			<g>
				<path fill="#CBCBCB" d="M186.027,232.928H172.76l3.988-4.034c0.369-0.376,0.369-0.98,0-1.352c-0.369-0.377-0.965-0.377-1.332,0
					l-4.891,4.948c-0.334,0.338-0.51,0.785-0.51,1.264v0.28c0,0.476,0.176,0.925,0.51,1.262l4.885,4.952
					c0.367,0.37,0.969,0.37,1.334,0c0.373-0.376,0.373-0.979,0-1.352l-3.984-4.032h13.268c0.523,0,0.938-0.434,0.938-0.963v-0.01
					C186.965,233.36,186.551,232.928,186.027,232.928z"/>
			</g>
		</g>
		<g id="Right_1_">
			<g>
				<path fill="#CBCBCB" d="M223.307,232.489l-4.889-4.948c-0.369-0.377-0.965-0.377-1.332,0c-0.371,0.372-0.371,0.977,0,1.352
					l3.984,4.034h-13.268c-0.52,0-0.936,0.433-0.936,0.962v0.01c0,0.529,0.416,0.963,0.936,0.963h13.27l-3.986,4.032
					c-0.371,0.373-0.371,0.977,0,1.352c0.367,0.37,0.963,0.37,1.332,0l4.889-4.952c0.332-0.337,0.516-0.786,0.516-1.262v-0.28
					C223.822,233.274,223.639,232.827,223.307,232.489z"/>
			</g>
		</g>
		<g id="Refresh_1_">
			<g>
				<path fill="#CBCBCB" d="M259.721,234.798c0-0.247-0.176-0.447-0.404-0.506c-0.059-0.23-0.256-0.4-0.506-0.4
					c-0.295,0-0.531,0.237-0.531,0.534c0,3.037-2.469,5.508-5.502,5.508c-1.414,0-2.699-0.542-3.676-1.424
					c-0.896-0.98-1.449-2.281-1.449-3.712c0-1.385,0.52-2.646,1.365-3.614c0.865-0.818,1.979-1.375,3.227-1.495v1.228
					c0,0.192,0.104,0.367,0.266,0.462c0.082,0.049,0.178,0.069,0.268,0.069c0.094,0,0.186-0.021,0.268-0.069l3.092-1.784
					c0.109-0.064,0.176-0.169,0.217-0.284l0.158-0.092c0.16-0.097,0.262-0.27,0.262-0.461s-0.102-0.366-0.262-0.46l-0.158-0.092
					c-0.041-0.115-0.107-0.221-0.217-0.285l-3.092-1.786c-0.168-0.095-0.369-0.095-0.535,0c-0.162,0.097-0.266,0.271-0.266,0.464
					v1.276c-3.371,0.272-6.029,3.105-6.029,6.552c0,0.123,0.012,0.244,0.018,0.365c-0.008,0.127-0.018,0.254-0.018,0.384
					c0,3.622,2.941,6.571,6.563,6.571c1.9,0,3.609-0.816,4.809-2.111C258.895,238.432,259.721,236.711,259.721,234.798z"/>
			</g>
		</g>
		<g id="Settings_1_">
			<g>
				<path fill="#CBCBCB" d="M760.221,222.545H745.27c-0.512,0-0.932,0.418-0.932,0.934v0.373c0,0.518,0.42,0.936,0.932,0.936h14.951
					c0.516,0,0.932-0.419,0.932-0.936v-0.373C761.152,222.963,760.736,222.545,760.221,222.545z M760.221,227.403H745.27
					c-0.512,0-0.932,0.417-0.932,0.934v0.37c0,0.515,0.42,0.938,0.932,0.938h14.951c0.516,0,0.932-0.424,0.932-0.938v-0.37
					C761.152,227.82,760.736,227.403,760.221,227.403z M760.221,232.26H745.27c-0.512,0-0.932,0.42-0.932,0.935v0.373
					c0,0.517,0.42,0.932,0.932,0.932h14.951c0.516,0,0.932-0.415,0.932-0.932v-0.373C761.152,232.68,760.736,232.26,760.221,232.26z
					"/>
			</g>
		</g>
		<g id="Adress_1_">
			<g>
				<path fill="#FFFFFF" d="M727.525,223.805H285.102c-1.033,0-1.869,0.837-1.869,1.864v15.698c0,1.033,0.836,1.867,1.869,1.867
					h442.424c1.029,0,1.865-0.834,1.865-1.867v-15.698C729.391,224.642,728.555,223.805,727.525,223.805z"/>
			</g>
		</g>
		<g>
			<path fill="#ACACAC" d="M305.299,236.137v-3.895h-0.635v-0.625h0.635v-0.243c0-1.195,0.7-1.971,1.971-1.971
				c0.42,0,0.915,0.131,1.148,0.299l-0.233,0.626c-0.196-0.14-0.551-0.262-0.952-0.262c-0.869,0-1.121,0.607-1.121,1.326v0.225
				h2.624v4.52h-0.813v-3.895h-1.812v3.895L305.299,236.137L305.299,236.137z"/>
			<path fill="#ACACAC" d="M310.101,229.507h0.822v6.63h-0.822V229.507z"/>
			<path fill="#ACACAC" d="M312.763,234.026c0.019,1.111,0.728,1.568,1.55,1.568c0.588,0,0.943-0.103,1.251-0.233l0.141,0.589
				c-0.29,0.131-0.784,0.28-1.504,0.28c-1.392,0-2.223-0.916-2.223-2.279s0.804-2.437,2.12-2.437c1.476,0,1.868,1.298,1.868,2.129
				c0,0.168-0.02,0.299-0.028,0.383L312.763,234.026L312.763,234.026z M315.172,233.438c0.009-0.522-0.215-1.335-1.14-1.335
				c-0.831,0-1.195,0.766-1.261,1.335H315.172z"/>
			<path fill="#ACACAC" d="M316.789,232.364c0-0.346,0.233-0.589,0.561-0.589s0.542,0.243,0.551,0.589
				c0,0.326-0.215,0.579-0.561,0.579C317.014,232.943,316.789,232.69,316.789,232.364z M316.789,235.66
				c0-0.346,0.233-0.588,0.561-0.588s0.542,0.242,0.551,0.588c0,0.327-0.215,0.579-0.561,0.579
				C317.014,236.239,316.789,235.987,316.789,235.66z"/>
			<path fill="#ACACAC" d="M318.228,236.51l2.605-6.77h0.636l-2.615,6.77H318.228z"/>
			<path fill="#ACACAC" d="M321.432,236.51l2.605-6.77h0.636l-2.615,6.77H321.432z"/>
			<path fill="#ACACAC" d="M324.636,236.51l2.605-6.77h0.636l-2.615,6.77H324.636z"/>
			<path fill="#ACACAC" d="M328.56,229.927c0.495-0.075,1.083-0.131,1.728-0.131c1.167,0,1.998,0.271,2.549,0.784
				c0.561,0.514,0.888,1.242,0.888,2.26c0,1.027-0.317,1.868-0.906,2.447c-0.588,0.588-1.56,0.905-2.782,0.905
				c-0.579,0-1.064-0.027-1.476-0.074L328.56,229.927L328.56,229.927z M329.372,235.492c0.205,0.037,0.504,0.047,0.821,0.047
				c1.737,0,2.681-0.971,2.681-2.671c0.009-1.484-0.831-2.428-2.55-2.428c-0.42,0-0.737,0.037-0.952,0.084L329.372,235.492
				L329.372,235.492z"/>
			<path fill="#ACACAC" d="M334.557,232.364c0-0.346,0.233-0.589,0.561-0.589s0.542,0.243,0.551,0.589
				c0,0.326-0.215,0.579-0.561,0.579C334.781,232.943,334.557,232.69,334.557,232.364z M334.557,235.66
				c0-0.346,0.233-0.588,0.561-0.588s0.542,0.242,0.551,0.588c0,0.327-0.215,0.579-0.561,0.579
				C334.781,236.239,334.557,235.987,334.557,235.66z"/>
			<path fill="#ACACAC" d="M335.995,236.51l2.605-6.77h0.636l-2.615,6.77H335.995z"/>
			<path fill="#ACACAC" d="M340.349,234.026c0.019,1.111,0.728,1.568,1.55,1.568c0.588,0,0.943-0.103,1.251-0.233l0.141,0.589
				c-0.29,0.131-0.784,0.28-1.504,0.28c-1.392,0-2.223-0.916-2.223-2.279s0.804-2.437,2.12-2.437c1.476,0,1.868,1.298,1.868,2.129
				c0,0.168-0.02,0.299-0.028,0.383L340.349,234.026L340.349,234.026z M342.758,233.438c0.009-0.522-0.215-1.335-1.14-1.335
				c-0.831,0-1.195,0.766-1.261,1.335H342.758z"/>
			<path fill="#ACACAC" d="M343.469,237.444c0.373-0.028,0.7-0.131,0.896-0.346c0.224-0.262,0.308-0.616,0.308-1.699v-3.782h0.822
				v4.1c0,0.878-0.141,1.447-0.542,1.858c-0.364,0.364-0.962,0.514-1.4,0.514L343.469,237.444z M345.588,230.347
				c0.01,0.271-0.187,0.505-0.514,0.505c-0.308,0-0.504-0.233-0.504-0.505c0-0.289,0.215-0.514,0.523-0.514
				C345.393,229.833,345.588,230.058,345.588,230.347z"/>
			<path fill="#ACACAC" d="M347.298,234.026c0.019,1.111,0.728,1.568,1.55,1.568c0.588,0,0.943-0.103,1.251-0.233l0.141,0.589
				c-0.29,0.131-0.784,0.28-1.504,0.28c-1.392,0-2.223-0.916-2.223-2.279s0.804-2.437,2.12-2.437c1.476,0,1.868,1.298,1.868,2.129
				c0,0.168-0.02,0.299-0.028,0.383L347.298,234.026L347.298,234.026z M349.707,233.438c0.009-0.522-0.215-1.335-1.14-1.335
				c-0.831,0-1.195,0.766-1.261,1.335H349.707z"/>
			<path fill="#ACACAC" d="M351.521,232.84c0-0.467-0.009-0.85-0.037-1.223h0.719l0.037,0.729h0.028
				c0.252-0.43,0.673-0.831,1.42-0.831c0.616,0,1.083,0.373,1.279,0.905h0.019c0.14-0.252,0.317-0.448,0.504-0.588
				c0.271-0.206,0.569-0.317,0.999-0.317c0.598,0,1.485,0.392,1.485,1.961v2.661h-0.804v-2.559c0-0.868-0.317-1.392-0.98-1.392
				c-0.467,0-0.831,0.346-0.971,0.747c-0.037,0.112-0.065,0.262-0.065,0.411v2.792h-0.804v-2.708c0-0.719-0.317-1.242-0.942-1.242
				c-0.514,0-0.888,0.411-1.019,0.822c-0.046,0.121-0.065,0.261-0.065,0.401v2.727h-0.803V232.84z"/>
			<path fill="#ACACAC" d="M359.312,233.093c0-0.579-0.019-1.046-0.037-1.476h0.737l0.037,0.774h0.02
				c0.336-0.551,0.868-0.877,1.605-0.877c1.093,0,1.915,0.924,1.915,2.297c0,1.625-0.99,2.428-2.055,2.428
				c-0.598,0-1.121-0.262-1.392-0.71h-0.019v2.456h-0.813v-4.892H359.312z M360.124,234.297c0,0.121,0.019,0.233,0.037,0.336
				c0.149,0.57,0.645,0.962,1.233,0.962c0.868,0,1.372-0.709,1.372-1.746c0-0.905-0.476-1.681-1.345-1.681
				c-0.561,0-1.083,0.401-1.242,1.018c-0.027,0.103-0.056,0.225-0.056,0.336v0.775H360.124z"/>
			<path fill="#ACACAC" d="M364.627,229.507h0.822v6.63h-0.822V229.507z"/>
			<path fill="#ACACAC" d="M370.921,233.84c0,1.671-1.157,2.399-2.25,2.399c-1.224,0-2.167-0.896-2.167-2.325
				c0-1.513,0.99-2.399,2.241-2.399C370.044,231.515,370.921,232.457,370.921,233.84z M367.335,233.886
				c0,0.99,0.57,1.737,1.373,1.737c0.784,0,1.373-0.737,1.373-1.756c0-0.766-0.383-1.736-1.354-1.736
				C367.756,232.131,367.335,233.027,367.335,233.886z"/>
			<path fill="#ACACAC" d="M373.482,230.832h-0.019l-1.056,0.57l-0.158-0.626l1.325-0.71h0.701v6.07h-0.794v-5.304H373.482z"/>
			<path fill="#ACACAC" d="M380.432,230.066v0.542l-2.643,5.528h-0.851l2.634-5.369v-0.02h-2.97v-0.682h3.83V230.066z"/>
			<path fill="#ACACAC" d="M381.348,235.651c0-0.346,0.233-0.589,0.561-0.589s0.551,0.243,0.551,0.589
				c0,0.336-0.215,0.588-0.561,0.588C381.572,236.239,381.348,235.987,381.348,235.651z"/>
			<path fill="#ACACAC" d="M383.478,229.507h0.822v2.819h0.019c0.131-0.233,0.336-0.438,0.588-0.578
				c0.243-0.141,0.532-0.233,0.841-0.233c0.606,0,1.578,0.373,1.578,1.933v2.689h-0.822v-2.596c0-0.729-0.271-1.345-1.046-1.345
				c-0.532,0-0.952,0.373-1.102,0.821c-0.047,0.112-0.056,0.233-0.056,0.393v2.727h-0.822L383.478,229.507L383.478,229.507z"/>
			<path fill="#ACACAC" d="M388.662,232.84c0-0.467-0.01-0.85-0.037-1.223h0.719l0.037,0.729h0.028
				c0.252-0.43,0.673-0.831,1.42-0.831c0.616,0,1.083,0.373,1.279,0.905h0.019c0.14-0.252,0.317-0.448,0.504-0.588
				c0.271-0.206,0.569-0.317,0.999-0.317c0.598,0,1.485,0.392,1.485,1.961v2.661h-0.804v-2.559c0-0.868-0.317-1.392-0.98-1.392
				c-0.467,0-0.831,0.346-0.971,0.747c-0.037,0.112-0.065,0.262-0.065,0.411v2.792h-0.803v-2.708c0-0.719-0.318-1.242-0.943-1.242
				c-0.514,0-0.888,0.411-1.019,0.822c-0.046,0.121-0.065,0.261-0.065,0.401v2.727h-0.803L388.662,232.84L388.662,232.84z"/>
			<path fill="#ACACAC" d="M397.406,230.319v1.298h1.177v0.625h-1.177v2.438c0,0.561,0.158,0.878,0.616,0.878
				c0.215,0,0.373-0.028,0.476-0.056l0.038,0.616c-0.159,0.065-0.411,0.112-0.729,0.112c-0.383,0-0.691-0.122-0.888-0.346
				c-0.233-0.243-0.317-0.645-0.317-1.177v-2.466h-0.7v-0.625h0.7v-1.084L397.406,230.319z"/>
			<path fill="#ACACAC" d="M399.508,229.507h0.822v6.63h-0.822V229.507z"/>
		</g>
		<g id="Icon_1_">
			<g>
				<path fill="#02A916" d="M293.898,235.641v-0.907c0-0.22-0.174-0.395-0.389-0.395c-0.219,0-0.395,0.176-0.395,0.395v0.907
					c-0.229,0.137-0.387,0.389-0.387,0.684c0,0.436,0.35,0.79,0.781,0.79c0.43,0,0.779-0.354,0.779-0.79
					C294.289,236.029,294.133,235.777,293.898,235.641z M296.635,232.35v-2.383c0-1.746-1.402-3.176-3.125-3.176
					c-1.725,0-3.129,1.43-3.129,3.176v2.383c-0.641,0-1.168,0.538-1.168,1.191v4.764c0,0.658,0.527,1.191,1.168,1.191h6.254
					c0.645,0,1.174-0.532,1.174-1.191v-4.764C297.809,232.888,297.279,232.35,296.635,232.35z M291.166,229.967
					c0-1.313,1.051-2.382,2.344-2.382c1.291,0,2.342,1.069,2.342,2.382v2.383h-4.686V229.967z M297.027,238.305
					c0,0.219-0.178,0.4-0.393,0.4h-6.254c-0.211,0-0.389-0.182-0.389-0.4v-4.764c0-0.218,0.178-0.396,0.389-0.396h6.254
					c0.215,0,0.393,0.178,0.393,0.396V238.305z"/>
			</g>
		</g>
		<g id="Ellipse_1_">
			<g>
				<path fill="#F7F7F7" d="M174.971,184.02c-3.936,0-7.135,3.193-7.135,7.137c0,3.938,3.199,7.133,7.135,7.133
					c3.943,0,7.139-3.195,7.139-7.133C182.109,187.213,178.914,184.02,174.971,184.02z"/>
			</g>
		</g>
		<g id="Ellipse_2_1_">
			<g>
				<path fill="#F7F7F7" d="M201.131,184.02c-3.941,0-7.137,3.193-7.137,7.137c0,3.938,3.195,7.133,7.137,7.133
					c3.938,0,7.137-3.195,7.137-7.133C208.268,187.213,205.068,184.02,201.131,184.02z"/>
			</g>
		</g>
		<g id="Ellipse_3_1_">
			<g>
				<path fill="#F7F7F7" d="M227.287,184.02c-3.939,0-7.135,3.193-7.135,7.137c0,3.938,3.195,7.133,7.135,7.133
					c3.941,0,7.137-3.195,7.137-7.133C234.424,187.213,231.229,184.02,227.287,184.02z"/>
			</g>
		</g>
		<rect x="153.57" y="255.065" fill="#F7F7F7" width="620.662" height="201.494"/>
		
			<rect x="177.471" y="286.137" fill="#FFFFFF" stroke="#E54F26" stroke-width="3" stroke-miterlimit="10" width="180.232" height="118.649"/>
		<g>
			<path d="M205.62,336.809v-25.431h3.365v10.443h13.219v-10.443h3.365v25.431h-3.365v-11.986h-13.219v11.986H205.62z"/>
			<path d="M230.149,324.423c0-4.221,1.133-7.525,3.399-9.913c2.267-2.389,5.192-3.583,8.777-3.583c2.348,0,4.464,0.562,6.35,1.684
				c1.885,1.121,3.321,2.686,4.311,4.691c0.988,2.007,1.482,4.282,1.482,6.826c0,2.579-0.521,4.887-1.561,6.922
				c-1.041,2.035-2.516,3.576-4.424,4.623c-1.908,1.046-3.967,1.569-6.176,1.569c-2.394,0-4.533-0.578-6.418-1.734
				s-3.313-2.735-4.284-4.736C230.635,328.771,230.149,326.655,230.149,324.423z M233.618,324.475c0,3.065,0.824,5.479,2.472,7.243
				s3.715,2.645,6.202,2.645c2.532,0,4.616-0.89,6.253-2.671S251,327.384,251,324.11c0-2.069-0.351-3.877-1.05-5.421
				c-0.7-1.543-1.724-2.74-3.07-3.59c-1.348-0.851-2.859-1.275-4.536-1.275c-2.383,0-4.432,0.818-6.149,2.454
				C234.477,317.915,233.618,320.647,233.618,324.475z"/>
			<path d="M258.667,336.809v-25.431h3.365v22.43h12.524v3.001H258.667z"/>
			<path d="M275.771,336.809l9.766-25.431h3.626l10.408,25.431h-3.834l-2.966-7.702h-10.634l-2.793,7.702H275.771z M283.108,326.366
				h8.622l-2.654-7.043c-0.81-2.14-1.411-3.897-1.804-5.273c-0.324,1.631-0.781,3.25-1.371,4.856L283.108,326.366z"/>
			<path d="M205.412,379.44v-25.43h5.065l6.02,18.006c0.555,1.678,0.959,2.932,1.214,3.765c0.289-0.925,0.74-2.284,1.354-4.076
				l6.088-17.694h4.528v25.431h-3.244v-21.284l-7.39,21.284h-3.036l-7.354-21.648v21.648h-3.245V379.44z"/>
			<path d="M251.798,354.01h3.365v14.693c0,2.556-0.289,4.585-0.867,6.088c-0.579,1.504-1.622,2.727-3.132,3.669
				c-1.509,0.943-3.489,1.414-5.941,1.414c-2.382,0-4.33-0.41-5.846-1.231c-1.515-0.821-2.596-2.01-3.243-3.564
				c-0.648-1.556-0.972-3.681-0.972-6.375V354.01h3.365v14.676c0,2.209,0.205,3.837,0.615,4.883c0.411,1.047,1.116,1.854,2.117,2.42
				c1,0.567,2.223,0.851,3.668,0.851c2.475,0,4.238-0.562,5.291-1.683c1.053-1.122,1.579-3.279,1.579-6.471L251.798,354.01
				L251.798,354.01z"/>
			<path d="M260.731,379.44v-25.43h3.452l13.356,19.967V354.01h3.227v25.431h-3.451l-13.357-19.983v19.983h-3.227V379.44z"/>
			<path d="M286.423,379.44v-25.43h8.76c1.978,0,3.486,0.122,4.527,0.364c1.457,0.336,2.7,0.943,3.729,1.821
				c1.342,1.134,2.345,2.582,3.01,4.346s0.997,3.779,0.997,6.046c0,1.931-0.226,3.643-0.676,5.134
				c-0.451,1.492-1.029,2.727-1.735,3.704c-0.705,0.978-1.478,1.746-2.315,2.307c-0.839,0.562-1.851,0.986-3.036,1.275
				s-2.547,0.434-4.085,0.434h-9.176V379.44z M289.788,376.439h5.429c1.677,0,2.993-0.156,3.947-0.469
				c0.954-0.312,1.714-0.751,2.28-1.318c0.798-0.798,1.42-1.87,1.865-3.218c0.445-1.347,0.668-2.98,0.668-4.9
				c0-2.659-0.437-4.703-1.31-6.132c-0.874-1.428-1.935-2.385-3.184-2.871c-0.902-0.347-2.354-0.521-4.354-0.521h-5.343v19.429
				H289.788z"/>
			<path d="M311.056,367.055c0-4.221,1.133-7.525,3.399-9.913c2.267-2.389,5.192-3.583,8.777-3.583c2.348,0,4.464,0.562,6.35,1.684
				c1.885,1.121,3.321,2.686,4.311,4.691c0.988,2.007,1.482,4.282,1.482,6.826c0,2.579-0.521,4.887-1.561,6.922
				c-1.041,2.035-2.516,3.576-4.424,4.623c-1.908,1.046-3.967,1.569-6.176,1.569c-2.394,0-4.533-0.578-6.418-1.734
				s-3.313-2.735-4.284-4.736C311.541,371.403,311.056,369.287,311.056,367.055z M314.524,367.106c0,3.065,0.824,5.479,2.472,7.243
				c1.648,1.764,3.715,2.645,6.202,2.645c2.532,0,4.616-0.89,6.253-2.671s2.455-4.308,2.455-7.581c0-2.069-0.351-3.877-1.05-5.421
				c-0.7-1.543-1.724-2.74-3.07-3.59c-1.348-0.851-2.859-1.275-4.536-1.275c-2.383,0-4.432,0.818-6.149,2.454
				C315.383,360.547,314.524,363.279,314.524,367.106z"/>
		</g>
	</g>
	<g>
		<line fill="none" stroke="#000000" stroke-miterlimit="10" x1="182.973" y1="319.858" x2="202.775" y2="319.858"/>
		<line fill="none" stroke="#000000" stroke-miterlimit="10" x1="182.973" y1="317.985" x2="182.973" y2="321.731"/>
		<line fill="none" stroke="#000000" stroke-miterlimit="10" x1="202.775" y1="317.985" x2="202.775" y2="321.731"/>
	</g>
	<g>
		<line fill="none" stroke="#000000" stroke-miterlimit="10" x1="287.908" y1="309.31" x2="287.908" y2="289.507"/>
		<line fill="none" stroke="#000000" stroke-miterlimit="10" x1="286.033" y1="309.31" x2="289.781" y2="309.31"/>
		<line fill="none" stroke="#000000" stroke-miterlimit="10" x1="286.033" y1="289.507" x2="289.781" y2="289.507"/>
	</g>
	<g>
		<line fill="none" stroke="#000000" stroke-miterlimit="10" x1="186.965" y1="280.959" x2="186.965" y2="261.156"/>
		<line fill="none" stroke="#000000" stroke-miterlimit="10" x1="185.092" y1="280.959" x2="188.838" y2="280.959"/>
		<line fill="none" stroke="#000000" stroke-miterlimit="10" x1="185.092" y1="261.156" x2="188.838" y2="261.156"/>
	</g>
	<g>
		<line fill="none" stroke="#000000" stroke-miterlimit="10" x1="174.553" y1="317.985" x2="154.75" y2="317.985"/>
		<line fill="none" stroke="#000000" stroke-miterlimit="10" x1="174.553" y1="319.858" x2="174.553" y2="316.111"/>
		<line fill="none" stroke="#000000" stroke-miterlimit="10" x1="154.75" y1="319.858" x2="154.75" y2="316.111"/>
	</g>
	<g>
		<line fill="none" stroke="#000000" stroke-miterlimit="10" x1="357.703" y1="413.535" x2="177.471" y2="413.535"/>
		<line fill="none" stroke="#000000" stroke-miterlimit="10" x1="357.703" y1="415.409" x2="357.703" y2="411.662"/>
		<line fill="none" stroke="#000000" stroke-miterlimit="10" x1="177.471" y1="415.409" x2="177.471" y2="411.662"/>
	</g>
	<g>
		<line fill="none" stroke="#000000" stroke-miterlimit="10" x1="367.19" y1="286.137" x2="367.19" y2="404.786"/>
		<line fill="none" stroke="#000000" stroke-miterlimit="10" x1="369.063" y1="286.137" x2="365.316" y2="286.137"/>
		<line fill="none" stroke="#000000" stroke-miterlimit="10" x1="369.063" y1="404.786" x2="365.316" y2="404.786"/>
	</g>
	<g>
		<polygon fill="#E54F26" points="362.578,276.67 372.496,264.609 357.01,266.623 		"/>
		<line fill="none" stroke="#E54F26" stroke-miterlimit="10" x1="361.492" y1="271.058" x2="290.971" y2="297.445"/>
	</g>
	<g>
		<polygon fill="#E54F26" points="122.725,342.508 112.807,354.568 128.293,352.555 		"/>
		<line fill="none" stroke="#E54F26" stroke-miterlimit="10" x1="123.811" y1="348.12" x2="194.332" y2="321.731"/>
	</g>
	<g>
		<polygon fill="#E54F26" points="122.727,417.893 112.809,429.953 128.293,427.939 		"/>
		<line fill="none" stroke="#E54F26" stroke-miterlimit="10" x1="123.813" y1="423.505" x2="194.334" y2="397.117"/>
	</g>
	<g>
		<path d="M378.518,269.276v-10.391h3.919c0.69,0,1.217,0.033,1.581,0.1c0.51,0.085,0.938,0.246,1.283,0.485
			c0.345,0.238,0.622,0.572,0.832,1.003c0.211,0.43,0.315,0.902,0.315,1.417c0,0.884-0.281,1.632-0.843,2.243
			c-0.563,0.612-1.578,0.918-3.048,0.918h-2.665v4.225H378.518z M379.893,263.826h2.687c0.888,0,1.519-0.166,1.892-0.496
			c0.374-0.331,0.561-0.797,0.561-1.396c0-0.435-0.11-0.807-0.33-1.116s-0.509-0.514-0.868-0.613
			c-0.231-0.062-0.659-0.092-1.283-0.092h-2.657v3.713H379.893z"/>
		<path d="M392.948,268.348c-0.473,0.402-0.928,0.686-1.365,0.851c-0.437,0.165-0.905,0.248-1.406,0.248
			c-0.827,0-1.463-0.202-1.907-0.605c-0.444-0.404-0.666-0.921-0.666-1.549c0-0.369,0.084-0.705,0.252-1.01
			c0.167-0.306,0.387-0.55,0.659-0.734c0.271-0.184,0.577-0.323,0.918-0.418c0.25-0.066,0.628-0.13,1.134-0.191
			c1.03-0.123,1.788-0.27,2.275-0.439c0.004-0.175,0.007-0.286,0.007-0.333c0-0.52-0.12-0.886-0.361-1.099
			c-0.326-0.288-0.811-0.433-1.453-0.433c-0.601,0-1.043,0.105-1.329,0.315c-0.286,0.211-0.497,0.583-0.635,1.116l-1.247-0.17
			c0.113-0.533,0.3-0.965,0.56-1.293c0.26-0.329,0.636-0.581,1.127-0.759c0.492-0.177,1.062-0.266,1.709-0.266
			c0.643,0,1.164,0.075,1.566,0.227c0.401,0.151,0.696,0.342,0.886,0.57c0.188,0.229,0.321,0.52,0.396,0.869
			c0.043,0.217,0.064,0.609,0.064,1.176v1.701c0,1.187,0.026,1.937,0.081,2.251c0.055,0.313,0.162,0.615,0.322,0.903h-1.332
			C393.07,269.012,392.985,268.702,392.948,268.348z M392.842,265.499c-0.464,0.188-1.158,0.35-2.084,0.481
			c-0.524,0.076-0.896,0.161-1.113,0.255c-0.217,0.095-0.385,0.233-0.503,0.415s-0.177,0.384-0.177,0.606
			c0,0.34,0.128,0.623,0.386,0.85c0.258,0.228,0.635,0.341,1.131,0.341c0.491,0,0.929-0.107,1.311-0.322
			c0.383-0.216,0.664-0.51,0.844-0.883c0.137-0.288,0.206-0.714,0.206-1.275L392.842,265.499L392.842,265.499z"/>
		<path d="M400.993,269.276v-0.95c-0.478,0.747-1.18,1.12-2.105,1.12c-0.601,0-1.151-0.165-1.655-0.496
			c-0.503-0.33-0.893-0.792-1.169-1.386c-0.276-0.593-0.415-1.274-0.415-2.045c0-0.751,0.125-1.433,0.376-2.045
			c0.25-0.611,0.626-1.08,1.127-1.406s1.061-0.489,1.68-0.489c0.453,0,0.857,0.096,1.212,0.287s0.643,0.44,0.864,0.748v-3.729h1.27
			v10.391L400.993,269.276L400.993,269.276z M396.96,265.52c0,0.964,0.203,1.685,0.609,2.162s0.886,0.716,1.438,0.716
			c0.558,0,1.031-0.228,1.421-0.684c0.391-0.456,0.585-1.152,0.585-2.088c0-1.03-0.198-1.786-0.595-2.268s-0.887-0.724-1.468-0.724
			c-0.566,0-1.041,0.231-1.421,0.695S396.96,264.522,396.96,265.52z"/>
		<path d="M409.066,269.276v-0.95c-0.478,0.747-1.18,1.12-2.105,1.12c-0.601,0-1.151-0.165-1.655-0.496
			c-0.503-0.33-0.893-0.792-1.169-1.386c-0.276-0.593-0.415-1.274-0.415-2.045c0-0.751,0.125-1.433,0.376-2.045
			c0.25-0.611,0.626-1.08,1.127-1.406s1.061-0.489,1.68-0.489c0.453,0,0.857,0.096,1.212,0.287s0.643,0.44,0.864,0.748v-3.729h1.27
			v10.391L409.066,269.276L409.066,269.276z M405.033,265.52c0,0.964,0.203,1.685,0.609,2.162s0.886,0.716,1.438,0.716
			c0.558,0,1.031-0.228,1.421-0.684c0.391-0.456,0.585-1.152,0.585-2.088c0-1.03-0.198-1.786-0.595-2.268s-0.887-0.724-1.468-0.724
			c-0.566,0-1.041,0.231-1.421,0.695C405.223,263.793,405.033,264.522,405.033,265.52z"/>
		<path d="M412.263,260.353v-1.467h1.275v1.467H412.263z M412.263,269.276v-7.527h1.275v7.527H412.263z"/>
		<path d="M415.48,269.276v-7.527h1.148v1.07c0.553-0.827,1.351-1.24,2.396-1.24c0.453,0,0.87,0.081,1.251,0.244
			c0.38,0.163,0.665,0.377,0.854,0.642c0.189,0.265,0.321,0.579,0.397,0.942c0.047,0.236,0.07,0.65,0.07,1.241v4.628h-1.275v-4.579
			c0-0.52-0.05-0.908-0.148-1.166c-0.1-0.257-0.275-0.463-0.528-0.616s-0.55-0.23-0.89-0.23c-0.544,0-1.013,0.173-1.407,0.518
			s-0.592,0.999-0.592,1.963v4.111L415.48,269.276L415.48,269.276z"/>
		<path d="M423.319,269.9l1.24,0.184c0.053,0.383,0.196,0.662,0.433,0.837c0.316,0.236,0.749,0.354,1.297,0.354
			c0.591,0,1.047-0.118,1.368-0.354s0.539-0.567,0.652-0.992c0.066-0.26,0.097-0.806,0.092-1.638
			c-0.558,0.657-1.252,0.985-2.084,0.985c-1.034,0-1.835-0.373-2.402-1.12c-0.567-0.746-0.851-1.642-0.851-2.686
			c0-0.719,0.13-1.382,0.39-1.988c0.26-0.607,0.637-1.076,1.131-1.407c0.493-0.331,1.073-0.496,1.74-0.496
			c0.888,0,1.62,0.359,2.197,1.077v-0.907h1.176v6.507c0,1.172-0.119,2.002-0.357,2.491c-0.239,0.489-0.617,0.875-1.134,1.159
			c-0.518,0.283-1.154,0.425-1.91,0.425c-0.898,0-1.623-0.202-2.177-0.605C423.567,271.321,423.301,270.713,423.319,269.9z
			 M424.376,265.378c0,0.988,0.195,1.708,0.588,2.162c0.393,0.453,0.884,0.681,1.475,0.681c0.586,0,1.077-0.226,1.474-0.678
			c0.397-0.451,0.596-1.158,0.596-2.122c0-0.922-0.204-1.616-0.613-2.084c-0.408-0.468-0.901-0.702-1.478-0.702
			c-0.567,0-1.049,0.23-1.446,0.691C424.574,263.787,424.376,264.471,424.376,265.378z"/>
	</g>
	<g>
		<path d="M223.193,429.953l3.99-10.391h1.481l4.253,10.391h-1.566l-1.212-3.147h-4.345l-1.142,3.147H223.193z M226.191,425.687
			h3.522l-1.084-2.878c-0.331-0.874-0.576-1.592-0.737-2.154c-0.132,0.666-0.318,1.327-0.56,1.984L226.191,425.687z"/>
		<path d="M233.854,429.953v-7.527h1.148v1.07c0.553-0.827,1.351-1.24,2.396-1.24c0.453,0,0.87,0.081,1.251,0.244
			c0.38,0.163,0.665,0.377,0.854,0.642c0.189,0.265,0.321,0.579,0.397,0.942c0.047,0.236,0.07,0.65,0.07,1.241v4.628h-1.275v-4.579
			c0-0.52-0.05-0.908-0.148-1.166c-0.1-0.257-0.275-0.463-0.528-0.616s-0.55-0.23-0.89-0.23c-0.544,0-1.013,0.173-1.407,0.518
			s-0.592,0.999-0.592,1.963v4.111L233.854,429.953L233.854,429.953z"/>
		<path d="M246.839,427.196l1.254,0.163c-0.137,0.864-0.487,1.541-1.053,2.03c-0.564,0.489-1.258,0.733-2.08,0.733
			c-1.03,0-1.858-0.337-2.484-1.01c-0.626-0.674-0.938-1.639-0.938-2.896c0-0.813,0.135-1.523,0.403-2.134
			c0.27-0.609,0.68-1.066,1.23-1.371s1.148-0.457,1.796-0.457c0.817,0,1.486,0.207,2.006,0.62c0.521,0.413,0.854,1.001,1,1.762
			l-1.24,0.191c-0.118-0.506-0.327-0.887-0.628-1.142c-0.3-0.255-0.662-0.383-1.088-0.383c-0.643,0-1.165,0.23-1.566,0.691
			s-0.603,1.189-0.603,2.187c0,1.011,0.194,1.746,0.581,2.204c0.388,0.458,0.894,0.688,1.518,0.688c0.5,0,0.919-0.153,1.254-0.461
			C246.536,428.307,246.749,427.834,246.839,427.196z"/>
		<path d="M249.185,429.953v-10.391h1.275v3.729c0.596-0.69,1.347-1.035,2.254-1.035c0.558,0,1.042,0.109,1.453,0.329
			s0.705,0.523,0.883,0.911c0.177,0.388,0.266,0.95,0.266,1.687v4.771h-1.276v-4.771c0-0.638-0.138-1.102-0.414-1.393
			c-0.276-0.29-0.668-0.436-1.173-0.436c-0.378,0-0.733,0.098-1.067,0.294c-0.333,0.196-0.57,0.462-0.712,0.798
			c-0.142,0.335-0.213,0.798-0.213,1.389v4.118L249.185,429.953L249.185,429.953z"/>
		<path d="M256.783,426.189c0-1.394,0.387-2.427,1.162-3.098c0.647-0.558,1.437-0.836,2.367-0.836c1.035,0,1.881,0.339,2.537,1.017
			c0.657,0.679,0.985,1.615,0.985,2.811c0,0.969-0.146,1.73-0.436,2.286c-0.291,0.555-0.714,0.986-1.269,1.293
			c-0.556,0.308-1.162,0.461-1.818,0.461c-1.054,0-1.905-0.338-2.556-1.014C257.107,428.434,256.783,427.461,256.783,426.189z
			 M258.094,426.189c0,0.964,0.21,1.686,0.631,2.165c0.421,0.48,0.95,0.72,1.588,0.72c0.633,0,1.16-0.241,1.58-0.723
			c0.421-0.482,0.631-1.217,0.631-2.204c0-0.932-0.211-1.637-0.634-2.116s-0.949-0.72-1.577-0.72c-0.638,0-1.167,0.239-1.588,0.716
			C258.304,424.505,258.094,425.226,258.094,426.189z"/>
		<path d="M271.803,433.008c-0.704-0.889-1.3-1.928-1.786-3.118c-0.487-1.191-0.73-2.425-0.73-3.7c0-1.124,0.182-2.202,0.546-3.232
			c0.425-1.195,1.082-2.386,1.971-3.572h0.914c-0.572,0.983-0.95,1.685-1.134,2.105c-0.289,0.652-0.516,1.333-0.681,2.041
			c-0.203,0.884-0.305,1.772-0.305,2.665c0,2.273,0.706,4.544,2.119,6.812h-0.914V433.008z"/>
		<path d="M275.587,429.953l-2.303-7.527h1.318l1.197,4.345l0.446,1.616c0.02-0.08,0.149-0.598,0.391-1.552l1.197-4.409h1.312
			l1.127,4.366l0.375,1.438l0.433-1.453l1.29-4.352h1.24l-2.353,7.527h-1.326l-1.197-4.508l-0.291-1.283l-1.523,5.791h-1.333
			V429.953z"/>
		<path d="M284.688,421.029v-1.467h1.275v1.467H284.688z M284.688,429.953v-7.527h1.275v7.527H284.688z"/>
		<path d="M292.789,429.953v-0.95c-0.478,0.747-1.18,1.12-2.105,1.12c-0.601,0-1.151-0.165-1.655-0.496
			c-0.503-0.33-0.893-0.792-1.169-1.386c-0.276-0.593-0.415-1.274-0.415-2.045c0-0.751,0.125-1.433,0.376-2.045
			c0.25-0.611,0.626-1.08,1.127-1.406s1.061-0.489,1.68-0.489c0.453,0,0.857,0.096,1.212,0.287s0.643,0.44,0.864,0.748v-3.729h1.27
			v10.391L292.789,429.953L292.789,429.953z M288.756,426.196c0,0.964,0.203,1.685,0.609,2.162s0.886,0.716,1.438,0.716
			c0.558,0,1.031-0.228,1.421-0.684c0.391-0.456,0.585-1.152,0.585-2.088c0-1.03-0.198-1.786-0.595-2.268s-0.887-0.724-1.468-0.724
			c-0.566,0-1.041,0.231-1.421,0.695C288.945,424.47,288.756,425.199,288.756,426.196z"/>
		<path d="M298.764,428.812l0.185,1.127c-0.359,0.076-0.681,0.114-0.964,0.114c-0.463,0-0.822-0.073-1.077-0.22
			c-0.256-0.146-0.436-0.34-0.539-0.578s-0.156-0.74-0.156-1.506v-4.331h-0.936v-0.992h0.936v-1.864l1.269-0.766v2.63h1.283v0.992
			h-1.283v4.401c0,0.364,0.022,0.599,0.067,0.702s0.118,0.187,0.22,0.248s0.247,0.092,0.437,0.092
			C298.346,428.861,298.532,428.845,298.764,428.812z"/>
		<path d="M300.012,429.953v-10.391h1.275v3.729c0.596-0.69,1.347-1.035,2.254-1.035c0.558,0,1.042,0.109,1.453,0.329
			s0.705,0.523,0.883,0.911c0.177,0.388,0.266,0.95,0.266,1.687v4.771h-1.276v-4.771c0-0.638-0.138-1.102-0.414-1.393
			c-0.276-0.29-0.668-0.436-1.173-0.436c-0.378,0-0.733,0.098-1.067,0.294c-0.333,0.196-0.57,0.462-0.712,0.798
			c-0.142,0.335-0.213,0.798-0.213,1.389v4.118L300.012,429.953L300.012,429.953z"/>
		<path d="M308.921,433.008h-0.914c1.413-2.268,2.119-4.538,2.119-6.812c0-0.888-0.102-1.77-0.305-2.644
			c-0.161-0.709-0.385-1.389-0.674-2.041c-0.184-0.426-0.564-1.134-1.141-2.127h0.914c0.889,1.187,1.545,2.377,1.971,3.572
			c0.363,1.03,0.546,2.108,0.546,3.232c0,1.275-0.245,2.509-0.733,3.7C310.215,431.08,309.62,432.119,308.921,433.008z"/>
	</g>
	<g>
		<path d="M372.496,299.482l10.391,3.99v1.481l-10.391,4.253v-1.566l3.147-1.212v-4.345l-3.147-1.142V299.482z M376.763,302.48
			v3.522l2.878-1.084c0.874-0.331,1.592-0.576,2.154-0.737c-0.666-0.132-1.327-0.318-1.984-0.56L376.763,302.48z"/>
		<path d="M372.496,310.143h7.527v1.148h-1.07c0.827,0.553,1.24,1.351,1.24,2.396c0,0.453-0.081,0.87-0.244,1.251
			c-0.163,0.38-0.377,0.665-0.642,0.854c-0.265,0.189-0.579,0.321-0.942,0.397c-0.236,0.047-0.65,0.07-1.241,0.07h-4.628v-1.275
			h4.579c0.52,0,0.908-0.05,1.166-0.148c0.257-0.1,0.463-0.275,0.616-0.528s0.23-0.55,0.23-0.89c0-0.544-0.173-1.013-0.518-1.407
			s-0.999-0.592-1.963-0.592h-4.111L372.496,310.143L372.496,310.143z"/>
		<path d="M375.253,323.128l-0.163,1.254c-0.864-0.137-1.541-0.487-2.03-1.053c-0.489-0.564-0.733-1.258-0.733-2.08
			c0-1.03,0.337-1.858,1.01-2.484c0.674-0.626,1.639-0.938,2.896-0.938c0.813,0,1.523,0.135,2.134,0.403
			c0.609,0.27,1.066,0.68,1.371,1.23c0.305,0.55,0.457,1.148,0.457,1.796c0,0.817-0.207,1.486-0.62,2.006
			c-0.413,0.521-1.001,0.854-1.762,1l-0.191-1.24c0.506-0.118,0.887-0.327,1.142-0.628c0.255-0.3,0.383-0.662,0.383-1.088
			c0-0.643-0.23-1.165-0.691-1.566s-1.189-0.603-2.187-0.603c-1.011,0-1.746,0.194-2.204,0.581
			c-0.458,0.388-0.688,0.894-0.688,1.518c0,0.5,0.153,0.919,0.461,1.254C374.143,322.825,374.615,323.038,375.253,323.128z"/>
		<path d="M372.496,325.474h10.391v1.275h-3.729c0.69,0.596,1.035,1.347,1.035,2.254c0,0.558-0.109,1.042-0.329,1.453
			s-0.523,0.705-0.911,0.883c-0.388,0.177-0.95,0.266-1.687,0.266h-4.771v-1.276h4.771c0.638,0,1.102-0.138,1.393-0.414
			c0.29-0.276,0.436-0.668,0.436-1.173c0-0.378-0.098-0.733-0.294-1.067c-0.196-0.333-0.462-0.57-0.798-0.712
			c-0.335-0.142-0.798-0.213-1.389-0.213h-4.118L372.496,325.474L372.496,325.474z"/>
		<path d="M376.26,333.072c1.394,0,2.427,0.387,3.098,1.162c0.558,0.647,0.836,1.437,0.836,2.367c0,1.035-0.339,1.881-1.017,2.537
			c-0.679,0.657-1.615,0.985-2.811,0.985c-0.969,0-1.73-0.146-2.286-0.436c-0.555-0.291-0.986-0.714-1.293-1.269
			c-0.308-0.556-0.461-1.162-0.461-1.818c0-1.054,0.338-1.905,1.014-2.556C374.016,333.396,374.988,333.072,376.26,333.072z
			 M376.26,334.383c-0.964,0-1.686,0.21-2.165,0.631c-0.48,0.421-0.72,0.95-0.72,1.588c0,0.633,0.241,1.16,0.723,1.58
			c0.482,0.421,1.217,0.631,2.204,0.631c0.932,0,1.637-0.211,2.116-0.634s0.72-0.949,0.72-1.577c0-0.638-0.239-1.167-0.716-1.588
			C377.944,334.593,377.224,334.383,376.26,334.383z"/>
		<path d="M369.441,348.092c0.889-0.704,1.928-1.3,3.118-1.786c1.191-0.487,2.425-0.73,3.7-0.73c1.124,0,2.202,0.182,3.232,0.546
			c1.195,0.425,2.386,1.082,3.572,1.971v0.914c-0.983-0.572-1.685-0.95-2.105-1.134c-0.652-0.289-1.333-0.516-2.041-0.681
			c-0.884-0.203-1.772-0.305-2.665-0.305c-2.273,0-4.544,0.706-6.812,2.119v-0.914H369.441z"/>
		<path d="M372.496,350.487h10.391v1.275h-3.729c0.69,0.596,1.035,1.347,1.035,2.254c0,0.558-0.109,1.042-0.329,1.453
			s-0.523,0.705-0.911,0.883c-0.388,0.177-0.95,0.266-1.687,0.266h-4.771v-1.276h4.771c0.638,0,1.102-0.138,1.393-0.414
			c0.29-0.276,0.436-0.668,0.436-1.173c0-0.378-0.098-0.733-0.294-1.067c-0.196-0.333-0.462-0.57-0.798-0.712
			c-0.335-0.142-0.798-0.213-1.389-0.213h-4.118L372.496,350.487L372.496,350.487z"/>
		<path d="M374.92,363.713l-0.163,1.318c-0.77-0.208-1.368-0.593-1.793-1.155s-0.638-1.28-0.638-2.154
			c0-1.102,0.339-1.974,1.017-2.619c0.679-0.645,1.629-0.968,2.854-0.968c1.266,0,2.249,0.326,2.948,0.979s1.049,1.498,1.049,2.537
			c0,1.007-0.343,1.829-1.027,2.467c-0.686,0.638-1.649,0.957-2.893,0.957c-0.075,0-0.188-0.003-0.34-0.007v-5.614
			c-0.827,0.048-1.46,0.281-1.899,0.702c-0.439,0.42-0.659,0.945-0.659,1.573c0,0.468,0.123,0.867,0.368,1.198
			C373.989,363.257,374.382,363.52,374.92,363.713z M376.982,359.524v4.203c0.634-0.057,1.108-0.218,1.425-0.482
			c0.491-0.406,0.737-0.933,0.737-1.58c0-0.586-0.196-1.079-0.589-1.478C378.164,359.788,377.64,359.566,376.982,359.524z"/>
		<path d="M372.496,366.641h7.527v1.275h-7.527V366.641z M381.42,366.641h1.467v1.275h-1.467V366.641z"/>
		<path d="M371.872,369.624l-0.184,1.24c-0.383,0.053-0.662,0.196-0.837,0.433c-0.236,0.316-0.354,0.749-0.354,1.297
			c0,0.591,0.118,1.047,0.354,1.368s0.567,0.539,0.992,0.652c0.26,0.066,0.806,0.097,1.638,0.092
			c-0.657-0.558-0.985-1.252-0.985-2.084c0-1.034,0.373-1.835,1.12-2.402c0.746-0.567,1.642-0.851,2.686-0.851
			c0.719,0,1.382,0.13,1.988,0.39c0.607,0.26,1.076,0.637,1.407,1.131c0.331,0.493,0.496,1.073,0.496,1.74
			c0,0.888-0.359,1.62-1.077,2.197h0.907v1.176h-6.507c-1.172,0-2.002-0.119-2.491-0.357c-0.489-0.239-0.875-0.617-1.159-1.134
			c-0.283-0.518-0.425-1.154-0.425-1.91c0-0.898,0.202-1.623,0.605-2.177C370.451,369.872,371.06,369.605,371.872,369.624z
			 M376.395,370.681c-0.988,0-1.708,0.195-2.162,0.588c-0.453,0.393-0.681,0.884-0.681,1.475c0,0.586,0.226,1.077,0.678,1.474
			c0.451,0.397,1.158,0.596,2.122,0.596c0.922,0,1.616-0.204,2.084-0.613c0.468-0.408,0.702-0.901,0.702-1.478
			c0-0.567-0.23-1.049-0.691-1.446C377.985,370.879,377.302,370.681,376.395,370.681z"/>
		<path d="M372.496,377.932h10.391v1.275h-3.729c0.69,0.596,1.035,1.347,1.035,2.254c0,0.558-0.109,1.042-0.329,1.453
			s-0.523,0.705-0.911,0.883c-0.388,0.177-0.95,0.266-1.687,0.266h-4.771v-1.276h4.771c0.638,0,1.102-0.138,1.393-0.414
			c0.29-0.276,0.436-0.668,0.436-1.173c0-0.378-0.098-0.733-0.294-1.067c-0.196-0.333-0.462-0.57-0.798-0.712
			c-0.335-0.142-0.798-0.213-1.389-0.213h-4.118L372.496,377.932L372.496,377.932z"/>
		<path d="M373.638,388.79l-1.127,0.185c-0.076-0.359-0.114-0.681-0.114-0.964c0-0.463,0.073-0.822,0.22-1.077
			c0.146-0.256,0.34-0.436,0.578-0.539s0.74-0.156,1.506-0.156h4.331v-0.936h0.992v0.936h1.864l0.766,1.269h-2.63v1.283h-0.992
			v-1.283h-4.401c-0.364,0-0.599,0.022-0.702,0.067s-0.187,0.118-0.248,0.22s-0.092,0.247-0.092,0.437
			C373.588,388.372,373.604,388.559,373.638,388.79z"/>
		<path d="M369.441,390.874v-0.914c2.268,1.413,4.538,2.119,6.812,2.119c0.888,0,1.77-0.102,2.644-0.305
			c0.709-0.161,1.389-0.385,2.041-0.674c0.426-0.184,1.134-0.564,2.127-1.141v0.914c-1.187,0.889-2.377,1.545-3.572,1.971
			c-1.03,0.363-2.108,0.546-3.232,0.546c-1.275,0-2.509-0.245-3.7-0.733C371.369,392.168,370.33,391.573,369.441,390.874z"/>
	</g>
	<g>
		<path d="M63.625,367.317v-10.391h3.919c0.69,0,1.217,0.033,1.581,0.1c0.51,0.085,0.938,0.246,1.283,0.485
			c0.345,0.238,0.622,0.572,0.832,1.003c0.211,0.43,0.315,0.902,0.315,1.417c0,0.884-0.281,1.632-0.843,2.243
			c-0.563,0.612-1.578,0.918-3.048,0.918H65v4.225H63.625z M65,361.867h2.687c0.888,0,1.519-0.166,1.892-0.496
			c0.374-0.331,0.561-0.797,0.561-1.396c0-0.435-0.11-0.807-0.33-1.116s-0.509-0.514-0.868-0.613
			c-0.231-0.062-0.659-0.092-1.283-0.092H65V361.867z"/>
		<path d="M78.056,366.389c-0.473,0.402-0.928,0.686-1.365,0.851s-0.905,0.248-1.406,0.248c-0.827,0-1.463-0.202-1.907-0.605
			c-0.444-0.404-0.666-0.921-0.666-1.549c0-0.369,0.084-0.705,0.252-1.01c0.167-0.306,0.387-0.55,0.659-0.734
			c0.271-0.184,0.577-0.323,0.918-0.418c0.25-0.066,0.628-0.13,1.134-0.191c1.03-0.123,1.788-0.27,2.275-0.439
			c0.004-0.175,0.007-0.286,0.007-0.333c0-0.52-0.12-0.886-0.361-1.099c-0.326-0.288-0.811-0.433-1.453-0.433
			c-0.601,0-1.043,0.105-1.329,0.315c-0.286,0.211-0.497,0.583-0.635,1.116l-1.247-0.17c0.113-0.533,0.3-0.965,0.56-1.293
			c0.26-0.329,0.636-0.581,1.127-0.759c0.492-0.177,1.062-0.266,1.709-0.266c0.643,0,1.164,0.075,1.566,0.227
			c0.401,0.151,0.696,0.342,0.886,0.57c0.188,0.229,0.321,0.52,0.396,0.869c0.043,0.217,0.064,0.609,0.064,1.176v1.701
			c0,1.187,0.026,1.937,0.081,2.251c0.055,0.313,0.162,0.615,0.322,0.903h-1.332C78.178,367.053,78.093,366.743,78.056,366.389z
			 M77.949,363.54c-0.464,0.188-1.158,0.35-2.084,0.481c-0.524,0.076-0.896,0.161-1.113,0.255c-0.217,0.095-0.385,0.233-0.503,0.415
			s-0.177,0.384-0.177,0.606c0,0.34,0.128,0.623,0.386,0.85c0.258,0.228,0.635,0.341,1.131,0.341c0.491,0,0.929-0.107,1.311-0.322
			c0.383-0.216,0.664-0.51,0.844-0.883c0.137-0.288,0.206-0.714,0.206-1.275L77.949,363.54L77.949,363.54z"/>
		<path d="M86.101,367.317v-0.95c-0.478,0.747-1.18,1.12-2.105,1.12c-0.601,0-1.151-0.165-1.655-0.496
			c-0.503-0.33-0.893-0.792-1.169-1.386c-0.276-0.593-0.415-1.274-0.415-2.045c0-0.751,0.125-1.433,0.376-2.045
			c0.25-0.611,0.626-1.08,1.127-1.406s1.061-0.489,1.68-0.489c0.453,0,0.857,0.096,1.212,0.287s0.643,0.44,0.864,0.748v-3.729h1.27
			v10.391L86.101,367.317L86.101,367.317z M82.067,363.561c0,0.964,0.203,1.685,0.609,2.162s0.886,0.716,1.438,0.716
			c0.558,0,1.031-0.228,1.421-0.684c0.391-0.456,0.585-1.152,0.585-2.088c0-1.03-0.198-1.786-0.595-2.268s-0.887-0.724-1.468-0.724
			c-0.566,0-1.041,0.231-1.421,0.695C82.257,361.834,82.067,362.563,82.067,363.561z"/>
		<path d="M94.174,367.317v-0.95c-0.478,0.747-1.18,1.12-2.105,1.12c-0.601,0-1.151-0.165-1.655-0.496
			c-0.503-0.33-0.893-0.792-1.169-1.386c-0.276-0.593-0.415-1.274-0.415-2.045c0-0.751,0.125-1.433,0.376-2.045
			c0.25-0.611,0.626-1.08,1.127-1.406s1.061-0.489,1.68-0.489c0.453,0,0.857,0.096,1.212,0.287s0.643,0.44,0.864,0.748v-3.729h1.27
			v10.391L94.174,367.317L94.174,367.317z M90.141,363.561c0,0.964,0.203,1.685,0.609,2.162s0.886,0.716,1.438,0.716
			c0.558,0,1.031-0.228,1.421-0.684c0.391-0.456,0.585-1.152,0.585-2.088c0-1.03-0.198-1.786-0.595-2.268s-0.887-0.724-1.468-0.724
			c-0.566,0-1.041,0.231-1.421,0.695S90.141,362.563,90.141,363.561z"/>
		<path d="M97.37,358.394v-1.467h1.275v1.467H97.37z M97.37,367.317v-7.527h1.275v7.527H97.37z"/>
		<path d="M100.588,367.317v-7.527h1.148v1.07c0.553-0.827,1.351-1.24,2.396-1.24c0.453,0,0.87,0.081,1.251,0.244
			c0.38,0.163,0.665,0.377,0.854,0.642c0.189,0.265,0.321,0.579,0.397,0.942c0.047,0.236,0.07,0.65,0.07,1.241v4.628h-1.275v-4.579
			c0-0.52-0.05-0.908-0.148-1.166c-0.1-0.257-0.275-0.463-0.528-0.616s-0.55-0.23-0.89-0.23c-0.544,0-1.013,0.173-1.407,0.518
			s-0.592,0.999-0.592,1.963v4.111L100.588,367.317L100.588,367.317z"/>
		<path d="M108.427,367.941l1.24,0.184c0.053,0.383,0.196,0.662,0.433,0.837c0.316,0.236,0.749,0.354,1.297,0.354
			c0.591,0,1.047-0.118,1.368-0.354s0.539-0.567,0.652-0.992c0.066-0.26,0.097-0.806,0.092-1.638
			c-0.558,0.657-1.252,0.985-2.084,0.985c-1.034,0-1.835-0.373-2.402-1.12c-0.567-0.746-0.851-1.642-0.851-2.686
			c0-0.719,0.13-1.382,0.39-1.988c0.26-0.607,0.637-1.076,1.131-1.407c0.493-0.331,1.073-0.496,1.74-0.496
			c0.888,0,1.62,0.359,2.197,1.077v-0.907h1.176v6.507c0,1.172-0.119,2.002-0.357,2.491c-0.239,0.489-0.617,0.875-1.134,1.159
			c-0.518,0.283-1.154,0.425-1.91,0.425c-0.898,0-1.623-0.202-2.177-0.605C108.675,369.362,108.408,368.754,108.427,367.941z
			 M109.483,363.419c0,0.988,0.195,1.708,0.588,2.162c0.393,0.453,0.884,0.681,1.475,0.681c0.586,0,1.077-0.226,1.474-0.678
			c0.397-0.451,0.596-1.158,0.596-2.122c0-0.922-0.204-1.616-0.613-2.084c-0.408-0.468-0.901-0.702-1.478-0.702
			c-0.567,0-1.049,0.23-1.446,0.691C109.682,361.828,109.483,362.512,109.483,363.419z"/>
	</g>
	<g>
		<path d="M61.002,447.249v-10.391H64.9c0.793,0,1.43,0.105,1.91,0.315c0.479,0.21,0.854,0.534,1.127,0.971
			c0.271,0.438,0.407,0.895,0.407,1.372c0,0.444-0.121,0.862-0.361,1.254c-0.241,0.393-0.605,0.709-1.092,0.95
			c0.628,0.185,1.111,0.498,1.449,0.942s0.507,0.969,0.507,1.573c0,0.487-0.103,0.939-0.309,1.357
			c-0.205,0.418-0.459,0.741-0.762,0.968c-0.302,0.227-0.682,0.398-1.138,0.514s-1.015,0.174-1.676,0.174L61.002,447.249
			L61.002,447.249z M62.377,441.225h2.246c0.61,0,1.047-0.04,1.312-0.121c0.35-0.104,0.613-0.276,0.79-0.517
			c0.178-0.241,0.267-0.544,0.267-0.907c0-0.346-0.083-0.649-0.248-0.911c-0.166-0.263-0.402-0.441-0.709-0.539
			c-0.308-0.097-0.834-0.145-1.581-0.145h-2.076L62.377,441.225L62.377,441.225z M62.377,446.022h2.587
			c0.444,0,0.756-0.017,0.936-0.049c0.316-0.057,0.581-0.151,0.794-0.284c0.213-0.132,0.387-0.324,0.524-0.577
			s0.205-0.545,0.205-0.876c0-0.387-0.099-0.724-0.297-1.01c-0.199-0.286-0.475-0.486-0.826-0.603
			c-0.353-0.115-0.858-0.174-1.521-0.174h-2.402V446.022z"/>
		<path d="M75.489,446.32c-0.473,0.402-0.928,0.686-1.365,0.851s-0.905,0.248-1.406,0.248c-0.827,0-1.463-0.202-1.907-0.605
			c-0.444-0.404-0.666-0.921-0.666-1.549c0-0.369,0.084-0.705,0.252-1.01c0.167-0.306,0.387-0.55,0.659-0.734
			c0.271-0.184,0.577-0.323,0.918-0.418c0.25-0.066,0.628-0.13,1.134-0.191c1.03-0.123,1.788-0.27,2.275-0.439
			c0.004-0.175,0.007-0.286,0.007-0.333c0-0.52-0.12-0.886-0.361-1.099c-0.326-0.288-0.811-0.433-1.453-0.433
			c-0.601,0-1.043,0.105-1.329,0.315c-0.286,0.211-0.497,0.583-0.635,1.116l-1.247-0.17c0.113-0.533,0.3-0.965,0.56-1.293
			c0.26-0.329,0.636-0.581,1.127-0.759c0.492-0.177,1.062-0.266,1.709-0.266c0.643,0,1.164,0.075,1.566,0.227
			c0.401,0.151,0.696,0.342,0.886,0.57c0.188,0.229,0.321,0.52,0.396,0.869c0.043,0.217,0.064,0.609,0.064,1.176v1.701
			c0,1.187,0.026,1.937,0.081,2.251c0.055,0.313,0.162,0.615,0.322,0.903h-1.332C75.611,446.984,75.526,446.675,75.489,446.32z
			 M75.383,443.472c-0.464,0.188-1.158,0.35-2.084,0.481c-0.524,0.076-0.896,0.161-1.113,0.255
			c-0.217,0.095-0.385,0.233-0.503,0.415s-0.177,0.384-0.177,0.606c0,0.34,0.128,0.623,0.386,0.85
			c0.258,0.228,0.635,0.341,1.131,0.341c0.491,0,0.929-0.107,1.311-0.322c0.383-0.216,0.664-0.51,0.844-0.883
			c0.137-0.288,0.206-0.714,0.206-1.275L75.383,443.472L75.383,443.472z"/>
		<path d="M83.563,444.492l1.254,0.163c-0.137,0.864-0.487,1.541-1.053,2.03c-0.564,0.489-1.258,0.733-2.08,0.733
			c-1.03,0-1.858-0.337-2.484-1.01c-0.626-0.674-0.938-1.639-0.938-2.896c0-0.813,0.135-1.523,0.403-2.134
			c0.27-0.609,0.68-1.066,1.23-1.371s1.148-0.457,1.796-0.457c0.817,0,1.486,0.207,2.006,0.62c0.521,0.413,0.854,1.001,1,1.762
			l-1.24,0.191c-0.118-0.506-0.327-0.887-0.628-1.142c-0.3-0.255-0.662-0.383-1.088-0.383c-0.643,0-1.165,0.23-1.566,0.691
			s-0.603,1.189-0.603,2.187c0,1.011,0.194,1.746,0.581,2.204c0.388,0.458,0.894,0.688,1.518,0.688c0.5,0,0.919-0.153,1.254-0.461
			C83.26,445.603,83.473,445.13,83.563,444.492z"/>
		<path d="M85.915,447.249v-10.391h1.275v5.926l3.02-3.063h1.651l-2.877,2.793l3.168,4.734h-1.573l-2.488-3.849l-0.9,0.864v2.984
			h-1.276V447.249z"/>
		<path d="M92.932,447.873l1.24,0.184c0.053,0.383,0.196,0.662,0.433,0.837c0.316,0.236,0.749,0.354,1.297,0.354
			c0.591,0,1.047-0.118,1.368-0.354s0.539-0.567,0.652-0.992c0.066-0.26,0.097-0.806,0.092-1.638
			c-0.558,0.657-1.252,0.985-2.084,0.985c-1.034,0-1.835-0.373-2.402-1.12c-0.567-0.746-0.851-1.642-0.851-2.686
			c0-0.719,0.13-1.382,0.39-1.988c0.26-0.607,0.637-1.076,1.131-1.407c0.493-0.331,1.073-0.496,1.74-0.496
			c0.888,0,1.62,0.359,2.197,1.077v-0.907h1.176v6.507c0,1.172-0.119,2.002-0.357,2.491c-0.239,0.489-0.617,0.875-1.134,1.159
			c-0.518,0.283-1.154,0.425-1.91,0.425c-0.898,0-1.623-0.202-2.177-0.605C93.18,449.294,92.913,448.686,92.932,447.873z
			 M93.988,443.351c0,0.988,0.195,1.708,0.588,2.162c0.393,0.453,0.884,0.681,1.475,0.681c0.586,0,1.077-0.226,1.474-0.678
			c0.397-0.451,0.596-1.158,0.596-2.122c0-0.922-0.204-1.616-0.613-2.084c-0.408-0.468-0.901-0.702-1.478-0.702
			c-0.567,0-1.049,0.23-1.446,0.691C94.187,441.76,93.988,442.443,93.988,443.351z"/>
		<path d="M101.225,447.249v-7.527h1.148v1.142c0.293-0.534,0.563-0.887,0.812-1.057s0.521-0.255,0.818-0.255
			c0.431,0,0.867,0.137,1.312,0.411l-0.439,1.184c-0.312-0.185-0.624-0.276-0.936-0.276c-0.278,0-0.529,0.084-0.751,0.252
			c-0.223,0.167-0.381,0.4-0.476,0.697c-0.142,0.454-0.212,0.95-0.212,1.489v3.94H101.225z"/>
		<path d="M105.599,443.485c0-1.394,0.387-2.427,1.162-3.098c0.647-0.558,1.437-0.836,2.367-0.836c1.035,0,1.881,0.339,2.537,1.017
			c0.657,0.679,0.985,1.615,0.985,2.811c0,0.969-0.146,1.73-0.436,2.286c-0.291,0.555-0.714,0.986-1.269,1.293
			c-0.556,0.308-1.162,0.461-1.818,0.461c-1.054,0-1.905-0.338-2.556-1.014C105.923,445.729,105.599,444.757,105.599,443.485z
			 M106.909,443.485c0,0.964,0.21,1.686,0.631,2.165c0.421,0.48,0.95,0.72,1.588,0.72c0.633,0,1.16-0.241,1.58-0.723
			c0.421-0.482,0.631-1.217,0.631-2.204c0-0.932-0.211-1.637-0.634-2.116s-0.949-0.72-1.577-0.72c-0.638,0-1.167,0.239-1.588,0.716
			C107.119,441.801,106.909,442.521,106.909,443.485z"/>
		<path d="M119.079,447.249v-1.105c-0.586,0.851-1.382,1.275-2.389,1.275c-0.443,0-0.858-0.085-1.243-0.255
			c-0.386-0.17-0.671-0.384-0.858-0.642c-0.187-0.258-0.317-0.573-0.393-0.946c-0.053-0.25-0.078-0.647-0.078-1.19v-4.664h1.275
			v4.175c0,0.666,0.026,1.115,0.078,1.347c0.08,0.336,0.25,0.599,0.511,0.79c0.26,0.191,0.581,0.287,0.964,0.287
			s0.741-0.098,1.077-0.294c0.335-0.196,0.573-0.463,0.712-0.801c0.14-0.338,0.209-0.828,0.209-1.471v-4.033h1.276v7.527
			L119.079,447.249L119.079,447.249z"/>
		<path d="M122.22,447.249v-7.527h1.148v1.07c0.553-0.827,1.351-1.24,2.396-1.24c0.453,0,0.87,0.081,1.251,0.244
			c0.38,0.163,0.665,0.377,0.854,0.642c0.189,0.265,0.321,0.579,0.397,0.942c0.047,0.236,0.07,0.65,0.07,1.241v4.628h-1.275v-4.579
			c0-0.52-0.05-0.908-0.148-1.166c-0.1-0.257-0.275-0.463-0.528-0.616s-0.55-0.23-0.89-0.23c-0.544,0-1.013,0.173-1.407,0.518
			s-0.592,0.999-0.592,1.963v4.111L122.22,447.249L122.22,447.249z"/>
		<path d="M135.177,447.249v-0.95c-0.478,0.747-1.18,1.12-2.105,1.12c-0.601,0-1.151-0.165-1.655-0.496
			c-0.503-0.33-0.893-0.792-1.169-1.386c-0.276-0.593-0.415-1.274-0.415-2.045c0-0.751,0.125-1.433,0.376-2.045
			c0.25-0.611,0.626-1.08,1.127-1.406s1.061-0.489,1.68-0.489c0.453,0,0.857,0.096,1.212,0.287s0.643,0.44,0.864,0.748v-3.729h1.27
			v10.391L135.177,447.249L135.177,447.249z M131.144,443.492c0,0.964,0.203,1.685,0.609,2.162s0.886,0.716,1.438,0.716
			c0.558,0,1.031-0.228,1.421-0.684c0.391-0.456,0.585-1.152,0.585-2.088c0-1.03-0.198-1.786-0.595-2.268s-0.887-0.724-1.468-0.724
			c-0.566,0-1.041,0.231-1.421,0.695C131.333,441.766,131.144,442.495,131.144,443.492z"/>
	</g>
	<g>
		<path d="M30.004,241.455v-10.391h2.07l2.459,7.357c0.227,0.685,0.393,1.197,0.496,1.538c0.118-0.378,0.303-0.934,0.553-1.666
			l2.488-7.229h1.85v10.391h-1.325v-8.696l-3.02,8.696h-1.24l-3.006-8.846v8.846L30.004,241.455L30.004,241.455z"/>
		<path d="M46.888,240.526c-0.473,0.402-0.928,0.686-1.365,0.851s-0.905,0.248-1.406,0.248c-0.827,0-1.463-0.202-1.907-0.605
			c-0.444-0.404-0.666-0.921-0.666-1.549c0-0.369,0.084-0.705,0.252-1.01c0.167-0.306,0.387-0.55,0.659-0.734
			c0.271-0.184,0.577-0.323,0.918-0.418c0.25-0.066,0.628-0.13,1.134-0.191c1.03-0.123,1.788-0.27,2.275-0.439
			c0.004-0.175,0.007-0.286,0.007-0.333c0-0.52-0.12-0.886-0.361-1.099c-0.326-0.288-0.811-0.433-1.453-0.433
			c-0.601,0-1.043,0.105-1.329,0.315c-0.286,0.211-0.497,0.583-0.635,1.116l-1.247-0.17c0.113-0.533,0.3-0.965,0.56-1.293
			c0.26-0.329,0.636-0.581,1.127-0.759c0.492-0.177,1.062-0.266,1.709-0.266c0.643,0,1.164,0.075,1.566,0.227
			c0.401,0.151,0.696,0.342,0.886,0.57c0.188,0.229,0.321,0.52,0.396,0.869c0.043,0.217,0.064,0.609,0.064,1.176v1.701
			c0,1.187,0.026,1.937,0.081,2.251c0.055,0.313,0.162,0.615,0.322,0.903h-1.332C47.01,241.19,46.925,240.881,46.888,240.526z
			 M46.781,237.678c-0.464,0.188-1.158,0.35-2.084,0.481c-0.524,0.076-0.896,0.161-1.113,0.255
			c-0.217,0.095-0.385,0.233-0.503,0.415s-0.177,0.384-0.177,0.606c0,0.34,0.128,0.623,0.386,0.85
			c0.258,0.228,0.635,0.341,1.131,0.341c0.491,0,0.929-0.107,1.311-0.322c0.383-0.216,0.664-0.51,0.844-0.883
			c0.137-0.288,0.206-0.714,0.206-1.275v-0.468H46.781z M44.3,232.992l0.943-1.984h1.673l-1.56,1.984H44.3z"/>
		<path d="M50.034,241.455v-7.527h1.148v1.142c0.293-0.534,0.563-0.887,0.812-1.057s0.521-0.255,0.818-0.255
			c0.431,0,0.867,0.137,1.312,0.411l-0.439,1.184c-0.312-0.185-0.624-0.276-0.936-0.276c-0.278,0-0.529,0.084-0.751,0.252
			c-0.223,0.167-0.381,0.4-0.476,0.697c-0.142,0.454-0.212,0.95-0.212,1.489v3.94H50.034z"/>
		<path d="M54.648,242.079l1.24,0.184c0.053,0.383,0.196,0.662,0.433,0.837c0.316,0.236,0.749,0.354,1.297,0.354
			c0.591,0,1.047-0.118,1.368-0.354s0.539-0.567,0.652-0.992c0.066-0.26,0.097-0.806,0.092-1.638
			c-0.558,0.657-1.252,0.985-2.084,0.985c-1.034,0-1.835-0.373-2.402-1.12c-0.567-0.746-0.851-1.642-0.851-2.686
			c0-0.719,0.13-1.382,0.39-1.988c0.26-0.607,0.637-1.076,1.131-1.407c0.493-0.331,1.073-0.496,1.74-0.496
			c0.888,0,1.62,0.359,2.197,1.077v-0.907h1.176v6.507c0,1.172-0.119,2.002-0.357,2.491c-0.239,0.489-0.617,0.875-1.134,1.159
			c-0.518,0.283-1.154,0.425-1.91,0.425c-0.898,0-1.623-0.202-2.177-0.605C54.896,243.5,54.63,242.892,54.648,242.079z
			 M55.705,237.557c0,0.988,0.195,1.708,0.588,2.162c0.393,0.453,0.884,0.681,1.475,0.681c0.586,0,1.077-0.226,1.474-0.678
			c0.397-0.451,0.596-1.158,0.596-2.122c0-0.922-0.204-1.616-0.613-2.084c-0.408-0.468-0.901-0.702-1.478-0.702
			c-0.567,0-1.049,0.23-1.446,0.691C55.903,235.966,55.705,236.649,55.705,237.557z"/>
		<path d="M68.108,239.031l1.318,0.163c-0.208,0.77-0.593,1.368-1.155,1.793s-1.28,0.638-2.154,0.638
			c-1.102,0-1.974-0.339-2.619-1.017c-0.645-0.679-0.968-1.629-0.968-2.854c0-1.266,0.326-2.249,0.979-2.948
			c0.652-0.699,1.498-1.049,2.537-1.049c1.007,0,1.829,0.343,2.467,1.027c0.638,0.686,0.957,1.649,0.957,2.893
			c0,0.075-0.003,0.188-0.007,0.34h-5.614c0.048,0.827,0.281,1.46,0.702,1.899c0.42,0.439,0.945,0.659,1.573,0.659
			c0.468,0,0.867-0.123,1.198-0.368C67.652,239.962,67.915,239.569,68.108,239.031z M63.92,236.969h4.203
			c-0.057-0.634-0.218-1.108-0.482-1.425c-0.406-0.491-0.933-0.737-1.58-0.737c-0.586,0-1.079,0.196-1.478,0.589
			C64.184,235.787,63.962,236.312,63.92,236.969z"/>
		<path d="M71.029,241.455v-7.527h1.148v1.07c0.553-0.827,1.351-1.24,2.396-1.24c0.453,0,0.87,0.081,1.251,0.244
			c0.38,0.163,0.665,0.377,0.854,0.642c0.189,0.265,0.321,0.579,0.397,0.942c0.047,0.236,0.07,0.65,0.07,1.241v4.628H75.87v-4.579
			c0-0.52-0.05-0.908-0.148-1.166c-0.1-0.257-0.275-0.463-0.528-0.616s-0.55-0.23-0.89-0.23c-0.544,0-1.013,0.173-1.407,0.518
			s-0.592,0.999-0.592,1.963v4.111h-1.276V241.455z"/>
		<path d="M84.255,239.031l1.318,0.163c-0.208,0.77-0.593,1.368-1.155,1.793s-1.28,0.638-2.154,0.638
			c-1.102,0-1.974-0.339-2.619-1.017c-0.645-0.679-0.968-1.629-0.968-2.854c0-1.266,0.326-2.249,0.979-2.948
			s1.498-1.049,2.537-1.049c1.007,0,1.829,0.343,2.467,1.027c0.638,0.686,0.957,1.649,0.957,2.893c0,0.075-0.003,0.188-0.007,0.34
			h-5.614c0.048,0.827,0.281,1.46,0.702,1.899c0.42,0.439,0.945,0.659,1.573,0.659c0.468,0,0.867-0.123,1.198-0.368
			C83.799,239.962,84.062,239.569,84.255,239.031z M80.066,236.969h4.203c-0.057-0.634-0.218-1.108-0.482-1.425
			c-0.406-0.491-0.933-0.737-1.58-0.737c-0.586,0-1.079,0.196-1.478,0.589C80.33,235.787,80.108,236.312,80.066,236.969z"/>
		<path d="M86.665,239.208l1.262-0.198c0.071,0.506,0.269,0.894,0.592,1.162c0.324,0.27,0.776,0.404,1.357,0.404
			c0.586,0,1.021-0.119,1.305-0.358c0.283-0.238,0.425-0.518,0.425-0.84c0-0.288-0.125-0.515-0.376-0.68
			c-0.175-0.113-0.609-0.258-1.304-0.433c-0.936-0.236-1.584-0.44-1.945-0.613c-0.362-0.172-0.636-0.411-0.822-0.716
			c-0.188-0.305-0.28-0.642-0.28-1.01c0-0.336,0.077-0.646,0.23-0.933c0.153-0.285,0.362-0.522,0.627-0.712
			c0.198-0.146,0.469-0.271,0.812-0.372s0.71-0.152,1.103-0.152c0.591,0,1.109,0.085,1.556,0.255s0.776,0.4,0.988,0.691
			c0.213,0.29,0.359,0.679,0.439,1.166l-1.247,0.17c-0.057-0.388-0.221-0.689-0.492-0.907c-0.272-0.218-0.656-0.326-1.152-0.326
			c-0.586,0-1.004,0.097-1.254,0.291c-0.251,0.193-0.376,0.42-0.376,0.68c0,0.166,0.052,0.314,0.156,0.447
			c0.104,0.137,0.267,0.25,0.488,0.34c0.128,0.047,0.504,0.156,1.127,0.326c0.902,0.241,1.532,0.438,1.89,0.592
			c0.356,0.153,0.637,0.377,0.84,0.67s0.305,0.656,0.305,1.092c0,0.425-0.124,0.825-0.372,1.201
			c-0.248,0.375-0.606,0.666-1.074,0.871c-0.468,0.206-0.997,0.309-1.588,0.309c-0.978,0-1.724-0.203-2.236-0.609
			S86.807,240.007,86.665,239.208z"/>
	</g>
	<g>
		<polygon fill="#E54F26" points="104.609,247.331 89.141,245.201 98.969,257.338 		"/>
		<polyline fill="none" stroke="#E54F26" stroke-miterlimit="10" points="164.652,311.689 98.674,250.75 178.488,269.276 		"/>
	</g>
</g>
</svg>
