<!-- Generator: Adobe Illustrator 17.0.0, SVG Export Plug-In  -->
<svg version="1.1"
	 xmlns="http://www.w3.org/2000/svg" xmlns:xlink="http://www.w3.org/1999/xlink" xmlns:a="http://ns.adobe.com/AdobeSVGViewerExtensions/3.0/"
	 x="0px" y="0px" width="240.297px" height="48.508px" viewBox="0 0 240.297 48.508" enable-background="new 0 0 240.297 48.508"
	 xml:space="preserve">
<defs>
</defs>
<g>
	<polygon fill-rule="evenodd" clip-rule="evenodd" fill="#888586" points="0,44.001 0,48.508 162.631,48.508 240.297,48.508 
		240.297,44.001 220.863,44.001 162.631,44.001 104.363,44.001 	"/>
	<rect x="0" y="0" fill-rule="evenodd" clip-rule="evenodd" fill="#E7E3E2" width="240.297" height="45.504"/>
	<rect x="178.898" y="0" fill-rule="evenodd" clip-rule="evenodd" fill="#E54F26" width="61.398" height="45.504"/>
	<polygon fill-rule="evenodd" clip-rule="evenodd" points="178.898,48.508 178.898,45.504 240.297,45.504 240.297,48.508 
		182.336,48.508 	"/>
	<g>
		<path fill="#282F39" d="M38.752,27.548v-9.687h3.139c1.189,0,1.965,0.049,2.326,0.146c0.555,0.146,1.02,0.461,1.394,0.948
			c0.375,0.486,0.562,1.115,0.562,1.886c0,0.595-0.107,1.095-0.323,1.5s-0.49,0.724-0.823,0.955
			c-0.332,0.231-0.67,0.385-1.014,0.459c-0.467,0.093-1.144,0.139-2.028,0.139h-1.275v3.654H38.752z M40.708,19.5v2.749h1.07
			c0.771,0,1.286-0.051,1.546-0.152s0.464-0.26,0.611-0.476s0.222-0.467,0.222-0.753c0-0.353-0.104-0.644-0.311-0.873
			c-0.207-0.229-0.47-0.372-0.786-0.429c-0.234-0.044-0.703-0.066-1.408-0.066H40.708z"/>
		<path fill="#282F39" d="M58.137,27.548h-2.128l-0.846-2.2h-3.872l-0.799,2.2h-2.075l3.772-9.687h2.068L58.137,27.548z
			 M54.536,23.716l-1.334-3.595l-1.309,3.595H54.536z M52.078,17.307l0.912-1.976h2.081l-1.816,1.976H52.078z"/>
		<path fill="#282F39" d="M65.305,23.986v-1.632h4.215v3.858c-0.409,0.396-1.003,0.746-1.78,1.048s-1.565,0.452-2.362,0.452
			c-1.014,0-1.896-0.212-2.649-0.638c-0.754-0.425-1.319-1.032-1.698-1.823s-0.568-1.651-0.568-2.58
			c0-1.009,0.212-1.905,0.635-2.689s1.041-1.386,1.856-1.804c0.621-0.321,1.394-0.482,2.319-0.482c1.202,0,2.142,0.252,2.817,0.757
			c0.677,0.504,1.111,1.201,1.306,2.091l-1.942,0.363c-0.137-0.476-0.394-0.852-0.771-1.126c-0.376-0.275-0.847-0.413-1.41-0.413
			c-0.854,0-1.534,0.271-2.039,0.813c-0.504,0.542-0.756,1.346-0.756,2.411c0,1.15,0.255,2.013,0.767,2.587
			c0.511,0.575,1.18,0.862,2.008,0.862c0.41,0,0.82-0.08,1.232-0.241c0.412-0.16,0.766-0.355,1.061-0.584v-1.229H65.305z"/>
		<path fill="#282F39" d="M72.887,27.548v-9.687h1.956v9.687H72.887z"/>
		<path fill="#282F39" d="M78.35,27.548v-9.687h1.903l3.965,6.469v-6.469h1.816v9.687h-1.962l-3.905-6.316v6.316H78.35z"/>
		<path fill="#282F39" d="M98.462,27.548h-2.128l-0.846-2.2h-3.872l-0.799,2.2h-2.075l3.772-9.687h2.068L98.462,27.548z
			 M94.861,23.716l-1.334-3.595l-1.309,3.595H94.861z"/>
		<path fill="#282F39" d="M107.379,27.548l-2.313-9.687h2.002l1.461,6.653l1.771-6.653h2.326l1.698,6.766l1.486-6.766h1.969
			l-2.353,9.687h-2.074l-1.93-7.242l-1.923,7.242H107.379z"/>
		<path fill="#282F39" d="M120.402,27.548v-9.687h7.183V19.5h-5.227v2.147h4.863v1.632h-4.863v2.637h5.411v1.632H120.402z"/>
		<path fill="#282F39" d="M131.057,17.861h3.872c0.767,0,1.338,0.032,1.715,0.096c0.376,0.064,0.713,0.197,1.011,0.399
			c0.297,0.203,0.545,0.473,0.743,0.81s0.297,0.715,0.297,1.134c0,0.453-0.122,0.87-0.366,1.248
			c-0.244,0.379-0.576,0.663-0.994,0.853c0.59,0.172,1.044,0.465,1.36,0.879c0.317,0.414,0.477,0.901,0.477,1.46
			c0,0.441-0.103,0.869-0.308,1.285c-0.205,0.417-0.484,0.749-0.839,0.998s-0.792,0.402-1.312,0.459
			c-0.326,0.035-1.112,0.058-2.359,0.066h-3.297V17.861z M133.013,19.474v2.24h1.281c0.763,0,1.236-0.012,1.421-0.033
			c0.335-0.04,0.598-0.155,0.789-0.347c0.192-0.192,0.288-0.444,0.288-0.757c0-0.3-0.083-0.543-0.248-0.73
			c-0.165-0.187-0.411-0.301-0.736-0.34c-0.194-0.022-0.751-0.033-1.672-0.033H133.013z M133.013,23.326v2.59h1.811
			c0.704,0,1.151-0.021,1.341-0.06c0.291-0.053,0.527-0.182,0.71-0.387c0.184-0.205,0.274-0.479,0.274-0.822
			c0-0.291-0.07-0.538-0.211-0.74c-0.142-0.203-0.345-0.351-0.611-0.442c-0.267-0.093-0.845-0.139-1.734-0.139H133.013z"/>
	</g>
	<g id="XMLID_1_">
		<path id="XMLID_3_" fill="#FFFFFF" d="M193.236,35.93c-0.832,0.837-0.832,2.089,0,3.029l0.523,0.521
			c0.834,0.834,2.191,0.834,3.029,0l6.68-6.681c0.414-0.522,0.625-1.045,0.625-1.672l2.193-2.191
			c5.008,3.758,12.107,3.447,16.701-1.146c5.012-5.012,5.012-13.05,0-18.058c-5.01-5.012-13.049-5.012-18.059,0
			c-4.594,4.592-4.908,11.689-1.15,16.7l-2.191,2.191c-0.623,0-1.252,0.208-1.67,0.628L193.236,35.93L193.236,35.93z
			 M207.748,24.971c-3.445-3.445-3.551-9.083,0-12.525c3.443-3.445,9.078-3.445,12.525,0c3.443,3.442,3.443,9.08,0,12.525
			C216.826,28.416,211.191,28.416,207.748,24.971L207.748,24.971z"/>
		<path id="XMLID_2_" fill="#FFFFFF" d="M210.461,17.35h2.088v-2.086c0-0.732,0.627-1.358,1.355-1.358l0,0
			c0.734,0,1.359,0.626,1.359,1.358v2.086h2.088c0.73,0,1.357,0.627,1.357,1.356l0,0c0,0.733-0.627,1.358-1.357,1.358h-2.088v2.09
			c0,0.728-0.625,1.357-1.359,1.357l0,0c-0.729,0-1.355-0.63-1.355-1.357v-2.09h-2.088c-0.729,0-1.357-0.624-1.357-1.358l0,0
			C209.104,17.976,209.732,17.35,210.461,17.35L210.461,17.35z"/>
	</g>
</g>
</svg>