<!-- Generator: Adobe Illustrator 17.0.0, SVG Export Plug-In  -->
<svg version="1.1"
	 xmlns="http://www.w3.org/2000/svg" xmlns:xlink="http://www.w3.org/1999/xlink" xmlns:a="http://ns.adobe.com/AdobeSVGViewerExtensions/3.0/"
	 x="0px" y="0px" width="406.103px" height="424.964px" viewBox="0 0 406.103 424.964"
	 style="enable-background:new 0 0 406.103 424.964;" xml:space="preserve">
<style type="text/css">
	.st0{fill:#F16529;}
	.st1{fill:#E6E7E8;}
	.st2{fill:#FFFFFF;}
	.st3{fill:#282F39;}
	.st4{fill:#C4C5C6;}
	.st5{fill:#F1F1F1;stroke:#000000;stroke-width:3.2;stroke-linejoin:round;stroke-miterlimit:10;}
	.st6{fill:none;stroke:#262D35;stroke-width:3.2;stroke-linejoin:round;stroke-miterlimit:10;}
</style>
<defs>
</defs>
<g>
	<g>
		<g>
			<g>
				<path d="M305.287,101.302c0-14.122-11.445-25.57-25.566-25.57h-11.954c-2.358-9.876-11.218-17.228-21.816-17.228
					c-3.088,0-6.029,0.626-8.711,1.754c-7.036-8.553-17.696-14.013-29.635-14.013c-21.172,0-38.339,17.167-38.339,38.344
					c0,1.388,0.083,2.752,0.224,4.101h-3.695c-10.545,0-19.094,8.547-19.094,19.09c0,1.024,0.104,2.021,0.262,3.003h32.697
					c7,7.461,16.913,12.15,27.945,12.15c11.035,0,20.951-4.689,27.951-12.15h67.896
					C304.627,107.849,305.287,104.655,305.287,101.302z"/>
				<path class="st0" d="M207.605,123.908c-10.802,0-20.859-4.312-28.364-12.15h-32.278c-0.479,0-0.887-0.348-0.965-0.82
					c-0.184-1.141-0.272-2.174-0.272-3.158c0-11.064,9.003-20.065,20.069-20.065h2.625c-0.088-1.08-0.131-2.111-0.131-3.125
					c0-21.681,17.639-39.318,39.316-39.318c11.563,0,22.428,5.026,29.928,13.818c2.688-1.037,5.517-1.561,8.418-1.561
					c10.62,0,19.792,7.046,22.572,17.228h11.197c14.637,0,26.543,11.909,26.543,26.546c0,3.371-0.641,6.682-1.904,9.842
					c-0.146,0.372-0.508,0.614-0.906,0.614h-67.477C228.469,119.597,218.41,123.908,207.605,123.908z M147.808,109.807h31.852
					c0.269,0,0.528,0.11,0.711,0.308c7.164,7.637,16.838,11.842,27.234,11.842c10.4,0,20.074-4.205,27.24-11.842
					c0.184-0.197,0.443-0.308,0.711-0.308h67.225c1.016-2.743,1.531-5.601,1.531-8.505c0-13.56-11.031-24.594-24.592-24.594h-11.954
					c-0.452,0-0.846-0.311-0.95-0.75c-2.315-9.701-10.895-16.479-20.865-16.479c-2.883,0-5.688,0.564-8.33,1.678
					c-0.404,0.168-0.86,0.055-1.133-0.277c-7.143-8.68-17.668-13.658-28.883-13.658c-20.6,0-37.363,16.764-37.363,37.367
					c0,1.276,0.072,2.586,0.219,3.999c0.029,0.274-0.061,0.55-0.246,0.755c-0.184,0.205-0.447,0.322-0.725,0.322h-3.695
					c-9.99,0-18.119,8.125-18.119,18.114C147.676,108.42,147.721,109.088,147.808,109.807z"/>
			</g>
			<g>
				<path d="M158.19,79.13c-0.043,0-0.084-0.003-0.128-0.008c-0.535-0.07-0.912-0.559-0.844-1.094
					c3.268-25.227,24.93-44.25,50.387-44.25c0.539,0,0.977,0.437,0.977,0.976c0,0.539-0.438,0.976-0.977,0.976
					c-24.478,0-45.309,18.292-48.449,42.549C159.092,78.772,158.672,79.13,158.19,79.13z"/>
			</g>
			<g>
				<path d="M207.605,135.399c-12.016,0-23.685-4.311-32.902-12.149H161.25c-0.54,0-0.978-0.437-0.978-0.976
					c0-0.539,0.438-0.977,0.978-0.977h13.813c0.235,0,0.46,0.084,0.636,0.238c8.906,7.682,20.236,11.911,31.906,11.911
					c11.674,0,23.007-4.23,31.912-11.911c0.178-0.154,0.4-0.238,0.637-0.238h14.578c0.539,0,0.977,0.438,0.977,0.977
					c0,0.539-0.438,0.976-0.977,0.976h-14.219C231.298,131.088,219.626,135.399,207.605,135.399z"/>
			</g>
		</g>
		<g>
			<g>
				<path d="M261.432,296.94H153.655c-7.968,0-14.448-6.482-14.448-14.45v-11.204c0-7.965,6.48-14.447,14.448-14.447h107.776
					c7.969,0,14.451,6.482,14.451,14.447v11.204C275.883,290.458,269.4,296.94,261.432,296.94z M153.655,258.791
					c-6.89,0-12.496,5.606-12.496,12.495v11.204c0,6.892,5.606,12.498,12.496,12.498h107.776c6.891,0,12.498-5.606,12.498-12.498
					v-11.204c0-6.889-5.607-12.495-12.498-12.495H153.655z"/>
			</g>
			<g>
				<path class="st0" d="M161.306,276.99c0,2.406-1.946,4.353-4.355,4.353c-2.4,0-4.352-1.947-4.352-4.353
					c0-2.405,1.951-4.353,4.352-4.353C159.359,272.638,161.306,274.585,161.306,276.99z"/>
				<path d="M156.951,282.321c-2.938,0-5.326-2.393-5.326-5.331s2.389-5.329,5.326-5.329c2.941,0,5.332,2.391,5.332,5.329
					S159.893,282.321,156.951,282.321z M156.951,273.613c-1.861,0-3.375,1.515-3.375,3.377s1.514,3.378,3.375,3.378
					c1.864,0,3.379-1.516,3.379-3.378S158.815,273.613,156.951,273.613z"/>
			</g>
			<g>
				<circle cx="172.484" cy="276.99" r="4.354"/>
				<path class="st0" d="M172.484,282.321c-2.939,0-5.332-2.393-5.332-5.331s2.393-5.329,5.332-5.329
					c2.939,0,5.332,2.391,5.332,5.329S175.424,282.321,172.484,282.321z M172.484,273.613c-1.861,0-3.379,1.515-3.379,3.377
					s1.518,3.378,3.379,3.378c1.861,0,3.379-1.516,3.379-3.378S174.346,273.613,172.484,273.613z"/>
			</g>
			<g>
				<path d="M262.49,277.966h-76.719c-0.539,0-0.977-0.436-0.977-0.976c0-0.54,0.438-0.978,0.977-0.978h76.719
					c0.537,0,0.975,0.438,0.975,0.978C263.465,277.529,263.027,277.966,262.49,277.966z"/>
			</g>
			<g>
				<path d="M261.432,350.257H153.655c-7.968,0-14.448-6.482-14.448-14.448v-11.203c0-7.966,6.48-14.448,14.448-14.448h107.776
					c7.969,0,14.451,6.482,14.451,14.448v11.203C275.883,343.774,269.4,350.257,261.432,350.257z M153.655,312.109
					c-6.89,0-12.496,5.606-12.496,12.496v11.203c0,6.891,5.606,12.496,12.496,12.496h107.776c6.891,0,12.498-5.605,12.498-12.496
					v-11.203c0-6.89-5.607-12.496-12.498-12.496H153.655z"/>
			</g>
			<g>
				<path class="st0" d="M161.306,330.309c0,2.404-1.946,4.354-4.355,4.354c-2.4,0-4.352-1.949-4.352-4.354
					c0-2.405,1.951-4.354,4.352-4.354C159.359,325.954,161.306,327.903,161.306,330.309z"/>
				<path d="M156.951,335.64c-2.938,0-5.326-2.392-5.326-5.331c0-2.939,2.389-5.331,5.326-5.331c2.941,0,5.332,2.392,5.332,5.331
					C162.283,333.248,159.893,335.64,156.951,335.64z M156.951,326.93c-1.861,0-3.375,1.515-3.375,3.379
					c0,1.862,1.514,3.378,3.375,3.378c1.864,0,3.379-1.516,3.379-3.378C160.33,328.444,158.815,326.93,156.951,326.93z"/>
			</g>
			<g>
				<circle cx="172.484" cy="330.309" r="4.354"/>
				<path class="st0" d="M172.484,335.64c-2.939,0-5.332-2.392-5.332-5.331c0-2.939,2.393-5.331,5.332-5.331
					c2.939,0,5.332,2.392,5.332,5.331C177.816,333.248,175.424,335.64,172.484,335.64z M172.484,326.93
					c-1.861,0-3.379,1.515-3.379,3.379c0,1.862,1.518,3.378,3.379,3.378c1.861,0,3.379-1.516,3.379-3.378
					C175.863,328.444,174.346,326.93,172.484,326.93z"/>
			</g>
			<g>
				<path d="M262.49,331.284h-76.719c-0.539,0-0.977-0.436-0.977-0.975c0-0.54,0.438-0.978,0.977-0.978h76.719
					c0.537,0,0.975,0.438,0.975,0.978C263.465,330.848,263.027,331.284,262.49,331.284z"/>
			</g>
			<g>
				<path d="M261.432,403.575H153.655c-7.968,0-14.448-6.48-14.448-14.448v-11.204c0-7.969,6.48-14.451,14.448-14.451h107.776
					c7.969,0,14.451,6.483,14.451,14.451v11.204C275.883,397.095,269.4,403.575,261.432,403.575z M153.655,365.425
					c-6.89,0-12.496,5.607-12.496,12.498v11.204c0,6.891,5.606,12.496,12.496,12.496h107.776c6.891,0,12.498-5.605,12.498-12.496
					v-11.204c0-6.891-5.607-12.498-12.498-12.498H153.655z"/>
			</g>
			<g>
				<path class="st0" d="M161.306,383.624c0,2.406-1.946,4.355-4.355,4.355c-2.4,0-4.352-1.949-4.352-4.355
					c0-2.402,1.951-4.353,4.352-4.353C159.359,379.271,161.306,381.222,161.306,383.624z"/>
				<path d="M156.951,388.954c-2.938,0-5.326-2.392-5.326-5.33s2.389-5.328,5.326-5.328c2.941,0,5.332,2.39,5.332,5.328
					S159.893,388.954,156.951,388.954z M156.951,380.247c-1.861,0-3.375,1.515-3.375,3.377c0,1.863,1.514,3.378,3.375,3.378
					c1.864,0,3.379-1.515,3.379-3.378C160.33,381.762,158.815,380.247,156.951,380.247z"/>
			</g>
			<g>
				<path d="M176.838,383.624c0,2.406-1.947,4.355-4.354,4.355c-2.404,0-4.354-1.949-4.354-4.355c0-2.402,1.949-4.353,4.354-4.353
					C174.891,379.271,176.838,381.222,176.838,383.624z"/>
				<path class="st0" d="M172.484,388.954c-2.939,0-5.332-2.392-5.332-5.33s2.393-5.328,5.332-5.328c2.939,0,5.332,2.39,5.332,5.328
					S175.424,388.954,172.484,388.954z M172.484,380.247c-1.861,0-3.379,1.515-3.379,3.377c0,1.863,1.518,3.378,3.379,3.378
					c1.861,0,3.379-1.515,3.379-3.378C175.863,381.762,174.346,380.247,172.484,380.247z"/>
			</g>
			<g>
				<path d="M262.49,384.599h-76.719c-0.539,0-0.977-0.436-0.977-0.975c0-0.54,0.438-0.978,0.977-0.978h76.719
					c0.537,0,0.975,0.438,0.975,0.978C263.465,384.163,263.027,384.599,262.49,384.599z"/>
			</g>
			<g>
				<rect x="156.709" y="295.965" class="st1" width="101.674" height="15.168"/>
				<path d="M258.383,312.109H156.709c-0.541,0-0.979-0.438-0.979-0.977v-15.168c0-0.539,0.438-0.977,0.979-0.977h101.674
					c0.539,0,0.975,0.438,0.975,0.977v15.168C259.357,311.672,258.922,312.109,258.383,312.109z M157.686,310.157h99.722V296.94
					h-99.722V310.157z"/>
			</g>
			<g>
				<rect x="156.709" y="349.28" class="st1" width="101.674" height="15.169"/>
				<path d="M258.383,365.425H156.709c-0.541,0-0.979-0.436-0.979-0.976V349.28c0-0.539,0.438-0.976,0.979-0.976h101.674
					c0.539,0,0.975,0.437,0.975,0.976v15.169C259.357,364.989,258.922,365.425,258.383,365.425z M157.686,363.472h99.722v-13.215
					h-99.722V363.472z"/>
			</g>
		</g>
		<g>
			<path d="M207.605,205.731c-0.539,0-0.975-0.436-0.975-0.975v-70.333c0-0.54,0.437-0.977,0.975-0.977
				c0.539,0,0.977,0.437,0.977,0.977v70.333C208.582,205.296,208.145,205.731,207.605,205.731z"/>
		</g>
		<g>
			<path d="M269.346,123.25h-8.621c-0.539,0-0.975-0.437-0.975-0.976c0-0.539,0.435-0.977,0.975-0.977h8.621
				c0.541,0,0.977,0.438,0.977,0.977C270.322,122.813,269.887,123.25,269.346,123.25z"/>
		</g>
		<g>
			<path d="M155.318,123.25h-8.617c-0.54,0-0.975-0.437-0.975-0.976c0-0.539,0.436-0.977,0.975-0.977h8.617
				c0.539,0,0.976,0.438,0.976,0.977C156.294,122.813,155.857,123.25,155.318,123.25z"/>
		</g>
		<g>
			<path d="M284.094,123.25h-8.619c-0.541,0-0.977-0.437-0.977-0.976c0-0.539,0.436-0.977,0.977-0.977h8.619
				c0.539,0,0.975,0.438,0.975,0.977C285.068,122.813,284.633,123.25,284.094,123.25z"/>
		</g>
		<g>
			<g>
				<g>
					<path class="st1" d="M307.732,291.95c0,6.418,5.205,11.623,11.625,11.623h63.451c6.418,0,11.623-5.205,11.623-11.623v-8.96
						h-86.699V291.95z"/>
					<path d="M382.809,304.55h-63.451c-6.947,0-12.6-5.653-12.6-12.6v-8.96c0-0.541,0.438-0.977,0.975-0.977h86.699
						c0.539,0,0.975,0.436,0.975,0.977v8.96C395.406,298.896,389.756,304.55,382.809,304.55z M308.711,283.966v7.984
						c0,5.87,4.773,10.646,10.646,10.646h63.451c5.871,0,10.646-4.776,10.646-10.646v-7.984H308.711z"/>
				</g>
				<g>
					<path d="M394.432,283.966h-86.699c-0.537,0-0.975-0.438-0.975-0.976V170.86c0-0.539,0.438-0.977,0.975-0.977h86.699
						c0.539,0,0.975,0.438,0.975,0.977v112.13C395.406,283.528,394.971,283.966,394.432,283.966z M308.711,282.014h84.743V171.837
						h-84.743V282.014z"/>
				</g>
				<g>
					<path class="st1" d="M394.432,163.112c0-6.419-5.205-11.623-11.623-11.623h-63.451c-6.42,0-11.625,5.204-11.625,11.623v7.748
						h86.699V163.112z"/>
					<path d="M394.432,171.837h-86.699c-0.537,0-0.975-0.436-0.975-0.977v-7.748c0-6.947,5.652-12.6,12.6-12.6h63.451
						c6.947,0,12.598,5.652,12.598,12.6v7.748C395.406,171.4,394.971,171.837,394.432,171.837z M308.711,169.884h84.743v-6.771
						c0-5.87-4.774-10.646-10.646-10.646h-63.451c-5.873,0-10.646,4.776-10.646,10.646V169.884z"/>
				</g>
			</g>
			<g>
				<circle class="st2" cx="351.083" cy="293.28" r="6.904"/>
				<path d="M351.084,301.158c-4.346,0-7.879-3.535-7.879-7.878c0-4.344,3.533-7.879,7.879-7.879c4.346,0,7.881,3.535,7.881,7.879
					C358.965,297.623,355.43,301.158,351.084,301.158z M351.084,287.354c-3.268,0-5.928,2.658-5.928,5.926
					c0,3.268,2.66,5.927,5.928,5.927c3.267,0,5.928-2.659,5.928-5.927C357.012,290.013,354.352,287.354,351.084,287.354z"/>
			</g>
			<g>
				<path d="M372.07,294.256h-9.361c-0.541,0-0.98-0.435-0.98-0.976c0-0.539,0.438-0.977,0.98-0.977h9.361
					c0.54,0,0.977,0.438,0.977,0.977C373.047,293.82,372.61,294.256,372.07,294.256z"/>
			</g>
			<g>
				<path d="M339.459,294.256h-9.365c-0.539,0-0.977-0.435-0.977-0.976c0-0.539,0.438-0.977,0.977-0.977h9.365
					c0.539,0,0.976,0.438,0.976,0.977C340.435,293.82,339.998,294.256,339.459,294.256z"/>
			</g>
			<g>
				<path d="M376.756,162.151h-15.258c-0.539,0-0.976-0.436-0.976-0.976c0-0.54,0.438-0.977,0.976-0.977h15.258
					c0.539,0,0.975,0.436,0.975,0.977C377.73,161.716,377.295,162.151,376.756,162.151z"/>
			</g>
			<g>
				<path d="M331.859,203.355c-0.158-0.799-0.248-1.625-0.248-2.471c0-7.058,5.723-12.773,12.781-12.773
					c4.389,0,8.262,2.215,10.562,5.594c1.194-0.482,2.493-0.752,3.86-0.752c5.701,0,10.323,4.613,10.348,10.306
					c5.621,0.151,10.137,4.745,10.137,10.402h-56.428C322.871,208.392,326.783,204.051,331.859,203.355z"/>
				<path class="st0" d="M379.336,214.636c0,0-0.023,0.002-0.037,0h-56.428c-0.539,0-0.973-0.438-0.973-0.976
					c0-5.321,3.736-9.927,8.846-11.093c-0.071-0.563-0.107-1.127-0.107-1.684c0-7.582,6.172-13.75,13.756-13.75
					c4.297,0,8.326,2.005,10.922,5.399c1.135-0.37,2.308-0.558,3.5-0.558c5.91,0,10.793,4.573,11.285,10.367
					c5.682,0.593,10.033,5.256,10.171,11.031c0.028,0.09,0.042,0.186,0.042,0.286C380.313,214.198,379.875,214.636,379.336,214.636z
					 M323.898,212.683h54.375c-0.475-4.684-4.316-8.319-9.137-8.447c-0.527-0.016-0.947-0.444-0.949-0.973
					c-0.023-5.146-4.228-9.334-9.373-9.334c-1.197,0-2.373,0.23-3.496,0.681c-0.424,0.171-0.914,0.023-1.17-0.355
					c-2.203-3.237-5.85-5.168-9.756-5.168c-6.51,0-11.804,5.293-11.804,11.798c0,0.752,0.075,1.518,0.228,2.28
					c0.053,0.265-0.006,0.54-0.162,0.757c-0.156,0.219-0.397,0.363-0.662,0.401C327.674,204.913,324.345,208.427,323.898,212.683z"
					/>
			</g>
			<g>
				<path d="M330.094,246.069c-0.539,0-0.977-0.438-0.977-0.977v-20.523c0-0.539,0.438-0.975,0.977-0.975
					c0.539,0,0.975,0.436,0.975,0.975v20.523C331.068,245.632,330.633,246.069,330.094,246.069z"/>
			</g>
			<g>
				<path d="M330.099,246.069c-0.259,0-0.507-0.104-0.689-0.285l-5.316-5.313c-0.383-0.382-0.383-0.999,0-1.38
					c0.381-0.382,1-0.382,1.379,0l4.626,4.622l4.62-4.622c0.381-0.382,0.998-0.382,1.381,0c0.381,0.381,0.381,0.998,0,1.38
					l-5.311,5.313C330.605,245.966,330.358,246.069,330.099,246.069z"/>
			</g>
			<g>
				<path d="M351.084,267.347c-0.539,0-0.973-0.436-0.973-0.977v-41.801c0-0.539,0.434-0.975,0.973-0.975
					c0.539,0,0.975,0.436,0.975,0.975v41.801C352.059,266.91,351.623,267.347,351.084,267.347z"/>
			</g>
			<g>
				<path d="M351.084,267.347L351.084,267.347c-0.26,0-0.507-0.102-0.69-0.285l-5.31-5.313c-0.381-0.382-0.381-1,0-1.381
					c0.381-0.381,1-0.381,1.381,0l4.619,4.623l4.623-4.623c0.383-0.381,1-0.381,1.381,0c0.381,0.381,0.381,0.999,0,1.381
					l-5.313,5.313C351.59,267.244,351.344,267.347,351.084,267.347z"/>
			</g>
			<g>
				<path d="M372.07,251.384c-0.539,0-0.975-0.436-0.975-0.975v-25.84c0-0.539,0.435-0.975,0.975-0.975
					c0.54,0,0.977,0.436,0.977,0.975v25.84C373.047,250.948,372.61,251.384,372.07,251.384z"/>
			</g>
			<g>
				<path d="M372.074,251.384c-0.258,0-0.507-0.102-0.689-0.285l-5.314-5.314c-0.379-0.383-0.379-0.999,0-1.381
					c0.381-0.381,1-0.381,1.379,0l4.625,4.624l4.622-4.624c0.382-0.381,0.998-0.381,1.382,0c0.379,0.38,0.379,0.998,0,1.381
					l-5.314,5.314C372.582,251.282,372.334,251.384,372.074,251.384z"/>
			</g>
		</g>
		<g>
			<g>
				<path class="st1" d="M383.697,338.853h-35.881l-9.861-10.568h-30.223v14.768v1.685v41.426c0,2.317,1.883,4.197,4.203,4.197
					h71.762c2.316,0,4.199-1.88,4.199-4.197v-43.11C387.897,340.733,386.014,338.853,383.697,338.853z"/>
				<path d="M383.697,391.338h-71.762c-2.855,0-5.178-2.321-5.178-5.175v-57.878c0-0.54,0.438-0.976,0.975-0.976h30.223
					c0.27,0,0.527,0.112,0.713,0.31l9.574,10.257h35.455c2.854,0,5.176,2.323,5.176,5.177v43.11
					C388.873,389.017,386.551,391.338,383.697,391.338z M308.711,329.263v56.9c0,1.776,1.445,3.223,3.225,3.223h71.762
					c1.775,0,3.223-1.446,3.223-3.223v-43.11c0-1.778-1.447-3.224-3.223-3.224h-35.881c-0.271,0-0.529-0.112-0.713-0.31
					l-9.574-10.257H308.711z"/>
			</g>
			<g>
				<path class="st0" d="M330.52,361.48c0,3.123-2.531,5.653-5.656,5.653c-3.119,0-5.65-2.53-5.65-5.653
					c0-3.122,2.531-5.655,5.65-5.655C327.988,355.825,330.52,358.358,330.52,361.48z"/>
				<path d="M324.863,368.109c-3.653,0-6.626-2.974-6.626-6.629c0-3.657,2.973-6.631,6.626-6.631c3.658,0,6.633,2.974,6.633,6.631
					C331.496,365.136,328.522,368.109,324.863,368.109z M324.863,356.802c-2.578,0-4.675,2.098-4.675,4.679
					c0,2.579,2.097,4.676,4.675,4.676c2.582,0,4.682-2.097,4.682-4.676C329.545,358.899,327.445,356.802,324.863,356.802z"/>
			</g>
			<g>
				<circle class="st0" cx="347.814" cy="361.48" r="5.654"/>
				<path d="M347.816,368.109c-3.657,0-6.633-2.974-6.633-6.629c0-3.657,2.975-6.631,6.633-6.631c3.654,0,6.629,2.974,6.629,6.631
					C354.445,365.136,351.471,368.109,347.816,368.109z M347.816,356.802c-2.582,0-4.682,2.098-4.682,4.679
					c0,2.579,2.1,4.676,4.682,4.676c2.58,0,4.678-2.097,4.678-4.676C352.494,358.899,350.397,356.802,347.816,356.802z"/>
			</g>
			<g>
				<path class="st0" d="M376.416,361.48c0,3.123-2.531,5.653-5.652,5.653c-3.119,0-5.654-2.53-5.654-5.653
					c0-3.122,2.535-5.655,5.654-5.655C373.885,355.825,376.416,358.358,376.416,361.48z"/>
				<path d="M370.764,368.109c-3.655,0-6.629-2.974-6.629-6.629c0-3.657,2.974-6.631,6.629-6.631c3.656,0,6.629,2.974,6.629,6.631
					C377.392,365.136,374.42,368.109,370.764,368.109z M370.764,356.802c-2.578,0-4.678,2.098-4.678,4.679
					c0,2.579,2.1,4.676,4.678,4.676c2.578,0,4.676-2.097,4.676-4.676C375.439,358.899,373.342,356.802,370.764,356.802z"/>
			</g>
		</g>
		<g>
			<path d="M311.935,400.079c-7.673,0-13.916-6.242-13.916-13.916c0-0.539,0.435-0.977,0.975-0.977c0.539,0,0.977,0.438,0.977,0.977
				c0,6.596,5.367,11.963,11.965,11.963c0.54,0,0.977,0.436,0.977,0.976C312.912,399.642,312.476,400.079,311.935,400.079z"/>
		</g>
		<g>
			<rect x="195.221" y="204.628" class="st1" width="24.641" height="24.64"/>
			<path d="M219.861,230.243h-24.641c-0.539,0-0.975-0.437-0.975-0.976v-24.64c0-0.541,0.436-0.977,0.975-0.977h24.641
				c0.539,0,0.977,0.436,0.977,0.977v24.64C220.838,229.807,220.4,230.243,219.861,230.243z M196.197,228.291h22.688v-22.688
				h-22.688V228.291z"/>
		</g>
		<g>
			<path d="M207.545,258.791c-0.54,0-0.977-0.436-0.977-0.976v-28.548c0-0.54,0.437-0.977,0.977-0.977
				c0.539,0,0.977,0.436,0.977,0.977v28.548C208.521,258.355,208.084,258.791,207.545,258.791z"/>
		</g>
		<g>
			<path d="M265.037,217.925h-45.176c-0.539,0-0.977-0.436-0.977-0.975c0-0.54,0.438-0.976,0.977-0.976h44.201V170.86
				c0-0.539,0.435-0.977,0.975-0.977h42.695c0.541,0,0.979,0.438,0.979,0.977c0,0.54-0.438,0.977-0.979,0.977h-41.718v45.113
				C266.015,217.489,265.578,217.925,265.037,217.925z"/>
		</g>
		<g>
			<polygon class="st0" points="335.392,134.222 351.082,107.046 366.774,134.222 			"/>
			<path d="M366.814,135.197c-0.012,0.003-0.027,0.001-0.04,0h-31.383c-0.349,0-0.671-0.185-0.845-0.487
				c-0.175-0.303-0.175-0.675,0-0.977l15.691-27.176c0.346-0.605,1.342-0.605,1.688,0l15.576,26.972
				c0.178,0.177,0.287,0.422,0.287,0.692C367.789,134.761,367.352,135.197,366.814,135.197z M337.082,133.246h28.002l-14.002-24.249
				L337.082,133.246z"/>
		</g>
		<g>
			<polygon class="st0" points="335.392,94.683 351.082,67.507 366.774,94.683 			"/>
			<path d="M366.814,95.659c-0.012,0-0.027,0.002-0.04,0h-31.383c-0.349,0-0.671-0.186-0.845-0.488
				c-0.175-0.303-0.175-0.675,0-0.977l15.691-27.176c0.346-0.604,1.342-0.604,1.688,0l15.576,26.973
				c0.178,0.177,0.287,0.421,0.287,0.691C367.789,95.222,367.352,95.659,366.814,95.659z M337.082,93.706h28.002l-14.002-24.248
				L337.082,93.706z"/>
		</g>
		<g>
			<polygon class="st0" points="99.725,121.585 121.611,134.222 99.725,146.858 			"/>
			<path class="st3" d="M99.725,147.834c-0.168,0-0.336-0.044-0.488-0.131c-0.301-0.174-0.488-0.497-0.488-0.845v-25.273
				c0-0.348,0.188-0.671,0.488-0.846c0.301-0.173,0.675-0.173,0.976,0l21.887,12.637c0.302,0.174,0.488,0.496,0.488,0.846
				c0,0.348-0.187,0.671-0.488,0.845l-21.887,12.637C100.063,147.79,99.893,147.834,99.725,147.834z M100.701,123.276v21.891
				l18.958-10.945L100.701,123.276z"/>
		</g>
		<g>
			<path d="M195.221,217.925H152.6c-0.539,0-0.975-0.436-0.975-0.975v-59.242H85.204c-0.54,0-0.975-0.438-0.975-0.977
				s0.435-0.976,0.975-0.976H152.6c0.539,0,0.977,0.437,0.977,0.976v59.243h41.645c0.54,0,0.977,0.436,0.977,0.976
				C196.197,217.489,195.761,217.925,195.221,217.925z"/>
		</g>
		<g>
			<path d="M331.533,339.829h-32.57c-0.54,0-0.977-0.436-0.977-0.976c0-0.54,0.436-0.978,0.977-0.978h32.57
				c0.54,0,0.975,0.438,0.975,0.978C332.508,339.393,332.073,339.829,331.533,339.829z"/>
		</g>
		<g>
			<path d="M343.404,400.097h-22.408c-0.539,0-0.977-0.435-0.977-0.975c0-0.539,0.438-0.976,0.977-0.976h22.408
				c0.541,0,0.977,0.436,0.977,0.976C344.381,399.661,343.945,400.097,343.404,400.097z"/>
		</g>
		<g>
			<g>
				<path class="st1" d="M35.1,338.853h35.879l9.863-10.568h30.221v14.768v1.685v41.426c0,2.317-1.881,4.197-4.202,4.197H35.1
					c-2.318,0-4.199-1.88-4.199-4.197v-43.11C30.9,340.733,32.781,338.853,35.1,338.853z"/>
				<path d="M29.924,386.163v-43.11c0-2.854,2.322-5.177,5.176-5.177h35.455l9.575-10.257c0.185-0.197,0.442-0.31,0.712-0.31h30.221
					c0.539,0,0.977,0.436,0.977,0.976v57.878c0,2.854-2.324,5.175-5.179,5.175H35.1C32.246,391.338,29.924,389.017,29.924,386.163z
					 M81.267,329.263l-9.573,10.257c-0.185,0.197-0.443,0.31-0.715,0.31H35.1c-1.777,0-3.224,1.445-3.224,3.224v43.11
					c0,1.776,1.446,3.223,3.224,3.223h71.761c1.78,0,3.226-1.446,3.226-3.223v-56.9H81.267z"/>
			</g>
			<g>
				<path class="st0" d="M88.277,361.48c0,3.123,2.531,5.653,5.656,5.653c3.119,0,5.65-2.53,5.65-5.653
					c0-3.122-2.531-5.655-5.65-5.655C90.809,355.825,88.277,358.358,88.277,361.48z"/>
				<path d="M87.299,361.48c0-3.657,2.977-6.631,6.635-6.631c3.653,0,6.625,2.974,6.625,6.631c0,3.655-2.972,6.629-6.625,6.629
					C90.275,368.109,87.299,365.136,87.299,361.48z M89.252,361.48c0,2.579,2.1,4.676,4.682,4.676c2.578,0,4.675-2.097,4.675-4.676
					c0-2.581-2.097-4.679-4.675-4.679C91.352,356.802,89.252,358.899,89.252,361.48z"/>
			</g>
			<g>
				<path class="st0" d="M65.328,361.48c0,3.123,2.531,5.653,5.65,5.653c3.126,0,5.658-2.53,5.658-5.653
					c0-3.122-2.532-5.655-5.658-5.655C67.859,355.825,65.328,358.358,65.328,361.48z"/>
				<path d="M64.351,361.48c0-3.657,2.976-6.631,6.628-6.631c3.659,0,6.635,2.974,6.635,6.631c0,3.655-2.976,6.629-6.635,6.629
					C67.326,368.109,64.351,365.136,64.351,361.48z M66.301,361.48c0,2.579,2.1,4.676,4.678,4.676c2.584,0,4.682-2.097,4.682-4.676
					c0-2.581-2.098-4.679-4.682-4.679C68.4,356.802,66.301,358.899,66.301,361.48z"/>
			</g>
			<g>
				<path class="st0" d="M42.382,361.48c0,3.123,2.53,5.653,5.649,5.653c3.121,0,5.656-2.53,5.656-5.653
					c0-3.122-2.535-5.655-5.656-5.655C44.912,355.825,42.382,358.358,42.382,361.48z"/>
				<path d="M41.404,361.48c0-3.657,2.973-6.631,6.627-6.631c3.657,0,6.631,2.974,6.631,6.631c0,3.655-2.974,6.629-6.631,6.629
					C44.377,368.109,41.404,365.136,41.404,361.48z M43.357,361.48c0,2.579,2.098,4.676,4.674,4.676c2.58,0,4.679-2.097,4.679-4.676
					c0-2.581-2.099-4.679-4.679-4.679C45.455,356.802,43.357,358.899,43.357,361.48z"/>
			</g>
		</g>
		<g>
			<path d="M106.86,400.079c7.673,0,13.917-6.242,13.917-13.916c0-0.539-0.436-0.977-0.975-0.977c-0.54,0-0.977,0.438-0.977,0.977
				c0,6.596-5.366,11.963-11.965,11.963c-0.54,0-0.976,0.436-0.976,0.976C105.885,399.642,106.32,400.079,106.86,400.079z"/>
		</g>
		<g>
			<path d="M87.264,339.829h32.57c0.541,0,0.977-0.436,0.977-0.976c0-0.54-0.436-0.978-0.977-0.978h-32.57
				c-0.539,0-0.976,0.438-0.976,0.978C86.288,339.393,86.725,339.829,87.264,339.829z"/>
		</g>
		<g>
			<path d="M75.393,400.097h22.408c0.539,0,0.977-0.435,0.977-0.975c0-0.539-0.438-0.976-0.977-0.976H75.393
				c-0.541,0-0.977,0.436-0.977,0.976C74.416,399.661,74.852,400.097,75.393,400.097z"/>
		</g>
		<g>
			<path d="M236.52,185.966c-8.328,0-15.103-6.775-15.103-15.105c0-8.329,6.775-15.105,15.103-15.105
				c8.329,0,15.106,6.775,15.106,15.105C251.627,179.19,244.85,185.966,236.52,185.966z M236.52,157.708
				c-7.253,0-13.151,5.9-13.151,13.152c0,7.252,5.898,13.153,13.151,13.153c7.254,0,13.153-5.901,13.153-13.153
				C249.674,163.608,243.774,157.708,236.52,157.708z"/>
		</g>
		<g>
			<path d="M244.188,171.837h-15.332c-0.539,0-0.975-0.436-0.975-0.977c0-0.539,0.437-0.977,0.975-0.977h15.332
				c0.541,0,0.977,0.438,0.977,0.977C245.164,171.4,244.729,171.837,244.188,171.837z"/>
		</g>
		<g>
			<path d="M236.52,179.505c-0.54,0-0.978-0.438-0.978-0.978v-15.333c0-0.54,0.438-0.977,0.978-0.977
				c0.54,0,0.976,0.437,0.976,0.977v15.333C237.496,179.067,237.061,179.505,236.52,179.505z"/>
		</g>
		<g>
			<g>
				<polygon class="st1" points="84.727,60.603 84.479,60.603 84.479,92.639 53.141,92.639 53.141,60.603 52.893,60.603 
					36.977,88.171 52.916,116.169 52.916,181.707 84.703,181.707 84.703,116.169 100.646,88.171 				"/>
				<path d="M84.703,182.683H52.916c-0.54,0-0.977-0.436-0.977-0.976v-65.28L36.125,88.653c-0.17-0.301-0.166-0.67,0.006-0.971
					l15.918-27.569c0.172-0.302,0.494-0.487,0.844-0.487h0.248c0.539,0,0.977,0.437,0.977,0.977v31.061h29.385V60.603
					c0-0.54,0.438-0.977,0.977-0.977h0.248c0.352,0,0.672,0.186,0.846,0.487l15.918,27.569c0.174,0.301,0.176,0.67,0.004,0.971
					L85.68,116.427v65.28C85.68,182.247,85.244,182.683,84.703,182.683z M53.893,180.73h29.834v-64.561
					c0-0.17,0.045-0.336,0.129-0.484l15.664-27.51L85.454,63.813v28.826c0,0.54-0.437,0.978-0.976,0.978H53.141
					c-0.539,0-0.975-0.438-0.975-0.978V63.815L38.1,88.175l15.664,27.51c0.084,0.148,0.129,0.314,0.129,0.484V180.73z"/>
			</g>
			<g>
				<path class="st2" d="M77.893,181.707v-47.638c0-5.015-4.067-9.084-9.081-9.084c-5.019,0-9.081,4.069-9.081,9.084v47.638H77.893z
					"/>
				<path d="M77.893,182.683H59.73c-0.54,0-0.975-0.436-0.975-0.976v-47.638c0-5.548,4.511-10.06,10.057-10.06
					c5.545,0,10.058,4.512,10.058,10.06v47.638C78.869,182.247,78.432,182.683,77.893,182.683z M60.705,180.73h16.213v-46.661
					c0-4.471-3.637-8.107-8.106-8.107c-4.47,0-8.106,3.637-8.106,8.107V180.73z"/>
			</g>
			<g>
				<line class="st1" x1="52.916" y1="116.169" x2="67.801" y2="116.169"/>
				<path d="M67.801,117.146H52.916c-0.54,0-0.977-0.438-0.977-0.977s0.437-0.977,0.977-0.977h14.885
					c0.542,0,0.978,0.438,0.978,0.977S68.343,117.146,67.801,117.146z"/>
			</g>
		</g>
		<g>
			<g>
				<path class="st0" d="M93.986,169.591H43.432l-16.414,16.412c1.875,12.08,10.058,48.88,41.691,66.188
					c31.638-17.309,39.816-54.115,41.688-66.19L93.986,169.591z"/>
				<path d="M68.709,253.165c-0.164,0-0.324-0.039-0.47-0.119c-32.252-17.645-40.444-55.664-42.186-66.894
					c-0.049-0.309,0.053-0.62,0.275-0.84l16.416-16.411c0.182-0.184,0.43-0.287,0.688-0.287h50.555c0.26,0,0.506,0.104,0.69,0.287
					l16.411,16.409c0.221,0.22,0.32,0.531,0.274,0.839c-1.741,11.232-9.932,49.25-42.186,66.896
					C69.029,253.126,68.869,253.165,68.709,253.165z M28.06,186.341c1.854,11.521,10.015,47.654,40.648,64.734
					c30.635-17.081,38.791-53.214,40.646-64.736l-15.773-15.771H43.838L28.06,186.341z"/>
			</g>
			<g>
				<path class="st2" d="M68.709,242.783c-22.617-14.691-30.477-41.472-32.996-54.047l11.065-11.065h43.864l11.059,11.063
					C99.18,201.311,91.32,228.093,68.709,242.783z"/>
				<path d="M68.709,243.761c-0.188,0-0.373-0.053-0.534-0.158c-23.312-15.145-31.136-43.281-33.419-54.675
					c-0.064-0.32,0.035-0.651,0.267-0.882L46.09,176.98c0.182-0.183,0.43-0.286,0.688-0.286h43.864c0.26,0,0.506,0.104,0.691,0.286
					l11.058,11.064c0.231,0.23,0.332,0.563,0.267,0.883c-2.838,14.156-10.957,40.082-33.42,54.676
					C69.078,243.708,68.893,243.761,68.709,243.761z M36.775,189.056c2.342,11.37,9.99,37.961,31.934,52.56
					c21.93-14.591,29.585-41.189,31.931-52.562l-10.402-10.407H47.184L36.775,189.056z"/>
			</g>
			<g>
				<path d="M68.709,226.813c-0.541,0-0.979-0.436-0.979-0.975v-37.105c0-0.538,0.438-0.975,0.979-0.975h32.992
					c0.541,0,0.977,0.436,0.977,0.975c0,0.54-0.435,0.978-0.977,0.978H69.684v36.127C69.684,226.378,69.248,226.813,68.709,226.813z
					"/>
			</g>
		</g>
		<g>
			<path d="M144.02,228.428h-28.915c-0.54,0-0.978-0.437-0.978-0.976c0-0.54,0.438-0.977,0.978-0.977h28.915
				c0.539,0,0.977,0.436,0.977,0.977C144.996,227.991,144.559,228.428,144.02,228.428z"/>
		</g>
		<g>
			<path d="M129.561,243.415h-14.457c-0.54,0-0.978-0.438-0.978-0.977c0-0.54,0.438-0.977,0.978-0.977h14.457
				c0.54,0,0.978,0.437,0.978,0.977C130.539,242.977,130.102,243.415,129.561,243.415z"/>
		</g>
		<g>
			<path d="M272.728,240.555h-14.346c-0.54,0-0.976-0.437-0.976-0.976c0-0.539,0.436-0.977,0.976-0.977h14.346
				c0.539,0,0.977,0.438,0.977,0.977C273.705,240.118,273.267,240.555,272.728,240.555z"/>
		</g>
		<g>
			<path d="M288.816,230.243h-13.91c-0.541,0-0.977-0.437-0.977-0.976c0-0.54,0.436-0.977,0.977-0.977h13.91
				c0.541,0,0.977,0.436,0.977,0.977C289.793,229.807,289.357,230.243,288.816,230.243z"/>
		</g>
	</g>
	<g>
		<rect x="18.283" y="422.921" width="82.893" height="2.043"/>
		<rect x="46.643" y="416.378" width="54.532" height="2.045"/>
	</g>
	<g>
		<rect x="323.211" y="422.921" width="82.893" height="2.043"/>
		<rect x="323.211" y="416.378" width="54.533" height="2.045"/>
	</g>
	<g>
		<g>
			<path d="M103.176,305.206l-6.291-4.377c-0.201-0.026-0.389-0.133-0.514-0.311c-0.102-0.146-0.14-0.316-0.13-0.478
				c-0.01-0.163,0.028-0.333,0.13-0.48c0.125-0.179,0.313-0.286,0.514-0.31l6.291-4.374c0.344-0.238,0.811-0.156,1.045,0.188
				c0.236,0.338,0.154,0.808-0.186,1.041l-5.66,3.936l5.66,3.933c0.34,0.236,0.422,0.704,0.186,1.042
				C103.986,305.355,103.52,305.441,103.176,305.206z"/>
		</g>
		<g>
			<path d="M109.912,305.206l-6.293-4.377c-0.199-0.026-0.391-0.133-0.516-0.311c-0.1-0.146-0.141-0.316-0.13-0.478
				c-0.011-0.163,0.03-0.333,0.13-0.48c0.125-0.179,0.316-0.286,0.516-0.31l6.293-4.374c0.34-0.238,0.805-0.156,1.041,0.188
				c0.236,0.338,0.152,0.808-0.186,1.041l-5.66,3.936l5.66,3.933c0.338,0.236,0.422,0.704,0.186,1.042
				C110.717,305.355,110.252,305.441,109.912,305.206z"/>
		</g>
		<g>
			<path d="M116.641,305.494l-6.289-4.377c-0.203-0.026-0.391-0.132-0.514-0.312c-0.101-0.145-0.142-0.313-0.131-0.48
				c-0.011-0.162,0.03-0.33,0.131-0.477c0.123-0.178,0.311-0.284,0.514-0.311l6.289-4.376c0.344-0.236,0.811-0.152,1.047,0.188
				c0.234,0.342,0.152,0.807-0.188,1.044l-5.658,3.931l5.658,3.936c0.34,0.233,0.422,0.704,0.188,1.041
				C117.451,305.646,116.984,305.728,116.641,305.494z"/>
		</g>
		<g>
			<path d="M123.375,305.494l-6.295-4.377c-0.199-0.026-0.387-0.132-0.51-0.312c-0.104-0.145-0.142-0.313-0.13-0.48
				c-0.012-0.162,0.026-0.33,0.13-0.477c0.123-0.178,0.311-0.284,0.51-0.311l6.295-4.376c0.34-0.236,0.809-0.152,1.046,0.188
				c0.235,0.342,0.149,0.807-0.192,1.044l-5.656,3.931l5.656,3.936c0.342,0.233,0.428,0.704,0.192,1.041
				C124.184,305.646,123.715,305.728,123.375,305.494z"/>
		</g>
	</g>
	<g>
		<g>
			<path d="M289.082,156.513l6.293-4.377c0.199-0.026,0.387-0.134,0.512-0.311c0.103-0.146,0.141-0.316,0.131-0.479
				c0.01-0.163-0.028-0.332-0.131-0.479c-0.125-0.179-0.313-0.286-0.512-0.311l-6.293-4.374c-0.344-0.238-0.81-0.156-1.045,0.188
				c-0.236,0.338-0.154,0.808,0.186,1.041l5.659,3.935l-5.659,3.933c-0.341,0.237-0.423,0.705-0.186,1.043
				C288.272,156.662,288.738,156.747,289.082,156.513z"/>
		</g>
		<g>
			<path d="M282.347,156.513l6.293-4.377c0.199-0.026,0.39-0.134,0.515-0.311c0.101-0.146,0.141-0.316,0.131-0.479
				c0.01-0.163-0.03-0.332-0.131-0.479c-0.125-0.179-0.315-0.286-0.515-0.311l-6.293-4.374c-0.341-0.238-0.804-0.156-1.042,0.188
				c-0.236,0.338-0.152,0.808,0.187,1.041l5.659,3.935l-5.659,3.933c-0.339,0.237-0.423,0.705-0.187,1.043
				C281.543,156.662,282.006,156.747,282.347,156.513z"/>
		</g>
		<g>
			<path d="M275.617,156.8l6.29-4.377c0.202-0.025,0.39-0.131,0.515-0.311c0.1-0.145,0.141-0.314,0.131-0.48
				c0.01-0.162-0.031-0.33-0.131-0.477c-0.125-0.178-0.313-0.285-0.515-0.311l-6.29-4.376c-0.344-0.237-0.811-0.153-1.046,0.188
				c-0.235,0.343-0.153,0.808,0.188,1.045l5.659,3.931l-5.659,3.936c-0.341,0.233-0.423,0.704-0.188,1.041
				C274.807,156.952,275.273,157.034,275.617,156.8z"/>
		</g>
		<g>
			<path d="M268.883,156.8l6.295-4.377c0.199-0.025,0.387-0.131,0.51-0.311c0.103-0.145,0.142-0.314,0.131-0.48
				c0.012-0.162-0.027-0.33-0.131-0.477c-0.123-0.178-0.311-0.285-0.51-0.311l-6.295-4.376c-0.34-0.237-0.809-0.153-1.046,0.188
				c-0.235,0.343-0.149,0.808,0.192,1.045l5.656,3.931l-5.656,3.936c-0.342,0.233-0.428,0.704-0.192,1.041
				C268.074,156.952,268.543,157.034,268.883,156.8z"/>
		</g>
	</g>
	<g>
		<g>
			<path class="st4" d="M128.09,51.421v-4.723c0.67-0.273,1.689-0.629,2.501-1.062l3.31,3.341c0.316,0.317,0.816,0.317,1.135,0
				l4.779-4.787c0.314-0.316,0.313-0.828-0.006-1.146l-3.342-3.533c0.436-0.811,0.785-1.409,1.057-2.751h4.727
				c0.449,0,0.582,0.022,0.582-0.427v-6.768c0-0.449-0.133-0.848-0.582-0.848h-4.727c-0.271-1.341-0.623-1.728-1.057-2.538
				l3.339-3.333c0.319-0.316,0.319-0.825,0-1.142l-4.788-4.785c-0.314-0.318-0.829-0.315-1.145,0.002l-3.282,3.339
				c-0.813-0.429-1.831-0.786-2.501-1.061v-4.725c0-0.447-0.479-1.169-0.927-1.169h-6.769c-0.449,0-1.017,0.722-1.017,1.169v4.725
				c-0.671,0.274-1.647,0.632-2.454,1.061l-3.291-3.337c-0.314-0.319-0.804-0.319-1.119,0l-4.779,4.785
				c-0.314,0.316-0.309,0.828,0.008,1.146l3.348,3.326c-0.434,0.809-0.791,1.197-1.059,2.538h-4.725
				c-0.447,0-1.344,0.399-1.344,0.848v6.768c0,0.449,0.896,0.427,1.344,0.427h4.725c0.271,1.342,0.631,1.94,1.062,2.751
				l-3.345,3.438c-0.314,0.317-0.314,0.877,0,1.194l4.791,4.81c0.315,0.317,0.826,0.331,1.145,0.011l3.24-3.334
				c0.807,0.434,1.783,0.795,2.454,1.068v4.723c0,0.448,0.567,0.753,1.017,0.753h6.769C127.61,52.174,128.09,51.869,128.09,51.421z"
				/>
			<circle class="st5" cx="123.605" cy="33.173" r="6.075"/>
		</g>
		<line class="st6" x1="99.942" y1="44.132" x2="77.156" y2="44.132"/>
		<line class="st6" x1="97.263" y1="32.741" x2="65.764" y2="32.741"/>
		<line class="st6" x1="98.602" y1="20.007" x2="85.869" y2="20.007"/>
	</g>
	<g>
		<polygon class="st0" points="268.818,0 247.945,0 247.945,19.854 253.045,19.854 251.893,26.612 257.02,19.854 268.818,19.854 		
			"/>
		<g>
			<path class="st3" d="M257.354,12.89c-0.286,0-0.558-0.119-0.753-0.326l-1.711-1.789c-0.396-0.418-0.381-1.076,0.037-1.475
				c0.416-0.396,1.072-0.381,1.469,0.035l0.896,0.942l3.023-3.687c0.363-0.445,1.021-0.51,1.465-0.146
				c0.447,0.367,0.51,1.021,0.145,1.466l-3.768,4.596c-0.19,0.231-0.469,0.368-0.764,0.377
				C257.383,12.89,257.367,12.89,257.354,12.89L257.354,12.89z"/>
		</g>
	</g>
	<g>
		<rect x="51.686" y="280.524" class="st3" width="33.076" height="1.637"/>
		<rect x="9.301" y="280.524" class="st3" width="33.081" height="1.637"/>
		<rect x="0" y="280.524" class="st3" width="3.1" height="1.637"/>
	</g>
	<g>
		<rect x="349.74" y="31.413" width="33.076" height="1.637"/>
		<rect x="307.357" y="31.413" width="33.078" height="1.637"/>
		<rect x="298.055" y="31.413" width="3.102" height="1.637"/>
	</g>
	<g>
		<path class="st3" d="M58.18,314.162c0,0.257-0.012,0.469-0.039,0.64c-0.027,0.175-0.068,0.313-0.123,0.416
			c-0.056,0.105-0.119,0.18-0.19,0.226c-0.075,0.046-0.149,0.069-0.231,0.069h-4.239v4.619c0,0.092-0.022,0.171-0.067,0.238
			c-0.047,0.067-0.123,0.128-0.231,0.178c-0.112,0.051-0.257,0.09-0.438,0.117c-0.182,0.025-0.406,0.041-0.681,0.041
			c-0.271,0-0.499-0.016-0.681-0.041c-0.182-0.027-0.326-0.066-0.434-0.117c-0.113-0.05-0.19-0.11-0.242-0.178
			c-0.049-0.067-0.073-0.146-0.073-0.238v-4.619h-4.228c-0.08,0-0.154-0.023-0.223-0.069c-0.068-0.046-0.129-0.12-0.182-0.226
			c-0.056-0.104-0.1-0.241-0.134-0.416c-0.03-0.171-0.043-0.383-0.043-0.64c0-0.245,0.013-0.454,0.04-0.633
			c0.025-0.178,0.066-0.317,0.113-0.421c0.051-0.105,0.109-0.182,0.172-0.226c0.063-0.046,0.137-0.069,0.219-0.069h4.265v-4.605
			c0-0.092,0.024-0.175,0.073-0.254c0.052-0.077,0.129-0.141,0.242-0.19c0.107-0.051,0.252-0.089,0.434-0.115
			c0.182-0.028,0.41-0.041,0.681-0.041c0.274,0,0.499,0.013,0.681,0.041c0.182,0.026,0.326,0.064,0.438,0.115
			c0.108,0.05,0.185,0.113,0.231,0.19c0.045,0.079,0.067,0.162,0.067,0.254v4.605h4.277c0.075,0,0.144,0.024,0.214,0.069
			c0.066,0.044,0.129,0.12,0.177,0.226c0.051,0.104,0.089,0.243,0.116,0.421C58.168,313.708,58.18,313.917,58.18,314.162z"/>
	</g>
	<g>
		<path d="M183.08,240.417c0,0.256-0.013,0.469-0.041,0.639c-0.027,0.175-0.068,0.313-0.123,0.416
			c-0.057,0.105-0.117,0.18-0.191,0.227c-0.072,0.045-0.149,0.068-0.231,0.068h-4.239v4.619c0,0.092-0.023,0.171-0.066,0.238
			c-0.047,0.067-0.124,0.129-0.23,0.178c-0.112,0.051-0.257,0.09-0.439,0.117c-0.184,0.025-0.406,0.041-0.682,0.041
			c-0.271,0-0.498-0.016-0.679-0.041c-0.183-0.027-0.327-0.066-0.436-0.117c-0.111-0.049-0.189-0.11-0.241-0.178
			c-0.048-0.067-0.072-0.146-0.072-0.238v-4.619h-4.227c-0.08,0-0.154-0.023-0.223-0.068c-0.068-0.047-0.129-0.121-0.184-0.227
			c-0.055-0.104-0.099-0.241-0.131-0.416c-0.031-0.17-0.045-0.383-0.045-0.639c0-0.246,0.014-0.455,0.041-0.634
			c0.025-0.178,0.066-0.317,0.113-0.421c0.051-0.105,0.109-0.182,0.172-0.226c0.063-0.046,0.136-0.069,0.219-0.069h4.265v-4.605
			c0-0.092,0.024-0.174,0.072-0.254c0.053-0.076,0.13-0.141,0.241-0.19c0.109-0.051,0.254-0.089,0.436-0.114
			c0.181-0.028,0.407-0.042,0.679-0.042c0.275,0,0.498,0.014,0.682,0.042c0.183,0.025,0.327,0.063,0.439,0.114
			c0.106,0.05,0.184,0.114,0.23,0.19c0.044,0.08,0.066,0.162,0.066,0.254v4.605h4.279c0.073,0,0.143,0.023,0.213,0.069
			c0.066,0.044,0.129,0.12,0.176,0.226c0.053,0.104,0.09,0.243,0.117,0.421C183.067,239.962,183.08,240.171,183.08,240.417z"/>
	</g>
	<g>
		<path d="M377.004,323.298c0,0.257-0.012,0.469-0.041,0.64c-0.027,0.175-0.068,0.313-0.123,0.417
			c-0.057,0.104-0.117,0.179-0.189,0.225c-0.072,0.046-0.15,0.069-0.232,0.069h-4.24v4.618c0,0.093-0.022,0.172-0.064,0.239
			c-0.047,0.067-0.125,0.128-0.233,0.178c-0.111,0.051-0.256,0.09-0.438,0.116c-0.183,0.026-0.407,0.041-0.681,0.041
			c-0.271,0-0.498-0.015-0.68-0.041c-0.18-0.026-0.327-0.065-0.435-0.116c-0.113-0.05-0.19-0.11-0.242-0.178
			c-0.047-0.067-0.074-0.146-0.074-0.239v-4.618h-4.225c-0.079,0-0.156-0.023-0.224-0.069c-0.068-0.046-0.131-0.12-0.184-0.225
			c-0.053-0.104-0.1-0.242-0.129-0.417c-0.033-0.171-0.046-0.383-0.046-0.64c0-0.245,0.013-0.454,0.041-0.633
			c0.025-0.178,0.065-0.318,0.114-0.422c0.049-0.105,0.107-0.181,0.172-0.225c0.059-0.047,0.135-0.069,0.217-0.069h4.264v-4.605
			c0-0.093,0.027-0.175,0.074-0.254c0.053-0.077,0.129-0.142,0.242-0.19c0.108-0.051,0.256-0.089,0.435-0.115
			c0.182-0.027,0.408-0.041,0.68-0.041c0.273,0,0.498,0.014,0.681,0.041c0.183,0.026,0.327,0.065,0.438,0.115
			c0.108,0.049,0.186,0.113,0.233,0.19c0.043,0.079,0.064,0.161,0.064,0.254v4.605h4.279c0.072,0,0.143,0.022,0.215,0.069
			c0.065,0.044,0.126,0.119,0.178,0.225c0.049,0.103,0.086,0.244,0.113,0.422C376.992,322.844,377.004,323.053,377.004,323.298z"/>
	</g>
</g>
</svg>