<!-- Generator: Adobe Illustrator 17.0.0, SVG Export Plug-In  -->
<svg version="1.1"
	 xmlns="http://www.w3.org/2000/svg" xmlns:xlink="http://www.w3.org/1999/xlink" xmlns:a="http://ns.adobe.com/AdobeSVGViewerExtensions/3.0/"
	 x="0px" y="0px" width="307.608px" height="62.096px" viewBox="0 0 307.608 62.096"
	 style="enable-background:new 0 0 307.608 62.096;" xml:space="preserve">
<style type="text/css">
	.st0{fill-rule:evenodd;clip-rule:evenodd;fill:#888586;}
	.st1{fill-rule:evenodd;clip-rule:evenodd;fill:#E7E3E2;}
	.st2{fill-rule:evenodd;clip-rule:evenodd;fill:#E54F26;}
	.st3{fill-rule:evenodd;clip-rule:evenodd;}
	.st4{fill:#FFFFFF;}
	.st5{fill:#E54F26;}
	.st6{fill:url(#XMLID_13_);}
	.st7{fill:url(#XMLID_14_);}
	.st8{fill:url(#XMLID_15_);}
	.st9{fill:url(#XMLID_16_);}
	.st10{fill:url(#XMLID_17_);}
	.st11{fill:url(#XMLID_18_);}
	.st12{fill:url(#XMLID_19_);}
	.st13{fill:url(#XMLID_20_);}
</style>
<defs>
</defs>
<g>
	<polygon class="st0" points="0,56.326 0,62.096 208.188,62.096 307.608,62.096 307.608,56.326 282.733,56.326 208.188,56.326 
		133.598,56.326 	"/>
	<rect x="0" y="0" class="st1" width="307.608" height="58.25"/>
	<rect x="229.011" y="0" class="st2" width="78.598" height="58.25"/>
	<polygon class="st3" points="229.011,62.096 229.011,58.25 307.608,58.25 307.608,62.096 233.412,62.096 	"/>
	<g>
		<path d="M91.651,35.266v-12.4h9.193v2.098h-6.69v2.749h6.226v2.09h-6.226v3.375h6.928v2.089H91.651z"/>
		<path d="M104.649,31.231l2.436-0.237c0.146,0.817,0.444,1.418,0.893,1.802s1.054,0.575,1.814,0.575
			c0.807,0,1.414-0.171,1.823-0.512c0.408-0.341,0.613-0.74,0.613-1.197c0-0.293-0.087-0.542-0.259-0.748s-0.472-0.385-0.9-0.537
			c-0.293-0.102-0.962-0.282-2.005-0.542c-1.342-0.332-2.283-0.741-2.825-1.226c-0.761-0.683-1.142-1.515-1.142-2.496
			c0-0.631,0.179-1.222,0.537-1.771s0.874-0.969,1.548-1.256c0.674-0.288,1.487-0.432,2.44-0.432c1.556,0,2.728,0.341,3.515,1.023
			c0.786,0.683,1.199,1.593,1.238,2.732l-2.503,0.109c-0.107-0.637-0.337-1.095-0.689-1.374s-0.881-0.419-1.586-0.419
			c-0.728,0-1.297,0.149-1.709,0.448c-0.265,0.191-0.397,0.448-0.397,0.77c0,0.294,0.124,0.545,0.372,0.753
			c0.316,0.266,1.083,0.541,2.301,0.829c1.218,0.287,2.119,0.585,2.702,0.893c0.584,0.307,1.041,0.728,1.371,1.26
			c0.329,0.533,0.494,1.191,0.494,1.976c0,0.71-0.197,1.376-0.592,1.996s-0.953,1.081-1.675,1.383s-1.621,0.452-2.698,0.452
			c-1.567,0-2.771-0.362-3.611-1.087C105.314,33.674,104.813,32.618,104.649,31.231z"/>
		<path d="M121.707,35.266V24.963h-3.68v-2.098h9.854v2.098h-3.671v10.303H121.707z"/>
		<path d="M131.5,35.266v-12.4h2.503v12.4H131.5z"/>
		<path d="M138.534,35.266V22.967h2.504v10.21h6.225v2.089H138.534z"/>
		<path d="M150.619,29.142c0-1.263,0.188-2.323,0.566-3.18c0.282-0.632,0.667-1.198,1.154-1.7c0.488-0.502,1.022-0.874,1.604-1.117
			c0.772-0.327,1.663-0.49,2.673-0.49c1.827,0,3.289,0.566,4.386,1.7c1.097,1.133,1.645,2.709,1.645,4.729
			c0,2.001-0.544,3.567-1.632,4.698c-1.089,1.131-2.544,1.696-4.365,1.696c-1.844,0-3.31-0.563-4.398-1.688
			C151.163,32.665,150.619,31.115,150.619,29.142z M153.199,29.058c0,1.403,0.324,2.468,0.973,3.192s1.472,1.087,2.47,1.087
			s1.816-0.359,2.457-1.078c0.64-0.719,0.96-1.798,0.96-3.235c0-1.421-0.312-2.481-0.935-3.181s-1.451-1.049-2.482-1.049
			c-1.032,0-1.864,0.354-2.495,1.062C153.515,26.563,153.199,27.631,153.199,29.058z"/>
		<path d="M166.046,31.231l2.436-0.237c0.146,0.817,0.444,1.418,0.893,1.802s1.054,0.575,1.814,0.575
			c0.807,0,1.414-0.171,1.823-0.512c0.408-0.341,0.613-0.74,0.613-1.197c0-0.293-0.087-0.542-0.259-0.748s-0.472-0.385-0.9-0.537
			c-0.293-0.102-0.962-0.282-2.005-0.542c-1.342-0.332-2.283-0.741-2.825-1.226c-0.761-0.683-1.142-1.515-1.142-2.496
			c0-0.631,0.179-1.222,0.537-1.771s0.874-0.969,1.548-1.256c0.674-0.288,1.487-0.432,2.44-0.432c1.556,0,2.728,0.341,3.515,1.023
			c0.786,0.683,1.199,1.593,1.238,2.732l-2.503,0.109c-0.107-0.637-0.337-1.095-0.689-1.374s-0.881-0.419-1.586-0.419
			c-0.728,0-1.297,0.149-1.709,0.448c-0.265,0.191-0.397,0.448-0.397,0.77c0,0.294,0.124,0.545,0.372,0.753
			c0.316,0.266,1.083,0.541,2.301,0.829c1.218,0.287,2.119,0.585,2.702,0.893c0.584,0.307,1.041,0.728,1.371,1.26
			c0.329,0.533,0.494,1.191,0.494,1.976c0,0.71-0.197,1.376-0.592,1.996s-0.953,1.081-1.675,1.383s-1.621,0.452-2.698,0.452
			c-1.567,0-2.771-0.362-3.611-1.087C166.711,33.674,166.209,32.618,166.046,31.231z"/>
	</g>
	<g id="XMLID_10_">
		<path id="XMLID_12_" class="st4" d="M247.24,45.661c-1.069,1.073-1.069,2.679,0,3.886l0.672,0.669
			c1.068,1.069,2.811,1.069,3.885,0l8.57-8.571c0.531-0.668,0.801-1.338,0.801-2.143l2.813-2.812
			c6.426,4.819,15.53,4.421,21.424-1.472c6.43-6.428,6.43-16.74,0-23.165c-6.426-6.429-16.738-6.429-23.164,0
			c-5.893,5.892-6.296,14.995-1.477,21.424l-2.811,2.81c-0.8,0-1.605,0.269-2.141,0.806L247.24,45.661L247.24,45.661z
			 M265.855,31.603c-4.42-4.419-4.555-11.65,0-16.067c4.418-4.419,11.647-4.419,16.066,0c4.417,4.417,4.417,11.648,0,16.067
			C277.502,36.022,270.273,36.022,265.855,31.603L265.855,31.603z"/>
		<path id="XMLID_11_" class="st4" d="M269.336,21.826h2.678v-2.677c0-0.938,0.805-1.741,1.74-1.741l0,0
			c0.941,0,1.742,0.804,1.742,1.741v2.677h2.679c0.936,0,1.741,0.805,1.741,1.74l0,0c0,0.94-0.805,1.741-1.741,1.741h-2.679v2.681
			c0,0.935-0.801,1.741-1.742,1.741l0,0c-0.936,0-1.74-0.807-1.74-1.741v-2.681h-2.678c-0.936,0-1.742-0.801-1.742-1.741l0,0
			C267.594,22.631,268.4,21.826,269.336,21.826L269.336,21.826z"/>
	</g>
	<g id="XMLID_1_">
		<rect x="13.268" y="12.536" class="st5" width="23.416" height="27.145"/>
		<path id="XMLID_6_" d="M39.723,41.933H16.307v-1.276h21.359V14.79h2.057V41.933L39.723,41.933z M13.268,12.536h23.416v27.144
			H13.268V12.536L13.268,12.536z M37.666,13.811v-2.254H12.289v29.1h3.036v2.256h25.378V13.811H37.666L37.666,13.811z"/>
		<linearGradient id="XMLID_13_" gradientUnits="userSpaceOnUse" x1="25.5625" y1="35.7578" x2="26.5909" y2="35.7578">
			<stop  offset="0" style="stop-color:#F5F5F5"/>
			<stop  offset="1" style="stop-color:#E8E8E8"/>
		</linearGradient>
		<polygon id="XMLID_5_" class="st6" points="25.563,35.269 26.591,35.269 26.591,36.247 25.563,36.247 25.563,35.269 		"/>
		<linearGradient id="XMLID_14_" gradientUnits="userSpaceOnUse" x1="27.7715" y1="35.7578" x2="28.8008" y2="35.7578">
			<stop  offset="0" style="stop-color:#F5F5F5"/>
			<stop  offset="1" style="stop-color:#E8E8E8"/>
		</linearGradient>
		<polygon id="XMLID_4_" class="st7" points="27.771,35.269 28.801,35.269 28.801,36.247 27.771,36.247 27.771,35.269 		"/>
		<linearGradient id="XMLID_15_" gradientUnits="userSpaceOnUse" x1="30.0245" y1="35.7578" x2="31.0547" y2="35.7578">
			<stop  offset="0" style="stop-color:#F5F5F5"/>
			<stop  offset="1" style="stop-color:#E8E8E8"/>
		</linearGradient>
		<polygon id="XMLID_3_" class="st8" points="30.024,35.269 31.055,35.269 31.055,36.247 30.024,36.247 30.024,35.269 		"/>
		<linearGradient id="XMLID_16_" gradientUnits="userSpaceOnUse" x1="32.2276" y1="35.7578" x2="33.2579" y2="35.7578">
			<stop  offset="0" style="stop-color:#F5F5F5"/>
			<stop  offset="1" style="stop-color:#E8E8E8"/>
		</linearGradient>
		<polygon id="XMLID_2_" class="st9" points="32.228,35.269 33.258,35.269 33.258,36.247 32.228,36.247 32.228,35.269 		"/>
	</g>
	<path class="st4" d="M19.175,18.754c0,0.492,0.069,0.968,0.14,1.461c0.07,0.489,0.14,0.982,0.14,1.475c0,0.615-0.175,1.3-1.425,1.3
		v0.896c1.25,0,1.425,0.757,1.425,1.3c0,0.476-0.069,0.949-0.14,1.425c-0.07,0.476-0.14,0.966-0.14,1.441
		c0,1.773,1.087,2.407,2.55,2.407h0.366v-0.966h-0.316c-0.985,0-1.389-0.545-1.389-1.53c0-0.42,0.051-0.827,0.123-1.267
		c0.07-0.42,0.123-0.859,0.123-1.332c0.019-1.128-0.473-1.723-1.268-1.918v-0.033c0.795-0.212,1.283-0.774,1.268-1.9
		c0-0.474-0.053-0.896-0.123-1.333c-0.072-0.423-0.123-0.847-0.123-1.25c0-0.948,0.351-1.511,1.389-1.511h0.316v-0.966h-0.366
		C20.23,16.452,19.175,17.137,19.175,18.754z"/>
	<path class="st4" d="M29.334,21.689c0-0.492,0.072-0.985,0.142-1.475c0.071-0.493,0.142-0.966,0.142-1.461
		c0-1.617-1.072-2.302-2.566-2.302h-0.354v0.966h0.32c1.018,0.017,1.389,0.563,1.389,1.511c0,0.403-0.07,0.827-0.125,1.25
		c-0.071,0.439-0.141,0.859-0.141,1.333c0,1.127,0.492,1.688,1.266,1.9v0.033c-0.773,0.195-1.266,0.79-1.266,1.918
		c0,0.473,0.069,0.912,0.141,1.332c0.055,0.443,0.125,0.847,0.125,1.267c0,0.985-0.424,1.511-1.406,1.53h-0.303v0.966h0.373
		c1.44,0,2.547-0.635,2.547-2.407c0-0.476-0.07-0.966-0.142-1.441c-0.069-0.476-0.142-0.949-0.142-1.425
		c0-0.546,0.177-1.3,1.424-1.3v-0.896C29.511,22.989,29.334,22.305,29.334,21.689z"/>
</g>
</svg>