<!-- Generator: Adobe Illustrator 17.0.0, SVG Export Plug-In  -->
<svg version="1.1"
	 xmlns="http://www.w3.org/2000/svg" xmlns:xlink="http://www.w3.org/1999/xlink" xmlns:a="http://ns.adobe.com/AdobeSVGViewerExtensions/3.0/"
	 x="0px" y="0px" width="484.842px" height="167.345px" viewBox="0 0 484.842 167.345"
	 style="enable-background:new 0 0 484.842 167.345;" xml:space="preserve">
<style type="text/css">
	.st0{fill-rule:evenodd;clip-rule:evenodd;fill:#E54F26;stroke:#020202;stroke-width:0.25;stroke-miterlimit:10;}
	.st1{fill-rule:evenodd;clip-rule:evenodd;}
	.st2{fill-rule:evenodd;clip-rule:evenodd;fill:#FFFFFF;}
	.st3{fill-rule:evenodd;clip-rule:evenodd;fill:#FFFFFF;stroke:#000000;stroke-miterlimit:10;}
	.st4{fill:#D1D2D3;}
	.st5{fill:#F1F1F1;}
	.st6{fill:#FFFFFF;}
	.st7{fill:#231F20;}
	.st8{opacity:0.6;}
	.st9{fill:#E7E6E6;}
	.st10{fill:#A7A8AC;}
	.st11{fill:#E54F26;}
	.st12{fill:none;stroke:#313131;stroke-width:2;stroke-miterlimit:10;}
	.st13{fill:none;stroke:#231F20;stroke-width:2;stroke-linejoin:round;stroke-miterlimit:10;}
	.st14{fill:none;stroke:#000000;stroke-width:2;stroke-linejoin:round;stroke-miterlimit:10;}
</style>
<defs>
</defs>
<g>
	<g>
		<g>
			<g id="Red_Attribut_1_">
				<path class="st0" d="M52.68,119.193h97.559c1.895,0,3.455,1.563,3.455,3.489l0,0c0,1.894-1.561,3.456-3.455,3.456H52.68
					c-1.927,0-3.488-1.563-3.488-3.456l0,0C49.191,120.756,50.753,119.193,52.68,119.193L52.68,119.193z M75.641,138.932h97.559
					c1.927,0,3.487,1.561,3.487,3.487l0,0c0,1.895-1.56,3.456-3.487,3.456H75.641c-1.893,0-3.456-1.561-3.456-3.456l0,0
					C72.185,140.492,73.748,138.932,75.641,138.932L75.641,138.932z M64.144,128.962h97.591c1.893,0,3.456,1.563,3.456,3.457l0,0
					c0,1.927-1.563,3.486-3.456,3.486H64.144c-1.895,0-3.455-1.56-3.455-3.486l0,0C60.688,130.524,62.249,128.962,64.144,128.962
					L64.144,128.962z"/>
				<path class="st0" d="M169.211,40.477c18.508-1.962,35.088,11.463,37.049,29.971c1.959,18.477-11.464,35.057-29.939,37.016
					c-4.75,0.499-9.336,0-13.622-1.329l-14.022,5.416l3.423-10.964c-6.98-5.45-11.83-13.591-12.828-23.061
					C137.311,59.018,150.735,42.438,169.211,40.477L169.211,40.477z M167.873,96.164h9.67c-0.052-0.565-0.103-1.105-0.152-1.673
					h-9.337C167.977,95.059,167.926,95.599,167.873,96.164L167.873,96.164z M171.914,79.293c0.229,0.256,0.229,0.669-0.055,0.901
					c-0.256,0.257-0.642,0.231-0.898-0.026c-0.104-0.152-0.334-0.361-0.645-0.591c0.026,0.617,0.284,1.183,0.721,1.618
					c0.412,0.413,1.003,0.694,1.673,0.694c0.668,0,1.259-0.281,1.696-0.694l0,0c0.412-0.436,0.669-1.001,0.695-1.618
					c-0.308,0.229-0.515,0.438-0.644,0.591c-0.231,0.258-0.642,0.283-0.899,0.026c-0.283-0.232-0.283-0.646-0.052-0.901
					c0.205-0.229,0.668-0.615,1.209-1.08c-0.079-0.153-0.206-0.282-0.31-0.386c-0.438-0.436-1.028-0.72-1.696-0.72
					c-0.67,0-1.261,0.284-1.697,0.695c-0.102,0.128-0.205,0.257-0.31,0.41C171.244,78.678,171.707,79.064,171.914,79.293
					L171.914,79.293z M169.16,78.6c-1.054-0.85-2.187-1.697-2.187-1.697c-0.283-0.207-0.333-0.592-0.128-0.875l0.025-0.051l0,0
					l2.881-3.317c0.23-0.257,0.643-0.284,0.9-0.077c0.258,0.23,0.309,0.644,0.077,0.925l-2.444,2.804
					c0.36,0.283,0.875,0.669,1.416,1.104c0.127-0.177,0.258-0.358,0.41-0.513l0,0c0.668-0.645,1.596-1.055,2.599-1.055
					c1.002,0,1.927,0.41,2.597,1.055c0.155,0.154,0.281,0.336,0.41,0.513c0.541-0.436,1.057-0.821,1.416-1.104l-2.417-2.804
					c-0.231-0.281-0.206-0.694,0.05-0.925c0.258-0.207,0.67-0.18,0.901,0.077l2.882,3.317l0,0l0.024,0.051
					c0.205,0.283,0.154,0.668-0.129,0.875c0,0-1.106,0.848-2.187,1.697c0.076,0.283,0.129,0.591,0.129,0.9
					c0,1.003-0.41,1.928-1.08,2.597l0,0l0,0l0,0c-0.67,0.669-1.595,1.08-2.597,1.08c-1.003,0-1.931-0.411-2.599-1.08
					c-0.642-0.669-1.054-1.594-1.054-2.597C169.058,79.19,169.084,78.883,169.16,78.6L169.16,78.6z M177.596,97.449h-9.773v0.181
					c0,0.205,0.103,0.386,0.23,0.513c0.129,0.131,0.308,0.209,0.489,0.209h8.333c0.181,0,0.359-0.078,0.488-0.209
					c0.155-0.127,0.231-0.308,0.231-0.513V97.449z M167.076,90.095c0-0.335,0.026-0.643,0.079-0.951
					c0-0.077,0.026-0.154,0.026-0.258c0-0.024-0.026-0.052-0.053-0.103c-2.648-1.078-4.938-2.906-6.559-5.219
					c-1.695-2.418-2.699-5.351-2.699-8.538c0-4.115,1.646-7.82,4.347-10.493c2.675-2.7,6.403-4.373,10.492-4.373
					c4.089,0,7.818,1.673,10.491,4.373c2.701,2.673,4.346,6.378,4.346,10.493c0,3.188-1.001,6.12-2.701,8.538
					c-1.618,2.313-3.907,4.141-6.557,5.219c-0.023,0.052-0.023,0.079-0.05,0.103c0,0.104,0.026,0.181,0.026,0.258
					c0.05,0.309,0.074,0.616,0.074,0.951c0,1.492,0.131,2.727,0.26,3.91c0.154,1.182,0.255,2.312,0.255,3.625
					c0,0.566-0.205,1.054-0.565,1.414c-0.359,0.361-0.872,0.591-1.413,0.591h-8.333c-0.539,0-1.027-0.229-1.414-0.591
					c-0.36-0.36-0.565-0.848-0.565-1.414c0-1.313,0.127-2.443,0.258-3.625C166.948,92.821,167.076,91.587,167.076,90.095
					L167.076,90.095z M168.414,89.323c-0.024,0.259-0.053,0.489-0.053,0.772v0.181h8.695v-0.181c0-0.282-0.026-0.513-0.053-0.772
					c0-0.051-0.025-0.102-0.025-0.154h-8.538C168.44,89.221,168.414,89.272,168.414,89.323L168.414,89.323z M168.311,91.561
					c-0.026,0.593-0.076,1.132-0.129,1.673h9.053c-0.052-0.541-0.103-1.08-0.129-1.673H168.311z M177.081,87.883
					c0.052-0.025,0.102-0.052,0.154-0.077c2.675-0.926,4.962-2.7,6.559-4.962c1.569-2.212,2.494-4.913,2.494-7.818
					c0-3.755-1.519-7.151-3.988-9.592c-2.441-2.47-5.835-3.987-9.59-3.987c-3.755,0-7.15,1.518-9.594,3.987
					c-2.468,2.44-3.986,5.837-3.986,9.592c0,2.905,0.926,5.606,2.494,7.818c1.595,2.262,3.886,4.036,6.559,4.962l0,0
					c0.053,0.025,0.103,0.052,0.155,0.077H177.081z M172.248,54.811h0.925V49.05h-0.925V54.811z M155.94,65.741l-0.334,0.847
					l-4.087-1.645l0.36-0.873L155.94,65.741z M166.125,56.019l-0.849,0.36l-1.671-4.061l0.849-0.362L166.125,56.019z M154.836,69.16
					l-0.181,0.927l-2.828-0.54l0.179-0.928L154.836,69.16z M157.716,62.603l-0.515,0.771l-2.392-1.593l0.489-0.773L157.716,62.603z
					 M162.859,57.666l-0.771,0.513l-1.621-2.365l0.772-0.541L162.859,57.666z M169.52,55.067l-0.899,0.205l-0.567-2.827l0.901-0.182
					L169.52,55.067z M154.682,54.707l-0.645,0.67l0.594,0.592l0.642-0.671L154.682,54.707z M159.979,59.93l-0.642,0.668
					l-4.114-4.038l0.667-0.667L159.979,59.93z M189.477,65.741l0.334,0.847l4.091-1.645l-0.334-0.873L189.477,65.741z
					 M179.293,56.019l0.849,0.36l1.698-4.061l-0.875-0.362L179.293,56.019z M190.582,69.16l0.182,0.927l2.83-0.54l-0.182-0.928
					L190.582,69.16z M187.702,62.603l0.515,0.771l2.392-1.593l-0.488-0.773L187.702,62.603z M182.56,57.666l0.772,0.513l1.619-2.365
					l-0.773-0.541L182.56,57.666z M175.898,55.067l0.9,0.205l0.592-2.827l-0.926-0.182L175.898,55.067z M190.737,54.707l0.668,0.67
					l-0.616,0.592l-0.644-0.671L190.737,54.707z M172.248,47.354h0.925v0.849h-0.925V47.354z M185.439,59.93l0.643,0.668
					l4.113-4.038l-0.642-0.667L185.439,59.93z"/>
			</g>
			<g id="Line_Attribut_1_">
				<path d="M338.373,20.041h0.464l0.467,0.034h0.465l0.366,0.032c0.496,0,0.862,0.431,0.832,0.897c0,0.499-0.434,0.864-0.898,0.864
					l-0.366-0.034h-0.465l-0.464-0.034h-0.467l-0.465-0.032h-0.465h-0.233c-0.497,0-0.862-0.397-0.862-0.896
					c0-0.465,0.395-0.865,0.862-0.865h0.266h0.467L338.373,20.041z M333.59,20.075c0.499-0.034,0.897,0.332,0.932,0.829
					c0,0.5-0.366,0.896-0.865,0.931h-0.402l-0.429,0.034h-0.464l-0.435,0.034c-0.463,0.031-0.897-0.333-0.93-0.832
					c-0.034-0.465,0.332-0.898,0.829-0.931h0.433l0.468-0.033l0.463-0.032H333.59z M328.272,20.474
					c0.5-0.066,0.931,0.266,0.965,0.763c0.066,0.466-0.268,0.931-0.767,0.965l-0.166,0.032l-0.463,0.034l-0.433,0.066l-0.435,0.066
					l-0.231,0.032c-0.464,0.066-0.929-0.299-0.997-0.764c-0.064-0.466,0.268-0.93,0.766-0.996l0.232-0.032l0.431-0.068l0.467-0.034
					l0.465-0.064H328.272z M322.99,21.236c0.463-0.1,0.932,0.232,1.03,0.698c0.101,0.498-0.233,0.931-0.698,1.031l-0.332,0.065
					l-0.433,0.102l-0.432,0.064l-0.433,0.1h-0.066c-0.499,0.1-0.964-0.198-1.065-0.663c-0.099-0.467,0.199-0.932,0.698-1.032
					l0.068-0.031l0.433-0.102l0.463-0.064l0.434-0.1L322.99,21.236z M317.773,22.4c0.465-0.1,0.961,0.167,1.096,0.631
					c0.099,0.465-0.165,0.964-0.631,1.063l-0.4,0.134l-0.431,0.099l-0.433,0.134l-0.433,0.1c-0.464,0.133-0.929-0.133-1.064-0.6
					c-0.131-0.465,0.135-0.93,0.6-1.061l0.432-0.133l0.433-0.133l0.431-0.101L317.773,22.4z M312.689,23.961
					c0.431-0.165,0.966,0.101,1.097,0.533c0.167,0.465-0.064,0.963-0.531,1.131h-0.034l-0.431,0.164l-0.4,0.133l-0.397,0.133
					l-0.364,0.167c-0.467,0.167-0.966-0.067-1.131-0.53c-0.167-0.467,0.032-0.965,0.497-1.131l0.366-0.133l0.433-0.167l0.43-0.133
					l0.435-0.167H312.689z M307.705,25.889c0.432-0.197,0.963,0,1.13,0.466c0.199,0.432,0,0.962-0.433,1.13l-0.066,0.033l-0.4,0.166
					l-0.397,0.167l-0.398,0.198l-0.332,0.134c-0.465,0.232-0.963,0.032-1.164-0.433c-0.197-0.434-0.032-0.964,0.433-1.162
					l0.333-0.167l0.431-0.166l0.398-0.167l0.4-0.199H307.705z M302.853,28.148c0.433-0.233,0.964-0.032,1.195,0.399
					c0.233,0.399,0.065,0.932-0.364,1.162l-0.034,0.035l-0.398,0.198l-0.366,0.2l-0.398,0.198l-0.332,0.201
					c-0.432,0.232-0.965,0.066-1.196-0.366c-0.233-0.432-0.101-0.964,0.332-1.195l0.366-0.199l0.397-0.201l0.364-0.198l0.402-0.199
					L302.853,28.148z M298.201,30.774c0.431-0.267,0.964-0.134,1.229,0.299c0.233,0.399,0.133,0.964-0.3,1.195l0,0l-0.364,0.232
					l-0.366,0.233l-0.366,0.231l-0.365,0.234l0,0c-0.398,0.265-0.964,0.166-1.228-0.266c-0.268-0.4-0.135-0.932,0.264-1.198l0,0
					l0.398-0.264l0.366-0.232l0.366-0.233L298.201,30.774L298.201,30.774z M293.781,33.732c0.365-0.268,0.931-0.201,1.23,0.198
					c0.266,0.399,0.167,0.93-0.201,1.229l-0.332,0.233l-0.332,0.231l-0.365,0.265l-0.332,0.267l-0.032,0.033
					c-0.398,0.299-0.964,0.233-1.264-0.167c-0.265-0.397-0.199-0.929,0.167-1.229l0.066-0.032l0.366-0.266l0.33-0.268l0.366-0.264
					L293.781,33.732z M289.56,37.021c0.366-0.333,0.898-0.266,1.232,0.101c0.298,0.365,0.266,0.93-0.101,1.229l-0.266,0.199
					l-0.332,0.3l-0.334,0.266l-0.297,0.3l-0.099,0.066c-0.366,0.332-0.932,0.297-1.231-0.066c-0.332-0.366-0.297-0.932,0.066-1.264
					l0.099-0.066l0.334-0.299l0.332-0.299l0.332-0.266L289.56,37.021z M285.574,40.576c0.366-0.332,0.898-0.332,1.264,0
					c0.332,0.366,0.298,0.932-0.034,1.264l-0.199,0.166l-0.3,0.298l-0.298,0.299l-0.3,0.333l-0.133,0.133
					c-0.331,0.332-0.896,0.332-1.263,0c-0.332-0.332-0.332-0.897,0-1.228l0.133-0.168l0.3-0.298l0.332-0.3l0.3-0.332L285.574,40.576
					z M281.886,44.431c0.298-0.366,0.865-0.399,1.229-0.1c0.366,0.332,0.4,0.897,0.066,1.264l-0.131,0.132l-0.268,0.33l-0.3,0.334
					l-0.266,0.3l-0.165,0.199c-0.332,0.366-0.864,0.431-1.263,0.099c-0.366-0.298-0.398-0.863-0.1-1.229l0.167-0.199l0.3-0.332
					l0.3-0.332l0.297-0.332L281.886,44.431z M278.463,48.517c0.3-0.399,0.833-0.464,1.23-0.166c0.398,0.3,0.465,0.866,0.165,1.23
					l-0.099,0.132l-0.268,0.332l-0.23,0.334l-0.266,0.364l-0.199,0.233c-0.268,0.398-0.831,0.466-1.23,0.199
					c-0.364-0.3-0.465-0.831-0.168-1.229l0.168-0.268l0.265-0.364l0.268-0.333l0.266-0.365L278.463,48.517z M275.342,52.871
					c0.266-0.433,0.828-0.532,1.229-0.267c0.398,0.267,0.531,0.83,0.266,1.229L276.77,53.9l-0.233,0.367l-0.233,0.363l-0.233,0.366
					l-0.197,0.299c-0.265,0.399-0.796,0.532-1.196,0.266c-0.433-0.266-0.533-0.798-0.298-1.196l0.199-0.332l0.232-0.365l0.233-0.366
					l0.266-0.364L275.342,52.871z M272.582,57.423c0.233-0.433,0.764-0.599,1.196-0.366c0.4,0.268,0.566,0.799,0.332,1.229
					l-0.034,0.035l-0.232,0.397l-0.201,0.366l-0.196,0.398l-0.167,0.3c-0.232,0.431-0.765,0.599-1.197,0.366
					c-0.431-0.199-0.597-0.732-0.364-1.164l0.165-0.365l0.233-0.365l0.199-0.398l0.233-0.399L272.582,57.423z M270.124,62.141
					c0.197-0.432,0.73-0.597,1.163-0.397c0.432,0.198,0.631,0.729,0.432,1.161l-0.034,0.067l-0.165,0.366l-0.198,0.398l-0.167,0.398
					l-0.167,0.332c-0.199,0.464-0.696,0.665-1.163,0.464c-0.432-0.198-0.631-0.696-0.432-1.162l0.132-0.332l0.199-0.433l0.199-0.398
					l0.169-0.398L270.124,62.141z M263.378,101.049c-0.032-0.496,0.332-0.895,0.831-0.961c0.465-0.034,0.899,0.332,0.93,0.83
					l0.033,0.366l0.033,0.431l0.036,0.467l0.03,0.43v0.033c0.065,0.467-0.298,0.898-0.763,0.965c-0.499,0.033-0.932-0.3-0.964-0.797
					v-0.033l-0.066-0.433l-0.034-0.465l-0.034-0.467L263.378,101.049z M263.943,106.334c-0.066-0.464,0.266-0.897,0.765-0.997
					c0.464-0.066,0.929,0.266,0.995,0.765v0.101l0.068,0.431l0.064,0.467l0.068,0.431l0.066,0.267
					c0.064,0.497-0.233,0.963-0.729,1.029c-0.467,0.066-0.932-0.233-1-0.731l-0.066-0.298l-0.066-0.435l-0.066-0.464l-0.066-0.431
					L263.943,106.334z M264.907,111.618c-0.101-0.499,0.201-0.964,0.665-1.064c0.497-0.1,0.964,0.2,1.063,0.665l0.034,0.232
					l0.099,0.434l0.101,0.431l0.099,0.434l0.066,0.166c0.101,0.464-0.165,0.929-0.666,1.063c-0.463,0.134-0.93-0.166-1.063-0.632
					l-0.033-0.198l-0.1-0.433l-0.1-0.432l-0.099-0.466L264.907,111.618z M266.236,116.768c-0.133-0.465,0.131-0.964,0.598-1.097
					c0.465-0.133,0.963,0.133,1.096,0.6l0.101,0.298l0.133,0.398l0.133,0.434l0.133,0.431l0.034,0.1
					c0.133,0.466-0.101,0.962-0.565,1.097c-0.464,0.166-0.963-0.1-1.13-0.565l-0.032-0.1l-0.135-0.432l-0.131-0.432l-0.133-0.433
					L266.236,116.768z M267.964,121.818c-0.167-0.432,0.066-0.964,0.499-1.129c0.465-0.167,0.963,0.066,1.128,0.498l0.133,0.332
					l0.167,0.399l0.165,0.397l0.169,0.433l0.03,0.066c0.167,0.433-0.03,0.963-0.497,1.129c-0.43,0.2-0.963,0-1.13-0.466
					l-0.032-0.098l-0.167-0.399l-0.167-0.397l-0.165-0.434L267.964,121.818z M270.056,126.736c-0.232-0.432-0.032-0.964,0.398-1.164
					c0.433-0.199,0.966-0.031,1.164,0.432c1.431,3.024-0.198,3.557-0.796,2.359l-0.034-0.1l-0.199-0.399l-0.199-0.398l-0.199-0.397
					L270.056,126.736z M387.918,41.107c0.366,0.366,0.366,0.898,0.03,1.263c-0.331,0.332-0.896,0.332-1.263,0l-0.165-0.167
					l-0.3-0.299l-0.33-0.299l-0.302-0.299l-0.132-0.132c-0.366-0.332-0.398-0.897-0.064-1.229c0.331-0.365,0.896-0.4,1.263-0.066
					l0.133,0.132l0.332,0.332l0.298,0.3l0.331,0.3L387.918,41.107z M383.994,37.52c0.366,0.299,0.433,0.863,0.101,1.229
					c-0.3,0.366-0.862,0.432-1.228,0.101l-0.165-0.133l-0.334-0.266l-0.298-0.268l-0.334-0.266l-0.198-0.165
					c-0.398-0.299-0.433-0.863-0.133-1.229c0.299-0.4,0.864-0.466,1.229-0.134l0.201,0.167l0.332,0.266l0.332,0.266l0.365,0.299
					L383.994,37.52z M379.81,34.196c0.397,0.3,0.497,0.831,0.195,1.229c-0.298,0.398-0.828,0.464-1.227,0.199l-0.101-0.1
					l-0.364-0.232l-0.332-0.266l-0.366-0.233l-0.267-0.199c-0.397-0.266-0.499-0.831-0.199-1.229c0.268-0.4,0.832-0.466,1.23-0.199
					l0.231,0.165l0.366,0.268l0.363,0.266l0.366,0.265L379.81,34.196z M375.388,31.206c0.435,0.233,0.567,0.797,0.302,1.196
					c-0.268,0.432-0.798,0.532-1.23,0.3l-0.066-0.067l-0.364-0.232l-0.366-0.233l-0.365-0.199l-0.302-0.198
					c-0.431-0.234-0.561-0.765-0.33-1.196c0.266-0.433,0.798-0.564,1.23-0.301l0.298,0.167l0.366,0.233l0.398,0.233l0.366,0.231
					L375.388,31.206z M370.771,28.515c0.435,0.233,0.599,0.765,0.366,1.194c-0.199,0.434-0.765,0.6-1.163,0.366l-0.066-0.032
					l-0.4-0.2l-0.397-0.198l-0.364-0.199l-0.332-0.166c-0.435-0.199-0.6-0.732-0.4-1.163c0.231-0.466,0.765-0.632,1.196-0.399
					l0.332,0.166l0.4,0.199l0.396,0.199l0.366,0.199L370.771,28.515z M365.987,26.188c0.431,0.2,0.63,0.731,0.431,1.163
					c-0.165,0.431-0.698,0.63-1.131,0.465l-0.098-0.034l-0.399-0.198l-0.4-0.166l-0.398-0.166l-0.334-0.133
					c-0.431-0.165-0.664-0.698-0.465-1.131c0.201-0.465,0.698-0.664,1.131-0.498l0.334,0.135l0.433,0.164l0.396,0.199l0.435,0.166
					L365.987,26.188z M361.002,24.229c0.466,0.165,0.697,0.664,0.564,1.129c-0.165,0.432-0.663,0.697-1.13,0.531l-0.133-0.033
					l-0.398-0.164l-0.398-0.135l-0.433-0.133l-0.297-0.1c-0.467-0.164-0.7-0.665-0.567-1.13c0.167-0.433,0.666-0.698,1.128-0.53
					l0.302,0.065l0.431,0.168l0.4,0.132l0.433,0.166L361.002,24.229z M355.917,22.634c0.467,0.099,0.765,0.597,0.634,1.061
					c-0.133,0.465-0.634,0.766-1.099,0.632l-0.167-0.066l-0.43-0.101l-0.433-0.132l-0.433-0.1l-0.199-0.066
					c-0.465-0.101-0.762-0.565-0.664-1.064c0.131-0.465,0.598-0.73,1.063-0.632l0.233,0.066l0.433,0.101l0.43,0.099l0.433,0.135
					L355.917,22.634z M350.734,21.404c0.466,0.1,0.764,0.53,0.697,1.028c-0.099,0.467-0.567,0.765-1.029,0.7l-0.332-0.068
					l-0.435-0.099l-0.465-0.066l-0.431-0.067l-0.065-0.033c-0.467-0.066-0.799-0.531-0.698-0.998
					c0.066-0.496,0.533-0.796,0.995-0.729h0.068l0.465,0.101l0.433,0.064l0.465,0.1L350.734,21.404z M345.452,20.538
					c0.499,0.068,0.829,0.5,0.763,0.997c-0.064,0.467-0.499,0.831-0.964,0.766h-0.101l-0.43-0.067l-0.467-0.032l-0.431-0.067
					l-0.3-0.031c-0.499-0.034-0.83-0.466-0.797-0.966c0.035-0.464,0.463-0.83,0.962-0.764l0.302,0.034l0.463,0.032l0.469,0.067
					l0.462,0.031H345.452z"/>
				<path d="M223.938,68.687c0,0.5-0.4,0.863-0.865,0.863c-0.499,0-0.896-0.363-0.896-0.863v-1.761c0-0.498,0.397-0.863,0.896-0.863
					c0.465,0,0.865,0.365,0.865,0.863V68.687z M364.024,95.069c0.501,0,0.899,0.399,0.899,0.865c0,0.497-0.398,0.897-0.899,0.897
					h-1.76c-0.465,0-0.863-0.4-0.863-0.897c0-0.466,0.398-0.865,0.863-0.865H364.024z M358.743,95.069
					c0.496,0,0.896,0.399,0.896,0.865c0,0.497-0.4,0.897-0.896,0.897h-1.729c-0.497,0-0.897-0.4-0.897-0.897
					c0-0.466,0.4-0.865,0.897-0.865H358.743z M353.491,95.069c0.465,0,0.865,0.399,0.865,0.865c0,0.497-0.4,0.897-0.865,0.897h-1.76
					c-0.497,0-0.897-0.4-0.897-0.897c0-0.466,0.4-0.865,0.897-0.865H353.491z M348.208,95.069c0.501,0,0.866,0.399,0.866,0.865
					c0,0.497-0.365,0.897-0.866,0.897h-1.76c-0.497,0-0.865-0.4-0.865-0.897c0-0.466,0.368-0.865,0.865-0.865H348.208z
					 M342.926,95.069c0.497,0,0.897,0.399,0.897,0.865c0,0.497-0.4,0.897-0.897,0.897h-1.76c-0.467,0-0.866-0.4-0.866-0.897
					c0-0.466,0.399-0.865,0.866-0.865H342.926z M337.643,95.069c0.499,0,0.896,0.399,0.896,0.865c0,0.497-0.397,0.897-0.896,0.897
					h-1.762c-0.463,0-0.863-0.4-0.863-0.897c0-0.466,0.4-0.865,0.863-0.865H337.643z M332.394,95.069c0.464,0,0.86,0.399,0.86,0.865
					c0,0.497-0.397,0.897-0.86,0.897h-1.763c-0.496,0-0.896-0.4-0.896-0.897c0-0.466,0.4-0.865,0.896-0.865H332.394z
					 M327.109,95.069c0.465,0,0.863,0.399,0.863,0.865c0,0.497-0.398,0.897-0.863,0.897h-1.76c-0.501,0-0.898-0.4-0.898-0.897
					c0-0.466,0.397-0.865,0.898-0.865H327.109z M290.192,95.069c0.465,0,0.865,0.399,0.865,0.865c0,0.497-0.4,0.897-0.865,0.897
					h-1.76c-0.499,0-0.899-0.4-0.899-0.897c0-0.466,0.4-0.865,0.899-0.865H290.192z M284.909,95.069
					c0.467,0,0.864,0.399,0.864,0.865c0,0.497-0.397,0.897-0.864,0.897h-1.76c-0.499,0-0.897-0.4-0.897-0.897
					c0-0.466,0.398-0.865,0.897-0.865H284.909z M279.627,95.069c0.497,0,0.863,0.399,0.863,0.865c0,0.497-0.366,0.897-0.863,0.897
					h-1.762c-0.467,0-0.862-0.4-0.862-0.897c0-0.466,0.396-0.865,0.862-0.865H279.627z M274.344,95.069
					c0.499,0,0.897,0.399,0.897,0.865c0,0.497-0.398,0.897-0.897,0.897h-1.762c-0.465,0-0.863-0.4-0.863-0.897
					c0-0.466,0.398-0.865,0.863-0.865H274.344z M269.093,95.069c0.466,0,0.866,0.399,0.866,0.865c0,0.497-0.4,0.897-0.866,0.897
					h-1.761c-0.498,0-0.897-0.4-0.897-0.897c0-0.466,0.399-0.865,0.897-0.865H269.093z M263.81,95.069
					c0.465,0,0.863,0.399,0.863,0.865c0,0.497-0.398,0.897-0.863,0.897h-1.762c-0.497,0-0.896-0.4-0.896-0.897
					c0-0.466,0.399-0.865,0.896-0.865H263.81z M258.527,95.069c0.499,0,0.864,0.399,0.864,0.865c0,0.497-0.365,0.897-0.864,0.897
					h-1.76c-0.501,0-0.865-0.4-0.865-0.897c0-0.466,0.364-0.865,0.865-0.865H258.527z M253.243,95.069
					c0.499,0,0.897,0.399,0.897,0.865c0,0.497-0.398,0.897-0.897,0.897h-1.76c-0.466,0-0.864-0.4-0.864-0.897
					c0-0.466,0.398-0.865,0.864-0.865H253.243z M248.859,95.866c0,0,0,0.034,0,0.068c0,0.497-0.4,0.862-0.867,0.897h-0.03l0,0
					c-0.467,0-0.865-0.4-0.865-0.897v-1.762c0-0.467,0.398-0.864,0.865-0.864c0.497,0,0.898,0.397,0.898,0.864V95.866z
					 M248.859,90.684c0,0.465-0.4,0.864-0.898,0.864c-0.467,0-0.865-0.399-0.865-0.864v-1.76c0-0.5,0.398-0.897,0.865-0.897
					c0.497,0,0.898,0.397,0.898,0.897V90.684z M248.859,85.4c0,0.466-0.4,0.864-0.898,0.864c-0.467,0-0.865-0.398-0.865-0.864V83.64
					c0-0.499,0.398-0.897,0.865-0.897c0.497,0,0.898,0.398,0.898,0.897V85.4z M248.859,80.116c0,0.499-0.4,0.898-0.898,0.898
					c-0.467,0-0.865-0.399-0.865-0.898v-1.761c0-0.464,0.398-0.863,0.865-0.863c0.497,0,0.898,0.399,0.898,0.863V80.116z
					 M248.859,74.834c0,0.498-0.4,0.897-0.898,0.897c-0.467,0-0.865-0.399-0.865-0.897v-1.762c0-0.465,0.398-0.863,0.865-0.863
					c0.497,0,0.898,0.398,0.898,0.863V74.834z M248.859,69.584c0,0.466-0.4,0.863-0.898,0.863c-0.467,0-0.865-0.397-0.865-0.863
					v-1.761c0-0.499,0.398-0.897,0.865-0.897c0.497,0,0.898,0.398,0.898,0.897V69.584z M248.859,64.301
					c0,0.465-0.4,0.863-0.898,0.863c-0.467,0-0.865-0.398-0.865-0.863v-1.762c0-0.498,0.398-0.896,0.865-0.896
					c0.497,0,0.898,0.398,0.898,0.896V64.301z M248.859,59.018c0,0.498-0.4,0.863-0.898,0.863c-0.467,0-0.865-0.365-0.865-0.863
					v-1.762c0-0.497,0.398-0.863,0.865-0.863c0.497,0,0.898,0.366,0.898,0.863V59.018z M244.738,56.094
					c0.498,0,0.896,0.397,0.896,0.864c0,0.498-0.398,0.897-0.896,0.897h-1.763c-0.464,0-0.862-0.399-0.862-0.897
					c0-0.467,0.398-0.864,0.862-0.864H244.738z M239.488,56.094c0.465,0,0.863,0.397,0.863,0.864c0,0.498-0.398,0.897-0.863,0.897
					h-1.762c-0.499,0-0.896-0.399-0.896-0.897c0-0.467,0.397-0.864,0.896-0.864H239.488z M234.205,56.094
					c0.465,0,0.862,0.397,0.862,0.864c0,0.498-0.397,0.897-0.862,0.897h-1.762c-0.499,0-0.898-0.399-0.898-0.897
					c0-0.467,0.398-0.864,0.898-0.864H234.205z M228.921,56.094c0.499,0,0.898,0.397,0.898,0.864c0,0.498-0.398,0.897-0.898,0.897
					h-1.762c-0.465,0-0.862-0.399-0.862-0.897c0-0.467,0.397-0.864,0.862-0.864H228.921z M223.638,56.094
					c0.499,0,0.898,0.397,0.898,0.864c0,0.398-0.266,0.73-0.598,0.83v0.333c0,0.498-0.4,0.896-0.865,0.896
					c-0.499,0-0.896-0.399-0.896-0.896v-1.163c0-0.467,0.397-0.864,0.896-0.864H223.638z M222.176,61.643
					c0-0.465,0.397-0.864,0.896-0.864c0.465,0,0.865,0.399,0.865,0.864v1.762c0,0.498-0.4,0.896-0.865,0.896
					c-0.499,0-0.896-0.398-0.896-0.896V61.643z"/>
			</g>
			<g id="Black_Attribut_1_">
				<path d="M252.943,109.656c-0.43,2.992-1.959,5.684-4.152,7.576c-2.16,1.861-4.984,3.023-8.073,3.023h-19.607
					c-0.131,0-0.266-0.033-0.465-0.033s-0.331,0-0.464,0v-0.032c-3.19-0.233-6.048-1.729-8.11-3.954
					c-2.059-2.227-3.32-5.184-3.32-8.407V76.03v-0.897h0.896h23.095h0.863v0.897v32.63h18.476h0.997L252.943,109.656z
					 M214.367,83.041h14.056v1.629h-14.056V83.041z M214.367,103.277h14.056v1.596h-14.056V103.277z M214.367,96.532h14.056v1.595
					h-14.056V96.532z M214.367,89.786h14.056v1.629h-14.056V89.786z M221.844,118.196L221.844,118.196h0.032l0.066-0.033
					c0.133-0.032,0.233-0.032,0.334-0.066l0,0l0.032-0.034h0.066c0.1-0.032,0.232-0.066,0.331-0.099l0,0l0.034-0.033h0.066
					l0.034-0.033l0.064-0.033h0.034l0.066-0.033h0.034l0.066-0.034h0.066l0.032-0.033h0.066l0.066-0.033l0.034-0.032h0.066
					l0.034-0.034l0.064-0.032h0.034l0.066-0.033l0.032-0.034h0.068l0.032-0.033l0.066-0.032h0.034l0.066-0.034l0.032-0.034
					l0.066-0.03h0.034l0.199-0.102l0.032-0.033l0.065-0.033l0.035-0.033l0.066-0.031h0.033l0.066-0.035l0.033-0.033l0.065-0.033
					c0.101-0.033,0.167-0.1,0.266-0.166l0,0l0.034-0.033l0.066-0.035c0.266-0.13,0.499-0.298,0.73-0.496l0,0h0.034l0.066-0.065
					c0.167-0.134,0.332-0.268,0.499-0.433l0,0c0.098-0.066,0.164-0.134,0.23-0.201l0.035-0.032l0.065-0.032v-0.034l0.066-0.066
					l0.066-0.067h0.034l0.066-0.064l0.066-0.1l0,0l0.066-0.068l0.032-0.031l0.066-0.068l0.066-0.064l0,0l0.066-0.102l0,0
					l0.068-0.065h0.032l0.032-0.101h0.034l0.066-0.064l0,0l0.066-0.101l0,0l0.066-0.067v-0.031l0.066-0.068l0,0l0.066-0.099l0,0
					l0.066-0.067l0,0l0.066-0.1l0,0l0.068-0.101l0,0l0.064-0.065v-0.033l0.066-0.066l0,0l0.066-0.099l0,0l0.034-0.101h0.034
					l0.032-0.067v-0.033l0.066-0.066l0,0l0.066-0.099l0,0l0.065-0.1l0,0l0.035-0.1l0,0l0.066-0.1l0,0l0.066-0.102l0,0l0.031-0.066
					v-0.031l0.066-0.066v-0.035l0.034-0.064v-0.034l0.066-0.065v-0.034l0.032-0.066v-0.032l0.066-0.067v-0.033l0.034-0.067v-0.033
					l0.066-0.099l0,0l0.034-0.101l0,0l0.032-0.099l0,0l0.066-0.101l0,0l0.034-0.1l0,0l0.032-0.1l0,0l0.034-0.099l0,0l0.066-0.101
					v-0.033l0.032-0.1l0,0l0.034-0.1l0,0l0.032-0.1l0,0l0.032-0.102l0,0l0.034-0.098v-0.033l0.034-0.1l0,0l0.032-0.1l0,0l0.034-0.1
					l0,0l0.034-0.134l0,0l0,0l0.032-0.165v-0.034l0,0l0.032-0.133l0,0l0.034-0.099l0,0v-0.101l0,0l0.034-0.134l0,0l0.032-0.1l0,0
					v-0.1v-0.033l0.034-0.101l0,0v-0.099l0.133-0.764h0.765h1.096V76.894h-21.334v30.936c0,2.759,1.099,5.317,2.858,7.21
					c1.762,1.928,4.188,3.19,6.911,3.423C220.814,118.396,221.345,118.328,221.844,118.196L221.844,118.196z M247.63,115.904
					c1.659-1.428,2.856-3.324,3.388-5.482h-17.412h-2.126l-0.034,0.099l0,0l-0.032,0.134l0,0l-0.034,0.1v0.031l-0.032,0.102l0,0
					v0.133h-0.032v0.1l0,0l-0.034,0.133l-0.034,0.099l0,0l-0.032,0.1v0.034l-0.034,0.1h-0.032l-0.034,0.099l0,0l-0.032,0.134l0,0
					l-0.066,0.2v0.032l-0.034,0.101l0,0l-0.066,0.099l0,0l-0.032,0.135l0,0l-0.034,0.099l0,0l-0.031,0.099h-0.035l-0.031,0.101
					v0.033l-0.035,0.099l0,0l-0.066,0.102l0,0l-0.033,0.098l0,0l-0.064,0.102v0.033l-0.034,0.1l0,0l-0.066,0.099l0,0l-0.034,0.101
					h-0.032l-0.034,0.099l0,0l-0.066,0.1v0.034l-0.032,0.066v0.034l-0.066,0.099l0,0l-0.066,0.1l0,0l-0.066,0.1l0,0l-0.034,0.1
					h-0.032l-0.034,0.1l0,0l-0.066,0.101l0,0l-0.066,0.101l0,0l-0.066,0.099l0,0l-0.066,0.101l0,0l-0.066,0.099l0,0l-0.066,0.1l0,0
					l-0.068,0.099l0,0l-0.064,0.066v0.033l-0.066,0.068v0.031l-0.066,0.068v0.031l-0.066,0.068l0,0l-0.066,0.099l0,0l-0.066,0.065
					l-0.034,0.034l-0.032,0.066l-0.034,0.032l-0.066,0.067l0,0l-0.066,0.1l0,0l-0.066,0.066l-0.034,0.034l-0.031,0.065l-0.035,0.033
					l-0.066,0.066l-0.066,0.067l0,0l-0.031,0.033l-0.066,0.066l0,0l-0.066,0.1l0,0l-0.066,0.066l-0.034,0.033l-0.066,0.066l0,0
					l-0.066,0.066l-0.034,0.034l-0.066,0.065l0,0l-0.064,0.065l-0.034,0.034l-0.066,0.064l0,0l-0.066,0.068h-0.034l-0.032,0.034
					l-0.034,0.032V117h-0.032l-0.034,0.066h-0.032l-0.066,0.066l-0.034,0.035l0,0c-0.3,0.232-0.598,0.496-0.896,0.696l0,0
					c-0.3,0.233-0.598,0.433-0.898,0.632h14.986C243.374,118.496,245.768,117.499,247.63,115.904L247.63,115.904z"/>
				<path d="M270.156,84.77v3.555h12.727v-1.76V84.77H270.156z M255.735,90.152h3.092V78.854h-1.529h-1.563V90.152z M259.392,91.349
					h-4.222c-0.331,0-0.597-0.268-0.597-0.599V78.256l0,0l0,0l0,0l0,0l0,0V78.19l0,0l0,0v-0.033l0,0l0,0l0,0l0,0l0,0l0,0
					l0.032-0.033l0,0l0,0v-0.033l0,0v-0.034l0,0l0,0l0,0v-0.033l0,0l0,0h0.034l0,0v-0.031c0,0,0.034-0.034,0.034-0.068l0,0l0,0l0,0
					l0,0l0,0l0,0l0.032-0.032l0,0l0,0l0,0l0,0l2.092-3.125c0.169-0.267,0.532-0.331,0.8-0.166c0.066,0.066,0.133,0.101,0.165,0.166
					l2.094,3.125c0.099,0.101,0.133,0.232,0.133,0.364V90.75C259.989,91.081,259.724,91.349,259.392,91.349L259.392,91.349z
					 M257.298,76.13l-1.031,1.563h1.031h0.996L257.298,76.13z M260.985,69.484l2.958-4.386c0.165-0.267,0.531-0.333,0.797-0.168
					c0.066,0.068,0.133,0.101,0.167,0.168l2.924,4.386c0.099,0.1,0.133,0.199,0.133,0.366v17.377c0,0.333-0.266,0.599-0.599,0.599
					h-5.914c-0.334,0-0.565-0.266-0.565-0.599V69.851l0,0v-0.034l0,0l0,0l0,0v-0.032l0,0l0,0v-0.033l0,0l0,0v-0.033l0,0l0,0l0,0
					v-0.034l0,0l0,0V69.65l0,0h0.032l0,0l0,0v-0.033l0,0l0,0l0,0v-0.033l0,0l0,0c0.034-0.034,0.034-0.065,0.066-0.065l0,0V69.484
					L260.985,69.484L260.985,69.484L260.985,69.484L260.985,69.484L260.985,69.484L260.985,69.484L260.985,69.484L260.985,69.484
					L260.985,69.484z M264.408,66.461l-1.86,2.79h1.86h1.862L264.408,66.461z M262.049,86.664h4.753V70.416h-2.394h-2.359V86.664z
					 M283.847,83.74l3.488,2.325c0.265,0.199,0.333,0.565,0.135,0.83c-0.034,0.066-0.101,0.1-0.135,0.167l-3.488,2.325
					c-0.101,0.066-0.233,0.132-0.365,0.132h-13.923c-0.299,0-0.564-0.265-0.564-0.596v-4.719c0-0.333,0.266-0.599,0.564-0.599
					h13.923l0,0l0,0l0,0l0,0l0,0h0.034l0,0h0.031l0,0h0.033l0,0l0,0l0,0l0,0l0,0l0.033,0.033l0,0l0,0h0.033l0,0h0.033l0,0l0,0l0,0
					l0,0l0,0l0.032,0.032l0,0l0,0l0,0c0.034,0,0.068,0.034,0.101,0.034l0,0l0,0l0,0l0,0v0.034l0,0l0,0l0,0H283.847L283.847,83.74
					L283.847,83.74z M285.94,86.564l-1.895-1.264v1.264v1.262L285.94,86.564z"/>
				<path d="M302.92,58.386h23.06h0.862v0.864v28.677v0.864h-0.862h-23.06h-0.865v-0.864V59.25v-0.864H302.92z M325.082,60.113
					h-21.265v26.949h21.265V60.113z"/>
				<path d="M351.997,39.247l-2.025,5.947l20.268,6.878l1.03-2.958l0.999-2.957L351.997,39.247z M376.186,50.812l-2.657-3.523
					l-0.798,2.326l-0.799,2.325L376.186,50.812z M373.896,45.261l4.218,5.517c0.268,0.332,0.201,0.83-0.131,1.096
					c-0.102,0.066-0.201,0.1-0.268,0.133l-6.711,1.795c-0.165,0.066-0.364,0.066-0.531,0l-21.732-7.41
					c-0.397-0.133-0.597-0.564-0.464-0.963l2.524-7.41c0.133-0.4,0.564-0.632,0.965-0.465l21.732,7.376l0,0v0.033h0.031l0,0l0,0
					h0.032l0,0h0.032l0.034,0.033l0,0l0,0l0,0l0,0l0,0l0,0l0.034,0.034h0.034l0,0l0.03,0.032l0,0l0,0l0,0l0,0l0.034,0.034l0,0l0,0
					l0,0l0.034,0.032l0,0l0,0c0.032,0.034,0.066,0.066,0.066,0.101l0,0h0.034l0,0l0,0l0,0l0,0V45.261L373.896,45.261L373.896,45.261
					L373.896,45.261L373.896,45.261z"/>
			</g>
			<g id="White_Attribut_1_">
				<g id="Book_1_">
					<path class="st0" d="M386.539,103.976V73.438c0-1.261,1.031-2.259,2.26-2.259h21.797c1.263,0,2.261,0.998,2.261,2.259v30.537
						c0,1.263-0.998,2.259-2.261,2.259h-21.797C387.57,106.234,386.539,105.238,386.539,103.976L386.539,103.976z"/>
					<path class="st1" d="M384.545,102.047L384.545,102.047c0-0.465,0.364-0.83,0.831-0.83h2.359c0.465,0,0.831,0.365,0.831,0.83
						l0,0c0,0.467-0.366,0.83-0.831,0.83h-2.359C384.909,102.877,384.545,102.514,384.545,102.047L384.545,102.047z M384.545,75.299
						L384.545,75.299c0-0.465,0.364-0.83,0.831-0.83h2.359c0.465,0,0.831,0.365,0.831,0.83l0,0c0,0.466-0.366,0.832-0.831,0.832
						h-2.359C384.909,76.131,384.545,75.765,384.545,75.299L384.545,75.299z M384.545,79.752L384.545,79.752
						c0-0.465,0.364-0.832,0.831-0.832h2.359c0.465,0,0.831,0.367,0.831,0.832l0,0c0,0.465-0.366,0.83-0.831,0.83h-2.359
						C384.909,80.582,384.545,80.217,384.545,79.752L384.545,79.752z M384.545,84.204L384.545,84.204c0-0.466,0.364-0.83,0.831-0.83
						h2.359c0.465,0,0.831,0.364,0.831,0.83l0,0c0,0.466-0.366,0.863-0.831,0.863h-2.359
						C384.909,85.067,384.545,84.67,384.545,84.204L384.545,84.204z M384.545,88.658L384.545,88.658
						c0-0.466,0.364-0.832,0.831-0.832h2.359c0.465,0,0.831,0.366,0.831,0.832l0,0c0,0.462-0.366,0.862-0.831,0.862h-2.359
						C384.909,89.521,384.545,89.12,384.545,88.658L384.545,88.658z M384.545,93.143L384.545,93.143
						c0-0.465,0.364-0.862,0.831-0.862h2.359c0.465,0,0.831,0.397,0.831,0.862l0,0c0,0.465-0.366,0.831-0.831,0.831h-2.359
						C384.909,93.974,384.545,93.607,384.545,93.143L384.545,93.143z M384.545,97.594L384.545,97.594
						c0-0.463,0.364-0.828,0.831-0.828h2.359c0.465,0,0.831,0.365,0.831,0.828l0,0c0,0.467-0.366,0.832-0.831,0.832h-2.359
						C384.909,98.426,384.545,98.061,384.545,97.594L384.545,97.594z"/>
					<path class="st2" d="M393.085,75.498h14.155c0.632,0,1.163,0.499,1.163,1.131v5.116c0,0.632-0.531,1.13-1.163,1.13h-14.155
						c-0.633,0-1.13-0.498-1.13-1.13v-5.116C391.955,75.997,392.452,75.498,393.085,75.498L393.085,75.498z"/>
				</g>
				<path d="M399.598,61.443c7.709,0,14.687,3.123,19.738,8.176c5.017,5.048,8.138,12.025,8.138,19.736
					c0,7.676-3.121,14.652-8.171,19.703c-5.018,5.052-11.996,8.174-19.705,8.174c-7.711,0-14.688-3.122-19.738-8.174
					c-5.049-5.051-8.174-12.027-8.174-19.703c0-7.711,3.125-14.688,8.174-19.736C384.909,64.566,391.887,61.443,399.598,61.443
					L399.598,61.443z M417.41,71.545c-4.554-4.552-10.867-7.377-17.813-7.377c-6.979,0-13.26,2.791-17.81,7.377
					c-4.554,4.553-7.378,10.832-7.378,17.811c0,6.943,2.824,13.225,7.378,17.775c4.55,4.588,10.831,7.378,17.81,7.378
					c6.945,0,13.259-2.79,17.813-7.378c4.549-4.551,7.373-10.832,7.373-17.775C424.783,82.377,421.959,76.098,417.41,71.545
					L417.41,71.545z"/>
				<path class="st1" d="M398.766,59.051h1.629V49.017h-1.629V59.051z M370.324,78.157l-0.598,1.462l-7.146-2.893l0.632-1.495
					L370.324,78.157z M388.102,61.178l-1.496,0.598l-2.925-7.076l1.496-0.633L388.102,61.178z M368.363,84.138l-0.3,1.562
					l-4.952-0.93l0.336-1.597L368.363,84.138z M373.413,72.64l-0.897,1.362l-4.185-2.79l0.897-1.329L373.413,72.64z M382.386,64.068
					l-1.33,0.896l-2.825-4.153l1.329-0.929L382.386,64.068z M394.017,59.549l-1.565,0.3l-1.03-4.918l1.595-0.331L394.017,59.549z
					 M368.098,58.885l-1.131,1.162l1.065,1.03l1.13-1.163L368.098,58.885z M377.367,67.988l-1.128,1.162l-7.179-7.043l1.131-1.163
					L377.367,67.988z M428.838,78.157l0.631,1.462l7.11-2.893l-0.598-1.495L428.838,78.157z M411.063,61.178l1.492,0.598
					l2.924-7.076l-1.462-0.633L411.063,61.178z M430.799,84.138l0.298,1.562l4.951-0.93l-0.3-1.597L430.799,84.138z M425.748,72.64
					l0.896,1.362l4.189-2.79l-0.865-1.329L425.748,72.64z M416.776,64.068l1.361,0.896l2.792-4.153l-1.33-0.929L416.776,64.068z
					 M405.147,59.549l1.596,0.3l0.995-4.918l-1.595-0.331L405.147,59.549z M431.063,58.885l1.132,1.162l-1.063,1.03L430,59.914
					L431.063,58.885z M398.766,46.059h1.629v1.463h-1.629V46.059z M421.794,67.988l1.129,1.162l7.178-7.043l-1.13-1.163
					L421.794,67.988z"/>
			</g>
			<g id="Paper_1_">
				<rect x="292.984" y="65.597" class="st3" width="28.377" height="32.464"/>
				<path class="st0" d="M307.572,89.985h-9.934v1.396h9.934V89.985z M317.474,71.909h-19.835v1.396h19.835V71.909z M305.877,77.227
					h-8.238v1.395h8.238V77.227z M314.815,83.307h-17.176v1.363h17.176V83.307z"/>
			</g>
		</g>
		<path class="st1" d="M294.296,144.066h-2.858l-1.959,12.293h1.794l0.332-2.225h2.359l0.332,2.225h1.961L294.296,144.066z
			 M281.502,140.378h5.416v-6.147h-21.961v15.981h15.682v-8.938C280.639,140.775,281.005,140.378,281.502,140.378L281.502,140.378z
			 M288.682,140.378h22.428c0.465,0,0.863,0.398,0.863,0.896v17.145c0,0.464-0.398,0.864-0.863,0.864h-29.607
			c-0.497,0-0.863-0.4-0.863-0.864v-6.444H264.06c-0.467,0-0.865-0.398-0.865-0.896v-17.712c0-0.499,0.398-0.897,0.865-0.897h23.757
			c0.465,0,0.864,0.398,0.864,0.897V140.378z M310.213,142.139h-22.395h-5.448v8.939v6.445h27.844V142.139z M300.078,144.066h-2.925
			v12.293h3.025c1.961,0,2.956-1.028,2.956-2.924v-0.998c0-1.296-0.399-2.226-1.462-2.623c0.863-0.433,1.263-1.23,1.263-2.493
			v-0.431C302.935,144.995,302.071,144.066,300.078,144.066L300.078,144.066z M299.945,150.811c0.863,0,1.263,0.365,1.263,1.496
			v1.062c0,0.932-0.366,1.23-1.029,1.23h-1.097v-3.788H299.945z M300.01,145.793c0.7,0,1,0.399,1,1.296v0.664
			c0,0.997-0.465,1.298-1.165,1.298h-0.763v-3.258H300.01z M292.77,146.225l0.929,6.213h-1.86L292.77,146.225z"/>
	</g>
	<g>
		<g>
			<path class="st4" d="M121.32,66.229c0-1.649-1.386-2.933-3.035-2.933H60.1c-1.651,0-3.039,1.283-3.039,2.933v42.598h64.26V66.229
				z"/>
			<g>
				<path class="st5" d="M52.217,108.826v2.987c0,1.649,1.581,3.149,3.479,3.149h66.989c1.901,0,3.479-1.5,3.479-3.149v-2.987
					H52.217z"/>
				<path d="M122.686,115.491H55.696c-2.136,0-4.009-1.718-4.009-3.678v-2.987c0-0.291,0.238-0.526,0.529-0.526h73.948
					c0.292,0,0.529,0.235,0.529,0.526v2.987C126.694,113.807,124.858,115.491,122.686,115.491z M52.744,109.355v2.458
					c0,1.397,1.379,2.62,2.952,2.62h66.989c1.571,0,2.953-1.223,2.953-2.62v-2.458H52.744z"/>
			</g>
			<g>
				<rect x="61.581" y="67.169" class="st6" width="55.22" height="36.814"/>
				<path d="M116.801,104.512h-55.22c-0.291,0-0.528-0.236-0.528-0.528V67.169c0-0.29,0.237-0.526,0.528-0.526h55.22
					c0.292,0,0.527,0.236,0.527,0.526v36.814C117.328,104.275,117.093,104.512,116.801,104.512z M62.108,103.455h54.163V67.698
					H62.108V103.455z"/>
			</g>
			<g>
				<rect x="85.478" y="111.206" class="st7" width="7.426" height="1.056"/>
			</g>
			<g class="st8">
				<rect x="65.133" y="70.399" class="st9" width="48.438" height="10.01"/>
				<rect x="65.133" y="83.64" class="st9" width="32.293" height="8.396"/>
				<rect x="100.332" y="83.64" class="st9" width="12.917" height="8.396"/>
				<rect x="65.133" y="94.941" class="st9" width="48.116" height="4.844"/>
			</g>
		</g>
		<g>
			<g>
				<path class="st9" d="M107.841,60.19c0-10.318-8.375-18.681-18.69-18.681c-10.318,0-18.788,8.362-18.788,18.681
					c0,9.133,6.718,16.735,15.115,18.357v25.436h7.104V78.561C101.3,76.967,107.843,69.349,107.841,60.19z"/>
				<path d="M92.581,104.512h-7.104c-0.292,0-0.529-0.236-0.529-0.528V78.979c-8.646-1.888-15.114-9.887-15.114-18.788
					c0-10.593,8.666-19.209,19.316-19.209c10.597,0,19.221,8.616,19.221,19.209c0,9.133-6.392,16.973-15.261,18.806v24.987
					C93.11,104.275,92.873,104.512,92.581,104.512z M86.004,103.455h6.048V78.561c0-0.255,0.184-0.475,0.434-0.519
					c8.593-1.572,14.829-9.079,14.829-17.852c0-10.011-8.149-18.151-18.165-18.151c-10.069,0-18.259,8.141-18.259,18.151
					c0,8.552,6.313,16.221,14.687,17.839c0.247,0.048,0.426,0.267,0.426,0.519V103.455z"/>
			</g>
			<g>
				<rect x="85.478" y="77.943" class="st7" width="3.874" height="1.057"/>
			</g>
			<rect x="83.217" y="83.64" class="st10" width="11.949" height="15.823"/>
			<g>
				<rect x="85.153" y="86.664" class="st7" width="7.75" height="1.055"/>
			</g>
			<g>
				<rect x="85.153" y="90.861" class="st7" width="7.75" height="1.057"/>
			</g>
			<g>
				<rect x="85.153" y="95.06" class="st7" width="7.75" height="1.056"/>
			</g>
		</g>
		<g>
			<circle class="st11" cx="89.235" cy="60.325" r="14.15"/>
			<path d="M89.234,75.003c-8.094,0-14.681-6.585-14.681-14.678c0-8.096,6.587-14.681,14.681-14.681
				c8.096,0,14.678,6.585,14.678,14.681C103.912,68.418,97.33,75.003,89.234,75.003z M89.234,46.701
				c-7.512,0-13.622,6.111-13.622,13.624c0,7.51,6.11,13.622,13.622,13.622c7.512,0,13.622-6.112,13.622-13.622
				C102.856,52.813,96.746,46.701,89.234,46.701z"/>
			<g>
				<line class="st6" x1="81.604" y1="60.513" x2="97.306" y2="60.51"/>
				<path class="st6" d="M81.604,60.88c-0.203,0-0.366-0.164-0.366-0.367c0-0.202,0.163-0.366,0.366-0.366l15.702-0.002
					c0.203,0,0.366,0.163,0.366,0.365c0,0.203-0.163,0.368-0.366,0.368L81.604,60.88z"/>
			</g>
			<g>
				<line class="st6" x1="84.045" y1="66.27" x2="94.864" y2="66.269"/>
				<path class="st6" d="M84.045,66.637c-0.201,0-0.367-0.165-0.367-0.367c0-0.202,0.166-0.368,0.367-0.368l10.819-0.002
					c0.203,0,0.366,0.165,0.366,0.369c0,0.203-0.163,0.366-0.366,0.366L84.045,66.637z"/>
			</g>
			<g>
				<line class="st6" x1="84.045" y1="54.76" x2="94.864" y2="54.758"/>
				<path class="st6" d="M84.045,55.127c-0.201,0-0.367-0.164-0.367-0.367c0-0.203,0.166-0.368,0.367-0.368l10.819-0.002
					c0.203,0,0.366,0.165,0.366,0.368c0,0.203-0.163,0.368-0.366,0.368L84.045,55.127z"/>
			</g>
		</g>
	</g>
	<g id="XMLID_8_">
		<g id="XMLID_12_">
			<line id="XMLID_14_" class="st12" x1="272.385" y1="19.273" x2="266.922" y2="24.733"/>
			<line id="XMLID_13_" class="st12" x1="259.467" y1="32.19" x2="254.008" y2="37.65"/>
		</g>
		<g id="XMLID_9_">
			<line id="XMLID_11_" class="st12" x1="254.008" y1="19.273" x2="259.467" y2="24.733"/>
			<line id="XMLID_10_" class="st12" x1="266.922" y1="32.19" x2="272.385" y2="37.65"/>
		</g>
	</g>
	<g>
		<rect x="220.715" y="165.24" width="42.531" height="2.105"/>
		<rect x="166.22" y="165.24" width="42.532" height="2.105"/>
		<rect x="154.259" y="165.24" width="3.986" height="2.105"/>
	</g>
	<g>
		<rect x="253.062" y="0" width="42.53" height="2.105"/>
		<rect x="307.556" y="0" width="42.532" height="2.105"/>
		<rect x="358.063" y="0" width="3.986" height="2.105"/>
	</g>
	<g>
		<rect x="345.02" y="148.22" width="86.353" height="2.128"/>
		<rect x="345.02" y="141.403" width="56.809" height="2.13"/>
	</g>
	<g>
		<rect x="60.738" y="24.348" width="86.351" height="2.128"/>
		<rect x="90.282" y="17.531" width="56.807" height="2.13"/>
	</g>
	<g>
		<line class="st13" x1="443.049" y1="109.69" x2="470.911" y2="109.69"/>
		<line class="st13" x1="446.325" y1="95.763" x2="484.842" y2="95.763"/>
		<line class="st13" x1="444.689" y1="80.191" x2="460.258" y2="80.191"/>
	</g>
	<g>
		<line class="st14" x1="41.793" y1="133.943" x2="13.931" y2="133.943"/>
		<line class="st14" x1="38.516" y1="120.016" x2="0" y2="120.016"/>
		<line class="st14" x1="40.153" y1="104.444" x2="24.584" y2="104.444"/>
	</g>
	<g id="XMLID_1_">
		<g id="XMLID_5_">
			<line id="XMLID_7_" class="st12" x1="199.477" y1="122.5" x2="195.637" y2="126.337"/>
			<line id="XMLID_6_" class="st12" x1="190.398" y1="131.577" x2="186.56" y2="135.415"/>
		</g>
		<g id="XMLID_2_">
			<line id="XMLID_4_" class="st12" x1="186.56" y1="122.5" x2="190.398" y2="126.337"/>
			<line id="XMLID_3_" class="st12" x1="195.637" y1="131.577" x2="199.477" y2="135.415"/>
		</g>
	</g>
</g>
</svg>