<!-- Generator: Adobe Illustrator 17.0.0, SVG Export Plug-In  -->
<svg version="1.1"
	 xmlns="http://www.w3.org/2000/svg" xmlns:xlink="http://www.w3.org/1999/xlink" xmlns:a="http://ns.adobe.com/AdobeSVGViewerExtensions/3.0/"
	 x="0px" y="0px" width="467.303px" height="23.651px" viewBox="0 0 467.303 23.651"
	 style="enable-background:new 0 0 467.303 23.651;" xml:space="preserve">
<style type="text/css">
	.st0{fill:#F16529;}
</style>
<defs>
</defs>
<g>
	<path class="st0" d="M9.896,20.922c-0.232,0.541-0.553,1.016-0.959,1.422s-0.88,0.726-1.422,0.959
		c-0.541,0.232-1.121,0.349-1.738,0.349H4.482c-0.618,0-1.2-0.116-1.746-0.349c-0.546-0.233-1.021-0.553-1.428-0.959
		s-0.727-0.881-0.959-1.422S0,19.801,0,19.183V9.407c0-0.618,0.117-1.198,0.35-1.739s0.553-1.016,0.959-1.422
		S2.19,5.521,2.736,5.287c0.546-0.232,1.128-0.349,1.746-0.349h1.295c0.617,0,1.197,0.116,1.738,0.349
		C8.058,5.521,8.531,5.84,8.938,6.246s0.727,0.881,0.959,1.422s0.35,1.121,0.35,1.739v0.736l-1.639,0.254v-0.99
		c0-0.406-0.076-0.785-0.229-1.136C8.227,7.92,8.02,7.613,7.758,7.351c-0.263-0.263-0.57-0.47-0.921-0.622S6.107,6.5,5.701,6.5
		H4.559c-0.406,0-0.785,0.076-1.137,0.229s-0.66,0.359-0.927,0.622S2.02,7.92,1.867,8.271C1.715,8.622,1.639,9.001,1.639,9.407
		v9.775c0,0.406,0.076,0.785,0.229,1.136c0.152,0.352,0.361,0.66,0.628,0.928c0.267,0.266,0.575,0.476,0.927,0.628
		s0.73,0.229,1.137,0.229h1.143c0.406,0,0.785-0.076,1.136-0.229s0.658-0.362,0.921-0.628c0.262-0.268,0.469-0.576,0.621-0.928
		c0.152-0.351,0.229-0.729,0.229-1.136v-0.99l1.639,0.267v0.724C10.246,19.801,10.129,20.381,9.896,20.922z"/>
	<path class="st0" d="M23.519,20.922c-0.233,0.541-0.552,1.016-0.958,1.422s-0.881,0.726-1.422,0.959
		c-0.542,0.232-1.122,0.349-1.74,0.349h-1.295c-0.617,0-1.199-0.116-1.745-0.349c-0.546-0.233-1.022-0.553-1.429-0.959
		s-0.725-0.881-0.958-1.422s-0.349-1.121-0.349-1.739V9.407c0-0.618,0.115-1.198,0.349-1.739s0.552-1.016,0.958-1.422
		s0.883-0.726,1.429-0.959c0.546-0.232,1.128-0.349,1.745-0.349h1.295c0.618,0,1.198,0.116,1.74,0.349
		c0.541,0.233,1.016,0.553,1.422,0.959s0.725,0.881,0.958,1.422s0.349,1.121,0.349,1.739v9.775
		C23.867,19.801,23.752,20.381,23.519,20.922z M22.23,9.407c0-0.406-0.076-0.785-0.229-1.136c-0.152-0.352-0.36-0.658-0.623-0.921
		c-0.262-0.263-0.568-0.47-0.92-0.622S19.729,6.5,19.322,6.5H18.18c-0.406,0-0.785,0.076-1.136,0.229s-0.66,0.359-0.927,0.622
		s-0.477,0.569-0.629,0.921c-0.152,0.351-0.229,0.729-0.229,1.136v9.775c0,0.406,0.076,0.785,0.229,1.136
		c0.152,0.352,0.362,0.66,0.629,0.928c0.267,0.266,0.576,0.476,0.927,0.628s0.729,0.229,1.136,0.229h1.143
		c0.406,0,0.785-0.076,1.137-0.229s0.658-0.362,0.92-0.628c0.263-0.268,0.471-0.576,0.623-0.928
		c0.152-0.351,0.229-0.729,0.229-1.136V9.407z"/>
	<path class="st0" d="M37.16,23.397l-7.592-13.254l-0.152-0.787v14.041h-1.639V5.192h0.852l7.592,13.267l0.164,0.774V5.192h1.639
		v18.205H37.16z"/>
	<path class="st0" d="M46.605,6.754v16.644h-1.639V6.754h-4.342V5.192h10.322v1.562H46.605z"/>
	<path class="st0" d="M53.549,23.397V5.192h10.246v1.562h-8.607v6.767h6.969v1.562h-6.969v6.754h8.607v1.562H53.549z"/>
	<path class="st0" d="M76.299,23.397l-7.592-13.254l-0.152-0.787v14.041h-1.637V5.192h0.85l7.592,13.267l0.166,0.774V5.192h1.637
		v18.205H76.299z"/>
	<path class="st0" d="M81.326,23.397V5.192h1.639v18.205H81.326z"/>
	<path class="st0" d="M97.024,20.668c-0.233,0.541-0.552,1.016-0.958,1.422s-0.883,0.726-1.429,0.959
		c-0.546,0.232-1.128,0.349-1.745,0.349h-5.764V5.192h5.764c0.617,0,1.199,0.116,1.745,0.349c0.546,0.233,1.022,0.553,1.429,0.959
		s0.725,0.883,0.958,1.428c0.233,0.547,0.349,1.129,0.349,1.746v9.255C97.373,19.547,97.258,20.127,97.024,20.668z M95.736,9.674
		c0-0.406-0.076-0.785-0.229-1.137c-0.152-0.351-0.362-0.66-0.629-0.926c-0.267-0.268-0.576-0.477-0.927-0.629
		s-0.729-0.229-1.136-0.229h-4.051v15.082h4.051c0.406,0,0.785-0.076,1.136-0.229s0.66-0.359,0.927-0.622s0.477-0.569,0.629-0.921
		c0.152-0.351,0.229-0.729,0.229-1.136V9.674z"/>
	<path class="st0" d="M110.9,20.922c-0.232,0.541-0.553,1.016-0.959,1.422s-0.88,0.726-1.422,0.959
		c-0.541,0.232-1.121,0.349-1.738,0.349h-1.295c-0.618,0-1.2-0.116-1.746-0.349c-0.546-0.233-1.021-0.553-1.428-0.959
		s-0.727-0.881-0.959-1.422s-0.35-1.121-0.35-1.739V9.407c0-0.618,0.117-1.198,0.35-1.739s0.553-1.016,0.959-1.422
		s0.882-0.726,1.428-0.959c0.546-0.232,1.128-0.349,1.746-0.349h1.295c0.617,0,1.197,0.116,1.738,0.349
		c0.542,0.233,1.016,0.553,1.422,0.959s0.727,0.881,0.959,1.422s0.35,1.121,0.35,1.739v9.775
		C111.25,19.801,111.133,20.381,110.9,20.922z M109.611,9.407c0-0.406-0.076-0.785-0.229-1.136
		c-0.152-0.352-0.359-0.658-0.621-0.921c-0.263-0.263-0.57-0.47-0.921-0.622S107.111,6.5,106.705,6.5h-1.143
		c-0.406,0-0.785,0.076-1.137,0.229s-0.66,0.359-0.927,0.622s-0.476,0.569-0.628,0.921c-0.152,0.351-0.229,0.729-0.229,1.136v9.775
		c0,0.406,0.076,0.785,0.229,1.136c0.152,0.352,0.361,0.66,0.628,0.928c0.267,0.266,0.575,0.476,0.927,0.628s0.73,0.229,1.137,0.229
		h1.143c0.406,0,0.785-0.076,1.136-0.229s0.658-0.362,0.921-0.628c0.262-0.268,0.469-0.576,0.621-0.928
		c0.152-0.351,0.229-0.729,0.229-1.136V9.407z"/>
	<path class="st0" d="M121.139,23.397V5.192h10.246v1.562h-8.607v6.767h6.969v1.562h-6.969v6.754h8.607v1.562H121.139z"/>
	<path class="st0" d="M144.486,19.183c0,0.618-0.125,1.198-0.375,1.739s-0.584,1.016-1.003,1.422s-0.905,0.726-1.46,0.959
		c-0.555,0.232-1.141,0.349-1.758,0.349h-1.309c-0.617,0-1.203-0.116-1.758-0.349c-0.555-0.233-1.041-0.553-1.46-0.959
		s-0.753-0.881-1.003-1.422s-0.375-1.121-0.375-1.739v-0.724l1.639-0.267v0.99c0,0.406,0.082,0.785,0.247,1.136
		c0.165,0.352,0.388,0.66,0.667,0.928c0.279,0.266,0.603,0.476,0.971,0.628s0.756,0.229,1.162,0.229h1.143
		c0.406,0,0.791-0.076,1.154-0.229c0.364-0.152,0.686-0.362,0.965-0.628c0.279-0.268,0.502-0.576,0.667-0.928
		c0.165-0.351,0.247-0.729,0.247-1.136v-0.546c0-0.627-0.122-1.146-0.367-1.562c-0.246-0.415-0.572-0.769-0.979-1.06
		c-0.406-0.293-0.865-0.54-1.377-0.743s-1.039-0.406-1.58-0.609c-0.542-0.203-1.068-0.427-1.581-0.673s-0.972-0.553-1.378-0.92
		c-0.406-0.369-0.731-0.819-0.977-1.353c-0.246-0.533-0.369-1.188-0.369-1.968V9.407c0-0.618,0.117-1.198,0.35-1.739
		s0.553-1.016,0.959-1.422s0.882-0.726,1.428-0.959c0.546-0.232,1.128-0.349,1.746-0.349h1.168c0.617,0,1.197,0.116,1.738,0.349
		c0.542,0.233,1.016,0.553,1.422,0.959s0.727,0.881,0.959,1.422s0.35,1.121,0.35,1.739v0.47l-1.639,0.267V9.407
		c0-0.406-0.076-0.785-0.229-1.136c-0.152-0.352-0.359-0.658-0.621-0.921c-0.263-0.263-0.57-0.47-0.921-0.622
		S140.221,6.5,139.814,6.5h-1.016c-0.406,0-0.785,0.076-1.137,0.229s-0.66,0.359-0.927,0.622s-0.476,0.569-0.628,0.921
		c-0.152,0.351-0.229,0.729-0.229,1.136V9.75c0,0.584,0.122,1.074,0.367,1.473c0.246,0.398,0.572,0.738,0.979,1.021
		c0.406,0.284,0.865,0.529,1.377,0.736c0.512,0.208,1.039,0.42,1.58,0.635c0.542,0.217,1.068,0.453,1.581,0.711
		c0.513,0.259,0.972,0.576,1.378,0.953c0.406,0.376,0.731,0.836,0.977,1.377c0.246,0.541,0.369,1.201,0.369,1.98V19.183z"/>
	<path class="st0" d="M152.42,6.754v16.644h-1.637V6.754h-4.342V5.192h10.32v1.562H152.42z"/>
	<path class="st0" d="M166.195,19.157h-5.764l-1.193,4.24h-1.701l5.332-18.205h0.863l5.357,18.205H167.4L166.195,19.157z
		 M160.875,17.596h4.889l-2.4-8.392l-0.051-0.673l-0.051,0.673L160.875,17.596z M162.666,3.123h-1.168L163.58,0h2.59L162.666,3.123z
		"/>
	<path class="st0" d="M175.844,6.754v16.644h-1.639V6.754h-4.342V5.192h10.322v1.562H175.844z"/>
	<path class="st0" d="M182.787,23.397V5.192h1.639v18.205H182.787z"/>
	<path class="st0" d="M198.219,20.922c-0.232,0.541-0.553,1.016-0.959,1.422s-0.88,0.726-1.422,0.959
		c-0.541,0.232-1.121,0.349-1.738,0.349h-1.295c-0.618,0-1.2-0.116-1.746-0.349c-0.546-0.233-1.021-0.553-1.428-0.959
		s-0.727-0.881-0.959-1.422s-0.35-1.121-0.35-1.739V9.407c0-0.618,0.117-1.198,0.35-1.739s0.553-1.016,0.959-1.422
		s0.882-0.726,1.428-0.959c0.546-0.232,1.128-0.349,1.746-0.349h1.295c0.617,0,1.197,0.116,1.738,0.349
		c0.542,0.233,1.016,0.553,1.422,0.959s0.727,0.881,0.959,1.422s0.35,1.121,0.35,1.739v0.736l-1.639,0.254v-0.99
		c0-0.406-0.076-0.785-0.229-1.136c-0.152-0.352-0.359-0.658-0.621-0.921c-0.263-0.263-0.57-0.47-0.921-0.622
		S194.43,6.5,194.023,6.5h-1.143c-0.406,0-0.785,0.076-1.137,0.229s-0.66,0.359-0.927,0.622s-0.476,0.569-0.628,0.921
		c-0.152,0.351-0.229,0.729-0.229,1.136v9.775c0,0.406,0.076,0.785,0.229,1.136c0.152,0.352,0.361,0.66,0.628,0.928
		c0.267,0.266,0.575,0.476,0.927,0.628s0.73,0.229,1.137,0.229h1.143c0.406,0,0.785-0.076,1.136-0.229s0.658-0.362,0.921-0.628
		c0.262-0.268,0.469-0.576,0.621-0.928c0.152-0.351,0.229-0.729,0.229-1.136v-0.99l1.639,0.267v0.724
		C198.568,19.801,198.451,20.381,198.219,20.922z"/>
	<path class="st0" d="M211.841,20.922c-0.233,0.541-0.552,1.016-0.958,1.422s-0.881,0.726-1.422,0.959
		c-0.542,0.232-1.122,0.349-1.74,0.349h-1.295c-0.617,0-1.199-0.116-1.745-0.349c-0.546-0.233-1.022-0.553-1.429-0.959
		s-0.725-0.881-0.958-1.422s-0.349-1.121-0.349-1.739V9.407c0-0.618,0.115-1.198,0.349-1.739s0.552-1.016,0.958-1.422
		s0.883-0.726,1.429-0.959c0.546-0.232,1.128-0.349,1.745-0.349h1.295c0.618,0,1.198,0.116,1.74,0.349
		c0.541,0.233,1.016,0.553,1.422,0.959s0.725,0.881,0.958,1.422s0.349,1.121,0.349,1.739v9.775
		C212.189,19.801,212.074,20.381,211.841,20.922z M210.553,9.407c0-0.406-0.076-0.785-0.229-1.136
		c-0.152-0.352-0.36-0.658-0.623-0.921c-0.262-0.263-0.568-0.47-0.92-0.622s-0.73-0.229-1.137-0.229h-1.143
		c-0.406,0-0.785,0.076-1.136,0.229s-0.66,0.359-0.927,0.622s-0.477,0.569-0.629,0.921c-0.152,0.351-0.229,0.729-0.229,1.136v9.775
		c0,0.406,0.076,0.785,0.229,1.136c0.152,0.352,0.362,0.66,0.629,0.928c0.267,0.266,0.576,0.476,0.927,0.628
		s0.729,0.229,1.136,0.229h1.143c0.406,0,0.785-0.076,1.137-0.229s0.658-0.362,0.92-0.628c0.263-0.268,0.471-0.576,0.623-0.928
		c0.152-0.351,0.229-0.729,0.229-1.136V9.407z"/>
	<path class="st0" d="M225.977,19.398l0.051,0.673l0.051-0.673l4.037-14.206h1.689l-5.357,18.205h-0.863l-5.332-18.205h1.701
		L225.977,19.398z"/>
	<path class="st0" d="M244.119,19.183c0,0.618-0.125,1.198-0.375,1.739s-0.584,1.016-1.003,1.422s-0.905,0.726-1.46,0.959
		c-0.555,0.232-1.141,0.349-1.758,0.349h-1.309c-0.617,0-1.203-0.116-1.758-0.349c-0.555-0.233-1.041-0.553-1.46-0.959
		s-0.753-0.881-1.003-1.422s-0.375-1.121-0.375-1.739v-0.724l1.639-0.267v0.99c0,0.406,0.082,0.785,0.247,1.136
		c0.165,0.352,0.388,0.66,0.667,0.928c0.279,0.266,0.603,0.476,0.971,0.628s0.756,0.229,1.162,0.229h1.143
		c0.406,0,0.791-0.076,1.154-0.229c0.364-0.152,0.686-0.362,0.965-0.628c0.279-0.268,0.502-0.576,0.667-0.928
		c0.165-0.351,0.247-0.729,0.247-1.136v-0.546c0-0.627-0.122-1.146-0.367-1.562c-0.246-0.415-0.572-0.769-0.979-1.06
		c-0.406-0.293-0.865-0.54-1.377-0.743s-1.039-0.406-1.58-0.609c-0.542-0.203-1.068-0.427-1.581-0.673s-0.972-0.553-1.378-0.92
		c-0.406-0.369-0.731-0.819-0.977-1.353c-0.246-0.533-0.369-1.188-0.369-1.968V9.407c0-0.618,0.117-1.198,0.35-1.739
		s0.553-1.016,0.959-1.422s0.882-0.726,1.428-0.959c0.546-0.232,1.128-0.349,1.746-0.349h1.168c0.617,0,1.197,0.116,1.738,0.349
		c0.542,0.233,1.016,0.553,1.422,0.959s0.727,0.881,0.959,1.422s0.35,1.121,0.35,1.739v0.47l-1.639,0.267V9.407
		c0-0.406-0.076-0.785-0.229-1.136c-0.152-0.352-0.359-0.658-0.621-0.921c-0.263-0.263-0.57-0.47-0.921-0.622
		S239.854,6.5,239.447,6.5h-1.016c-0.406,0-0.785,0.076-1.137,0.229s-0.66,0.359-0.927,0.622s-0.476,0.569-0.628,0.921
		c-0.152,0.351-0.229,0.729-0.229,1.136V9.75c0,0.584,0.122,1.074,0.367,1.473c0.246,0.398,0.572,0.738,0.979,1.021
		c0.406,0.284,0.865,0.529,1.377,0.736c0.512,0.208,1.039,0.42,1.58,0.635c0.542,0.217,1.068,0.453,1.581,0.711
		c0.513,0.259,0.972,0.576,1.378,0.953c0.406,0.376,0.731,0.836,0.977,1.377c0.246,0.541,0.369,1.201,0.369,1.98V19.183z"/>
	<path class="st0" d="M263.244,20.922c-0.232,0.541-0.553,1.016-0.959,1.422s-0.88,0.726-1.422,0.959
		c-0.541,0.232-1.121,0.349-1.738,0.349h-1.295c-0.618,0-1.2-0.116-1.746-0.349c-0.546-0.233-1.021-0.553-1.428-0.959
		s-0.727-0.881-0.959-1.422s-0.35-1.121-0.35-1.739V9.407c0-0.618,0.117-1.198,0.35-1.739s0.553-1.016,0.959-1.422
		s0.882-0.726,1.428-0.959c0.546-0.232,1.128-0.349,1.746-0.349h1.295c0.617,0,1.197,0.116,1.738,0.349
		c0.542,0.233,1.016,0.553,1.422,0.959s0.727,0.881,0.959,1.422s0.35,1.121,0.35,1.739v0.736l-1.639,0.254v-0.99
		c0-0.406-0.076-0.785-0.229-1.136c-0.152-0.352-0.359-0.658-0.621-0.921c-0.263-0.263-0.57-0.47-0.921-0.622
		S259.455,6.5,259.049,6.5h-1.143c-0.406,0-0.785,0.076-1.137,0.229s-0.66,0.359-0.927,0.622s-0.476,0.569-0.628,0.921
		c-0.152,0.351-0.229,0.729-0.229,1.136v9.775c0,0.406,0.076,0.785,0.229,1.136c0.152,0.352,0.361,0.66,0.628,0.928
		c0.267,0.266,0.575,0.476,0.927,0.628s0.73,0.229,1.137,0.229h1.143c0.406,0,0.785-0.076,1.136-0.229s0.658-0.362,0.921-0.628
		c0.262-0.268,0.469-0.576,0.621-0.928c0.152-0.351,0.229-0.729,0.229-1.136v-0.99l1.639,0.267v0.724
		C263.594,19.801,263.477,20.381,263.244,20.922z"/>
	<path class="st0" d="M276.866,20.922c-0.233,0.541-0.552,1.016-0.958,1.422s-0.881,0.726-1.422,0.959
		c-0.542,0.232-1.122,0.349-1.74,0.349h-1.295c-0.617,0-1.199-0.116-1.745-0.349c-0.546-0.233-1.022-0.553-1.429-0.959
		s-0.725-0.881-0.958-1.422s-0.349-1.121-0.349-1.739V9.407c0-0.618,0.115-1.198,0.349-1.739s0.552-1.016,0.958-1.422
		s0.883-0.726,1.429-0.959c0.546-0.232,1.128-0.349,1.745-0.349h1.295c0.618,0,1.198,0.116,1.74,0.349
		c0.541,0.233,1.016,0.553,1.422,0.959s0.725,0.881,0.958,1.422s0.349,1.121,0.349,1.739v9.775
		C277.215,19.801,277.1,20.381,276.866,20.922z M275.578,9.407c0-0.406-0.076-0.785-0.229-1.136
		c-0.152-0.352-0.36-0.658-0.623-0.921c-0.262-0.263-0.568-0.47-0.92-0.622S273.076,6.5,272.67,6.5h-1.143
		c-0.406,0-0.785,0.076-1.136,0.229s-0.66,0.359-0.927,0.622s-0.477,0.569-0.629,0.921c-0.152,0.351-0.229,0.729-0.229,1.136v9.775
		c0,0.406,0.076,0.785,0.229,1.136c0.152,0.352,0.362,0.66,0.629,0.928c0.267,0.266,0.576,0.476,0.927,0.628
		s0.729,0.229,1.136,0.229h1.143c0.406,0,0.785-0.076,1.137-0.229s0.658-0.362,0.92-0.628c0.263-0.268,0.471-0.576,0.623-0.928
		c0.152-0.351,0.229-0.729,0.229-1.136V9.407z"/>
	<path class="st0" d="M290.508,23.397l-7.592-13.254l-0.152-0.787v14.041h-1.639V5.192h0.852l7.592,13.267l0.164,0.774V5.192h1.639
		v18.205H290.508z"/>
	<path class="st0" d="M299.953,6.754v16.644h-1.639V6.754h-4.342V5.192h10.322v1.562H299.953z"/>
	<path class="st0" d="M306.896,23.397V5.192h10.246v1.562h-8.607v6.767h6.969v1.562h-6.969v6.754h8.607v1.562H306.896z"/>
	<path class="st0" d="M329.646,23.397l-7.592-13.254l-0.152-0.787v14.041h-1.637V5.192h0.85l7.592,13.267l0.166,0.774V5.192h1.637
		v18.205H329.646z"/>
	<path class="st0" d="M334.674,23.397V5.192h1.639v18.205H334.674z"/>
	<path class="st0" d="M350.373,20.668c-0.234,0.541-0.553,1.016-0.959,1.422s-0.883,0.726-1.428,0.959
		c-0.547,0.232-1.129,0.349-1.746,0.349h-5.764V5.192h5.764c0.617,0,1.199,0.116,1.746,0.349c0.545,0.233,1.021,0.553,1.428,0.959
		s0.725,0.883,0.959,1.428c0.232,0.547,0.348,1.129,0.348,1.746v9.255C350.721,19.547,350.605,20.127,350.373,20.668z
		 M349.084,9.674c0-0.406-0.076-0.785-0.229-1.137c-0.152-0.351-0.361-0.66-0.629-0.926c-0.266-0.268-0.576-0.477-0.926-0.629
		c-0.352-0.152-0.73-0.229-1.137-0.229h-4.051v15.082h4.051c0.406,0,0.785-0.076,1.137-0.229c0.35-0.152,0.66-0.359,0.926-0.622
		c0.268-0.263,0.477-0.569,0.629-0.921c0.152-0.351,0.229-0.729,0.229-1.136V9.674z"/>
	<path class="st0" d="M364.248,20.922c-0.232,0.541-0.553,1.016-0.959,1.422s-0.879,0.726-1.422,0.959
		c-0.541,0.232-1.121,0.349-1.738,0.349h-1.295c-0.619,0-1.199-0.116-1.746-0.349c-0.545-0.233-1.021-0.553-1.428-0.959
		s-0.727-0.881-0.959-1.422s-0.35-1.121-0.35-1.739V9.407c0-0.618,0.117-1.198,0.35-1.739s0.553-1.016,0.959-1.422
		s0.883-0.726,1.428-0.959c0.547-0.232,1.127-0.349,1.746-0.349h1.295c0.617,0,1.197,0.116,1.738,0.349
		c0.543,0.233,1.016,0.553,1.422,0.959s0.727,0.881,0.959,1.422s0.35,1.121,0.35,1.739v9.775
		C364.598,19.801,364.48,20.381,364.248,20.922z M362.959,9.407c0-0.406-0.076-0.785-0.229-1.136
		c-0.152-0.352-0.359-0.658-0.621-0.921c-0.264-0.263-0.57-0.47-0.92-0.622c-0.352-0.152-0.73-0.229-1.137-0.229h-1.143
		c-0.406,0-0.785,0.076-1.137,0.229s-0.66,0.359-0.926,0.622c-0.268,0.263-0.477,0.569-0.629,0.921
		c-0.152,0.351-0.229,0.729-0.229,1.136v9.775c0,0.406,0.076,0.785,0.229,1.136c0.152,0.352,0.361,0.66,0.629,0.928
		c0.266,0.266,0.574,0.476,0.926,0.628s0.73,0.229,1.137,0.229h1.143c0.406,0,0.785-0.076,1.137-0.229
		c0.35-0.152,0.656-0.362,0.92-0.628c0.262-0.268,0.469-0.576,0.621-0.928c0.152-0.351,0.229-0.729,0.229-1.136V9.407z"/>
	<path class="st0" d="M384.383,20.668c-0.232,0.541-0.553,1.016-0.959,1.422s-0.883,0.726-1.428,0.959
		c-0.547,0.232-1.127,0.349-1.746,0.349h-5.764V5.192h5.764c0.619,0,1.199,0.116,1.746,0.349c0.545,0.233,1.021,0.553,1.428,0.959
		s0.727,0.883,0.959,1.428c0.232,0.547,0.35,1.129,0.35,1.746v9.255C384.732,19.547,384.615,20.127,384.383,20.668z M383.094,9.674
		c0-0.406-0.076-0.785-0.229-1.137c-0.152-0.351-0.361-0.66-0.629-0.926c-0.266-0.268-0.574-0.477-0.926-0.629
		s-0.73-0.229-1.137-0.229h-4.049v15.082h4.049c0.406,0,0.785-0.076,1.137-0.229s0.66-0.359,0.926-0.622
		c0.268-0.263,0.477-0.569,0.629-0.921c0.152-0.351,0.229-0.729,0.229-1.136V9.674z"/>
	<path class="st0" d="M388.629,23.397V5.192h1.639v18.205H388.629z"/>
	<path class="st0" d="M403.813,23.397l-7.592-13.254l-0.152-0.787v14.041h-1.637V5.192h0.85l7.592,13.267l0.166,0.774V5.192h1.637
		v18.205H403.813z"/>
	<path class="st0" d="M415.67,19.157h-5.764l-1.193,4.24h-1.701l5.332-18.205h0.863l5.357,18.205h-1.688L415.67,19.157z
		 M410.352,17.596h4.887l-2.398-8.392l-0.051-0.673l-0.051,0.673L410.352,17.596z M412.141,3.123h-1.168L413.055,0h2.59
		L412.141,3.123z"/>
	<path class="st0" d="M432.111,23.397V10.918l-0.115,0.774l-4.227,11.705h-0.863l-4.266-11.705l-0.102-0.774v12.479H420.9V5.192
		h0.852l5.521,14.93l0.051,0.673l0.051-0.673l5.51-14.93h0.863v18.205H432.111z"/>
	<path class="st0" d="M437.9,23.397V5.192h1.637v18.205H437.9z"/>
	<path class="st0" d="M453.33,20.922c-0.232,0.541-0.551,1.016-0.957,1.422s-0.881,0.726-1.422,0.959
		c-0.543,0.232-1.121,0.349-1.74,0.349h-1.295c-0.617,0-1.199-0.116-1.746-0.349c-0.545-0.233-1.021-0.553-1.428-0.959
		s-0.725-0.881-0.959-1.422c-0.232-0.541-0.348-1.121-0.348-1.739V9.407c0-0.618,0.115-1.198,0.348-1.739
		c0.234-0.541,0.553-1.016,0.959-1.422s0.883-0.726,1.428-0.959c0.547-0.232,1.129-0.349,1.746-0.349h1.295
		c0.619,0,1.197,0.116,1.74,0.349c0.541,0.233,1.016,0.553,1.422,0.959s0.725,0.881,0.957,1.422c0.234,0.541,0.35,1.121,0.35,1.739
		v0.736l-1.637,0.254v-0.99c0-0.406-0.076-0.785-0.229-1.136c-0.152-0.352-0.359-0.658-0.623-0.921
		c-0.262-0.263-0.568-0.47-0.92-0.622s-0.73-0.229-1.137-0.229h-1.143c-0.406,0-0.785,0.076-1.137,0.229
		c-0.35,0.152-0.66,0.359-0.926,0.622c-0.268,0.263-0.477,0.569-0.629,0.921c-0.152,0.351-0.229,0.729-0.229,1.136v9.775
		c0,0.406,0.076,0.785,0.229,1.136c0.152,0.352,0.361,0.66,0.629,0.928c0.266,0.266,0.576,0.476,0.926,0.628
		c0.352,0.152,0.73,0.229,1.137,0.229h1.143c0.406,0,0.785-0.076,1.137-0.229s0.658-0.362,0.92-0.628
		c0.264-0.268,0.471-0.576,0.623-0.928c0.152-0.351,0.229-0.729,0.229-1.136v-0.99l1.637,0.267v0.724
		C453.68,19.801,453.564,20.381,453.33,20.922z"/>
	<path class="st0" d="M466.953,20.922c-0.232,0.541-0.553,1.016-0.959,1.422s-0.879,0.726-1.422,0.959
		c-0.541,0.232-1.121,0.349-1.738,0.349h-1.295c-0.619,0-1.199-0.116-1.746-0.349c-0.545-0.233-1.021-0.553-1.428-0.959
		s-0.727-0.881-0.959-1.422s-0.35-1.121-0.35-1.739V9.407c0-0.618,0.117-1.198,0.35-1.739s0.553-1.016,0.959-1.422
		s0.883-0.726,1.428-0.959c0.547-0.232,1.127-0.349,1.746-0.349h1.295c0.617,0,1.197,0.116,1.738,0.349
		c0.543,0.233,1.016,0.553,1.422,0.959s0.727,0.881,0.959,1.422s0.35,1.121,0.35,1.739v9.775
		C467.303,19.801,467.186,20.381,466.953,20.922z M465.664,9.407c0-0.406-0.076-0.785-0.229-1.136
		c-0.152-0.352-0.359-0.658-0.621-0.921c-0.264-0.263-0.57-0.47-0.92-0.622c-0.352-0.152-0.73-0.229-1.137-0.229h-1.143
		c-0.406,0-0.785,0.076-1.137,0.229s-0.66,0.359-0.926,0.622c-0.268,0.263-0.477,0.569-0.629,0.921
		c-0.152,0.351-0.229,0.729-0.229,1.136v9.775c0,0.406,0.076,0.785,0.229,1.136c0.152,0.352,0.361,0.66,0.629,0.928
		c0.266,0.266,0.574,0.476,0.926,0.628s0.73,0.229,1.137,0.229h1.143c0.406,0,0.785-0.076,1.137-0.229
		c0.35-0.152,0.656-0.362,0.92-0.628c0.262-0.268,0.469-0.576,0.621-0.928c0.152-0.351,0.229-0.729,0.229-1.136V9.407z"/>
</g>
</svg>