<!-- Generator: Adobe Illustrator 17.0.0, SVG Export Plug-In  -->
<svg version="1.1"
	 xmlns="http://www.w3.org/2000/svg" xmlns:xlink="http://www.w3.org/1999/xlink" xmlns:a="http://ns.adobe.com/AdobeSVGViewerExtensions/3.0/"
	 x="0px" y="0px" width="258.318px" height="52.146px" viewBox="0 0 258.318 52.146"
	 style="enable-background:new 0 0 258.318 52.146;" xml:space="preserve">
<style type="text/css">
	.st0{fill-rule:evenodd;clip-rule:evenodd;fill:#888586;}
	.st1{fill-rule:evenodd;clip-rule:evenodd;fill:#E7E3E2;}
	.st2{fill:#E54F26;}
	.st3{fill:url(#XMLID_13_);}
	.st4{fill:url(#XMLID_14_);}
	.st5{fill:url(#XMLID_15_);}
	.st6{fill:url(#XMLID_16_);}
	.st7{fill-rule:evenodd;clip-rule:evenodd;fill:#E54F26;}
	.st8{fill-rule:evenodd;clip-rule:evenodd;}
	.st9{fill:#FFFFFF;}
	.st10{fill:url(#XMLID_17_);}
	.st11{fill:url(#XMLID_18_);}
	.st12{fill:url(#XMLID_19_);}
	.st13{fill:url(#XMLID_20_);}
</style>
<defs>
</defs>
<g>
	<polygon class="st0" points="0,47.301 0,52.146 174.83,52.146 258.318,52.146 258.318,47.301 237.43,47.301 174.83,47.301 
		112.191,47.301 	"/>
	<rect x="0" y="0" class="st1" width="258.318" height="48.916"/>
	<g id="XMLID_4_">
		<rect x="11.143" y="11.271" class="st2" width="19.664" height="22.793"/>
		<path id="XMLID_9_" d="M33.357,35.957H13.695v-1.07h17.936V13.164h1.727V35.957L33.357,35.957z M11.143,11.271h19.664v22.793
			H11.143V11.271L11.143,11.271z M31.631,12.342v-1.893H10.32v24.438h2.551v1.893h21.313V12.342H31.631L31.631,12.342z"/>
		<linearGradient id="XMLID_13_" gradientUnits="userSpaceOnUse" x1="21.4688" y1="30.7705" x2="22.3321" y2="30.7705">
			<stop  offset="0" style="stop-color:#F5F5F5"/>
			<stop  offset="1" style="stop-color:#E8E8E8"/>
		</linearGradient>
		<polygon id="XMLID_8_" class="st3" points="21.469,30.359 22.332,30.359 22.332,31.182 21.469,31.182 21.469,30.359 		"/>
		<linearGradient id="XMLID_14_" gradientUnits="userSpaceOnUse" x1="23.3223" y1="30.7705" x2="24.1875" y2="30.7705">
			<stop  offset="0" style="stop-color:#F5F5F5"/>
			<stop  offset="1" style="stop-color:#E8E8E8"/>
		</linearGradient>
		<polygon id="XMLID_7_" class="st4" points="23.322,30.359 24.188,30.359 24.188,31.182 23.322,31.182 23.322,30.359 		"/>
		<linearGradient id="XMLID_15_" gradientUnits="userSpaceOnUse" x1="25.2149" y1="30.7705" x2="26.0801" y2="30.7705">
			<stop  offset="0" style="stop-color:#F5F5F5"/>
			<stop  offset="1" style="stop-color:#E8E8E8"/>
		</linearGradient>
		<polygon id="XMLID_6_" class="st5" points="25.215,30.359 26.08,30.359 26.08,31.182 25.215,31.182 25.215,30.359 		"/>
		<linearGradient id="XMLID_16_" gradientUnits="userSpaceOnUse" x1="27.0645" y1="30.7705" x2="27.9297" y2="30.7705">
			<stop  offset="0" style="stop-color:#F5F5F5"/>
			<stop  offset="1" style="stop-color:#E8E8E8"/>
		</linearGradient>
		<polygon id="XMLID_5_" class="st6" points="27.065,30.359 27.93,30.359 27.93,31.182 27.065,31.182 27.065,30.359 		"/>
	</g>
	<rect x="192.314" y="0" class="st7" width="66.004" height="48.916"/>
	<polygon class="st8" points="192.314,52.146 192.314,48.916 258.318,48.916 258.318,52.146 196.012,52.146 	"/>
	<g>
		<path d="M57.466,20.613V10.2h7.139v1.762h-5.036v2.465h4.348v1.762h-4.348v4.425H57.466z"/>
		<path d="M68.091,20.613V10.2h4.425c1.113,0,1.922,0.094,2.426,0.28c0.505,0.188,0.908,0.521,1.211,0.998
			c0.304,0.479,0.455,1.025,0.455,1.642c0,0.781-0.229,1.426-0.689,1.936c-0.459,0.509-1.146,0.829-2.06,0.962
			c0.455,0.266,0.83,0.557,1.126,0.874s0.694,0.881,1.196,1.69l1.271,2.031h-2.514l-1.521-2.266c-0.54-0.81-0.909-1.32-1.108-1.531
			c-0.198-0.21-0.409-0.354-0.632-0.433s-0.575-0.117-1.059-0.117h-0.426v4.347H68.091z M70.193,14.604h1.556
			c1.009,0,1.639-0.043,1.89-0.128c0.251-0.086,0.447-0.232,0.589-0.44c0.143-0.209,0.213-0.469,0.213-0.781
			c0-0.351-0.093-0.634-0.28-0.849c-0.187-0.216-0.451-0.353-0.792-0.409c-0.17-0.023-0.682-0.035-1.534-0.035h-1.641V14.604z"/>
		<path d="M89.724,20.613h-2.287l-0.909-2.365h-4.162l-0.859,2.365h-2.23L83.331,10.2h2.224L89.724,20.613z M85.853,16.493
			l-1.435-3.863l-1.406,3.863H85.853z"/>
		<path d="M92.557,20.613V10.2h3.146l1.89,7.104L99.46,10.2h3.154v10.413h-1.953v-8.197l-2.067,8.197h-2.024l-2.06-8.197v8.197
			H92.557z"/>
		<path d="M106.447,20.613V10.2h7.721v1.762h-5.618v2.309h5.228v1.754h-5.228v2.834h5.817v1.755H106.447z"/>
		<path d="M119.374,20.613L116.888,10.2h2.152l1.569,7.152l1.903-7.152h2.501l1.825,7.273l1.599-7.273h2.116l-2.528,10.413h-2.23
			l-2.074-7.785l-2.067,7.785H119.374z"/>
		<path d="M132.945,15.471c0-1.061,0.159-1.951,0.477-2.671c0.236-0.53,0.56-1.006,0.969-1.428c0.41-0.421,0.858-0.733,1.347-0.938
			c0.648-0.274,1.396-0.412,2.244-0.412c1.534,0,2.762,0.477,3.683,1.428c0.922,0.952,1.382,2.275,1.382,3.971
			c0,1.682-0.457,2.996-1.371,3.946c-0.913,0.949-2.136,1.424-3.665,1.424c-1.548,0-2.779-0.473-3.693-1.417
			C133.402,18.429,132.945,17.128,132.945,15.471z M135.112,15.399c0,1.18,0.272,2.073,0.816,2.682
			c0.545,0.608,1.236,0.913,2.074,0.913s1.526-0.302,2.063-0.906c0.537-0.604,0.807-1.509,0.807-2.717
			c0-1.193-0.262-2.083-0.785-2.671c-0.523-0.587-1.219-0.881-2.085-0.881s-1.565,0.298-2.096,0.892
			C135.377,13.306,135.112,14.202,135.112,15.399z"/>
		<path d="M146.44,20.613V10.2h4.425c1.113,0,1.922,0.094,2.426,0.28c0.505,0.188,0.908,0.521,1.211,0.998
			c0.304,0.479,0.455,1.025,0.455,1.642c0,0.781-0.229,1.426-0.689,1.936c-0.459,0.509-1.146,0.829-2.06,0.962
			c0.455,0.266,0.83,0.557,1.126,0.874s0.694,0.881,1.196,1.69l1.271,2.031h-2.514l-1.521-2.266c-0.54-0.81-0.909-1.32-1.108-1.531
			c-0.198-0.21-0.409-0.354-0.632-0.433s-0.575-0.117-1.059-0.117h-0.426v4.347H146.44z M148.543,14.604h1.556
			c1.009,0,1.639-0.043,1.89-0.128c0.251-0.086,0.447-0.232,0.589-0.44c0.143-0.209,0.213-0.469,0.213-0.781
			c0-0.351-0.093-0.634-0.28-0.849c-0.187-0.216-0.451-0.353-0.792-0.409c-0.17-0.023-0.682-0.035-1.534-0.035h-1.641V14.604z"/>
		<path d="M158.712,20.613V10.2h2.103v4.624l4.247-4.624h2.827l-3.921,4.056l4.134,6.357h-2.72l-2.863-4.887l-1.704,1.74v3.146
			H158.712z"/>
		<path d="M70.469,38.069h-2.287l-0.909-2.365H63.11l-0.859,2.365h-2.23l4.056-10.413H66.3L70.469,38.069z M66.598,33.949
			l-1.435-3.863l-1.406,3.863H66.598z"/>
		<path d="M73.352,38.069V27.656h2.045l4.262,6.954v-6.954h1.954v10.413h-2.11l-4.197-6.79v6.79H73.352z"/>
		<path d="M90.424,34.241v-1.755h4.532v4.148c-0.44,0.426-1.079,0.802-1.915,1.126c-0.835,0.324-1.682,0.486-2.539,0.486
			c-1.089,0-2.038-0.229-2.848-0.686c-0.811-0.457-1.419-1.11-1.826-1.961c-0.407-0.85-0.61-1.774-0.61-2.773
			c0-1.084,0.228-2.048,0.682-2.891c0.455-0.843,1.12-1.489,1.996-1.939c0.668-0.346,1.499-0.519,2.493-0.519
			c1.293,0,2.303,0.271,3.029,0.813s1.194,1.292,1.402,2.248l-2.088,0.391c-0.146-0.512-0.423-0.915-0.827-1.211
			c-0.405-0.296-0.911-0.444-1.517-0.444c-0.919,0-1.649,0.292-2.191,0.874c-0.542,0.583-0.813,1.447-0.813,2.593
			c0,1.235,0.274,2.163,0.824,2.78c0.549,0.618,1.269,0.928,2.159,0.928c0.44,0,0.882-0.087,1.325-0.26
			c0.442-0.173,0.822-0.382,1.14-0.629v-1.32H90.424z"/>
		<path d="M98.627,27.656h2.103v5.64c0,0.896,0.026,1.476,0.078,1.74c0.09,0.427,0.305,0.769,0.643,1.026
			c0.339,0.259,0.802,0.388,1.389,0.388c0.597,0,1.047-0.122,1.35-0.366c0.304-0.244,0.485-0.543,0.547-0.898
			s0.093-0.944,0.093-1.769v-5.761h2.103v5.47c0,1.25-0.057,2.133-0.171,2.649c-0.113,0.516-0.323,0.951-0.628,1.307
			c-0.306,0.355-0.714,0.638-1.226,0.849s-1.179,0.316-2.003,0.316c-0.994,0-1.749-0.115-2.263-0.345s-0.92-0.528-1.218-0.895
			c-0.299-0.367-0.495-0.752-0.59-1.154c-0.138-0.597-0.206-1.478-0.206-2.643V27.656z"/>
		<path d="M110.948,38.069V27.741h2.103v8.573h5.228v1.755H110.948z"/>
		<path d="M130.913,38.069h-2.287l-0.909-2.365h-4.162l-0.859,2.365h-2.23l4.056-10.413h2.224L130.913,38.069z M127.042,33.949
			l-1.435-3.863l-1.406,3.863H127.042z"/>
		<path d="M133.78,38.069V27.656h4.425c1.113,0,1.922,0.094,2.426,0.28c0.505,0.188,0.908,0.521,1.211,0.998
			c0.304,0.479,0.455,1.025,0.455,1.642c0,0.781-0.229,1.426-0.689,1.936c-0.459,0.509-1.146,0.829-2.06,0.962
			c0.455,0.266,0.83,0.557,1.126,0.874s0.694,0.881,1.196,1.69l1.271,2.031h-2.514l-1.521-2.266c-0.54-0.81-0.909-1.32-1.108-1.531
			c-0.198-0.21-0.409-0.354-0.632-0.433s-0.575-0.117-1.059-0.117h-0.426v4.347H133.78z M135.883,32.061h1.556
			c1.009,0,1.639-0.043,1.89-0.128c0.251-0.086,0.447-0.232,0.589-0.44c0.143-0.209,0.213-0.469,0.213-0.781
			c0-0.351-0.093-0.634-0.28-0.849c-0.187-0.216-0.451-0.353-0.792-0.409c-0.17-0.023-0.682-0.035-1.534-0.035h-1.641V32.061z"/>
		<path d="M149.781,27.656h2.096v6.592c0,0.861-0.076,1.524-0.228,1.988c-0.203,0.606-0.572,1.093-1.107,1.46
			s-1.241,0.551-2.117,0.551c-1.027,0-1.818-0.288-2.372-0.863s-0.834-1.419-0.838-2.532l1.981-0.228
			c0.023,0.597,0.111,1.019,0.263,1.265c0.228,0.374,0.573,0.562,1.037,0.562c0.469,0,0.8-0.134,0.994-0.401
			s0.291-0.823,0.291-1.666V27.656z"/>
		<path d="M155.326,34.682l2.046-0.199c0.123,0.687,0.373,1.19,0.749,1.513c0.377,0.322,0.885,0.483,1.523,0.483
			c0.678,0,1.188-0.144,1.531-0.43c0.343-0.287,0.515-0.622,0.515-1.005c0-0.247-0.072-0.456-0.217-0.629s-0.396-0.323-0.756-0.451
			c-0.246-0.085-0.808-0.236-1.684-0.455c-1.127-0.279-1.918-0.622-2.372-1.029c-0.64-0.573-0.959-1.271-0.959-2.096
			c0-0.53,0.15-1.026,0.451-1.488c0.3-0.461,0.733-0.813,1.3-1.055c0.565-0.241,1.249-0.362,2.049-0.362
			c1.307,0,2.291,0.287,2.951,0.859c0.661,0.573,1.008,1.338,1.041,2.295l-2.103,0.092c-0.09-0.535-0.283-0.92-0.579-1.154
			s-0.74-0.352-1.332-0.352c-0.61,0-1.089,0.126-1.435,0.377c-0.223,0.161-0.334,0.376-0.334,0.646c0,0.246,0.104,0.457,0.313,0.632
			c0.266,0.223,0.909,0.455,1.933,0.696c1.022,0.241,1.779,0.491,2.269,0.749c0.49,0.258,0.874,0.611,1.151,1.059
			c0.276,0.447,0.415,1,0.415,1.658c0,0.597-0.166,1.155-0.497,1.677c-0.331,0.521-0.8,0.908-1.406,1.161s-1.361,0.38-2.266,0.38
			c-1.316,0-2.328-0.304-3.033-0.913C155.885,36.732,155.464,35.846,155.326,34.682z"/>
	</g>
	<g id="XMLID_1_">
		<path id="XMLID_3_" class="st9" d="M207.623,38.342c-0.896,0.9-0.896,2.248,0,3.262l0.564,0.561c0.896,0.898,2.361,0.898,3.262,0
			l7.197-7.197c0.447-0.561,0.674-1.123,0.674-1.799l2.361-2.359c5.395,4.045,13.041,3.711,17.99-1.236
			c5.4-5.398,5.4-14.059,0-19.455c-5.396-5.396-14.055-5.396-19.453,0c-4.947,4.949-5.285,12.594-1.238,17.992l-2.361,2.361
			c-0.67,0-1.348,0.225-1.797,0.676L207.623,38.342L207.623,38.342z M223.256,26.535c-3.713-3.711-3.824-9.783,0-13.494
			c3.711-3.711,9.779-3.711,13.492,0c3.709,3.711,3.709,9.783,0,13.494C233.035,30.246,226.967,30.246,223.256,26.535
			L223.256,26.535z"/>
		<path id="XMLID_2_" class="st9" d="M226.178,18.324h2.25v-2.246c0-0.789,0.676-1.463,1.461-1.463l0,0
			c0.791,0,1.463,0.674,1.463,1.463v2.246h2.25c0.785,0,1.461,0.676,1.461,1.463l0,0c0,0.789-0.676,1.461-1.461,1.461h-2.25V23.5
			c0,0.785-0.672,1.463-1.463,1.463l0,0c-0.785,0-1.461-0.678-1.461-1.463v-2.252h-2.25c-0.785,0-1.463-0.672-1.463-1.461l0,0
			C224.715,19,225.393,18.324,226.178,18.324L226.178,18.324z"/>
	</g>
	<path class="st9" d="M23.285,15.273c0-0.887-0.719-1.609-1.609-1.609h-1.4c-0.885,0-1.609,0.719-1.609,1.609v0.963
		c0,0.025,0.004,0.049,0.01,0.07c-0.006,0.023-0.01,0.045-0.01,0.07v7.988c0,0.09,0.029,0.178,0.084,0.248l1.896,2.492
		c0.08,0.104,0.201,0.162,0.328,0.162c0.127,0,0.25-0.059,0.326-0.162l1.899-2.492c0.053-0.07,0.082-0.158,0.082-0.248v-8.002
		c0-0.019-0.004-0.045-0.008-0.064c0.004-0.021,0.008-0.043,0.008-0.066v-0.959H23.285z M19.49,16.645h1.078v7.254H19.49V16.645z
		 M20.979,26.184l-1.121-1.471H22.1L20.979,26.184z M22.467,23.898h-1.08v-7.254h1.08V23.898z M22.467,15.826H19.49v-0.553
		c0-0.436,0.357-0.791,0.789-0.791h1.404c0.432,0,0.787,0.355,0.787,0.791v0.553H22.467z"/>
</g>
</svg>