<!-- Generator: Adobe Illustrator 17.0.0, SVG Export Plug-In  -->
<svg version="1.1"
	 xmlns="http://www.w3.org/2000/svg" xmlns:xlink="http://www.w3.org/1999/xlink" xmlns:a="http://ns.adobe.com/AdobeSVGViewerExtensions/3.0/"
	 x="0px" y="0px" width="258.318px" height="52.145px" viewBox="0 0 258.318 52.145"
	 style="enable-background:new 0 0 258.318 52.145;" xml:space="preserve">
<style type="text/css">
	.st0{fill-rule:evenodd;clip-rule:evenodd;fill:#888586;}
	.st1{fill-rule:evenodd;clip-rule:evenodd;fill:#E7E3E2;}
	.st2{fill-rule:evenodd;clip-rule:evenodd;fill:#E54F26;}
	.st3{fill-rule:evenodd;clip-rule:evenodd;}
	.st4{fill:#FFFFFF;}
	.st5{fill:#E54F26;}
	.st6{fill:url(#XMLID_13_);}
	.st7{fill:url(#XMLID_14_);}
	.st8{fill:url(#XMLID_15_);}
	.st9{fill:url(#XMLID_16_);}
	.st10{fill:url(#XMLID_17_);}
	.st11{fill:url(#XMLID_18_);}
	.st12{fill:url(#XMLID_19_);}
	.st13{fill:url(#XMLID_20_);}
</style>
<defs>
</defs>
<g>
	<polygon class="st0" points="0,47.301 0,52.145 174.83,52.145 258.318,52.145 258.318,47.301 237.43,47.301 174.83,47.301 
		112.191,47.301 	"/>
	<rect x="0" y="0" class="st1" width="258.318" height="48.916"/>
	<rect x="192.314" y="0" class="st2" width="66.004" height="48.916"/>
	<polygon class="st3" points="192.314,52.145 192.314,48.916 258.318,48.916 258.318,52.145 196.012,52.145 	"/>
	<g>
		<path d="M73.191,21.613V11.285h2.103v8.573h5.228v1.755H73.191z"/>
		<path d="M83.702,21.613V11.2h2.103v10.413H83.702z"/>
		<path d="M89.561,11.2h4.162c0.824,0,1.438,0.034,1.844,0.104c0.404,0.068,0.767,0.212,1.087,0.43
			c0.319,0.218,0.586,0.508,0.799,0.87s0.319,0.768,0.319,1.218c0,0.488-0.131,0.936-0.395,1.343
			c-0.263,0.407-0.619,0.713-1.068,0.916c0.635,0.185,1.122,0.5,1.463,0.944c0.341,0.445,0.512,0.969,0.512,1.57
			c0,0.474-0.11,0.934-0.33,1.381c-0.221,0.448-0.521,0.806-0.902,1.073c-0.382,0.268-0.852,0.432-1.41,0.493
			c-0.351,0.038-1.195,0.062-2.536,0.071h-3.544V11.2z M91.663,12.934v2.408h1.378c0.819,0,1.328-0.012,1.527-0.036
			c0.359-0.042,0.643-0.167,0.849-0.373s0.309-0.477,0.309-0.813c0-0.322-0.089-0.584-0.266-0.785
			c-0.178-0.201-0.442-0.323-0.792-0.366c-0.209-0.023-0.808-0.035-1.798-0.035H91.663z M91.663,17.074v2.784h1.946
			c0.758,0,1.238-0.021,1.441-0.063c0.313-0.057,0.567-0.195,0.764-0.415c0.196-0.221,0.295-0.516,0.295-0.885
			c0-0.313-0.075-0.578-0.228-0.796c-0.151-0.218-0.37-0.376-0.656-0.476c-0.287-0.1-0.908-0.149-1.865-0.149H91.663z"/>
		<path d="M101.812,21.613V11.2h4.425c1.113,0,1.922,0.094,2.426,0.28c0.505,0.188,0.908,0.521,1.211,0.998
			c0.304,0.479,0.455,1.025,0.455,1.642c0,0.781-0.229,1.426-0.689,1.936c-0.459,0.509-1.146,0.829-2.06,0.962
			c0.455,0.266,0.83,0.557,1.126,0.874s0.694,0.881,1.196,1.69l1.271,2.031h-2.514l-1.521-2.266c-0.54-0.81-0.909-1.32-1.108-1.531
			c-0.198-0.21-0.409-0.354-0.632-0.433s-0.575-0.117-1.059-0.117h-0.426v4.347H101.812z M103.914,15.604h1.556
			c1.009,0,1.639-0.043,1.89-0.128c0.251-0.086,0.447-0.232,0.589-0.44c0.143-0.209,0.213-0.469,0.213-0.781
			c0-0.351-0.093-0.634-0.28-0.849c-0.187-0.216-0.451-0.353-0.792-0.409c-0.17-0.023-0.682-0.035-1.534-0.035h-1.641V15.604z"/>
		<path d="M114.055,21.613V11.2h7.721v1.762h-5.618v2.309h5.228v1.754h-5.228v2.834h5.817v1.755H114.055z"/>
		<path d="M125.511,21.613V11.2h4.425c1.113,0,1.922,0.094,2.426,0.28c0.505,0.188,0.908,0.521,1.211,0.998
			c0.304,0.479,0.455,1.025,0.455,1.642c0,0.781-0.229,1.426-0.689,1.936c-0.459,0.509-1.146,0.829-2.06,0.962
			c0.455,0.266,0.83,0.557,1.126,0.874s0.694,0.881,1.196,1.69l1.271,2.031h-2.514l-1.521-2.266c-0.54-0.81-0.909-1.32-1.108-1.531
			c-0.198-0.21-0.409-0.354-0.632-0.433s-0.575-0.117-1.059-0.117h-0.426v4.347H125.511z M127.613,15.604h1.556
			c1.009,0,1.639-0.043,1.89-0.128c0.251-0.086,0.447-0.232,0.589-0.44c0.143-0.209,0.213-0.469,0.213-0.781
			c0-0.351-0.093-0.634-0.28-0.849c-0.187-0.216-0.451-0.353-0.792-0.409c-0.17-0.023-0.682-0.035-1.534-0.035h-1.641V15.604z"/>
		<path d="M137.448,10.604l0.98-2.124h2.237l-1.953,2.124H137.448z M137.689,21.613V11.2h2.103v10.413H137.689z"/>
		<path d="M152.932,21.613h-2.287l-0.909-2.365h-4.162l-0.859,2.365h-2.23l4.056-10.413h2.224L152.932,21.613z M149.061,17.493
			l-1.435-3.863l-1.406,3.863H149.061z"/>
		<path d="M83.205,28.656h2.096v6.592c0,0.861-0.076,1.524-0.228,1.988c-0.203,0.606-0.572,1.093-1.107,1.46
			s-1.241,0.551-2.117,0.551c-1.027,0-1.818-0.288-2.372-0.863s-0.834-1.419-0.838-2.532l1.981-0.228
			c0.023,0.597,0.111,1.019,0.263,1.265c0.228,0.374,0.573,0.562,1.037,0.562c0.469,0,0.8-0.134,0.994-0.401
			s0.291-0.823,0.291-1.666V28.656z"/>
		<path d="M97.665,37.748c0.517,0.369,1.077,0.663,1.684,0.881l-0.774,1.484c-0.317-0.095-0.627-0.225-0.93-0.391
			c-0.066-0.033-0.533-0.341-1.399-0.923c-0.683,0.298-1.438,0.447-2.267,0.447c-1.601,0-2.854-0.472-3.761-1.414
			c-0.906-0.941-1.36-2.266-1.36-3.97c0-1.7,0.455-3.022,1.364-3.968c0.909-0.944,2.143-1.417,3.7-1.417
			c1.544,0,2.768,0.473,3.673,1.417c0.904,0.945,1.356,2.268,1.356,3.968c0,0.899-0.126,1.69-0.377,2.372
			C98.385,36.756,98.082,37.261,97.665,37.748z M95.975,36.562c0.271-0.316,0.473-0.7,0.607-1.15
			c0.135-0.449,0.203-0.966,0.203-1.548c0-1.203-0.266-2.102-0.796-2.696c-0.53-0.594-1.225-0.892-2.081-0.892
			c-0.857,0-1.552,0.299-2.085,0.896s-0.799,1.494-0.799,2.692c0,1.217,0.266,2.127,0.799,2.73s1.206,0.906,2.021,0.906
			c0.304,0,0.59-0.05,0.859-0.149c-0.426-0.279-0.859-0.497-1.3-0.653l0.59-1.201C94.685,35.733,95.345,36.089,95.975,36.562z"/>
		<path d="M102.33,28.656h2.103v5.64c0,0.896,0.026,1.476,0.078,1.74c0.09,0.427,0.305,0.769,0.643,1.026
			c0.339,0.259,0.802,0.388,1.389,0.388c0.597,0,1.047-0.122,1.35-0.366c0.304-0.244,0.485-0.543,0.547-0.898
			s0.093-0.944,0.093-1.769v-5.761h2.103v5.47c0,1.25-0.057,2.133-0.171,2.649c-0.113,0.516-0.323,0.951-0.628,1.307
			c-0.306,0.355-0.714,0.638-1.226,0.849s-1.179,0.316-2.003,0.316c-0.994,0-1.749-0.115-2.263-0.345s-0.92-0.528-1.218-0.895
			c-0.299-0.367-0.495-0.752-0.59-1.154c-0.138-0.597-0.206-1.478-0.206-2.643V28.656z"/>
		<path d="M114.596,39.069V28.656h7.721v1.762h-5.618v2.309h5.228v1.754h-5.228v2.834h5.817v1.755H114.596z"/>
		<path d="M126.051,39.069V28.656h4.425c1.113,0,1.922,0.094,2.426,0.28c0.505,0.188,0.908,0.521,1.211,0.998
			c0.304,0.479,0.455,1.025,0.455,1.642c0,0.781-0.229,1.426-0.689,1.936c-0.459,0.509-1.146,0.829-2.06,0.962
			c0.455,0.266,0.83,0.557,1.126,0.874s0.694,0.881,1.196,1.69l1.271,2.031h-2.514l-1.521-2.266c-0.54-0.81-0.909-1.32-1.108-1.531
			c-0.198-0.21-0.409-0.354-0.632-0.433s-0.575-0.117-1.059-0.117h-0.426v4.347H126.051z M128.153,33.061h1.556
			c1.009,0,1.639-0.043,1.89-0.128c0.251-0.086,0.447-0.232,0.589-0.44c0.143-0.209,0.213-0.469,0.213-0.781
			c0-0.351-0.093-0.634-0.28-0.849c-0.187-0.216-0.451-0.353-0.792-0.409c-0.17-0.023-0.682-0.035-1.534-0.035h-1.641V33.061z"/>
		<path d="M140.489,39.069v-4.383l-3.814-6.03h2.465l2.45,4.12l2.401-4.12h2.422l-3.828,6.045v4.368H140.489z"/>
	</g>
	<g id="XMLID_10_">
		<path id="XMLID_12_" class="st4" d="M207.623,38.527c-0.896,0.9-0.896,2.248,0,3.262l0.564,0.563c0.896,0.898,2.361,0.898,3.262,0
			l7.197-7.197c0.447-0.563,0.674-1.125,0.674-1.799l2.361-2.361c5.395,4.047,13.041,3.711,17.99-1.236
			c5.4-5.398,5.4-14.057,0-19.453c-5.396-5.398-14.055-5.398-19.453,0c-4.947,4.947-5.285,12.594-1.238,17.99l-2.361,2.361
			c-0.67,0-1.348,0.225-1.797,0.676L207.623,38.527L207.623,38.527z M223.256,26.721c-3.713-3.711-3.824-9.783,0-13.492
			c3.711-3.711,9.779-3.711,13.492,0c3.709,3.709,3.709,9.781,0,13.492C233.035,30.432,226.967,30.432,223.256,26.721
			L223.256,26.721z"/>
		<path id="XMLID_11_" class="st4" d="M226.178,18.512h2.25v-2.248c0-0.787,0.676-1.463,1.461-1.463l0,0
			c0.791,0,1.463,0.676,1.463,1.463v2.248h2.25c0.785,0,1.461,0.676,1.461,1.461l0,0c0,0.789-0.676,1.463-1.461,1.463h-2.25v2.25
			c0,0.785-0.672,1.463-1.463,1.463l0,0c-0.785,0-1.461-0.678-1.461-1.463v-2.25h-2.25c-0.785,0-1.463-0.674-1.463-1.463l0,0
			C224.715,19.188,225.393,18.512,226.178,18.512L226.178,18.512z"/>
	</g>
	<g id="XMLID_1_">
		<rect x="11.143" y="9.961" class="st5" width="19.664" height="22.797"/>
		<path id="XMLID_6_" d="M33.357,34.648H13.695v-1.072h17.936V11.856h1.727V34.648L33.357,34.648z M11.143,9.961h19.664v22.797
			H11.143V9.961L11.143,9.961z M31.631,11.033V9.141H10.32v24.436h2.551v1.896h21.313V11.033H31.631L31.631,11.033z"/>
		<linearGradient id="XMLID_13_" gradientUnits="userSpaceOnUse" x1="21.4688" y1="29.4629" x2="22.3321" y2="29.4629">
			<stop  offset="0" style="stop-color:#F5F5F5"/>
			<stop  offset="1" style="stop-color:#E8E8E8"/>
		</linearGradient>
		<polygon id="XMLID_5_" class="st6" points="21.469,29.053 22.332,29.053 22.332,29.873 21.469,29.873 21.469,29.053 		"/>
		<linearGradient id="XMLID_14_" gradientUnits="userSpaceOnUse" x1="23.3223" y1="29.4629" x2="24.1875" y2="29.4629">
			<stop  offset="0" style="stop-color:#F5F5F5"/>
			<stop  offset="1" style="stop-color:#E8E8E8"/>
		</linearGradient>
		<polygon id="XMLID_4_" class="st7" points="23.322,29.053 24.188,29.053 24.188,29.873 23.322,29.873 23.322,29.053 		"/>
		<linearGradient id="XMLID_15_" gradientUnits="userSpaceOnUse" x1="25.2149" y1="29.4629" x2="26.0801" y2="29.4629">
			<stop  offset="0" style="stop-color:#F5F5F5"/>
			<stop  offset="1" style="stop-color:#E8E8E8"/>
		</linearGradient>
		<polygon id="XMLID_3_" class="st8" points="25.215,29.053 26.08,29.053 26.08,29.873 25.215,29.873 25.215,29.053 		"/>
		<linearGradient id="XMLID_16_" gradientUnits="userSpaceOnUse" x1="27.0645" y1="29.4629" x2="27.9297" y2="29.4629">
			<stop  offset="0" style="stop-color:#F5F5F5"/>
			<stop  offset="1" style="stop-color:#E8E8E8"/>
		</linearGradient>
		<polygon id="XMLID_2_" class="st9" points="27.065,29.053 27.93,29.053 27.93,29.873 27.065,29.873 27.065,29.053 		"/>
	</g>
	<path class="st4" d="M23.285,14.063c0-0.887-0.719-1.609-1.609-1.609h-1.4c-0.885,0-1.609,0.719-1.609,1.609v0.963
		c0,0.025,0.004,0.049,0.01,0.07c-0.006,0.023-0.01,0.045-0.01,0.07v7.988c0,0.09,0.029,0.178,0.084,0.248l1.896,2.492
		c0.08,0.103,0.201,0.162,0.328,0.162c0.127,0,0.25-0.059,0.326-0.162l1.899-2.492c0.053-0.07,0.082-0.158,0.082-0.248v-8.002
		c0-0.019-0.004-0.045-0.008-0.064c0.004-0.022,0.008-0.043,0.008-0.066v-0.959H23.285z M19.49,15.434h1.078v7.254H19.49V15.434z
		 M20.979,24.973l-1.121-1.471H22.1L20.979,24.973z M22.467,22.688h-1.08v-7.254h1.08V22.688z M22.467,14.615H19.49v-0.553
		c0-0.436,0.357-0.791,0.789-0.791h1.404c0.432,0,0.787,0.355,0.787,0.791v0.553H22.467z"/>
</g>
</svg>