<!-- Generator: Adobe Illustrator 17.0.0, SVG Export Plug-In  -->
<svg version="1.1"
	 xmlns="http://www.w3.org/2000/svg" xmlns:xlink="http://www.w3.org/1999/xlink" xmlns:a="http://ns.adobe.com/AdobeSVGViewerExtensions/3.0/"
	 x="0px" y="0px" width="653.373px" height="36.215px" viewBox="0 0 653.373 36.215"
	 style="enable-background:new 0 0 653.373 36.215;" xml:space="preserve">
<style type="text/css">
	.st0{fill:url(#SVGID_1_);}
	.st1{fill:#F1F1F1;}
	.st2{fill:url(#SVGID_2_);}
</style>
<defs>
</defs>
<linearGradient id="SVGID_1_" gradientUnits="userSpaceOnUse" x1="0" y1="18.1074" x2="653.373" y2="18.1074">
	<stop  offset="0" style="stop-color:#783214"/>
	<stop  offset="0.5" style="stop-color:#F16529"/>
	<stop  offset="1" style="stop-color:#783214"/>
</linearGradient>
<polygon class="st0" points="0,36.215 7.814,0 653.373,0 630.754,35.953 "/>
<g>
	<path class="st1" d="M85.664,27.976V10.471h1.574v16.004h6.701v1.501H85.664z"/>
	<path class="st1" d="M96.442,27.976V10.471h1.575v17.505H96.442z"/>
	<path class="st1" d="M111.537,25.352c-0.225,0.521-0.531,0.977-0.922,1.367s-0.85,0.697-1.373,0.921
		c-0.525,0.224-1.086,0.336-1.68,0.336h-5.541V10.471h5.541c0.594,0,1.154,0.111,1.68,0.336c0.523,0.224,0.982,0.531,1.373,0.922
		s0.697,0.848,0.922,1.373c0.223,0.524,0.335,1.084,0.335,1.678v0.172c0,0.414-0.056,0.812-0.165,1.189
		c-0.109,0.379-0.267,0.73-0.47,1.057c-0.204,0.325-0.444,0.62-0.72,0.885c-0.277,0.264-0.586,0.486-0.928,0.665
		c0.342,0.179,0.65,0.401,0.928,0.665c0.275,0.265,0.516,0.562,0.72,0.892c0.203,0.329,0.36,0.684,0.47,1.062
		c0.109,0.379,0.165,0.775,0.165,1.19v1.123C111.872,24.273,111.76,24.83,111.537,25.352z M110.297,14.779
		c0-0.391-0.072-0.754-0.219-1.092s-0.348-0.635-0.605-0.892c-0.256-0.256-0.553-0.458-0.891-0.604s-0.701-0.219-1.092-0.219h-3.895
		v6.029h3.895c0.391,0,0.754-0.072,1.092-0.219s0.635-0.349,0.891-0.604c0.258-0.257,0.459-0.554,0.605-0.892
		c0.146-0.338,0.219-0.701,0.219-1.092V14.779z M110.297,22.299c0-0.391-0.072-0.754-0.219-1.092s-0.348-0.633-0.605-0.885
		c-0.256-0.252-0.553-0.452-0.891-0.599s-0.701-0.22-1.092-0.22h-3.895v6.971h3.895c0.391,0,0.754-0.074,1.092-0.221
		s0.635-0.346,0.891-0.598c0.258-0.252,0.459-0.547,0.605-0.885s0.219-0.702,0.219-1.093V22.299z"/>
	<path class="st1" d="M123.103,27.976l-4.749-7.471h-2.16v7.471h-1.574V10.471h5.554c0.594,0,1.151,0.111,1.673,0.336
		c0.52,0.224,0.977,0.531,1.367,0.922s0.697,0.848,0.921,1.373c0.224,0.524,0.336,1.084,0.336,1.678v1.416
		c0,0.595-0.112,1.154-0.336,1.679c-0.224,0.525-0.53,0.983-0.921,1.374s-0.848,0.697-1.367,0.921
		c-0.521,0.224-1.079,0.336-1.673,0.336l4.749,7.471H123.103z M122.894,14.779c0-0.391-0.072-0.754-0.219-1.092
		s-0.347-0.635-0.599-0.892c-0.253-0.256-0.548-0.458-0.885-0.604c-0.338-0.146-0.702-0.219-1.093-0.219h-3.906v7.031h3.906
		c0.391,0,0.755-0.074,1.093-0.221c0.337-0.146,0.632-0.348,0.885-0.604c0.252-0.257,0.452-0.554,0.599-0.892
		c0.146-0.337,0.219-0.702,0.219-1.093V14.779z"/>
	<path class="st1" d="M127.924,27.976V10.471h9.852v1.502h-8.276v6.506h6.702v1.502h-6.702v6.494h8.276v1.501H127.924z"/>
	<path class="st1" d="M149.006,27.976l-4.748-7.471h-2.161v7.471h-1.575V10.471h5.555c0.594,0,1.151,0.111,1.672,0.336
		c0.521,0.224,0.977,0.531,1.367,0.922s0.698,0.848,0.922,1.373c0.225,0.524,0.336,1.084,0.336,1.678v1.416
		c0,0.595-0.111,1.154-0.336,1.679c-0.224,0.525-0.531,0.983-0.922,1.374s-0.846,0.697-1.367,0.921
		c-0.521,0.224-1.078,0.336-1.672,0.336l4.748,7.471H149.006z M148.799,14.779c0-0.391-0.074-0.754-0.221-1.092
		s-0.346-0.635-0.598-0.892c-0.252-0.256-0.547-0.458-0.885-0.604s-0.702-0.219-1.093-0.219h-3.906v7.031h3.906
		c0.391,0,0.755-0.074,1.093-0.221s0.633-0.348,0.885-0.604c0.252-0.257,0.451-0.554,0.598-0.892
		c0.146-0.337,0.221-0.702,0.221-1.093V14.779z"/>
	<path class="st1" d="M153.998,8.48h-1.123l2.002-3.002h2.503L153.998,8.48z M153.828,27.976V10.471h1.574v17.505H153.828z"/>
	<path class="st1" d="M165.974,23.898h-5.542l-1.147,4.077h-1.636l5.127-17.505h0.83l5.151,17.505h-1.624L165.974,23.898z
		 M160.859,22.396h4.699l-2.307-8.068l-0.049-0.646l-0.049,0.646L160.859,22.396z"/>
	<path class="st1" d="M180.598,23.923c0,0.595-0.12,1.151-0.36,1.673c-0.239,0.521-0.562,0.977-0.964,1.367
		c-0.403,0.391-0.871,0.697-1.404,0.921s-1.097,0.336-1.69,0.336h-1.257c-0.595,0-1.158-0.112-1.691-0.336s-1.001-0.53-1.403-0.921
		c-0.403-0.391-0.725-0.847-0.965-1.367c-0.239-0.521-0.36-1.078-0.36-1.673v-0.696l1.575-0.256v0.952
		c0,0.391,0.079,0.755,0.238,1.093c0.158,0.338,0.372,0.635,0.641,0.891c0.269,0.257,0.58,0.458,0.934,0.604
		c0.354,0.146,0.727,0.22,1.117,0.22h1.099c0.391,0,0.761-0.073,1.111-0.22c0.35-0.146,0.658-0.348,0.928-0.604
		c0.268-0.256,0.481-0.553,0.641-0.891c0.158-0.338,0.238-0.702,0.238-1.093v-0.524c0-0.603-0.119-1.104-0.354-1.502
		c-0.236-0.398-0.55-0.738-0.94-1.02c-0.391-0.28-0.832-0.519-1.324-0.714s-0.999-0.391-1.52-0.586
		c-0.521-0.195-1.027-0.411-1.52-0.647c-0.492-0.235-0.934-0.53-1.324-0.885c-0.391-0.354-0.705-0.787-0.94-1.3
		c-0.236-0.513-0.354-1.144-0.354-1.892v-0.33c0-0.594,0.112-1.151,0.336-1.672c0.225-0.521,0.531-0.977,0.922-1.367
		s0.849-0.698,1.373-0.922c0.525-0.225,1.084-0.336,1.679-0.336h1.123c0.594,0,1.151,0.111,1.673,0.336
		c0.52,0.224,0.977,0.531,1.367,0.922s0.697,0.846,0.921,1.367c0.224,0.521,0.336,1.078,0.336,1.672v0.451l-1.575,0.257v-0.708
		c0-0.391-0.072-0.755-0.219-1.093c-0.146-0.337-0.347-0.632-0.599-0.885c-0.253-0.252-0.548-0.452-0.885-0.599
		c-0.338-0.146-0.702-0.219-1.093-0.219h-0.977c-0.391,0-0.755,0.072-1.093,0.219c-0.337,0.146-0.635,0.347-0.891,0.599
		c-0.257,0.253-0.458,0.548-0.604,0.885c-0.146,0.338-0.22,0.702-0.22,1.093v0.33c0,0.561,0.118,1.033,0.354,1.416
		c0.235,0.383,0.549,0.709,0.939,0.982c0.391,0.272,0.832,0.508,1.324,0.708c0.492,0.199,0.999,0.402,1.52,0.61
		c0.521,0.207,1.027,0.436,1.521,0.684c0.492,0.248,0.934,0.553,1.324,0.915s0.704,0.804,0.94,1.325
		c0.235,0.521,0.354,1.155,0.354,1.904V23.923z"/>
	<path class="st1" d="M194.33,19.602v8.374h-1.574v-8.35l-4.529-9.155h1.697l3.602,7.275l3.601-7.275h1.696L194.33,19.602z"/>
	<path class="st1" d="M208.649,11.973v6.506h6.702v1.502h-6.702v7.995h-1.575V10.471h9.852v1.502H208.649z"/>
	<path class="st1" d="M227.656,27.976l-4.749-7.471h-2.161v7.471h-1.574V10.471h5.555c0.594,0,1.15,0.111,1.672,0.336
		c0.521,0.224,0.977,0.531,1.367,0.922s0.697,0.848,0.922,1.373c0.224,0.524,0.336,1.084,0.336,1.678v1.416
		c0,0.595-0.112,1.154-0.336,1.679c-0.225,0.525-0.531,0.983-0.922,1.374s-0.847,0.697-1.367,0.921
		c-0.521,0.224-1.078,0.336-1.672,0.336l4.748,7.471H227.656z M227.448,14.779c0-0.391-0.073-0.754-0.22-1.092
		s-0.346-0.635-0.598-0.892c-0.253-0.256-0.548-0.458-0.885-0.604c-0.338-0.146-0.703-0.219-1.094-0.219h-3.906v7.031h3.906
		c0.391,0,0.756-0.074,1.094-0.221c0.337-0.146,0.632-0.348,0.885-0.604c0.252-0.257,0.451-0.554,0.598-0.892
		c0.146-0.337,0.22-0.702,0.22-1.093V14.779z"/>
	<path class="st1" d="M239.045,23.898h-5.542l-1.147,4.077h-1.636l5.127-17.505h0.83l5.151,17.505h-1.623L239.045,23.898z
		 M233.93,22.396h4.7l-2.308-8.068l-0.049-0.646l-0.049,0.646L233.93,22.396z"/>
	<path class="st1" d="M254.853,27.976V15.977l-0.11,0.744l-4.065,11.255h-0.83l-4.102-11.255l-0.098-0.744v11.999h-1.574V10.471
		h0.818l5.31,14.355l0.049,0.646l0.049-0.646l5.298-14.355h0.83v17.505H254.853z"/>
	<path class="st1" d="M260.42,27.976V10.471h9.851v1.502h-8.276v6.506h6.701v1.502h-6.701v6.494h8.276v1.501H260.42z"/>
	<path class="st1" d="M284.968,27.976h-0.817l-3.406-13.171l-0.049-0.684l-0.073,0.684l-3.382,13.171h-0.817l-4.651-17.505h1.575
		l3.431,13.306l0.049,0.647l0.049-0.647l3.369-13.306h0.879l3.369,13.306l0.049,0.647l0.061-0.647l3.418-13.306h1.574
		L284.968,27.976z"/>
	<path class="st1" d="M301.355,25.596c-0.224,0.521-0.531,0.977-0.922,1.367s-0.846,0.697-1.367,0.921
		c-0.521,0.224-1.078,0.336-1.672,0.336h-1.245c-0.595,0-1.153-0.112-1.679-0.336c-0.524-0.224-0.982-0.53-1.373-0.921
		s-0.697-0.847-0.922-1.367c-0.224-0.521-0.336-1.078-0.336-1.673v-9.399c0-0.594,0.112-1.151,0.336-1.672
		c0.225-0.521,0.531-0.977,0.922-1.367s0.849-0.698,1.373-0.922c0.525-0.225,1.084-0.336,1.679-0.336h1.245
		c0.594,0,1.151,0.111,1.672,0.336c0.521,0.224,0.977,0.531,1.367,0.922s0.698,0.846,0.922,1.367
		c0.225,0.521,0.336,1.078,0.336,1.672v9.399C301.691,24.518,301.58,25.074,301.355,25.596z M300.117,14.523
		c0-0.391-0.074-0.755-0.221-1.093c-0.146-0.337-0.346-0.632-0.598-0.885c-0.252-0.252-0.547-0.452-0.885-0.599
		s-0.702-0.219-1.093-0.219h-1.099c-0.391,0-0.755,0.072-1.093,0.219c-0.337,0.146-0.635,0.347-0.891,0.599
		c-0.257,0.253-0.458,0.548-0.604,0.885c-0.146,0.338-0.22,0.702-0.22,1.093v9.399c0,0.391,0.073,0.755,0.22,1.093
		s0.348,0.635,0.604,0.891c0.256,0.257,0.554,0.458,0.891,0.604c0.338,0.146,0.702,0.22,1.093,0.22h1.099
		c0.391,0,0.755-0.073,1.093-0.22s0.633-0.348,0.885-0.604c0.252-0.256,0.451-0.553,0.598-0.891s0.221-0.702,0.221-1.093V14.523z"/>
	<path class="st1" d="M313.679,27.976l-4.749-7.471h-2.16v7.471h-1.574V10.471h5.554c0.594,0,1.151,0.111,1.673,0.336
		c0.52,0.224,0.977,0.531,1.367,0.922s0.697,0.848,0.921,1.373c0.224,0.524,0.336,1.084,0.336,1.678v1.416
		c0,0.595-0.112,1.154-0.336,1.679c-0.224,0.525-0.53,0.983-0.921,1.374s-0.848,0.697-1.367,0.921
		c-0.521,0.224-1.079,0.336-1.673,0.336l4.749,7.471H313.679z M313.471,14.779c0-0.391-0.072-0.754-0.219-1.092
		s-0.347-0.635-0.599-0.892c-0.253-0.256-0.548-0.458-0.885-0.604c-0.338-0.146-0.702-0.219-1.093-0.219h-3.906v7.031h3.906
		c0.391,0,0.755-0.074,1.093-0.221c0.337-0.146,0.632-0.348,0.885-0.604c0.252-0.257,0.452-0.554,0.599-0.892
		c0.146-0.337,0.219-0.702,0.219-1.093V14.779z"/>
	<path class="st1" d="M318.5,27.976V10.471h1.575v17.505H318.5z M327.045,27.976l-6.592-8.753l6.592-8.752h1.953l-6.726,8.752
		l6.726,8.753H327.045z"/>
	<path class="st1" d="M341.096,23.923c0,0.595-0.121,1.151-0.361,1.673c-0.24,0.521-0.561,0.977-0.963,1.367
		c-0.404,0.391-0.871,0.697-1.404,0.921s-1.097,0.336-1.69,0.336h-1.257c-0.595,0-1.158-0.112-1.691-0.336s-1.001-0.53-1.403-0.921
		c-0.403-0.391-0.725-0.847-0.965-1.367c-0.239-0.521-0.36-1.078-0.36-1.673v-0.696l1.575-0.256v0.952
		c0,0.391,0.079,0.755,0.238,1.093c0.158,0.338,0.372,0.635,0.641,0.891c0.269,0.257,0.58,0.458,0.934,0.604
		c0.354,0.146,0.727,0.22,1.117,0.22h1.099c0.391,0,0.761-0.073,1.111-0.22c0.35-0.146,0.658-0.348,0.926-0.604
		c0.27-0.256,0.482-0.553,0.643-0.891c0.158-0.338,0.236-0.702,0.236-1.093v-0.524c0-0.603-0.117-1.104-0.354-1.502
		s-0.549-0.738-0.939-1.02c-0.391-0.28-0.832-0.519-1.324-0.714s-0.999-0.391-1.52-0.586c-0.521-0.195-1.027-0.411-1.52-0.647
		c-0.492-0.235-0.934-0.53-1.324-0.885c-0.391-0.354-0.705-0.787-0.94-1.3c-0.236-0.513-0.354-1.144-0.354-1.892v-0.33
		c0-0.594,0.112-1.151,0.336-1.672c0.225-0.521,0.531-0.977,0.922-1.367s0.849-0.698,1.373-0.922
		c0.525-0.225,1.084-0.336,1.679-0.336h1.123c0.594,0,1.151,0.111,1.673,0.336c0.52,0.224,0.975,0.531,1.365,0.922
		s0.699,0.846,0.922,1.367c0.225,0.521,0.336,1.078,0.336,1.672v0.451l-1.574,0.257v-0.708c0-0.391-0.074-0.755-0.221-1.093
		c-0.146-0.337-0.346-0.632-0.598-0.885c-0.252-0.252-0.547-0.452-0.884-0.599c-0.338-0.146-0.702-0.219-1.093-0.219h-0.977
		c-0.391,0-0.755,0.072-1.093,0.219c-0.337,0.146-0.635,0.347-0.891,0.599c-0.257,0.253-0.458,0.548-0.604,0.885
		c-0.146,0.338-0.22,0.702-0.22,1.093v0.33c0,0.561,0.118,1.033,0.354,1.416c0.235,0.383,0.549,0.709,0.939,0.982
		c0.391,0.272,0.832,0.508,1.324,0.708c0.492,0.199,0.999,0.402,1.52,0.61c0.521,0.207,1.027,0.436,1.52,0.684
		s0.934,0.553,1.324,0.915s0.705,0.804,0.939,1.325c0.236,0.521,0.355,1.155,0.355,1.904V23.923z"/>
	<path class="st1" d="M357.74,25.596c-0.225,0.521-0.531,0.977-0.922,1.367s-0.846,0.697-1.367,0.921
		c-0.52,0.224-1.078,0.336-1.672,0.336h-0.5c-0.594,0-1.154-0.112-1.68-0.336c-0.523-0.224-0.982-0.53-1.373-0.921
		s-0.697-0.847-0.922-1.367c-0.223-0.521-0.336-1.078-0.336-1.673v-0.696l1.576-0.256v0.952c0,0.391,0.072,0.755,0.219,1.093
		s0.348,0.635,0.605,0.891c0.256,0.257,0.553,0.458,0.891,0.604s0.701,0.22,1.092,0.22h0.354c0.383,0,0.746-0.073,1.088-0.22
		s0.639-0.348,0.891-0.604c0.252-0.256,0.451-0.553,0.598-0.891s0.221-0.702,0.221-1.093V10.471h1.574v13.452
		C358.076,24.518,357.965,25.074,357.74,25.596z"/>
	<path class="st1" d="M368.146,23.898h-5.541l-1.148,4.077h-1.635l5.127-17.505h0.83l5.15,17.505h-1.623L368.146,23.898z
		 M363.033,22.396h4.699l-2.307-8.068l-0.049-0.646l-0.049,0.646L363.033,22.396z"/>
	<path class="st1" d="M376.924,24.131l0.049,0.646l0.049-0.646l3.881-13.66h1.625l-5.152,17.505h-0.83l-5.127-17.505h1.637
		L376.924,24.131z"/>
	<path class="st1" d="M391.34,23.898h-5.541l-1.148,4.077h-1.635l5.127-17.505h0.83l5.15,17.505H392.5L391.34,23.898z
		 M386.227,22.396h4.699l-2.307-8.068l-0.049-0.646l-0.049,0.646L386.227,22.396z"/>
	<path class="st1" d="M405.965,23.923c0,0.595-0.121,1.151-0.361,1.673c-0.24,0.521-0.561,0.977-0.963,1.367
		c-0.404,0.391-0.871,0.697-1.404,0.921s-1.098,0.336-1.691,0.336h-1.258c-0.594,0-1.156-0.112-1.689-0.336s-1.002-0.53-1.404-0.921
		s-0.725-0.847-0.965-1.367c-0.24-0.521-0.359-1.078-0.359-1.673v-0.696l1.574-0.256v0.952c0,0.391,0.08,0.755,0.238,1.093
		s0.373,0.635,0.641,0.891c0.27,0.257,0.58,0.458,0.934,0.604c0.355,0.146,0.727,0.22,1.117,0.22h1.1c0.391,0,0.76-0.073,1.109-0.22
		c0.352-0.146,0.66-0.348,0.928-0.604c0.27-0.256,0.482-0.553,0.643-0.891c0.158-0.338,0.236-0.702,0.236-1.093v-0.524
		c0-0.603-0.117-1.104-0.354-1.502s-0.549-0.738-0.939-1.02c-0.391-0.28-0.832-0.519-1.324-0.714s-1-0.391-1.52-0.586
		c-0.521-0.195-1.027-0.411-1.52-0.647c-0.494-0.235-0.936-0.53-1.326-0.885c-0.391-0.354-0.703-0.787-0.939-1.3
		s-0.354-1.144-0.354-1.892v-0.33c0-0.594,0.111-1.151,0.336-1.672c0.223-0.521,0.531-0.977,0.922-1.367s0.848-0.698,1.373-0.922
		c0.525-0.225,1.084-0.336,1.678-0.336h1.123c0.594,0,1.152,0.111,1.672,0.336c0.521,0.224,0.977,0.531,1.367,0.922
		s0.699,0.846,0.922,1.367c0.225,0.521,0.336,1.078,0.336,1.672v0.451l-1.574,0.257v-0.708c0-0.391-0.074-0.755-0.221-1.093
		c-0.146-0.337-0.346-0.632-0.598-0.885c-0.252-0.252-0.547-0.452-0.885-0.599s-0.701-0.219-1.092-0.219h-0.977
		c-0.391,0-0.756,0.072-1.094,0.219s-0.635,0.347-0.891,0.599c-0.256,0.253-0.457,0.548-0.604,0.885
		c-0.146,0.338-0.221,0.702-0.221,1.093v0.33c0,0.561,0.119,1.033,0.354,1.416c0.236,0.383,0.551,0.709,0.941,0.982
		c0.391,0.272,0.832,0.508,1.324,0.708c0.492,0.199,0.998,0.402,1.52,0.61c0.521,0.207,1.027,0.436,1.52,0.684
		s0.934,0.553,1.324,0.915s0.705,0.804,0.939,1.325c0.236,0.521,0.355,1.155,0.355,1.904V23.923z"/>
	<path class="st1" d="M418.605,25.596c-0.225,0.521-0.531,0.977-0.922,1.367s-0.846,0.697-1.367,0.921s-1.078,0.336-1.672,0.336
		h-1.246c-0.594,0-1.152-0.112-1.678-0.336s-0.982-0.53-1.373-0.921s-0.699-0.847-0.922-1.367c-0.225-0.521-0.336-1.078-0.336-1.673
		v-9.399c0-0.594,0.111-1.151,0.336-1.672c0.223-0.521,0.531-0.977,0.922-1.367s0.848-0.698,1.373-0.922
		c0.525-0.225,1.084-0.336,1.678-0.336h1.246c0.594,0,1.15,0.111,1.672,0.336c0.521,0.224,0.977,0.531,1.367,0.922
		s0.697,0.846,0.922,1.367c0.223,0.521,0.336,1.078,0.336,1.672v0.708l-1.576,0.244v-0.952c0-0.391-0.072-0.755-0.219-1.093
		c-0.146-0.337-0.346-0.632-0.598-0.885c-0.252-0.252-0.549-0.452-0.885-0.599c-0.338-0.146-0.703-0.219-1.094-0.219h-1.098
		c-0.391,0-0.756,0.072-1.094,0.219s-0.635,0.347-0.891,0.599c-0.256,0.253-0.457,0.548-0.604,0.885
		c-0.146,0.338-0.221,0.702-0.221,1.093v9.399c0,0.391,0.074,0.755,0.221,1.093s0.348,0.635,0.604,0.891
		c0.256,0.257,0.553,0.458,0.891,0.604s0.703,0.22,1.094,0.22h1.098c0.391,0,0.756-0.073,1.094-0.22
		c0.336-0.146,0.633-0.348,0.885-0.604c0.252-0.256,0.451-0.553,0.598-0.891s0.219-0.702,0.219-1.093v-0.952l1.576,0.256v0.696
		C418.941,24.518,418.828,25.074,418.605,25.596z"/>
	<path class="st1" d="M430.672,27.976l-4.75-7.471h-2.16v7.471h-1.574V10.471h5.555c0.594,0,1.15,0.111,1.672,0.336
		c0.521,0.224,0.977,0.531,1.367,0.922s0.697,0.848,0.922,1.373c0.223,0.524,0.336,1.084,0.336,1.678v1.416
		c0,0.595-0.113,1.154-0.336,1.679c-0.225,0.525-0.531,0.983-0.922,1.374s-0.846,0.697-1.367,0.921s-1.078,0.336-1.672,0.336
		l4.748,7.471H430.672z M430.463,14.779c0-0.391-0.072-0.754-0.219-1.092s-0.346-0.635-0.598-0.892
		c-0.252-0.256-0.549-0.458-0.885-0.604c-0.338-0.146-0.703-0.219-1.094-0.219h-3.906v7.031h3.906c0.391,0,0.756-0.074,1.094-0.221
		c0.336-0.146,0.633-0.348,0.885-0.604c0.252-0.257,0.451-0.554,0.598-0.892c0.146-0.337,0.219-0.702,0.219-1.093V14.779z"/>
	<path class="st1" d="M435.492,27.976V10.471h1.574v17.505H435.492z"/>
	<path class="st1" d="M450.586,18.625c-0.225,0.521-0.531,0.977-0.922,1.367s-0.848,0.697-1.373,0.922
		c-0.525,0.224-1.084,0.336-1.678,0.336h-3.969v6.726h-1.574V10.471h5.543c0.594,0,1.152,0.111,1.678,0.336
		c0.525,0.224,0.982,0.531,1.373,0.922s0.697,0.848,0.922,1.373c0.225,0.524,0.336,1.084,0.336,1.678v2.174
		C450.922,17.547,450.811,18.104,450.586,18.625z M449.348,14.779c0-0.391-0.074-0.754-0.221-1.092s-0.348-0.635-0.604-0.892
		c-0.256-0.256-0.555-0.458-0.891-0.604c-0.338-0.146-0.703-0.219-1.094-0.219h-3.895v7.775h3.895c0.391,0,0.756-0.073,1.094-0.22
		c0.336-0.146,0.635-0.346,0.891-0.599c0.256-0.252,0.457-0.547,0.604-0.885s0.221-0.701,0.221-1.092V14.779z"/>
	<path class="st1" d="M458.172,11.973v16.003h-1.574V11.973h-4.176v-1.502h9.926v1.502H458.172z"/>
</g>
<g>
	<g>
		<g>
			<path d="M69.676,10.408c-0.002-0.137-0.045-0.27-0.139-0.375L63.838,3.52c0,0-0.002-0.002-0.006-0.004
				c-0.035-0.037-0.072-0.068-0.115-0.096c-0.012-0.008-0.025-0.016-0.039-0.023c-0.035-0.02-0.074-0.035-0.113-0.047
				c-0.01-0.004-0.018-0.008-0.031-0.012c-0.043-0.01-0.088-0.016-0.133-0.016H49.389c-0.639,0-1.16,0.52-1.16,1.16v27.25
				c0,0.639,0.521,1.16,1.16,1.16h19.133c0.641,0,1.16-0.521,1.16-1.16v-21.26C69.682,10.451,69.678,10.43,69.676,10.408z
				 M49.389,4.482H62.82v5.932c0,0.32,0.26,0.58,0.58,0.58h5.121v12.018H49.389V4.482z"/>
			<path d="M61.773,8.799c0-0.887-0.719-1.609-1.609-1.609h-1.4c-0.885,0-1.609,0.719-1.609,1.609v0.963
				c0,0.025,0.004,0.049,0.01,0.07c-0.006,0.024-0.01,0.045-0.01,0.07v7.988c0,0.09,0.029,0.178,0.084,0.248l1.896,2.492
				c0.08,0.104,0.201,0.162,0.328,0.162c0.127,0,0.25-0.059,0.326-0.162l1.898-2.492c0.053-0.07,0.082-0.158,0.082-0.248V9.889
				c0-0.02-0.004-0.045-0.008-0.064c0.004-0.021,0.008-0.043,0.008-0.066V8.799H61.773z M57.979,10.17h1.078v7.254h-1.078V10.17z
				 M59.467,19.709l-1.121-1.471h2.242L59.467,19.709z M60.955,17.424h-1.08V10.17h1.08V17.424z M60.955,9.352h-2.977V8.799
				c0-0.436,0.357-0.791,0.789-0.791h1.404c0.432,0,0.787,0.356,0.787,0.791v0.553H60.955z"/>
		</g>
	</g>
	<g>
		<path class="st1" d="M53.883,30.602v-5.137h3.521v0.869h-2.483v1.215h2.143v0.869h-2.143v2.184H53.883z"/>
		<path class="st1" d="M58.988,30.602l-1.227-5.137h1.063l0.773,3.527l0.94-3.527h1.234l0.9,3.588l0.791-3.588h1.043l-1.25,5.137
			h-1.1l-1.023-3.84l-1.02,3.84H58.988z"/>
	</g>
</g>
</svg>