<?xml version="1.0" encoding="utf-8"?>
<!-- Generator: Adobe Illustrator 21.0.0, SVG Export Plug-In . SVG Version: 6.00 Build 0)  -->
<svg version="1.1" id="Capa_1" xmlns="http://www.w3.org/2000/svg" xmlns:xlink="http://www.w3.org/1999/xlink" x="0px" y="0px"
	 viewBox="0 0 90.8 104.8" style="enable-background:new 0 0 90.8 104.8;" xml:space="preserve">
<style type="text/css">
	.st0{fill:#E54F26;stroke:#000000;stroke-width:3;stroke-miterlimit:10;}
	.st1{fill:#FFFFFF;}
</style>
<g>
	<polygon id="XMLID_1_" class="st0" points="45.4,103.1 1.5,77.8 1.5,27.1 45.4,1.7 89.3,27.1 89.3,77.8 	"/>
	<g>
		<g>
			<g>
				<path class="st1" d="M47.8,22.5h-9.5c-1.9,0-3.4,1.5-3.4,3.4v24.4c0,0.4,0.3,0.7,0.7,0.7h4.1c0.4,0,0.7-0.3,0.7-0.7
					c0-0.4-0.3-0.7-0.7-0.7h-3.4v-1.4H37c0.4,0,0.7-0.3,0.7-0.7c0-0.4-0.3-0.7-0.7-0.7h-0.7v-1.4H37c0.4,0,0.7-0.3,0.7-0.7
					c0-0.4-0.3-0.7-0.7-0.7h-0.7v-1.4H37c0.4,0,0.7-0.3,0.7-0.7c0-0.4-0.3-0.7-0.7-0.7h-0.7v-1.4h3.4c0.4,0,0.7-0.3,0.7-0.7
					c0-0.4-0.3-0.7-0.7-0.7h-3.4v-1.4H37c0.4,0,0.7-0.3,0.7-0.7c0-0.4-0.3-0.7-0.7-0.7h-0.7v-1.4H37c0.4,0,0.7-0.3,0.7-0.7
					c0-0.4-0.3-0.7-0.7-0.7h-0.7V32H37c0.4,0,0.7-0.3,0.7-0.7c0-0.4-0.3-0.7-0.7-0.7h-0.7v-1.4h3.4c0.4,0,0.7-0.3,0.7-0.7
					c0-0.4-0.3-0.7-0.7-0.7h-3.4v-2c0-1.1,0.9-2,2-2h9.5c1.1,0,2,0.9,2,2v33.8c0,1.1-0.9,2-2,2h-9.5c-1.1,0-2-0.9-2-2V53
					c0-0.4-0.3-0.7-0.7-0.7c-0.4,0-0.7,0.3-0.7,0.7v6.8c0,1.9,1.5,3.4,3.4,3.4h9.5c1.9,0,3.4-1.5,3.4-3.4V25.9
					C51.2,24,49.7,22.5,47.8,22.5z"/>
				<path class="st1" d="M26.8,31.3v24.4c0,0.4,0.3,0.7,0.7,0.7s0.7-0.3,0.7-0.7V31.3c0-0.4-0.3-0.7-0.7-0.7S26.8,30.9,26.8,31.3z"
					/>
				<path class="st1" d="M28.1,22.9c-0.2-0.5-1-0.5-1.2,0l-2.7,5.4c0,0.1-0.1,0.2-0.1,0.3v31.1c0,1.9,1.5,3.4,3.4,3.4
					c1.9,0,3.4-1.5,3.4-3.4v-1.4c0-0.4-0.3-0.7-0.7-0.7h-2.7c-0.4,0-0.7,0.3-0.7,0.7c0,0.4,0.3,0.7,0.7,0.7h2v0.7c0,1.1-0.9,2-2,2
					c-1.1,0-2-0.9-2-2v-31l2-4.1l1.6,3.2h-1.6c-0.4,0-0.7,0.3-0.7,0.7c0,0.4,0.3,0.7,0.7,0.7h2v26.4c0,0.4,0.3,0.7,0.7,0.7
					c0.4,0,0.7-0.3,0.7-0.7V28.6v0c0-0.1,0-0.2-0.1-0.3L28.1,22.9z"/>
				<path class="st1" d="M45.8,56.4c0-1.5-1.2-2.7-2.7-2.7c-1.5,0-2.7,1.2-2.7,2.7c0,1.5,1.2,2.7,2.7,2.7
					C44.6,59.1,45.8,57.9,45.8,56.4z M41.7,56.4c0-0.7,0.6-1.4,1.4-1.4c0.7,0,1.4,0.6,1.4,1.4s-0.6,1.4-1.4,1.4
					C42.3,57.7,41.7,57.1,41.7,56.4z"/>
				<path class="st1" d="M58.7,55c-0.4,0-0.7,0.3-0.7,0.7c0,0.4,0.3,0.7,0.7,0.7h5.4c0.4,0,0.7-0.3,0.7-0.7v-4.1
					c0-1.9-1.5-3.4-3.4-3.4h-2.7c-1.9,0-3.4,1.5-3.4,3.4v8.1c0,1.9,1.5,3.4,3.4,3.4h2.7c1.9,0,3.4-1.5,3.4-3.4v-1.4
					c0-0.4-0.3-0.7-0.7-0.7c-0.4,0-0.7,0.3-0.7,0.7v1.4c0,1.1-0.9,2-2,2h-2.7c-1.1,0-2-0.9-2-2v-8.1c0-1.1,0.9-2,2-2h2.7
					c1.1,0,2,0.9,2,2V55L58.7,55L58.7,55z"/>
			</g>
		</g>
	</g>
	<g>
		<g>
			<path class="st1" d="M4.4,74.5l1-0.1c0.1,0.3,0.2,0.6,0.4,0.7c0.2,0.2,0.4,0.2,0.7,0.2c0.3,0,0.6-0.1,0.7-0.2s0.2-0.3,0.2-0.5
				c0-0.1,0-0.2-0.1-0.3S7.1,74.3,7,74.2c-0.1,0-0.4-0.1-0.8-0.2c-0.5-0.1-0.9-0.3-1.1-0.5c-0.3-0.3-0.5-0.6-0.5-1
				c0-0.3,0.1-0.5,0.2-0.7c0.1-0.2,0.4-0.4,0.6-0.5s0.6-0.2,1-0.2c0.6,0,1.1,0.1,1.4,0.4c0.3,0.3,0.5,0.6,0.5,1.1l-1,0
				c0-0.3-0.1-0.4-0.3-0.6c-0.1-0.1-0.4-0.2-0.6-0.2c-0.3,0-0.5,0.1-0.7,0.2c-0.1,0.1-0.2,0.2-0.2,0.3c0,0.1,0,0.2,0.2,0.3
				c0.1,0.1,0.4,0.2,0.9,0.3c0.5,0.1,0.9,0.2,1.1,0.4c0.2,0.1,0.4,0.3,0.6,0.5c0.1,0.2,0.2,0.5,0.2,0.8c0,0.3-0.1,0.6-0.2,0.8
				C8,75.8,7.8,76,7.5,76.1s-0.7,0.2-1.1,0.2c-0.6,0-1.1-0.1-1.5-0.4S4.4,75.1,4.4,74.5z"/>
			<path class="st1" d="M9.1,73.7c0-0.5,0.1-0.9,0.2-1.3c0.1-0.3,0.3-0.5,0.5-0.7c0.2-0.2,0.4-0.4,0.6-0.5c0.3-0.1,0.7-0.2,1.1-0.2
				c0.7,0,1.3,0.2,1.8,0.7s0.7,1.1,0.7,1.9c0,0.8-0.2,1.4-0.7,1.9s-1,0.7-1.8,0.7c-0.7,0-1.3-0.2-1.8-0.7
				C9.3,75.1,9.1,74.5,9.1,73.7z M10.1,73.7c0,0.6,0.1,1,0.4,1.3c0.3,0.3,0.6,0.4,1,0.4c0.4,0,0.7-0.1,1-0.4
				c0.3-0.3,0.4-0.7,0.4-1.3c0-0.6-0.1-1-0.4-1.3s-0.6-0.4-1-0.4c-0.4,0-0.8,0.1-1,0.4S10.1,73.1,10.1,73.7z"/>
			<path class="st1" d="M14.7,76.2v-5h1.6c0.6,0,1,0,1.2,0.1c0.3,0.1,0.5,0.2,0.7,0.5c0.2,0.3,0.3,0.6,0.3,1c0,0.3-0.1,0.6-0.2,0.8
				c-0.1,0.2-0.3,0.4-0.4,0.5c-0.2,0.1-0.3,0.2-0.5,0.2c-0.2,0-0.6,0.1-1,0.1h-0.7v1.9H14.7z M15.7,72v1.4h0.6c0.4,0,0.7,0,0.8-0.1
				c0.1-0.1,0.2-0.1,0.3-0.2c0.1-0.1,0.1-0.2,0.1-0.4c0-0.2-0.1-0.3-0.2-0.5c-0.1-0.1-0.2-0.2-0.4-0.2c-0.1,0-0.4,0-0.7,0H15.7z"/>
			<path class="st1" d="M19.2,73.7c0-0.5,0.1-0.9,0.2-1.3c0.1-0.3,0.3-0.5,0.5-0.7c0.2-0.2,0.4-0.4,0.6-0.5c0.3-0.1,0.7-0.2,1.1-0.2
				c0.7,0,1.3,0.2,1.8,0.7s0.7,1.1,0.7,1.9c0,0.8-0.2,1.4-0.7,1.9s-1,0.7-1.8,0.7c-0.7,0-1.3-0.2-1.8-0.7
				C19.4,75.1,19.2,74.5,19.2,73.7z M20.2,73.7c0,0.6,0.1,1,0.4,1.3c0.3,0.3,0.6,0.4,1,0.4c0.4,0,0.7-0.1,1-0.4
				c0.3-0.3,0.4-0.7,0.4-1.3c0-0.6-0.1-1-0.4-1.3s-0.6-0.4-1-0.4c-0.4,0-0.8,0.1-1,0.4S20.2,73.1,20.2,73.7z"/>
			<path class="st1" d="M24.8,76.2v-5H27c0.5,0,0.9,0,1.2,0.1c0.2,0.1,0.4,0.3,0.6,0.5c0.1,0.2,0.2,0.5,0.2,0.8
				c0,0.4-0.1,0.7-0.3,0.9s-0.6,0.4-1,0.5c0.2,0.1,0.4,0.3,0.5,0.4s0.3,0.4,0.6,0.8l0.6,1h-1.2l-0.7-1.1c-0.3-0.4-0.4-0.6-0.5-0.7
				s-0.2-0.2-0.3-0.2c-0.1,0-0.3-0.1-0.5-0.1h-0.2v2.1H24.8z M25.9,73.3h0.7c0.5,0,0.8,0,0.9-0.1c0.1,0,0.2-0.1,0.3-0.2
				s0.1-0.2,0.1-0.4c0-0.2,0-0.3-0.1-0.4S27.6,72,27.4,72c-0.1,0-0.3,0-0.7,0h-0.8V73.3z"/>
			<path class="st1" d="M31,76.2V72h-1.5v-0.8h4V72H32v4.2H31z"/>
			<path class="st1" d="M34.2,76.2v-5h3.7V72h-2.7v1.1h2.5V74h-2.5v1.4H38v0.8H34.2z"/>
			<path class="st1" d="M40.8,71.2h1.8c0.4,0,0.7,0,1,0.1c0.3,0.1,0.5,0.2,0.8,0.5c0.2,0.2,0.4,0.5,0.5,0.8s0.2,0.7,0.2,1.2
				c0,0.4-0.1,0.8-0.2,1.1c-0.1,0.4-0.3,0.7-0.5,0.9c-0.2,0.2-0.4,0.3-0.7,0.4c-0.2,0.1-0.5,0.1-0.9,0.1h-1.9V71.2z M41.8,72v3.3
				h0.8c0.3,0,0.5,0,0.6,0c0.2,0,0.3-0.1,0.4-0.2s0.2-0.3,0.3-0.5s0.1-0.5,0.1-0.9s0-0.7-0.1-0.9c-0.1-0.2-0.2-0.4-0.3-0.5
				c-0.1-0.1-0.3-0.2-0.5-0.2c-0.1,0-0.4,0-0.8,0H41.8z"/>
			<path class="st1" d="M45.8,76.2v-5h3.7V72h-2.7v1.1h2.5V74h-2.5v1.4h2.8v0.8H45.8z"/>
			<path class="st1" d="M52.4,76.2v-5h1v5H52.4z"/>
			<path class="st1" d="M54.4,76.2v-5h1l2.1,3.3v-3.3h0.9v5h-1l-2-3.3v3.3H54.4z"/>
			<path class="st1" d="M60.6,76.2V72h-1.5v-0.8h4V72h-1.5v4.2H60.6z"/>
			<path class="st1" d="M63.7,76.2v-5h3.7V72h-2.7v1.1h2.5V74h-2.5v1.4h2.8v0.8H63.7z"/>
			<path class="st1" d="M68.4,76.2v-5h2.1c0.5,0,0.9,0,1.2,0.1c0.2,0.1,0.4,0.3,0.6,0.5c0.1,0.2,0.2,0.5,0.2,0.8
				c0,0.4-0.1,0.7-0.3,0.9s-0.6,0.4-1,0.5c0.2,0.1,0.4,0.3,0.5,0.4s0.3,0.4,0.6,0.8l0.6,1h-1.2L71,75.1c-0.3-0.4-0.4-0.6-0.5-0.7
				s-0.2-0.2-0.3-0.2c-0.1,0-0.3-0.1-0.5-0.1h-0.2v2.1H68.4z M69.4,73.3h0.7c0.5,0,0.8,0,0.9-0.1c0.1,0,0.2-0.1,0.3-0.2
				s0.1-0.2,0.1-0.4c0-0.2,0-0.3-0.1-0.4S71.1,72,70.9,72c-0.1,0-0.3,0-0.7,0h-0.8V73.3z"/>
			<path class="st1" d="M73.5,76.2v-5h3.4V72h-2.4v1.2h2.1V74h-2.1v2.1H73.5z"/>
			<path class="st1" d="M81.9,76.2h-1.1L80.3,75h-2l-0.4,1.1h-1.1l2-5h1.1L81.9,76.2z M80,74.2l-0.7-1.9l-0.7,1.9H80z"/>
			<path class="st1" d="M82,76.2v-0.9l2.6-3.3h-2.3v-0.8h3.7v0.8l-2.7,3.4H86v0.8H82z"/>
			<path class="st1" d="M23.7,79.6h1.8c0.4,0,0.7,0,1,0.1c0.3,0.1,0.5,0.2,0.8,0.5c0.2,0.2,0.4,0.5,0.5,0.8s0.2,0.7,0.2,1.2
				c0,0.4-0.1,0.8-0.2,1.1c-0.1,0.4-0.3,0.7-0.5,0.9c-0.2,0.2-0.4,0.3-0.7,0.4c-0.2,0.1-0.5,0.1-0.9,0.1h-1.9V79.6z M24.7,80.4v3.3
				h0.8c0.3,0,0.5,0,0.6,0c0.2,0,0.3-0.1,0.4-0.2s0.2-0.3,0.3-0.5s0.1-0.5,0.1-0.9s0-0.7-0.1-0.9c-0.1-0.2-0.2-0.4-0.3-0.5
				c-0.1-0.1-0.3-0.2-0.5-0.2c-0.1,0-0.4,0-0.8,0H24.7z"/>
			<path class="st1" d="M28.7,84.6v-5h3.7v0.8h-2.7v1.1h2.5v0.8h-2.5v1.4h2.8v0.8H28.7z"/>
			<path class="st1" d="M35.3,79.6h1v2.7c0,0.4,0,0.7,0,0.8c0,0.2,0.1,0.4,0.3,0.5s0.4,0.2,0.7,0.2c0.3,0,0.5-0.1,0.6-0.2
				s0.2-0.3,0.3-0.4c0-0.2,0-0.5,0-0.9v-2.8h1v2.6c0,0.6,0,1-0.1,1.3c-0.1,0.2-0.2,0.5-0.3,0.6c-0.1,0.2-0.3,0.3-0.6,0.4
				s-0.6,0.2-1,0.2c-0.5,0-0.8-0.1-1.1-0.2s-0.4-0.3-0.6-0.4c-0.1-0.2-0.2-0.4-0.3-0.6c-0.1-0.3-0.1-0.7-0.1-1.3V79.6z"/>
			<path class="st1" d="M40.1,82.9l1-0.1c0.1,0.3,0.2,0.6,0.4,0.7c0.2,0.2,0.4,0.2,0.7,0.2c0.3,0,0.6-0.1,0.7-0.2s0.2-0.3,0.2-0.5
				c0-0.1,0-0.2-0.1-0.3s-0.2-0.2-0.4-0.2c-0.1,0-0.4-0.1-0.8-0.2c-0.5-0.1-0.9-0.3-1.1-0.5c-0.3-0.3-0.5-0.6-0.5-1
				c0-0.3,0.1-0.5,0.2-0.7c0.1-0.2,0.4-0.4,0.6-0.5s0.6-0.2,1-0.2c0.6,0,1.1,0.1,1.4,0.4c0.3,0.3,0.5,0.6,0.5,1.1l-1,0
				c0-0.3-0.1-0.4-0.3-0.6c-0.1-0.1-0.4-0.2-0.6-0.2c-0.3,0-0.5,0.1-0.7,0.2c-0.1,0.1-0.2,0.2-0.2,0.3c0,0.1,0,0.2,0.2,0.3
				c0.1,0.1,0.4,0.2,0.9,0.3c0.5,0.1,0.9,0.2,1.1,0.4c0.2,0.1,0.4,0.3,0.6,0.5c0.1,0.2,0.2,0.5,0.2,0.8c0,0.3-0.1,0.6-0.2,0.8
				c-0.2,0.3-0.4,0.4-0.7,0.6s-0.7,0.2-1.1,0.2c-0.6,0-1.1-0.1-1.5-0.4S40.2,83.5,40.1,82.9z"/>
			<path class="st1" d="M45.1,79.6h1v2.7c0,0.4,0,0.7,0,0.8c0,0.2,0.1,0.4,0.3,0.5s0.4,0.2,0.7,0.2c0.3,0,0.5-0.1,0.6-0.2
				s0.2-0.3,0.3-0.4c0-0.2,0-0.5,0-0.9v-2.8h1v2.6c0,0.6,0,1-0.1,1.3c-0.1,0.2-0.2,0.5-0.3,0.6c-0.1,0.2-0.3,0.3-0.6,0.4
				s-0.6,0.2-1,0.2c-0.5,0-0.8-0.1-1.1-0.2s-0.4-0.3-0.6-0.4c-0.1-0.2-0.2-0.4-0.3-0.6c-0.1-0.3-0.1-0.7-0.1-1.3V79.6z"/>
			<path class="st1" d="M54.6,84.6h-1.1l-0.4-1.1h-2l-0.4,1.1h-1.1l2-5h1.1L54.6,84.6z M52.8,82.6l-0.7-1.9l-0.7,1.9H52.8z"/>
			<path class="st1" d="M55.2,84.6v-5h2.1c0.5,0,0.9,0,1.2,0.1c0.2,0.1,0.4,0.3,0.6,0.5c0.1,0.2,0.2,0.5,0.2,0.8
				c0,0.4-0.1,0.7-0.3,0.9s-0.6,0.4-1,0.5c0.2,0.1,0.4,0.3,0.5,0.4s0.3,0.4,0.6,0.8l0.6,1h-1.2l-0.7-1.1c-0.3-0.4-0.4-0.6-0.5-0.7
				s-0.2-0.2-0.3-0.2c-0.1,0-0.3-0.1-0.5-0.1h-0.2v2.1H55.2z M56.2,81.7h0.7c0.5,0,0.8,0,0.9-0.1c0.1,0,0.2-0.1,0.3-0.2
				s0.1-0.2,0.1-0.4c0-0.2,0-0.3-0.1-0.4s-0.2-0.2-0.4-0.2c-0.1,0-0.3,0-0.7,0h-0.8V81.7z"/>
			<path class="st1" d="M60.2,84.6v-5h1v5H60.2z"/>
			<path class="st1" d="M62,82.1c0-0.5,0.1-0.9,0.2-1.3c0.1-0.3,0.3-0.5,0.5-0.7c0.2-0.2,0.4-0.4,0.6-0.5c0.3-0.1,0.7-0.2,1.1-0.2
				c0.7,0,1.3,0.2,1.8,0.7s0.7,1.1,0.7,1.9c0,0.8-0.2,1.4-0.7,1.9s-1,0.7-1.8,0.7c-0.7,0-1.3-0.2-1.8-0.7C62.2,83.5,62,82.9,62,82.1
				z M63,82.1c0,0.6,0.1,1,0.4,1.3c0.3,0.3,0.6,0.4,1,0.4c0.4,0,0.7-0.1,1-0.4c0.3-0.3,0.4-0.7,0.4-1.3c0-0.6-0.1-1-0.4-1.3
				s-0.6-0.4-1-0.4c-0.4,0-0.8,0.1-1,0.4S63,81.5,63,82.1z"/>
		</g>
	</g>
</g>
</svg>
