<!-- Generator: Adobe Illustrator 17.0.0, SVG Export Plug-In  -->
<svg version="1.1"
	 xmlns="http://www.w3.org/2000/svg" xmlns:xlink="http://www.w3.org/1999/xlink" xmlns:a="http://ns.adobe.com/AdobeSVGViewerExtensions/3.0/"
	 x="0px" y="0px" width="371.846px" height="23.41px" viewBox="0 0 371.846 23.41"
	 style="enable-background:new 0 0 371.846 23.41;" xml:space="preserve">
<style type="text/css">
	.st0{fill:#F16529;}
</style>
<defs>
</defs>
<g>
	<path class="st0" d="M0,18.205V0h10.246v1.562H1.639v6.767h6.969V9.89H1.639v6.754h8.607v1.562H0z"/>
	<path class="st0" d="M21.785,14.904c0,0.525-0.105,1.005-0.316,1.441c-0.212,0.436-0.5,0.811-0.863,1.124
		c-0.364,0.313-0.785,0.557-1.264,0.73s-0.979,0.26-1.504,0.26h-1.041c-0.525,0-1.027-0.1-1.505-0.298s-0.897-0.472-1.257-0.819
		s-0.647-0.753-0.863-1.219s-0.324-0.96-0.324-1.485v-0.521l1.563-0.254v0.863c0,0.313,0.064,0.607,0.196,0.882
		s0.307,0.514,0.526,0.717c0.221,0.203,0.475,0.364,0.762,0.482c0.288,0.119,0.589,0.178,0.902,0.178h1.041
		c0.313,0,0.613-0.046,0.9-0.14c0.288-0.093,0.545-0.227,0.769-0.4s0.401-0.383,0.533-0.628s0.196-0.525,0.196-0.838
		c0-0.465-0.102-0.846-0.305-1.143s-0.471-0.544-0.806-0.743s-0.716-0.364-1.143-0.495s-0.865-0.262-1.313-0.394
		c-0.449-0.131-0.887-0.281-1.314-0.451s-0.809-0.392-1.143-0.667s-0.604-0.62-0.807-1.035s-0.305-0.931-0.305-1.549
		c0-0.525,0.102-1.005,0.305-1.441s0.479-0.811,0.826-1.124c0.347-0.313,0.75-0.557,1.212-0.73s0.954-0.26,1.479-0.26h0.914
		c0.524,0,1.02,0.1,1.484,0.298c0.466,0.199,0.872,0.472,1.219,0.819c0.348,0.347,0.621,0.753,0.819,1.219s0.298,0.96,0.298,1.485
		v0.051l-1.561,0.254V8.684c0-0.313-0.06-0.607-0.178-0.882c-0.119-0.275-0.279-0.514-0.482-0.717S18.994,6.72,18.72,6.602
		s-0.569-0.178-0.882-0.178h-0.914c-0.313,0-0.607,0.046-0.883,0.14s-0.514,0.227-0.717,0.4s-0.364,0.383-0.482,0.628
		c-0.119,0.246-0.178,0.525-0.178,0.838c0,0.449,0.102,0.814,0.305,1.098s0.471,0.522,0.806,0.717s0.716,0.357,1.143,0.489
		S17.78,11,18.225,11.14s0.881,0.298,1.308,0.476s0.808,0.406,1.143,0.686s0.603,0.628,0.806,1.047S21.785,14.287,21.785,14.904z"/>
	<path class="st0" d="M29.518,18.205c-0.475,0-0.921-0.089-1.34-0.267s-0.783-0.423-1.092-0.736s-0.555-0.677-0.736-1.092
		s-0.273-0.859-0.273-1.333V6.69H23.74V5.205h2.336V2.082l1.563-0.254v3.377h3.301V6.69h-3.301v8.163
		c0,0.262,0.049,0.506,0.146,0.73s0.23,0.421,0.399,0.59c0.17,0.169,0.369,0.303,0.598,0.4s0.474,0.146,0.736,0.146h1.422v1.485
		H29.518z"/>
	<path class="st0" d="M37.629,6.69c-0.313,0-0.607,0.059-0.882,0.178s-0.515,0.279-0.718,0.482s-0.363,0.442-0.482,0.717
		c-0.118,0.275-0.178,0.569-0.178,0.882v9.255h-1.561v-13h0.52l0.852,1.32c0.355-0.482,0.801-0.865,1.339-1.149
		s1.124-0.425,1.759-0.425h0.914V6.69H37.629z"/>
	<path class="st0" d="M49.436,18.205l-0.863-1.32c-0.355,0.482-0.799,0.865-1.332,1.149s-1.117,0.425-1.752,0.425h-0.395
		c-0.524,0-1.02-0.1-1.484-0.298c-0.466-0.199-0.872-0.472-1.219-0.819c-0.348-0.347-0.621-0.753-0.819-1.219
		s-0.298-0.96-0.298-1.485V5.205h1.561v9.521c0,0.313,0.06,0.607,0.178,0.882c0.119,0.275,0.279,0.514,0.482,0.717
		s0.443,0.364,0.718,0.482s0.569,0.178,0.882,0.178h1.041c0.313,0,0.607-0.059,0.883-0.178s0.514-0.279,0.717-0.482
		s0.364-0.442,0.482-0.717c0.119-0.275,0.178-0.569,0.178-0.882V5.205h1.563v13H49.436z"/>
	<path class="st0" d="M61.465,16.123c-0.199,0.465-0.472,0.872-0.818,1.219c-0.348,0.347-0.754,0.62-1.219,0.819
		c-0.466,0.199-0.961,0.298-1.486,0.298H56.9c-0.524,0-1.02-0.1-1.484-0.298c-0.466-0.199-0.872-0.472-1.219-0.819
		c-0.348-0.347-0.621-0.753-0.819-1.219s-0.298-0.96-0.298-1.485V8.772c0-0.525,0.1-1.02,0.298-1.485s0.472-0.872,0.819-1.219
		c0.347-0.347,0.753-0.62,1.219-0.819c0.465-0.199,0.96-0.298,1.484-0.298h1.041c0.525,0,1.021,0.1,1.486,0.298
		c0.465,0.199,0.871,0.472,1.219,0.819c0.347,0.347,0.619,0.753,0.818,1.219s0.299,0.96,0.299,1.485v0.521l-1.563,0.254V8.684
		c0-0.313-0.059-0.607-0.178-0.882c-0.118-0.275-0.279-0.514-0.482-0.717S59.1,6.72,58.824,6.602s-0.569-0.178-0.883-0.178H56.9
		c-0.313,0-0.607,0.059-0.882,0.178s-0.515,0.279-0.718,0.482s-0.363,0.442-0.482,0.717c-0.118,0.275-0.178,0.569-0.178,0.882v6.043
		c0,0.313,0.06,0.607,0.178,0.882c0.119,0.275,0.279,0.514,0.482,0.717s0.443,0.364,0.718,0.482s0.569,0.178,0.882,0.178h1.041
		c0.313,0,0.607-0.059,0.883-0.178s0.514-0.279,0.717-0.482s0.364-0.442,0.482-0.717c0.119-0.275,0.178-0.569,0.178-0.882v-0.863
		l1.563,0.254v0.521C61.764,15.163,61.664,15.658,61.465,16.123z"/>
	<path class="st0" d="M69.621,18.205c-0.474,0-0.92-0.089-1.339-0.267s-0.782-0.423-1.092-0.736s-0.554-0.677-0.736-1.092
		s-0.272-0.859-0.272-1.333V6.69h-2.336V5.205h2.336V2.082l1.561-0.254v3.377h3.301V6.69h-3.301v8.163
		c0,0.262,0.049,0.506,0.146,0.73s0.23,0.421,0.4,0.59c0.169,0.169,0.367,0.303,0.596,0.4s0.475,0.146,0.736,0.146h1.422v1.485
		H69.621z"/>
	<path class="st0" d="M82.076,18.205l-0.863-1.32c-0.355,0.482-0.801,0.865-1.334,1.149s-1.117,0.425-1.752,0.425h-0.393
		c-0.525,0-1.021-0.1-1.486-0.298c-0.465-0.199-0.871-0.472-1.219-0.819c-0.347-0.347-0.619-0.753-0.818-1.219
		s-0.299-0.96-0.299-1.485V5.205h1.563v9.521c0,0.313,0.059,0.607,0.178,0.882c0.118,0.275,0.279,0.514,0.482,0.717
		s0.441,0.364,0.717,0.482s0.569,0.178,0.883,0.178h1.041c0.313,0,0.607-0.059,0.882-0.178s0.515-0.279,0.718-0.482
		s0.363-0.442,0.482-0.717c0.118-0.275,0.178-0.569,0.178-0.882V5.205h1.561v13H82.076z"/>
	<path class="st0" d="M89.541,6.69c-0.313,0-0.607,0.059-0.883,0.178s-0.514,0.279-0.717,0.482s-0.364,0.442-0.482,0.717
		c-0.119,0.275-0.178,0.569-0.178,0.882v9.255h-1.563v-13h0.521l0.85,1.32c0.355-0.482,0.803-0.865,1.34-1.149
		s1.123-0.425,1.758-0.425h0.914V6.69H89.541z"/>
	<path class="st0" d="M101.348,18.205l-0.863-1.295c-0.355,0.465-0.801,0.84-1.334,1.124s-1.117,0.425-1.752,0.425h-0.393
		c-0.525,0-1.021-0.1-1.486-0.298c-0.465-0.199-0.871-0.472-1.219-0.819c-0.347-0.347-0.619-0.753-0.818-1.219
		s-0.299-0.96-0.299-1.485v-0.127c0-0.525,0.1-1.02,0.299-1.485s0.472-0.872,0.818-1.219c0.348-0.347,0.754-0.62,1.219-0.819
		c0.466-0.199,0.961-0.298,1.486-0.298h3.301V8.684c0-0.313-0.06-0.607-0.178-0.882c-0.119-0.275-0.279-0.514-0.482-0.717
		s-0.443-0.364-0.718-0.482s-0.569-0.178-0.882-0.178h-0.914c-0.313,0-0.607,0.059-0.883,0.178s-0.514,0.279-0.717,0.482
		s-0.364,0.442-0.482,0.717c-0.119,0.275-0.178,0.569-0.178,0.882v0.47l-1.563-0.254V8.772c0-0.525,0.1-1.02,0.299-1.485
		s0.472-0.872,0.818-1.219c0.348-0.347,0.754-0.62,1.219-0.819c0.466-0.199,0.961-0.298,1.486-0.298h0.914
		c0.524,0,1.02,0.1,1.484,0.298c0.466,0.199,0.872,0.472,1.219,0.819c0.348,0.347,0.621,0.753,0.819,1.219s0.298,0.96,0.298,1.485
		v9.433H101.348z M100.307,11.908h-3.301c-0.313,0-0.607,0.059-0.883,0.178s-0.514,0.281-0.717,0.489s-0.364,0.449-0.482,0.724
		c-0.119,0.275-0.178,0.569-0.178,0.882v0.546c0,0.313,0.059,0.607,0.178,0.882c0.118,0.275,0.279,0.514,0.482,0.717
		s0.441,0.364,0.717,0.482s0.569,0.178,0.883,0.178h1.041c0.313,0,0.607-0.059,0.882-0.178s0.515-0.279,0.718-0.482
		s0.363-0.442,0.482-0.717c0.118-0.275,0.178-0.569,0.178-0.882V11.908z"/>
	<path class="st0" d="M119.133,18.205l-0.863-1.32c-0.355,0.482-0.799,0.865-1.332,1.149s-1.117,0.425-1.752,0.425h-0.395
		c-0.524,0-1.02-0.1-1.484-0.298c-0.466-0.199-0.872-0.472-1.219-0.819c-0.348-0.347-0.621-0.753-0.819-1.219
		s-0.298-0.96-0.298-1.485V8.772c0-0.525,0.1-1.02,0.298-1.485s0.472-0.872,0.819-1.219c0.347-0.347,0.753-0.62,1.219-0.819
		c0.465-0.199,0.96-0.298,1.484-0.298h0.395c0.584,0,1.125,0.119,1.625,0.355c0.499,0.237,0.926,0.567,1.281,0.99V0h1.563v18.205
		H119.133z M118.092,8.684c0-0.313-0.059-0.607-0.178-0.882c-0.118-0.275-0.279-0.514-0.482-0.717s-0.441-0.364-0.717-0.482
		s-0.569-0.178-0.883-0.178h-1.041c-0.313,0-0.607,0.059-0.882,0.178s-0.515,0.279-0.718,0.482s-0.363,0.442-0.482,0.717
		c-0.118,0.275-0.178,0.569-0.178,0.882v6.043c0,0.313,0.06,0.607,0.178,0.882c0.119,0.275,0.279,0.514,0.482,0.717
		s0.443,0.364,0.718,0.482s0.569,0.178,0.882,0.178h1.041c0.313,0,0.607-0.059,0.883-0.178s0.514-0.279,0.717-0.482
		s0.364-0.442,0.482-0.717c0.119-0.275,0.178-0.569,0.178-0.882V8.684z"/>
	<path class="st0" d="M131.162,16.123c-0.199,0.465-0.472,0.872-0.818,1.219c-0.348,0.347-0.754,0.62-1.219,0.819
		c-0.466,0.199-0.961,0.298-1.486,0.298h-1.041c-0.524,0-1.02-0.1-1.484-0.298c-0.466-0.199-0.872-0.472-1.219-0.819
		c-0.348-0.347-0.621-0.753-0.819-1.219s-0.298-0.96-0.298-1.485V8.772c0-0.525,0.1-1.02,0.298-1.485s0.472-0.872,0.819-1.219
		c0.347-0.347,0.753-0.62,1.219-0.819c0.465-0.199,0.96-0.298,1.484-0.298h1.041c0.525,0,1.021,0.1,1.486,0.298
		c0.465,0.199,0.871,0.472,1.219,0.819c0.347,0.347,0.619,0.753,0.818,1.219s0.299,0.96,0.299,1.485v3.06h-7.123v2.895
		c0,0.313,0.06,0.607,0.178,0.882c0.119,0.275,0.279,0.514,0.482,0.717s0.443,0.364,0.718,0.482s0.569,0.178,0.882,0.178h1.041
		c0.313,0,0.607-0.059,0.883-0.178s0.514-0.279,0.717-0.482s0.364-0.442,0.482-0.717c0.119-0.275,0.178-0.569,0.178-0.882v-0.863
		l1.563,0.254v0.521C131.461,15.163,131.361,15.658,131.162,16.123z M129.898,8.684c0-0.313-0.059-0.607-0.178-0.882
		c-0.118-0.275-0.279-0.514-0.482-0.717s-0.441-0.364-0.717-0.482s-0.569-0.178-0.883-0.178h-1.041
		c-0.313,0-0.607,0.059-0.882,0.178s-0.515,0.279-0.718,0.482s-0.363,0.442-0.482,0.717c-0.118,0.275-0.178,0.569-0.178,0.882v1.93
		h5.561V8.684z"/>
	<path class="st0" d="M148.727,18.205l-0.863-1.32c-0.355,0.482-0.801,0.865-1.334,1.149s-1.117,0.425-1.752,0.425h-0.393
		c-0.525,0-1.021-0.1-1.486-0.298c-0.465-0.199-0.871-0.472-1.219-0.819c-0.347-0.347-0.619-0.753-0.818-1.219
		s-0.299-0.96-0.299-1.485V5.205h1.563v9.521c0,0.313,0.059,0.607,0.178,0.882c0.118,0.275,0.279,0.514,0.482,0.717
		s0.441,0.364,0.717,0.482s0.569,0.178,0.883,0.178h1.041c0.313,0,0.607-0.059,0.882-0.178s0.515-0.279,0.718-0.482
		s0.363-0.442,0.482-0.717c0.118-0.275,0.178-0.569,0.178-0.882V5.205h1.561v13H148.727z"/>
	<path class="st0" d="M159.492,18.205V8.684c0-0.313-0.06-0.607-0.178-0.882c-0.119-0.275-0.279-0.514-0.482-0.717
		s-0.443-0.364-0.718-0.482s-0.569-0.178-0.882-0.178h-1.041c-0.313,0-0.607,0.059-0.883,0.178s-0.514,0.279-0.717,0.482
		s-0.364,0.442-0.482,0.717c-0.119,0.275-0.178,0.569-0.178,0.882v9.521h-1.563v-13h0.521l0.85,1.32
		c0.355-0.482,0.803-0.865,1.34-1.149s1.123-0.425,1.758-0.425h0.395c0.524,0,1.02,0.1,1.484,0.298
		c0.466,0.199,0.872,0.472,1.219,0.819c0.348,0.347,0.621,0.753,0.819,1.219s0.298,0.96,0.298,1.485v9.433H159.492z"/>
	<path class="st0" d="M178.541,16.123c-0.199,0.465-0.472,0.872-0.818,1.219c-0.348,0.347-0.754,0.62-1.219,0.819
		c-0.466,0.199-0.961,0.298-1.486,0.298h-1.041c-0.524,0-1.02-0.1-1.484-0.298c-0.466-0.199-0.872-0.472-1.219-0.819
		c-0.348-0.347-0.621-0.753-0.819-1.219s-0.298-0.96-0.298-1.485V0h1.561v6.297c0.355-0.423,0.783-0.753,1.283-0.99
		c0.499-0.237,1.041-0.355,1.625-0.355h0.393c0.525,0,1.021,0.1,1.486,0.298c0.465,0.199,0.871,0.472,1.219,0.819
		c0.347,0.347,0.619,0.753,0.818,1.219s0.299,0.96,0.299,1.485v5.865C178.84,15.163,178.74,15.658,178.541,16.123z M177.277,8.684
		c0-0.313-0.059-0.607-0.178-0.882c-0.118-0.275-0.279-0.514-0.482-0.717s-0.441-0.364-0.717-0.482s-0.569-0.178-0.883-0.178h-1.041
		c-0.313,0-0.607,0.059-0.882,0.178s-0.515,0.279-0.718,0.482s-0.363,0.442-0.482,0.717c-0.118,0.275-0.178,0.569-0.178,0.882v6.043
		c0,0.313,0.06,0.607,0.178,0.882c0.119,0.275,0.279,0.514,0.482,0.717s0.443,0.364,0.718,0.482s0.569,0.178,0.882,0.178h1.041
		c0.313,0,0.607-0.059,0.883-0.178s0.514-0.279,0.717-0.482s0.364-0.442,0.482-0.717c0.119-0.275,0.178-0.569,0.178-0.882V8.684z"/>
	<path class="st0" d="M185.783,6.69c-0.313,0-0.607,0.059-0.882,0.178s-0.515,0.279-0.718,0.482s-0.363,0.442-0.482,0.717
		c-0.118,0.275-0.178,0.569-0.178,0.882v9.255h-1.561v-13h0.52l0.852,1.32c0.355-0.482,0.801-0.865,1.339-1.149
		s1.124-0.425,1.759-0.425h0.914V6.69H185.783z"/>
	<path class="st0" d="M197.813,16.123c-0.199,0.465-0.472,0.872-0.818,1.219c-0.348,0.347-0.754,0.62-1.219,0.819
		c-0.466,0.199-0.961,0.298-1.486,0.298h-1.041c-0.524,0-1.02-0.1-1.484-0.298c-0.466-0.199-0.872-0.472-1.219-0.819
		c-0.348-0.347-0.621-0.753-0.819-1.219s-0.298-0.96-0.298-1.485V8.772c0-0.525,0.1-1.02,0.298-1.485s0.472-0.872,0.819-1.219
		c0.347-0.347,0.753-0.62,1.219-0.819c0.465-0.199,0.96-0.298,1.484-0.298h1.041c0.525,0,1.021,0.1,1.486,0.298
		c0.465,0.199,0.871,0.472,1.219,0.819c0.347,0.347,0.619,0.753,0.818,1.219s0.299,0.96,0.299,1.485v5.865
		C198.111,15.163,198.012,15.658,197.813,16.123z M196.549,8.684c0-0.313-0.059-0.607-0.178-0.882
		c-0.118-0.275-0.279-0.514-0.482-0.717s-0.441-0.364-0.717-0.482s-0.569-0.178-0.883-0.178h-1.041
		c-0.313,0-0.607,0.059-0.882,0.178s-0.515,0.279-0.718,0.482s-0.363,0.442-0.482,0.717c-0.118,0.275-0.178,0.569-0.178,0.882v6.043
		c0,0.313,0.06,0.607,0.178,0.882c0.119,0.275,0.279,0.514,0.482,0.717s0.443,0.364,0.718,0.482s0.569,0.178,0.882,0.178h1.041
		c0.313,0,0.607-0.059,0.883-0.178s0.514-0.279,0.717-0.482s0.364-0.442,0.482-0.717c0.119-0.275,0.178-0.569,0.178-0.882V8.684z"/>
	<path class="st0" d="M212.178,18.205h-0.852l-3.047-9.801l-0.051-0.673l-0.051,0.673l-3.047,9.801h-0.863l-4.342-13h1.588
		l3.098,9.826l0.051,0.673l0.051-0.673l3.047-9.826h0.939l3.033,9.826l0.051,0.673l0.051-0.673l3.098-9.826h1.588L212.178,18.205z"
		/>
	<path class="st0" d="M227.285,14.904c0,0.525-0.106,1.005-0.318,1.441c-0.211,0.436-0.499,0.811-0.863,1.124
		c-0.363,0.313-0.785,0.557-1.263,0.73s-0.979,0.26-1.505,0.26h-1.041c-0.524,0-1.025-0.1-1.504-0.298s-0.896-0.472-1.257-0.819
		s-0.647-0.753-0.863-1.219s-0.323-0.96-0.323-1.485v-0.521l1.561-0.254v0.863c0,0.313,0.066,0.607,0.197,0.882
		s0.307,0.514,0.527,0.717c0.22,0.203,0.474,0.364,0.762,0.482c0.287,0.119,0.588,0.178,0.9,0.178h1.041
		c0.313,0,0.614-0.046,0.902-0.14c0.287-0.093,0.543-0.227,0.768-0.4s0.402-0.383,0.533-0.628s0.197-0.525,0.197-0.838
		c0-0.465-0.102-0.846-0.305-1.143s-0.473-0.544-0.807-0.743s-0.715-0.364-1.143-0.495s-0.865-0.262-1.314-0.394
		c-0.448-0.131-0.887-0.281-1.313-0.451s-0.808-0.392-1.143-0.667s-0.603-0.62-0.806-1.035s-0.305-0.931-0.305-1.549
		c0-0.525,0.102-1.005,0.305-1.441s0.478-0.811,0.824-1.124c0.348-0.313,0.752-0.557,1.213-0.73s0.954-0.26,1.479-0.26h0.914
		c0.525,0,1.021,0.1,1.486,0.298c0.465,0.199,0.871,0.472,1.219,0.819c0.347,0.347,0.619,0.753,0.818,1.219s0.299,0.96,0.299,1.485
		v0.051l-1.563,0.254V8.684c0-0.313-0.059-0.607-0.178-0.882c-0.118-0.275-0.279-0.514-0.482-0.717s-0.441-0.364-0.717-0.482
		s-0.569-0.178-0.883-0.178h-0.914c-0.313,0-0.607,0.046-0.882,0.14s-0.515,0.227-0.718,0.4s-0.363,0.383-0.482,0.628
		c-0.118,0.246-0.178,0.525-0.178,0.838c0,0.449,0.102,0.814,0.305,1.098s0.473,0.522,0.807,0.717s0.715,0.357,1.143,0.489
		s0.863,0.267,1.308,0.406s0.88,0.298,1.308,0.476s0.809,0.406,1.143,0.686s0.604,0.628,0.807,1.047S227.285,14.287,227.285,14.904z
		"/>
	<path class="st0" d="M238.666,16.123c-0.199,0.465-0.472,0.872-0.818,1.219c-0.348,0.347-0.754,0.62-1.219,0.819
		c-0.466,0.199-0.961,0.298-1.486,0.298h-1.041c-0.524,0-1.02-0.1-1.484-0.298c-0.466-0.199-0.872-0.472-1.219-0.819
		c-0.348-0.347-0.621-0.753-0.819-1.219s-0.298-0.96-0.298-1.485V8.772c0-0.525,0.1-1.02,0.298-1.485s0.472-0.872,0.819-1.219
		c0.347-0.347,0.753-0.62,1.219-0.819c0.465-0.199,0.96-0.298,1.484-0.298h1.041c0.525,0,1.021,0.1,1.486,0.298
		c0.465,0.199,0.871,0.472,1.219,0.819c0.347,0.347,0.619,0.753,0.818,1.219s0.299,0.96,0.299,1.485v3.06h-7.123v2.895
		c0,0.313,0.06,0.607,0.178,0.882c0.119,0.275,0.279,0.514,0.482,0.717s0.443,0.364,0.718,0.482s0.569,0.178,0.882,0.178h1.041
		c0.313,0,0.607-0.059,0.883-0.178s0.514-0.279,0.717-0.482s0.364-0.442,0.482-0.717c0.119-0.275,0.178-0.569,0.178-0.882v-0.863
		l1.563,0.254v0.521C238.965,15.163,238.865,15.658,238.666,16.123z M237.402,8.684c0-0.313-0.059-0.607-0.178-0.882
		c-0.118-0.275-0.279-0.514-0.482-0.717s-0.441-0.364-0.717-0.482s-0.569-0.178-0.883-0.178h-1.041
		c-0.313,0-0.607,0.059-0.882,0.178s-0.515,0.279-0.718,0.482s-0.363,0.442-0.482,0.717c-0.118,0.275-0.178,0.569-0.178,0.882v1.93
		h5.561V8.684z"/>
	<path class="st0" d="M245.908,6.69c-0.313,0-0.607,0.059-0.882,0.178s-0.515,0.279-0.718,0.482s-0.363,0.442-0.482,0.717
		c-0.118,0.275-0.178,0.569-0.178,0.882v9.255h-1.561v-13h0.52l0.852,1.32c0.355-0.482,0.801-0.865,1.339-1.149
		s1.124-0.425,1.759-0.425h0.914V6.69H245.908z"/>
	<path class="st0" d="M263.917,16.123c-0.198,0.465-0.472,0.872-0.819,1.219c-0.347,0.347-0.753,0.62-1.219,0.819
		c-0.465,0.199-0.96,0.298-1.484,0.298h-1.041c-0.525,0-1.021-0.1-1.486-0.298c-0.465-0.199-0.871-0.472-1.219-0.819
		c-0.347-0.347-0.619-0.753-0.818-1.219s-0.299-0.96-0.299-1.485V8.772c0-0.525,0.1-1.02,0.299-1.485s0.472-0.872,0.818-1.219
		c0.348-0.347,0.754-0.62,1.219-0.819c0.466-0.199,0.961-0.298,1.486-0.298h1.041c0.524,0,1.02,0.1,1.484,0.298
		c0.466,0.199,0.872,0.472,1.219,0.819c0.348,0.347,0.621,0.753,0.819,1.219s0.298,0.96,0.298,1.485v5.865
		C264.215,15.163,264.115,15.658,263.917,16.123z M262.654,8.684c0-0.313-0.06-0.607-0.178-0.882
		c-0.119-0.275-0.279-0.514-0.482-0.717s-0.443-0.364-0.718-0.482s-0.569-0.178-0.882-0.178h-1.041
		c-0.313,0-0.607,0.059-0.883,0.178s-0.514,0.279-0.717,0.482s-0.364,0.442-0.482,0.717c-0.119,0.275-0.178,0.569-0.178,0.882v6.043
		c0,0.313,0.059,0.607,0.178,0.882c0.118,0.275,0.279,0.514,0.482,0.717s0.441,0.364,0.717,0.482s0.569,0.178,0.883,0.178h1.041
		c0.313,0,0.607-0.059,0.882-0.178s0.515-0.279,0.718-0.482s0.363-0.442,0.482-0.717c0.118-0.275,0.178-0.569,0.178-0.882V8.684z"/>
	<path class="st0" d="M280.439,18.205V8.684c0-0.313-0.059-0.607-0.178-0.882c-0.118-0.275-0.279-0.514-0.482-0.717
		s-0.441-0.364-0.717-0.482s-0.569-0.178-0.883-0.178h-1.041c-0.313,0-0.607,0.059-0.882,0.178s-0.515,0.279-0.718,0.482
		s-0.363,0.442-0.482,0.717c-0.118,0.275-0.178,0.569-0.178,0.882v9.521h-1.561v-13h0.52l0.852,1.32
		c0.355-0.482,0.801-0.865,1.339-1.149s1.124-0.425,1.759-0.425h0.393c0.525,0,1.021,0.1,1.486,0.298
		c0.465,0.199,0.871,0.472,1.219,0.819c0.347,0.347,0.619,0.753,0.818,1.219s0.299,0.96,0.299,1.485v9.433H280.439z"/>
	<path class="st0" d="M293.287,18.205l-0.863-1.295c-0.355,0.465-0.799,0.84-1.332,1.124s-1.117,0.425-1.752,0.425h-0.395
		c-0.524,0-1.02-0.1-1.484-0.298c-0.466-0.199-0.872-0.472-1.219-0.819c-0.348-0.347-0.621-0.753-0.819-1.219
		s-0.298-0.96-0.298-1.485v-0.127c0-0.525,0.1-1.02,0.298-1.485s0.472-0.872,0.819-1.219c0.347-0.347,0.753-0.62,1.219-0.819
		c0.465-0.199,0.96-0.298,1.484-0.298h3.301V8.684c0-0.313-0.059-0.607-0.178-0.882c-0.118-0.275-0.279-0.514-0.482-0.717
		s-0.441-0.364-0.717-0.482s-0.569-0.178-0.883-0.178h-0.914c-0.313,0-0.607,0.059-0.882,0.178s-0.515,0.279-0.718,0.482
		s-0.363,0.442-0.482,0.717c-0.118,0.275-0.178,0.569-0.178,0.882v0.47l-1.561-0.254V8.772c0-0.525,0.1-1.02,0.298-1.485
		s0.472-0.872,0.819-1.219c0.347-0.347,0.753-0.62,1.219-0.819c0.465-0.199,0.96-0.298,1.484-0.298h0.914
		c0.525,0,1.021,0.1,1.486,0.298c0.465,0.199,0.871,0.472,1.219,0.819c0.347,0.347,0.619,0.753,0.818,1.219s0.299,0.96,0.299,1.485
		v9.433H293.287z M292.246,11.908h-3.301c-0.313,0-0.607,0.059-0.882,0.178s-0.515,0.281-0.718,0.489s-0.363,0.449-0.482,0.724
		c-0.118,0.275-0.178,0.569-0.178,0.882v0.546c0,0.313,0.06,0.607,0.178,0.882c0.119,0.275,0.279,0.514,0.482,0.717
		s0.443,0.364,0.718,0.482s0.569,0.178,0.882,0.178h1.041c0.313,0,0.607-0.059,0.883-0.178s0.514-0.279,0.717-0.482
		s0.364-0.442,0.482-0.717c0.119-0.275,0.178-0.569,0.178-0.882V11.908z"/>
	<path class="st0" d="M301.006,18.205h-0.773l-4.609-13h1.563l3.389,9.852l0.051,0.673l0.051-0.673l3.377-9.852h1.563
		L301.006,18.205z"/>
	<path class="st0" d="M315.815,16.123c-0.198,0.465-0.472,0.872-0.819,1.219c-0.347,0.347-0.753,0.62-1.219,0.819
		c-0.465,0.199-0.96,0.298-1.484,0.298h-1.041c-0.525,0-1.021-0.1-1.486-0.298c-0.465-0.199-0.871-0.472-1.219-0.819
		c-0.347-0.347-0.619-0.753-0.818-1.219s-0.299-0.96-0.299-1.485V8.772c0-0.525,0.1-1.02,0.299-1.485s0.472-0.872,0.818-1.219
		c0.348-0.347,0.754-0.62,1.219-0.819c0.466-0.199,0.961-0.298,1.486-0.298h1.041c0.524,0,1.02,0.1,1.484,0.298
		c0.466,0.199,0.872,0.472,1.219,0.819c0.348,0.347,0.621,0.753,0.819,1.219s0.298,0.96,0.298,1.485v3.06h-7.121v2.895
		c0,0.313,0.059,0.607,0.178,0.882c0.118,0.275,0.279,0.514,0.482,0.717s0.441,0.364,0.717,0.482s0.569,0.178,0.883,0.178h1.041
		c0.313,0,0.607-0.059,0.882-0.178s0.515-0.279,0.718-0.482s0.363-0.442,0.482-0.717c0.118-0.275,0.178-0.569,0.178-0.882v-0.863
		l1.561,0.254v0.521C316.113,15.163,316.014,15.658,315.815,16.123z M314.553,8.684c0-0.313-0.06-0.607-0.178-0.882
		c-0.119-0.275-0.279-0.514-0.482-0.717s-0.443-0.364-0.718-0.482s-0.569-0.178-0.882-0.178h-1.041
		c-0.313,0-0.607,0.059-0.883,0.178s-0.514,0.279-0.717,0.482s-0.364,0.442-0.482,0.717c-0.119,0.275-0.178,0.569-0.178,0.882v1.93
		h5.561V8.684z"/>
	<path class="st0" d="M327.75,21.29c-0.199,0.44-0.473,0.817-0.82,1.13c-0.346,0.313-0.752,0.557-1.219,0.73
		c-0.465,0.173-0.961,0.26-1.484,0.26h-0.648c-0.524,0-1.02-0.087-1.484-0.26c-0.466-0.173-0.872-0.417-1.219-0.73
		c-0.348-0.313-0.621-0.69-0.819-1.13s-0.298-0.922-0.298-1.447v-0.051c0-0.508,0.093-0.973,0.279-1.396
		c0.186-0.423,0.439-0.792,0.762-1.104c-0.406-0.246-0.73-0.578-0.972-0.997s-0.362-0.882-0.362-1.39
		c0-0.457,0.098-0.882,0.293-1.276c0.194-0.394,0.461-0.713,0.799-0.958c-0.406-0.355-0.728-0.783-0.965-1.282
		c-0.236-0.5-0.355-1.045-0.355-1.638V8.772c0-0.525,0.1-1.02,0.299-1.485s0.472-0.872,0.818-1.219
		c0.348-0.347,0.754-0.62,1.219-0.819c0.466-0.199,0.961-0.298,1.486-0.298h0.646c0.635,0,1.221,0.142,1.76,0.425
		c0.537,0.284,0.982,0.667,1.338,1.149l0.852-1.32h0.52V9.75c0,0.525-0.1,1.02-0.297,1.485c-0.199,0.465-0.473,0.872-0.82,1.219
		c-0.346,0.347-0.752,0.62-1.219,0.819c-0.465,0.199-0.961,0.298-1.484,0.298h-2.26c-0.178,0-0.348,0.036-0.508,0.108
		c-0.161,0.072-0.303,0.167-0.426,0.286s-0.218,0.26-0.285,0.425c-0.068,0.165-0.102,0.336-0.102,0.514s0.033,0.347,0.102,0.508
		c0.067,0.161,0.162,0.303,0.285,0.425s0.265,0.218,0.426,0.286c0.16,0.068,0.33,0.102,0.508,0.102h2.133
		c0.523,0,1.02,0.087,1.484,0.26c0.467,0.173,0.873,0.417,1.219,0.73c0.348,0.313,0.621,0.69,0.82,1.13
		c0.197,0.44,0.297,0.922,0.297,1.447v0.051C328.047,20.368,327.947,20.85,327.75,21.29z M326.625,8.684
		c0-0.313-0.059-0.607-0.178-0.882c-0.117-0.275-0.281-0.514-0.488-0.717s-0.449-0.364-0.723-0.482
		c-0.275-0.119-0.57-0.178-0.883-0.178h-1.295c-0.313,0-0.607,0.059-0.883,0.178s-0.514,0.279-0.717,0.482s-0.364,0.442-0.482,0.717
		c-0.119,0.275-0.178,0.569-0.178,0.882v1.155c0,0.313,0.059,0.607,0.178,0.882c0.118,0.275,0.279,0.514,0.482,0.717
		s0.441,0.364,0.717,0.482s0.569,0.178,0.883,0.178h1.295c0.313,0,0.607-0.059,0.883-0.178c0.273-0.119,0.516-0.279,0.723-0.482
		s0.371-0.442,0.488-0.717c0.119-0.275,0.178-0.569,0.178-0.882V8.684z M326.563,19.716c0-0.313-0.061-0.595-0.178-0.844
		c-0.119-0.25-0.279-0.459-0.482-0.628s-0.443-0.3-0.717-0.394c-0.275-0.093-0.57-0.14-0.883-0.14h-0.801
		c-0.313,0-0.607,0.046-0.882,0.14s-0.515,0.224-0.718,0.394s-0.363,0.379-0.482,0.628c-0.118,0.25-0.178,0.531-0.178,0.844v0.203
		c0,0.313,0.06,0.592,0.178,0.838c0.119,0.246,0.279,0.455,0.482,0.628s0.443,0.307,0.718,0.4s0.569,0.14,0.882,0.14h0.801
		c0.313,0,0.607-0.046,0.883-0.14c0.273-0.093,0.514-0.227,0.717-0.4s0.363-0.383,0.482-0.628c0.117-0.246,0.178-0.525,0.178-0.838
		V19.716z"/>
	<path class="st0" d="M339.207,18.205l-0.863-1.295c-0.355,0.465-0.801,0.84-1.334,1.124s-1.117,0.425-1.752,0.425h-0.393
		c-0.525,0-1.02-0.1-1.486-0.298c-0.465-0.199-0.871-0.472-1.219-0.819c-0.346-0.347-0.619-0.753-0.818-1.219
		s-0.299-0.96-0.299-1.485v-0.127c0-0.525,0.1-1.02,0.299-1.485s0.473-0.872,0.818-1.219c0.348-0.347,0.754-0.62,1.219-0.819
		c0.467-0.199,0.961-0.298,1.486-0.298h3.301V8.684c0-0.313-0.061-0.607-0.178-0.882c-0.119-0.275-0.279-0.514-0.482-0.717
		s-0.443-0.364-0.717-0.482c-0.275-0.119-0.57-0.178-0.883-0.178h-0.914c-0.314,0-0.607,0.059-0.883,0.178s-0.514,0.279-0.717,0.482
		s-0.365,0.442-0.482,0.717c-0.119,0.275-0.178,0.569-0.178,0.882v0.47l-1.563-0.254V8.772c0-0.525,0.1-1.02,0.299-1.485
		s0.473-0.872,0.818-1.219c0.348-0.347,0.754-0.62,1.219-0.819c0.467-0.199,0.961-0.298,1.486-0.298h0.914
		c0.523,0,1.02,0.1,1.484,0.298c0.467,0.199,0.873,0.472,1.219,0.819c0.348,0.347,0.621,0.753,0.82,1.219
		c0.197,0.465,0.297,0.96,0.297,1.485v9.433H339.207z M338.166,11.908h-3.301c-0.314,0-0.607,0.059-0.883,0.178
		s-0.514,0.281-0.717,0.489s-0.365,0.449-0.482,0.724c-0.119,0.275-0.178,0.569-0.178,0.882v0.546c0,0.313,0.059,0.607,0.178,0.882
		c0.117,0.275,0.279,0.514,0.482,0.717s0.441,0.364,0.717,0.482s0.568,0.178,0.883,0.178h1.041c0.313,0,0.607-0.059,0.883-0.178
		c0.273-0.119,0.514-0.279,0.717-0.482s0.363-0.442,0.482-0.717c0.117-0.275,0.178-0.569,0.178-0.882V11.908z"/>
	<path class="st0" d="M351.014,18.205l-0.863-1.32c-0.355,0.482-0.801,0.865-1.334,1.149s-1.117,0.425-1.752,0.425h-0.393
		c-0.525,0-1.02-0.1-1.486-0.298c-0.465-0.199-0.871-0.472-1.219-0.819c-0.346-0.347-0.619-0.753-0.818-1.219
		s-0.299-0.96-0.299-1.485V8.772c0-0.525,0.1-1.02,0.299-1.485s0.473-0.872,0.818-1.219c0.348-0.347,0.754-0.62,1.219-0.819
		c0.467-0.199,0.961-0.298,1.486-0.298h0.393c0.584,0,1.127,0.119,1.625,0.355c0.5,0.237,0.928,0.567,1.283,0.99V0h1.561v18.205
		H351.014z M349.973,8.684c0-0.313-0.061-0.607-0.178-0.882c-0.119-0.275-0.279-0.514-0.482-0.717s-0.443-0.364-0.717-0.482
		c-0.275-0.119-0.57-0.178-0.883-0.178h-1.041c-0.314,0-0.607,0.059-0.883,0.178s-0.514,0.279-0.717,0.482s-0.365,0.442-0.482,0.717
		c-0.119,0.275-0.178,0.569-0.178,0.882v6.043c0,0.313,0.059,0.607,0.178,0.882c0.117,0.275,0.279,0.514,0.482,0.717
		s0.441,0.364,0.717,0.482s0.568,0.178,0.883,0.178h1.041c0.313,0,0.607-0.059,0.883-0.178c0.273-0.119,0.514-0.279,0.717-0.482
		s0.363-0.442,0.482-0.717c0.117-0.275,0.178-0.569,0.178-0.882V8.684z"/>
	<path class="st0" d="M363.043,16.123c-0.199,0.465-0.473,0.872-0.82,1.219c-0.346,0.347-0.752,0.62-1.219,0.819
		c-0.465,0.199-0.961,0.298-1.484,0.298h-1.041c-0.525,0-1.02-0.1-1.486-0.298c-0.465-0.199-0.871-0.472-1.219-0.819
		c-0.346-0.347-0.619-0.753-0.818-1.219s-0.299-0.96-0.299-1.485V8.772c0-0.525,0.1-1.02,0.299-1.485s0.473-0.872,0.818-1.219
		c0.348-0.347,0.754-0.62,1.219-0.819c0.467-0.199,0.961-0.298,1.486-0.298h1.041c0.523,0,1.02,0.1,1.484,0.298
		c0.467,0.199,0.873,0.472,1.219,0.819c0.348,0.347,0.621,0.753,0.82,1.219c0.197,0.465,0.297,0.96,0.297,1.485v5.865
		C363.34,15.163,363.24,15.658,363.043,16.123z M361.779,8.684c0-0.313-0.061-0.607-0.178-0.882
		c-0.119-0.275-0.279-0.514-0.482-0.717s-0.443-0.364-0.717-0.482c-0.275-0.119-0.57-0.178-0.883-0.178h-1.041
		c-0.314,0-0.607,0.059-0.883,0.178s-0.514,0.279-0.717,0.482s-0.365,0.442-0.482,0.717c-0.119,0.275-0.178,0.569-0.178,0.882v6.043
		c0,0.313,0.059,0.607,0.178,0.882c0.117,0.275,0.279,0.514,0.482,0.717s0.441,0.364,0.717,0.482s0.568,0.178,0.883,0.178h1.041
		c0.313,0,0.607-0.059,0.883-0.178c0.273-0.119,0.514-0.279,0.717-0.482s0.363-0.442,0.482-0.717
		c0.117-0.275,0.178-0.569,0.178-0.882V8.684z"/>
	<path class="st0" d="M370.285,6.69c-0.314,0-0.607,0.059-0.883,0.178s-0.514,0.279-0.717,0.482s-0.365,0.442-0.482,0.717
		c-0.119,0.275-0.178,0.569-0.178,0.882v9.255h-1.563v-13h0.521l0.85,1.32c0.355-0.482,0.803-0.865,1.34-1.149
		s1.123-0.425,1.758-0.425h0.914V6.69H370.285z"/>
</g>
</svg>