<!-- Generator: Adobe Illustrator 17.0.0, SVG Export Plug-In  -->
<svg version="1.1"
	 xmlns="http://www.w3.org/2000/svg" xmlns:xlink="http://www.w3.org/1999/xlink" xmlns:a="http://ns.adobe.com/AdobeSVGViewerExtensions/3.0/"
	 x="0px" y="0px" width="298.682px" height="18.459px" viewBox="0 0 298.682 18.459"
	 style="enable-background:new 0 0 298.682 18.459;" xml:space="preserve">
<style type="text/css">
	.st0{fill:#F16529;}
</style>
<defs>
</defs>
<g>
	<path class="st0" d="M0,18.205V0h10.244v1.562H1.637v6.767h6.971V9.89H1.637v6.754h8.607v1.562H0z"/>
	<path class="st0" d="M21.785,14.904c0,0.524-0.106,1.005-0.318,1.44c-0.211,0.437-0.499,0.811-0.863,1.124
		c-0.363,0.313-0.785,0.557-1.263,0.729c-0.478,0.174-0.979,0.261-1.505,0.261h-1.041c-0.524,0-1.025-0.1-1.504-0.298
		c-0.479-0.199-0.896-0.473-1.257-0.819s-0.647-0.753-0.863-1.219s-0.323-0.96-0.323-1.485v-0.521l1.561-0.254v0.863
		c0,0.313,0.066,0.607,0.197,0.882c0.131,0.275,0.307,0.515,0.527,0.718c0.22,0.203,0.474,0.364,0.762,0.482
		c0.287,0.118,0.588,0.178,0.9,0.178h1.041c0.313,0,0.614-0.046,0.902-0.14c0.287-0.094,0.543-0.227,0.768-0.4
		c0.225-0.173,0.402-0.383,0.533-0.628s0.197-0.524,0.197-0.838c0-0.466-0.102-0.847-0.305-1.143s-0.473-0.544-0.807-0.743
		c-0.334-0.198-0.715-0.363-1.143-0.494c-0.428-0.132-0.865-0.263-1.314-0.395c-0.448-0.131-0.887-0.281-1.313-0.45
		s-0.808-0.392-1.143-0.667c-0.335-0.274-0.603-0.619-0.806-1.034s-0.305-0.931-0.305-1.549c0-0.524,0.102-1.005,0.305-1.44
		c0.203-0.437,0.478-0.811,0.824-1.124c0.348-0.313,0.752-0.557,1.213-0.729c0.461-0.174,0.954-0.261,1.479-0.261h0.914
		c0.525,0,1.021,0.1,1.486,0.298c0.465,0.199,0.871,0.473,1.219,0.819c0.347,0.347,0.619,0.753,0.818,1.219s0.299,0.96,0.299,1.485
		v0.051l-1.563,0.254V8.684c0-0.313-0.059-0.607-0.178-0.882c-0.118-0.275-0.279-0.515-0.482-0.718s-0.441-0.364-0.717-0.482
		s-0.569-0.178-0.883-0.178h-0.914c-0.313,0-0.607,0.046-0.882,0.14s-0.515,0.227-0.718,0.4c-0.203,0.173-0.363,0.383-0.482,0.628
		c-0.118,0.245-0.178,0.524-0.178,0.838c0,0.448,0.102,0.814,0.305,1.099c0.203,0.283,0.473,0.521,0.807,0.717
		s0.715,0.357,1.143,0.488c0.428,0.132,0.863,0.268,1.308,0.406c0.444,0.141,0.88,0.299,1.308,0.477s0.809,0.406,1.143,0.686
		s0.604,0.629,0.807,1.047C21.684,13.769,21.785,14.286,21.785,14.904z"/>
	<path class="st0" d="M29.516,18.205c-0.474,0-0.92-0.089-1.339-0.267s-0.782-0.424-1.092-0.736s-0.554-0.678-0.736-1.092
		s-0.272-0.859-0.272-1.333V6.69H23.74V5.205h2.336V2.082l1.561-0.254v3.377h3.301V6.69h-3.301v8.163
		c0,0.263,0.049,0.506,0.146,0.729c0.098,0.225,0.23,0.422,0.4,0.591c0.169,0.169,0.367,0.303,0.596,0.399
		c0.229,0.098,0.475,0.146,0.736,0.146h1.422v1.485H29.516z"/>
	<path class="st0" d="M37.629,6.69c-0.313,0-0.607,0.059-0.883,0.178s-0.514,0.279-0.717,0.482s-0.364,0.442-0.482,0.717
		c-0.119,0.275-0.178,0.57-0.178,0.883v9.255h-1.563v-13h0.521l0.85,1.32c0.355-0.482,0.803-0.865,1.34-1.149
		c0.537-0.283,1.123-0.425,1.758-0.425h0.914V6.69H37.629z"/>
	<path class="st0" d="M49.436,18.205l-0.863-1.32c-0.355,0.482-0.801,0.865-1.334,1.149c-0.533,0.283-1.117,0.425-1.752,0.425
		h-0.393c-0.525,0-1.021-0.1-1.486-0.298c-0.465-0.199-0.871-0.473-1.219-0.819c-0.347-0.347-0.619-0.753-0.818-1.219
		s-0.299-0.96-0.299-1.485V5.205h1.563v9.521c0,0.313,0.059,0.607,0.178,0.882c0.118,0.275,0.279,0.515,0.482,0.718
		s0.441,0.364,0.717,0.482s0.569,0.178,0.883,0.178h1.041c0.313,0,0.607-0.06,0.882-0.178s0.515-0.279,0.718-0.482
		s0.363-0.442,0.482-0.718c0.118-0.274,0.178-0.568,0.178-0.882V5.205h1.561v13H49.436z"/>
	<path class="st0" d="M61.464,16.123c-0.198,0.466-0.472,0.872-0.819,1.219c-0.347,0.347-0.753,0.62-1.219,0.819
		c-0.465,0.198-0.96,0.298-1.484,0.298H56.9c-0.525,0-1.021-0.1-1.486-0.298c-0.465-0.199-0.871-0.473-1.219-0.819
		c-0.347-0.347-0.619-0.753-0.818-1.219s-0.299-0.96-0.299-1.485V8.772c0-0.525,0.1-1.02,0.299-1.485s0.472-0.872,0.818-1.219
		c0.348-0.347,0.754-0.62,1.219-0.819c0.466-0.198,0.961-0.298,1.486-0.298h1.041c0.524,0,1.02,0.1,1.484,0.298
		c0.466,0.199,0.872,0.473,1.219,0.819c0.348,0.347,0.621,0.753,0.819,1.219s0.298,0.96,0.298,1.485v0.521l-1.561,0.254V8.684
		c0-0.313-0.06-0.607-0.178-0.882c-0.119-0.275-0.279-0.515-0.482-0.718s-0.443-0.364-0.718-0.482s-0.569-0.178-0.882-0.178H56.9
		c-0.313,0-0.607,0.06-0.883,0.178s-0.514,0.279-0.717,0.482s-0.364,0.442-0.482,0.718c-0.119,0.274-0.178,0.568-0.178,0.882v6.043
		c0,0.313,0.059,0.607,0.178,0.882c0.118,0.275,0.279,0.515,0.482,0.718s0.441,0.364,0.717,0.482s0.569,0.178,0.883,0.178h1.041
		c0.313,0,0.607-0.06,0.882-0.178s0.515-0.279,0.718-0.482s0.363-0.442,0.482-0.718c0.118-0.274,0.178-0.568,0.178-0.882v-0.863
		l1.561,0.254v0.521C61.762,15.163,61.662,15.657,61.464,16.123z"/>
	<path class="st0" d="M69.621,18.205c-0.475,0-0.921-0.089-1.34-0.267s-0.783-0.424-1.092-0.736s-0.555-0.678-0.736-1.092
		s-0.273-0.859-0.273-1.333V6.69h-2.336V5.205h2.336V2.082l1.563-0.254v3.377h3.301V6.69h-3.301v8.163
		c0,0.263,0.049,0.506,0.146,0.729c0.097,0.225,0.23,0.422,0.399,0.591c0.17,0.169,0.369,0.303,0.598,0.399
		c0.229,0.098,0.474,0.146,0.736,0.146h1.422v1.485H69.621z"/>
	<path class="st0" d="M82.074,18.205l-0.863-1.32c-0.355,0.482-0.799,0.865-1.332,1.149c-0.533,0.283-1.117,0.425-1.752,0.425
		h-0.395c-0.524,0-1.02-0.1-1.484-0.298c-0.466-0.199-0.872-0.473-1.219-0.819c-0.348-0.347-0.621-0.753-0.819-1.219
		s-0.298-0.96-0.298-1.485V5.205h1.561v9.521c0,0.313,0.06,0.607,0.178,0.882c0.119,0.275,0.279,0.515,0.482,0.718
		s0.443,0.364,0.718,0.482s0.569,0.178,0.882,0.178h1.041c0.313,0,0.607-0.06,0.883-0.178s0.514-0.279,0.717-0.482
		s0.364-0.442,0.482-0.718c0.119-0.274,0.178-0.568,0.178-0.882V5.205h1.563v13H82.074z"/>
	<path class="st0" d="M89.539,6.69c-0.313,0-0.607,0.059-0.882,0.178s-0.515,0.279-0.718,0.482s-0.363,0.442-0.482,0.717
		c-0.118,0.275-0.178,0.57-0.178,0.883v9.255h-1.561v-13h0.52l0.852,1.32c0.355-0.482,0.801-0.865,1.339-1.149
		c0.538-0.283,1.124-0.425,1.759-0.425h0.914V6.69H89.539z"/>
	<path class="st0" d="M101.346,18.205l-0.863-1.295c-0.355,0.466-0.799,0.84-1.332,1.124c-0.533,0.283-1.117,0.425-1.752,0.425
		h-0.395c-0.524,0-1.02-0.1-1.484-0.298c-0.466-0.199-0.872-0.473-1.219-0.819c-0.348-0.347-0.621-0.753-0.819-1.219
		s-0.298-0.96-0.298-1.485v-0.127c0-0.525,0.1-1.02,0.298-1.485s0.472-0.872,0.819-1.219c0.347-0.347,0.753-0.62,1.219-0.819
		c0.465-0.198,0.96-0.298,1.484-0.298h3.301V8.684c0-0.313-0.059-0.607-0.178-0.882c-0.118-0.275-0.279-0.515-0.482-0.718
		s-0.441-0.364-0.717-0.482s-0.569-0.178-0.883-0.178h-0.914c-0.313,0-0.607,0.06-0.882,0.178s-0.515,0.279-0.718,0.482
		s-0.363,0.442-0.482,0.718c-0.118,0.274-0.178,0.568-0.178,0.882v0.47l-1.561-0.254V8.772c0-0.525,0.1-1.02,0.298-1.485
		s0.472-0.872,0.819-1.219c0.347-0.347,0.753-0.62,1.219-0.819c0.465-0.198,0.96-0.298,1.484-0.298h0.914
		c0.525,0,1.021,0.1,1.486,0.298c0.465,0.199,0.871,0.473,1.219,0.819c0.347,0.347,0.619,0.753,0.818,1.219s0.299,0.96,0.299,1.485
		v9.433H101.346z M100.305,11.908h-3.301c-0.313,0-0.607,0.06-0.882,0.178s-0.515,0.281-0.718,0.489
		c-0.203,0.207-0.363,0.448-0.482,0.723c-0.118,0.275-0.178,0.57-0.178,0.883v0.546c0,0.313,0.06,0.607,0.178,0.882
		c0.119,0.275,0.279,0.515,0.482,0.718s0.443,0.364,0.718,0.482s0.569,0.178,0.882,0.178h1.041c0.313,0,0.607-0.06,0.883-0.178
		s0.514-0.279,0.717-0.482s0.364-0.442,0.482-0.718c0.119-0.274,0.178-0.568,0.178-0.882V11.908z"/>
	<path class="st0" d="M119.133,18.205l-0.863-1.32c-0.355,0.482-0.801,0.865-1.334,1.149c-0.533,0.283-1.117,0.425-1.752,0.425
		h-0.393c-0.525,0-1.021-0.1-1.486-0.298c-0.465-0.199-0.871-0.473-1.219-0.819c-0.347-0.347-0.619-0.753-0.818-1.219
		s-0.299-0.96-0.299-1.485V8.772c0-0.525,0.1-1.02,0.299-1.485s0.472-0.872,0.818-1.219c0.348-0.347,0.754-0.62,1.219-0.819
		c0.466-0.198,0.961-0.298,1.486-0.298h0.393c0.584,0,1.126,0.118,1.625,0.355c0.5,0.237,0.928,0.567,1.283,0.99V0h1.561v18.205
		H119.133z M118.092,8.684c0-0.313-0.06-0.607-0.178-0.882c-0.119-0.275-0.279-0.515-0.482-0.718s-0.443-0.364-0.718-0.482
		s-0.569-0.178-0.882-0.178h-1.041c-0.313,0-0.607,0.06-0.883,0.178s-0.514,0.279-0.717,0.482s-0.364,0.442-0.482,0.718
		c-0.119,0.274-0.178,0.568-0.178,0.882v6.043c0,0.313,0.059,0.607,0.178,0.882c0.118,0.275,0.279,0.515,0.482,0.718
		s0.441,0.364,0.717,0.482s0.569,0.178,0.883,0.178h1.041c0.313,0,0.607-0.06,0.882-0.178s0.515-0.279,0.718-0.482
		s0.363-0.442,0.482-0.718c0.118-0.274,0.178-0.568,0.178-0.882V8.684z"/>
	<path class="st0" d="M131.161,16.123c-0.198,0.466-0.472,0.872-0.819,1.219c-0.347,0.347-0.753,0.62-1.219,0.819
		c-0.465,0.198-0.96,0.298-1.484,0.298h-1.041c-0.525,0-1.021-0.1-1.486-0.298c-0.465-0.199-0.871-0.473-1.219-0.819
		c-0.347-0.347-0.619-0.753-0.818-1.219s-0.299-0.96-0.299-1.485V8.772c0-0.525,0.1-1.02,0.299-1.485s0.472-0.872,0.818-1.219
		c0.348-0.347,0.754-0.62,1.219-0.819c0.466-0.198,0.961-0.298,1.486-0.298h1.041c0.524,0,1.02,0.1,1.484,0.298
		c0.466,0.199,0.872,0.473,1.219,0.819c0.348,0.347,0.621,0.753,0.819,1.219s0.298,0.96,0.298,1.485v3.06h-7.121v2.895
		c0,0.313,0.059,0.607,0.178,0.882c0.118,0.275,0.279,0.515,0.482,0.718s0.441,0.364,0.717,0.482s0.569,0.178,0.883,0.178h1.041
		c0.313,0,0.607-0.06,0.882-0.178s0.515-0.279,0.718-0.482s0.363-0.442,0.482-0.718c0.118-0.274,0.178-0.568,0.178-0.882v-0.863
		l1.561,0.254v0.521C131.459,15.163,131.359,15.657,131.161,16.123z M129.898,8.684c0-0.313-0.06-0.607-0.178-0.882
		c-0.119-0.275-0.279-0.515-0.482-0.718s-0.443-0.364-0.718-0.482s-0.569-0.178-0.882-0.178h-1.041c-0.313,0-0.607,0.06-0.883,0.178
		s-0.514,0.279-0.717,0.482s-0.364,0.442-0.482,0.718c-0.119,0.274-0.178,0.568-0.178,0.882v1.93h5.561V8.684z"/>
	<path class="st0" d="M148.725,18.205l-0.863-1.32c-0.355,0.482-0.799,0.865-1.332,1.149c-0.533,0.283-1.117,0.425-1.752,0.425
		h-0.395c-0.524,0-1.02-0.1-1.484-0.298c-0.466-0.199-0.872-0.473-1.219-0.819c-0.348-0.347-0.621-0.753-0.819-1.219
		s-0.298-0.96-0.298-1.485V5.205h1.561v9.521c0,0.313,0.06,0.607,0.178,0.882c0.119,0.275,0.279,0.515,0.482,0.718
		s0.443,0.364,0.718,0.482s0.569,0.178,0.882,0.178h1.041c0.313,0,0.607-0.06,0.883-0.178s0.514-0.279,0.717-0.482
		s0.364-0.442,0.482-0.718c0.119-0.274,0.178-0.568,0.178-0.882V5.205h1.563v13H148.725z"/>
	<path class="st0" d="M159.49,18.205V8.684c0-0.313-0.059-0.607-0.178-0.882c-0.118-0.275-0.279-0.515-0.482-0.718
		s-0.441-0.364-0.717-0.482s-0.569-0.178-0.883-0.178h-1.041c-0.313,0-0.607,0.06-0.882,0.178s-0.515,0.279-0.718,0.482
		s-0.363,0.442-0.482,0.718c-0.118,0.274-0.178,0.568-0.178,0.882v9.521h-1.561v-13h0.52l0.852,1.32
		c0.355-0.482,0.801-0.865,1.339-1.149c0.538-0.283,1.124-0.425,1.759-0.425h0.393c0.525,0,1.021,0.1,1.486,0.298
		c0.465,0.199,0.871,0.473,1.219,0.819c0.347,0.347,0.619,0.753,0.818,1.219s0.299,0.96,0.299,1.485v9.433H159.49z"/>
	<path class="st0" d="M178.318,18.205l-0.863-1.295c-0.355,0.466-0.801,0.84-1.334,1.124c-0.533,0.283-1.117,0.425-1.752,0.425
		h-0.393c-0.525,0-1.021-0.1-1.486-0.298c-0.465-0.199-0.871-0.473-1.219-0.819c-0.347-0.347-0.619-0.753-0.818-1.219
		s-0.299-0.96-0.299-1.485v-0.127c0-0.525,0.1-1.02,0.299-1.485s0.472-0.872,0.818-1.219c0.348-0.347,0.754-0.62,1.219-0.819
		c0.466-0.198,0.961-0.298,1.486-0.298h3.301V8.684c0-0.313-0.06-0.607-0.178-0.882c-0.119-0.275-0.279-0.515-0.482-0.718
		s-0.443-0.364-0.718-0.482s-0.569-0.178-0.882-0.178h-0.914c-0.313,0-0.607,0.06-0.883,0.178s-0.514,0.279-0.717,0.482
		s-0.364,0.442-0.482,0.718c-0.119,0.274-0.178,0.568-0.178,0.882v0.47l-1.563-0.254V8.772c0-0.525,0.1-1.02,0.299-1.485
		s0.472-0.872,0.818-1.219c0.348-0.347,0.754-0.62,1.219-0.819c0.466-0.198,0.961-0.298,1.486-0.298h0.914
		c0.524,0,1.02,0.1,1.484,0.298c0.466,0.199,0.872,0.473,1.219,0.819c0.348,0.347,0.621,0.753,0.819,1.219s0.298,0.96,0.298,1.485
		v9.433H178.318z M177.277,11.908h-3.301c-0.313,0-0.607,0.06-0.883,0.178s-0.514,0.281-0.717,0.489
		c-0.203,0.207-0.364,0.448-0.482,0.723c-0.119,0.275-0.178,0.57-0.178,0.883v0.546c0,0.313,0.059,0.607,0.178,0.882
		c0.118,0.275,0.279,0.515,0.482,0.718s0.441,0.364,0.717,0.482s0.569,0.178,0.883,0.178h1.041c0.313,0,0.607-0.06,0.882-0.178
		s0.515-0.279,0.718-0.482s0.363-0.442,0.482-0.718c0.118-0.274,0.178-0.568,0.178-0.882V11.908z"/>
	<path class="st0" d="M185.783,6.69c-0.313,0-0.607,0.059-0.883,0.178s-0.514,0.279-0.717,0.482s-0.364,0.442-0.482,0.717
		c-0.119,0.275-0.178,0.57-0.178,0.883v9.255h-1.563v-13h0.521l0.85,1.32c0.355-0.482,0.803-0.865,1.34-1.149
		c0.537-0.283,1.123-0.425,1.758-0.425h0.914V6.69H185.783z"/>
	<path class="st0" d="M197.812,16.123c-0.198,0.466-0.472,0.872-0.819,1.219c-0.347,0.347-0.753,0.62-1.219,0.819
		c-0.465,0.198-0.96,0.298-1.484,0.298h-1.041c-0.525,0-1.021-0.1-1.486-0.298c-0.465-0.199-0.871-0.473-1.219-0.819
		c-0.347-0.347-0.619-0.753-0.818-1.219s-0.299-0.96-0.299-1.485V8.772c0-0.525,0.1-1.02,0.299-1.485s0.472-0.872,0.818-1.219
		c0.348-0.347,0.754-0.62,1.219-0.819c0.466-0.198,0.961-0.298,1.486-0.298h1.041c0.524,0,1.02,0.1,1.484,0.298
		c0.466,0.199,0.872,0.473,1.219,0.819c0.348,0.347,0.621,0.753,0.819,1.219s0.298,0.96,0.298,1.485v0.521l-1.561,0.254V8.684
		c0-0.313-0.06-0.607-0.178-0.882c-0.119-0.275-0.279-0.515-0.482-0.718s-0.443-0.364-0.718-0.482s-0.569-0.178-0.882-0.178h-1.041
		c-0.313,0-0.607,0.06-0.883,0.178s-0.514,0.279-0.717,0.482s-0.364,0.442-0.482,0.718c-0.119,0.274-0.178,0.568-0.178,0.882v6.043
		c0,0.313,0.059,0.607,0.178,0.882c0.118,0.275,0.279,0.515,0.482,0.718s0.441,0.364,0.717,0.482s0.569,0.178,0.883,0.178h1.041
		c0.313,0,0.607-0.06,0.882-0.178s0.515-0.279,0.718-0.482s0.363-0.442,0.482-0.718c0.118-0.274,0.178-0.568,0.178-0.882v-0.863
		l1.561,0.254v0.521C198.109,15.163,198.01,15.657,197.812,16.123z"/>
	<path class="st0" d="M208.355,18.205V8.684c0-0.313-0.06-0.607-0.178-0.882c-0.119-0.275-0.279-0.515-0.482-0.718
		s-0.443-0.364-0.718-0.482s-0.569-0.178-0.882-0.178h-1.041c-0.313,0-0.607,0.06-0.883,0.178s-0.514,0.279-0.717,0.482
		s-0.364,0.442-0.482,0.718c-0.119,0.274-0.178,0.568-0.178,0.882v9.521h-1.563V0h1.563v6.297c0.355-0.423,0.782-0.753,1.281-0.99
		c0.5-0.237,1.041-0.355,1.625-0.355h0.395c0.524,0,1.02,0.1,1.484,0.298c0.466,0.199,0.872,0.473,1.219,0.819
		c0.348,0.347,0.621,0.753,0.819,1.219s0.298,0.96,0.298,1.485v9.433H208.355z"/>
	<path class="st0" d="M213.434,2.082V0h1.814v2.082H213.434z M213.561,18.205v-13h1.561v13H213.561z"/>
	<path class="st0" d="M222.84,18.205h-0.773l-4.609-13h1.563l3.389,9.852l0.051,0.673l0.051-0.673l3.377-9.852h1.563L222.84,18.205z
		"/>
	<path class="st0" d="M237.649,16.123c-0.198,0.466-0.472,0.872-0.819,1.219c-0.347,0.347-0.753,0.62-1.219,0.819
		c-0.465,0.198-0.96,0.298-1.484,0.298h-1.041c-0.525,0-1.021-0.1-1.486-0.298c-0.465-0.199-0.871-0.473-1.219-0.819
		c-0.347-0.347-0.619-0.753-0.818-1.219s-0.299-0.96-0.299-1.485V8.772c0-0.525,0.1-1.02,0.299-1.485s0.472-0.872,0.818-1.219
		c0.348-0.347,0.754-0.62,1.219-0.819c0.466-0.198,0.961-0.298,1.486-0.298h1.041c0.524,0,1.02,0.1,1.484,0.298
		c0.466,0.199,0.872,0.473,1.219,0.819c0.348,0.347,0.621,0.753,0.819,1.219s0.298,0.96,0.298,1.485v5.865
		C237.947,15.163,237.848,15.657,237.649,16.123z M236.387,8.684c0-0.313-0.06-0.607-0.178-0.882
		c-0.119-0.275-0.279-0.515-0.482-0.718s-0.443-0.364-0.718-0.482s-0.569-0.178-0.882-0.178h-1.041c-0.313,0-0.607,0.06-0.883,0.178
		s-0.514,0.279-0.717,0.482s-0.364,0.442-0.482,0.718c-0.119,0.274-0.178,0.568-0.178,0.882v6.043c0,0.313,0.059,0.607,0.178,0.882
		c0.118,0.275,0.279,0.515,0.482,0.718s0.441,0.364,0.717,0.482s0.569,0.178,0.883,0.178h1.041c0.313,0,0.607-0.06,0.882-0.178
		s0.515-0.279,0.718-0.482s0.363-0.442,0.482-0.718c0.118-0.274,0.178-0.568,0.178-0.882V8.684z"/>
	<path class="st0" d="M256.178,18.205V9.89h-6.969v8.315h-1.639V0h1.639v8.328h6.969V0h1.639v18.205H256.178z"/>
	<path class="st0" d="M266.398,1.562v16.644h-1.639V1.562h-4.342V0h10.322v1.562H266.398z"/>
	<path class="st0" d="M284.553,18.205V5.726L284.438,6.5l-4.227,11.705h-0.863L275.082,6.5l-0.102-0.774v12.479h-1.639V0h0.852
		l5.521,14.93l0.051,0.673l0.051-0.673L285.326,0h0.863v18.205H284.553z"/>
	<path class="st0" d="M290.074,18.205V0h1.639v16.644h6.969v1.562H290.074z"/>
</g>
</svg>