<!-- Generator: Adobe Illustrator 17.0.0, SVG Export Plug-In  -->
<svg version="1.1"
	 xmlns="http://www.w3.org/2000/svg" xmlns:xlink="http://www.w3.org/1999/xlink" xmlns:a="http://ns.adobe.com/AdobeSVGViewerExtensions/3.0/"
	 x="0px" y="0px" width="200.489px" height="59.665px" viewBox="0 0 200.489 59.665"
	 style="enable-background:new 0 0 200.489 59.665;" xml:space="preserve">
<style type="text/css">
	.st0{fill:#E54F26;}
	.st1{fill:url(#SVGID_1_);}
	.st2{fill:#F5F5F5;}
	.st3{fill:#FFFFFF;}
	.st4{fill:url(#XMLID_17_);}
	.st5{fill:url(#XMLID_18_);}
	.st6{fill:url(#XMLID_19_);}
	.st7{fill:url(#XMLID_20_);}
	.st8{fill:url(#SVGID_2_);}
	.st9{fill:url(#XMLID_21_);}
	.st10{fill:url(#XMLID_22_);}
	.st11{fill:url(#XMLID_23_);}
	.st12{fill:url(#XMLID_24_);}
</style>
<defs>
</defs>
<g>
	<polygon id="XMLID_16_" points="139.367,4.737 145.014,0 145.014,4.737 	"/>
	<rect x="0" y="7.105" class="st0" width="200.489" height="50.191"/>
	<linearGradient id="SVGID_1_" gradientUnits="userSpaceOnUse" x1="0" y1="29.8325" x2="200.4892" y2="29.8325">
		<stop  offset="0" style="stop-color:#F5F5F5"/>
		<stop  offset="1" style="stop-color:#E8E8E8"/>
	</linearGradient>
	<rect x="0" y="4.737" class="st1" width="200.489" height="50.19"/>
	<rect id="XMLID_15_" x="145.014" y="0" class="st0" width="36.803" height="59.665"/>
	<polygon id="XMLID_14_" points="139.367,57.206 145.014,59.665 145.014,57.206 	"/>
	<rect id="XMLID_13_" x="143.193" y="4.829" class="st2" width="1.732" height="52.377"/>
	<g id="XMLID_10_">
		<path id="XMLID_12_" class="st3" d="M178.174,41.537l-5.831-5.828c-0.364-0.365-0.912-0.548-1.457-0.548l-1.912-1.912
			c3.278-4.373,3.005-10.566-1.004-14.574c-4.372-4.373-11.387-4.373-15.759,0c-4.373,4.371-4.373,11.386,0,15.759
			c4.009,4.009,10.203,4.279,14.574,1.001l1.913,1.913c0,0.547,0.184,1.003,0.546,1.457l5.83,5.831c0.73,0.728,1.915,0.728,2.643,0
			l0.457-0.455C178.9,43.359,178.9,42.268,178.174,41.537L178.174,41.537z M165.511,31.974c-3.007,3.007-7.924,3.007-10.931,0
			c-3.006-3.006-3.006-7.926,0-10.931c3.007-3.006,7.924-3.006,10.931,0C168.608,24.048,168.517,28.968,165.511,31.974
			L165.511,31.974z"/>
		<path id="XMLID_11_" class="st3" d="M163.143,25.323h-1.822v-1.821c0-0.638-0.547-1.185-1.184-1.185l0,0
			c-0.64,0-1.185,0.547-1.185,1.185v1.821h-1.822c-0.637,0-1.185,0.547-1.185,1.184l0,0c0,0.64,0.548,1.185,1.185,1.185h1.822v1.823
			c0,0.636,0.545,1.185,1.185,1.185l0,0c0.637,0,1.184-0.549,1.184-1.185v-1.823h1.822c0.637,0,1.185-0.545,1.185-1.185l0,0
			C164.327,25.87,163.779,25.323,163.143,25.323L163.143,25.323z"/>
	</g>
	<g>
		<path d="M51.637,34.858V27.87h5.182v1.183h-3.771v1.549h3.509v1.178h-3.509v1.901h3.904v1.178H51.637z"/>
		<path d="M59.722,34.858v-5.806h-2.073V27.87h5.553v1.183h-2.068v5.806H59.722z"/>
		<path d="M64.068,34.858V27.87h1.411v6.988H64.068z"/>
		<path d="M72.448,33.972c0.347,0.248,0.724,0.445,1.13,0.591l-0.52,0.997c-0.213-0.064-0.421-0.151-0.624-0.263
			c-0.045-0.022-0.358-0.229-0.939-0.619c-0.458,0.2-0.965,0.3-1.521,0.3c-1.074,0-1.916-0.316-2.524-0.948
			c-0.608-0.633-0.913-1.521-0.913-2.665c0-1.141,0.306-2.028,0.916-2.662c0.609-0.634,1.438-0.951,2.483-0.951
			c1.036,0,1.857,0.317,2.464,0.951c0.607,0.634,0.911,1.521,0.911,2.662c0,0.604-0.085,1.135-0.253,1.592
			C72.932,33.306,72.728,33.644,72.448,33.972z M71.313,33.176c0.182-0.213,0.317-0.471,0.408-0.772s0.136-0.648,0.136-1.039
			c0-0.808-0.178-1.41-0.534-1.809c-0.355-0.399-0.821-0.599-1.396-0.599s-1.042,0.2-1.399,0.601s-0.536,1.003-0.536,1.807
			c0,0.816,0.179,1.428,0.536,1.833s0.81,0.607,1.356,0.607c0.203,0,0.396-0.033,0.577-0.1c-0.286-0.188-0.577-0.334-0.873-0.438
			l0.396-0.806C70.448,32.619,70.892,32.858,71.313,33.176z"/>
		<path d="M74.408,27.87h1.41v3.785c0,0.601,0.018,0.989,0.053,1.168c0.061,0.286,0.204,0.516,0.432,0.688
			c0.227,0.173,0.538,0.26,0.932,0.26c0.4,0,0.702-0.082,0.906-0.245c0.203-0.164,0.325-0.365,0.366-0.604
			c0.042-0.238,0.063-0.634,0.063-1.187V27.87h1.411v3.671c0,0.839-0.038,1.432-0.114,1.777c-0.076,0.347-0.217,0.639-0.422,0.878
			c-0.205,0.238-0.479,0.428-0.822,0.569c-0.344,0.142-0.792,0.212-1.345,0.212c-0.667,0-1.174-0.077-1.519-0.231
			s-0.617-0.354-0.817-0.601s-0.332-0.504-0.396-0.774c-0.092-0.4-0.138-0.991-0.138-1.773V27.87z"/>
		<path d="M81.467,34.858V27.87h5.182v1.183h-3.771v1.549h3.509v1.178h-3.509v1.901h3.904v1.178H81.467z"/>
		<path d="M89.552,34.858v-5.806h-2.073V27.87h5.553v1.183h-2.068v5.806H89.552z"/>
		<path d="M100.243,34.858h-1.534l-0.61-1.587h-2.794l-0.576,1.587h-1.497l2.722-6.988h1.492L100.243,34.858z M97.645,32.094
			L96.683,29.5l-0.943,2.594H97.645z"/>
		<path d="M100.634,32.585l1.373-0.134c0.083,0.461,0.25,0.799,0.503,1.016c0.253,0.216,0.594,0.324,1.022,0.324
			c0.454,0,0.797-0.097,1.027-0.289s0.346-0.417,0.346-0.674c0-0.166-0.049-0.307-0.146-0.422c-0.097-0.116-0.267-0.218-0.508-0.303
			c-0.165-0.058-0.542-0.159-1.13-0.306c-0.756-0.188-1.287-0.418-1.592-0.691c-0.429-0.384-0.644-0.853-0.644-1.406
			c0-0.355,0.101-0.688,0.303-0.998s0.492-0.546,0.872-0.708s0.838-0.243,1.375-0.243c0.878,0,1.538,0.192,1.981,0.577
			c0.443,0.384,0.676,0.897,0.698,1.539l-1.411,0.063c-0.061-0.359-0.19-0.617-0.389-0.774c-0.198-0.158-0.496-0.236-0.894-0.236
			c-0.41,0-0.731,0.084-0.963,0.253c-0.149,0.107-0.225,0.252-0.225,0.434c0,0.165,0.07,0.307,0.21,0.424
			c0.178,0.149,0.61,0.306,1.297,0.468s1.194,0.329,1.522,0.503c0.329,0.173,0.587,0.409,0.772,0.71
			c0.187,0.3,0.279,0.671,0.279,1.113c0,0.4-0.111,0.775-0.334,1.125s-0.537,0.609-0.943,0.779c-0.407,0.17-0.914,0.255-1.521,0.255
			c-0.883,0-1.562-0.204-2.035-0.612S100.727,33.366,100.634,32.585z"/>
		<path d="M107.494,34.858v-1.34h1.339v1.34H107.494z"/>
		<path d="M110.215,34.858V27.87h2.265c0.858,0,1.417,0.035,1.678,0.104c0.4,0.105,0.735,0.333,1.006,0.685s0.405,0.805,0.405,1.36
			c0,0.43-0.078,0.79-0.233,1.083c-0.156,0.292-0.354,0.521-0.594,0.688s-0.483,0.277-0.731,0.331
			c-0.337,0.066-0.825,0.101-1.464,0.101h-0.92v2.636H110.215z M111.626,29.053v1.982h0.772c0.556,0,0.928-0.036,1.115-0.109
			s0.335-0.188,0.441-0.344c0.106-0.155,0.159-0.336,0.159-0.543c0-0.254-0.074-0.464-0.224-0.629s-0.339-0.269-0.567-0.311
			c-0.169-0.031-0.507-0.047-1.016-0.047H111.626z"/>
		<path d="M116.722,27.87h2.579c0.582,0,1.025,0.045,1.33,0.134c0.41,0.12,0.761,0.335,1.054,0.644
			c0.292,0.308,0.515,0.686,0.667,1.132s0.229,0.997,0.229,1.651c0,0.575-0.072,1.071-0.215,1.487
			c-0.175,0.509-0.425,0.92-0.748,1.235c-0.245,0.238-0.576,0.424-0.992,0.558c-0.312,0.099-0.728,0.147-1.249,0.147h-2.655V27.87z
			 M118.133,29.053v4.628h1.054c0.395,0,0.679-0.021,0.854-0.066c0.229-0.058,0.419-0.154,0.569-0.291
			c0.151-0.137,0.274-0.361,0.369-0.674c0.096-0.313,0.144-0.74,0.144-1.28s-0.048-0.955-0.144-1.244
			c-0.095-0.289-0.229-0.515-0.4-0.677c-0.171-0.162-0.389-0.271-0.652-0.329c-0.197-0.045-0.584-0.066-1.158-0.066H118.133z"/>
		<path d="M123.786,34.858V27.87h4.791v1.183h-3.38v1.653h2.917v1.183h-2.917v2.97H123.786z"/>
	</g>
	<g id="XMLID_1_">
		<rect x="12.761" y="15.589" class="st0" width="23.416" height="27.145"/>
		<path id="XMLID_6_" d="M39.216,44.986H15.799V43.71h21.359V17.843h2.058V44.986L39.216,44.986z M12.761,15.589h23.416v27.145
			H12.761V15.589L12.761,15.589z M37.158,16.864V14.61H11.781v29.1h3.038v2.256h25.376V16.864H37.158L37.158,16.864z"/>
		<linearGradient id="XMLID_17_" gradientUnits="userSpaceOnUse" x1="25.0556" y1="38.8106" x2="26.0849" y2="38.8106">
			<stop  offset="0" style="stop-color:#F5F5F5"/>
			<stop  offset="1" style="stop-color:#E8E8E8"/>
		</linearGradient>
		<polygon id="XMLID_5_" class="st4" points="25.056,38.321 26.085,38.321 26.085,39.3 25.056,39.3 25.056,38.321 		"/>
		<linearGradient id="XMLID_18_" gradientUnits="userSpaceOnUse" x1="27.2646" y1="38.8106" x2="28.2939" y2="38.8106">
			<stop  offset="0" style="stop-color:#F5F5F5"/>
			<stop  offset="1" style="stop-color:#E8E8E8"/>
		</linearGradient>
		<polygon id="XMLID_4_" class="st5" points="27.265,38.321 28.294,38.321 28.294,39.3 27.265,39.3 27.265,38.321 		"/>
		<linearGradient id="XMLID_19_" gradientUnits="userSpaceOnUse" x1="29.5185" y1="38.8106" x2="30.5478" y2="38.8106">
			<stop  offset="0" style="stop-color:#F5F5F5"/>
			<stop  offset="1" style="stop-color:#E8E8E8"/>
		</linearGradient>
		<polygon id="XMLID_3_" class="st6" points="29.518,38.321 30.548,38.321 30.548,39.3 29.518,39.3 29.518,38.321 		"/>
		<linearGradient id="XMLID_20_" gradientUnits="userSpaceOnUse" x1="31.7207" y1="38.8106" x2="32.7509" y2="38.8106">
			<stop  offset="0" style="stop-color:#F5F5F5"/>
			<stop  offset="1" style="stop-color:#E8E8E8"/>
		</linearGradient>
		<polygon id="XMLID_2_" class="st7" points="31.721,38.321 32.751,38.321 32.751,39.3 31.721,39.3 31.721,38.321 		"/>
	</g>
	<g>
		<path class="st3" d="M19.485,34.62l0.827-4.048h-1.606v-1.416h1.892l0.703-3.45h-2.595V24.29h2.88l0.827-4.076h1.425l-0.826,4.076
			h2.993l0.827-4.076h1.435l-0.827,4.076h1.645v1.416h-1.929l-0.713,3.45h2.642v1.416h-2.927L25.33,34.62h-1.426l0.817-4.048h-2.983
			l-0.827,4.048H19.485z M22.023,29.156h2.983l0.713-3.45h-2.993L22.023,29.156z"/>
	</g>
</g>
</svg>