<!-- Generator: Adobe Illustrator 17.0.0, SVG Export Plug-In  -->
<svg version="1.1"
	 xmlns="http://www.w3.org/2000/svg" xmlns:xlink="http://www.w3.org/1999/xlink" xmlns:a="http://ns.adobe.com/AdobeSVGViewerExtensions/3.0/"
	 x="0px" y="0px" width="336.921px" height="25.594px" viewBox="0 0 336.921 25.594"
	 style="enable-background:new 0 0 336.921 25.594;" xml:space="preserve">
<style type="text/css">
	.st0{fill:#F16529;}
</style>
<defs>
</defs>
<g>
	<path class="st0" d="M11.21,20.389V7.909l-0.114,0.774L6.868,20.389H6.005L1.739,8.684L1.638,7.909v12.479H0V2.184h0.851
		l5.522,14.93l0.051,0.673l0.051-0.673l5.51-14.93h0.863v18.205H11.21z"/>
	<path class="st0" d="M23.829,16.148h-5.764l-1.193,4.24h-1.701l5.332-18.205h0.863l5.357,18.205h-1.688L23.829,16.148z
		 M18.51,14.587h4.888l-2.399-8.392l-0.051-0.673l-0.051,0.673L18.51,14.587z"/>
	<path class="st0" d="M38.721,17.85c-0.211,0.525-0.503,0.986-0.876,1.384s-0.811,0.722-1.314,0.972
		c-0.503,0.249-1.043,0.395-1.619,0.438l1.663,3.745h-1.638l-1.663-3.745c-0.618,0-1.2-0.116-1.746-0.35
		c-0.546-0.232-1.022-0.552-1.428-0.958s-0.726-0.88-0.958-1.422s-0.349-1.122-0.349-1.739V6.398c0-0.617,0.116-1.197,0.349-1.739
		s0.552-1.016,0.958-1.422s0.882-0.726,1.428-0.958c0.546-0.233,1.128-0.35,1.746-0.35h1.295c0.618,0,1.198,0.116,1.739,0.35
		c0.542,0.232,1.016,0.552,1.422,0.958s0.726,0.88,0.958,1.422s0.349,1.122,0.349,1.739v9.775
		C39.038,16.766,38.932,17.324,38.721,17.85z M37.4,6.398c0-0.406-0.076-0.785-0.229-1.137c-0.152-0.351-0.36-0.658-0.622-0.92
		s-0.569-0.47-0.92-0.622s-0.73-0.229-1.136-0.229h-1.143c-0.406,0-0.785,0.076-1.136,0.229s-0.66,0.36-0.927,0.622
		s-0.476,0.569-0.628,0.92c-0.152,0.352-0.229,0.73-0.229,1.137v9.775c0,0.406,0.076,0.785,0.229,1.137
		c0.152,0.351,0.362,0.66,0.628,0.926c0.267,0.268,0.576,0.477,0.927,0.629s0.73,0.229,1.136,0.229h1.143
		c0.406,0,0.785-0.076,1.136-0.229s0.658-0.361,0.92-0.629c0.262-0.266,0.47-0.575,0.622-0.926c0.152-0.352,0.229-0.73,0.229-1.137
		V6.398z"/>
	<path class="st0" d="M52.578,17.913c-0.233,0.542-0.552,1.016-0.958,1.422s-0.88,0.726-1.422,0.958
		c-0.542,0.233-1.122,0.35-1.739,0.35h-1.295c-0.618,0-1.2-0.116-1.746-0.35c-0.546-0.232-1.022-0.552-1.428-0.958
		s-0.726-0.88-0.958-1.422s-0.349-1.122-0.349-1.739V2.184h1.638v13.99c0,0.406,0.076,0.785,0.229,1.137
		c0.152,0.351,0.362,0.66,0.628,0.926c0.267,0.268,0.576,0.477,0.927,0.629s0.73,0.229,1.136,0.229h1.143
		c0.406,0,0.785-0.076,1.136-0.229s0.658-0.361,0.92-0.629c0.262-0.266,0.47-0.575,0.622-0.926c0.152-0.352,0.229-0.73,0.229-1.137
		V2.184h1.638v13.99C52.927,16.791,52.811,17.371,52.578,17.913z"/>
	<path class="st0" d="M56.837,20.389V2.184h10.245v1.562h-8.607v6.767h6.97v1.562h-6.97v6.754h8.607v1.562H56.837z"/>
	<path class="st0" d="M74.623,3.745v16.644h-1.638V3.745h-4.342V2.184h10.321v1.562H74.623z"/>
	<path class="st0" d="M81.567,20.389V2.184h10.245v1.562h-8.607v6.767h6.97v1.562h-6.97v6.754h8.607v1.562H81.567z"/>
	<path class="st0" d="M101.766,16.148h-5.764l-1.193,4.24h-1.701l5.332-18.205h0.863l5.357,18.205h-1.688L101.766,16.148z
		 M96.446,14.587h4.888l-2.399-8.392l-0.051-0.673l-0.051,0.673L96.446,14.587z"/>
	<path class="st0" d="M116.892,17.659c-0.233,0.542-0.552,1.016-0.958,1.422s-0.882,0.726-1.428,0.958
		c-0.546,0.233-1.128,0.35-1.746,0.35h-5.764V2.184h5.764c0.618,0,1.2,0.116,1.746,0.35c0.546,0.232,1.022,0.552,1.428,0.958
		s0.726,0.882,0.958,1.429c0.233,0.545,0.349,1.127,0.349,1.745v9.255C117.241,16.537,117.125,17.117,116.892,17.659z
		 M115.604,6.665c0-0.406-0.076-0.785-0.229-1.136c-0.152-0.352-0.362-0.66-0.628-0.928c-0.267-0.266-0.576-0.476-0.927-0.628
		s-0.73-0.229-1.136-0.229h-4.05v15.082h4.05c0.406,0,0.785-0.076,1.136-0.229s0.66-0.36,0.927-0.622s0.476-0.569,0.628-0.92
		c0.152-0.352,0.229-0.73,0.229-1.137V6.665z"/>
	<path class="st0" d="M130.768,17.913c-0.233,0.542-0.552,1.016-0.958,1.422s-0.88,0.726-1.422,0.958
		c-0.542,0.233-1.122,0.35-1.739,0.35h-1.295c-0.618,0-1.2-0.116-1.746-0.35c-0.546-0.232-1.022-0.552-1.428-0.958
		s-0.726-0.88-0.958-1.422s-0.349-1.122-0.349-1.739V6.398c0-0.617,0.116-1.197,0.349-1.739s0.552-1.016,0.958-1.422
		s0.882-0.726,1.428-0.958c0.546-0.233,1.128-0.35,1.746-0.35h1.295c0.618,0,1.198,0.116,1.739,0.35
		c0.542,0.232,1.016,0.552,1.422,0.958s0.726,0.88,0.958,1.422s0.349,1.122,0.349,1.739v9.775
		C131.117,16.791,131.001,17.371,130.768,17.913z M129.479,6.398c0-0.406-0.076-0.785-0.229-1.137
		c-0.152-0.351-0.36-0.658-0.622-0.92s-0.569-0.47-0.92-0.622s-0.73-0.229-1.136-0.229h-1.143c-0.406,0-0.785,0.076-1.136,0.229
		s-0.66,0.36-0.927,0.622s-0.476,0.569-0.628,0.92c-0.152,0.352-0.229,0.73-0.229,1.137v9.775c0,0.406,0.076,0.785,0.229,1.137
		c0.152,0.351,0.362,0.66,0.628,0.926c0.267,0.268,0.576,0.477,0.927,0.629s0.73,0.229,1.136,0.229h1.143
		c0.406,0,0.785-0.076,1.136-0.229s0.658-0.361,0.92-0.629c0.262-0.266,0.47-0.575,0.622-0.926c0.152-0.352,0.229-0.73,0.229-1.137
		V6.398z"/>
	<path class="st0" d="M140.486,12.797c0-1.414,0.135-2.729,0.406-3.948s0.647-2.354,1.13-3.409c0.482-1.053,1.056-2.031,1.72-2.932
		c0.665-0.902,1.39-1.738,2.177-2.508l0.914,0.914c-0.694,0.719-1.335,1.516-1.923,2.387s-1.094,1.809-1.517,2.813
		c-0.423,1.002-0.753,2.063-0.99,3.18s-0.355,2.285-0.355,3.504s0.119,2.387,0.355,3.504s0.567,2.178,0.99,3.18
		c0.423,1.004,0.929,1.941,1.517,2.813s1.229,1.668,1.923,2.387l-0.914,0.914c-0.787-0.77-1.513-1.605-2.177-2.508
		c-0.665-0.9-1.238-1.881-1.72-2.938s-0.859-2.196-1.13-3.415S140.486,14.201,140.486,12.797z"/>
	<path class="st0" d="M149.424,20.389V2.184h1.638v16.644h6.97v1.562H149.424z"/>
	<path class="st0" d="M167.464,16.148H161.7l-1.193,4.24h-1.701l5.332-18.205h0.863l5.357,18.205h-1.688L167.464,16.148z
		 M162.145,14.587h4.888l-2.399-8.392l-0.051-0.673l-0.051,0.673L162.145,14.587z"/>
	<path class="st0" d="M177.48,11.68v8.709h-1.638v-8.684l-4.71-9.521h1.765l3.745,7.566l3.745-7.566h1.765L177.48,11.68z"/>
	<path class="st0" d="M194.384,17.913c-0.233,0.542-0.552,1.016-0.958,1.422s-0.88,0.726-1.422,0.958
		c-0.542,0.233-1.122,0.35-1.739,0.35h-1.295c-0.618,0-1.2-0.116-1.746-0.35c-0.546-0.232-1.022-0.552-1.428-0.958
		s-0.726-0.88-0.958-1.422s-0.349-1.122-0.349-1.739V6.398c0-0.617,0.116-1.197,0.349-1.739s0.552-1.016,0.958-1.422
		s0.882-0.726,1.428-0.958c0.546-0.233,1.128-0.35,1.746-0.35h1.295c0.618,0,1.198,0.116,1.739,0.35
		c0.542,0.232,1.016,0.552,1.422,0.958s0.726,0.88,0.958,1.422s0.349,1.122,0.349,1.739v9.775
		C194.733,16.791,194.617,17.371,194.384,17.913z M193.096,6.398c0-0.406-0.076-0.785-0.229-1.137
		c-0.152-0.351-0.36-0.658-0.622-0.92s-0.569-0.47-0.92-0.622s-0.73-0.229-1.136-0.229h-1.143c-0.406,0-0.785,0.076-1.136,0.229
		s-0.66,0.36-0.927,0.622s-0.476,0.569-0.628,0.92c-0.152,0.352-0.229,0.73-0.229,1.137v9.775c0,0.406,0.076,0.785,0.229,1.137
		c0.152,0.351,0.362,0.66,0.628,0.926c0.267,0.268,0.576,0.477,0.927,0.629s0.73,0.229,1.136,0.229h1.143
		c0.406,0,0.785-0.076,1.136-0.229s0.658-0.361,0.92-0.629c0.262-0.266,0.47-0.575,0.622-0.926c0.152-0.352,0.229-0.73,0.229-1.137
		V6.398z"/>
	<path class="st0" d="M208.273,17.913c-0.233,0.542-0.552,1.016-0.958,1.422s-0.88,0.726-1.422,0.958
		c-0.542,0.233-1.122,0.35-1.739,0.35h-1.295c-0.618,0-1.2-0.116-1.746-0.35c-0.546-0.232-1.022-0.552-1.428-0.958
		s-0.726-0.88-0.958-1.422s-0.349-1.122-0.349-1.739V2.184h1.638v13.99c0,0.406,0.076,0.785,0.229,1.137
		c0.152,0.351,0.362,0.66,0.628,0.926c0.267,0.268,0.576,0.477,0.927,0.629s0.73,0.229,1.136,0.229h1.143
		c0.406,0,0.785-0.076,1.136-0.229s0.658-0.361,0.92-0.629c0.262-0.266,0.47-0.575,0.622-0.926c0.152-0.352,0.229-0.73,0.229-1.137
		V2.184h1.638v13.99C208.622,16.791,208.506,17.371,208.273,17.913z"/>
	<path class="st0" d="M216.95,3.745v16.644h-1.638V3.745h-4.342V2.184h10.321v1.562H216.95z"/>
	<path class="st0" d="M233.873,16.174c0,0.617-0.125,1.197-0.375,1.739s-0.584,1.016-1.003,1.422s-0.906,0.726-1.46,0.958
		c-0.554,0.233-1.141,0.35-1.758,0.35h-1.308c-0.618,0-1.204-0.116-1.758-0.35c-0.554-0.232-1.041-0.552-1.46-0.958
		s-0.753-0.88-1.003-1.422s-0.375-1.122-0.375-1.739V15.45l1.638-0.267v0.99c0,0.406,0.083,0.785,0.248,1.137
		c0.165,0.351,0.387,0.66,0.667,0.926c0.279,0.268,0.603,0.477,0.971,0.629s0.755,0.229,1.162,0.229h1.143
		c0.406,0,0.792-0.076,1.155-0.229s0.686-0.361,0.965-0.629c0.279-0.266,0.501-0.575,0.667-0.926
		c0.165-0.352,0.248-0.73,0.248-1.137v-0.546c0-0.626-0.123-1.147-0.368-1.562s-0.571-0.768-0.978-1.061
		c-0.406-0.291-0.865-0.539-1.377-0.742s-1.039-0.406-1.581-0.609s-1.068-0.428-1.581-0.673s-0.971-0.552-1.377-0.921
		c-0.406-0.367-0.732-0.818-0.978-1.352s-0.368-1.189-0.368-1.968V6.398c0-0.617,0.116-1.197,0.349-1.739s0.552-1.016,0.958-1.422
		s0.882-0.726,1.428-0.958c0.546-0.233,1.128-0.35,1.746-0.35h1.168c0.618,0,1.198,0.116,1.739,0.35
		c0.542,0.232,1.016,0.552,1.422,0.958s0.726,0.88,0.958,1.422s0.349,1.122,0.349,1.739v0.47l-1.638,0.267V6.398
		c0-0.406-0.076-0.785-0.229-1.137c-0.152-0.351-0.36-0.658-0.622-0.92s-0.569-0.47-0.92-0.622s-0.73-0.229-1.136-0.229h-1.016
		c-0.406,0-0.785,0.076-1.136,0.229s-0.66,0.36-0.927,0.622s-0.476,0.569-0.628,0.92c-0.152,0.352-0.229,0.73-0.229,1.137v0.343
		c0,0.584,0.123,1.075,0.368,1.473s0.571,0.738,0.978,1.022c0.406,0.283,0.865,0.528,1.377,0.736
		c0.512,0.207,1.039,0.418,1.581,0.635c0.542,0.215,1.068,0.452,1.581,0.711c0.512,0.258,0.971,0.575,1.377,0.951
		c0.406,0.377,0.732,0.836,0.978,1.378s0.368,1.202,0.368,1.98V16.174z"/>
	<path class="st0" d="M242.43,12.797c0,1.404-0.135,2.717-0.406,3.936s-0.647,2.357-1.13,3.415s-1.056,2.038-1.72,2.938
		c-0.665,0.902-1.39,1.738-2.177,2.508l-0.914-0.914c0.703-0.719,1.346-1.516,1.93-2.387s1.087-1.809,1.511-2.813
		c0.423-1.002,0.753-2.063,0.99-3.18s0.355-2.285,0.355-3.504s-0.119-2.387-0.355-3.504s-0.567-2.178-0.99-3.18
		c-0.423-1.004-0.927-1.941-1.511-2.813s-1.227-1.668-1.93-2.387L236.996,0c0.787,0.77,1.513,1.605,2.177,2.508
		c0.665,0.9,1.238,1.879,1.72,2.932c0.482,1.055,0.859,2.19,1.13,3.409S242.43,11.383,242.43,12.797z"/>
	<path class="st0" d="M252.053,20.389V2.184h10.245v1.562h-8.607v6.767h6.97v1.562h-6.97v6.754h8.607v1.562H252.053z"/>
	<path class="st0" d="M274.803,20.389l-7.592-13.254l-0.152-0.787v14.041h-1.638V2.184h0.851l7.592,13.267l0.165,0.774V2.184h1.638
		v18.205H274.803z"/>
	<path class="st0" d="M294.417,20.389v-8.315h-6.97v8.315h-1.638V2.184h1.638v8.328h6.97V2.184h1.638v18.205H294.417z"/>
	<path class="st0" d="M304.637,3.745v16.644h-1.638V3.745h-4.342V2.184h10.321v1.562H304.637z"/>
	<path class="st0" d="M322.791,20.389V7.909l-0.114,0.774l-4.228,11.705h-0.863L313.32,8.684l-0.102-0.774v12.479h-1.638V2.184
		h0.851l5.522,14.93l0.051,0.673l0.051-0.673l5.51-14.93h0.863v18.205H322.791z"/>
	<path class="st0" d="M328.313,20.389V2.184h1.638v16.644h6.97v1.562H328.313z"/>
</g>
</svg>