<!-- Generator: Adobe Illustrator 17.0.0, SVG Export Plug-In  -->
<svg version="1.1"
	 xmlns="http://www.w3.org/2000/svg" xmlns:xlink="http://www.w3.org/1999/xlink" xmlns:a="http://ns.adobe.com/AdobeSVGViewerExtensions/3.0/"
	 x="0px" y="0px" width="200.49px" height="59.665px" viewBox="0 0 200.49 59.665"
	 style="enable-background:new 0 0 200.49 59.665;" xml:space="preserve">
<style type="text/css">
	.st0{fill:#E54F26;}
	.st1{fill:url(#SVGID_1_);}
	.st2{fill:#F5F5F5;}
	.st3{fill:#FFFFFF;}
	.st4{fill:#F1F1F1;}
	.st5{fill:url(#SVGID_2_);}
</style>
<defs>
</defs>
<g>
	<g>
		<polygon id="XMLID_7_" points="139.367,4.737 145.014,0 145.014,4.737 		"/>
		<rect x="0" y="7.106" class="st0" width="200.49" height="50.191"/>
		<linearGradient id="SVGID_1_" gradientUnits="userSpaceOnUse" x1="0" y1="29.8326" x2="200.4902" y2="29.8326">
			<stop  offset="0" style="stop-color:#F5F5F5"/>
			<stop  offset="1" style="stop-color:#E8E8E8"/>
		</linearGradient>
		<rect x="0" y="4.737" class="st1" width="200.49" height="50.19"/>
		<rect id="XMLID_6_" x="145.014" y="0" class="st0" width="36.803" height="59.665"/>
		<polygon id="XMLID_5_" points="139.367,57.206 145.014,59.665 145.014,57.206 		"/>
		<rect id="XMLID_4_" x="143.193" y="4.829" class="st2" width="1.732" height="52.377"/>
		<g id="XMLID_1_">
			<path id="XMLID_3_" class="st3" d="M178.174,41.537l-5.83-5.828c-0.365-0.365-0.912-0.548-1.457-0.548l-1.912-1.912
				c3.277-4.373,3.004-10.566-1.004-14.574c-4.373-4.373-11.387-4.373-15.76,0c-4.373,4.371-4.373,11.386,0,15.759
				c4.01,4.009,10.203,4.279,14.574,1.001l1.914,1.913c0,0.547,0.184,1.003,0.545,1.457l5.83,5.831c0.73,0.728,1.916,0.728,2.643,0
				l0.457-0.455C178.9,43.359,178.9,42.268,178.174,41.537L178.174,41.537z M165.512,31.974c-3.008,3.007-7.924,3.007-10.932,0
				c-3.006-3.006-3.006-7.926,0-10.931c3.008-3.006,7.924-3.006,10.932,0C168.609,24.048,168.518,28.968,165.512,31.974
				L165.512,31.974z"/>
			<path id="XMLID_2_" class="st3" d="M163.143,25.323h-1.822v-1.821c0-0.638-0.547-1.185-1.184-1.185l0,0
				c-0.639,0-1.184,0.547-1.184,1.185v1.821h-1.822c-0.637,0-1.186,0.547-1.186,1.184l0,0c0,0.64,0.549,1.184,1.186,1.184h1.822
				v1.823c0,0.636,0.545,1.185,1.184,1.185l0,0c0.637,0,1.184-0.549,1.184-1.185v-1.823h1.822c0.637,0,1.186-0.545,1.186-1.184l0,0
				C164.328,25.87,163.779,25.323,163.143,25.323L163.143,25.323z"/>
		</g>
		<g>
			<path d="M62.756,34.858V27.87h5.182v1.183h-3.771v1.549h3.509v1.178h-3.509v1.901h3.904v1.178H62.756z"/>
			<path d="M70.841,34.858v-5.806h-2.073V27.87h5.553v1.183h-2.068v5.806H70.841z"/>
			<path d="M75.187,34.858V27.87h1.411v6.988H75.187z"/>
			<path d="M83.567,33.972c0.347,0.248,0.724,0.445,1.13,0.591l-0.52,0.997c-0.213-0.064-0.421-0.151-0.624-0.263
				c-0.045-0.022-0.358-0.229-0.939-0.619c-0.458,0.2-0.965,0.3-1.521,0.3c-1.074,0-1.916-0.316-2.524-0.948
				c-0.608-0.633-0.913-1.521-0.913-2.665c0-1.141,0.306-2.028,0.916-2.662c0.609-0.634,1.438-0.951,2.483-0.951
				c1.036,0,1.857,0.317,2.464,0.951c0.607,0.634,0.911,1.521,0.911,2.662c0,0.604-0.085,1.135-0.253,1.592
				C84.051,33.306,83.848,33.645,83.567,33.972z M82.433,33.176c0.182-0.213,0.317-0.471,0.408-0.772s0.136-0.648,0.136-1.039
				c0-0.808-0.178-1.41-0.534-1.809c-0.355-0.399-0.821-0.599-1.396-0.599s-1.042,0.2-1.399,0.601s-0.536,1.003-0.536,1.807
				c0,0.816,0.179,1.428,0.536,1.833s0.81,0.607,1.356,0.607c0.203,0,0.396-0.033,0.577-0.1c-0.286-0.188-0.577-0.334-0.873-0.438
				l0.396-0.806C81.567,32.619,82.011,32.858,82.433,33.176z"/>
			<path d="M85.527,27.87h1.41v3.785c0,0.601,0.018,0.989,0.053,1.168c0.061,0.286,0.204,0.516,0.432,0.688
				c0.227,0.173,0.538,0.26,0.932,0.26c0.4,0,0.702-0.082,0.906-0.245c0.203-0.164,0.325-0.365,0.366-0.604
				c0.042-0.238,0.063-0.634,0.063-1.187V27.87H91.1v3.671c0,0.839-0.038,1.432-0.114,1.777c-0.076,0.347-0.217,0.639-0.422,0.878
				c-0.205,0.238-0.479,0.428-0.822,0.569c-0.344,0.142-0.792,0.212-1.345,0.212c-0.667,0-1.174-0.077-1.519-0.231
				s-0.617-0.354-0.817-0.601s-0.332-0.504-0.396-0.774c-0.092-0.4-0.138-0.991-0.138-1.773V27.87z"/>
			<path d="M92.586,34.858V27.87h5.182v1.183h-3.771v1.549h3.509v1.178h-3.509v1.901h3.904v1.178H92.586z"/>
			<path d="M100.671,34.858v-5.806h-2.073V27.87h5.553v1.183h-2.068v5.806H100.671z"/>
			<path d="M111.362,34.858h-1.534l-0.61-1.587h-2.794l-0.576,1.587h-1.497l2.722-6.988h1.492L111.362,34.858z M108.765,32.094
				l-0.963-2.594l-0.943,2.594H108.765z"/>
			<path d="M111.753,32.585l1.373-0.134c0.083,0.461,0.25,0.799,0.503,1.016c0.253,0.216,0.594,0.324,1.022,0.324
				c0.454,0,0.797-0.097,1.027-0.289s0.346-0.417,0.346-0.674c0-0.166-0.049-0.307-0.146-0.422
				c-0.097-0.116-0.267-0.218-0.508-0.303c-0.165-0.058-0.542-0.159-1.13-0.306c-0.756-0.188-1.287-0.418-1.592-0.691
				c-0.429-0.384-0.644-0.853-0.644-1.406c0-0.355,0.101-0.688,0.303-0.998s0.492-0.546,0.872-0.708s0.838-0.243,1.375-0.243
				c0.878,0,1.538,0.192,1.981,0.577c0.443,0.384,0.676,0.897,0.698,1.539l-1.411,0.063c-0.061-0.359-0.19-0.617-0.389-0.774
				c-0.198-0.158-0.496-0.236-0.894-0.236c-0.41,0-0.731,0.084-0.963,0.253c-0.149,0.107-0.225,0.252-0.225,0.434
				c0,0.165,0.07,0.307,0.21,0.424c0.178,0.149,0.61,0.306,1.297,0.468s1.194,0.329,1.522,0.503c0.329,0.173,0.587,0.409,0.772,0.71
				c0.187,0.3,0.279,0.671,0.279,1.113c0,0.4-0.111,0.775-0.334,1.125s-0.537,0.609-0.943,0.779
				c-0.407,0.17-0.914,0.255-1.521,0.255c-0.883,0-1.562-0.204-2.035-0.612S111.846,33.366,111.753,32.585z"/>
		</g>
		<g>
			<rect x="16.666" y="36.4" class="st4" width="21.148" height="8.188"/>
			<g>
				<path class="st0" d="M38.469,22.207c-0.002-0.141-0.047-0.282-0.145-0.393l-5.984-6.835c0-0.002-0.002-0.004-0.004-0.006
					c-0.037-0.039-0.076-0.072-0.121-0.101c-0.012-0.008-0.025-0.017-0.041-0.024c-0.037-0.02-0.076-0.037-0.119-0.05
					c-0.01-0.004-0.021-0.008-0.033-0.01c-0.045-0.013-0.092-0.019-0.139-0.019H17.178c-0.672,0-1.219,0.548-1.219,1.218v28.6
					c0,0.672,0.547,1.218,1.219,1.218h20.08c0.672,0,1.217-0.546,1.217-1.218V22.275C38.475,22.253,38.471,22.23,38.469,22.207z
					 M17.178,15.988h14.096v6.226c0,0.336,0.274,0.608,0.609,0.608h5.375v12.613h-20.08V15.988z M21.867,42.905h-1.219v-2.327
					h-2.014v2.327h-1.227v-5.558h1.227v2.136h2.014v-2.136h1.219V42.905z M26.68,38.403h-1.475v4.502h-1.227v-4.502h-1.451v-1.056
					h4.152V38.403z M31.951,42.905l-0.08-2.128c-0.023-0.668-0.049-1.477-0.049-2.284h-0.024c-0.168,0.71-0.393,1.501-0.601,2.153
					l-0.658,2.166h-0.953l-0.578-2.15c-0.176-0.651-0.361-1.443-0.488-2.169h-0.018c-0.031,0.751-0.057,1.609-0.096,2.301
					l-0.096,2.111H27.18l0.344-5.558h1.629l0.529,1.856c0.168,0.643,0.336,1.336,0.457,1.986h0.023
					c0.152-0.642,0.338-1.376,0.516-1.995l0.576-1.847h1.596l0.297,5.558H31.951L31.951,42.905z M37.463,42.905h-3.377v-5.558h1.227
					v4.502h2.15V42.905L37.463,42.905z"/>
				<polygon points="20.385,28.806 25.047,30.971 25.047,29.941 21.52,28.399 21.52,28.378 25.047,26.834 25.047,25.805 
					20.385,27.97 				"/>
				<polygon points="25.766,31.36 26.746,31.36 28.824,24.318 27.844,24.318 				"/>
				<polygon points="29.389,26.834 32.992,28.378 32.992,28.399 29.389,29.941 29.389,30.971 34.051,28.835 34.051,27.941 
					29.389,25.805 				"/>
			</g>
		</g>
	</g>
</g>
</svg>