<!-- Generator: Adobe Illustrator 17.0.0, SVG Export Plug-In  -->
<svg version="1.1"
	 xmlns="http://www.w3.org/2000/svg" xmlns:xlink="http://www.w3.org/1999/xlink" xmlns:a="http://ns.adobe.com/AdobeSVGViewerExtensions/3.0/"
	 x="0px" y="0px" width="402.905px" height="346.324px" viewBox="0 0 402.905 346.324"
	 style="enable-background:new 0 0 402.905 346.324;" xml:space="preserve">
<style type="text/css">
	.st0{fill:#323232;}
	.st1{fill:#FFFFFF;}
	.st2{fill:#D1D2D3;}
	.st3{fill:#F8F9F9;}
	.st4{fill:#5F6060;}
	.st5{fill:#AEBDC1;}
	.st6{fill:#F16529;}
	.st7{fill:#6C6C6C;}
	.st8{fill:#D3DBDD;}
	.st9{fill:#424143;}
</style>
<defs>
</defs>
<g>
	<g>
		<g>
			<g>
				<path class="st0" d="M222.608,45.216h-15.619c-0.936,0-1.694-0.758-1.694-1.693c0-0.936,0.759-1.693,1.694-1.693h15.619
					c0.938,0,1.695,0.758,1.695,1.693C224.304,44.458,223.546,45.216,222.608,45.216z"/>
			</g>
			<g>
				<path class="st0" d="M195.532,45.554h-35.877c-0.936,0-1.693-0.759-1.693-1.693c0-0.936,0.758-1.693,1.693-1.693h35.877
					c0.936,0,1.693,0.758,1.693,1.693C197.226,44.795,196.468,45.554,195.532,45.554z"/>
			</g>
		</g>
		<g>
			<path d="M362.097,81.199h-49.515c-0.936,0-1.694-0.759-1.694-1.693c0-0.935,0.758-1.693,1.694-1.693h49.515
				c0.936,0,1.694,0.759,1.694,1.693C363.791,80.44,363.033,81.199,362.097,81.199z"/>
		</g>
		<g>
			<path d="M392.446,61.948h-41.082c-0.936,0-1.695-0.759-1.695-1.693c0-0.936,0.76-1.693,1.695-1.693h41.082
				c0.938,0,1.695,0.758,1.695,1.693C394.142,61.189,393.384,61.948,392.446,61.948z"/>
		</g>
		<g>
			<path d="M83.105,81.199h-32.78c-0.937,0-1.694-0.759-1.694-1.693c0-0.935,0.758-1.693,1.694-1.693h32.78
				c0.936,0,1.693,0.759,1.693,1.693C84.799,80.44,84.041,81.199,83.105,81.199z"/>
		</g>
		<g>
			<path d="M54.248,68.779H16.413c-0.936,0-1.694-0.759-1.694-1.693c0-0.936,0.759-1.693,1.694-1.693h37.835
				c0.937,0,1.694,0.758,1.694,1.693C55.942,68.021,55.185,68.779,54.248,68.779z"/>
		</g>
		<g>
			<path d="M379.073,81.199h-7.168c-0.935,0-1.693-0.759-1.693-1.693c0-0.935,0.759-1.693,1.693-1.693h7.168
				c0.935,0,1.693,0.759,1.693,1.693C380.767,80.44,380.009,81.199,379.073,81.199z"/>
		</g>
	</g>
	<g>
		<g>
			<g>
				<path d="M201.868,346.324h-15.617c-0.936,0-1.694-0.76-1.694-1.694s0.759-1.692,1.694-1.692h15.617
					c0.938,0,1.695,0.758,1.695,1.692S202.806,346.324,201.868,346.324z"/>
			</g>
			<g>
				<path d="M249.204,345.986h-35.877c-0.936,0-1.693-0.758-1.693-1.693c0-0.935,0.758-1.693,1.693-1.693h35.877
					c0.936,0,1.693,0.759,1.693,1.693C250.898,345.228,250.14,345.986,249.204,345.986z"/>
			</g>
		</g>
		<g>
			<path d="M96.277,310.342H46.763c-0.935,0-1.694-0.76-1.694-1.694c0-0.935,0.76-1.692,1.694-1.692h49.515
				c0.936,0,1.695,0.758,1.695,1.692C97.973,309.582,97.213,310.342,96.277,310.342z"/>
		</g>
		<g>
			<path d="M57.495,329.593H16.412c-0.935,0-1.693-0.759-1.693-1.694c0-0.935,0.759-1.693,1.693-1.693h41.083
				c0.936,0,1.693,0.759,1.693,1.693C59.188,328.834,58.431,329.593,57.495,329.593z"/>
		</g>
		<g>
			<path d="M358.534,310.342h-32.781c-0.934,0-1.693-0.76-1.693-1.694c0-0.935,0.76-1.692,1.693-1.692h32.781
				c0.935,0,1.695,0.758,1.695,1.692C360.229,309.582,359.47,310.342,358.534,310.342z"/>
		</g>
		<g>
			<path d="M392.446,322.76H354.61c-0.936,0-1.694-0.758-1.694-1.692c0-0.936,0.759-1.694,1.694-1.694h37.836
				c0.936,0,1.694,0.759,1.694,1.694C394.141,322.002,393.382,322.76,392.446,322.76z"/>
		</g>
		<g>
			<path d="M36.952,310.342h-7.165c-0.937,0-1.694-0.76-1.694-1.694c0-0.935,0.758-1.692,1.694-1.692h7.165
				c0.938,0,1.695,0.758,1.695,1.692C38.647,309.582,37.89,310.342,36.952,310.342z"/>
		</g>
	</g>
	<g>
		<g>
			<g>
				<g>
					<g>
						<path class="st0" d="M350.841,33.487h-2.342c-0.431,0-0.78-0.35-0.78-0.779c0-0.432,0.35-0.781,0.78-0.781h2.342
							c0.432,0,0.78,0.35,0.78,0.781C351.621,33.138,351.272,33.487,350.841,33.487z"/>
					</g>
					<g>
						<path class="st0" d="M343.89,33.487h-4.611c-0.431,0-0.78-0.35-0.78-0.779c0-0.432,0.35-0.781,0.78-0.781h4.611
							c0.43,0,0.779,0.35,0.779,0.781C344.669,33.138,344.319,33.487,343.89,33.487z M334.667,33.487h-4.61
							c-0.43,0-0.78-0.35-0.78-0.779c0-0.432,0.351-0.781,0.78-0.781h4.61c0.431,0,0.78,0.35,0.78,0.781
							C335.447,33.138,335.098,33.487,334.667,33.487z M325.446,33.487h-4.611c-0.432,0-0.78-0.35-0.78-0.779
							c0-0.432,0.349-0.781,0.78-0.781h4.611c0.431,0,0.78,0.35,0.78,0.781C326.227,33.138,325.877,33.487,325.446,33.487z
							 M316.225,33.487h-4.61c-0.431,0-0.78-0.35-0.78-0.779c0-0.432,0.35-0.781,0.78-0.781h4.61c0.431,0,0.781,0.35,0.781,0.781
							C317.006,33.138,316.655,33.487,316.225,33.487z M307.004,33.487h-4.612c-0.431,0-0.779-0.35-0.779-0.779
							c0-0.432,0.349-0.781,0.779-0.781h4.612c0.43,0,0.781,0.35,0.781,0.781C307.785,33.138,307.434,33.487,307.004,33.487z
							 M297.782,33.487h-4.611c-0.431,0-0.781-0.35-0.781-0.779c0-0.432,0.35-0.781,0.781-0.781h4.611
							c0.431,0,0.779,0.35,0.779,0.781C298.561,33.138,298.213,33.487,297.782,33.487z M288.56,33.487h-4.61
							c-0.431,0-0.78-0.35-0.78-0.779c0-0.432,0.35-0.781,0.78-0.781h4.61c0.433,0,0.781,0.35,0.781,0.781
							C289.341,33.138,288.992,33.487,288.56,33.487z M279.339,33.487h-4.611c-0.431,0-0.78-0.35-0.78-0.779
							c0-0.432,0.35-0.781,0.78-0.781h4.611c0.432,0,0.78,0.35,0.78,0.781C280.119,33.138,279.771,33.487,279.339,33.487z
							 M270.118,33.487h-4.611c-0.431,0-0.78-0.35-0.78-0.779c0-0.432,0.35-0.781,0.78-0.781h4.611c0.43,0,0.78,0.35,0.78,0.781
							C270.898,33.138,270.548,33.487,270.118,33.487z M260.897,33.487h-4.611c-0.432,0-0.781-0.35-0.781-0.779
							c0-0.432,0.35-0.781,0.781-0.781h4.611c0.43,0,0.778,0.35,0.778,0.781C261.676,33.138,261.327,33.487,260.897,33.487z
							 M251.675,33.487h-4.611c-0.432,0-0.779-0.35-0.779-0.779c0-0.432,0.348-0.781,0.779-0.781h4.611
							c0.431,0,0.78,0.35,0.78,0.781C252.455,33.138,252.105,33.487,251.675,33.487z M242.453,33.487h-4.61
							c-0.432,0-0.782-0.35-0.782-0.779c0-0.432,0.351-0.781,0.782-0.781h4.61c0.432,0,0.781,0.35,0.781,0.781
							C243.234,33.138,242.885,33.487,242.453,33.487z M233.232,33.487h-4.609c-0.432,0-0.781-0.35-0.781-0.779
							c0-0.432,0.35-0.781,0.781-0.781h4.609c0.432,0,0.781,0.35,0.781,0.781C234.013,33.138,233.663,33.487,233.232,33.487z
							 M224.011,33.487h-4.611c-0.431,0-0.78-0.35-0.78-0.779c0-0.432,0.35-0.781,0.78-0.781h4.611c0.431,0,0.781,0.35,0.781,0.781
							C224.792,33.138,224.441,33.487,224.011,33.487z M214.788,33.487h-4.609c-0.431,0-0.781-0.35-0.781-0.779
							c0-0.432,0.351-0.781,0.781-0.781h4.609c0.431,0,0.781,0.35,0.781,0.781C215.569,33.138,215.219,33.487,214.788,33.487z
							 M205.567,33.487h-4.611c-0.43,0-0.78-0.35-0.78-0.779c0-0.432,0.351-0.781,0.78-0.781h4.611c0.432,0,0.78,0.35,0.78,0.781
							C206.348,33.138,205.999,33.487,205.567,33.487z M196.346,33.487h-4.61c-0.432,0-0.781-0.35-0.781-0.779
							c0-0.432,0.35-0.781,0.781-0.781h4.61c0.431,0,0.781,0.35,0.781,0.781C197.127,33.138,196.776,33.487,196.346,33.487z
							 M187.126,33.487h-4.611c-0.432,0-0.78-0.35-0.78-0.779c0-0.432,0.349-0.781,0.78-0.781h4.611c0.43,0,0.779,0.35,0.779,0.781
							C187.905,33.138,187.556,33.487,187.126,33.487z M177.903,33.487h-4.609c-0.433,0-0.783-0.35-0.783-0.779
							c0-0.432,0.35-0.781,0.783-0.781h4.609c0.432,0,0.78,0.35,0.78,0.781C178.684,33.138,178.335,33.487,177.903,33.487z
							 M168.682,33.487h-4.61c-0.432,0-0.779-0.35-0.779-0.779c0-0.432,0.348-0.781,0.779-0.781h4.61
							c0.432,0,0.781,0.35,0.781,0.781C169.463,33.138,169.113,33.487,168.682,33.487z M159.461,33.487h-4.611
							c-0.431,0-0.781-0.35-0.781-0.779c0-0.432,0.351-0.781,0.781-0.781h4.611c0.432,0,0.78,0.35,0.78,0.781
							C160.241,33.138,159.893,33.487,159.461,33.487z M150.239,33.487h-4.61c-0.432,0-0.781-0.35-0.781-0.779
							c0-0.432,0.35-0.781,0.781-0.781h4.61c0.432,0,0.781,0.35,0.781,0.781C151.02,33.138,150.671,33.487,150.239,33.487z
							 M141.019,33.487h-4.611c-0.431,0-0.78-0.35-0.78-0.779c0-0.432,0.35-0.781,0.78-0.781h4.611c0.431,0,0.779,0.35,0.779,0.781
							C141.798,33.138,141.449,33.487,141.019,33.487z M131.796,33.487h-4.61c-0.43,0-0.78-0.35-0.78-0.779
							c0-0.432,0.351-0.781,0.78-0.781h4.61c0.431,0,0.781,0.35,0.781,0.781C132.577,33.138,132.227,33.487,131.796,33.487z
							 M122.575,33.487h-4.611c-0.43,0-0.781-0.35-0.781-0.779c0-0.432,0.352-0.781,0.781-0.781h4.611c0.431,0,0.78,0.35,0.78,0.781
							C123.355,33.138,123.006,33.487,122.575,33.487z M113.353,33.487h-4.609c-0.432,0-0.78-0.35-0.78-0.779
							c0-0.432,0.349-0.781,0.78-0.781h4.609c0.432,0,0.782,0.35,0.782,0.781C114.135,33.138,113.784,33.487,113.353,33.487z
							 M104.133,33.487h-4.61c-0.433,0-0.782-0.35-0.782-0.779c0-0.432,0.35-0.781,0.782-0.781h4.61c0.431,0,0.78,0.35,0.78,0.781
							C104.913,33.138,104.563,33.487,104.133,33.487z M94.911,33.487H90.3c-0.431,0-0.781-0.35-0.781-0.779
							c0-0.432,0.351-0.781,0.781-0.781h4.611c0.431,0,0.78,0.35,0.78,0.781C95.691,33.138,95.342,33.487,94.911,33.487z
							 M85.689,33.487h-4.611c-0.431,0-0.78-0.35-0.78-0.779c0-0.432,0.35-0.781,0.78-0.781h4.611c0.432,0,0.781,0.35,0.781,0.781
							C86.471,33.138,86.121,33.487,85.689,33.487z M76.468,33.487h-4.61c-0.431,0-0.781-0.35-0.781-0.779
							c0-0.432,0.351-0.781,0.781-0.781h4.61c0.43,0,0.78,0.35,0.78,0.781C77.248,33.138,76.897,33.487,76.468,33.487z
							 M67.247,33.487h-4.611c-0.431,0-0.78-0.35-0.78-0.779c0-0.432,0.35-0.781,0.78-0.781h4.611c0.432,0,0.779,0.35,0.779,0.781
							C68.026,33.138,67.679,33.487,67.247,33.487z"/>
					</g>
					<g>
						<path class="st0" d="M58.024,33.487h-2.341c-0.433,0-0.781-0.35-0.781-0.779c0-0.432,0.349-0.781,0.781-0.781h2.341
							c0.432,0,0.781,0.35,0.781,0.781C58.806,33.138,58.456,33.487,58.024,33.487z"/>
					</g>
				</g>
			</g>
		</g>
		<g>
			<g>
				<g>
					<g>
						<path d="M350.841,91.982h-2.342c-0.431,0-0.78-0.35-0.78-0.781c0-0.43,0.35-0.78,0.78-0.78h2.342
							c0.432,0,0.78,0.351,0.78,0.78C351.621,91.633,351.272,91.982,350.841,91.982z"/>
					</g>
					<g>
						<path d="M343.89,91.982h-4.611c-0.431,0-0.78-0.35-0.78-0.781c0-0.43,0.35-0.78,0.78-0.78h4.611
							c0.43,0,0.779,0.351,0.779,0.78C344.669,91.633,344.319,91.982,343.89,91.982z M334.667,91.982h-4.61
							c-0.43,0-0.78-0.35-0.78-0.781c0-0.43,0.351-0.78,0.78-0.78h4.61c0.431,0,0.78,0.351,0.78,0.78
							C335.447,91.633,335.098,91.982,334.667,91.982z M325.446,91.982h-4.611c-0.432,0-0.78-0.35-0.78-0.781
							c0-0.43,0.349-0.78,0.78-0.78h4.611c0.431,0,0.78,0.351,0.78,0.78C326.227,91.633,325.877,91.982,325.446,91.982z
							 M316.225,91.982h-4.61c-0.431,0-0.78-0.35-0.78-0.781c0-0.43,0.35-0.78,0.78-0.78h4.61c0.431,0,0.781,0.351,0.781,0.78
							C317.006,91.633,316.655,91.982,316.225,91.982z M307.004,91.982h-4.612c-0.431,0-0.779-0.35-0.779-0.781
							c0-0.43,0.349-0.78,0.779-0.78h4.612c0.43,0,0.781,0.351,0.781,0.78C307.785,91.633,307.434,91.982,307.004,91.982z
							 M297.782,91.982h-4.611c-0.431,0-0.781-0.35-0.781-0.781c0-0.43,0.35-0.78,0.781-0.78h4.611c0.431,0,0.779,0.351,0.779,0.78
							C298.561,91.633,298.213,91.982,297.782,91.982z M288.56,91.982h-4.61c-0.431,0-0.78-0.35-0.78-0.781
							c0-0.43,0.35-0.78,0.78-0.78h4.61c0.433,0,0.781,0.351,0.781,0.78C289.341,91.633,288.992,91.982,288.56,91.982z
							 M279.339,91.982h-4.611c-0.431,0-0.78-0.35-0.78-0.781c0-0.43,0.35-0.78,0.78-0.78h4.611c0.432,0,0.78,0.351,0.78,0.78
							C280.119,91.633,279.771,91.982,279.339,91.982z M270.118,91.982h-4.611c-0.431,0-0.78-0.35-0.78-0.781
							c0-0.43,0.35-0.78,0.78-0.78h4.611c0.43,0,0.78,0.351,0.78,0.78C270.898,91.633,270.548,91.982,270.118,91.982z
							 M260.897,91.982h-4.611c-0.432,0-0.781-0.35-0.781-0.781c0-0.43,0.35-0.78,0.781-0.78h4.611c0.43,0,0.778,0.351,0.778,0.78
							C261.676,91.633,261.327,91.982,260.897,91.982z M251.675,91.982h-4.611c-0.432,0-0.779-0.35-0.779-0.781
							c0-0.43,0.348-0.78,0.779-0.78h4.611c0.431,0,0.78,0.351,0.78,0.78C252.455,91.633,252.105,91.982,251.675,91.982z
							 M242.453,91.982h-4.61c-0.432,0-0.782-0.35-0.782-0.781c0-0.43,0.351-0.78,0.782-0.78h4.61c0.432,0,0.781,0.351,0.781,0.78
							C243.234,91.633,242.885,91.982,242.453,91.982z M233.232,91.982h-4.609c-0.432,0-0.781-0.35-0.781-0.781
							c0-0.43,0.35-0.78,0.781-0.78h4.609c0.432,0,0.781,0.351,0.781,0.78C234.013,91.633,233.663,91.982,233.232,91.982z
							 M224.011,91.982h-4.611c-0.431,0-0.78-0.35-0.78-0.781c0-0.43,0.35-0.78,0.78-0.78h4.611c0.431,0,0.781,0.351,0.781,0.78
							C224.792,91.633,224.441,91.982,224.011,91.982z M214.788,91.982h-4.609c-0.431,0-0.781-0.35-0.781-0.781
							c0-0.43,0.351-0.78,0.781-0.78h4.609c0.431,0,0.781,0.351,0.781,0.78C215.569,91.633,215.219,91.982,214.788,91.982z
							 M205.567,91.982h-4.611c-0.43,0-0.78-0.35-0.78-0.781c0-0.43,0.351-0.78,0.78-0.78h4.611c0.432,0,0.78,0.351,0.78,0.78
							C206.348,91.633,205.999,91.982,205.567,91.982z M196.346,91.982h-4.61c-0.432,0-0.781-0.35-0.781-0.781
							c0-0.43,0.35-0.78,0.781-0.78h4.61c0.431,0,0.781,0.351,0.781,0.78C197.127,91.633,196.776,91.982,196.346,91.982z
							 M187.126,91.982h-4.611c-0.432,0-0.78-0.35-0.78-0.781c0-0.43,0.349-0.78,0.78-0.78h4.611c0.43,0,0.779,0.351,0.779,0.78
							C187.905,91.633,187.556,91.982,187.126,91.982z M177.903,91.982h-4.609c-0.433,0-0.783-0.35-0.783-0.781
							c0-0.43,0.35-0.78,0.783-0.78h4.609c0.432,0,0.78,0.351,0.78,0.78C178.684,91.633,178.335,91.982,177.903,91.982z
							 M168.682,91.982h-4.61c-0.432,0-0.779-0.35-0.779-0.781c0-0.43,0.348-0.78,0.779-0.78h4.61c0.432,0,0.781,0.351,0.781,0.78
							C169.463,91.633,169.113,91.982,168.682,91.982z M159.461,91.982h-4.611c-0.431,0-0.781-0.35-0.781-0.781
							c0-0.43,0.351-0.78,0.781-0.78h4.611c0.432,0,0.78,0.351,0.78,0.78C160.241,91.633,159.893,91.982,159.461,91.982z
							 M150.239,91.982h-4.61c-0.432,0-0.781-0.35-0.781-0.781c0-0.43,0.35-0.78,0.781-0.78h4.61c0.432,0,0.781,0.351,0.781,0.78
							C151.02,91.633,150.671,91.982,150.239,91.982z M141.019,91.982h-4.611c-0.431,0-0.78-0.35-0.78-0.781
							c0-0.43,0.35-0.78,0.78-0.78h4.611c0.431,0,0.779,0.351,0.779,0.78C141.798,91.633,141.449,91.982,141.019,91.982z
							 M131.796,91.982h-4.61c-0.43,0-0.78-0.35-0.78-0.781c0-0.43,0.351-0.78,0.78-0.78h4.61c0.431,0,0.781,0.351,0.781,0.78
							C132.577,91.633,132.227,91.982,131.796,91.982z M122.575,91.982h-4.611c-0.43,0-0.781-0.35-0.781-0.781
							c0-0.43,0.352-0.78,0.781-0.78h4.611c0.431,0,0.78,0.351,0.78,0.78C123.355,91.633,123.006,91.982,122.575,91.982z
							 M113.353,91.982h-4.609c-0.432,0-0.78-0.35-0.78-0.781c0-0.43,0.349-0.78,0.78-0.78h4.609c0.432,0,0.782,0.351,0.782,0.78
							C114.135,91.633,113.784,91.982,113.353,91.982z M104.133,91.982h-4.61c-0.433,0-0.782-0.35-0.782-0.781
							c0-0.43,0.35-0.78,0.782-0.78h4.61c0.431,0,0.78,0.351,0.78,0.78C104.913,91.633,104.563,91.982,104.133,91.982z
							 M94.911,91.982H90.3c-0.431,0-0.781-0.35-0.781-0.781c0-0.43,0.351-0.78,0.781-0.78h4.611c0.431,0,0.78,0.351,0.78,0.78
							C95.691,91.633,95.342,91.982,94.911,91.982z M85.689,91.982h-4.611c-0.431,0-0.78-0.35-0.78-0.781
							c0-0.43,0.35-0.78,0.78-0.78h4.611c0.432,0,0.781,0.351,0.781,0.78C86.471,91.633,86.121,91.982,85.689,91.982z
							 M76.468,91.982h-4.61c-0.431,0-0.781-0.35-0.781-0.781c0-0.43,0.351-0.78,0.781-0.78h4.61c0.43,0,0.78,0.351,0.78,0.78
							C77.248,91.633,76.897,91.982,76.468,91.982z M67.247,91.982h-4.611c-0.431,0-0.78-0.35-0.78-0.781
							c0-0.43,0.35-0.78,0.78-0.78h4.611c0.432,0,0.779,0.351,0.779,0.78C68.026,91.633,67.679,91.982,67.247,91.982z"/>
					</g>
					<g>
						<path d="M58.024,91.982h-2.341c-0.433,0-0.781-0.35-0.781-0.781c0-0.43,0.349-0.78,0.781-0.78h2.341
							c0.432,0,0.781,0.351,0.781,0.78C58.806,91.633,58.456,91.982,58.024,91.982z"/>
					</g>
				</g>
			</g>
		</g>
		<g>
			<g>
				<g>
					<g>
						<path d="M350.841,150.107h-2.342c-0.431,0-0.78-0.35-0.78-0.781c0-0.431,0.35-0.781,0.78-0.781h2.342
							c0.432,0,0.78,0.351,0.78,0.781C351.621,149.758,351.272,150.107,350.841,150.107z"/>
					</g>
					<g>
						<path d="M343.89,150.107h-4.611c-0.431,0-0.78-0.35-0.78-0.781c0-0.431,0.35-0.781,0.78-0.781h4.611
							c0.43,0,0.779,0.351,0.779,0.781C344.669,149.758,344.319,150.107,343.89,150.107z M334.667,150.107h-4.61
							c-0.43,0-0.78-0.35-0.78-0.781c0-0.431,0.351-0.781,0.78-0.781h4.61c0.431,0,0.78,0.351,0.78,0.781
							C335.447,149.758,335.098,150.107,334.667,150.107z M325.446,150.107h-4.611c-0.432,0-0.78-0.35-0.78-0.781
							c0-0.431,0.349-0.781,0.78-0.781h4.611c0.431,0,0.78,0.351,0.78,0.781C326.227,149.758,325.877,150.107,325.446,150.107z
							 M316.225,150.107h-4.61c-0.431,0-0.78-0.35-0.78-0.781c0-0.431,0.35-0.781,0.78-0.781h4.61c0.431,0,0.781,0.351,0.781,0.781
							C317.006,149.758,316.655,150.107,316.225,150.107z M307.004,150.107h-4.612c-0.431,0-0.779-0.35-0.779-0.781
							c0-0.431,0.349-0.781,0.779-0.781h4.612c0.43,0,0.781,0.351,0.781,0.781C307.785,149.758,307.434,150.107,307.004,150.107z
							 M297.782,150.107h-4.611c-0.431,0-0.781-0.35-0.781-0.781c0-0.431,0.35-0.781,0.781-0.781h4.611
							c0.431,0,0.779,0.351,0.779,0.781C298.561,149.758,298.213,150.107,297.782,150.107z M288.56,150.107h-4.61
							c-0.431,0-0.78-0.35-0.78-0.781c0-0.431,0.35-0.781,0.78-0.781h4.61c0.433,0,0.781,0.351,0.781,0.781
							C289.341,149.758,288.992,150.107,288.56,150.107z M279.339,150.107h-4.611c-0.431,0-0.78-0.35-0.78-0.781
							c0-0.431,0.35-0.781,0.78-0.781h4.611c0.432,0,0.78,0.351,0.78,0.781C280.119,149.758,279.771,150.107,279.339,150.107z
							 M270.118,150.107h-4.611c-0.431,0-0.78-0.35-0.78-0.781c0-0.431,0.35-0.781,0.78-0.781h4.611c0.43,0,0.78,0.351,0.78,0.781
							C270.898,149.758,270.548,150.107,270.118,150.107z M260.897,150.107h-4.611c-0.432,0-0.781-0.35-0.781-0.781
							c0-0.431,0.35-0.781,0.781-0.781h4.611c0.43,0,0.778,0.351,0.778,0.781C261.676,149.758,261.327,150.107,260.897,150.107z
							 M251.675,150.107h-4.611c-0.432,0-0.779-0.35-0.779-0.781c0-0.431,0.348-0.781,0.779-0.781h4.611
							c0.431,0,0.78,0.351,0.78,0.781C252.455,149.758,252.105,150.107,251.675,150.107z M242.453,150.107h-4.61
							c-0.432,0-0.782-0.35-0.782-0.781c0-0.431,0.351-0.781,0.782-0.781h4.61c0.432,0,0.781,0.351,0.781,0.781
							C243.234,149.758,242.885,150.107,242.453,150.107z M233.232,150.107h-4.609c-0.432,0-0.781-0.35-0.781-0.781
							c0-0.431,0.35-0.781,0.781-0.781h4.609c0.432,0,0.781,0.351,0.781,0.781C234.013,149.758,233.663,150.107,233.232,150.107z
							 M224.011,150.107h-4.611c-0.431,0-0.78-0.35-0.78-0.781c0-0.431,0.35-0.781,0.78-0.781h4.611
							c0.431,0,0.781,0.351,0.781,0.781C224.792,149.758,224.441,150.107,224.011,150.107z M214.788,150.107h-4.609
							c-0.431,0-0.781-0.35-0.781-0.781c0-0.431,0.351-0.781,0.781-0.781h4.609c0.431,0,0.781,0.351,0.781,0.781
							C215.569,149.758,215.219,150.107,214.788,150.107z M205.567,150.107h-4.611c-0.43,0-0.78-0.35-0.78-0.781
							c0-0.431,0.351-0.781,0.78-0.781h4.611c0.432,0,0.78,0.351,0.78,0.781C206.348,149.758,205.999,150.107,205.567,150.107z
							 M196.346,150.107h-4.61c-0.432,0-0.781-0.35-0.781-0.781c0-0.431,0.35-0.781,0.781-0.781h4.61
							c0.431,0,0.781,0.351,0.781,0.781C197.127,149.758,196.776,150.107,196.346,150.107z M187.126,150.107h-4.611
							c-0.432,0-0.78-0.35-0.78-0.781c0-0.431,0.349-0.781,0.78-0.781h4.611c0.43,0,0.779,0.351,0.779,0.781
							C187.905,149.758,187.556,150.107,187.126,150.107z M177.903,150.107h-4.609c-0.433,0-0.783-0.35-0.783-0.781
							c0-0.431,0.35-0.781,0.783-0.781h4.609c0.432,0,0.78,0.351,0.78,0.781C178.684,149.758,178.335,150.107,177.903,150.107z
							 M168.682,150.107h-4.61c-0.432,0-0.779-0.35-0.779-0.781c0-0.431,0.348-0.781,0.779-0.781h4.61
							c0.432,0,0.781,0.351,0.781,0.781C169.463,149.758,169.113,150.107,168.682,150.107z M159.461,150.107h-4.611
							c-0.431,0-0.781-0.35-0.781-0.781c0-0.431,0.351-0.781,0.781-0.781h4.611c0.432,0,0.78,0.351,0.78,0.781
							C160.241,149.758,159.893,150.107,159.461,150.107z M150.239,150.107h-4.61c-0.432,0-0.781-0.35-0.781-0.781
							c0-0.431,0.35-0.781,0.781-0.781h4.61c0.432,0,0.781,0.351,0.781,0.781C151.02,149.758,150.671,150.107,150.239,150.107z
							 M141.019,150.107h-4.611c-0.431,0-0.78-0.35-0.78-0.781c0-0.431,0.35-0.781,0.78-0.781h4.611
							c0.431,0,0.779,0.351,0.779,0.781C141.798,149.758,141.449,150.107,141.019,150.107z M131.796,150.107h-4.61
							c-0.43,0-0.78-0.35-0.78-0.781c0-0.431,0.351-0.781,0.78-0.781h4.61c0.431,0,0.781,0.351,0.781,0.781
							C132.577,149.758,132.227,150.107,131.796,150.107z M122.575,150.107h-4.611c-0.43,0-0.781-0.35-0.781-0.781
							c0-0.431,0.352-0.781,0.781-0.781h4.611c0.431,0,0.78,0.351,0.78,0.781C123.355,149.758,123.006,150.107,122.575,150.107z
							 M113.353,150.107h-4.609c-0.432,0-0.78-0.35-0.78-0.781c0-0.431,0.349-0.781,0.78-0.781h4.609
							c0.432,0,0.782,0.351,0.782,0.781C114.135,149.758,113.784,150.107,113.353,150.107z M104.133,150.107h-4.61
							c-0.433,0-0.782-0.35-0.782-0.781c0-0.431,0.35-0.781,0.782-0.781h4.61c0.431,0,0.78,0.351,0.78,0.781
							C104.913,149.758,104.563,150.107,104.133,150.107z M94.911,150.107H90.3c-0.431,0-0.781-0.35-0.781-0.781
							c0-0.431,0.351-0.781,0.781-0.781h4.611c0.431,0,0.78,0.351,0.78,0.781C95.691,149.758,95.342,150.107,94.911,150.107z
							 M85.689,150.107h-4.611c-0.431,0-0.78-0.35-0.78-0.781c0-0.431,0.35-0.781,0.78-0.781h4.611c0.432,0,0.781,0.351,0.781,0.781
							C86.471,149.758,86.121,150.107,85.689,150.107z M76.468,150.107h-4.61c-0.431,0-0.781-0.35-0.781-0.781
							c0-0.431,0.351-0.781,0.781-0.781h4.61c0.43,0,0.78,0.351,0.78,0.781C77.248,149.758,76.897,150.107,76.468,150.107z
							 M67.247,150.107h-4.611c-0.431,0-0.78-0.35-0.78-0.781c0-0.431,0.35-0.781,0.78-0.781h4.611c0.432,0,0.779,0.351,0.779,0.781
							C68.026,149.758,67.679,150.107,67.247,150.107z"/>
					</g>
					<g>
						<path d="M58.024,150.107h-2.341c-0.433,0-0.781-0.35-0.781-0.781c0-0.431,0.349-0.781,0.781-0.781h2.341
							c0.432,0,0.781,0.351,0.781,0.781C58.806,149.758,58.456,150.107,58.024,150.107z"/>
					</g>
				</g>
			</g>
		</g>
		<g>
			<g>
				<g>
					<g>
						<path d="M350.841,212.959h-2.342c-0.431,0-0.78-0.35-0.78-0.781c0-0.43,0.35-0.779,0.78-0.779h2.342
							c0.432,0,0.78,0.35,0.78,0.779C351.621,212.609,351.272,212.959,350.841,212.959z"/>
					</g>
					<g>
						<path d="M343.89,212.959h-4.611c-0.431,0-0.78-0.35-0.78-0.781c0-0.43,0.35-0.779,0.78-0.779h4.611
							c0.43,0,0.779,0.35,0.779,0.779C344.669,212.609,344.319,212.959,343.89,212.959z M334.667,212.959h-4.61
							c-0.43,0-0.78-0.35-0.78-0.781c0-0.43,0.351-0.779,0.78-0.779h4.61c0.431,0,0.78,0.35,0.78,0.779
							C335.447,212.609,335.098,212.959,334.667,212.959z M325.446,212.959h-4.611c-0.432,0-0.78-0.35-0.78-0.781
							c0-0.43,0.349-0.779,0.78-0.779h4.611c0.431,0,0.78,0.35,0.78,0.779C326.227,212.609,325.877,212.959,325.446,212.959z
							 M316.225,212.959h-4.61c-0.431,0-0.78-0.35-0.78-0.781c0-0.43,0.35-0.779,0.78-0.779h4.61c0.431,0,0.781,0.35,0.781,0.779
							C317.006,212.609,316.655,212.959,316.225,212.959z M307.004,212.959h-4.612c-0.431,0-0.779-0.35-0.779-0.781
							c0-0.43,0.349-0.779,0.779-0.779h4.612c0.43,0,0.781,0.35,0.781,0.779C307.785,212.609,307.434,212.959,307.004,212.959z
							 M297.782,212.959h-4.611c-0.431,0-0.781-0.35-0.781-0.781c0-0.43,0.35-0.779,0.781-0.779h4.611
							c0.431,0,0.779,0.35,0.779,0.779C298.561,212.609,298.213,212.959,297.782,212.959z M288.56,212.959h-4.61
							c-0.431,0-0.78-0.35-0.78-0.781c0-0.43,0.35-0.779,0.78-0.779h4.61c0.433,0,0.781,0.35,0.781,0.779
							C289.341,212.609,288.992,212.959,288.56,212.959z M279.339,212.959h-4.611c-0.431,0-0.78-0.35-0.78-0.781
							c0-0.43,0.35-0.779,0.78-0.779h4.611c0.432,0,0.78,0.35,0.78,0.779C280.119,212.609,279.771,212.959,279.339,212.959z
							 M270.118,212.959h-4.611c-0.431,0-0.78-0.35-0.78-0.781c0-0.43,0.35-0.779,0.78-0.779h4.611c0.43,0,0.78,0.35,0.78,0.779
							C270.898,212.609,270.548,212.959,270.118,212.959z M260.897,212.959h-4.611c-0.432,0-0.781-0.35-0.781-0.781
							c0-0.43,0.35-0.779,0.781-0.779h4.611c0.43,0,0.778,0.35,0.778,0.779C261.676,212.609,261.327,212.959,260.897,212.959z
							 M251.675,212.959h-4.611c-0.432,0-0.779-0.35-0.779-0.781c0-0.43,0.348-0.779,0.779-0.779h4.611
							c0.431,0,0.78,0.35,0.78,0.779C252.455,212.609,252.105,212.959,251.675,212.959z M242.453,212.959h-4.61
							c-0.432,0-0.782-0.35-0.782-0.781c0-0.43,0.351-0.779,0.782-0.779h4.61c0.432,0,0.781,0.35,0.781,0.779
							C243.234,212.609,242.885,212.959,242.453,212.959z M233.232,212.959h-4.609c-0.432,0-0.781-0.35-0.781-0.781
							c0-0.43,0.35-0.779,0.781-0.779h4.609c0.432,0,0.781,0.35,0.781,0.779C234.013,212.609,233.663,212.959,233.232,212.959z
							 M224.011,212.959h-4.611c-0.431,0-0.78-0.35-0.78-0.781c0-0.43,0.35-0.779,0.78-0.779h4.611c0.431,0,0.781,0.35,0.781,0.779
							C224.792,212.609,224.441,212.959,224.011,212.959z M214.788,212.959h-4.609c-0.431,0-0.781-0.35-0.781-0.781
							c0-0.43,0.351-0.779,0.781-0.779h4.609c0.431,0,0.781,0.35,0.781,0.779C215.569,212.609,215.219,212.959,214.788,212.959z
							 M205.567,212.959h-4.611c-0.43,0-0.78-0.35-0.78-0.781c0-0.43,0.351-0.779,0.78-0.779h4.611c0.432,0,0.78,0.35,0.78,0.779
							C206.348,212.609,205.999,212.959,205.567,212.959z M196.346,212.959h-4.61c-0.432,0-0.781-0.35-0.781-0.781
							c0-0.43,0.35-0.779,0.781-0.779h4.61c0.431,0,0.781,0.35,0.781,0.779C197.127,212.609,196.776,212.959,196.346,212.959z
							 M187.126,212.959h-4.611c-0.432,0-0.78-0.35-0.78-0.781c0-0.43,0.349-0.779,0.78-0.779h4.611c0.43,0,0.779,0.35,0.779,0.779
							C187.905,212.609,187.556,212.959,187.126,212.959z M177.903,212.959h-4.609c-0.433,0-0.783-0.35-0.783-0.781
							c0-0.43,0.35-0.779,0.783-0.779h4.609c0.432,0,0.78,0.35,0.78,0.779C178.684,212.609,178.335,212.959,177.903,212.959z
							 M168.682,212.959h-4.61c-0.432,0-0.779-0.35-0.779-0.781c0-0.43,0.348-0.779,0.779-0.779h4.61
							c0.432,0,0.781,0.35,0.781,0.779C169.463,212.609,169.113,212.959,168.682,212.959z M159.461,212.959h-4.611
							c-0.431,0-0.781-0.35-0.781-0.781c0-0.43,0.351-0.779,0.781-0.779h4.611c0.432,0,0.78,0.35,0.78,0.779
							C160.241,212.609,159.893,212.959,159.461,212.959z M150.239,212.959h-4.61c-0.432,0-0.781-0.35-0.781-0.781
							c0-0.43,0.35-0.779,0.781-0.779h4.61c0.432,0,0.781,0.35,0.781,0.779C151.02,212.609,150.671,212.959,150.239,212.959z
							 M141.019,212.959h-4.611c-0.431,0-0.78-0.35-0.78-0.781c0-0.43,0.35-0.779,0.78-0.779h4.611c0.431,0,0.779,0.35,0.779,0.779
							C141.798,212.609,141.449,212.959,141.019,212.959z M131.796,212.959h-4.61c-0.43,0-0.78-0.35-0.78-0.781
							c0-0.43,0.351-0.779,0.78-0.779h4.61c0.431,0,0.781,0.35,0.781,0.779C132.577,212.609,132.227,212.959,131.796,212.959z
							 M122.575,212.959h-4.611c-0.43,0-0.781-0.35-0.781-0.781c0-0.43,0.352-0.779,0.781-0.779h4.611c0.431,0,0.78,0.35,0.78,0.779
							C123.355,212.609,123.006,212.959,122.575,212.959z M113.353,212.959h-4.609c-0.432,0-0.78-0.35-0.78-0.781
							c0-0.43,0.349-0.779,0.78-0.779h4.609c0.432,0,0.782,0.35,0.782,0.779C114.135,212.609,113.784,212.959,113.353,212.959z
							 M104.133,212.959h-4.61c-0.433,0-0.782-0.35-0.782-0.781c0-0.43,0.35-0.779,0.782-0.779h4.61c0.431,0,0.78,0.35,0.78,0.779
							C104.913,212.609,104.563,212.959,104.133,212.959z M94.911,212.959H90.3c-0.431,0-0.781-0.35-0.781-0.781
							c0-0.43,0.351-0.779,0.781-0.779h4.611c0.431,0,0.78,0.35,0.78,0.779C95.691,212.609,95.342,212.959,94.911,212.959z
							 M85.689,212.959h-4.611c-0.431,0-0.78-0.35-0.78-0.781c0-0.43,0.35-0.779,0.78-0.779h4.611c0.432,0,0.781,0.35,0.781,0.779
							C86.471,212.609,86.121,212.959,85.689,212.959z M76.468,212.959h-4.61c-0.431,0-0.781-0.35-0.781-0.781
							c0-0.43,0.351-0.779,0.781-0.779h4.61c0.43,0,0.78,0.35,0.78,0.779C77.248,212.609,76.897,212.959,76.468,212.959z
							 M67.247,212.959h-4.611c-0.431,0-0.78-0.35-0.78-0.781c0-0.43,0.35-0.779,0.78-0.779h4.611c0.432,0,0.779,0.35,0.779,0.779
							C68.026,212.609,67.679,212.959,67.247,212.959z"/>
					</g>
					<g>
						<path d="M58.024,212.959h-2.341c-0.433,0-0.781-0.35-0.781-0.781c0-0.43,0.349-0.779,0.781-0.779h2.341
							c0.432,0,0.781,0.35,0.781,0.779C58.806,212.609,58.456,212.959,58.024,212.959z"/>
					</g>
				</g>
			</g>
		</g>
	</g>
	<g>
		<g>
			<g>
				<polygon class="st1" points="360.699,121.453 267.635,121.453 267.635,294.285 401.097,294.285 401.097,160.004 				"/>
				<path d="M401.097,296.094H267.635c-0.999,0-1.809-0.811-1.809-1.809V121.453c0-0.998,0.81-1.809,1.809-1.809h93.064
					c0.464,0,0.911,0.178,1.247,0.5l40.398,38.551c0.358,0.341,0.561,0.814,0.561,1.309v134.281
					C402.905,295.283,402.095,296.094,401.097,296.094z M269.443,292.477h129.844V160.777l-39.314-37.516h-90.53V292.477z"/>
			</g>
			<g>
				<polygon class="st2" points="360.699,160.004 401.097,160.004 360.699,121.453 				"/>
				<path d="M401.097,161.813h-40.398c-1,0-1.809-0.811-1.809-1.809v-38.551c0-0.725,0.432-1.377,1.096-1.664
					c0.669-0.283,1.439-0.144,1.961,0.355l40.398,38.551c0.535,0.51,0.705,1.293,0.43,1.98
					C402.5,161.363,401.836,161.813,401.097,161.813z M362.507,158.195h34.074l-34.074-32.516V158.195z"/>
			</g>
		</g>
		<g>
			<path d="M341.251,135.799h-61.435c-0.999,0-1.809-0.811-1.809-1.809c0-0.999,0.81-1.809,1.809-1.809h61.435
				c1,0,1.81,0.81,1.81,1.809C343.061,134.988,342.251,135.799,341.251,135.799z"/>
		</g>
		<g>
			<path d="M306.297,158.746h-26.48c-0.999,0-1.809-0.811-1.809-1.809c0-0.998,0.81-1.811,1.809-1.811h26.48
				c0.999,0,1.809,0.813,1.809,1.811C308.105,157.936,307.296,158.746,306.297,158.746z"/>
		</g>
		<g>
			<path d="M333.308,158.746h-15.006c-1,0-1.809-0.811-1.809-1.809c0-0.998,0.809-1.811,1.809-1.811h15.006
				c1,0,1.81,0.813,1.81,1.811C335.117,157.936,334.308,158.746,333.308,158.746z"/>
		</g>
		<g>
			<path d="M329.954,264.668h-48.725c-1,0-1.809-0.809-1.809-1.809c0-0.998,0.809-1.809,1.809-1.809h48.725
				c0.999,0,1.809,0.81,1.809,1.809C331.763,263.859,330.953,264.668,329.954,264.668z"/>
		</g>
		<g>
			<path d="M354.668,264.668h-11.649c-1,0-1.809-0.809-1.809-1.809c0-0.998,0.809-1.809,1.809-1.809h11.649
				c1,0,1.81,0.81,1.81,1.809C356.478,263.859,355.668,264.668,354.668,264.668z"/>
		</g>
		<g>
			<path d="M385.033,278.791h-95.331c-0.998,0-1.809-0.81-1.809-1.808c0-0.999,0.811-1.81,1.809-1.81h95.331
				c1,0,1.808,0.811,1.808,1.81C386.841,277.981,386.033,278.791,385.033,278.791z"/>
		</g>
		<g>
			<path d="M347.075,229.977h-8.473c-1,0-1.809-0.81-1.809-1.809c0-0.998,0.809-1.809,1.809-1.809h8.473c1,0,1.81,0.811,1.81,1.809
				C348.885,229.167,348.075,229.977,347.075,229.977z"/>
		</g>
		<g>
			<path d="M387.857,229.977h-32.042c-0.999,0-1.809-0.81-1.809-1.809c0-0.998,0.81-1.809,1.809-1.809h32.042
				c1,0,1.809,0.811,1.809,1.809C389.666,229.167,388.857,229.977,387.857,229.977z"/>
		</g>
		<g>
			<path class="st0" d="M303.119,247.456h-21.89c-1,0-1.809-0.811-1.809-1.81s0.809-1.809,1.809-1.809h21.89
				c0.999,0,1.809,0.81,1.809,1.809S304.118,247.456,303.119,247.456z"/>
		</g>
		<g>
			<path d="M322.185,247.456h-10.328c-1,0-1.809-0.811-1.809-1.81s0.809-1.809,1.809-1.809h10.328c0.999,0,1.81,0.81,1.81,1.809
				S323.184,247.456,322.185,247.456z"/>
		</g>
		<g>
			<path d="M387.857,247.456h-56.669c-1,0-1.811-0.811-1.811-1.81s0.811-1.809,1.811-1.809h56.669c1,0,1.809,0.81,1.809,1.809
				S388.857,247.456,387.857,247.456z"/>
		</g>
		<g>
			<rect x="279.817" y="170.354" class="st2" width="48.194" height="61.144"/>
			<path d="M328.011,233.306h-48.194c-0.999,0-1.809-0.811-1.809-1.809v-61.144c0-0.999,0.81-1.809,1.809-1.809h48.194
				c0.999,0,1.809,0.81,1.809,1.809v61.144C329.819,232.495,329.01,233.306,328.011,233.306z M281.624,229.689h44.578v-57.526
				h-44.578V229.689z"/>
		</g>
		<g>
			<path d="M382.738,176.048h-43.871c-0.999,0-1.808-0.811-1.808-1.811c0-0.998,0.809-1.809,1.808-1.809h43.871
				c0.999,0,1.809,0.811,1.809,1.809C384.547,175.237,383.737,176.048,382.738,176.048z"/>
		</g>
		<g>
			<path d="M355.815,193.17h-17.213c-1,0-1.809-0.81-1.809-1.81c0-0.998,0.809-1.808,1.809-1.808h17.213c1,0,1.809,0.81,1.809,1.808
				C357.624,192.36,356.815,193.17,355.815,193.17z"/>
		</g>
		<g>
			<path d="M370.027,193.17h-7.063c-0.999,0-1.809-0.81-1.809-1.81c0-0.998,0.809-1.808,1.809-1.808h7.063
				c0.998,0,1.809,0.81,1.809,1.808C371.836,192.36,371.025,193.17,370.027,193.17z"/>
		</g>
		<g>
			<path d="M386.798,209.943h-47.665c-0.999,0-1.81-0.812-1.81-1.81c0-0.998,0.81-1.809,1.81-1.809h47.665
				c0.999,0,1.809,0.811,1.809,1.809C388.607,209.132,387.797,209.943,386.798,209.943z"/>
		</g>
	</g>
	<g>
		<g>
			<g>
				<path class="st3" d="M76.893,147.96v133.797c40.034,0,150.072,0,202.823,0V147.96C223.028,147.96,111.255,147.96,76.893,147.96z
					"/>
				<path d="M279.716,283.508H76.893c-0.967,0-1.752-0.783-1.752-1.751V147.96c0-0.97,0.785-1.753,1.752-1.753h202.823
					c0.968,0,1.751,0.783,1.751,1.753v133.797C281.467,282.725,280.684,283.508,279.716,283.508z M78.646,280.004h199.318V149.711
					H78.646V280.004z"/>
			</g>
			<g>
				<path class="st4" d="M279.716,136.619c0-1.502-1.22-2.722-2.723-2.722H79.614c-1.502,0-2.722,1.22-2.722,2.722v11.341
					c34.362,0,146.136,0,202.823,0V136.619z"/>
				<path d="M279.716,149.711H76.893c-0.967,0-1.752-0.784-1.752-1.751v-11.341c0-2.467,2.007-4.474,4.474-4.474h197.379
					c2.467,0,4.474,2.007,4.474,4.474v11.341C281.467,148.927,280.684,149.711,279.716,149.711z M78.646,146.207h199.318v-9.588
					c0-0.535-0.435-0.969-0.971-0.969H79.614c-0.535,0-0.969,0.434-0.969,0.969V146.207z"/>
			</g>
		</g>
		<g>
			<path class="st5" d="M169.716,259.13H88.524c-0.968,0-1.752-0.784-1.752-1.754c0-0.967,0.784-1.751,1.752-1.751h81.191
				c0.967,0,1.752,0.784,1.752,1.751C171.468,258.346,170.683,259.13,169.716,259.13z"/>
		</g>
		<g>
			<path class="st5" d="M210.901,259.13h-19.416c-0.967,0-1.751-0.784-1.751-1.754c0-0.967,0.784-1.751,1.751-1.751h19.416
				c0.967,0,1.753,0.784,1.753,1.751C212.654,258.346,211.868,259.13,210.901,259.13z"/>
		</g>
		<g>
			<path class="st5" d="M261.497,268.2H102.646c-0.968,0-1.752-0.784-1.752-1.753c0-0.968,0.784-1.752,1.752-1.752h158.852
				c0.968,0,1.753,0.784,1.753,1.752C263.25,267.416,262.465,268.2,261.497,268.2z"/>
		</g>
		<g>
			<path class="st5" d="M198.249,235.487H88.524c-0.968,0-1.752-0.784-1.752-1.751c0-0.97,0.784-1.753,1.752-1.753h109.725
				c0.967,0,1.753,0.783,1.753,1.753C200.002,234.703,199.216,235.487,198.249,235.487z"/>
		</g>
		<g>
			<path class="st5" d="M266.202,235.487h-53.392c-0.967,0-1.751-0.784-1.751-1.751c0-0.97,0.784-1.753,1.751-1.753h53.392
				c0.967,0,1.752,0.783,1.752,1.753C267.954,234.703,267.169,235.487,266.202,235.487z"/>
		</g>
		<g>
			<path class="st5" d="M125.001,248.074H88.524c-0.968,0-1.752-0.785-1.752-1.753c0-0.968,0.784-1.752,1.752-1.752h36.477
				c0.969,0,1.752,0.784,1.752,1.752C126.753,247.289,125.97,248.074,125.001,248.074z"/>
		</g>
		<g>
			<path class="st5" d="M156.773,248.074h-17.209c-0.968,0-1.752-0.785-1.752-1.753c0-0.968,0.784-1.752,1.752-1.752h17.209
				c0.967,0,1.751,0.784,1.751,1.752C158.523,247.289,157.739,248.074,156.773,248.074z"/>
		</g>
		<g>
			<path class="st5" d="M266.202,248.074h-94.428c-0.969,0-1.754-0.785-1.754-1.753c0-0.968,0.785-1.752,1.754-1.752h94.428
				c0.967,0,1.752,0.784,1.752,1.752C267.954,247.289,267.169,248.074,266.202,248.074z"/>
		</g>
		<g>
			<rect x="88.524" y="161.725" class="st6" width="87.059" height="55.446"/>
			<path d="M175.583,218.923H88.524c-0.968,0-1.752-0.784-1.752-1.752v-55.446c0-0.969,0.784-1.752,1.752-1.752h87.059
				c0.968,0,1.753,0.783,1.753,1.752v55.446C177.336,218.139,176.551,218.923,175.583,218.923z M90.276,215.417h83.556v-51.941
				H90.276V215.417z"/>
		</g>
		<g>
			<rect x="184.313" y="161.725" class="st4" width="81.889" height="20.365"/>
			<path d="M266.202,183.841h-81.889c-0.967,0-1.752-0.784-1.752-1.751v-20.365c0-0.969,0.785-1.752,1.752-1.752h81.889
				c0.967,0,1.752,0.783,1.752,1.752v20.365C267.954,183.057,267.169,183.841,266.202,183.841z M186.064,180.337h78.386v-16.861
				h-78.386V180.337z"/>
		</g>
		<g>
			<path class="st5" d="M212.263,196.088h-26.588c-0.969,0-1.752-0.784-1.752-1.752c0-0.969,0.783-1.752,1.752-1.752h26.588
				c0.967,0,1.751,0.783,1.751,1.752C214.014,195.304,213.23,196.088,212.263,196.088z"/>
		</g>
		<g>
			<path class="st5" d="M229.555,196.088h-11.226c-0.968,0-1.751-0.784-1.751-1.752c0-0.969,0.783-1.752,1.751-1.752h11.226
				c0.968,0,1.752,0.783,1.752,1.752C231.307,195.304,230.523,196.088,229.555,196.088z"/>
		</g>
		<g>
			<path class="st5" d="M238.399,212.755h-52.725c-0.969,0-1.752-0.784-1.752-1.753c0-0.968,0.783-1.752,1.752-1.752h52.725
				c0.967,0,1.75,0.784,1.75,1.752C240.149,211.971,239.366,212.755,238.399,212.755z"/>
		</g>
		<g>
			<path class="st5" d="M259.83,212.755h-11.566c-0.966,0-1.751-0.784-1.751-1.753c0-0.968,0.785-1.752,1.751-1.752h11.566
				c0.967,0,1.751,0.784,1.751,1.752C261.581,211.971,260.797,212.755,259.83,212.755z"/>
		</g>
	</g>
	<g>
		<g>
			<g>
				<polygon class="st1" points="42.207,112.611 135.27,112.611 135.27,285.444 1.81,285.444 1.81,151.162 				"/>
				<path d="M135.27,287.252H1.81c-0.999,0-1.81-0.81-1.81-1.808V151.162c0-0.494,0.204-0.967,0.561-1.309l40.399-38.551
					c0.336-0.32,0.783-0.5,1.247-0.5h93.063c0.999,0,1.808,0.81,1.808,1.809v172.833C137.078,286.442,136.27,287.252,135.27,287.252
					z M3.618,283.635h129.843V114.421H42.933L3.618,151.936V283.635z"/>
			</g>
			<g>
				<polygon class="st2" points="42.207,151.162 1.81,151.162 42.207,112.611 				"/>
				<path d="M42.207,152.971H1.81c-0.739,0-1.404-0.449-1.679-1.136c-0.276-0.687-0.104-1.472,0.43-1.982l40.399-38.551
					c0.522-0.499,1.293-0.639,1.959-0.354c0.666,0.285,1.098,0.94,1.098,1.663v38.551C44.017,152.16,43.207,152.971,42.207,152.971z
					 M6.325,149.354h34.073v-32.516L6.325,149.354z"/>
			</g>
		</g>
		<g>
			<path d="M123.089,126.957H61.655c-1,0-1.809-0.811-1.809-1.809c0-0.999,0.809-1.81,1.809-1.81h61.434c1,0,1.809,0.811,1.809,1.81
				C124.897,126.146,124.089,126.957,123.089,126.957z"/>
		</g>
		<g>
			<path d="M123.089,149.904H96.609c-0.999,0-1.808-0.811-1.808-1.809c0-0.998,0.809-1.809,1.808-1.809h26.479
				c1,0,1.809,0.811,1.809,1.809C124.897,149.094,124.089,149.904,123.089,149.904z"/>
		</g>
		<g>
			<path d="M84.604,149.904H69.599c-1,0-1.809-0.811-1.809-1.809c0-0.998,0.809-1.809,1.809-1.809h15.005
				c0.999,0,1.809,0.811,1.809,1.809C86.412,149.094,85.603,149.904,84.604,149.904z"/>
		</g>
		<g>
			<path d="M121.675,255.827H72.952c-0.999,0-1.809-0.81-1.809-1.81c0-0.998,0.81-1.808,1.809-1.808h48.723
				c1,0,1.811,0.809,1.811,1.808C123.485,255.018,122.675,255.827,121.675,255.827z"/>
		</g>
		<g>
			<path d="M59.888,255.827h-11.65c-1,0-1.811-0.81-1.811-1.81c0-0.998,0.811-1.808,1.811-1.808h11.65c1,0,1.809,0.809,1.809,1.808
				C61.696,255.018,60.888,255.827,59.888,255.827z"/>
		</g>
		<g>
			<path d="M113.202,269.95H17.873c-1,0-1.81-0.81-1.81-1.809c0-0.999,0.81-1.81,1.81-1.81h95.329c0.998,0,1.809,0.811,1.809,1.81
				C115.011,269.14,114.2,269.95,113.202,269.95z"/>
		</g>
		<g>
			<path d="M121.675,238.615H99.786c-0.999,0-1.808-0.811-1.808-1.81c0-0.999,0.809-1.81,1.808-1.81h21.889
				c1,0,1.811,0.811,1.811,1.81C123.485,237.805,122.675,238.615,121.675,238.615z"/>
		</g>
		<g>
			<path d="M91.049,238.615H80.722c-0.999,0-1.809-0.811-1.809-1.81c0-0.999,0.81-1.81,1.809-1.81h10.327
				c0.999,0,1.81,0.811,1.81,1.81C92.858,237.805,92.048,238.615,91.049,238.615z"/>
		</g>
		<g>
			<path d="M71.718,238.615h-56.67c-0.999,0-1.81-0.811-1.81-1.81c0-0.999,0.811-1.81,1.81-1.81h56.67c1,0,1.81,0.811,1.81,1.81
				C73.527,237.805,72.718,238.615,71.718,238.615z"/>
		</g>
		<g>
			<rect x="74.895" y="165.129" class="st6" width="48.193" height="21.008"/>
			<path d="M123.089,187.645H74.896c-0.833,0-1.508-0.675-1.508-1.509v-21.008c0-0.832,0.675-1.508,1.508-1.508h48.193
				c0.832,0,1.507,0.676,1.507,1.508v21.008C124.596,186.971,123.921,187.645,123.089,187.645z M76.403,184.63h45.179v-17.993
				H76.403V184.63z"/>
		</g>
		<g>
			<rect x="74.895" y="195.608" class="st5" width="48.193" height="21.009"/>
			<path d="M123.089,218.124H74.896c-0.833,0-1.508-0.675-1.508-1.507v-21.009c0-0.832,0.675-1.507,1.508-1.507h48.193
				c0.832,0,1.507,0.675,1.507,1.507v21.009C124.596,217.449,123.921,218.124,123.089,218.124z M76.403,215.109h45.179v-17.993
				H76.403V215.109z"/>
		</g>
		<g>
			<g>
				<path class="st2" d="M15.487,179.075c4.123-7.094,11.788-11.878,20.585-11.878v25.021L15.487,179.075z"/>
				<path d="M36.072,193.726c-0.282,0-0.563-0.079-0.812-0.235l-20.584-13.144c-0.682-0.436-0.898-1.329-0.492-2.028
					c4.527-7.79,12.913-12.628,21.888-12.628c0.833,0,1.508,0.675,1.508,1.507v25.021c0,0.553-0.301,1.058-0.783,1.323
					C36.57,193.665,36.321,193.726,36.072,193.726z M17.557,178.608l17.009,10.86v-20.713
					C27.715,169.227,21.402,172.882,17.557,178.608z"/>
			</g>
			<g>
				<path class="st4" d="M36.072,192.218v-25.021c13.153,0,23.815,10.663,23.815,23.815s-10.662,23.815-23.815,23.815
					c-13.151,0-23.816-10.663-23.816-23.815c0-4.354,1.189-8.425,3.231-11.938L36.072,192.218z"/>
				<path d="M36.072,216.336c-13.963,0-25.322-11.36-25.322-25.323c0-4.44,1.188-8.829,3.435-12.694
					c0.205-0.355,0.548-0.611,0.947-0.708c0.399-0.096,0.82-0.024,1.166,0.194l18.267,11.664v-22.271
					c0-0.832,0.675-1.507,1.507-1.507c13.963,0,25.323,11.359,25.323,25.322C61.396,204.976,50.035,216.336,36.072,216.336z
					 M16.048,181.221c-1.498,3.052-2.283,6.406-2.283,9.792c0,12.302,10.006,22.308,22.308,22.308
					c12.302,0,22.308-10.006,22.308-22.308c0-11.793-9.2-21.48-20.8-22.257v23.462c0,0.553-0.301,1.058-0.783,1.323
					c-0.482,0.266-1.07,0.245-1.536-0.051L16.048,181.221z"/>
			</g>
		</g>
	</g>
	<g>
		<g>
			<g>
				<g>
					<path class="st7" d="M219.677,19.837c0.184-0.945,0.288-1.919,0.288-2.922c0-8.397-6.81-15.21-15.21-15.21h-9.54
						c-8.4,0-15.208,6.813-15.208,15.21c0,1.003,0.103,1.979,0.287,2.922c6.231-1.895,12.841-2.922,19.691-2.922
						C206.839,16.915,213.446,17.942,219.677,19.837z"/>
					<path d="M219.677,21.542c-0.166,0-0.333-0.025-0.495-0.075c-12.437-3.78-25.953-3.78-38.392,0
						c-0.463,0.14-0.961,0.08-1.374-0.169c-0.413-0.248-0.703-0.661-0.795-1.135c-0.213-1.079-0.319-2.173-0.319-3.248
						C178.302,7.588,185.89,0,195.215,0h9.54c9.326,0,16.914,7.588,16.914,16.915c0,1.069-0.108,2.163-0.319,3.248
						c-0.092,0.473-0.381,0.886-0.794,1.135C220.288,21.458,219.983,21.542,219.677,21.542z M195.215,3.41
						c-7.446,0-13.504,6.058-13.504,13.505c0,0.244,0.008,0.487,0.021,0.733c11.882-3.238,24.624-3.238,36.507,0
						c0.014-0.246,0.02-0.491,0.02-0.733c0-7.447-6.06-13.505-13.505-13.505H195.215z"/>
				</g>
				<g>
					<path class="st2" d="M219.677,19.837c-6.23-1.895-12.838-2.922-19.691-2.922c-6.851,0-13.46,1.027-19.691,2.922
						c-27.752,8.435-47.951,34.216-47.951,64.722c0,31.375,21.362,57.75,50.332,65.4c5.526,1.459,11.326,2.244,17.311,2.244
						c5.986,0,11.785-0.785,17.312-2.244c28.97-7.65,50.333-34.025,50.333-65.4C267.63,54.053,247.429,28.271,219.677,19.837z"/>
					<path d="M199.985,153.908c-5.991,0-11.963-0.775-17.746-2.301c-30.382-8.023-51.602-35.594-51.602-67.049
						c0-30.751,19.756-57.416,49.16-66.354c13.082-3.977,27.295-3.977,40.375,0l0,0c29.404,8.938,49.16,35.604,49.16,66.354
						c0,31.455-21.22,59.025-51.602,67.049C211.949,153.133,205.977,153.908,199.985,153.908z M199.985,18.62
						c-6.518,0-12.977,0.957-19.195,2.847c-27.958,8.498-46.742,33.853-46.742,63.092c0,29.908,20.175,56.125,49.062,63.752
						c10.999,2.903,22.753,2.905,33.752,0c28.888-7.627,49.064-33.844,49.064-63.752c0-29.239-18.785-54.594-46.743-63.092
						C212.963,19.577,206.505,18.62,199.985,18.62z"/>
				</g>
			</g>
			<g>
				<circle class="st6" cx="199.984" cy="84.104" r="47.364"/>
				<path d="M199.985,133.174c-27.057,0-49.068-22.013-49.068-49.069c0-27.056,22.012-49.069,49.068-49.069
					c27.057,0,49.068,22.014,49.068,49.069C249.054,111.161,227.042,133.174,199.985,133.174z M199.985,38.446
					c-25.176,0-45.66,20.481-45.66,45.658s20.484,45.659,45.66,45.659c25.177,0,45.659-20.482,45.659-45.659
					S225.162,38.446,199.985,38.446z"/>
			</g>
			<g>
				<g>
					<path class="st8" d="M217.297,149.959c-5.526,1.459-11.325,2.244-17.312,2.244c-5.984,0-11.784-0.785-17.311-2.244v104.974
						h34.622V149.959z"/>
					<path d="M217.297,256.638h-34.622c-0.94,0-1.704-0.762-1.704-1.705V149.959c0-0.529,0.245-1.029,0.664-1.351
						c0.419-0.321,0.964-0.432,1.475-0.298c10.999,2.903,22.753,2.905,33.752,0c0.512-0.136,1.056-0.025,1.476,0.298
						c0.419,0.321,0.664,0.821,0.664,1.351v104.974C219.001,255.876,218.239,256.638,217.297,256.638z M184.38,253.229h31.213
						V152.136c-10.223,2.353-20.992,2.353-31.213,0V253.229z"/>
				</g>
			</g>
			<g>
				<g>
					<path class="st7" d="M230.639,236.696c0,10.611-8.603,19.211-19.211,19.211h-23.482c-10.608,0-19.211-8.6-19.211-19.211V189.2
						c0-10.611,8.602-19.213,19.211-19.213h23.482c10.608,0,19.211,8.602,19.211,19.213V236.696z"/>
					<path d="M211.428,257.612h-23.482c-11.534,0-20.917-9.383-20.917-20.916V189.2c0-11.534,9.383-20.918,20.917-20.918h23.482
						c11.533,0,20.917,9.384,20.917,20.918v47.496C232.345,248.23,222.961,257.612,211.428,257.612z M187.945,171.692
						c-9.653,0-17.507,7.854-17.507,17.508v47.496c0,9.652,7.854,17.505,17.507,17.505h23.482c9.652,0,17.507-7.853,17.507-17.505
						V189.2c0-9.654-7.855-17.508-17.507-17.508H187.945z"/>
				</g>
				<g>
					<path class="st9" d="M220.3,194.107h-41.827c-0.941,0-1.705-0.763-1.705-1.705c0-0.942,0.764-1.705,1.705-1.705H220.3
						c0.941,0,1.705,0.763,1.705,1.705C222.005,193.345,221.241,194.107,220.3,194.107z"/>
				</g>
				<g>
					<path class="st9" d="M220.3,214.654h-41.827c-0.941,0-1.705-0.764-1.705-1.705c0-0.942,0.764-1.706,1.705-1.706H220.3
						c0.941,0,1.705,0.764,1.705,1.706C222.005,213.891,221.241,214.654,220.3,214.654z"/>
				</g>
				<g>
					<path class="st9" d="M220.6,236.001h-41.826c-0.941,0-1.704-0.763-1.704-1.705c0-0.941,0.763-1.705,1.704-1.705H220.6
						c0.943,0,1.706,0.764,1.706,1.705C222.306,235.238,221.543,236.001,220.6,236.001z"/>
				</g>
			</g>
		</g>
		<g>
			<g>
				<path d="M212.811,66.795h-38.554c-0.94,0-1.704-0.764-1.704-1.705c0-0.942,0.764-1.705,1.704-1.705h38.554
					c0.942,0,1.705,0.763,1.705,1.705C214.516,66.031,213.753,66.795,212.811,66.795z"/>
			</g>
			<g>
				<path d="M232.851,83.678h-37.318c-0.941,0-1.704-0.765-1.704-1.706c0-0.942,0.763-1.705,1.704-1.705h37.318
					c0.941,0,1.704,0.763,1.704,1.705C234.555,82.913,233.792,83.678,232.851,83.678z"/>
			</g>
			<g>
				<path d="M188.786,83.678h-4.473c-0.941,0-1.705-0.765-1.705-1.706c0-0.942,0.764-1.705,1.705-1.705h4.473
					c0.941,0,1.704,0.763,1.704,1.705C190.49,82.913,189.727,83.678,188.786,83.678z"/>
			</g>
			<g>
				<path d="M212.811,105.039h-38.554c-0.94,0-1.704-0.763-1.704-1.705s0.764-1.704,1.704-1.704h38.554
					c0.942,0,1.705,0.762,1.705,1.704S213.753,105.039,212.811,105.039z"/>
			</g>
		</g>
	</g>
	<g>
		<g>
			<g>
				<path class="st3" d="M116.704,202.136v133.797c40.034,0,150.072,0,202.823,0V202.136
					C262.842,202.136,151.067,202.136,116.704,202.136z"/>
				<path d="M319.528,337.685H116.704c-0.967,0-1.751-0.784-1.751-1.752V202.136c0-0.969,0.784-1.753,1.751-1.753h202.824
					c0.967,0,1.752,0.784,1.752,1.753v133.797C321.28,336.9,320.495,337.685,319.528,337.685z M118.458,334.18h199.318V203.887
					H118.458V334.18z"/>
			</g>
			<g>
				<path class="st4" d="M319.527,190.796c0-1.503-1.221-2.723-2.72-2.723H119.427c-1.504,0-2.723,1.22-2.723,2.723v11.34
					c34.363,0,146.138,0,202.823,0V190.796z"/>
				<path d="M319.528,203.887H116.704c-0.967,0-1.751-0.783-1.751-1.751v-11.34c0-2.468,2.007-4.475,4.474-4.475h197.381
					c2.467,0,4.473,2.007,4.473,4.475v11.34C321.28,203.104,320.495,203.887,319.528,203.887z M118.458,200.383h199.318v-9.587
					c0-0.536-0.436-0.971-0.969-0.971H119.427c-0.535,0-0.969,0.435-0.969,0.971V200.383z"/>
			</g>
		</g>
		<g>
			<rect x="129.291" y="216.451" class="st2" width="50.611" height="40.489"/>
			<path d="M179.902,258.693h-50.611c-0.968,0-1.751-0.783-1.751-1.753v-40.489c0-0.968,0.783-1.752,1.751-1.752h50.611
				c0.968,0,1.751,0.784,1.751,1.752v40.489C181.653,257.91,180.87,258.693,179.902,258.693z M131.042,255.189h47.109v-36.986
				h-47.109V255.189z"/>
		</g>
		<g>
			<rect x="193.529" y="216.451" class="st4" width="50.611" height="40.489"/>
			<path d="M244.141,258.693h-50.611c-0.967,0-1.751-0.783-1.751-1.753v-40.489c0-0.968,0.784-1.752,1.751-1.752h50.611
				c0.967,0,1.753,0.784,1.753,1.752v40.489C245.894,257.91,245.107,258.693,244.141,258.693z M195.281,255.189h47.108v-36.986
				h-47.108V255.189z"/>
		</g>
		<g>
			<rect x="256.6" y="216.451" class="st6" width="50.61" height="40.489"/>
			<path d="M307.21,258.693H256.6c-0.967,0-1.752-0.783-1.752-1.753v-40.489c0-0.968,0.785-1.752,1.752-1.752h50.61
				c0.969,0,1.753,0.784,1.753,1.752v40.489C308.963,257.91,308.179,258.693,307.21,258.693z M258.351,255.189h47.109v-36.986
				h-47.109V255.189z"/>
		</g>
		<g>
			<g>
				<path d="M160.825,269.302h-31.534c-0.806,0-1.46-0.652-1.46-1.46c0-0.807,0.654-1.46,1.46-1.46h31.534
					c0.806,0,1.461,0.653,1.461,1.46C162.286,268.649,161.631,269.302,160.825,269.302z"/>
			</g>
			<g>
				<path d="M179.902,269.302h-11.29c-0.807,0-1.46-0.652-1.46-1.46c0-0.807,0.653-1.46,1.46-1.46h11.29
					c0.807,0,1.461,0.653,1.461,1.46C181.363,268.649,180.709,269.302,179.902,269.302z"/>
			</g>
			<g>
				<path d="M177.955,286.042h-48.664c-0.806,0-1.46-0.652-1.46-1.46c0-0.806,0.654-1.459,1.46-1.459h48.664
					c0.806,0,1.461,0.653,1.461,1.459C179.416,285.39,178.761,286.042,177.955,286.042z"/>
			</g>
			<g>
				<path d="M139.023,302.784h-9.732c-0.806,0-1.46-0.652-1.46-1.46c0-0.807,0.654-1.46,1.46-1.46h9.732
					c0.807,0,1.46,0.653,1.46,1.46C140.483,302.132,139.83,302.784,139.023,302.784z"/>
			</g>
			<g>
				<path d="M177.955,302.784h-30.756c-0.806,0-1.46-0.652-1.46-1.46c0-0.807,0.654-1.46,1.46-1.46h30.756
					c0.806,0,1.461,0.653,1.461,1.46C179.416,302.132,178.761,302.784,177.955,302.784z"/>
			</g>
			<g>
				<path d="M151.093,319.525h-21.802c-0.806,0-1.46-0.654-1.46-1.461c0-0.806,0.654-1.461,1.46-1.461h21.802
					c0.806,0,1.459,0.655,1.459,1.461C152.552,318.871,151.898,319.525,151.093,319.525z"/>
			</g>
			<g>
				<path d="M171.727,319.525h-12.46c-0.806,0-1.46-0.654-1.46-1.461c0-0.806,0.654-1.461,1.46-1.461h12.46
					c0.806,0,1.459,0.655,1.459,1.461C173.186,318.871,172.533,319.525,171.727,319.525z"/>
			</g>
		</g>
		<g>
			<g>
				<path d="M225.064,270.493h-31.534c-0.806,0-1.46-0.653-1.46-1.461c0-0.806,0.654-1.46,1.46-1.46h31.534
					c0.807,0,1.461,0.654,1.461,1.46C226.524,269.84,225.87,270.493,225.064,270.493z"/>
			</g>
			<g>
				<path d="M244.141,270.493h-11.29c-0.807,0-1.461-0.653-1.461-1.461c0-0.806,0.654-1.46,1.461-1.46h11.29
					c0.807,0,1.461,0.654,1.461,1.46C245.602,269.84,244.947,270.493,244.141,270.493z"/>
			</g>
			<g>
				<path d="M242.194,287.232h-48.665c-0.806,0-1.46-0.652-1.46-1.459c0-0.808,0.654-1.46,1.46-1.46h48.665
					c0.805,0,1.46,0.652,1.46,1.46C243.654,286.58,242.999,287.232,242.194,287.232z"/>
			</g>
			<g>
				<path d="M203.262,303.976h-9.732c-0.806,0-1.46-0.653-1.46-1.461c0-0.808,0.654-1.46,1.46-1.46h9.732
					c0.807,0,1.461,0.652,1.461,1.46C204.723,303.322,204.068,303.976,203.262,303.976z"/>
			</g>
			<g>
				<path d="M242.194,303.976h-30.758c-0.805,0-1.459-0.653-1.459-1.461c0-0.808,0.654-1.46,1.459-1.46h30.758
					c0.805,0,1.46,0.652,1.46,1.46C243.654,303.322,242.999,303.976,242.194,303.976z"/>
			</g>
			<g>
				<path d="M215.33,320.715h-21.801c-0.806,0-1.46-0.652-1.46-1.46c0-0.806,0.654-1.459,1.46-1.459h21.801
					c0.807,0,1.46,0.653,1.46,1.459C216.79,320.063,216.137,320.715,215.33,320.715z"/>
			</g>
			<g>
				<path d="M235.964,320.715h-12.457c-0.806,0-1.461-0.652-1.461-1.46c0-0.806,0.655-1.459,1.461-1.459h12.457
					c0.808,0,1.461,0.653,1.461,1.459C237.425,320.063,236.771,320.715,235.964,320.715z"/>
			</g>
		</g>
		<g>
			<g>
				<path d="M288.135,270.493H256.6c-0.806,0-1.461-0.653-1.461-1.461c0-0.806,0.655-1.46,1.461-1.46h31.535
					c0.806,0,1.459,0.654,1.459,1.46C289.594,269.84,288.94,270.493,288.135,270.493z"/>
			</g>
			<g>
				<path class="st0" d="M307.21,270.493h-11.29c-0.807,0-1.461-0.653-1.461-1.461c0-0.806,0.654-1.46,1.461-1.46h11.29
					c0.808,0,1.461,0.654,1.461,1.46C308.671,269.84,308.018,270.493,307.21,270.493z"/>
			</g>
			<g>
				<path d="M305.264,287.232H256.6c-0.806,0-1.461-0.652-1.461-1.459c0-0.808,0.655-1.46,1.461-1.46h48.664
					c0.807,0,1.46,0.652,1.46,1.46C306.724,286.58,306.07,287.232,305.264,287.232z"/>
			</g>
			<g>
				<path d="M266.333,303.976H256.6c-0.806,0-1.461-0.653-1.461-1.461c0-0.808,0.655-1.46,1.461-1.46h9.733
					c0.805,0,1.458,0.652,1.458,1.46C267.791,303.322,267.138,303.976,266.333,303.976z"/>
			</g>
			<g>
				<path d="M305.264,303.976h-30.756c-0.806,0-1.46-0.653-1.46-1.461c0-0.808,0.654-1.46,1.46-1.46h30.756
					c0.807,0,1.46,0.652,1.46,1.46C306.724,303.322,306.07,303.976,305.264,303.976z"/>
			</g>
			<g>
				<path d="M278.401,320.715H256.6c-0.806,0-1.461-0.652-1.461-1.46c0-0.806,0.655-1.459,1.461-1.459h21.802
					c0.805,0,1.46,0.653,1.46,1.459C279.861,320.063,279.206,320.715,278.401,320.715z"/>
			</g>
			<g>
				<path d="M299.035,320.715h-12.46c-0.805,0-1.458-0.652-1.458-1.46c0-0.806,0.653-1.459,1.458-1.459h12.46
					c0.806,0,1.461,0.653,1.461,1.459C300.496,320.063,299.841,320.715,299.035,320.715z"/>
			</g>
		</g>
	</g>
</g>
</svg>