<!-- Generator: Adobe Illustrator 17.0.0, SVG Export Plug-In  -->
<svg version="1.1"
	 xmlns="http://www.w3.org/2000/svg" xmlns:xlink="http://www.w3.org/1999/xlink" xmlns:a="http://ns.adobe.com/AdobeSVGViewerExtensions/3.0/"
	 x="0px" y="0px" width="333.531px" height="18.459px" viewBox="0 0 333.531 18.459"
	 style="enable-background:new 0 0 333.531 18.459;" xml:space="preserve">
<style type="text/css">
	.st0{fill:#F16529;}
</style>
<defs>
</defs>
<g>
	<path class="st0" d="M9.382,18.205L1.79,4.951L1.638,4.164v14.041H0V0h0.851l7.592,13.267l0.165,0.774V0h1.638v18.205H9.382z"/>
	<path class="st0" d="M22.274,16.123c-0.199,0.465-0.472,0.871-0.819,1.219s-0.753,0.62-1.219,0.818
		c-0.465,0.199-0.96,0.299-1.485,0.299H17.71c-0.525,0-1.02-0.1-1.485-0.299c-0.465-0.198-0.872-0.471-1.219-0.818
		s-0.62-0.754-0.819-1.219s-0.298-0.961-0.298-1.485V8.772c0-0.524,0.1-1.021,0.298-1.485s0.472-0.871,0.819-1.219
		s0.753-0.62,1.219-0.818c0.465-0.199,0.96-0.299,1.485-0.299h1.041c0.525,0,1.02,0.1,1.485,0.299
		c0.465,0.198,0.872,0.471,1.219,0.818s0.62,0.754,0.819,1.219s0.298,0.961,0.298,1.485v5.865
		C22.572,15.162,22.473,15.658,22.274,16.123z M21.011,8.684c0-0.313-0.059-0.607-0.178-0.883c-0.119-0.274-0.279-0.514-0.482-0.717
		s-0.442-0.363-0.717-0.482s-0.569-0.178-0.882-0.178H17.71c-0.313,0-0.607,0.059-0.882,0.178s-0.514,0.279-0.717,0.482
		s-0.364,0.442-0.482,0.717c-0.119,0.275-0.178,0.57-0.178,0.883v6.043c0,0.313,0.059,0.607,0.178,0.883
		c0.119,0.274,0.279,0.514,0.482,0.717s0.442,0.363,0.717,0.482s0.569,0.178,0.882,0.178h1.041c0.313,0,0.607-0.059,0.882-0.178
		s0.514-0.279,0.717-0.482s0.364-0.442,0.482-0.717c0.119-0.275,0.178-0.57,0.178-0.883V8.684z"/>
	<path class="st0" d="M29.771,18.205h-0.774l-4.608-13h1.562l3.39,9.852l0.051,0.673l0.051-0.673l3.377-9.852h1.562L29.771,18.205z"
		/>
	<path class="st0" d="M44.58,16.123c-0.199,0.465-0.472,0.871-0.819,1.219s-0.753,0.62-1.219,0.818
		c-0.465,0.199-0.96,0.299-1.485,0.299h-1.041c-0.525,0-1.02-0.1-1.485-0.299c-0.465-0.198-0.872-0.471-1.219-0.818
		s-0.62-0.754-0.819-1.219s-0.298-0.961-0.298-1.485V8.772c0-0.524,0.1-1.021,0.298-1.485s0.472-0.871,0.819-1.219
		s0.753-0.62,1.219-0.818c0.465-0.199,0.96-0.299,1.485-0.299h1.041c0.525,0,1.02,0.1,1.485,0.299
		c0.465,0.198,0.872,0.471,1.219,0.818s0.62,0.754,0.819,1.219s0.298,0.961,0.298,1.485v3.06h-7.122v2.895
		c0,0.313,0.059,0.607,0.178,0.883c0.119,0.274,0.279,0.514,0.482,0.717s0.442,0.363,0.717,0.482s0.569,0.178,0.882,0.178h1.041
		c0.313,0,0.607-0.059,0.882-0.178s0.514-0.279,0.717-0.482s0.364-0.442,0.482-0.717c0.119-0.275,0.178-0.57,0.178-0.883v-0.863
		l1.562,0.254v0.521C44.878,15.162,44.778,15.658,44.58,16.123z M43.316,8.684c0-0.313-0.059-0.607-0.178-0.883
		c-0.119-0.274-0.279-0.514-0.482-0.717s-0.442-0.363-0.717-0.482s-0.569-0.178-0.882-0.178h-1.041
		c-0.313,0-0.607,0.059-0.882,0.178s-0.514,0.279-0.717,0.482s-0.364,0.442-0.482,0.717c-0.119,0.275-0.178,0.57-0.178,0.883v1.93
		h5.561V8.684z"/>
	<path class="st0" d="M56.164,18.205l-0.863-1.32c-0.355,0.482-0.8,0.865-1.333,1.148c-0.533,0.284-1.117,0.426-1.752,0.426h-0.394
		c-0.525,0-1.02-0.1-1.485-0.299c-0.465-0.198-0.872-0.471-1.219-0.818s-0.62-0.754-0.819-1.219s-0.298-0.961-0.298-1.485V8.772
		c0-0.524,0.1-1.021,0.298-1.485s0.472-0.871,0.819-1.219s0.753-0.62,1.219-0.818c0.465-0.199,0.96-0.299,1.485-0.299h0.394
		c0.584,0,1.125,0.119,1.625,0.355s0.927,0.566,1.282,0.99V0h1.562v18.205H56.164z M55.123,8.684c0-0.313-0.059-0.607-0.178-0.883
		c-0.119-0.274-0.279-0.514-0.482-0.717s-0.442-0.363-0.717-0.482s-0.569-0.178-0.882-0.178h-1.041
		c-0.313,0-0.607,0.059-0.882,0.178s-0.514,0.279-0.717,0.482s-0.364,0.442-0.482,0.717c-0.119,0.275-0.178,0.57-0.178,0.883v6.043
		c0,0.313,0.059,0.607,0.178,0.883c0.119,0.274,0.279,0.514,0.482,0.717s0.442,0.363,0.717,0.482s0.569,0.178,0.882,0.178h1.041
		c0.313,0,0.607-0.059,0.882-0.178s0.514-0.279,0.717-0.482s0.364-0.442,0.482-0.717c0.119-0.275,0.178-0.57,0.178-0.883V8.684z"/>
	<path class="st0" d="M67.971,18.205l-0.863-1.295c-0.355,0.465-0.8,0.84-1.333,1.123c-0.533,0.284-1.117,0.426-1.752,0.426h-0.394
		c-0.525,0-1.02-0.1-1.485-0.299c-0.465-0.198-0.872-0.471-1.219-0.818s-0.62-0.754-0.819-1.219s-0.298-0.961-0.298-1.485v-0.127
		c0-0.524,0.1-1.021,0.298-1.485s0.472-0.871,0.819-1.219s0.753-0.62,1.219-0.818c0.465-0.199,0.96-0.299,1.485-0.299h3.301V8.684
		c0-0.313-0.059-0.607-0.178-0.883c-0.119-0.274-0.279-0.514-0.482-0.717s-0.442-0.363-0.717-0.482s-0.569-0.178-0.882-0.178h-0.914
		c-0.313,0-0.607,0.059-0.882,0.178s-0.514,0.279-0.717,0.482s-0.364,0.442-0.482,0.717c-0.119,0.275-0.178,0.57-0.178,0.883v0.47
		l-1.562-0.254V8.772c0-0.524,0.1-1.021,0.298-1.485s0.472-0.871,0.819-1.219s0.753-0.62,1.219-0.818
		c0.465-0.199,0.96-0.299,1.485-0.299h0.914c0.525,0,1.02,0.1,1.485,0.299c0.465,0.198,0.872,0.471,1.219,0.818
		s0.62,0.754,0.819,1.219s0.298,0.961,0.298,1.485v9.433H67.971z M66.93,11.908h-3.301c-0.313,0-0.607,0.059-0.882,0.178
		s-0.514,0.281-0.717,0.488c-0.203,0.208-0.364,0.449-0.482,0.725c-0.119,0.274-0.178,0.568-0.178,0.882v0.546
		c0,0.313,0.059,0.607,0.178,0.883c0.119,0.274,0.279,0.514,0.482,0.717s0.442,0.363,0.717,0.482s0.569,0.178,0.882,0.178h1.041
		c0.313,0,0.607-0.059,0.882-0.178s0.514-0.279,0.717-0.482s0.364-0.442,0.482-0.717c0.119-0.275,0.178-0.57,0.178-0.883V11.908z"/>
	<path class="st0" d="M79.777,18.205l-0.863-1.32c-0.355,0.482-0.8,0.865-1.333,1.148c-0.533,0.284-1.117,0.426-1.752,0.426h-0.394
		c-0.525,0-1.02-0.1-1.485-0.299c-0.465-0.198-0.872-0.471-1.219-0.818s-0.62-0.754-0.819-1.219s-0.298-0.961-0.298-1.485V8.772
		c0-0.524,0.1-1.021,0.298-1.485s0.472-0.871,0.819-1.219s0.753-0.62,1.219-0.818c0.465-0.199,0.96-0.299,1.485-0.299h0.394
		c0.584,0,1.125,0.119,1.625,0.355s0.927,0.566,1.282,0.99V0h1.562v18.205H79.777z M78.736,8.684c0-0.313-0.059-0.607-0.178-0.883
		c-0.119-0.274-0.279-0.514-0.482-0.717s-0.442-0.363-0.717-0.482s-0.569-0.178-0.882-0.178h-1.041
		c-0.313,0-0.607,0.059-0.882,0.178s-0.514,0.279-0.717,0.482s-0.364,0.442-0.482,0.717c-0.119,0.275-0.178,0.57-0.178,0.883v6.043
		c0,0.313,0.059,0.607,0.178,0.883c0.119,0.274,0.279,0.514,0.482,0.717s0.442,0.363,0.717,0.482s0.569,0.178,0.882,0.178h1.041
		c0.313,0,0.607-0.059,0.882-0.178s0.514-0.279,0.717-0.482s0.364-0.442,0.482-0.717c0.119-0.275,0.178-0.57,0.178-0.883V8.684z"/>
	<path class="st0" d="M91.806,16.123c-0.199,0.465-0.472,0.871-0.819,1.219s-0.753,0.62-1.219,0.818
		c-0.465,0.199-0.96,0.299-1.485,0.299h-1.041c-0.525,0-1.02-0.1-1.485-0.299c-0.465-0.198-0.872-0.471-1.219-0.818
		s-0.62-0.754-0.819-1.219s-0.298-0.961-0.298-1.485V8.772c0-0.524,0.1-1.021,0.298-1.485s0.472-0.871,0.819-1.219
		s0.753-0.62,1.219-0.818c0.465-0.199,0.96-0.299,1.485-0.299h1.041c0.525,0,1.02,0.1,1.485,0.299
		c0.465,0.198,0.872,0.471,1.219,0.818s0.62,0.754,0.819,1.219s0.298,0.961,0.298,1.485v3.06h-7.122v2.895
		c0,0.313,0.059,0.607,0.178,0.883c0.119,0.274,0.279,0.514,0.482,0.717s0.442,0.363,0.717,0.482s0.569,0.178,0.882,0.178h1.041
		c0.313,0,0.607-0.059,0.882-0.178s0.514-0.279,0.717-0.482s0.364-0.442,0.482-0.717c0.119-0.275,0.178-0.57,0.178-0.883v-0.863
		l1.562,0.254v0.521C92.104,15.162,92.005,15.658,91.806,16.123z M90.543,8.684c0-0.313-0.059-0.607-0.178-0.883
		c-0.119-0.274-0.279-0.514-0.482-0.717s-0.442-0.363-0.717-0.482s-0.569-0.178-0.882-0.178h-1.041
		c-0.313,0-0.607,0.059-0.882,0.178s-0.514,0.279-0.717,0.482s-0.364,0.442-0.482,0.717c-0.119,0.275-0.178,0.57-0.178,0.883v1.93
		h5.561V8.684z"/>
	<path class="st0" d="M104.165,14.904c0,0.525-0.106,1.005-0.317,1.441c-0.211,0.436-0.5,0.811-0.863,1.123s-0.785,0.557-1.263,0.73
		c-0.478,0.173-0.979,0.26-1.504,0.26h-1.041c-0.525,0-1.026-0.1-1.504-0.299c-0.478-0.198-0.897-0.471-1.257-0.818
		s-0.647-0.754-0.863-1.219s-0.324-0.961-0.324-1.485v-0.521l1.562-0.254v0.863c0,0.313,0.065,0.607,0.197,0.883
		c0.131,0.274,0.307,0.514,0.527,0.717s0.474,0.363,0.762,0.482s0.588,0.178,0.901,0.178h1.041c0.313,0,0.614-0.047,0.901-0.14
		s0.544-0.227,0.768-0.399c0.224-0.174,0.402-0.383,0.533-0.629s0.197-0.525,0.197-0.838c0-0.465-0.102-0.846-0.305-1.143
		s-0.472-0.544-0.806-0.742c-0.334-0.199-0.715-0.364-1.143-0.496c-0.427-0.131-0.865-0.262-1.314-0.393
		c-0.449-0.132-0.887-0.281-1.314-0.451s-0.808-0.392-1.143-0.666c-0.334-0.275-0.603-0.621-0.806-1.035s-0.305-0.932-0.305-1.549
		c0-0.525,0.102-1.005,0.305-1.441c0.203-0.436,0.478-0.811,0.825-1.123s0.751-0.557,1.212-0.73c0.461-0.173,0.954-0.26,1.479-0.26
		h0.914c0.525,0,1.02,0.1,1.485,0.299c0.465,0.198,0.872,0.471,1.219,0.818s0.62,0.754,0.819,1.219s0.298,0.961,0.298,1.485v0.051
		l-1.562,0.254V8.684c0-0.313-0.059-0.607-0.178-0.883c-0.119-0.274-0.279-0.514-0.482-0.717s-0.442-0.363-0.717-0.482
		s-0.569-0.178-0.882-0.178h-0.914c-0.313,0-0.607,0.047-0.882,0.14s-0.514,0.227-0.717,0.399c-0.203,0.174-0.364,0.383-0.482,0.629
		s-0.178,0.525-0.178,0.838c0,0.449,0.102,0.814,0.305,1.098c0.203,0.284,0.472,0.523,0.806,0.718s0.715,0.357,1.143,0.489
		c0.427,0.131,0.863,0.266,1.308,0.406c0.444,0.139,0.88,0.298,1.308,0.476s0.808,0.406,1.143,0.686s0.603,0.628,0.806,1.048
		C104.063,13.768,104.165,14.287,104.165,14.904z"/>
	<path class="st0" d="M121.526,16.123c-0.199,0.465-0.472,0.871-0.819,1.219s-0.753,0.62-1.219,0.818
		c-0.465,0.199-0.96,0.299-1.485,0.299h-1.041c-0.525,0-1.02-0.1-1.485-0.299c-0.465-0.198-0.872-0.471-1.219-0.818
		s-0.62-0.754-0.819-1.219s-0.298-0.961-0.298-1.485V8.772c0-0.524,0.1-1.021,0.298-1.485s0.472-0.871,0.819-1.219
		s0.753-0.62,1.219-0.818c0.465-0.199,0.96-0.299,1.485-0.299h1.041c0.525,0,1.02,0.1,1.485,0.299
		c0.465,0.198,0.872,0.471,1.219,0.818s0.62,0.754,0.819,1.219s0.298,0.961,0.298,1.485v3.06h-7.122v2.895
		c0,0.313,0.059,0.607,0.178,0.883c0.119,0.274,0.279,0.514,0.482,0.717s0.442,0.363,0.717,0.482s0.569,0.178,0.882,0.178h1.041
		c0.313,0,0.607-0.059,0.882-0.178s0.514-0.279,0.717-0.482s0.364-0.442,0.482-0.717c0.119-0.275,0.178-0.57,0.178-0.883v-0.863
		l1.562,0.254v0.521C121.824,15.162,121.725,15.658,121.526,16.123z M120.263,8.684c0-0.313-0.059-0.607-0.178-0.883
		c-0.119-0.274-0.279-0.514-0.482-0.717s-0.442-0.363-0.717-0.482s-0.569-0.178-0.882-0.178h-1.041
		c-0.313,0-0.607,0.059-0.882,0.178s-0.514,0.279-0.717,0.482s-0.364,0.442-0.482,0.717c-0.119,0.275-0.178,0.57-0.178,0.883v1.93
		h5.561V8.684z"/>
	<path class="st0" d="M132.069,18.205V8.684c0-0.313-0.059-0.607-0.178-0.883c-0.119-0.274-0.279-0.514-0.482-0.717
		s-0.442-0.363-0.717-0.482s-0.569-0.178-0.882-0.178h-1.041c-0.313,0-0.607,0.059-0.882,0.178s-0.514,0.279-0.717,0.482
		s-0.364,0.442-0.482,0.717c-0.119,0.275-0.178,0.57-0.178,0.883v9.521h-1.562v-13h0.521l0.851,1.32
		c0.355-0.482,0.802-0.865,1.339-1.148c0.538-0.284,1.124-0.426,1.758-0.426h0.394c0.525,0,1.02,0.1,1.485,0.299
		c0.465,0.198,0.872,0.471,1.219,0.818s0.62,0.754,0.819,1.219s0.298,0.961,0.298,1.485v9.433H132.069z"/>
	<path class="st0" d="M143.254,18.205V0h1.562v18.205H143.254z"/>
	<path class="st0" d="M156.622,18.205l-0.863-1.295c-0.355,0.465-0.8,0.84-1.333,1.123c-0.533,0.284-1.117,0.426-1.752,0.426h-0.394
		c-0.525,0-1.02-0.1-1.485-0.299c-0.465-0.198-0.872-0.471-1.219-0.818s-0.62-0.754-0.819-1.219s-0.298-0.961-0.298-1.485v-0.127
		c0-0.524,0.1-1.021,0.298-1.485s0.472-0.871,0.819-1.219s0.753-0.62,1.219-0.818c0.465-0.199,0.96-0.299,1.485-0.299h3.301V8.684
		c0-0.313-0.059-0.607-0.178-0.883c-0.119-0.274-0.279-0.514-0.482-0.717s-0.442-0.363-0.717-0.482s-0.569-0.178-0.882-0.178h-0.914
		c-0.313,0-0.607,0.059-0.882,0.178s-0.514,0.279-0.717,0.482s-0.364,0.442-0.482,0.717c-0.119,0.275-0.178,0.57-0.178,0.883v0.47
		l-1.562-0.254V8.772c0-0.524,0.1-1.021,0.298-1.485s0.472-0.871,0.819-1.219s0.753-0.62,1.219-0.818
		c0.465-0.199,0.96-0.299,1.485-0.299h0.914c0.525,0,1.02,0.1,1.485,0.299c0.465,0.198,0.872,0.471,1.219,0.818
		s0.62,0.754,0.819,1.219s0.298,0.961,0.298,1.485v9.433H156.622z M155.581,11.908h-3.301c-0.313,0-0.607,0.059-0.882,0.178
		s-0.514,0.281-0.717,0.488c-0.203,0.208-0.364,0.449-0.482,0.725c-0.119,0.274-0.178,0.568-0.178,0.882v0.546
		c0,0.313,0.059,0.607,0.178,0.883c0.119,0.274,0.279,0.514,0.482,0.717s0.442,0.363,0.717,0.482s0.569,0.178,0.882,0.178h1.041
		c0.313,0,0.607-0.059,0.882-0.178s0.514-0.279,0.717-0.482s0.364-0.442,0.482-0.717c0.119-0.275,0.178-0.57,0.178-0.883V11.908z"/>
	<path class="st0" d="M170.32,18.205h-0.774l-4.608-13h1.562l3.39,9.852l0.051,0.673l0.051-0.673l3.377-9.852h1.562L170.32,18.205z"
		/>
	<path class="st0" d="M185.129,16.123c-0.199,0.465-0.472,0.871-0.819,1.219s-0.753,0.62-1.219,0.818
		c-0.465,0.199-0.96,0.299-1.485,0.299h-1.041c-0.525,0-1.02-0.1-1.485-0.299c-0.465-0.198-0.872-0.471-1.219-0.818
		s-0.62-0.754-0.819-1.219s-0.298-0.961-0.298-1.485V8.772c0-0.524,0.1-1.021,0.298-1.485s0.472-0.871,0.819-1.219
		s0.753-0.62,1.219-0.818c0.465-0.199,0.96-0.299,1.485-0.299h1.041c0.525,0,1.02,0.1,1.485,0.299
		c0.465,0.198,0.872,0.471,1.219,0.818s0.62,0.754,0.819,1.219s0.298,0.961,0.298,1.485v3.06h-7.122v2.895
		c0,0.313,0.059,0.607,0.178,0.883c0.119,0.274,0.279,0.514,0.482,0.717s0.442,0.363,0.717,0.482s0.569,0.178,0.882,0.178h1.041
		c0.313,0,0.607-0.059,0.882-0.178s0.514-0.279,0.717-0.482s0.364-0.442,0.482-0.717c0.119-0.275,0.178-0.57,0.178-0.883v-0.863
		l1.562,0.254v0.521C185.428,15.162,185.328,15.658,185.129,16.123z M183.866,8.684c0-0.313-0.059-0.607-0.178-0.883
		c-0.119-0.274-0.279-0.514-0.482-0.717s-0.442-0.363-0.717-0.482s-0.569-0.178-0.882-0.178h-1.041
		c-0.313,0-0.607,0.059-0.882,0.178s-0.514,0.279-0.717,0.482s-0.364,0.442-0.482,0.717c-0.119,0.275-0.178,0.57-0.178,0.883v1.93
		h5.561V8.684z"/>
	<path class="st0" d="M192.372,6.69c-0.313,0-0.607,0.06-0.882,0.178s-0.514,0.279-0.717,0.482s-0.364,0.442-0.482,0.718
		c-0.119,0.274-0.178,0.568-0.178,0.882v9.255h-1.562v-13h0.521l0.851,1.32c0.355-0.482,0.802-0.865,1.339-1.148
		c0.538-0.284,1.124-0.426,1.758-0.426h0.914V6.69H192.372z"/>
	<path class="st0" d="M204.953,14.904c0,0.525-0.106,1.005-0.317,1.441c-0.211,0.436-0.5,0.811-0.863,1.123s-0.785,0.557-1.263,0.73
		c-0.478,0.173-0.979,0.26-1.504,0.26h-1.041c-0.525,0-1.026-0.1-1.504-0.299c-0.478-0.198-0.897-0.471-1.257-0.818
		s-0.647-0.754-0.863-1.219s-0.324-0.961-0.324-1.485v-0.521l1.562-0.254v0.863c0,0.313,0.065,0.607,0.197,0.883
		c0.131,0.274,0.307,0.514,0.527,0.717s0.474,0.363,0.762,0.482s0.588,0.178,0.901,0.178h1.041c0.313,0,0.614-0.047,0.901-0.14
		s0.544-0.227,0.768-0.399c0.224-0.174,0.402-0.383,0.533-0.629s0.197-0.525,0.197-0.838c0-0.465-0.102-0.846-0.305-1.143
		s-0.472-0.544-0.806-0.742c-0.334-0.199-0.715-0.364-1.143-0.496c-0.427-0.131-0.865-0.262-1.314-0.393
		c-0.449-0.132-0.887-0.281-1.314-0.451s-0.808-0.392-1.143-0.666c-0.334-0.275-0.603-0.621-0.806-1.035s-0.305-0.932-0.305-1.549
		c0-0.525,0.102-1.005,0.305-1.441c0.203-0.436,0.478-0.811,0.825-1.123s0.751-0.557,1.212-0.73c0.461-0.173,0.954-0.26,1.479-0.26
		h0.914c0.525,0,1.02,0.1,1.485,0.299c0.465,0.198,0.872,0.471,1.219,0.818s0.62,0.754,0.819,1.219s0.298,0.961,0.298,1.485v0.051
		l-1.562,0.254V8.684c0-0.313-0.059-0.607-0.178-0.883c-0.119-0.274-0.279-0.514-0.482-0.717s-0.442-0.363-0.717-0.482
		s-0.569-0.178-0.882-0.178h-0.914c-0.313,0-0.607,0.047-0.882,0.14s-0.514,0.227-0.717,0.399c-0.203,0.174-0.364,0.383-0.482,0.629
		s-0.178,0.525-0.178,0.838c0,0.449,0.102,0.814,0.305,1.098c0.203,0.284,0.472,0.523,0.806,0.718s0.715,0.357,1.143,0.489
		c0.427,0.131,0.863,0.266,1.308,0.406c0.444,0.139,0.88,0.298,1.308,0.476s0.808,0.406,1.143,0.686s0.603,0.628,0.806,1.048
		C204.852,13.768,204.953,14.287,204.953,14.904z"/>
	<path class="st0" d="M208.343,2.082V0h1.815v2.082H208.343z M208.47,18.205v-13h1.562v13H208.47z"/>
	<path class="st0" d="M222.06,16.123c-0.199,0.465-0.472,0.871-0.819,1.219s-0.753,0.62-1.219,0.818
		c-0.465,0.199-0.96,0.299-1.485,0.299h-1.041c-0.525,0-1.02-0.1-1.485-0.299c-0.465-0.198-0.872-0.471-1.219-0.818
		s-0.62-0.754-0.819-1.219s-0.298-0.961-0.298-1.485V8.772c0-0.524,0.1-1.021,0.298-1.485s0.472-0.871,0.819-1.219
		s0.753-0.62,1.219-0.818c0.465-0.199,0.96-0.299,1.485-0.299h1.041c0.525,0,1.02,0.1,1.485,0.299
		c0.465,0.198,0.872,0.471,1.219,0.818s0.62,0.754,0.819,1.219s0.298,0.961,0.298,1.485v5.865
		C222.358,15.162,222.259,15.658,222.06,16.123z M220.797,8.684c0-0.313-0.059-0.607-0.178-0.883
		c-0.119-0.274-0.279-0.514-0.482-0.717s-0.442-0.363-0.717-0.482s-0.569-0.178-0.882-0.178h-1.041
		c-0.313,0-0.607,0.059-0.882,0.178s-0.514,0.279-0.717,0.482s-0.364,0.442-0.482,0.717c-0.119,0.275-0.178,0.57-0.178,0.883v6.043
		c0,0.313,0.059,0.607,0.178,0.883c0.119,0.274,0.279,0.514,0.482,0.717s0.442,0.363,0.717,0.482s0.569,0.178,0.882,0.178h1.041
		c0.313,0,0.607-0.059,0.882-0.178s0.514-0.279,0.717-0.482s0.364-0.442,0.482-0.717c0.119-0.275,0.178-0.57,0.178-0.883V8.684z
		 M217.369,3.123h-1.168L218.271,0h2.603L217.369,3.123z"/>
	<path class="st0" d="M232.604,18.205V8.684c0-0.313-0.059-0.607-0.178-0.883c-0.119-0.274-0.279-0.514-0.482-0.717
		s-0.442-0.363-0.717-0.482s-0.569-0.178-0.882-0.178h-1.041c-0.313,0-0.607,0.059-0.882,0.178s-0.514,0.279-0.717,0.482
		s-0.364,0.442-0.482,0.717c-0.119,0.275-0.178,0.57-0.178,0.883v9.521h-1.562v-13h0.521l0.851,1.32
		c0.355-0.482,0.802-0.865,1.339-1.148c0.538-0.284,1.124-0.426,1.758-0.426h0.394c0.525,0,1.02,0.1,1.485,0.299
		c0.465,0.198,0.872,0.471,1.219,0.818s0.62,0.754,0.819,1.219s0.298,0.961,0.298,1.485v9.433H232.604z"/>
	<path class="st0" d="M252.897,15.729c-0.233,0.542-0.552,1.016-0.958,1.422s-0.88,0.726-1.422,0.958
		c-0.542,0.233-1.122,0.35-1.739,0.35h-0.774c-0.618,0-1.2-0.116-1.746-0.35c-0.546-0.232-1.022-0.552-1.428-0.958
		s-0.726-0.88-0.958-1.422s-0.349-1.122-0.349-1.739v-0.279h1.638v0.279c0,0.406,0.076,0.785,0.229,1.137
		c0.152,0.351,0.362,0.66,0.628,0.926c0.267,0.268,0.576,0.477,0.927,0.629s0.73,0.229,1.136,0.229h0.622
		c0.406,0,0.785-0.076,1.136-0.229s0.658-0.361,0.92-0.629c0.262-0.266,0.47-0.575,0.622-0.926c0.152-0.352,0.229-0.73,0.229-1.137
		v-3.529c0-0.406-0.076-0.785-0.229-1.137c-0.152-0.351-0.36-0.66-0.622-0.926c-0.262-0.268-0.569-0.477-0.92-0.629
		s-0.73-0.229-1.136-0.229h-0.622c-0.406,0-0.785,0.076-1.136,0.229s-0.66,0.361-0.927,0.629c-0.267,0.266-0.476,0.575-0.628,0.926
		c-0.152,0.352-0.229,0.73-0.229,1.137h-1.638L244.563,0h7.782v1.562h-6.246l-0.597,5.599c0.389-0.373,0.842-0.662,1.358-0.869
		c0.516-0.208,1.071-0.312,1.663-0.312h0.254c0.618,0,1.198,0.116,1.739,0.349c0.542,0.233,1.016,0.553,1.422,0.959
		s0.726,0.883,0.958,1.428c0.233,0.547,0.349,1.129,0.349,1.746v3.529C253.246,14.607,253.13,15.188,252.897,15.729z"/>
	<path class="st0" d="M270.778,18.205l-0.863-1.32c-0.355,0.482-0.8,0.865-1.333,1.148c-0.533,0.284-1.117,0.426-1.752,0.426h-0.394
		c-0.525,0-1.02-0.1-1.485-0.299c-0.465-0.198-0.872-0.471-1.219-0.818s-0.62-0.754-0.819-1.219s-0.298-0.961-0.298-1.485V8.772
		c0-0.524,0.1-1.021,0.298-1.485s0.472-0.871,0.819-1.219s0.753-0.62,1.219-0.818c0.465-0.199,0.96-0.299,1.485-0.299h0.394
		c0.584,0,1.125,0.119,1.625,0.355s0.927,0.566,1.282,0.99V0h1.562v18.205H270.778z M269.737,8.684c0-0.313-0.059-0.607-0.178-0.883
		c-0.119-0.274-0.279-0.514-0.482-0.717s-0.442-0.363-0.717-0.482s-0.569-0.178-0.882-0.178h-1.041
		c-0.313,0-0.607,0.059-0.882,0.178s-0.514,0.279-0.717,0.482s-0.364,0.442-0.482,0.717c-0.119,0.275-0.178,0.57-0.178,0.883v6.043
		c0,0.313,0.059,0.607,0.178,0.883c0.119,0.274,0.279,0.514,0.482,0.717s0.442,0.363,0.717,0.482s0.569,0.178,0.882,0.178h1.041
		c0.313,0,0.607-0.059,0.882-0.178s0.514-0.279,0.717-0.482s0.364-0.442,0.482-0.717c0.119-0.275,0.178-0.57,0.178-0.883V8.684z"/>
	<path class="st0" d="M282.807,16.123c-0.199,0.465-0.472,0.871-0.819,1.219s-0.753,0.62-1.219,0.818
		c-0.465,0.199-0.96,0.299-1.485,0.299h-1.041c-0.525,0-1.02-0.1-1.485-0.299c-0.465-0.198-0.872-0.471-1.219-0.818
		s-0.62-0.754-0.819-1.219s-0.298-0.961-0.298-1.485V8.772c0-0.524,0.1-1.021,0.298-1.485s0.472-0.871,0.819-1.219
		s0.753-0.62,1.219-0.818c0.465-0.199,0.96-0.299,1.485-0.299h1.041c0.525,0,1.02,0.1,1.485,0.299
		c0.465,0.198,0.872,0.471,1.219,0.818s0.62,0.754,0.819,1.219s0.298,0.961,0.298,1.485v3.06h-7.122v2.895
		c0,0.313,0.059,0.607,0.178,0.883c0.119,0.274,0.279,0.514,0.482,0.717s0.442,0.363,0.717,0.482s0.569,0.178,0.882,0.178h1.041
		c0.313,0,0.607-0.059,0.882-0.178s0.514-0.279,0.717-0.482s0.364-0.442,0.482-0.717c0.119-0.275,0.178-0.57,0.178-0.883v-0.863
		l1.562,0.254v0.521C283.105,15.162,283.006,15.658,282.807,16.123z M281.544,8.684c0-0.313-0.059-0.607-0.178-0.883
		c-0.119-0.274-0.279-0.514-0.482-0.717s-0.442-0.363-0.717-0.482s-0.569-0.178-0.882-0.178h-1.041
		c-0.313,0-0.607,0.059-0.882,0.178s-0.514,0.279-0.717,0.482s-0.364,0.442-0.482,0.717c-0.119,0.275-0.178,0.57-0.178,0.883v1.93
		h5.561V8.684z"/>
	<path class="st0" d="M299.33,18.205V8.684c0-0.313-0.059-0.607-0.178-0.883c-0.119-0.274-0.279-0.514-0.482-0.717
		s-0.442-0.363-0.717-0.482s-0.569-0.178-0.882-0.178h-1.041c-0.313,0-0.607,0.059-0.882,0.178s-0.514,0.279-0.717,0.482
		s-0.364,0.442-0.482,0.717c-0.119,0.275-0.178,0.57-0.178,0.883v9.521h-1.562V0h1.562v6.297c0.355-0.424,0.783-0.754,1.282-0.99
		s1.041-0.355,1.625-0.355h0.394c0.525,0,1.02,0.1,1.485,0.299c0.465,0.198,0.872,0.471,1.219,0.818s0.62,0.754,0.819,1.219
		s0.298,0.961,0.298,1.485v9.433H299.33z"/>
	<path class="st0" d="M308.75,18.205c-0.474,0-0.92-0.089-1.339-0.267s-0.783-0.423-1.092-0.736s-0.554-0.677-0.736-1.092
		s-0.273-0.858-0.273-1.333V6.69h-2.336V5.205h2.336V2.082l1.562-0.254v3.377h3.301V6.69h-3.301v8.163
		c0,0.262,0.049,0.506,0.146,0.73c0.097,0.224,0.23,0.42,0.4,0.59s0.368,0.303,0.597,0.4c0.229,0.097,0.474,0.146,0.736,0.146h1.422
		v1.485H308.75z"/>
	<path class="st0" d="M326.765,18.205V8.684c0-0.313-0.06-0.607-0.178-0.883c-0.118-0.274-0.279-0.514-0.482-0.717
		s-0.442-0.363-0.717-0.482c-0.275-0.119-0.569-0.178-0.883-0.178h-0.774c-0.313,0-0.607,0.059-0.882,0.178
		s-0.516,0.279-0.724,0.482s-0.37,0.442-0.489,0.717c-0.119,0.275-0.178,0.57-0.178,0.883v9.521h-1.549V8.684
		c0-0.313-0.059-0.607-0.178-0.883c-0.119-0.274-0.281-0.514-0.489-0.717s-0.449-0.363-0.724-0.482s-0.569-0.178-0.882-0.178h-0.774
		c-0.313,0-0.607,0.059-0.882,0.178s-0.514,0.279-0.717,0.482s-0.364,0.442-0.482,0.717c-0.119,0.275-0.178,0.57-0.178,0.883v9.521
		h-1.562v-13h0.521l0.851,1.32c0.355-0.482,0.802-0.865,1.339-1.148c0.538-0.284,1.124-0.426,1.758-0.426h0.127
		c0.736,0,1.401,0.182,1.993,0.546s1.049,0.847,1.371,1.447c0.161-0.296,0.36-0.567,0.597-0.813s0.5-0.455,0.787-0.628
		c0.288-0.174,0.601-0.31,0.939-0.406c0.338-0.098,0.689-0.146,1.054-0.146h0.127c0.524,0,1.02,0.1,1.485,0.299
		c0.466,0.198,0.872,0.471,1.219,0.818s0.62,0.754,0.819,1.219c0.198,0.465,0.298,0.961,0.298,1.485v9.433H326.765z"/>
	<path class="st0" d="M331.97,18.205V0h1.562v18.205H331.97z"/>
</g>
</svg>