<!-- Generator: Adobe Illustrator 17.0.0, SVG Export Plug-In  -->
<svg version="1.1"
	 xmlns="http://www.w3.org/2000/svg" xmlns:xlink="http://www.w3.org/1999/xlink" xmlns:a="http://ns.adobe.com/AdobeSVGViewerExtensions/3.0/"
	 x="0px" y="0px" width="292.551px" height="25.594px" viewBox="0 0 292.551 25.594"
	 style="enable-background:new 0 0 292.551 25.594;" xml:space="preserve">
<style type="text/css">
	.st0{fill:#F16529;}
</style>
<defs>
</defs>
<g>
	<path class="st0" d="M11.21,20.389V7.909l-0.114,0.774L6.868,20.389H6.005L1.739,8.684L1.638,7.909v12.479H0V2.184h0.851
		l5.522,14.93l0.051,0.673l0.051-0.673l5.51-14.93h0.863v18.205H11.21z"/>
	<path class="st0" d="M24.642,20.389l-0.863-1.295c-0.355,0.465-0.8,0.84-1.333,1.123c-0.533,0.284-1.117,0.426-1.752,0.426H20.3
		c-0.525,0-1.02-0.1-1.485-0.299c-0.465-0.198-0.872-0.471-1.219-0.818s-0.62-0.754-0.819-1.219s-0.298-0.961-0.298-1.485v-0.127
		c0-0.524,0.1-1.021,0.298-1.485s0.472-0.871,0.819-1.219s0.753-0.62,1.219-0.818c0.465-0.199,0.96-0.299,1.485-0.299h3.301v-2.006
		c0-0.313-0.059-0.607-0.178-0.883c-0.119-0.274-0.279-0.514-0.482-0.717s-0.442-0.363-0.717-0.482s-0.569-0.178-0.882-0.178h-0.914
		c-0.313,0-0.607,0.059-0.882,0.178s-0.514,0.279-0.717,0.482s-0.364,0.442-0.482,0.717c-0.119,0.275-0.178,0.57-0.178,0.883v0.47
		l-1.562-0.254v-0.127c0-0.524,0.1-1.021,0.298-1.485s0.472-0.871,0.819-1.219s0.753-0.62,1.219-0.818
		c0.465-0.199,0.96-0.299,1.485-0.299h0.914c0.525,0,1.02,0.1,1.485,0.299c0.465,0.198,0.872,0.471,1.219,0.818
		s0.62,0.754,0.819,1.219s0.298,0.961,0.298,1.485v9.433H24.642z M23.601,14.092H20.3c-0.313,0-0.607,0.059-0.882,0.178
		s-0.514,0.281-0.717,0.488c-0.203,0.208-0.364,0.449-0.482,0.725c-0.119,0.274-0.178,0.568-0.178,0.882v0.546
		c0,0.313,0.059,0.607,0.178,0.883c0.119,0.274,0.279,0.514,0.482,0.717s0.442,0.363,0.717,0.482s0.569,0.178,0.882,0.178h1.041
		c0.313,0,0.607-0.059,0.882-0.178s0.514-0.279,0.717-0.482s0.364-0.442,0.482-0.717c0.119-0.275,0.178-0.57,0.178-0.883V14.092z"/>
	<path class="st0" d="M35.407,25.594v-6.297c-0.355,0.424-0.783,0.754-1.282,0.99s-1.041,0.355-1.625,0.355h-0.394
		c-0.525,0-1.02-0.1-1.485-0.299c-0.465-0.198-0.872-0.471-1.219-0.818s-0.62-0.754-0.819-1.219s-0.298-0.961-0.298-1.485v-5.865
		c0-0.524,0.1-1.021,0.298-1.485s0.472-0.871,0.819-1.219s0.753-0.62,1.219-0.818c0.465-0.199,0.96-0.299,1.485-0.299H32.5
		c0.635,0,1.219,0.142,1.752,0.426c0.533,0.283,0.978,0.666,1.333,1.148l0.863-1.32h0.521v18.205H35.407z M35.407,10.867
		c0-0.313-0.059-0.607-0.178-0.883c-0.119-0.274-0.279-0.514-0.482-0.717s-0.442-0.363-0.717-0.482s-0.569-0.178-0.882-0.178h-1.041
		c-0.313,0-0.607,0.059-0.882,0.178s-0.514,0.279-0.717,0.482s-0.364,0.442-0.482,0.717c-0.119,0.275-0.178,0.57-0.178,0.883v6.043
		c0,0.313,0.059,0.607,0.178,0.883c0.119,0.274,0.279,0.514,0.482,0.717s0.442,0.363,0.717,0.482s0.569,0.178,0.882,0.178h1.041
		c0.313,0,0.607-0.059,0.882-0.178s0.514-0.279,0.717-0.482s0.364-0.442,0.482-0.717c0.119-0.275,0.178-0.57,0.178-0.883V10.867z"/>
	<path class="st0" d="M48.255,20.389l-0.863-1.32c-0.355,0.482-0.8,0.865-1.333,1.148c-0.533,0.284-1.117,0.426-1.752,0.426h-0.394
		c-0.525,0-1.02-0.1-1.485-0.299c-0.465-0.198-0.872-0.471-1.219-0.818s-0.62-0.754-0.819-1.219s-0.298-0.961-0.298-1.485V7.389
		h1.562v9.521c0,0.313,0.059,0.607,0.178,0.883c0.119,0.274,0.279,0.514,0.482,0.717s0.442,0.363,0.717,0.482
		s0.569,0.178,0.882,0.178h1.041c0.313,0,0.607-0.059,0.882-0.178s0.514-0.279,0.717-0.482s0.364-0.442,0.482-0.717
		c0.119-0.275,0.178-0.57,0.178-0.883V7.389h1.562v13H48.255z"/>
	<path class="st0" d="M60.284,18.307c-0.199,0.465-0.472,0.871-0.819,1.219s-0.753,0.62-1.219,0.818
		c-0.465,0.199-0.96,0.299-1.485,0.299H55.72c-0.525,0-1.02-0.1-1.485-0.299c-0.465-0.198-0.872-0.471-1.219-0.818
		s-0.62-0.754-0.819-1.219s-0.298-0.961-0.298-1.485v-5.865c0-0.524,0.1-1.021,0.298-1.485s0.472-0.871,0.819-1.219
		s0.753-0.62,1.219-0.818c0.465-0.199,0.96-0.299,1.485-0.299h1.041c0.525,0,1.02,0.1,1.485,0.299
		c0.465,0.198,0.872,0.471,1.219,0.818s0.62,0.754,0.819,1.219s0.298,0.961,0.298,1.485v3.06H53.46v2.895
		c0,0.313,0.059,0.607,0.178,0.883c0.119,0.274,0.279,0.514,0.482,0.717s0.442,0.363,0.717,0.482s0.569,0.178,0.882,0.178h1.041
		c0.313,0,0.607-0.059,0.882-0.178s0.514-0.279,0.717-0.482s0.364-0.442,0.482-0.717c0.119-0.275,0.178-0.57,0.178-0.883v-0.863
		l1.562,0.254v0.521C60.582,17.346,60.482,17.842,60.284,18.307z M59.021,10.867c0-0.313-0.059-0.607-0.178-0.883
		c-0.119-0.274-0.279-0.514-0.482-0.717s-0.442-0.363-0.717-0.482s-0.569-0.178-0.882-0.178H55.72c-0.313,0-0.607,0.059-0.882,0.178
		s-0.514,0.279-0.717,0.482s-0.364,0.442-0.482,0.717c-0.119,0.275-0.178,0.57-0.178,0.883v1.93h5.561V10.867z"/>
	<path class="st0" d="M68.44,20.389c-0.474,0-0.92-0.089-1.339-0.267s-0.783-0.423-1.092-0.736s-0.554-0.677-0.736-1.092
		S65,17.436,65,16.961V8.874h-2.336V7.389H65V4.266l1.562-0.254v3.377h3.301v1.485h-3.301v8.163c0,0.262,0.049,0.506,0.146,0.73
		c0.097,0.224,0.23,0.42,0.4,0.59s0.368,0.303,0.597,0.4c0.229,0.097,0.474,0.146,0.736,0.146h1.422v1.485H68.44z"/>
	<path class="st0" d="M81.117,18.307c-0.199,0.465-0.472,0.871-0.819,1.219s-0.753,0.62-1.219,0.818
		c-0.465,0.199-0.96,0.299-1.485,0.299h-1.041c-0.525,0-1.02-0.1-1.485-0.299c-0.465-0.198-0.872-0.471-1.219-0.818
		s-0.62-0.754-0.819-1.219s-0.298-0.961-0.298-1.485v-5.865c0-0.524,0.1-1.021,0.298-1.485s0.472-0.871,0.819-1.219
		s0.753-0.62,1.219-0.818c0.465-0.199,0.96-0.299,1.485-0.299h1.041c0.525,0,1.02,0.1,1.485,0.299
		c0.465,0.198,0.872,0.471,1.219,0.818s0.62,0.754,0.819,1.219s0.298,0.961,0.298,1.485v3.06h-7.122v2.895
		c0,0.313,0.059,0.607,0.178,0.883c0.119,0.274,0.279,0.514,0.482,0.717s0.442,0.363,0.717,0.482s0.569,0.178,0.882,0.178h1.041
		c0.313,0,0.607-0.059,0.882-0.178s0.514-0.279,0.717-0.482s0.364-0.442,0.482-0.717c0.119-0.275,0.178-0.57,0.178-0.883v-0.863
		l1.562,0.254v0.521C81.415,17.346,81.315,17.842,81.117,18.307z M79.854,10.867c0-0.313-0.059-0.607-0.178-0.883
		c-0.119-0.274-0.279-0.514-0.482-0.717s-0.442-0.363-0.717-0.482s-0.569-0.178-0.882-0.178h-1.041
		c-0.313,0-0.607,0.059-0.882,0.178s-0.514,0.279-0.717,0.482s-0.364,0.442-0.482,0.717c-0.119,0.275-0.178,0.57-0.178,0.883v1.93
		h5.561V10.867z"/>
	<path class="st0" d="M92.701,20.389l-0.863-1.295c-0.355,0.465-0.8,0.84-1.333,1.123c-0.533,0.284-1.117,0.426-1.752,0.426h-0.394
		c-0.525,0-1.02-0.1-1.485-0.299c-0.465-0.198-0.872-0.471-1.219-0.818s-0.62-0.754-0.819-1.219s-0.298-0.961-0.298-1.485v-0.127
		c0-0.524,0.1-1.021,0.298-1.485s0.472-0.871,0.819-1.219s0.753-0.62,1.219-0.818c0.465-0.199,0.96-0.299,1.485-0.299h3.301v-2.006
		c0-0.313-0.059-0.607-0.178-0.883C91.364,9.71,91.203,9.471,91,9.268s-0.442-0.363-0.717-0.482S89.713,8.607,89.4,8.607h-0.914
		c-0.313,0-0.607,0.059-0.882,0.178s-0.514,0.279-0.717,0.482s-0.364,0.442-0.482,0.717c-0.119,0.275-0.178,0.57-0.178,0.883v0.47
		l-1.562-0.254v-0.127c0-0.524,0.1-1.021,0.298-1.485s0.472-0.871,0.819-1.219s0.753-0.62,1.219-0.818
		c0.465-0.199,0.96-0.299,1.485-0.299H89.4c0.525,0,1.02,0.1,1.485,0.299c0.465,0.198,0.872,0.471,1.219,0.818
		s0.62,0.754,0.819,1.219s0.298,0.961,0.298,1.485v9.433H92.701z M91.66,14.092h-3.301c-0.313,0-0.607,0.059-0.882,0.178
		s-0.514,0.281-0.717,0.488c-0.203,0.208-0.364,0.449-0.482,0.725c-0.119,0.274-0.178,0.568-0.178,0.882v0.546
		c0,0.313,0.059,0.607,0.178,0.883c0.119,0.274,0.279,0.514,0.482,0.717s0.442,0.363,0.717,0.482s0.569,0.178,0.882,0.178H89.4
		c0.313,0,0.607-0.059,0.882-0.178S90.797,18.713,91,18.51s0.364-0.442,0.482-0.717c0.119-0.275,0.178-0.57,0.178-0.883V14.092z"/>
	<path class="st0" d="M104.508,20.389l-0.863-1.32c-0.355,0.482-0.8,0.865-1.333,1.148c-0.533,0.284-1.117,0.426-1.752,0.426h-0.394
		c-0.525,0-1.02-0.1-1.485-0.299c-0.465-0.198-0.872-0.471-1.219-0.818s-0.62-0.754-0.819-1.219s-0.298-0.961-0.298-1.485v-5.865
		c0-0.524,0.1-1.021,0.298-1.485s0.472-0.871,0.819-1.219s0.753-0.62,1.219-0.818c0.465-0.199,0.96-0.299,1.485-0.299h0.394
		c0.584,0,1.125,0.119,1.625,0.355s0.927,0.566,1.282,0.99V2.184h1.562v18.205H104.508z M103.467,10.867
		c0-0.313-0.059-0.607-0.178-0.883c-0.119-0.274-0.279-0.514-0.482-0.717s-0.442-0.363-0.717-0.482s-0.569-0.178-0.882-0.178h-1.041
		c-0.313,0-0.607,0.059-0.882,0.178s-0.514,0.279-0.717,0.482s-0.364,0.442-0.482,0.717c-0.119,0.275-0.178,0.57-0.178,0.883v6.043
		c0,0.313,0.059,0.607,0.178,0.883c0.119,0.274,0.279,0.514,0.482,0.717s0.442,0.363,0.717,0.482s0.569,0.178,0.882,0.178h1.041
		c0.313,0,0.607-0.059,0.882-0.178s0.514-0.279,0.717-0.482s0.364-0.442,0.482-0.717c0.119-0.275,0.178-0.57,0.178-0.883V10.867z"/>
	<path class="st0" d="M116.537,18.307c-0.199,0.465-0.472,0.871-0.819,1.219s-0.753,0.62-1.219,0.818
		c-0.465,0.199-0.96,0.299-1.485,0.299h-1.041c-0.525,0-1.02-0.1-1.485-0.299c-0.465-0.198-0.872-0.471-1.219-0.818
		s-0.62-0.754-0.819-1.219s-0.298-0.961-0.298-1.485v-5.865c0-0.524,0.1-1.021,0.298-1.485s0.472-0.871,0.819-1.219
		s0.753-0.62,1.219-0.818c0.465-0.199,0.96-0.299,1.485-0.299h1.041c0.525,0,1.02,0.1,1.485,0.299
		c0.465,0.198,0.872,0.471,1.219,0.818s0.62,0.754,0.819,1.219s0.298,0.961,0.298,1.485v5.865
		C116.835,17.346,116.735,17.842,116.537,18.307z M115.273,10.867c0-0.313-0.059-0.607-0.178-0.883
		c-0.119-0.274-0.279-0.514-0.482-0.717s-0.442-0.363-0.717-0.482s-0.569-0.178-0.882-0.178h-1.041
		c-0.313,0-0.607,0.059-0.882,0.178s-0.514,0.279-0.717,0.482s-0.364,0.442-0.482,0.717c-0.119,0.275-0.178,0.57-0.178,0.883v6.043
		c0,0.313,0.059,0.607,0.178,0.883c0.119,0.274,0.279,0.514,0.482,0.717s0.442,0.363,0.717,0.482s0.569,0.178,0.882,0.178h1.041
		c0.313,0,0.607-0.059,0.882-0.178s0.514-0.279,0.717-0.482s0.364-0.442,0.482-0.717c0.119-0.275,0.178-0.57,0.178-0.883V10.867z"/>
	<path class="st0" d="M125.938,12.797c0-1.414,0.135-2.729,0.406-3.948s0.647-2.354,1.13-3.409c0.482-1.053,1.056-2.031,1.72-2.932
		c0.665-0.902,1.39-1.738,2.177-2.508l0.914,0.914c-0.694,0.719-1.335,1.516-1.923,2.387s-1.094,1.809-1.517,2.813
		c-0.423,1.002-0.753,2.063-0.99,3.18s-0.355,2.285-0.355,3.504s0.119,2.387,0.355,3.504s0.567,2.178,0.99,3.18
		c0.423,1.004,0.929,1.941,1.517,2.813s1.229,1.668,1.923,2.387l-0.914,0.914c-0.787-0.77-1.513-1.605-2.177-2.508
		c-0.665-0.9-1.238-1.881-1.72-2.938s-0.859-2.196-1.13-3.415S125.938,14.201,125.938,12.797z"/>
	<path class="st0" d="M135.142,20.389V2.184h1.562v18.205H135.142z"/>
	<path class="st0" d="M148.51,20.389l-0.863-1.295c-0.355,0.465-0.8,0.84-1.333,1.123c-0.533,0.284-1.117,0.426-1.752,0.426h-0.394
		c-0.525,0-1.02-0.1-1.485-0.299c-0.465-0.198-0.872-0.471-1.219-0.818s-0.62-0.754-0.819-1.219s-0.298-0.961-0.298-1.485v-0.127
		c0-0.524,0.1-1.021,0.298-1.485s0.472-0.871,0.819-1.219s0.753-0.62,1.219-0.818c0.465-0.199,0.96-0.299,1.485-0.299h3.301v-2.006
		c0-0.313-0.059-0.607-0.178-0.883c-0.119-0.274-0.279-0.514-0.482-0.717s-0.442-0.363-0.717-0.482s-0.569-0.178-0.882-0.178h-0.914
		c-0.313,0-0.607,0.059-0.882,0.178s-0.514,0.279-0.717,0.482s-0.364,0.442-0.482,0.717c-0.119,0.275-0.178,0.57-0.178,0.883v0.47
		l-1.562-0.254v-0.127c0-0.524,0.1-1.021,0.298-1.485s0.472-0.871,0.819-1.219s0.753-0.62,1.219-0.818
		c0.465-0.199,0.96-0.299,1.485-0.299h0.914c0.525,0,1.02,0.1,1.485,0.299c0.465,0.198,0.872,0.471,1.219,0.818
		s0.62,0.754,0.819,1.219s0.298,0.961,0.298,1.485v9.433H148.51z M147.469,14.092h-3.301c-0.313,0-0.607,0.059-0.882,0.178
		s-0.514,0.281-0.717,0.488c-0.203,0.208-0.364,0.449-0.482,0.725c-0.119,0.274-0.178,0.568-0.178,0.882v0.546
		c0,0.313,0.059,0.607,0.178,0.883c0.119,0.274,0.279,0.514,0.482,0.717s0.442,0.363,0.717,0.482s0.569,0.178,0.882,0.178h1.041
		c0.313,0,0.607-0.059,0.882-0.178s0.514-0.279,0.717-0.482s0.364-0.442,0.482-0.717c0.119-0.275,0.178-0.57,0.178-0.883V14.092z"/>
	<path class="st0" d="M154.261,25.594h-1.511l2.311-6.322l-4.215-11.883h1.562l3.39,9.852l0.051,0.673l0.051-0.673l3.377-9.852
		h1.562L154.261,25.594z"/>
	<path class="st0" d="M170.784,18.307c-0.199,0.465-0.472,0.871-0.819,1.219s-0.753,0.62-1.219,0.818
		c-0.465,0.199-0.96,0.299-1.485,0.299h-1.041c-0.525,0-1.02-0.1-1.485-0.299c-0.465-0.198-0.872-0.471-1.219-0.818
		s-0.62-0.754-0.819-1.219s-0.298-0.961-0.298-1.485v-5.865c0-0.524,0.1-1.021,0.298-1.485s0.472-0.871,0.819-1.219
		s0.753-0.62,1.219-0.818c0.465-0.199,0.96-0.299,1.485-0.299h1.041c0.525,0,1.02,0.1,1.485,0.299
		c0.465,0.198,0.872,0.471,1.219,0.818s0.62,0.754,0.819,1.219s0.298,0.961,0.298,1.485v5.865
		C171.082,17.346,170.982,17.842,170.784,18.307z M169.521,10.867c0-0.313-0.059-0.607-0.178-0.883
		c-0.119-0.274-0.279-0.514-0.482-0.717s-0.442-0.363-0.717-0.482s-0.569-0.178-0.882-0.178h-1.041
		c-0.313,0-0.607,0.059-0.882,0.178s-0.514,0.279-0.717,0.482s-0.364,0.442-0.482,0.717c-0.119,0.275-0.178,0.57-0.178,0.883v6.043
		c0,0.313,0.059,0.607,0.178,0.883c0.119,0.274,0.279,0.514,0.482,0.717s0.442,0.363,0.717,0.482s0.569,0.178,0.882,0.178h1.041
		c0.313,0,0.607-0.059,0.882-0.178s0.514-0.279,0.717-0.482s0.364-0.442,0.482-0.717c0.119-0.275,0.178-0.57,0.178-0.883V10.867z"/>
	<path class="st0" d="M182.368,20.389l-0.863-1.32c-0.355,0.482-0.8,0.865-1.333,1.148c-0.533,0.284-1.117,0.426-1.752,0.426h-0.394
		c-0.525,0-1.02-0.1-1.485-0.299c-0.465-0.198-0.872-0.471-1.219-0.818s-0.62-0.754-0.819-1.219s-0.298-0.961-0.298-1.485V7.389
		h1.562v9.521c0,0.313,0.059,0.607,0.178,0.883c0.119,0.274,0.279,0.514,0.482,0.717s0.442,0.363,0.717,0.482
		s0.569,0.178,0.882,0.178h1.041c0.313,0,0.607-0.059,0.882-0.178s0.514-0.279,0.717-0.482s0.364-0.442,0.482-0.717
		c0.119-0.275,0.178-0.57,0.178-0.883V7.389h1.562v13H182.368z"/>
	<path class="st0" d="M190.747,20.389c-0.474,0-0.92-0.089-1.339-0.267s-0.783-0.423-1.092-0.736s-0.554-0.677-0.736-1.092
		s-0.273-0.858-0.273-1.333V8.874h-2.336V7.389h2.336V4.266l1.562-0.254v3.377h3.301v1.485h-3.301v8.163
		c0,0.262,0.049,0.506,0.146,0.73c0.097,0.224,0.23,0.42,0.4,0.59s0.368,0.303,0.597,0.4c0.229,0.097,0.474,0.146,0.736,0.146h1.422
		v1.485H190.747z"/>
	<path class="st0" d="M203.976,17.088c0,0.525-0.106,1.005-0.317,1.441c-0.211,0.436-0.5,0.811-0.863,1.123s-0.785,0.557-1.263,0.73
		c-0.478,0.173-0.979,0.26-1.504,0.26h-1.041c-0.525,0-1.026-0.1-1.504-0.299c-0.478-0.198-0.897-0.471-1.257-0.818
		s-0.647-0.754-0.863-1.219s-0.324-0.961-0.324-1.485v-0.521l1.562-0.254v0.863c0,0.313,0.065,0.607,0.197,0.883
		c0.131,0.274,0.307,0.514,0.527,0.717s0.474,0.363,0.762,0.482s0.588,0.178,0.901,0.178h1.041c0.313,0,0.614-0.047,0.901-0.14
		s0.544-0.227,0.768-0.399c0.224-0.174,0.402-0.383,0.533-0.629s0.197-0.525,0.197-0.838c0-0.465-0.102-0.846-0.305-1.143
		s-0.472-0.544-0.806-0.742c-0.334-0.199-0.715-0.364-1.143-0.496c-0.427-0.131-0.865-0.262-1.314-0.393
		c-0.449-0.132-0.887-0.281-1.314-0.451s-0.808-0.392-1.143-0.666c-0.334-0.275-0.603-0.621-0.806-1.035s-0.305-0.932-0.305-1.549
		c0-0.525,0.102-1.005,0.305-1.441c0.203-0.436,0.478-0.811,0.825-1.123s0.751-0.557,1.212-0.73c0.461-0.173,0.954-0.26,1.479-0.26
		h0.914c0.525,0,1.02,0.1,1.485,0.299c0.465,0.198,0.872,0.471,1.219,0.818s0.62,0.754,0.819,1.219s0.298,0.961,0.298,1.485v0.051
		l-1.562,0.254v-0.394c0-0.313-0.059-0.607-0.178-0.883c-0.119-0.274-0.279-0.514-0.482-0.717s-0.442-0.363-0.717-0.482
		s-0.569-0.178-0.882-0.178h-0.914c-0.313,0-0.607,0.047-0.882,0.14s-0.514,0.227-0.717,0.399c-0.203,0.174-0.364,0.383-0.482,0.629
		s-0.178,0.525-0.178,0.838c0,0.449,0.102,0.814,0.305,1.098c0.203,0.284,0.472,0.523,0.806,0.718s0.715,0.357,1.143,0.489
		c0.427,0.131,0.863,0.266,1.308,0.406c0.444,0.139,0.88,0.298,1.308,0.476s0.808,0.406,1.143,0.686s0.603,0.628,0.806,1.048
		C203.874,15.951,203.976,16.471,203.976,17.088z"/>
	<path class="st0" d="M212.532,12.797c0,1.404-0.135,2.717-0.406,3.936s-0.647,2.357-1.13,3.415s-1.056,2.038-1.72,2.938
		c-0.665,0.902-1.39,1.738-2.177,2.508l-0.914-0.914c0.703-0.719,1.346-1.516,1.93-2.387s1.087-1.809,1.511-2.813
		c0.423-1.002,0.753-2.063,0.99-3.18s0.355-2.285,0.355-3.504s-0.119-2.387-0.355-3.504s-0.567-2.178-0.99-3.18
		c-0.423-1.004-0.927-1.941-1.511-2.813s-1.227-1.668-1.93-2.387L207.099,0c0.787,0.77,1.513,1.605,2.177,2.508
		c0.665,0.9,1.238,1.879,1.72,2.932c0.482,1.055,0.859,2.19,1.13,3.409S212.532,11.383,212.532,12.797z"/>
	<path class="st0" d="M230.02,18.307c-0.199,0.465-0.472,0.871-0.819,1.219s-0.753,0.62-1.219,0.818
		c-0.465,0.199-0.96,0.299-1.485,0.299h-1.041c-0.525,0-1.02-0.1-1.485-0.299c-0.465-0.198-0.872-0.471-1.219-0.818
		s-0.62-0.754-0.819-1.219s-0.298-0.961-0.298-1.485v-5.865c0-0.524,0.1-1.021,0.298-1.485s0.472-0.871,0.819-1.219
		s0.753-0.62,1.219-0.818c0.465-0.199,0.96-0.299,1.485-0.299h1.041c0.525,0,1.02,0.1,1.485,0.299
		c0.465,0.198,0.872,0.471,1.219,0.818s0.62,0.754,0.819,1.219s0.298,0.961,0.298,1.485v3.06h-7.122v2.895
		c0,0.313,0.059,0.607,0.178,0.883c0.119,0.274,0.279,0.514,0.482,0.717s0.442,0.363,0.717,0.482s0.569,0.178,0.882,0.178h1.041
		c0.313,0,0.607-0.059,0.882-0.178s0.514-0.279,0.717-0.482s0.364-0.442,0.482-0.717c0.119-0.275,0.178-0.57,0.178-0.883v-0.863
		l1.562,0.254v0.521C230.318,17.346,230.219,17.842,230.02,18.307z M228.757,10.867c0-0.313-0.059-0.607-0.178-0.883
		c-0.119-0.274-0.279-0.514-0.482-0.717s-0.442-0.363-0.717-0.482s-0.569-0.178-0.882-0.178h-1.041
		c-0.313,0-0.607,0.059-0.882,0.178s-0.514,0.279-0.717,0.482s-0.364,0.442-0.482,0.717c-0.119,0.275-0.178,0.57-0.178,0.883v1.93
		h5.561V10.867z"/>
	<path class="st0" d="M240.563,20.389v-9.521c0-0.313-0.059-0.607-0.178-0.883c-0.119-0.274-0.279-0.514-0.482-0.717
		s-0.442-0.363-0.717-0.482s-0.569-0.178-0.882-0.178h-1.041c-0.313,0-0.607,0.059-0.882,0.178s-0.514,0.279-0.717,0.482
		s-0.364,0.442-0.482,0.717c-0.119,0.275-0.178,0.57-0.178,0.883v9.521h-1.562v-13h0.521l0.851,1.32
		c0.355-0.482,0.802-0.865,1.339-1.148c0.538-0.284,1.124-0.426,1.758-0.426h0.394c0.525,0,1.02,0.1,1.485,0.299
		c0.465,0.198,0.872,0.471,1.219,0.818s0.62,0.754,0.819,1.219s0.298,0.961,0.298,1.485v9.433H240.563z"/>
	<path class="st0" d="M258.35,20.389v-9.521c0-0.313-0.059-0.607-0.178-0.883c-0.119-0.274-0.279-0.514-0.482-0.717
		s-0.442-0.363-0.717-0.482s-0.569-0.178-0.882-0.178h-1.041c-0.313,0-0.607,0.059-0.882,0.178s-0.514,0.279-0.717,0.482
		s-0.364,0.442-0.482,0.717c-0.119,0.275-0.178,0.57-0.178,0.883v9.521h-1.562V2.184h1.562V8.48c0.355-0.424,0.783-0.754,1.282-0.99
		s1.041-0.355,1.625-0.355h0.394c0.525,0,1.02,0.1,1.485,0.299c0.465,0.198,0.872,0.471,1.219,0.818s0.62,0.754,0.819,1.219
		s0.298,0.961,0.298,1.485v9.433H258.35z"/>
	<path class="st0" d="M267.77,20.389c-0.474,0-0.92-0.089-1.339-0.267s-0.783-0.423-1.092-0.736s-0.554-0.677-0.736-1.092
		s-0.273-0.858-0.273-1.333V8.874h-2.336V7.389h2.336V4.266l1.562-0.254v3.377h3.301v1.485h-3.301v8.163
		c0,0.262,0.049,0.506,0.146,0.73c0.097,0.224,0.23,0.42,0.4,0.59s0.368,0.303,0.597,0.4c0.229,0.097,0.474,0.146,0.736,0.146h1.422
		v1.485H267.77z"/>
	<path class="st0" d="M285.784,20.389v-9.521c0-0.313-0.059-0.607-0.178-0.883c-0.119-0.274-0.279-0.514-0.482-0.717
		s-0.442-0.363-0.717-0.482s-0.569-0.178-0.882-0.178h-0.774c-0.313,0-0.607,0.059-0.882,0.178s-0.516,0.279-0.724,0.482
		s-0.37,0.442-0.489,0.717c-0.119,0.275-0.178,0.57-0.178,0.883v9.521h-1.549v-9.521c0-0.313-0.059-0.607-0.178-0.883
		c-0.119-0.274-0.281-0.514-0.489-0.717s-0.449-0.363-0.724-0.482s-0.569-0.178-0.882-0.178h-0.774
		c-0.313,0-0.607,0.059-0.882,0.178s-0.514,0.279-0.717,0.482s-0.364,0.442-0.482,0.717c-0.119,0.275-0.178,0.57-0.178,0.883v9.521
		h-1.562v-13h0.521l0.851,1.32c0.355-0.482,0.802-0.865,1.339-1.148c0.538-0.284,1.124-0.426,1.758-0.426h0.127
		c0.736,0,1.401,0.182,1.993,0.546s1.049,0.847,1.371,1.447c0.161-0.296,0.36-0.567,0.597-0.813s0.5-0.455,0.787-0.628
		c0.288-0.174,0.601-0.31,0.939-0.406c0.338-0.098,0.69-0.146,1.054-0.146h0.127c0.525,0,1.02,0.1,1.485,0.299
		c0.465,0.198,0.872,0.471,1.219,0.818s0.62,0.754,0.819,1.219s0.298,0.961,0.298,1.485v9.433H285.784z"/>
	<path class="st0" d="M290.989,20.389V2.184h1.562v18.205H290.989z"/>
</g>
</svg>