<!-- Generator: Adobe Illustrator 17.0.0, SVG Export Plug-In  -->
<svg version="1.1"
	 xmlns="http://www.w3.org/2000/svg" xmlns:xlink="http://www.w3.org/1999/xlink" xmlns:a="http://ns.adobe.com/AdobeSVGViewerExtensions/3.0/"
	 x="0px" y="0px" width="418.92px" height="350.581px" viewBox="0 0 418.92 350.581"
	 style="enable-background:new 0 0 418.92 350.581;" xml:space="preserve">
<style type="text/css">
	.st0{fill:#282F39;}
	.st1{fill:none;stroke:#000000;stroke-width:3;stroke-miterlimit:10;}
	.st2{fill:none;stroke:#282F39;stroke-width:3;stroke-miterlimit:10;}
	.st3{stroke:#E54F26;stroke-width:0.5;stroke-miterlimit:10;}
	.st4{fill:url(#SVGID_1_);}
	.st5{fill:#7A7A7A;stroke:#FFFFFF;stroke-miterlimit:10;}
	.st6{fill:#A0A0A0;}
	.st7{opacity:0.6;}
	.st8{opacity:0.5;}
	.st9{fill:#E54F26;}
	.st10{fill:#A5A5A5;}
	.st11{fill:#FFFFFF;stroke:#000000;stroke-width:2;stroke-miterlimit:10;}
	.st12{fill-rule:evenodd;clip-rule:evenodd;fill:#003333;}
	.st13{fill-rule:evenodd;clip-rule:evenodd;fill:#34495E;}
	.st14{opacity:0.5;fill-rule:evenodd;clip-rule:evenodd;}
	.st15{opacity:0.8;fill-rule:evenodd;clip-rule:evenodd;fill:#FFFFFF;}
	.st16{fill-rule:evenodd;clip-rule:evenodd;fill:#B3B2B3;stroke:#FFFFFF;stroke-miterlimit:10;}
	.st17{opacity:0.3;fill-rule:evenodd;clip-rule:evenodd;}
	.st18{opacity:0.3;}
	.st19{opacity:0.5;fill:#FFFFFF;}
	.st20{fill-rule:evenodd;clip-rule:evenodd;fill:#333333;}
	.st21{fill:url(#SVGID_2_);}
</style>
<defs>
</defs>
<g>
	<g>
		<g>
			<g>
				<path d="M133.281,46.148h14.494c0.365,0,0.658-0.294,0.658-0.657c0-0.363-0.293-0.657-0.658-0.657h-14.494
					c-0.363,0-0.658,0.294-0.658,0.657C132.623,45.854,132.918,46.148,133.281,46.148z"/>
			</g>
			<g>
				<path d="M138.901,37.347h8.874c0.365,0,0.658-0.294,0.658-0.657s-0.293-0.658-0.658-0.658h-8.874
					c-0.364,0-0.658,0.295-0.658,0.658S138.537,37.347,138.901,37.347z"/>
			</g>
		</g>
		<g>
			<g>
				<path class="st0" d="M44.604,324.764h14.494c0.365,0,0.658-0.295,0.658-0.658s-0.293-0.657-0.658-0.657H44.604
					c-0.363,0-0.658,0.294-0.658,0.657S44.24,324.764,44.604,324.764z"/>
			</g>
			<g>
				<path class="st0" d="M50.223,315.961h8.875c0.365,0,0.658-0.294,0.658-0.657c0-0.363-0.293-0.658-0.658-0.658h-8.875
					c-0.363,0-0.657,0.295-0.657,0.658C49.565,315.667,49.859,315.961,50.223,315.961z"/>
			</g>
		</g>
		<g>
			<g>
				<path d="M270.85,327.394h-14.494c-0.364,0-0.658-0.294-0.658-0.657c0-0.363,0.294-0.658,0.658-0.658h14.494
					c0.363,0,0.658,0.295,0.658,0.658C271.508,327.1,271.213,327.394,270.85,327.394z"/>
			</g>
			<g>
				<path d="M265.23,318.592h-8.875c-0.364,0-0.658-0.295-0.658-0.658c0-0.363,0.294-0.658,0.658-0.658h8.875
					c0.363,0,0.657,0.295,0.657,0.658C265.888,318.297,265.594,318.592,265.23,318.592z"/>
			</g>
		</g>
		<g>
			<g>
				<path d="M270.85,327.394h-14.494c-0.364,0-0.658-0.294-0.658-0.657c0-0.363,0.294-0.658,0.658-0.658h14.494
					c0.363,0,0.658,0.295,0.658,0.658C271.508,327.1,271.213,327.394,270.85,327.394z"/>
			</g>
			<g>
				<path d="M265.23,318.592h-8.875c-0.364,0-0.658-0.295-0.658-0.658c0-0.363,0.294-0.658,0.658-0.658h8.875
					c0.363,0,0.657,0.295,0.657,0.658C265.888,318.297,265.594,318.592,265.23,318.592z"/>
			</g>
		</g>
		<g>
			<g>
				<path d="M156.154,327.394h14.494c0.363,0,0.658-0.294,0.658-0.657c0-0.363-0.295-0.658-0.658-0.658h-14.494
					c-0.363,0-0.658,0.295-0.658,0.658C155.496,327.1,155.791,327.394,156.154,327.394z"/>
			</g>
			<g>
				<path d="M161.773,318.592h8.875c0.363,0,0.658-0.295,0.658-0.658c0-0.363-0.295-0.658-0.658-0.658h-8.875
					c-0.363,0-0.658,0.295-0.658,0.658C161.115,318.297,161.41,318.592,161.773,318.592z"/>
			</g>
		</g>
		<g>
			<path d="M34.848,258.869H13.387c-0.363,0-0.658-0.295-0.658-0.658c0-0.362,0.295-0.657,0.658-0.657h21.461
				c0.363,0,0.656,0.295,0.656,0.657C35.504,258.574,35.211,258.869,34.848,258.869z"/>
		</g>
		<g>
			<path d="M375.203,31.139H353.74c-0.363,0-0.658-0.294-0.658-0.657s0.295-0.657,0.658-0.657h21.463
				c0.363,0,0.655,0.294,0.655,0.657S375.566,31.139,375.203,31.139z"/>
		</g>
		<g>
			<path d="M46.688,106.213H25.227c-0.363,0-0.658-0.294-0.658-0.657c0-0.363,0.295-0.657,0.658-0.657h21.462
				c0.363,0,0.657,0.294,0.657,0.657C47.346,105.919,47.052,106.213,46.688,106.213z"/>
		</g>
		<g>
			<path d="M25.877,243.366h-12.49c-0.363,0-0.658-0.293-0.658-0.656c0-0.363,0.295-0.658,0.658-0.658h12.49
				c0.361,0,0.656,0.295,0.656,0.658C26.533,243.073,26.238,243.366,25.877,243.366z"/>
		</g>
		<g>
			<path d="M353.885,22.416h-12.49c-0.363,0-0.658-0.294-0.658-0.657s0.295-0.658,0.658-0.658h12.49
				c0.363,0,0.656,0.295,0.656,0.658S354.248,22.416,353.885,22.416z"/>
		</g>
		<g>
			<path d="M55.445,98.799h-12.49c-0.363,0-0.658-0.293-0.658-0.656c0-0.363,0.295-0.658,0.658-0.658h12.49
				c0.361,0,0.656,0.295,0.656,0.658C56.102,98.506,55.807,98.799,55.445,98.799z"/>
		</g>
		<g>
			<path d="M358.569,173.082h-21.462c-0.363,0-0.657-0.294-0.657-0.657c0-0.363,0.294-0.657,0.657-0.657h21.462
				c0.364,0,0.657,0.294,0.657,0.657C359.227,172.788,358.934,173.082,358.569,173.082z"/>
		</g>
		<g>
			<path d="M349.598,157.58h-12.49c-0.363,0-0.657-0.294-0.657-0.657s0.294-0.658,0.657-0.658h12.49
				c0.363,0,0.657,0.295,0.657,0.658S349.961,157.58,349.598,157.58z"/>
		</g>
		<g>
			<rect x="79.24" y="70.021" width="59.861" height="1.476"/>
			<rect x="99.721" y="65.297" width="39.381" height="1.477"/>
		</g>
		<g>
			<rect x="319.6" y="343.798" width="59.861" height="1.476"/>
			<rect x="319.6" y="339.072" width="39.382" height="1.477"/>
		</g>
		<g>
			<rect x="359.059" y="248.092" width="59.861" height="1.475"/>
			<rect x="359.059" y="243.366" width="39.381" height="1.477"/>
		</g>
		<g>
			<rect x="277.564" y="127.942" width="59.861" height="1.476"/>
			<rect x="277.564" y="123.218" width="39.382" height="1.477"/>
		</g>
		<g>
			<rect x="6.459" y="344.527" width="59.861" height="1.475"/>
			<rect x="26.938" y="339.802" width="39.383" height="1.477"/>
		</g>
		<g>
			<rect x="0" y="183.871" width="59.862" height="1.475"/>
			<rect x="20.481" y="179.146" width="39.381" height="1.477"/>
		</g>
		<g id="XMLID_43_">
			<g id="XMLID_47_">
				<line id="XMLID_49_" class="st1" x1="293.266" y1="12.803" x2="289.478" y2="16.588"/>
				<line id="XMLID_48_" class="st1" x1="284.311" y1="21.758" x2="280.526" y2="25.543"/>
			</g>
			<g id="XMLID_44_">
				<line id="XMLID_46_" class="st1" x1="280.526" y1="12.803" x2="284.311" y2="16.588"/>
				<line id="XMLID_45_" class="st1" x1="289.478" y1="21.758" x2="293.266" y2="25.543"/>
			</g>
		</g>
		<g id="XMLID_36_">
			<g id="XMLID_40_">
				<line id="XMLID_42_" class="st1" x1="399.754" y1="153.826" x2="395.967" y2="157.612"/>
				<line id="XMLID_41_" class="st1" x1="390.799" y1="162.781" x2="387.014" y2="166.566"/>
			</g>
			<g id="XMLID_37_">
				<line id="XMLID_39_" class="st1" x1="387.014" y1="153.826" x2="390.799" y2="157.612"/>
				<line id="XMLID_38_" class="st1" x1="395.967" y1="162.781" x2="399.754" y2="166.566"/>
			</g>
		</g>
		<g id="XMLID_29_">
			<g id="XMLID_33_">
				<line id="XMLID_35_" class="st1" x1="153.578" y1="9.537" x2="149.793" y2="13.323"/>
				<line id="XMLID_34_" class="st1" x1="144.623" y1="18.492" x2="140.839" y2="22.277"/>
			</g>
			<g id="XMLID_30_">
				<line id="XMLID_32_" class="st1" x1="140.839" y1="9.537" x2="144.623" y2="13.323"/>
				<line id="XMLID_31_" class="st1" x1="149.793" y1="18.492" x2="153.578" y2="22.277"/>
			</g>
		</g>
		<g id="XMLID_22_">
			<g id="XMLID_26_">
				<line id="XMLID_28_" class="st2" x1="25.465" y1="286.806" x2="21.678" y2="290.591"/>
				<line id="XMLID_27_" class="st2" x1="16.51" y1="295.761" x2="12.725" y2="299.546"/>
			</g>
			<g id="XMLID_23_">
				<line id="XMLID_25_" class="st2" x1="12.725" y1="286.806" x2="16.51" y2="290.591"/>
				<line id="XMLID_24_" class="st2" x1="21.678" y1="295.761" x2="25.465" y2="299.546"/>
			</g>
		</g>
		<g id="XMLID_15_">
			<g id="XMLID_19_">
				<line id="XMLID_21_" class="st1" x1="86.471" y1="203.226" x2="83.809" y2="205.886"/>
				<line id="XMLID_20_" class="st1" x1="80.177" y1="209.52" x2="77.516" y2="212.18"/>
			</g>
			<g id="XMLID_16_">
				<line id="XMLID_18_" class="st1" x1="77.516" y1="203.226" x2="80.177" y2="205.886"/>
				<line id="XMLID_17_" class="st1" x1="83.809" y1="209.52" x2="86.471" y2="212.18"/>
			</g>
		</g>
		<g id="XMLID_8_">
			<g id="XMLID_12_">
				<line id="XMLID_14_" class="st1" x1="282.041" y1="235.803" x2="279.381" y2="238.463"/>
				<line id="XMLID_13_" class="st1" x1="275.747" y1="242.097" x2="273.088" y2="244.757"/>
			</g>
			<g id="XMLID_9_">
				<line id="XMLID_11_" class="st1" x1="273.088" y1="235.803" x2="275.747" y2="238.463"/>
				<line id="XMLID_10_" class="st1" x1="279.381" y1="242.097" x2="282.041" y2="244.757"/>
			</g>
		</g>
		<g id="XMLID_1_">
			<g id="XMLID_5_">
				<line id="XMLID_7_" class="st1" x1="415.852" y1="281.681" x2="412.065" y2="285.467"/>
				<line id="XMLID_6_" class="st1" x1="406.897" y1="290.636" x2="403.111" y2="294.421"/>
			</g>
			<g id="XMLID_2_">
				<line id="XMLID_4_" class="st1" x1="403.111" y1="281.681" x2="406.897" y2="285.467"/>
				<line id="XMLID_3_" class="st1" x1="412.065" y1="290.636" x2="415.852" y2="294.421"/>
			</g>
		</g>
		<g>
			<rect x="199.394" y="349.122" width="29.483" height="1.459"/>
			<rect x="161.615" y="349.122" width="29.486" height="1.459"/>
			<rect x="153.324" y="349.122" width="2.764" height="1.459"/>
		</g>
		<g>
			<rect x="230.916" y="0" width="29.484" height="1.459"/>
			<rect x="193.137" y="0" width="29.486" height="1.459"/>
			<rect x="184.846" y="0" width="2.764" height="1.459"/>
		</g>
	</g>
	<g id="Network_Security_1_">
		<g id="Security_1_">
			<path class="st3" d="M223.086,13.339L153.457,43.41v74.579c0,0,4.109,51.932,69.629,80.767
				c65.519-28.835,69.627-80.767,69.627-80.767V43.41L223.086,13.339z"/>
			<linearGradient id="SVGID_1_" gradientUnits="userSpaceOnUse" x1="167.6856" y1="106.0479" x2="278.4854" y2="106.0479">
				<stop  offset="0" style="stop-color:#783214"/>
				<stop  offset="0.5" style="stop-color:#F16529"/>
				<stop  offset="1" style="stop-color:#783214"/>
			</linearGradient>
			<path class="st4" d="M223.086,32.284l-55.4,23.927v59.337c0,0,3.27,41.321,55.4,64.264c52.129-22.942,55.4-64.264,55.4-64.264
				V56.211L223.086,32.284z"/>
			<polygon class="st3" points="222.805,122.987 266.517,85.601 259.949,77.923 223.727,108.906 208.68,91.974 201.128,98.686 
				222.706,122.967 222.758,123.026 222.76,123.026 222.76,123.026 			"/>
		</g>
		<g id="Connection_1_">
			<g>
				<polygon class="st5" points="73.471,299.983 70.973,298.601 139.477,174.885 196.699,174.885 196.699,177.74 141.158,177.74 
									"/>
			</g>
			<g>
				<polygon class="st5" points="198.852,308.3 195.998,308.3 195.998,199.975 222.096,173.876 224.113,175.895 198.852,201.155 
									"/>
			</g>
			<g>
				<polygon class="st5" points="354.488,305.533 306.5,175.304 234.295,175.304 234.295,172.45 308.49,172.45 357.166,304.546 				
					"/>
			</g>
			<circle class="st5" cx="197.364" cy="176.104" r="4.679"/>
			<circle class="st5" cx="222.343" cy="174.885" r="4.679"/>
			<circle class="st5" cx="235.982" cy="173.876" r="4.678"/>
		</g>
		<g id="Key_5_">
			<g id="Key_8_">
				<path class="st6" d="M122.811,206.043h2.063v-3.117c0-0.871-0.707-1.578-1.58-1.578h-8.602c-0.871,0-1.58,0.707-1.58,1.578v12.9
					c0,0.874,0.709,1.58,1.58,1.58h0.483v-14.392h7.636V206.043z"/>
				<path class="st0" d="M126.672,225.35c0,0.871-0.707,1.58-1.58,1.58h-12.159c-0.872,0-1.579-0.709-1.579-1.58V211.9
					c0-0.873,0.707-1.58,1.579-1.58h12.159c0.873,0,1.58,0.707,1.58,1.58V225.35z"/>
				<path class="st7" d="M120.379,217.051c0-0.756-0.611-1.367-1.366-1.367c-0.755,0-1.367,0.611-1.367,1.367
					c0,0.519,0.294,0.963,0.718,1.196v3.273h1.297v-3.273C120.087,218.014,120.379,217.569,120.379,217.051z"/>
				<path class="st8" d="M119.013,215.999c-0.597,0-1.081,0.484-1.081,1.08c0,0.411,0.232,0.763,0.568,0.946v2.587v0.656h1.021
					v-0.656h0.004v-2.587c0.336-0.184,0.566-0.535,0.566-0.946C120.092,216.483,119.609,215.999,119.013,215.999z"/>
			</g>
			<g id="Key_7_">
				<path class="st6" d="M199.887,210.507h2.061v-3.117c0-0.871-0.705-1.58-1.577-1.58h-8.601c-0.872,0-1.58,0.709-1.58,1.58v12.901
					c0,0.871,0.708,1.58,1.58,1.58h0.482v-14.393h7.635V210.507z"/>
				<path class="st9" d="M203.748,229.811c0,0.874-0.707,1.58-1.578,1.58h-12.16c-0.873,0-1.58-0.706-1.58-1.58v-13.448
					c0-0.871,0.707-1.58,1.58-1.58h12.16c0.871,0,1.578,0.709,1.578,1.58V229.811z"/>
				<path class="st7" d="M197.455,221.515c0-0.755-0.611-1.367-1.365-1.367c-0.756,0-1.367,0.612-1.367,1.367
					c0,0.52,0.291,0.964,0.717,1.194v3.273h1.299v-3.273C197.163,222.479,197.455,222.034,197.455,221.515z"/>
				<path class="st8" d="M196.09,220.461c-0.598,0-1.082,0.486-1.082,1.083c0,0.41,0.232,0.763,0.568,0.944v2.589v0.654h1.023
					v-0.654h0.002v-2.589c0.338-0.182,0.568-0.534,0.568-0.944C197.17,220.947,196.686,220.461,196.09,220.461z"/>
			</g>
			<g id="Key_6_">
				<path class="st6" d="M330.149,212.367h2.061v-3.117c0-0.87-0.707-1.577-1.58-1.577h-8.601c-0.872,0-1.579,0.707-1.579,1.577
					v12.9c0,0.874,0.707,1.581,1.579,1.581h0.483v-14.393h7.636V212.367z"/>
				<path class="st10" d="M334.01,231.675c0,0.87-0.707,1.579-1.58,1.579h-12.158c-0.873,0-1.58-0.709-1.58-1.579v-13.452
					c0-0.87,0.707-1.579,1.58-1.579h12.158c0.873,0,1.58,0.709,1.58,1.579V231.675z"/>
				<path class="st7" d="M327.717,223.375c0-0.755-0.611-1.366-1.367-1.366c-0.754,0-1.367,0.611-1.367,1.366
					c0,0.519,0.295,0.964,0.72,1.196v3.274H327v-3.274C327.425,224.339,327.717,223.894,327.717,223.375z"/>
				<path class="st8" d="M326.35,222.324c-0.596,0-1.078,0.483-1.078,1.08c0,0.41,0.23,0.763,0.566,0.944v2.589v0.656h1.023v-0.656
					h0.002v-2.589c0.336-0.182,0.566-0.534,0.566-0.944C327.43,222.808,326.947,222.324,326.35,222.324z"/>
			</g>
		</g>
		<g id="Clouds_1_">
			<g>
				<path class="st11" d="M170.545,134.344h-2.244c0.385-1.48,0.592-3.031,0.592-4.633c0-10.111-8.197-18.308-18.309-18.308
					c-3.326,0-6.443,0.892-9.133,2.443c-3.162-16.3-17.505-28.606-34.73-28.606c-17.215,0-31.553,12.297-34.726,28.585
					c-1.771-0.532-3.647-0.821-5.591-0.821c-10.717,0-19.402,8.687-19.402,19.404c0,0.912,0.066,1.807,0.188,2.686
					c-6.021,1.972-10.373,7.635-10.373,14.315c0,8.321,6.746,15.068,15.066,15.068h118.662c8.32,0,15.066-6.747,15.066-15.068
					C185.611,141.089,178.865,134.344,170.545,134.344z"/>
			</g>
			<g>
				<path class="st11" d="M385.682,70.341h-2.244c0.385-1.479,0.592-3.031,0.592-4.632c0-10.111-8.197-18.307-18.307-18.307
					c-3.328,0-6.444,0.891-9.133,2.441c-3.164-16.299-17.508-28.606-34.73-28.606c-17.217,0-31.555,12.298-34.727,28.587
					c-1.772-0.532-3.647-0.822-5.592-0.822c-10.717,0-19.402,8.688-19.402,19.403c0,0.912,0.066,1.807,0.188,2.686
					c-6.022,1.974-10.373,7.635-10.373,14.317c0,8.321,6.746,15.066,15.066,15.066h118.662c8.321,0,15.066-6.745,15.066-15.066
					C400.748,77.088,394.003,70.341,385.682,70.341z"/>
			</g>
			<g>
				<path class="st11" d="M334.945,178.177h-1.598c0.273-1.054,0.422-2.159,0.422-3.297c0-7.198-5.834-13.033-13.031-13.033
					c-2.369,0-4.586,0.634-6.5,1.738c-2.252-11.601-12.461-20.36-24.721-20.36c-12.256,0-22.461,8.752-24.719,20.347
					c-1.26-0.38-2.596-0.584-3.98-0.584c-7.627,0-13.811,6.184-13.811,13.81c0,0.649,0.048,1.286,0.135,1.911
					c-4.287,1.406-7.384,5.437-7.384,10.191c0,5.924,4.802,10.726,10.724,10.726h84.463c5.924,0,10.725-4.802,10.725-10.726
					C345.67,182.977,340.869,178.177,334.945,178.177z"/>
			</g>
		</g>
		<g id="Computer_2_">
			<g id="Laptop_6_">
				<g>
					<rect x="46.865" y="286.903" class="st12" width="49.439" height="2.296"/>
					<path class="st13" d="M108.33,258.967H33.968c-3.409,0-4.461,2.14-3.804,4.67c0-0.031,0.006-0.061,0.008-0.093
						c-0.008,0.172,0.006,0.345,0.053,0.522l5.381,20.314c0.814,3.084,1.543,3.181,5.555,3.175l62.178-0.006
						c3.229,0,4.801,0.006,5.441-3.092l4.191-20.392c0.016-0.077,0.021-0.156,0.027-0.231c0.002,0.002,0.002,0.004,0.002,0.004
						l0.203-1.728C113.49,259.63,110.225,258.967,108.33,258.967z M30.203,263.275c-0.01,0.046-0.02,0.095-0.025,0.143
						C30.184,263.37,30.193,263.321,30.203,263.275z M30.365,262.801c-0.012,0.025-0.025,0.047-0.037,0.069
						C30.34,262.848,30.354,262.826,30.365,262.801z M30.273,263.022c-0.016,0.039-0.029,0.08-0.041,0.118
						C30.244,263.102,30.258,263.061,30.273,263.022z M33.308,261.033c0.112-0.01,0.226-0.016,0.337-0.016
						C33.533,261.018,33.42,261.023,33.308,261.033z M31.24,261.802c0.008-0.006,0.015-0.011,0.024-0.018
						C31.255,261.791,31.248,261.796,31.24,261.802z M31.484,261.64c0.016-0.013,0.031-0.02,0.047-0.031
						C31.516,261.62,31.5,261.627,31.484,261.64z M31.752,261.488c0.022-0.012,0.045-0.023,0.069-0.036
						C31.797,261.465,31.774,261.477,31.752,261.488z M32.037,261.354c0.031-0.013,0.063-0.025,0.094-0.038
						C32.1,261.328,32.068,261.342,32.037,261.354z M32.338,261.24c0.039-0.015,0.08-0.027,0.121-0.038
						C32.418,261.213,32.377,261.226,32.338,261.24z M32.652,261.145c0.05-0.011,0.1-0.021,0.15-0.031
						C32.752,261.124,32.702,261.134,32.652,261.145z M32.977,261.075c0.064-0.009,0.129-0.017,0.195-0.024
						C33.105,261.059,33.041,261.066,32.977,261.075z"/>
					<path class="st14" d="M33.968,258.967h74.362c1.895,0,5.16,0.663,4.873,3.145L113,263.839
						c-0.275-1.284-1.878-2.821-3.449-2.821H33.645c-1.711,0-3.498,1.183-3.48,2.619C29.507,261.107,30.559,258.967,33.968,258.967
						L33.968,258.967z"/>
					<polygon class="st15" points="33.949,262.452 109.65,262.369 105.568,286.03 38.697,286.048 					"/>
					<path class="st16" d="M37.67,288.249h68.268c1.131,0,2.059,0.927,2.059,2.057v37.645c0,1.13-0.928,2.058-2.059,2.058H37.67
						c-1.132,0-2.059-0.928-2.059-2.058v-37.645C35.611,289.176,36.538,288.249,37.67,288.249L37.67,288.249z"/>
					<rect x="62.132" y="317.273" class="st12" width="19.337" height="10.123"/>
					<rect x="39.201" y="291.776" class="st17" width="65.204" height="23.701"/>
					<path class="st18" d="M79.672,322.429c0,2.41-0.417,4.365-0.93,4.365H64.391c-0.516,0-0.934-1.955-0.934-4.365l0,0
						c0-2.409,0.418-4.364,0.934-4.364h14.352C79.255,318.065,79.672,320.02,79.672,322.429L79.672,322.429z"/>
				</g>
				<g id="Light_6_">
					<polygon class="st19" points="80.16,262.371 64.213,262.369 47.495,286.044 58.662,286.038 					"/>
					<polygon class="st19" points="88.064,262.393 67.266,286.038 69.502,286.038 95.705,262.375 					"/>
				</g>
				<g id="Keyboard_3_">
					<path class="st20" d="M40.613,293.176h3.026c0.179,0,0.321,0.191,0.321,0.423v3.26c0,0.23-0.142,0.422-0.321,0.422h-3.026
						c-0.18,0-0.328-0.191-0.328-0.422v-3.26C40.285,293.367,40.434,293.176,40.613,293.176L40.613,293.176z"/>
					<path class="st20" d="M45.523,293.176h3.025c0.18,0,0.328,0.191,0.328,0.423v3.26c0,0.23-0.148,0.422-0.328,0.422h-3.025
						c-0.18,0-0.326-0.191-0.326-0.422v-3.26C45.197,293.367,45.344,293.176,45.523,293.176L45.523,293.176z"/>
					<path class="st20" d="M50.44,293.176h3.021c0.179,0,0.328,0.191,0.328,0.423v3.26c0,0.23-0.149,0.422-0.328,0.422H50.44
						c-0.179,0-0.327-0.191-0.327-0.422v-3.26C50.113,293.367,50.262,293.176,50.44,293.176L50.44,293.176z"/>
					<path class="st20" d="M55.352,293.176h3.021c0.184,0,0.326,0.191,0.326,0.423v3.26c0,0.23-0.142,0.422-0.326,0.422h-3.021
						c-0.18,0-0.327-0.191-0.327-0.422v-3.26C55.024,293.367,55.172,293.176,55.352,293.176L55.352,293.176z"/>
					<path class="st20" d="M60.262,293.176h3.027c0.18,0,0.328,0.191,0.328,0.423v3.26c0,0.23-0.148,0.422-0.328,0.422h-3.027
						c-0.18,0-0.328-0.191-0.328-0.422v-3.26C59.934,293.367,60.082,293.176,60.262,293.176L60.262,293.176z"/>
					<path class="st20" d="M65.18,293.176h3.02c0.18,0,0.328,0.191,0.328,0.423v3.26c0,0.23-0.148,0.422-0.328,0.422h-3.02
						c-0.18,0-0.328-0.191-0.328-0.422v-3.26C64.852,293.367,65,293.176,65.18,293.176L65.18,293.176z"/>
					<path class="st20" d="M70.09,293.176h3.021c0.186,0,0.327,0.191,0.327,0.423v3.26c0,0.23-0.142,0.422-0.327,0.422H70.09
						c-0.18,0-0.328-0.191-0.328-0.422v-3.26C69.762,293.367,69.91,293.176,70.09,293.176L70.09,293.176z"/>
					<path class="st20" d="M75,293.176h3.027c0.18,0,0.328,0.191,0.328,0.423v3.26c0,0.23-0.148,0.422-0.328,0.422H75
						c-0.179,0-0.326-0.191-0.326-0.422v-3.26C74.674,293.367,74.821,293.176,75,293.176L75,293.176z"/>
					<path class="st20" d="M79.918,293.176h3.02c0.18,0,0.328,0.191,0.328,0.423v3.26c0,0.23-0.148,0.422-0.328,0.422h-3.02
						c-0.185,0-0.327-0.191-0.327-0.422v-3.26C79.591,293.367,79.733,293.176,79.918,293.176L79.918,293.176z"/>
					<path class="st20" d="M84.828,293.176h3.021c0.186,0,0.328,0.191,0.328,0.423v3.26c0,0.23-0.142,0.422-0.328,0.422h-3.021
						c-0.179,0-0.328-0.191-0.328-0.422v-3.26C84.5,293.367,84.649,293.176,84.828,293.176L84.828,293.176z"/>
					<path class="st20" d="M89.74,293.176h3.025c0.18,0,0.328,0.191,0.328,0.423v3.26c0,0.23-0.149,0.422-0.328,0.422H89.74
						c-0.18,0-0.328-0.191-0.328-0.422v-3.26C89.412,293.367,89.561,293.176,89.74,293.176L89.74,293.176z"/>
					<path class="st20" d="M47.988,298.87h3.021c0.178,0,0.326,0.191,0.326,0.421v3.261c0,0.23-0.148,0.421-0.326,0.421h-3.021
						c-0.18,0-0.326-0.19-0.326-0.421v-3.261C47.662,299.061,47.809,298.87,47.988,298.87L47.988,298.87z"/>
					<path class="st20" d="M52.898,298.87h3.026c0.181,0,0.329,0.191,0.329,0.421v3.261c0,0.23-0.148,0.421-0.329,0.421h-3.026
						c-0.178,0-0.328-0.19-0.328-0.421v-3.261C52.57,299.061,52.721,298.87,52.898,298.87L52.898,298.87z"/>
					<path class="st20" d="M57.81,298.87h3.026c0.18,0,0.328,0.191,0.328,0.421v3.261c0,0.23-0.149,0.421-0.328,0.421H57.81
						c-0.179,0-0.321-0.19-0.321-0.421v-3.261C57.488,299.061,57.631,298.87,57.81,298.87L57.81,298.87z"/>
					<path class="st20" d="M62.727,298.87h3.021c0.179,0,0.327,0.191,0.327,0.421v3.261c0,0.23-0.148,0.421-0.327,0.421h-3.021
						c-0.18,0-0.326-0.19-0.326-0.421v-3.261C62.4,299.061,62.547,298.87,62.727,298.87L62.727,298.87z"/>
					<path class="st20" d="M67.637,298.87h3.027c0.18,0,0.321,0.191,0.321,0.421v3.261c0,0.23-0.142,0.421-0.321,0.421h-3.027
						c-0.178,0-0.326-0.19-0.326-0.421v-3.261C67.311,299.061,67.459,298.87,67.637,298.87L67.637,298.87z"/>
					<path class="st20" d="M72.549,298.87h3.026c0.179,0,0.327,0.191,0.327,0.421v3.261c0,0.23-0.148,0.421-0.327,0.421h-3.026
						c-0.18,0-0.328-0.19-0.328-0.421v-3.261C72.221,299.061,72.369,298.87,72.549,298.87L72.549,298.87z"/>
					<path class="st20" d="M77.467,298.87h3.02c0.178,0,0.328,0.191,0.328,0.421v3.261c0,0.23-0.15,0.421-0.328,0.421h-3.02
						c-0.181,0-0.328-0.19-0.328-0.421v-3.261C77.139,299.061,77.286,298.87,77.467,298.87L77.467,298.87z"/>
					<path class="st20" d="M82.377,298.87h3.025c0.18,0,0.322,0.191,0.322,0.421v3.261c0,0.23-0.143,0.421-0.322,0.421h-3.025
						c-0.18,0-0.328-0.19-0.328-0.421v-3.261C82.049,299.061,82.197,298.87,82.377,298.87L82.377,298.87z"/>
					<path class="st20" d="M87.286,298.87h3.028c0.179,0,0.326,0.191,0.326,0.421v3.261c0,0.23-0.147,0.421-0.326,0.421h-3.028
						c-0.179,0-0.325-0.19-0.325-0.421v-3.261C86.961,299.061,87.107,298.87,87.286,298.87L87.286,298.87z"/>
					<path class="st20" d="M92.203,298.87h3.021c0.18,0,0.328,0.191,0.328,0.421v3.261c0,0.23-0.148,0.421-0.328,0.421h-3.021
						c-0.178,0-0.326-0.19-0.326-0.421v-3.261C91.877,299.061,92.025,298.87,92.203,298.87L92.203,298.87z"/>
					<path class="st20" d="M94.656,293.176h3.021c0.179,0,0.328,0.191,0.328,0.423v3.26c0,0.23-0.149,0.422-0.328,0.422h-3.021
						c-0.186,0-0.328-0.191-0.328-0.422v-3.26C94.328,293.367,94.471,293.176,94.656,293.176L94.656,293.176z"/>
					<path class="st20" d="M99.566,293.176h3.021c0.18,0,0.326,0.191,0.326,0.423v3.26c0,0.23-0.146,0.422-0.326,0.422h-3.021
						c-0.18,0-0.328-0.191-0.328-0.422v-3.26C99.238,293.367,99.387,293.176,99.566,293.176L99.566,293.176z"/>
					<path class="st20" d="M97.195,298.87h5.393c0.18,0,0.326,0.191,0.326,0.421v3.261c0,0.23-0.146,0.421-0.326,0.421h-5.393
						c-0.18,0-0.328-0.19-0.328-0.421v-3.261C96.867,299.061,97.016,298.87,97.195,298.87L97.195,298.87z"/>
					<path class="st20" d="M40.662,298.87h5.598c0.178,0,0.326,0.191,0.326,0.421v3.261c0,0.23-0.148,0.421-0.326,0.421h-5.598
						c-0.186,0-0.328-0.19-0.328-0.421v-3.261C40.334,299.061,40.477,298.87,40.662,298.87L40.662,298.87z"/>
					<path class="st20" d="M40.662,304.564h6.684c0.18,0,0.326,0.189,0.326,0.42v3.263c0,0.229-0.147,0.419-0.326,0.419h-6.684
						c-0.186,0-0.328-0.19-0.328-0.419v-3.263C40.334,304.753,40.477,304.564,40.662,304.564L40.662,304.564z"/>
					<path class="st20" d="M40.662,310.257h3.014c0.18,0,0.328,0.19,0.328,0.421v3.26c0,0.232-0.148,0.422-0.328,0.422h-3.014
						c-0.186,0-0.328-0.19-0.328-0.422v-3.26C40.334,310.447,40.477,310.257,40.662,310.257L40.662,310.257z"/>
					<path class="st20" d="M45.566,310.257h3.014c0.18,0,0.33,0.19,0.33,0.421v3.26c0,0.232-0.15,0.422-0.33,0.422h-3.014
						c-0.179,0-0.326-0.19-0.326-0.422v-3.26C45.24,310.447,45.388,310.257,45.566,310.257L45.566,310.257z"/>
					<path class="st20" d="M50.471,310.257h3.016c0.185,0,0.327,0.19,0.327,0.421v3.26c0,0.232-0.143,0.422-0.327,0.422h-3.016
						c-0.178,0-0.326-0.19-0.326-0.422v-3.26C50.145,310.447,50.293,310.257,50.471,310.257L50.471,310.257z"/>
					<path class="st20" d="M55.377,310.257h31.41c0.184,0,0.328,0.19,0.328,0.421v3.26c0,0.232-0.144,0.422-0.328,0.422h-31.41
						c-0.18,0-0.328-0.19-0.328-0.422v-3.26C55.049,310.447,55.197,310.257,55.377,310.257L55.377,310.257z"/>
					<path class="st20" d="M49.162,304.619h3.021c0.178,0,0.326,0.189,0.326,0.42v3.261c0,0.23-0.148,0.422-0.326,0.422h-3.021
						c-0.18,0-0.326-0.191-0.326-0.422v-3.261C48.836,304.809,48.982,304.619,49.162,304.619L49.162,304.619z"/>
					<path class="st20" d="M54.074,304.619H57.1c0.179,0,0.326,0.189,0.326,0.42v3.261c0,0.23-0.147,0.422-0.326,0.422h-3.025
						c-0.181,0-0.33-0.191-0.33-0.422v-3.261C53.744,304.809,53.894,304.619,54.074,304.619L54.074,304.619z"/>
					<path class="st20" d="M58.984,304.619h3.025c0.18,0,0.328,0.189,0.328,0.42v3.261c0,0.23-0.148,0.422-0.328,0.422h-3.025
						c-0.18,0-0.322-0.191-0.322-0.422v-3.261C58.662,304.809,58.805,304.619,58.984,304.619L58.984,304.619z"/>
					<path class="st20" d="M63.9,304.619h3.02c0.182,0,0.328,0.189,0.328,0.42v3.261c0,0.23-0.146,0.422-0.328,0.422H63.9
						c-0.18,0-0.327-0.191-0.327-0.422v-3.261C63.573,304.809,63.721,304.619,63.9,304.619L63.9,304.619z"/>
					<path class="st20" d="M68.811,304.619h3.027c0.18,0,0.321,0.189,0.321,0.42v3.261c0,0.23-0.142,0.422-0.321,0.422h-3.027
						c-0.179,0-0.326-0.191-0.326-0.422v-3.261C68.484,304.809,68.632,304.619,68.811,304.619L68.811,304.619z"/>
					<path class="st20" d="M73.723,304.619h3.027c0.178,0,0.326,0.189,0.326,0.42v3.261c0,0.23-0.149,0.422-0.326,0.422h-3.027
						c-0.18,0-0.328-0.191-0.328-0.422v-3.261C73.395,304.809,73.543,304.619,73.723,304.619L73.723,304.619z"/>
					<path class="st20" d="M78.639,304.619h3.021c0.178,0,0.326,0.189,0.326,0.42v3.261c0,0.23-0.148,0.422-0.326,0.422h-3.021
						c-0.18,0-0.328-0.191-0.328-0.422v-3.261C78.311,304.809,78.459,304.619,78.639,304.619L78.639,304.619z"/>
					<path class="st20" d="M83.549,304.619h3.029c0.178,0,0.32,0.189,0.32,0.42v3.261c0,0.23-0.143,0.422-0.32,0.422h-3.029
						c-0.178,0-0.328-0.191-0.328-0.422v-3.261C83.221,304.809,83.371,304.619,83.549,304.619L83.549,304.619z"/>
					<path class="st20" d="M88.461,304.619h5.627c0.18,0,0.328,0.189,0.328,0.42v3.261c0,0.23-0.148,0.422-0.328,0.422h-5.627
						c-0.18,0-0.328-0.191-0.328-0.422v-3.261C88.133,304.809,88.281,304.619,88.461,304.619L88.461,304.619z"/>
					<path class="st20" d="M95.865,304.564h6.692c0.18,0,0.327,0.189,0.327,0.42v3.263c0,0.229-0.147,0.419-0.327,0.419h-6.692
						c-0.18,0-0.326-0.19-0.326-0.419v-3.263C95.539,304.753,95.686,304.564,95.865,304.564L95.865,304.564z"/>
					<path class="st20" d="M96.467,310.257h2.52c0.063,0,0.119,0.063,0.119,0.142v1.131c0,0.079-0.057,0.143-0.119,0.143h-2.52
						c-0.063,0-0.111-0.064-0.111-0.143v-1.131C96.355,310.32,96.404,310.257,96.467,310.257L96.467,310.257z"/>
					<path class="st20" d="M96.467,312.714h2.52c0.063,0,0.119,0.061,0.119,0.143v1.12c0,0.079-0.057,0.143-0.119,0.143h-2.52
						c-0.063,0-0.111-0.064-0.111-0.143v-1.12C96.355,312.775,96.404,312.714,96.467,312.714L96.467,312.714z"/>
					<path class="st20" d="M92.729,312.714h2.521c0.061,0,0.116,0.061,0.116,0.143v1.12c0,0.079-0.056,0.143-0.116,0.143h-2.521
						c-0.063,0-0.111-0.064-0.111-0.143v-1.12C92.617,312.775,92.666,312.714,92.729,312.714L92.729,312.714z"/>
					<path class="st20" d="M100.197,312.714h2.521c0.06,0,0.109,0.061,0.109,0.143v1.12c0,0.079-0.049,0.143-0.109,0.143h-2.521
						c-0.063,0-0.117-0.064-0.117-0.143v-1.12C100.08,312.775,100.135,312.714,100.197,312.714L100.197,312.714z"/>
					<path class="st20" d="M88.343,310.257h3.028c0.178,0,0.326,0.19,0.326,0.421v3.26c0,0.232-0.149,0.422-0.326,0.422h-3.028
						c-0.179,0-0.326-0.19-0.326-0.422v-3.26C88.017,310.447,88.164,310.257,88.343,310.257L88.343,310.257z"/>
				</g>
			</g>
			<g id="Laptop_2_">
				<g>
					<rect x="188.543" y="286.903" class="st12" width="49.438" height="2.296"/>
					<path class="st13" d="M250.007,258.967h-74.363c-3.407,0-4.46,2.14-3.803,4.67c0-0.031,0.005-0.061,0.007-0.093
						c-0.007,0.172,0.006,0.345,0.053,0.522l5.382,20.314c0.814,3.084,1.544,3.181,5.556,3.175l62.176-0.006
						c3.229,0,4.801,0.006,5.441-3.092l4.191-20.392c0.016-0.077,0.023-0.156,0.027-0.231c0,0.002,0.002,0.004,0.002,0.004
						l0.204-1.728C255.168,259.63,251.902,258.967,250.007,258.967z M171.879,263.275c-0.01,0.046-0.02,0.095-0.023,0.143
						C171.861,263.37,171.869,263.321,171.879,263.275z M172.041,262.801c-0.012,0.025-0.025,0.047-0.035,0.069
						C172.016,262.848,172.029,262.826,172.041,262.801z M171.949,263.022c-0.014,0.039-0.029,0.08-0.041,0.118
						C171.92,263.102,171.936,263.061,171.949,263.022z M174.984,261.033c0.113-0.01,0.225-0.016,0.338-0.016
						C175.209,261.018,175.098,261.023,174.984,261.033z M172.918,261.802c0.007-0.006,0.014-0.011,0.021-0.018
						C172.932,261.791,172.925,261.796,172.918,261.802z M173.16,261.64c0.016-0.013,0.031-0.02,0.049-0.031
						C173.191,261.62,173.176,261.627,173.16,261.64z M173.426,261.488c0.025-0.012,0.049-0.023,0.072-0.036
						C173.475,261.465,173.451,261.477,173.426,261.488z M173.713,261.354c0.03-0.013,0.063-0.025,0.094-0.038
						C173.775,261.328,173.743,261.342,173.713,261.354z M174.014,261.24c0.041-0.015,0.08-0.027,0.122-0.038
						C174.094,261.213,174.055,261.226,174.014,261.24z M174.328,261.145c0.051-0.011,0.102-0.021,0.152-0.031
						C174.43,261.124,174.379,261.134,174.328,261.145z M174.652,261.075c0.064-0.009,0.133-0.017,0.197-0.024
						C174.785,261.059,174.717,261.066,174.652,261.075z"/>
					<path class="st14" d="M175.644,258.967h74.363c1.896,0,5.161,0.663,4.873,3.145l-0.202,1.728
						c-0.275-1.284-1.879-2.821-3.451-2.821h-75.904c-1.711,0-3.5,1.183-3.481,2.619
						C171.184,261.107,172.236,258.967,175.644,258.967L175.644,258.967z"/>
					<polygon class="st15" points="175.625,262.452 251.327,262.369 247.244,286.03 180.375,286.048 					"/>
					<path class="st16" d="M179.346,288.249h68.27c1.129,0,2.057,0.927,2.057,2.057v37.645c0,1.13-0.928,2.058-2.057,2.058h-68.27
						c-1.129,0-2.057-0.928-2.057-2.058v-37.645C177.289,289.176,178.217,288.249,179.346,288.249L179.346,288.249z"/>
					<rect x="203.809" y="317.273" class="st12" width="19.338" height="10.123"/>
					<rect x="180.877" y="291.776" class="st17" width="65.205" height="23.701"/>
					<path class="st18" d="M221.35,322.429c0,2.41-0.418,4.365-0.932,4.365h-14.352c-0.516,0-0.932-1.955-0.932-4.365l0,0
						c0-2.409,0.416-4.364,0.932-4.364h14.352C220.932,318.065,221.35,320.02,221.35,322.429L221.35,322.429z"/>
				</g>
				<g id="Light_5_">
					<polygon class="st19" points="221.836,262.371 205.889,262.369 189.172,286.044 200.34,286.038 					"/>
					<polygon class="st19" points="229.742,262.393 208.942,286.038 211.178,286.038 237.381,262.375 					"/>
				</g>
				<g id="Keyboard_2_">
					<path class="st20" d="M182.291,293.176h3.025c0.18,0,0.32,0.191,0.32,0.423v3.26c0,0.23-0.141,0.422-0.32,0.422h-3.025
						c-0.181,0-0.33-0.191-0.33-0.422v-3.26C181.961,293.367,182.11,293.176,182.291,293.176L182.291,293.176z"/>
					<path class="st20" d="M187.201,293.176h3.025c0.179,0,0.328,0.191,0.328,0.423v3.26c0,0.23-0.149,0.422-0.328,0.422h-3.025
						c-0.18,0-0.33-0.191-0.33-0.422v-3.26C186.871,293.367,187.021,293.176,187.201,293.176L187.201,293.176z"/>
					<path class="st20" d="M192.118,293.176h3.021c0.179,0,0.326,0.191,0.326,0.423v3.26c0,0.23-0.148,0.422-0.326,0.422h-3.021
						c-0.181,0-0.329-0.191-0.329-0.422v-3.26C191.789,293.367,191.938,293.176,192.118,293.176L192.118,293.176z"/>
					<path class="st20" d="M197.027,293.176h3.021c0.185,0,0.326,0.191,0.326,0.423v3.26c0,0.23-0.142,0.422-0.326,0.422h-3.021
						c-0.178,0-0.328-0.191-0.328-0.422v-3.26C196.699,293.367,196.85,293.176,197.027,293.176L197.027,293.176z"/>
					<path class="st20" d="M201.939,293.176h3.025c0.181,0,0.328,0.191,0.328,0.423v3.26c0,0.23-0.148,0.422-0.328,0.422h-3.025
						c-0.181,0-0.328-0.191-0.328-0.422v-3.26C201.611,293.367,201.759,293.176,201.939,293.176L201.939,293.176z"/>
					<path class="st20" d="M206.855,293.176h3.021c0.179,0,0.326,0.191,0.326,0.423v3.26c0,0.23-0.147,0.422-0.326,0.422h-3.021
						c-0.178,0-0.326-0.191-0.326-0.422v-3.26C206.529,293.367,206.678,293.176,206.855,293.176L206.855,293.176z"/>
					<path class="st20" d="M211.768,293.176h3.02c0.186,0,0.328,0.191,0.328,0.423v3.26c0,0.23-0.143,0.422-0.328,0.422h-3.02
						c-0.18,0-0.328-0.191-0.328-0.422v-3.26C211.439,293.367,211.588,293.176,211.768,293.176L211.768,293.176z"/>
					<path class="st20" d="M216.676,293.176h3.029c0.178,0,0.326,0.191,0.326,0.423v3.26c0,0.23-0.148,0.422-0.326,0.422h-3.029
						c-0.178,0-0.326-0.191-0.326-0.422v-3.26C216.35,293.367,216.498,293.176,216.676,293.176L216.676,293.176z"/>
					<path class="st20" d="M221.594,293.176h3.021c0.179,0,0.328,0.191,0.328,0.423v3.26c0,0.23-0.149,0.422-0.328,0.422h-3.021
						c-0.186,0-0.328-0.191-0.328-0.422v-3.26C221.266,293.367,221.408,293.176,221.594,293.176L221.594,293.176z"/>
					<path class="st20" d="M226.506,293.176h3.02c0.186,0,0.328,0.191,0.328,0.423v3.26c0,0.23-0.143,0.422-0.328,0.422h-3.02
						c-0.18,0-0.328-0.191-0.328-0.422v-3.26C226.178,293.367,226.326,293.176,226.506,293.176L226.506,293.176z"/>
					<path class="st20" d="M231.416,293.176h3.027c0.179,0,0.326,0.191,0.326,0.423v3.26c0,0.23-0.147,0.422-0.326,0.422h-3.027
						c-0.18,0-0.326-0.191-0.326-0.422v-3.26C231.09,293.367,231.236,293.176,231.416,293.176L231.416,293.176z"/>
					<path class="st20" d="M189.664,298.87h3.021c0.18,0,0.326,0.191,0.326,0.421v3.261c0,0.23-0.146,0.421-0.326,0.421h-3.021
						c-0.18,0-0.326-0.19-0.326-0.421v-3.261C189.338,299.061,189.484,298.87,189.664,298.87L189.664,298.87z"/>
					<path class="st20" d="M194.576,298.87h3.025c0.181,0,0.328,0.191,0.328,0.421v3.261c0,0.23-0.148,0.421-0.328,0.421h-3.025
						c-0.18,0-0.328-0.19-0.328-0.421v-3.261C194.248,299.061,194.396,298.87,194.576,298.87L194.576,298.87z"/>
					<path class="st20" d="M199.486,298.87h3.027c0.178,0,0.327,0.191,0.327,0.421v3.261c0,0.23-0.149,0.421-0.327,0.421h-3.027
						c-0.18,0-0.322-0.19-0.322-0.421v-3.261C199.164,299.061,199.307,298.87,199.486,298.87L199.486,298.87z"/>
					<path class="st20" d="M204.404,298.87h3.021c0.178,0,0.326,0.191,0.326,0.421v3.261c0,0.23-0.148,0.421-0.326,0.421h-3.021
						c-0.18,0-0.328-0.19-0.328-0.421v-3.261C204.076,299.061,204.225,298.87,204.404,298.87L204.404,298.87z"/>
					<path class="st20" d="M209.314,298.87h3.027c0.178,0,0.32,0.191,0.32,0.421v3.261c0,0.23-0.143,0.421-0.32,0.421h-3.027
						c-0.18,0-0.328-0.19-0.328-0.421v-3.261C208.986,299.061,209.135,298.87,209.314,298.87L209.314,298.87z"/>
					<path class="st20" d="M214.223,298.87h3.029c0.18,0,0.328,0.191,0.328,0.421v3.261c0,0.23-0.148,0.421-0.328,0.421h-3.029
						c-0.176,0-0.325-0.19-0.325-0.421v-3.261C213.898,299.061,214.047,298.87,214.223,298.87L214.223,298.87z"/>
					<path class="st20" d="M219.143,298.87h3.02c0.181,0,0.328,0.191,0.328,0.421v3.261c0,0.23-0.147,0.421-0.328,0.421h-3.02
						c-0.18,0-0.328-0.19-0.328-0.421v-3.261C218.814,299.061,218.963,298.87,219.143,298.87L219.143,298.87z"/>
					<path class="st20" d="M224.053,298.87h3.027c0.18,0,0.321,0.191,0.321,0.421v3.261c0,0.23-0.142,0.421-0.321,0.421h-3.027
						c-0.18,0-0.326-0.19-0.326-0.421v-3.261C223.727,299.061,223.873,298.87,224.053,298.87L224.053,298.87z"/>
					<path class="st20" d="M228.963,298.87h3.027c0.18,0,0.327,0.191,0.327,0.421v3.261c0,0.23-0.147,0.421-0.327,0.421h-3.027
						c-0.18,0-0.326-0.19-0.326-0.421v-3.261C228.637,299.061,228.783,298.87,228.963,298.87L228.963,298.87z"/>
					<path class="st20" d="M233.881,298.87h3.021c0.178,0,0.326,0.191,0.326,0.421v3.261c0,0.23-0.148,0.421-0.326,0.421h-3.021
						c-0.18,0-0.328-0.19-0.328-0.421v-3.261C233.553,299.061,233.701,298.87,233.881,298.87L233.881,298.87z"/>
					<path class="st20" d="M236.334,293.176h3.02c0.18,0,0.328,0.191,0.328,0.423v3.26c0,0.23-0.148,0.422-0.328,0.422h-3.02
						c-0.188,0-0.328-0.191-0.328-0.422v-3.26C236.006,293.367,236.146,293.176,236.334,293.176L236.334,293.176z"/>
					<path class="st20" d="M241.244,293.176h3.021c0.178,0,0.326,0.191,0.326,0.423v3.26c0,0.23-0.148,0.422-0.326,0.422h-3.021
						c-0.179,0-0.326-0.191-0.326-0.422v-3.26C240.918,293.367,241.065,293.176,241.244,293.176L241.244,293.176z"/>
					<path class="st20" d="M238.871,298.87h5.395c0.178,0,0.326,0.191,0.326,0.421v3.261c0,0.23-0.148,0.421-0.326,0.421h-5.395
						c-0.178,0-0.328-0.19-0.328-0.421v-3.261C238.543,299.061,238.693,298.87,238.871,298.87L238.871,298.87z"/>
					<path class="st20" d="M182.338,298.87h5.598c0.179,0,0.326,0.191,0.326,0.421v3.261c0,0.23-0.147,0.421-0.326,0.421h-5.598
						c-0.186,0-0.325-0.19-0.325-0.421v-3.261C182.013,299.061,182.152,298.87,182.338,298.87L182.338,298.87z"/>
					<path class="st20" d="M182.338,304.564h6.684c0.18,0,0.33,0.189,0.33,0.42v3.263c0,0.229-0.15,0.419-0.33,0.419h-6.684
						c-0.186,0-0.325-0.19-0.325-0.419v-3.263C182.013,304.753,182.152,304.564,182.338,304.564L182.338,304.564z"/>
					<path class="st20" d="M182.338,310.257h3.016c0.18,0,0.328,0.19,0.328,0.421v3.26c0,0.232-0.148,0.422-0.328,0.422h-3.016
						c-0.186,0-0.325-0.19-0.325-0.422v-3.26C182.013,310.447,182.152,310.257,182.338,310.257L182.338,310.257z"/>
					<path class="st20" d="M187.242,310.257h3.016c0.18,0,0.328,0.19,0.328,0.421v3.26c0,0.232-0.148,0.422-0.328,0.422h-3.016
						c-0.178,0-0.326-0.19-0.326-0.422v-3.26C186.916,310.447,187.064,310.257,187.242,310.257L187.242,310.257z"/>
					<path class="st20" d="M192.148,310.257h3.014c0.186,0,0.327,0.19,0.327,0.421v3.26c0,0.232-0.142,0.422-0.327,0.422h-3.014
						c-0.18,0-0.328-0.19-0.328-0.422v-3.26C191.82,310.447,191.969,310.257,192.148,310.257L192.148,310.257z"/>
					<path class="st20" d="M197.053,310.257h31.41c0.186,0,0.328,0.19,0.328,0.421v3.26c0,0.232-0.143,0.422-0.328,0.422h-31.41
						c-0.18,0-0.327-0.19-0.327-0.422v-3.26C196.726,310.447,196.873,310.257,197.053,310.257L197.053,310.257z"/>
					<path class="st20" d="M190.84,304.619h3.02c0.18,0,0.326,0.189,0.326,0.42v3.261c0,0.23-0.146,0.422-0.326,0.422h-3.02
						c-0.182,0-0.328-0.191-0.328-0.422v-3.261C190.512,304.809,190.658,304.619,190.84,304.619L190.84,304.619z"/>
					<path class="st20" d="M195.75,304.619h3.025c0.18,0,0.328,0.189,0.328,0.42v3.261c0,0.23-0.148,0.422-0.328,0.422h-3.025
						c-0.18,0-0.328-0.191-0.328-0.422v-3.261C195.422,304.809,195.57,304.619,195.75,304.619L195.75,304.619z"/>
					<path class="st20" d="M200.66,304.619h3.027c0.179,0,0.326,0.189,0.326,0.42v3.261c0,0.23-0.148,0.422-0.326,0.422h-3.027
						c-0.179,0-0.32-0.191-0.32-0.422v-3.261C200.34,304.809,200.482,304.619,200.66,304.619L200.66,304.619z"/>
					<path class="st20" d="M205.576,304.619h3.021c0.18,0,0.327,0.189,0.327,0.42v3.261c0,0.23-0.147,0.422-0.327,0.422h-3.021
						c-0.178,0-0.326-0.191-0.326-0.422v-3.261C205.25,304.809,205.398,304.619,205.576,304.619L205.576,304.619z"/>
					<path class="st20" d="M210.488,304.619h3.025c0.18,0,0.322,0.189,0.322,0.42v3.261c0,0.23-0.143,0.422-0.322,0.422h-3.025
						c-0.18,0-0.328-0.191-0.328-0.422v-3.261C210.16,304.809,210.309,304.619,210.488,304.619L210.488,304.619z"/>
					<path class="st20" d="M215.398,304.619h3.027c0.178,0,0.326,0.189,0.326,0.42v3.261c0,0.23-0.148,0.422-0.326,0.422h-3.027
						c-0.178,0-0.328-0.191-0.328-0.422v-3.261C215.07,304.809,215.221,304.619,215.398,304.619L215.398,304.619z"/>
					<path class="st20" d="M220.316,304.619h3.02c0.18,0,0.328,0.189,0.328,0.42v3.261c0,0.23-0.148,0.422-0.328,0.422h-3.02
						c-0.18,0-0.328-0.191-0.328-0.422v-3.261C219.988,304.809,220.137,304.619,220.316,304.619L220.316,304.619z"/>
					<path class="st20" d="M225.227,304.619h3.027c0.178,0,0.32,0.189,0.32,0.42v3.261c0,0.23-0.143,0.422-0.32,0.422h-3.027
						c-0.179,0-0.328-0.191-0.328-0.422v-3.261C224.898,304.809,225.048,304.619,225.227,304.619L225.227,304.619z"/>
					<path class="st20" d="M230.137,304.619h5.629c0.178,0,0.328,0.189,0.328,0.42v3.261c0,0.23-0.15,0.422-0.328,0.422h-5.629
						c-0.178,0-0.328-0.191-0.328-0.422v-3.261C229.809,304.809,229.959,304.619,230.137,304.619L230.137,304.619z"/>
					<path class="st20" d="M237.543,304.564h6.69c0.179,0,0.327,0.189,0.327,0.42v3.263c0,0.229-0.148,0.419-0.327,0.419h-6.69
						c-0.178,0-0.326-0.19-0.326-0.419v-3.263C237.217,304.753,237.365,304.564,237.543,304.564L237.543,304.564z"/>
					<path class="st20" d="M238.143,310.257h2.521c0.061,0,0.117,0.063,0.117,0.142v1.131c0,0.079-0.057,0.143-0.117,0.143h-2.521
						c-0.061,0-0.109-0.064-0.109-0.143v-1.131C238.033,310.32,238.082,310.257,238.143,310.257L238.143,310.257z"/>
					<path class="st20" d="M238.143,312.714h2.521c0.061,0,0.117,0.061,0.117,0.143v1.12c0,0.079-0.057,0.143-0.117,0.143h-2.521
						c-0.061,0-0.109-0.064-0.109-0.143v-1.12C238.033,312.775,238.082,312.714,238.143,312.714L238.143,312.714z"/>
					<path class="st20" d="M234.405,312.714h2.522c0.061,0,0.117,0.061,0.117,0.143v1.12c0,0.079-0.057,0.143-0.117,0.143h-2.522
						c-0.062,0-0.11-0.064-0.11-0.143v-1.12C234.295,312.775,234.344,312.714,234.405,312.714L234.405,312.714z"/>
					<path class="st20" d="M241.874,312.714h2.52c0.061,0,0.11,0.061,0.11,0.143v1.12c0,0.079-0.049,0.143-0.11,0.143h-2.52
						c-0.063,0-0.118-0.064-0.118-0.143v-1.12C241.756,312.775,241.811,312.714,241.874,312.714L241.874,312.714z"/>
					<path class="st20" d="M230.02,310.257h3.027c0.18,0,0.328,0.19,0.328,0.421v3.26c0,0.232-0.148,0.422-0.328,0.422h-3.027
						c-0.178,0-0.326-0.19-0.326-0.422v-3.26C229.693,310.447,229.842,310.257,230.02,310.257L230.02,310.257z"/>
				</g>
			</g>
			<g id="Laptop_1_">
				<g>
					<rect x="324.381" y="286.903" class="st12" width="49.44" height="2.296"/>
					<path class="st13" d="M385.846,258.967h-74.363c-3.406,0-4.459,2.14-3.801,4.67c0-0.031,0.003-0.061,0.006-0.093
						c-0.008,0.172,0.006,0.345,0.053,0.522l5.383,20.314c0.813,3.084,1.541,3.181,5.555,3.175l62.176-0.006
						c3.229,0,4.801,0.006,5.443-3.092l4.189-20.392c0.017-0.077,0.022-0.156,0.029-0.231c0,0.002,0,0.004,0,0.004l0.203-1.728
						C391.007,259.63,387.74,258.967,385.846,258.967z M307.719,263.275c-0.01,0.046-0.018,0.095-0.025,0.143
						C307.701,263.37,307.709,263.321,307.719,263.275z M307.881,262.801c-0.012,0.025-0.025,0.047-0.035,0.069
						C307.855,262.848,307.869,262.826,307.881,262.801z M307.789,263.022c-0.014,0.039-0.029,0.08-0.041,0.118
						C307.761,263.102,307.775,263.061,307.789,263.022z M310.824,261.033c0.113-0.01,0.225-0.016,0.336-0.016
						C311.049,261.018,310.938,261.023,310.824,261.033z M308.756,261.802c0.009-0.006,0.016-0.011,0.023-0.018
						C308.772,261.791,308.765,261.796,308.756,261.802z M309.002,261.64c0.014-0.013,0.029-0.02,0.047-0.031
						C309.031,261.62,309.016,261.627,309.002,261.64z M309.268,261.488c0.023-0.012,0.047-0.023,0.068-0.036
						C309.315,261.465,309.289,261.477,309.268,261.488z M309.553,261.354c0.031-0.013,0.063-0.025,0.094-0.038
						C309.615,261.328,309.584,261.342,309.553,261.354z M309.853,261.24c0.041-0.015,0.082-0.027,0.121-0.038
						C309.936,261.213,309.895,261.226,309.853,261.24z M310.168,261.145c0.051-0.011,0.102-0.021,0.152-0.031
						C310.27,261.124,310.219,261.134,310.168,261.145z M310.492,261.075c0.066-0.009,0.131-0.017,0.197-0.024
						C310.623,261.059,310.559,261.066,310.492,261.075z"/>
					<path class="st14" d="M311.482,258.967h74.363c1.895,0,5.161,0.663,4.873,3.145l-0.202,1.728
						c-0.274-1.284-1.878-2.821-3.45-2.821H311.16c-1.709,0-3.497,1.183-3.478,2.619
						C307.023,261.107,308.076,258.967,311.482,258.967L311.482,258.967z"/>
					<polygon class="st15" points="311.465,262.452 387.168,262.369 383.084,286.03 316.213,286.048 					"/>
					<path class="st16" d="M315.186,288.249h68.27c1.129,0,2.057,0.927,2.057,2.057v37.645c0,1.13-0.928,2.058-2.057,2.058h-68.27
						c-1.131,0-2.058-0.928-2.058-2.058v-37.645C313.128,289.176,314.055,288.249,315.186,288.249L315.186,288.249z"/>
					<rect x="339.648" y="317.273" class="st12" width="19.338" height="10.123"/>
					<rect x="316.719" y="291.776" class="st17" width="65.203" height="23.701"/>
					<path class="st18" d="M357.19,322.429c0,2.41-0.418,4.365-0.932,4.365h-14.352c-0.514,0-0.932-1.955-0.932-4.365l0,0
						c0-2.409,0.418-4.364,0.932-4.364h14.352C356.772,318.065,357.19,320.02,357.19,322.429L357.19,322.429z"/>
				</g>
				<g id="Light_1_">
					<polygon class="st19" points="357.676,262.371 341.728,262.369 325.012,286.044 336.178,286.038 					"/>
					<polygon class="st19" points="365.58,262.393 344.783,286.038 347.018,286.038 373.221,262.375 					"/>
				</g>
				<g id="Keyboard_1_">
					<path class="st20" d="M318.129,293.176h3.027c0.18,0,0.32,0.191,0.32,0.423v3.26c0,0.23-0.141,0.422-0.32,0.422h-3.027
						c-0.178,0-0.328-0.191-0.328-0.422v-3.26C317.801,293.367,317.951,293.176,318.129,293.176L318.129,293.176z"/>
					<path class="st20" d="M323.039,293.176h3.027c0.18,0,0.328,0.191,0.328,0.423v3.26c0,0.23-0.148,0.422-0.328,0.422h-3.027
						c-0.178,0-0.326-0.191-0.326-0.422v-3.26C322.713,293.367,322.861,293.176,323.039,293.176L323.039,293.176z"/>
					<path class="st20" d="M327.957,293.176h3.021c0.179,0,0.327,0.191,0.327,0.423v3.26c0,0.23-0.148,0.422-0.327,0.422h-3.021
						c-0.18,0-0.328-0.191-0.328-0.422v-3.26C327.629,293.367,327.777,293.176,327.957,293.176L327.957,293.176z"/>
					<path class="st20" d="M332.867,293.176h3.022c0.184,0,0.326,0.191,0.326,0.423v3.26c0,0.23-0.143,0.422-0.326,0.422h-3.022
						c-0.178,0-0.326-0.191-0.326-0.422v-3.26C332.541,293.367,332.69,293.176,332.867,293.176L332.867,293.176z"/>
					<path class="st20" d="M337.778,293.176h3.028c0.178,0,0.326,0.191,0.326,0.423v3.26c0,0.23-0.148,0.422-0.326,0.422h-3.028
						c-0.179,0-0.327-0.191-0.327-0.422v-3.26C337.451,293.367,337.6,293.176,337.778,293.176L337.778,293.176z"/>
					<path class="st20" d="M342.695,293.176h3.02c0.181,0,0.327,0.191,0.327,0.423v3.26c0,0.23-0.146,0.422-0.327,0.422h-3.02
						c-0.179,0-0.328-0.191-0.328-0.422v-3.26C342.367,293.367,342.517,293.176,342.695,293.176L342.695,293.176z"/>
					<path class="st20" d="M347.607,293.176h3.02c0.185,0,0.328,0.191,0.328,0.423v3.26c0,0.23-0.143,0.422-0.328,0.422h-3.02
						c-0.18,0-0.328-0.191-0.328-0.422v-3.26C347.279,293.367,347.428,293.176,347.607,293.176L347.607,293.176z"/>
					<path class="st20" d="M352.518,293.176h3.025c0.181,0,0.328,0.191,0.328,0.423v3.26c0,0.23-0.147,0.422-0.328,0.422h-3.025
						c-0.182,0-0.328-0.191-0.328-0.422v-3.26C352.19,293.367,352.336,293.176,352.518,293.176L352.518,293.176z"/>
					<path class="st20" d="M357.434,293.176h3.022c0.178,0,0.328,0.191,0.328,0.423v3.26c0,0.23-0.15,0.422-0.328,0.422h-3.022
						c-0.184,0-0.328-0.191-0.328-0.422v-3.26C357.105,293.367,357.25,293.176,357.434,293.176L357.434,293.176z"/>
					<path class="st20" d="M362.346,293.176h3.02c0.187,0,0.328,0.191,0.328,0.423v3.26c0,0.23-0.142,0.422-0.328,0.422h-3.02
						c-0.18,0-0.328-0.191-0.328-0.422v-3.26C362.018,293.367,362.166,293.176,362.346,293.176L362.346,293.176z"/>
					<path class="st20" d="M367.256,293.176h3.027c0.178,0,0.326,0.191,0.326,0.423v3.26c0,0.23-0.148,0.422-0.326,0.422h-3.027
						c-0.18,0-0.326-0.191-0.326-0.422v-3.26C366.93,293.367,367.076,293.176,367.256,293.176L367.256,293.176z"/>
					<path class="st20" d="M325.504,298.87h3.021c0.18,0,0.327,0.191,0.327,0.421v3.261c0,0.23-0.147,0.421-0.327,0.421h-3.021
						c-0.179,0-0.326-0.19-0.326-0.421v-3.261C325.178,299.061,325.325,298.87,325.504,298.87L325.504,298.87z"/>
					<path class="st20" d="M330.416,298.87h3.025c0.18,0,0.328,0.191,0.328,0.421v3.261c0,0.23-0.148,0.421-0.328,0.421h-3.025
						c-0.179,0-0.328-0.19-0.328-0.421v-3.261C330.088,299.061,330.237,298.87,330.416,298.87L330.416,298.87z"/>
					<path class="st20" d="M335.326,298.87h3.026c0.181,0,0.329,0.191,0.329,0.421v3.261c0,0.23-0.148,0.421-0.329,0.421h-3.026
						c-0.18,0-0.322-0.19-0.322-0.421v-3.261C335.004,299.061,335.147,298.87,335.326,298.87L335.326,298.87z"/>
					<path class="st20" d="M340.242,298.87h3.022c0.18,0,0.328,0.191,0.328,0.421v3.261c0,0.23-0.148,0.421-0.328,0.421h-3.022
						c-0.178,0-0.327-0.19-0.327-0.421v-3.261C339.915,299.061,340.065,298.87,340.242,298.87L340.242,298.87z"/>
					<path class="st20" d="M345.154,298.87h3.025c0.181,0,0.322,0.191,0.322,0.421v3.261c0,0.23-0.142,0.421-0.322,0.421h-3.025
						c-0.18,0-0.326-0.19-0.326-0.421v-3.261C344.828,299.061,344.975,298.87,345.154,298.87L345.154,298.87z"/>
					<path class="st20" d="M350.065,298.87h3.027c0.18,0,0.328,0.191,0.328,0.421v3.261c0,0.23-0.148,0.421-0.328,0.421h-3.027
						c-0.18,0-0.327-0.19-0.327-0.421v-3.261C349.737,299.061,349.885,298.87,350.065,298.87L350.065,298.87z"/>
					<path class="st20" d="M354.982,298.87h3.02c0.18,0,0.328,0.191,0.328,0.421v3.261c0,0.23-0.148,0.421-0.328,0.421h-3.02
						c-0.18,0-0.328-0.19-0.328-0.421v-3.261C354.654,299.061,354.803,298.87,354.982,298.87L354.982,298.87z"/>
					<path class="st20" d="M359.893,298.87h3.027c0.178,0,0.32,0.191,0.32,0.421v3.261c0,0.23-0.143,0.421-0.32,0.421h-3.027
						c-0.18,0-0.328-0.19-0.328-0.421v-3.261C359.565,299.061,359.713,298.87,359.893,298.87L359.893,298.87z"/>
					<path class="st20" d="M364.803,298.87h3.027c0.18,0,0.326,0.191,0.326,0.421v3.261c0,0.23-0.147,0.421-0.326,0.421h-3.027
						c-0.18,0-0.326-0.19-0.326-0.421v-3.261C364.477,299.061,364.623,298.87,364.803,298.87L364.803,298.87z"/>
					<path class="st20" d="M369.719,298.87h3.023c0.178,0,0.326,0.191,0.326,0.421v3.261c0,0.23-0.148,0.421-0.326,0.421h-3.023
						c-0.178,0-0.328-0.19-0.328-0.421v-3.261C369.391,299.061,369.541,298.87,369.719,298.87L369.719,298.87z"/>
					<path class="st20" d="M372.174,293.176h3.021c0.179,0,0.327,0.191,0.327,0.423v3.26c0,0.23-0.148,0.422-0.327,0.422h-3.021
						c-0.185,0-0.328-0.191-0.328-0.422v-3.26C371.846,293.367,371.988,293.176,372.174,293.176L372.174,293.176z"/>
					<path class="st20" d="M377.084,293.176h3.021c0.178,0,0.326,0.191,0.326,0.423v3.26c0,0.23-0.148,0.422-0.326,0.422h-3.021
						c-0.18,0-0.328-0.191-0.328-0.422v-3.26C376.756,293.367,376.904,293.176,377.084,293.176L377.084,293.176z"/>
					<path class="st20" d="M374.713,298.87h5.393c0.178,0,0.326,0.191,0.326,0.421v3.261c0,0.23-0.148,0.421-0.326,0.421h-5.393
						c-0.18,0-0.332-0.19-0.332-0.421v-3.261C374.381,299.061,374.533,298.87,374.713,298.87L374.713,298.87z"/>
					<path class="st20" d="M318.18,298.87h5.596c0.179,0,0.326,0.191,0.326,0.421v3.261c0,0.23-0.147,0.421-0.326,0.421h-5.596
						c-0.188,0-0.328-0.19-0.328-0.421v-3.261C317.852,299.061,317.992,298.87,318.18,298.87L318.18,298.87z"/>
					<path class="st20" d="M318.18,304.564h6.683c0.179,0,0.327,0.189,0.327,0.42v3.263c0,0.229-0.149,0.419-0.327,0.419h-6.683
						c-0.188,0-0.328-0.19-0.328-0.419v-3.263C317.852,304.753,317.992,304.564,318.18,304.564L318.18,304.564z"/>
					<path class="st20" d="M318.18,310.257h3.014c0.18,0,0.326,0.19,0.326,0.421v3.26c0,0.232-0.146,0.422-0.326,0.422h-3.014
						c-0.188,0-0.328-0.19-0.328-0.422v-3.26C317.852,310.447,317.992,310.257,318.18,310.257L318.18,310.257z"/>
					<path class="st20" d="M323.084,310.257h3.014c0.18,0,0.328,0.19,0.328,0.421v3.26c0,0.232-0.148,0.422-0.328,0.422h-3.014
						c-0.18,0-0.328-0.19-0.328-0.422v-3.26C322.756,310.447,322.904,310.257,323.084,310.257L323.084,310.257z"/>
					<path class="st20" d="M327.988,310.257h3.015c0.185,0,0.327,0.19,0.327,0.421v3.26c0,0.232-0.143,0.422-0.327,0.422h-3.015
						c-0.18,0-0.328-0.19-0.328-0.422v-3.26C327.66,310.447,327.809,310.257,327.988,310.257L327.988,310.257z"/>
					<path class="st20" d="M332.893,310.257h31.41c0.184,0,0.328,0.19,0.328,0.421v3.26c0,0.232-0.145,0.422-0.328,0.422h-31.41
						c-0.18,0-0.328-0.19-0.328-0.422v-3.26C332.565,310.447,332.713,310.257,332.893,310.257L332.893,310.257z"/>
					<path class="st20" d="M326.68,304.619h3.02c0.18,0,0.328,0.189,0.328,0.42v3.261c0,0.23-0.148,0.422-0.328,0.422h-3.02
						c-0.18,0-0.33-0.191-0.33-0.422v-3.261C326.35,304.809,326.5,304.619,326.68,304.619L326.68,304.619z"/>
					<path class="st20" d="M331.59,304.619h3.025c0.18,0,0.328,0.189,0.328,0.42v3.261c0,0.23-0.148,0.422-0.328,0.422h-3.025
						c-0.18,0-0.328-0.191-0.328-0.422v-3.261C331.262,304.809,331.41,304.619,331.59,304.619L331.59,304.619z"/>
					<path class="st20" d="M336.5,304.619h3.027c0.179,0,0.328,0.189,0.328,0.42v3.261c0,0.23-0.149,0.422-0.328,0.422H336.5
						c-0.18,0-0.322-0.191-0.322-0.422v-3.261C336.178,304.809,336.32,304.619,336.5,304.619L336.5,304.619z"/>
					<path class="st20" d="M341.416,304.619h3.021c0.181,0,0.327,0.189,0.327,0.42v3.261c0,0.23-0.147,0.422-0.327,0.422h-3.021
						c-0.18,0-0.326-0.191-0.326-0.422v-3.261C341.09,304.809,341.236,304.619,341.416,304.619L341.416,304.619z"/>
					<path class="st20" d="M346.328,304.619h3.025c0.18,0,0.322,0.189,0.322,0.42v3.261c0,0.23-0.143,0.422-0.322,0.422h-3.025
						c-0.18,0-0.326-0.191-0.326-0.422v-3.261C346.002,304.809,346.148,304.619,346.328,304.619L346.328,304.619z"/>
					<path class="st20" d="M351.238,304.619h3.027c0.178,0,0.327,0.189,0.327,0.42v3.261c0,0.23-0.149,0.422-0.327,0.422h-3.027
						c-0.179,0-0.327-0.191-0.327-0.422v-3.261C350.911,304.809,351.06,304.619,351.238,304.619L351.238,304.619z"/>
					<path class="st20" d="M356.156,304.619h3.021c0.178,0,0.326,0.189,0.326,0.42v3.261c0,0.23-0.148,0.422-0.326,0.422h-3.021
						c-0.18,0-0.328-0.191-0.328-0.422v-3.261C355.828,304.809,355.977,304.619,356.156,304.619L356.156,304.619z"/>
					<path class="st20" d="M361.066,304.619h3.027c0.178,0,0.321,0.189,0.321,0.42v3.261c0,0.23-0.143,0.422-0.321,0.422h-3.027
						c-0.18,0-0.328-0.191-0.328-0.422v-3.261C360.738,304.809,360.887,304.619,361.066,304.619L361.066,304.619z"/>
					<path class="st20" d="M365.977,304.619h5.628c0.179,0,0.327,0.189,0.327,0.42v3.261c0,0.23-0.148,0.422-0.327,0.422h-5.628
						c-0.18,0-0.327-0.191-0.327-0.422v-3.261C365.649,304.809,365.797,304.619,365.977,304.619L365.977,304.619z"/>
					<path class="st20" d="M373.383,304.564h6.689c0.18,0,0.328,0.189,0.328,0.42v3.263c0,0.229-0.148,0.419-0.328,0.419h-6.689
						c-0.18,0-0.326-0.19-0.326-0.419v-3.263C373.057,304.753,373.203,304.564,373.383,304.564L373.383,304.564z"/>
					<path class="st20" d="M373.984,310.257h2.52c0.061,0,0.117,0.063,0.117,0.142v1.131c0,0.079-0.057,0.143-0.117,0.143h-2.52
						c-0.065,0-0.113-0.064-0.113-0.143v-1.131C373.871,310.32,373.92,310.257,373.984,310.257L373.984,310.257z"/>
					<path class="st20" d="M373.984,312.714h2.52c0.061,0,0.117,0.061,0.117,0.143v1.12c0,0.079-0.057,0.143-0.117,0.143h-2.52
						c-0.065,0-0.113-0.064-0.113-0.143v-1.12C373.871,312.775,373.92,312.714,373.984,312.714L373.984,312.714z"/>
					<path class="st20" d="M370.246,312.714h2.52c0.062,0,0.117,0.061,0.117,0.143v1.12c0,0.079-0.056,0.143-0.117,0.143h-2.52
						c-0.063,0-0.113-0.064-0.113-0.143v-1.12C370.133,312.775,370.184,312.714,370.246,312.714L370.246,312.714z"/>
					<path class="st20" d="M377.713,312.714h2.522c0.063,0,0.111,0.061,0.111,0.143v1.12c0,0.079-0.049,0.143-0.111,0.143h-2.522
						c-0.063,0-0.117-0.064-0.117-0.143v-1.12C377.596,312.775,377.65,312.714,377.713,312.714L377.713,312.714z"/>
					<path class="st20" d="M365.859,310.257h3.027c0.179,0,0.328,0.19,0.328,0.421v3.26c0,0.232-0.15,0.422-0.328,0.422h-3.027
						c-0.179,0-0.328-0.19-0.328-0.422v-3.26C365.531,310.447,365.681,310.257,365.859,310.257L365.859,310.257z"/>
				</g>
			</g>
		</g>
	</g>
</g>
</svg>