<?xml version="1.0" encoding="utf-8"?>
<!-- Generator: Adobe Illustrator 17.0.0, SVG Export Plug-In . SVG Version: 6.00 Build 0)  -->
<!DOCTYPE svg PUBLIC "-//W3C//DTD SVG 1.1//EN" "http://www.w3.org/Graphics/SVG/1.1/DTD/svg11.dtd" [
	<!ENTITY ns_extend "http://ns.adobe.com/Extensibility/1.0/">
	<!ENTITY ns_ai "http://ns.adobe.com/AdobeIllustrator/10.0/">
	<!ENTITY ns_graphs "http://ns.adobe.com/Graphs/1.0/">
	<!ENTITY ns_vars "http://ns.adobe.com/Variables/1.0/">
	<!ENTITY ns_imrep "http://ns.adobe.com/ImageReplacement/1.0/">
	<!ENTITY ns_sfw "http://ns.adobe.com/SaveForWeb/1.0/">
	<!ENTITY ns_custom "http://ns.adobe.com/GenericCustomNamespace/1.0/">
	<!ENTITY ns_adobe_xpath "http://ns.adobe.com/XPath/1.0/">
]>
<svg version="1.1" id="Capa_1" xmlns:x="&ns_extend;" xmlns:i="&ns_ai;" xmlns:graph="&ns_graphs;"
	 xmlns="http://www.w3.org/2000/svg" xmlns:xlink="http://www.w3.org/1999/xlink" x="0px" y="0px" width="294.554px"
	 height="301.749px" viewBox="0 0 294.554 301.749" enable-background="new 0 0 294.554 301.749" xml:space="preserve">
<metadata>
	<sfw  xmlns="&ns_sfw;">
		<slices></slices>
		<sliceSourceBounds  width="294.554" height="301.749" x="152.223" y="9.625" bottomLeftOrigin="true"></sliceSourceBounds>
	</sfw>
</metadata>
<g>
	<rect x="1" y="1" fill="#FFFFFF" stroke="#000000" stroke-width="2" stroke-miterlimit="10" width="292.554" height="98.819"/>
	<rect x="12.815" y="7.772" fill="none" stroke="#E54F26" stroke-miterlimit="10" width="7.193" height="7.167"/>
	<line fill="none" stroke="#E54F26" stroke-miterlimit="10" x1="14.044" y1="11.356" x2="18.893" y2="11.356"/>
	<rect x="12.815" y="26.409" fill="none" stroke="#E54F26" stroke-miterlimit="10" width="7.193" height="7.167"/>
	<line fill="none" stroke="#E54F26" stroke-miterlimit="10" x1="14.044" y1="29.993" x2="18.893" y2="29.993"/>
	<rect x="12.815" y="44.966" fill="none" stroke="#E54F26" stroke-miterlimit="10" width="7.193" height="7.166"/>
	<line fill="none" stroke="#E54F26" stroke-miterlimit="10" x1="14.044" y1="48.55" x2="18.893" y2="48.55"/>
	<line fill="none" stroke="#E54F26" stroke-miterlimit="10" x1="16.413" y1="14.939" x2="16.413" y2="26.409"/>
	<line fill="none" stroke="#E54F26" stroke-miterlimit="10" x1="16.413" y1="33.576" x2="16.413" y2="45.047"/>
	<line fill="none" stroke="#E54F26" stroke-miterlimit="10" x1="16.413" y1="52.132" x2="16.413" y2="85.838"/>
	<line fill="none" stroke="#E54F26" stroke-miterlimit="10" x1="16.413" y1="67.145" x2="20.009" y2="67.145"/>
	<line fill="none" stroke="#E54F26" stroke-miterlimit="10" x1="16.413" y1="85.838" x2="20.009" y2="85.838"/>
	<g>
		<path d="M22.194,11.769l6.338-3.532c0.103-0.056,0.179-0.084,0.23-0.084c0.079,0,0.147,0.029,0.206,0.087
			c0.058,0.059,0.087,0.127,0.087,0.206c0,0.116-0.079,0.219-0.237,0.308l-5.431,3.016l5.424,3.016
			c0.158,0.088,0.237,0.19,0.237,0.307c0,0.079-0.029,0.147-0.087,0.206c-0.059,0.059-0.127,0.087-0.206,0.087
			c-0.052,0-0.128-0.027-0.23-0.083L22.194,11.769z"/>
		<path d="M32.448,7.077v3.609c0.372-0.405,0.729-0.69,1.071-0.855c0.343-0.165,0.725-0.248,1.148-0.248
			c0.456,0,0.844,0.081,1.162,0.241c0.319,0.16,0.585,0.407,0.8,0.74c0.214,0.332,0.321,0.683,0.321,1.05v3.638h0.655
			c0.145,0,0.246,0.026,0.304,0.08c0.059,0.054,0.088,0.124,0.088,0.213c0,0.084-0.029,0.153-0.088,0.209
			c-0.058,0.056-0.159,0.084-0.304,0.084H35.7c-0.145,0-0.247-0.028-0.307-0.084c-0.061-0.056-0.091-0.125-0.091-0.209
			c0-0.089,0.03-0.159,0.091-0.213c0.06-0.054,0.162-0.08,0.307-0.08h0.656v-3.596c0-0.423-0.152-0.776-0.457-1.061
			s-0.729-0.426-1.274-0.426c-0.428,0-0.793,0.104-1.096,0.313c-0.219,0.149-0.579,0.501-1.082,1.055v3.714h0.663
			c0.14,0,0.239,0.026,0.3,0.08s0.091,0.124,0.091,0.213c0,0.084-0.03,0.153-0.091,0.209s-0.16,0.084-0.3,0.084h-1.912
			c-0.14,0-0.24-0.028-0.301-0.084s-0.091-0.125-0.091-0.209c0-0.089,0.03-0.159,0.091-0.213s0.161-0.08,0.301-0.08h0.663v-7.58
			h-0.789c-0.14,0-0.24-0.028-0.3-0.084c-0.061-0.056-0.091-0.128-0.091-0.217c0-0.083,0.03-0.153,0.091-0.209
			c0.06-0.056,0.16-0.084,0.3-0.084C31.072,7.077,32.448,7.077,32.448,7.077z"/>
		<path d="M41.753,9.793h3.184c0.14,0,0.239,0.027,0.3,0.084c0.061,0.056,0.091,0.128,0.091,0.216c0,0.084-0.03,0.153-0.091,0.21
			c-0.061,0.056-0.16,0.083-0.3,0.083h-3.184v3.902c0,0.34,0.137,0.624,0.409,0.852c0.271,0.229,0.671,0.342,1.196,0.342
			c0.396,0,0.824-0.059,1.285-0.178c0.46-0.118,0.818-0.252,1.075-0.401c0.093-0.061,0.169-0.091,0.229-0.091
			c0.075,0,0.14,0.029,0.196,0.088c0.056,0.058,0.083,0.126,0.083,0.205c0,0.07-0.03,0.136-0.091,0.196
			c-0.148,0.153-0.511,0.319-1.085,0.499c-0.575,0.179-1.125,0.269-1.651,0.269c-0.684,0-1.229-0.161-1.633-0.481
			c-0.405-0.321-0.607-0.754-0.607-1.299v-3.902h-1.082c-0.14,0-0.24-0.027-0.3-0.083c-0.061-0.057-0.091-0.128-0.091-0.217
			c0-0.084,0.03-0.153,0.091-0.209c0.06-0.057,0.16-0.084,0.3-0.084h1.082V8.062c0-0.14,0.027-0.239,0.084-0.3
			c0.056-0.061,0.125-0.091,0.209-0.091c0.089,0,0.16,0.03,0.217,0.091c0.056,0.061,0.083,0.16,0.083,0.3L41.753,9.793L41.753,9.793
			z"/>
		<path d="M48.866,9.793v0.593c0.498-0.535,0.999-0.803,1.501-0.803c0.303,0,0.568,0.081,0.796,0.241s0.419,0.403,0.572,0.729
			c0.261-0.326,0.524-0.569,0.792-0.729s0.537-0.241,0.807-0.241c0.424,0,0.761,0.138,1.013,0.412
			c0.33,0.354,0.495,0.74,0.495,1.159v4.098h0.496c0.14,0,0.239,0.026,0.3,0.08s0.091,0.124,0.091,0.213
			c0,0.084-0.03,0.153-0.091,0.209s-0.16,0.084-0.3,0.084h-1.082V11.21c0-0.298-0.091-0.545-0.272-0.74s-0.391-0.293-0.628-0.293
			c-0.215,0-0.44,0.08-0.678,0.241c-0.237,0.16-0.507,0.476-0.81,0.945v3.889h0.488c0.14,0,0.24,0.026,0.301,0.08
			s0.091,0.124,0.091,0.213c0,0.084-0.03,0.153-0.091,0.209s-0.161,0.084-0.301,0.084h-1.082v-4.586
			c0-0.312-0.092-0.569-0.275-0.771s-0.39-0.304-0.618-0.304c-0.209,0-0.416,0.067-0.621,0.202c-0.283,0.191-0.581,0.52-0.894,0.984
			v3.889h0.496c0.14,0,0.239,0.026,0.3,0.08s0.091,0.124,0.091,0.213c0,0.084-0.03,0.153-0.091,0.209s-0.16,0.084-0.3,0.084h-1.578
			c-0.14,0-0.239-0.028-0.3-0.084s-0.091-0.125-0.091-0.209c0-0.089,0.03-0.159,0.091-0.213s0.16-0.08,0.3-0.08h0.496v-4.866h-0.496
			c-0.14,0-0.239-0.027-0.3-0.083c-0.061-0.057-0.091-0.128-0.091-0.217c0-0.084,0.03-0.153,0.091-0.209
			c0.061-0.057,0.16-0.084,0.3-0.084C47.784,9.793,48.866,9.793,48.866,9.793z"/>
		<path d="M60.412,7.077v8.175h2.304c0.145,0,0.247,0.026,0.308,0.08c0.06,0.054,0.091,0.124,0.091,0.213
			c0,0.084-0.031,0.153-0.091,0.209c-0.061,0.056-0.163,0.084-0.308,0.084h-5.193c-0.14,0-0.24-0.028-0.3-0.084
			c-0.061-0.056-0.091-0.125-0.091-0.209c0-0.089,0.03-0.159,0.091-0.213c0.06-0.054,0.16-0.08,0.3-0.08h2.304V7.671h-1.689
			c-0.14,0-0.241-0.028-0.304-0.084S57.74,7.459,57.74,7.37c0-0.083,0.029-0.153,0.09-0.209s0.163-0.084,0.308-0.084
			C58.138,7.077,60.412,7.077,60.412,7.077z"/>
		<path d="M72.3,11.769l-6.338,3.532c-0.103,0.056-0.179,0.083-0.23,0.083c-0.079,0-0.147-0.028-0.206-0.087
			c-0.058-0.059-0.087-0.127-0.087-0.206c0-0.116,0.079-0.219,0.237-0.307l5.431-3.016l-5.424-3.016
			c-0.158-0.089-0.237-0.191-0.237-0.308c0-0.079,0.029-0.147,0.087-0.206c0.059-0.058,0.127-0.087,0.206-0.087
			c0.052,0,0.128,0.028,0.23,0.084L72.3,11.769z"/>
	</g>
	<g>
		<path d="M56.635,30.732l6.338-3.532c0.103-0.056,0.179-0.084,0.23-0.084c0.079,0,0.147,0.029,0.206,0.087
			c0.058,0.059,0.087,0.127,0.087,0.206c0,0.116-0.079,0.219-0.237,0.308l-5.431,3.016l5.424,3.016
			c0.158,0.088,0.237,0.19,0.237,0.307c0,0.079-0.029,0.147-0.087,0.206c-0.059,0.059-0.127,0.087-0.206,0.087
			c-0.052,0-0.128-0.027-0.23-0.083L56.635,30.732z"/>
		<path d="M66.609,26.041v3.889c0.707-0.922,1.562-1.383,2.562-1.383c0.856,0,1.59,0.311,2.199,0.933
			c0.609,0.621,0.914,1.383,0.914,2.286c0,0.912-0.308,1.685-0.925,2.317c-0.616,0.633-1.346,0.949-2.188,0.949
			c-1.023,0-1.877-0.461-2.562-1.382v1.151h-1.375c-0.14,0-0.24-0.028-0.3-0.084c-0.061-0.056-0.091-0.125-0.091-0.209
			c0-0.089,0.03-0.159,0.091-0.213c0.06-0.054,0.16-0.08,0.3-0.08h0.789v-7.581h-0.789c-0.14,0-0.24-0.028-0.3-0.084
			c-0.061-0.056-0.091-0.128-0.091-0.217c0-0.083,0.03-0.153,0.091-0.209c0.06-0.056,0.16-0.084,0.3-0.084L66.609,26.041
			L66.609,26.041z M71.698,31.793c0-0.739-0.254-1.367-0.761-1.881c-0.508-0.515-1.101-0.771-1.78-0.771s-1.272,0.257-1.78,0.771
			c-0.507,0.514-0.761,1.142-0.761,1.881c0,0.74,0.254,1.367,0.761,1.882c0.508,0.514,1.101,0.771,1.78,0.771
			s1.272-0.257,1.78-0.771C71.444,33.16,71.698,32.533,71.698,31.793z"/>
		<path d="M80.675,31.793c0,0.894-0.319,1.657-0.959,2.29c-0.641,0.633-1.412,0.949-2.314,0.949c-0.912,0-1.687-0.317-2.324-0.953
			c-0.638-0.635-0.957-1.397-0.957-2.286c0-0.894,0.319-1.657,0.957-2.293c0.638-0.635,1.412-0.953,2.324-0.953
			c0.902,0,1.674,0.316,2.314,0.949C80.355,30.13,80.675,30.896,80.675,31.793z M80.082,31.793c0-0.735-0.262-1.361-0.785-1.878
			s-1.158-0.774-1.902-0.774c-0.745,0-1.379,0.26-1.902,0.778s-0.785,1.144-0.785,1.874c0,0.727,0.262,1.35,0.785,1.871
			s1.157,0.781,1.902,0.781c0.744,0,1.379-0.259,1.902-0.778C79.82,33.148,80.082,32.523,80.082,31.793z"/>
		<path d="M88.85,26.041v8.175h0.781c0.145,0,0.247,0.026,0.308,0.08s0.091,0.124,0.091,0.213c0,0.084-0.03,0.153-0.091,0.209
			s-0.163,0.084-0.308,0.084h-1.375v-1.166c-0.68,0.931-1.542,1.396-2.59,1.396c-0.53,0-1.039-0.141-1.524-0.423
			c-0.486-0.281-0.871-0.683-1.152-1.204s-0.422-1.059-0.422-1.612c0-0.559,0.141-1.097,0.422-1.616s0.666-0.92,1.152-1.204
			c0.485-0.283,0.996-0.426,1.532-0.426c1.023,0,1.884,0.466,2.582,1.396v-3.309h-0.781c-0.145,0-0.247-0.028-0.308-0.084
			s-0.091-0.128-0.091-0.217c0-0.083,0.03-0.153,0.091-0.209s0.163-0.084,0.308-0.084L88.85,26.041L88.85,26.041z M88.256,31.793
			c0-0.744-0.251-1.373-0.754-1.885C87,29.396,86.401,29.14,85.708,29.14c-0.698,0-1.298,0.256-1.801,0.768
			s-0.754,1.141-0.754,1.885c0,0.74,0.251,1.367,0.754,1.882c0.503,0.514,1.103,0.771,1.801,0.771c0.693,0,1.292-0.257,1.794-0.771
			C88.005,33.16,88.256,32.533,88.256,31.793z"/>
		<path d="M94.595,34.802l-2.723-5.452h-0.175c-0.14,0-0.239-0.027-0.3-0.083c-0.061-0.057-0.091-0.126-0.091-0.21
			c0-0.061,0.015-0.115,0.046-0.164c0.029-0.049,0.069-0.084,0.118-0.104s0.124-0.031,0.227-0.031h1.605
			c0.14,0,0.24,0.027,0.301,0.084c0.061,0.056,0.091,0.128,0.091,0.216c0,0.084-0.03,0.153-0.091,0.21
			c-0.061,0.056-0.161,0.083-0.301,0.083h-0.788l2.394,4.81l2.359-4.81h-0.788c-0.14,0-0.24-0.027-0.301-0.083
			c-0.061-0.057-0.091-0.128-0.091-0.217c0-0.084,0.03-0.153,0.091-0.209c0.061-0.057,0.161-0.084,0.301-0.084h1.599
			c0.144,0,0.246,0.027,0.307,0.084c0.061,0.056,0.091,0.128,0.091,0.216c0,0.061-0.019,0.116-0.056,0.168
			c-0.037,0.051-0.079,0.085-0.126,0.101c-0.046,0.017-0.177,0.024-0.391,0.024l-3.714,7.561h0.915c0.14,0,0.239,0.026,0.3,0.08
			s0.091,0.124,0.091,0.213c0,0.084-0.03,0.153-0.091,0.209c-0.061,0.057-0.16,0.084-0.3,0.084h-3.379c-0.14,0-0.24-0.026-0.3-0.08
			c-0.061-0.054-0.091-0.125-0.091-0.213c0-0.089,0.03-0.159,0.091-0.213c0.06-0.054,0.16-0.08,0.3-0.08h1.836L94.595,34.802z"/>
		<path d="M106.74,30.732l-6.338,3.532c-0.103,0.056-0.179,0.083-0.23,0.083c-0.079,0-0.147-0.028-0.206-0.087
			c-0.058-0.059-0.087-0.127-0.087-0.206c0-0.116,0.079-0.219,0.237-0.307l5.431-3.016l-5.424-3.016
			c-0.158-0.089-0.237-0.191-0.237-0.308c0-0.079,0.029-0.147,0.087-0.206c0.059-0.058,0.127-0.087,0.206-0.087
			c0.052,0,0.128,0.028,0.23,0.084L106.74,30.732z"/>
	</g>
	<g>
		<path d="M91.68,49.044l6.338-3.532c0.103-0.056,0.179-0.084,0.23-0.084c0.079,0,0.147,0.029,0.206,0.087
			c0.058,0.059,0.087,0.127,0.087,0.206c0,0.116-0.079,0.219-0.237,0.308l-5.431,3.016l5.424,3.016
			c0.158,0.088,0.237,0.19,0.237,0.307c0,0.079-0.029,0.147-0.087,0.206c-0.059,0.059-0.127,0.087-0.206,0.087
			c-0.052,0-0.128-0.027-0.23-0.083L91.68,49.044z"/>
		<path d="M101.934,44.353v3.609c0.372-0.405,0.729-0.69,1.071-0.855c0.343-0.165,0.725-0.248,1.148-0.248
			c0.456,0,0.844,0.081,1.162,0.241c0.319,0.16,0.585,0.407,0.8,0.74c0.214,0.332,0.321,0.683,0.321,1.05v3.638h0.655
			c0.145,0,0.246,0.026,0.304,0.08c0.059,0.054,0.088,0.124,0.088,0.213c0,0.084-0.029,0.153-0.088,0.209
			c-0.058,0.056-0.159,0.084-0.304,0.084h-1.905c-0.145,0-0.247-0.028-0.307-0.084c-0.061-0.056-0.091-0.125-0.091-0.209
			c0-0.089,0.03-0.159,0.091-0.213c0.06-0.054,0.162-0.08,0.307-0.08h0.656v-3.596c0-0.423-0.152-0.776-0.457-1.061
			s-0.729-0.426-1.274-0.426c-0.428,0-0.793,0.104-1.096,0.313c-0.219,0.149-0.579,0.501-1.082,1.055v3.714h0.663
			c0.14,0,0.239,0.026,0.3,0.08s0.091,0.124,0.091,0.213c0,0.084-0.03,0.153-0.091,0.209s-0.16,0.084-0.3,0.084h-1.912
			c-0.14,0-0.24-0.028-0.301-0.084s-0.091-0.125-0.091-0.209c0-0.089,0.03-0.159,0.091-0.213s0.161-0.08,0.301-0.08h0.663v-7.581
			h-0.789c-0.14,0-0.24-0.028-0.3-0.084c-0.061-0.056-0.091-0.128-0.091-0.217c0-0.083,0.03-0.153,0.091-0.209
			c0.06-0.056,0.16-0.084,0.3-0.084L101.934,44.353L101.934,44.353z"/>
		<path d="M112.732,44.234v8.293h2.011c0.14,0,0.239,0.026,0.3,0.08s0.091,0.124,0.091,0.213c0,0.084-0.03,0.153-0.091,0.209
			s-0.16,0.084-0.3,0.084h-4.607c-0.14,0-0.239-0.028-0.3-0.084s-0.091-0.125-0.091-0.209c0-0.089,0.03-0.159,0.091-0.213
			s0.16-0.08,0.3-0.08h2.011v-7.483l-1.913,0.601c-0.093,0.027-0.16,0.041-0.202,0.041c-0.07,0-0.134-0.028-0.192-0.087
			c-0.058-0.058-0.087-0.127-0.087-0.206c0-0.069,0.023-0.135,0.069-0.195c0.037-0.037,0.114-0.076,0.23-0.118L112.732,44.234z"/>
		<path d="M124.627,49.044l-6.338,3.532c-0.103,0.056-0.179,0.083-0.23,0.083c-0.079,0-0.147-0.028-0.206-0.087
			c-0.058-0.059-0.087-0.127-0.087-0.206c0-0.116,0.079-0.219,0.237-0.307l5.431-3.016l-5.424-3.016
			c-0.158-0.089-0.237-0.191-0.237-0.308c0-0.079,0.029-0.147,0.087-0.206c0.059-0.058,0.127-0.087,0.206-0.087
			c0.052,0,0.128,0.028,0.23,0.084L124.627,49.044z"/>
	</g>
	<g>
		<g>
			<path d="M135.965,48.437h-0.272c-0.2,0-0.371-0.071-0.513-0.213c-0.143-0.143-0.213-0.313-0.213-0.514
				c0-0.209,0.072-0.382,0.216-0.52c0.145-0.138,0.314-0.206,0.51-0.206h0.272c0.2,0,0.371,0.071,0.513,0.213
				c0.143,0.142,0.213,0.311,0.213,0.506c0,0.21-0.072,0.384-0.216,0.523C136.33,48.366,136.16,48.437,135.965,48.437z
				 M135.273,55.026l0.259-4.503c0.009-0.148,0.04-0.254,0.094-0.314c0.054-0.06,0.12-0.091,0.199-0.091
				c0.084,0,0.152,0.031,0.206,0.091c0.053,0.061,0.085,0.166,0.094,0.314l0.266,4.503c0.005,0.106,0.007,0.188,0.007,0.244
				c0,0.158-0.054,0.291-0.16,0.397c-0.107,0.107-0.242,0.161-0.405,0.161s-0.299-0.053-0.408-0.157s-0.164-0.243-0.164-0.416
				C135.26,55.21,135.265,55.133,135.273,55.026z"/>
			<path d="M144.544,48.437h-0.272c-0.2,0-0.371-0.071-0.513-0.213c-0.143-0.143-0.213-0.313-0.213-0.514
				c0-0.209,0.072-0.382,0.216-0.52c0.145-0.138,0.314-0.206,0.51-0.206h0.272c0.2,0,0.371,0.071,0.513,0.213
				c0.143,0.142,0.213,0.311,0.213,0.506c0,0.21-0.072,0.384-0.216,0.523C144.909,48.366,144.739,48.437,144.544,48.437z
				 M143.853,55.026l0.259-4.503c0.009-0.148,0.04-0.254,0.094-0.314c0.054-0.06,0.12-0.091,0.199-0.091
				c0.084,0,0.152,0.031,0.206,0.091c0.053,0.061,0.085,0.166,0.094,0.314l0.266,4.503c0.005,0.106,0.007,0.188,0.007,0.244
				c0,0.158-0.054,0.291-0.16,0.397c-0.107,0.107-0.242,0.161-0.405,0.161s-0.299-0.053-0.408-0.157s-0.164-0.243-0.164-0.416
				C143.839,55.21,143.844,55.133,143.853,55.026z"/>
			<path d="M151.057,44.353v3.609c0.372-0.405,0.729-0.69,1.071-0.855c0.343-0.165,0.725-0.248,1.148-0.248
				c0.456,0,0.844,0.081,1.162,0.241c0.319,0.16,0.585,0.407,0.8,0.74c0.214,0.332,0.321,0.683,0.321,1.05v3.638h0.655
				c0.145,0,0.246,0.026,0.304,0.08c0.059,0.054,0.088,0.124,0.088,0.213c0,0.084-0.029,0.153-0.088,0.209
				c-0.058,0.056-0.159,0.084-0.304,0.084h-1.905c-0.145,0-0.247-0.028-0.307-0.084c-0.061-0.056-0.091-0.125-0.091-0.209
				c0-0.089,0.03-0.159,0.091-0.213c0.06-0.054,0.162-0.08,0.307-0.08h0.656v-3.596c0-0.423-0.152-0.776-0.457-1.061
				s-0.729-0.426-1.274-0.426c-0.428,0-0.793,0.104-1.096,0.313c-0.219,0.149-0.579,0.501-1.082,1.055v3.714h0.663
				c0.14,0,0.239,0.026,0.3,0.08s0.091,0.124,0.091,0.213c0,0.084-0.03,0.153-0.091,0.209s-0.16,0.084-0.3,0.084h-1.912
				c-0.14,0-0.24-0.028-0.301-0.084s-0.091-0.125-0.091-0.209c0-0.089,0.03-0.159,0.091-0.213s0.161-0.08,0.301-0.08h0.663v-7.581
				h-0.789c-0.14,0-0.24-0.028-0.3-0.084c-0.061-0.056-0.091-0.128-0.091-0.217c0-0.083,0.03-0.153,0.091-0.209
				c0.06-0.056,0.16-0.084,0.3-0.084L151.057,44.353L151.057,44.353z"/>
			<path d="M164.843,50.105c0,0.894-0.319,1.657-0.959,2.29c-0.641,0.633-1.412,0.949-2.314,0.949c-0.912,0-1.687-0.317-2.324-0.953
				c-0.638-0.635-0.957-1.397-0.957-2.286c0-0.894,0.319-1.657,0.957-2.293c0.638-0.635,1.412-0.953,2.324-0.953
				c0.902,0,1.674,0.316,2.314,0.949C164.523,48.441,164.843,49.207,164.843,50.105z M164.25,50.105
				c0-0.735-0.262-1.361-0.785-1.878s-1.158-0.774-1.902-0.774c-0.745,0-1.379,0.26-1.902,0.778s-0.785,1.144-0.785,1.874
				c0,0.727,0.262,1.35,0.785,1.871s1.157,0.781,1.902,0.781c0.744,0,1.379-0.259,1.902-0.778
				C163.988,51.46,164.25,50.835,164.25,50.105z"/>
			<path d="M170.441,44.353v8.175h2.304c0.145,0,0.247,0.026,0.308,0.08c0.06,0.054,0.091,0.124,0.091,0.213
				c0,0.084-0.031,0.153-0.091,0.209c-0.061,0.056-0.163,0.084-0.308,0.084h-5.193c-0.14,0-0.24-0.028-0.3-0.084
				c-0.061-0.056-0.091-0.125-0.091-0.209c0-0.089,0.03-0.159,0.091-0.213c0.06-0.054,0.16-0.08,0.3-0.08h2.304v-7.581h-1.689
				c-0.14,0-0.241-0.028-0.304-0.084s-0.094-0.128-0.094-0.217c0-0.083,0.029-0.153,0.09-0.209s0.163-0.084,0.308-0.084H170.441z"/>
			<path d="M180.41,53.113v-0.845c-0.852,0.717-1.762,1.075-2.729,1.075c-0.703,0-1.252-0.178-1.647-0.534
				c-0.396-0.355-0.594-0.792-0.594-1.309c0-0.568,0.261-1.063,0.782-1.487c0.521-0.423,1.282-0.635,2.282-0.635
				c0.271,0,0.563,0.018,0.88,0.052c0.316,0.035,0.658,0.09,1.026,0.164v-0.949c0-0.321-0.149-0.6-0.447-0.838
				c-0.298-0.237-0.744-0.355-1.34-0.355c-0.456,0-1.096,0.133-1.92,0.397c-0.148,0.047-0.244,0.07-0.286,0.07
				c-0.074,0-0.139-0.028-0.192-0.084s-0.08-0.126-0.08-0.209c0-0.079,0.023-0.143,0.07-0.188c0.064-0.07,0.328-0.165,0.788-0.286
				c0.727-0.196,1.275-0.294,1.647-0.294c0.74,0,1.317,0.183,1.731,0.548c0.414,0.366,0.621,0.778,0.621,1.239v3.882h0.782
				c0.145,0,0.246,0.026,0.307,0.08s0.091,0.124,0.091,0.213c0,0.084-0.03,0.153-0.091,0.209s-0.162,0.084-0.307,0.084
				C181.784,53.113,180.41,53.113,180.41,53.113z M180.41,50.195c-0.275-0.079-0.565-0.137-0.873-0.175
				c-0.307-0.037-0.631-0.056-0.97-0.056c-0.852,0-1.518,0.185-1.997,0.552c-0.362,0.274-0.544,0.603-0.544,0.984
				c0,0.354,0.138,0.651,0.415,0.894s0.681,0.362,1.211,0.362c0.508,0,0.979-0.101,1.414-0.303c0.435-0.203,0.883-0.525,1.344-0.967
				L180.41,50.195L180.41,50.195z"/>
			<path d="M193.211,47.068v0.593c0.498-0.535,0.999-0.803,1.501-0.803c0.303,0,0.568,0.081,0.796,0.241s0.419,0.403,0.572,0.729
				c0.261-0.326,0.524-0.569,0.792-0.729s0.537-0.241,0.807-0.241c0.424,0,0.761,0.138,1.013,0.412
				c0.33,0.354,0.495,0.74,0.495,1.159v4.098h0.496c0.14,0,0.239,0.026,0.3,0.08s0.091,0.124,0.091,0.213
				c0,0.084-0.03,0.153-0.091,0.209s-0.16,0.084-0.3,0.084h-1.082v-4.628c0-0.298-0.091-0.545-0.272-0.74s-0.391-0.293-0.628-0.293
				c-0.215,0-0.44,0.08-0.678,0.241c-0.237,0.16-0.507,0.476-0.81,0.945v3.889h0.488c0.14,0,0.24,0.026,0.301,0.08
				s0.091,0.124,0.091,0.213c0,0.084-0.03,0.153-0.091,0.209s-0.161,0.084-0.301,0.084h-1.082v-4.586
				c0-0.312-0.092-0.569-0.275-0.771s-0.39-0.304-0.618-0.304c-0.209,0-0.416,0.067-0.621,0.202
				c-0.283,0.191-0.581,0.52-0.894,0.984v3.889h0.496c0.14,0,0.239,0.026,0.3,0.08s0.091,0.124,0.091,0.213
				c0,0.084-0.03,0.153-0.091,0.209s-0.16,0.084-0.3,0.084h-1.578c-0.14,0-0.239-0.028-0.3-0.084s-0.091-0.125-0.091-0.209
				c0-0.089,0.03-0.159,0.091-0.213s0.16-0.08,0.3-0.08h0.496v-4.866h-0.496c-0.14,0-0.239-0.027-0.3-0.083
				c-0.061-0.057-0.091-0.128-0.091-0.217c0-0.084,0.03-0.153,0.091-0.209c0.061-0.057,0.16-0.084,0.3-0.084
				C192.129,47.068,193.211,47.068,193.211,47.068z"/>
			<path d="M206.468,53.113v-0.858c-0.801,0.726-1.667,1.089-2.598,1.089c-0.572,0-1.007-0.156-1.305-0.468
				c-0.387-0.409-0.58-0.887-0.58-1.431v-3.784h-0.788c-0.14,0-0.24-0.027-0.301-0.083c-0.061-0.057-0.091-0.128-0.091-0.217
				c0-0.084,0.03-0.153,0.091-0.209c0.061-0.057,0.161-0.084,0.301-0.084h1.375v4.377c0,0.381,0.121,0.695,0.363,0.942
				c0.241,0.246,0.544,0.369,0.907,0.369c0.954,0,1.829-0.437,2.625-1.312V47.66h-1.082c-0.14,0-0.24-0.027-0.301-0.083
				c-0.061-0.057-0.091-0.128-0.091-0.217c0-0.084,0.03-0.153,0.091-0.209c0.061-0.057,0.161-0.084,0.301-0.084h1.668v5.459h0.495
				c0.14,0,0.24,0.026,0.301,0.08s0.091,0.124,0.091,0.213c0,0.084-0.03,0.153-0.091,0.209s-0.161,0.084-0.301,0.084L206.468,53.113
				L206.468,53.113z"/>
			<path d="M211.145,47.068v0.887c0.409-0.414,0.779-0.701,1.109-0.859c0.331-0.158,0.703-0.237,1.117-0.237
				c0.446,0,0.854,0.096,1.222,0.286c0.261,0.14,0.497,0.372,0.708,0.695c0.212,0.323,0.318,0.654,0.318,0.994v3.693h0.495
				c0.14,0,0.24,0.026,0.301,0.08c0.06,0.054,0.09,0.124,0.09,0.213c0,0.084-0.03,0.153-0.09,0.209
				c-0.061,0.056-0.161,0.084-0.301,0.084h-1.57c-0.145,0-0.247-0.028-0.308-0.084s-0.091-0.125-0.091-0.209
				c0-0.089,0.03-0.159,0.091-0.213s0.163-0.08,0.308-0.08h0.488v-3.596c0-0.414-0.151-0.764-0.453-1.05
				c-0.303-0.287-0.708-0.43-1.215-0.43c-0.387,0-0.722,0.078-1.005,0.233c-0.284,0.156-0.689,0.544-1.215,1.163v3.679h0.663
				c0.14,0,0.239,0.026,0.3,0.08s0.091,0.124,0.091,0.213c0,0.084-0.03,0.153-0.091,0.209s-0.16,0.084-0.3,0.084h-1.913
				c-0.14,0-0.239-0.028-0.3-0.084s-0.091-0.125-0.091-0.209c0-0.089,0.03-0.159,0.091-0.213s0.16-0.08,0.3-0.08h0.663V47.66h-0.495
				c-0.14,0-0.24-0.027-0.301-0.083c-0.061-0.057-0.09-0.128-0.09-0.217c0-0.084,0.029-0.153,0.09-0.209
				c0.061-0.057,0.161-0.084,0.301-0.084L211.145,47.068L211.145,47.068z"/>
			<path d="M224.491,44.353v8.175h0.781c0.145,0,0.247,0.026,0.308,0.08s0.091,0.124,0.091,0.213c0,0.084-0.03,0.153-0.091,0.209
				s-0.163,0.084-0.308,0.084h-1.375v-1.166c-0.68,0.931-1.542,1.396-2.59,1.396c-0.53,0-1.039-0.141-1.524-0.423
				c-0.486-0.281-0.871-0.683-1.152-1.204c-0.281-0.521-0.422-1.059-0.422-1.612c0-0.559,0.141-1.097,0.422-1.616
				c0.281-0.519,0.666-0.92,1.152-1.204c0.485-0.283,0.996-0.426,1.532-0.426c1.023,0,1.884,0.466,2.582,1.396v-3.309h-0.781
				c-0.145,0-0.247-0.028-0.308-0.084s-0.091-0.128-0.091-0.217c0-0.083,0.03-0.153,0.091-0.209s0.163-0.084,0.308-0.084
				L224.491,44.353L224.491,44.353z M223.897,50.105c0-0.744-0.251-1.373-0.754-1.885c-0.502-0.512-1.101-0.768-1.794-0.768
				c-0.698,0-1.298,0.256-1.801,0.768s-0.754,1.141-0.754,1.885c0,0.74,0.251,1.367,0.754,1.882
				c0.503,0.514,1.103,0.771,1.801,0.771c0.693,0,1.292-0.257,1.794-0.771C223.646,51.472,223.897,50.845,223.897,50.105z"/>
			<path d="M233.475,50.105c0,0.894-0.319,1.657-0.959,2.29c-0.641,0.633-1.412,0.949-2.314,0.949c-0.912,0-1.687-0.317-2.324-0.953
				c-0.638-0.635-0.957-1.397-0.957-2.286c0-0.894,0.319-1.657,0.957-2.293c0.638-0.635,1.412-0.953,2.324-0.953
				c0.902,0,1.674,0.316,2.314,0.949C233.155,48.441,233.475,49.207,233.475,50.105z M232.882,50.105
				c0-0.735-0.262-1.361-0.785-1.878s-1.158-0.774-1.902-0.774c-0.745,0-1.379,0.26-1.902,0.778s-0.785,1.144-0.785,1.874
				c0,0.727,0.262,1.35,0.785,1.871s1.157,0.781,1.902,0.781c0.744,0,1.379-0.259,1.902-0.778S232.882,50.835,232.882,50.105z"/>
			<path d="M238.641,51.871h0.272c0.2,0,0.371,0.07,0.513,0.213c0.143,0.142,0.213,0.313,0.213,0.513
				c0,0.205-0.072,0.377-0.216,0.517c-0.145,0.14-0.314,0.209-0.51,0.209h-0.272c-0.2,0-0.371-0.07-0.513-0.213
				c-0.143-0.142-0.213-0.311-0.213-0.506c0-0.209,0.072-0.384,0.216-0.523C238.275,51.94,238.445,51.871,238.641,51.871z
				 M239.339,44.946l-0.266,4.732c-0.009,0.149-0.041,0.254-0.094,0.314c-0.054,0.061-0.12,0.091-0.199,0.091
				c-0.084,0-0.152-0.03-0.206-0.091s-0.085-0.165-0.094-0.314l-0.259-4.732c-0.009-0.112-0.014-0.193-0.014-0.244
				c0-0.158,0.055-0.291,0.164-0.398c0.109-0.106,0.245-0.16,0.408-0.16s0.298,0.054,0.405,0.16c0.106,0.107,0.16,0.242,0.16,0.405
				C239.346,44.755,239.344,44.834,239.339,44.946z"/>
			<path d="M247.22,51.871h0.272c0.2,0,0.371,0.07,0.513,0.213c0.143,0.142,0.213,0.313,0.213,0.513
				c0,0.205-0.072,0.377-0.216,0.517c-0.145,0.14-0.314,0.209-0.51,0.209h-0.272c-0.2,0-0.371-0.07-0.513-0.213
				c-0.143-0.142-0.213-0.311-0.213-0.506c0-0.209,0.072-0.384,0.216-0.523C246.854,51.94,247.024,51.871,247.22,51.871z
				 M247.918,44.946l-0.266,4.732c-0.009,0.149-0.041,0.254-0.094,0.314c-0.054,0.061-0.12,0.091-0.199,0.091
				c-0.084,0-0.152-0.03-0.206-0.091s-0.085-0.165-0.094-0.314l-0.259-4.732c-0.009-0.112-0.014-0.193-0.014-0.244
				c0-0.158,0.055-0.291,0.164-0.398c0.109-0.106,0.245-0.16,0.408-0.16s0.298,0.054,0.405,0.16c0.106,0.107,0.16,0.242,0.16,0.405
				C247.925,44.755,247.923,44.834,247.918,44.946z"/>
		</g>
	</g>
	<g>
		<path d="M56.635,68.008l6.338-3.532c0.103-0.056,0.179-0.084,0.23-0.084c0.079,0,0.147,0.029,0.206,0.087
			c0.058,0.059,0.087,0.127,0.087,0.206c0,0.116-0.079,0.219-0.237,0.308l-5.431,3.016l5.424,3.016
			c0.158,0.088,0.237,0.19,0.237,0.307c0,0.079-0.029,0.147-0.087,0.206c-0.059,0.059-0.127,0.087-0.206,0.087
			c-0.052,0-0.128-0.027-0.23-0.083L56.635,68.008z"/>
		<path d="M71.454,62.891l-4.719,10.108c-0.079,0.172-0.182,0.258-0.308,0.258c-0.079,0-0.147-0.029-0.206-0.087
			c-0.058-0.059-0.087-0.122-0.087-0.192c0-0.056,0.023-0.133,0.07-0.23l4.711-10.107c0.052-0.107,0.101-0.177,0.147-0.21
			c0.046-0.032,0.102-0.049,0.167-0.049c0.079,0,0.147,0.029,0.206,0.088c0.059,0.058,0.087,0.122,0.087,0.191
			C71.523,62.712,71.5,62.788,71.454,62.891z"/>
		<path d="M75.188,63.316v3.889c0.707-0.922,1.562-1.383,2.562-1.383c0.856,0,1.59,0.311,2.199,0.933
			c0.609,0.621,0.914,1.383,0.914,2.286c0,0.912-0.308,1.685-0.925,2.317c-0.616,0.633-1.346,0.949-2.188,0.949
			c-1.023,0-1.877-0.461-2.562-1.382v1.151h-1.375c-0.14,0-0.24-0.028-0.3-0.084c-0.061-0.056-0.091-0.125-0.091-0.209
			c0-0.089,0.03-0.159,0.091-0.213c0.06-0.054,0.16-0.08,0.3-0.08h0.789v-7.58h-0.789c-0.14,0-0.24-0.028-0.3-0.084
			c-0.061-0.056-0.091-0.128-0.091-0.217c0-0.083,0.03-0.153,0.091-0.209c0.06-0.056,0.16-0.084,0.3-0.084H75.188z M80.277,69.068
			c0-0.739-0.254-1.367-0.761-1.881c-0.508-0.515-1.101-0.771-1.78-0.771s-1.272,0.257-1.78,0.771
			c-0.507,0.514-0.761,1.142-0.761,1.881c0,0.74,0.254,1.367,0.761,1.882c0.508,0.514,1.101,0.771,1.78,0.771
			s1.272-0.257,1.78-0.771C80.023,70.436,80.277,69.809,80.277,69.068z"/>
		<path d="M89.254,69.068c0,0.894-0.319,1.657-0.959,2.29c-0.641,0.633-1.412,0.949-2.314,0.949c-0.912,0-1.687-0.317-2.324-0.953
			c-0.638-0.635-0.957-1.397-0.957-2.286c0-0.894,0.319-1.657,0.957-2.293c0.638-0.635,1.412-0.953,2.324-0.953
			c0.902,0,1.674,0.316,2.314,0.949C88.935,67.405,89.254,68.171,89.254,69.068z M88.661,69.068c0-0.735-0.262-1.361-0.785-1.878
			s-1.158-0.774-1.902-0.774c-0.745,0-1.379,0.26-1.902,0.778s-0.785,1.144-0.785,1.874c0,0.727,0.262,1.35,0.785,1.871
			s1.157,0.781,1.902,0.781c0.744,0,1.379-0.259,1.902-0.778C88.399,70.424,88.661,69.799,88.661,69.068z"/>
		<path d="M97.429,63.316v8.175h0.781c0.145,0,0.247,0.026,0.308,0.08s0.091,0.124,0.091,0.213c0,0.084-0.03,0.153-0.091,0.209
			s-0.163,0.084-0.308,0.084h-1.375v-1.166c-0.68,0.931-1.542,1.396-2.59,1.396c-0.53,0-1.039-0.141-1.524-0.423
			c-0.486-0.281-0.871-0.683-1.152-1.204s-0.422-1.059-0.422-1.612c0-0.559,0.141-1.097,0.422-1.616s0.666-0.92,1.152-1.204
			c0.485-0.283,0.996-0.426,1.532-0.426c1.023,0,1.884,0.466,2.582,1.396V63.91h-0.781c-0.145,0-0.247-0.028-0.308-0.084
			s-0.091-0.128-0.091-0.217c0-0.083,0.03-0.153,0.091-0.209s0.163-0.084,0.308-0.084H97.429z M96.835,69.068
			c0-0.744-0.251-1.373-0.754-1.885c-0.502-0.512-1.101-0.768-1.794-0.768c-0.698,0-1.298,0.256-1.801,0.768
			s-0.754,1.141-0.754,1.885c0,0.74,0.251,1.367,0.754,1.882c0.503,0.514,1.103,0.771,1.801,0.771c0.693,0,1.292-0.257,1.794-0.771
			C96.584,70.436,96.835,69.809,96.835,69.068z"/>
		<path d="M103.174,72.077l-2.723-5.452h-0.175c-0.14,0-0.239-0.027-0.3-0.083c-0.061-0.057-0.091-0.126-0.091-0.21
			c0-0.061,0.015-0.115,0.046-0.164c0.029-0.049,0.069-0.084,0.118-0.104s0.124-0.031,0.227-0.031h1.605
			c0.14,0,0.24,0.027,0.301,0.084c0.061,0.056,0.091,0.128,0.091,0.216c0,0.084-0.03,0.153-0.091,0.21
			c-0.061,0.056-0.161,0.083-0.301,0.083h-0.788l2.394,4.81l2.359-4.81h-0.788c-0.14,0-0.24-0.027-0.301-0.083
			c-0.061-0.057-0.091-0.128-0.091-0.217c0-0.084,0.03-0.153,0.091-0.209c0.061-0.057,0.161-0.084,0.301-0.084h1.599
			c0.144,0,0.246,0.027,0.307,0.084c0.061,0.056,0.091,0.128,0.091,0.216c0,0.061-0.019,0.116-0.056,0.168
			c-0.037,0.051-0.079,0.085-0.126,0.101c-0.046,0.017-0.177,0.024-0.391,0.024l-3.714,7.561h0.915c0.14,0,0.239,0.026,0.3,0.08
			s0.091,0.124,0.091,0.213c0,0.084-0.03,0.153-0.091,0.209c-0.061,0.057-0.16,0.084-0.3,0.084h-3.379c-0.14,0-0.24-0.026-0.3-0.08
			c-0.061-0.054-0.091-0.125-0.091-0.213c0-0.089,0.03-0.159,0.091-0.213c0.06-0.054,0.16-0.08,0.3-0.08h1.836L103.174,72.077z"/>
		<path d="M115.319,68.008l-6.338,3.532c-0.103,0.056-0.179,0.083-0.23,0.083c-0.079,0-0.147-0.028-0.206-0.087
			c-0.058-0.059-0.087-0.127-0.087-0.206c0-0.116,0.079-0.219,0.237-0.307l5.431-3.016l-5.424-3.016
			c-0.158-0.089-0.237-0.191-0.237-0.308c0-0.079,0.029-0.147,0.087-0.206c0.059-0.058,0.127-0.087,0.206-0.087
			c0.052,0,0.128,0.028,0.23,0.084L115.319,68.008z"/>
	</g>
	<g>
		<path d="M23.283,86.318l6.338-3.532c0.103-0.056,0.179-0.084,0.23-0.084c0.079,0,0.147,0.029,0.206,0.087
			c0.058,0.059,0.087,0.127,0.087,0.206c0,0.116-0.079,0.219-0.237,0.308l-5.431,3.016l5.424,3.016
			c0.158,0.088,0.237,0.19,0.237,0.307c0,0.079-0.029,0.147-0.087,0.206c-0.059,0.059-0.127,0.087-0.206,0.087
			c-0.052,0-0.128-0.027-0.23-0.083L23.283,86.318z"/>
		<path d="M38.103,81.201L33.384,91.31c-0.079,0.172-0.182,0.258-0.308,0.258c-0.079,0-0.147-0.029-0.206-0.087
			c-0.058-0.059-0.087-0.122-0.087-0.192c0-0.056,0.023-0.133,0.07-0.23l4.711-10.107c0.052-0.107,0.101-0.177,0.147-0.21
			c0.046-0.032,0.102-0.049,0.167-0.049c0.079,0,0.147,0.029,0.206,0.088c0.059,0.058,0.087,0.122,0.087,0.191
			C38.172,81.023,38.148,81.099,38.103,81.201z"/>
		<path d="M42.116,81.627v3.609c0.372-0.405,0.729-0.69,1.071-0.855c0.343-0.165,0.725-0.248,1.148-0.248
			c0.456,0,0.844,0.081,1.162,0.241c0.319,0.16,0.585,0.407,0.8,0.74c0.214,0.332,0.321,0.683,0.321,1.05v3.638h0.655
			c0.145,0,0.246,0.026,0.304,0.08c0.059,0.054,0.088,0.124,0.088,0.213c0,0.084-0.029,0.153-0.088,0.209
			c-0.058,0.056-0.159,0.084-0.304,0.084h-1.905c-0.145,0-0.247-0.028-0.307-0.084C45,90.248,44.97,90.179,44.97,90.095
			c0-0.089,0.03-0.159,0.091-0.213c0.06-0.054,0.162-0.08,0.307-0.08h0.656v-3.596c0-0.423-0.152-0.776-0.457-1.061
			s-0.729-0.426-1.274-0.426c-0.428,0-0.793,0.104-1.096,0.313c-0.219,0.149-0.579,0.501-1.082,1.055v3.714h0.663
			c0.14,0,0.239,0.026,0.3,0.08s0.091,0.124,0.091,0.213c0,0.084-0.03,0.153-0.091,0.209s-0.16,0.084-0.3,0.084h-1.912
			c-0.14,0-0.24-0.028-0.301-0.084s-0.091-0.125-0.091-0.209c0-0.089,0.03-0.159,0.091-0.213s0.161-0.08,0.301-0.08h0.663V82.22
			H40.74c-0.14,0-0.24-0.028-0.3-0.084c-0.061-0.056-0.091-0.128-0.091-0.217c0-0.083,0.03-0.153,0.091-0.209
			c0.06-0.056,0.16-0.084,0.3-0.084h1.376V81.627z"/>
		<path d="M51.421,84.343h3.184c0.14,0,0.239,0.027,0.3,0.084c0.061,0.056,0.091,0.128,0.091,0.216c0,0.084-0.03,0.153-0.091,0.21
			c-0.061,0.056-0.16,0.083-0.3,0.083h-3.184v3.902c0,0.34,0.137,0.624,0.409,0.852c0.271,0.229,0.671,0.342,1.196,0.342
			c0.396,0,0.824-0.059,1.285-0.178c0.46-0.118,0.818-0.252,1.075-0.401c0.093-0.061,0.169-0.091,0.229-0.091
			c0.075,0,0.14,0.029,0.196,0.088c0.056,0.058,0.083,0.126,0.083,0.205c0,0.07-0.03,0.136-0.091,0.196
			c-0.148,0.153-0.511,0.319-1.085,0.499c-0.575,0.179-1.125,0.269-1.651,0.269c-0.684,0-1.229-0.161-1.633-0.481
			c-0.405-0.321-0.607-0.754-0.607-1.299v-3.902h-1.082c-0.14,0-0.24-0.027-0.3-0.083c-0.061-0.057-0.091-0.128-0.091-0.217
			c0-0.084,0.03-0.153,0.091-0.209c0.06-0.057,0.16-0.084,0.3-0.084h1.082v-1.731c0-0.14,0.027-0.239,0.084-0.3
			c0.056-0.061,0.125-0.091,0.209-0.091c0.089,0,0.16,0.03,0.217,0.091c0.056,0.061,0.083,0.16,0.083,0.3L51.421,84.343
			L51.421,84.343z"/>
		<path d="M58.534,84.343v0.593c0.498-0.535,0.999-0.803,1.501-0.803c0.303,0,0.568,0.081,0.796,0.241s0.419,0.403,0.572,0.729
			c0.261-0.326,0.524-0.569,0.792-0.729s0.537-0.241,0.807-0.241c0.424,0,0.761,0.138,1.013,0.412
			c0.33,0.354,0.495,0.74,0.495,1.159v4.098h0.496c0.14,0,0.239,0.026,0.3,0.08s0.091,0.124,0.091,0.213
			c0,0.084-0.03,0.153-0.091,0.209s-0.16,0.084-0.3,0.084h-1.082V85.76c0-0.298-0.091-0.545-0.272-0.74s-0.391-0.293-0.628-0.293
			c-0.215,0-0.44,0.08-0.678,0.241c-0.237,0.16-0.507,0.476-0.81,0.945v3.889h0.488c0.14,0,0.24,0.026,0.301,0.08
			s0.091,0.124,0.091,0.213c0,0.084-0.03,0.153-0.091,0.209s-0.161,0.084-0.301,0.084h-1.082v-4.586
			c0-0.312-0.092-0.569-0.275-0.771s-0.39-0.304-0.618-0.304c-0.209,0-0.416,0.067-0.621,0.202c-0.283,0.191-0.581,0.52-0.894,0.984
			v3.889h0.496c0.14,0,0.239,0.026,0.3,0.08s0.091,0.124,0.091,0.213c0,0.084-0.03,0.153-0.091,0.209s-0.16,0.084-0.3,0.084h-1.578
			c-0.14,0-0.239-0.028-0.3-0.084s-0.091-0.125-0.091-0.209c0-0.089,0.03-0.159,0.091-0.213s0.16-0.08,0.3-0.08h0.496v-4.866h-0.496
			c-0.14,0-0.239-0.027-0.3-0.083c-0.061-0.057-0.091-0.128-0.091-0.217c0-0.084,0.03-0.153,0.091-0.209
			c0.061-0.057,0.16-0.084,0.3-0.084H58.534z"/>
		<path d="M70.08,81.627v8.175h2.304c0.145,0,0.247,0.026,0.308,0.08c0.06,0.054,0.091,0.124,0.091,0.213
			c0,0.084-0.031,0.153-0.091,0.209c-0.061,0.056-0.163,0.084-0.308,0.084H67.19c-0.14,0-0.24-0.028-0.3-0.084
			c-0.061-0.056-0.091-0.125-0.091-0.209c0-0.089,0.03-0.159,0.091-0.213c0.06-0.054,0.16-0.08,0.3-0.08h2.304v-7.581h-1.689
			c-0.14,0-0.241-0.028-0.304-0.084s-0.094-0.128-0.094-0.217c0-0.083,0.029-0.153,0.09-0.209s0.163-0.084,0.308-0.084H70.08z"/>
		<path d="M81.968,86.318L75.63,89.85c-0.103,0.056-0.179,0.083-0.23,0.083c-0.079,0-0.147-0.028-0.206-0.087
			c-0.058-0.059-0.087-0.127-0.087-0.206c0-0.116,0.079-0.219,0.237-0.307l5.431-3.016l-5.424-3.016
			c-0.158-0.089-0.237-0.191-0.237-0.308c0-0.079,0.029-0.147,0.087-0.206c0.059-0.058,0.127-0.087,0.206-0.087
			c0.052,0,0.128,0.028,0.23,0.084L81.968,86.318z"/>
	</g>
</g>
<g>
	<g id="Body_2_">
		<g>
			<path d="M289.478,167.752H6.401c-1.145,0-2.074,0.929-2.074,2.075v131.922h287.227V169.827
				C291.554,168.681,290.625,167.752,289.478,167.752z"/>
		</g>
	</g>
	<g id="Right_5_">
		<g>
			<path fill="#DBDBDB" d="M214.037,176.667c-0.552-0.922-1.881-1.651-2.983-1.651h-69.838c-1.102,0-2.348,0.729-2.791,1.651
				l-6.848,14.258h90.98L214.037,176.667z"/>
		</g>
	</g>
	<g id="Close_5_">
		<g>
			<path fill="#B4B4B4" d="M142.321,178.543c-0.727,0-1.314,0.589-1.314,1.314c0,0.725,0.588,1.313,1.314,1.313
				c0.725,0,1.313-0.589,1.313-1.313C143.634,179.132,143.046,178.543,142.321,178.543z M143.013,180.294l-0.396,0.254l-0.289-0.348
				l-0.305,0.348l-0.394-0.254l0.397-0.454l-0.367-0.44l-0.03,0.02l-0.035-0.099l0.065,0.079l0.363-0.235l0.297,0.339l0.297-0.339
				l0.396,0.255l-0.384,0.438L143.013,180.294z"/>
		</g>
	</g>
	<g id="Left_5_">
		<g>
			<path fill="#E6E6E6" d="M131.227,176.667c-0.549-0.922-1.879-1.651-2.981-1.651H58.407c-1.103,0-2.347,0.729-2.79,1.651
				l-6.849,14.258h90.979L131.227,176.667z"/>
		</g>
	</g>
	<g id="Close_3_">
		<g>
			<path fill="#CBCBCB" d="M60.182,178.543c-0.726,0-1.313,0.589-1.313,1.314c0,0.725,0.588,1.313,1.313,1.313
				s1.313-0.589,1.313-1.313C61.495,179.132,60.906,178.543,60.182,178.543z M60.874,180.294l-0.396,0.254l-0.289-0.347
				l-0.304,0.347l-0.396-0.254l0.398-0.455L59.52,179.4l-0.031,0.02l-0.035-0.099l0.066,0.079l0.364-0.235l0.296,0.339l0.297-0.339
				l0.396,0.255l-0.383,0.438L60.874,180.294z"/>
		</g>
	</g>
	<g id="Background_2_">
		<g>
			<rect x="4.327" y="188.849" fill="#E6E6E6" width="287.227" height="19.54"/>
		</g>
	</g>
	<g id="Left_3_">
		<g>
			<path fill="#CBCBCB" d="M19.348,198.259h-6.141l1.847-1.867c0.17-0.174,0.17-0.454,0-0.626c-0.172-0.174-0.447-0.174-0.617,0
				l-2.264,2.29c-0.154,0.156-0.236,0.363-0.236,0.585v0.129c0,0.221,0.082,0.429,0.236,0.584l2.261,2.292
				c0.171,0.172,0.448,0.172,0.618,0c0.172-0.174,0.172-0.453,0-0.626l-1.845-1.866h6.141c0.241,0,0.434-0.2,0.434-0.445v-0.005
				C19.781,198.458,19.589,198.259,19.348,198.259z"/>
		</g>
	</g>
	<g id="Right_3_">
		<g>
			<path fill="#CBCBCB" d="M36.599,198.056l-2.262-2.29c-0.171-0.174-0.447-0.174-0.617,0c-0.171,0.172-0.171,0.452,0,0.626
				l1.844,1.867h-6.139c-0.24,0-0.434,0.199-0.434,0.444v0.005c0,0.245,0.193,0.445,0.434,0.445h6.141l-1.846,1.866
				c-0.171,0.173-0.171,0.452,0,0.626c0.17,0.172,0.446,0.172,0.617,0l2.262-2.292c0.154-0.155,0.238-0.363,0.238-0.584v-0.129
				C36.837,198.419,36.753,198.212,36.599,198.056z"/>
		</g>
	</g>
	<g id="Refresh_2_">
		<g>
			<path fill="#CBCBCB" d="M53.45,199.124c0-0.116-0.088-0.199-0.195-0.225c-0.027-0.108-0.108-0.195-0.225-0.195
				c-0.137,0-0.246,0.11-0.246,0.248c0,1.405-1.143,2.548-2.547,2.548c-0.656,0-1.25-0.257-1.701-0.667
				c-0.412-0.453-0.67-1.05-0.67-1.709c0-0.641,0.24-1.225,0.632-1.673c0.399-0.378,0.915-0.636,1.493-0.691v0.567
				c0,0.09,0.047,0.17,0.123,0.214c0.038,0.023,0.082,0.032,0.123,0.032c0.044,0,0.086-0.009,0.124-0.032l1.431-0.825
				c0.051-0.029,0.082-0.078,0.102-0.132l0.072-0.042c0.074-0.045,0.121-0.126,0.121-0.214s-0.047-0.169-0.121-0.213l-0.072-0.042
				c-0.02-0.054-0.051-0.103-0.102-0.132l-1.431-0.827c-0.077-0.043-0.171-0.043-0.247,0c-0.076,0.045-0.123,0.126-0.123,0.215
				v0.591c-1.561,0.126-2.791,1.437-2.791,3.032c0,0.058,0.014,0.111,0.018,0.168c-0.004,0.061-0.018,0.117-0.018,0.178
				c0,1.677,1.361,3.042,3.037,3.042c0.881,0,1.668-0.384,2.225-0.984C53.065,200.799,53.45,200.009,53.45,199.124z"/>
		</g>
	</g>
	<g id="Settings_2_">
		<g>
			<path fill="#CBCBCB" d="M285.069,195.766h-6.918c-0.238,0-0.432,0.193-0.432,0.432v0.173c0,0.239,0.193,0.434,0.432,0.434h6.918
				c0.238,0,0.432-0.194,0.432-0.434v-0.173C285.501,195.959,285.308,195.766,285.069,195.766z M285.069,198.014h-6.918
				c-0.238,0-0.432,0.193-0.432,0.433v0.172c0,0.238,0.193,0.434,0.432,0.434h6.918c0.238,0,0.432-0.195,0.432-0.434v-0.172
				C285.501,198.207,285.308,198.014,285.069,198.014z M285.069,200.262h-6.918c-0.238,0-0.432,0.193-0.432,0.432v0.173
				c0,0.24,0.193,0.432,0.432,0.432h6.918c0.238,0,0.432-0.191,0.432-0.432v-0.173C285.501,200.455,285.308,200.262,285.069,200.262
				z"/>
		</g>
	</g>
	<g id="Adress_2_">
		<g>
			<path fill="#FFFFFF" d="M269.939,194.037H65.196c-0.478,0-0.865,0.387-0.865,0.862v7.265c0,0.478,0.388,0.864,0.865,0.864
				h204.742c0.477,0,0.864-0.387,0.864-0.864V194.9C270.803,194.424,270.415,194.037,269.939,194.037z"/>
		</g>
	</g>
	<g>
		<path fill="#ACACAC" d="M74.543,199.743v-1.801h-0.294v-0.289h0.294v-0.112c0-0.553,0.323-0.911,0.911-0.911
			c0.194,0,0.423,0.061,0.531,0.138l-0.108,0.29c-0.091-0.065-0.255-0.121-0.44-0.121c-0.401,0-0.519,0.28-0.519,0.613v0.104h1.214
			v2.09h-0.376v-1.801h-0.838v1.801h-0.375V199.743z"/>
		<path fill="#ACACAC" d="M76.765,196.677h0.38v3.066h-0.38V196.677z"/>
		<path fill="#ACACAC" d="M77.996,198.768c0.009,0.514,0.337,0.726,0.718,0.726c0.271,0,0.436-0.048,0.578-0.108l0.064,0.272
			c-0.134,0.06-0.362,0.129-0.695,0.129c-0.643,0-1.027-0.423-1.027-1.054c0-0.63,0.371-1.127,0.98-1.127
			c0.682,0,0.863,0.601,0.863,0.984c0,0.078-0.009,0.139-0.013,0.178L77.996,198.768L77.996,198.768z M79.11,198.495
			c0.005-0.242-0.099-0.617-0.526-0.617c-0.385,0-0.553,0.354-0.583,0.617H79.11z"/>
		<path fill="#ACACAC" d="M79.86,197.999c0-0.16,0.107-0.272,0.259-0.272s0.251,0.112,0.255,0.272c0,0.15-0.1,0.268-0.259,0.268
			C79.964,198.267,79.86,198.149,79.86,197.999z M79.86,199.523c0-0.159,0.107-0.271,0.259-0.271s0.251,0.112,0.255,0.271
			c0,0.151-0.1,0.269-0.259,0.269C79.964,199.791,79.86,199.674,79.86,199.523z"/>
		<path fill="#ACACAC" d="M80.526,199.916l1.204-3.131h0.294l-1.209,3.131H80.526z"/>
		<path fill="#ACACAC" d="M82.009,199.916l1.204-3.131h0.294l-1.209,3.131H82.009z"/>
		<path fill="#ACACAC" d="M83.492,199.916l1.204-3.131h0.294l-1.209,3.131H83.492z"/>
		<path fill="#ACACAC" d="M85.307,196.871c0.229-0.034,0.501-0.06,0.799-0.06c0.54,0,0.924,0.125,1.179,0.362
			c0.26,0.237,0.41,0.574,0.41,1.045c0,0.475-0.146,0.863-0.419,1.132c-0.271,0.271-0.721,0.419-1.286,0.419
			c-0.268,0-0.492-0.014-0.683-0.035C85.307,199.734,85.307,196.871,85.307,196.871z M85.683,199.445
			c0.095,0.018,0.233,0.021,0.38,0.021c0.803,0,1.239-0.449,1.239-1.235c0.004-0.687-0.385-1.122-1.179-1.122
			c-0.194,0-0.342,0.017-0.44,0.038C85.683,197.147,85.683,199.445,85.683,199.445z"/>
		<path fill="#ACACAC" d="M88.082,197.999c0-0.16,0.107-0.272,0.259-0.272s0.251,0.112,0.255,0.272c0,0.15-0.1,0.268-0.259,0.268
			C88.186,198.267,88.082,198.149,88.082,197.999z M88.082,199.523c0-0.159,0.107-0.271,0.259-0.271s0.251,0.112,0.255,0.271
			c0,0.151-0.1,0.269-0.259,0.269C88.186,199.791,88.082,199.674,88.082,199.523z"/>
		<path fill="#ACACAC" d="M88.749,199.916l1.204-3.131h0.294l-1.209,3.131H88.749z"/>
		<path fill="#ACACAC" d="M90.762,198.768c0.009,0.514,0.337,0.726,0.718,0.726c0.271,0,0.436-0.048,0.578-0.108l0.064,0.272
			c-0.134,0.06-0.362,0.129-0.695,0.129c-0.643,0-1.027-0.423-1.027-1.054c0-0.63,0.371-1.127,0.98-1.127
			c0.682,0,0.863,0.601,0.863,0.984c0,0.078-0.009,0.139-0.013,0.178L90.762,198.768L90.762,198.768z M91.876,198.495
			c0.005-0.242-0.099-0.617-0.526-0.617c-0.385,0-0.553,0.354-0.583,0.617H91.876z"/>
		<path fill="#ACACAC" d="M92.207,200.348c0.173-0.013,0.324-0.061,0.415-0.16c0.104-0.12,0.142-0.284,0.142-0.785v-1.749h0.381
			v1.896c0,0.406-0.065,0.669-0.251,0.859c-0.168,0.168-0.444,0.237-0.647,0.237L92.207,200.348z M93.187,197.065
			c0.004,0.126-0.087,0.233-0.237,0.233c-0.143,0-0.233-0.107-0.233-0.233c0-0.134,0.099-0.237,0.241-0.237
			C93.097,196.828,93.187,196.932,93.187,197.065z"/>
		<path fill="#ACACAC" d="M93.978,198.768c0.009,0.514,0.337,0.726,0.717,0.726c0.272,0,0.437-0.048,0.579-0.108l0.064,0.272
			c-0.134,0.06-0.362,0.129-0.695,0.129c-0.643,0-1.027-0.423-1.027-1.054c0-0.63,0.371-1.127,0.98-1.127
			c0.682,0,0.863,0.601,0.863,0.984c0,0.078-0.009,0.139-0.013,0.178L93.978,198.768L93.978,198.768z M95.092,198.495
			c0.005-0.242-0.099-0.617-0.526-0.617c-0.385,0-0.553,0.354-0.583,0.617H95.092z"/>
		<path fill="#ACACAC" d="M95.933,198.219c0-0.216-0.005-0.393-0.018-0.565h0.333l0.017,0.337h0.014
			c0.116-0.199,0.311-0.385,0.656-0.385c0.285,0,0.501,0.173,0.591,0.419h0.009c0.065-0.116,0.147-0.207,0.233-0.271
			c0.125-0.096,0.264-0.147,0.462-0.147c0.276,0,0.687,0.182,0.687,0.907v1.23h-0.371v-1.184c0-0.401-0.146-0.643-0.453-0.643
			c-0.216,0-0.385,0.159-0.449,0.345c-0.018,0.052-0.03,0.121-0.03,0.19v1.291h-0.371v-1.252c0-0.333-0.147-0.574-0.437-0.574
			c-0.237,0-0.41,0.189-0.471,0.38c-0.021,0.056-0.03,0.12-0.03,0.186v1.261h-0.371L95.933,198.219L95.933,198.219z"/>
		<path fill="#ACACAC" d="M99.538,198.335c0-0.268-0.009-0.483-0.018-0.682h0.341l0.018,0.358h0.009
			c0.155-0.255,0.401-0.406,0.743-0.406c0.505,0,0.885,0.428,0.885,1.063c0,0.751-0.458,1.123-0.95,1.123
			c-0.276,0-0.518-0.121-0.644-0.328h-0.009v1.136h-0.375C99.538,200.599,99.538,198.335,99.538,198.335z M99.913,198.893
			c0,0.056,0.009,0.107,0.018,0.155c0.069,0.264,0.298,0.445,0.57,0.445c0.401,0,0.635-0.329,0.635-0.808
			c0-0.419-0.221-0.777-0.622-0.777c-0.259,0-0.501,0.186-0.574,0.471c-0.013,0.047-0.026,0.104-0.026,0.155L99.913,198.893
			L99.913,198.893z"/>
		<path fill="#ACACAC" d="M101.998,196.677h0.38v3.066h-0.38V196.677z"/>
		<path fill="#ACACAC" d="M104.91,198.681c0,0.773-0.536,1.11-1.041,1.11c-0.565,0-1.002-0.415-1.002-1.075
			c0-0.7,0.458-1.11,1.036-1.11C104.504,197.606,104.91,198.042,104.91,198.681z M103.252,198.702c0,0.458,0.263,0.804,0.635,0.804
			c0.362,0,0.635-0.342,0.635-0.813c0-0.354-0.178-0.803-0.627-0.803C103.446,197.891,103.252,198.306,103.252,198.702z"/>
		<path fill="#ACACAC" d="M106.096,197.29h-0.009l-0.488,0.264l-0.073-0.289l0.613-0.328h0.323v2.807h-0.366V197.29z"/>
		<path fill="#ACACAC" d="M107.519,199.519c0-0.16,0.107-0.272,0.259-0.272s0.255,0.112,0.255,0.272c0,0.155-0.1,0.272-0.259,0.272
			C107.622,199.791,107.519,199.674,107.519,199.519z"/>
		<path fill="#ACACAC" d="M108.504,196.677h0.38v1.305h0.009c0.061-0.108,0.155-0.203,0.271-0.268
			c0.112-0.065,0.246-0.108,0.389-0.108c0.281,0,0.73,0.173,0.73,0.894v1.244h-0.381v-1.2c0-0.337-0.125-0.622-0.483-0.622
			c-0.246,0-0.44,0.173-0.51,0.38c-0.021,0.052-0.025,0.108-0.025,0.182v1.261h-0.38
			C108.504,199.745,108.504,196.677,108.504,196.677z"/>
		<path fill="#ACACAC" d="M110.903,198.219c0-0.216-0.005-0.393-0.018-0.565h0.333l0.017,0.337h0.014
			c0.116-0.199,0.311-0.385,0.656-0.385c0.285,0,0.501,0.173,0.591,0.419h0.009c0.065-0.116,0.147-0.207,0.233-0.271
			c0.125-0.096,0.264-0.147,0.462-0.147c0.276,0,0.687,0.182,0.687,0.907v1.23h-0.371v-1.184c0-0.401-0.146-0.643-0.453-0.643
			c-0.216,0-0.385,0.159-0.449,0.345c-0.018,0.052-0.03,0.121-0.03,0.19v1.291h-0.371v-1.252c0-0.333-0.147-0.574-0.437-0.574
			c-0.237,0-0.41,0.189-0.471,0.38c-0.021,0.056-0.03,0.12-0.03,0.186v1.261h-0.371L110.903,198.219L110.903,198.219z"/>
		<path fill="#ACACAC" d="M114.95,197.053v0.601h0.544v0.289h-0.544v1.127c0,0.26,0.073,0.406,0.284,0.406
			c0.1,0,0.173-0.013,0.221-0.026l0.018,0.285c-0.074,0.03-0.19,0.052-0.337,0.052c-0.178,0-0.32-0.056-0.41-0.159
			c-0.108-0.112-0.147-0.298-0.147-0.545v-1.14h-0.323v-0.289h0.323v-0.501L114.95,197.053z"/>
		<path fill="#ACACAC" d="M115.923,196.677h0.38v3.066h-0.38V196.677z"/>
	</g>
	<g id="Icon_2_">
		<g>
			<path fill="#02A916" d="M70.533,197.991v-1.103c0-0.809-0.648-1.47-1.446-1.47c-0.797,0-1.447,0.661-1.447,1.47v1.103
				c-0.297,0-0.541,0.249-0.541,0.551v2.205c0,0.305,0.244,0.551,0.541,0.551h2.894c0.299,0,0.543-0.246,0.543-0.551v-2.205
				C71.076,198.24,70.832,197.991,70.533,197.991z M68.003,196.889c0-0.607,0.486-1.103,1.084-1.103s1.085,0.495,1.085,1.103v1.103
				h-2.169V196.889z M70.715,200.747c0,0.102-0.082,0.185-0.182,0.185H67.64c-0.098,0-0.18-0.083-0.18-0.185v-2.205
				c0-0.101,0.082-0.183,0.18-0.183h2.894c0.1,0,0.182,0.082,0.182,0.183L70.715,200.747L70.715,200.747z M69.268,199.094
				c0-0.101-0.081-0.183-0.181-0.183c-0.101,0-0.181,0.082-0.181,0.183v0.42c-0.107,0.063-0.181,0.181-0.181,0.316
				c0,0.202,0.162,0.366,0.361,0.366s0.361-0.164,0.361-0.366c0-0.136-0.072-0.253-0.181-0.316v-0.42H69.268z"/>
		</g>
	</g>
	<g id="Ellipse_2_">
		<g>
			<circle fill="#FF5141" cx="14.231" cy="178.927" r="3.302"/>
		</g>
	</g>
	<g id="Ellipse_2_2_">
		<g>
			<circle fill="#F1BB3F" cx="26.337" cy="178.927" r="3.302"/>
		</g>
	</g>
	<g id="Ellipse_3_2_">
		<g>
			<circle fill="#70CB43" cx="38.441" cy="178.927" r="3.302"/>
		</g>
	</g>
	<rect x="4.327" y="208.503" fill="#F7F7F7" width="287.227" height="93.246"/>
	<g>
		<path d="M19.758,225.291l0.58,8.185v3.429h-2.353v-3.429l0.549-8.185H19.758z M20.253,221.44v2.162h-2.184v-2.162H20.253z"/>
		<path d="M26.951,225.291l0.58,8.185v3.429h-2.353v-3.429l0.549-8.185H26.951z M27.446,221.44v2.162h-2.184v-2.162H27.446z"/>
		<path d="M31.349,232.643v-15.464h1.898v5.549c0.887-1.026,2.005-1.54,3.354-1.54c0.83,0,1.551,0.163,2.162,0.49
			c0.612,0.327,1.05,0.779,1.313,1.355c0.264,0.577,0.396,1.413,0.396,2.511v7.099h-1.898v-7.099c0-0.949-0.206-1.641-0.617-2.073
			s-0.993-0.648-1.745-0.648c-0.563,0-1.092,0.146-1.588,0.438c-0.496,0.292-0.85,0.688-1.061,1.187
			c-0.211,0.5-0.316,1.188-0.316,2.067v6.129h-1.898V232.643z"/>
		<path d="M42.656,227.042c0-2.075,0.577-3.611,1.73-4.61c0.963-0.829,2.138-1.244,3.523-1.244c1.54,0,2.798,0.505,3.775,1.514
			s1.467,2.403,1.467,4.183c0,1.441-0.217,2.575-0.649,3.401s-1.062,1.468-1.888,1.925s-1.729,0.686-2.705,0.686
			c-1.568,0-2.836-0.503-3.803-1.508C43.14,230.382,42.656,228.934,42.656,227.042z M44.608,227.042
			c0,1.434,0.313,2.509,0.938,3.222c0.626,0.714,1.413,1.071,2.363,1.071c0.941,0,1.726-0.359,2.352-1.076
			c0.626-0.718,0.939-1.811,0.939-3.28c0-1.386-0.315-2.436-0.944-3.148c-0.63-0.714-1.412-1.071-2.347-1.071
			c-0.95,0-1.737,0.355-2.363,1.065C44.921,224.535,44.608,225.607,44.608,227.042z"/>
		<path d="M55.336,232.643v-15.464h1.898v15.464H55.336z"/>
		<path d="M67.487,231.261c-0.703,0.598-1.38,1.02-2.03,1.266s-1.349,0.369-2.094,0.369c-1.23,0-2.177-0.301-2.837-0.901
			c-0.661-0.602-0.992-1.37-0.992-2.305c0-0.549,0.125-1.05,0.375-1.504c0.249-0.453,0.576-0.817,0.98-1.091s0.86-0.482,1.366-0.623
			c0.373-0.098,0.936-0.193,1.688-0.284c1.533-0.184,2.662-0.401,3.386-0.654c0.008-0.26,0.011-0.426,0.011-0.496
			c0-0.773-0.179-1.318-0.538-1.635c-0.484-0.429-1.206-0.644-2.162-0.644c-0.893,0-1.553,0.157-1.978,0.47
			c-0.426,0.313-0.74,0.866-0.944,1.661l-1.856-0.253c0.169-0.795,0.446-1.437,0.833-1.925c0.387-0.489,0.946-0.865,1.678-1.129
			s1.578-0.396,2.542-0.396c0.956,0,1.733,0.112,2.331,0.337c0.598,0.226,1.037,0.509,1.318,0.85s0.479,0.771,0.591,1.292
			c0.063,0.323,0.095,0.907,0.095,1.751v2.531c0,1.766,0.041,2.882,0.121,3.35c0.081,0.468,0.241,0.916,0.48,1.345h-1.983
			C67.671,232.249,67.544,231.788,67.487,231.261z M67.329,227.021c-0.688,0.281-1.723,0.521-3.101,0.717
			c-0.78,0.113-1.333,0.239-1.656,0.38s-0.573,0.347-0.749,0.617s-0.264,0.571-0.264,0.902c0,0.506,0.191,0.928,0.575,1.266
			c0.383,0.337,0.944,0.506,1.683,0.506c0.73,0,1.382-0.159,1.951-0.479s0.987-0.758,1.255-1.313
			c0.204-0.429,0.306-1.062,0.306-1.898V227.021z"/>
		<path d="M78.194,232.643V221.44h1.698v1.571c0.352-0.548,0.819-0.989,1.403-1.323c0.583-0.334,1.248-0.501,1.993-0.501
			c0.83,0,1.51,0.172,2.041,0.517s0.905,0.826,1.124,1.445c0.886-1.308,2.039-1.962,3.459-1.962c1.111,0,1.966,0.308,2.563,0.923
			s0.896,1.563,0.896,2.843v7.689h-1.888v-7.057c0-0.76-0.062-1.307-0.185-1.641s-0.347-0.603-0.67-0.807s-0.703-0.306-1.14-0.306
			c-0.787,0-1.441,0.262-1.962,0.786c-0.521,0.523-0.78,1.362-0.78,2.516v6.508h-1.898v-7.278c0-0.844-0.155-1.477-0.464-1.898
			c-0.31-0.422-0.816-0.633-1.52-0.633c-0.534,0-1.028,0.141-1.481,0.422c-0.454,0.281-0.783,0.692-0.986,1.234
			c-0.204,0.541-0.307,1.321-0.307,2.342v5.812h-1.896V232.643z"/>
		<path d="M103.531,232.643v-1.646c-0.872,1.266-2.057,1.898-3.555,1.898c-0.661,0-1.278-0.126-1.852-0.38
			c-0.573-0.253-0.998-0.571-1.276-0.954c-0.277-0.384-0.473-0.853-0.585-1.408c-0.078-0.373-0.116-0.964-0.116-1.772v-6.94h1.898
			v6.213c0,0.991,0.039,1.66,0.116,2.004c0.119,0.5,0.373,0.892,0.76,1.177c0.387,0.284,0.864,0.427,1.435,0.427
			c0.569,0,1.104-0.146,1.603-0.438c0.5-0.292,0.854-0.689,1.061-1.192s0.312-1.232,0.312-2.188v-6.002h1.898v11.202
			L103.531,232.643L103.531,232.643z"/>
		<path d="M108.204,232.643V221.44h1.709v1.593c0.822-1.23,2.011-1.846,3.565-1.846c0.675,0,1.296,0.121,1.861,0.363
			c0.566,0.243,0.99,0.562,1.271,0.955s0.478,0.861,0.591,1.403c0.07,0.352,0.105,0.967,0.105,1.846v6.888h-1.899v-6.814
			c0-0.773-0.073-1.352-0.221-1.734c-0.148-0.384-0.41-0.689-0.786-0.918s-0.817-0.343-1.324-0.343c-0.809,0-1.507,0.257-2.094,0.77
			c-0.587,0.514-0.881,1.487-0.881,2.922v6.118L108.204,232.643L108.204,232.643z"/>
		<path d="M127.486,232.643v-1.413c-0.71,1.11-1.754,1.666-3.133,1.666c-0.893,0-1.714-0.246-2.463-0.738s-1.329-1.18-1.74-2.063
			c-0.411-0.882-0.617-1.896-0.617-3.043c0-1.118,0.187-2.132,0.56-3.043c0.372-0.91,0.932-1.608,1.677-2.094s1.578-0.728,2.5-0.728
			c0.675,0,1.276,0.143,1.804,0.427c0.527,0.285,0.956,0.656,1.287,1.113v-5.549h1.888v15.464L127.486,232.643L127.486,232.643z
			 M121.484,227.052c0,1.435,0.303,2.507,0.907,3.218c0.604,0.71,1.318,1.065,2.142,1.065c0.829,0,1.534-0.34,2.115-1.019
			c0.58-0.679,0.87-1.714,0.87-3.106c0-1.532-0.296-2.658-0.887-3.375c-0.591-0.718-1.318-1.076-2.184-1.076
			c-0.844,0-1.549,0.345-2.114,1.034C121.768,224.482,121.484,225.568,121.484,227.052z"/>
		<path d="M131.526,227.042c0-2.075,0.577-3.611,1.73-4.61c0.963-0.829,2.138-1.244,3.523-1.244c1.54,0,2.798,0.505,3.775,1.514
			s1.467,2.403,1.467,4.183c0,1.441-0.217,2.575-0.649,3.401s-1.062,1.468-1.888,1.925s-1.729,0.686-2.705,0.686
			c-1.568,0-2.836-0.503-3.803-1.508C132.01,230.382,131.526,228.934,131.526,227.042z M133.479,227.042
			c0,1.434,0.313,2.509,0.938,3.222c0.626,0.714,1.413,1.071,2.363,1.071c0.941,0,1.726-0.359,2.352-1.076
			c0.626-0.718,0.939-1.811,0.939-3.28c0-1.386-0.315-2.436-0.944-3.148c-0.63-0.714-1.412-1.071-2.347-1.071
			c-0.95,0-1.737,0.355-2.363,1.065C133.791,224.535,133.479,225.607,133.479,227.042z"/>
		<path d="M145.261,228.803l-0.58-8.195v-3.429h2.353v3.429l-0.549,8.195L145.261,228.803L145.261,228.803z M144.765,232.643v-2.162
			h2.184v2.162H144.765z"/>
		<path d="M151.263,228.803l-0.58-8.195v-3.429h2.353v3.429l-0.549,8.195L151.263,228.803L151.263,228.803z M150.767,232.643v-2.162
			h2.184v2.162H150.767z"/>
	</g>
</g>
</svg>
