<!-- Generator: Adobe Illustrator 17.0.0, SVG Export Plug-In  -->
<svg version="1.1"
	 xmlns="http://www.w3.org/2000/svg" xmlns:xlink="http://www.w3.org/1999/xlink" xmlns:a="http://ns.adobe.com/AdobeSVGViewerExtensions/3.0/"
	 x="0px" y="0px" width="383.666px" height="23.651px" viewBox="0 0 383.666 23.651"
	 style="enable-background:new 0 0 383.666 23.651;" xml:space="preserve">
<style type="text/css">
	.st0{fill:#F16529;}
</style>
<defs>
</defs>
<g>
	<path class="st0" d="M1.639,6.754v6.767h6.969v1.562H1.639v8.315H0V5.192h10.246v1.562H1.639z"/>
	<path class="st0" d="M19.678,19.157h-5.764l-1.193,4.24H11.02l5.332-18.205h0.863l5.357,18.205h-1.688L19.678,19.157z
		 M14.359,17.596h4.887l-2.398-8.392l-0.051-0.673l-0.051,0.673L14.359,17.596z"/>
	<path class="st0" d="M34.887,19.183c0,0.618-0.125,1.198-0.374,1.739s-0.584,1.016-1.003,1.422s-0.906,0.726-1.46,0.959
		c-0.554,0.232-1.141,0.349-1.759,0.349h-1.307c-0.618,0-1.205-0.116-1.759-0.349c-0.554-0.233-1.041-0.553-1.46-0.959
		s-0.754-0.881-1.003-1.422s-0.374-1.121-0.374-1.739v-0.724l1.637-0.267v0.99c0,0.406,0.083,0.785,0.248,1.136
		c0.165,0.352,0.387,0.66,0.666,0.928c0.279,0.266,0.604,0.476,0.972,0.628s0.755,0.229,1.161,0.229h1.143
		c0.406,0,0.792-0.076,1.156-0.229c0.363-0.152,0.686-0.362,0.965-0.628c0.279-0.268,0.501-0.576,0.666-0.928
		c0.165-0.351,0.248-0.729,0.248-1.136v-0.546c0-0.627-0.123-1.146-0.369-1.562c-0.245-0.415-0.57-0.769-0.977-1.06
		c-0.406-0.293-0.865-0.54-1.378-0.743s-1.039-0.406-1.581-0.609c-0.541-0.203-1.068-0.427-1.58-0.673s-0.971-0.553-1.377-0.92
		c-0.406-0.369-0.732-0.819-0.979-1.353c-0.245-0.533-0.367-1.188-0.367-1.968V9.407c0-0.618,0.115-1.198,0.349-1.739
		s0.552-1.016,0.958-1.422s0.883-0.726,1.429-0.959c0.546-0.232,1.128-0.349,1.745-0.349h1.168c0.618,0,1.198,0.116,1.74,0.349
		c0.541,0.233,1.016,0.553,1.422,0.959s0.725,0.881,0.958,1.422s0.349,1.121,0.349,1.739v0.47l-1.637,0.267V9.407
		c0-0.406-0.076-0.785-0.229-1.136c-0.152-0.352-0.36-0.658-0.623-0.921c-0.262-0.263-0.568-0.47-0.92-0.622S30.621,6.5,30.215,6.5
		h-1.016c-0.406,0-0.785,0.076-1.136,0.229s-0.66,0.359-0.927,0.622S26.66,7.92,26.508,8.271c-0.152,0.351-0.229,0.729-0.229,1.136
		V9.75c0,0.584,0.123,1.074,0.369,1.473c0.245,0.398,0.57,0.738,0.977,1.021c0.406,0.284,0.865,0.529,1.378,0.736
		c0.513,0.208,1.039,0.42,1.581,0.635c0.541,0.217,1.068,0.453,1.58,0.711c0.512,0.259,0.971,0.576,1.377,0.953
		c0.406,0.376,0.732,0.836,0.979,1.377c0.245,0.541,0.367,1.201,0.367,1.98V19.183z"/>
	<path class="st0" d="M38.404,23.397V5.192h10.244v1.562h-8.607v6.767h6.971v1.562h-6.971v6.754h8.607v1.562H38.404z"/>
	<path class="st0" d="M61.75,19.183c0,0.618-0.125,1.198-0.374,1.739s-0.584,1.016-1.003,1.422s-0.906,0.726-1.46,0.959
		c-0.554,0.232-1.141,0.349-1.759,0.349h-1.307c-0.618,0-1.205-0.116-1.759-0.349c-0.554-0.233-1.041-0.553-1.46-0.959
		s-0.754-0.881-1.003-1.422s-0.374-1.121-0.374-1.739v-0.724l1.637-0.267v0.99c0,0.406,0.083,0.785,0.248,1.136
		c0.165,0.352,0.387,0.66,0.666,0.928c0.279,0.266,0.604,0.476,0.972,0.628s0.755,0.229,1.161,0.229h1.143
		c0.406,0,0.792-0.076,1.156-0.229c0.363-0.152,0.686-0.362,0.965-0.628c0.279-0.268,0.501-0.576,0.666-0.928
		c0.165-0.351,0.248-0.729,0.248-1.136v-0.546c0-0.627-0.123-1.146-0.369-1.562c-0.245-0.415-0.57-0.769-0.977-1.06
		c-0.406-0.293-0.865-0.54-1.378-0.743s-1.039-0.406-1.581-0.609c-0.541-0.203-1.068-0.427-1.58-0.673s-0.971-0.553-1.377-0.92
		c-0.406-0.369-0.732-0.819-0.979-1.353c-0.245-0.533-0.367-1.188-0.367-1.968V9.407c0-0.618,0.115-1.198,0.349-1.739
		s0.552-1.016,0.958-1.422s0.883-0.726,1.429-0.959c0.546-0.232,1.128-0.349,1.745-0.349h1.168c0.618,0,1.198,0.116,1.74,0.349
		c0.541,0.233,1.016,0.553,1.422,0.959s0.725,0.881,0.958,1.422s0.349,1.121,0.349,1.739v0.47l-1.637,0.267V9.407
		c0-0.406-0.076-0.785-0.229-1.136c-0.152-0.352-0.36-0.658-0.623-0.921c-0.262-0.263-0.568-0.47-0.92-0.622S57.484,6.5,57.078,6.5
		h-1.016c-0.406,0-0.785,0.076-1.136,0.229S54.267,7.088,54,7.351s-0.477,0.569-0.629,0.921c-0.152,0.351-0.229,0.729-0.229,1.136
		V9.75c0,0.584,0.123,1.074,0.369,1.473c0.245,0.398,0.57,0.738,0.977,1.021c0.406,0.284,0.865,0.529,1.378,0.736
		c0.513,0.208,1.039,0.42,1.581,0.635c0.541,0.217,1.068,0.453,1.58,0.711c0.512,0.259,0.971,0.576,1.377,0.953
		c0.406,0.376,0.732,0.836,0.979,1.377c0.245,0.541,0.367,1.201,0.367,1.98V19.183z"/>
	<path class="st0" d="M71.246,23.397V5.192h10.246v1.562h-8.607v6.767h6.969v1.562h-6.969v6.754h8.607v1.562H71.246z"/>
	<path class="st0" d="M93.996,23.397l-7.592-13.254l-0.152-0.787v14.041h-1.637V5.192h0.85l7.592,13.267l0.166,0.774V5.192h1.637
		v18.205H93.996z"/>
	<path class="st0" d="M105.004,23.397V5.192h10.244v1.562h-8.607v6.767h6.971v1.562h-6.971v6.754h8.607v1.562H105.004z"/>
	<path class="st0" d="M118.105,23.397V5.192h1.637v16.644h6.971v1.562H118.105z"/>
	<path class="st0" d="M145.19,20.668c-0.233,0.541-0.552,1.016-0.958,1.422s-0.883,0.726-1.429,0.959
		c-0.546,0.232-1.128,0.349-1.745,0.349h-5.764V5.192h5.764c0.617,0,1.199,0.116,1.745,0.349c0.546,0.233,1.022,0.553,1.429,0.959
		s0.725,0.883,0.958,1.428c0.233,0.547,0.349,1.129,0.349,1.746v9.255C145.539,19.547,145.424,20.127,145.19,20.668z M143.902,9.674
		c0-0.406-0.076-0.785-0.229-1.137c-0.152-0.351-0.362-0.66-0.629-0.926c-0.267-0.268-0.576-0.477-0.927-0.629
		s-0.729-0.229-1.136-0.229h-4.051v15.082h4.051c0.406,0,0.785-0.076,1.136-0.229s0.66-0.359,0.927-0.622s0.477-0.569,0.629-0.921
		c0.152-0.351,0.229-0.729,0.229-1.136V9.674z"/>
	<path class="st0" d="M149.438,23.397V5.192h1.637v18.205H149.438z"/>
	<path class="st0" d="M165.217,19.183c0,0.618-0.125,1.198-0.374,1.739s-0.584,1.016-1.003,1.422s-0.906,0.726-1.46,0.959
		c-0.554,0.232-1.141,0.349-1.759,0.349h-1.307c-0.618,0-1.205-0.116-1.759-0.349c-0.554-0.233-1.041-0.553-1.46-0.959
		s-0.754-0.881-1.003-1.422s-0.374-1.121-0.374-1.739v-0.724l1.637-0.267v0.99c0,0.406,0.083,0.785,0.248,1.136
		c0.165,0.352,0.387,0.66,0.666,0.928c0.279,0.266,0.604,0.476,0.972,0.628s0.755,0.229,1.161,0.229h1.143
		c0.406,0,0.792-0.076,1.156-0.229c0.363-0.152,0.686-0.362,0.965-0.628c0.279-0.268,0.501-0.576,0.666-0.928
		c0.165-0.351,0.248-0.729,0.248-1.136v-0.546c0-0.627-0.123-1.146-0.369-1.562c-0.245-0.415-0.57-0.769-0.977-1.06
		c-0.406-0.293-0.865-0.54-1.378-0.743s-1.039-0.406-1.581-0.609c-0.541-0.203-1.068-0.427-1.58-0.673s-0.971-0.553-1.377-0.92
		c-0.406-0.369-0.732-0.819-0.979-1.353c-0.245-0.533-0.367-1.188-0.367-1.968V9.407c0-0.618,0.115-1.198,0.349-1.739
		s0.552-1.016,0.958-1.422s0.883-0.726,1.429-0.959c0.546-0.232,1.128-0.349,1.745-0.349h1.168c0.618,0,1.198,0.116,1.74,0.349
		c0.541,0.233,1.016,0.553,1.422,0.959s0.725,0.881,0.958,1.422s0.349,1.121,0.349,1.739v0.47l-1.637,0.267V9.407
		c0-0.406-0.076-0.785-0.229-1.136c-0.152-0.352-0.36-0.658-0.623-0.921c-0.262-0.263-0.568-0.47-0.92-0.622
		s-0.73-0.229-1.137-0.229h-1.016c-0.406,0-0.785,0.076-1.136,0.229s-0.66,0.359-0.927,0.622s-0.477,0.569-0.629,0.921
		c-0.152,0.351-0.229,0.729-0.229,1.136V9.75c0,0.584,0.123,1.074,0.369,1.473c0.245,0.398,0.57,0.738,0.977,1.021
		c0.406,0.284,0.865,0.529,1.378,0.736c0.513,0.208,1.039,0.42,1.581,0.635c0.541,0.217,1.068,0.453,1.58,0.711
		c0.512,0.259,0.971,0.576,1.377,0.953c0.406,0.376,0.732,0.836,0.979,1.377c0.245,0.541,0.367,1.201,0.367,1.98V19.183z"/>
	<path class="st0" d="M168.734,23.397V5.192h10.244v1.562h-8.607v6.767h6.971v1.562h-6.971v6.754h8.607v1.562H168.734z"/>
	<path class="st0" d="M191.484,23.397l-7.592-13.254l-0.152-0.787v14.041h-1.639V5.192h0.852l7.592,13.267l0.164,0.774V5.192h1.639
		v18.205H191.484z M188.932,1.447c0.355,0,0.627-0.133,0.813-0.4c0.187-0.266,0.279-0.615,0.279-1.047h1.207
		c0,0.381-0.049,0.736-0.146,1.066s-0.243,0.617-0.438,0.863c-0.195,0.246-0.438,0.439-0.73,0.584s-0.629,0.216-1.01,0.216
		c-0.406,0-0.764-0.076-1.072-0.229S187.237,2.182,186.971,2c-0.267-0.183-0.521-0.35-0.762-0.502s-0.493-0.229-0.756-0.229
		c-0.355,0-0.621,0.133-0.799,0.4c-0.178,0.266-0.268,0.611-0.268,1.034h-1.193c0-0.381,0.047-0.734,0.141-1.06
		c0.093-0.326,0.234-0.611,0.425-0.857s0.432-0.438,0.724-0.578C184.774,0.07,185.115,0,185.504,0c0.381,0,0.718,0.076,1.01,0.229
		s0.566,0.317,0.825,0.495s0.515,0.343,0.769,0.495S188.636,1.447,188.932,1.447z"/>
	<path class="st0" d="M206.141,20.922c-0.232,0.541-0.553,1.016-0.959,1.422s-0.88,0.726-1.422,0.959
		c-0.541,0.232-1.121,0.349-1.738,0.349h-1.295c-0.618,0-1.2-0.116-1.746-0.349c-0.546-0.233-1.021-0.553-1.428-0.959
		s-0.727-0.881-0.959-1.422s-0.35-1.121-0.35-1.739V9.407c0-0.618,0.117-1.198,0.35-1.739s0.553-1.016,0.959-1.422
		s0.882-0.726,1.428-0.959c0.546-0.232,1.128-0.349,1.746-0.349h1.295c0.617,0,1.197,0.116,1.738,0.349
		c0.542,0.233,1.016,0.553,1.422,0.959s0.727,0.881,0.959,1.422s0.35,1.121,0.35,1.739v9.775
		C206.49,19.801,206.373,20.381,206.141,20.922z M204.852,9.407c0-0.406-0.076-0.785-0.229-1.136
		c-0.152-0.352-0.359-0.658-0.621-0.921c-0.263-0.263-0.57-0.47-0.921-0.622S202.352,6.5,201.945,6.5h-1.143
		c-0.406,0-0.785,0.076-1.137,0.229s-0.66,0.359-0.927,0.622s-0.476,0.569-0.628,0.921c-0.152,0.351-0.229,0.729-0.229,1.136v9.775
		c0,0.406,0.076,0.785,0.229,1.136c0.152,0.352,0.361,0.66,0.628,0.928c0.267,0.266,0.575,0.476,0.927,0.628s0.73,0.229,1.137,0.229
		h1.143c0.406,0,0.785-0.076,1.136-0.229s0.658-0.362,0.921-0.628c0.262-0.268,0.469-0.576,0.621-0.928
		c0.152-0.351,0.229-0.729,0.229-1.136V9.407z"/>
	<path class="st0" d="M226.275,20.668c-0.232,0.541-0.553,1.016-0.959,1.422s-0.882,0.726-1.428,0.959
		c-0.546,0.232-1.128,0.349-1.746,0.349h-5.764V5.192h5.764c0.618,0,1.2,0.116,1.746,0.349c0.546,0.233,1.021,0.553,1.428,0.959
		s0.727,0.883,0.959,1.428c0.232,0.547,0.35,1.129,0.35,1.746v9.255C226.625,19.547,226.508,20.127,226.275,20.668z M224.986,9.674
		c0-0.406-0.076-0.785-0.229-1.137c-0.152-0.351-0.361-0.66-0.628-0.926c-0.267-0.268-0.575-0.477-0.927-0.629
		s-0.73-0.229-1.137-0.229h-4.049v15.082h4.049c0.406,0,0.785-0.076,1.137-0.229s0.66-0.359,0.927-0.622s0.476-0.569,0.628-0.921
		c0.152-0.351,0.229-0.729,0.229-1.136V9.674z"/>
	<path class="st0" d="M230.521,23.397V5.192h10.246v1.562h-8.607v6.767h6.969v1.562h-6.969v6.754h8.607v1.562H230.521z"/>
	<path class="st0" d="M259.499,20.922c-0.233,0.541-0.552,1.016-0.958,1.422s-0.881,0.726-1.422,0.959
		c-0.542,0.232-1.122,0.349-1.74,0.349h-1.295c-0.617,0-1.199-0.116-1.745-0.349c-0.546-0.233-1.022-0.553-1.429-0.959
		s-0.725-0.881-0.958-1.422s-0.349-1.121-0.349-1.739V5.192h1.637v13.99c0,0.406,0.076,0.785,0.229,1.136
		c0.152,0.352,0.362,0.66,0.629,0.928c0.267,0.266,0.576,0.476,0.927,0.628s0.729,0.229,1.136,0.229h1.143
		c0.406,0,0.785-0.076,1.137-0.229s0.658-0.362,0.92-0.628c0.263-0.268,0.471-0.576,0.623-0.928
		c0.152-0.351,0.229-0.729,0.229-1.136V5.192h1.637v13.99C259.848,19.801,259.732,20.381,259.499,20.922z"/>
	<path class="st0" d="M273.141,23.397l-7.592-13.254l-0.152-0.787v14.041h-1.639V5.192h0.852l7.592,13.267l0.164,0.774V5.192h1.639
		v18.205H273.141z"/>
	<path class="st0" d="M294.125,19.183c0,0.618-0.125,1.198-0.374,1.739s-0.584,1.016-1.003,1.422s-0.906,0.726-1.46,0.959
		c-0.554,0.232-1.141,0.349-1.759,0.349h-1.307c-0.618,0-1.205-0.116-1.759-0.349c-0.554-0.233-1.041-0.553-1.46-0.959
		s-0.754-0.881-1.003-1.422s-0.374-1.121-0.374-1.739v-0.724l1.637-0.267v0.99c0,0.406,0.083,0.785,0.248,1.136
		c0.165,0.352,0.387,0.66,0.666,0.928c0.279,0.266,0.604,0.476,0.972,0.628s0.755,0.229,1.161,0.229h1.143
		c0.406,0,0.792-0.076,1.156-0.229c0.363-0.152,0.686-0.362,0.965-0.628c0.279-0.268,0.501-0.576,0.666-0.928
		c0.165-0.351,0.248-0.729,0.248-1.136v-0.546c0-0.627-0.123-1.146-0.369-1.562c-0.245-0.415-0.57-0.769-0.977-1.06
		c-0.406-0.293-0.865-0.54-1.378-0.743s-1.039-0.406-1.581-0.609c-0.541-0.203-1.068-0.427-1.58-0.673s-0.971-0.553-1.377-0.92
		c-0.406-0.369-0.732-0.819-0.979-1.353c-0.245-0.533-0.367-1.188-0.367-1.968V9.407c0-0.618,0.115-1.198,0.349-1.739
		s0.552-1.016,0.958-1.422s0.883-0.726,1.429-0.959c0.546-0.232,1.128-0.349,1.745-0.349h1.168c0.618,0,1.198,0.116,1.74,0.349
		c0.541,0.233,1.016,0.553,1.422,0.959s0.725,0.881,0.958,1.422s0.349,1.121,0.349,1.739v0.47l-1.637,0.267V9.407
		c0-0.406-0.076-0.785-0.229-1.136c-0.152-0.352-0.36-0.658-0.623-0.921c-0.262-0.263-0.568-0.47-0.92-0.622
		s-0.73-0.229-1.137-0.229h-1.016c-0.406,0-0.785,0.076-1.136,0.229s-0.66,0.359-0.927,0.622s-0.477,0.569-0.629,0.921
		c-0.152,0.351-0.229,0.729-0.229,1.136V9.75c0,0.584,0.123,1.074,0.369,1.473c0.245,0.398,0.57,0.738,0.977,1.021
		c0.406,0.284,0.865,0.529,1.378,0.736c0.513,0.208,1.039,0.42,1.581,0.635c0.541,0.217,1.068,0.453,1.58,0.711
		c0.512,0.259,0.971,0.576,1.377,0.953c0.406,0.376,0.732,0.836,0.979,1.377c0.245,0.541,0.367,1.201,0.367,1.98V19.183z"/>
	<path class="st0" d="M297.643,23.397V5.192h1.637v18.205H297.643z"/>
	<path class="st0" d="M307.861,6.754v16.644h-1.637V6.754h-4.342V5.192h10.32v1.562H307.861z"/>
	<path class="st0" d="M314.807,23.397V5.192h1.637v18.205H314.807z"/>
	<path class="st0" d="M330.236,20.922c-0.232,0.541-0.551,1.016-0.957,1.422s-0.881,0.726-1.422,0.959
		c-0.543,0.232-1.121,0.349-1.74,0.349h-1.295c-0.617,0-1.199-0.116-1.745-0.349c-0.546-0.233-1.022-0.553-1.429-0.959
		s-0.725-0.881-0.958-1.422s-0.349-1.121-0.349-1.739V9.407c0-0.618,0.115-1.198,0.349-1.739s0.552-1.016,0.958-1.422
		s0.883-0.726,1.429-0.959c0.546-0.232,1.128-0.349,1.745-0.349h1.295c0.619,0,1.197,0.116,1.74,0.349
		c0.541,0.233,1.016,0.553,1.422,0.959s0.725,0.881,0.957,1.422c0.234,0.541,0.35,1.121,0.35,1.739v9.775
		C330.586,19.801,330.471,20.381,330.236,20.922z M328.949,9.407c0-0.406-0.076-0.785-0.229-1.136
		c-0.152-0.352-0.359-0.658-0.623-0.921c-0.262-0.263-0.568-0.47-0.92-0.622s-0.73-0.229-1.137-0.229h-1.143
		c-0.406,0-0.785,0.076-1.136,0.229s-0.66,0.359-0.927,0.622s-0.477,0.569-0.629,0.921c-0.152,0.351-0.229,0.729-0.229,1.136v9.775
		c0,0.406,0.076,0.785,0.229,1.136c0.152,0.352,0.362,0.66,0.629,0.928c0.267,0.266,0.576,0.476,0.927,0.628
		s0.729,0.229,1.136,0.229h1.143c0.406,0,0.785-0.076,1.137-0.229s0.658-0.362,0.92-0.628c0.264-0.268,0.471-0.576,0.623-0.928
		c0.152-0.351,0.229-0.729,0.229-1.136V9.407z"/>
	<path class="st0" d="M352.639,23.397h-0.852l-3.541-13.698l-0.051-0.711l-0.076,0.711l-3.518,13.698h-0.85l-4.838-18.205h1.639
		l3.566,13.838l0.051,0.673l0.051-0.673l3.504-13.838h0.914l3.504,13.838l0.051,0.673l0.064-0.673l3.555-13.838h1.637
		L352.639,23.397z"/>
	<path class="st0" d="M360.053,23.397V5.192h10.244v1.562h-8.607v6.767h6.971v1.562h-6.971v6.754h8.607v1.562H360.053z"/>
	<path class="st0" d="M383.316,20.668c-0.232,0.541-0.553,1.016-0.959,1.422s-0.883,0.726-1.428,0.959
		c-0.547,0.232-1.127,0.349-1.746,0.349h-5.764V5.192h5.764c0.619,0,1.199,0.116,1.746,0.349c0.545,0.233,1.021,0.553,1.428,0.959
		s0.727,0.883,0.959,1.428c0.232,0.547,0.35,1.129,0.35,1.746v0.178c0,0.432-0.059,0.844-0.172,1.238
		c-0.115,0.393-0.277,0.76-0.488,1.098c-0.213,0.338-0.461,0.646-0.75,0.92c-0.287,0.275-0.609,0.506-0.965,0.692
		c0.355,0.187,0.678,0.417,0.965,0.692c0.289,0.274,0.537,0.584,0.75,0.926c0.211,0.344,0.373,0.711,0.488,1.105
		c0.113,0.393,0.172,0.806,0.172,1.237v1.168C383.666,19.547,383.549,20.127,383.316,20.668z M382.027,9.674
		c0-0.406-0.076-0.785-0.229-1.137c-0.152-0.351-0.361-0.66-0.629-0.926c-0.266-0.268-0.574-0.477-0.926-0.629
		s-0.73-0.229-1.137-0.229h-4.049v6.271h4.049c0.406,0,0.785-0.076,1.137-0.229s0.66-0.361,0.926-0.629
		c0.268-0.266,0.477-0.575,0.629-0.926c0.152-0.352,0.229-0.73,0.229-1.137V9.674z M382.027,17.494c0-0.406-0.076-0.785-0.229-1.137
		c-0.152-0.351-0.361-0.658-0.629-0.92c-0.266-0.262-0.574-0.47-0.926-0.622s-0.73-0.229-1.137-0.229h-4.049v7.249h4.049
		c0.406,0,0.785-0.076,1.137-0.229s0.66-0.359,0.926-0.622c0.268-0.263,0.477-0.569,0.629-0.921
		c0.152-0.351,0.229-0.729,0.229-1.136V17.494z"/>
</g>
</svg>