<!-- Generator: Adobe Illustrator 17.0.0, SVG Export Plug-In  -->
<svg version="1.1"
	 xmlns="http://www.w3.org/2000/svg" xmlns:xlink="http://www.w3.org/1999/xlink" xmlns:a="http://ns.adobe.com/AdobeSVGViewerExtensions/3.0/"
	 x="0px" y="0px" width="463.374px" height="36.216px" viewBox="0 0 463.374 36.216"
	 style="enable-background:new 0 0 463.374 36.216;" xml:space="preserve">
<style type="text/css">
	.st0{fill:url(#SVGID_1_);}
	.st1{fill:#F1F1F1;}
	.st2{fill:url(#SVGID_2_);}
</style>
<defs>
</defs>
<linearGradient id="SVGID_1_" gradientUnits="userSpaceOnUse" x1="0" y1="18.1079" x2="463.374" y2="18.1079">
	<stop  offset="0" style="stop-color:#783214"/>
	<stop  offset="0.5" style="stop-color:#F16529"/>
	<stop  offset="1" style="stop-color:#783214"/>
</linearGradient>
<polygon class="st0" points="0,36.216 7.814,0 463.374,0 440.756,35.954 "/>
<g>
	<path class="st1" d="M85.663,27.977V10.472h1.575v16.003h6.701v1.501H85.663z"/>
	<path class="st1" d="M96.441,27.977V10.472h9.852v1.501h-8.276v6.506h6.702v1.501h-6.702v6.494h8.276v1.501H96.441z"/>
	<path class="st1" d="M118.316,27.977l-7.299-12.744l-0.146-0.757v13.501h-1.575V10.472h0.817l7.301,12.756l0.158,0.745V10.472
		h1.574v17.505H118.316z"/>
	<path class="st1" d="M132.746,27.977h-0.501l-0.915-1.404c-0.383,0.505-0.848,0.905-1.393,1.203
		c-0.545,0.297-1.151,0.445-1.818,0.445h-0.916c-0.594,0-1.152-0.112-1.678-0.336c-0.525-0.224-0.982-0.531-1.373-0.921
		s-0.698-0.846-0.922-1.367c-0.225-0.521-0.336-1.078-0.336-1.672v-9.399c0-0.594,0.111-1.151,0.336-1.672
		c0.224-0.521,0.531-0.977,0.922-1.367s0.848-0.698,1.373-0.921c0.525-0.224,1.084-0.336,1.678-0.336h1.246
		c0.594,0,1.15,0.112,1.672,0.336c0.521,0.224,0.977,0.531,1.367,0.921s0.697,0.847,0.922,1.367
		c0.224,0.521,0.336,1.079,0.336,1.672v0.708l-1.575,0.244v-0.952c0-0.391-0.073-0.755-0.22-1.093
		c-0.146-0.337-0.346-0.632-0.598-0.885c-0.253-0.252-0.548-0.452-0.885-0.598c-0.338-0.146-0.703-0.22-1.094-0.22h-1.098
		c-0.391,0-0.756,0.073-1.094,0.22c-0.337,0.146-0.635,0.346-0.891,0.598c-0.256,0.252-0.457,0.547-0.604,0.885
		c-0.146,0.338-0.221,0.702-0.221,1.093v9.399c0,0.391,0.074,0.755,0.221,1.093c0.146,0.337,0.348,0.635,0.604,0.891
		c0.256,0.257,0.554,0.458,0.891,0.604c0.338,0.146,0.703,0.22,1.094,0.22h1.098c0.391,0,0.756-0.073,1.094-0.22
		c0.337-0.146,0.632-0.348,0.885-0.604c0.252-0.256,0.451-0.553,0.598-0.891c0.146-0.338,0.22-0.702,0.22-1.093v-3.65h-2.796v-1.501
		h4.371V27.977z"/>
	<path class="st1" d="M145.764,25.596c-0.223,0.521-0.53,0.977-0.921,1.367s-0.847,0.698-1.367,0.921
		c-0.521,0.224-1.079,0.336-1.673,0.336h-1.244c-0.595,0-1.154-0.112-1.68-0.336c-0.523-0.224-0.982-0.531-1.373-0.921
		s-0.697-0.846-0.922-1.367c-0.223-0.521-0.335-1.078-0.335-1.672V10.472h1.575v13.452c0,0.391,0.072,0.755,0.219,1.093
		c0.146,0.337,0.348,0.635,0.605,0.891c0.256,0.257,0.553,0.458,0.891,0.604s0.701,0.22,1.092,0.22h1.1
		c0.391,0,0.754-0.073,1.092-0.22s0.633-0.348,0.885-0.604c0.252-0.256,0.452-0.553,0.599-0.891c0.146-0.338,0.22-0.702,0.22-1.093
		V10.472h1.574v13.452C146.1,24.518,145.988,25.076,145.764,25.596z"/>
	<path class="st1" d="M156.428,23.899h-5.543l-1.146,4.077h-1.637l5.127-17.505h0.83l5.152,17.505h-1.624L156.428,23.899z
		 M151.312,22.398h4.699l-2.307-8.069l-0.049-0.647l-0.049,0.647L151.312,22.398z"/>
	<path class="st1" d="M168.971,25.596c-0.225,0.521-0.531,0.977-0.922,1.367s-0.848,0.698-1.367,0.921
		c-0.521,0.224-1.079,0.336-1.673,0.336h-0.501c-0.594,0-1.152-0.112-1.678-0.336c-0.525-0.224-0.982-0.531-1.373-0.921
		s-0.698-0.846-0.922-1.367c-0.225-0.521-0.336-1.078-0.336-1.672v-0.696l1.574-0.256v0.952c0,0.391,0.074,0.755,0.221,1.093
		c0.146,0.337,0.348,0.635,0.604,0.891c0.256,0.257,0.554,0.458,0.891,0.604c0.338,0.146,0.703,0.22,1.094,0.22h0.354
		c0.383,0,0.744-0.073,1.086-0.22s0.639-0.348,0.892-0.604c0.252-0.256,0.452-0.553,0.599-0.891
		c0.146-0.338,0.219-0.702,0.219-1.093V10.472h1.575v13.452C169.306,24.518,169.193,25.076,168.971,25.596z"/>
	<path class="st1" d="M172.809,27.977V10.472h9.852v1.501h-8.276v6.506h6.702v1.501h-6.702v6.494h8.276v1.501H172.809z"/>
	<path class="st1" d="M199.689,27.977v-7.996h-6.702v7.996h-1.575V10.472h1.575v8.008h6.702v-8.008h1.574v17.505H199.689z"/>
	<path class="st1" d="M209.516,11.973v16.003h-1.574V11.973h-4.176v-1.501h9.925v1.501H209.516z"/>
	<path class="st1" d="M226.972,27.977v-12l-0.11,0.745l-4.064,11.255h-0.83l-4.102-11.255l-0.098-0.745v12h-1.574V10.472h0.817
		l5.31,14.355l0.049,0.647l0.049-0.647l5.299-14.355h0.83v17.505H226.972z"/>
	<path class="st1" d="M232.281,27.977V10.472h1.575v16.003h6.702v1.501H232.281z"/>
</g>
<g>
	<rect x="49.019" y="24.556" class="st1" width="20.15" height="7.8"/>
	<g>
		<path d="M69.793,11.032c-0.002-0.136-0.045-0.269-0.138-0.375l-5.701-6.512c-0.001-0.001-0.003-0.003-0.005-0.004
			c-0.034-0.038-0.072-0.069-0.115-0.097c-0.012-0.008-0.024-0.015-0.038-0.022c-0.036-0.02-0.074-0.036-0.114-0.048
			c-0.01-0.003-0.019-0.007-0.031-0.01c-0.043-0.01-0.088-0.016-0.133-0.016H49.506c-0.639,0-1.16,0.52-1.16,1.16v27.25
			c0,0.64,0.521,1.16,1.16,1.16h19.133c0.641,0,1.16-0.52,1.16-1.16V11.097C69.799,11.075,69.795,11.054,69.793,11.032z
			 M49.506,5.106h13.432v5.932c0,0.32,0.26,0.58,0.58,0.58h5.121l0.001,12.017H49.506V5.106z M53.975,30.752h-1.162v-2.216h-1.919
			v2.216h-1.168v-5.294h1.168v2.034h1.919v-2.034h1.162V30.752z M58.561,26.464h-1.405v4.289h-1.169v-4.289h-1.383v-1.006h3.957
			V26.464z M63.583,30.752l-0.077-2.027c-0.021-0.636-0.045-1.406-0.045-2.176h-0.023c-0.16,0.676-0.374,1.43-0.573,2.05
			l-0.626,2.066h-0.909l-0.55-2.05c-0.169-0.621-0.346-1.375-0.467-2.066h-0.016c-0.03,0.715-0.055,1.533-0.092,2.192l-0.092,2.011
			h-1.077l0.328-5.294h1.552l0.504,1.767c0.161,0.613,0.321,1.273,0.437,1.893h0.022c0.146-0.612,0.321-1.311,0.49-1.9l0.55-1.759
			h1.521l0.283,5.294H63.583L63.583,30.752z M68.834,30.752h-3.217v-5.294h1.169v4.289h2.048V30.752L68.834,30.752z"/>
		<polygon points="52.563,17.319 57.004,19.382 57.004,18.401 53.645,16.93 53.645,16.912 57.004,15.44 57.004,14.46 52.563,16.523 
					"/>
		<polygon points="57.689,19.752 58.624,19.752 60.604,13.043 59.67,13.043 		"/>
		<polygon points="61.142,15.44 64.575,16.912 64.575,16.93 61.142,18.401 61.142,19.382 65.583,17.347 65.583,16.495 61.142,14.46 
					"/>
	</g>
</g>
</svg>