<!-- Generator: Adobe Illustrator 17.0.0, SVG Export Plug-In  -->
<svg version="1.1"
	 xmlns="http://www.w3.org/2000/svg" xmlns:xlink="http://www.w3.org/1999/xlink" xmlns:a="http://ns.adobe.com/AdobeSVGViewerExtensions/3.0/"
	 x="0px" y="0px" width="283.543px" height="253.482px" viewBox="0 0 283.543 253.482"
	 style="enable-background:new 0 0 283.543 253.482;" xml:space="preserve">
<style type="text/css">
	.st0{fill:#FFFFFF;stroke:#E54F26;stroke-width:2;stroke-miterlimit:10;}
	.st1{fill:#E54F26;}
	.st2{fill:#F1F1F1;}
</style>
<defs>
</defs>
<g>
	<rect x="9.801" y="138.314" width="180.726" height="29.249"/>
	<rect x="48.051" y="1" class="st0" width="181.096" height="29.249"/>
	<g>
		<path d="M88.882,18.1c-0.123,0.283-0.289,0.53-0.502,0.743c-0.211,0.212-0.459,0.379-0.742,0.5s-0.586,0.183-0.908,0.183h-0.676
			c-0.324,0-0.627-0.061-0.912-0.183s-0.533-0.289-0.746-0.5c-0.213-0.212-0.379-0.46-0.5-0.743
			c-0.123-0.283-0.184-0.585-0.184-0.908V9.885h0.855v7.307c0,0.212,0.041,0.41,0.119,0.593c0.08,0.184,0.189,0.345,0.328,0.484
			c0.141,0.139,0.301,0.249,0.484,0.328s0.381,0.12,0.594,0.12h0.598c0.211,0,0.408-0.04,0.592-0.12s0.344-0.189,0.482-0.328
			c0.137-0.139,0.244-0.3,0.324-0.484s0.119-0.381,0.119-0.593V9.885h0.855v7.307C89.063,17.515,89.003,17.817,88.882,18.1z"/>
		<path d="M95.501,17.669c0,0.274-0.055,0.525-0.166,0.753c-0.109,0.228-0.26,0.423-0.449,0.586c-0.191,0.164-0.41,0.291-0.66,0.381
			c-0.25,0.091-0.512,0.136-0.785,0.136h-0.545c-0.273,0-0.535-0.052-0.785-0.156c-0.25-0.104-0.469-0.246-0.656-0.427
			c-0.188-0.182-0.338-0.394-0.451-0.637s-0.17-0.501-0.17-0.776v-0.272l0.816-0.132v0.451c0,0.164,0.033,0.317,0.104,0.461
			c0.068,0.144,0.16,0.269,0.273,0.375c0.115,0.106,0.248,0.19,0.398,0.252c0.15,0.062,0.307,0.093,0.471,0.093h0.545
			c0.162,0,0.32-0.024,0.471-0.073c0.148-0.049,0.283-0.118,0.4-0.209c0.117-0.09,0.209-0.2,0.279-0.328
			c0.068-0.128,0.102-0.274,0.102-0.438c0-0.243-0.053-0.442-0.158-0.597c-0.107-0.155-0.248-0.284-0.422-0.388
			c-0.174-0.104-0.373-0.19-0.596-0.258c-0.225-0.069-0.453-0.137-0.688-0.206c-0.234-0.069-0.463-0.147-0.686-0.235
			s-0.422-0.205-0.598-0.348c-0.174-0.144-0.314-0.324-0.42-0.541c-0.107-0.217-0.16-0.486-0.16-0.809
			c0-0.274,0.053-0.525,0.16-0.752c0.105-0.228,0.25-0.423,0.43-0.587c0.182-0.164,0.393-0.291,0.635-0.381
			c0.24-0.09,0.498-0.136,0.771-0.136h0.479c0.273,0,0.531,0.052,0.775,0.156c0.242,0.104,0.455,0.247,0.637,0.428
			c0.18,0.181,0.322,0.394,0.428,0.636c0.104,0.243,0.154,0.502,0.154,0.776v0.027l-0.814,0.132V14.42
			c0-0.164-0.031-0.317-0.094-0.461c-0.061-0.144-0.145-0.269-0.252-0.375c-0.105-0.106-0.23-0.19-0.375-0.252
			c-0.143-0.062-0.297-0.093-0.459-0.093h-0.479c-0.164,0-0.316,0.024-0.461,0.073c-0.143,0.049-0.268,0.119-0.375,0.209
			c-0.105,0.091-0.189,0.2-0.252,0.328c-0.061,0.128-0.092,0.274-0.092,0.438c0,0.234,0.053,0.425,0.158,0.573
			c0.107,0.148,0.246,0.273,0.422,0.375c0.174,0.102,0.373,0.187,0.596,0.255c0.225,0.069,0.451,0.14,0.684,0.212
			s0.459,0.156,0.684,0.249c0.223,0.093,0.422,0.212,0.596,0.358c0.176,0.146,0.316,0.329,0.422,0.547S95.501,17.347,95.501,17.669z
			"/>
		<path d="M101.446,18.306c-0.105,0.243-0.248,0.455-0.428,0.637c-0.182,0.181-0.395,0.324-0.637,0.427
			c-0.244,0.104-0.502,0.156-0.775,0.156h-0.545c-0.273,0-0.533-0.052-0.775-0.156c-0.244-0.104-0.455-0.246-0.637-0.427
			c-0.182-0.182-0.324-0.394-0.428-0.637s-0.156-0.501-0.156-0.776v-3.063c0-0.274,0.053-0.533,0.156-0.776
			c0.104-0.243,0.246-0.455,0.428-0.636s0.393-0.324,0.637-0.428c0.242-0.104,0.502-0.156,0.775-0.156h0.545
			c0.273,0,0.531,0.052,0.775,0.156c0.242,0.104,0.455,0.247,0.637,0.428c0.18,0.181,0.322,0.394,0.428,0.636
			c0.104,0.243,0.154,0.502,0.154,0.776v1.598h-3.719v1.512c0,0.164,0.031,0.317,0.092,0.461c0.063,0.144,0.146,0.269,0.252,0.375
			c0.107,0.106,0.232,0.19,0.375,0.252c0.145,0.062,0.297,0.093,0.461,0.093h0.545c0.162,0,0.316-0.031,0.461-0.093
			c0.143-0.062,0.268-0.146,0.373-0.252c0.107-0.106,0.191-0.231,0.252-0.375c0.063-0.144,0.094-0.297,0.094-0.461v-0.451
			l0.814,0.132v0.272C101.601,17.804,101.55,18.063,101.446,18.306z M100.786,14.42c0-0.164-0.031-0.317-0.094-0.461
			c-0.061-0.144-0.145-0.269-0.252-0.375c-0.105-0.106-0.23-0.19-0.373-0.252c-0.145-0.062-0.299-0.093-0.461-0.093h-0.545
			c-0.164,0-0.316,0.031-0.461,0.093c-0.143,0.062-0.268,0.146-0.375,0.252c-0.105,0.106-0.189,0.231-0.252,0.375
			c-0.061,0.144-0.092,0.297-0.092,0.461v1.008h2.904V14.42z"/>
		<path d="M105.229,13.379c-0.164,0-0.318,0.031-0.461,0.093c-0.145,0.062-0.27,0.146-0.375,0.252
			c-0.105,0.106-0.189,0.231-0.252,0.375s-0.094,0.297-0.094,0.46v4.834h-0.814v-6.79h0.271l0.443,0.69
			c0.188-0.252,0.42-0.452,0.701-0.6c0.279-0.148,0.586-0.222,0.918-0.222h0.477v0.908H105.229z"/>
		<path d="M110.526,19.393V9.885h0.855v9.508H110.526z"/>
		<path d="M117.005,19.393V14.42c0-0.164-0.031-0.317-0.094-0.461c-0.061-0.144-0.145-0.269-0.252-0.375
			c-0.105-0.106-0.23-0.19-0.373-0.252c-0.145-0.062-0.299-0.093-0.461-0.093h-0.545c-0.164,0-0.316,0.031-0.461,0.093
			c-0.143,0.062-0.268,0.146-0.375,0.252c-0.105,0.106-0.189,0.231-0.252,0.375c-0.061,0.144-0.092,0.297-0.092,0.461v4.973h-0.816
			v-6.79h0.273l0.443,0.69c0.186-0.252,0.418-0.452,0.699-0.6s0.588-0.222,0.918-0.222h0.207c0.273,0,0.531,0.052,0.775,0.156
			c0.242,0.104,0.455,0.247,0.637,0.428c0.18,0.181,0.322,0.394,0.428,0.636c0.104,0.243,0.154,0.502,0.154,0.776v4.927H117.005z"/>
		<path d="M121.925,19.393c-0.248,0-0.48-0.046-0.699-0.139s-0.408-0.221-0.57-0.385s-0.289-0.354-0.385-0.57
			c-0.096-0.216-0.143-0.448-0.143-0.696v-4.224h-1.221v-0.776h1.221v-1.631l0.816-0.133v1.764h1.723v0.776h-1.723v4.264
			c0,0.137,0.025,0.264,0.076,0.381s0.119,0.22,0.209,0.308c0.088,0.088,0.191,0.158,0.311,0.209s0.248,0.076,0.385,0.076h0.742
			v0.776H121.925z"/>
		<path d="M128.546,18.306c-0.104,0.243-0.246,0.455-0.428,0.637c-0.182,0.181-0.393,0.324-0.637,0.427
			c-0.242,0.104-0.502,0.156-0.775,0.156h-0.543c-0.275,0-0.533-0.052-0.777-0.156c-0.242-0.104-0.455-0.246-0.635-0.427
			c-0.182-0.182-0.324-0.394-0.428-0.637c-0.105-0.243-0.156-0.501-0.156-0.776v-3.063c0-0.274,0.051-0.533,0.156-0.776
			c0.104-0.243,0.246-0.455,0.428-0.636c0.18-0.181,0.393-0.324,0.635-0.428c0.244-0.104,0.502-0.156,0.777-0.156h0.543
			c0.273,0,0.533,0.052,0.775,0.156c0.244,0.104,0.455,0.247,0.637,0.428c0.182,0.181,0.324,0.394,0.428,0.636
			c0.104,0.243,0.156,0.502,0.156,0.776v1.598h-3.721v1.512c0,0.164,0.031,0.317,0.094,0.461s0.146,0.269,0.252,0.375
			s0.23,0.19,0.375,0.252c0.143,0.062,0.297,0.093,0.461,0.093h0.543c0.164,0,0.316-0.031,0.461-0.093
			c0.145-0.062,0.27-0.146,0.375-0.252s0.189-0.231,0.252-0.375s0.092-0.297,0.092-0.461v-0.451l0.816,0.132v0.272
			C128.702,17.804,128.649,18.063,128.546,18.306z M127.886,14.42c0-0.164-0.029-0.317-0.092-0.461
			c-0.063-0.144-0.146-0.269-0.252-0.375s-0.23-0.19-0.375-0.252c-0.145-0.062-0.297-0.093-0.461-0.093h-0.543
			c-0.164,0-0.318,0.031-0.461,0.093c-0.145,0.062-0.27,0.146-0.375,0.252s-0.189,0.231-0.252,0.375
			c-0.063,0.144-0.094,0.297-0.094,0.461v1.008h2.904V14.42z"/>
		<path d="M132.329,13.379c-0.164,0-0.316,0.031-0.461,0.093c-0.143,0.062-0.268,0.146-0.375,0.252
			c-0.105,0.106-0.189,0.231-0.252,0.375c-0.061,0.144-0.092,0.297-0.092,0.46v4.834h-0.816v-6.79h0.273l0.443,0.69
			c0.186-0.252,0.418-0.452,0.699-0.6s0.588-0.222,0.918-0.222h0.479v0.908H132.329z"/>
		<path d="M136.565,10.661c-0.137,0-0.264,0.025-0.381,0.076s-0.219,0.121-0.309,0.209c-0.088,0.088-0.158,0.192-0.209,0.312
			c-0.051,0.119-0.076,0.248-0.076,0.384v0.961h1.586v0.776h-1.586v6.014h-0.814v-6.014h-1.227v-0.776h1.227v-0.921
			c0-0.248,0.045-0.481,0.139-0.7s0.221-0.41,0.385-0.573s0.354-0.292,0.57-0.385s0.449-0.139,0.695-0.139h0.75v0.776H136.565z"/>
		<path d="M142.394,19.393l-0.451-0.676c-0.186,0.243-0.416,0.438-0.695,0.587c-0.279,0.148-0.584,0.222-0.916,0.222h-0.205
			c-0.273,0-0.533-0.052-0.775-0.156c-0.244-0.104-0.455-0.246-0.637-0.427c-0.182-0.182-0.324-0.394-0.428-0.637
			s-0.156-0.501-0.156-0.776v-0.066c0-0.274,0.053-0.533,0.156-0.776c0.104-0.243,0.246-0.455,0.428-0.636s0.393-0.324,0.637-0.428
			c0.242-0.104,0.502-0.156,0.775-0.156h1.725V14.42c0-0.164-0.031-0.317-0.094-0.461c-0.061-0.144-0.145-0.269-0.252-0.375
			c-0.105-0.106-0.23-0.19-0.373-0.252c-0.145-0.062-0.299-0.093-0.461-0.093h-0.479c-0.164,0-0.316,0.031-0.461,0.093
			c-0.143,0.062-0.268,0.146-0.375,0.252c-0.105,0.106-0.189,0.231-0.252,0.375c-0.061,0.144-0.092,0.297-0.092,0.461v0.246
			l-0.816-0.133v-0.066c0-0.274,0.053-0.533,0.156-0.776c0.104-0.243,0.246-0.455,0.428-0.636s0.393-0.324,0.637-0.428
			c0.242-0.104,0.502-0.156,0.775-0.156h0.479c0.273,0,0.531,0.052,0.775,0.156c0.242,0.104,0.455,0.247,0.637,0.428
			c0.18,0.181,0.322,0.394,0.428,0.636c0.104,0.243,0.154,0.502,0.154,0.776v4.927H142.394z M141.851,16.104h-1.725
			c-0.164,0-0.316,0.031-0.461,0.093c-0.143,0.062-0.268,0.147-0.375,0.255c-0.105,0.108-0.189,0.234-0.252,0.378
			c-0.061,0.144-0.092,0.297-0.092,0.461v0.285c0,0.164,0.031,0.317,0.092,0.461c0.063,0.144,0.146,0.269,0.252,0.375
			c0.107,0.106,0.232,0.19,0.375,0.252c0.145,0.062,0.297,0.093,0.461,0.093h0.545c0.162,0,0.316-0.031,0.461-0.093
			c0.143-0.062,0.268-0.146,0.373-0.252c0.107-0.106,0.191-0.231,0.252-0.375c0.063-0.144,0.094-0.297,0.094-0.461V16.104z"/>
		<path d="M148.677,18.306c-0.104,0.243-0.246,0.455-0.428,0.637c-0.182,0.181-0.393,0.324-0.637,0.427
			c-0.242,0.104-0.502,0.156-0.775,0.156h-0.543c-0.275,0-0.533-0.052-0.777-0.156c-0.242-0.104-0.455-0.246-0.635-0.427
			c-0.182-0.182-0.324-0.394-0.428-0.637c-0.105-0.243-0.156-0.501-0.156-0.776v-3.063c0-0.274,0.051-0.533,0.156-0.776
			c0.104-0.243,0.246-0.455,0.428-0.636c0.18-0.181,0.393-0.324,0.635-0.428c0.244-0.104,0.502-0.156,0.777-0.156h0.543
			c0.273,0,0.533,0.052,0.775,0.156c0.244,0.104,0.455,0.247,0.637,0.428s0.324,0.394,0.428,0.636
			c0.104,0.243,0.156,0.502,0.156,0.776v0.272l-0.816,0.133V14.42c0-0.164-0.029-0.317-0.092-0.461
			c-0.063-0.144-0.146-0.269-0.252-0.375s-0.23-0.19-0.375-0.252c-0.145-0.062-0.297-0.093-0.461-0.093h-0.543
			c-0.164,0-0.318,0.031-0.461,0.093c-0.145,0.062-0.27,0.146-0.375,0.252s-0.189,0.231-0.252,0.375
			c-0.063,0.144-0.094,0.297-0.094,0.461v3.156c0,0.164,0.031,0.317,0.094,0.461s0.146,0.269,0.252,0.375s0.23,0.19,0.375,0.252
			c0.143,0.062,0.297,0.093,0.461,0.093h0.543c0.164,0,0.316-0.031,0.461-0.093c0.145-0.062,0.27-0.146,0.375-0.252
			s0.189-0.231,0.252-0.375s0.092-0.297,0.092-0.461v-0.451l0.816,0.132v0.272C148.833,17.804,148.78,18.063,148.677,18.306z"/>
		<path d="M154.845,18.306c-0.105,0.243-0.248,0.455-0.428,0.637c-0.182,0.181-0.395,0.324-0.637,0.427
			c-0.244,0.104-0.502,0.156-0.775,0.156h-0.545c-0.273,0-0.533-0.052-0.775-0.156c-0.244-0.104-0.455-0.246-0.637-0.427
			c-0.182-0.182-0.324-0.394-0.428-0.637s-0.156-0.501-0.156-0.776v-3.063c0-0.274,0.053-0.533,0.156-0.776
			c0.104-0.243,0.246-0.455,0.428-0.636s0.393-0.324,0.637-0.428c0.242-0.104,0.502-0.156,0.775-0.156h0.545
			c0.273,0,0.531,0.052,0.775,0.156c0.242,0.104,0.455,0.247,0.637,0.428c0.18,0.181,0.322,0.394,0.428,0.636
			c0.104,0.243,0.154,0.502,0.154,0.776v1.598h-3.719v1.512c0,0.164,0.031,0.317,0.092,0.461c0.063,0.144,0.146,0.269,0.252,0.375
			c0.107,0.106,0.232,0.19,0.375,0.252c0.145,0.062,0.297,0.093,0.461,0.093h0.545c0.162,0,0.316-0.031,0.461-0.093
			c0.143-0.062,0.268-0.146,0.373-0.252c0.107-0.106,0.191-0.231,0.252-0.375c0.063-0.144,0.094-0.297,0.094-0.461v-0.451
			l0.814,0.132v0.272C154.999,17.804,154.948,18.063,154.845,18.306z M154.185,14.42c0-0.164-0.031-0.317-0.094-0.461
			c-0.061-0.144-0.145-0.269-0.252-0.375c-0.105-0.106-0.23-0.19-0.373-0.252c-0.145-0.062-0.299-0.093-0.461-0.093h-0.545
			c-0.164,0-0.316,0.031-0.461,0.093c-0.143,0.062-0.268,0.146-0.375,0.252c-0.105,0.106-0.189,0.231-0.252,0.375
			c-0.061,0.144-0.092,0.297-0.092,0.461v1.008h2.904V14.42z"/>
	</g>
	<path class="st1" d="M130.314,47.418h-7.293c-0.004-6.615,0-1.257,0.004-11.487l-7.473-0.002c0,1.252-0.01,3.186-0.006,11.489
		h-7.283l11.025,16.733L130.314,47.418z"/>
	<path class="st1" d="M226.406,71.927v7.294c-6.615,0.004-17.582,0-27.813-0.004l-0.002,7.473c1.254,0,19.51,0.01,27.814,0.005
		v7.285l16.734-11.027L226.406,71.927z"/>
	<rect x="48.051" y="69.94" width="142.477" height="29.248"/>
	<g>
		<path class="st2" d="M85.364,86.907c-0.121,0.283-0.289,0.53-0.5,0.743c-0.213,0.212-0.461,0.379-0.746,0.5
			c-0.285,0.122-0.59,0.183-0.912,0.183h-3.01v-9.509h3.01c0.322,0,0.627,0.062,0.912,0.183c0.285,0.122,0.533,0.288,0.746,0.501
			c0.211,0.212,0.379,0.461,0.5,0.746s0.182,0.589,0.182,0.911v0.093c0,0.226-0.029,0.441-0.09,0.646
			c-0.059,0.206-0.145,0.397-0.254,0.574c-0.111,0.177-0.242,0.337-0.393,0.48s-0.318,0.264-0.504,0.361
			c0.186,0.098,0.354,0.218,0.504,0.361s0.281,0.305,0.393,0.484c0.109,0.179,0.195,0.371,0.254,0.576
			c0.061,0.206,0.09,0.421,0.09,0.646v0.61C85.546,86.321,85.485,86.625,85.364,86.907z M84.69,81.165
			c0-0.212-0.039-0.41-0.119-0.593c-0.08-0.184-0.189-0.346-0.328-0.484c-0.139-0.14-0.301-0.249-0.484-0.328
			c-0.184-0.08-0.381-0.119-0.594-0.119H81.05v3.275h2.115c0.213,0,0.41-0.04,0.594-0.12c0.184-0.079,0.346-0.188,0.484-0.328
			c0.139-0.139,0.248-0.3,0.328-0.483s0.119-0.382,0.119-0.594V81.165z M84.69,85.25c0-0.213-0.039-0.41-0.119-0.594
			s-0.189-0.344-0.328-0.48s-0.301-0.245-0.484-0.325c-0.184-0.079-0.381-0.119-0.594-0.119H81.05v3.786h2.115
			c0.213,0,0.41-0.04,0.594-0.119c0.184-0.08,0.346-0.188,0.484-0.325s0.248-0.297,0.328-0.48s0.119-0.382,0.119-0.594V85.25z"/>
		<path class="st2" d="M88.901,82.319c-0.164,0-0.316,0.03-0.461,0.093c-0.143,0.062-0.268,0.146-0.375,0.252
			c-0.105,0.105-0.189,0.23-0.252,0.374c-0.061,0.144-0.092,0.298-0.092,0.461v4.834h-0.816v-6.79h0.273l0.443,0.689
			c0.186-0.252,0.418-0.451,0.699-0.6s0.588-0.223,0.918-0.223h0.479v0.909H88.901z"/>
		<path class="st2" d="M95.185,87.245c-0.105,0.243-0.248,0.456-0.428,0.637c-0.182,0.182-0.395,0.324-0.637,0.428
			c-0.244,0.104-0.502,0.156-0.775,0.156H92.8c-0.273,0-0.533-0.052-0.775-0.156c-0.244-0.104-0.455-0.246-0.637-0.428
			c-0.182-0.181-0.324-0.394-0.428-0.637c-0.104-0.242-0.156-0.501-0.156-0.775v-3.063c0-0.273,0.053-0.532,0.156-0.775
			s0.246-0.455,0.428-0.637s0.393-0.324,0.637-0.428c0.242-0.104,0.502-0.156,0.775-0.156h0.545c0.273,0,0.531,0.053,0.775,0.156
			c0.242,0.104,0.455,0.246,0.637,0.428c0.18,0.182,0.322,0.394,0.428,0.637c0.104,0.243,0.154,0.502,0.154,0.775v3.063
			C95.339,86.744,95.288,87.003,95.185,87.245z M94.524,83.36c0-0.164-0.031-0.317-0.094-0.461
			c-0.061-0.144-0.145-0.269-0.252-0.375c-0.105-0.106-0.23-0.189-0.373-0.252c-0.145-0.062-0.299-0.093-0.461-0.093H92.8
			c-0.164,0-0.316,0.031-0.461,0.093c-0.143,0.063-0.268,0.146-0.375,0.252c-0.105,0.106-0.189,0.231-0.252,0.375
			c-0.061,0.144-0.092,0.297-0.092,0.461v3.156c0,0.163,0.031,0.316,0.092,0.46c0.063,0.145,0.146,0.269,0.252,0.375
			c0.107,0.106,0.232,0.19,0.375,0.252c0.145,0.063,0.297,0.093,0.461,0.093h0.545c0.162,0,0.316-0.03,0.461-0.093
			c0.143-0.062,0.268-0.146,0.373-0.252c0.107-0.106,0.191-0.23,0.252-0.375c0.063-0.144,0.094-0.297,0.094-0.46V83.36z"/>
		<path class="st2" d="M102.687,88.333h-0.443l-1.592-5.119l-0.027-0.352l-0.025,0.352l-1.592,5.119h-0.451l-2.268-6.79h0.83
			l1.617,5.133l0.025,0.351l0.027-0.351l1.592-5.133h0.49l1.584,5.133l0.027,0.351l0.027-0.351l1.617-5.133h0.828L102.687,88.333z"
			/>
		<path class="st2" d="M110.577,86.609c0,0.273-0.055,0.524-0.166,0.752c-0.109,0.228-0.26,0.424-0.449,0.587
			c-0.191,0.164-0.41,0.291-0.66,0.382c-0.25,0.09-0.512,0.136-0.785,0.136h-0.545c-0.273,0-0.535-0.052-0.785-0.156
			c-0.25-0.104-0.469-0.246-0.656-0.428c-0.188-0.181-0.338-0.394-0.451-0.637c-0.113-0.242-0.17-0.501-0.17-0.775v-0.271
			l0.816-0.133v0.451c0,0.163,0.033,0.316,0.104,0.46c0.068,0.145,0.16,0.269,0.273,0.375c0.115,0.106,0.248,0.19,0.398,0.252
			c0.15,0.063,0.307,0.093,0.471,0.093h0.545c0.162,0,0.32-0.024,0.471-0.073c0.148-0.048,0.283-0.118,0.4-0.208
			c0.117-0.091,0.209-0.2,0.279-0.328c0.068-0.129,0.102-0.274,0.102-0.438c0-0.243-0.053-0.441-0.158-0.597
			c-0.107-0.154-0.248-0.283-0.422-0.388c-0.174-0.104-0.373-0.189-0.596-0.259c-0.225-0.068-0.453-0.137-0.688-0.205
			s-0.463-0.147-0.686-0.235c-0.223-0.089-0.422-0.205-0.598-0.349c-0.174-0.144-0.314-0.323-0.42-0.54
			c-0.107-0.217-0.16-0.486-0.16-0.809c0-0.274,0.053-0.525,0.16-0.753c0.105-0.228,0.25-0.423,0.43-0.587
			c0.182-0.163,0.393-0.291,0.635-0.381c0.24-0.091,0.498-0.137,0.771-0.137h0.479c0.273,0,0.531,0.053,0.775,0.156
			c0.242,0.104,0.455,0.246,0.637,0.428c0.18,0.182,0.322,0.394,0.428,0.637c0.104,0.243,0.154,0.502,0.154,0.775v0.026
			l-0.814,0.133V83.36c0-0.164-0.031-0.317-0.094-0.461c-0.061-0.144-0.145-0.269-0.252-0.375c-0.105-0.106-0.23-0.189-0.375-0.252
			c-0.143-0.062-0.297-0.093-0.459-0.093h-0.479c-0.164,0-0.316,0.024-0.461,0.073c-0.143,0.049-0.268,0.118-0.375,0.209
			c-0.105,0.09-0.189,0.199-0.252,0.328c-0.061,0.128-0.092,0.273-0.092,0.438c0,0.234,0.053,0.426,0.158,0.573
			c0.107,0.148,0.246,0.273,0.422,0.375c0.174,0.102,0.373,0.187,0.596,0.255c0.225,0.068,0.451,0.14,0.684,0.212
			c0.232,0.073,0.459,0.156,0.684,0.249c0.223,0.093,0.422,0.212,0.596,0.358c0.176,0.146,0.316,0.328,0.422,0.547
			S110.577,86.286,110.577,86.609z"/>
		<path class="st2" d="M116.522,87.245c-0.105,0.243-0.248,0.456-0.428,0.637c-0.182,0.182-0.395,0.324-0.637,0.428
			c-0.244,0.104-0.502,0.156-0.775,0.156h-0.545c-0.273,0-0.533-0.052-0.775-0.156c-0.244-0.104-0.455-0.246-0.637-0.428
			c-0.182-0.181-0.324-0.394-0.428-0.637c-0.104-0.242-0.156-0.501-0.156-0.775v-3.063c0-0.273,0.053-0.532,0.156-0.775
			s0.246-0.455,0.428-0.637s0.393-0.324,0.637-0.428c0.242-0.104,0.502-0.156,0.775-0.156h0.545c0.273,0,0.531,0.053,0.775,0.156
			c0.242,0.104,0.455,0.246,0.637,0.428c0.18,0.182,0.322,0.394,0.428,0.637c0.104,0.243,0.154,0.502,0.154,0.775v1.599h-3.719
			v1.512c0,0.163,0.031,0.316,0.092,0.46c0.063,0.145,0.146,0.269,0.252,0.375c0.107,0.106,0.232,0.19,0.375,0.252
			c0.145,0.063,0.297,0.093,0.461,0.093h0.545c0.162,0,0.316-0.03,0.461-0.093c0.143-0.062,0.268-0.146,0.373-0.252
			c0.107-0.106,0.191-0.23,0.252-0.375c0.063-0.144,0.094-0.297,0.094-0.46v-0.451l0.814,0.133v0.271
			C116.677,86.744,116.626,87.003,116.522,87.245z M115.862,83.36c0-0.164-0.031-0.317-0.094-0.461
			c-0.061-0.144-0.145-0.269-0.252-0.375c-0.105-0.106-0.23-0.189-0.373-0.252c-0.145-0.062-0.299-0.093-0.461-0.093h-0.545
			c-0.164,0-0.316,0.031-0.461,0.093c-0.143,0.063-0.268,0.146-0.375,0.252c-0.105,0.106-0.189,0.231-0.252,0.375
			c-0.061,0.144-0.092,0.297-0.092,0.461v1.008h2.904V83.36z"/>
		<path class="st2" d="M120.306,82.319c-0.164,0-0.318,0.03-0.461,0.093c-0.145,0.062-0.27,0.146-0.375,0.252
			c-0.105,0.105-0.189,0.23-0.252,0.374s-0.094,0.298-0.094,0.461v4.834h-0.814v-6.79h0.271l0.443,0.689
			c0.188-0.252,0.42-0.451,0.701-0.6c0.279-0.148,0.586-0.223,0.918-0.223h0.477v0.909H120.306z"/>
		<path class="st2" d="M129.71,87.245c-0.104,0.243-0.246,0.456-0.428,0.637c-0.182,0.182-0.393,0.324-0.637,0.428
			c-0.242,0.104-0.502,0.156-0.775,0.156h-0.543c-0.275,0-0.533-0.052-0.777-0.156c-0.242-0.104-0.455-0.246-0.635-0.428
			c-0.182-0.181-0.324-0.394-0.428-0.637c-0.105-0.242-0.156-0.501-0.156-0.775v-3.063c0-0.273,0.051-0.532,0.156-0.775
			c0.104-0.243,0.246-0.455,0.428-0.637c0.18-0.182,0.393-0.324,0.635-0.428c0.244-0.104,0.502-0.156,0.777-0.156h0.543
			c0.273,0,0.533,0.053,0.775,0.156c0.244,0.104,0.455,0.246,0.637,0.428s0.324,0.394,0.428,0.637s0.156,0.502,0.156,0.775v1.599
			h-3.721v1.512c0,0.163,0.031,0.316,0.094,0.46c0.063,0.145,0.146,0.269,0.252,0.375s0.23,0.19,0.375,0.252
			c0.143,0.063,0.297,0.093,0.461,0.093h0.543c0.164,0,0.316-0.03,0.461-0.093c0.145-0.062,0.27-0.146,0.375-0.252
			s0.189-0.23,0.252-0.375c0.063-0.144,0.092-0.297,0.092-0.46v-0.451l0.816,0.133v0.271
			C129.866,86.744,129.813,87.003,129.71,87.245z M129.05,83.36c0-0.164-0.029-0.317-0.092-0.461s-0.146-0.269-0.252-0.375
			s-0.23-0.189-0.375-0.252c-0.145-0.062-0.297-0.093-0.461-0.093h-0.543c-0.164,0-0.318,0.031-0.461,0.093
			c-0.145,0.063-0.27,0.146-0.375,0.252s-0.189,0.231-0.252,0.375s-0.094,0.297-0.094,0.461v1.008h2.904V83.36z"/>
		<path class="st2" d="M135.218,88.333V83.36c0-0.164-0.031-0.317-0.094-0.461c-0.061-0.144-0.145-0.269-0.252-0.375
			c-0.105-0.106-0.23-0.189-0.373-0.252c-0.145-0.062-0.299-0.093-0.461-0.093h-0.545c-0.164,0-0.316,0.031-0.461,0.093
			c-0.143,0.063-0.268,0.146-0.375,0.252c-0.105,0.106-0.189,0.231-0.252,0.375c-0.061,0.144-0.092,0.297-0.092,0.461v4.973h-0.816
			v-6.79h0.273l0.443,0.689c0.186-0.252,0.418-0.451,0.699-0.6s0.588-0.223,0.918-0.223h0.207c0.273,0,0.531,0.053,0.775,0.156
			c0.242,0.104,0.455,0.246,0.637,0.428c0.18,0.182,0.322,0.394,0.428,0.637c0.104,0.243,0.154,0.502,0.154,0.775v4.927H135.218z"/>
		<path class="st2" d="M142.11,89.944c-0.104,0.229-0.246,0.427-0.428,0.59c-0.182,0.164-0.393,0.291-0.637,0.382
			c-0.242,0.09-0.502,0.136-0.775,0.136h-0.338c-0.273,0-0.533-0.046-0.775-0.136c-0.244-0.091-0.455-0.218-0.637-0.382
			c-0.182-0.163-0.324-0.36-0.428-0.59s-0.156-0.482-0.156-0.756v-0.026c0-0.266,0.049-0.509,0.146-0.729
			c0.096-0.221,0.229-0.413,0.396-0.577c-0.211-0.128-0.381-0.302-0.506-0.521c-0.127-0.219-0.189-0.461-0.189-0.726
			c0-0.239,0.051-0.461,0.152-0.667c0.102-0.205,0.24-0.372,0.418-0.5c-0.213-0.186-0.381-0.409-0.504-0.67
			c-0.125-0.261-0.186-0.546-0.186-0.855v-0.511c0-0.273,0.051-0.532,0.156-0.775c0.104-0.243,0.246-0.455,0.428-0.637
			c0.18-0.182,0.393-0.324,0.635-0.428c0.244-0.104,0.502-0.156,0.777-0.156h0.338c0.332,0,0.637,0.074,0.918,0.223
			s0.514,0.348,0.699,0.6l0.445-0.689h0.271v2.374c0,0.274-0.053,0.532-0.156,0.775s-0.246,0.456-0.428,0.637
			c-0.182,0.182-0.393,0.324-0.637,0.428c-0.242,0.104-0.502,0.156-0.775,0.156h-1.18c-0.094,0-0.182,0.019-0.266,0.056
			c-0.084,0.038-0.158,0.088-0.223,0.149c-0.064,0.063-0.113,0.136-0.148,0.223c-0.035,0.086-0.053,0.176-0.053,0.269
			s0.018,0.181,0.053,0.265s0.084,0.158,0.148,0.223c0.064,0.063,0.139,0.113,0.223,0.148c0.084,0.036,0.172,0.054,0.266,0.054
			h1.113c0.273,0,0.533,0.045,0.775,0.136c0.244,0.091,0.455,0.218,0.637,0.381c0.182,0.164,0.324,0.36,0.428,0.591
			c0.104,0.229,0.156,0.481,0.156,0.756v0.026C142.267,89.462,142.214,89.715,142.11,89.944z M141.524,83.36
			c0-0.164-0.031-0.317-0.094-0.461s-0.146-0.269-0.256-0.375c-0.107-0.106-0.234-0.189-0.377-0.252
			c-0.145-0.062-0.297-0.093-0.461-0.093h-0.676c-0.164,0-0.318,0.031-0.461,0.093c-0.145,0.063-0.27,0.146-0.375,0.252
			s-0.189,0.231-0.252,0.375s-0.094,0.297-0.094,0.461v0.604c0,0.163,0.031,0.316,0.094,0.46c0.063,0.145,0.146,0.269,0.252,0.375
			s0.23,0.19,0.375,0.252c0.143,0.062,0.297,0.093,0.461,0.093h0.676c0.164,0,0.316-0.031,0.461-0.093
			c0.143-0.062,0.27-0.146,0.377-0.252c0.109-0.106,0.193-0.23,0.256-0.375c0.063-0.144,0.094-0.297,0.094-0.46V83.36z
			 M141.491,89.122c0-0.164-0.031-0.311-0.094-0.441c-0.063-0.13-0.146-0.239-0.252-0.328c-0.105-0.088-0.23-0.156-0.375-0.205
			c-0.143-0.049-0.297-0.073-0.461-0.073h-0.416c-0.164,0-0.318,0.024-0.461,0.073c-0.145,0.049-0.27,0.117-0.375,0.205
			c-0.107,0.089-0.191,0.198-0.252,0.328c-0.063,0.131-0.094,0.277-0.094,0.441v0.106c0,0.163,0.031,0.309,0.094,0.438
			c0.061,0.128,0.145,0.237,0.252,0.328c0.105,0.091,0.23,0.16,0.375,0.209c0.143,0.048,0.297,0.072,0.461,0.072h0.416
			c0.164,0,0.318-0.024,0.461-0.072c0.145-0.049,0.27-0.118,0.375-0.209s0.189-0.2,0.252-0.328c0.063-0.129,0.094-0.274,0.094-0.438
			V89.122z"/>
		<path class="st2" d="M144.038,79.912v-1.088h0.947v1.088H144.038z M144.104,88.333v-6.79h0.814v6.79H144.104z"/>
		<path class="st2" d="M150.542,88.333V83.36c0-0.164-0.031-0.317-0.094-0.461c-0.061-0.144-0.145-0.269-0.252-0.375
			c-0.105-0.106-0.23-0.189-0.373-0.252c-0.145-0.062-0.299-0.093-0.461-0.093h-0.545c-0.164,0-0.316,0.031-0.461,0.093
			c-0.143,0.063-0.268,0.146-0.375,0.252c-0.105,0.106-0.189,0.231-0.252,0.375c-0.061,0.144-0.092,0.297-0.092,0.461v4.973h-0.816
			v-6.79h0.273l0.443,0.689c0.186-0.252,0.418-0.451,0.699-0.6s0.588-0.223,0.918-0.223h0.207c0.273,0,0.531,0.053,0.775,0.156
			c0.242,0.104,0.455,0.246,0.637,0.428c0.18,0.182,0.322,0.394,0.428,0.637c0.104,0.243,0.154,0.502,0.154,0.775v4.927H150.542z"/>
		<path class="st2" d="M157.368,87.245c-0.104,0.243-0.246,0.456-0.428,0.637c-0.182,0.182-0.393,0.324-0.637,0.428
			c-0.242,0.104-0.502,0.156-0.775,0.156h-0.543c-0.275,0-0.533-0.052-0.777-0.156c-0.242-0.104-0.455-0.246-0.635-0.428
			c-0.182-0.181-0.324-0.394-0.428-0.637c-0.105-0.242-0.156-0.501-0.156-0.775v-3.063c0-0.273,0.051-0.532,0.156-0.775
			c0.104-0.243,0.246-0.455,0.428-0.637c0.18-0.182,0.393-0.324,0.635-0.428c0.244-0.104,0.502-0.156,0.777-0.156h0.543
			c0.273,0,0.533,0.053,0.775,0.156c0.244,0.104,0.455,0.246,0.637,0.428s0.324,0.394,0.428,0.637s0.156,0.502,0.156,0.775v1.599
			h-3.721v1.512c0,0.163,0.031,0.316,0.094,0.46c0.063,0.145,0.146,0.269,0.252,0.375s0.23,0.19,0.375,0.252
			c0.143,0.063,0.297,0.093,0.461,0.093h0.543c0.164,0,0.316-0.03,0.461-0.093c0.145-0.062,0.27-0.146,0.375-0.252
			s0.189-0.23,0.252-0.375c0.063-0.144,0.092-0.297,0.092-0.46v-0.451l0.816,0.133v0.271
			C157.524,86.744,157.472,87.003,157.368,87.245z M156.708,83.36c0-0.164-0.029-0.317-0.092-0.461s-0.146-0.269-0.252-0.375
			s-0.23-0.189-0.375-0.252c-0.145-0.062-0.297-0.093-0.461-0.093h-0.543c-0.164,0-0.318,0.031-0.461,0.093
			c-0.145,0.063-0.27,0.146-0.375,0.252s-0.189,0.231-0.252,0.375s-0.094,0.297-0.094,0.461v1.008h2.904V83.36z"/>
	</g>
	<path class="st1" d="M130.314,116.357h-7.293c-0.004-6.616,0-1.257,0.004-11.487l-7.473-0.002c0,1.252-0.01,3.186-0.006,11.489
		h-7.283l11.025,16.734L130.314,116.357z"/>
	<g>
		<path class="st2" d="M80.485,156.708l-2.578-4.058h-1.174v4.058h-0.855v-9.509h3.016c0.324,0,0.627,0.062,0.91,0.183
			c0.281,0.122,0.529,0.288,0.742,0.501c0.211,0.212,0.379,0.461,0.5,0.746s0.182,0.589,0.182,0.911v0.77
			c0,0.322-0.061,0.626-0.182,0.911s-0.289,0.534-0.5,0.746c-0.213,0.213-0.461,0.379-0.742,0.501
			c-0.283,0.121-0.586,0.183-0.91,0.183l2.58,4.058H80.485z M80.372,149.54c0-0.212-0.039-0.41-0.119-0.593
			c-0.078-0.184-0.188-0.346-0.324-0.484c-0.137-0.14-0.297-0.249-0.48-0.328c-0.184-0.08-0.381-0.119-0.594-0.119h-2.121v3.818
			h2.121c0.213,0,0.41-0.039,0.594-0.119c0.184-0.079,0.344-0.188,0.48-0.328c0.137-0.139,0.246-0.301,0.324-0.483
			c0.08-0.184,0.119-0.382,0.119-0.594V149.54z"/>
		<path class="st2" d="M87.212,155.62c-0.104,0.243-0.246,0.456-0.428,0.637c-0.182,0.182-0.393,0.324-0.637,0.428
			c-0.242,0.104-0.502,0.156-0.775,0.156h-0.543c-0.275,0-0.533-0.052-0.777-0.156c-0.242-0.104-0.455-0.246-0.635-0.428
			c-0.182-0.181-0.324-0.394-0.428-0.637c-0.105-0.242-0.156-0.501-0.156-0.775v-3.063c0-0.273,0.051-0.532,0.156-0.775
			c0.104-0.243,0.246-0.455,0.428-0.637c0.18-0.182,0.393-0.324,0.635-0.428c0.244-0.104,0.502-0.156,0.777-0.156h0.543
			c0.273,0,0.533,0.053,0.775,0.156c0.244,0.104,0.455,0.246,0.637,0.428s0.324,0.394,0.428,0.637s0.156,0.502,0.156,0.775v1.599
			h-3.721v1.512c0,0.163,0.031,0.316,0.094,0.46c0.063,0.145,0.146,0.269,0.252,0.375s0.23,0.19,0.375,0.252
			c0.143,0.063,0.297,0.093,0.461,0.093h0.543c0.164,0,0.316-0.03,0.461-0.093c0.145-0.062,0.27-0.146,0.375-0.252
			s0.189-0.23,0.252-0.375c0.063-0.144,0.092-0.297,0.092-0.46v-0.451l0.816,0.133v0.271
			C87.368,155.119,87.315,155.378,87.212,155.62z M86.552,151.735c0-0.164-0.029-0.317-0.092-0.461s-0.146-0.269-0.252-0.375
			s-0.23-0.189-0.375-0.252c-0.145-0.062-0.297-0.093-0.461-0.093h-0.543c-0.164,0-0.318,0.031-0.461,0.093
			c-0.145,0.063-0.27,0.146-0.375,0.252s-0.189,0.231-0.252,0.375s-0.094,0.297-0.094,0.461v1.008h2.904V151.735z"/>
		<path class="st2" d="M92.72,156.708v-4.973c0-0.164-0.031-0.317-0.094-0.461c-0.061-0.144-0.145-0.269-0.252-0.375
			c-0.105-0.106-0.23-0.189-0.373-0.252c-0.145-0.062-0.299-0.093-0.461-0.093h-0.545c-0.164,0-0.316,0.031-0.461,0.093
			c-0.143,0.063-0.268,0.146-0.375,0.252c-0.105,0.106-0.189,0.231-0.252,0.375c-0.061,0.144-0.092,0.297-0.092,0.461v4.973h-0.816
			v-6.79h0.273l0.443,0.689c0.186-0.252,0.418-0.451,0.699-0.6s0.588-0.223,0.918-0.223h0.207c0.273,0,0.531,0.053,0.775,0.156
			c0.242,0.104,0.455,0.246,0.637,0.428c0.18,0.182,0.322,0.394,0.428,0.637c0.104,0.243,0.154,0.502,0.154,0.775v4.927H92.72z"/>
		<path class="st2" d="M99.431,156.708l-0.451-0.689c-0.186,0.252-0.418,0.452-0.697,0.6c-0.277,0.148-0.582,0.223-0.914,0.223
			h-0.205c-0.275,0-0.533-0.052-0.777-0.156c-0.242-0.104-0.455-0.246-0.635-0.428c-0.182-0.181-0.324-0.394-0.428-0.637
			c-0.105-0.242-0.156-0.501-0.156-0.775v-3.063c0-0.273,0.051-0.532,0.156-0.775c0.104-0.243,0.246-0.455,0.428-0.637
			c0.18-0.182,0.393-0.324,0.635-0.428c0.244-0.104,0.502-0.156,0.777-0.156h0.205c0.305,0,0.588,0.063,0.848,0.187
			c0.262,0.123,0.484,0.296,0.67,0.517v-3.289h0.816v9.509H99.431z M98.886,151.735c0-0.164-0.029-0.317-0.092-0.461
			s-0.146-0.269-0.252-0.375s-0.23-0.189-0.375-0.252c-0.145-0.062-0.297-0.093-0.461-0.093h-0.543
			c-0.164,0-0.318,0.031-0.461,0.093c-0.145,0.063-0.27,0.146-0.375,0.252s-0.189,0.231-0.252,0.375s-0.094,0.297-0.094,0.461v3.156
			c0,0.163,0.031,0.316,0.094,0.46c0.063,0.145,0.146,0.269,0.252,0.375s0.23,0.19,0.375,0.252c0.143,0.063,0.297,0.093,0.461,0.093
			h0.543c0.164,0,0.316-0.03,0.461-0.093c0.145-0.062,0.27-0.146,0.375-0.252s0.189-0.23,0.252-0.375
			c0.063-0.144,0.092-0.297,0.092-0.46V151.735z"/>
		<path class="st2" d="M105.714,155.62c-0.105,0.243-0.248,0.456-0.428,0.637c-0.182,0.182-0.395,0.324-0.637,0.428
			c-0.244,0.104-0.502,0.156-0.775,0.156h-0.545c-0.273,0-0.533-0.052-0.775-0.156c-0.244-0.104-0.455-0.246-0.637-0.428
			c-0.182-0.181-0.324-0.394-0.428-0.637c-0.104-0.242-0.156-0.501-0.156-0.775v-3.063c0-0.273,0.053-0.532,0.156-0.775
			s0.246-0.455,0.428-0.637s0.393-0.324,0.637-0.428c0.242-0.104,0.502-0.156,0.775-0.156h0.545c0.273,0,0.531,0.053,0.775,0.156
			c0.242,0.104,0.455,0.246,0.637,0.428c0.18,0.182,0.322,0.394,0.428,0.637c0.104,0.243,0.154,0.502,0.154,0.775v1.599h-3.719
			v1.512c0,0.163,0.031,0.316,0.092,0.46c0.063,0.145,0.146,0.269,0.252,0.375c0.107,0.106,0.232,0.19,0.375,0.252
			c0.145,0.063,0.297,0.093,0.461,0.093h0.545c0.162,0,0.316-0.03,0.461-0.093c0.143-0.062,0.268-0.146,0.373-0.252
			c0.107-0.106,0.191-0.23,0.252-0.375c0.063-0.144,0.094-0.297,0.094-0.46v-0.451l0.814,0.133v0.271
			C105.868,155.119,105.817,155.378,105.714,155.62z M105.054,151.735c0-0.164-0.031-0.317-0.094-0.461
			c-0.061-0.144-0.145-0.269-0.252-0.375c-0.105-0.106-0.23-0.189-0.373-0.252c-0.145-0.062-0.299-0.093-0.461-0.093h-0.545
			c-0.164,0-0.316,0.031-0.461,0.093c-0.143,0.063-0.268,0.146-0.375,0.252c-0.105,0.106-0.189,0.231-0.252,0.375
			c-0.061,0.144-0.092,0.297-0.092,0.461v1.008h2.904V151.735z"/>
		<path class="st2" d="M109.497,150.694c-0.164,0-0.318,0.03-0.461,0.093c-0.145,0.062-0.27,0.146-0.375,0.252
			c-0.105,0.105-0.189,0.23-0.252,0.374s-0.094,0.298-0.094,0.461v4.834h-0.814v-6.79h0.271l0.443,0.689
			c0.188-0.252,0.42-0.451,0.701-0.6c0.279-0.148,0.586-0.223,0.918-0.223h0.477v0.909H109.497z"/>
		<path class="st2" d="M111.604,148.287v-1.088h0.949v1.088H111.604z M111.671,156.708v-6.79h0.816v6.79H111.671z"/>
		<path class="st2" d="M118.108,156.708v-4.973c0-0.164-0.029-0.317-0.092-0.461s-0.146-0.269-0.252-0.375s-0.23-0.189-0.375-0.252
			c-0.145-0.062-0.297-0.093-0.461-0.093h-0.543c-0.164,0-0.318,0.031-0.461,0.093c-0.145,0.063-0.27,0.146-0.375,0.252
			s-0.189,0.231-0.252,0.375s-0.094,0.297-0.094,0.461v4.973h-0.814v-6.79h0.271l0.443,0.689c0.188-0.252,0.42-0.451,0.701-0.6
			c0.279-0.148,0.586-0.223,0.918-0.223h0.205c0.273,0,0.533,0.053,0.775,0.156c0.244,0.104,0.455,0.246,0.637,0.428
			s0.324,0.394,0.428,0.637s0.156,0.502,0.156,0.775v4.927H118.108z"/>
		<path class="st2" d="M125.003,158.319c-0.105,0.229-0.248,0.427-0.428,0.59c-0.182,0.164-0.395,0.291-0.637,0.382
			c-0.244,0.09-0.502,0.136-0.775,0.136h-0.34c-0.273,0-0.531-0.046-0.775-0.136c-0.242-0.091-0.455-0.218-0.637-0.382
			c-0.182-0.163-0.324-0.36-0.428-0.59s-0.154-0.482-0.154-0.756v-0.026c0-0.266,0.047-0.509,0.145-0.729s0.23-0.413,0.398-0.577
			c-0.213-0.128-0.381-0.302-0.508-0.521c-0.125-0.219-0.189-0.461-0.189-0.726c0-0.239,0.051-0.461,0.154-0.667
			c0.102-0.205,0.24-0.372,0.416-0.5c-0.211-0.186-0.379-0.409-0.504-0.67c-0.123-0.261-0.186-0.546-0.186-0.855v-0.511
			c0-0.273,0.053-0.532,0.156-0.775s0.246-0.455,0.428-0.637s0.393-0.324,0.637-0.428c0.242-0.104,0.502-0.156,0.775-0.156h0.338
			c0.332,0,0.639,0.074,0.92,0.223c0.279,0.148,0.514,0.348,0.699,0.6l0.443-0.689h0.271v2.374c0,0.274-0.051,0.532-0.154,0.775
			c-0.105,0.243-0.248,0.456-0.428,0.637c-0.182,0.182-0.395,0.324-0.637,0.428c-0.244,0.104-0.502,0.156-0.777,0.156h-1.18
			c-0.092,0-0.182,0.019-0.266,0.056c-0.084,0.038-0.158,0.088-0.221,0.149c-0.064,0.063-0.115,0.136-0.15,0.223
			c-0.035,0.086-0.053,0.176-0.053,0.269s0.018,0.181,0.053,0.265s0.086,0.158,0.15,0.223c0.063,0.063,0.137,0.113,0.221,0.148
			c0.084,0.036,0.174,0.054,0.266,0.054h1.115c0.273,0,0.531,0.045,0.775,0.136c0.242,0.091,0.455,0.218,0.637,0.381
			c0.18,0.164,0.322,0.36,0.428,0.591c0.104,0.229,0.154,0.481,0.154,0.756v0.026C125.157,157.837,125.106,158.09,125.003,158.319z
			 M124.415,151.735c0-0.164-0.031-0.317-0.092-0.461c-0.063-0.144-0.148-0.269-0.256-0.375c-0.109-0.106-0.234-0.189-0.379-0.252
			c-0.143-0.062-0.297-0.093-0.461-0.093h-0.676c-0.164,0-0.316,0.031-0.461,0.093c-0.143,0.063-0.268,0.146-0.375,0.252
			c-0.105,0.106-0.189,0.231-0.252,0.375c-0.061,0.144-0.092,0.297-0.092,0.461v0.604c0,0.163,0.031,0.316,0.092,0.46
			c0.063,0.145,0.146,0.269,0.252,0.375c0.107,0.106,0.232,0.19,0.375,0.252c0.145,0.062,0.297,0.093,0.461,0.093h0.676
			c0.164,0,0.318-0.031,0.461-0.093c0.145-0.062,0.27-0.146,0.379-0.252c0.107-0.106,0.193-0.23,0.256-0.375
			c0.061-0.144,0.092-0.297,0.092-0.46V151.735z M124.382,157.497c0-0.164-0.031-0.311-0.092-0.441
			c-0.063-0.13-0.146-0.239-0.252-0.328c-0.107-0.088-0.232-0.156-0.375-0.205c-0.145-0.049-0.297-0.073-0.461-0.073h-0.418
			c-0.164,0-0.316,0.024-0.461,0.073s-0.268,0.117-0.375,0.205c-0.105,0.089-0.189,0.198-0.252,0.328
			c-0.061,0.131-0.092,0.277-0.092,0.441v0.106c0,0.163,0.031,0.309,0.092,0.438c0.063,0.128,0.146,0.237,0.252,0.328
			c0.107,0.091,0.23,0.16,0.375,0.209c0.145,0.048,0.297,0.072,0.461,0.072h0.418c0.164,0,0.316-0.024,0.461-0.072
			c0.143-0.049,0.268-0.118,0.375-0.209c0.105-0.091,0.189-0.2,0.252-0.328c0.061-0.129,0.092-0.274,0.092-0.438V157.497z"/>
		<path class="st2" d="M134.226,155.62c-0.104,0.243-0.246,0.456-0.428,0.637c-0.182,0.182-0.393,0.324-0.637,0.428
			c-0.242,0.104-0.502,0.156-0.775,0.156h-0.543c-0.275,0-0.533-0.052-0.777-0.156c-0.242-0.104-0.455-0.246-0.635-0.428
			c-0.182-0.181-0.324-0.394-0.428-0.637c-0.105-0.242-0.156-0.501-0.156-0.775v-3.063c0-0.273,0.051-0.532,0.156-0.775
			c0.104-0.243,0.246-0.455,0.428-0.637c0.18-0.182,0.393-0.324,0.635-0.428c0.244-0.104,0.502-0.156,0.777-0.156h0.543
			c0.273,0,0.533,0.053,0.775,0.156c0.244,0.104,0.455,0.246,0.637,0.428s0.324,0.394,0.428,0.637s0.156,0.502,0.156,0.775v1.599
			h-3.721v1.512c0,0.163,0.031,0.316,0.094,0.46c0.063,0.145,0.146,0.269,0.252,0.375s0.23,0.19,0.375,0.252
			c0.143,0.063,0.297,0.093,0.461,0.093h0.543c0.164,0,0.316-0.03,0.461-0.093c0.145-0.062,0.27-0.146,0.375-0.252
			s0.189-0.23,0.252-0.375c0.063-0.144,0.092-0.297,0.092-0.46v-0.451l0.816,0.133v0.271
			C134.382,155.119,134.329,155.378,134.226,155.62z M133.565,151.735c0-0.164-0.029-0.317-0.092-0.461s-0.146-0.269-0.252-0.375
			s-0.23-0.189-0.375-0.252c-0.145-0.062-0.297-0.093-0.461-0.093h-0.543c-0.164,0-0.318,0.031-0.461,0.093
			c-0.145,0.063-0.27,0.146-0.375,0.252s-0.189,0.231-0.252,0.375s-0.094,0.297-0.094,0.461v1.008h2.904V151.735z"/>
		<path class="st2" d="M139.733,156.708v-4.973c0-0.164-0.031-0.317-0.094-0.461c-0.061-0.144-0.145-0.269-0.252-0.375
			c-0.105-0.106-0.23-0.189-0.373-0.252c-0.145-0.062-0.299-0.093-0.461-0.093h-0.545c-0.164,0-0.316,0.031-0.461,0.093
			c-0.143,0.063-0.268,0.146-0.375,0.252c-0.105,0.106-0.189,0.231-0.252,0.375c-0.061,0.144-0.092,0.297-0.092,0.461v4.973h-0.816
			v-6.79h0.273l0.443,0.689c0.186-0.252,0.418-0.451,0.699-0.6s0.588-0.223,0.918-0.223h0.207c0.273,0,0.531,0.053,0.775,0.156
			c0.242,0.104,0.455,0.246,0.637,0.428c0.18,0.182,0.322,0.394,0.428,0.637c0.104,0.243,0.154,0.502,0.154,0.775v4.927H139.733z"/>
		<path class="st2" d="M146.626,158.319c-0.104,0.229-0.246,0.427-0.428,0.59c-0.182,0.164-0.393,0.291-0.637,0.382
			c-0.242,0.09-0.502,0.136-0.775,0.136h-0.338c-0.273,0-0.533-0.046-0.775-0.136c-0.244-0.091-0.455-0.218-0.637-0.382
			c-0.182-0.163-0.324-0.36-0.428-0.59s-0.156-0.482-0.156-0.756v-0.026c0-0.266,0.049-0.509,0.146-0.729
			c0.096-0.221,0.229-0.413,0.396-0.577c-0.211-0.128-0.381-0.302-0.506-0.521c-0.127-0.219-0.189-0.461-0.189-0.726
			c0-0.239,0.051-0.461,0.152-0.667c0.102-0.205,0.24-0.372,0.418-0.5c-0.213-0.186-0.381-0.409-0.504-0.67
			c-0.125-0.261-0.186-0.546-0.186-0.855v-0.511c0-0.273,0.051-0.532,0.156-0.775c0.104-0.243,0.246-0.455,0.428-0.637
			c0.18-0.182,0.393-0.324,0.635-0.428c0.244-0.104,0.502-0.156,0.777-0.156h0.338c0.332,0,0.637,0.074,0.918,0.223
			s0.514,0.348,0.699,0.6l0.445-0.689h0.271v2.374c0,0.274-0.053,0.532-0.156,0.775s-0.246,0.456-0.428,0.637
			c-0.182,0.182-0.393,0.324-0.637,0.428c-0.242,0.104-0.502,0.156-0.775,0.156h-1.18c-0.094,0-0.182,0.019-0.266,0.056
			c-0.084,0.038-0.158,0.088-0.223,0.149c-0.064,0.063-0.113,0.136-0.148,0.223c-0.035,0.086-0.053,0.176-0.053,0.269
			s0.018,0.181,0.053,0.265s0.084,0.158,0.148,0.223c0.064,0.063,0.139,0.113,0.223,0.148c0.084,0.036,0.172,0.054,0.266,0.054
			h1.113c0.273,0,0.533,0.045,0.775,0.136c0.244,0.091,0.455,0.218,0.637,0.381c0.182,0.164,0.324,0.36,0.428,0.591
			c0.104,0.229,0.156,0.481,0.156,0.756v0.026C146.782,157.837,146.729,158.09,146.626,158.319z M146.04,151.735
			c0-0.164-0.031-0.317-0.094-0.461s-0.146-0.269-0.256-0.375c-0.107-0.106-0.234-0.189-0.377-0.252
			c-0.145-0.062-0.297-0.093-0.461-0.093h-0.676c-0.164,0-0.318,0.031-0.461,0.093c-0.145,0.063-0.27,0.146-0.375,0.252
			s-0.189,0.231-0.252,0.375s-0.094,0.297-0.094,0.461v0.604c0,0.163,0.031,0.316,0.094,0.46c0.063,0.145,0.146,0.269,0.252,0.375
			s0.23,0.19,0.375,0.252c0.143,0.062,0.297,0.093,0.461,0.093h0.676c0.164,0,0.316-0.031,0.461-0.093
			c0.143-0.062,0.27-0.146,0.377-0.252c0.109-0.106,0.193-0.23,0.256-0.375c0.063-0.144,0.094-0.297,0.094-0.46V151.735z
			 M146.007,157.497c0-0.164-0.031-0.311-0.094-0.441c-0.063-0.13-0.146-0.239-0.252-0.328c-0.105-0.088-0.23-0.156-0.375-0.205
			c-0.143-0.049-0.297-0.073-0.461-0.073h-0.416c-0.164,0-0.318,0.024-0.461,0.073c-0.145,0.049-0.27,0.117-0.375,0.205
			c-0.107,0.089-0.191,0.198-0.252,0.328c-0.063,0.131-0.094,0.277-0.094,0.441v0.106c0,0.163,0.031,0.309,0.094,0.438
			c0.061,0.128,0.145,0.237,0.252,0.328c0.105,0.091,0.23,0.16,0.375,0.209c0.143,0.048,0.297,0.072,0.461,0.072h0.416
			c0.164,0,0.318-0.024,0.461-0.072c0.145-0.049,0.27-0.118,0.375-0.209s0.189-0.2,0.252-0.328c0.063-0.129,0.094-0.274,0.094-0.438
			V157.497z"/>
		<path class="st2" d="M148.554,148.287v-1.088h0.947v1.088H148.554z M148.62,156.708v-6.79h0.814v6.79H148.62z"/>
		<path class="st2" d="M155.058,156.708v-4.973c0-0.164-0.031-0.317-0.094-0.461c-0.061-0.144-0.145-0.269-0.252-0.375
			c-0.105-0.106-0.23-0.189-0.373-0.252c-0.145-0.062-0.299-0.093-0.461-0.093h-0.545c-0.164,0-0.316,0.031-0.461,0.093
			c-0.143,0.063-0.268,0.146-0.375,0.252c-0.105,0.106-0.189,0.231-0.252,0.375c-0.061,0.144-0.092,0.297-0.092,0.461v4.973h-0.816
			v-6.79h0.273l0.443,0.689c0.186-0.252,0.418-0.451,0.699-0.6s0.588-0.223,0.918-0.223h0.207c0.273,0,0.531,0.053,0.775,0.156
			c0.242,0.104,0.455,0.246,0.637,0.428c0.18,0.182,0.322,0.394,0.428,0.637c0.104,0.243,0.154,0.502,0.154,0.775v4.927H155.058z"/>
		<path class="st2" d="M161.884,155.62c-0.104,0.243-0.246,0.456-0.428,0.637c-0.182,0.182-0.393,0.324-0.637,0.428
			c-0.242,0.104-0.502,0.156-0.775,0.156h-0.543c-0.275,0-0.533-0.052-0.777-0.156c-0.242-0.104-0.455-0.246-0.635-0.428
			c-0.182-0.181-0.324-0.394-0.428-0.637c-0.105-0.242-0.156-0.501-0.156-0.775v-3.063c0-0.273,0.051-0.532,0.156-0.775
			c0.104-0.243,0.246-0.455,0.428-0.637c0.18-0.182,0.393-0.324,0.635-0.428c0.244-0.104,0.502-0.156,0.777-0.156h0.543
			c0.273,0,0.533,0.053,0.775,0.156c0.244,0.104,0.455,0.246,0.637,0.428s0.324,0.394,0.428,0.637s0.156,0.502,0.156,0.775v1.599
			h-3.721v1.512c0,0.163,0.031,0.316,0.094,0.46c0.063,0.145,0.146,0.269,0.252,0.375s0.23,0.19,0.375,0.252
			c0.143,0.063,0.297,0.093,0.461,0.093h0.543c0.164,0,0.316-0.03,0.461-0.093c0.145-0.062,0.27-0.146,0.375-0.252
			s0.189-0.23,0.252-0.375c0.063-0.144,0.092-0.297,0.092-0.46v-0.451l0.816,0.133v0.271
			C162.04,155.119,161.987,155.378,161.884,155.62z M161.224,151.735c0-0.164-0.029-0.317-0.092-0.461s-0.146-0.269-0.252-0.375
			s-0.23-0.189-0.375-0.252c-0.145-0.062-0.297-0.093-0.461-0.093h-0.543c-0.164,0-0.318,0.031-0.461,0.093
			c-0.145,0.063-0.27,0.146-0.375,0.252s-0.189,0.231-0.252,0.375s-0.094,0.297-0.094,0.461v1.008h2.904V151.735z"/>
	</g>
	<rect x="254.295" y="12.297" width="29.248" height="199.763"/>
	<g>
		<path class="st2" d="M266.575,74.121c-0.283-0.121-0.529-0.288-0.742-0.5c-0.213-0.213-0.379-0.461-0.5-0.746
			c-0.123-0.285-0.184-0.59-0.184-0.912v-3.01h9.51v3.01c0,0.322-0.063,0.627-0.184,0.912s-0.287,0.533-0.5,0.746
			c-0.213,0.212-0.461,0.379-0.746,0.5c-0.285,0.122-0.59,0.183-0.912,0.183h-4.834C267.161,74.304,266.858,74.243,266.575,74.121z
			 M272.317,73.448c0.213,0,0.41-0.04,0.594-0.119c0.184-0.08,0.346-0.189,0.484-0.328c0.139-0.14,0.248-0.301,0.328-0.484
			s0.119-0.381,0.119-0.594v-2.115h-7.877v2.115c0,0.213,0.039,0.41,0.119,0.594s0.188,0.345,0.324,0.484
			c0.137,0.139,0.297,0.248,0.48,0.328c0.184,0.079,0.383,0.119,0.594,0.119H272.317z"/>
		<path class="st2" d="M265.149,80.331l0.678-0.451c-0.244-0.186-0.439-0.417-0.588-0.696c-0.148-0.278-0.223-0.583-0.223-0.915
			v-0.205c0-0.274,0.053-0.533,0.156-0.776s0.246-0.455,0.428-0.636c0.182-0.182,0.395-0.324,0.637-0.428
			c0.242-0.104,0.502-0.156,0.775-0.156h0.066c0.273,0,0.533,0.052,0.775,0.156c0.244,0.104,0.455,0.246,0.637,0.428
			c0.182,0.181,0.324,0.393,0.428,0.636s0.156,0.502,0.156,0.776v1.724h1.047c0.164,0,0.318-0.03,0.461-0.093
			c0.145-0.062,0.27-0.146,0.375-0.252c0.107-0.105,0.189-0.23,0.252-0.374c0.063-0.145,0.094-0.298,0.094-0.461V78.13
			c0-0.164-0.031-0.317-0.094-0.461s-0.145-0.269-0.252-0.375c-0.105-0.105-0.23-0.189-0.375-0.252
			c-0.143-0.062-0.297-0.093-0.461-0.093h-0.244l0.133-0.815h0.066c0.273,0,0.531,0.052,0.775,0.156
			c0.242,0.104,0.455,0.246,0.637,0.428c0.182,0.181,0.324,0.393,0.428,0.636s0.156,0.502,0.156,0.776v0.478
			c0,0.273-0.053,0.532-0.156,0.775s-0.246,0.455-0.428,0.637c-0.182,0.181-0.395,0.323-0.637,0.428
			c-0.244,0.104-0.502,0.155-0.775,0.155h-4.928V80.331z M268.438,79.787v-1.724c0-0.164-0.031-0.317-0.092-0.461
			c-0.063-0.144-0.148-0.269-0.256-0.375c-0.109-0.105-0.234-0.189-0.379-0.252c-0.143-0.062-0.297-0.093-0.461-0.093h-0.285
			c-0.162,0-0.316,0.031-0.459,0.093c-0.145,0.063-0.27,0.146-0.375,0.252c-0.107,0.106-0.191,0.231-0.252,0.375
			c-0.063,0.144-0.094,0.297-0.094,0.461v0.544c0,0.163,0.031,0.316,0.094,0.461c0.061,0.144,0.145,0.269,0.252,0.374
			c0.105,0.106,0.23,0.19,0.375,0.252c0.143,0.063,0.297,0.093,0.459,0.093H268.438z"/>
		<path class="st2" d="M265.149,84.708c0-0.248,0.047-0.481,0.141-0.7c0.092-0.219,0.221-0.408,0.383-0.569
			c0.164-0.162,0.354-0.29,0.57-0.385c0.217-0.096,0.449-0.143,0.697-0.143h4.223V81.69h0.777v1.221h1.631l0.133,0.815h-1.764v1.724
			h-0.777v-1.724h-4.262c-0.139,0-0.266,0.025-0.383,0.076s-0.219,0.12-0.309,0.209c-0.088,0.088-0.158,0.192-0.209,0.312
			s-0.076,0.247-0.076,0.385v0.742h-0.775V84.708z"/>
		<path class="st2" d="M265.149,91.213l0.678-0.451c-0.244-0.186-0.439-0.417-0.588-0.696c-0.148-0.278-0.223-0.583-0.223-0.915
			v-0.205c0-0.274,0.053-0.533,0.156-0.776s0.246-0.455,0.428-0.636c0.182-0.182,0.395-0.324,0.637-0.428
			c0.242-0.104,0.502-0.156,0.775-0.156h0.066c0.273,0,0.533,0.052,0.775,0.156c0.244,0.104,0.455,0.246,0.637,0.428
			c0.182,0.181,0.324,0.393,0.428,0.636s0.156,0.502,0.156,0.776v1.724h1.047c0.164,0,0.318-0.03,0.461-0.093
			c0.145-0.062,0.27-0.146,0.375-0.252c0.107-0.105,0.189-0.23,0.252-0.374c0.063-0.145,0.094-0.298,0.094-0.461v-0.478
			c0-0.164-0.031-0.317-0.094-0.461s-0.145-0.269-0.252-0.375c-0.105-0.105-0.23-0.189-0.375-0.252
			c-0.143-0.062-0.297-0.093-0.461-0.093h-0.244l0.133-0.815h0.066c0.273,0,0.531,0.052,0.775,0.156
			c0.242,0.104,0.455,0.246,0.637,0.428c0.182,0.181,0.324,0.393,0.428,0.636s0.156,0.502,0.156,0.776v0.478
			c0,0.273-0.053,0.532-0.156,0.775s-0.246,0.455-0.428,0.637c-0.182,0.181-0.395,0.323-0.637,0.428
			c-0.244,0.104-0.502,0.155-0.775,0.155h-4.928V91.213z M268.438,90.669v-1.724c0-0.164-0.031-0.317-0.092-0.461
			c-0.063-0.144-0.148-0.269-0.256-0.375c-0.109-0.105-0.234-0.189-0.379-0.252c-0.143-0.062-0.297-0.093-0.461-0.093h-0.285
			c-0.162,0-0.316,0.031-0.459,0.093c-0.145,0.063-0.27,0.146-0.375,0.252c-0.107,0.106-0.191,0.231-0.252,0.375
			c-0.063,0.144-0.094,0.297-0.094,0.461v0.544c0,0.163,0.031,0.316,0.094,0.461c0.061,0.144,0.145,0.269,0.252,0.374
			c0.105,0.106,0.23,0.19,0.375,0.252c0.143,0.063,0.297,0.093,0.459,0.093H268.438z"/>
		<path class="st2" d="M266.237,100.619c-0.242-0.104-0.455-0.247-0.637-0.428c-0.182-0.182-0.324-0.394-0.428-0.637
			s-0.156-0.502-0.156-0.775v-0.206c0-0.305,0.063-0.588,0.186-0.849c0.125-0.261,0.297-0.484,0.518-0.67h-3.289v-0.815h9.51v0.272
			l-0.689,0.443c0.252,0.187,0.451,0.419,0.6,0.7c0.148,0.28,0.223,0.587,0.223,0.918v0.206c0,0.273-0.053,0.532-0.156,0.775
			s-0.246,0.455-0.428,0.637c-0.182,0.181-0.395,0.323-0.637,0.428c-0.244,0.104-0.502,0.155-0.775,0.155h-3.064
			C266.739,100.774,266.479,100.723,266.237,100.619z M270.122,99.959c0.164,0,0.318-0.03,0.461-0.093
			c0.145-0.062,0.27-0.146,0.375-0.252c0.107-0.105,0.189-0.23,0.252-0.374c0.063-0.145,0.094-0.298,0.094-0.461v-0.544
			c0-0.164-0.031-0.317-0.094-0.461s-0.145-0.269-0.252-0.375c-0.105-0.105-0.23-0.189-0.375-0.252
			c-0.143-0.062-0.297-0.093-0.461-0.093h-3.156c-0.162,0-0.316,0.031-0.459,0.093c-0.145,0.063-0.27,0.146-0.375,0.252
			c-0.107,0.106-0.191,0.231-0.252,0.375c-0.063,0.144-0.094,0.297-0.094,0.461v0.544c0,0.163,0.031,0.316,0.094,0.461
			c0.061,0.144,0.145,0.269,0.252,0.374c0.105,0.106,0.23,0.19,0.375,0.252c0.143,0.063,0.297,0.093,0.459,0.093H270.122z"/>
		<path class="st2" d="M266.237,106.786c-0.242-0.104-0.455-0.247-0.637-0.428c-0.182-0.182-0.324-0.394-0.428-0.637
			s-0.156-0.502-0.156-0.775v-0.544c0-0.274,0.053-0.533,0.156-0.776s0.246-0.455,0.428-0.636c0.182-0.182,0.395-0.324,0.637-0.428
			c0.242-0.104,0.502-0.156,0.775-0.156h3.064c0.273,0,0.531,0.052,0.775,0.156c0.242,0.104,0.455,0.246,0.637,0.428
			c0.182,0.181,0.324,0.393,0.428,0.636s0.156,0.502,0.156,0.776v0.544c0,0.273-0.053,0.532-0.156,0.775s-0.246,0.455-0.428,0.637
			c-0.182,0.181-0.395,0.323-0.637,0.428c-0.244,0.104-0.502,0.155-0.775,0.155h-1.6v-3.72h-1.512c-0.162,0-0.316,0.031-0.459,0.093
			c-0.145,0.063-0.27,0.146-0.375,0.252c-0.107,0.106-0.191,0.231-0.252,0.375c-0.063,0.144-0.094,0.297-0.094,0.461v0.544
			c0,0.163,0.031,0.316,0.094,0.461c0.061,0.144,0.145,0.269,0.252,0.374c0.105,0.106,0.23,0.19,0.375,0.252
			c0.143,0.063,0.297,0.093,0.459,0.093h0.451l-0.133,0.815h-0.271C266.739,106.941,266.479,106.89,266.237,106.786z
			 M270.122,106.126c0.164,0,0.318-0.03,0.461-0.093c0.145-0.062,0.27-0.146,0.375-0.252c0.107-0.105,0.189-0.23,0.252-0.374
			c0.063-0.145,0.094-0.298,0.094-0.461v-0.544c0-0.164-0.031-0.317-0.094-0.461s-0.145-0.269-0.252-0.375
			c-0.105-0.105-0.23-0.189-0.375-0.252c-0.143-0.062-0.297-0.093-0.461-0.093h-1.008v2.904H270.122z"/>
		<path class="st2" d="M271.163,110.569c0-0.164-0.029-0.317-0.092-0.461s-0.146-0.269-0.252-0.375
			c-0.105-0.105-0.23-0.189-0.375-0.252c-0.143-0.062-0.297-0.093-0.461-0.093h-4.834v-0.815h6.791v0.272l-0.689,0.443
			c0.252,0.187,0.451,0.419,0.6,0.7c0.148,0.28,0.223,0.587,0.223,0.918v0.478h-0.91V110.569z"/>
		<path class="st2" d="M266.874,117.14c-0.273,0-0.525-0.055-0.752-0.166c-0.229-0.11-0.424-0.261-0.588-0.45
			c-0.164-0.19-0.291-0.41-0.381-0.66s-0.137-0.512-0.137-0.785v-0.544c0-0.274,0.053-0.536,0.156-0.786s0.246-0.469,0.428-0.656
			s0.395-0.338,0.637-0.451c0.242-0.112,0.502-0.169,0.775-0.169h0.271l0.133,0.815h-0.451c-0.162,0-0.316,0.034-0.459,0.104
			c-0.145,0.068-0.27,0.16-0.375,0.274c-0.107,0.115-0.191,0.248-0.252,0.398c-0.063,0.15-0.094,0.307-0.094,0.471v0.544
			c0,0.163,0.025,0.32,0.074,0.471c0.047,0.149,0.117,0.283,0.207,0.4c0.092,0.117,0.201,0.21,0.328,0.279
			c0.129,0.068,0.275,0.103,0.439,0.103c0.242,0,0.441-0.053,0.596-0.159s0.283-0.247,0.389-0.421
			c0.104-0.175,0.189-0.374,0.258-0.597c0.068-0.224,0.137-0.452,0.205-0.687s0.148-0.463,0.236-0.687
			c0.088-0.223,0.205-0.422,0.348-0.597c0.145-0.175,0.324-0.314,0.541-0.421s0.486-0.159,0.809-0.159
			c0.273,0,0.525,0.053,0.752,0.159c0.229,0.106,0.424,0.25,0.588,0.431c0.162,0.182,0.291,0.393,0.381,0.634
			c0.09,0.24,0.137,0.498,0.137,0.772v0.478c0,0.273-0.053,0.532-0.156,0.775s-0.246,0.455-0.428,0.637
			c-0.182,0.181-0.395,0.323-0.637,0.428c-0.244,0.104-0.502,0.155-0.775,0.155h-0.027l-0.133-0.815h0.205
			c0.164,0,0.318-0.031,0.461-0.093c0.145-0.062,0.27-0.146,0.375-0.252c0.107-0.106,0.189-0.231,0.252-0.375
			s0.094-0.297,0.094-0.46v-0.478c0-0.164-0.025-0.317-0.074-0.461s-0.117-0.269-0.209-0.375c-0.09-0.105-0.199-0.19-0.328-0.252
			c-0.127-0.062-0.273-0.093-0.438-0.093c-0.234,0-0.426,0.053-0.572,0.159c-0.148,0.106-0.273,0.246-0.375,0.421
			s-0.188,0.374-0.256,0.597c-0.068,0.224-0.139,0.451-0.211,0.684c-0.074,0.231-0.156,0.459-0.25,0.683
			c-0.092,0.224-0.211,0.422-0.357,0.597s-0.328,0.315-0.547,0.421C267.468,117.087,267.196,117.14,266.874,117.14z"/>
		<path class="st2" d="M265.149,118.977h6.791v0.815h-6.791V118.977z M273.571,118.91h1.088v0.948h-1.088V118.91z"/>
		<path class="st2" d="M266.874,126.362c-0.273,0-0.525-0.055-0.752-0.166c-0.229-0.11-0.424-0.261-0.588-0.45
			c-0.164-0.19-0.291-0.41-0.381-0.66s-0.137-0.512-0.137-0.785v-0.544c0-0.274,0.053-0.536,0.156-0.786s0.246-0.469,0.428-0.656
			s0.395-0.338,0.637-0.451c0.242-0.112,0.502-0.169,0.775-0.169h0.271l0.133,0.815h-0.451c-0.162,0-0.316,0.034-0.459,0.104
			c-0.145,0.068-0.27,0.16-0.375,0.274c-0.107,0.115-0.191,0.248-0.252,0.398c-0.063,0.15-0.094,0.307-0.094,0.471v0.544
			c0,0.163,0.025,0.32,0.074,0.471c0.047,0.149,0.117,0.283,0.207,0.4c0.092,0.117,0.201,0.21,0.328,0.279
			c0.129,0.068,0.275,0.103,0.439,0.103c0.242,0,0.441-0.053,0.596-0.159s0.283-0.247,0.389-0.421
			c0.104-0.175,0.189-0.374,0.258-0.597c0.068-0.224,0.137-0.452,0.205-0.687s0.148-0.463,0.236-0.687
			c0.088-0.223,0.205-0.422,0.348-0.597c0.145-0.175,0.324-0.314,0.541-0.421s0.486-0.159,0.809-0.159
			c0.273,0,0.525,0.053,0.752,0.159c0.229,0.106,0.424,0.25,0.588,0.431c0.162,0.182,0.291,0.393,0.381,0.634
			c0.09,0.24,0.137,0.498,0.137,0.772v0.478c0,0.273-0.053,0.532-0.156,0.775s-0.246,0.455-0.428,0.637
			c-0.182,0.181-0.395,0.323-0.637,0.428c-0.244,0.104-0.502,0.155-0.775,0.155h-0.027l-0.133-0.815h0.205
			c0.164,0,0.318-0.031,0.461-0.093c0.145-0.062,0.27-0.146,0.375-0.252c0.107-0.106,0.189-0.231,0.252-0.375
			s0.094-0.297,0.094-0.46v-0.478c0-0.164-0.025-0.317-0.074-0.461s-0.117-0.269-0.209-0.375c-0.09-0.105-0.199-0.19-0.328-0.252
			c-0.127-0.062-0.273-0.093-0.438-0.093c-0.234,0-0.426,0.053-0.572,0.159c-0.148,0.106-0.273,0.246-0.375,0.421
			s-0.188,0.374-0.256,0.597c-0.068,0.224-0.139,0.451-0.211,0.684c-0.074,0.231-0.156,0.459-0.25,0.683
			c-0.092,0.224-0.211,0.422-0.357,0.597s-0.328,0.315-0.547,0.421C267.468,126.31,267.196,126.362,266.874,126.362z"/>
		<path class="st2" d="M265.149,130.4c0-0.248,0.047-0.481,0.141-0.7c0.092-0.219,0.221-0.408,0.383-0.569
			c0.164-0.162,0.354-0.29,0.57-0.385c0.217-0.096,0.449-0.143,0.697-0.143h4.223v-1.221h0.777v1.221h1.631l0.133,0.815h-1.764
			v1.724h-0.777v-1.724h-4.262c-0.139,0-0.266,0.025-0.383,0.076s-0.219,0.12-0.309,0.209c-0.088,0.088-0.158,0.192-0.209,0.312
			s-0.076,0.247-0.076,0.385v0.742h-0.775V130.4z"/>
		<path class="st2" d="M266.237,137.021c-0.242-0.104-0.455-0.247-0.637-0.428c-0.182-0.182-0.324-0.394-0.428-0.637
			s-0.156-0.502-0.156-0.775v-0.544c0-0.274,0.053-0.533,0.156-0.776s0.246-0.455,0.428-0.636c0.182-0.182,0.395-0.324,0.637-0.428
			c0.242-0.104,0.502-0.156,0.775-0.156h3.064c0.273,0,0.531,0.052,0.775,0.156c0.242,0.104,0.455,0.246,0.637,0.428
			c0.182,0.181,0.324,0.393,0.428,0.636s0.156,0.502,0.156,0.776v0.544c0,0.273-0.053,0.532-0.156,0.775s-0.246,0.455-0.428,0.637
			c-0.182,0.181-0.395,0.323-0.637,0.428c-0.244,0.104-0.502,0.155-0.775,0.155h-1.6v-3.72h-1.512c-0.162,0-0.316,0.031-0.459,0.093
			c-0.145,0.063-0.27,0.146-0.375,0.252c-0.107,0.106-0.191,0.231-0.252,0.375c-0.063,0.144-0.094,0.297-0.094,0.461v0.544
			c0,0.163,0.031,0.316,0.094,0.461c0.061,0.144,0.145,0.269,0.252,0.374c0.105,0.106,0.23,0.19,0.375,0.252
			c0.143,0.063,0.297,0.093,0.459,0.093h0.451l-0.133,0.815h-0.271C266.739,137.177,266.479,137.125,266.237,137.021z
			 M270.122,136.361c0.164,0,0.318-0.03,0.461-0.093c0.145-0.062,0.27-0.146,0.375-0.252c0.107-0.105,0.189-0.23,0.252-0.374
			c0.063-0.145,0.094-0.298,0.094-0.461v-0.544c0-0.164-0.031-0.317-0.094-0.461s-0.145-0.269-0.252-0.375
			c-0.105-0.105-0.23-0.189-0.375-0.252c-0.143-0.062-0.297-0.093-0.461-0.093h-1.008v2.904H270.122z"/>
		<path class="st2" d="M265.149,142.528h4.973c0.164,0,0.318-0.03,0.461-0.093c0.145-0.062,0.27-0.146,0.375-0.252
			c0.107-0.105,0.189-0.23,0.252-0.374c0.063-0.145,0.094-0.298,0.094-0.461v-0.544c0-0.164-0.031-0.317-0.094-0.461
			s-0.145-0.269-0.252-0.375c-0.105-0.105-0.23-0.189-0.375-0.252c-0.143-0.062-0.297-0.093-0.461-0.093h-4.973v-0.815h6.791v0.272
			l-0.689,0.443c0.252,0.187,0.451,0.419,0.6,0.7c0.148,0.28,0.223,0.587,0.223,0.918v0.206c0,0.273-0.053,0.532-0.156,0.775
			s-0.246,0.455-0.428,0.637c-0.182,0.181-0.395,0.323-0.637,0.428c-0.244,0.104-0.502,0.155-0.775,0.155h-4.928V142.528z"/>
		<path class="st2" d="M266.237,149.355c-0.242-0.104-0.455-0.247-0.637-0.428c-0.182-0.182-0.324-0.394-0.428-0.637
			s-0.156-0.502-0.156-0.775v-0.544c0-0.274,0.053-0.533,0.156-0.776s0.246-0.455,0.428-0.636c0.182-0.182,0.395-0.324,0.637-0.428
			c0.242-0.104,0.502-0.156,0.775-0.156h3.064c0.273,0,0.531,0.052,0.775,0.156c0.242,0.104,0.455,0.246,0.637,0.428
			c0.182,0.181,0.324,0.393,0.428,0.636s0.156,0.502,0.156,0.776v0.544c0,0.273-0.053,0.532-0.156,0.775s-0.246,0.455-0.428,0.637
			c-0.182,0.181-0.395,0.323-0.637,0.428c-0.244,0.104-0.502,0.155-0.775,0.155h-0.273l-0.131-0.815h0.449
			c0.164,0,0.318-0.03,0.461-0.093c0.145-0.062,0.27-0.146,0.375-0.252c0.107-0.105,0.189-0.23,0.252-0.374
			c0.063-0.145,0.094-0.298,0.094-0.461v-0.544c0-0.164-0.031-0.317-0.094-0.461s-0.145-0.269-0.252-0.375
			c-0.105-0.105-0.23-0.189-0.375-0.252c-0.143-0.062-0.297-0.093-0.461-0.093h-3.156c-0.162,0-0.316,0.031-0.459,0.093
			c-0.145,0.063-0.27,0.146-0.375,0.252c-0.107,0.106-0.191,0.231-0.252,0.375c-0.063,0.144-0.094,0.297-0.094,0.461v0.544
			c0,0.163,0.031,0.316,0.094,0.461c0.061,0.144,0.145,0.269,0.252,0.374c0.105,0.106,0.23,0.19,0.375,0.252
			c0.143,0.063,0.297,0.093,0.459,0.093h0.451l-0.133,0.815h-0.271C266.739,149.511,266.479,149.459,266.237,149.355z"/>
		<path class="st2" d="M266.237,155.522c-0.242-0.104-0.455-0.247-0.637-0.428c-0.182-0.182-0.324-0.394-0.428-0.637
			s-0.156-0.502-0.156-0.775v-0.544c0-0.274,0.053-0.533,0.156-0.776s0.246-0.455,0.428-0.636c0.182-0.182,0.395-0.324,0.637-0.428
			c0.242-0.104,0.502-0.156,0.775-0.156h3.064c0.273,0,0.531,0.052,0.775,0.156c0.242,0.104,0.455,0.246,0.637,0.428
			c0.182,0.181,0.324,0.393,0.428,0.636s0.156,0.502,0.156,0.776v0.544c0,0.273-0.053,0.532-0.156,0.775s-0.246,0.455-0.428,0.637
			c-0.182,0.181-0.395,0.323-0.637,0.428c-0.244,0.104-0.502,0.155-0.775,0.155h-1.6v-3.72h-1.512c-0.162,0-0.316,0.031-0.459,0.093
			c-0.145,0.063-0.27,0.146-0.375,0.252c-0.107,0.106-0.191,0.231-0.252,0.375c-0.063,0.144-0.094,0.297-0.094,0.461v0.544
			c0,0.163,0.031,0.316,0.094,0.461c0.061,0.144,0.145,0.269,0.252,0.374c0.105,0.106,0.23,0.19,0.375,0.252
			c0.143,0.063,0.297,0.093,0.459,0.093h0.451l-0.133,0.815h-0.271C266.739,155.678,266.479,155.626,266.237,155.522z
			 M270.122,154.862c0.164,0,0.318-0.03,0.461-0.093c0.145-0.062,0.27-0.146,0.375-0.252c0.107-0.105,0.189-0.23,0.252-0.374
			c0.063-0.145,0.094-0.298,0.094-0.461v-0.544c0-0.164-0.031-0.317-0.094-0.461s-0.145-0.269-0.252-0.375
			c-0.105-0.105-0.23-0.189-0.375-0.252c-0.143-0.062-0.297-0.093-0.461-0.093h-1.008v2.904H270.122z"/>
	</g>
	<rect x="82.531" y="206.692" width="73.885" height="46.79"/>
	<g>
		<path class="st2" d="M97.149,224.415c-0.123,0.283-0.289,0.53-0.502,0.742c-0.211,0.213-0.459,0.38-0.742,0.501
			c-0.283,0.122-0.586,0.183-0.908,0.183h-0.271c-0.322,0-0.627-0.061-0.912-0.183c-0.285-0.121-0.533-0.288-0.746-0.501
			c-0.213-0.212-0.379-0.459-0.5-0.742c-0.123-0.283-0.184-0.586-0.184-0.908v-0.378l0.855-0.14v0.518
			c0,0.212,0.041,0.41,0.119,0.593c0.08,0.184,0.189,0.346,0.328,0.484c0.141,0.14,0.301,0.249,0.484,0.328
			c0.184,0.08,0.381,0.119,0.594,0.119h0.193c0.207,0,0.404-0.039,0.59-0.119c0.186-0.079,0.346-0.188,0.484-0.328
			c0.137-0.139,0.244-0.301,0.324-0.484c0.08-0.183,0.119-0.381,0.119-0.593v-7.308h0.855v7.308
			C97.331,223.829,97.27,224.132,97.149,224.415z"/>
		<path class="st2" d="M103.226,225.708l-0.451-0.677c-0.186,0.243-0.416,0.439-0.695,0.587c-0.279,0.148-0.584,0.223-0.916,0.223
			h-0.205c-0.273,0-0.533-0.052-0.775-0.156c-0.244-0.104-0.455-0.246-0.637-0.428c-0.182-0.181-0.324-0.394-0.428-0.637
			c-0.104-0.242-0.156-0.501-0.156-0.775v-0.066c0-0.273,0.053-0.532,0.156-0.775s0.246-0.455,0.428-0.637s0.393-0.324,0.637-0.428
			c0.242-0.104,0.502-0.156,0.775-0.156h1.725v-1.047c0-0.164-0.031-0.317-0.094-0.461c-0.061-0.144-0.145-0.269-0.252-0.375
			c-0.105-0.106-0.23-0.189-0.373-0.252c-0.145-0.062-0.299-0.093-0.461-0.093h-0.479c-0.164,0-0.316,0.031-0.461,0.093
			c-0.143,0.063-0.268,0.146-0.375,0.252c-0.105,0.106-0.189,0.231-0.252,0.375c-0.061,0.144-0.092,0.297-0.092,0.461v0.245
			l-0.816-0.133v-0.066c0-0.273,0.053-0.532,0.156-0.775s0.246-0.455,0.428-0.637s0.393-0.324,0.637-0.428
			c0.242-0.104,0.502-0.156,0.775-0.156h0.479c0.273,0,0.531,0.053,0.775,0.156c0.242,0.104,0.455,0.246,0.637,0.428
			c0.18,0.182,0.322,0.394,0.428,0.637c0.104,0.243,0.154,0.502,0.154,0.775v4.927H103.226z M102.683,222.419h-1.725
			c-0.164,0-0.316,0.031-0.461,0.093c-0.143,0.063-0.268,0.147-0.375,0.256c-0.105,0.108-0.189,0.234-0.252,0.378
			c-0.061,0.144-0.092,0.297-0.092,0.461v0.285c0,0.163,0.031,0.316,0.092,0.46c0.063,0.145,0.146,0.269,0.252,0.375
			c0.107,0.106,0.232,0.19,0.375,0.252c0.145,0.063,0.297,0.093,0.461,0.093h0.545c0.162,0,0.316-0.03,0.461-0.093
			c0.143-0.062,0.268-0.146,0.373-0.252c0.107-0.106,0.191-0.23,0.252-0.375c0.063-0.144,0.094-0.297,0.094-0.46V222.419z"/>
		<path class="st2" d="M107.259,225.708h-0.404l-2.408-6.79h0.816l1.77,5.146l0.027,0.352l0.025-0.352l1.764-5.146h0.816
			L107.259,225.708z"/>
		<path class="st2" d="M114.876,225.708l-0.451-0.677c-0.186,0.243-0.416,0.439-0.695,0.587c-0.279,0.148-0.584,0.223-0.916,0.223
			h-0.205c-0.273,0-0.533-0.052-0.775-0.156c-0.244-0.104-0.455-0.246-0.637-0.428c-0.182-0.181-0.324-0.394-0.428-0.637
			c-0.104-0.242-0.156-0.501-0.156-0.775v-0.066c0-0.273,0.053-0.532,0.156-0.775s0.246-0.455,0.428-0.637s0.393-0.324,0.637-0.428
			c0.242-0.104,0.502-0.156,0.775-0.156h1.725v-1.047c0-0.164-0.031-0.317-0.094-0.461c-0.061-0.144-0.145-0.269-0.252-0.375
			c-0.105-0.106-0.23-0.189-0.373-0.252c-0.145-0.062-0.299-0.093-0.461-0.093h-0.479c-0.164,0-0.316,0.031-0.461,0.093
			c-0.143,0.063-0.268,0.146-0.375,0.252c-0.105,0.106-0.189,0.231-0.252,0.375c-0.061,0.144-0.092,0.297-0.092,0.461v0.245
			l-0.816-0.133v-0.066c0-0.273,0.053-0.532,0.156-0.775s0.246-0.455,0.428-0.637s0.393-0.324,0.637-0.428
			c0.242-0.104,0.502-0.156,0.775-0.156h0.479c0.273,0,0.531,0.053,0.775,0.156c0.242,0.104,0.455,0.246,0.637,0.428
			c0.18,0.182,0.322,0.394,0.428,0.637c0.104,0.243,0.154,0.502,0.154,0.775v4.927H114.876z M114.333,222.419h-1.725
			c-0.164,0-0.316,0.031-0.461,0.093c-0.143,0.063-0.268,0.147-0.375,0.256c-0.105,0.108-0.189,0.234-0.252,0.378
			c-0.061,0.144-0.092,0.297-0.092,0.461v0.285c0,0.163,0.031,0.316,0.092,0.46c0.063,0.145,0.146,0.269,0.252,0.375
			c0.107,0.106,0.232,0.19,0.375,0.252c0.145,0.063,0.297,0.093,0.461,0.093h0.545c0.162,0,0.316-0.03,0.461-0.093
			c0.143-0.062,0.268-0.146,0.373-0.252c0.107-0.106,0.191-0.23,0.252-0.375c0.063-0.144,0.094-0.297,0.094-0.46V222.419z"/>
		<path class="st2" d="M122.263,223.507c0,0.322-0.064,0.625-0.195,0.908s-0.305,0.53-0.523,0.742
			c-0.219,0.213-0.473,0.38-0.762,0.501c-0.291,0.122-0.596,0.183-0.92,0.183h-0.682c-0.322,0-0.629-0.061-0.918-0.183
			c-0.291-0.121-0.545-0.288-0.764-0.501c-0.219-0.212-0.393-0.459-0.523-0.742s-0.195-0.586-0.195-0.908v-0.378l0.855-0.14v0.518
			c0,0.212,0.043,0.41,0.129,0.593c0.086,0.184,0.203,0.346,0.348,0.484c0.146,0.14,0.314,0.249,0.508,0.328
			c0.191,0.08,0.395,0.119,0.607,0.119h0.596c0.213,0,0.414-0.039,0.604-0.119c0.189-0.079,0.357-0.188,0.504-0.328
			c0.146-0.139,0.262-0.301,0.348-0.484c0.086-0.183,0.129-0.381,0.129-0.593v-0.285c0-0.327-0.063-0.599-0.191-0.815
			s-0.299-0.401-0.51-0.554c-0.213-0.152-0.453-0.282-0.721-0.388c-0.268-0.106-0.543-0.213-0.824-0.318
			c-0.283-0.106-0.559-0.224-0.826-0.352s-0.508-0.289-0.719-0.481c-0.213-0.191-0.383-0.427-0.512-0.706
			c-0.127-0.278-0.191-0.621-0.191-1.027v-0.179c0-0.323,0.061-0.626,0.182-0.909c0.121-0.282,0.289-0.53,0.5-0.742
			c0.213-0.212,0.461-0.379,0.746-0.501c0.285-0.121,0.59-0.182,0.912-0.182h0.609c0.324,0,0.627,0.061,0.91,0.182
			c0.281,0.122,0.529,0.289,0.742,0.501c0.211,0.212,0.379,0.46,0.5,0.742c0.121,0.283,0.182,0.586,0.182,0.909v0.245l-0.854,0.139
			v-0.384c0-0.213-0.041-0.41-0.121-0.594c-0.078-0.184-0.188-0.344-0.324-0.48c-0.137-0.138-0.297-0.246-0.48-0.325
			c-0.184-0.08-0.381-0.119-0.594-0.119h-0.531c-0.211,0-0.408,0.039-0.592,0.119c-0.184,0.079-0.346,0.188-0.484,0.325
			c-0.139,0.137-0.248,0.297-0.328,0.48s-0.119,0.381-0.119,0.594v0.179c0,0.305,0.063,0.562,0.191,0.77
			c0.129,0.207,0.299,0.386,0.512,0.533c0.211,0.148,0.451,0.276,0.719,0.385s0.543,0.219,0.826,0.331
			c0.281,0.113,0.557,0.237,0.824,0.372s0.508,0.301,0.721,0.497c0.211,0.196,0.381,0.437,0.51,0.72
			c0.129,0.282,0.191,0.627,0.191,1.034V223.507z"/>
		<path class="st2" d="M128.208,224.62c-0.104,0.243-0.246,0.456-0.428,0.637c-0.182,0.182-0.393,0.324-0.637,0.428
			c-0.242,0.104-0.502,0.156-0.775,0.156h-0.543c-0.275,0-0.533-0.052-0.777-0.156c-0.242-0.104-0.455-0.246-0.635-0.428
			c-0.182-0.181-0.324-0.394-0.428-0.637c-0.105-0.242-0.156-0.501-0.156-0.775v-3.063c0-0.273,0.051-0.532,0.156-0.775
			c0.104-0.243,0.246-0.455,0.428-0.637c0.18-0.182,0.393-0.324,0.635-0.428c0.244-0.104,0.502-0.156,0.777-0.156h0.543
			c0.273,0,0.533,0.053,0.775,0.156c0.244,0.104,0.455,0.246,0.637,0.428s0.324,0.394,0.428,0.637s0.156,0.502,0.156,0.775v0.272
			l-0.816,0.132v-0.45c0-0.164-0.029-0.317-0.092-0.461s-0.146-0.269-0.252-0.375s-0.23-0.189-0.375-0.252
			c-0.145-0.062-0.297-0.093-0.461-0.093h-0.543c-0.164,0-0.318,0.031-0.461,0.093c-0.145,0.063-0.27,0.146-0.375,0.252
			s-0.189,0.231-0.252,0.375s-0.094,0.297-0.094,0.461v3.156c0,0.163,0.031,0.316,0.094,0.46c0.063,0.145,0.146,0.269,0.252,0.375
			s0.23,0.19,0.375,0.252c0.143,0.063,0.297,0.093,0.461,0.093h0.543c0.164,0,0.316-0.03,0.461-0.093
			c0.145-0.062,0.27-0.146,0.375-0.252s0.189-0.23,0.252-0.375c0.063-0.144,0.092-0.297,0.092-0.46v-0.451l0.816,0.133v0.271
			C128.364,224.119,128.311,224.378,128.208,224.62z"/>
		<path class="st2" d="M131.991,219.694c-0.164,0-0.316,0.03-0.461,0.093c-0.143,0.062-0.268,0.146-0.375,0.252
			c-0.105,0.105-0.189,0.23-0.252,0.374c-0.061,0.144-0.092,0.298-0.092,0.461v4.834h-0.816v-6.79h0.273l0.443,0.689
			c0.186-0.252,0.418-0.451,0.699-0.6s0.588-0.223,0.918-0.223h0.479v0.909H131.991z"/>
		<path class="st2" d="M134.101,217.287v-1.088h0.947v1.088H134.101z M134.167,225.708v-6.79h0.814v6.79H134.167z"/>
		<path class="st2" d="M141.265,224.62c-0.105,0.243-0.248,0.456-0.428,0.637c-0.182,0.182-0.395,0.324-0.637,0.428
			c-0.244,0.104-0.502,0.156-0.775,0.156h-0.207c-0.305,0-0.588-0.063-0.848-0.186c-0.262-0.124-0.484-0.297-0.67-0.518v3.289
			h-0.816v-9.509h0.273l0.443,0.689c0.186-0.252,0.418-0.451,0.699-0.6s0.588-0.223,0.918-0.223h0.207
			c0.273,0,0.531,0.053,0.775,0.156c0.242,0.104,0.455,0.246,0.637,0.428c0.18,0.182,0.322,0.394,0.428,0.637
			c0.104,0.243,0.154,0.502,0.154,0.775v3.063C141.419,224.119,141.368,224.378,141.265,224.62z M140.604,220.735
			c0-0.164-0.031-0.317-0.094-0.461c-0.061-0.144-0.145-0.269-0.252-0.375c-0.105-0.106-0.23-0.189-0.373-0.252
			c-0.145-0.062-0.299-0.093-0.461-0.093h-0.545c-0.164,0-0.316,0.031-0.461,0.093c-0.143,0.063-0.268,0.146-0.375,0.252
			c-0.105,0.106-0.189,0.231-0.252,0.375c-0.061,0.144-0.092,0.297-0.092,0.461v3.156c0,0.163,0.031,0.316,0.092,0.46
			c0.063,0.145,0.146,0.269,0.252,0.375c0.107,0.106,0.232,0.19,0.375,0.252c0.145,0.063,0.297,0.093,0.461,0.093h0.545
			c0.162,0,0.316-0.03,0.461-0.093c0.143-0.062,0.268-0.146,0.373-0.252c0.107-0.106,0.191-0.23,0.252-0.375
			c0.063-0.144,0.094-0.297,0.094-0.46V220.735z"/>
		<path class="st2" d="M145.524,225.708c-0.248,0-0.48-0.047-0.699-0.14s-0.408-0.221-0.57-0.384
			c-0.162-0.164-0.289-0.354-0.385-0.57s-0.143-0.449-0.143-0.696v-4.224h-1.221v-0.776h1.221v-1.631l0.816-0.133v1.764h1.723v0.776
			h-1.723v4.263c0,0.138,0.025,0.265,0.076,0.382s0.119,0.22,0.209,0.309c0.088,0.088,0.191,0.158,0.311,0.209
			s0.248,0.076,0.385,0.076h0.742v0.775H145.524z"/>
		<path class="st2" d="M93.067,242.004v-9.509h0.855v9.509H93.067z"/>
		<path class="st2" d="M99.546,242.004v-4.973c0-0.164-0.031-0.317-0.094-0.461c-0.061-0.144-0.145-0.269-0.252-0.375
			c-0.105-0.106-0.23-0.189-0.373-0.252c-0.145-0.062-0.299-0.093-0.461-0.093h-0.545c-0.164,0-0.316,0.031-0.461,0.093
			c-0.143,0.063-0.268,0.146-0.375,0.252c-0.105,0.106-0.189,0.231-0.252,0.375c-0.061,0.144-0.092,0.297-0.092,0.461v4.973h-0.816
			v-6.79h0.273l0.443,0.689c0.186-0.252,0.418-0.451,0.699-0.6s0.588-0.223,0.918-0.223h0.207c0.273,0,0.531,0.053,0.775,0.156
			c0.242,0.104,0.455,0.246,0.637,0.428c0.18,0.182,0.322,0.394,0.428,0.637c0.104,0.243,0.154,0.502,0.154,0.775v4.927H99.546z"/>
		<path class="st2" d="M104.466,242.004c-0.248,0-0.48-0.047-0.699-0.14s-0.408-0.221-0.57-0.384
			c-0.162-0.164-0.289-0.354-0.385-0.57s-0.143-0.449-0.143-0.696v-4.224h-1.221v-0.776h1.221v-1.631l0.816-0.133v1.764h1.723v0.776
			h-1.723v4.263c0,0.138,0.025,0.265,0.076,0.382s0.119,0.22,0.209,0.309c0.088,0.088,0.191,0.158,0.311,0.209
			s0.248,0.076,0.385,0.076h0.742v0.775H104.466z"/>
		<path class="st2" d="M111.087,240.916c-0.104,0.243-0.246,0.456-0.428,0.637c-0.182,0.182-0.393,0.324-0.637,0.428
			c-0.242,0.104-0.502,0.156-0.775,0.156h-0.543c-0.275,0-0.533-0.052-0.777-0.156c-0.242-0.104-0.455-0.246-0.635-0.428
			c-0.182-0.181-0.324-0.394-0.428-0.637c-0.105-0.242-0.156-0.501-0.156-0.775v-3.063c0-0.273,0.051-0.532,0.156-0.775
			c0.104-0.243,0.246-0.455,0.428-0.637c0.18-0.182,0.393-0.324,0.635-0.428c0.244-0.104,0.502-0.156,0.777-0.156h0.543
			c0.273,0,0.533,0.053,0.775,0.156c0.244,0.104,0.455,0.246,0.637,0.428s0.324,0.394,0.428,0.637s0.156,0.502,0.156,0.775v1.599
			h-3.721v1.512c0,0.163,0.031,0.316,0.094,0.46c0.063,0.145,0.146,0.269,0.252,0.375s0.23,0.19,0.375,0.252
			c0.143,0.063,0.297,0.093,0.461,0.093h0.543c0.164,0,0.316-0.03,0.461-0.093c0.145-0.062,0.27-0.146,0.375-0.252
			s0.189-0.23,0.252-0.375c0.063-0.144,0.092-0.297,0.092-0.46v-0.451l0.816,0.133v0.271
			C111.243,240.415,111.19,240.674,111.087,240.916z M110.427,237.031c0-0.164-0.029-0.317-0.092-0.461s-0.146-0.269-0.252-0.375
			s-0.23-0.189-0.375-0.252c-0.145-0.062-0.297-0.093-0.461-0.093h-0.543c-0.164,0-0.318,0.031-0.461,0.093
			c-0.145,0.063-0.27,0.146-0.375,0.252s-0.189,0.231-0.252,0.375s-0.094,0.297-0.094,0.461v1.008h2.904V237.031z"/>
		<path class="st2" d="M114.87,235.99c-0.164,0-0.316,0.03-0.461,0.093c-0.143,0.062-0.268,0.146-0.375,0.252
			c-0.105,0.105-0.189,0.23-0.252,0.374c-0.061,0.144-0.092,0.298-0.092,0.461v4.834h-0.816v-6.79h0.273l0.443,0.689
			c0.186-0.252,0.418-0.451,0.699-0.6s0.588-0.223,0.918-0.223h0.479v0.909H114.87z"/>
		<path class="st2" d="M121.153,240.916c-0.105,0.243-0.248,0.456-0.428,0.637c-0.182,0.182-0.395,0.324-0.637,0.428
			c-0.244,0.104-0.502,0.156-0.775,0.156h-0.207c-0.305,0-0.588-0.063-0.848-0.186c-0.262-0.124-0.484-0.297-0.67-0.518v3.289
			h-0.816v-9.509h0.273l0.443,0.689c0.186-0.252,0.418-0.451,0.699-0.6s0.588-0.223,0.918-0.223h0.207
			c0.273,0,0.531,0.053,0.775,0.156c0.242,0.104,0.455,0.246,0.637,0.428c0.18,0.182,0.322,0.394,0.428,0.637
			c0.104,0.243,0.154,0.502,0.154,0.775v3.063C121.308,240.415,121.257,240.674,121.153,240.916z M120.493,237.031
			c0-0.164-0.031-0.317-0.094-0.461c-0.061-0.144-0.145-0.269-0.252-0.375c-0.105-0.106-0.23-0.189-0.373-0.252
			c-0.145-0.062-0.299-0.093-0.461-0.093h-0.545c-0.164,0-0.316,0.031-0.461,0.093c-0.143,0.063-0.268,0.146-0.375,0.252
			c-0.105,0.106-0.189,0.231-0.252,0.375c-0.061,0.144-0.092,0.297-0.092,0.461v3.156c0,0.163,0.031,0.316,0.092,0.46
			c0.063,0.145,0.146,0.269,0.252,0.375c0.107,0.106,0.232,0.19,0.375,0.252c0.145,0.063,0.297,0.093,0.461,0.093h0.545
			c0.162,0,0.316-0.03,0.461-0.093c0.143-0.062,0.268-0.146,0.373-0.252c0.107-0.106,0.191-0.23,0.252-0.375
			c0.063-0.144,0.094-0.297,0.094-0.46V237.031z"/>
		<path class="st2" d="M124.937,235.99c-0.164,0-0.318,0.03-0.461,0.093c-0.145,0.062-0.27,0.146-0.375,0.252
			c-0.105,0.105-0.189,0.23-0.252,0.374s-0.094,0.298-0.094,0.461v4.834h-0.814v-6.79h0.271l0.443,0.689
			c0.188-0.252,0.42-0.451,0.701-0.6c0.279-0.148,0.586-0.223,0.918-0.223h0.477v0.909H124.937z"/>
		<path class="st2" d="M131.218,240.916c-0.104,0.243-0.246,0.456-0.428,0.637c-0.182,0.182-0.393,0.324-0.637,0.428
			c-0.242,0.104-0.502,0.156-0.775,0.156h-0.543c-0.275,0-0.533-0.052-0.777-0.156c-0.242-0.104-0.455-0.246-0.635-0.428
			c-0.182-0.181-0.324-0.394-0.428-0.637c-0.105-0.242-0.156-0.501-0.156-0.775v-3.063c0-0.273,0.051-0.532,0.156-0.775
			c0.104-0.243,0.246-0.455,0.428-0.637c0.18-0.182,0.393-0.324,0.635-0.428c0.244-0.104,0.502-0.156,0.777-0.156h0.543
			c0.273,0,0.533,0.053,0.775,0.156c0.244,0.104,0.455,0.246,0.637,0.428s0.324,0.394,0.428,0.637s0.156,0.502,0.156,0.775v1.599
			h-3.721v1.512c0,0.163,0.031,0.316,0.094,0.46c0.063,0.145,0.146,0.269,0.252,0.375c0.105,0.106,0.23,0.19,0.375,0.252
			c0.143,0.063,0.297,0.093,0.461,0.093h0.543c0.164,0,0.316-0.03,0.461-0.093c0.145-0.062,0.27-0.146,0.375-0.252
			s0.189-0.23,0.252-0.375c0.063-0.144,0.092-0.297,0.092-0.46v-0.451l0.816,0.133v0.271
			C131.374,240.415,131.321,240.674,131.218,240.916z M130.558,237.031c0-0.164-0.029-0.317-0.092-0.461s-0.146-0.269-0.252-0.375
			s-0.23-0.189-0.375-0.252c-0.145-0.062-0.297-0.093-0.461-0.093h-0.543c-0.164,0-0.318,0.031-0.461,0.093
			c-0.145,0.063-0.27,0.146-0.375,0.252c-0.105,0.106-0.189,0.231-0.252,0.375s-0.094,0.297-0.094,0.461v1.008h2.904V237.031z"/>
		<path class="st2" d="M135.479,242.004c-0.248,0-0.482-0.047-0.701-0.14s-0.408-0.221-0.568-0.384
			c-0.162-0.164-0.291-0.354-0.385-0.57c-0.096-0.217-0.143-0.449-0.143-0.696v-4.224h-1.221v-0.776h1.221v-1.631l0.814-0.133v1.764
			h1.725v0.776h-1.725v4.263c0,0.138,0.025,0.265,0.076,0.382s0.121,0.22,0.209,0.309c0.088,0.088,0.193,0.158,0.313,0.209
			s0.246,0.076,0.385,0.076h0.742v0.775H135.479z"/>
		<path class="st2" d="M142.101,240.916c-0.105,0.243-0.248,0.456-0.428,0.637c-0.182,0.182-0.395,0.324-0.637,0.428
			c-0.244,0.104-0.502,0.156-0.775,0.156h-0.545c-0.273,0-0.533-0.052-0.775-0.156c-0.244-0.104-0.455-0.246-0.637-0.428
			c-0.182-0.181-0.324-0.394-0.428-0.637c-0.104-0.242-0.156-0.501-0.156-0.775v-3.063c0-0.273,0.053-0.532,0.156-0.775
			s0.246-0.455,0.428-0.637s0.393-0.324,0.637-0.428c0.242-0.104,0.502-0.156,0.775-0.156h0.545c0.273,0,0.531,0.053,0.775,0.156
			c0.242,0.104,0.455,0.246,0.637,0.428c0.18,0.182,0.322,0.394,0.428,0.637c0.104,0.243,0.154,0.502,0.154,0.775v1.599h-3.719
			v1.512c0,0.163,0.031,0.316,0.092,0.46c0.063,0.145,0.146,0.269,0.252,0.375c0.107,0.106,0.232,0.19,0.375,0.252
			c0.145,0.063,0.297,0.093,0.461,0.093h0.545c0.162,0,0.316-0.03,0.461-0.093c0.143-0.062,0.268-0.146,0.373-0.252
			c0.107-0.106,0.191-0.23,0.252-0.375c0.063-0.144,0.094-0.297,0.094-0.46v-0.451l0.814,0.133v0.271
			C142.255,240.415,142.204,240.674,142.101,240.916z M141.44,237.031c0-0.164-0.031-0.317-0.094-0.461
			c-0.061-0.144-0.145-0.269-0.252-0.375c-0.105-0.106-0.23-0.189-0.373-0.252c-0.145-0.062-0.299-0.093-0.461-0.093h-0.545
			c-0.164,0-0.316,0.031-0.461,0.093c-0.143,0.063-0.268,0.146-0.375,0.252c-0.105,0.106-0.189,0.231-0.252,0.375
			c-0.061,0.144-0.092,0.297-0.092,0.461v1.008h2.904V237.031z"/>
		<path class="st2" d="M145.884,235.99c-0.164,0-0.318,0.03-0.461,0.093c-0.145,0.062-0.27,0.146-0.375,0.252
			c-0.105,0.105-0.189,0.23-0.252,0.374s-0.094,0.298-0.094,0.461v4.834h-0.814v-6.79h0.271l0.443,0.689
			c0.188-0.252,0.42-0.451,0.701-0.6c0.279-0.148,0.586-0.223,0.918-0.223h0.477v0.909H145.884z"/>
	</g>
	<path class="st1" d="M130.314,184.732h-7.293c-0.004-6.616,0-1.257,0.004-11.487l-7.473-0.001c0,1.251-0.01,3.185-0.006,11.488
		h-7.283l11.025,16.734L130.314,184.732z"/>
	<rect x="165.576" y="206.692" width="73.885" height="46.79"/>
	<path class="st1" d="M213.359,184.732h-7.293c-0.004-6.616,0-137.575,0.004-147.806l-7.473-0.003
		c0,1.253-0.01,139.505-0.006,147.809h-7.283l11.025,16.734L213.359,184.732z"/>
	<rect x="0" y="206.692" width="73.885" height="46.79"/>
	<g>
		<path class="st2" d="M12.823,233.543l-3.965-6.923l-0.08-0.411v7.334H7.923v-9.509h0.443l3.967,6.93l0.086,0.404v-7.334h0.855
			v9.509H12.823z"/>
		<path class="st2" d="M19.556,232.455c-0.104,0.243-0.246,0.456-0.428,0.637c-0.182,0.182-0.393,0.324-0.637,0.428
			c-0.242,0.104-0.502,0.156-0.775,0.156h-0.543c-0.275,0-0.533-0.052-0.777-0.156c-0.242-0.104-0.455-0.246-0.635-0.428
			c-0.182-0.181-0.324-0.394-0.428-0.637c-0.105-0.242-0.156-0.501-0.156-0.775v-3.063c0-0.273,0.051-0.532,0.156-0.775
			c0.104-0.243,0.246-0.455,0.428-0.637c0.18-0.182,0.393-0.324,0.635-0.428c0.244-0.104,0.502-0.156,0.777-0.156h0.543
			c0.273,0,0.533,0.053,0.775,0.156c0.244,0.104,0.455,0.246,0.637,0.428s0.324,0.394,0.428,0.637s0.156,0.502,0.156,0.775v1.599
			h-3.721v1.512c0,0.163,0.031,0.316,0.094,0.46c0.063,0.145,0.146,0.269,0.252,0.375s0.23,0.19,0.375,0.252
			c0.143,0.063,0.297,0.093,0.461,0.093h0.543c0.164,0,0.316-0.03,0.461-0.093c0.145-0.062,0.27-0.146,0.375-0.252
			s0.189-0.23,0.252-0.375c0.063-0.144,0.092-0.297,0.092-0.46v-0.451l0.816,0.133v0.271
			C19.712,231.954,19.659,232.213,19.556,232.455z M18.895,228.57c0-0.164-0.029-0.317-0.092-0.461s-0.146-0.269-0.252-0.375
			s-0.23-0.189-0.375-0.252c-0.145-0.062-0.297-0.093-0.461-0.093h-0.543c-0.164,0-0.318,0.031-0.461,0.093
			c-0.145,0.063-0.27,0.146-0.375,0.252s-0.189,0.231-0.252,0.375s-0.094,0.297-0.094,0.461v1.008h2.904V228.57z"/>
		<path class="st2" d="M23.817,233.543c-0.248,0-0.482-0.047-0.701-0.14s-0.408-0.221-0.568-0.384
			c-0.162-0.164-0.291-0.354-0.385-0.57c-0.096-0.217-0.143-0.449-0.143-0.696v-4.224H20.8v-0.776h1.221v-1.631l0.814-0.133v1.764
			h1.725v0.776h-1.725v4.263c0,0.138,0.025,0.265,0.076,0.382s0.121,0.22,0.209,0.309c0.088,0.088,0.193,0.158,0.313,0.209
			s0.246,0.076,0.385,0.076h0.742v0.775H23.817z"/>
		<path class="st2" d="M31.774,233.543h-0.445l-1.59-5.119l-0.027-0.352l-0.027,0.352l-1.59,5.119h-0.451l-2.268-6.79h0.828
			l1.617,5.133l0.027,0.351l0.027-0.351l1.59-5.133h0.492l1.584,5.133l0.025,0.351l0.027-0.351l1.617-5.133h0.83L31.774,233.543z"/>
		<path class="st2" d="M39.376,232.455c-0.104,0.243-0.246,0.456-0.428,0.637c-0.182,0.182-0.393,0.324-0.637,0.428
			c-0.242,0.104-0.502,0.156-0.775,0.156h-0.543c-0.275,0-0.533-0.052-0.777-0.156c-0.242-0.104-0.455-0.246-0.635-0.428
			c-0.182-0.181-0.324-0.394-0.428-0.637c-0.105-0.242-0.156-0.501-0.156-0.775v-3.063c0-0.273,0.051-0.532,0.156-0.775
			c0.104-0.243,0.246-0.455,0.428-0.637c0.18-0.182,0.393-0.324,0.635-0.428c0.244-0.104,0.502-0.156,0.777-0.156h0.543
			c0.273,0,0.533,0.053,0.775,0.156c0.244,0.104,0.455,0.246,0.637,0.428s0.324,0.394,0.428,0.637s0.156,0.502,0.156,0.775v3.063
			C39.532,231.954,39.479,232.213,39.376,232.455z M38.716,228.57c0-0.164-0.029-0.317-0.092-0.461s-0.146-0.269-0.252-0.375
			s-0.23-0.189-0.375-0.252c-0.145-0.062-0.297-0.093-0.461-0.093h-0.543c-0.164,0-0.318,0.031-0.461,0.093
			c-0.145,0.063-0.27,0.146-0.375,0.252s-0.189,0.231-0.252,0.375s-0.094,0.297-0.094,0.461v3.156c0,0.163,0.031,0.316,0.094,0.46
			c0.063,0.145,0.146,0.269,0.252,0.375s0.23,0.19,0.375,0.252c0.143,0.063,0.297,0.093,0.461,0.093h0.543
			c0.164,0,0.316-0.03,0.461-0.093c0.145-0.062,0.27-0.146,0.375-0.252s0.189-0.23,0.252-0.375c0.063-0.144,0.092-0.297,0.092-0.46
			V228.57z"/>
		<path class="st2" d="M43.159,227.529c-0.164,0-0.316,0.03-0.461,0.093c-0.143,0.062-0.268,0.146-0.375,0.252
			c-0.105,0.105-0.189,0.23-0.252,0.374c-0.061,0.144-0.092,0.298-0.092,0.461v4.834h-0.816v-6.79h0.273l0.443,0.689
			c0.186-0.252,0.418-0.451,0.699-0.6s0.588-0.223,0.918-0.223h0.479v0.909H43.159z"/>
		<path class="st2" d="M45.335,233.543v-9.509h0.814v9.509H45.335z M49.081,233.543l-2.771-3.395l2.771-3.396h1.061l-2.838,3.396
			l2.838,3.395H49.081z"/>
		<path class="st2" d="M51.435,225.122v-1.088h0.949v1.088H51.435z M51.501,233.543v-6.79h0.816v6.79H51.501z"/>
		<path class="st2" d="M57.938,233.543v-4.973c0-0.164-0.029-0.317-0.092-0.461s-0.146-0.269-0.252-0.375s-0.23-0.189-0.375-0.252
			c-0.145-0.062-0.297-0.093-0.461-0.093h-0.543c-0.164,0-0.318,0.031-0.461,0.093c-0.145,0.063-0.27,0.146-0.375,0.252
			s-0.189,0.231-0.252,0.375s-0.094,0.297-0.094,0.461v4.973H54.22v-6.79h0.271l0.443,0.689c0.188-0.252,0.42-0.451,0.701-0.6
			c0.279-0.148,0.586-0.223,0.918-0.223h0.205c0.273,0,0.533,0.053,0.775,0.156c0.244,0.104,0.455,0.246,0.637,0.428
			s0.324,0.394,0.428,0.637s0.156,0.502,0.156,0.775v4.927H57.938z"/>
		<path class="st2" d="M64.833,235.154c-0.105,0.229-0.248,0.427-0.428,0.59c-0.182,0.164-0.395,0.291-0.637,0.382
			c-0.244,0.09-0.502,0.136-0.775,0.136h-0.34c-0.273,0-0.531-0.046-0.775-0.136c-0.242-0.091-0.455-0.218-0.637-0.382
			c-0.182-0.163-0.324-0.36-0.428-0.59s-0.154-0.482-0.154-0.756v-0.026c0-0.266,0.047-0.509,0.145-0.729s0.23-0.413,0.398-0.577
			c-0.213-0.128-0.381-0.302-0.508-0.521c-0.125-0.219-0.189-0.461-0.189-0.726c0-0.239,0.051-0.461,0.154-0.667
			c0.102-0.205,0.24-0.372,0.416-0.5c-0.211-0.186-0.379-0.409-0.504-0.67c-0.123-0.261-0.186-0.546-0.186-0.855v-0.511
			c0-0.273,0.053-0.532,0.156-0.775s0.246-0.455,0.428-0.637s0.393-0.324,0.637-0.428c0.242-0.104,0.502-0.156,0.775-0.156h0.338
			c0.332,0,0.639,0.074,0.92,0.223c0.279,0.148,0.514,0.348,0.699,0.6l0.443-0.689h0.271v2.374c0,0.274-0.051,0.532-0.154,0.775
			c-0.105,0.243-0.248,0.456-0.428,0.637c-0.182,0.182-0.395,0.324-0.637,0.428c-0.244,0.104-0.502,0.156-0.777,0.156h-1.18
			c-0.092,0-0.182,0.019-0.266,0.056c-0.084,0.038-0.158,0.088-0.221,0.149c-0.064,0.063-0.115,0.136-0.15,0.223
			c-0.035,0.086-0.053,0.176-0.053,0.269s0.018,0.181,0.053,0.265s0.086,0.158,0.15,0.223c0.063,0.063,0.137,0.113,0.221,0.148
			c0.084,0.036,0.174,0.054,0.266,0.054h1.115c0.273,0,0.531,0.045,0.775,0.136c0.242,0.091,0.455,0.218,0.637,0.381
			c0.18,0.164,0.322,0.36,0.428,0.591c0.104,0.229,0.154,0.481,0.154,0.756v0.026C64.987,234.672,64.937,234.925,64.833,235.154z
			 M64.245,228.57c0-0.164-0.031-0.317-0.092-0.461c-0.063-0.144-0.148-0.269-0.256-0.375c-0.109-0.106-0.234-0.189-0.379-0.252
			c-0.143-0.062-0.297-0.093-0.461-0.093h-0.676c-0.164,0-0.316,0.031-0.461,0.093c-0.143,0.063-0.268,0.146-0.375,0.252
			c-0.105,0.106-0.189,0.231-0.252,0.375c-0.061,0.144-0.092,0.297-0.092,0.461v0.604c0,0.163,0.031,0.316,0.092,0.46
			c0.063,0.145,0.146,0.269,0.252,0.375c0.107,0.106,0.232,0.19,0.375,0.252c0.145,0.062,0.297,0.093,0.461,0.093h0.676
			c0.164,0,0.318-0.031,0.461-0.093c0.145-0.062,0.27-0.146,0.379-0.252c0.107-0.106,0.193-0.23,0.256-0.375
			c0.061-0.144,0.092-0.297,0.092-0.46V228.57z M64.212,234.332c0-0.164-0.031-0.311-0.092-0.441
			c-0.063-0.13-0.146-0.239-0.252-0.328c-0.107-0.088-0.232-0.156-0.375-0.205c-0.145-0.049-0.297-0.073-0.461-0.073h-0.418
			c-0.164,0-0.316,0.024-0.461,0.073s-0.268,0.117-0.375,0.205c-0.105,0.089-0.189,0.198-0.252,0.328
			c-0.061,0.131-0.092,0.277-0.092,0.441v0.106c0,0.163,0.031,0.309,0.092,0.438c0.063,0.128,0.146,0.237,0.252,0.328
			c0.107,0.091,0.23,0.16,0.375,0.209c0.145,0.048,0.297,0.072,0.461,0.072h0.418c0.164,0,0.316-0.024,0.461-0.072
			c0.143-0.049,0.268-0.118,0.375-0.209c0.105-0.091,0.189-0.2,0.252-0.328c0.061-0.129,0.092-0.274,0.092-0.438V234.332z"/>
	</g>
	<g>
		<path class="st2" d="M179.042,232.25c-0.121,0.283-0.289,0.53-0.5,0.742c-0.213,0.213-0.461,0.38-0.742,0.501
			c-0.283,0.122-0.586,0.183-0.91,0.183h-0.676c-0.322,0-0.627-0.061-0.912-0.183c-0.285-0.121-0.533-0.288-0.746-0.501
			c-0.211-0.212-0.379-0.459-0.5-0.742s-0.182-0.586-0.182-0.908v-7.308h0.855v7.308c0,0.212,0.039,0.41,0.119,0.593
			c0.08,0.184,0.189,0.346,0.328,0.484c0.139,0.14,0.301,0.249,0.484,0.328c0.184,0.08,0.381,0.119,0.592,0.119h0.598
			c0.213,0,0.41-0.039,0.594-0.119c0.184-0.079,0.344-0.188,0.48-0.328c0.137-0.139,0.246-0.301,0.324-0.484
			c0.08-0.183,0.119-0.381,0.119-0.593v-7.308h0.855v7.308C179.224,231.664,179.163,231.967,179.042,232.25z"/>
		<path class="st2" d="M181.267,233.543v-9.509h0.855v9.509H181.267z"/>
		<path class="st2" d="M192.589,232.117c-0.121,0.283-0.289,0.53-0.5,0.743c-0.213,0.212-0.461,0.379-0.746,0.5
			c-0.285,0.122-0.59,0.183-0.912,0.183h-3.01v-9.509h3.01c0.322,0,0.627,0.062,0.912,0.183c0.285,0.122,0.533,0.288,0.746,0.501
			c0.211,0.212,0.379,0.461,0.5,0.746s0.182,0.589,0.182,0.911v0.093c0,0.226-0.029,0.441-0.09,0.646
			c-0.059,0.206-0.145,0.397-0.254,0.574c-0.111,0.177-0.242,0.337-0.393,0.48s-0.318,0.264-0.504,0.361
			c0.186,0.098,0.354,0.218,0.504,0.361s0.281,0.305,0.393,0.484c0.109,0.179,0.195,0.371,0.254,0.576
			c0.061,0.206,0.09,0.421,0.09,0.646v0.61C192.77,231.531,192.71,231.835,192.589,232.117z M191.915,226.375
			c0-0.212-0.039-0.41-0.119-0.593c-0.08-0.184-0.189-0.346-0.328-0.484c-0.139-0.14-0.301-0.249-0.484-0.328
			c-0.184-0.08-0.381-0.119-0.594-0.119h-2.115v3.275h2.115c0.213,0,0.41-0.04,0.594-0.12c0.184-0.079,0.346-0.188,0.484-0.328
			c0.139-0.139,0.248-0.3,0.328-0.483s0.119-0.382,0.119-0.594V226.375z M191.915,230.46c0-0.213-0.039-0.41-0.119-0.594
			s-0.189-0.344-0.328-0.48s-0.301-0.245-0.484-0.325c-0.184-0.079-0.381-0.119-0.594-0.119h-2.115v3.786h2.115
			c0.213,0,0.41-0.04,0.594-0.119c0.184-0.08,0.346-0.188,0.484-0.325s0.248-0.297,0.328-0.48s0.119-0.382,0.119-0.594V230.46z"/>
		<path class="st2" d="M198.394,233.543l-0.451-0.677c-0.186,0.243-0.416,0.439-0.695,0.587c-0.279,0.148-0.584,0.223-0.916,0.223
			h-0.205c-0.273,0-0.533-0.052-0.775-0.156c-0.244-0.104-0.455-0.246-0.637-0.428c-0.182-0.181-0.324-0.394-0.428-0.637
			c-0.104-0.242-0.156-0.501-0.156-0.775v-0.066c0-0.273,0.053-0.532,0.156-0.775s0.246-0.455,0.428-0.637s0.393-0.324,0.637-0.428
			c0.242-0.104,0.502-0.156,0.775-0.156h1.725v-1.047c0-0.164-0.031-0.317-0.094-0.461c-0.061-0.144-0.145-0.269-0.252-0.375
			c-0.105-0.106-0.23-0.189-0.373-0.252c-0.145-0.062-0.299-0.093-0.461-0.093h-0.479c-0.164,0-0.316,0.031-0.461,0.093
			c-0.143,0.063-0.268,0.146-0.375,0.252c-0.105,0.106-0.189,0.231-0.252,0.375c-0.061,0.144-0.092,0.297-0.092,0.461v0.245
			l-0.816-0.133v-0.066c0-0.273,0.053-0.532,0.156-0.775s0.246-0.455,0.428-0.637s0.393-0.324,0.637-0.428
			c0.242-0.104,0.502-0.156,0.775-0.156h0.479c0.273,0,0.531,0.053,0.775,0.156c0.242,0.104,0.455,0.246,0.637,0.428
			c0.18,0.182,0.322,0.394,0.428,0.637c0.104,0.243,0.154,0.502,0.154,0.775v4.927H198.394z M197.851,230.254h-1.725
			c-0.164,0-0.316,0.031-0.461,0.093c-0.143,0.063-0.268,0.147-0.375,0.256c-0.105,0.108-0.189,0.234-0.252,0.378
			c-0.061,0.144-0.092,0.297-0.092,0.461v0.285c0,0.163,0.031,0.316,0.092,0.46c0.063,0.145,0.146,0.269,0.252,0.375
			c0.107,0.106,0.232,0.19,0.375,0.252c0.145,0.063,0.297,0.093,0.461,0.093h0.545c0.162,0,0.316-0.03,0.461-0.093
			c0.143-0.062,0.268-0.146,0.373-0.252c0.107-0.106,0.191-0.23,0.252-0.375c0.063-0.144,0.094-0.297,0.094-0.46V230.254z"/>
		<path class="st2" d="M204.677,232.455c-0.104,0.243-0.246,0.456-0.428,0.637c-0.182,0.182-0.393,0.324-0.637,0.428
			c-0.242,0.104-0.502,0.156-0.775,0.156h-0.543c-0.275,0-0.533-0.052-0.777-0.156c-0.242-0.104-0.455-0.246-0.635-0.428
			c-0.182-0.181-0.324-0.394-0.428-0.637c-0.105-0.242-0.156-0.501-0.156-0.775v-3.063c0-0.273,0.051-0.532,0.156-0.775
			c0.104-0.243,0.246-0.455,0.428-0.637c0.18-0.182,0.393-0.324,0.635-0.428c0.244-0.104,0.502-0.156,0.777-0.156h0.543
			c0.273,0,0.533,0.053,0.775,0.156c0.244,0.104,0.455,0.246,0.637,0.428s0.324,0.394,0.428,0.637s0.156,0.502,0.156,0.775v0.272
			l-0.816,0.132v-0.45c0-0.164-0.029-0.317-0.092-0.461s-0.146-0.269-0.252-0.375s-0.23-0.189-0.375-0.252
			c-0.145-0.062-0.297-0.093-0.461-0.093h-0.543c-0.164,0-0.318,0.031-0.461,0.093c-0.145,0.063-0.27,0.146-0.375,0.252
			s-0.189,0.231-0.252,0.375s-0.094,0.297-0.094,0.461v3.156c0,0.163,0.031,0.316,0.094,0.46c0.063,0.145,0.146,0.269,0.252,0.375
			s0.23,0.19,0.375,0.252c0.143,0.063,0.297,0.093,0.461,0.093h0.543c0.164,0,0.316-0.03,0.461-0.093
			c0.145-0.062,0.27-0.146,0.375-0.252s0.189-0.23,0.252-0.375c0.063-0.144,0.092-0.297,0.092-0.46v-0.451l0.816,0.133v0.271
			C204.833,231.954,204.78,232.213,204.677,232.455z"/>
		<path class="st2" d="M206.737,233.543v-9.509h0.814v9.509H206.737z M210.483,233.543l-2.771-3.395l2.771-3.396h1.061l-2.838,3.396
			l2.838,3.395H210.483z"/>
		<path class="st2" d="M217.011,232.455c-0.104,0.243-0.246,0.456-0.428,0.637c-0.182,0.182-0.393,0.324-0.637,0.428
			c-0.242,0.104-0.502,0.156-0.775,0.156h-0.543c-0.275,0-0.533-0.052-0.777-0.156c-0.242-0.104-0.455-0.246-0.635-0.428
			c-0.182-0.181-0.324-0.394-0.428-0.637c-0.105-0.242-0.156-0.501-0.156-0.775v-3.063c0-0.273,0.051-0.532,0.156-0.775
			c0.104-0.243,0.246-0.455,0.428-0.637c0.18-0.182,0.393-0.324,0.635-0.428c0.244-0.104,0.502-0.156,0.777-0.156h0.543
			c0.273,0,0.533,0.053,0.775,0.156c0.244,0.104,0.455,0.246,0.637,0.428s0.324,0.394,0.428,0.637s0.156,0.502,0.156,0.775v1.599
			h-3.721v1.512c0,0.163,0.031,0.316,0.094,0.46c0.063,0.145,0.146,0.269,0.252,0.375s0.23,0.19,0.375,0.252
			c0.143,0.063,0.297,0.093,0.461,0.093h0.543c0.164,0,0.316-0.03,0.461-0.093c0.145-0.062,0.27-0.146,0.375-0.252
			s0.189-0.23,0.252-0.375c0.063-0.144,0.092-0.297,0.092-0.46v-0.451l0.816,0.133v0.271
			C217.167,231.954,217.114,232.213,217.011,232.455z M216.351,228.57c0-0.164-0.029-0.317-0.092-0.461s-0.146-0.269-0.252-0.375
			s-0.23-0.189-0.375-0.252c-0.145-0.062-0.297-0.093-0.461-0.093h-0.543c-0.164,0-0.318,0.031-0.461,0.093
			c-0.145,0.063-0.27,0.146-0.375,0.252s-0.189,0.231-0.252,0.375s-0.094,0.297-0.094,0.461v1.008h2.904V228.57z"/>
		<path class="st2" d="M222.519,233.543v-4.973c0-0.164-0.031-0.317-0.094-0.461c-0.061-0.144-0.145-0.269-0.252-0.375
			c-0.105-0.106-0.23-0.189-0.373-0.252c-0.145-0.062-0.299-0.093-0.461-0.093h-0.545c-0.164,0-0.316,0.031-0.461,0.093
			c-0.143,0.063-0.268,0.146-0.375,0.252c-0.105,0.106-0.189,0.231-0.252,0.375c-0.061,0.144-0.092,0.297-0.092,0.461v4.973h-0.816
			v-6.79h0.273l0.443,0.689c0.186-0.252,0.418-0.451,0.699-0.6s0.588-0.223,0.918-0.223h0.207c0.273,0,0.531,0.053,0.775,0.156
			c0.242,0.104,0.455,0.246,0.637,0.428c0.18,0.182,0.322,0.394,0.428,0.637c0.104,0.243,0.154,0.502,0.154,0.775v4.927H222.519z"/>
		<path class="st2" d="M229.229,233.543l-0.451-0.689c-0.186,0.252-0.418,0.452-0.697,0.6c-0.277,0.148-0.582,0.223-0.914,0.223
			h-0.205c-0.275,0-0.533-0.052-0.777-0.156c-0.242-0.104-0.455-0.246-0.635-0.428c-0.182-0.181-0.324-0.394-0.428-0.637
			c-0.105-0.242-0.156-0.501-0.156-0.775v-3.063c0-0.273,0.051-0.532,0.156-0.775c0.104-0.243,0.246-0.455,0.428-0.637
			c0.18-0.182,0.393-0.324,0.635-0.428c0.244-0.104,0.502-0.156,0.777-0.156h0.205c0.305,0,0.588,0.063,0.848,0.187
			c0.262,0.123,0.484,0.296,0.67,0.517v-3.289h0.816v9.509H229.229z M228.685,228.57c0-0.164-0.029-0.317-0.092-0.461
			s-0.146-0.269-0.252-0.375s-0.23-0.189-0.375-0.252c-0.145-0.062-0.297-0.093-0.461-0.093h-0.543
			c-0.164,0-0.318,0.031-0.461,0.093c-0.145,0.063-0.27,0.146-0.375,0.252s-0.189,0.231-0.252,0.375s-0.094,0.297-0.094,0.461v3.156
			c0,0.163,0.031,0.316,0.094,0.46c0.063,0.145,0.146,0.269,0.252,0.375s0.23,0.19,0.375,0.252c0.143,0.063,0.297,0.093,0.461,0.093
			h0.543c0.164,0,0.316-0.03,0.461-0.093c0.145-0.062,0.27-0.146,0.375-0.252s0.189-0.23,0.252-0.375
			c0.063-0.144,0.092-0.297,0.092-0.46V228.57z"/>
	</g>
	<path class="st1" d="M47.783,184.732H40.49c-0.004-6.616,0-1.257,0.002-11.487l-7.473-0.001c0,1.251-0.008,3.185-0.004,11.488
		H25.73l11.027,16.734L47.783,184.732z"/>
</g>
</svg>