<!-- Generator: Adobe Illustrator 17.0.0, SVG Export Plug-In  -->
<svg version="1.1"
	 xmlns="http://www.w3.org/2000/svg" xmlns:xlink="http://www.w3.org/1999/xlink" xmlns:a="http://ns.adobe.com/AdobeSVGViewerExtensions/3.0/"
	 x="0px" y="0px" width="477.2px" height="339.445px" viewBox="0 0 477.2 339.445"
	 style="enable-background:new 0 0 477.2 339.445;" xml:space="preserve">
<style type="text/css">
	.st0{fill:#C9C9C9;}
	.st1{fill:#9A9A9B;}
	.st2{fill:#F16529;}
	.st3{fill:none;stroke:#000000;stroke-width:5;stroke-linejoin:round;stroke-miterlimit:10;}
	.st4{fill:none;stroke:#000000;stroke-width:4.9937;stroke-linejoin:round;stroke-miterlimit:10;}
	.st5{fill:none;stroke:#000000;stroke-width:4.9937;stroke-linejoin:round;stroke-miterlimit:10;stroke-dasharray:8.3228;}
	.st6{opacity:0.4;}
	.st7{fill:#FFFFFF;}
	.st8{fill:#ABABAB;}
	.st9{fill:#E6E7E8;}
	.st10{fill:#BCBEC0;}
	.st11{fill:#F1F2F2;}
	.st12{fill:none;stroke:#BCBEC0;stroke-width:4.9937;stroke-linejoin:round;stroke-miterlimit:10;}
	.st13{fill:none;stroke:#000000;stroke-width:3;stroke-miterlimit:10;}
	.st14{fill:#282F39;}
	.st15{fill:none;stroke:#000000;stroke-width:3.2;stroke-linejoin:round;stroke-miterlimit:10;}
</style>
<defs>
</defs>
<g>
	<g>
		<g>
			<g>
				<polygon points="95.835,61.593 95.835,48.727 64.782,70.22 95.835,91.71 95.835,80.593 286.835,80.593 286.835,61.593 				"/>
			</g>
		</g>
		<g>
			<g>
				<polygon points="375.835,290.593 375.835,304.956 406.888,283.464 375.835,261.971 375.835,271.593 183.835,271.593 
					183.835,290.593 				"/>
			</g>
		</g>
		<rect x="33.835" y="111.593" class="st0" width="20" height="21"/>
		<rect x="33.835" y="147.593" class="st1" width="20" height="21"/>
		<rect x="33.835" y="181.593" class="st2" width="20" height="21"/>
		<g>
			<polyline class="st3" points="38.335,113.593 38.335,128.093 56.835,128.093 			"/>
			<polyline class="st4" points="45.606,115.492 50.303,120.189 65.663,104.829 			"/>
			<line class="st3" x1="71.835" y1="117.093" x2="89.835" y2="117.093"/>
			<line class="st3" x1="71.835" y1="126.093" x2="112.835" y2="126.093"/>
		</g>
		<g>
			<polyline class="st3" points="38.335,148.593 38.335,164.093 56.835,164.093 			"/>
			<polyline class="st4" points="45.606,150.524 50.303,155.222 65.663,139.862 			"/>
			<line class="st3" x1="71.835" y1="152.093" x2="89.835" y2="152.093"/>
			<line class="st3" x1="71.835" y1="160.093" x2="112.835" y2="160.093"/>
		</g>
		<g>
			<polyline class="st3" points="38.335,183.593 38.335,198.093 56.835,198.093 			"/>
			<polyline class="st4" points="45.606,185.556 50.303,190.254 65.663,174.895 			"/>
			<line class="st3" x1="71.835" y1="188.093" x2="89.835" y2="188.093"/>
			<line class="st3" x1="71.835" y1="196.093" x2="112.835" y2="196.093"/>
		</g>
		<g>
			<g id="XMLID_46_">
				<g>
					<path class="st0" d="M272.403,164.05v146.361h-97.483v-50.264h-49.122H86.578v-70.311v-23.272
						c0-50.539,42.404-93.401,92.958-93.401C229.129,73.163,269.357,114.137,272.403,164.05z"/>
				</g>
				<g>
					<path class="st4" d="M272.403,310.411V164.05c-3.047-49.913-43.275-90.887-92.867-90.887
						c-50.554,0-92.958,42.862-92.958,93.401v23.272v70.311h39.221h49.122v50.264"/>
				</g>
			</g>
			<polyline class="st3" points="118.335,158.593 118.335,220.093 133.835,220.093 			"/>
		</g>
		<path class="st5" d="M209.908,64.548c17.649-13.912,39.928-22.213,64.146-22.213c57.273,0,103.701,46.43,103.701,103.702
			c0,22.487-7.158,43.304-19.32,60.293"/>
		<g>
			<path class="st2" d="M364.499,144.982c0-49.122-40.538-88.94-89.659-88.94c-49.118,0-89.245,39.817-89.245,88.94
				c0,38.445,24.24,71.188,58.24,83.606v25.005h63v-24.814C339.835,216.513,364.499,183.634,364.499,144.982z"/>
			<g class="st6">
				<path class="st7" d="M274.028,87.643c-32.541,0-58.92,26.379-58.92,58.918c0,32.542,26.379,58.921,58.92,58.921
					c32.541,0,58.92-26.379,58.92-58.921C332.948,114.021,306.569,87.643,274.028,87.643z M274.167,184.571
					c-20.914,0-37.869-16.955-37.869-37.871s16.955-37.87,37.869-37.87c20.917,0,37.872,16.954,37.872,37.87
					S295.084,184.571,274.167,184.571z"/>
			</g>
			<rect x="243.835" y="253.593" class="st8" width="63" height="13"/>
			<rect x="243.835" y="266.593" class="st9" width="63" height="7"/>
			<rect x="243.835" y="283.593" class="st9" width="63" height="7"/>
			<rect x="243.835" y="273.593" class="st8" width="63" height="10"/>
			<rect x="264.835" y="290.593" class="st8" width="23" height="17"/>
			<line class="st3" x1="238.835" y1="265.093" x2="309.835" y2="265.093"/>
			<line class="st3" x1="238.835" y1="274.093" x2="309.835" y2="274.093"/>
			<line class="st3" x1="238.835" y1="284.093" x2="309.835" y2="284.093"/>
			<line class="st3" x1="238.835" y1="291.093" x2="309.835" y2="291.093"/>
			<line class="st3" x1="264.835" y1="308.093" x2="287.835" y2="308.093"/>
			<line class="st3" x1="270.335" y1="253.593" x2="270.335" y2="188.593"/>
			<line class="st3" x1="280.335" y1="253.593" x2="280.335" y2="188.593"/>
		</g>
		<g>
			<g id="XMLID_45_">
				<g>
					<path class="st10" d="M318.859,136.661v21.326h-9.778c-0.093,0-2.256,3.929-2.407,4.202l8.438,7.069l-14.865,14.744
						l-8.744-8.501c-0.29,0.151-3.107,2.239-6.153,2.347v13.646h-21.324v-13.646c0-0.107-4.63-2.012-4.921-2.164l-7.767,8.684
						l-14.744-14.395l8.5-7.784c-0.153-0.273-2.241-4.202-2.331-4.202h-13.77v-21.326h13.77c0.09-3.044,2.086-6.563,2.237-6.854
						l-8.589-9.703l14.561-14.744l8.133,8.501c0.291-0.153,4.921-2.242,4.921-2.347v-9.885h21.324v9.885
						c3.046,0.104,5.863,2.347,6.153,2.497l9.003-8.362l14.744,15.049l-8.515,9.109c0.152,0.29,2.253,3.81,2.346,6.854H318.859z
						 M285.091,145.909c0-6.309-5.102-11.424-11.424-11.424c-6.305,0-11.424,5.115-11.424,11.424
						c0,6.305,5.119,11.423,11.424,11.423C279.989,157.332,285.091,152.214,285.091,145.909z"/>
					<path class="st11" d="M273.667,134.485c6.322,0,11.424,5.115,11.424,11.424c0,6.305-5.102,11.423-11.424,11.423
						c-6.305,0-11.424-5.118-11.424-11.423C262.243,139.601,267.362,134.485,273.667,134.485z"/>
				</g>
				<g>
					<path class="st3" d="M309.081,157.987h9.778v-21.326h-9.778c-0.093-3.044-2.193-6.563-2.346-6.854l8.515-9.109l-14.744-15.049
						l-9.003,8.362c-0.29-0.15-3.107-2.393-6.153-2.497v-9.885h-21.324v9.885c0,0.104-4.63,2.193-4.921,2.347l-8.133-8.501
						l-14.561,14.744l8.589,9.703c-0.151,0.29-2.147,3.81-2.237,6.854h-13.77v21.326h13.77c0.09,0,2.178,3.929,2.331,4.202
						l-8.5,7.784l14.744,14.395l7.767-8.684c0.291,0.152,4.921,2.057,4.921,2.164v13.646h21.324v-13.646
						c3.046-0.107,5.863-2.195,6.153-2.347l8.744,8.501l14.865-14.744l-8.438-7.069
						C306.825,161.916,308.988,157.987,309.081,157.987z"/>
				</g>
			</g>
		</g>
		<g>
			<g id="XMLID_44_">
				<g>
					<circle cx="326.725" cy="56.424" r="27.416"/>
				</g>
				<g>
					<circle class="st2" cx="326.725" cy="56.424" r="18.849"/>
				</g>
				<g>
					<circle class="st12" cx="326.725" cy="56.424" r="27.417"/>
				</g>
			</g>
			<polyline class="st4" points="314.54,59.09 320.823,65.373 341.193,44.999 			"/>
		</g>
		<g>
			<g id="XMLID_43_">
				<g>
					<rect x="329.902" y="98.87" class="st10" width="19.04" height="22.264"/>
					<polygon class="st11" points="338.786,128.165 329.902,128.165 329.902,121.134 348.942,121.134 348.942,128.165 					"/>
					<polygon class="st9" points="339.422,310.97 329.902,288.706 338.786,288.706 348.942,288.706 					"/>
					<polygon class="st2" points="338.786,288.706 329.902,288.706 329.902,128.165 338.786,128.165 338.786,288.12 					"/>
					<polygon class="st2" points="348.942,288.706 338.786,288.706 338.786,288.12 338.786,128.165 348.942,128.165 					"/>
				</g>
				<g>
					<line class="st4" x1="348.942" y1="128.165" x2="348.942" y2="288.706"/>
					<line class="st4" x1="329.902" y1="288.706" x2="329.902" y2="128.165"/>
					<polyline class="st4" points="338.786,127.579 338.786,128.165 338.786,288.12 					"/>
					<polyline class="st4" points="329.902,121.134 329.902,128.165 338.786,128.165 348.942,128.165 348.942,121.134 					"/>
					<rect x="329.902" y="98.87" class="st4" width="19.04" height="22.264"/>
					<polygon class="st3" points="348.942,288.706 339.422,310.97 329.902,288.706 338.786,288.706 					"/>
				</g>
			</g>
		</g>
		<g>
			<g>
				<line class="st3" x1="127.835" y1="283.093" x2="121.835" y2="283.093"/>
				<line class="st3" x1="116.835" y1="283.093" x2="108.835" y2="283.093"/>
				<line class="st3" x1="103.835" y1="283.093" x2="97.835" y2="283.093"/>
			</g>
			<line class="st3" x1="127.835" y1="293.093" x2="108.835" y2="293.093"/>
		</g>
		<g>
			<g>
				<line class="st3" x1="375.835" y1="237.093" x2="381.835" y2="237.093"/>
				<line class="st3" x1="386.835" y1="237.093" x2="394.835" y2="237.093"/>
				<line class="st3" x1="399.835" y1="237.093" x2="405.835" y2="237.093"/>
			</g>
			<line class="st3" x1="375.835" y1="226.093" x2="394.835" y2="226.093"/>
		</g>
		<g>
			<g>
				<line class="st3" x1="120.835" y1="38.093" x2="127.835" y2="38.093"/>
				<line class="st3" x1="133.835" y1="38.093" x2="138.835" y2="38.093"/>
				<line class="st3" x1="144.835" y1="38.093" x2="151.835" y2="38.093"/>
			</g>
			<line class="st3" x1="120.835" y1="28.093" x2="138.835" y2="28.093"/>
		</g>
		<circle cx="411.968" cy="120.937" r="5.852"/>
		<circle class="st2" cx="66.709" cy="268.702" r="5.852"/>
		<circle class="st2" cx="269.886" cy="5.852" r="5.852"/>
		<circle cx="180.374" cy="44.212" r="5.851"/>
		<circle class="st2" cx="423.334" cy="260.177" r="5.851"/>
		<circle cx="46.817" cy="88.258" r="5.851"/>
		<g id="XMLID_36_">
			<g id="XMLID_40_">
				<line id="XMLID_42_" class="st13" x1="234.345" y1="16.341" x2="231.163" y2="19.521"/>
				<line id="XMLID_41_" class="st13" x1="226.819" y1="23.865" x2="223.639" y2="27.046"/>
			</g>
			<g id="XMLID_37_">
				<line id="XMLID_39_" class="st13" x1="223.639" y1="16.341" x2="226.819" y2="19.521"/>
				<line id="XMLID_38_" class="st13" x1="231.163" y1="23.865" x2="234.345" y2="27.046"/>
			</g>
		</g>
		<g id="XMLID_29_">
			<g id="XMLID_33_">
				<line id="XMLID_35_" class="st13" x1="417.321" y1="164.544" x2="414.14" y2="167.725"/>
				<line id="XMLID_34_" class="st13" x1="409.796" y1="172.068" x2="406.615" y2="175.249"/>
			</g>
			<g id="XMLID_30_">
				<line id="XMLID_32_" class="st13" x1="406.615" y1="164.544" x2="409.796" y2="167.725"/>
				<line id="XMLID_31_" class="st13" x1="414.14" y1="172.068" x2="417.321" y2="175.249"/>
			</g>
		</g>
		<g id="XMLID_22_">
			<g id="XMLID_26_">
				<line id="XMLID_28_" class="st13" x1="66.803" y1="224.339" x2="63.621" y2="227.52"/>
				<line id="XMLID_27_" class="st13" x1="59.277" y1="231.863" x2="56.097" y2="235.044"/>
			</g>
			<g id="XMLID_23_">
				<line id="XMLID_25_" class="st13" x1="56.097" y1="224.339" x2="59.277" y2="227.52"/>
				<line id="XMLID_24_" class="st13" x1="63.621" y1="231.863" x2="66.803" y2="235.044"/>
			</g>
		</g>
	</g>
	<g>
		<rect x="237.978" y="337.701" width="35.253" height="1.744"/>
		<rect x="192.807" y="337.701" width="35.255" height="1.744"/>
		<rect x="182.892" y="337.701" width="3.305" height="1.744"/>
	</g>
	<g>
		<rect x="103.651" y="13.524" class="st14" width="35.253" height="1.744"/>
		<rect x="148.82" y="13.524" class="st14" width="35.255" height="1.744"/>
		<rect x="190.684" y="13.524" class="st14" width="3.304" height="1.744"/>
	</g>
	<g>
		<rect x="334.913" y="16.341" class="st14" width="71.574" height="1.764"/>
		<rect x="334.913" y="10.691" class="st14" width="47.086" height="1.766"/>
	</g>
	<g>
		<rect x="25.662" y="312.912" width="71.575" height="1.765"/>
		<rect x="50.15" y="307.263" width="47.087" height="1.766"/>
	</g>
	<g>
		<line class="st3" x1="441.291" y1="274.282" x2="464.386" y2="274.282"/>
		<line class="st3" x1="445.275" y1="262.737" x2="477.2" y2="262.737"/>
		<line class="st3" x1="443.917" y1="249.83" x2="456.823" y2="249.83"/>
	</g>
	<g>
		<line class="st15" x1="34.642" y1="99.868" x2="11.546" y2="99.868"/>
		<line class="st15" x1="31.925" y1="88.323" x2="0" y2="88.323"/>
		<line class="st15" x1="33.282" y1="75.417" x2="20.376" y2="75.417"/>
	</g>
	<g id="XMLID_15_">
		<g id="XMLID_19_">
			<line id="XMLID_21_" class="st13" x1="69.039" y1="33.372" x2="65.857" y2="36.553"/>
			<line id="XMLID_20_" class="st13" x1="61.514" y1="40.896" x2="58.333" y2="44.077"/>
		</g>
		<g id="XMLID_16_">
			<line id="XMLID_18_" class="st13" x1="58.333" y1="33.372" x2="61.514" y2="36.553"/>
			<line id="XMLID_17_" class="st13" x1="65.857" y1="40.896" x2="69.039" y2="44.077"/>
		</g>
	</g>
	<g id="XMLID_8_">
		<g id="XMLID_12_">
			<line id="XMLID_14_" class="st13" x1="158.239" y1="276.614" x2="155.058" y2="279.796"/>
			<line id="XMLID_13_" class="st13" x1="150.714" y1="284.14" x2="147.533" y2="287.32"/>
		</g>
		<g id="XMLID_9_">
			<line id="XMLID_11_" class="st13" x1="147.533" y1="276.614" x2="150.714" y2="279.796"/>
			<line id="XMLID_10_" class="st13" x1="155.058" y1="284.14" x2="158.239" y2="287.32"/>
		</g>
	</g>
	<g id="XMLID_1_">
		<g id="XMLID_5_">
			<line id="XMLID_7_" class="st13" x1="362.374" y1="326.263" x2="359.192" y2="329.443"/>
			<line id="XMLID_6_" class="st13" x1="354.849" y1="333.787" x2="351.668" y2="336.968"/>
		</g>
		<g id="XMLID_2_">
			<line id="XMLID_4_" class="st13" x1="351.668" y1="326.263" x2="354.849" y2="329.443"/>
			<line id="XMLID_3_" class="st13" x1="359.192" y1="333.787" x2="362.374" y2="336.968"/>
		</g>
	</g>
</g>
</svg>