<!-- Generator: Adobe Illustrator 17.0.0, SVG Export Plug-In  -->
<svg version="1.1"
	 xmlns="http://www.w3.org/2000/svg" xmlns:xlink="http://www.w3.org/1999/xlink" xmlns:a="http://ns.adobe.com/AdobeSVGViewerExtensions/3.0/"
	 x="0px" y="0px" width="200.488px" height="59.665px" viewBox="0 0 200.488 59.665"
	 style="enable-background:new 0 0 200.488 59.665;" xml:space="preserve">
<style type="text/css">
	.st0{fill:#E54F26;}
	.st1{fill:url(#SVGID_1_);}
	.st2{fill:#F5F5F5;}
	.st3{fill:#FFFFFF;}
	.st4{fill:#F1F1F1;}
	.st5{fill:url(#SVGID_2_);}
</style>
<defs>
</defs>
<g>
	<g>
		<polygon id="XMLID_7_" points="139.367,4.737 145.014,0 145.014,4.737 		"/>
		<rect x="0" y="7.106" class="st0" width="200.488" height="50.191"/>
		<linearGradient id="SVGID_1_" gradientUnits="userSpaceOnUse" x1="0" y1="29.8326" x2="200.4883" y2="29.8326">
			<stop  offset="0" style="stop-color:#F5F5F5"/>
			<stop  offset="1" style="stop-color:#E8E8E8"/>
		</linearGradient>
		<rect x="0" y="4.737" class="st1" width="200.488" height="50.19"/>
		<rect id="XMLID_6_" x="145.014" y="0" class="st0" width="36.803" height="59.665"/>
		<polygon id="XMLID_5_" points="139.367,57.206 145.014,59.665 145.014,57.206 		"/>
		<rect id="XMLID_4_" x="143.193" y="4.829" class="st2" width="1.73" height="52.377"/>
		<g id="XMLID_1_">
			<path id="XMLID_3_" class="st3" d="M178.174,41.537l-5.832-5.828c-0.363-0.365-0.912-0.548-1.457-0.548l-1.912-1.912
				c3.279-4.373,3.006-10.566-1.004-14.574c-4.371-4.373-11.387-4.373-15.758,0c-4.373,4.371-4.373,11.386,0,15.759
				c4.008,4.009,10.203,4.279,14.574,1.001l1.912,1.913c0,0.547,0.184,1.003,0.547,1.457l5.83,5.831c0.73,0.728,1.914,0.728,2.643,0
				l0.457-0.455C178.9,43.359,178.9,42.268,178.174,41.537L178.174,41.537z M165.51,31.974c-3.006,3.007-7.924,3.007-10.93,0
				c-3.006-3.006-3.006-7.926,0-10.931c3.006-3.006,7.924-3.006,10.93,0C168.607,24.048,168.516,28.968,165.51,31.974L165.51,31.974
				z"/>
			<path id="XMLID_2_" class="st3" d="M163.143,25.323h-1.822v-1.821c0-0.638-0.547-1.185-1.184-1.185l0,0
				c-0.641,0-1.186,0.547-1.186,1.185v1.821h-1.822c-0.637,0-1.184,0.547-1.184,1.184l0,0c0,0.64,0.547,1.184,1.184,1.184h1.822
				v1.823c0,0.636,0.545,1.185,1.186,1.185l0,0c0.637,0,1.184-0.549,1.184-1.185v-1.823h1.822c0.637,0,1.184-0.545,1.184-1.184l0,0
				C164.326,25.87,163.779,25.323,163.143,25.323L163.143,25.323z"/>
		</g>
		<g>
			<path d="M54.362,34.858V27.87h4.791v1.183h-3.38v1.653h2.917v1.183h-2.917v2.97H54.362z"/>
			<path d="M60.029,31.407c0-0.712,0.106-1.31,0.319-1.792c0.159-0.356,0.376-0.676,0.651-0.959
				c0.274-0.282,0.576-0.492,0.903-0.629c0.436-0.185,0.938-0.276,1.506-0.276c1.03,0,1.854,0.319,2.472,0.958
				s0.928,1.527,0.928,2.665c0,1.128-0.307,2.011-0.92,2.647c-0.614,0.638-1.434,0.956-2.46,0.956c-1.039,0-1.865-0.317-2.479-0.951
				C60.336,33.393,60.029,32.52,60.029,31.407z M61.483,31.359c0,0.791,0.183,1.392,0.549,1.8c0.365,0.408,0.829,0.612,1.392,0.612
				s1.024-0.202,1.385-0.607s0.541-1.014,0.541-1.823c0-0.801-0.176-1.398-0.526-1.793c-0.352-0.394-0.818-0.591-1.399-0.591
				c-0.582,0-1.051,0.199-1.406,0.599C61.661,29.954,61.483,30.556,61.483,31.359z"/>
			<path d="M67.914,34.858V27.87h2.97c0.747,0,1.29,0.063,1.628,0.188c0.339,0.125,0.609,0.349,0.813,0.67
				c0.204,0.32,0.306,0.688,0.306,1.101c0,0.524-0.154,0.958-0.463,1.299c-0.308,0.342-0.769,0.558-1.382,0.646
				c0.305,0.178,0.557,0.373,0.755,0.586c0.199,0.213,0.467,0.591,0.804,1.135l0.854,1.363H72.51l-1.021-1.521
				c-0.362-0.544-0.61-0.886-0.743-1.027c-0.134-0.142-0.275-0.238-0.425-0.291c-0.149-0.052-0.386-0.078-0.71-0.078h-0.286v2.917
				H67.914z M69.325,30.825h1.044c0.677,0,1.1-0.028,1.268-0.085c0.169-0.058,0.301-0.156,0.396-0.296
				c0.095-0.14,0.143-0.314,0.143-0.524c0-0.235-0.063-0.425-0.188-0.569c-0.125-0.145-0.303-0.236-0.531-0.274
				c-0.114-0.016-0.458-0.023-1.029-0.023h-1.102V30.825z"/>
			<path d="M74.94,34.858V27.87h2.111l1.269,4.767l1.253-4.767h2.117v6.988h-1.312v-5.501l-1.387,5.501h-1.358l-1.383-5.501v5.501
				H74.94z"/>
			<path d="M83.082,27.87h1.41v3.785c0,0.601,0.018,0.989,0.053,1.168c0.061,0.286,0.204,0.516,0.432,0.688
				c0.227,0.173,0.538,0.26,0.932,0.26c0.4,0,0.702-0.082,0.906-0.245c0.203-0.164,0.325-0.365,0.366-0.604
				c0.042-0.238,0.063-0.634,0.063-1.187V27.87h1.411v3.671c0,0.839-0.038,1.432-0.114,1.777c-0.076,0.347-0.217,0.639-0.422,0.878
				c-0.205,0.238-0.479,0.428-0.822,0.569c-0.344,0.142-0.792,0.212-1.345,0.212c-0.667,0-1.174-0.077-1.519-0.231
				s-0.617-0.354-0.817-0.601s-0.332-0.504-0.396-0.774c-0.092-0.4-0.138-0.991-0.138-1.773V27.87z"/>
			<path d="M90.179,34.858v-6.931h1.411v5.753h3.509v1.178H90.179z"/>
			<path d="M102.405,34.858h-1.534l-0.61-1.587h-2.794l-0.576,1.587h-1.497l2.722-6.988h1.492L102.405,34.858z M99.808,32.094
				L98.845,29.5l-0.943,2.594H99.808z"/>
			<path d="M103.158,34.858V27.87h2.97c0.747,0,1.29,0.063,1.628,0.188c0.339,0.125,0.609,0.349,0.813,0.67
				c0.204,0.32,0.306,0.688,0.306,1.101c0,0.524-0.154,0.958-0.463,1.299c-0.308,0.342-0.769,0.558-1.382,0.646
				c0.305,0.178,0.557,0.373,0.755,0.586c0.199,0.213,0.467,0.591,0.804,1.135l0.854,1.363h-1.688l-1.021-1.521
				c-0.362-0.544-0.61-0.886-0.743-1.027c-0.134-0.142-0.275-0.238-0.425-0.291c-0.149-0.052-0.386-0.078-0.71-0.078h-0.286v2.917
				H103.158z M104.569,30.825h1.044c0.677,0,1.1-0.028,1.268-0.085c0.169-0.058,0.301-0.156,0.396-0.296
				c0.095-0.14,0.143-0.314,0.143-0.524c0-0.235-0.063-0.425-0.188-0.569c-0.125-0.145-0.303-0.236-0.531-0.274
				c-0.114-0.016-0.458-0.023-1.029-0.023h-1.102V30.825z"/>
			<path d="M110.16,34.858V27.87h1.411v6.988H110.16z"/>
			<path d="M112.629,31.407c0-0.712,0.106-1.31,0.319-1.792c0.159-0.356,0.376-0.676,0.651-0.959
				c0.274-0.282,0.576-0.492,0.903-0.629c0.436-0.185,0.938-0.276,1.506-0.276c1.03,0,1.854,0.319,2.472,0.958
				s0.928,1.527,0.928,2.665c0,1.128-0.307,2.011-0.92,2.647c-0.614,0.638-1.434,0.956-2.46,0.956c-1.039,0-1.865-0.317-2.479-0.951
				C112.936,33.393,112.629,32.52,112.629,31.407z M114.083,31.359c0,0.791,0.183,1.392,0.549,1.8
				c0.365,0.408,0.829,0.612,1.392,0.612s1.024-0.202,1.385-0.607s0.541-1.014,0.541-1.823c0-0.801-0.176-1.398-0.526-1.793
				c-0.352-0.394-0.818-0.591-1.399-0.591c-0.582,0-1.051,0.199-1.406,0.599C114.261,29.954,114.083,30.556,114.083,31.359z"/>
			<path d="M120.151,32.585l1.373-0.134c0.083,0.461,0.25,0.799,0.503,1.016c0.253,0.216,0.594,0.324,1.022,0.324
				c0.454,0,0.797-0.097,1.027-0.289s0.346-0.417,0.346-0.674c0-0.166-0.049-0.307-0.146-0.422
				c-0.097-0.116-0.267-0.218-0.508-0.303c-0.165-0.058-0.542-0.159-1.13-0.306c-0.756-0.188-1.287-0.418-1.592-0.691
				c-0.429-0.384-0.644-0.853-0.644-1.406c0-0.355,0.101-0.688,0.303-0.998s0.492-0.546,0.872-0.708s0.838-0.243,1.375-0.243
				c0.878,0,1.538,0.192,1.981,0.577c0.443,0.384,0.676,0.897,0.698,1.539l-1.411,0.063c-0.061-0.359-0.19-0.617-0.389-0.774
				c-0.198-0.158-0.496-0.236-0.894-0.236c-0.41,0-0.731,0.084-0.963,0.253c-0.149,0.107-0.225,0.252-0.225,0.434
				c0,0.165,0.07,0.307,0.21,0.424c0.178,0.149,0.61,0.306,1.297,0.468s1.194,0.329,1.522,0.503c0.329,0.173,0.587,0.409,0.772,0.71
				c0.187,0.3,0.279,0.671,0.279,1.113c0,0.4-0.111,0.775-0.334,1.125s-0.537,0.609-0.943,0.779
				c-0.407,0.17-0.914,0.255-1.521,0.255c-0.883,0-1.562-0.204-2.035-0.612S120.244,33.366,120.151,32.585z"/>
		</g>
		<g>
			<rect x="17.242" y="36.4" class="st4" width="21.148" height="8.188"/>
			<g>
				<path class="st0" d="M39.045,22.207c-0.002-0.141-0.047-0.282-0.145-0.393l-5.984-6.835c0-0.002-0.002-0.004-0.004-0.006
					c-0.037-0.039-0.076-0.072-0.121-0.101c-0.012-0.008-0.025-0.017-0.041-0.024c-0.037-0.02-0.076-0.037-0.119-0.05
					c-0.01-0.004-0.021-0.008-0.033-0.01c-0.045-0.013-0.092-0.019-0.139-0.019H17.754c-0.672,0-1.219,0.548-1.219,1.218v28.6
					c0,0.672,0.547,1.218,1.219,1.218h20.08c0.672,0,1.217-0.546,1.217-1.218V22.275C39.051,22.253,39.047,22.23,39.045,22.207z
					 M17.754,15.988H31.85v6.226c0,0.336,0.274,0.608,0.609,0.608h5.375v12.613h-20.08V15.988z M22.443,42.905h-1.219v-2.327h-2.014
					v2.327h-1.227v-5.558h1.227v2.136h2.014v-2.136h1.219V42.905z M27.256,38.403h-1.475v4.502h-1.227v-4.502h-1.451v-1.056h4.152
					V38.403z M32.527,42.905l-0.08-2.128c-0.023-0.668-0.049-1.477-0.049-2.284h-0.023c-0.168,0.71-0.393,1.501-0.601,2.153
					l-0.658,2.166h-0.953l-0.578-2.15c-0.176-0.651-0.361-1.443-0.488-2.169h-0.018c-0.031,0.751-0.057,1.609-0.096,2.301
					l-0.096,2.111h-1.131l0.344-5.558h1.629l0.529,1.856c0.168,0.643,0.336,1.336,0.457,1.986h0.023
					c0.152-0.642,0.338-1.376,0.516-1.995l0.576-1.847h1.596l0.297,5.558H32.527L32.527,42.905z M38.039,42.905h-3.377v-5.558h1.227
					v4.502h2.15V42.905L38.039,42.905z"/>
				<polygon points="20.961,28.806 25.623,30.971 25.623,29.941 22.096,28.399 22.096,28.378 25.623,26.834 25.623,25.805 
					20.961,27.97 				"/>
				<polygon points="26.342,31.36 27.322,31.36 29.4,24.318 28.42,24.318 				"/>
				<polygon points="29.965,26.834 33.568,28.378 33.568,28.399 29.965,29.941 29.965,30.971 34.627,28.835 34.627,27.941 
					29.965,25.805 				"/>
			</g>
		</g>
	</g>
</g>
</svg>