<!-- Generator: Adobe Illustrator 17.0.0, SVG Export Plug-In  -->
<svg version="1.1"
	 xmlns="http://www.w3.org/2000/svg" xmlns:xlink="http://www.w3.org/1999/xlink" xmlns:a="http://ns.adobe.com/AdobeSVGViewerExtensions/3.0/"
	 x="0px" y="0px" width="338.33px" height="54.852px" viewBox="0 0 338.33 54.852"
	 style="enable-background:new 0 0 338.33 54.852;" xml:space="preserve">
<style type="text/css">
	.st0{fill:#F16529;}
</style>
<defs>
</defs>
<g>
	<path class="st0" d="M8.607,23.397v-8.315H1.639v8.315H0V5.192h1.639v8.328h6.969V5.192h1.639v18.205H8.607z"/>
	<path class="st0" d="M14.41,23.397V5.192h10.244v1.562h-8.607v6.767h6.971v1.562h-6.971v6.754h8.607v1.562H14.41z"/>
	<path class="st0" d="M36.334,23.397l-4.938-7.77h-2.248v7.77h-1.637V5.192h5.775c0.618,0,1.198,0.116,1.74,0.349
		c0.541,0.233,1.016,0.553,1.422,0.959s0.725,0.883,0.958,1.428c0.233,0.547,0.349,1.129,0.349,1.746v1.473
		c0,0.617-0.115,1.199-0.349,1.746c-0.233,0.545-0.552,1.021-0.958,1.428s-0.881,0.726-1.422,0.959
		c-0.542,0.232-1.122,0.349-1.74,0.349l4.939,7.77H36.334z M36.119,9.674c0-0.406-0.076-0.785-0.229-1.137
		c-0.152-0.351-0.36-0.66-0.623-0.926c-0.262-0.268-0.568-0.477-0.92-0.629s-0.73-0.229-1.137-0.229h-4.063v7.313h4.063
		c0.406,0,0.785-0.076,1.137-0.229s0.658-0.361,0.92-0.629c0.263-0.266,0.471-0.575,0.623-0.926c0.152-0.352,0.229-0.73,0.229-1.137
		V9.674z"/>
	<path class="st0" d="M49.906,23.397l-4.939-7.77h-2.246v7.77h-1.639V5.192h5.777c0.617,0,1.197,0.116,1.738,0.349
		C49.14,5.774,49.613,6.094,50.02,6.5s0.727,0.883,0.959,1.428c0.232,0.547,0.35,1.129,0.35,1.746v1.473
		c0,0.617-0.117,1.199-0.35,1.746c-0.232,0.545-0.553,1.021-0.959,1.428s-0.88,0.726-1.422,0.959
		c-0.541,0.232-1.121,0.349-1.738,0.349l4.938,7.77H49.906z M49.689,9.674c0-0.406-0.076-0.785-0.229-1.137
		c-0.152-0.351-0.359-0.66-0.621-0.926c-0.263-0.268-0.57-0.477-0.921-0.629s-0.729-0.229-1.136-0.229h-4.063v7.313h4.063
		c0.406,0,0.785-0.076,1.136-0.229s0.658-0.361,0.921-0.629c0.262-0.266,0.469-0.575,0.621-0.926
		c0.152-0.352,0.229-0.73,0.229-1.137V9.674z"/>
	<path class="st0" d="M61.75,19.157h-5.764l-1.193,4.24h-1.701l5.332-18.205h0.863l5.357,18.205h-1.688L61.75,19.157z
		 M56.432,17.596h4.887L58.92,9.204l-0.051-0.673l-0.051,0.673L56.432,17.596z"/>
	<path class="st0" d="M78.191,23.397V10.918l-0.115,0.774L73.85,23.397h-0.863l-4.266-11.705l-0.102-0.774v12.479H66.98V5.192h0.852
		l5.521,14.93l0.051,0.673l0.051-0.673l5.51-14.93h0.863v18.205H78.191z"/>
	<path class="st0" d="M83.98,23.397V5.192h1.637v18.205H83.98z"/>
	<path class="st0" d="M89.781,23.397V5.192h10.246v1.562H91.42v6.767h6.969v1.562H91.42v6.754h8.607v1.562H89.781z"/>
	<path class="st0" d="M112.531,23.397l-7.592-13.254l-0.152-0.787v14.041h-1.637V5.192H104l7.592,13.267l0.166,0.774V5.192h1.637
		v18.205H112.531z"/>
	<path class="st0" d="M121.977,6.754v16.644h-1.637V6.754h-4.342V5.192h10.32v1.562H121.977z"/>
	<path class="st0" d="M135.752,19.157h-5.764l-1.193,4.24h-1.701l5.332-18.205h0.863l5.357,18.205h-1.689L135.752,19.157z
		 M130.432,17.596h4.889l-2.4-8.392l-0.051-0.673l-0.051,0.673L130.432,17.596z"/>
	<path class="st0" d="M150.961,19.183c0,0.618-0.125,1.198-0.375,1.739s-0.584,1.016-1.003,1.422s-0.905,0.726-1.46,0.959
		c-0.555,0.232-1.141,0.349-1.758,0.349h-1.309c-0.617,0-1.203-0.116-1.758-0.349c-0.555-0.233-1.041-0.553-1.46-0.959
		s-0.753-0.881-1.003-1.422s-0.375-1.121-0.375-1.739v-0.724l1.639-0.267v0.99c0,0.406,0.082,0.785,0.247,1.136
		c0.165,0.352,0.388,0.66,0.667,0.928c0.279,0.266,0.603,0.476,0.971,0.628s0.756,0.229,1.162,0.229h1.143
		c0.406,0,0.791-0.076,1.154-0.229c0.364-0.152,0.686-0.362,0.965-0.628c0.279-0.268,0.502-0.576,0.667-0.928
		c0.165-0.351,0.247-0.729,0.247-1.136v-0.546c0-0.627-0.122-1.146-0.367-1.562c-0.246-0.415-0.572-0.769-0.979-1.06
		c-0.406-0.293-0.865-0.54-1.377-0.743s-1.039-0.406-1.58-0.609c-0.542-0.203-1.068-0.427-1.581-0.673s-0.972-0.553-1.378-0.92
		c-0.406-0.369-0.731-0.819-0.977-1.353c-0.246-0.533-0.369-1.188-0.369-1.968V9.407c0-0.618,0.117-1.198,0.35-1.739
		s0.553-1.016,0.959-1.422s0.882-0.726,1.428-0.959c0.546-0.232,1.128-0.349,1.746-0.349h1.168c0.617,0,1.197,0.116,1.738,0.349
		c0.542,0.233,1.016,0.553,1.422,0.959s0.727,0.881,0.959,1.422s0.35,1.121,0.35,1.739v0.47l-1.639,0.267V9.407
		c0-0.406-0.076-0.785-0.229-1.136c-0.152-0.352-0.359-0.658-0.621-0.921c-0.263-0.263-0.57-0.47-0.921-0.622
		S146.695,6.5,146.289,6.5h-1.016c-0.406,0-0.785,0.076-1.137,0.229s-0.66,0.359-0.927,0.622s-0.476,0.569-0.628,0.921
		c-0.152,0.351-0.229,0.729-0.229,1.136V9.75c0,0.584,0.122,1.074,0.367,1.473c0.246,0.398,0.572,0.738,0.979,1.021
		c0.406,0.284,0.865,0.529,1.377,0.736c0.512,0.208,1.039,0.42,1.58,0.635c0.542,0.217,1.068,0.453,1.581,0.711
		c0.513,0.259,0.972,0.576,1.378,0.953c0.406,0.376,0.731,0.836,0.977,1.377c0.246,0.541,0.369,1.201,0.369,1.98V19.183z"/>
	<path class="st0" d="M170.353,13.673c-0.233,0.542-0.552,1.016-0.958,1.422s-0.883,0.726-1.429,0.958
		c-0.546,0.233-1.128,0.35-1.745,0.35h-4.127v6.995h-1.637V5.192h5.764c0.617,0,1.199,0.116,1.745,0.349
		c0.546,0.233,1.022,0.553,1.429,0.959s0.725,0.883,0.958,1.428c0.233,0.547,0.349,1.129,0.349,1.746v2.26
		C170.701,12.551,170.586,13.131,170.353,13.673z M169.064,9.674c0-0.406-0.076-0.785-0.229-1.137
		c-0.152-0.351-0.362-0.66-0.629-0.926c-0.267-0.268-0.576-0.477-0.927-0.629s-0.729-0.229-1.136-0.229h-4.051v8.087h4.051
		c0.406,0,0.785-0.076,1.136-0.229s0.66-0.36,0.927-0.622s0.477-0.569,0.629-0.92c0.152-0.352,0.229-0.73,0.229-1.137V9.674z"/>
	<path class="st0" d="M180.654,19.157h-5.764l-1.193,4.24h-1.701l5.332-18.205h0.863l5.357,18.205h-1.688L180.654,19.157z
		 M175.336,17.596h4.887l-2.398-8.392l-0.051-0.673l-0.051,0.673L175.336,17.596z"/>
	<path class="st0" d="M194.441,23.397l-4.938-7.77h-2.248v7.77h-1.637V5.192h5.775c0.618,0,1.198,0.116,1.74,0.349
		c0.541,0.233,1.016,0.553,1.422,0.959s0.725,0.883,0.958,1.428c0.233,0.547,0.349,1.129,0.349,1.746v1.473
		c0,0.617-0.115,1.199-0.349,1.746c-0.233,0.545-0.552,1.021-0.958,1.428s-0.881,0.726-1.422,0.959
		c-0.542,0.232-1.122,0.349-1.74,0.349l4.939,7.77H194.441z M194.227,9.674c0-0.406-0.076-0.785-0.229-1.137
		c-0.152-0.351-0.36-0.66-0.623-0.926c-0.262-0.268-0.568-0.477-0.92-0.629s-0.73-0.229-1.137-0.229h-4.063v7.313h4.063
		c0.406,0,0.785-0.076,1.137-0.229s0.658-0.361,0.92-0.629c0.263-0.266,0.471-0.575,0.623-0.926c0.152-0.352,0.229-0.73,0.229-1.137
		V9.674z"/>
	<path class="st0" d="M206.287,19.157h-5.764l-1.193,4.24h-1.701l5.332-18.205h0.863l5.357,18.205h-1.689L206.287,19.157z
		 M200.967,17.596h4.889l-2.4-8.392l-0.051-0.673l-0.051,0.673L200.967,17.596z"/>
	<path class="st0" d="M217.496,23.397V5.192h10.246v1.562h-8.607v6.767h6.969v1.562h-6.969v6.754h8.607v1.562H217.496z"/>
	<path class="st0" d="M230.598,23.397V5.192h1.639v16.644h6.969v1.562H230.598z"/>
	<path class="st0" d="M257.684,20.668c-0.232,0.541-0.553,1.016-0.959,1.422s-0.882,0.726-1.428,0.959
		c-0.546,0.232-1.128,0.349-1.746,0.349h-5.764V5.192h5.764c0.618,0,1.2,0.116,1.746,0.349c0.546,0.233,1.021,0.553,1.428,0.959
		s0.727,0.883,0.959,1.428c0.232,0.547,0.35,1.129,0.35,1.746v9.255C258.033,19.547,257.916,20.127,257.684,20.668z M256.395,9.674
		c0-0.406-0.076-0.785-0.229-1.137c-0.152-0.351-0.361-0.66-0.628-0.926c-0.267-0.268-0.575-0.477-0.927-0.629
		s-0.73-0.229-1.137-0.229h-4.049v15.082h4.049c0.406,0,0.785-0.076,1.137-0.229s0.66-0.359,0.927-0.622s0.476-0.569,0.628-0.921
		c0.152-0.351,0.229-0.729,0.229-1.136V9.674z"/>
	<path class="st0" d="M261.93,23.397V5.192h1.639v18.205H261.93z"/>
	<path class="st0" d="M277.711,19.183c0,0.618-0.125,1.198-0.375,1.739s-0.584,1.016-1.003,1.422s-0.905,0.726-1.46,0.959
		c-0.555,0.232-1.141,0.349-1.758,0.349h-1.309c-0.617,0-1.203-0.116-1.758-0.349c-0.555-0.233-1.041-0.553-1.46-0.959
		s-0.753-0.881-1.003-1.422s-0.375-1.121-0.375-1.739v-0.724l1.639-0.267v0.99c0,0.406,0.082,0.785,0.247,1.136
		c0.165,0.352,0.388,0.66,0.667,0.928c0.279,0.266,0.603,0.476,0.971,0.628s0.756,0.229,1.162,0.229h1.143
		c0.406,0,0.791-0.076,1.154-0.229c0.364-0.152,0.686-0.362,0.965-0.628c0.279-0.268,0.502-0.576,0.667-0.928
		c0.165-0.351,0.247-0.729,0.247-1.136v-0.546c0-0.627-0.122-1.146-0.367-1.562c-0.246-0.415-0.572-0.769-0.979-1.06
		c-0.406-0.293-0.865-0.54-1.377-0.743s-1.039-0.406-1.58-0.609c-0.542-0.203-1.068-0.427-1.581-0.673s-0.972-0.553-1.378-0.92
		c-0.406-0.369-0.731-0.819-0.977-1.353c-0.246-0.533-0.369-1.188-0.369-1.968V9.407c0-0.618,0.117-1.198,0.35-1.739
		s0.553-1.016,0.959-1.422s0.882-0.726,1.428-0.959c0.546-0.232,1.128-0.349,1.746-0.349h1.168c0.617,0,1.197,0.116,1.738,0.349
		c0.542,0.233,1.016,0.553,1.422,0.959s0.727,0.881,0.959,1.422s0.35,1.121,0.35,1.739v0.47l-1.639,0.267V9.407
		c0-0.406-0.076-0.785-0.229-1.136c-0.152-0.352-0.359-0.658-0.621-0.921c-0.263-0.263-0.57-0.47-0.921-0.622
		S273.445,6.5,273.039,6.5h-1.016c-0.406,0-0.785,0.076-1.137,0.229s-0.66,0.359-0.927,0.622s-0.476,0.569-0.628,0.921
		c-0.152,0.351-0.229,0.729-0.229,1.136V9.75c0,0.584,0.122,1.074,0.367,1.473c0.246,0.398,0.572,0.738,0.979,1.021
		c0.406,0.284,0.865,0.529,1.377,0.736c0.512,0.208,1.039,0.42,1.58,0.635c0.542,0.217,1.068,0.453,1.581,0.711
		c0.513,0.259,0.972,0.576,1.378,0.953c0.406,0.376,0.731,0.836,0.977,1.377c0.246,0.541,0.369,1.201,0.369,1.98V19.183z"/>
	<path class="st0" d="M281.227,23.397V5.192h10.246v1.562h-8.607v6.767h6.969v1.562h-6.969v6.754h8.607v1.562H281.227z"/>
	<path class="st0" d="M303.977,23.397l-7.592-13.254l-0.152-0.787v14.041h-1.637V5.192h0.85l7.592,13.267l0.166,0.774V5.192h1.637
		v18.205H303.977z M301.426,1.447c0.355,0,0.626-0.133,0.813-0.4c0.186-0.266,0.279-0.615,0.279-1.047h1.205
		c0,0.381-0.049,0.736-0.146,1.066s-0.243,0.617-0.438,0.863c-0.194,0.246-0.438,0.439-0.729,0.584s-0.628,0.216-1.009,0.216
		c-0.406,0-0.764-0.076-1.073-0.229S299.73,2.182,299.464,2c-0.267-0.183-0.521-0.35-0.762-0.502s-0.493-0.229-0.755-0.229
		c-0.355,0-0.623,0.133-0.801,0.4c-0.178,0.266-0.266,0.611-0.266,1.034h-1.193c0-0.381,0.046-0.734,0.139-1.06
		c0.094-0.326,0.235-0.611,0.426-0.857s0.432-0.438,0.724-0.578C297.268,0.07,297.608,0,297.998,0c0.381,0,0.717,0.076,1.009,0.229
		s0.567,0.317,0.825,0.495s0.514,0.343,0.768,0.495S301.129,1.447,301.426,1.447z"/>
	<path class="st0" d="M318.634,20.922c-0.233,0.541-0.552,1.016-0.958,1.422s-0.881,0.726-1.422,0.959
		c-0.542,0.232-1.122,0.349-1.74,0.349h-1.295c-0.617,0-1.199-0.116-1.745-0.349c-0.546-0.233-1.022-0.553-1.429-0.959
		s-0.725-0.881-0.958-1.422s-0.349-1.121-0.349-1.739V9.407c0-0.618,0.115-1.198,0.349-1.739s0.552-1.016,0.958-1.422
		s0.883-0.726,1.429-0.959c0.546-0.232,1.128-0.349,1.745-0.349h1.295c0.618,0,1.198,0.116,1.74,0.349
		c0.541,0.233,1.016,0.553,1.422,0.959s0.725,0.881,0.958,1.422s0.349,1.121,0.349,1.739v9.775
		C318.982,19.801,318.867,20.381,318.634,20.922z M317.346,9.407c0-0.406-0.076-0.785-0.229-1.136
		c-0.152-0.352-0.36-0.658-0.623-0.921c-0.262-0.263-0.568-0.47-0.92-0.622s-0.73-0.229-1.137-0.229h-1.143
		c-0.406,0-0.785,0.076-1.136,0.229s-0.66,0.359-0.927,0.622s-0.477,0.569-0.629,0.921c-0.152,0.351-0.229,0.729-0.229,1.136v9.775
		c0,0.406,0.076,0.785,0.229,1.136c0.152,0.352,0.362,0.66,0.629,0.928c0.267,0.266,0.576,0.476,0.927,0.628
		s0.729,0.229,1.136,0.229h1.143c0.406,0,0.785-0.076,1.137-0.229s0.658-0.362,0.92-0.628c0.263-0.268,0.471-0.576,0.623-0.928
		c0.152-0.351,0.229-0.729,0.229-1.136V9.407z"/>
	<path class="st0" d="M333.658,14.688v8.709h-1.637v-8.684l-4.711-9.521h1.766l3.744,7.566l3.746-7.566h1.764L333.658,14.688z"/>
	<path class="st0" d="M9.896,51.868c-0.232,0.542-0.553,1.016-0.959,1.422s-0.882,0.726-1.428,0.958
		c-0.546,0.233-1.128,0.35-1.746,0.35H0V36.393h5.764c0.618,0,1.2,0.116,1.746,0.35c0.546,0.232,1.021,0.552,1.428,0.958
		s0.727,0.882,0.959,1.429c0.232,0.545,0.35,1.127,0.35,1.745v9.255C10.246,50.746,10.129,51.326,9.896,51.868z M8.607,40.874
		c0-0.406-0.076-0.785-0.229-1.136c-0.152-0.352-0.361-0.66-0.628-0.928c-0.267-0.266-0.575-0.476-0.927-0.628
		s-0.73-0.229-1.137-0.229H1.639v15.082h4.049c0.406,0,0.785-0.076,1.137-0.229s0.66-0.36,0.927-0.622s0.476-0.569,0.628-0.92
		c0.152-0.352,0.229-0.73,0.229-1.137V40.874z"/>
	<path class="st0" d="M14.143,54.598V36.393h10.246v1.562h-8.607v6.767h6.969v1.562h-6.969v6.754h8.607v1.562H14.143z"/>
	<path class="st0" d="M37.49,50.383c0,0.617-0.125,1.197-0.375,1.739s-0.584,1.016-1.003,1.422s-0.905,0.726-1.46,0.958
		c-0.555,0.233-1.141,0.35-1.758,0.35h-1.309c-0.617,0-1.203-0.116-1.758-0.35c-0.555-0.232-1.041-0.552-1.46-0.958
		s-0.753-0.88-1.003-1.422S26.99,51,26.99,50.383v-0.724l1.639-0.267v0.99c0,0.406,0.082,0.785,0.247,1.137
		c0.165,0.351,0.388,0.66,0.667,0.926c0.279,0.268,0.603,0.477,0.971,0.629s0.756,0.229,1.162,0.229h1.143
		c0.406,0,0.791-0.076,1.154-0.229c0.364-0.152,0.686-0.361,0.965-0.629c0.279-0.266,0.502-0.575,0.667-0.926
		c0.165-0.352,0.247-0.73,0.247-1.137v-0.546c0-0.626-0.122-1.147-0.367-1.562c-0.246-0.414-0.572-0.768-0.979-1.061
		c-0.406-0.291-0.865-0.539-1.377-0.742s-1.039-0.406-1.58-0.609c-0.542-0.203-1.068-0.428-1.581-0.673s-0.972-0.552-1.378-0.921
		c-0.406-0.367-0.731-0.818-0.977-1.352c-0.246-0.533-0.369-1.189-0.369-1.968v-0.343c0-0.617,0.117-1.197,0.35-1.739
		s0.553-1.016,0.959-1.422s0.882-0.726,1.428-0.958c0.546-0.233,1.128-0.35,1.746-0.35h1.168c0.617,0,1.197,0.116,1.738,0.35
		c0.542,0.232,1.016,0.552,1.422,0.958s0.727,0.88,0.959,1.422s0.35,1.122,0.35,1.739v0.47l-1.639,0.267v-0.736
		c0-0.406-0.076-0.785-0.229-1.137c-0.152-0.351-0.359-0.658-0.621-0.92c-0.263-0.262-0.57-0.47-0.921-0.622
		S33.225,37.7,32.818,37.7h-1.016c-0.406,0-0.785,0.076-1.137,0.229s-0.66,0.36-0.927,0.622s-0.476,0.569-0.628,0.92
		c-0.152,0.352-0.229,0.73-0.229,1.137v0.343c0,0.584,0.122,1.075,0.367,1.473c0.246,0.397,0.572,0.738,0.979,1.022
		c0.406,0.283,0.865,0.528,1.377,0.736c0.512,0.207,1.039,0.418,1.58,0.635c0.542,0.215,1.068,0.452,1.581,0.711
		c0.513,0.258,0.972,0.575,1.378,0.951c0.406,0.377,0.731,0.836,0.977,1.378c0.246,0.542,0.369,1.202,0.369,1.98V50.383z"/>
	<path class="st0" d="M47.836,50.357h-5.764l-1.193,4.24h-1.701l5.332-18.205h0.863l5.357,18.205h-1.688L47.836,50.357z
		 M42.518,48.796h4.887l-2.398-8.392l-0.051-0.673l-0.051,0.673L42.518,48.796z"/>
	<path class="st0" d="M61.623,54.598l-4.938-7.77h-2.248v7.77h-1.637V36.393h5.775c0.618,0,1.198,0.116,1.74,0.35
		c0.541,0.232,1.016,0.552,1.422,0.958s0.725,0.882,0.958,1.429c0.233,0.545,0.349,1.127,0.349,1.745v1.473
		c0,0.618-0.115,1.2-0.349,1.745c-0.233,0.547-0.552,1.022-0.958,1.429s-0.881,0.726-1.422,0.958c-0.542,0.233-1.122,0.35-1.74,0.35
		l4.939,7.77H61.623z M61.408,40.874c0-0.406-0.076-0.785-0.229-1.136c-0.152-0.352-0.36-0.66-0.623-0.928
		c-0.262-0.266-0.568-0.476-0.92-0.628s-0.73-0.229-1.137-0.229h-4.063v7.313H58.5c0.406,0,0.785-0.076,1.137-0.229
		s0.658-0.362,0.92-0.628c0.263-0.268,0.471-0.576,0.623-0.928c0.152-0.351,0.229-0.729,0.229-1.136V40.874z"/>
	<path class="st0" d="M75.195,54.598l-4.939-7.77H68.01v7.77h-1.639V36.393h5.777c0.617,0,1.197,0.116,1.738,0.35
		c0.542,0.232,1.016,0.552,1.422,0.958s0.727,0.882,0.959,1.429c0.232,0.545,0.35,1.127,0.35,1.745v1.473
		c0,0.618-0.117,1.2-0.35,1.745c-0.232,0.547-0.553,1.022-0.959,1.429s-0.88,0.726-1.422,0.958c-0.541,0.233-1.121,0.35-1.738,0.35
		l4.938,7.77H75.195z M74.979,40.874c0-0.406-0.076-0.785-0.229-1.136c-0.152-0.352-0.359-0.66-0.621-0.928
		c-0.263-0.266-0.57-0.476-0.921-0.628s-0.729-0.229-1.136-0.229H68.01v7.313h4.063c0.406,0,0.785-0.076,1.136-0.229
		s0.658-0.362,0.921-0.628c0.262-0.268,0.469-0.576,0.621-0.928c0.152-0.351,0.229-0.729,0.229-1.136V40.874z"/>
	<path class="st0" d="M89.839,52.122c-0.233,0.542-0.552,1.016-0.958,1.422S88,54.27,87.459,54.502
		c-0.542,0.233-1.122,0.35-1.74,0.35h-1.295c-0.617,0-1.199-0.116-1.745-0.35c-0.546-0.232-1.022-0.552-1.429-0.958
		s-0.725-0.88-0.958-1.422S79.943,51,79.943,50.383v-9.775c0-0.617,0.115-1.197,0.349-1.739s0.552-1.016,0.958-1.422
		s0.883-0.726,1.429-0.958c0.546-0.233,1.128-0.35,1.745-0.35h1.295c0.618,0,1.198,0.116,1.74,0.35
		c0.541,0.232,1.016,0.552,1.422,0.958s0.725,0.88,0.958,1.422s0.349,1.122,0.349,1.739v9.775C90.188,51,90.072,51.58,89.839,52.122
		z M88.551,40.607c0-0.406-0.076-0.785-0.229-1.137c-0.152-0.351-0.36-0.658-0.623-0.92c-0.262-0.262-0.568-0.47-0.92-0.622
		s-0.73-0.229-1.137-0.229H84.5c-0.406,0-0.785,0.076-1.136,0.229s-0.66,0.36-0.927,0.622s-0.477,0.569-0.629,0.92
		c-0.152,0.352-0.229,0.73-0.229,1.137v9.775c0,0.406,0.076,0.785,0.229,1.137c0.152,0.351,0.362,0.66,0.629,0.926
		c0.267,0.268,0.576,0.477,0.927,0.629s0.729,0.229,1.136,0.229h1.143c0.406,0,0.785-0.076,1.137-0.229s0.658-0.361,0.92-0.629
		c0.263-0.266,0.471-0.575,0.623-0.926c0.152-0.352,0.229-0.73,0.229-1.137V40.607z"/>
	<path class="st0" d="M93.832,54.598V36.393h1.637v16.644h6.971v1.562H93.832z"/>
	<path class="st0" d="M104.775,54.598V36.393h1.637v16.644h6.971v1.562H104.775z"/>
	<path class="st0" d="M125.614,52.122c-0.233,0.542-0.552,1.016-0.958,1.422s-0.881,0.726-1.422,0.958
		c-0.542,0.233-1.122,0.35-1.74,0.35h-1.295c-0.617,0-1.199-0.116-1.745-0.35c-0.546-0.232-1.022-0.552-1.429-0.958
		s-0.725-0.88-0.958-1.422s-0.349-1.122-0.349-1.739v-9.775c0-0.617,0.115-1.197,0.349-1.739s0.552-1.016,0.958-1.422
		s0.883-0.726,1.429-0.958c0.546-0.233,1.128-0.35,1.745-0.35h1.295c0.618,0,1.198,0.116,1.74,0.35
		c0.541,0.232,1.016,0.552,1.422,0.958s0.725,0.88,0.958,1.422s0.349,1.122,0.349,1.739v9.775
		C125.963,51,125.848,51.58,125.614,52.122z M124.326,40.607c0-0.406-0.076-0.785-0.229-1.137c-0.152-0.351-0.36-0.658-0.623-0.92
		c-0.262-0.262-0.568-0.47-0.92-0.622s-0.73-0.229-1.137-0.229h-1.143c-0.406,0-0.785,0.076-1.136,0.229s-0.66,0.36-0.927,0.622
		s-0.477,0.569-0.629,0.92c-0.152,0.352-0.229,0.73-0.229,1.137v9.775c0,0.406,0.076,0.785,0.229,1.137
		c0.152,0.351,0.362,0.66,0.629,0.926c0.267,0.268,0.576,0.477,0.927,0.629s0.729,0.229,1.136,0.229h1.143
		c0.406,0,0.785-0.076,1.137-0.229s0.658-0.361,0.92-0.629c0.263-0.266,0.471-0.575,0.623-0.926c0.152-0.352,0.229-0.73,0.229-1.137
		V40.607z"/>
	<path class="st0" d="M148.016,54.598h-0.852l-3.541-13.698l-0.051-0.711l-0.076,0.711l-3.518,13.698h-0.85l-4.838-18.205h1.639
		l3.566,13.838l0.051,0.673l0.051-0.673l3.504-13.838h0.914l3.504,13.838l0.051,0.673l0.064-0.673l3.555-13.838h1.637
		L148.016,54.598z"/>
	<path class="st0" d="M155.43,54.598V36.393h10.244v1.562h-8.607v6.767h6.971v1.562h-6.971v6.754h8.607v1.562H155.43z"/>
	<path class="st0" d="M178.693,51.868c-0.232,0.542-0.553,1.016-0.959,1.422s-0.882,0.726-1.428,0.958
		c-0.546,0.233-1.128,0.35-1.746,0.35h-5.764V36.393h5.764c0.618,0,1.2,0.116,1.746,0.35c0.546,0.232,1.021,0.552,1.428,0.958
		s0.727,0.882,0.959,1.429c0.232,0.545,0.35,1.127,0.35,1.745v0.178c0,0.432-0.058,0.845-0.172,1.237
		c-0.114,0.395-0.277,0.76-0.488,1.099c-0.212,0.339-0.462,0.646-0.75,0.921c-0.287,0.274-0.609,0.506-0.965,0.691
		c0.355,0.186,0.678,0.417,0.965,0.691c0.288,0.275,0.538,0.584,0.75,0.928c0.211,0.342,0.374,0.711,0.488,1.104
		c0.114,0.395,0.172,0.807,0.172,1.238v1.168C179.043,50.746,178.926,51.326,178.693,51.868z M177.404,40.874
		c0-0.406-0.076-0.785-0.229-1.136c-0.152-0.352-0.361-0.66-0.628-0.928c-0.267-0.266-0.575-0.476-0.927-0.628
		s-0.73-0.229-1.137-0.229h-4.049v6.271h4.049c0.406,0,0.785-0.076,1.137-0.229s0.66-0.362,0.927-0.628
		c0.267-0.268,0.476-0.576,0.628-0.928c0.152-0.351,0.229-0.729,0.229-1.136V40.874z M177.404,48.694
		c0-0.406-0.076-0.785-0.229-1.136c-0.152-0.352-0.361-0.658-0.628-0.921s-0.575-0.47-0.927-0.622s-0.73-0.229-1.137-0.229h-4.049
		v7.249h4.049c0.406,0,0.785-0.076,1.137-0.229s0.66-0.36,0.927-0.622s0.476-0.569,0.628-0.92c0.152-0.352,0.229-0.73,0.229-1.137
		V48.694z"/>
</g>
</svg>