<!-- Generator: Adobe Illustrator 17.0.0, SVG Export Plug-In  -->
<svg version="1.1"
	 xmlns="http://www.w3.org/2000/svg" xmlns:xlink="http://www.w3.org/1999/xlink" xmlns:a="http://ns.adobe.com/AdobeSVGViewerExtensions/3.0/"
	 x="0px" y="0px" width="463.374px" height="36.216px" viewBox="0 0 463.374 36.216"
	 style="enable-background:new 0 0 463.374 36.216;" xml:space="preserve">
<style type="text/css">
	.st0{fill:url(#SVGID_1_);}
	.st1{fill:#F1F1F1;}
	.st2{fill:url(#SVGID_2_);}
</style>
<defs>
</defs>
<linearGradient id="SVGID_1_" gradientUnits="userSpaceOnUse" x1="0" y1="18.1079" x2="463.374" y2="18.1079">
	<stop  offset="0" style="stop-color:#783214"/>
	<stop  offset="0.5" style="stop-color:#F16529"/>
	<stop  offset="1" style="stop-color:#783214"/>
</linearGradient>
<polygon class="st0" points="0,36.216 7.814,0 463.374,0 440.756,35.954 "/>
<g>
	<path class="st1" d="M105.919,27.977V10.472h1.575v17.505H105.919z"/>
	<path class="st1" d="M120.519,27.977l-7.3-12.744l-0.146-0.757v13.501h-1.575V10.472h0.818l7.3,12.756l0.159,0.745V10.472h1.575
		v17.505H120.519z"/>
	<path class="st1" d="M129.601,11.973v16.003h-1.575V11.973h-4.175v-1.501h9.924v1.501H129.601z"/>
	<path class="st1" d="M144.506,27.977l-4.749-7.471h-2.161v7.471h-1.575V10.472h5.554c0.594,0,1.151,0.112,1.672,0.336
		c0.521,0.224,0.977,0.531,1.367,0.921s0.698,0.848,0.921,1.374c0.224,0.524,0.336,1.084,0.336,1.678v1.416
		c0,0.594-0.112,1.154-0.336,1.678c-0.224,0.525-0.531,0.983-0.921,1.374s-0.847,0.698-1.367,0.921
		c-0.521,0.224-1.079,0.336-1.672,0.336l4.749,7.471H144.506z M144.298,14.781c0-0.391-0.073-0.755-0.22-1.092
		c-0.146-0.338-0.346-0.635-0.598-0.892c-0.252-0.256-0.547-0.458-0.885-0.604c-0.338-0.146-0.702-0.22-1.093-0.22h-3.906v7.031
		h3.906c0.391,0,0.755-0.073,1.093-0.22c0.337-0.146,0.632-0.348,0.885-0.604c0.252-0.257,0.452-0.554,0.598-0.892
		c0.146-0.337,0.22-0.702,0.22-1.092V14.781z"/>
	<path class="st1" d="M158.586,25.596c-0.224,0.521-0.531,0.977-0.921,1.367s-0.847,0.698-1.367,0.921
		c-0.521,0.224-1.079,0.336-1.672,0.336h-1.245c-0.594,0-1.153-0.112-1.679-0.336c-0.524-0.224-0.982-0.531-1.373-0.921
		s-0.698-0.846-0.922-1.367c-0.224-0.521-0.335-1.078-0.335-1.672v-9.399c0-0.594,0.112-1.151,0.335-1.672
		c0.224-0.521,0.531-0.977,0.922-1.367s0.849-0.698,1.373-0.921c0.525-0.224,1.084-0.336,1.679-0.336h1.245
		c0.594,0,1.151,0.112,1.672,0.336c0.521,0.224,0.977,0.531,1.367,0.921s0.698,0.847,0.921,1.367
		c0.224,0.521,0.336,1.079,0.336,1.672v9.399C158.922,24.518,158.811,25.076,158.586,25.596z M157.348,14.524
		c0-0.391-0.073-0.755-0.22-1.093c-0.146-0.337-0.346-0.632-0.598-0.885c-0.252-0.252-0.547-0.452-0.885-0.598
		c-0.338-0.146-0.702-0.22-1.093-0.22h-1.099c-0.391,0-0.755,0.073-1.093,0.22c-0.337,0.146-0.635,0.346-0.891,0.598
		c-0.257,0.252-0.458,0.547-0.604,0.885c-0.146,0.338-0.22,0.702-0.22,1.093v9.399c0,0.391,0.073,0.755,0.22,1.093
		c0.146,0.337,0.348,0.635,0.604,0.891c0.256,0.257,0.553,0.458,0.891,0.604c0.338,0.146,0.702,0.22,1.093,0.22h1.099
		c0.391,0,0.755-0.073,1.093-0.22c0.337-0.146,0.632-0.348,0.885-0.604c0.252-0.256,0.452-0.553,0.598-0.891
		c0.146-0.338,0.22-0.702,0.22-1.093V14.524z"/>
	<path class="st1" d="M172.198,25.352c-0.224,0.521-0.531,0.977-0.922,1.367s-0.849,0.698-1.373,0.921
		c-0.525,0.224-1.085,0.336-1.679,0.336h-5.542V10.472h5.542c0.594,0,1.153,0.112,1.679,0.336c0.524,0.224,0.982,0.531,1.373,0.921
		s0.698,0.848,0.922,1.374c0.224,0.524,0.335,1.084,0.335,1.678v8.899C172.533,24.274,172.421,24.832,172.198,25.352z
		 M170.958,14.781c0-0.391-0.073-0.755-0.22-1.092c-0.146-0.338-0.348-0.635-0.604-0.892c-0.256-0.256-0.553-0.458-0.891-0.604
		c-0.338-0.146-0.702-0.22-1.093-0.22h-3.894v14.502h3.894c0.391,0,0.755-0.073,1.093-0.22c0.337-0.146,0.635-0.346,0.891-0.598
		c0.257-0.252,0.458-0.547,0.604-0.885c0.146-0.338,0.22-0.702,0.22-1.093V14.781z"/>
	<path class="st1" d="M185.54,25.596c-0.224,0.521-0.531,0.977-0.921,1.367s-0.847,0.698-1.367,0.921
		c-0.521,0.224-1.079,0.336-1.672,0.336h-1.245c-0.594,0-1.153-0.112-1.679-0.336c-0.524-0.224-0.982-0.531-1.373-0.921
		s-0.698-0.846-0.922-1.367c-0.224-0.521-0.335-1.078-0.335-1.672V10.472h1.575v13.452c0,0.391,0.073,0.755,0.22,1.093
		c0.146,0.337,0.348,0.635,0.604,0.891c0.256,0.257,0.553,0.458,0.891,0.604c0.338,0.146,0.702,0.22,1.093,0.22h1.099
		c0.391,0,0.755-0.073,1.093-0.22c0.337-0.146,0.632-0.348,0.885-0.604c0.252-0.256,0.452-0.553,0.598-0.891
		c0.146-0.338,0.22-0.702,0.22-1.093V10.472h1.575v13.452C185.875,24.518,185.764,25.076,185.54,25.596z"/>
	<path class="st1" d="M198.894,25.596c-0.224,0.521-0.531,0.977-0.921,1.367s-0.847,0.698-1.367,0.921
		c-0.521,0.224-1.079,0.336-1.672,0.336h-1.245c-0.594,0-1.153-0.112-1.679-0.336c-0.524-0.224-0.982-0.531-1.373-0.921
		s-0.698-0.846-0.922-1.367c-0.224-0.521-0.335-1.078-0.335-1.672v-9.399c0-0.594,0.112-1.151,0.335-1.672
		c0.224-0.521,0.531-0.977,0.922-1.367s0.849-0.698,1.373-0.921c0.525-0.224,1.084-0.336,1.679-0.336h1.245
		c0.594,0,1.151,0.112,1.672,0.336c0.521,0.224,0.977,0.531,1.367,0.921s0.698,0.847,0.921,1.367
		c0.224,0.521,0.336,1.079,0.336,1.672v0.708l-1.575,0.244v-0.952c0-0.391-0.073-0.755-0.22-1.093
		c-0.146-0.337-0.346-0.632-0.598-0.885c-0.252-0.252-0.547-0.452-0.885-0.598c-0.338-0.146-0.702-0.22-1.093-0.22h-1.099
		c-0.391,0-0.755,0.073-1.093,0.22c-0.337,0.146-0.635,0.346-0.891,0.598c-0.257,0.252-0.458,0.547-0.604,0.885
		c-0.146,0.338-0.22,0.702-0.22,1.093v9.399c0,0.391,0.073,0.755,0.22,1.093c0.146,0.337,0.348,0.635,0.604,0.891
		c0.256,0.257,0.553,0.458,0.891,0.604c0.338,0.146,0.702,0.22,1.093,0.22h1.099c0.391,0,0.755-0.073,1.093-0.22
		c0.337-0.146,0.632-0.348,0.885-0.604c0.252-0.256,0.452-0.553,0.598-0.891c0.146-0.338,0.22-0.702,0.22-1.093v-0.952l1.575,0.256
		v0.696C199.23,24.518,199.118,25.076,198.894,25.596z"/>
	<path class="st1" d="M211.992,25.596c-0.224,0.521-0.531,0.977-0.921,1.367s-0.847,0.698-1.367,0.921
		c-0.521,0.224-1.079,0.336-1.672,0.336h-1.245c-0.594,0-1.153-0.112-1.679-0.336c-0.524-0.224-0.982-0.531-1.373-0.921
		s-0.698-0.846-0.922-1.367c-0.224-0.521-0.335-1.078-0.335-1.672v-9.399c0-0.594,0.112-1.151,0.335-1.672
		c0.224-0.521,0.531-0.977,0.922-1.367s0.849-0.698,1.373-0.921c0.525-0.224,1.084-0.336,1.679-0.336h1.245
		c0.594,0,1.151,0.112,1.672,0.336c0.521,0.224,0.977,0.531,1.367,0.921s0.698,0.847,0.921,1.367
		c0.224,0.521,0.336,1.079,0.336,1.672v0.708l-1.575,0.244v-0.952c0-0.391-0.073-0.755-0.22-1.093
		c-0.146-0.337-0.346-0.632-0.598-0.885c-0.252-0.252-0.547-0.452-0.885-0.598c-0.338-0.146-0.702-0.22-1.093-0.22h-1.099
		c-0.391,0-0.755,0.073-1.093,0.22c-0.337,0.146-0.635,0.346-0.891,0.598c-0.257,0.252-0.458,0.547-0.604,0.885
		c-0.146,0.338-0.22,0.702-0.22,1.093v9.399c0,0.391,0.073,0.755,0.22,1.093c0.146,0.337,0.348,0.635,0.604,0.891
		c0.256,0.257,0.553,0.458,0.891,0.604c0.338,0.146,0.702,0.22,1.093,0.22h1.099c0.391,0,0.755-0.073,1.093-0.22
		c0.337-0.146,0.632-0.348,0.885-0.604c0.252-0.256,0.452-0.553,0.598-0.891c0.146-0.338,0.22-0.702,0.22-1.093v-0.952l1.575,0.256
		v0.696C212.328,24.518,212.216,25.076,211.992,25.596z"/>
	<path class="st1" d="M215.831,27.977V10.472h1.575v17.505H215.831z"/>
	<path class="st1" d="M230.669,25.596c-0.224,0.521-0.531,0.977-0.921,1.367s-0.847,0.698-1.367,0.921
		c-0.521,0.224-1.079,0.336-1.672,0.336h-1.245c-0.594,0-1.153-0.112-1.679-0.336c-0.524-0.224-0.982-0.531-1.373-0.921
		s-0.698-0.846-0.922-1.367c-0.224-0.521-0.335-1.078-0.335-1.672v-9.399c0-0.594,0.112-1.151,0.335-1.672
		c0.224-0.521,0.531-0.977,0.922-1.367s0.849-0.698,1.373-0.921c0.525-0.224,1.084-0.336,1.679-0.336h1.245
		c0.594,0,1.151,0.112,1.672,0.336c0.521,0.224,0.977,0.531,1.367,0.921s0.698,0.847,0.921,1.367
		c0.224,0.521,0.336,1.079,0.336,1.672v9.399C231.005,24.518,230.893,25.076,230.669,25.596z M229.43,14.524
		c0-0.391-0.073-0.755-0.22-1.093c-0.146-0.337-0.346-0.632-0.598-0.885c-0.252-0.252-0.547-0.452-0.885-0.598
		c-0.338-0.146-0.702-0.22-1.093-0.22h-1.099c-0.391,0-0.755,0.073-1.093,0.22c-0.337,0.146-0.635,0.346-0.891,0.598
		c-0.257,0.252-0.458,0.547-0.604,0.885c-0.146,0.338-0.22,0.702-0.22,1.093v9.399c0,0.391,0.073,0.755,0.22,1.093
		c0.146,0.337,0.348,0.635,0.604,0.891c0.256,0.257,0.553,0.458,0.891,0.604c0.338,0.146,0.702,0.22,1.093,0.22h1.099
		c0.391,0,0.755-0.073,1.093-0.22c0.337-0.146,0.632-0.348,0.885-0.604c0.252-0.256,0.452-0.553,0.598-0.891
		c0.146-0.338,0.22-0.702,0.22-1.093V14.524z M225.707,8.482h-1.123l2.002-3.003h2.502L225.707,8.482z"/>
	<path class="st1" d="M243.786,27.977l-7.3-12.744l-0.146-0.757v13.501h-1.575V10.472h0.818l7.3,12.756l0.159,0.745V10.472h1.575
		v17.505H243.786z"/>
</g>
<g>
	<g>
		<path d="M89.718,11.032c-0.001-0.136-0.045-0.269-0.138-0.375l-5.701-6.512c-0.001-0.001-0.003-0.003-0.004-0.004
			c-0.035-0.038-0.073-0.069-0.116-0.097c-0.012-0.008-0.024-0.015-0.038-0.022c-0.036-0.02-0.074-0.036-0.114-0.048
			c-0.01-0.003-0.02-0.007-0.031-0.01c-0.043-0.01-0.088-0.016-0.133-0.016H69.431c-0.639,0-1.16,0.52-1.16,1.16v27.25
			c0,0.64,0.521,1.16,1.16,1.16h19.133c0.64,0,1.16-0.52,1.16-1.16V11.097C89.724,11.075,89.72,11.054,89.718,11.032z M69.431,5.106
			h13.432v5.932c0,0.32,0.259,0.58,0.58,0.58h5.122l0.001,12.017H69.431V5.106z"/>
		<g>
			<path class="st1" d="M69.592,30.759v-4.495H70.5v4.495H69.592z"/>
			<path class="st1" d="M71.373,30.759v-4.495h0.884l1.839,3.001v-3.001h0.844v4.495h-0.911l-1.812-2.931v2.931H71.373z"/>
			<path class="st1" d="M76.911,30.759v-3.734h-1.334v-0.76h3.571v0.76h-1.33v3.734H76.911z"/>
			<path class="st1" d="M79.737,30.759v-4.495h1.91c0.48,0,0.829,0.041,1.047,0.121s0.393,0.224,0.523,0.431
				c0.13,0.207,0.195,0.442,0.195,0.708c0,0.337-0.099,0.616-0.297,0.835s-0.495,0.358-0.89,0.415
				c0.196,0.115,0.358,0.24,0.486,0.377c0.128,0.137,0.3,0.38,0.517,0.729l0.549,0.877h-1.085l-0.656-0.978
				c-0.233-0.35-0.393-0.57-0.479-0.661s-0.177-0.153-0.272-0.187c-0.097-0.034-0.249-0.051-0.457-0.051h-0.185v1.876H79.737z
				 M80.644,28.165h0.672c0.436,0,0.707-0.019,0.815-0.055s0.193-0.1,0.255-0.19c0.062-0.09,0.092-0.203,0.092-0.337
				c0-0.151-0.04-0.273-0.121-0.366c-0.081-0.093-0.194-0.152-0.342-0.177c-0.073-0.01-0.295-0.015-0.662-0.015h-0.709V28.165z"/>
			<path class="st1" d="M84.085,28.539c0-0.458,0.068-0.842,0.206-1.153c0.102-0.229,0.241-0.434,0.418-0.616
				s0.37-0.317,0.581-0.405c0.28-0.119,0.603-0.178,0.969-0.178c0.662,0,1.192,0.206,1.59,0.616s0.597,0.982,0.597,1.714
				c0,0.726-0.197,1.293-0.592,1.703s-0.922,0.615-1.582,0.615c-0.669,0-1.2-0.204-1.595-0.612S84.085,29.254,84.085,28.539z
				 M85.02,28.508c0,0.509,0.117,0.895,0.353,1.158c0.234,0.262,0.533,0.394,0.896,0.394c0.361,0,0.658-0.13,0.891-0.391
				c0.231-0.261,0.348-0.652,0.348-1.173c0-0.515-0.113-0.899-0.339-1.153s-0.525-0.38-0.899-0.38c-0.375,0-0.676,0.128-0.905,0.385
				C85.135,27.604,85.02,27.991,85.02,28.508z"/>
		</g>
		<g>
			<path d="M75.368,17.498h-0.961v-1.554h1.272l0.424-2.084h-1.696v-1.562h2.014l0.558-2.755h1.583l-0.558,2.755h1.562l0.544-2.755
				h1.639l-0.565,2.755h0.975v1.562h-1.293l-0.424,2.084h1.717v1.554h-2.035l-0.558,2.755h-1.576l0.544-2.755h-1.568l-0.558,2.755
				H74.81L75.368,17.498z M77.693,13.859l-0.417,2.084h1.568l0.41-2.084H77.693z"/>
		</g>
	</g>
</g>
</svg>