<!-- Generator: Adobe Illustrator 17.0.0, SVG Export Plug-In  -->
<svg version="1.1"
	 xmlns="http://www.w3.org/2000/svg" xmlns:xlink="http://www.w3.org/1999/xlink" xmlns:a="http://ns.adobe.com/AdobeSVGViewerExtensions/3.0/"
	 x="0px" y="0px" width="200.49px" height="59.665px" viewBox="0 0 200.49 59.665"
	 style="enable-background:new 0 0 200.49 59.665;" xml:space="preserve">
<style type="text/css">
	.st0{fill:#E54F26;}
	.st1{fill:url(#SVGID_1_);}
	.st2{fill:#F5F5F5;}
	.st3{fill:#FFFFFF;}
	.st4{fill:url(#XMLID_17_);}
	.st5{fill:url(#XMLID_18_);}
	.st6{fill:url(#XMLID_19_);}
	.st7{fill:url(#XMLID_20_);}
	.st8{fill:url(#SVGID_2_);}
	.st9{fill:url(#XMLID_21_);}
	.st10{fill:url(#XMLID_22_);}
	.st11{fill:url(#XMLID_23_);}
	.st12{fill:url(#XMLID_24_);}
</style>
<defs>
</defs>
<g>
	<polygon id="XMLID_16_" points="139.367,4.737 145.014,0 145.014,4.737 	"/>
	<rect x="0" y="7.105" class="st0" width="200.49" height="50.191"/>
	<linearGradient id="SVGID_1_" gradientUnits="userSpaceOnUse" x1="0" y1="29.8325" x2="200.4902" y2="29.8325">
		<stop  offset="0" style="stop-color:#F5F5F5"/>
		<stop  offset="1" style="stop-color:#E8E8E8"/>
	</linearGradient>
	<rect x="0" y="4.737" class="st1" width="200.49" height="50.19"/>
	<rect id="XMLID_15_" x="145.014" y="0" class="st0" width="36.804" height="59.665"/>
	<polygon id="XMLID_14_" points="139.367,57.206 145.014,59.665 145.014,57.206 	"/>
	<rect id="XMLID_13_" x="143.194" y="4.829" class="st2" width="1.732" height="52.377"/>
	<g id="XMLID_10_">
		<path id="XMLID_12_" class="st3" d="M178.174,41.537l-5.832-5.828c-0.363-0.365-0.912-0.548-1.455-0.548l-1.912-1.912
			c3.277-4.373,3.004-10.566-1.004-14.574c-4.373-4.373-11.387-4.373-15.759,0c-4.373,4.371-4.373,11.386,0,15.759
			c4.009,4.009,10.204,4.279,14.574,1.001l1.913,1.913c0,0.547,0.184,1.003,0.547,1.457l5.829,5.831c0.73,0.728,1.915,0.728,2.642,0
			l0.457-0.455C178.901,43.359,178.901,42.268,178.174,41.537L178.174,41.537z M165.51,31.974c-3.005,3.007-7.922,3.007-10.928,0
			c-3.007-3.006-3.007-7.926,0-10.931c3.006-3.006,7.923-3.006,10.928,0C168.609,24.048,168.518,28.968,165.51,31.974L165.51,31.974
			z"/>
		<path id="XMLID_11_" class="st3" d="M163.143,25.323h-1.822v-1.821c0-0.638-0.546-1.184-1.183-1.184l0,0
			c-0.64,0-1.185,0.547-1.185,1.184v1.821h-1.824c-0.637,0-1.183,0.547-1.183,1.184l0,0c0,0.64,0.546,1.185,1.183,1.185h1.824v1.823
			c0,0.636,0.545,1.185,1.185,1.185l0,0c0.637,0,1.183-0.549,1.183-1.185v-1.823h1.822c0.637,0,1.186-0.545,1.186-1.185l0,0
			C164.328,25.87,163.779,25.323,163.143,25.323L163.143,25.323z"/>
	</g>
	<g>
		<path d="M62.293,25.87h1.405v4.424c0,0.578-0.051,1.023-0.152,1.335c-0.137,0.406-0.384,0.733-0.743,0.979
			s-0.833,0.369-1.421,0.369c-0.689,0-1.22-0.193-1.592-0.579s-0.56-0.952-0.563-1.699l1.33-0.152
			c0.016,0.4,0.074,0.683,0.176,0.848c0.153,0.252,0.385,0.377,0.696,0.377c0.314,0,0.537-0.09,0.667-0.27
			c0.131-0.18,0.196-0.552,0.196-1.117V25.87z"/>
		<path d="M71.502,32.858h-1.534l-0.61-1.587h-2.794l-0.576,1.587H64.49l2.722-6.988h1.492L71.502,32.858z M68.904,30.094
			L67.941,27.5l-0.943,2.594H68.904z"/>
		<path d="M74.033,32.858l-2.498-6.988h1.53l1.769,5.172l1.711-5.172h1.497l-2.503,6.988H74.033z"/>
		<path d="M85.063,32.858h-1.534l-0.61-1.587h-2.794l-0.576,1.587h-1.497l2.722-6.988h1.492L85.063,32.858z M82.466,30.094
			L81.503,27.5l-0.943,2.594H82.466z"/>
		<path d="M85.454,30.585l1.373-0.134c0.083,0.461,0.25,0.799,0.503,1.016c0.253,0.216,0.594,0.324,1.022,0.324
			c0.454,0,0.797-0.097,1.027-0.289s0.346-0.417,0.346-0.674c0-0.166-0.049-0.307-0.146-0.422c-0.097-0.116-0.267-0.218-0.508-0.303
			c-0.165-0.058-0.542-0.159-1.13-0.306c-0.756-0.188-1.287-0.418-1.592-0.691c-0.429-0.384-0.644-0.853-0.644-1.406
			c0-0.355,0.101-0.688,0.303-0.998s0.492-0.546,0.872-0.708s0.838-0.243,1.375-0.243c0.878,0,1.538,0.192,1.981,0.577
			c0.443,0.384,0.676,0.897,0.698,1.539l-1.411,0.063c-0.061-0.359-0.19-0.617-0.389-0.774c-0.198-0.158-0.496-0.236-0.894-0.236
			c-0.41,0-0.731,0.084-0.963,0.253c-0.149,0.107-0.225,0.252-0.225,0.434c0,0.165,0.07,0.307,0.21,0.424
			c0.178,0.149,0.61,0.306,1.297,0.468s1.194,0.329,1.522,0.503c0.329,0.173,0.587,0.409,0.772,0.71
			c0.187,0.3,0.279,0.671,0.279,1.113c0,0.4-0.111,0.775-0.334,1.125c-0.223,0.35-0.537,0.609-0.943,0.779
			c-0.407,0.17-0.914,0.255-1.521,0.255c-0.883,0-1.562-0.204-2.035-0.612C85.829,31.962,85.547,31.366,85.454,30.585z"/>
		<path d="M96.795,30.289l1.368,0.434c-0.21,0.763-0.559,1.329-1.047,1.699c-0.487,0.371-1.106,0.556-1.856,0.556
			c-0.928,0-1.69-0.317-2.288-0.951c-0.598-0.634-0.896-1.501-0.896-2.601c0-1.163,0.301-2.066,0.901-2.71s1.391-0.965,2.369-0.965
			c0.854,0,1.549,0.253,2.083,0.758c0.318,0.299,0.557,0.728,0.715,1.287l-1.396,0.334c-0.083-0.362-0.255-0.648-0.517-0.858
			c-0.263-0.21-0.581-0.314-0.956-0.314c-0.519,0-0.938,0.186-1.261,0.558c-0.323,0.372-0.484,0.975-0.484,1.807
			c0,0.884,0.159,1.513,0.477,1.888c0.318,0.375,0.731,0.563,1.24,0.563c0.374,0,0.697-0.119,0.967-0.357
			C96.483,31.176,96.678,30.801,96.795,30.289z"/>
		<path d="M99.378,32.858V25.87h2.97c0.747,0,1.29,0.063,1.628,0.188c0.339,0.125,0.609,0.349,0.813,0.67
			c0.204,0.32,0.306,0.688,0.306,1.101c0,0.524-0.154,0.958-0.463,1.299c-0.308,0.342-0.769,0.558-1.382,0.646
			c0.305,0.178,0.557,0.373,0.755,0.586c0.199,0.213,0.467,0.591,0.804,1.135l0.854,1.363h-1.688l-1.021-1.521
			c-0.362-0.544-0.61-0.886-0.743-1.027c-0.134-0.142-0.275-0.238-0.425-0.291c-0.149-0.052-0.386-0.078-0.71-0.078h-0.286v2.917
			H99.378z M100.789,28.825h1.044c0.677,0,1.1-0.028,1.268-0.085c0.169-0.058,0.301-0.156,0.396-0.296
			c0.095-0.14,0.143-0.314,0.143-0.524c0-0.235-0.063-0.425-0.188-0.569c-0.125-0.145-0.303-0.236-0.531-0.274
			c-0.114-0.016-0.458-0.023-1.029-0.023h-1.102V28.825z"/>
		<path d="M106.38,32.858V25.87h1.411v6.988H106.38z"/>
		<path d="M109.135,32.858V25.87h2.265c0.858,0,1.417,0.035,1.678,0.104c0.4,0.105,0.735,0.333,1.006,0.685s0.405,0.805,0.405,1.36
			c0,0.43-0.078,0.79-0.233,1.083c-0.156,0.292-0.354,0.521-0.594,0.688s-0.483,0.277-0.731,0.331
			c-0.337,0.066-0.825,0.101-1.464,0.101h-0.92v2.636H109.135z M110.546,27.053v1.982h0.772c0.556,0,0.928-0.036,1.115-0.109
			s0.335-0.188,0.441-0.344c0.106-0.155,0.159-0.336,0.159-0.543c0-0.254-0.074-0.464-0.224-0.629s-0.339-0.269-0.567-0.311
			c-0.169-0.031-0.507-0.047-1.016-0.047H110.546z"/>
		<path d="M117.22,32.858v-5.806h-2.073V25.87h5.553v1.183h-2.068v5.806H117.22z"/>
	</g>
	<g>
		<path class="st3" d="M155.443,54.227V48.5h2.16c0.38,0,0.671,0.019,0.871,0.055c0.281,0.047,0.517,0.136,0.707,0.268
			s0.343,0.315,0.459,0.553s0.174,0.497,0.174,0.781c0,0.487-0.155,0.899-0.465,1.236s-0.87,0.506-1.68,0.506h-1.469v2.328H155.443z
			 M156.201,51.223h1.48c0.489,0,0.837-0.091,1.043-0.273s0.309-0.438,0.309-0.77c0-0.239-0.061-0.444-0.182-0.615
			s-0.28-0.283-0.479-0.338c-0.128-0.034-0.363-0.051-0.707-0.051h-1.465V51.223z"/>
		<path class="st3" d="M160.779,54.227V48.5h1.973c0.445,0,0.785,0.027,1.02,0.082c0.328,0.075,0.608,0.212,0.84,0.41
			c0.302,0.255,0.528,0.581,0.678,0.979s0.225,0.851,0.225,1.361c0,0.435-0.051,0.82-0.152,1.156s-0.231,0.614-0.391,0.834
			s-0.333,0.394-0.521,0.52s-0.417,0.222-0.684,0.287s-0.573,0.098-0.92,0.098H160.779z M161.537,53.551h1.223
			c0.378,0,0.674-0.035,0.889-0.105s0.386-0.169,0.514-0.297c0.18-0.18,0.319-0.421,0.42-0.725s0.15-0.671,0.15-1.104
			c0-0.599-0.099-1.06-0.295-1.381s-0.436-0.537-0.717-0.646c-0.203-0.078-0.53-0.117-0.98-0.117h-1.203V53.551z"/>
		<path class="st3" d="M166.596,54.227V48.5h3.863v0.676h-3.105v1.773h2.688v0.676h-2.688v2.602H166.596z"/>
	</g>
	<g id="XMLID_1_">
		<rect x="12.762" y="15.589" class="st0" width="23.416" height="27.145"/>
		<path id="XMLID_6_" d="M39.217,44.986H15.8V43.71h21.359V17.843h2.058V44.986L39.217,44.986z M12.762,15.589h23.416v27.144H12.762
			V15.589L12.762,15.589z M37.159,16.864V14.61H11.782v29.1h3.038v2.256h25.375V16.864H37.159L37.159,16.864z"/>
		<linearGradient id="XMLID_17_" gradientUnits="userSpaceOnUse" x1="25.0567" y1="38.8106" x2="26.0859" y2="38.8106">
			<stop  offset="0" style="stop-color:#F5F5F5"/>
			<stop  offset="1" style="stop-color:#E8E8E8"/>
		</linearGradient>
		<polygon id="XMLID_5_" class="st4" points="25.057,38.321 26.086,38.321 26.086,39.3 25.057,39.3 25.057,38.321 		"/>
		<linearGradient id="XMLID_18_" gradientUnits="userSpaceOnUse" x1="27.2656" y1="38.8106" x2="28.293" y2="38.8106">
			<stop  offset="0" style="stop-color:#F5F5F5"/>
			<stop  offset="1" style="stop-color:#E8E8E8"/>
		</linearGradient>
		<polygon id="XMLID_4_" class="st5" points="27.266,38.321 28.293,38.321 28.293,39.3 27.266,39.3 27.266,38.321 		"/>
		<linearGradient id="XMLID_19_" gradientUnits="userSpaceOnUse" x1="29.5195" y1="38.8106" x2="30.5488" y2="38.8106">
			<stop  offset="0" style="stop-color:#F5F5F5"/>
			<stop  offset="1" style="stop-color:#E8E8E8"/>
		</linearGradient>
		<polygon id="XMLID_3_" class="st6" points="29.52,38.321 30.549,38.321 30.549,39.3 29.52,39.3 29.52,38.321 		"/>
		<linearGradient id="XMLID_20_" gradientUnits="userSpaceOnUse" x1="31.7217" y1="38.8106" x2="32.752" y2="38.8106">
			<stop  offset="0" style="stop-color:#F5F5F5"/>
			<stop  offset="1" style="stop-color:#E8E8E8"/>
		</linearGradient>
		<polygon id="XMLID_2_" class="st7" points="31.722,38.321 32.752,38.321 32.752,39.3 31.722,39.3 31.722,38.321 		"/>
	</g>
	<path class="st3" d="M18.757,24.335v-2.899c0-0.401,0.323-0.725,0.721-0.725c0.399,0,0.725-0.326,0.725-0.725
		c0-0.402-0.325-0.725-0.725-0.725c-1.198,0-2.172,0.973-2.172,2.174v2.899c0,0.796-0.649,1.446-1.449,1.446
		c-0.401,0-0.725,0.326-0.725,0.725c0,0.402,0.323,0.725,0.725,0.725c0.8,0,1.449,0.65,1.449,1.45v2.899
		c0,1.197,0.974,2.174,2.172,2.174c0.399,0,0.725-0.322,0.725-0.725c0-0.401-0.325-0.725-0.725-0.725
		c-0.397,0-0.721-0.326-0.721-0.725v-2.899c0-0.868-0.397-1.64-1.004-2.175C18.359,25.975,18.757,25.203,18.757,24.335z"/>
	<path class="st3" d="M31.182,26.506c-0.607,0.535-1,1.307-1,2.175v2.899c0,0.398-0.325,0.725-0.725,0.725
		c-0.402,0-0.724,0.323-0.724,0.725c0,0.402,0.321,0.725,0.724,0.725c1.198,0,2.175-0.977,2.175-2.174v-2.899
		c0-0.8,0.65-1.45,1.448-1.45c0.398,0,0.727-0.322,0.727-0.725c0-0.398-0.328-0.725-0.727-0.725c-0.798,0-1.448-0.65-1.448-1.446
		v-2.899c0-1.201-0.976-2.174-2.175-2.174c-0.402,0-0.724,0.322-0.724,0.725c0,0.398,0.321,0.725,0.724,0.725
		c0.399,0,0.725,0.323,0.725,0.725v2.899C30.182,25.203,30.575,25.975,31.182,26.506z"/>
	<path class="st3" d="M24.552,22.882c0.604,0,1.087,0.487,1.087,1.089c0,0.6-0.482,1.086-1.087,1.086
		c-0.601,0-1.087-0.486-1.087-1.086C23.465,23.369,23.951,22.882,24.552,22.882z"/>
	<path class="st3" d="M24.552,27.955c-0.402,0-0.725,0.327-0.725,0.726v2.175c0,0.4,0.322,0.725,0.725,0.725
		c0.399,0,0.724-0.324,0.724-0.725v-2.175C25.275,28.282,24.951,27.955,24.552,27.955z"/>
</g>
</svg>