<!-- Generator: Adobe Illustrator 17.0.0, SVG Export Plug-In  -->
<svg version="1.1"
	 xmlns="http://www.w3.org/2000/svg" xmlns:xlink="http://www.w3.org/1999/xlink" xmlns:a="http://ns.adobe.com/AdobeSVGViewerExtensions/3.0/"
	 x="0px" y="0px" width="653.373px" height="36.215px" viewBox="0 0 653.373 36.215"
	 style="enable-background:new 0 0 653.373 36.215;" xml:space="preserve">
<style type="text/css">
	.st0{fill:url(#SVGID_1_);}
	.st1{fill:#F1F1F1;}
	.st2{fill:url(#SVGID_2_);}
</style>
<defs>
</defs>
<linearGradient id="SVGID_1_" gradientUnits="userSpaceOnUse" x1="0" y1="18.1075" x2="653.373" y2="18.1075">
	<stop  offset="0" style="stop-color:#783214"/>
	<stop  offset="0.5" style="stop-color:#F16529"/>
	<stop  offset="1" style="stop-color:#783214"/>
</linearGradient>
<polygon class="st0" points="0,36.215 7.814,0 653.373,0 630.754,35.953 "/>
<g>
	<path class="st1" d="M85.92,27.977V10.472h9.852v1.502h-8.277v6.506h6.702v1.502h-6.702v6.494h8.277v1.501H85.92z"/>
	<path class="st1" d="M98.518,27.977V10.472h1.574v16.004h6.702v1.501H98.518z"/>
	<path class="st1" d="M114.789,27.977V10.472h1.575v16.004h6.702v1.501H114.789z"/>
	<path class="st1" d="M125.568,27.977V10.472h9.852v1.502h-8.277v6.506h6.702v1.502h-6.702v6.494h8.277v1.501H125.568z"/>
	<path class="st1" d="M147.443,27.977l-7.3-12.744l-0.146-0.757v13.501h-1.575V10.472h0.818l7.3,12.756l0.159,0.745V10.472h1.574
		v17.505H147.443z"/>
	<path class="st1" d="M161.872,27.977h-0.501l-0.915-1.403c-0.383,0.504-0.847,0.904-1.392,1.202
		c-0.545,0.297-1.152,0.445-1.818,0.445h-0.916c-0.594,0-1.153-0.112-1.679-0.336c-0.524-0.224-0.982-0.53-1.373-0.921
		s-0.698-0.847-0.922-1.367c-0.224-0.521-0.335-1.078-0.335-1.673v-9.399c0-0.594,0.111-1.151,0.335-1.672
		c0.224-0.521,0.531-0.977,0.922-1.367s0.849-0.698,1.373-0.922c0.525-0.225,1.085-0.336,1.679-0.336h1.245
		c0.594,0,1.151,0.111,1.673,0.336c0.52,0.224,0.977,0.531,1.367,0.922s0.697,0.846,0.921,1.367
		c0.224,0.521,0.336,1.078,0.336,1.672v0.708l-1.575,0.244v-0.952c0-0.391-0.072-0.755-0.219-1.093
		c-0.146-0.337-0.347-0.632-0.599-0.885c-0.253-0.252-0.548-0.452-0.885-0.599c-0.338-0.146-0.702-0.219-1.093-0.219h-1.099
		c-0.391,0-0.755,0.072-1.093,0.219s-0.635,0.347-0.891,0.599c-0.257,0.253-0.458,0.548-0.604,0.885
		c-0.146,0.338-0.22,0.702-0.22,1.093v9.399c0,0.391,0.073,0.755,0.22,1.093s0.348,0.635,0.604,0.891
		c0.256,0.257,0.553,0.458,0.891,0.604s0.702,0.22,1.093,0.22h1.099c0.391,0,0.755-0.073,1.093-0.22
		c0.337-0.146,0.632-0.348,0.885-0.604c0.252-0.256,0.452-0.553,0.599-0.891s0.219-0.702,0.219-1.093v-3.649h-2.795v-1.502h4.37
		V27.977z"/>
	<path class="st1" d="M174.891,25.597c-0.224,0.521-0.531,0.977-0.922,1.367s-0.846,0.697-1.367,0.921
		c-0.521,0.224-1.078,0.336-1.672,0.336h-1.245c-0.595,0-1.153-0.112-1.679-0.336c-0.524-0.224-0.982-0.53-1.373-0.921
		s-0.697-0.847-0.922-1.367c-0.224-0.521-0.336-1.078-0.336-1.673V10.472h1.575v13.452c0,0.391,0.073,0.755,0.22,1.093
		s0.348,0.635,0.604,0.891c0.256,0.257,0.554,0.458,0.891,0.604c0.338,0.146,0.702,0.22,1.093,0.22h1.099
		c0.391,0,0.755-0.073,1.093-0.22s0.633-0.348,0.885-0.604c0.252-0.256,0.451-0.553,0.598-0.891s0.221-0.702,0.221-1.093V10.472
		h1.574v13.452C175.227,24.519,175.115,25.075,174.891,25.597z"/>
	<path class="st1" d="M185.554,23.899h-5.542l-1.147,4.077h-1.636l5.127-17.505h0.83l5.151,17.505h-1.624L185.554,23.899z
		 M180.439,22.397h4.699l-2.307-8.068l-0.049-0.646l-0.049,0.646L180.439,22.397z"/>
	<path class="st1" d="M198.097,25.597c-0.224,0.521-0.531,0.977-0.922,1.367s-0.847,0.697-1.367,0.921s-1.079,0.336-1.673,0.336
		h-0.5c-0.594,0-1.153-0.112-1.679-0.336c-0.524-0.224-0.982-0.53-1.373-0.921s-0.698-0.847-0.922-1.367
		c-0.224-0.521-0.335-1.078-0.335-1.673v-0.696l1.574-0.256v0.952c0,0.391,0.073,0.755,0.22,1.093s0.348,0.635,0.604,0.891
		c0.256,0.257,0.553,0.458,0.891,0.604s0.702,0.22,1.093,0.22h0.354c0.382,0,0.744-0.073,1.086-0.22s0.639-0.348,0.891-0.604
		c0.252-0.256,0.452-0.553,0.599-0.891s0.22-0.702,0.22-1.093V10.472h1.574v13.452C198.432,24.519,198.32,25.075,198.097,25.597z"/>
	<path class="st1" d="M201.936,27.977V10.472h9.852v1.502h-8.277v6.506h6.702v1.502h-6.702v6.494h8.277v1.501H201.936z"/>
	<path class="st1" d="M228.053,25.597c-0.225,0.521-0.531,0.977-0.922,1.367s-0.847,0.697-1.367,0.921
		c-0.521,0.224-1.078,0.336-1.672,0.336h-0.501c-0.595,0-1.153-0.112-1.679-0.336c-0.524-0.224-0.982-0.53-1.373-0.921
		s-0.697-0.847-0.922-1.367c-0.224-0.521-0.336-1.078-0.336-1.673v-0.696l1.575-0.256v0.952c0,0.391,0.073,0.755,0.22,1.093
		s0.348,0.635,0.604,0.891c0.256,0.257,0.554,0.458,0.891,0.604c0.338,0.146,0.702,0.22,1.093,0.22h0.354
		c0.383,0,0.745-0.073,1.087-0.22s0.639-0.348,0.892-0.604c0.252-0.256,0.451-0.553,0.598-0.891s0.22-0.702,0.22-1.093V10.472h1.575
		v13.452C228.389,24.519,228.276,25.075,228.053,25.597z"/>
	<path class="st1" d="M238.459,23.899h-5.542l-1.147,4.077h-1.636l5.127-17.505h0.83l5.151,17.505h-1.623L238.459,23.899z
		 M233.344,22.397h4.7l-2.308-8.068l-0.049-0.646l-0.049,0.646L233.344,22.397z"/>
	<path class="st1" d="M247.236,24.132l0.049,0.646l0.049-0.646l3.881-13.66h1.624l-5.151,17.505h-0.83l-5.127-17.505h1.636
		L247.236,24.132z"/>
	<path class="st1" d="M261.652,23.899h-5.542l-1.147,4.077h-1.636l5.127-17.505h0.83l5.151,17.505h-1.623L261.652,23.899z
		 M256.537,22.397h4.7l-2.308-8.068l-0.049-0.646l-0.049,0.646L256.537,22.397z"/>
	<path class="st1" d="M276.276,23.924c0,0.595-0.12,1.151-0.36,1.673c-0.24,0.521-0.562,0.977-0.964,1.367
		c-0.403,0.391-0.871,0.697-1.404,0.921c-0.532,0.224-1.097,0.336-1.69,0.336H270.6c-0.594,0-1.157-0.112-1.69-0.336
		c-0.532-0.224-1.001-0.53-1.403-0.921c-0.403-0.391-0.725-0.847-0.965-1.367c-0.24-0.521-0.359-1.078-0.359-1.673v-0.696
		l1.574-0.256v0.952c0,0.391,0.079,0.755,0.238,1.093c0.158,0.338,0.372,0.635,0.641,0.891c0.269,0.257,0.58,0.458,0.934,0.604
		c0.354,0.146,0.727,0.22,1.117,0.22h1.099c0.391,0,0.761-0.073,1.11-0.22s0.66-0.348,0.928-0.604
		c0.27-0.256,0.482-0.553,0.642-0.891c0.158-0.338,0.237-0.702,0.237-1.093v-0.524c0-0.603-0.117-1.104-0.354-1.502
		s-0.549-0.738-0.939-1.02c-0.391-0.28-0.832-0.519-1.325-0.714c-0.492-0.195-0.999-0.391-1.52-0.586s-1.027-0.411-1.52-0.647
		c-0.493-0.235-0.935-0.53-1.325-0.885c-0.391-0.354-0.703-0.787-0.939-1.3s-0.354-1.144-0.354-1.892v-0.33
		c0-0.594,0.111-1.151,0.335-1.672c0.224-0.521,0.531-0.977,0.922-1.367s0.849-0.698,1.373-0.922
		c0.525-0.225,1.085-0.336,1.679-0.336h1.123c0.594,0,1.151,0.111,1.672,0.336c0.521,0.224,0.977,0.531,1.367,0.922
		s0.698,0.846,0.922,1.367c0.225,0.521,0.336,1.078,0.336,1.672v0.451l-1.574,0.257v-0.708c0-0.391-0.074-0.755-0.221-1.093
		c-0.146-0.337-0.346-0.632-0.598-0.885c-0.252-0.252-0.547-0.452-0.885-0.599s-0.702-0.219-1.093-0.219h-0.977
		c-0.391,0-0.755,0.072-1.093,0.219s-0.635,0.347-0.891,0.599c-0.257,0.253-0.458,0.548-0.604,0.885
		c-0.146,0.338-0.22,0.702-0.22,1.093v0.33c0,0.561,0.117,1.033,0.354,1.416c0.236,0.383,0.55,0.709,0.94,0.982
		c0.391,0.272,0.832,0.508,1.324,0.708c0.493,0.199,0.999,0.402,1.521,0.61c0.52,0.207,1.027,0.436,1.52,0.684
		s0.934,0.553,1.324,0.915s0.703,0.804,0.939,1.325c0.236,0.521,0.354,1.155,0.354,1.904V23.924z"/>
	<path class="st1" d="M288.916,25.597c-0.223,0.521-0.53,0.977-0.921,1.367s-0.847,0.697-1.367,0.921s-1.079,0.336-1.673,0.336
		h-1.244c-0.595,0-1.154-0.112-1.68-0.336c-0.523-0.224-0.982-0.53-1.373-0.921s-0.697-0.847-0.922-1.367
		c-0.223-0.521-0.335-1.078-0.335-1.673v-9.399c0-0.594,0.112-1.151,0.335-1.672c0.225-0.521,0.531-0.977,0.922-1.367
		s0.85-0.698,1.373-0.922c0.525-0.225,1.085-0.336,1.68-0.336h1.244c0.594,0,1.152,0.111,1.673,0.336
		c0.521,0.224,0.977,0.531,1.367,0.922s0.698,0.846,0.921,1.367c0.225,0.521,0.336,1.078,0.336,1.672v0.708l-1.574,0.244v-0.952
		c0-0.391-0.073-0.755-0.22-1.093c-0.146-0.337-0.347-0.632-0.599-0.885c-0.252-0.252-0.547-0.452-0.885-0.599
		s-0.701-0.219-1.092-0.219h-1.1c-0.391,0-0.754,0.072-1.092,0.219s-0.635,0.347-0.891,0.599c-0.258,0.253-0.459,0.548-0.605,0.885
		c-0.146,0.338-0.219,0.702-0.219,1.093v9.399c0,0.391,0.072,0.755,0.219,1.093s0.348,0.635,0.605,0.891
		c0.256,0.257,0.553,0.458,0.891,0.604s0.701,0.22,1.092,0.22h1.1c0.391,0,0.754-0.073,1.092-0.22s0.633-0.348,0.885-0.604
		c0.252-0.256,0.452-0.553,0.599-0.891s0.22-0.702,0.22-1.093v-0.952l1.574,0.256v0.696
		C289.252,24.519,289.141,25.075,288.916,25.597z"/>
	<path class="st1" d="M300.983,27.977l-4.749-7.471h-2.16v7.471H292.5V10.472h5.554c0.594,0,1.151,0.111,1.673,0.336
		c0.52,0.224,0.977,0.531,1.367,0.922s0.697,0.848,0.921,1.373c0.224,0.524,0.336,1.084,0.336,1.678v1.416
		c0,0.595-0.112,1.154-0.336,1.679c-0.224,0.525-0.53,0.983-0.921,1.374s-0.848,0.697-1.367,0.921
		c-0.521,0.224-1.079,0.336-1.673,0.336l4.749,7.471H300.983z M300.775,14.78c0-0.391-0.072-0.754-0.219-1.092
		s-0.347-0.635-0.599-0.892c-0.253-0.256-0.548-0.458-0.885-0.604c-0.338-0.146-0.702-0.219-1.093-0.219h-3.906v7.031h3.906
		c0.391,0,0.755-0.074,1.093-0.221c0.337-0.146,0.632-0.348,0.885-0.604c0.252-0.257,0.452-0.554,0.599-0.892
		c0.146-0.337,0.219-0.702,0.219-1.093V14.78z"/>
	<path class="st1" d="M305.805,27.977V10.472h1.575v17.505H305.805z"/>
	<path class="st1" d="M320.899,18.626c-0.224,0.521-0.531,0.977-0.922,1.367s-0.849,0.697-1.373,0.922
		c-0.525,0.224-1.085,0.336-1.679,0.336h-3.967v6.726h-1.575V10.472h5.542c0.594,0,1.153,0.111,1.679,0.336
		c0.524,0.224,0.982,0.531,1.373,0.922s0.698,0.848,0.922,1.373c0.224,0.524,0.335,1.084,0.335,1.678v2.174
		C321.234,17.548,321.123,18.105,320.899,18.626z M319.66,14.78c0-0.391-0.073-0.754-0.22-1.092s-0.348-0.635-0.604-0.892
		c-0.256-0.256-0.553-0.458-0.891-0.604s-0.702-0.219-1.093-0.219h-3.894v7.775h3.894c0.391,0,0.755-0.073,1.093-0.22
		s0.635-0.346,0.891-0.599c0.257-0.252,0.458-0.547,0.604-0.885s0.22-0.701,0.22-1.092V14.78z"/>
	<path class="st1" d="M328.486,11.974v16.003h-1.575V11.974h-4.175v-1.502h9.924v1.502H328.486z"/>
</g>
<g>
	<g>
		<path d="M69.677,10.408c-0.002-0.137-0.045-0.27-0.139-0.375L63.839,3.52c0,0-0.002-0.002-0.006-0.004
			c-0.036-0.037-0.072-0.068-0.115-0.096c-0.012-0.008-0.026-0.016-0.04-0.023c-0.033-0.02-0.073-0.035-0.112-0.047
			c-0.01-0.004-0.019-0.008-0.031-0.012c-0.043-0.01-0.089-0.016-0.133-0.016H49.39c-0.639,0-1.161,0.52-1.161,1.16v27.25
			c0,0.639,0.522,1.16,1.161,1.16h19.133c0.64,0,1.16-0.521,1.16-1.16v-21.26C69.683,10.451,69.678,10.43,69.677,10.408z
			 M49.39,4.482h13.432v5.932c0,0.32,0.259,0.58,0.58,0.58h5.121v12.017H49.39V4.482z"/>
		<path class="st1" d="M56.895,29.727c-0.011,0.262-0.099,0.449-0.27,0.557c-0.167,0.109-0.394,0.164-0.677,0.164
			c-0.109,0-0.23-0.012-0.359-0.039c-0.129-0.027-0.25-0.057-0.369-0.092c-0.116-0.035-0.225-0.072-0.323-0.111
			c-0.1-0.041-0.177-0.08-0.229-0.117l-0.409,0.648c0.105,0.08,0.237,0.152,0.393,0.217c0.154,0.064,0.316,0.121,0.484,0.172
			s0.33,0.088,0.488,0.113c0.158,0.023,0.297,0.035,0.412,0.035c0.234,0,0.465-0.024,0.686-0.068
			c0.222-0.045,0.418-0.125,0.591-0.24c0.169-0.113,0.306-0.268,0.407-0.455c0.102-0.19,0.152-0.424,0.152-0.701v-4.6h-0.978V29.727
			z"/>
		<path class="st1" d="M62.01,28.34c-0.186-0.133-0.385-0.246-0.598-0.34c-0.214-0.094-0.411-0.189-0.593-0.289
			c-0.182-0.098-0.334-0.213-0.457-0.344c-0.123-0.131-0.185-0.305-0.185-0.518c0-0.086,0.022-0.176,0.065-0.267
			c0.043-0.094,0.102-0.178,0.178-0.254c0.071-0.074,0.158-0.137,0.256-0.188c0.096-0.051,0.197-0.082,0.305-0.092
			c0.191-0.016,0.349-0.019,0.473-0.008c0.122,0.012,0.221,0.029,0.297,0.057c0.073,0.025,0.133,0.053,0.172,0.08
			c0.04,0.027,0.076,0.047,0.107,0.063c0.007-0.004,0.022-0.031,0.05-0.08c0.027-0.047,0.058-0.107,0.096-0.18
			c0.038-0.072,0.08-0.15,0.122-0.232c0.042-0.082,0.079-0.158,0.11-0.229c-0.152-0.102-0.357-0.176-0.61-0.221
			c-0.25-0.045-0.5-0.068-0.743-0.068c-0.241,0-0.467,0.037-0.686,0.113c-0.217,0.074-0.405,0.184-0.568,0.324
			c-0.164,0.141-0.293,0.314-0.389,0.518c-0.096,0.203-0.146,0.435-0.146,0.697c0,0.287,0.063,0.527,0.186,0.721
			c0.121,0.191,0.278,0.359,0.465,0.5c0.185,0.141,0.387,0.264,0.6,0.369c0.214,0.104,0.411,0.207,0.597,0.313
			c0.185,0.104,0.339,0.221,0.462,0.348c0.122,0.129,0.184,0.283,0.184,0.465c0,0.301-0.084,0.525-0.261,0.678
			c-0.173,0.152-0.423,0.229-0.75,0.229c-0.106,0-0.22-0.012-0.343-0.033c-0.124-0.019-0.246-0.049-0.369-0.084
			c-0.123-0.035-0.238-0.072-0.356-0.111c-0.115-0.041-0.21-0.082-0.283-0.125l-0.169,0.689c0.09,0.08,0.199,0.148,0.324,0.205
			c0.125,0.057,0.258,0.1,0.396,0.133c0.142,0.031,0.278,0.055,0.414,0.066c0.136,0.014,0.27,0.021,0.398,0.021
			c0.299,0,0.566-0.045,0.801-0.137c0.234-0.09,0.432-0.213,0.594-0.365c0.161-0.152,0.283-0.328,0.373-0.527
			c0.087-0.201,0.131-0.408,0.131-0.621c0-0.316-0.062-0.574-0.184-0.773C62.349,28.641,62.194,28.475,62.01,28.34z"/>
		<path d="M55.392,12.818v-1.664c0-0.23,0.184-0.416,0.414-0.416c0.23,0,0.416-0.188,0.416-0.416c0-0.231-0.186-0.416-0.416-0.416
			c-0.688,0-1.246,0.559-1.246,1.248v1.664c0,0.457-0.372,0.83-0.831,0.83c-0.233,0-0.416,0.188-0.416,0.416
			c0,0.23,0.183,0.416,0.416,0.416c0.459,0,0.831,0.373,0.831,0.832v1.664c0,0.688,0.559,1.248,1.246,1.248
			c0.23,0,0.416-0.185,0.416-0.416c0-0.23-0.186-0.416-0.416-0.416c-0.229,0-0.414-0.188-0.414-0.416v-1.664
			c0-0.498-0.227-0.941-0.576-1.248C55.165,13.76,55.392,13.316,55.392,12.818z"/>
		<path d="M62.524,14.064c-0.35,0.307-0.574,0.75-0.574,1.248v1.664c0,0.228-0.188,0.416-0.416,0.416
			c-0.23,0-0.416,0.186-0.416,0.416c0,0.231,0.186,0.416,0.416,0.416c0.688,0,1.248-0.56,1.248-1.248v-1.664
			c0-0.459,0.373-0.832,0.829-0.832c0.23,0,0.418-0.186,0.418-0.416c0-0.228-0.187-0.416-0.418-0.416
			c-0.456,0-0.829-0.373-0.829-0.83v-1.664c0-0.689-0.561-1.248-1.248-1.248c-0.23,0-0.416,0.186-0.416,0.416
			c0,0.229,0.186,0.416,0.416,0.416c0.228,0,0.416,0.186,0.416,0.416v1.664C61.95,13.316,62.175,13.76,62.524,14.064z"/>
		<path d="M58.718,11.984c0.348,0,0.624,0.279,0.624,0.625c0,0.344-0.276,0.623-0.624,0.623c-0.344,0-0.624-0.279-0.624-0.623
			C58.094,12.264,58.374,11.984,58.718,11.984z"/>
		<path d="M58.718,14.896c-0.23,0-0.416,0.188-0.416,0.416v1.248c0,0.23,0.186,0.416,0.416,0.416c0.23,0,0.416-0.186,0.416-0.416
			v-1.248C59.134,15.084,58.948,14.896,58.718,14.896z"/>
	</g>
</g>
</svg>