<!-- Generator: Adobe Illustrator 17.0.0, SVG Export Plug-In  -->
<svg version="1.1"
	 xmlns="http://www.w3.org/2000/svg" xmlns:xlink="http://www.w3.org/1999/xlink" xmlns:a="http://ns.adobe.com/AdobeSVGViewerExtensions/3.0/"
	 x="0px" y="0px" width="244.366px" height="602px" viewBox="0 0 244.366 602" style="enable-background:new 0 0 244.366 602;"
	 xml:space="preserve">
<style type="text/css">
	.st0{fill:url(#SVGID_1_);}
	.st1{fill:url(#SVGID_2_);}
	.st2{fill:url(#SVGID_3_);}
	.st3{fill:url(#SVGID_4_);}
</style>
<defs>
</defs>
<polygon points="22.934,492.585 11,279.788 22.897,109.415 122.183,137.562 221.433,109.415 232,281.273 221.469,492.585 
	122.184,464.438 "/>
<linearGradient id="SVGID_1_" gradientUnits="userSpaceOnUse" x1="0" y1="68.281" x2="244.3662" y2="68.281">
	<stop  offset="0" style="stop-color:#783214"/>
	<stop  offset="0.5" style="stop-color:#F16529"/>
	<stop  offset="1" style="stop-color:#783214"/>
</linearGradient>
<polygon class="st0" points="244.366,0 122.183,0 122.183,0 0,0 22.897,108.415 122.183,136.562 122.183,136.562 122.183,136.562 
	122.183,136.562 122.183,136.562 221.433,108.415 "/>
<linearGradient id="SVGID_2_" gradientUnits="userSpaceOnUse" x1="0" y1="533.7188" x2="244.3662" y2="533.7188">
	<stop  offset="0" style="stop-color:#783214"/>
	<stop  offset="0.5" style="stop-color:#F16529"/>
	<stop  offset="1" style="stop-color:#783214"/>
</linearGradient>
<polygon class="st1" points="0,602 122.184,602 122.184,602 244.366,602 221.469,493.585 122.184,465.438 122.184,465.438 
	122.184,465.438 122.184,465.438 122.184,465.438 22.934,493.585 "/>
</svg>