<!-- Generator: Adobe Illustrator 17.0.0, SVG Export Plug-In  -->
<svg version="1.1"
	 xmlns="http://www.w3.org/2000/svg" xmlns:xlink="http://www.w3.org/1999/xlink" xmlns:a="http://ns.adobe.com/AdobeSVGViewerExtensions/3.0/"
	 x="0px" y="0px" width="167.893px" height="107.137px" viewBox="0 0 167.893 107.137"
	 style="enable-background:new 0 0 167.893 107.137;" xml:space="preserve">
<style type="text/css">
	.st0{fill:#E54F26;}
	.st1{fill:#F16529;}
	.st2{fill:#FFFFFF;}
	.st3{fill:#EBEAEA;}
</style>
<defs>
</defs>
<g>
	<g>
		<polygon class="st0" points="109.347,49.733 83.986,49.733 83.986,49.733 58.626,49.733 63.378,101.294 83.986,107.137 
			83.986,107.137 83.986,107.137 83.986,107.137 83.986,107.137 104.587,101.294 		"/>
		<path d="M69.51,38.934h-2.93v-3.193h-3.239v9.626h3.239v-3.193h2.93v3.193h3.231v-9.626H69.51V38.934z M92.1,35.741h-0.287
			l-2.008,3.292l-2.004-3.292h-0.227h-2.981h-0.153v9.626h3.135v-4.805l2.225,3.466l0.006,0.008l0,0l0,0l0.01-0.008l2.285-3.565
			v4.904h3.133v-9.626h-0.22H92.1z M74.155,38.98h2.815v6.387h3.239V38.98h2.815v-3.239h-8.87V38.98z M100.114,42.128v-6.388h-3.232
			v9.626H97.7h2.414h4.511v-3.238H100.114z"/>
		<polygon class="st1" points="83.986,53.934 83.986,102.77 83.986,102.77 100.674,98.039 104.737,53.934 		"/>
		<polygon class="st2" points="99.938,60.261 68.024,60.261 69.812,79.566 69.849,79.445 91.652,79.445 90.94,87.611 83.986,89.617 
			76.925,87.581 76.501,82.64 70.091,82.64 71.007,92.515 83.986,96.201 96.965,92.515 98.752,73.134 75.616,73.134 75.019,66.67 
			99.349,66.67 		"/>
		<g>
			<path class="st3" d="M83.986,60.261H68.024l1.788,19.306l0.036-0.121h14.138v-6.312h-8.37l-0.598-6.463h8.968V60.261z
				 M76.501,82.64h-6.41l0.916,9.876l12.979,3.678v-6.577l-7.061-2.036L76.501,82.64z"/>
		</g>
	</g>
	<g>
		<path d="M0,10.778V2.562h0.877v8.216H0z"/>
		<path d="M8.493,10.778L4.131,4.189v6.589H3.254V2.562h0.831l4.362,6.566V2.562h0.877v8.216H8.493z"/>
		<path d="M14.113,3.347v7.432h-0.877V3.347h-2.377V2.562h5.631v0.785H14.113z"/>
		<path d="M22.745,10.778l-1.869-3.646h-1.974v3.646h-0.877V2.562h3.15c0.354,0,0.681,0.052,0.981,0.156
			c0.3,0.104,0.558,0.254,0.772,0.45c0.216,0.196,0.383,0.437,0.502,0.721c0.119,0.285,0.18,0.604,0.18,0.958
			c0,0.6-0.166,1.09-0.497,1.471c-0.33,0.381-0.761,0.625-1.292,0.733l1.95,3.728H22.745z M22.278,3.722
			c-0.305-0.25-0.698-0.375-1.184-0.375h-2.192v3.012h2.192c0.485,0,0.879-0.123,1.184-0.369c0.304-0.246,0.456-0.623,0.456-1.131
			S22.582,3.972,22.278,3.722z"/>
		<path d="M31.02,7.818c-0.008,0.327-0.036,0.619-0.086,0.877c-0.051,0.258-0.127,0.49-0.231,0.698
			c-0.104,0.208-0.252,0.408-0.444,0.6c-0.276,0.277-0.592,0.489-0.946,0.635c-0.354,0.146-0.738,0.219-1.153,0.219
			c-0.831,0-1.531-0.285-2.101-0.854c-0.192-0.192-0.341-0.393-0.444-0.6c-0.104-0.208-0.181-0.44-0.23-0.698
			c-0.051-0.258-0.079-0.55-0.087-0.877s-0.012-0.71-0.012-1.148s0.004-0.821,0.012-1.148s0.036-0.619,0.087-0.877
			c0.05-0.257,0.127-0.49,0.23-0.698c0.104-0.208,0.252-0.408,0.444-0.6c0.569-0.569,1.27-0.854,2.101-0.854
			c0.83,0,1.53,0.285,2.1,0.854c0.192,0.192,0.341,0.392,0.444,0.6c0.104,0.208,0.181,0.44,0.231,0.698
			c0.05,0.258,0.078,0.55,0.086,0.877s0.012,0.709,0.012,1.148S31.027,7.491,31.02,7.818z M30.137,5.58
			c-0.012-0.296-0.036-0.548-0.075-0.756c-0.038-0.208-0.096-0.387-0.173-0.537s-0.181-0.291-0.312-0.421
			c-0.177-0.185-0.391-0.329-0.641-0.433s-0.51-0.156-0.778-0.156c-0.27,0-0.529,0.052-0.779,0.156s-0.464,0.248-0.641,0.433
			c-0.131,0.131-0.234,0.271-0.312,0.421s-0.135,0.329-0.173,0.537c-0.039,0.208-0.063,0.459-0.075,0.756s-0.018,0.66-0.018,1.09
			c0,0.431,0.006,0.794,0.018,1.091c0.012,0.296,0.036,0.548,0.075,0.756c0.038,0.208,0.096,0.386,0.173,0.537
			c0.077,0.15,0.181,0.291,0.312,0.421c0.177,0.185,0.391,0.329,0.641,0.433c0.25,0.104,0.51,0.156,0.779,0.156
			c0.269,0,0.528-0.052,0.778-0.156c0.25-0.104,0.464-0.249,0.641-0.433c0.131-0.13,0.234-0.271,0.312-0.421
			c0.077-0.15,0.135-0.329,0.173-0.537c0.039-0.208,0.063-0.46,0.075-0.756c0.012-0.296,0.018-0.66,0.018-1.091
			C30.154,6.239,30.148,5.876,30.137,5.58z"/>
		<path d="M38.792,7.478c-0.004,0.315-0.029,0.625-0.075,0.929c-0.046,0.304-0.125,0.594-0.236,0.872
			c-0.111,0.277-0.275,0.523-0.49,0.738c-0.247,0.247-0.547,0.435-0.9,0.565c-0.354,0.131-0.746,0.196-1.177,0.196h-2.816V2.562
			h2.816c0.431,0,0.822,0.065,1.177,0.196c0.354,0.131,0.653,0.319,0.9,0.565c0.215,0.216,0.379,0.452,0.49,0.71
			s0.19,0.527,0.236,0.808c0.046,0.281,0.071,0.569,0.075,0.866s0.006,0.586,0.006,0.871S38.796,7.163,38.792,7.478z M37.915,5.822
			c-0.004-0.25-0.021-0.488-0.052-0.715c-0.031-0.227-0.085-0.44-0.162-0.641c-0.077-0.2-0.185-0.373-0.323-0.519
			c-0.215-0.223-0.458-0.379-0.727-0.468c-0.27-0.088-0.565-0.132-0.889-0.132h-1.789v6.647h1.789c0.323,0,0.619-0.044,0.889-0.133
			c0.269-0.088,0.512-0.244,0.727-0.467c0.139-0.146,0.246-0.329,0.323-0.548s0.131-0.454,0.162-0.704
			c0.03-0.25,0.048-0.51,0.052-0.779c0.004-0.269,0.006-0.531,0.006-0.785S37.919,6.072,37.915,5.822z"/>
		<path d="M46.27,9.191c-0.142,0.343-0.342,0.637-0.6,0.883c-0.258,0.247-0.562,0.437-0.912,0.571
			c-0.35,0.135-0.732,0.202-1.147,0.202c-0.416,0-0.799-0.067-1.148-0.202c-0.351-0.134-0.652-0.325-0.906-0.571
			c-0.254-0.246-0.452-0.54-0.594-0.883c-0.143-0.342-0.214-0.717-0.214-1.125V2.562h0.877v5.435c0,0.315,0.046,0.6,0.139,0.854
			c0.092,0.254,0.225,0.469,0.398,0.646c0.173,0.177,0.382,0.315,0.629,0.415c0.246,0.1,0.519,0.15,0.819,0.15
			c0.3,0,0.572-0.05,0.819-0.15c0.246-0.1,0.455-0.238,0.629-0.415c0.173-0.177,0.308-0.393,0.403-0.646
			c0.097-0.254,0.145-0.539,0.145-0.854V2.562h0.877v5.504C46.483,8.474,46.412,8.849,46.27,9.191z"/>
		<path d="M53.806,9.434c-0.166,0.304-0.373,0.56-0.623,0.767c-0.25,0.208-0.533,0.368-0.849,0.479s-0.657,0.167-1.026,0.167
			c-0.408,0-0.791-0.073-1.148-0.219c-0.358-0.146-0.676-0.358-0.952-0.635c-0.192-0.192-0.341-0.393-0.444-0.6
			c-0.104-0.208-0.181-0.44-0.23-0.698c-0.051-0.258-0.079-0.55-0.087-0.877s-0.012-0.71-0.012-1.148s0.004-0.821,0.012-1.148
			s0.036-0.619,0.087-0.877c0.05-0.257,0.127-0.49,0.23-0.698c0.104-0.208,0.252-0.408,0.444-0.6
			c0.276-0.277,0.594-0.489,0.952-0.635c0.357-0.146,0.74-0.219,1.148-0.219c0.369,0,0.711,0.056,1.026,0.167
			c0.315,0.112,0.599,0.271,0.849,0.479c0.25,0.208,0.457,0.464,0.623,0.768c0.165,0.304,0.282,0.648,0.352,1.033h-0.899
			c-0.108-0.508-0.331-0.912-0.67-1.211c-0.339-0.3-0.766-0.45-1.28-0.45c-0.27,0-0.529,0.05-0.779,0.15s-0.464,0.242-0.641,0.427
			c-0.131,0.131-0.234,0.271-0.312,0.421s-0.135,0.331-0.173,0.542C49.364,5.03,49.34,5.283,49.328,5.58s-0.018,0.66-0.018,1.09
			c0,0.431,0.006,0.794,0.018,1.091c0.012,0.296,0.036,0.55,0.075,0.762c0.038,0.211,0.096,0.392,0.173,0.542
			c0.077,0.15,0.181,0.291,0.312,0.421c0.177,0.185,0.391,0.327,0.641,0.427c0.25,0.1,0.51,0.15,0.779,0.15
			c0.515,0,0.946-0.15,1.292-0.45c0.347-0.3,0.573-0.704,0.681-1.212h0.877C54.088,8.786,53.971,9.13,53.806,9.434z"/>
		<path d="M61.018,9.434c-0.166,0.304-0.373,0.56-0.623,0.767c-0.25,0.208-0.533,0.368-0.849,0.479s-0.657,0.167-1.026,0.167
			c-0.408,0-0.791-0.073-1.148-0.219c-0.358-0.146-0.676-0.358-0.952-0.635c-0.192-0.192-0.341-0.393-0.444-0.6
			c-0.104-0.208-0.181-0.44-0.23-0.698c-0.051-0.258-0.079-0.55-0.087-0.877s-0.012-0.71-0.012-1.148s0.004-0.821,0.012-1.148
			s0.036-0.619,0.087-0.877c0.05-0.257,0.127-0.49,0.23-0.698c0.104-0.208,0.252-0.408,0.444-0.6
			c0.276-0.277,0.594-0.489,0.952-0.635c0.357-0.146,0.74-0.219,1.148-0.219c0.369,0,0.711,0.056,1.026,0.167
			c0.315,0.112,0.599,0.271,0.849,0.479c0.25,0.208,0.457,0.464,0.623,0.768c0.165,0.304,0.282,0.648,0.352,1.033H60.47
			c-0.108-0.508-0.331-0.912-0.67-1.211c-0.339-0.3-0.766-0.45-1.28-0.45c-0.27,0-0.529,0.05-0.779,0.15S57.276,3.669,57.1,3.854
			c-0.131,0.131-0.234,0.271-0.312,0.421s-0.135,0.331-0.173,0.542C56.576,5.03,56.552,5.283,56.54,5.58s-0.018,0.66-0.018,1.09
			c0,0.431,0.006,0.794,0.018,1.091c0.012,0.296,0.036,0.55,0.075,0.762c0.038,0.211,0.096,0.392,0.173,0.542
			c0.077,0.15,0.181,0.291,0.312,0.421c0.177,0.185,0.391,0.327,0.641,0.427c0.25,0.1,0.51,0.15,0.779,0.15
			c0.515,0,0.946-0.15,1.292-0.45c0.347-0.3,0.573-0.704,0.681-1.212h0.877C61.3,8.786,61.183,9.13,61.018,9.434z"/>
		<path d="M63.308,10.778V2.562h0.877v8.216H63.308z"/>
		<path d="M71.985,7.818c-0.008,0.327-0.036,0.619-0.086,0.877c-0.051,0.258-0.127,0.49-0.231,0.698
			c-0.104,0.208-0.252,0.408-0.444,0.6c-0.276,0.277-0.592,0.489-0.946,0.635c-0.354,0.146-0.738,0.219-1.153,0.219
			c-0.831,0-1.531-0.285-2.101-0.854c-0.192-0.192-0.341-0.393-0.444-0.6c-0.104-0.208-0.181-0.44-0.23-0.698
			c-0.051-0.258-0.079-0.55-0.087-0.877S66.25,7.108,66.25,6.67s0.004-0.821,0.012-1.148s0.036-0.619,0.087-0.877
			c0.05-0.257,0.127-0.49,0.23-0.698c0.104-0.208,0.252-0.408,0.444-0.6c0.569-0.569,1.27-0.854,2.101-0.854
			c0.83,0,1.53,0.285,2.1,0.854c0.192,0.192,0.341,0.392,0.444,0.6c0.104,0.208,0.181,0.44,0.231,0.698
			c0.05,0.258,0.078,0.55,0.086,0.877s0.012,0.709,0.012,1.148S71.993,7.491,71.985,7.818z M71.103,5.58
			c-0.012-0.296-0.036-0.548-0.075-0.756c-0.038-0.208-0.096-0.387-0.173-0.537s-0.181-0.291-0.312-0.421
			c-0.177-0.185-0.391-0.329-0.641-0.433s-0.51-0.156-0.778-0.156c-0.27,0-0.529,0.052-0.779,0.156s-0.464,0.248-0.641,0.433
			c-0.131,0.131-0.234,0.271-0.312,0.421s-0.135,0.329-0.173,0.537c-0.039,0.208-0.063,0.459-0.075,0.756s-0.018,0.66-0.018,1.09
			c0,0.431,0.006,0.794,0.018,1.091c0.012,0.296,0.036,0.548,0.075,0.756c0.038,0.208,0.096,0.386,0.173,0.537
			c0.077,0.15,0.181,0.291,0.312,0.421c0.177,0.185,0.391,0.329,0.641,0.433c0.25,0.104,0.51,0.156,0.779,0.156
			c0.269,0,0.528-0.052,0.778-0.156c0.25-0.104,0.464-0.249,0.641-0.433c0.131-0.13,0.234-0.271,0.312-0.421
			c0.077-0.15,0.135-0.329,0.173-0.537c0.039-0.208,0.063-0.46,0.075-0.756c0.012-0.296,0.018-0.66,0.018-1.091
			C71.12,6.239,71.114,5.876,71.103,5.58z M69.319,1.766h-0.761L69.573,0h0.993L69.319,1.766z"/>
		<path d="M79.302,10.778l-4.362-6.589v6.589h-0.877V2.562h0.831l4.362,6.566V2.562h0.877v8.216H79.302z"/>
		<path d="M90.172,10.778L89.515,8.92h-3.589l-0.658,1.858h-0.935l3.023-8.216h0.738l3.012,8.216H90.172z M87.737,3.82L86.19,8.159
			h3.07L87.737,3.82z"/>
		<path d="M92.434,10.778V2.562h0.877v7.432h4.201v0.785H92.434z"/>
		<path d="M107.614,7.478c-0.004,0.315-0.029,0.625-0.075,0.929c-0.046,0.304-0.125,0.594-0.236,0.872
			c-0.111,0.277-0.275,0.523-0.49,0.738c-0.247,0.247-0.547,0.435-0.9,0.565c-0.354,0.131-0.746,0.196-1.177,0.196h-2.816V2.562
			h2.816c0.431,0,0.822,0.065,1.177,0.196c0.354,0.131,0.653,0.319,0.9,0.565c0.215,0.216,0.379,0.452,0.49,0.71
			s0.19,0.527,0.236,0.808c0.046,0.281,0.071,0.569,0.075,0.866s0.006,0.586,0.006,0.871S107.618,7.163,107.614,7.478z
			 M106.737,5.822c-0.004-0.25-0.021-0.488-0.052-0.715c-0.031-0.227-0.085-0.44-0.162-0.641c-0.077-0.2-0.185-0.373-0.323-0.519
			c-0.215-0.223-0.458-0.379-0.727-0.468c-0.27-0.088-0.565-0.132-0.889-0.132h-1.789v6.647h1.789c0.323,0,0.619-0.044,0.889-0.133
			c0.269-0.088,0.512-0.244,0.727-0.467c0.139-0.146,0.246-0.329,0.323-0.548s0.131-0.454,0.162-0.704
			c0.03-0.25,0.048-0.51,0.052-0.779c0.004-0.269,0.006-0.531,0.006-0.785S106.741,6.072,106.737,5.822z"/>
		<path d="M109.686,10.778V2.562h0.877v8.216H109.686z"/>
		<path d="M117.688,9.492c-0.135,0.289-0.327,0.533-0.577,0.733c-0.25,0.2-0.55,0.354-0.9,0.461
			c-0.35,0.107-0.736,0.162-1.159,0.162c-0.616,0-1.143-0.084-1.581-0.254s-0.851-0.446-1.235-0.831l0.601-0.6
			c0.338,0.339,0.681,0.573,1.027,0.704c0.346,0.131,0.75,0.196,1.211,0.196c0.601,0,1.073-0.133,1.42-0.398
			c0.346-0.265,0.52-0.64,0.52-1.125c0-0.215-0.033-0.412-0.099-0.588c-0.065-0.177-0.163-0.323-0.294-0.438
			c-0.131-0.116-0.268-0.198-0.41-0.249c-0.143-0.05-0.363-0.098-0.663-0.144l-0.958-0.15c-0.654-0.108-1.158-0.315-1.512-0.623
			c-0.415-0.37-0.623-0.881-0.623-1.535c0-0.346,0.062-0.664,0.185-0.952c0.123-0.288,0.298-0.533,0.525-0.732
			c0.227-0.2,0.502-0.356,0.825-0.468c0.322-0.111,0.688-0.167,1.096-0.167c0.523,0,0.974,0.071,1.351,0.213
			c0.377,0.143,0.742,0.371,1.096,0.687l-0.565,0.565c-0.254-0.23-0.526-0.406-0.819-0.525c-0.292-0.119-0.657-0.179-1.096-0.179
			c-0.555,0-0.981,0.138-1.281,0.415c-0.3,0.277-0.45,0.646-0.45,1.108c0,0.416,0.123,0.731,0.369,0.946
			c0.131,0.108,0.295,0.2,0.49,0.277c0.196,0.077,0.402,0.135,0.618,0.173l0.899,0.139c0.192,0.031,0.364,0.063,0.514,0.098
			c0.15,0.035,0.283,0.075,0.398,0.122c0.115,0.046,0.221,0.098,0.317,0.156c0.096,0.058,0.187,0.125,0.271,0.202
			c0.461,0.393,0.692,0.935,0.692,1.627C117.891,8.878,117.823,9.203,117.688,9.492z"/>
		<path d="M119.725,10.778V2.562h5.101v0.785h-4.224v2.896h3.601v0.785h-3.601v2.966h4.224v0.785H119.725z"/>
		<path d="M131.888,10.778l-4.362-6.589v6.589h-0.877V2.562h0.831l4.362,6.566V2.562h0.877v8.216H131.888z M130.85,1.506
			c-0.17,0.065-0.319,0.098-0.45,0.098c-0.162,0-0.305-0.023-0.428-0.069c-0.123-0.046-0.254-0.111-0.392-0.196
			c-0.108-0.062-0.214-0.117-0.317-0.167c-0.104-0.05-0.214-0.075-0.329-0.075c-0.093,0-0.187,0.019-0.283,0.058
			c-0.096,0.039-0.229,0.143-0.397,0.312l-0.428-0.416c0.131-0.13,0.249-0.234,0.353-0.312c0.104-0.077,0.198-0.136,0.282-0.179
			c0.085-0.042,0.166-0.069,0.243-0.081c0.076-0.012,0.149-0.018,0.219-0.018c0.169,0,0.312,0.025,0.427,0.075
			c0.116,0.05,0.246,0.117,0.393,0.202c0.123,0.077,0.232,0.135,0.329,0.173c0.096,0.039,0.202,0.058,0.317,0.058
			c0.084,0,0.177-0.019,0.276-0.058c0.101-0.039,0.235-0.143,0.404-0.312l0.427,0.416C131.233,1.277,131.019,1.44,130.85,1.506z"/>
		<path d="M140.52,7.818c-0.008,0.327-0.036,0.619-0.086,0.877c-0.051,0.258-0.127,0.49-0.231,0.698
			c-0.104,0.208-0.252,0.408-0.444,0.6c-0.276,0.277-0.592,0.489-0.946,0.635c-0.354,0.146-0.738,0.219-1.153,0.219
			c-0.831,0-1.531-0.285-2.101-0.854c-0.192-0.192-0.341-0.393-0.444-0.6c-0.104-0.208-0.181-0.44-0.23-0.698
			c-0.051-0.258-0.079-0.55-0.087-0.877s-0.012-0.71-0.012-1.148s0.004-0.821,0.012-1.148s0.036-0.619,0.087-0.877
			c0.05-0.257,0.127-0.49,0.23-0.698c0.104-0.208,0.252-0.408,0.444-0.6c0.569-0.569,1.27-0.854,2.101-0.854
			c0.83,0,1.53,0.285,2.1,0.854c0.192,0.192,0.341,0.392,0.444,0.6c0.104,0.208,0.181,0.44,0.231,0.698
			c0.05,0.258,0.078,0.55,0.086,0.877s0.012,0.709,0.012,1.148S140.527,7.491,140.52,7.818z M139.637,5.58
			c-0.012-0.296-0.036-0.548-0.075-0.756c-0.038-0.208-0.096-0.387-0.173-0.537s-0.181-0.291-0.312-0.421
			c-0.177-0.185-0.391-0.329-0.641-0.433s-0.51-0.156-0.778-0.156c-0.27,0-0.529,0.052-0.779,0.156s-0.464,0.248-0.641,0.433
			c-0.131,0.131-0.234,0.271-0.312,0.421s-0.135,0.329-0.173,0.537c-0.039,0.208-0.063,0.459-0.075,0.756s-0.018,0.66-0.018,1.09
			c0,0.431,0.006,0.794,0.018,1.091c0.012,0.296,0.036,0.548,0.075,0.756c0.038,0.208,0.096,0.386,0.173,0.537
			c0.077,0.15,0.181,0.291,0.312,0.421c0.177,0.185,0.391,0.329,0.641,0.433c0.25,0.104,0.51,0.156,0.779,0.156
			c0.269,0,0.528-0.052,0.778-0.156c0.25-0.104,0.464-0.249,0.641-0.433c0.131-0.13,0.234-0.271,0.312-0.421
			c0.077-0.15,0.135-0.329,0.173-0.537c0.039-0.208,0.063-0.46,0.075-0.756c0.012-0.296,0.018-0.66,0.018-1.091
			C139.654,6.239,139.648,5.876,139.637,5.58z"/>
		<path d="M151.852,10.778h-0.819l-1.823-6.578l-1.823,6.578h-0.819l-2.101-8.216h0.935l1.604,6.624l1.812-6.624h0.785l1.812,6.624
			l1.604-6.624h0.935L151.852,10.778z"/>
		<path d="M155.325,10.778V2.562h5.101v0.785h-4.224v2.896h3.601v0.785h-3.601v2.966h4.224v0.785H155.325z"/>
		<path d="M167.714,9.486c-0.12,0.285-0.287,0.523-0.503,0.715c-0.215,0.192-0.473,0.337-0.772,0.433s-0.631,0.144-0.993,0.144
			h-3.196V2.562h3.093c0.354,0,0.681,0.05,0.981,0.15c0.3,0.1,0.556,0.244,0.767,0.433c0.212,0.188,0.377,0.417,0.497,0.687
			c0.119,0.27,0.179,0.577,0.179,0.923c0,0.438-0.115,0.815-0.347,1.131c-0.23,0.315-0.52,0.539-0.865,0.669
			c0.393,0.146,0.714,0.385,0.964,0.715c0.25,0.331,0.375,0.743,0.375,1.235C167.893,8.874,167.833,9.201,167.714,9.486z
			 M166.762,4.131c-0.085-0.177-0.198-0.323-0.341-0.438c-0.143-0.116-0.312-0.202-0.508-0.26s-0.409-0.086-0.641-0.086h-2.146v2.85
			h2.146c0.231,0,0.444-0.029,0.641-0.086s0.365-0.144,0.508-0.26c0.143-0.115,0.256-0.263,0.341-0.444
			c0.084-0.181,0.127-0.394,0.127-0.64S166.846,4.308,166.762,4.131z M166.571,7.386c-0.297-0.27-0.698-0.404-1.206-0.404h-2.239
			v3.012h2.239c0.508,0,0.909-0.137,1.206-0.41c0.296-0.273,0.444-0.641,0.444-1.102C167.016,8.02,166.867,7.655,166.571,7.386z"/>
	</g>
	<g>
		<g>
			<path d="M29.338,23.958c-0.142,0.343-0.342,0.637-0.6,0.883c-0.258,0.247-0.562,0.437-0.912,0.571
				c-0.35,0.135-0.732,0.202-1.147,0.202c-0.416,0-0.799-0.067-1.148-0.202c-0.351-0.134-0.652-0.325-0.906-0.571
				c-0.254-0.246-0.452-0.54-0.594-0.883c-0.143-0.342-0.214-0.717-0.214-1.125v-5.504h0.877v5.435c0,0.315,0.046,0.6,0.139,0.854
				c0.092,0.254,0.225,0.469,0.398,0.646c0.173,0.177,0.382,0.315,0.629,0.415c0.246,0.1,0.519,0.15,0.819,0.15
				c0.3,0,0.572-0.05,0.819-0.15c0.246-0.1,0.455-0.238,0.629-0.415c0.173-0.177,0.308-0.393,0.403-0.646
				c0.097-0.254,0.145-0.539,0.145-0.854v-5.435h0.877v5.504C29.552,23.241,29.48,23.616,29.338,23.958z"/>
			<path d="M36.563,24.258c-0.135,0.289-0.327,0.533-0.577,0.733c-0.25,0.2-0.55,0.354-0.9,0.461
				c-0.35,0.107-0.736,0.162-1.159,0.162c-0.616,0-1.143-0.084-1.581-0.254s-0.851-0.446-1.235-0.831l0.601-0.6
				c0.338,0.339,0.681,0.573,1.027,0.704c0.346,0.131,0.75,0.196,1.211,0.196c0.601,0,1.073-0.133,1.42-0.398
				c0.346-0.265,0.52-0.64,0.52-1.125c0-0.215-0.033-0.412-0.099-0.588c-0.065-0.177-0.163-0.323-0.294-0.438
				c-0.131-0.116-0.268-0.198-0.41-0.249c-0.143-0.05-0.363-0.098-0.663-0.144l-0.958-0.15c-0.654-0.108-1.158-0.315-1.512-0.623
				c-0.415-0.37-0.623-0.881-0.623-1.535c0-0.346,0.062-0.664,0.185-0.952c0.123-0.288,0.298-0.533,0.525-0.732
				c0.227-0.2,0.502-0.356,0.825-0.468c0.322-0.111,0.688-0.167,1.096-0.167c0.523,0,0.974,0.071,1.351,0.213
				c0.377,0.143,0.742,0.371,1.096,0.687l-0.565,0.565c-0.254-0.23-0.526-0.406-0.819-0.525c-0.292-0.119-0.657-0.179-1.096-0.179
				c-0.555,0-0.981,0.138-1.281,0.415c-0.3,0.277-0.45,0.646-0.45,1.108c0,0.416,0.123,0.731,0.369,0.946
				c0.131,0.108,0.295,0.2,0.49,0.277c0.196,0.077,0.402,0.135,0.618,0.173l0.899,0.139c0.192,0.031,0.364,0.063,0.514,0.098
				c0.15,0.035,0.283,0.075,0.398,0.122c0.115,0.046,0.221,0.098,0.317,0.156c0.096,0.058,0.187,0.125,0.271,0.202
				c0.461,0.393,0.692,0.935,0.692,1.627C36.765,23.645,36.697,23.97,36.563,24.258z"/>
			<path d="M43.388,25.545l-0.657-1.858h-3.589l-0.658,1.858h-0.935l3.023-8.216h0.738l3.012,8.216H43.388z M40.953,18.586
				l-1.547,4.339h3.07L40.953,18.586z"/>
			<path d="M50.889,25.545l-4.362-6.589v6.589h-0.877v-8.216h0.831l4.362,6.566v-6.566h0.877v8.216H50.889z"/>
			<path d="M59.792,22.245c-0.004,0.315-0.029,0.625-0.075,0.929c-0.046,0.304-0.125,0.594-0.236,0.872
				c-0.111,0.277-0.275,0.523-0.49,0.738c-0.247,0.247-0.547,0.435-0.9,0.565c-0.354,0.131-0.746,0.196-1.177,0.196h-2.816v-8.216
				h2.816c0.431,0,0.822,0.065,1.177,0.196c0.354,0.131,0.653,0.319,0.9,0.565c0.215,0.216,0.379,0.452,0.49,0.71
				s0.19,0.527,0.236,0.808c0.046,0.281,0.071,0.569,0.075,0.866s0.006,0.586,0.006,0.871S59.796,21.929,59.792,22.245z
				 M58.915,20.588c-0.004-0.25-0.021-0.488-0.052-0.715c-0.031-0.227-0.085-0.44-0.162-0.641c-0.077-0.2-0.185-0.373-0.323-0.519
				c-0.215-0.223-0.458-0.379-0.727-0.468c-0.27-0.088-0.565-0.132-0.889-0.132h-1.789v6.647h1.789c0.323,0,0.619-0.044,0.889-0.133
				c0.269-0.088,0.512-0.244,0.727-0.467c0.139-0.146,0.246-0.329,0.323-0.548s0.131-0.454,0.162-0.704
				c0.03-0.25,0.048-0.51,0.052-0.779c0.004-0.269,0.006-0.531,0.006-0.785S58.919,20.838,58.915,20.588z"/>
			<path d="M67.287,22.585c-0.008,0.327-0.036,0.619-0.086,0.877c-0.051,0.258-0.127,0.49-0.231,0.698
				c-0.104,0.208-0.252,0.408-0.444,0.6c-0.276,0.277-0.592,0.489-0.946,0.635c-0.354,0.146-0.738,0.219-1.153,0.219
				c-0.831,0-1.531-0.285-2.101-0.854c-0.192-0.192-0.341-0.393-0.444-0.6c-0.104-0.208-0.181-0.44-0.23-0.698
				c-0.051-0.258-0.079-0.55-0.087-0.877s-0.012-0.71-0.012-1.148s0.004-0.821,0.012-1.148s0.036-0.619,0.087-0.877
				c0.05-0.257,0.127-0.49,0.23-0.698c0.104-0.208,0.252-0.408,0.444-0.6c0.569-0.569,1.27-0.854,2.101-0.854
				c0.83,0,1.53,0.285,2.1,0.854c0.192,0.192,0.341,0.392,0.444,0.6c0.104,0.208,0.181,0.44,0.231,0.698
				c0.05,0.258,0.078,0.55,0.086,0.877s0.012,0.709,0.012,1.148S67.295,22.258,67.287,22.585z M66.404,20.346
				c-0.012-0.296-0.036-0.548-0.075-0.756c-0.038-0.208-0.096-0.387-0.173-0.537s-0.181-0.291-0.312-0.421
				c-0.177-0.185-0.391-0.329-0.641-0.433s-0.51-0.156-0.778-0.156c-0.27,0-0.529,0.052-0.779,0.156s-0.464,0.248-0.641,0.433
				c-0.131,0.131-0.234,0.271-0.312,0.421s-0.135,0.329-0.173,0.537c-0.039,0.208-0.063,0.459-0.075,0.756s-0.018,0.66-0.018,1.09
				c0,0.431,0.006,0.794,0.018,1.091c0.012,0.296,0.036,0.548,0.075,0.756c0.038,0.208,0.096,0.386,0.173,0.537
				c0.077,0.15,0.181,0.291,0.312,0.421c0.177,0.185,0.391,0.329,0.641,0.433c0.25,0.104,0.51,0.156,0.779,0.156
				c0.269,0,0.528-0.052,0.778-0.156c0.25-0.104,0.464-0.249,0.641-0.433c0.131-0.13,0.234-0.271,0.312-0.421
				c0.077-0.15,0.135-0.329,0.173-0.537c0.039-0.208,0.063-0.46,0.075-0.756c0.012-0.296,0.018-0.66,0.018-1.091
				C66.422,21.006,66.416,20.643,66.404,20.346z"/>
			<path d="M72.237,25.545v-8.216h5.101v0.785h-4.224v2.896h3.601v0.785h-3.601v2.966h4.224v0.785H72.237z"/>
			<path d="M79.161,25.545v-8.216h0.877v7.432h4.201v0.785H79.161z"/>
			<path d="M88.646,25.545v-8.216h0.877v7.432h4.201v0.785H88.646z"/>
			<path d="M95.259,25.545v-8.216h5.101v0.785h-4.224v2.896h3.601v0.785h-3.601v2.966h4.224v0.785H95.259z"/>
			<path d="M107.422,25.545l-4.362-6.589v6.589h-0.877v-8.216h0.831l4.362,6.566v-6.566h0.877v8.216H107.422z"/>
			<path d="M115.927,23.762c-0.107,0.334-0.288,0.636-0.542,0.906c-0.293,0.315-0.625,0.552-0.998,0.709
				c-0.374,0.158-0.771,0.237-1.194,0.237c-0.408,0-0.791-0.073-1.148-0.219c-0.358-0.146-0.676-0.358-0.952-0.635
				c-0.192-0.192-0.341-0.393-0.444-0.6c-0.104-0.208-0.181-0.44-0.23-0.698c-0.051-0.258-0.079-0.55-0.087-0.877
				s-0.012-0.71-0.012-1.148s0.004-0.821,0.012-1.148s0.036-0.619,0.087-0.877c0.05-0.257,0.127-0.49,0.23-0.698
				c0.104-0.208,0.252-0.408,0.444-0.6c0.569-0.569,1.27-0.854,2.101-0.854c0.392,0,0.751,0.06,1.078,0.179
				c0.327,0.12,0.614,0.289,0.86,0.508s0.448,0.479,0.605,0.779c0.158,0.3,0.268,0.631,0.329,0.993h-0.877
				c-0.115-0.523-0.349-0.933-0.698-1.229c-0.351-0.296-0.783-0.444-1.298-0.444c-0.27,0-0.529,0.052-0.779,0.156
				s-0.464,0.248-0.641,0.433c-0.131,0.131-0.234,0.271-0.312,0.421s-0.135,0.329-0.173,0.537c-0.039,0.208-0.063,0.459-0.075,0.756
				s-0.018,0.66-0.018,1.09c0,0.431,0.006,0.794,0.018,1.091c0.012,0.296,0.036,0.55,0.075,0.762
				c0.038,0.211,0.096,0.392,0.173,0.542c0.077,0.15,0.181,0.291,0.312,0.421c0.177,0.185,0.391,0.327,0.641,0.427
				c0.25,0.1,0.51,0.15,0.779,0.15c0.3,0,0.586-0.06,0.859-0.179c0.272-0.119,0.506-0.294,0.698-0.525
				c0.169-0.2,0.288-0.417,0.357-0.652c0.069-0.235,0.104-0.514,0.104-0.837v-0.623h-2.02V21.24h2.896v1.304
				C116.089,23.021,116.034,23.427,115.927,23.762z"/>
			<path d="M123.537,23.958c-0.142,0.343-0.342,0.637-0.6,0.883c-0.258,0.247-0.562,0.437-0.912,0.571
				c-0.35,0.135-0.732,0.202-1.147,0.202c-0.416,0-0.799-0.067-1.148-0.202c-0.351-0.134-0.652-0.325-0.906-0.571
				c-0.254-0.246-0.452-0.54-0.594-0.883c-0.143-0.342-0.214-0.717-0.214-1.125v-5.504h0.877v5.435c0,0.315,0.046,0.6,0.139,0.854
				c0.092,0.254,0.225,0.469,0.398,0.646c0.173,0.177,0.382,0.315,0.629,0.415c0.246,0.1,0.519,0.15,0.819,0.15
				c0.3,0,0.572-0.05,0.819-0.15c0.246-0.1,0.455-0.238,0.629-0.415c0.173-0.177,0.308-0.393,0.403-0.646
				c0.097-0.254,0.145-0.539,0.145-0.854v-5.435h0.877v5.504C123.751,23.241,123.68,23.616,123.537,23.958z"/>
			<path d="M130.802,25.545l-0.657-1.858h-3.589l-0.658,1.858h-0.935l3.023-8.216h0.738l3.012,8.216H130.802z M128.367,18.586
				l-1.547,4.339h3.07L128.367,18.586z"/>
			<path d="M136.393,24.12c-0.127,0.319-0.304,0.589-0.53,0.808c-0.228,0.219-0.496,0.388-0.808,0.507
				c-0.312,0.12-0.656,0.179-1.033,0.179c-0.393,0-0.74-0.06-1.044-0.179c-0.305-0.119-0.583-0.306-0.837-0.56l0.588-0.588
				c0.146,0.154,0.313,0.283,0.503,0.387c0.188,0.104,0.451,0.156,0.79,0.156c0.538,0,0.954-0.164,1.246-0.491
				c0.293-0.327,0.438-0.794,0.438-1.402v-5.608h0.877v5.724C136.583,23.445,136.52,23.801,136.393,24.12z"/>
			<path d="M138.845,25.545v-8.216h5.101v0.785h-4.224v2.896h3.601v0.785h-3.601v2.966h4.224v0.785H138.845z"/>
		</g>
	</g>
</g>
</svg>