<?xml version="1.0" encoding="utf-8"?>
<!-- Generator: Adobe Illustrator 17.0.0, SVG Export Plug-In . SVG Version: 6.00 Build 0)  -->
<!DOCTYPE svg PUBLIC "-//W3C//DTD SVG 1.1//EN" "http://www.w3.org/Graphics/SVG/1.1/DTD/svg11.dtd" [
	<!ENTITY ns_extend "http://ns.adobe.com/Extensibility/1.0/">
	<!ENTITY ns_ai "http://ns.adobe.com/AdobeIllustrator/10.0/">
	<!ENTITY ns_graphs "http://ns.adobe.com/Graphs/1.0/">
	<!ENTITY ns_vars "http://ns.adobe.com/Variables/1.0/">
	<!ENTITY ns_imrep "http://ns.adobe.com/ImageReplacement/1.0/">
	<!ENTITY ns_sfw "http://ns.adobe.com/SaveForWeb/1.0/">
	<!ENTITY ns_custom "http://ns.adobe.com/GenericCustomNamespace/1.0/">
	<!ENTITY ns_adobe_xpath "http://ns.adobe.com/XPath/1.0/">
]>
<svg version="1.1" id="Capa_1" xmlns:x="&ns_extend;" xmlns:i="&ns_ai;" xmlns:graph="&ns_graphs;"
	 xmlns="http://www.w3.org/2000/svg" xmlns:xlink="http://www.w3.org/1999/xlink" x="0px" y="0px" width="235.28px"
	 height="45.842px" viewBox="0 0 235.28 45.842" enable-background="new 0 0 235.28 45.842" xml:space="preserve">
<metadata><?xpacket begin="﻿" id="W5M0MpCehiHzreSzNTczkc9d"?>
<x:xmpmeta xmlns:x="adobe:ns:meta/" x:xmptk="Adobe XMP Core 5.5-c014 79.151739, 2013/04/03-12:12:15        ">
   <rdf:RDF xmlns:rdf="http://www.w3.org/1999/02/22-rdf-syntax-ns#">
      <rdf:Description rdf:about=""
            xmlns:dc="http://purl.org/dc/elements/1.1/"
            xmlns:xmp="http://ns.adobe.com/xap/1.0/"
            xmlns:xmpGImg="http://ns.adobe.com/xap/1.0/g/img/"
            xmlns:xmpMM="http://ns.adobe.com/xap/1.0/mm/"
            xmlns:stRef="http://ns.adobe.com/xap/1.0/sType/ResourceRef#"
            xmlns:stEvt="http://ns.adobe.com/xap/1.0/sType/ResourceEvent#"
            xmlns:illustrator="http://ns.adobe.com/illustrator/1.0/"
            xmlns:xmpTPg="http://ns.adobe.com/xap/1.0/t/pg/"
            xmlns:stDim="http://ns.adobe.com/xap/1.0/sType/Dimensions#"
            xmlns:xmpG="http://ns.adobe.com/xap/1.0/g/"
            xmlns:pdf="http://ns.adobe.com/pdf/1.3/">
         <dc:format>image/svg+xml</dc:format>
         <dc:title>
            <rdf:Alt>
               <rdf:li xml:lang="x-default">Imprimir</rdf:li>
            </rdf:Alt>
         </dc:title>
         <xmp:MetadataDate>2017-08-14T13:41:17-05:00</xmp:MetadataDate>
         <xmp:ModifyDate>2017-08-14T13:41:17-05:00</xmp:ModifyDate>
         <xmp:CreateDate>2017-08-14T13:41:16-05:00</xmp:CreateDate>
         <xmp:CreatorTool>Adobe Illustrator CC (Windows)</xmp:CreatorTool>
         <xmp:Thumbnails>
            <rdf:Alt>
               <rdf:li rdf:parseType="Resource">
                  <xmpGImg:width>256</xmpGImg:width>
                  <xmpGImg:height>52</xmpGImg:height>
                  <xmpGImg:format>JPEG</xmpGImg:format>
                  <xmpGImg:image>/9j/4AAQSkZJRgABAgEASABIAAD/7QAsUGhvdG9zaG9wIDMuMAA4QklNA+0AAAAAABAASAAAAAEA&#xA;AQBIAAAAAQAB/+4ADkFkb2JlAGTAAAAAAf/bAIQABgQEBAUEBgUFBgkGBQYJCwgGBggLDAoKCwoK&#xA;DBAMDAwMDAwQDA4PEA8ODBMTFBQTExwbGxscHx8fHx8fHx8fHwEHBwcNDA0YEBAYGhURFRofHx8f&#xA;Hx8fHx8fHx8fHx8fHx8fHx8fHx8fHx8fHx8fHx8fHx8fHx8fHx8fHx8fHx8f/8AAEQgANAEAAwER&#xA;AAIRAQMRAf/EAaIAAAAHAQEBAQEAAAAAAAAAAAQFAwIGAQAHCAkKCwEAAgIDAQEBAQEAAAAAAAAA&#xA;AQACAwQFBgcICQoLEAACAQMDAgQCBgcDBAIGAnMBAgMRBAAFIRIxQVEGE2EicYEUMpGhBxWxQiPB&#xA;UtHhMxZi8CRygvElQzRTkqKyY3PCNUQnk6OzNhdUZHTD0uIIJoMJChgZhJRFRqS0VtNVKBry4/PE&#xA;1OT0ZXWFlaW1xdXl9WZ2hpamtsbW5vY3R1dnd4eXp7fH1+f3OEhYaHiImKi4yNjo+Ck5SVlpeYmZ&#xA;qbnJ2en5KjpKWmp6ipqqusra6voRAAICAQIDBQUEBQYECAMDbQEAAhEDBCESMUEFURNhIgZxgZEy&#xA;obHwFMHR4SNCFVJicvEzJDRDghaSUyWiY7LCB3PSNeJEgxdUkwgJChgZJjZFGidkdFU38qOzwygp&#xA;0+PzhJSktMTU5PRldYWVpbXF1eX1RlZmdoaWprbG1ub2R1dnd4eXp7fH1+f3OEhYaHiImKi4yNjo&#xA;+DlJWWl5iZmpucnZ6fkqOkpaanqKmqq6ytrq+v/aAAwDAQACEQMRAD8A55rennTdd1HTiKGzuprc&#xA;jw9KQp/DFVBMVRCYqhp9ctbe5e2ENxPLGFMggheULy3AJUdxiq5PMkI/48L/AP6RZf6Yqj9J12w1&#xA;GWaCHnHcW9PVt5kMcgB6Hi29MVThMVRCYqiExVEJiqITFUQmKohMVRCYqiExVEJirUnfFUPJ3xVD&#xA;viqHfFUO+Kod8VQ74qh3xVDviqHfFUO+Kod8VQ74qh3xVDviqO8qzajD5n0qTTGVNQF1ELR2UOBK&#xA;zhUPFqg0Y5VmkRHbm36eAlLflzT/APOLT/qH5na/DSgkuBcD3+sRrMfxfLWhiaYqiExVBaX/AMd3&#xA;V/8Ao3/5NnFUws9Qe4+uelbt/ortEnIqPVdBuB4Cu1TirDJNM8z3Ott5k0mHhFLxlTm6AlQgDo61&#xA;3GxGKvRtHvvr+m2t7w9P6xEkhStaFhWlcVTJMVRCYqiExVEJiqITFUQmKohMVVFuIFlERkQStuIy&#xA;w5H6OuKotMVWLPDMpaGRZFBoShDCo7bYqh7iaGIcpXWNSaAsQBX6cVUnxVDviqHfFUO+Kod8VQ74&#xA;qh3xVDviqHfFUT5X8rWPmnzjpOi3kkkMdx9aKTwnjJHJHayPG69jxYD4TsehxVC+ZfLuteWdZk0X&#xA;Wowt0oL29ygIhuoQaCWIn/hl6qdvAlVKHxVDvirNPyS0j9JfmZo6lax2rvdyHw9BC6H/AJGBcoy7&#xA;yiPj8nJw7QnLyr5p9/zkpp/1b8wYbpR8N7YxSM2320d4yP8AgUXL3GeXJiqITFUFpf8Ax3dX/wCj&#xA;f/k2cVVtEkS1h1COUOv1a4lkdnVizI3xh60+PbpT5YqiNAikj8vL6iujyJJIYn2KcyW4hT9lRXYd&#xA;sVRXlL/lG9N/5h4/+IjFU9TFUQmKohMVRCYqiExVEJiqRfmFrl3onk7UL+zbjdqqRwP/ACtK4Tl8&#xA;1DEj3xVCW/5R+Vn0dbe7ieXVWXlNqxkf6x9YI3lDcuzbgdMVQ/nHRPMEPlnQrW+Nz5gsbGcHX4rR&#xA;WSe5hX7HwBuThf2t9+u3UKoXyyPIV15qs7nypeHRb2BXTUdGkjkjNyhX4VKOyryQ1Pw1+WKoDW4t&#xA;HsvNmsXPnnS7m8tbh1Ol6iEea1itgKenRD8DeO1f4qso8gW+nwaNMNK1X9J6Q07tYKQ3K2jNKQEu&#xA;S3w9dwDvirIHxVDviqHfFUO+Kod8VQ74qh3xVDvirIvyn/8AJpeX/nef9QcuKvf/ADv5I0Xzhora&#xA;ZqalXU+pZ3kdBNbzAUEkZP3EHZhscVfJN/ayWOp32myTw3b6fO9s15bHlBMU/bjP4MP2WqKmlcVQ&#xA;j4q9o/5xd0n1dd1nVmX4bW2S2Rj/ADXD8zT6IPxygb5D5BypbYQP50r+WyYf85S6f/yj2oKN/wDS&#xA;beQ/8i3T/jbL3FeEJiqITFUltLXU7rzRrbQ366ZpWnWaX+rXrQ/WGSJOESCOPbnI8kqqq8gN6kgD&#xA;FUx0O2vdY0nXtbsPMNzPpOi+iAkWlRS3z+shYyS2q3BEUEZXi0gkb5Yqg9aPmPTPIOl+ZptWkuH1&#xA;kMYYbewjks4wrlGimvPUHCeg5en6X04qyDyl/wAo3pv/ADDx/wDERiqepiqITFUQmKohMVRCYqiE&#xA;xVA+Z9Ai1/y/e6TI/p/WUoknXi6sHRvkGUVxVILXWvzRg04aZJ5fS41RE9KPVhcxC3YgUEzIfi9y&#xA;vf26Yqi5dB89aVpOiT6Zfvq+p6Z6h1OzuJ2CXom+0vqSHrF/ust/ZiqGnsPNXmnX9FvdR0JNCttI&#xA;nF09zJPHPcSFekKemAQhP2uWKqklx5/0LUr+JNOPmPS7ud57OYXKRS26yf7oYS1qq02p/YFVTyVo&#xA;GpafLq2pahbxWM+rTrMNNt2DxwKilR8Q+Eu1asRirInxVDviqHfFUO+Kod8VQ74qh3xVDvirIvyn&#xA;/wDJpeX/AJ3n/UHLirKPzf8AzfkvXuPK/le4KWyFodX1iFqFiNntrZx90kg6fZXepCrxsRxxRrHG&#xA;oREFFUCgAHYYqovir6c/5xt0j6p5DlvmHx6jdyOp/wCK4gIgP+DV8owb2e8uVqduGPdEfbu3/wA5&#xA;Kaf9Y8gQ3IHxWV9DIW8FdHjP/DOuXuK+Y0xVEJiqBt7fXrDX76/sVsrzTtUtPqOp6Zfer6U0B4kq&#xA;fSo6kNGrI6sGUj71VfyzFqvlrXZNb0TRdItr9N9Pc3Opv9WJiMT7epxlV6lisgIrt9nbFVG307zN&#xA;beT9Q8tWFnpdousCFdWvlmvXknFvL6sZ9KQvBG3LqyRjbYUxVkWi2JsNMtbIvza3iSMuBQEqKVpi&#xA;qZpiqITFUQmKohMVRCYqiExVEJiqITFUQmKtSd8VQ8nfFUO+Kod8VQ74qh3xVDviqHfFUO+Kod8V&#xA;Q74qgphfLcQz2d5JZSR+ojyQ/DI0c0bRSIr9U5K5FRv4U64qoiKOKNY41CRoOKqooAB2GKqT4qh3&#xA;65GcqiSzxw4pAd5faH5baSNJ8haFZU4stnHJIvhJMPVk/wCHc5DDGoANmpnxZJHzR/mry7Z+Y/L1&#xA;/ot3QRXsTRiQry9OTrHIBValHAYb9sskLDVEgEE7vF5P+cW51p6PmRH/AJudmU+6kzZjeDk/n/Y5&#xA;n5jCeeP7UNJ/zjL5gUN6Os2jmvw845EqPenOmDw8384fJPi6f+YfmoP/AM43+dVb93qGmutOrPOp&#xA;r8hC368eHP3xXi0vdP7FB/yB/MGMAqLOSvULMdv+CVcF5+6KeHSnrMfJRf8AJP8AMiPlx0+KWnTh&#xA;cQivy5Mv44+Jn/mj5p8LSn+OXyUm/Kb8x4iA+iMa7/DNbt+KyHB42Yfwfan8tpzyyf7EqTfl957i&#xA;FX0K660+FeR/4WuP5nJ/qZT+Swnllj8v2rG8p+b4ifU0HUAF3ZhbSkUpXqFpg/OSHOEvkv8AJ0Ty&#xA;yw+aw6VrUVPV0y8jr05QSCtPmMfz46xl8k/yVI8pwPx/YsJkiBMsUkYU0JZCKH6cH8o4+t/JP8j5&#xA;jy4T8VSO7g/m/A4R2lh7/sKD2Nqf5v2hER3Vv/P+vJDtDD/O+9geydSP4Pu/WiY7mD/fgyQ1uH+c&#xA;Gs9m6gfwSRMc8Bp+8X7xkxqsR/ij8wwOizjnCX+lKJjljPRx94yYzQP8Q+bWdPkHOMvkXSSxCtXX&#xA;7xgOoxjnIfMMhpcp5Ql8ihpLiD/fi/eMgdXi/nR+bYOz9Qf4JfIoWS5g/nGQOuwj+IMx2XqT/AUP&#xA;JdQfzfgcie0cH877D+psHY+pP8H2j9aGe6h8T92QPaeHv+xmOxdR3D5rQs8tPSglk5fZ4ITX5Ux/&#xA;lLH0Ej8F/kbKOZiPiuGka5KCYtLvHA2JWCQ7/QMP58HlGXyX+SiOc4fNUHk/zlI1F0HUK0r8VtKo&#xA;+9lGP5yf+pyR/J2Mc8sPx8V6/l159lpw0O5HLpyAT7+RFPpw/mcp5Yz80fksA55R8v2qi/lJ+ZEt&#xA;eOisKdeU9uv/ABKQY+NnP8H2o/L6Yc8n2FWT8kPzGkIDWUMdRWrXEVB7fCzYePUfzY/j4o8PSD+K&#xA;X4+Csn/OP3n6QAs1lFU0IeZtvc8UbD/hB/mo/wAEH88ohP8AnG7zk1fV1HTk/l4vO364lx4c/fFH&#xA;Hpf5svx8URH/AM4ya0xX1tbtkFPi4RSPQ+1SlcPh5v532L42nHKB+aKt/wDnF08la48xCgYFo0tC&#xA;ar3HIzClflidPM7GX2KNXjibjDf3veFVVUKoCqooANgAMy3Xt4q7FXYq7FXYq7FXYq7FXYq7FXYq&#xA;h7j9Hcj9Y9HlTf1ONafTkZcPVnHi6Wlk/wDgmg9f9G0/Z5+hSvtXKZeD14fscmP5jpx/al0//Kq/&#xA;j9X9C8v26fVedfo+LKZflevB9jkQ/PdPF/2SBm/5U/yHL9HVpt6fT/hNspl+T/ouRH+UenGl8v8A&#xA;ypTiOXp0r+x9br/wm+Y8vyP44nLj/KnS/wDYfpXQ/wDKlqLx9KldvU+tePfn/HDH8j0r/ZIn/KnW&#xA;/wDY/oR8P/Kofi4/o7tX1Kfhz/hl8fyf9FxZ/wAo9eP8e5MLf/lWFV9H9C8qfDT6rypT/gsuj+W6&#xA;cH2ONP8AO9fF/wBkmFv/AIN4j6v+juNdvT9Clfo75dHwenD9jjy/MdeP7Uzg+pVP1f0+X7Xp8a09&#xA;6ZcK6OPLi62rZJg7FXYq7FXYq7FXYq7FXYq7FXYq/wD/2Q==</xmpGImg:image>
               </rdf:li>
            </rdf:Alt>
         </xmp:Thumbnails>
         <xmpMM:InstanceID>xmp.iid:1304ae71-66ba-1246-a7e6-a4755eb2a88b</xmpMM:InstanceID>
         <xmpMM:DocumentID>xmp.did:1304ae71-66ba-1246-a7e6-a4755eb2a88b</xmpMM:DocumentID>
         <xmpMM:OriginalDocumentID>uuid:5D20892493BFDB11914A8590D31508C8</xmpMM:OriginalDocumentID>
         <xmpMM:RenditionClass>proof:pdf</xmpMM:RenditionClass>
         <xmpMM:DerivedFrom rdf:parseType="Resource">
            <stRef:instanceID>xmp.iid:9632bbfa-e7aa-9149-8890-086b45e44cdd</stRef:instanceID>
            <stRef:documentID>xmp.did:9632bbfa-e7aa-9149-8890-086b45e44cdd</stRef:documentID>
            <stRef:originalDocumentID>uuid:5D20892493BFDB11914A8590D31508C8</stRef:originalDocumentID>
            <stRef:renditionClass>proof:pdf</stRef:renditionClass>
         </xmpMM:DerivedFrom>
         <xmpMM:History>
            <rdf:Seq>
               <rdf:li rdf:parseType="Resource">
                  <stEvt:action>saved</stEvt:action>
                  <stEvt:instanceID>xmp.iid:c34fcb8d-e8f1-8b48-96f0-dfe390e32e91</stEvt:instanceID>
                  <stEvt:when>2017-08-14T12:20:04-05:00</stEvt:when>
                  <stEvt:softwareAgent>Adobe Illustrator CC (Windows)</stEvt:softwareAgent>
                  <stEvt:changed>/</stEvt:changed>
               </rdf:li>
               <rdf:li rdf:parseType="Resource">
                  <stEvt:action>saved</stEvt:action>
                  <stEvt:instanceID>xmp.iid:1304ae71-66ba-1246-a7e6-a4755eb2a88b</stEvt:instanceID>
                  <stEvt:when>2017-08-14T13:41:17-05:00</stEvt:when>
                  <stEvt:softwareAgent>Adobe Illustrator CC (Windows)</stEvt:softwareAgent>
                  <stEvt:changed>/</stEvt:changed>
               </rdf:li>
            </rdf:Seq>
         </xmpMM:History>
         <illustrator:StartupProfile>Print</illustrator:StartupProfile>
         <xmpTPg:HasVisibleOverprint>False</xmpTPg:HasVisibleOverprint>
         <xmpTPg:HasVisibleTransparency>False</xmpTPg:HasVisibleTransparency>
         <xmpTPg:NPages>1</xmpTPg:NPages>
         <xmpTPg:MaxPageSize rdf:parseType="Resource">
            <stDim:w>235.279999</stDim:w>
            <stDim:h>45.841980</stDim:h>
            <stDim:unit>Pixels</stDim:unit>
         </xmpTPg:MaxPageSize>
         <xmpTPg:PlateNames>
            <rdf:Seq>
               <rdf:li>Cyan</rdf:li>
               <rdf:li>Magenta</rdf:li>
               <rdf:li>Yellow</rdf:li>
               <rdf:li>Black</rdf:li>
            </rdf:Seq>
         </xmpTPg:PlateNames>
         <xmpTPg:SwatchGroups>
            <rdf:Seq>
               <rdf:li rdf:parseType="Resource">
                  <xmpG:groupName>Grupo de muestras por defecto</xmpG:groupName>
                  <xmpG:groupType>0</xmpG:groupType>
               </rdf:li>
            </rdf:Seq>
         </xmpTPg:SwatchGroups>
         <pdf:Producer>Adobe PDF library 10.01</pdf:Producer>
      </rdf:Description>
   </rdf:RDF>
</x:xmpmeta>
                                                                                                    
                                                                                                    
                                                                                                    
                                                                                                    
                                                                                                    
                                                                                                    
                                                                                                    
                                                                                                    
                                                                                                    
                                                                                                    
                                                                                                    
                                                                                                    
                                                                                                    
                                                                                                    
                                                                                                    
                                                                                                    
                                                                                                    
                                                                                                    
                                                                                                    
                                                                                                    
                           
<?xpacket end="w"?>
	</metadata>
<g>
	<g>
		<g>
			
				<linearGradient id="SVGID_1_" gradientUnits="userSpaceOnUse" x1="-242.875" y1="-448.3625" x2="-8.72" y2="-448.3625" gradientTransform="matrix(1 0 0 -1 244 -424.316)">
				<stop  offset="0" style="stop-color:#783214"/>
				<stop  offset="0.5" style="stop-color:#F16529"/>
				<stop  offset="1" style="stop-color:#783214"/>
			</linearGradient>
			<polygon fill="url(#SVGID_1_)" points="227.4,40.213 117.307,45.842 6.754,40.213 1.125,2.251 235.28,2.251 			"/>
		</g>
		<g>
			
				<linearGradient id="SVGID_2_" gradientUnits="userSpaceOnUse" x1="-244" y1="680.9535" x2="-9.846" y2="680.9535" gradientTransform="matrix(1 0 0 1 244 -659.158)">
				<stop  offset="0" style="stop-color:#404040"/>
				<stop  offset="0.5" style="stop-color:#9F9F9F"/>
				<stop  offset="0.9947" style="stop-color:#404040"/>
			</linearGradient>
			<polygon fill="url(#SVGID_2_)" points="226.274,37.962 116.182,43.591 5.628,37.962 0,0 234.154,0 			"/>
		</g>
	</g>
	<polygon fill="#F1F1F1" stroke="#000000" stroke-linecap="round" stroke-linejoin="round" stroke-miterlimit="10" points="
		203.317,32.752 215.832,20.237 203.317,7.722 	"/>
	<g>
		<rect x="25.317" y="25.278" fill="#F1F1F1" width="17.833" height="7.833"/>
		<g>
			<path d="M45.069,11.986c-0.001-0.132-0.043-0.263-0.134-0.366l-5.557-6.347c-0.001-0.002-0.003-0.003-0.004-0.004
				c-0.033-0.037-0.071-0.067-0.112-0.094c-0.012-0.008-0.024-0.015-0.037-0.022c-0.035-0.019-0.073-0.035-0.111-0.047
				c-0.011-0.003-0.02-0.007-0.03-0.01c-0.042-0.01-0.085-0.016-0.13-0.016H25.296c-0.624,0-1.13,0.507-1.13,1.13v26.56
				c0,0.624,0.507,1.13,1.13,1.13h18.649c0.623,0,1.13-0.507,1.13-1.13V12.049C45.076,12.028,45.073,12.006,45.069,11.986z
				 M30.09,31.359c0.467,0,0.986-0.101,1.292-0.224l0.233,1.211c-0.285,0.143-0.926,0.295-1.76,0.295c-2.37,0-3.59-1.475-3.59-3.428
				c0-2.34,1.668-3.642,3.743-3.642c0.803,0,1.414,0.163,1.688,0.305l-0.315,1.231c-0.315-0.132-0.752-0.253-1.302-0.253
				c-1.23,0-2.186,0.743-2.186,2.267C27.893,30.495,28.706,31.359,30.09,31.359z M34.312,32.641c-0.783,0-1.557-0.204-1.943-0.418
				l0.315-1.281c0.417,0.213,1.058,0.427,1.719,0.427c0.712,0,1.088-0.294,1.088-0.742c0-0.427-0.325-0.671-1.149-0.966
				c-1.139-0.396-1.882-1.027-1.882-2.023c0-1.17,0.977-2.065,2.594-2.065c0.772,0,1.342,0.163,1.75,0.346l-0.346,1.251
				c-0.275-0.133-0.763-0.326-1.434-0.326s-0.997,0.305-0.997,0.662c0,0.438,0.387,0.63,1.271,0.966
				c1.21,0.447,1.78,1.078,1.78,2.044C37.078,31.664,36.193,32.641,34.312,32.641z M39.805,32.641c-0.783,0-1.557-0.204-1.943-0.418
				l0.315-1.281c0.417,0.213,1.058,0.427,1.718,0.427c0.712,0,1.088-0.294,1.088-0.742c0-0.427-0.325-0.671-1.148-0.966
				c-1.139-0.396-1.882-1.027-1.882-2.023c0-1.17,0.977-2.065,2.595-2.065c0.773,0,1.342,0.163,1.749,0.346L41.95,27.17
				c-0.274-0.133-0.762-0.326-1.434-0.326c-0.671,0-0.997,0.305-0.997,0.662c0,0.438,0.387,0.63,1.272,0.966
				c1.21,0.447,1.78,1.078,1.78,2.044C42.571,31.664,41.687,32.641,39.805,32.641z M43.945,24.27H25.296V6.209h13.092v5.783
				c0,0.312,0.253,0.565,0.565,0.565h4.992V24.27z"/>
			<path d="M30.72,13.193c0,0.346,0.05,0.679,0.1,1.024c0.049,0.344,0.098,0.69,0.098,1.035c0,0.432-0.123,0.913-0.999,0.913v0.629
				c0.876,0,0.999,0.53,0.999,0.913c0,0.334-0.049,0.666-0.098,1c-0.05,0.333-0.1,0.677-0.1,1.011c0,1.245,0.765,1.69,1.789,1.69
				h0.259V20.73h-0.221c-0.691,0-0.975-0.383-0.975-1.074c0-0.296,0.037-0.58,0.086-0.888c0.05-0.296,0.086-0.604,0.086-0.937
				c0.013-0.789-0.333-1.208-0.888-1.345v-0.023c0.556-0.149,0.901-0.544,0.888-1.333c0-0.333-0.037-0.629-0.086-0.937
				c-0.049-0.297-0.086-0.593-0.086-0.876c0-0.666,0.246-1.061,0.975-1.061h0.221v-0.679h-0.259
				C31.461,11.578,30.72,12.059,30.72,13.193z"/>
			<path d="M37.853,15.253c0-0.345,0.05-0.691,0.1-1.035c0.049-0.345,0.099-0.678,0.099-1.024c0-1.135-0.754-1.616-1.802-1.616
				h-0.246v0.679h0.222c0.716,0.012,0.975,0.394,0.975,1.061c0,0.283-0.049,0.579-0.086,0.876c-0.05,0.308-0.1,0.605-0.1,0.937
				c0,0.789,0.346,1.184,0.889,1.333v0.023c-0.543,0.136-0.889,0.555-0.889,1.345c0,0.333,0.049,0.642,0.1,0.937
				c0.037,0.309,0.086,0.593,0.086,0.888c0,0.691-0.296,1.061-0.986,1.074h-0.21v0.679h0.259c1.012,0,1.789-0.445,1.789-1.69
				c0-0.333-0.049-0.678-0.099-1.011c-0.049-0.334-0.099-0.666-0.099-1c0-0.383,0.124-0.913,1-0.913v-0.629
				C37.976,16.166,37.853,15.685,37.853,15.253z"/>
		</g>
	</g>
</g>
<g>
	<path d="M110.588,22.985l1.69,0.427c-0.354,1.388-0.992,2.447-1.913,3.176c-0.92,0.729-2.046,1.093-3.376,1.093
		c-1.377,0-2.497-0.28-3.359-0.841c-0.863-0.561-1.519-1.372-1.969-2.435c-0.45-1.063-0.675-2.205-0.675-3.424
		c0-1.33,0.254-2.49,0.762-3.481c0.508-0.99,1.231-1.743,2.17-2.257c0.938-0.514,1.97-0.771,3.097-0.771
		c1.278,0,2.353,0.326,3.224,0.976c0.871,0.65,1.478,1.565,1.821,2.745l-1.664,0.392c-0.296-0.929-0.726-1.606-1.29-2.03
		c-0.563-0.424-1.272-0.636-2.126-0.636c-0.982,0-1.802,0.235-2.461,0.706c-0.659,0.47-1.123,1.102-1.39,1.895
		c-0.268,0.793-0.401,1.61-0.401,2.453c0,1.086,0.158,2.035,0.475,2.844c0.317,0.811,0.809,1.416,1.477,1.817
		c0.668,0.4,1.391,0.601,2.169,0.601c0.947,0,1.749-0.272,2.405-0.818S110.356,24.06,110.588,22.985z"/>
	<path d="M113.786,23.359l1.594-0.139c0.076,0.639,0.251,1.163,0.527,1.573c0.276,0.409,0.704,0.74,1.285,0.993
		c0.581,0.252,1.234,0.379,1.96,0.379c0.645,0,1.214-0.096,1.708-0.288c0.493-0.191,0.861-0.454,1.102-0.788
		c0.241-0.334,0.362-0.698,0.362-1.094c0-0.4-0.116-0.75-0.349-1.049s-0.616-0.55-1.15-0.754c-0.343-0.133-1.101-0.341-2.274-0.623
		c-1.173-0.281-1.995-0.547-2.465-0.797c-0.61-0.319-1.065-0.716-1.364-1.189c-0.299-0.474-0.449-1.003-0.449-1.59
		c0-0.645,0.183-1.247,0.549-1.808c0.366-0.561,0.9-0.986,1.603-1.277c0.703-0.29,1.484-0.436,2.345-0.436
		c0.946,0,1.781,0.153,2.505,0.458c0.723,0.305,1.279,0.754,1.668,1.346c0.39,0.592,0.599,1.263,0.628,2.013l-1.621,0.122
		c-0.087-0.808-0.382-1.417-0.884-1.83c-0.503-0.413-1.245-0.619-2.227-0.619c-1.023,0-1.768,0.187-2.235,0.562
		c-0.467,0.375-0.701,0.826-0.701,1.354c0,0.459,0.166,0.836,0.497,1.133c0.325,0.296,1.175,0.6,2.548,0.911
		c1.374,0.311,2.316,0.583,2.828,0.814c0.743,0.343,1.292,0.777,1.646,1.303s0.531,1.131,0.531,1.816c0,0.68-0.194,1.32-0.584,1.922
		c-0.389,0.601-0.948,1.068-1.677,1.402c-0.729,0.334-1.55,0.501-2.462,0.501c-1.156,0-2.125-0.168-2.906-0.505
		s-1.394-0.844-1.838-1.521S113.809,24.213,113.786,23.359z"/>
	<path d="M125.689,23.359l1.594-0.139c0.076,0.639,0.252,1.163,0.527,1.573c0.276,0.409,0.704,0.74,1.285,0.993
		c0.581,0.252,1.234,0.379,1.961,0.379c0.645,0,1.214-0.096,1.707-0.288c0.494-0.191,0.861-0.454,1.103-0.788
		s0.361-0.698,0.361-1.094c0-0.4-0.116-0.75-0.349-1.049s-0.615-0.55-1.149-0.754c-0.343-0.133-1.102-0.341-2.274-0.623
		c-1.174-0.281-1.995-0.547-2.466-0.797c-0.61-0.319-1.064-0.716-1.363-1.189c-0.3-0.474-0.449-1.003-0.449-1.59
		c0-0.645,0.184-1.247,0.549-1.808c0.366-0.561,0.9-0.986,1.604-1.277c0.703-0.29,1.484-0.436,2.344-0.436
		c0.946,0,1.782,0.153,2.505,0.458c0.724,0.305,1.279,0.754,1.669,1.346c0.389,0.592,0.598,1.263,0.627,2.013l-1.62,0.122
		c-0.088-0.808-0.383-1.417-0.885-1.83c-0.503-0.413-1.244-0.619-2.227-0.619c-1.022,0-1.767,0.187-2.234,0.562
		c-0.468,0.375-0.701,0.826-0.701,1.354c0,0.459,0.165,0.836,0.496,1.133c0.325,0.296,1.175,0.6,2.549,0.911
		s2.316,0.583,2.827,0.814c0.743,0.343,1.293,0.777,1.646,1.303c0.354,0.526,0.532,1.131,0.532,1.816c0,0.68-0.195,1.32-0.584,1.922
		c-0.39,0.601-0.948,1.068-1.678,1.402c-0.729,0.334-1.549,0.501-2.461,0.501c-1.156,0-2.125-0.168-2.906-0.505
		s-1.394-0.844-1.838-1.521S125.711,24.213,125.689,23.359z"/>
</g>
</svg>
