<?xml version="1.0" encoding="utf-8"?>
<!-- Generator: Adobe Illustrator 17.0.0, SVG Export Plug-In . SVG Version: 6.00 Build 0)  -->
<!DOCTYPE svg PUBLIC "-//W3C//DTD SVG 1.1//EN" "http://www.w3.org/Graphics/SVG/1.1/DTD/svg11.dtd" [
	<!ENTITY ns_extend "http://ns.adobe.com/Extensibility/1.0/">
	<!ENTITY ns_ai "http://ns.adobe.com/AdobeIllustrator/10.0/">
	<!ENTITY ns_graphs "http://ns.adobe.com/Graphs/1.0/">
	<!ENTITY ns_vars "http://ns.adobe.com/Variables/1.0/">
	<!ENTITY ns_imrep "http://ns.adobe.com/ImageReplacement/1.0/">
	<!ENTITY ns_sfw "http://ns.adobe.com/SaveForWeb/1.0/">
	<!ENTITY ns_custom "http://ns.adobe.com/GenericCustomNamespace/1.0/">
	<!ENTITY ns_adobe_xpath "http://ns.adobe.com/XPath/1.0/">
]>
<svg version="1.1" id="Capa_1" xmlns:x="&ns_extend;" xmlns:i="&ns_ai;" xmlns:graph="&ns_graphs;"
	 xmlns="http://www.w3.org/2000/svg" xmlns:xlink="http://www.w3.org/1999/xlink" x="0px" y="0px" width="235.28px"
	 height="45.842px" viewBox="0 0 235.28 45.842" enable-background="new 0 0 235.28 45.842" xml:space="preserve">
<metadata><?xpacket begin="﻿" id="W5M0MpCehiHzreSzNTczkc9d"?>
<x:xmpmeta xmlns:x="adobe:ns:meta/" x:xmptk="Adobe XMP Core 5.5-c014 79.151739, 2013/04/03-12:12:15        ">
   <rdf:RDF xmlns:rdf="http://www.w3.org/1999/02/22-rdf-syntax-ns#">
      <rdf:Description rdf:about=""
            xmlns:dc="http://purl.org/dc/elements/1.1/"
            xmlns:xmp="http://ns.adobe.com/xap/1.0/"
            xmlns:xmpGImg="http://ns.adobe.com/xap/1.0/g/img/"
            xmlns:xmpMM="http://ns.adobe.com/xap/1.0/mm/"
            xmlns:stRef="http://ns.adobe.com/xap/1.0/sType/ResourceRef#"
            xmlns:stEvt="http://ns.adobe.com/xap/1.0/sType/ResourceEvent#"
            xmlns:illustrator="http://ns.adobe.com/illustrator/1.0/"
            xmlns:xmpTPg="http://ns.adobe.com/xap/1.0/t/pg/"
            xmlns:stDim="http://ns.adobe.com/xap/1.0/sType/Dimensions#"
            xmlns:xmpG="http://ns.adobe.com/xap/1.0/g/"
            xmlns:pdf="http://ns.adobe.com/pdf/1.3/">
         <dc:format>image/svg+xml</dc:format>
         <dc:title>
            <rdf:Alt>
               <rdf:li xml:lang="x-default">Imprimir</rdf:li>
            </rdf:Alt>
         </dc:title>
         <xmp:MetadataDate>2017-08-14T13:41:17-05:00</xmp:MetadataDate>
         <xmp:ModifyDate>2017-08-14T13:41:17-05:00</xmp:ModifyDate>
         <xmp:CreateDate>2017-08-14T13:41:16-05:00</xmp:CreateDate>
         <xmp:CreatorTool>Adobe Illustrator CC (Windows)</xmp:CreatorTool>
         <xmp:Thumbnails>
            <rdf:Alt>
               <rdf:li rdf:parseType="Resource">
                  <xmpGImg:width>256</xmpGImg:width>
                  <xmpGImg:height>52</xmpGImg:height>
                  <xmpGImg:format>JPEG</xmpGImg:format>
                  <xmpGImg:image>/9j/4AAQSkZJRgABAgEASABIAAD/7QAsUGhvdG9zaG9wIDMuMAA4QklNA+0AAAAAABAASAAAAAEA&#xA;AQBIAAAAAQAB/+4ADkFkb2JlAGTAAAAAAf/bAIQABgQEBAUEBgUFBgkGBQYJCwgGBggLDAoKCwoK&#xA;DBAMDAwMDAwQDA4PEA8ODBMTFBQTExwbGxscHx8fHx8fHx8fHwEHBwcNDA0YEBAYGhURFRofHx8f&#xA;Hx8fHx8fHx8fHx8fHx8fHx8fHx8fHx8fHx8fHx8fHx8fHx8fHx8fHx8fHx8f/8AAEQgANAEAAwER&#xA;AAIRAQMRAf/EAaIAAAAHAQEBAQEAAAAAAAAAAAQFAwIGAQAHCAkKCwEAAgIDAQEBAQEAAAAAAAAA&#xA;AQACAwQFBgcICQoLEAACAQMDAgQCBgcDBAIGAnMBAgMRBAAFIRIxQVEGE2EicYEUMpGhBxWxQiPB&#xA;UtHhMxZi8CRygvElQzRTkqKyY3PCNUQnk6OzNhdUZHTD0uIIJoMJChgZhJRFRqS0VtNVKBry4/PE&#xA;1OT0ZXWFlaW1xdXl9WZ2hpamtsbW5vY3R1dnd4eXp7fH1+f3OEhYaHiImKi4yNjo+Ck5SVlpeYmZ&#xA;qbnJ2en5KjpKWmp6ipqqusra6voRAAICAQIDBQUEBQYECAMDbQEAAhEDBCESMUEFURNhIgZxgZEy&#xA;obHwFMHR4SNCFVJicvEzJDRDghaSUyWiY7LCB3PSNeJEgxdUkwgJChgZJjZFGidkdFU38qOzwygp&#xA;0+PzhJSktMTU5PRldYWVpbXF1eX1RlZmdoaWprbG1ub2R1dnd4eXp7fH1+f3OEhYaHiImKi4yNjo&#xA;+DlJWWl5iZmpucnZ6fkqOkpaanqKmqq6ytrq+v/aAAwDAQACEQMRAD8A5/rennTtc1HTyKGzuprc&#xA;jw9KRk/hmhmKJD1WOVxB7wh1yBbQqpkSyCFuNbtre5e2ENxPLGFMggheQLy3AJUdxk44SRdge8tU&#xA;9TGJ4aJPkLcvmKH/AJYb7/pFl/pj+XPfH5hRqx/Nn/pSjNK1ux1CWaGHnHcQU9WCZDHIAeh4tvTK&#xA;8uGUACeRbsGpjkJA5jodimqZQXKCsmRLMKy5FkFVMiWYVlyLMKy5EswrLkWQVkyJZhVXIlmFZMBZ&#xA;BzYqVF8kGBUWyTEqT4QwKi+SDAqLZJiVF8kGBUmyTAqL5IMSovkgwKk+SDEqL5IMCotkmBUXyQYF&#xA;SbJBiWS/ldaz3HnzSTBQSQS+spIrRkHwGh/y+OZOljcw4Wunw4iiPzh0/wCofmZr0NKCS4FwPf6x&#xA;Gsx/F8GpFTKdHK8UWJLmOXMCqmRLIIHTf+O5q3/Rv/ybOW5Poj8WjD/ez/zfuR1rqD3H1v07dv8A&#xA;RnaNORUeo6jcDwFdqnKpY6qzzb4ZTLiocvtYbJpvmW41lvMWlRcIpeMic3QEqFAZWWvTYjNiMmMQ&#xA;8OZdOcOaWTxsY2L0DSb369p1teceH1iNZCla05CtK5qcsOGRHc77Bk44CXeEemVFyArLkWQVUyJZ&#xA;hWXIswrLkSzCsuRZBWTIlmFwnhEgiMiiQ7hCRyP0Y8Jq08Qur3RK5BsCxZoZVLROsig0JUgio7bY&#xA;SCOaBIHkpTyxRisjqgJoCxAFfpwgE8mEpAc1NskgqT4QwKi+SDAqLZJiVF8kGBUmyTAqL5IMSovk&#xA;gwKk+SDEqL5IMCotkmBUXyQYFSbJBiXqX/OO2ki683y3jCq2qAV+ZL/rjGZ+hjuS6ntSfpAd/wA5&#xA;Jaf9X8/w3Kj4b2xikY7fbR3jI/4FFyGtFT+DZ2bK8ddxeWrmGXZBVTIlkEDpv/Hc1b/o3/5NnLcn&#xA;0R+LRh/vZ/5v3KmjSJbRX6Sh1+rzyyOzq3Jkb4w1afHt0p8sjmHEY11AZac8IkD0J/HmraHFJHoC&#xA;eoro8iPIY32KcyW4gfsgV2HbI5jeRnpokYt/NEeVf+Ud07/mHj/4jkdT/eS97Zov7mPuCcpmMXMC&#xA;suRZBVTIlmFZcizCsuRLMKy5FkEl89azc6P5Vvr21PG5AWOF/wCVpHCcvmoNRmTosIyZRE8nD7S1&#xA;EsWCUo8/1oSD8sPLjaUsF1G0upMvKXUy7+v65G8gPLs3QdMsl2lk47H093SmqPY2EwqQuf8AO633&#xA;qHmvSNci8v6NbXhn1uzs5gdajtgVmuIl+x8IbkwX9rffrt2lpcsDkkRUCR6b5AtetwZRhgJXkjE+&#xA;uuch+OfzQ3l4eS7nzJaXHlq7OkXcIdb7SpI5IzcIRspVmC8k67V+WT1HjDGRlHGOku5r0n5aWYHC&#xA;fDkPqjR9X9iC1ePSrTzNqlx5y064u7adx+jb4I8ttFbgfYoh+BvHb+23EZyxRGGQBHMdbac4xwzT&#xA;OpiZA/TLnED9DJPJEFjDpUo03Uv0hpbTu1ktGrbxmlISWJb4fcDMLWykZ+qPDKt/Pzdj2dGIxngl&#xA;xwvbyHcnz5ihziovkgwKi2SYlRfJBgVJskwKi+SDEqL5IMCpPkgxKi+SDAqLZJgVF8kGBUmyQYl9&#xA;Df8AONOleno97qLLvM5Ct7EhfwMRzbaKNQvvdB2lO8ldwQH/ADlHp/8Ayj+oKN/9Jt5D/wAi3T/j&#xA;bKtcORbuy5fUHhC5ri7kKqZEsgktpaandeZ9aaK/XTNK06zS/wBWvWh+sMkScIkEce3N3klVVXkB&#xA;vUkAZs9PgjPGOLzdJq9VPFmlwnnX3Jjodnd6xpOva3YeYLmfSdF9EBItKilvn9ZCxkltVuCIoIyv&#xA;FpBI3yy38ji7mj+U83f9gQWtJ5h0zyDpfmabVpLh9ZDGGG3sUks4wrlGimvPUHCeg5en6X04/kcX&#xA;cn+U83f9gTryr/yjunf8w8f/ABHNNqf7yXvej0X9zH3BOUzGLmBWXIsgqpkSzCsuRZhWXIlmFZci&#xA;yCC8xaJHreh3emO3D6wlEk68XUhkP/BKK5bp8xxzEu5p1enGbFKB6pHb6t+Y0NgNPfQ0n1FF9JNT&#xA;FxEIGIFBKyH4vcr39umZMsWnMuLjqPdRv3OFDPrBHgOO5/zuIV70TJovnLTdM0ibT719T1DT+Z1C&#xA;1nmYJdiXqObnrH+wW/syAzYZykJDhjLkQPpr9fVsOn1GOEDCXHOH1An6r9/d0Q8tl5k8x63pN3fa&#xA;MujW+lzC5a4eZJp5Cv8AupOABCE9a5MTx4YSEZcZkK5UPe1yx5tRkhKUPDEDd2CT5bdFR5/O2jX9&#xA;5Glgde065maa0lE6xywB/wDdLCStVWm1P7MiBgyRG/BIDfbn5sjLU4ZyHD4sCbG9EeW6p5Q0S/sZ&#xA;NTv76CKzm1SZZRYQEMkKopA+IfCWatWpg1eaMhGMTYiOZ6stBppwM5yAiZm+EdGQPmIHPKi+SDAq&#xA;LZJiVF8kGBUmyTAqL5IMSovkgwKk+SDEqL5IMCotkmBUXyQYFSbJBiX1z+Tek/o7yLYowo8qh2+d&#xA;ByH/AAZbN5hjUAHltRPiySPmkP8AzklYfWPIENyB8VlfRSFvBXR4z/wzrlOtFw+LldmyrJXeHzIu&#xA;aku/CqmRLIIC3h13T9evr6yWzvNO1S0+o6npl96vpTQHiSp9KjqQ0asjqwZSPvztPq4whRBdXq+z&#xA;55J8USFfyyuqeWtdk1vRdE0m2v0306Q3Wpt9WJi9J9jJxlV6lisgIr/k7Zd/KEO4/j4uN/JGXvj9&#xA;v6lCCy8yW3k/UPLVhZ6XaLrAhXVr5Zb15Jxby+rGfSkLwRty6skY22FMf5Rx9x/HxZfyPl74/b+p&#xA;PNHsjY6ba2ZbmbeNYy4FASopWmafLPikT3vQ4MfBAR7gmCZSXICsuRZBVTIlmFZcizCsuRLMKy5F&#xA;kFZMiWYVVyJZhWTAWQc2KlRfJBgVFskxKk+EMCovkgwKi2SYlRfJBgVJskwKi+SDEqL5IMCpPkgx&#xA;Ki+SDAqLZJgVF8kGBVNNsze6naWg/wCPiZIz8mYA5ZjjZAacs+GJPcH2z5ftRa6LZQAceMSkjwLD&#xA;kfxOb95R2v6Hp+uaRc6XqESzWtytGVxUBlIZGpUfZYA5GURIUWUJmJsc3ncv/OP/AJWatFj360SR&#xA;Pu4y5UdNj7nIGtyj+JCS/wDOPOgH+7CCnT95OK/OrNkTo8fczHaGbv8AsCFk/wCcdrE/3cqgePqu&#xA;D+KNkDocfm2DtTL5IaT/AJx5A3SaT5LMlB/wUeRPZ8O8sx2tlHSP2/rQ0n/OP9+v93JIaf5cRr8q&#xA;8cgezY95bB2zP+aEM/5D64tQruD2+GJv1SZA9mD+d9jYO2z1j9v7EO/5K+Yk6GRh/wAYTWv0O2QP&#xA;ZZ/nfY2jtwdYfb+xQf8AKTzRHX925p1JhlpT5hTlZ7Ln3htHbkOsSoP+WnmaPrGtO1VlBP3pkD2X&#xA;k7x+Pg2R7cw9RL7P1qLeSNej+1GlB1NSKfeBlZ7My+TcO28Hn8ln+FtbX/dAb5On8SMrPZubu+0N&#xA;0e2dN/O+wt/4e1la1tjt4Mp/UcrPZ+Yfw/c2x7W0x/j+/wDU2NH1RaVtpPoFf1ZUdFm/mluj2lpz&#xA;/HFsaffr9q2lFO/Bv6ZUdLlH8MvkW+OtwHlOP+mC4W1wDQxOD7qcrOGY/hPybo6nGeUo/MNm0um+&#xA;zDIa9KKf6YRgyHlE/JEtViHOcfmFp0zUWrS2l+lCP1jLRpMv82XyaJdoacfxx+Ya/Qmqt0tn+mg/&#xA;WctGhzH+EtEu1NOP4w1/hzWm6W33ug/W2WDs7P8AzftH62qXbGmH8f2H9Tv8J6y1f3ar83H8K5YO&#xA;zM3d9rTLtrT95+SonkTXpacVT4um7H9SnLB2Xl8mmXbmD+l8v2qyfll5jkFeAO/7KSt/xoMmOysn&#xA;eGo9u4ukZfZ+tXT8ofMjmhSRf+eEn8aZYOypfzmo9ux6RPzV4/yT15+NWkFeo9ED8S4ywdl/0vs/&#xA;a1Htzuh9v7EQn5D6wwPIyn/kUv63yY7MH85rPbUv5o+aJj/5x/uWP7x5QKf79hH/ABq2THZ0O8tZ&#xA;7Yyd0ft/WiY/+ceoyBzkbrvymHj34x5Idn4/NrPa2U9yKj/5x604V9Qxnw/fSn9Srkxosfc1ntPN&#xA;3/Yiov8AnH3y8CC6R1pueU7fgXAyQ0mPuYHX5j/F9gTDT/yO8u2VxHcRenHNE3JGETEj5M0mWRwQ&#xA;ibAa56rJIUS9KAAFBsB0GWuO7FXYq7FXYq7FXYq7FXYq7FXYq7FVOT6tU+rwrTflTp9OKoST9AUH&#xA;qfVKduXp/wAcVQkv+Dvi5/o+v7X9zX8N8VQsn+BKjl9Vr/k/824qhJP+Vd8fi4Ur+z69f+FxVuL/&#xA;AJV5QceHXbl63/G2KouL/Au/H6p78qf8bYqi4v8ACG3p/UK02p6Nf64qiov0FT919VpXbj6fX6MV&#xA;RcfoVPp8a9+NP4YqvxV2KuxV2KuxV2KuxV2KuxV2KuxV/9k=</xmpGImg:image>
               </rdf:li>
            </rdf:Alt>
         </xmp:Thumbnails>
         <xmpMM:InstanceID>xmp.iid:1304ae71-66ba-1246-a7e6-a4755eb2a88b</xmpMM:InstanceID>
         <xmpMM:DocumentID>xmp.did:1304ae71-66ba-1246-a7e6-a4755eb2a88b</xmpMM:DocumentID>
         <xmpMM:OriginalDocumentID>uuid:5D20892493BFDB11914A8590D31508C8</xmpMM:OriginalDocumentID>
         <xmpMM:RenditionClass>proof:pdf</xmpMM:RenditionClass>
         <xmpMM:DerivedFrom rdf:parseType="Resource">
            <stRef:instanceID>xmp.iid:9632bbfa-e7aa-9149-8890-086b45e44cdd</stRef:instanceID>
            <stRef:documentID>xmp.did:9632bbfa-e7aa-9149-8890-086b45e44cdd</stRef:documentID>
            <stRef:originalDocumentID>uuid:5D20892493BFDB11914A8590D31508C8</stRef:originalDocumentID>
            <stRef:renditionClass>proof:pdf</stRef:renditionClass>
         </xmpMM:DerivedFrom>
         <xmpMM:History>
            <rdf:Seq>
               <rdf:li rdf:parseType="Resource">
                  <stEvt:action>saved</stEvt:action>
                  <stEvt:instanceID>xmp.iid:c34fcb8d-e8f1-8b48-96f0-dfe390e32e91</stEvt:instanceID>
                  <stEvt:when>2017-08-14T12:20:04-05:00</stEvt:when>
                  <stEvt:softwareAgent>Adobe Illustrator CC (Windows)</stEvt:softwareAgent>
                  <stEvt:changed>/</stEvt:changed>
               </rdf:li>
               <rdf:li rdf:parseType="Resource">
                  <stEvt:action>saved</stEvt:action>
                  <stEvt:instanceID>xmp.iid:1304ae71-66ba-1246-a7e6-a4755eb2a88b</stEvt:instanceID>
                  <stEvt:when>2017-08-14T13:41:17-05:00</stEvt:when>
                  <stEvt:softwareAgent>Adobe Illustrator CC (Windows)</stEvt:softwareAgent>
                  <stEvt:changed>/</stEvt:changed>
               </rdf:li>
            </rdf:Seq>
         </xmpMM:History>
         <illustrator:StartupProfile>Print</illustrator:StartupProfile>
         <xmpTPg:HasVisibleOverprint>False</xmpTPg:HasVisibleOverprint>
         <xmpTPg:HasVisibleTransparency>False</xmpTPg:HasVisibleTransparency>
         <xmpTPg:NPages>1</xmpTPg:NPages>
         <xmpTPg:MaxPageSize rdf:parseType="Resource">
            <stDim:w>235.279999</stDim:w>
            <stDim:h>45.841980</stDim:h>
            <stDim:unit>Pixels</stDim:unit>
         </xmpTPg:MaxPageSize>
         <xmpTPg:PlateNames>
            <rdf:Seq>
               <rdf:li>Cyan</rdf:li>
               <rdf:li>Magenta</rdf:li>
               <rdf:li>Yellow</rdf:li>
               <rdf:li>Black</rdf:li>
            </rdf:Seq>
         </xmpTPg:PlateNames>
         <xmpTPg:SwatchGroups>
            <rdf:Seq>
               <rdf:li rdf:parseType="Resource">
                  <xmpG:groupName>Grupo de muestras por defecto</xmpG:groupName>
                  <xmpG:groupType>0</xmpG:groupType>
               </rdf:li>
            </rdf:Seq>
         </xmpTPg:SwatchGroups>
         <pdf:Producer>Adobe PDF library 10.01</pdf:Producer>
      </rdf:Description>
   </rdf:RDF>
</x:xmpmeta>
                                                                                                    
                                                                                                    
                                                                                                    
                                                                                                    
                                                                                                    
                                                                                                    
                                                                                                    
                                                                                                    
                                                                                                    
                                                                                                    
                                                                                                    
                                                                                                    
                                                                                                    
                                                                                                    
                                                                                                    
                                                                                                    
                                                                                                    
                                                                                                    
                                                                                                    
                                                                                                    
                           
<?xpacket end="w"?>
	</metadata>
<g>
	<g>
		<polygon fill="#B2B2B2" points="227.4,40.213 117.307,45.842 6.754,40.213 1.125,2.251 235.28,2.251 		"/>
	</g>
	<g>
		
			<linearGradient id="SVGID_1_" gradientUnits="userSpaceOnUse" x1="-244" y1="119.0465" x2="-9.846" y2="119.0465" gradientTransform="matrix(1 0 0 -1 244 140.842)">
			<stop  offset="0" style="stop-color:#783214"/>
			<stop  offset="0.5" style="stop-color:#F16529"/>
			<stop  offset="1" style="stop-color:#783214"/>
		</linearGradient>
		<polygon fill="url(#SVGID_1_)" points="226.274,37.962 116.182,43.591 5.628,37.962 0,0 234.154,0 		"/>
	</g>
</g>
<g>
	<rect x="25.317" y="25.278" fill="#F1F1F1" width="17.833" height="7.833"/>
	<g>
		<path d="M45.069,11.986c-0.001-0.132-0.043-0.263-0.134-0.366l-5.557-6.347c-0.001-0.002-0.003-0.003-0.004-0.004
			c-0.033-0.037-0.071-0.067-0.112-0.094c-0.012-0.008-0.024-0.015-0.037-0.022c-0.035-0.019-0.073-0.035-0.111-0.047
			c-0.011-0.003-0.02-0.007-0.03-0.01c-0.042-0.01-0.085-0.016-0.13-0.016H25.296c-0.624,0-1.13,0.507-1.13,1.13v26.56
			c0,0.624,0.507,1.13,1.13,1.13h18.649c0.623,0,1.13-0.507,1.13-1.13V12.049C45.076,12.028,45.073,12.006,45.069,11.986z
			 M30.09,31.359c0.467,0,0.986-0.101,1.292-0.224l0.233,1.211c-0.285,0.143-0.926,0.295-1.76,0.295c-2.37,0-3.59-1.475-3.59-3.428
			c0-2.34,1.668-3.642,3.743-3.642c0.803,0,1.414,0.163,1.688,0.305l-0.315,1.231c-0.315-0.132-0.752-0.253-1.302-0.253
			c-1.23,0-2.186,0.743-2.186,2.267C27.893,30.495,28.707,31.359,30.09,31.359z M34.312,32.641c-0.783,0-1.557-0.204-1.943-0.418
			l0.315-1.281c0.417,0.213,1.058,0.427,1.719,0.427c0.712,0,1.088-0.294,1.088-0.742c0-0.427-0.325-0.671-1.149-0.966
			c-1.139-0.396-1.882-1.027-1.882-2.023c0-1.17,0.976-2.065,2.594-2.065c0.772,0,1.342,0.163,1.75,0.346l-0.346,1.251
			c-0.275-0.133-0.763-0.326-1.434-0.326s-0.997,0.305-0.997,0.662c0,0.438,0.387,0.63,1.271,0.966
			c1.21,0.447,1.78,1.078,1.78,2.044C37.078,31.665,36.193,32.641,34.312,32.641z M39.805,32.641c-0.783,0-1.557-0.204-1.943-0.418
			l0.315-1.281c0.417,0.213,1.058,0.427,1.718,0.427c0.712,0,1.088-0.294,1.088-0.742c0-0.427-0.325-0.671-1.148-0.966
			c-1.139-0.396-1.882-1.027-1.882-2.023c0-1.17,0.977-2.065,2.595-2.065c0.772,0,1.342,0.163,1.749,0.346L41.95,27.17
			c-0.274-0.133-0.762-0.326-1.434-0.326c-0.671,0-0.997,0.305-0.997,0.662c0,0.438,0.387,0.63,1.272,0.966
			c1.21,0.447,1.78,1.078,1.78,2.044C42.571,31.665,41.687,32.641,39.805,32.641z M43.945,24.27H25.296V6.21h13.092v5.783
			c0,0.312,0.253,0.565,0.565,0.565h4.992V24.27z"/>
		<path d="M30.72,13.193c0,0.346,0.05,0.679,0.1,1.024c0.049,0.344,0.098,0.69,0.098,1.035c0,0.432-0.123,0.913-0.999,0.913v0.629
			c0.876,0,0.999,0.53,0.999,0.913c0,0.334-0.049,0.666-0.098,1c-0.05,0.333-0.1,0.677-0.1,1.011c0,1.245,0.765,1.69,1.789,1.69
			h0.259V20.73h-0.221c-0.691,0-0.975-0.383-0.975-1.074c0-0.296,0.037-0.58,0.086-0.888c0.05-0.296,0.086-0.604,0.086-0.937
			c0.013-0.79-0.333-1.208-0.888-1.345v-0.023c0.556-0.149,0.901-0.544,0.888-1.333c0-0.332-0.037-0.629-0.086-0.936
			c-0.049-0.297-0.086-0.593-0.086-0.876c0-0.666,0.246-1.061,0.975-1.061h0.221v-0.679h-0.259
			C31.461,11.578,30.72,12.059,30.72,13.193z"/>
		<path d="M37.853,15.253c0-0.345,0.05-0.691,0.1-1.035c0.049-0.345,0.099-0.678,0.099-1.024c0-1.135-0.753-1.616-1.802-1.616
			h-0.246v0.679h0.222c0.716,0.012,0.975,0.394,0.975,1.061c0,0.283-0.049,0.579-0.086,0.876c-0.05,0.308-0.1,0.604-0.1,0.936
			c0,0.79,0.346,1.184,0.889,1.333v0.023c-0.543,0.136-0.889,0.555-0.889,1.345c0,0.333,0.049,0.642,0.1,0.937
			c0.037,0.309,0.086,0.593,0.086,0.888c0,0.691-0.296,1.061-0.986,1.074h-0.21v0.679h0.259c1.012,0,1.789-0.445,1.789-1.69
			c0-0.333-0.049-0.678-0.099-1.011c-0.049-0.334-0.099-0.666-0.099-1c0-0.383,0.124-0.913,1-0.913v-0.629
			C37.976,16.166,37.853,15.685,37.853,15.253z"/>
	</g>
</g>
<g>
	<path d="M110.588,22.985l1.69,0.427c-0.354,1.388-0.992,2.447-1.913,3.176c-0.92,0.729-2.046,1.093-3.376,1.093
		c-1.377,0-2.497-0.28-3.359-0.841c-0.863-0.561-1.519-1.372-1.969-2.435c-0.45-1.063-0.675-2.205-0.675-3.424
		c0-1.33,0.254-2.49,0.762-3.481c0.508-0.99,1.231-1.743,2.17-2.257c0.938-0.514,1.97-0.771,3.097-0.771
		c1.278,0,2.353,0.326,3.224,0.976c0.871,0.65,1.478,1.565,1.821,2.745l-1.664,0.392c-0.296-0.929-0.726-1.606-1.29-2.03
		c-0.563-0.424-1.272-0.636-2.126-0.636c-0.982,0-1.802,0.235-2.461,0.706c-0.659,0.47-1.123,1.102-1.39,1.895
		c-0.268,0.793-0.401,1.61-0.401,2.453c0,1.086,0.158,2.035,0.475,2.844c0.317,0.811,0.809,1.416,1.477,1.817
		c0.668,0.4,1.391,0.601,2.169,0.601c0.947,0,1.749-0.272,2.405-0.818S110.356,24.06,110.588,22.985z"/>
	<path d="M113.786,23.359l1.594-0.139c0.076,0.639,0.251,1.163,0.527,1.573c0.276,0.409,0.704,0.74,1.285,0.993
		c0.581,0.252,1.234,0.379,1.96,0.379c0.645,0,1.214-0.096,1.708-0.288c0.493-0.191,0.861-0.454,1.102-0.788
		c0.241-0.334,0.362-0.698,0.362-1.094c0-0.4-0.116-0.75-0.349-1.049s-0.616-0.55-1.15-0.754c-0.343-0.133-1.101-0.341-2.274-0.623
		c-1.173-0.281-1.995-0.547-2.465-0.797c-0.61-0.319-1.065-0.716-1.364-1.189c-0.299-0.474-0.449-1.003-0.449-1.59
		c0-0.645,0.183-1.247,0.549-1.808c0.366-0.561,0.9-0.986,1.603-1.277c0.703-0.29,1.484-0.436,2.345-0.436
		c0.946,0,1.781,0.153,2.505,0.458c0.723,0.305,1.279,0.754,1.668,1.346c0.39,0.592,0.599,1.263,0.628,2.013l-1.621,0.122
		c-0.087-0.808-0.382-1.417-0.884-1.83c-0.503-0.413-1.245-0.619-2.227-0.619c-1.023,0-1.768,0.187-2.235,0.562
		c-0.467,0.375-0.701,0.826-0.701,1.354c0,0.459,0.166,0.836,0.497,1.133c0.325,0.296,1.175,0.6,2.548,0.911
		c1.374,0.311,2.316,0.583,2.828,0.814c0.743,0.343,1.292,0.777,1.646,1.303s0.531,1.131,0.531,1.816c0,0.68-0.194,1.32-0.584,1.922
		c-0.389,0.601-0.948,1.068-1.677,1.402c-0.729,0.334-1.55,0.501-2.462,0.501c-1.156,0-2.125-0.168-2.906-0.505
		s-1.394-0.844-1.838-1.521S113.809,24.213,113.786,23.359z"/>
	<path d="M125.689,23.359l1.594-0.139c0.076,0.639,0.252,1.163,0.527,1.573c0.276,0.409,0.704,0.74,1.285,0.993
		c0.581,0.252,1.234,0.379,1.961,0.379c0.645,0,1.214-0.096,1.707-0.288c0.494-0.191,0.861-0.454,1.103-0.788
		s0.361-0.698,0.361-1.094c0-0.4-0.116-0.75-0.349-1.049s-0.615-0.55-1.149-0.754c-0.343-0.133-1.102-0.341-2.274-0.623
		c-1.174-0.281-1.995-0.547-2.466-0.797c-0.61-0.319-1.064-0.716-1.363-1.189c-0.3-0.474-0.449-1.003-0.449-1.59
		c0-0.645,0.184-1.247,0.549-1.808c0.366-0.561,0.9-0.986,1.604-1.277c0.703-0.29,1.484-0.436,2.344-0.436
		c0.946,0,1.782,0.153,2.505,0.458c0.724,0.305,1.279,0.754,1.669,1.346c0.389,0.592,0.598,1.263,0.627,2.013l-1.62,0.122
		c-0.088-0.808-0.383-1.417-0.885-1.83c-0.503-0.413-1.244-0.619-2.227-0.619c-1.022,0-1.767,0.187-2.234,0.562
		c-0.468,0.375-0.701,0.826-0.701,1.354c0,0.459,0.165,0.836,0.496,1.133c0.325,0.296,1.175,0.6,2.549,0.911
		s2.316,0.583,2.827,0.814c0.743,0.343,1.293,0.777,1.646,1.303c0.354,0.526,0.532,1.131,0.532,1.816c0,0.68-0.195,1.32-0.584,1.922
		c-0.39,0.601-0.948,1.068-1.678,1.402c-0.729,0.334-1.549,0.501-2.461,0.501c-1.156,0-2.125-0.168-2.906-0.505
		s-1.394-0.844-1.838-1.521S125.711,24.213,125.689,23.359z"/>
</g>
</svg>
