<?xml version="1.0" encoding="utf-8"?>
<!-- Generator: Adobe Illustrator 17.0.0, SVG Export Plug-In . SVG Version: 6.00 Build 0)  -->
<!DOCTYPE svg PUBLIC "-//W3C//DTD SVG 1.1//EN" "http://www.w3.org/Graphics/SVG/1.1/DTD/svg11.dtd" [
	<!ENTITY ns_extend "http://ns.adobe.com/Extensibility/1.0/">
	<!ENTITY ns_ai "http://ns.adobe.com/AdobeIllustrator/10.0/">
	<!ENTITY ns_graphs "http://ns.adobe.com/Graphs/1.0/">
	<!ENTITY ns_vars "http://ns.adobe.com/Variables/1.0/">
	<!ENTITY ns_imrep "http://ns.adobe.com/ImageReplacement/1.0/">
	<!ENTITY ns_sfw "http://ns.adobe.com/SaveForWeb/1.0/">
	<!ENTITY ns_custom "http://ns.adobe.com/GenericCustomNamespace/1.0/">
	<!ENTITY ns_adobe_xpath "http://ns.adobe.com/XPath/1.0/">
]>
<svg version="1.1" id="Capa_1" xmlns:x="&ns_extend;" xmlns:i="&ns_ai;" xmlns:graph="&ns_graphs;"
	 xmlns="http://www.w3.org/2000/svg" xmlns:xlink="http://www.w3.org/1999/xlink" x="0px" y="0px" width="235.28px"
	 height="45.843px" viewBox="0 0 235.28 45.843" enable-background="new 0 0 235.28 45.843" xml:space="preserve">
<metadata><?xpacket begin="﻿" id="W5M0MpCehiHzreSzNTczkc9d"?>
<x:xmpmeta xmlns:x="adobe:ns:meta/" x:xmptk="Adobe XMP Core 5.5-c014 79.151739, 2013/04/03-12:12:15        ">
   <rdf:RDF xmlns:rdf="http://www.w3.org/1999/02/22-rdf-syntax-ns#">
      <rdf:Description rdf:about=""
            xmlns:dc="http://purl.org/dc/elements/1.1/"
            xmlns:xmp="http://ns.adobe.com/xap/1.0/"
            xmlns:xmpGImg="http://ns.adobe.com/xap/1.0/g/img/"
            xmlns:xmpMM="http://ns.adobe.com/xap/1.0/mm/"
            xmlns:stRef="http://ns.adobe.com/xap/1.0/sType/ResourceRef#"
            xmlns:stEvt="http://ns.adobe.com/xap/1.0/sType/ResourceEvent#"
            xmlns:illustrator="http://ns.adobe.com/illustrator/1.0/"
            xmlns:xmpTPg="http://ns.adobe.com/xap/1.0/t/pg/"
            xmlns:stDim="http://ns.adobe.com/xap/1.0/sType/Dimensions#"
            xmlns:xmpG="http://ns.adobe.com/xap/1.0/g/"
            xmlns:pdf="http://ns.adobe.com/pdf/1.3/">
         <dc:format>image/svg+xml</dc:format>
         <dc:title>
            <rdf:Alt>
               <rdf:li xml:lang="x-default">Imprimir</rdf:li>
            </rdf:Alt>
         </dc:title>
         <xmp:MetadataDate>2017-08-14T13:41:17-05:00</xmp:MetadataDate>
         <xmp:ModifyDate>2017-08-14T13:41:17-05:00</xmp:ModifyDate>
         <xmp:CreateDate>2017-08-14T13:41:16-05:00</xmp:CreateDate>
         <xmp:CreatorTool>Adobe Illustrator CC (Windows)</xmp:CreatorTool>
         <xmp:Thumbnails>
            <rdf:Alt>
               <rdf:li rdf:parseType="Resource">
                  <xmpGImg:width>256</xmpGImg:width>
                  <xmpGImg:height>52</xmpGImg:height>
                  <xmpGImg:format>JPEG</xmpGImg:format>
                  <xmpGImg:image>/9j/4AAQSkZJRgABAgEASABIAAD/7QAsUGhvdG9zaG9wIDMuMAA4QklNA+0AAAAAABAASAAAAAEA&#xA;AQBIAAAAAQAB/+4ADkFkb2JlAGTAAAAAAf/bAIQABgQEBAUEBgUFBgkGBQYJCwgGBggLDAoKCwoK&#xA;DBAMDAwMDAwQDA4PEA8ODBMTFBQTExwbGxscHx8fHx8fHx8fHwEHBwcNDA0YEBAYGhURFRofHx8f&#xA;Hx8fHx8fHx8fHx8fHx8fHx8fHx8fHx8fHx8fHx8fHx8fHx8fHx8fHx8fHx8f/8AAEQgANAEAAwER&#xA;AAIRAQMRAf/EAaIAAAAHAQEBAQEAAAAAAAAAAAQFAwIGAQAHCAkKCwEAAgIDAQEBAQEAAAAAAAAA&#xA;AQACAwQFBgcICQoLEAACAQMDAgQCBgcDBAIGAnMBAgMRBAAFIRIxQVEGE2EicYEUMpGhBxWxQiPB&#xA;UtHhMxZi8CRygvElQzRTkqKyY3PCNUQnk6OzNhdUZHTD0uIIJoMJChgZhJRFRqS0VtNVKBry4/PE&#xA;1OT0ZXWFlaW1xdXl9WZ2hpamtsbW5vY3R1dnd4eXp7fH1+f3OEhYaHiImKi4yNjo+Ck5SVlpeYmZ&#xA;qbnJ2en5KjpKWmp6ipqqusra6voRAAICAQIDBQUEBQYECAMDbQEAAhEDBCESMUEFURNhIgZxgZEy&#xA;obHwFMHR4SNCFVJicvEzJDRDghaSUyWiY7LCB3PSNeJEgxdUkwgJChgZJjZFGidkdFU38qOzwygp&#xA;0+PzhJSktMTU5PRldYWVpbXF1eX1RlZmdoaWprbG1ub2R1dnd4eXp7fH1+f3OEhYaHiImKi4yNjo&#xA;+DlJWWl5iZmpucnZ6fkqOkpaanqKmqq6ytrq+v/aAAwDAQACEQMRAD8A55rennTdd1HTiKGzuprc&#xA;jw9KQp/DFVBMVRCYqgzrcn1iaK1sJ7oQP6ckkZjChwAxX42U7Bhiqqmtaj/1Zrr/AIKH/qpiqK0T&#xA;zDZ6nNcWyo1veWrcZraXjzFNqjiWBFdsVT1MVRCYqiExVEJiqITFUQmKohMVRCYqiExVEJirUnfF&#xA;UPJ3xVDviqHfFUO+Kod8VQ74qh3xVDviqHfFUO+KoWV0UqrMAW2UE7k9dsVUXxVDviqHfFUd5Vm1&#xA;GHzPpUmmMqagLqIWjsocCVnCoeLVBoxyrNIiO3Nv08BKW/Lmn/5xaf8AUPzO1+GlBJcC4Hv9YjWY&#xA;/i+WtDE0xVEJiqC8v/32q/8AMc//ACbjxVB+aLvU471FtZzEkUPqABnX4yJG5HiRyoIejVHtiqTy&#xA;+W/NUWqya/ZNGpJNyHD0qrDkylfDsRir0jSbtrzTbS7ZQjXMMcpQbgF1DU/HFUxTFUQmKohMVRCY&#xA;qiExVEJiqITFUQmKohMVak74qh5O+Kod8VQ74qh3xVDviqHfFUO+Kod8VQ74qh3xVH+TfLeleZPO&#xA;+kaNqsZks7kXYYoeLoy2krJJGw+y6MAQcVUfOnk7WfJ+s/ozVP30E3JtN1JV4x3Ma9duiSoPtp9I&#xA;2xVjz4qh3xVmn5JaR+kvzM0dStY7V3u5D4eghdD/AMjAuUZd5RHx+Tk4doTl5V80+/5yU0/6t+YM&#xA;N0o+G9sYpGbb7aO8ZH/AouXuM8uTFUQmKoLy/wD32q/8xz/8m48VS/zaLtL2ExQGVbmMQxkE7y0k&#xA;UJsDuRNXeg2OKsoeJotFkib7UdsVanSojpiqp5Z/5R7S/wDmEg/5NLiqcpiqITFWHefn0ldd8uLr&#xA;DlNLb679Z+KRRtGnCpiIb7dOmKo7y2PIEctzfeXz695ZwPI49W5PwUO1JSV3p4YqiNK896vdaVJr&#xA;Enl+ZNN9IPatFKs0s0vMJwWJVDAcifiPYVxVMLHzfrMeuWGl63ow0/8ASfqfVJo7lLgco15FHVVW&#xA;m3f+3FUG/wCZerfVtQvrfy802m6TcSW99c/WUU0jbiTGhSrUFGPh098VTTT/AD7qMmp6ZHe6JJZ6&#xA;ZrTlNMvDMjyGq80MsKj4Oa7/AGtsVbl/MPWp5L+40Ly+2p6PpUrw3V4bhImdov7z0IyGLcBv74qm&#xA;GmefrDU9Xt7SKHhZXunfpO0vWf7QV+EsTJx+Fo+/xHFUlsvzVtb3yjf6+lgVltLhbaKwMvxytIU9&#xA;IhuG3Pn/ACnpiqpe+dNcn1C7s9B0M6l+jSE1CZrhYUE1KtDEWWrsPGn0Yqgrv8yYzpel3thpsl3P&#xA;qU72gsy4ikjuEFODEqw+1TfsN/bFUok8xvY+dBqOvQ/oxl0ImWyEgmPqfXSqqhWgZnA2piqZX/nH&#xA;UbTTrCW40r0dQ1OUx2llJOFCrSoaaRkUIf8AJofvxVF6Nq2o3r3MGoabJp9xbFRWvqQyBxUNFKFU&#xA;NTuO2Ko58VQ74qh3xVDvirIvyn/8ml5f+d5/1By4q+ifNXlnRPMuiXGlazEJLOQcudeLxOu6yxv+&#xA;w6dQ38K4q+PryO3g1C9tbS8XUrK1neK11ONSqXMa9JFU/dUfCaVUlSDiqFfFXtH/ADi7pPq67rOr&#xA;Mvw2tslsjH+a4fmafRB+OUDfIfIOVLbCB/Olfy2TD/nKXT/+Ue1BRv8A6TbyH/kW6f8AG2XuK8IT&#xA;FUQmKsGk1jXIfNE+labMkRvLxUX1FBUSS8YwSaMadMVejv8All+bC6q+lwa1pc97BcRW91Gsd1GI&#xA;hM0iesTPaRBoVaBuTx8h0pXFWF+dZvP/AJVkgsNZu7f6xexTM1tEgLxpFcS2h9Ssagc2gYrQn4aV&#xA;odsVZr5Z/wCUe0v/AJhIP+TS4qnKYqiExVJ9W069n82eXb2GIva2f1z6zLUUT1YQqVBNdz4Yqn99&#xA;E8unXUUY5SSRSKi+JKkAYqxeTRvMsf5Z2um2SyQ6nFHGJ4I3CSsgf94iODQEr/TFUBpvlq5XzPom&#xA;pad5dn0+ytZWF5PdTCS4cyIV5MpkkIRPxr0xVOrHy9rKeSfNGntbMLy/ub6S0hqtXWanpkGtPi98&#xA;VTW50TVJLXyYiW5LabPA98Kr+7VLZkYnfejGm2KsP/wI2lyalZXPk5tduJJpZNK1OObjGySGsazj&#xA;1E4cD1/zOKpz5r8l+Y18p6GNHtIY9ZsEntZ7W1ZhCsN9EyTBDK7MeBIpVuu4xVTl8galbedtPitY&#xA;/wDnWVWzurt6in1nToXhhXjWvxfCTtv9GKq8A8yeV9X1qK20WTVrDVbuS/tJ4JI0KyzAc45ee6jk&#xA;PtYql9n5R121/QEs8Qe5/Sk+o6kI2BSH11+zUn4qbDbFVbzP5LGv+cGmvIW/R40n0YLtWp6d2J2K&#xA;kAGpKqxO4piqCvofM93oNnb6xosepm0maLUYmIMsyKKR3Fu4daH+bufYYqqeSdJ1Gxu79/q89ho0&#xA;gQWVhcy+o6sB8bAAtxHtXFWTviqHfFUO+Kod8VZF+VLKv5oaAzEKq/XCSdgALOXFUz/Nr82X8ztN&#xA;oHl+Yp5aUlL6+Q0N+RsY4yP+PbxP+7P9T7arzFgAAAKAbADFVB8VfTn/ADjbpH1TyHLfMPj1G7kd&#xA;T/xXEBEB/wAGr5Rg3s95crU7cMe6I+3dv/nJTT/rHkCG5A+KyvoZC3gro8Z/4Z1y9xXzGmKohMVY&#xA;nd+VNcHmT9L2Rgb050uYVlZgOSEMAwA6VHY4qyO31j804tY8zaqlxaNP5ptruzvY3knaOGK9kMjf&#xA;VQW5RmMkiOpNAe53xVLPPGl+f/O+vtrmtSWf11oYbekTOqBYUCAgMHNWNWbfqT06YqzPSbRrPTbS&#xA;0Zg7W0McRcbAlFC1/DFUxTFUQmKohMVRCYqiExVEJiqITFUQmKohMVak74qh5O+Kod8VQ74qh3xV&#xA;DviqHfFUO+Kod8VQ74qh3xVL720+sNGTLJGE5h1jYr6iSIUeNyNyjK1GHcbHbFWmAAAAoBsAMVUH&#xA;xVDv1yM5VElnjhxSA7y+0Py20kaT5C0KypxZbOOSRfCSYerJ/wAO5yGGNQAbNTPiySPmj/NXl2z8&#xA;x+Xr/RbugivYmjEhXl6cnWOQCq1KOAw37ZZIWGqJAIJ3eLyf84tzrT0fMiP/ADc7Mp91JmzG8HJ/&#xA;P+xzPzGE88f2oaT/AJxl8wKG9HWbRzX4ecciVHvTnTB4eb+cPknxdP8AzD81B/8AnG/zqrfu9Q01&#xA;1p1Z51NfkIW/Xjw5++K8Wl7p/YoP+QP5gxgFRZyV6hZjt/wSrgvP3RTw6U9Zj5KL/kn+ZEfLjp8U&#xA;tOnC4hFflyZfxx8TP/NHzT4WlP8AHL5KTflN+Y8RAfRGNd/hmt2/FZDg8bMP4PtT+W055ZP9iVJv&#xA;y+89xCr6FddafCvI/wDC1x/M5P8AUyn8lhPLLH5ftWN5T83xE+poOoALuzC2lIpSvULTB+ckOcJf&#xA;Jf5OieWWHzUzpWtRUEumXcZPTlBIP1jH8/HrGXyT/JUjynA/H9i0mSIEyxSRhTQlkIofpwfyjj63&#xA;8k/yPmPLhPxVI7uD+b8DhHaWHv8AsKD2Nqf5v2hER3Vv/P8AgckO0MP8772B7J1I/g+0frRMdzB/&#xA;vwZIa3D/ADg1ns3UD+CSJjngNP3i/eMmNViP8UfmGB0Wcc4S/wBKUTHLGejj7xkxmgf4h82s6fIO&#xA;cZfIukliFauv3jAdRjHOQ+YZDS5TyhL5FDSXEH+/F+8ZA6vF/Oj82wdn6g/wS+RQslzB/OMgddhH&#xA;8QZjsvUn+AoeS6g/m/A5E9o4P532H9TYOx9Sf4PtH60M91D4n7sge08Pf9jMdi6juHzWhZ5aelBL&#xA;Jy+zwQmvypj/AClj6CR+C/yNlHMxHxXDSNclBMWl3jgbErBId/oGH8+DyjL5L/JRHOcPmqDyf5yk&#xA;ai6DqFaV+K2lUfeyjH85P/U5I/k7GOeWH4+K9fy68+y04aHcjl05AJ9/Iin04fzOU8sZ+aPyWAc8&#xA;o+X7VRfyk/MiWvHRWFOvKe3X/iUgx8bOf4PtR+X0w55PsKsn5IfmNIQGsoY6itWuIqD2+Fmw8eo/&#xA;mx/HxR4ekH8Uvx8FZP8AnH7z9IAWayiqaEPM23ueKNh/wg/zUf4IP55RCf8AON3nJq+rqOnJ/Lxe&#xA;dv1xLjw5++KOPS/zZfj4oiP/AJxk1tivra1bICPi4RSPQ07VKVw+Hm/nfYvjaccoH5oq3/5xdPJW&#xA;uPMQoGBaNLQmq9xyMwpX5YnTzOxl9ijV44m4w3973hVVVCqAqqKADYADMt17eKuxV2KuxV2KuxV2&#xA;KuxV2KuxV2Koe4/R3I/WPR5U39TjWn05GXD1Zx4ulpZP/gmg9f8ARtP2efoUr7VymXg9eH7HJj+Y&#xA;6cf2pdP/AMqr+P1f0Ly/bp9V51+j4spl+V68H2ORD8908X/ZIGb/AJU/yHL9HVpt6fT/AITbKZfk&#xA;/wCi5Ef5R6caXy/8qU4jl6dK/sfW6/8ACb5jy/I/jicuP8qdL/2H6V0P/KlqLx9KldvU+tePfn/H&#xA;DH8j0r/ZIn/KnW/9j+hHw/8AKofi4/o7tX1Kfhz/AIZfH8n/AEXFn/KPXj/HuTC3/wCVYVX0f0Ly&#xA;p8NPqvKlP+Cy6P5bpwfY40/zvXxf9kmEH+DeP7j9Hca/sehSv0ZdHwenD9jjy/MdeP7Uzg+pVP1f&#xA;0+X7Xp8a096ZcK6OPLi62rZJg7FXYq7FXYq7FXYq7FXYq7FXYq//2Q==</xmpGImg:image>
               </rdf:li>
            </rdf:Alt>
         </xmp:Thumbnails>
         <xmpMM:InstanceID>xmp.iid:1304ae71-66ba-1246-a7e6-a4755eb2a88b</xmpMM:InstanceID>
         <xmpMM:DocumentID>xmp.did:1304ae71-66ba-1246-a7e6-a4755eb2a88b</xmpMM:DocumentID>
         <xmpMM:OriginalDocumentID>uuid:5D20892493BFDB11914A8590D31508C8</xmpMM:OriginalDocumentID>
         <xmpMM:RenditionClass>proof:pdf</xmpMM:RenditionClass>
         <xmpMM:DerivedFrom rdf:parseType="Resource">
            <stRef:instanceID>xmp.iid:9632bbfa-e7aa-9149-8890-086b45e44cdd</stRef:instanceID>
            <stRef:documentID>xmp.did:9632bbfa-e7aa-9149-8890-086b45e44cdd</stRef:documentID>
            <stRef:originalDocumentID>uuid:5D20892493BFDB11914A8590D31508C8</stRef:originalDocumentID>
            <stRef:renditionClass>proof:pdf</stRef:renditionClass>
         </xmpMM:DerivedFrom>
         <xmpMM:History>
            <rdf:Seq>
               <rdf:li rdf:parseType="Resource">
                  <stEvt:action>saved</stEvt:action>
                  <stEvt:instanceID>xmp.iid:c34fcb8d-e8f1-8b48-96f0-dfe390e32e91</stEvt:instanceID>
                  <stEvt:when>2017-08-14T12:20:04-05:00</stEvt:when>
                  <stEvt:softwareAgent>Adobe Illustrator CC (Windows)</stEvt:softwareAgent>
                  <stEvt:changed>/</stEvt:changed>
               </rdf:li>
               <rdf:li rdf:parseType="Resource">
                  <stEvt:action>saved</stEvt:action>
                  <stEvt:instanceID>xmp.iid:1304ae71-66ba-1246-a7e6-a4755eb2a88b</stEvt:instanceID>
                  <stEvt:when>2017-08-14T13:41:17-05:00</stEvt:when>
                  <stEvt:softwareAgent>Adobe Illustrator CC (Windows)</stEvt:softwareAgent>
                  <stEvt:changed>/</stEvt:changed>
               </rdf:li>
            </rdf:Seq>
         </xmpMM:History>
         <illustrator:StartupProfile>Print</illustrator:StartupProfile>
         <xmpTPg:HasVisibleOverprint>False</xmpTPg:HasVisibleOverprint>
         <xmpTPg:HasVisibleTransparency>False</xmpTPg:HasVisibleTransparency>
         <xmpTPg:NPages>1</xmpTPg:NPages>
         <xmpTPg:MaxPageSize rdf:parseType="Resource">
            <stDim:w>235.279999</stDim:w>
            <stDim:h>45.843018</stDim:h>
            <stDim:unit>Pixels</stDim:unit>
         </xmpTPg:MaxPageSize>
         <xmpTPg:PlateNames>
            <rdf:Seq>
               <rdf:li>Cyan</rdf:li>
               <rdf:li>Magenta</rdf:li>
               <rdf:li>Yellow</rdf:li>
               <rdf:li>Black</rdf:li>
            </rdf:Seq>
         </xmpTPg:PlateNames>
         <xmpTPg:SwatchGroups>
            <rdf:Seq>
               <rdf:li rdf:parseType="Resource">
                  <xmpG:groupName>Grupo de muestras por defecto</xmpG:groupName>
                  <xmpG:groupType>0</xmpG:groupType>
               </rdf:li>
            </rdf:Seq>
         </xmpTPg:SwatchGroups>
         <pdf:Producer>Adobe PDF library 10.01</pdf:Producer>
      </rdf:Description>
   </rdf:RDF>
</x:xmpmeta>
                                                                                                    
                                                                                                    
                                                                                                    
                                                                                                    
                                                                                                    
                                                                                                    
                                                                                                    
                                                                                                    
                                                                                                    
                                                                                                    
                                                                                                    
                                                                                                    
                                                                                                    
                                                                                                    
                                                                                                    
                                                                                                    
                                                                                                    
                                                                                                    
                                                                                                    
                                                                                                    
                           
<?xpacket end="w"?>
	</metadata>
<g>
	<g>
		<g>
			
				<linearGradient id="SVGID_1_" gradientUnits="userSpaceOnUse" x1="1.125" y1="589.2045" x2="235.28" y2="589.2045" gradientTransform="matrix(1 0 0 1 0 -565.157)">
				<stop  offset="0" style="stop-color:#783214"/>
				<stop  offset="0.5" style="stop-color:#F16529"/>
				<stop  offset="1" style="stop-color:#783214"/>
			</linearGradient>
			<polygon fill="url(#SVGID_1_)" points="227.4,40.214 117.307,45.843 6.754,40.214 1.125,2.252 235.28,2.252 			"/>
		</g>
		<g>
			
				<linearGradient id="SVGID_2_" gradientUnits="userSpaceOnUse" x1="0" y1="25.048" x2="234.154" y2="25.048" gradientTransform="matrix(1 0 0 -1 0 46.843)">
				<stop  offset="0" style="stop-color:#404040"/>
				<stop  offset="0.5" style="stop-color:#9F9F9F"/>
				<stop  offset="0.9947" style="stop-color:#404040"/>
			</linearGradient>
			<polygon fill="url(#SVGID_2_)" points="226.274,37.963 116.182,43.59 5.628,37.963 0,0 234.154,0 			"/>
		</g>
	</g>
	<g>
		<g>
			<path d="M44.939,11.616c-0.001-0.136-0.045-0.269-0.138-0.375L39.1,4.728c-0.001-0.001-0.003-0.003-0.004-0.005
				c-0.035-0.037-0.073-0.068-0.116-0.096c-0.012-0.008-0.025-0.016-0.038-0.023c-0.036-0.019-0.074-0.035-0.114-0.047
				c-0.01-0.004-0.02-0.008-0.031-0.011c-0.043-0.011-0.088-0.017-0.133-0.017H24.652c-0.639,0-1.16,0.52-1.16,1.16v27.25
				c0,0.64,0.521,1.16,1.16,1.16h19.133c0.64,0,1.16-0.521,1.16-1.16v-21.26C44.945,11.659,44.941,11.638,44.939,11.616z
				 M24.652,5.69h13.432v5.932c0,0.32,0.259,0.58,0.58,0.58h5.122v12.017H24.652V5.69z"/>
			<path d="M37.038,10.007c0-0.886-0.72-1.609-1.609-1.609h-1.401c-0.885,0-1.609,0.72-1.609,1.609v0.963
				c0,0.025,0.004,0.05,0.009,0.07c-0.004,0.024-0.009,0.046-0.009,0.07v7.988c0,0.091,0.029,0.178,0.083,0.248l1.898,2.493
				C34.479,21.943,34.598,22,34.727,22c0.128,0,0.248-0.058,0.327-0.161l1.898-2.493c0.054-0.07,0.083-0.157,0.083-0.248v-8.001
				c0-0.02-0.004-0.045-0.008-0.065c0.004-0.021,0.008-0.042,0.008-0.066v-0.959C37.035,10.007,37.038,10.007,37.038,10.007z
				 M33.242,11.379h1.079v7.253h-1.079V11.379z M34.73,20.918l-1.12-1.472h2.241L34.73,20.918z M36.219,18.632H35.14v-7.253h1.079
				C36.219,11.379,36.219,18.632,36.219,18.632z M36.219,10.56h-2.977v-0.554c0-0.434,0.355-0.79,0.789-0.79h1.402
				c0.434,0,0.79,0.356,0.79,0.79v0.554H36.219z"/>
		</g>
	</g>
	<polygon fill="#F1F1F1" stroke="#000000" stroke-linecap="round" stroke-linejoin="round" stroke-miterlimit="10" points="
		203.317,32.042 215.832,19.527 203.317,7.011 	"/>
	<g>
		<path d="M69.878,27.763V14.989h8.617v1.507h-6.927v3.956h5.994v1.508h-5.994v5.803C71.568,27.763,69.878,27.763,69.878,27.763z"/>
		<path d="M80.473,27.763v-9.254h1.411v1.403c0.361-0.656,0.693-1.089,0.998-1.298c0.305-0.21,0.641-0.314,1.006-0.314
			c0.529,0,1.066,0.169,1.612,0.506l-0.54,1.455c-0.383-0.227-0.767-0.34-1.15-0.34c-0.342,0-0.65,0.104-0.924,0.31
			c-0.272,0.206-0.467,0.492-0.583,0.857c-0.175,0.558-0.262,1.168-0.262,1.83v4.845H80.473z"/>
		<path d="M92.471,26.621c-0.581,0.494-1.14,0.842-1.677,1.046c-0.537,0.203-1.114,0.305-1.73,0.305
			c-1.016,0-1.797-0.248-2.344-0.745c-0.546-0.497-0.818-1.131-0.818-1.903c0-0.453,0.104-0.867,0.309-1.242
			c0.207-0.374,0.477-0.675,0.811-0.901s0.711-0.398,1.129-0.515c0.308-0.081,0.771-0.159,1.394-0.235
			c1.267-0.15,2.198-0.331,2.797-0.54c0.006-0.215,0.009-0.352,0.009-0.409c0-0.639-0.148-1.089-0.444-1.351
			c-0.401-0.354-0.996-0.531-1.786-0.531c-0.738,0-1.282,0.129-1.634,0.388s-0.611,0.716-0.78,1.372l-1.533-0.209
			c0.14-0.656,0.369-1.187,0.688-1.59c0.319-0.404,0.781-0.715,1.386-0.933c0.604-0.218,1.304-0.327,2.1-0.327
			c0.79,0,1.432,0.094,1.926,0.279s0.856,0.42,1.089,0.701c0.232,0.282,0.396,0.638,0.487,1.067
			c0.053,0.268,0.079,0.749,0.079,1.446v2.091c0,1.458,0.033,2.381,0.101,2.767c0.066,0.387,0.199,0.757,0.396,1.111h-1.639
			C92.622,27.438,92.517,27.057,92.471,26.621z M92.34,23.118c-0.569,0.232-1.423,0.431-2.562,0.593
			c-0.645,0.093-1.101,0.197-1.367,0.313c-0.268,0.116-0.475,0.286-0.619,0.51c-0.146,0.224-0.218,0.472-0.218,0.745
			c0,0.418,0.158,0.767,0.475,1.046c0.316,0.278,0.78,0.418,1.39,0.418c0.604,0,1.142-0.132,1.611-0.396
			c0.471-0.265,0.816-0.626,1.037-1.085c0.169-0.354,0.253-0.877,0.253-1.568V23.118z"/>
		<path d="M96.357,27.763v-9.254h1.402v1.299c0.291-0.453,0.678-0.817,1.159-1.094c0.481-0.275,1.031-0.414,1.647-0.414
			c0.685,0,1.246,0.143,1.686,0.428c0.438,0.284,0.748,0.683,0.928,1.193c0.732-1.08,1.685-1.621,2.857-1.621
			c0.918,0,1.624,0.255,2.117,0.763c0.494,0.509,0.741,1.291,0.741,2.349v6.352h-1.56v-5.829c0-0.628-0.051-1.079-0.152-1.355
			c-0.102-0.275-0.287-0.497-0.554-0.666s-0.581-0.253-0.94-0.253c-0.65,0-1.191,0.217-1.621,0.649s-0.645,1.125-0.645,2.078v5.376
			h-1.568V21.75c0-0.696-0.128-1.22-0.383-1.567c-0.256-0.349-0.675-0.523-1.256-0.523c-0.441,0-0.85,0.116-1.224,0.349
			s-0.646,0.572-0.815,1.02c-0.168,0.447-0.252,1.092-0.252,1.935v4.801h-1.567C96.357,27.765,96.357,27.763,96.357,27.763z"/>
		<path d="M117.556,24.782l1.621,0.201c-0.256,0.946-0.729,1.682-1.421,2.204s-1.574,0.784-2.649,0.784
			c-1.354,0-2.426-0.417-3.219-1.25c-0.793-0.834-1.189-2.003-1.189-3.508c0-1.557,0.4-2.765,1.203-3.624
			c0.801-0.859,1.841-1.29,3.119-1.29c1.236,0,2.248,0.422,3.031,1.264c0.785,0.843,1.177,2.027,1.177,3.555
			c0,0.093-0.003,0.232-0.009,0.419h-6.9c0.058,1.016,0.346,1.794,0.862,2.335c0.517,0.54,1.161,0.81,1.935,0.81
			c0.574,0,1.065-0.15,1.473-0.453C116.996,25.927,117.318,25.445,117.556,24.782z M112.407,22.247h5.167
			c-0.07-0.778-0.268-1.362-0.593-1.751c-0.499-0.604-1.147-0.906-1.942-0.906c-0.721,0-1.326,0.241-1.817,0.723
			C112.73,20.795,112.458,21.44,112.407,22.247z"/>
		<path d="M122.853,27.763l-2.832-9.254h1.621l1.473,5.342l0.549,1.986c0.023-0.099,0.184-0.734,0.479-1.908l1.473-5.42h1.612
			l1.386,5.367l0.461,1.77l0.532-1.786l1.585-5.351h1.525l-2.893,9.254h-1.629l-1.473-5.542l-0.357-1.577l-1.873,7.119
			C124.492,27.763,122.853,27.763,122.853,27.763z"/>
		<path d="M133.449,23.136c0-1.713,0.477-2.982,1.429-3.808c0.796-0.686,1.766-1.028,2.91-1.028c1.272,0,2.312,0.417,3.119,1.251
			c0.808,0.833,1.211,1.985,1.211,3.454c0,1.191-0.179,2.128-0.536,2.811s-0.877,1.212-1.559,1.59
			c-0.684,0.378-1.428,0.566-2.235,0.566c-1.296,0-2.343-0.415-3.142-1.246S133.449,24.698,133.449,23.136z M135.06,23.136
			c0,1.186,0.259,2.072,0.775,2.662c0.518,0.59,1.168,0.884,1.952,0.884c0.778,0,1.426-0.296,1.942-0.889
			c0.518-0.592,0.775-1.495,0.775-2.709c0-1.145-0.26-2.012-0.779-2.602c-0.52-0.589-1.166-0.884-1.938-0.884
			c-0.784,0-1.435,0.293-1.952,0.88C135.319,21.066,135.06,21.951,135.06,23.136z"/>
		<path d="M143.939,27.763v-9.254h1.411v1.403c0.36-0.656,0.692-1.089,0.997-1.298c0.306-0.21,0.641-0.314,1.007-0.314
			c0.528,0,1.065,0.169,1.612,0.506l-0.541,1.455c-0.383-0.227-0.766-0.34-1.149-0.34c-0.343,0-0.651,0.104-0.924,0.31
			s-0.468,0.492-0.583,0.857c-0.175,0.558-0.262,1.168-0.262,1.83v4.845H143.939z"/>
		<path d="M149.908,27.763V14.989h1.568v7.284l3.711-3.765h2.03l-3.538,3.434l3.896,5.82h-1.935l-3.059-4.731l-1.105,1.063v3.668
			L149.908,27.763L149.908,27.763z"/>
		<path d="M158.193,25l1.551-0.243c0.088,0.621,0.33,1.098,0.728,1.429s0.954,0.496,1.669,0.496c0.721,0,1.254-0.146,1.604-0.439
			c0.348-0.293,0.522-0.638,0.522-1.032c0-0.354-0.154-0.634-0.462-0.837c-0.215-0.14-0.75-0.316-1.604-0.531
			c-1.15-0.291-1.947-0.542-2.392-0.754s-0.781-0.505-1.011-0.88s-0.344-0.789-0.344-1.241c0-0.413,0.094-0.795,0.283-1.146
			c0.188-0.352,0.445-0.643,0.771-0.875c0.243-0.181,0.576-0.333,0.997-0.458s0.872-0.188,1.354-0.188
			c0.727,0,1.363,0.104,1.912,0.314c0.55,0.209,0.955,0.492,1.217,0.849c0.261,0.357,0.441,0.836,0.539,1.434l-1.533,0.209
			c-0.069-0.476-0.271-0.848-0.605-1.115s-0.806-0.4-1.416-0.4c-0.721,0-1.234,0.119-1.542,0.357s-0.462,0.517-0.462,0.836
			c0,0.203,0.064,0.387,0.191,0.549c0.129,0.169,0.328,0.309,0.602,0.418c0.156,0.059,0.619,0.192,1.385,0.401
			c1.11,0.296,1.885,0.539,2.322,0.728c0.439,0.188,0.783,0.463,1.033,0.823s0.375,0.808,0.375,1.342
			c0,0.522-0.152,1.015-0.458,1.477s-0.745,0.819-1.319,1.072c-0.576,0.253-1.227,0.379-1.953,0.379
			c-1.201,0-2.118-0.25-2.748-0.749C158.769,26.723,158.367,25.983,158.193,25z"/>
	</g>
	<g>
		<path fill="#F1F1F1" d="M29.146,31.979v-5.137h3.522v0.869h-2.485v1.216h2.144v0.869h-2.144v2.183
			C30.183,31.979,29.146,31.979,29.146,31.979z"/>
		<path fill="#F1F1F1" d="M34.252,31.979l-1.226-5.137h1.061l0.775,3.528l0.939-3.528h1.234l0.9,3.589l0.789-3.589h1.044
			l-1.248,5.137h-1.1l-1.023-3.84l-1.02,3.84H34.252z"/>
	</g>
</g>
</svg>
