<?xml version="1.0" encoding="utf-8"?>
<!-- Generator: Adobe Illustrator 17.0.0, SVG Export Plug-In . SVG Version: 6.00 Build 0)  -->
<!DOCTYPE svg PUBLIC "-//W3C//DTD SVG 1.1//EN" "http://www.w3.org/Graphics/SVG/1.1/DTD/svg11.dtd" [
	<!ENTITY ns_extend "http://ns.adobe.com/Extensibility/1.0/">
	<!ENTITY ns_ai "http://ns.adobe.com/AdobeIllustrator/10.0/">
	<!ENTITY ns_graphs "http://ns.adobe.com/Graphs/1.0/">
	<!ENTITY ns_vars "http://ns.adobe.com/Variables/1.0/">
	<!ENTITY ns_imrep "http://ns.adobe.com/ImageReplacement/1.0/">
	<!ENTITY ns_sfw "http://ns.adobe.com/SaveForWeb/1.0/">
	<!ENTITY ns_custom "http://ns.adobe.com/GenericCustomNamespace/1.0/">
	<!ENTITY ns_adobe_xpath "http://ns.adobe.com/XPath/1.0/">
]>
<svg version="1.1" id="Capa_1" xmlns:x="&ns_extend;" xmlns:i="&ns_ai;" xmlns:graph="&ns_graphs;"
	 xmlns="http://www.w3.org/2000/svg" xmlns:xlink="http://www.w3.org/1999/xlink" x="0px" y="0px" width="235.28px"
	 height="45.842px" viewBox="0 0 235.28 45.842" enable-background="new 0 0 235.28 45.842" xml:space="preserve">
<metadata><?xpacket begin="﻿" id="W5M0MpCehiHzreSzNTczkc9d"?>
<x:xmpmeta xmlns:x="adobe:ns:meta/" x:xmptk="Adobe XMP Core 5.5-c014 79.151739, 2013/04/03-12:12:15        ">
   <rdf:RDF xmlns:rdf="http://www.w3.org/1999/02/22-rdf-syntax-ns#">
      <rdf:Description rdf:about=""
            xmlns:dc="http://purl.org/dc/elements/1.1/"
            xmlns:xmp="http://ns.adobe.com/xap/1.0/"
            xmlns:xmpGImg="http://ns.adobe.com/xap/1.0/g/img/"
            xmlns:xmpMM="http://ns.adobe.com/xap/1.0/mm/"
            xmlns:stRef="http://ns.adobe.com/xap/1.0/sType/ResourceRef#"
            xmlns:stEvt="http://ns.adobe.com/xap/1.0/sType/ResourceEvent#"
            xmlns:illustrator="http://ns.adobe.com/illustrator/1.0/"
            xmlns:xmpTPg="http://ns.adobe.com/xap/1.0/t/pg/"
            xmlns:stDim="http://ns.adobe.com/xap/1.0/sType/Dimensions#"
            xmlns:xmpG="http://ns.adobe.com/xap/1.0/g/"
            xmlns:pdf="http://ns.adobe.com/pdf/1.3/">
         <dc:format>image/svg+xml</dc:format>
         <dc:title>
            <rdf:Alt>
               <rdf:li xml:lang="x-default">Imprimir</rdf:li>
            </rdf:Alt>
         </dc:title>
         <xmp:MetadataDate>2017-08-14T13:41:17-05:00</xmp:MetadataDate>
         <xmp:ModifyDate>2017-08-14T13:41:17-05:00</xmp:ModifyDate>
         <xmp:CreateDate>2017-08-14T13:41:16-05:00</xmp:CreateDate>
         <xmp:CreatorTool>Adobe Illustrator CC (Windows)</xmp:CreatorTool>
         <xmp:Thumbnails>
            <rdf:Alt>
               <rdf:li rdf:parseType="Resource">
                  <xmpGImg:width>256</xmpGImg:width>
                  <xmpGImg:height>52</xmpGImg:height>
                  <xmpGImg:format>JPEG</xmpGImg:format>
                  <xmpGImg:image>/9j/4AAQSkZJRgABAgEASABIAAD/7QAsUGhvdG9zaG9wIDMuMAA4QklNA+0AAAAAABAASAAAAAEA&#xA;AQBIAAAAAQAB/+4ADkFkb2JlAGTAAAAAAf/bAIQABgQEBAUEBgUFBgkGBQYJCwgGBggLDAoKCwoK&#xA;DBAMDAwMDAwQDA4PEA8ODBMTFBQTExwbGxscHx8fHx8fHx8fHwEHBwcNDA0YEBAYGhURFRofHx8f&#xA;Hx8fHx8fHx8fHx8fHx8fHx8fHx8fHx8fHx8fHx8fHx8fHx8fHx8fHx8fHx8f/8AAEQgANAEAAwER&#xA;AAIRAQMRAf/EAaIAAAAHAQEBAQEAAAAAAAAAAAQFAwIGAQAHCAkKCwEAAgIDAQEBAQEAAAAAAAAA&#xA;AQACAwQFBgcICQoLEAACAQMDAgQCBgcDBAIGAnMBAgMRBAAFIRIxQVEGE2EicYEUMpGhBxWxQiPB&#xA;UtHhMxZi8CRygvElQzRTkqKyY3PCNUQnk6OzNhdUZHTD0uIIJoMJChgZhJRFRqS0VtNVKBry4/PE&#xA;1OT0ZXWFlaW1xdXl9WZ2hpamtsbW5vY3R1dnd4eXp7fH1+f3OEhYaHiImKi4yNjo+Ck5SVlpeYmZ&#xA;qbnJ2en5KjpKWmp6ipqqusra6voRAAICAQIDBQUEBQYECAMDbQEAAhEDBCESMUEFURNhIgZxgZEy&#xA;obHwFMHR4SNCFVJicvEzJDRDghaSUyWiY7LCB3PSNeJEgxdUkwgJChgZJjZFGidkdFU38qOzwygp&#xA;0+PzhJSktMTU5PRldYWVpbXF1eX1RlZmdoaWprbG1ub2R1dnd4eXp7fH1+f3OEhYaHiImKi4yNjo&#xA;+DlJWWl5iZmpucnZ6fkqOkpaanqKmqq6ytrq+v/aAAwDAQACEQMRAD8A55rennTdd1HTiKGzuprc&#xA;jw9KQp/DFVBMVRCYqgv0zePcTxWenSXSW8npSSiSJBzChiAHYH9oYqrJqut/9WSX/kfb/wDNeKoj&#xA;Q/MdtqVzc2bRm2vrVists7KxoNiVKkggHrTFU/TFUQmKohMVRCYqiExVEJiqITFUQmKohMVRCYq1&#xA;J3xVDyd8VQ74qh3xVDviqHfFUO+Kod8VQ74qh3xVDviqGkI+/piqg+Kod8VQ74qjvKs2ow+Z9Kk0&#xA;xlTUBdRC0dlDgSs4VDxaoNGOVZpER25t+ngJS35c0/8Azi0/6h+Z2vw0oJLgXA9/rEazH8Xy1oYm&#xA;mKohMVQXl/8AvtV/5jn/AOTceKpy9xDCEMrhA7rGle7MaKB88VYTqXlHzJBrl1rVjNEgWR7iNubB&#xA;uP2iCOPhsRir0DSLt7zTLS7dQr3EMcrKOgLoGIH34qmSYqiExVEJiqITFUQmKohMVRCYqiExVEJi&#xA;rUnfFUPJ3xVDviqHfFUO+Kod8VQ74qh3xVDviqHfFUO+Kq/lrynYea/OGk6HeySQxXH1po7iFuMk&#xA;UsdrI8ci9jxYA0Ox6HFUJ5j8v635Y1uTQtdjC3igva3SAiG7hBp60Nf+HTqp9qEqpW+Kod8VZp+S&#xA;WkfpL8zNHUrWO1d7uQ+HoIXQ/wDIwLlGXeUR8fk5OHaE5eVfNPv+clNP+rfmDDdKPhvbGKRm2+2j&#xA;vGR/wKLl7jPLkxVEJiqV6bBcTw61Dbzm2me9cJOoDFf3cfY4q3b6NfVghuLZJIYWmnnb1WcTymMR&#xA;x8jJVwWDtXqBTFUbY6ZqFnp98bmcGF4X9GyVmkSGin7Mknxn8Biqa+Wf+Ue0v/mEg/5NLiqcpiqI&#xA;TFUQmKohMVRCYqiExViH5uzND5P9QMU43duSVrWnLfpiqE82fmd5VvPLGqWlrPcfWZ7aSOGtvMg5&#xA;MpA+IqAMVV7TVvMUfmLyba21v61nJpYZlNyY1krFEJJGTgw5RA/DX7Ve2Kq9x+aGtNbanf2nl0za&#xA;bo1zLb39ybpVP7pqExqUq1Fox8Onviqvbef9SfUNMF/or2Wla2/p6ZdtMjSHkvKMyxAfB6gpQcts&#xA;VX+RHdotf5MWprd+BU1oBINsVZC+Kod8VQ74qh3xVDviqHfFUO+Kod8VZF+U/wD5NLy/87z/AKg5&#xA;cVe/eevIuiec9EfS9UQqyn1LK9joJraYCiyxMe/iOjDY7Yq+R7mCS1vr2wkuIb02M724v7U1guOB&#xA;p6kdex6HwNaEjfFUO+KvaP8AnF3SfV13WdWZfhtbZLZGP81w/M0+iD8coG+Q+QcqW2ED+dK/lsmH&#xA;/OUun/8AKPago3/0m3kP/It0/wCNsvcV4QmKohMVSvTPLnmi/uLi40rUY7W1n1K5gnR0hYo0FrHN&#xA;6g9Qhn5BgvFelK4qraXp2s6pJo0Nj5mkWbWNPl1GIXOn28arwupbGOHkkktWkuYeNaABSG61XFUD&#xA;rkHm6w0Br+TWxMpsLa6uLf6rGhV7q4ltnt+VPtRND8R+j3xVlfln/lHtL/5hIP8Ak0uKpymKohMV&#xA;RCYqiExVEJiqITFWOfmPpGpat5bW10+A3FwLqCT01Kg8UarH4iBtiqdeb7G6v/KmrWVpGZbm4tZY&#xA;4YwQCzMpAFTQYqkMuneYbDUvJ2oQaa95HY2LWWoRRugeJpY4l5fERUKVNaYqp2nlvW4/IvmvTntW&#xA;W91C71CSzhqtZEmp6ZBrQcvfFVXV9C1abT/JcUduWfTLm0kvlqv7tY4eLk770PhiqM8oabfWEesi&#xA;7iMRudWvLmCpB5RSuCj7E9RiqcviqHfFUO+Kod8VQ74qh3xVDviqHfFWRflP/wCTS8v/ADvP+oOX&#xA;FWQ/m9+br6s1x5Z8s3BXS1LRarqsRoZyNmt7dh/uvtJIPtfZXapKryIoqKEQBVUUVRsAB2GKqL4q&#xA;+nP+cbdI+qeQ5b5h8eo3cjqf+K4gIgP+DV8owb2e8uVqduGPdEfbu3/zkpp/1jyBDcgfFZX0Mhbw&#xA;V0eM/wDDOuXuK+Y0xVEJiqQXej+bhqBm0zUIobZLiS7tkeoKSzxLFI32H6ogXriqGg8s+eoo7dId&#xA;St0W0tjZW1C1Y4Dctd8Fb0qj9+7PXrv1ptiqZW9h+Z0SyqNXtJUnV0mWdEnDCSZ7hyRLA4qZZWev&#xA;WpxVlulWn1PTrWzLczbQxw86UrwULWnvTFUxTFUQmKohMVRCYqiExVEJiqITFUQmKohMVak74qh5&#xA;O+Kod8VQ74qh3xVDviqHfFUO+Kod8VQ74qh3xVA3MdyZopbe6ktWT1FkMJ4s8csbRyR8huoZWoad&#xA;tsVU+CIioihUUUVRsAB2GKqL4qh365GcqiSzxw4pAd5faH5baSNJ8haFZU4stnHJIvhJMPVk/wCH&#xA;c5DDGoANmpnxZJHzR/mry7Z+Y/L1/ot3QRXsTRiQry9OTrHIBValHAYb9sskLDVEgEE7vF5P+cW5&#xA;1p6PmRH/AJudmU+6kzZjeDk/n/Y5n5jCeeP7UNJ/zjL5gUN6Os2jmvw845EqPenOmDw8384fJPi6&#xA;f+YfmoP/AM43+dVb93qGmutOrPOpr8hC368eHP3xXi0vdP7FB/yB/MGMAqLOSvULMdv+CVcF5+6K&#xA;eHSnrMfJRf8AJP8AMiPlx0+KWnThcQivy5Mv44+Jn/mj5p8LSn+OXyUm/Kb8x4iA+iMa7/DNbt+K&#xA;yHB42Yfwfan8tpzyyf7EqTfl957iFX0K660+FeR/4WuP5nJ/qZT+Swnllj8v2rG8p+b4ifU0HUAF&#xA;3ZhbSkUpXqFpg/OSHOEvkv8AJ0Tyyw+aw6VrUVPV0y8jr05QSCtPmMfz46xl8k/yVI8pwPx/YsJk&#xA;iBMsUkYU0JZCKH6cH8o4+t/JP8j5jy4T8VSO7g/m/A4R2lh7/sKD2Nqf5v2hER3Vv/P+ByQ7Qw/z&#xA;vvYHsnUj+D7R+tEx3MH+/BkhrcP84NZ7N1A/gkiY54DT94v3jJjVYj/FH5hgdFnHOEv9KUTHLGej&#xA;j7xkxmgf4h82s6fIOcZfIukliFauv3jAdRjHOQ+YZDS5TyhL5FDSXEH+/F+8ZA6vF/Oj82wdn6g/&#xA;wS+RQslzB/OMgddhH8QZjsvUn+AoeS6g/m/A5E9o4P532H9TYOx9Sf4PtH60M91D4n7sge08Pf8A&#xA;YzHYuo7h81oWeWnpQSycvs8EJr8qY/ylj6CR+C/yNlHMxHxXDSNclBMWl3jgbErBId/oGH8+DyjL&#xA;5L/JRHOcPmqDyf5ykai6DqFaV+K2lUfeyjH85P8A1OSP5Oxjnlh+PivX8uvPstOGh3I5dOQCffyI&#xA;p9OH8zlPLGfmj8lgHPKPl+1UX8pPzIlrx0VhTrynt1/4lIMfGzn+D7Ufl9MOeT7CrJ+SH5jSEBrK&#xA;GOorVriKg9vhZsPHqP5sfx8UeHpB/FL8fBWT/nH7z9IAWayiqaEPM23ueKNh/wAIP81H+CD+eUQn&#xA;/ON3nJq+rqOnJ/Lxedv1xLjw5++KOPS/zZfj4oiP/nGTWmK+trdsgp8XCKR6H2qUrh8PN/O+xfG0&#xA;45QPzRVv/wA4unkrXHmIUDAtGloTVe45GYUr8sTp5nYy+xRq8cTcYb+97wqqqhVAVVFABsABmW69&#xA;vFXYq7FXYq7FXYq7FXYq7FXYq7FUPcfo7kfrHo8qb+pxrT6cjLh6s48XS0sn/wAE0Hr/AKNp+zz9&#xA;ClfauUy8Hrw/Y5MfzHTj+1Lp/wDlVfx+r+heX7dPqvOv0fFlMvyvXg+xyIfnuni/7JAzf8qf5Dl+&#xA;jq029Pp/wm2Uy/J/0XIj/KPTjS+X/lSnEcvTpX9j63X/AITfMeX5H8cTlx/lTpf+w/Suh/5UtReP&#xA;pUrt6n1rx78/44Y/kelf7JE/5U63/sf0I+H/AJVD8XH9Hdq+pT8Of8Mvj+T/AKLiz/lHrx/j3Jhb&#xA;/wDKsKr6P6F5U+Gn1XlSn/BZdH8t04Pscaf53r4v+yTC3/wbxH1f9Hca7en6FK/R3y6Pg9OH7HHl&#xA;+Y68f2pnB9Sqfq/p8v2vT41p70y4V0ceXF1tWyTB2KuxV2KuxV2KuxV2KuxV2KuxV//Z</xmpGImg:image>
               </rdf:li>
            </rdf:Alt>
         </xmp:Thumbnails>
         <xmpMM:InstanceID>xmp.iid:1304ae71-66ba-1246-a7e6-a4755eb2a88b</xmpMM:InstanceID>
         <xmpMM:DocumentID>xmp.did:1304ae71-66ba-1246-a7e6-a4755eb2a88b</xmpMM:DocumentID>
         <xmpMM:OriginalDocumentID>uuid:5D20892493BFDB11914A8590D31508C8</xmpMM:OriginalDocumentID>
         <xmpMM:RenditionClass>proof:pdf</xmpMM:RenditionClass>
         <xmpMM:DerivedFrom rdf:parseType="Resource">
            <stRef:instanceID>xmp.iid:9632bbfa-e7aa-9149-8890-086b45e44cdd</stRef:instanceID>
            <stRef:documentID>xmp.did:9632bbfa-e7aa-9149-8890-086b45e44cdd</stRef:documentID>
            <stRef:originalDocumentID>uuid:5D20892493BFDB11914A8590D31508C8</stRef:originalDocumentID>
            <stRef:renditionClass>proof:pdf</stRef:renditionClass>
         </xmpMM:DerivedFrom>
         <xmpMM:History>
            <rdf:Seq>
               <rdf:li rdf:parseType="Resource">
                  <stEvt:action>saved</stEvt:action>
                  <stEvt:instanceID>xmp.iid:c34fcb8d-e8f1-8b48-96f0-dfe390e32e91</stEvt:instanceID>
                  <stEvt:when>2017-08-14T12:20:04-05:00</stEvt:when>
                  <stEvt:softwareAgent>Adobe Illustrator CC (Windows)</stEvt:softwareAgent>
                  <stEvt:changed>/</stEvt:changed>
               </rdf:li>
               <rdf:li rdf:parseType="Resource">
                  <stEvt:action>saved</stEvt:action>
                  <stEvt:instanceID>xmp.iid:1304ae71-66ba-1246-a7e6-a4755eb2a88b</stEvt:instanceID>
                  <stEvt:when>2017-08-14T13:41:17-05:00</stEvt:when>
                  <stEvt:softwareAgent>Adobe Illustrator CC (Windows)</stEvt:softwareAgent>
                  <stEvt:changed>/</stEvt:changed>
               </rdf:li>
            </rdf:Seq>
         </xmpMM:History>
         <illustrator:StartupProfile>Print</illustrator:StartupProfile>
         <xmpTPg:HasVisibleOverprint>False</xmpTPg:HasVisibleOverprint>
         <xmpTPg:HasVisibleTransparency>False</xmpTPg:HasVisibleTransparency>
         <xmpTPg:NPages>1</xmpTPg:NPages>
         <xmpTPg:MaxPageSize rdf:parseType="Resource">
            <stDim:w>235.279999</stDim:w>
            <stDim:h>45.841980</stDim:h>
            <stDim:unit>Pixels</stDim:unit>
         </xmpTPg:MaxPageSize>
         <xmpTPg:PlateNames>
            <rdf:Seq>
               <rdf:li>Cyan</rdf:li>
               <rdf:li>Magenta</rdf:li>
               <rdf:li>Yellow</rdf:li>
               <rdf:li>Black</rdf:li>
            </rdf:Seq>
         </xmpTPg:PlateNames>
         <xmpTPg:SwatchGroups>
            <rdf:Seq>
               <rdf:li rdf:parseType="Resource">
                  <xmpG:groupName>Grupo de muestras por defecto</xmpG:groupName>
                  <xmpG:groupType>0</xmpG:groupType>
               </rdf:li>
            </rdf:Seq>
         </xmpTPg:SwatchGroups>
         <pdf:Producer>Adobe PDF library 10.01</pdf:Producer>
      </rdf:Description>
   </rdf:RDF>
</x:xmpmeta>
                                                                                                    
                                                                                                    
                                                                                                    
                                                                                                    
                                                                                                    
                                                                                                    
                                                                                                    
                                                                                                    
                                                                                                    
                                                                                                    
                                                                                                    
                                                                                                    
                                                                                                    
                                                                                                    
                                                                                                    
                                                                                                    
                                                                                                    
                                                                                                    
                                                                                                    
                                                                                                    
                           
<?xpacket end="w"?>
	</metadata>
<g>
	<g>
		<g>
			
				<linearGradient id="SVGID_1_" gradientUnits="userSpaceOnUse" x1="1.125" y1="589.2045" x2="235.28" y2="589.2045" gradientTransform="matrix(1 0 0 1 0 -565.158)">
				<stop  offset="0" style="stop-color:#783214"/>
				<stop  offset="0.5" style="stop-color:#F16529"/>
				<stop  offset="1" style="stop-color:#783214"/>
			</linearGradient>
			<polygon fill="url(#SVGID_1_)" points="227.4,40.213 117.307,45.842 6.754,40.213 1.125,2.251 235.28,2.251 			"/>
		</g>
		<g>
			
				<linearGradient id="SVGID_2_" gradientUnits="userSpaceOnUse" x1="0" y1="25.047" x2="234.154" y2="25.047" gradientTransform="matrix(1 0 0 -1 0 46.842)">
				<stop  offset="0" style="stop-color:#404040"/>
				<stop  offset="0.5" style="stop-color:#9F9F9F"/>
				<stop  offset="0.9947" style="stop-color:#404040"/>
			</linearGradient>
			<polygon fill="url(#SVGID_2_)" points="226.274,37.962 116.182,43.59 5.628,37.962 0,0 234.154,0 			"/>
		</g>
	</g>
	<polygon fill="#F1F1F1" stroke="#000000" stroke-linecap="round" stroke-linejoin="round" stroke-miterlimit="10" points="
		203.317,32.607 215.832,20.093 203.317,7.577 	"/>
	<g>
		<path d="M100.843,27.709V14.935h1.69v5.246h6.64v-5.246h1.689v12.773h-1.689v-6.021h-6.64v6.021L100.843,27.709L100.843,27.709z"
			/>
		<path d="M116.902,26.306l0.227,1.385c-0.441,0.093-0.836,0.14-1.186,0.14c-0.568,0-1.01-0.09-1.324-0.27
			c-0.313-0.18-0.534-0.417-0.662-0.71c-0.127-0.293-0.191-0.91-0.191-1.852v-5.323h-1.15v-1.22h1.15v-2.292l1.56-0.941v3.232h1.577
			v1.22h-1.577v5.411c0,0.447,0.027,0.735,0.083,0.862c0.055,0.128,0.145,0.23,0.27,0.305c0.125,0.076,0.304,0.113,0.536,0.113
			C116.388,26.367,116.617,26.346,116.902,26.306z"/>
		<path d="M118.435,27.709v-9.253h1.402v1.298c0.291-0.453,0.678-0.817,1.159-1.093s1.031-0.414,1.647-0.414
			c0.685,0,1.246,0.143,1.686,0.427c0.438,0.285,0.748,0.683,0.928,1.193c0.732-1.08,1.685-1.621,2.857-1.621
			c0.918,0,1.624,0.254,2.117,0.763c0.494,0.508,0.741,1.291,0.741,2.348v6.352h-1.56V21.88c0-0.627-0.051-1.079-0.152-1.355
			c-0.102-0.275-0.287-0.498-0.554-0.667c-0.267-0.168-0.581-0.252-0.94-0.252c-0.65,0-1.191,0.216-1.621,0.649
			s-0.645,1.125-0.645,2.078v5.376h-1.568v-6.012c0-0.697-0.128-1.22-0.383-1.568c-0.256-0.349-0.675-0.523-1.256-0.523
			c-0.441,0-0.85,0.116-1.224,0.349s-0.646,0.572-0.815,1.019c-0.168,0.448-0.252,1.092-0.252,1.935v4.801L118.435,27.709
			L118.435,27.709z"/>
		<path d="M133.265,27.709V14.935h1.568v12.773L133.265,27.709L133.265,27.709z"/>
	</g>
	<g>
		<rect x="24.166" y="24.897" fill="#F1F1F1" width="20.15" height="7.8"/>
		<g>
			<path d="M44.939,11.373c-0.001-0.136-0.045-0.269-0.138-0.375L39.1,4.486c-0.002-0.002-0.003-0.003-0.004-0.004
				c-0.035-0.038-0.073-0.069-0.116-0.097c-0.012-0.008-0.024-0.015-0.038-0.023c-0.036-0.02-0.074-0.036-0.114-0.048
				c-0.01-0.003-0.02-0.007-0.031-0.01c-0.043-0.01-0.088-0.016-0.133-0.016H24.652c-0.639,0-1.16,0.52-1.16,1.16v27.25
				c0,0.64,0.521,1.16,1.16,1.16h19.133c0.64,0,1.16-0.52,1.16-1.16v-21.26C44.945,11.415,44.941,11.394,44.939,11.373z
				 M24.652,5.447h13.432v5.932c0,0.32,0.259,0.58,0.58,0.58h5.121v12.017H24.652V5.447z M29.122,31.093H27.96v-2.216h-1.919v2.216
				h-1.168v-5.294h1.168v2.034h1.919v-2.034h1.162V31.093z M33.708,26.804h-1.406v4.289h-1.17v-4.289H29.75v-1.006h3.958V26.804z
				 M38.729,31.093l-0.077-2.027c-0.022-0.636-0.045-1.406-0.045-2.176h-0.023c-0.161,0.676-0.375,1.43-0.574,2.05l-0.626,2.066
				h-0.909l-0.55-2.05c-0.168-0.621-0.345-1.375-0.467-2.066h-0.015c-0.03,0.715-0.054,1.533-0.091,2.192l-0.092,2.011h-1.077
				l0.328-5.294h1.552l0.504,1.767c0.161,0.613,0.321,1.273,0.436,1.893h0.022c0.146-0.612,0.321-1.311,0.49-1.9l0.55-1.759h1.521
				l0.283,5.294L38.729,31.093L38.729,31.093z M43.981,31.093h-3.218v-5.294h1.169v4.288h2.048L43.981,31.093L43.981,31.093z"/>
			<polygon points="27.708,17.659 32.15,19.723 32.15,18.742 28.791,17.271 28.791,17.252 32.15,15.781 32.15,14.8 27.708,16.863 
							"/>
			<polygon points="32.836,20.092 33.771,20.092 35.75,13.384 34.816,13.384 			"/>
			<polygon points="36.288,15.781 39.722,17.252 39.722,17.271 36.288,18.742 36.288,19.723 40.729,17.687 40.729,16.836 
				36.288,14.8 			"/>
		</g>
	</g>
</g>
</svg>
