<?xml version="1.0" encoding="utf-8"?>
<!-- Generator: Adobe Illustrator 17.0.0, SVG Export Plug-In . SVG Version: 6.00 Build 0)  -->
<!DOCTYPE svg PUBLIC "-//W3C//DTD SVG 1.1//EN" "http://www.w3.org/Graphics/SVG/1.1/DTD/svg11.dtd" [
	<!ENTITY ns_extend "http://ns.adobe.com/Extensibility/1.0/">
	<!ENTITY ns_ai "http://ns.adobe.com/AdobeIllustrator/10.0/">
	<!ENTITY ns_graphs "http://ns.adobe.com/Graphs/1.0/">
	<!ENTITY ns_vars "http://ns.adobe.com/Variables/1.0/">
	<!ENTITY ns_imrep "http://ns.adobe.com/ImageReplacement/1.0/">
	<!ENTITY ns_sfw "http://ns.adobe.com/SaveForWeb/1.0/">
	<!ENTITY ns_custom "http://ns.adobe.com/GenericCustomNamespace/1.0/">
	<!ENTITY ns_adobe_xpath "http://ns.adobe.com/XPath/1.0/">
]>
<svg version="1.1" id="Capa_1" xmlns:x="&ns_extend;" xmlns:i="&ns_ai;" xmlns:graph="&ns_graphs;"
	 xmlns="http://www.w3.org/2000/svg" xmlns:xlink="http://www.w3.org/1999/xlink" x="0px" y="0px" width="235.28px"
	 height="45.842px" viewBox="0 0 235.28 45.842" enable-background="new 0 0 235.28 45.842" xml:space="preserve">
<metadata><?xpacket begin="﻿" id="W5M0MpCehiHzreSzNTczkc9d"?>
<x:xmpmeta xmlns:x="adobe:ns:meta/" x:xmptk="Adobe XMP Core 5.5-c014 79.151739, 2013/04/03-12:12:15        ">
   <rdf:RDF xmlns:rdf="http://www.w3.org/1999/02/22-rdf-syntax-ns#">
      <rdf:Description rdf:about=""
            xmlns:dc="http://purl.org/dc/elements/1.1/"
            xmlns:xmp="http://ns.adobe.com/xap/1.0/"
            xmlns:xmpGImg="http://ns.adobe.com/xap/1.0/g/img/"
            xmlns:xmpMM="http://ns.adobe.com/xap/1.0/mm/"
            xmlns:stRef="http://ns.adobe.com/xap/1.0/sType/ResourceRef#"
            xmlns:stEvt="http://ns.adobe.com/xap/1.0/sType/ResourceEvent#"
            xmlns:illustrator="http://ns.adobe.com/illustrator/1.0/"
            xmlns:xmpTPg="http://ns.adobe.com/xap/1.0/t/pg/"
            xmlns:stDim="http://ns.adobe.com/xap/1.0/sType/Dimensions#"
            xmlns:xmpG="http://ns.adobe.com/xap/1.0/g/"
            xmlns:pdf="http://ns.adobe.com/pdf/1.3/">
         <dc:format>image/svg+xml</dc:format>
         <dc:title>
            <rdf:Alt>
               <rdf:li xml:lang="x-default">Imprimir</rdf:li>
            </rdf:Alt>
         </dc:title>
         <xmp:MetadataDate>2017-08-14T13:41:17-05:00</xmp:MetadataDate>
         <xmp:ModifyDate>2017-08-14T13:41:17-05:00</xmp:ModifyDate>
         <xmp:CreateDate>2017-08-14T13:41:16-05:00</xmp:CreateDate>
         <xmp:CreatorTool>Adobe Illustrator CC (Windows)</xmp:CreatorTool>
         <xmp:Thumbnails>
            <rdf:Alt>
               <rdf:li rdf:parseType="Resource">
                  <xmpGImg:width>256</xmpGImg:width>
                  <xmpGImg:height>52</xmpGImg:height>
                  <xmpGImg:format>JPEG</xmpGImg:format>
                  <xmpGImg:image>/9j/4AAQSkZJRgABAgEASABIAAD/7QAsUGhvdG9zaG9wIDMuMAA4QklNA+0AAAAAABAASAAAAAEA&#xA;AQBIAAAAAQAB/+4ADkFkb2JlAGTAAAAAAf/bAIQABgQEBAUEBgUFBgkGBQYJCwgGBggLDAoKCwoK&#xA;DBAMDAwMDAwQDA4PEA8ODBMTFBQTExwbGxscHx8fHx8fHx8fHwEHBwcNDA0YEBAYGhURFRofHx8f&#xA;Hx8fHx8fHx8fHx8fHx8fHx8fHx8fHx8fHx8fHx8fHx8fHx8fHx8fHx8fHx8f/8AAEQgANAEAAwER&#xA;AAIRAQMRAf/EAaIAAAAHAQEBAQEAAAAAAAAAAAQFAwIGAQAHCAkKCwEAAgIDAQEBAQEAAAAAAAAA&#xA;AQACAwQFBgcICQoLEAACAQMDAgQCBgcDBAIGAnMBAgMRBAAFIRIxQVEGE2EicYEUMpGhBxWxQiPB&#xA;UtHhMxZi8CRygvElQzRTkqKyY3PCNUQnk6OzNhdUZHTD0uIIJoMJChgZhJRFRqS0VtNVKBry4/PE&#xA;1OT0ZXWFlaW1xdXl9WZ2hpamtsbW5vY3R1dnd4eXp7fH1+f3OEhYaHiImKi4yNjo+Ck5SVlpeYmZ&#xA;qbnJ2en5KjpKWmp6ipqqusra6voRAAICAQIDBQUEBQYECAMDbQEAAhEDBCESMUEFURNhIgZxgZEy&#xA;obHwFMHR4SNCFVJicvEzJDRDghaSUyWiY7LCB3PSNeJEgxdUkwgJChgZJjZFGidkdFU38qOzwygp&#xA;0+PzhJSktMTU5PRldYWVpbXF1eX1RlZmdoaWprbG1ub2R1dnd4eXp7fH1+f3OEhYaHiImKi4yNjo&#xA;+DlJWWl5iZmpucnZ6fkqOkpaanqKmqq6ytrq+v/aAAwDAQACEQMRAD8A55rennTdd1HTiKGzuprc&#xA;jw9KQp/DFVBMVRCYqhH1+1jnlhSC5uGhbhI0EDyKGoDx5KKVocVVE8yQj/jwv/8ApFl/piqYaPrd&#xA;hqZmW3Zllt24TwSqUkQ+6nfFU3TFUQmKohMVRCYqiExVEJiqITFUQmKohMVRCYq1J3xVDyd8VQ74&#xA;qh3xVDviqHfFUO+Kod8VQ74qh3xVDviqGkIBAJ3PTFVB8VQ74qh3xVHeVZtRh8z6VJpjKmoC6iFo&#xA;7KHAlZwqHi1QaMcqzSIjtzb9PASlvy5p/wDnFp/1D8ztfhpQSXAuB7/WI1mP4vlrQxNMVRCYqgvL&#xA;/wDfar/zHP8A8m48VS/UPP1pby3ItDFOkUSNCakepIzgFR7Ku+KpVJpPm2016417TYA9u7tOsgkj&#xA;4SQt8RBUsGoR7Yq9K0y7W8sLa8VSi3MSTBDuQHUNT8cVTBMVRCYqiExVEJiqITFUQmKohMVRCYqi&#xA;ExVqTviqHk74qh3xVDviqHfFUO+Kod8VQ74qh3xVDviqHfFUV5U8r6d5o856RouoNIkFz9aKzQtw&#xA;kjkS1kaORD0qrAGhBB6EEYqh/NPljWvKutNo2soPWoXs7xARDdwg09SOtaMKjmlaqfEFWKqSviqH&#xA;fFWafklpH6S/MzR1K1jtXe7kPh6CF0P/ACMC5Rl3lEfH5OTh2hOXlXzT7/nJTT/q35gw3Sj4b2xi&#xA;kZtvto7xkf8AAouXuM8uTFUQmKoLy/8A32q/8xz/APJuPFWIR6TrN1fIKRBrm+ajeiQv+iLs9O0Z&#xA;r074q9ImR00eVJCDItuwcqKLUJvQdhiq/wAs/wDKPaX/AMwkH/JpcVTlMVRCYqx/z27LY6XxJWuq&#xA;WgNDTYscVVrnzhq36dv9G0rRWv7iw9JpJTOkScJIxJUll2ap4gb164qlfmHzjqeoeXdHvtLtJIfX&#xA;1BIbuIzCJlljkoLcmnxLIa/F2puN8VT6TzvrX6dl0Wz0Bru8t44JrmlyiKiyqC9WZKEozACn2uu2&#xA;Ktt+YOrzC7vdI8vyaholi7pNfeukTOIv7xoomBLhaeO+Kplcef45f0bD5fsX1e/1OA3cNv6iwLHA&#xA;DxMkrsGC/F8NPEYqxzRvOV7p+o+fvMF5pskU9oumeppUsoBVgjRMBIodaE/ECF3GKs617zR+jG0R&#xA;fq3rfpm7itK8+Ppeqpbn9luVKdNsVSK/8+6pJPqB0LQpNV0/SpHhvrz1khrJEKyJChDNIV9uvbqM&#xA;VW3vnmeae1s9B0uTUdQuLZbyaGVxbC3ikpx9VnB+Kv7IxVKrjzLBqd1oD3mmXFrfDUZLZoHkKejN&#xA;GlS2y0mSh26Yql2u6/da3cC7sdFuNQ0bRLh2kkW4jhSeSIcSREVZ5Fj6ihFe+Ko++89EnSV0jT31&#xA;JtYhkltlEiwlTHTkr8gwFN6mvbviqJ0HzDPqc19Z3lmbHUdOaNbmDmJVpKpZGVwBWoGKpk+Kod8V&#xA;Q74qh3xVkX5T/wDk0vL/AM7z/qDlxV9B+c/JmiebtEk0rVYyVJ9S2uY6Ca3mAIWWJiDRhX5EVBBB&#xA;IxV8i31v9T1K+08XUV+tjO9uuoW1fQuAn+7I6/cw3AYGhYblVCPir2j/AJxd0n1dd1nVmX4bW2S2&#xA;Rj/NcPzNPog/HKBvkPkHKlthA/nSv5bJh/zlLp//ACj2oKN/9Jt5D/yLdP8AjbL3FeEJiqITFUss&#xA;tD/MF49U1DQtNhvNNE11cSO7AyAWot0nIQSIaJ9YjPTx8MVTJdE/NQXMdr9X0cXElxe2iwm7i5et&#xA;pql7xSPX29FVq3zHiMVUb7SPzcjtb9bjStPVYVdeAuIfUnVbVbuRrRPrHK4CW0qyH0w1AfGoxVNv&#xA;LP8Ayj2l/wDMJB/yaXFU5TFUQmKpN5xsLy9s9OS1iaZotRtppAvaNGPJj7DFVfQbC8g83+ZbuWJk&#xA;trv6j9WlPR/ShKvT/VOKsf8A0BrqeUYkSxkkurXWvrxtQVDtCspaq1PeuKsn8t2moHzhrGqT2klt&#xA;b31tZGL1aV5LGeaGhPxITQ4qlej/AOLvLekXXlq20GW/KPMNMv45I1heOZmZWlLkFSpbcHr+OKqu&#xA;n+WNe8o3ejanZ2jaytvpraZqNvAyrInKc3PqRB6cxzbjTFVJfL3mrXoPPkl1pj6dca1FYnT4JWU8&#xA;/qyNReYPHkQq8vAnFUTqE3m3Xb/yuH8v3FhbaVewS38kzIfiClSUCkkxqAat7jbFXWTebPKg1jSr&#xA;TQ5dSW6u57rSb2F0MX+kbqs/IgrwI3J6/jiqxbbzboOvfpy4sDrB1Szhi1JbLiHiuYR+yjEckpts&#xA;f4VVUprXzfqd7oN/qdn6Ri1OWcW6ULW9qUpGJWBILeOKoXTj5p8t2N3oUOiyah+9mfTr2N0ELJMx&#xA;YerypxKkmv8AmcVXaL5XvtJvvLkDJ6sdhaXaXM67osszB6VO/UmmKphptldReateupIitvcpZiCU&#xA;9HMcbh6fKoxVNXxVDviqHfFUO+Ksi/Kf/wAml5f+d5/1By4qyH83vzdfVmuPLPlm4K6WpaLVdViN&#xA;DORs1vbsP919pJB9r7K7VJVeRFFRQiAKqiiqNgAOwxVRfFX05/zjbpH1TyHLfMPj1G7kdT/xXEBE&#xA;B/wavlGDez3lytTtwx7oj7d2/wDnJTT/AKx5AhuQPisr6GQt4K6PGf8AhnXL3FfMaYqiExVStfOH&#xA;5laBzs/L9ratarPJcw3RP72s09pcOjcpUUqW09EI4bqzDuKKoIeZvzUGsR6vDpttBew3us6jDJE/&#xA;ApPr0QhuSpFxyHpBaw0NVPUtiqMuvOP5sXkk1xPounPfy+q0V+QhmgnubVLO5uISZyqyTxRKX+Er&#xA;yHJVU4qnei2slppVlaSkGS3giicruOSIFNPuxVM0xVEJiqITFUQmKohMVRCYqiExVEJiqITFWpO+&#xA;KoeTviqHfFUO+Kod8VQ74qh3xVDviqHfFUO+Kod8VQVxHcGaKWC5ktWQSJI0J4s8csbRyR8huAys&#xA;QadsVUuCIioihUUUVRsAB2GKqL4qh365GcqiSzxw4pAd5faH5baSNJ8haFZU4stnHJIvhJMPVk/4&#xA;dzkMMagA2amfFkkfNH+avLtn5j8vX+i3dBFexNGJCvL05OscgFVqUcBhv2yyQsNUSAQTu8Xk/wCc&#xA;W51p6PmRH/m52ZT7qTNmN4OT+f8AY5n5jCeeP7UNJ/zjL5gUN6Os2jmvw845EqPenOmDw8384fJP&#xA;i6f+YfmoP/zjf51Vv3eoaa606s86mvyELfrx4c/fFeLS90/sUH/IH8wYwCos5K9Qsx2/4JVwXn7o&#xA;p4dKesx8lF/yT/MiPlx0+KWnThcQivy5Mv44+Jn/AJo+afC0p/jl8lJvym/MeIgPojGu/wAM1u34&#xA;rIcHjZh/B9qfy2nPLJ/sSpN+X3nuIVfQrrrT4V5H/ha4/mcn+plP5LCeWWPy/asbyn5viJ9TQdQA&#xA;XdmFtKRSleoWmD85Ic4S+S/ydE8ssPmsOla1FT1dMvI69OUEgrT5jH8+OsZfJP8AJUjynA/H9iwm&#xA;SIEyxSRhTQlkIofpwfyjj638k/yPmPLhPxVI7uD+b8DhHaWHv+woPY2p/m/aERHdW/8AP+ByQ7Qw&#xA;/wA772B7J1I/g+0frRMdzB/vwZIa3D/ODWezdQP4JImOeA0/eL94yY1WI/xR+YYHRZxzhL/SlExy&#xA;xno4+8ZMZoH+IfNrOnyDnGXyLpJYhWrr94wHUYxzkPmGQ0uU8oS+RQ0lxB/vxfvGQOrxfzo/NsHZ&#xA;+oP8EvkULJcwfzjIHXYR/EGY7L1J/gKHkuoP5vwORPaOD+d9h/U2DsfUn+D7R+tDPdQ+J+7IHtPD&#xA;3/YzHYuo7h81oWeWnpQSycvs8EJr8qY/ylj6CR+C/wAjZRzMR8Vw0jXJQTFpd44GxKwSHf6Bh/Pg&#xA;8oy+S/yURznD5qg8n+cpGoug6hWlfitpVH3sox/OT/1OSP5Oxjnlh+PivX8uvPstOGh3I5dOQCff&#xA;yIp9OH8zlPLGfmj8lgHPKPl+1UX8pPzIlrx0VhTrynt1/wCJSDHxs5/g+1H5fTDnk+wqyfkh+Y0h&#xA;AayhjqK1a4ioPb4WbDx6j+bH8fFHh6QfxS/HwVk/5x+8/SAFmsoqmhDzNt7nijYf8IP81H+CD+eU&#xA;Qn/ON3nJq+rqOnJ/Lxedv1xLjw5++KOPS/zZfj4oiP8A5xk1pivra3bIKfFwikeh9qlK4fDzfzvs&#xA;XxtOOUD80Vb/APOLp5K1x5iFAwLRpaE1XuORmFK/LE6eZ2MvsUavHE3GG/ve8KqqoVQFVRQAbAAZ&#xA;luvbxV2KuxV2KuxV2KuxV2KuxV2KuxVD3H6O5H6x6PKm/qca0+nIy4erOPF0tLJ/8E0Hr/o2n7PP&#xA;0KV9q5TLwevD9jkx/MdOP7Uun/5VX8fq/oXl+3T6rzr9HxZTL8r14PsciH57p4v+yQM3/Kn+Q5fo&#xA;6tNvT6f8JtlMvyf9FyI/yj040vl/5UpxHL06V/Y+t1/4TfMeX5H8cTlx/lTpf+w/Suh/5UtRePpU&#xA;rt6n1rx78/44Y/kelf7JE/5U63/sf0I+H/lUPxcf0d2r6lPw5/wy+P5P+i4s/wCUevH+PcmFv/yr&#xA;Cq+j+heVPhp9V5Up/wAFl0fy3Tg+xxp/nevi/wCyTC3/AMG8R9X/AEdxrt6foUr9HfLo+D04fsce&#xA;X5jrx/amcH1Kp+r+ny/a9PjWnvTLhXRx5cXW1bJMHYq7FXYq7FXYq7FXYq7FXYq7FX//2Q==</xmpGImg:image>
               </rdf:li>
            </rdf:Alt>
         </xmp:Thumbnails>
         <xmpMM:InstanceID>xmp.iid:1304ae71-66ba-1246-a7e6-a4755eb2a88b</xmpMM:InstanceID>
         <xmpMM:DocumentID>xmp.did:1304ae71-66ba-1246-a7e6-a4755eb2a88b</xmpMM:DocumentID>
         <xmpMM:OriginalDocumentID>uuid:5D20892493BFDB11914A8590D31508C8</xmpMM:OriginalDocumentID>
         <xmpMM:RenditionClass>proof:pdf</xmpMM:RenditionClass>
         <xmpMM:DerivedFrom rdf:parseType="Resource">
            <stRef:instanceID>xmp.iid:9632bbfa-e7aa-9149-8890-086b45e44cdd</stRef:instanceID>
            <stRef:documentID>xmp.did:9632bbfa-e7aa-9149-8890-086b45e44cdd</stRef:documentID>
            <stRef:originalDocumentID>uuid:5D20892493BFDB11914A8590D31508C8</stRef:originalDocumentID>
            <stRef:renditionClass>proof:pdf</stRef:renditionClass>
         </xmpMM:DerivedFrom>
         <xmpMM:History>
            <rdf:Seq>
               <rdf:li rdf:parseType="Resource">
                  <stEvt:action>saved</stEvt:action>
                  <stEvt:instanceID>xmp.iid:c34fcb8d-e8f1-8b48-96f0-dfe390e32e91</stEvt:instanceID>
                  <stEvt:when>2017-08-14T12:20:04-05:00</stEvt:when>
                  <stEvt:softwareAgent>Adobe Illustrator CC (Windows)</stEvt:softwareAgent>
                  <stEvt:changed>/</stEvt:changed>
               </rdf:li>
               <rdf:li rdf:parseType="Resource">
                  <stEvt:action>saved</stEvt:action>
                  <stEvt:instanceID>xmp.iid:1304ae71-66ba-1246-a7e6-a4755eb2a88b</stEvt:instanceID>
                  <stEvt:when>2017-08-14T13:41:17-05:00</stEvt:when>
                  <stEvt:softwareAgent>Adobe Illustrator CC (Windows)</stEvt:softwareAgent>
                  <stEvt:changed>/</stEvt:changed>
               </rdf:li>
            </rdf:Seq>
         </xmpMM:History>
         <illustrator:StartupProfile>Print</illustrator:StartupProfile>
         <xmpTPg:HasVisibleOverprint>False</xmpTPg:HasVisibleOverprint>
         <xmpTPg:HasVisibleTransparency>False</xmpTPg:HasVisibleTransparency>
         <xmpTPg:NPages>1</xmpTPg:NPages>
         <xmpTPg:MaxPageSize rdf:parseType="Resource">
            <stDim:w>235.279999</stDim:w>
            <stDim:h>45.841980</stDim:h>
            <stDim:unit>Pixels</stDim:unit>
         </xmpTPg:MaxPageSize>
         <xmpTPg:PlateNames>
            <rdf:Seq>
               <rdf:li>Cyan</rdf:li>
               <rdf:li>Magenta</rdf:li>
               <rdf:li>Yellow</rdf:li>
               <rdf:li>Black</rdf:li>
            </rdf:Seq>
         </xmpTPg:PlateNames>
         <xmpTPg:SwatchGroups>
            <rdf:Seq>
               <rdf:li rdf:parseType="Resource">
                  <xmpG:groupName>Grupo de muestras por defecto</xmpG:groupName>
                  <xmpG:groupType>0</xmpG:groupType>
               </rdf:li>
            </rdf:Seq>
         </xmpTPg:SwatchGroups>
         <pdf:Producer>Adobe PDF library 10.01</pdf:Producer>
      </rdf:Description>
   </rdf:RDF>
</x:xmpmeta>
                                                                                                    
                                                                                                    
                                                                                                    
                                                                                                    
                                                                                                    
                                                                                                    
                                                                                                    
                                                                                                    
                                                                                                    
                                                                                                    
                                                                                                    
                                                                                                    
                                                                                                    
                                                                                                    
                                                                                                    
                                                                                                    
                                                                                                    
                                                                                                    
                                                                                                    
                                                                                                    
                           
<?xpacket end="w"?>
	</metadata>
<g>
	<g>
		<g>
			
				<linearGradient id="SVGID_1_" gradientUnits="userSpaceOnUse" x1="1.125" y1="589.205" x2="235.28" y2="589.205" gradientTransform="matrix(1 0 0 1 0 -565.158)">
				<stop  offset="0" style="stop-color:#783214"/>
				<stop  offset="0.5" style="stop-color:#F16529"/>
				<stop  offset="1" style="stop-color:#783214"/>
			</linearGradient>
			<polygon fill="url(#SVGID_1_)" points="227.4,40.213 117.307,45.842 6.754,40.213 1.125,2.252 235.28,2.252 			"/>
		</g>
		<g>
			
				<linearGradient id="SVGID_2_" gradientUnits="userSpaceOnUse" x1="0" y1="25.047" x2="234.154" y2="25.047" gradientTransform="matrix(1 0 0 -1 0 46.842)">
				<stop  offset="0" style="stop-color:#404040"/>
				<stop  offset="0.5" style="stop-color:#9F9F9F"/>
				<stop  offset="0.9947" style="stop-color:#404040"/>
			</linearGradient>
			<polygon fill="url(#SVGID_2_)" points="226.274,37.962 116.182,43.59 5.628,37.962 0,0 234.154,0 			"/>
		</g>
	</g>
	<g>
		<g>
			<path d="M71.079,27.826V15.053h1.69v12.773H71.079z"/>
			<path d="M75.548,27.826v-9.253h1.412v1.316c0.68-1.017,1.66-1.525,2.944-1.525c0.558,0,1.07,0.1,1.538,0.301
				c0.467,0.2,0.817,0.463,1.05,0.789c0.231,0.325,0.396,0.711,0.487,1.159c0.059,0.291,0.088,0.799,0.088,1.525v5.689h-1.568
				v-5.628c0-0.639-0.061-1.117-0.184-1.434c-0.121-0.316-0.338-0.569-0.648-0.758s-0.676-0.283-1.094-0.283
				c-0.668,0-1.244,0.212-1.729,0.636c-0.485,0.424-0.728,1.229-0.728,2.413v5.054L75.548,27.826L75.548,27.826z"/>
			<path d="M88.897,26.424l0.227,1.385c-0.442,0.093-0.837,0.14-1.185,0.14c-0.57,0-1.012-0.09-1.324-0.27
				c-0.314-0.18-0.535-0.417-0.663-0.71s-0.191-0.91-0.191-1.852v-5.323h-1.15v-1.22h1.15v-2.292l1.56-0.941v3.232h1.577v1.22H87.32
				v5.411c0,0.447,0.027,0.735,0.082,0.862c0.056,0.128,0.146,0.23,0.271,0.305c0.124,0.076,0.303,0.113,0.535,0.113
				C88.382,26.485,88.613,26.464,88.897,26.424z"/>
			<path d="M90.413,27.826v-9.253h1.411v1.403c0.361-0.656,0.693-1.089,0.998-1.298s0.641-0.314,1.006-0.314
				c0.529,0,1.066,0.168,1.612,0.505l-0.54,1.455c-0.383-0.227-0.767-0.34-1.15-0.34c-0.342,0-0.65,0.104-0.924,0.31
				c-0.272,0.206-0.467,0.492-0.583,0.858c-0.175,0.558-0.262,1.167-0.262,1.83v4.844C91.981,27.826,90.413,27.826,90.413,27.826z"
				/>
			<path d="M95.789,23.2c0-1.713,0.477-2.983,1.43-3.808c0.795-0.686,1.766-1.028,2.91-1.028c1.271,0,2.311,0.417,3.119,1.25
				c0.807,0.833,1.211,1.985,1.211,3.455c0,1.191-0.179,2.127-0.536,2.81s-0.877,1.212-1.56,1.59s-1.428,0.566-2.234,0.566
				c-1.296,0-2.343-0.415-3.142-1.246C96.188,25.959,95.789,24.762,95.789,23.2z M97.401,23.2c0,1.185,0.259,2.072,0.775,2.662
				c0.517,0.59,1.167,0.884,1.952,0.884c0.777,0,1.426-0.296,1.942-0.889c0.517-0.592,0.775-1.496,0.775-2.709
				c0-1.145-0.26-2.011-0.78-2.601c-0.52-0.589-1.166-0.884-1.938-0.884c-0.785,0-1.436,0.293-1.952,0.88
				C97.66,21.129,97.401,22.015,97.401,23.2z"/>
			<path d="M112.3,27.826v-1.167c-0.588,0.918-1.45,1.376-2.588,1.376c-0.738,0-1.416-0.203-2.035-0.61
				c-0.619-0.406-1.098-0.974-1.438-1.703s-0.51-1.567-0.51-2.514c0-0.924,0.154-1.762,0.462-2.514s0.77-1.329,1.386-1.73
				c0.615-0.4,1.304-0.601,2.064-0.601c0.558,0,1.055,0.118,1.49,0.353s0.789,0.542,1.063,0.919v-4.583h1.561v12.773L112.3,27.826
				L112.3,27.826z M107.341,23.209c0,1.185,0.25,2.071,0.75,2.657c0.5,0.587,1.089,0.88,1.769,0.88c0.686,0,1.269-0.28,1.747-0.841
				c0.479-0.561,0.719-1.416,0.719-2.566c0-1.266-0.244-2.196-0.732-2.788c-0.487-0.592-1.088-0.889-1.803-0.889
				c-0.697,0-1.279,0.285-1.747,0.854S107.341,21.983,107.341,23.209z"/>
			<path d="M122.285,27.826v-1.359c-0.721,1.046-1.699,1.568-2.936,1.568c-0.547,0-1.057-0.104-1.529-0.313
				c-0.474-0.209-0.825-0.472-1.055-0.789s-0.391-0.704-0.483-1.163c-0.063-0.308-0.096-0.796-0.096-1.464v-5.733h1.568v5.132
				c0,0.819,0.032,1.371,0.096,1.655c0.099,0.413,0.308,0.736,0.628,0.972c0.318,0.235,0.714,0.353,1.184,0.353
				c0.471,0,0.912-0.12,1.325-0.361c0.412-0.241,0.704-0.569,0.876-0.985c0.171-0.415,0.256-1.018,0.256-1.808v-4.958h1.568v9.253
				C123.687,27.826,122.285,27.826,122.285,27.826z"/>
			<path d="M132.183,24.437l1.542,0.2c-0.169,1.063-0.6,1.895-1.294,2.496c-0.693,0.602-1.547,0.902-2.557,0.902
				c-1.267,0-2.285-0.414-3.055-1.242c-0.77-0.828-1.154-2.014-1.154-3.559c0-0.999,0.166-1.873,0.497-2.623
				s0.835-1.312,1.512-1.686s1.413-0.562,2.208-0.562c1.006,0,1.827,0.254,2.467,0.763c0.639,0.508,1.048,1.23,1.229,2.165
				l-1.525,0.235c-0.145-0.622-0.402-1.089-0.771-1.403c-0.368-0.314-0.814-0.471-1.337-0.471c-0.79,0-1.433,0.283-1.926,0.85
				s-0.74,1.462-0.74,2.688c0,1.243,0.237,2.146,0.714,2.709c0.477,0.563,1.098,0.845,1.865,0.845c0.615,0,1.129-0.188,1.542-0.566
				C131.812,25.802,132.073,25.221,132.183,24.437z"/>
			<path d="M141.105,24.437l1.542,0.2c-0.169,1.063-0.6,1.895-1.294,2.496c-0.693,0.602-1.547,0.902-2.557,0.902
				c-1.267,0-2.285-0.414-3.055-1.242c-0.77-0.828-1.154-2.014-1.154-3.559c0-0.999,0.166-1.873,0.497-2.623
				s0.835-1.312,1.512-1.686s1.413-0.562,2.208-0.562c1.006,0,1.827,0.254,2.467,0.763c0.639,0.508,1.048,1.23,1.229,2.165
				l-1.525,0.235c-0.145-0.622-0.402-1.089-0.771-1.403c-0.368-0.314-0.814-0.471-1.337-0.471c-0.79,0-1.433,0.283-1.926,0.85
				s-0.74,1.462-0.74,2.688c0,1.243,0.237,2.146,0.714,2.709s1.098,0.845,1.865,0.845c0.615,0,1.129-0.188,1.542-0.566
				C140.734,25.802,140.995,25.221,141.105,24.437z"/>
			<path d="M143.998,16.857v-1.804h1.568v1.804H143.998z M143.998,27.826v-9.253h1.568v9.253H143.998z"/>
			<path d="M147.37,23.2c0-1.713,0.477-2.983,1.429-3.808c0.797-0.686,1.766-1.028,2.91-1.028c1.272,0,2.313,0.417,3.119,1.25
				c0.808,0.833,1.211,1.985,1.211,3.455c0,1.191-0.178,2.127-0.535,2.81s-0.877,1.212-1.56,1.59s-1.428,0.566-2.235,0.566
				c-1.295,0-2.342-0.415-3.141-1.246C147.769,25.959,147.37,24.762,147.37,23.2z M148.982,23.2c0,1.185,0.258,2.072,0.775,2.662
				s1.168,0.884,1.951,0.884c0.779,0,1.426-0.296,1.943-0.889c0.518-0.592,0.775-1.496,0.775-2.709c0-1.145-0.26-2.011-0.779-2.601
				c-0.521-0.589-1.166-0.884-1.939-0.884c-0.783,0-1.435,0.293-1.951,0.88C149.24,21.129,148.982,22.015,148.982,23.2z
				 M150.837,17.423l1.159-2.439h2.056l-1.916,2.439H150.837z"/>
			<path d="M157.877,27.826v-9.253h1.411v1.316c0.68-1.017,1.662-1.525,2.945-1.525c0.558,0,1.07,0.1,1.538,0.301
				c0.468,0.2,0.817,0.463,1.05,0.789s0.395,0.711,0.488,1.159c0.058,0.291,0.087,0.799,0.087,1.525v5.689h-1.568v-5.628
				c0-0.639-0.062-1.117-0.183-1.434c-0.123-0.316-0.339-0.569-0.65-0.758c-0.311-0.189-0.674-0.283-1.093-0.283
				c-0.668,0-1.245,0.212-1.729,0.636c-0.485,0.424-0.728,1.229-0.728,2.413v5.054L157.877,27.826L157.877,27.826z"/>
		</g>
	</g>
	<polygon fill="#F1F1F1" stroke="#000000" stroke-linecap="round" stroke-linejoin="round" stroke-miterlimit="10" points="
		203.317,32.463 215.832,19.948 203.317,7.433 	"/>
	<g>
		<g>
			<path d="M44.939,12.249c-0.001-0.136-0.045-0.269-0.138-0.376L39.1,5.361c-0.001-0.002-0.003-0.003-0.004-0.004
				c-0.035-0.038-0.073-0.069-0.116-0.097c-0.012-0.008-0.025-0.015-0.038-0.023c-0.036-0.02-0.074-0.036-0.114-0.048
				c-0.01-0.003-0.02-0.007-0.031-0.01c-0.043-0.01-0.088-0.016-0.133-0.016H24.652c-0.639,0-1.16,0.52-1.16,1.16v27.25
				c0,0.64,0.521,1.16,1.16,1.16h19.133c0.64,0,1.16-0.52,1.16-1.16V12.314C44.945,12.292,44.941,12.271,44.939,12.249z
				 M24.652,6.323h13.432v5.932c0,0.32,0.259,0.58,0.58,0.58h5.121v12.017H24.652V6.323z"/>
			<g>
				<path fill="#F1F1F1" d="M24.813,31.975V27.48h0.908v4.495C25.721,31.975,24.813,31.975,24.813,31.975z"/>
				<path fill="#F1F1F1" d="M26.594,31.975V27.48h0.884l1.839,3.001V27.48h0.844v4.495H29.25l-1.812-2.931v2.931
					C27.438,31.975,26.594,31.975,26.594,31.975z"/>
				<path fill="#F1F1F1" d="M32.132,31.975v-3.734h-1.334v-0.76h3.571v0.76h-1.33v3.734H32.132z"/>
				<path fill="#F1F1F1" d="M34.958,31.975V27.48h1.91c0.48,0,0.829,0.041,1.047,0.121s0.393,0.224,0.523,0.431
					c0.13,0.207,0.195,0.442,0.195,0.708c0,0.337-0.099,0.616-0.297,0.835s-0.495,0.358-0.89,0.415
					c0.196,0.115,0.358,0.24,0.486,0.377c0.128,0.137,0.3,0.38,0.517,0.729l0.549,0.877h-1.085l-0.656-0.978
					c-0.233-0.35-0.393-0.57-0.479-0.661s-0.177-0.153-0.272-0.187c-0.097-0.034-0.249-0.051-0.457-0.051h-0.185v1.876h-0.906
					V31.975z M35.866,29.382h0.672c0.436,0,0.707-0.019,0.815-0.055s0.193-0.1,0.255-0.19S37.7,28.934,37.7,28.8
					c0-0.151-0.04-0.273-0.121-0.366c-0.081-0.093-0.194-0.152-0.342-0.177c-0.073-0.01-0.295-0.015-0.662-0.015h-0.709
					C35.866,28.242,35.866,29.382,35.866,29.382z"/>
				<path fill="#F1F1F1" d="M39.306,29.756c0-0.458,0.068-0.842,0.205-1.153c0.103-0.229,0.242-0.434,0.419-0.616
					s0.37-0.317,0.581-0.405c0.279-0.119,0.603-0.178,0.969-0.178c0.662,0,1.191,0.206,1.589,0.616
					c0.398,0.411,0.597,0.982,0.597,1.714c0,0.726-0.197,1.293-0.592,1.703s-0.922,0.615-1.582,0.615
					c-0.668,0-1.199-0.204-1.594-0.612S39.306,30.471,39.306,29.756z M40.241,29.725c0,0.509,0.118,0.895,0.353,1.158
					c0.235,0.262,0.534,0.394,0.896,0.394s0.658-0.13,0.891-0.391s0.348-0.652,0.348-1.173c0-0.515-0.112-0.899-0.339-1.153
					c-0.226-0.253-0.525-0.38-0.899-0.38s-0.676,0.128-0.904,0.385C40.355,28.821,40.241,29.208,40.241,29.725z"/>
			</g>
			<g>
				<path d="M30.589,18.714h-0.961V17.16H30.9l0.424-2.084h-1.695v-1.562h2.014l0.558-2.755h1.583l-0.559,2.755h1.562l0.544-2.755
					h1.64l-0.565,2.755h0.975v1.562h-1.293l-0.424,2.084h1.717v1.554h-2.034l-0.559,2.755H33.21l0.544-2.755h-1.568l-0.559,2.755
					H30.03L30.589,18.714z M32.914,15.075l-0.417,2.084h1.568l0.41-2.084C34.475,15.075,32.914,15.075,32.914,15.075z"/>
			</g>
		</g>
	</g>
</g>
</svg>
