<?xml version="1.0" encoding="utf-8"?>
<!-- Generator: Adobe Illustrator 17.0.0, SVG Export Plug-In . SVG Version: 6.00 Build 0)  -->
<!DOCTYPE svg PUBLIC "-//W3C//DTD SVG 1.1//EN" "http://www.w3.org/Graphics/SVG/1.1/DTD/svg11.dtd" [
	<!ENTITY ns_extend "http://ns.adobe.com/Extensibility/1.0/">
	<!ENTITY ns_ai "http://ns.adobe.com/AdobeIllustrator/10.0/">
	<!ENTITY ns_graphs "http://ns.adobe.com/Graphs/1.0/">
	<!ENTITY ns_vars "http://ns.adobe.com/Variables/1.0/">
	<!ENTITY ns_imrep "http://ns.adobe.com/ImageReplacement/1.0/">
	<!ENTITY ns_sfw "http://ns.adobe.com/SaveForWeb/1.0/">
	<!ENTITY ns_custom "http://ns.adobe.com/GenericCustomNamespace/1.0/">
	<!ENTITY ns_adobe_xpath "http://ns.adobe.com/XPath/1.0/">
]>
<svg version="1.1" id="Capa_1" xmlns:x="&ns_extend;" xmlns:i="&ns_ai;" xmlns:graph="&ns_graphs;"
	 xmlns="http://www.w3.org/2000/svg" xmlns:xlink="http://www.w3.org/1999/xlink" x="0px" y="0px" width="235.28px"
	 height="45.843px" viewBox="0 0 235.28 45.843" enable-background="new 0 0 235.28 45.843" xml:space="preserve">
<metadata><?xpacket begin="﻿" id="W5M0MpCehiHzreSzNTczkc9d"?>
<x:xmpmeta xmlns:x="adobe:ns:meta/" x:xmptk="Adobe XMP Core 5.5-c014 79.151739, 2013/04/03-12:12:15        ">
   <rdf:RDF xmlns:rdf="http://www.w3.org/1999/02/22-rdf-syntax-ns#">
      <rdf:Description rdf:about=""
            xmlns:dc="http://purl.org/dc/elements/1.1/"
            xmlns:xmp="http://ns.adobe.com/xap/1.0/"
            xmlns:xmpGImg="http://ns.adobe.com/xap/1.0/g/img/"
            xmlns:xmpMM="http://ns.adobe.com/xap/1.0/mm/"
            xmlns:stRef="http://ns.adobe.com/xap/1.0/sType/ResourceRef#"
            xmlns:stEvt="http://ns.adobe.com/xap/1.0/sType/ResourceEvent#"
            xmlns:illustrator="http://ns.adobe.com/illustrator/1.0/"
            xmlns:xmpTPg="http://ns.adobe.com/xap/1.0/t/pg/"
            xmlns:stDim="http://ns.adobe.com/xap/1.0/sType/Dimensions#"
            xmlns:xmpG="http://ns.adobe.com/xap/1.0/g/"
            xmlns:pdf="http://ns.adobe.com/pdf/1.3/">
         <dc:format>image/svg+xml</dc:format>
         <dc:title>
            <rdf:Alt>
               <rdf:li xml:lang="x-default">Imprimir</rdf:li>
            </rdf:Alt>
         </dc:title>
         <xmp:MetadataDate>2017-08-14T13:41:17-05:00</xmp:MetadataDate>
         <xmp:ModifyDate>2017-08-14T13:41:17-05:00</xmp:ModifyDate>
         <xmp:CreateDate>2017-08-14T13:41:16-05:00</xmp:CreateDate>
         <xmp:CreatorTool>Adobe Illustrator CC (Windows)</xmp:CreatorTool>
         <xmp:Thumbnails>
            <rdf:Alt>
               <rdf:li rdf:parseType="Resource">
                  <xmpGImg:width>256</xmpGImg:width>
                  <xmpGImg:height>52</xmpGImg:height>
                  <xmpGImg:format>JPEG</xmpGImg:format>
                  <xmpGImg:image>/9j/4AAQSkZJRgABAgEASABIAAD/7QAsUGhvdG9zaG9wIDMuMAA4QklNA+0AAAAAABAASAAAAAEA&#xA;AQBIAAAAAQAB/+4ADkFkb2JlAGTAAAAAAf/bAIQABgQEBAUEBgUFBgkGBQYJCwgGBggLDAoKCwoK&#xA;DBAMDAwMDAwQDA4PEA8ODBMTFBQTExwbGxscHx8fHx8fHx8fHwEHBwcNDA0YEBAYGhURFRofHx8f&#xA;Hx8fHx8fHx8fHx8fHx8fHx8fHx8fHx8fHx8fHx8fHx8fHx8fHx8fHx8fHx8f/8AAEQgANAEAAwER&#xA;AAIRAQMRAf/EAaIAAAAHAQEBAQEAAAAAAAAAAAQFAwIGAQAHCAkKCwEAAgIDAQEBAQEAAAAAAAAA&#xA;AQACAwQFBgcICQoLEAACAQMDAgQCBgcDBAIGAnMBAgMRBAAFIRIxQVEGE2EicYEUMpGhBxWxQiPB&#xA;UtHhMxZi8CRygvElQzRTkqKyY3PCNUQnk6OzNhdUZHTD0uIIJoMJChgZhJRFRqS0VtNVKBry4/PE&#xA;1OT0ZXWFlaW1xdXl9WZ2hpamtsbW5vY3R1dnd4eXp7fH1+f3OEhYaHiImKi4yNjo+Ck5SVlpeYmZ&#xA;qbnJ2en5KjpKWmp6ipqqusra6voRAAICAQIDBQUEBQYECAMDbQEAAhEDBCESMUEFURNhIgZxgZEy&#xA;obHwFMHR4SNCFVJicvEzJDRDghaSUyWiY7LCB3PSNeJEgxdUkwgJChgZJjZFGidkdFU38qOzwygp&#xA;0+PzhJSktMTU5PRldYWVpbXF1eX1RlZmdoaWprbG1ub2R1dnd4eXp7fH1+f3OEhYaHiImKi4yNjo&#xA;+DlJWWl5iZmpucnZ6fkqOkpaanqKmqq6ytrq+v/aAAwDAQACEQMRAD8A55rennTdd1HTiKGzuprc&#xA;jw9KQp/DFVBMVRCYqgZPMMcdxLBDZXd36LcJJIIwyB6Alall3FcVVE8zOP8ApT6l/wAiV/5rxVH6&#xA;J5gsdUaeKJZIbm3bjNbTgLIvvxBbbFU7TFUQmKohMVRCYqiExVEJiqITFUQmKohMVRCYq1J3xVDy&#xA;d8VQ74qh3xVDviqHfFUO+Kod8VQ74qh3xVDviqHfFUO+Kod8VQ74qjvKs2ow+Z9Kk0xlTUBdRC0d&#xA;lDgSs4VDxaoNGOVZpER25t+ngJS35c0//OLT/qH5na/DSgkuBcD3+sRrMfxfLWhiaYqiExVBeX/7&#xA;7Vf+Y5/+TceKphYapDdW8UqgI1xzNtEzDk4Qnf7t/bFWDJpfmg6rL5k0yIJDI7zrykTdKksjrUV6&#xA;UOKvTtKu/rmn2t5x4fWYY5uHWnNQ1PxxVMExVEJiqITFUQmKohMVRCYqiExVEJiqITFWpO+KoeTv&#xA;iqHfFUO+Kod8VQ74qh3xVDviqHfFUO+Kod8VRHlrytbeafN+k6JcTyWq3H1po7mE/FHJHayPG1Ds&#xA;wDLup6jbFUJ5h0HWfLusS6NrUIivohzjkSvpTxE0WaFj1U9x1U7HFUqfFUO+Ks0/JLSP0l+ZmjqV&#xA;rHau93IfD0ELof8AkYFyjLvKI+PycnDtCcvKvmn3/OSmn/VvzBhulHw3tjFIzbfbR3jI/wCBRcvc&#xA;Z5cmKohMVQGiRpKdYikFUe8kVh0qDFGD0xVHaVZXlrZ2kDOP9EVo2QAESKNo9/2dqYqustPNh5fn&#xA;henrvHLLcMtSDJICzHfFUd5Z/wCUe0v/AJhIP+TS4qnKYqiExVEJiqITFWE+UPNgsPKC3uqS3F9c&#xA;TX0ttbRgtNPI5b4I05HwHc4qn1n56iknu7O50u8s9QtbV71LSVU5TRJsfTKsQWrtTFUfP510yDyz&#xA;aa+kck8N8YUtbaPj6ryzHiIxUheSmtd+2KrL38wIIL28tbHSr7VDpppqE1qiGOJqVKVdlLMO4AxV&#xA;L/Onm6S58saLqumXdxY6DqNyi6pqNupFxBbkkGlAxQ8hQsO/Std1WvLtqi6zZ3XlTzM+saY5YaxY&#xA;3t39YcIR8Ekakc0YHrWlcVR+r/mLZWl1fQ2mm3upw6YSNTu7WNTDCUFXXkzLyZP2gOmKoO//ADN0&#xA;yO8gtLGwvNUlubWO9gFpGHJicmtRUEFab7ddsVQcHm7T9Msde1O4a+mittR9GeG4ZXMTPwXhCAxA&#xA;jXl0riqIs/O8FzeJZ3Gm3unz3Mby2K3Uap64QciqkMaPT9k4ql/kTzBqerLqX16GYGO7m9OaQIEV&#xA;QQogHE/aQdcVZK+Kod8VQ74qh3xVDvirIvyn/wDJpeX/AJ3n/UHLir3vz55D0bzloxsL8GK4iJk0&#xA;/UIwPVt5aU5LXqp6Oh2YfQQq+TLyCS01G+06WWK4m0+d7WW5tm5wSNGaFon7jxHY1B3GKoV8Ve0f&#xA;84u6T6uu6zqzL8NrbJbIx/muH5mn0QfjlA3yHyDlS2wgfzpX8tkw/wCcpdP/AOUe1BRv/pNvIf8A&#xA;kW6f8bZe4rwhMVRCYqwHUvNGq6VrGoW9oyCN5zIeShjyKqP+NcVZX5bs/wAwdd0uz1S2vNPgsbpr&#xA;4NLOstYU02FJ55JEjjkYrxlHERhmJ7YqxXUPPfmGOa6sxdW11CrSQ/WYY29ORQSvOPmEfiw3HJQf&#xA;EDFXpnln/lHtL/5hIP8Ak0uKpymKohMVRCYqkGq+Z9T0fXDHcafPdaTLADay2cLSv64ajJJQ7V7b&#xA;Yqx+3s/M2keStLjEd1aJc3rTasLRPUu4YJWLLxHE8T0rtUH7sVRfla1ZfP8Ab3cNvqj2EtjLAt9q&#xA;YkZ3kDhz9vdFp0qBU4qraB5c1VPOUeiTwOvl7QbmfU7GUqfTc3AUwRKaUJiZ3b78VdqMmrXWsazb&#xA;6z+nHm9eSPSNO00SRWc1vx/dM8qAA1/bLNt+pVG+XbvzVo3kXy5cWunTXVnaG4i13SfSH1lo2kcI&#xA;0asOR4k8qDqPauKqL2+n655o0W88r+X7rSJ7S6WfUtSktvqcRt1/vYSBQSO/TxxVV03V7/ykde0u&#xA;40e9u7me9ub3TZbeBpYJ1uKempda8TX7XhiqI0G31d/Phv8AUrMW076JCkvpq3opIZuTRK24qoAq&#xA;K4qxrW4Ly20LzVI1u/KTXo5LdHUqJR6sfHiT1BO1cVTee+vPM+vaMbbTbyxttMma6vLi8hMNGC8R&#xA;Cla8mJPxUxVd5Hae1m1jTLm1ngnF9cXKySRlYnjkcBSjnZsVZK+Kod8VQ74qh3xVDvirIvyn/wDJ&#xA;peX/AJ3n/UHLirJfzg/OCW/kufKvlW5KWqFodZ1mFqEkbPa2rjv2kkHT7K71IVeOrFFDEsUShI0H&#xA;FEUUAA7DFVJ8VfTn/ONukfVPIct8w+PUbuR1P/FcQEQH/Bq+UYN7PeXK1O3DHuiPt3b/AOclNP8A&#xA;rHkCG5A+KyvoZC3gro8Z/wCGdcvcV8xpiqITFWE675L1q81e5ubcRtFM3JSXodwNiDirNYb6/t49&#xA;EtNP8vDT9P0Wa5vI0ttUmjuDd3SxoZEueBaNVEIAWh2JqcVYl5l8qeatf8xalrclra20mpXMty1v&#xA;C4EaGVi3FfYVxV6Jo9q9npdnaSENJbwRROV6EogU0r8sVTJMVRCYqiExVEJiqITFUQmKohMVRCYq&#xA;iExVqTviqHk74qh3xVKNe0a11ix+p3LOkXqRy1jIDconDr9oMKVXfFVd8VQ74qh3xVDviqHfFUO+&#xA;Kod8VQNwuoCeGaxvJLGSP1Eklh+GQxTRtFIiv1Tkr05DfwxVSSGKGJIokCRIOKIooAB2GKqT4qh3&#xA;65GcqiSzxw4pAd5faH5baSNJ8haFZU4stnHJIvhJMPVk/wCHc5DDGoANmpnxZJHzR/mry7Z+Y/L1&#xA;/ot3QRXsTRiQry9OTrHIBValHAYb9sskLDVEgEE7vF5P+cW51p6PmRH/AJudmU+6kzZjeDk/n/Y5&#xA;n5jCeeP7UNJ/zjL5gUN6Os2jmvw845EqPenOmDw8384fJPi6f+YfmoP/AM43+dVb93qGmutOrPOp&#xA;r8hC368eHP3xXi0vdP7FB/yB/MGMAqLOSvULMdv+CVcF5+6KeHSnrMfJRf8AJP8AMiPlx0+KWnTh&#xA;cQivy5Mv44+Jn/mj5p8LSn+OXyUm/Kb8x4iA+iMa7/DNbt+KyHB42Yfwfan8tpzyyf7EqTfl957i&#xA;FX0K660+FeR/4WuP5nJ/qZT+Swnllj8v2rG8p+b4ifU0HUAF3ZhbSkUpXqFpg/OSHOEvkv8AJ0Ty&#xA;yw+amdK1qKgl0y7jJ6coJB+sY/n49Yy+Sf5KkeU4H4/sWkyRAmWKSMKaEshFD9OD+UcfW/kn+R8x&#xA;5cJ+KpHdwfzfgcI7Sw9/2FB7G1P837QiI7q3/n/Xkh2hh/nfewPZOpH8H3frRMdzB/vwZIa3D/OD&#xA;WezdQP4JImOeA0/eL94yY1WI/wAUfmGB0Wcc4S/0pRMcsZ6OPvGTGaB/iHzazp8g5xl8i6SWIVq6&#xA;/eMB1GMc5D5hkNLlPKEvkUNJcQf78X7xkDq8X86PzbB2fqD/AAS+RQslzB/OMgddhH8QZjsvUn+A&#xA;oeS6g/m/A5E9o4P532H9TYOx9Sf4PtH60M91D4n7sge08Pf9jMdi6juHzWhZ5aelBLJy+zwQmvyp&#xA;j/KWPoJH4L/I2UczEfFcNI1yUExaXeOBsSsEh3+gYfz4PKMvkv8AJRHOcPmqDyf5ykai6DqFaV+K&#xA;2lUfeyjH85P/AFOSP5Oxjnlh+PivX8uvPstOGh3I5dOQCffyIp9OH8zlPLGfmj8lgHPKPl+1UX8p&#xA;PzIlrx0VhTrynt1/4lIMfGzn+D7Ufl9MOeT7CrJ+SH5jSEBrKGOorVriKg9vhZsPHqP5sfx8UeHp&#xA;B/FL8fBWT/nH7z9IAWayiqaEPM23ueKNh/wg/wA1H+CD+eUQn/ON3nJq+rqOnJ/Lxedv1xLjw5++&#xA;KOPS/wA2X4+KIj/5xk1tivra1bICPi4RSPQ07VKVw+Hm/nfYvjaccoH5oq3/AOcXTyVrjzEKBgWj&#xA;S0JqvccjMKV+WJ08zsZfYo1eOJuMN/e94VVVQqgKqigA2AAzLde3irsVdirsVdirsVdirsVdirsV&#xA;diqHuP0dyP1j0eVN/U41p9ORlw9WceLpaWT/AOCaD1/0bT9nn6FK+1cpl4PXh+xyY/mOnH9qXT/8&#xA;qr+P1f0Ly/bp9V51+j4spl+V68H2ORD8908X/ZIGb/lT/Icv0dWm3p9P+E2ymX5P+i5Ef5R6caXy&#xA;/wDKlOI5enSv7H1uv/Cb5jy/I/jicuP8qdL/ANh+ldD/AMqWovH0qV29T6149+f8cMfyPSv9kif8&#xA;qdb/ANj+hHw/8qh+Lj+ju1fUp+HP+GXx/J/0XFn/ACj14/x7kwt/+VYVX0f0Lyp8NPqvKlP+Cy6P&#xA;5bpwfY40/wA718X/AGSYQf4N4/uP0dxr+x6FK/Rl0fB6cP2OPL8x14/tTOD6lU/V/T5ftenxrT3p&#xA;lwro48uLratkmDsVdirsVdirsVdirsVdirsVdir/AP/Z</xmpGImg:image>
               </rdf:li>
            </rdf:Alt>
         </xmp:Thumbnails>
         <xmpMM:InstanceID>xmp.iid:1304ae71-66ba-1246-a7e6-a4755eb2a88b</xmpMM:InstanceID>
         <xmpMM:DocumentID>xmp.did:1304ae71-66ba-1246-a7e6-a4755eb2a88b</xmpMM:DocumentID>
         <xmpMM:OriginalDocumentID>uuid:5D20892493BFDB11914A8590D31508C8</xmpMM:OriginalDocumentID>
         <xmpMM:RenditionClass>proof:pdf</xmpMM:RenditionClass>
         <xmpMM:DerivedFrom rdf:parseType="Resource">
            <stRef:instanceID>xmp.iid:9632bbfa-e7aa-9149-8890-086b45e44cdd</stRef:instanceID>
            <stRef:documentID>xmp.did:9632bbfa-e7aa-9149-8890-086b45e44cdd</stRef:documentID>
            <stRef:originalDocumentID>uuid:5D20892493BFDB11914A8590D31508C8</stRef:originalDocumentID>
            <stRef:renditionClass>proof:pdf</stRef:renditionClass>
         </xmpMM:DerivedFrom>
         <xmpMM:History>
            <rdf:Seq>
               <rdf:li rdf:parseType="Resource">
                  <stEvt:action>saved</stEvt:action>
                  <stEvt:instanceID>xmp.iid:c34fcb8d-e8f1-8b48-96f0-dfe390e32e91</stEvt:instanceID>
                  <stEvt:when>2017-08-14T12:20:04-05:00</stEvt:when>
                  <stEvt:softwareAgent>Adobe Illustrator CC (Windows)</stEvt:softwareAgent>
                  <stEvt:changed>/</stEvt:changed>
               </rdf:li>
               <rdf:li rdf:parseType="Resource">
                  <stEvt:action>saved</stEvt:action>
                  <stEvt:instanceID>xmp.iid:1304ae71-66ba-1246-a7e6-a4755eb2a88b</stEvt:instanceID>
                  <stEvt:when>2017-08-14T13:41:17-05:00</stEvt:when>
                  <stEvt:softwareAgent>Adobe Illustrator CC (Windows)</stEvt:softwareAgent>
                  <stEvt:changed>/</stEvt:changed>
               </rdf:li>
            </rdf:Seq>
         </xmpMM:History>
         <illustrator:StartupProfile>Print</illustrator:StartupProfile>
         <xmpTPg:HasVisibleOverprint>False</xmpTPg:HasVisibleOverprint>
         <xmpTPg:HasVisibleTransparency>False</xmpTPg:HasVisibleTransparency>
         <xmpTPg:NPages>1</xmpTPg:NPages>
         <xmpTPg:MaxPageSize rdf:parseType="Resource">
            <stDim:w>235.279999</stDim:w>
            <stDim:h>45.843018</stDim:h>
            <stDim:unit>Pixels</stDim:unit>
         </xmpTPg:MaxPageSize>
         <xmpTPg:PlateNames>
            <rdf:Seq>
               <rdf:li>Cyan</rdf:li>
               <rdf:li>Magenta</rdf:li>
               <rdf:li>Yellow</rdf:li>
               <rdf:li>Black</rdf:li>
            </rdf:Seq>
         </xmpTPg:PlateNames>
         <xmpTPg:SwatchGroups>
            <rdf:Seq>
               <rdf:li rdf:parseType="Resource">
                  <xmpG:groupName>Grupo de muestras por defecto</xmpG:groupName>
                  <xmpG:groupType>0</xmpG:groupType>
               </rdf:li>
            </rdf:Seq>
         </xmpTPg:SwatchGroups>
         <pdf:Producer>Adobe PDF library 10.01</pdf:Producer>
      </rdf:Description>
   </rdf:RDF>
</x:xmpmeta>
                                                                                                    
                                                                                                    
                                                                                                    
                                                                                                    
                                                                                                    
                                                                                                    
                                                                                                    
                                                                                                    
                                                                                                    
                                                                                                    
                                                                                                    
                                                                                                    
                                                                                                    
                                                                                                    
                                                                                                    
                                                                                                    
                                                                                                    
                                                                                                    
                                                                                                    
                                                                                                    
                           
<?xpacket end="w"?>
	</metadata>
<g>
	<g>
		<g>
			
				<linearGradient id="SVGID_1_" gradientUnits="userSpaceOnUse" x1="1.125" y1="589.205" x2="235.28" y2="589.205" gradientTransform="matrix(1 0 0 1 0 -565.157)">
				<stop  offset="0" style="stop-color:#783214"/>
				<stop  offset="0.5" style="stop-color:#F16529"/>
				<stop  offset="1" style="stop-color:#783214"/>
			</linearGradient>
			<polygon fill="url(#SVGID_1_)" points="227.4,40.214 117.307,45.843 6.754,40.214 1.125,2.253 235.28,2.253 			"/>
		</g>
		<g>
			
				<linearGradient id="SVGID_2_" gradientUnits="userSpaceOnUse" x1="0" y1="25.0475" x2="234.154" y2="25.0475" gradientTransform="matrix(1 0 0 -1 0 46.843)">
				<stop  offset="0" style="stop-color:#404040"/>
				<stop  offset="0.5" style="stop-color:#9F9F9F"/>
				<stop  offset="0.9947" style="stop-color:#404040"/>
			</linearGradient>
			<polygon fill="url(#SVGID_2_)" points="226.274,37.962 116.182,43.591 5.628,37.962 0,0 234.154,0 			"/>
		</g>
	</g>
	<polygon fill="#F1F1F1" stroke="#000000" stroke-linecap="round" stroke-linejoin="round" stroke-miterlimit="10" points="
		203.317,32.897 215.832,20.382 203.317,7.867 	"/>
	<g>
		<path d="M75.929,24.887l1.524-0.209c0.04,0.976,0.224,1.644,0.549,2.004s0.775,0.54,1.351,0.54c0.424,0,0.789-0.097,1.098-0.292
			c0.308-0.194,0.52-0.458,0.637-0.793c0.115-0.333,0.174-0.866,0.174-1.599v-8.8h1.689v8.704c0,1.069-0.129,1.896-0.387,2.483
			c-0.259,0.587-0.668,1.034-1.229,1.342s-1.219,0.462-1.975,0.462c-1.121,0-1.979-0.322-2.574-0.968
			C76.191,27.117,75.906,26.159,75.929,24.887z"/>
		<path d="M91.55,27.37c-0.58,0.494-1.14,0.842-1.677,1.046c-0.537,0.203-1.114,0.305-1.729,0.305c-1.017,0-1.798-0.248-2.344-0.745
			c-0.547-0.497-0.819-1.131-0.819-1.903c0-0.453,0.104-0.867,0.31-1.242c0.206-0.374,0.477-0.675,0.811-0.901
			s0.71-0.398,1.128-0.515c0.308-0.081,0.772-0.159,1.394-0.235c1.268-0.15,2.199-0.331,2.797-0.54
			c0.006-0.215,0.01-0.352,0.01-0.409c0-0.639-0.148-1.089-0.445-1.351c-0.4-0.354-0.996-0.531-1.785-0.531
			c-0.738,0-1.283,0.129-1.635,0.388s-0.611,0.716-0.779,1.372L85.254,21.9c0.139-0.656,0.369-1.187,0.688-1.59
			c0.32-0.404,0.781-0.715,1.387-0.933c0.604-0.218,1.303-0.327,2.1-0.327c0.789,0,1.432,0.094,1.926,0.279
			c0.493,0.186,0.855,0.42,1.088,0.701c0.232,0.282,0.396,0.638,0.488,1.067c0.053,0.268,0.078,0.749,0.078,1.446v2.091
			c0,1.458,0.033,2.381,0.101,2.767c0.067,0.387,0.199,0.757,0.396,1.111h-1.638C91.702,28.187,91.597,27.806,91.55,27.37z
			 M91.419,23.867c-0.568,0.232-1.422,0.431-2.561,0.593c-0.645,0.093-1.102,0.197-1.368,0.313c-0.268,0.116-0.474,0.286-0.618,0.51
			c-0.146,0.224-0.219,0.472-0.219,0.745c0,0.418,0.158,0.767,0.475,1.046c0.316,0.278,0.78,0.418,1.391,0.418
			c0.604,0,1.141-0.132,1.611-0.396s0.816-0.626,1.037-1.085c0.168-0.354,0.252-0.877,0.252-1.568
			C91.419,24.443,91.419,23.867,91.419,23.867z"/>
		<path d="M98.007,28.512l-3.52-9.254h1.654l1.987,5.542c0.215,0.599,0.412,1.22,0.593,1.864c0.139-0.487,0.334-1.074,0.584-1.76
			l2.056-5.646h1.612l-3.503,9.254H98.007z"/>
		<path d="M110.397,27.37c-0.581,0.494-1.14,0.842-1.677,1.046c-0.537,0.203-1.114,0.305-1.73,0.305
			c-1.016,0-1.797-0.248-2.344-0.745c-0.546-0.497-0.818-1.131-0.818-1.903c0-0.453,0.104-0.867,0.309-1.242
			c0.207-0.374,0.477-0.675,0.811-0.901s0.711-0.398,1.129-0.515c0.308-0.081,0.771-0.159,1.394-0.235
			c1.267-0.15,2.198-0.331,2.797-0.54c0.006-0.215,0.009-0.352,0.009-0.409c0-0.639-0.148-1.089-0.444-1.351
			c-0.401-0.354-0.996-0.531-1.786-0.531c-0.738,0-1.282,0.129-1.634,0.388s-0.611,0.716-0.78,1.372L104.1,21.9
			c0.14-0.656,0.369-1.187,0.688-1.59c0.319-0.404,0.781-0.715,1.386-0.933c0.604-0.218,1.304-0.327,2.1-0.327
			c0.79,0,1.432,0.094,1.926,0.279s0.856,0.42,1.089,0.701c0.232,0.282,0.396,0.638,0.487,1.067
			c0.053,0.268,0.079,0.749,0.079,1.446v2.091c0,1.458,0.033,2.381,0.101,2.767c0.066,0.387,0.199,0.757,0.396,1.111h-1.639
			C110.548,28.187,110.443,27.806,110.397,27.37z M110.266,23.867c-0.569,0.232-1.423,0.431-2.562,0.593
			c-0.645,0.093-1.101,0.197-1.367,0.313c-0.268,0.116-0.475,0.286-0.619,0.51c-0.146,0.224-0.218,0.472-0.218,0.745
			c0,0.418,0.158,0.767,0.475,1.046c0.316,0.278,0.78,0.418,1.39,0.418c0.604,0,1.142-0.132,1.611-0.396
			c0.471-0.265,0.816-0.626,1.037-1.085c0.169-0.354,0.253-0.877,0.253-1.568V23.867z"/>
		<path d="M113.909,24.407l1.595-0.139c0.075,0.639,0.251,1.163,0.527,1.572c0.275,0.409,0.703,0.741,1.285,0.993
			c0.58,0.253,1.233,0.379,1.96,0.379c0.645,0,1.214-0.096,1.708-0.287c0.493-0.191,0.861-0.454,1.102-0.789
			c0.241-0.333,0.361-0.698,0.361-1.093c0-0.401-0.115-0.751-0.348-1.05c-0.232-0.3-0.616-0.551-1.15-0.754
			c-0.343-0.134-1.102-0.341-2.274-0.623c-1.173-0.281-1.995-0.548-2.466-0.797c-0.609-0.319-1.064-0.716-1.363-1.189
			s-0.449-1.004-0.449-1.591c0-0.645,0.184-1.247,0.549-1.808c0.367-0.561,0.9-0.986,1.604-1.276s1.484-0.436,2.344-0.436
			c0.947,0,1.782,0.152,2.506,0.457c0.723,0.306,1.279,0.754,1.668,1.347c0.389,0.592,0.598,1.263,0.627,2.013l-1.62,0.122
			c-0.087-0.808-0.382-1.418-0.884-1.83c-0.504-0.412-1.245-0.618-2.227-0.618c-1.023,0-1.768,0.187-2.235,0.562
			s-0.701,0.826-0.701,1.354c0,0.459,0.165,0.837,0.497,1.133c0.324,0.297,1.174,0.601,2.548,0.911s2.316,0.582,2.827,0.814
			c0.744,0.343,1.293,0.776,1.646,1.303c0.355,0.525,0.532,1.131,0.532,1.816c0,0.68-0.194,1.32-0.584,1.921
			c-0.39,0.602-0.948,1.069-1.677,1.403c-0.729,0.334-1.55,0.501-2.462,0.501c-1.155,0-2.124-0.169-2.905-0.506
			s-1.395-0.844-1.839-1.521C114.165,26.028,113.931,25.262,113.909,24.407z"/>
		<path d="M132.223,25.122l1.542,0.2c-0.168,1.063-0.6,1.896-1.293,2.496c-0.695,0.602-1.547,0.902-2.559,0.902
			c-1.266,0-2.283-0.414-3.053-1.242c-0.771-0.827-1.154-2.014-1.154-3.559c0-0.999,0.165-1.873,0.496-2.623
			c0.331-0.749,0.835-1.312,1.512-1.686c0.676-0.375,1.412-0.563,2.209-0.563c1.004,0,1.826,0.255,2.465,0.763
			c0.64,0.509,1.049,1.23,1.229,2.165l-1.524,0.235c-0.146-0.621-0.402-1.089-0.771-1.402c-0.369-0.314-0.814-0.471-1.338-0.471
			c-0.79,0-1.432,0.283-1.926,0.85c-0.494,0.566-0.74,1.462-0.74,2.688c0,1.243,0.238,2.146,0.715,2.71
			c0.476,0.563,1.098,0.845,1.864,0.845c0.615,0,1.13-0.188,1.542-0.566C131.851,26.487,132.113,25.906,132.223,25.122z"/>
		<path d="M135.089,28.512v-9.254h1.412v1.403c0.36-0.656,0.693-1.089,0.998-1.298c0.305-0.21,0.641-0.314,1.006-0.314
			c0.529,0,1.066,0.169,1.611,0.506l-0.539,1.455c-0.384-0.227-0.768-0.34-1.15-0.34c-0.343,0-0.65,0.104-0.924,0.31
			s-0.468,0.492-0.584,0.857c-0.174,0.558-0.262,1.168-0.262,1.83v4.845H135.089z"/>
		<path d="M141.058,17.542v-1.804h1.568v1.804H141.058z M141.058,28.512v-9.254h1.568v9.254H141.058z"/>
		<path d="M145.014,32.058v-12.8h1.429v1.203c0.337-0.471,0.717-0.823,1.142-1.059c0.424-0.235,0.938-0.354,1.542-0.354
			c0.79,0,1.487,0.204,2.092,0.61c0.604,0.406,1.06,0.98,1.367,1.721c0.309,0.74,0.462,1.553,0.462,2.436
			c0,0.946-0.17,1.799-0.51,2.557c-0.339,0.759-0.833,1.339-1.481,1.743c-0.647,0.403-1.328,0.605-2.043,0.605
			c-0.522,0-0.992-0.11-1.406-0.331c-0.416-0.221-0.758-0.5-1.024-0.837v4.505L145.014,32.058L145.014,32.058z M146.435,23.938
			c0,1.19,0.24,2.07,0.723,2.64s1.065,0.854,1.751,0.854c0.697,0,1.294-0.294,1.79-0.884c0.497-0.59,0.746-1.503,0.746-2.74
			c0-1.18-0.243-2.063-0.729-2.649c-0.484-0.586-1.064-0.88-1.738-0.88c-0.668,0-1.258,0.313-1.772,0.937
			C146.691,21.839,146.435,22.746,146.435,23.938z"/>
		<path d="M158.363,27.109l0.227,1.386c-0.442,0.093-0.837,0.14-1.186,0.14c-0.569,0-1.011-0.091-1.324-0.271
			c-0.314-0.18-0.535-0.417-0.662-0.71c-0.128-0.293-0.191-0.91-0.191-1.852v-5.323h-1.15v-1.221h1.15v-2.291l1.559-0.941v3.232
			h1.578v1.221h-1.578v5.41c0,0.447,0.027,0.735,0.083,0.862c0.056,0.128,0.146,0.23,0.271,0.306s0.303,0.113,0.535,0.113
			C157.848,27.17,158.078,27.15,158.363,27.109z"/>
	</g>
	<g>
		<g>
			<path d="M44.939,11.909c-0.001-0.136-0.045-0.27-0.138-0.375L39.1,5.021c-0.002-0.001-0.003-0.003-0.004-0.005
				c-0.035-0.037-0.073-0.068-0.116-0.096c-0.012-0.008-0.024-0.016-0.038-0.023c-0.036-0.019-0.074-0.035-0.114-0.047
				c-0.01-0.004-0.02-0.008-0.031-0.011c-0.043-0.011-0.088-0.017-0.133-0.017H24.652c-0.639,0-1.16,0.52-1.16,1.16v27.25
				c0,0.64,0.521,1.16,1.16,1.16h19.133c0.64,0,1.16-0.521,1.16-1.16v-21.26C44.945,11.952,44.941,11.931,44.939,11.909z
				 M24.652,5.983h13.432v5.932c0,0.32,0.259,0.58,0.58,0.58h5.121v12.018H24.652V5.983z"/>
			<path fill="#F1F1F1" d="M32.157,31.229c-0.011,0.262-0.1,0.448-0.268,0.557c-0.168,0.109-0.395,0.164-0.677,0.164
				c-0.112,0-0.232-0.013-0.361-0.04c-0.128-0.026-0.251-0.057-0.368-0.092c-0.118-0.035-0.226-0.072-0.325-0.111
				c-0.099-0.04-0.175-0.079-0.229-0.116l-0.408,0.649c0.106,0.08,0.237,0.152,0.393,0.217c0.155,0.063,0.316,0.121,0.485,0.172
				c0.168,0.051,0.331,0.088,0.489,0.112c0.158,0.023,0.295,0.036,0.413,0.036c0.234,0,0.463-0.023,0.685-0.068
				c0.222-0.045,0.418-0.125,0.589-0.24c0.171-0.114,0.307-0.268,0.409-0.456c0.101-0.189,0.152-0.424,0.152-0.701v-4.6h-0.978
				L32.157,31.229L32.157,31.229z"/>
			<path fill="#F1F1F1" d="M37.273,29.842c-0.184-0.134-0.383-0.247-0.597-0.341c-0.214-0.093-0.412-0.188-0.593-0.288
				C35.9,29.114,35.749,29,35.626,28.868c-0.123-0.131-0.184-0.304-0.184-0.517c0-0.086,0.022-0.176,0.064-0.268
				c0.042-0.093,0.101-0.178,0.176-0.253c0.075-0.074,0.16-0.137,0.257-0.188s0.198-0.082,0.305-0.092
				c0.192-0.017,0.35-0.02,0.473-0.009c0.122,0.012,0.222,0.029,0.296,0.057c0.075,0.026,0.133,0.053,0.172,0.08
				c0.04,0.027,0.076,0.048,0.108,0.064c0.005-0.005,0.021-0.032,0.048-0.08c0.026-0.048,0.059-0.108,0.096-0.181
				c0.037-0.071,0.078-0.149,0.121-0.231c0.042-0.083,0.08-0.159,0.112-0.229c-0.155-0.102-0.358-0.176-0.609-0.221
				s-0.5-0.068-0.745-0.068c-0.24,0-0.469,0.037-0.685,0.112c-0.216,0.075-0.405,0.184-0.569,0.325s-0.292,0.313-0.389,0.517
				c-0.096,0.203-0.146,0.436-0.146,0.697c0,0.288,0.061,0.528,0.184,0.721c0.123,0.192,0.278,0.359,0.465,0.501
				c0.187,0.141,0.387,0.264,0.601,0.368c0.213,0.104,0.413,0.208,0.597,0.313s0.337,0.221,0.46,0.349
				c0.123,0.129,0.185,0.283,0.185,0.465c0,0.3-0.087,0.525-0.261,0.677c-0.173,0.152-0.423,0.229-0.749,0.229
				c-0.107,0-0.222-0.011-0.345-0.032s-0.246-0.049-0.369-0.084s-0.241-0.072-0.357-0.112c-0.115-0.04-0.21-0.081-0.284-0.124
				l-0.168,0.69c0.09,0.08,0.199,0.148,0.324,0.204c0.125,0.057,0.258,0.101,0.397,0.133c0.138,0.032,0.277,0.055,0.413,0.067
				c0.136,0.014,0.269,0.021,0.397,0.021c0.299,0,0.566-0.045,0.801-0.136c0.234-0.091,0.432-0.213,0.593-0.365
				s0.284-0.328,0.373-0.528c0.088-0.2,0.132-0.407,0.132-0.621c0-0.315-0.062-0.573-0.184-0.773
				C37.611,30.143,37.457,29.976,37.273,29.842z"/>
			<path d="M30.654,14.319v-1.664c0-0.229,0.186-0.416,0.416-0.416c0.231,0,0.416-0.186,0.416-0.416s-0.185-0.416-0.416-0.416
				c-0.688,0-1.247,0.56-1.247,1.248v1.664c0,0.458-0.373,0.831-0.832,0.831c-0.23,0-0.417,0.186-0.417,0.416
				c0,0.23,0.186,0.416,0.417,0.416c0.458,0,0.832,0.373,0.832,0.831v1.664c0,0.688,0.56,1.248,1.247,1.248
				c0.231,0,0.416-0.186,0.416-0.416s-0.185-0.416-0.416-0.416c-0.229,0-0.416-0.186-0.416-0.416v-1.664
				c0-0.498-0.226-0.941-0.575-1.247C30.428,15.262,30.654,14.817,30.654,14.319z"/>
			<path d="M37.787,15.566c-0.349,0.306-0.575,0.749-0.575,1.247v1.664c0,0.229-0.186,0.416-0.415,0.416
				c-0.231,0-0.416,0.187-0.416,0.416c0,0.23,0.185,0.416,0.416,0.416c0.688,0,1.247-0.56,1.247-1.248v-1.664
				c0-0.458,0.373-0.831,0.832-0.831c0.23,0,0.417-0.186,0.417-0.416c0-0.229-0.186-0.416-0.417-0.416
				c-0.458,0-0.832-0.373-0.832-0.831v-1.664c0-0.689-0.56-1.248-1.247-1.248c-0.231,0-0.416,0.187-0.416,0.416
				s0.185,0.416,0.416,0.416c0.229,0,0.415,0.187,0.415,0.416v1.664C37.212,14.817,37.438,15.262,37.787,15.566z"/>
			<circle cx="33.981" cy="14.11" r="0.624"/>
			<path d="M33.981,16.398c-0.23,0-0.417,0.187-0.417,0.415v1.249c0,0.229,0.186,0.415,0.417,0.415c0.229,0,0.416-0.186,0.416-0.415
				v-1.249C34.397,16.585,34.211,16.398,33.981,16.398z"/>
		</g>
	</g>
</g>
</svg>
