<?xml version="1.0" encoding="utf-8"?>
<!-- Generator: Adobe Illustrator 17.0.0, SVG Export Plug-In . SVG Version: 6.00 Build 0)  -->
<!DOCTYPE svg PUBLIC "-//W3C//DTD SVG 1.1//EN" "http://www.w3.org/Graphics/SVG/1.1/DTD/svg11.dtd" [
	<!ENTITY ns_extend "http://ns.adobe.com/Extensibility/1.0/">
	<!ENTITY ns_ai "http://ns.adobe.com/AdobeIllustrator/10.0/">
	<!ENTITY ns_graphs "http://ns.adobe.com/Graphs/1.0/">
	<!ENTITY ns_vars "http://ns.adobe.com/Variables/1.0/">
	<!ENTITY ns_imrep "http://ns.adobe.com/ImageReplacement/1.0/">
	<!ENTITY ns_sfw "http://ns.adobe.com/SaveForWeb/1.0/">
	<!ENTITY ns_custom "http://ns.adobe.com/GenericCustomNamespace/1.0/">
	<!ENTITY ns_adobe_xpath "http://ns.adobe.com/XPath/1.0/">
]>
<svg version="1.1" id="Capa_1" xmlns:x="&ns_extend;" xmlns:i="&ns_ai;" xmlns:graph="&ns_graphs;"
	 xmlns="http://www.w3.org/2000/svg" xmlns:xlink="http://www.w3.org/1999/xlink" x="0px" y="0px" width="235.28px"
	 height="45.843px" viewBox="0 0 235.28 45.843" enable-background="new 0 0 235.28 45.843" xml:space="preserve">
<metadata><?xpacket begin="﻿" id="W5M0MpCehiHzreSzNTczkc9d"?>
<x:xmpmeta xmlns:x="adobe:ns:meta/" x:xmptk="Adobe XMP Core 5.5-c014 79.151739, 2013/04/03-12:12:15        ">
   <rdf:RDF xmlns:rdf="http://www.w3.org/1999/02/22-rdf-syntax-ns#">
      <rdf:Description rdf:about=""
            xmlns:dc="http://purl.org/dc/elements/1.1/"
            xmlns:xmp="http://ns.adobe.com/xap/1.0/"
            xmlns:xmpGImg="http://ns.adobe.com/xap/1.0/g/img/"
            xmlns:xmpMM="http://ns.adobe.com/xap/1.0/mm/"
            xmlns:stRef="http://ns.adobe.com/xap/1.0/sType/ResourceRef#"
            xmlns:stEvt="http://ns.adobe.com/xap/1.0/sType/ResourceEvent#"
            xmlns:illustrator="http://ns.adobe.com/illustrator/1.0/"
            xmlns:xmpTPg="http://ns.adobe.com/xap/1.0/t/pg/"
            xmlns:stDim="http://ns.adobe.com/xap/1.0/sType/Dimensions#"
            xmlns:xmpG="http://ns.adobe.com/xap/1.0/g/"
            xmlns:pdf="http://ns.adobe.com/pdf/1.3/">
         <dc:format>image/svg+xml</dc:format>
         <dc:title>
            <rdf:Alt>
               <rdf:li xml:lang="x-default">Imprimir</rdf:li>
            </rdf:Alt>
         </dc:title>
         <xmp:MetadataDate>2017-08-14T13:41:17-05:00</xmp:MetadataDate>
         <xmp:ModifyDate>2017-08-14T13:41:17-05:00</xmp:ModifyDate>
         <xmp:CreateDate>2017-08-14T13:41:16-05:00</xmp:CreateDate>
         <xmp:CreatorTool>Adobe Illustrator CC (Windows)</xmp:CreatorTool>
         <xmp:Thumbnails>
            <rdf:Alt>
               <rdf:li rdf:parseType="Resource">
                  <xmpGImg:width>256</xmpGImg:width>
                  <xmpGImg:height>52</xmpGImg:height>
                  <xmpGImg:format>JPEG</xmpGImg:format>
                  <xmpGImg:image>/9j/4AAQSkZJRgABAgEASABIAAD/7QAsUGhvdG9zaG9wIDMuMAA4QklNA+0AAAAAABAASAAAAAEA&#xA;AQBIAAAAAQAB/+4ADkFkb2JlAGTAAAAAAf/bAIQABgQEBAUEBgUFBgkGBQYJCwgGBggLDAoKCwoK&#xA;DBAMDAwMDAwQDA4PEA8ODBMTFBQTExwbGxscHx8fHx8fHx8fHwEHBwcNDA0YEBAYGhURFRofHx8f&#xA;Hx8fHx8fHx8fHx8fHx8fHx8fHx8fHx8fHx8fHx8fHx8fHx8fHx8fHx8fHx8f/8AAEQgANAEAAwER&#xA;AAIRAQMRAf/EAaIAAAAHAQEBAQEAAAAAAAAAAAQFAwIGAQAHCAkKCwEAAgIDAQEBAQEAAAAAAAAA&#xA;AQACAwQFBgcICQoLEAACAQMDAgQCBgcDBAIGAnMBAgMRBAAFIRIxQVEGE2EicYEUMpGhBxWxQiPB&#xA;UtHhMxZi8CRygvElQzRTkqKyY3PCNUQnk6OzNhdUZHTD0uIIJoMJChgZhJRFRqS0VtNVKBry4/PE&#xA;1OT0ZXWFlaW1xdXl9WZ2hpamtsbW5vY3R1dnd4eXp7fH1+f3OEhYaHiImKi4yNjo+Ck5SVlpeYmZ&#xA;qbnJ2en5KjpKWmp6ipqqusra6voRAAICAQIDBQUEBQYECAMDbQEAAhEDBCESMUEFURNhIgZxgZEy&#xA;obHwFMHR4SNCFVJicvEzJDRDghaSUyWiY7LCB3PSNeJEgxdUkwgJChgZJjZFGidkdFU38qOzwygp&#xA;0+PzhJSktMTU5PRldYWVpbXF1eX1RlZmdoaWprbG1ub2R1dnd4eXp7fH1+f3OEhYaHiImKi4yNjo&#xA;+DlJWWl5iZmpucnZ6fkqOkpaanqKmqq6ytrq+v/aAAwDAQACEQMRAD8A55rennTdd1HTiKGzuprc&#xA;jw9KQp/DFVBMVRCYqgzryieaGGyurr0H9OSSFEKhwASPidTty8MVVU1+b/q0X/8AwEX/AFUxVGaL&#xA;5hsdTluIIlkhurZuM1tMFWQU2rRSwpXbriqdpiqITFUQmKohMVRCYqiExVEJiqITFUQmKohMVak7&#xA;4qh5O+Kod8VQ74qh3xVDviqHfFUO+Kod8VQ74qh3xVDSMoIBIBbZQe/fbFVB8VQ74qh3xVHeVZtR&#xA;h8z6VJpjKmoC6iFo7KHAlZwqHi1QaMcqzSIjtzb9PASlvy5p/wDnFp/1D8ztfhpQSXAuB7/WI1mP&#xA;4vlrQxNMVRCYqgvL/wDfar/zHP8A8m48VWarrOp213M1u9strZqjSRyk+pKWNXCEHbiv44qkV75Z&#xA;8z22vXWuae0QQSPPG/Pqh+IgjuCOoxV6JpV2bzTrW8K8DcwxzFK1pzUNSvtXFUxTFUQmKohMVVJJ&#xA;4LeJpp5FihTd5HYKoHuTsMVa0zW9G1FnSwvoLto/trDIkhArSpCk7e+KpqmKohMVRCYqiExVqTvi&#xA;qBtr2zvrZbqynjuraSvpzwuskbcSVNGUkGhBGKodryzN21mJ4zdqgla2Dr6gjJoHKV5ca7VxVa+K&#xA;od8VQUN3a3UZktpo54wxQvEwcBlNCtVJ3HfFVj4qh3xVDviqHfFUO+Ko3yh5Z0vzN510jRtSD/Vb&#xA;n618cTcJI3S1kZJEbsyMARXbxBG2Kofzf5T1rylrJ0nVwH5hn0/UEXjFdRL+0vXjItR6kdfh91IO&#xA;KpE+Kod8VZp+SWkfpL8zNHUrWO1d7uQ+HoIXQ/8AIwLlGXeUR8fk5OHaE5eVfNPv+clNP+rfmDDd&#xA;KPhvbGKRm2+2jvGR/wACi5e4zy5MVRCYqgvL/wDfar/zHP8A8m48VUP9x8cl8l1pss07zSMkotHl&#xA;BVgONHCMPxxVOYEePy2qOpV0swrKRQgiKhBGKoryz/yj2l/8wkH/ACaXFU5TFUQmKohMVY/560jU&#xA;NQsrF7S3W/jsrpLi501mCC4RajjU7bV6H8emKpXp155Vu/MmmGTT7jy1rVu7CCJ4FgjuQwoYiyij&#xA;jwrT2xVWu/P+r3OoakumXukWFtpsrQRw6lLwmuZI/tlRzTih6Kf8wqmVt5+1PWbLQ4dBt4E1XWEm&#xA;klN0WaG3S3PCQkJRmJb7H44q2nnTzjYSeYbTVYLI3Wjaf9ct5YVl9OYmvFmDODx2oQKb13xVPtY8&#xA;26lY+XNA1OGOFp9VuLGG4V1Yoq3S1coAwII/ZqTiqBsvMvnfVvN2qabYR6fFpWj3ccVzNMs3rSRP&#xA;uVQKxHMKGNdhWnviqTaF5x1J/Knluz0SwsrfV9aa79GBVeOygjt5ZPUcqrM+/wA9zX5Yq1o7+ZIf&#xA;zC1N9Whhn1GLRwYFtCUSdVmqnH1T8LMfhNTSuKoO88+eZNONpdahc6Q4nlRLnSIJGa6hSRqV5B2B&#xA;Zf2tqYqml3rvmjUtZ1Cy8vpaR2+lFY7iW8EhMszLy4IEI4qB1JxVC/lm0j+W5GlXhI15cl068WL7&#xA;j6MVZM+Kod8VQ74qh3xVDvirIvyn/wDJpeX/AJ3n/UHLir6F83+VND80aHNpWsx8rZv3kc6kLJBI&#xA;oPGaJz9l18elNjUEjFXyBcCCO+vLW3u01G1tZ3gt9ThUrFcohoJUB7HptVa/ZJFDiqHfFXtH/OLu&#xA;k+rrus6sy/Da2yWyMf5rh+Zp9EH45QN8h8g5UtsIH86V/LZMP+cpdP8A+Ue1BRv/AKTbyH/kW6f8&#xA;bZe4rwhMVRCYqg9J8p+a7/SfMuvaRqVtb2mm3Mxls3ilmlLRW6zMzmOKVYUZBxR5CFLClR1xVUk0&#xA;TzLa6pZaReebtJt9ZuZoLW600xTtNbT3Sh4kcC34uPiCuyEhGND44qq3HlnzjJY61cw+ZtNuNL0K&#xA;S5tdfufTeL6tJCnwJwkiSR/XkrFEUBqwOKpl5Z/5R7S/+YSD/k0uKpymKohMVRCYqlXmXRtVvfqV&#xA;7pFytvqWnSNJCsvL0ZA44uknHxHemKoE6L5v12/019dSzsrHTblLwR2zPJLJNFXgKnZU38a4qoSe&#xA;TvMGnX+o/ozT9L1O01CZ7mGW+X99byS7sCSrc0B6DFWtS0ufQZvLZh1O0i8yQRzxoLqP0LO5Rzyl&#xA;TlEqpGy8vhrQt88VW+X7LVfMfmDzZBqFzbyvdadHZPcWPJ7aF3DcY1ZvtlftN71xVMJfKv5iajYa&#xA;Jpd8unw2eiXNrK0sUkhe4FsQoNCoC0StQereGKsq8uaBfaZrHmG7uShi1S8W4tuBJPAIF+IEChri&#xA;rFNP8g+YtN8u+Xns5bZfMOgNdUSQs1tLFdSOXjZlAb7LChpsfvxVtPLPnDUdT1bUNXe2s31DSn0+&#xA;2S2d2MJLkqGJG/UkkeOKpFc+QvNE+gQaXFp2lae1qYjJPCWMt00RG7PwqoP2jWpJxVPLrRvNOl6x&#xA;qF9oAtLiDVSkk0F2zqYZ1XiXUoDyQ9SOvhiqt5M0TUNG0VrTUHR7lp5ZWeMkqfUatdwMVTd8VQ74&#xA;qh3xVDviqHfFWRflSyr+aGgMxCqv1wknYACzlxVH/m3+bUnmp5vL3l6Yp5YQmPUNQjJDX7DZoomH&#xA;S2H7Tf7s6D4PtKvNSqqoVQFVRQAbAAYqoPir6c/5xt0j6p5DlvmHx6jdyOp/4riAiA/4NXyjBvZ7&#xA;y5Wp24Y90R9u7f8Azkpp/wBY8gQ3IHxWV9DIW8FdHjP/AAzrl7ivmNMVRCYqhbPUfPWjtqMOiNYf&#xA;V71pmhuLiJWuYDdQiCb0pCpZeSClKkd6VxVSv778zNR/RzXDab9Y0+5t7z63HDHHPcT2g4wPcyIg&#xA;aXgg479e+++Kpc+i+fpbfzBA0ln6fmWZLjVNzUyRzNOvD4fhHNzirNtItHs9MtLR2DPbwxxMw6Eo&#xA;gUkfdiqZJiqITFUQmKohMVRCYqiExVZfaTpmpwC31G0iu4QeQjmRXAbxHIGhxVE6Xpem6bbi20+1&#xA;itLepb0oUVF5HqSFA3264qmSYq1J3xVDyd8VQ74qh3xVDviqHfFUO+Kod8VQ74qh3xVDviqXX9l9&#xA;ZMf76SJU5iQRMU9SORCjxsRvwdWow7jbFXFVVQqgKqiiqNgAOwxVQfFUO/XIzlUSWeOHFIDvL7Q/&#xA;LbSRpPkLQrKnFls45JF8JJh6sn/DuchhjUAGzUz4skj5o/zV5ds/Mfl6/wBFu6CK9iaMSFeXpydY&#xA;5AKrUo4DDftlkhYaokAgnd4vJ/zi3OtPR8yI/wDNzsyn3UmbMbwcn8/7HM/MYTzx/ahpP+cZfMCh&#xA;vR1m0c1+HnHIlR7050weHm/nD5J8XT/zD81B/wDnG/zqrfu9Q011p1Z51NfkIW/Xjw5++K8Wl7p/&#xA;YoP+QP5gxgFRZyV6hZjt/wAEq4Lz90U8OlPWY+Si/wCSf5kR8uOnxS06cLiEV+XJl/HHxM/80fNP&#xA;haU/xy+Sk35TfmPEQH0RjXf4ZrdvxWQ4PGzD+D7U/ltOeWT/AGJUm/L7z3EKvoV11p8K8j/wtcfz&#xA;OT/Uyn8lhPLLH5ftWN5T83xE+poOoALuzC2lIpSvULTB+ckOcJfJf5OieWWHzUzpWtRUEumXcZPT&#xA;lBIP1jH8/HrGXyT/ACVI8pwPx/YtJkiBMsUkYU0JZCKH6cH8o4+t/JP8j5jy4T8VSO7g/m/A4R2l&#xA;h7/sKD2Nqf5v2hER3Vv/AD/ryQ7Qw/zvvYHsnUj+D7v1omO5g/34MkNbh/nBrPZuoH8EkTHPAafv&#xA;F+8ZMarEf4o/MMDos45wl/pSiY5Yz0cfeMmM0D/EPm1nT5BzjL5F0ksQrV1+8YDqMY5yHzDIaXKe&#xA;UJfIoaS4g/34v3jIHV4v50fm2Ds/UH+CXyKFkuYP5xkDrsP84Mx2XqT/AAFDyXUH834HIntHB/O+&#xA;w/qbB2PqT/B9o/WhnuofE/dkD2nh7/sZjsXUdw+a0LPLT0oJZOX2eCE1+VMf5Sx9BI/Bf5GyjmYj&#xA;4rhpGuSgmLS7xwNiVgkO/wBAw/nweUZfJf5KI5zh81QeT/OUjUXQdQrSvxW0qj72UY/nJ/6nJH8n&#xA;Yxzyw/HxXr+XXn2WnDQ7kcunIBPv5EU+nD+ZynljPzR+SwDnlHy/aqL+Un5kS146Kwp15T26/wDE&#xA;pBj42c/wfaj8vphzyfYVZPyQ/MaQgNZQx1FatcRUHt8LNh49R/Nj+Pijw9IP4pfj4Kyf84/efpAC&#xA;zWUVTQh5m29zxRsP+EH+aj/BB/PKIT/nG7zk1fV1HTk/l4vO364lx4c/fFHHpf5svx8URH/zjJrb&#xA;FfW1q2QEfFwikehp2qUrh8PN/O+xfG045QPzRVv/AM4unkrXHmIUDAtGloTVe45GYUr8sTp5nYy+&#xA;xRq8cTcYb+97wqqqhVAVVFABsABmW69vFXYq7FXYq7FXYq7FXYq7FXYq7FUPcfo7kfrHo8qb+pxr&#xA;T6cjLh6s48XS0sn/AME0Hr/o2n7PP0KV9q5TLwevD9jkx/MdOP7Uun/5VX8fq/oXl+3T6rzr9HxZ&#xA;TL8r14PsciH57p4v+yQM3/Kn+Q5fo6tNvT6f8JtlMvyf9FyI/wAo9ONL5f8AlSnEcvTpX9j63X/h&#xA;N8x5fkfxxOXH+VOl/wCw/Suh/wCVLUXj6VK7ep9a8e/P+OGP5HpX+yRP+VOt/wCx/Qj4f+VQ/Fx/&#xA;R3avqU/Dn/DL4/k/6Liz/lHrx/j3Jhb/APKsKr6P6F5U+Gn1XlSn/BZdH8t04Pscaf53r4v+yTCD&#xA;/BvH9x+juNf2PQpX6Muj4PTh+xx5fmOvH9qZwfUqn6v6fL9r0+Nae9MuFdHHlxdbVskwdirsVdir&#xA;sVdirsVdirsVdirsVf/Z</xmpGImg:image>
               </rdf:li>
            </rdf:Alt>
         </xmp:Thumbnails>
         <xmpMM:InstanceID>xmp.iid:1304ae71-66ba-1246-a7e6-a4755eb2a88b</xmpMM:InstanceID>
         <xmpMM:DocumentID>xmp.did:1304ae71-66ba-1246-a7e6-a4755eb2a88b</xmpMM:DocumentID>
         <xmpMM:OriginalDocumentID>uuid:5D20892493BFDB11914A8590D31508C8</xmpMM:OriginalDocumentID>
         <xmpMM:RenditionClass>proof:pdf</xmpMM:RenditionClass>
         <xmpMM:DerivedFrom rdf:parseType="Resource">
            <stRef:instanceID>xmp.iid:9632bbfa-e7aa-9149-8890-086b45e44cdd</stRef:instanceID>
            <stRef:documentID>xmp.did:9632bbfa-e7aa-9149-8890-086b45e44cdd</stRef:documentID>
            <stRef:originalDocumentID>uuid:5D20892493BFDB11914A8590D31508C8</stRef:originalDocumentID>
            <stRef:renditionClass>proof:pdf</stRef:renditionClass>
         </xmpMM:DerivedFrom>
         <xmpMM:History>
            <rdf:Seq>
               <rdf:li rdf:parseType="Resource">
                  <stEvt:action>saved</stEvt:action>
                  <stEvt:instanceID>xmp.iid:c34fcb8d-e8f1-8b48-96f0-dfe390e32e91</stEvt:instanceID>
                  <stEvt:when>2017-08-14T12:20:04-05:00</stEvt:when>
                  <stEvt:softwareAgent>Adobe Illustrator CC (Windows)</stEvt:softwareAgent>
                  <stEvt:changed>/</stEvt:changed>
               </rdf:li>
               <rdf:li rdf:parseType="Resource">
                  <stEvt:action>saved</stEvt:action>
                  <stEvt:instanceID>xmp.iid:1304ae71-66ba-1246-a7e6-a4755eb2a88b</stEvt:instanceID>
                  <stEvt:when>2017-08-14T13:41:17-05:00</stEvt:when>
                  <stEvt:softwareAgent>Adobe Illustrator CC (Windows)</stEvt:softwareAgent>
                  <stEvt:changed>/</stEvt:changed>
               </rdf:li>
            </rdf:Seq>
         </xmpMM:History>
         <illustrator:StartupProfile>Print</illustrator:StartupProfile>
         <xmpTPg:HasVisibleOverprint>False</xmpTPg:HasVisibleOverprint>
         <xmpTPg:HasVisibleTransparency>False</xmpTPg:HasVisibleTransparency>
         <xmpTPg:NPages>1</xmpTPg:NPages>
         <xmpTPg:MaxPageSize rdf:parseType="Resource">
            <stDim:w>235.279999</stDim:w>
            <stDim:h>45.843018</stDim:h>
            <stDim:unit>Pixels</stDim:unit>
         </xmpTPg:MaxPageSize>
         <xmpTPg:PlateNames>
            <rdf:Seq>
               <rdf:li>Cyan</rdf:li>
               <rdf:li>Magenta</rdf:li>
               <rdf:li>Yellow</rdf:li>
               <rdf:li>Black</rdf:li>
            </rdf:Seq>
         </xmpTPg:PlateNames>
         <xmpTPg:SwatchGroups>
            <rdf:Seq>
               <rdf:li rdf:parseType="Resource">
                  <xmpG:groupName>Grupo de muestras por defecto</xmpG:groupName>
                  <xmpG:groupType>0</xmpG:groupType>
               </rdf:li>
            </rdf:Seq>
         </xmpTPg:SwatchGroups>
         <pdf:Producer>Adobe PDF library 10.01</pdf:Producer>
      </rdf:Description>
   </rdf:RDF>
</x:xmpmeta>
                                                                                                    
                                                                                                    
                                                                                                    
                                                                                                    
                                                                                                    
                                                                                                    
                                                                                                    
                                                                                                    
                                                                                                    
                                                                                                    
                                                                                                    
                                                                                                    
                                                                                                    
                                                                                                    
                                                                                                    
                                                                                                    
                                                                                                    
                                                                                                    
                                                                                                    
                                                                                                    
                           
<?xpacket end="w"?>
	</metadata>
<g>
	<g>
		<g>
			
				<linearGradient id="SVGID_1_" gradientUnits="userSpaceOnUse" x1="1.125" y1="589.2045" x2="235.28" y2="589.2045" gradientTransform="matrix(1 0 0 1 0 -565.157)">
				<stop  offset="0" style="stop-color:#783214"/>
				<stop  offset="0.5" style="stop-color:#F16529"/>
				<stop  offset="1" style="stop-color:#783214"/>
			</linearGradient>
			<polygon fill="url(#SVGID_1_)" points="227.4,40.214 117.307,45.843 6.754,40.214 1.125,2.252 235.28,2.252 			"/>
		</g>
		<g>
			
				<linearGradient id="SVGID_2_" gradientUnits="userSpaceOnUse" x1="0" y1="25.047" x2="234.154" y2="25.047" gradientTransform="matrix(1 0 0 -1 0 46.843)">
				<stop  offset="0" style="stop-color:#404040"/>
				<stop  offset="0.5" style="stop-color:#9F9F9F"/>
				<stop  offset="0.9947" style="stop-color:#404040"/>
			</linearGradient>
			<polygon fill="url(#SVGID_2_)" points="226.274,37.962 116.182,43.592 5.628,37.962 0,0 234.154,0 			"/>
		</g>
	</g>
	<polygon fill="#F1F1F1" stroke="#000000" stroke-linecap="round" stroke-linejoin="round" stroke-miterlimit="10" points="
		203.317,32.186 215.832,19.672 203.317,7.156 	"/>
	<g>
		<path d="M77.216,22.639L78.81,22.5c0.076,0.639,0.252,1.163,0.527,1.572c0.276,0.409,0.705,0.741,1.285,0.993
			c0.581,0.253,1.234,0.379,1.961,0.379c0.645,0,1.214-0.096,1.707-0.287c0.494-0.191,0.861-0.454,1.103-0.789
			c0.241-0.333,0.362-0.698,0.362-1.093c0-0.401-0.117-0.751-0.35-1.05c-0.232-0.3-0.615-0.551-1.149-0.754
			c-0.343-0.134-1.101-0.341-2.274-0.623c-1.174-0.281-1.995-0.548-2.465-0.797c-0.611-0.319-1.065-0.716-1.364-1.189
			c-0.3-0.474-0.448-1.004-0.448-1.591c0-0.645,0.183-1.247,0.549-1.808c0.365-0.561,0.9-0.986,1.603-1.276
			c0.703-0.29,1.484-0.436,2.345-0.436c0.945,0,1.781,0.152,2.504,0.457c0.724,0.306,1.279,0.754,1.669,1.347
			c0.39,0.592,0.599,1.263,0.628,2.013l-1.621,0.122c-0.088-0.808-0.383-1.418-0.885-1.83s-1.244-0.618-2.227-0.618
			c-1.021,0-1.767,0.187-2.234,0.562s-0.701,0.826-0.701,1.354c0,0.459,0.166,0.837,0.496,1.133
			c0.326,0.297,1.176,0.601,2.549,0.911c1.374,0.311,2.316,0.582,2.828,0.814c0.742,0.343,1.292,0.776,1.646,1.303
			c0.354,0.525,0.531,1.131,0.531,1.816c0,0.68-0.195,1.32-0.584,1.921c-0.389,0.602-0.948,1.069-1.678,1.403
			c-0.729,0.334-1.549,0.501-2.461,0.501c-1.156,0-2.125-0.169-2.906-0.506s-1.394-0.844-1.838-1.521
			C77.473,24.259,77.24,23.493,77.216,22.639z"/>
		<path d="M95.828,23.763l1.62,0.201c-0.256,0.946-0.729,1.682-1.421,2.204s-1.574,0.784-2.648,0.784
			c-1.354,0-2.426-0.417-3.219-1.25c-0.793-0.834-1.189-2.003-1.189-3.508c0-1.557,0.4-2.765,1.202-3.624s1.841-1.29,3.119-1.29
			c1.237,0,2.248,0.422,3.032,1.264c0.784,0.843,1.176,2.027,1.176,3.555c0,0.093-0.002,0.232-0.008,0.419H90.59
			c0.058,1.016,0.346,1.794,0.862,2.335c0.518,0.54,1.162,0.81,1.935,0.81c0.575,0,1.065-0.15,1.473-0.453
			C95.267,24.907,95.589,24.425,95.828,23.763z M90.677,21.228h5.167c-0.069-0.778-0.267-1.362-0.593-1.751
			c-0.499-0.604-1.146-0.906-1.942-0.906c-0.72,0-1.326,0.241-1.817,0.723C91.001,19.776,90.73,20.42,90.677,21.228z"/>
		<path d="M99.129,27.51l1.524,0.227c0.064,0.471,0.241,0.813,0.531,1.028c0.39,0.29,0.922,0.436,1.596,0.436
			c0.726,0,1.286-0.146,1.682-0.436c0.395-0.291,0.662-0.697,0.801-1.22c0.082-0.32,0.119-0.99,0.113-2.013
			c-0.686,0.807-1.539,1.211-2.562,1.211c-1.272,0-2.257-0.459-2.954-1.377s-1.045-2.019-1.045-3.302
			c0-0.883,0.16-1.698,0.479-2.444c0.32-0.746,0.783-1.323,1.391-1.729c0.606-0.406,1.32-0.61,2.139-0.61
			c1.092,0,1.992,0.441,2.701,1.325V17.49h1.446v7.999c0,1.44-0.147,2.461-0.44,3.063s-0.758,1.076-1.394,1.425
			s-1.419,0.522-2.349,0.522c-1.104,0-1.995-0.248-2.674-0.745C99.435,29.257,99.106,28.509,99.129,27.51z M100.427,21.951
			c0,1.214,0.241,2.1,0.724,2.657c0.481,0.558,1.086,0.836,1.813,0.836c0.72,0,1.324-0.277,1.812-0.832s0.732-1.424,0.732-2.609
			c0-1.133-0.252-1.986-0.754-2.562s-1.107-0.862-1.816-0.862c-0.697,0-1.289,0.283-1.777,0.85S100.427,20.836,100.427,21.951z"/>
		<path d="M115.406,26.743v-1.359c-0.721,1.046-1.699,1.568-2.938,1.568c-0.545,0-1.055-0.104-1.529-0.313
			c-0.473-0.209-0.824-0.473-1.054-0.789s-0.391-0.704-0.483-1.163c-0.064-0.308-0.096-0.796-0.096-1.464V17.49h1.568v5.133
			c0,0.818,0.031,1.37,0.096,1.655c0.099,0.412,0.308,0.736,0.627,0.972c0.32,0.235,0.715,0.353,1.186,0.353s0.912-0.12,1.324-0.361
			s0.704-0.569,0.875-0.985c0.172-0.415,0.258-1.018,0.258-1.808V17.49h1.568v9.254L115.406,26.743L115.406,26.743z"/>
		<path d="M119.247,26.743V17.49h1.412v1.403c0.359-0.656,0.692-1.089,0.997-1.298c0.306-0.21,0.641-0.314,1.007-0.314
			c0.528,0,1.065,0.169,1.611,0.506l-0.54,1.455c-0.384-0.227-0.767-0.34-1.149-0.34c-0.344,0-0.651,0.104-0.924,0.31
			s-0.469,0.492-0.584,0.857c-0.174,0.558-0.262,1.168-0.262,1.83v4.845L119.247,26.743L119.247,26.743z"/>
		<path d="M125.216,15.774V13.97h1.568v1.804H125.216z M125.216,26.743V17.49h1.568v9.254L125.216,26.743L125.216,26.743z"/>
		<path d="M135.175,26.743v-1.168c-0.587,0.918-1.449,1.377-2.588,1.377c-0.738,0-1.416-0.203-2.035-0.61
			c-0.618-0.406-1.098-0.974-1.438-1.703c-0.34-0.729-0.51-1.566-0.51-2.514c0-0.924,0.154-1.762,0.463-2.514
			c0.307-0.752,0.77-1.329,1.385-1.729s1.305-0.602,2.064-0.602c0.559,0,1.055,0.118,1.49,0.354s0.79,0.541,1.063,0.919V13.97h1.561
			v12.773H135.175z M130.217,22.125c0,1.185,0.25,2.071,0.749,2.657c0.5,0.587,1.09,0.88,1.77,0.88c0.686,0,1.268-0.279,1.746-0.841
			c0.479-0.561,0.719-1.415,0.719-2.565c0-1.267-0.243-2.196-0.731-2.788c-0.487-0.593-1.089-0.889-1.804-0.889
			c-0.697,0-1.279,0.284-1.746,0.854C130.451,20.002,130.217,20.9,130.217,22.125z"/>
		<path d="M145.134,25.602c-0.582,0.494-1.141,0.842-1.678,1.046c-0.537,0.203-1.113,0.305-1.729,0.305
			c-1.017,0-1.798-0.248-2.344-0.745s-0.819-1.131-0.819-1.903c0-0.453,0.104-0.867,0.31-1.242c0.206-0.374,0.476-0.675,0.81-0.901
			s0.711-0.398,1.129-0.515c0.309-0.081,0.772-0.159,1.395-0.235c1.266-0.15,2.198-0.331,2.797-0.54
			c0.006-0.215,0.008-0.352,0.008-0.409c0-0.639-0.147-1.089-0.443-1.351c-0.401-0.354-0.996-0.531-1.787-0.531
			c-0.737,0-1.281,0.129-1.633,0.388s-0.611,0.716-0.78,1.372l-1.533-0.209c0.14-0.656,0.368-1.187,0.688-1.59
			c0.318-0.404,0.781-0.715,1.385-0.933c0.604-0.218,1.305-0.327,2.1-0.327c0.791,0,1.432,0.094,1.926,0.279s0.857,0.42,1.09,0.701
			c0.232,0.282,0.395,0.638,0.487,1.067c0.052,0.268,0.079,0.749,0.079,1.446v2.091c0,1.458,0.033,2.381,0.1,2.767
			c0.066,0.387,0.199,0.757,0.396,1.111h-1.639C145.285,26.418,145.18,26.037,145.134,25.602z M145.003,22.099
			c-0.57,0.232-1.424,0.431-2.563,0.593c-0.645,0.093-1.1,0.197-1.367,0.313s-0.474,0.286-0.619,0.51s-0.217,0.472-0.217,0.745
			c0,0.418,0.158,0.767,0.475,1.046c0.316,0.278,0.779,0.418,1.389,0.418c0.604,0,1.143-0.132,1.612-0.396
			c0.471-0.265,0.816-0.626,1.037-1.085c0.169-0.354,0.253-0.877,0.253-1.568L145.003,22.099L145.003,22.099z"/>
		<path d="M155.023,26.743v-1.168c-0.586,0.918-1.449,1.377-2.588,1.377c-0.737,0-1.416-0.203-2.034-0.61
			c-0.618-0.406-1.098-0.974-1.438-1.703c-0.34-0.729-0.51-1.566-0.51-2.514c0-0.924,0.153-1.762,0.462-2.514
			c0.308-0.752,0.77-1.329,1.385-1.729c0.616-0.4,1.305-0.602,2.065-0.602c0.558,0,1.054,0.118,1.49,0.354
			c0.436,0.235,0.79,0.541,1.063,0.919V13.97h1.56v12.773H155.023z M150.066,22.125c0,1.185,0.25,2.071,0.749,2.657
			c0.499,0.587,1.089,0.88,1.769,0.88c0.686,0,1.268-0.279,1.747-0.841c0.479-0.561,0.719-1.415,0.719-2.565
			c0-1.267-0.243-2.196-0.731-2.788c-0.488-0.593-1.09-0.889-1.805-0.889c-0.696,0-1.279,0.284-1.746,0.854
			C150.299,20.002,150.066,20.9,150.066,22.125z"/>
	</g>
	<g>
		<g>
			<path d="M44.939,11.706c-0.001-0.136-0.045-0.27-0.138-0.375L39.1,4.818c-0.002-0.001-0.003-0.003-0.004-0.005
				c-0.035-0.037-0.073-0.068-0.116-0.096c-0.012-0.008-0.024-0.016-0.038-0.023c-0.036-0.02-0.074-0.035-0.114-0.047
				c-0.01-0.004-0.02-0.008-0.031-0.011c-0.043-0.011-0.088-0.017-0.133-0.017H24.652c-0.639,0-1.16,0.52-1.16,1.16v27.25
				c0,0.64,0.521,1.16,1.16,1.16h19.133c0.64,0,1.16-0.521,1.16-1.16v-21.26C44.945,11.749,44.941,11.728,44.939,11.706z
				 M24.652,5.78h13.432v5.932c0,0.32,0.259,0.58,0.58,0.58h5.121V24.31H24.652V5.78z"/>
			<g>
				<path fill="#F1F1F1" d="M24.68,29.964l1.019-0.099c0.062,0.342,0.186,0.593,0.374,0.754c0.188,0.16,0.441,0.24,0.759,0.24
					c0.337,0,0.591-0.071,0.763-0.214c0.171-0.143,0.256-0.31,0.256-0.501c0-0.123-0.036-0.228-0.108-0.313
					c-0.072-0.086-0.198-0.161-0.377-0.225c-0.123-0.042-0.402-0.118-0.839-0.227c-0.562-0.139-0.955-0.31-1.182-0.513
					c-0.318-0.286-0.477-0.634-0.477-1.045c0-0.264,0.075-0.511,0.225-0.741c0.15-0.229,0.366-0.405,0.647-0.525
					c0.282-0.12,0.623-0.181,1.021-0.181c0.651,0,1.141,0.143,1.471,0.429c0.329,0.285,0.502,0.666,0.518,1.142l-1.047,0.046
					c-0.045-0.267-0.141-0.458-0.289-0.575c-0.147-0.116-0.369-0.175-0.663-0.175c-0.304,0-0.543,0.063-0.715,0.188
					c-0.111,0.08-0.167,0.188-0.167,0.322c0,0.123,0.052,0.227,0.156,0.315c0.132,0.11,0.453,0.226,0.963,0.347
					c0.509,0.12,0.886,0.244,1.131,0.373c0.244,0.129,0.435,0.305,0.573,0.527s0.207,0.499,0.207,0.826
					c0,0.298-0.083,0.576-0.248,0.836c-0.166,0.26-0.399,0.452-0.701,0.578c-0.302,0.127-0.678,0.189-1.129,0.189
					c-0.656,0-1.16-0.151-1.511-0.454C24.959,30.986,24.749,30.545,24.68,29.964z"/>
				<path fill="#F1F1F1" d="M33.101,29.744l1.016,0.322c-0.156,0.566-0.415,0.987-0.777,1.262s-0.822,0.413-1.379,0.413
					c-0.689,0-1.255-0.235-1.699-0.706c-0.444-0.471-0.665-1.115-0.665-1.932c0-0.863,0.223-1.534,0.669-2.012
					c0.446-0.478,1.032-0.717,1.759-0.717c0.635,0,1.15,0.188,1.546,0.563c0.236,0.222,0.413,0.541,0.531,0.956l-1.037,0.248
					c-0.062-0.269-0.189-0.481-0.384-0.638c-0.194-0.155-0.431-0.233-0.709-0.233c-0.385,0-0.697,0.138-0.936,0.414
					c-0.24,0.276-0.359,0.724-0.359,1.342c0,0.655,0.118,1.123,0.354,1.401c0.236,0.278,0.542,0.418,0.92,0.418
					c0.278,0,0.518-0.089,0.718-0.266C32.87,30.403,33.014,30.125,33.101,29.744z"/>
				<path fill="#F1F1F1" d="M36.184,31.652v-4.311h-1.54v-0.878h4.124v0.878h-1.536v4.311H36.184z"/>
				<path fill="#F1F1F1" d="M40.806,31.652v-2.184l-1.901-3.005h1.229l1.221,2.053l1.196-2.053h1.207l-1.908,3.012v2.177
					C41.85,31.652,40.806,31.652,40.806,31.652z"/>
			</g>
			<path d="M37.388,14.813v5.711c0,0.229-0.187,0.416-0.415,0.416H31.26c-0.229,0-0.415-0.188-0.415-0.416v-5.711
				c0-0.23,0.185-0.415,0.415-0.415h4.362v-2.196c0-0.83-0.676-1.505-1.506-1.505s-1.505,0.675-1.505,1.505v1.068
				c0,0.229-0.185,0.415-0.415,0.415c-0.229,0-0.414-0.186-0.414-0.415v-1.068c0-1.288,1.047-2.336,2.334-2.336
				c1.288,0,2.336,1.048,2.336,2.336v2.196h0.52C37.201,14.398,37.388,14.582,37.388,14.813z M36.558,20.108v-4.881h-4.883v4.881
				H36.558z"/>
		</g>
	</g>
</g>
</svg>
