<?xml version="1.0" encoding="utf-8"?>
<!-- Generator: Adobe Illustrator 17.0.0, SVG Export Plug-In . SVG Version: 6.00 Build 0)  -->
<!DOCTYPE svg PUBLIC "-//W3C//DTD SVG 1.1//EN" "http://www.w3.org/Graphics/SVG/1.1/DTD/svg11.dtd" [
	<!ENTITY ns_extend "http://ns.adobe.com/Extensibility/1.0/">
	<!ENTITY ns_ai "http://ns.adobe.com/AdobeIllustrator/10.0/">
	<!ENTITY ns_graphs "http://ns.adobe.com/Graphs/1.0/">
	<!ENTITY ns_vars "http://ns.adobe.com/Variables/1.0/">
	<!ENTITY ns_imrep "http://ns.adobe.com/ImageReplacement/1.0/">
	<!ENTITY ns_sfw "http://ns.adobe.com/SaveForWeb/1.0/">
	<!ENTITY ns_custom "http://ns.adobe.com/GenericCustomNamespace/1.0/">
	<!ENTITY ns_adobe_xpath "http://ns.adobe.com/XPath/1.0/">
]>
<svg version="1.1" id="Capa_1" xmlns:x="&ns_extend;" xmlns:i="&ns_ai;" xmlns:graph="&ns_graphs;"
	 xmlns="http://www.w3.org/2000/svg" xmlns:xlink="http://www.w3.org/1999/xlink" x="0px" y="0px" width="155.706px"
	 height="74.254px" viewBox="0 0 155.706 74.254" style="enable-background:new 0 0 155.706 74.254;" xml:space="preserve">
<style type="text/css">
	.st0{opacity:0.5;fill:#FFFFFF;enable-background:new    ;}
	.st1{fill:url(#XMLID_2_);}
	.st2{fill:none;}
	.st3{fill:url(#SVGID_1_);}
	.st4{fill:#FFFFFF;}
</style>
<metadata><?xpacket begin="﻿" id="W5M0MpCehiHzreSzNTczkc9d"?>
<x:xmpmeta xmlns:x="adobe:ns:meta/" x:xmptk="Adobe XMP Core 5.5-c014 79.151739, 2013/04/03-12:12:15        ">
   <rdf:RDF xmlns:rdf="http://www.w3.org/1999/02/22-rdf-syntax-ns#">
      <rdf:Description rdf:about=""
            xmlns:dc="http://purl.org/dc/elements/1.1/"
            xmlns:xmp="http://ns.adobe.com/xap/1.0/"
            xmlns:xmpGImg="http://ns.adobe.com/xap/1.0/g/img/"
            xmlns:xmpMM="http://ns.adobe.com/xap/1.0/mm/"
            xmlns:stRef="http://ns.adobe.com/xap/1.0/sType/ResourceRef#"
            xmlns:stEvt="http://ns.adobe.com/xap/1.0/sType/ResourceEvent#"
            xmlns:illustrator="http://ns.adobe.com/illustrator/1.0/"
            xmlns:xmpTPg="http://ns.adobe.com/xap/1.0/t/pg/"
            xmlns:stDim="http://ns.adobe.com/xap/1.0/sType/Dimensions#"
            xmlns:xmpG="http://ns.adobe.com/xap/1.0/g/"
            xmlns:pdf="http://ns.adobe.com/pdf/1.3/">
         <dc:format>image/svg+xml</dc:format>
         <dc:title>
            <rdf:Alt>
               <rdf:li xml:lang="x-default">Imprimir</rdf:li>
            </rdf:Alt>
         </dc:title>
         <xmp:MetadataDate>2017-08-15T21:16:32-05:00</xmp:MetadataDate>
         <xmp:ModifyDate>2017-08-15T21:16:32-05:00</xmp:ModifyDate>
         <xmp:CreateDate>2017-08-15T21:16:32-05:00</xmp:CreateDate>
         <xmp:CreatorTool>Adobe Illustrator CC (Windows)</xmp:CreatorTool>
         <xmp:Thumbnails>
            <rdf:Alt>
               <rdf:li rdf:parseType="Resource">
                  <xmpGImg:width>256</xmpGImg:width>
                  <xmpGImg:height>124</xmpGImg:height>
                  <xmpGImg:format>JPEG</xmpGImg:format>
                  <xmpGImg:image>/9j/4AAQSkZJRgABAgEASABIAAD/7QAsUGhvdG9zaG9wIDMuMAA4QklNA+0AAAAAABAASAAAAAEA&#xA;AQBIAAAAAQAB/+4ADkFkb2JlAGTAAAAAAf/bAIQABgQEBAUEBgUFBgkGBQYJCwgGBggLDAoKCwoK&#xA;DBAMDAwMDAwQDA4PEA8ODBMTFBQTExwbGxscHx8fHx8fHx8fHwEHBwcNDA0YEBAYGhURFRofHx8f&#xA;Hx8fHx8fHx8fHx8fHx8fHx8fHx8fHx8fHx8fHx8fHx8fHx8fHx8fHx8fHx8f/8AAEQgAfAEAAwER&#xA;AAIRAQMRAf/EAaIAAAAHAQEBAQEAAAAAAAAAAAQFAwIGAQAHCAkKCwEAAgIDAQEBAQEAAAAAAAAA&#xA;AQACAwQFBgcICQoLEAACAQMDAgQCBgcDBAIGAnMBAgMRBAAFIRIxQVEGE2EicYEUMpGhBxWxQiPB&#xA;UtHhMxZi8CRygvElQzRTkqKyY3PCNUQnk6OzNhdUZHTD0uIIJoMJChgZhJRFRqS0VtNVKBry4/PE&#xA;1OT0ZXWFlaW1xdXl9WZ2hpamtsbW5vY3R1dnd4eXp7fH1+f3OEhYaHiImKi4yNjo+Ck5SVlpeYmZ&#xA;qbnJ2en5KjpKWmp6ipqqusra6voRAAICAQIDBQUEBQYECAMDbQEAAhEDBCESMUEFURNhIgZxgZEy&#xA;obHwFMHR4SNCFVJicvEzJDRDghaSUyWiY7LCB3PSNeJEgxdUkwgJChgZJjZFGidkdFU38qOzwygp&#xA;0+PzhJSktMTU5PRldYWVpbXF1eX1RlZmdoaWprbG1ub2R1dnd4eXp7fH1+f3OEhYaHiImKi4yNjo&#xA;+DlJWWl5iZmpucnZ6fkqOkpaanqKmqq6ytrq+v/aAAwDAQACEQMRAD8A5imc+XrArLgLMKqZEsgr&#xA;LkWYVkyJZhWTIlmFVMiWQVkyJZhWXIsgqpkSzCsuRZhWTIlkFZMiWYVVwMwrJkSyCsuRZhz4hSot&#xA;hDEqT5IMCotkmBUWyQYlRfJBgVJskwKi+SDEqLZIMCpPkgwKi+SDAqLZIMSovkgwKk2SYFRfCGJR&#xA;Wg/8d/Tf+YqD/k4uWQ5hpy/Sfcl6ZEswrLgLMKqZEsgrLkWYVkyJZhWTIlmFVMiWQVkyJZhWXIsg&#xA;qpkSzCsuRZhWTIlkFZMiWYZf5L/L7U/M0ctzHMlrZQt6ZncFiz0BKqop0BFanMzSaGWYWDQddr+1&#xA;IaYgEcUj0ZWPyPuh/wBLdP8AkSf+a8zP5FP877HX/wCiSP8AMPz/AGLx+Sd0P+lsn/Ik/wDNeD+R&#xA;D/O+xl/olj/MPz/Y4/kpdH/pbJ/yJP8AzXj/ACIf532L/olj/MPz/YxHzj5F1Xy26PMRcWUu0d1G&#xA;CF5fyuD9k+HjmDqtDPDz3j3uz0HaePUjbaQ6MWfMQOeVFskwKi2SDEqL5IMCpNkmBUXyQYlRbJBg&#xA;VJ8kGBUXyQYFRbJBiVF8kGBUmyTAqL4QxKK0H/jv6b/zFQf8nFyyHMNOX6T7kvTIlmFZcBZhVTIl&#xA;kFZcizCsmRLMKyZEswqpkSyCsmRLMKy5FkFVMiWYVlyLMKyZEsgrJkSzD238qneP8vr2RCVdJbll&#xA;YdQREpBGdD2aa05+P3PJdsi9VEHuj97zdfOvm3/q73X/ACNb+uaT85m/nH5vTDs7T/zI/JVXzn5s&#xA;/wCrtdf8jW/rkfzub+dL5sv5N0/8yPyZH+X/AJm8w3vnCwtbvUbie3k9bnFJIzKeMDsKg+BFczez&#xA;tVklmiJSJG/3F13a+iww00pRhEHbp/SD16/sLS/tJbO8iWa2mXjJG3Qj+vgc6OcBMUdwXjcWWWOQ&#xA;lE0Q8A8/eTZfLOprGr+rY3XJ7SQ/aopHJG/yl5DfvnLa3SHDKv4Tye57N7QGphfKUebE2zEc8qLZ&#xA;IMSovkgwKk2SYFRfJBiVFskGBUnyQYFRfJBgVFskGJUXyQYFSbJMCovhDEorQf8Ajv6b/wAxUH/J&#xA;xcshzDTl+k+5L0yJZhWXAWYVUyJZBWXIswrJkSzCsmRLMKqZEsgrJkSzCsuRZBVTIlmFZcizCsmR&#xA;LIKyZEsw9s/K7/yXd/8A8ZLn/k0udB2d/i8vj9zyfbH+Nx/zfvYh5A1vyXp0F0mv2K3E8jKYZZIV&#xA;nUIB9kK1eJr37/Rmt0ObBAHxBZ91u57T02pyGPgyodd6ZReebfyrks50i0uIyMjBAlpHG1SNqOAO&#xA;PzzMyavSGJ9I/wBK67FoO0BIEzNX/OJeaWGo3mm30N9ZyGK5gblG4oabUOx6gg0OaPFklCQlHmHq&#xA;M+GOSBhIXEs00L80fNd5runWc8kJgubqGGUCIA8JJFVqGvgc22DtPLLJGJqiR0dBquxdPDFKQBsR&#xA;J5+SN/Pfpon/AEdf8ycv7Z/g+P6HF9nP8p/m/wC+eSNmkelKi2SDEqL5IMCpNkmBUXyQYlRbJBgV&#xA;J8kGBUXyQYFRbJBiVF8kGBUmyTAqL4QxKK0H/jv6b/zFQf8AJxcshzDTl+k+5L0yJZhWXAWYVUyJ&#xA;ZBWXIswrJkSzCsmRLMKqZEsgrJkSzCsuRZBVTIlmFZcizCsmRLIKyZEsw9s/K7/yXd//AMZLn/k0&#xA;udB2d/i8vj9zyfbH+Nx/zfvYl+Xlh5Euobo+Y5UW4VlEEcsrwpwp1BQpU17VzXaDHgkD4p399O47&#xA;Uy6qJj4I260LZVf6N+T6WM7RTQJII2KNFcyu4am3FS7gn6MzcmHRcJoj5n9brcOp7SMxYNX1iK+5&#xA;5O+c8Hrij/Kv/KVaN/zHW3/J5cydJ/ex/rD73C1/9xP+pL7md/nv00T/AKOv+ZObftn+D4/oef8A&#xA;Zz/Kf5v++eSNmkelKi2SDEqL5IMCpNkmBUXyQYlRbJBgVJ8kGBUXyQYFRbJBiVF8kGBUmyTAqL4Q&#xA;xKK0H/jv6b/zFQf8nFyyHMNOX6T7kvTIlmFZcBZhVTIlkFZcizCsmRLMKyZEswqpkSyCsmRLMKy5&#xA;FkFVMiWYVlyLMKyZEsgrJkSzD2z8rv8AyXd//wAZLn/k0udB2d/i8vj9zyfbH+Nx/wA373jyZzhe&#xA;xCsuRZhlGm/lv5p1OxivbeBEgmHKL1HCsyno1PA9szsPZuacRIDYur1HbOnxTMCTY7gmuhfld5rs&#xA;9d068njhEFtdQzSkSgnhHIrNQU8BmXg7MyxyRkaoEdXA1XbWnnilEE2YkcvJlP5o+T9a8x/oz9GL&#xA;G31X1/V9Rwn956fGlf8AUObDtHSzy8PD0v8AQ6nsfXY9Px8f8VfZbxbXdE1LRdQew1GL0rmMA0qG&#xA;BVtwykbEHNBlwyxy4Zc3q8GohmhxQNhK2yAbCovkgwKk2SYFRfJBiVFskGBUnyQYFRfJBgVFskGJ&#xA;UXyQYFSbJMCovhDEorQf+O/pv/MVB/ycXLIcw05fpPuS9MiWYVlwFmFVMiWQVlyLMKyZEswrJkSz&#xA;CqmRLIKyZEswrLkWQVUyJZhWXIswrJkSyCsmRLMPbPyu/wDJd3//ABkuf+TS50HZ3+Ly+P3PJ9sf&#xA;43H/ADfvePJnOF7EKy5FmHvFzZ3F75R0aC1hS5DLaFonZkiaMRgnmyBiF+QzrZQMsMABf0vAQyRh&#xA;qchka+r33fmgJNHW0uYItXtLi+i9GY2yWazzJC7zchGki8SvFSArPT6KZUcPCQJgy2NVZrflbcNR&#xA;xxJxmMTYvi4Re3Ov0C1fQtB1htaS+1ZEeSC3th6soZ5OYR+QRlcJUEjmSDU5ZgwT4+KfQBr1Opx+&#xA;Hw4+spcveOe3yYB+eNP8WWtP+WGOv/I6XNb2t/ej+r+ku47A/uD/AFj9webtmsDuyovkgwKk2SYF&#xA;RfJBiVFskGBUnyQYFRfJBgVFskGJUXyQYFSbJMCovhDEorQf+O/pv/MVB/ycXLIcw05fpPuS9MiW&#xA;YVlwFmFVMiWQVlyLMKyZEswrJkSzCqmRLIKyZEswrLkWQVUyJZhWXIswrJkSyCsmRLMPbvynieby&#xA;DeQxiskk1wijpu0agZ0PZgvAR5n7nke2pAaqJPcPvYWv5Uedh/x5x/8AI6L/AJqzV/yXn7vtDvR2&#xA;5pv5x+RVF/KvzoP+PRP+R0f/ADVg/krP3faE/wAu6X+cfkWR6Zpf5vaZZpZ2hj+rxCkSO1u/EeAL&#xA;VNMzMWLW448I5fB12oz9m5ZGUr4j/WTLTf8Alb36StPr3o/UfWj+t0+r19LmPUpx3+zXpmTi/OcQ&#xA;4q4b35cnDzfyfwS4L4qNfVz6O/NXzdrfl79GDS5liNz6/rckV68PT4/aBp9o5LtLVTxcPCed/oYd&#xA;jaHHn4+MXVfpeL6vq2o6teve6hO1xdSU5SNQbDYAAAAD2AzQZMspnikbL1eLDDFHhgKCXNkQzKi+&#xA;SDAqTZJgVF8kGJUWyQYFSfJBgVF8kGBUWyQYlRfJBgVJskwKi+EMSitB/wCO/pv/ADFQf8nFyyHM&#xA;NOX6T7kvTIlmFZcBZhVTIlkFZcizCsmRLMKyZEswqpkSyCsmRLMKy5FkFVMiWYVlyLMKyZEsgrJk&#xA;SzDI/K/nXXvLglTT5EMEx5SQSrzTkBTkNwQaeBzI0+syYfp5FxNX2fi1FcY3HUMiX84/Np/Ytf8A&#xA;kW3/ADXmT/K+bycMez+n/pfP9i9fzg82H9i1/wCRbf8ANeR/ljN/R+TL/Q9p/wCl8/2Nt+b/AJsH&#xA;7Fr/AMi2/wCa8f5Yzf0fkp9ntP8A0vn+xTb84/No/Ytf+Rbf815L+V83kx/0P6f+l8/2MU8yeZdW&#xA;1+9F3qMgd0XhEiDiiLWtFH9cw8+onlNydjptJjwR4YBJWypuKi2SDEqL5IMCpNkmBUXyQYlRbJBg&#xA;VJ8kGBUXyQYFRbJBiVF8kGBUmyTAqL4QxKK0H/jv6b/zFQf8nFyyHMNOX6T7ldfJ/m3/AKsl/wD9&#xA;Is3/ADTh8OXcUDNDvHzVV8oebP8AqyX/AP0izf8ANODw5dxZDNDvHzVV8o+a/wDqy3//AEjTf805&#xA;E4pdxZjND+cPmrL5S81f9Wa+/wCkab/mnI+FLuLIZ4fzh81VfKfmn/qzX3/SNN/zTkTin3FkM+P+&#xA;cPmqr5U80f8AVnvv+kab/mnAcU+4/JmM+P8AnD5qq+VfM/8A1Z73/pGl/wCacj4M+4/JkNRj/nR+&#xA;YVV8r+Zv+rRe/wDSPL/zTkThn3H5MxqMf86PzCsvljzL/wBWm9/6R5f+acHgz/mn5MhqMf8AOj8w&#xA;qr5Z8yf9Wm8/6R5f+acj4M/5p+TManH/ADo/MKq+WvMf/VqvP+keX/mnI+BP+afkyGpxfzo/MKq+&#xA;W/MX/VrvP+REv/NOROCf80/JkNVi/nR+YVV8ueYf+rXd/wDIiX/mnAcGT+afkzGqxfzo/MKq+XfM&#xA;H/Vsu/8AkRJ/zTkfAyfzT8mQ1WL+fH5hWXy9r/8A1bbr/kRJ/wA05E6fJ/NPyLMavF/Pj8wqroGv&#xA;f9W26/5Eyf8ANOR/L5P5svkWX5vD/Pj8w5tA17/q23X/ACJk/wCacRp8n82XyKnV4f58fmFJvL2v&#xA;/wDVtuv+REn/ADTkvy+T+afkWJ1eL+fH5hSby75g/wCrZd/8iJP+ackMGT+afkxOqxfz4/MKTeXP&#xA;MP8A1a7v/kRL/wA04fAyfzT8mB1WL+dH5hRby35i/wCrXd/8iJf+ackME/5p+TE6rF/Oj8wpN5a8&#xA;x/8AVqvP+keX/mnJDBP+afkwOpxfzo/MKTeWfMn/AFabz/pHl/5pyXgz/mn5MfzOP+dH5hSbyx5l&#xA;/wCrTe/9I8v/ADThGGf80/JgdTj/AJ0fmFJvK/mb/q0Xv/SPL/zTkhhn3H5MTqMf86PzCk3lbzP/&#xA;ANWi9/6Rpf8AmnJeDPuPyYnUY/50fmFFvKnmj/qz33/SNN/zTkhin3H5MDnx/wA4fNSbyn5p/wCr&#xA;Nff9I03/ADThGKfcWJz4/wCcPmpN5S81f9Wa+/6Rpv8AmnJDFLuLA54fzh81JvKPmv8A6st//wBI&#xA;03/NOS8KXcWJzQ/nD5qTeUPNn/Vkv/8ApFm/5pyQxy7ixOaH84fNEaJ5S81prmnu+i3yotzCWY20&#xA;wAAkBJJ45OGOVjYtOTLDhO4+b7SzdvNOxV2KuxV2KuxV2KuxV2KuxV2KuxV2KuxV2KuxV2KuxV2K&#xA;uxV2KuxV2KuxV2KuxV2KuxV2KuxV2KuxV2KuxV2KuxV2KuxVjGufmZ5G0LUpNN1bVo7W+iCtJAyS&#xA;sQHUMu6ow3B8cqlmhE0S3w02SYsDZNNK8z+X9W06TUtNv4buyhDGaWJuXDiOR5L9pTTehGSjkiRY&#xA;LCeKUTRFFIB+cX5anprkX/Iub/mjKvzePvb/AMhm/mpxe+dPK1jpdrqt3qUUNjeqHtJW5AyKRWqp&#xA;TmdvbJyzwABJ2LXDTZJSMQNwq6B5q8veYIpJNHvo7xYqeqq1Vlr05IwVhX5YceaM/pNozaeeP6hS&#xA;C1H8xPJWnXzWN3q0Md0h4yRjm/Fh1DMisqkd6nK56vHE0Tu249BmnHiETSfQXFvPAlxBIssEih45&#xA;UIZGUioYMNiMvBBFhxZRINHmgdF8x6JraSvpV2l0sDBZSoYcSdx9oDrTK8WeGT6Tbdn02TFXGKtC&#xA;ah558qafey2V5qCQ3UJAliKyEgkAjcKR0OVZNbigalLdvxdm58kRKMbB9yY6XrGl6rAZ9OuY7mJT&#xA;xZozWh60I6j6cuxZoZBcTbj5tPkxGpgxKW3Hnzyhb3JtpdTiEqni1OTKD03dQV/HKJa/CDRkHKj2&#xA;VqZR4hA0ncM0M8KTQussMgDRyIQysp3BBGxGZQIIsODKJiaOxQOj+Y9E1n1/0XdpdfViFm4BhxLV&#xA;p9oDrxOV4s8Ml8Jum7PpcmKuMVaA1L8wPJ+mXstjfakkF1CQJYikhKkgEbqpHQ5XPV4omid2zH2f&#xA;mnESjGwfcmOj6/o2tQNPpd5HdxIeLmM1KkioDA0I+nLceWMxcTbRmwTxmpikP5g82+XfL3ofpm9W&#xA;z+s8/Q5K7cvT48vsK3TmMGTNCH1GrZYdNky3wC6a0Lzh5Y15nTSNRiu5IxyeJSQ4WtK8GCtSvemO&#xA;PNCf0m1y6bJj+oUlEf5u/lw7hBrkILdCyyqPpZkAGQGqx97YdDmH8Kca15u8t6JpkOqanfxwafcO&#xA;scFyOUiOzqzqFMYetVQmuWyyRiLJ2aYYZyNAbpZpH5peQdX1KDTdN1eO4vrklYYVSUFiAWO7IB0B&#xA;75GOeEjQLOelyRFkbMqy1x3Yq7FXYq7FXYq7FXYq7FXYq7FXYq8ai07T7/8A5yN1aC+toruAaYjC&#xA;KdFkXkI4KHiwIrvmFQOY33Oy4iNMK7/1oOzs7XRPzd816TosawaZPo8ktzZxUWKNxCjAhRtsz7Ad&#xA;OXhkAOHLIDlTaSZ4Iylz4kD+WVr5rk8oWraf5P0rV7UvLwv7toRM59Q1BD/F8J2GV4BPg2iC26o4&#xA;/ENzlE9wZN598uX19rHly50ptMOvafbAHytcvEUI4lz6URIDKtGHb7IIO2T1GMmUSK4h/C1aTMIx&#xA;mJcXAT9QS/y7qkVlq3mT6zoH6B84rpdzMgtnItpAkYYenECVUlkDAqTXffKsc6lK48M+Et+bGZRh&#xA;UuPFxDnz+abflj5U8pXv5dC91K1hmlvBcG/vJQrSIEkdarI1SnFFDbfPJ6TBjlhuQ53bX2hqcsdR&#xA;USdqoIzzFqeg+WfyyeDy9dCe2ui1pZSrKJfimJMpDDpxXkfY458kMWCoHY7BdLiyZ9VeQURudq5c&#xA;mNfl7qek6F5wsrOwvlurLVrSKK7I5BUvKdPiC1+MUX/WzD0eSOPKADYkN/f+Pvdj2jinmwSlKNSh&#xA;Ikf1f7PuR19eXVp5+8y3EOix60kaxtNHJxPpKEU8wCrE/QMckzHPMiHGuLHGelxA5Dju/juu0BJ1&#xA;8o+aPMNmYrcX44R2VsTSBQx51G3EhZPhp2yOEEYcmSO3F0HRnqSDqMOGVnh6nr+KTS203R7XyDYS&#xA;Q6D+mHvY/wDSmiA9ZWZSWf1OLsvAig8MuhjhHTxIhx8XPvcbLmyT1kgcnh8J2vl7q81P/FGn2H5W&#xA;S3GmQvZrK0lnZwySGVg8hPJg1B0BZskNTGOluIroGMtHOeuAmeKqkdq/HQMd8i6npOg+b9Mhsr0X&#xA;Nrq1rHBf05AR3bdB8QX9ugB9zmPo8kceWIBsSG/vcvtHFPNgkZRowkSPOP8AYv1K7u7T8yvMlxb6&#xA;HHroiiVpbeTifTRUjJkAZXqe2wrls5EZ5kR4vwGnHAS0uMGfBv8ArTz8m7Rbu61nzLGILWDUHEUW&#xA;m2rfDDwJY81oOPUcfmcyez42ZT2F9A4Xa8uERxGyY9T1UPzplMPmHyZKLI6iUuLhvqAAYzUa3/d0&#xA;IavLp0w641OG189vkx7LF48m/DsN+7moeU/Luuaj+Zdv5n/w7/hnSrS3dJLclVMztG8YPBQm55gn&#xA;4afD444ccpZePh4QuozQjgOPj45EqH5M+WPLWsflzdjV7C3nD3U6PcSRp6iII0NVkI5Lx6jfbDo8&#xA;cZYzY6o7RzThmHCTyDzm+vLu4/IW1jndnjtfMXo2wb9mP6m8lB7c5GzHsnD/AJ36HL4QNSa6w/S9&#xA;m8kWvmh9dVta8jaZoVtHG7xahbNavKJdgFHpMzCqlt82GISveIDqM5hw+mZl83omZLhuxV2KuxV2&#xA;KuxV2KuxV2KuxV2KuxV555l/KEax5suPM1p5gvtHvriNIWNkfTIREVac1KtQ8ASMxp6filxWQ5mL&#xA;V8MOExBHmmXlf8sdH8v22p8Lm5vtT1eNo73VLthJOwYEUBp03r4k9T0yWPAI33ljl1UpkbUI9Eg0&#xA;/wDJO8022W1sPOOr2lqhJSCCVoowWNTRUYDc5SNGQKEpByJdoCRswiSmut/lTbapbaXI2sXkWuaV&#xA;H6UOtBi07ryLD1CTyJBY0IYdclk0gkBueIdWGLXmBPpHDL+Hoi/KP5cWuhalc6te6hcazq90nove&#xA;XRrSM0qoUluvEDc9NhTDh0ogTInikUajXHJERAEYjoEoufyXsxLcx6ZrV7p2l3hJudNjNY2B6r9p&#xA;Rx/1gcol2eN+GRET0cmHaxocUIykORTiX8s9GY6JCkrpp2hkvFZEBllkZgzPKx6liN9stOiieEfw&#xA;x6NMe0pjjNeqfXu9yL8y+RdJ1uC3SOmnz2somiubeNA4IHToNq0P0YdRpI5AP4SO5jpO0J4Sf4gR&#xA;VFE6Z5Xhsdf1HWvXaWbUVRZYioCrwAFR86ZLHphHJKd7yYZtYZ4o46oQQ2k+R7DS9Q1Ga3lY2GpK&#xA;yz6aygw/F4feR8jleLRRhKRB9Mv4ejdn7TnlhEEeuHKXVK3/ACx9NZLaw1y9s9MlJL2SMStD1FQV&#xA;2PuPnmP/ACZW0ZyEe5y/5b4qlPHCUx/EiX/LTRzFpVsk8osdLlM/1ZqOJpGKkmQnx40oBlv8nQqI&#xA;s8Md/e0fyvkuciBxTFX3DyRfmjyLpGu2UUAAsJoZRNFc26IrggEU6DbfLtRpI5BXL3NGl7QnhkT9&#xA;QIqiv0nyfDp/ma/8wfWnmudQiWKWMqqqOIT4hTx4YcemEchne5YZtYZ4o46oRKjoXkSz0PzFf6tp&#xA;1zJFbahvPpvFfRDVqGU9RRiaeFaY4tMITMonY9E59acuMQkN49eqI8xeT7bW9Z0TVJbh4ZNEmaeK&#xA;NQCJC5Q0Ynp/ddsllwCcoy/mteHUnHCUQPrT/L3GeWWv5ErbWb6fD5p1SHTZSTPZQv6cT8hRqoDw&#xA;NQN6rmDHRUK4jTs5dpWbMI33p15h/KTQNV8nWPlS2lk0/T7C4W5jeMCR2cJIrFy3UsZSScunpomA&#xA;iNgHHx6yUchmdyWc5kOI7FXYq7FXYq7FXYq7FXYq7FXYq7FXYq7FXYq7FXYq7FXYq7FXYq7FXYq7&#xA;FXYq7FXYq7FXYq7FXYq7FXYq7FXYq7FXYq7FXYq7FXYq7FXYq7FXYq7FXYq7FXYq7FXYq7FXYq7F&#xA;XYq7FXYq7FXYq7FXYq7FXYq7FXYq7FXYq7FXYq7FXYq//9k=</xmpGImg:image>
               </rdf:li>
            </rdf:Alt>
         </xmp:Thumbnails>
         <xmpMM:InstanceID>xmp.iid:00ace429-8de1-3543-9c12-683d8f5e1879</xmpMM:InstanceID>
         <xmpMM:DocumentID>xmp.did:00ace429-8de1-3543-9c12-683d8f5e1879</xmpMM:DocumentID>
         <xmpMM:OriginalDocumentID>uuid:5D20892493BFDB11914A8590D31508C8</xmpMM:OriginalDocumentID>
         <xmpMM:RenditionClass>proof:pdf</xmpMM:RenditionClass>
         <xmpMM:DerivedFrom rdf:parseType="Resource">
            <stRef:instanceID>xmp.iid:9abfa668-2609-c146-aeb5-945099e7e6e3</stRef:instanceID>
            <stRef:documentID>xmp.did:9abfa668-2609-c146-aeb5-945099e7e6e3</stRef:documentID>
            <stRef:originalDocumentID>uuid:5D20892493BFDB11914A8590D31508C8</stRef:originalDocumentID>
            <stRef:renditionClass>proof:pdf</stRef:renditionClass>
         </xmpMM:DerivedFrom>
         <xmpMM:History>
            <rdf:Seq>
               <rdf:li rdf:parseType="Resource">
                  <stEvt:action>saved</stEvt:action>
                  <stEvt:instanceID>xmp.iid:9abfa668-2609-c146-aeb5-945099e7e6e3</stEvt:instanceID>
                  <stEvt:when>2017-04-11T01:59:07-05:00</stEvt:when>
                  <stEvt:softwareAgent>Adobe Illustrator CC (Windows)</stEvt:softwareAgent>
                  <stEvt:changed>/</stEvt:changed>
               </rdf:li>
               <rdf:li rdf:parseType="Resource">
                  <stEvt:action>saved</stEvt:action>
                  <stEvt:instanceID>xmp.iid:00ace429-8de1-3543-9c12-683d8f5e1879</stEvt:instanceID>
                  <stEvt:when>2017-08-15T21:16:32-05:00</stEvt:when>
                  <stEvt:softwareAgent>Adobe Illustrator CC (Windows)</stEvt:softwareAgent>
                  <stEvt:changed>/</stEvt:changed>
               </rdf:li>
            </rdf:Seq>
         </xmpMM:History>
         <illustrator:StartupProfile>Print</illustrator:StartupProfile>
         <xmpTPg:HasVisibleOverprint>False</xmpTPg:HasVisibleOverprint>
         <xmpTPg:HasVisibleTransparency>True</xmpTPg:HasVisibleTransparency>
         <xmpTPg:NPages>1</xmpTPg:NPages>
         <xmpTPg:MaxPageSize rdf:parseType="Resource">
            <stDim:w>155.705994</stDim:w>
            <stDim:h>74.254028</stDim:h>
            <stDim:unit>Pixels</stDim:unit>
         </xmpTPg:MaxPageSize>
         <xmpTPg:PlateNames>
            <rdf:Seq>
               <rdf:li>Cyan</rdf:li>
               <rdf:li>Magenta</rdf:li>
               <rdf:li>Yellow</rdf:li>
               <rdf:li>Black</rdf:li>
            </rdf:Seq>
         </xmpTPg:PlateNames>
         <xmpTPg:SwatchGroups>
            <rdf:Seq>
               <rdf:li rdf:parseType="Resource">
                  <xmpG:groupName>Grupo de muestras por defecto</xmpG:groupName>
                  <xmpG:groupType>0</xmpG:groupType>
               </rdf:li>
            </rdf:Seq>
         </xmpTPg:SwatchGroups>
         <pdf:Producer>Adobe PDF library 10.01</pdf:Producer>
      </rdf:Description>
   </rdf:RDF>
</x:xmpmeta>
                                                                                                    
                                                                                                    
                                                                                                    
                                                                                                    
                                                                                                    
                                                                                                    
                                                                                                    
                                                                                                    
                                                                                                    
                                                                                                    
                                                                                                    
                                                                                                    
                                                                                                    
                                                                                                    
                                                                                                    
                                                                                                    
                                                                                                    
                                                                                                    
                                                                                                    
                                                                                                    
                           
<?xpacket end="w"?>
	</metadata>
<g>
	<rect id="XMLID_281_" x="0.541" y="0" class="st0" width="154.914" height="74.254"/>
	<linearGradient id="XMLID_2_" gradientUnits="userSpaceOnUse" x1="0" y1="24.077" x2="155.336" y2="24.077">
		<stop  offset="0" style="stop-color:#783214"/>
		<stop  offset="0.5" style="stop-color:#F16529"/>
		<stop  offset="1" style="stop-color:#783214"/>
	</linearGradient>
	<rect id="XMLID_266_" y="0" class="st1" width="155.336" height="48.154"/>
	<rect id="XMLID_277_" y="57.455" class="st2" width="155.706" height="13.102"/>
	<linearGradient id="SVGID_1_" gradientUnits="userSpaceOnUse" x1="30.673" y1="61.3965" x2="125.316" y2="61.3965">
		<stop  offset="0" style="stop-color:#783214"/>
		<stop  offset="0.5" style="stop-color:#F16529"/>
		<stop  offset="1" style="stop-color:#783214"/>
	</linearGradient>
	<path class="st3" d="M30.673,57.457h2.906c0.655,0,1.155,0.05,1.499,0.15c0.462,0.136,0.857,0.378,1.187,0.726
		c0.33,0.347,0.58,0.772,0.752,1.275s0.258,1.123,0.258,1.861c0,0.647-0.081,1.206-0.242,1.676
		c-0.197,0.572-0.478,1.036-0.843,1.391c-0.276,0.269-0.648,0.479-1.117,0.629c-0.351,0.11-0.82,0.166-1.407,0.166h-2.992
		L30.673,57.457L30.673,57.457z M32.263,58.789v5.216h1.187c0.444,0,0.765-0.025,0.961-0.076c0.258-0.064,0.472-0.173,0.642-0.327
		s0.309-0.407,0.417-0.76s0.161-0.834,0.161-1.442s-0.054-1.076-0.161-1.402c-0.107-0.325-0.258-0.58-0.451-0.762
		c-0.193-0.184-0.438-0.307-0.736-0.371c-0.222-0.05-0.657-0.075-1.305-0.075h-0.715V58.789z M38.623,65.331v-7.874h5.838v1.332
		h-4.249v1.745h3.953v1.327h-3.953v2.144h4.399v1.326C44.611,65.331,38.623,65.331,38.623,65.331z M45.557,62.769l1.547-0.15
		c0.093,0.52,0.282,0.901,0.566,1.145c0.285,0.243,0.669,0.365,1.152,0.365c0.512,0,0.898-0.108,1.157-0.325
		c0.26-0.217,0.39-0.47,0.39-0.76c0-0.187-0.055-0.345-0.164-0.476s-0.3-0.244-0.572-0.341c-0.186-0.064-0.61-0.179-1.273-0.344
		c-0.852-0.211-1.45-0.471-1.794-0.778c-0.483-0.434-0.725-0.962-0.725-1.585c0-0.401,0.114-0.776,0.341-1.125
		c0.227-0.35,0.555-0.615,0.982-0.798c0.428-0.183,0.945-0.273,1.55-0.273c0.988,0,1.732,0.216,2.231,0.649
		c0.5,0.434,0.762,1.012,0.787,1.735l-1.59,0.069c-0.068-0.404-0.214-0.695-0.438-0.873c-0.224-0.177-0.56-0.266-1.007-0.266
		c-0.462,0-0.824,0.095-1.085,0.284c-0.168,0.122-0.252,0.285-0.252,0.489c0,0.187,0.079,0.346,0.236,0.478
		c0.201,0.169,0.688,0.344,1.461,0.527c0.773,0.182,1.346,0.371,1.716,0.566c0.371,0.195,0.661,0.462,0.87,0.8
		c0.21,0.339,0.314,0.757,0.314,1.255c0,0.451-0.125,0.873-0.376,1.268c-0.25,0.394-0.605,0.687-1.063,0.878
		s-1.029,0.287-1.713,0.287c-0.996,0-1.76-0.23-2.293-0.69S45.661,63.649,45.557,62.769z M58.334,62.437l1.542,0.488
		c-0.236,0.859-0.629,1.498-1.179,1.915s-1.247,0.626-2.092,0.626c-1.045,0-1.905-0.357-2.578-1.072
		c-0.673-0.714-1.01-1.69-1.01-2.93c0-1.311,0.338-2.328,1.015-3.054c0.677-0.725,1.566-1.087,2.669-1.087
		c0.963,0,1.746,0.284,2.347,0.854c0.358,0.337,0.626,0.82,0.806,1.45l-1.574,0.376c-0.093-0.408-0.288-0.73-0.583-0.967
		c-0.296-0.236-0.655-0.354-1.077-0.354c-0.583,0-1.057,0.21-1.421,0.628c-0.363,0.42-0.545,1.098-0.545,2.036
		c0,0.995,0.179,1.704,0.537,2.127s0.824,0.634,1.396,0.634c0.422,0,0.786-0.135,1.09-0.402
		C57.983,63.435,58.202,63.013,58.334,62.437z M68.341,65.331h-1.729l-0.688-1.789h-3.147l-0.65,1.789H60.44l3.067-7.874h1.681
		L68.341,65.331z M65.414,62.216l-1.085-2.922l-1.063,2.922H65.414z M69.189,65.331v-7.874h3.346c0.841,0,1.453,0.07,1.834,0.212
		c0.381,0.142,0.687,0.394,0.916,0.755s0.344,0.775,0.344,1.241c0,0.59-0.174,1.078-0.521,1.463s-0.867,0.628-1.558,0.729
		c0.344,0.2,0.627,0.42,0.852,0.66c0.224,0.24,0.525,0.666,0.905,1.278l0.961,1.536h-1.901l-1.149-1.713
		c-0.408-0.613-0.688-0.999-0.838-1.158s-0.31-0.269-0.478-0.327c-0.168-0.06-0.435-0.089-0.8-0.089H70.78v3.287
		C70.78,65.331,69.189,65.331,69.189,65.331z M70.779,60.787h1.176c0.763,0,1.239-0.032,1.429-0.097s0.338-0.176,0.446-0.333
		s0.161-0.354,0.161-0.591c0-0.265-0.071-0.479-0.212-0.642c-0.142-0.163-0.341-0.267-0.599-0.31
		c-0.129-0.018-0.516-0.026-1.16-0.026h-1.241C70.779,58.788,70.779,60.787,70.779,60.787z M80.791,62.437V61.11h3.427v3.137
		c-0.333,0.322-0.815,0.606-1.447,0.852s-1.272,0.368-1.92,0.368c-0.824,0-1.542-0.173-2.154-0.519s-1.072-0.84-1.38-1.482
		s-0.462-1.342-0.462-2.098c0-0.82,0.172-1.549,0.516-2.187c0.344-0.637,0.847-1.126,1.509-1.466
		c0.505-0.262,1.134-0.392,1.886-0.392c0.978,0,1.741,0.204,2.291,0.614c0.549,0.41,0.902,0.977,1.061,1.7l-1.579,0.295
		c-0.111-0.387-0.319-0.691-0.626-0.915c-0.306-0.224-0.688-0.336-1.146-0.336c-0.695,0-1.247,0.22-1.657,0.661
		c-0.41,0.439-0.615,1.094-0.615,1.96c0,0.935,0.208,1.636,0.623,2.103c0.416,0.468,0.96,0.701,1.633,0.701
		c0.333,0,0.667-0.065,1.002-0.196s0.622-0.289,0.862-0.476v-0.998h-1.824V62.437z M92.785,65.331h-1.729l-0.688-1.789H87.22
		l-0.65,1.789h-1.687l3.067-7.874h1.681L92.785,65.331z M89.857,62.216l-1.085-2.922l-1.063,2.922H89.857z M93.633,65.331v-7.874
		h3.346c0.842,0,1.453,0.07,1.835,0.212c0.381,0.142,0.687,0.394,0.915,0.755c0.229,0.361,0.344,0.775,0.344,1.241
		c0,0.59-0.174,1.078-0.521,1.463c-0.348,0.385-0.867,0.628-1.558,0.729c0.344,0.2,0.627,0.42,0.852,0.66
		c0.224,0.24,0.525,0.666,0.904,1.278l0.962,1.536h-1.901l-1.149-1.713c-0.408-0.613-0.688-0.999-0.838-1.158
		s-0.31-0.269-0.479-0.327c-0.168-0.06-0.435-0.089-0.8-0.089h-0.322v3.287C95.223,65.331,93.633,65.331,93.633,65.331z
		 M95.223,60.787h1.176c0.763,0,1.239-0.032,1.429-0.097c0.19-0.064,0.339-0.176,0.446-0.333s0.161-0.354,0.161-0.591
		c0-0.265-0.071-0.479-0.212-0.642c-0.142-0.163-0.342-0.267-0.6-0.31c-0.129-0.018-0.516-0.026-1.16-0.026h-1.24
		C95.223,58.788,95.223,60.787,95.223,60.787z M104.627,65.331v-7.874h2.552c0.967,0,1.597,0.039,1.891,0.118
		c0.451,0.118,0.829,0.375,1.133,0.771c0.305,0.396,0.457,0.907,0.457,1.534c0,0.482-0.088,0.89-0.264,1.219
		c-0.175,0.329-0.398,0.588-0.668,0.776c-0.271,0.188-0.546,0.313-0.825,0.373c-0.379,0.075-0.929,0.112-1.648,0.112h-1.037v2.971
		H104.627z M106.217,58.789v2.234h0.87c0.627,0,1.046-0.041,1.257-0.124c0.212-0.082,0.377-0.211,0.497-0.387
		c0.12-0.175,0.18-0.379,0.18-0.611c0-0.287-0.084-0.523-0.252-0.709c-0.169-0.187-0.382-0.303-0.64-0.35
		c-0.189-0.036-0.571-0.054-1.144-0.054L106.217,58.789L106.217,58.789z M111.959,57.457h2.905c0.655,0,1.155,0.05,1.499,0.15
		c0.462,0.136,0.857,0.378,1.187,0.726c0.33,0.347,0.58,0.772,0.752,1.275s0.258,1.123,0.258,1.861c0,0.647-0.08,1.206-0.241,1.676
		c-0.197,0.572-0.479,1.036-0.844,1.391c-0.275,0.269-0.647,0.479-1.117,0.629c-0.351,0.11-0.819,0.166-1.407,0.166h-2.991v-7.874
		H111.959z M113.549,58.789v5.216h1.187c0.444,0,0.765-0.025,0.962-0.076c0.258-0.064,0.472-0.173,0.642-0.327
		s0.309-0.407,0.416-0.76s0.161-0.834,0.161-1.442s-0.054-1.076-0.161-1.402c-0.107-0.325-0.258-0.58-0.451-0.762
		c-0.193-0.184-0.438-0.307-0.735-0.371c-0.223-0.05-0.657-0.075-1.306-0.075h-0.715V58.789z M119.919,65.331v-7.874h5.397v1.332
		h-3.808v1.864h3.287v1.332h-3.287v3.346H119.919z"/>
	<g id="XMLID_167_">
		<path id="XMLID_302_" class="st4" d="M76.332,15.24h-4.789c-0.738,0-1.337,0.598-1.337,1.337s0.598,1.337,1.337,1.337h4.789
			c0.738,0,1.337-0.598,1.337-1.337S77.071,15.24,76.332,15.24z"/>
		<path id="XMLID_297_" class="st4" d="M76.332,20.795h-4.789c-0.738,0-1.337,0.598-1.337,1.337s0.598,1.337,1.337,1.337h4.789
			c0.738,0,1.337-0.598,1.337-1.337S77.071,20.795,76.332,20.795z"/>
		<path id="XMLID_296_" class="st4" d="M81.952,30.154v1.302h0.688c0.834,0,0.834-0.499,0.834-0.663c0-0.158,0-0.639-0.834-0.639
			H81.952L81.952,30.154z"/>
		<path id="XMLID_186_" class="st4" d="M92.105,27.694H89.93V14.145c0-0.351-0.139-0.687-0.387-0.934l-5.247-5.247
			c-0.248-0.248-0.584-0.387-0.934-0.387H67.573c-1.431,0-2.594,1.164-2.594,2.594v27.811c0,1.431,1.164,2.594,2.594,2.594h19.763
			c1.43,0,2.594-1.164,2.594-2.594v-2.678h2.175c1.131,0,2.047-0.917,2.047-2.047V29.74C94.152,28.611,93.236,27.694,92.105,27.694z
			 M87.113,37.688H67.796V10.465h13.731v3.883c0,0.941,0.762,1.703,1.702,1.703h3.884v11.643h-6.61
			c-1.131,0-2.047,0.917-2.047,2.047v3.517c0,1.131,0.917,2.047,2.047,2.047h6.61L87.113,37.688L87.113,37.688z M84.32,30.793
			c0,0.93-0.644,1.508-1.68,1.508h-0.688v0.8c0,0.206-0.167,0.374-0.374,0.374H81.48c-0.207,0-0.374-0.168-0.374-0.374v-3.419
			c0-0.206,0.167-0.374,0.374-0.374h1.159C83.676,29.308,84.32,29.877,84.32,30.793z M86.44,33.475h-1.345
			c-0.207,0-0.374-0.168-0.374-0.374v-3.419c0-0.206,0.167-0.374,0.374-0.374h1.345c1.172,0,2.125,0.936,2.125,2.086
			C88.565,32.542,87.612,33.475,86.44,33.475z M91.8,29.78c0,0.207-0.167,0.374-0.374,0.374h-1.519v0.896h1.294
			c0.206,0,0.374,0.167,0.374,0.374v0.098c0,0.206-0.168,0.374-0.374,0.374h-1.294v1.206c0,0.206-0.167,0.374-0.374,0.374h-0.098
			c-0.207,0-0.374-0.168-0.374-0.374v-3.419c0-0.206,0.167-0.374,0.374-0.374h1.99c0.207,0,0.374,0.168,0.374,0.374L91.8,29.78
			L91.8,29.78z"/>
		<path id="XMLID_185_" class="st4" d="M86.44,30.154h-0.874v2.476h0.874c0.705,0,1.279-0.554,1.279-1.235
			C87.719,30.71,87.145,30.154,86.44,30.154z"/>
	</g>
</g>
</svg>
