<?xml version="1.0" encoding="utf-8"?>
<!-- Generator: Adobe Illustrator 17.0.0, SVG Export Plug-In . SVG Version: 6.00 Build 0)  -->
<!DOCTYPE svg PUBLIC "-//W3C//DTD SVG 1.1//EN" "http://www.w3.org/Graphics/SVG/1.1/DTD/svg11.dtd" [
	<!ENTITY ns_extend "http://ns.adobe.com/Extensibility/1.0/">
	<!ENTITY ns_ai "http://ns.adobe.com/AdobeIllustrator/10.0/">
	<!ENTITY ns_graphs "http://ns.adobe.com/Graphs/1.0/">
	<!ENTITY ns_vars "http://ns.adobe.com/Variables/1.0/">
	<!ENTITY ns_imrep "http://ns.adobe.com/ImageReplacement/1.0/">
	<!ENTITY ns_sfw "http://ns.adobe.com/SaveForWeb/1.0/">
	<!ENTITY ns_custom "http://ns.adobe.com/GenericCustomNamespace/1.0/">
	<!ENTITY ns_adobe_xpath "http://ns.adobe.com/XPath/1.0/">
]>
<svg version="1.1" id="Capa_1" xmlns:x="&ns_extend;" xmlns:i="&ns_ai;" xmlns:graph="&ns_graphs;"
	 xmlns="http://www.w3.org/2000/svg" xmlns:xlink="http://www.w3.org/1999/xlink" x="0px" y="0px" width="155.706px"
	 height="74.254px" viewBox="0 0 155.706 74.254" style="enable-background:new 0 0 155.706 74.254;" xml:space="preserve">
<style type="text/css">
	.st0{opacity:0.5;fill:#FFFFFF;enable-background:new    ;}
	.st1{fill:url(#XMLID_2_);}
	.st2{fill:none;}
	.st3{fill:url(#SVGID_1_);}
	.st4{fill:#FFFFFF;}
</style>
<metadata><?xpacket begin="﻿" id="W5M0MpCehiHzreSzNTczkc9d"?>
<x:xmpmeta xmlns:x="adobe:ns:meta/" x:xmptk="Adobe XMP Core 5.5-c014 79.151739, 2013/04/03-12:12:15        ">
   <rdf:RDF xmlns:rdf="http://www.w3.org/1999/02/22-rdf-syntax-ns#">
      <rdf:Description rdf:about=""
            xmlns:dc="http://purl.org/dc/elements/1.1/"
            xmlns:xmp="http://ns.adobe.com/xap/1.0/"
            xmlns:xmpGImg="http://ns.adobe.com/xap/1.0/g/img/"
            xmlns:xmpMM="http://ns.adobe.com/xap/1.0/mm/"
            xmlns:stRef="http://ns.adobe.com/xap/1.0/sType/ResourceRef#"
            xmlns:stEvt="http://ns.adobe.com/xap/1.0/sType/ResourceEvent#"
            xmlns:illustrator="http://ns.adobe.com/illustrator/1.0/"
            xmlns:xmpTPg="http://ns.adobe.com/xap/1.0/t/pg/"
            xmlns:stDim="http://ns.adobe.com/xap/1.0/sType/Dimensions#"
            xmlns:xmpG="http://ns.adobe.com/xap/1.0/g/"
            xmlns:pdf="http://ns.adobe.com/pdf/1.3/">
         <dc:format>image/svg+xml</dc:format>
         <dc:title>
            <rdf:Alt>
               <rdf:li xml:lang="x-default">Imprimir</rdf:li>
            </rdf:Alt>
         </dc:title>
         <xmp:MetadataDate>2017-08-15T21:15:23-05:00</xmp:MetadataDate>
         <xmp:ModifyDate>2017-08-15T21:15:23-05:00</xmp:ModifyDate>
         <xmp:CreateDate>2017-08-15T21:15:23-05:00</xmp:CreateDate>
         <xmp:CreatorTool>Adobe Illustrator CC (Windows)</xmp:CreatorTool>
         <xmp:Thumbnails>
            <rdf:Alt>
               <rdf:li rdf:parseType="Resource">
                  <xmpGImg:width>256</xmpGImg:width>
                  <xmpGImg:height>124</xmpGImg:height>
                  <xmpGImg:format>JPEG</xmpGImg:format>
                  <xmpGImg:image>/9j/4AAQSkZJRgABAgEASABIAAD/7QAsUGhvdG9zaG9wIDMuMAA4QklNA+0AAAAAABAASAAAAAEA&#xA;AQBIAAAAAQAB/+4ADkFkb2JlAGTAAAAAAf/bAIQABgQEBAUEBgUFBgkGBQYJCwgGBggLDAoKCwoK&#xA;DBAMDAwMDAwQDA4PEA8ODBMTFBQTExwbGxscHx8fHx8fHx8fHwEHBwcNDA0YEBAYGhURFRofHx8f&#xA;Hx8fHx8fHx8fHx8fHx8fHx8fHx8fHx8fHx8fHx8fHx8fHx8fHx8fHx8fHx8f/8AAEQgAfAEAAwER&#xA;AAIRAQMRAf/EAaIAAAAHAQEBAQEAAAAAAAAAAAQFAwIGAQAHCAkKCwEAAgIDAQEBAQEAAAAAAAAA&#xA;AQACAwQFBgcICQoLEAACAQMDAgQCBgcDBAIGAnMBAgMRBAAFIRIxQVEGE2EicYEUMpGhBxWxQiPB&#xA;UtHhMxZi8CRygvElQzRTkqKyY3PCNUQnk6OzNhdUZHTD0uIIJoMJChgZhJRFRqS0VtNVKBry4/PE&#xA;1OT0ZXWFlaW1xdXl9WZ2hpamtsbW5vY3R1dnd4eXp7fH1+f3OEhYaHiImKi4yNjo+Ck5SVlpeYmZ&#xA;qbnJ2en5KjpKWmp6ipqqusra6voRAAICAQIDBQUEBQYECAMDbQEAAhEDBCESMUEFURNhIgZxgZEy&#xA;obHwFMHR4SNCFVJicvEzJDRDghaSUyWiY7LCB3PSNeJEgxdUkwgJChgZJjZFGidkdFU38qOzwygp&#xA;0+PzhJSktMTU5PRldYWVpbXF1eX1RlZmdoaWprbG1ub2R1dnd4eXp7fH1+f3OEhYaHiImKi4yNjo&#xA;+DlJWWl5iZmpucnZ6fkqOkpaanqKmqq6ytrq+v/aAAwDAQACEQMRAD8AgGvf8d/Uv+Yqf/k42aKf&#xA;MvU4/pHuQqZWW4Ky5EsgrJkSzCquRLMKyZEsgrJkSzCsuRZBVTIlmFZcizCsmRLIKyZEswqpgLMK&#xA;yZEswrLkWQVUyJZht8QpUWwhiVJ8kGBUWyTAqLZIMSovkgwKk2SYFRfJBiVFskGBUnyQYFRfJBgV&#xA;FskGJUXyQYFSbJMCovhDEorQf+O9pv8AzFQf8nFyyHMNOX6T7mte/wCO/qX/ADFT/wDJxsM+ZXH9&#xA;I9yFTKy3BWXIlkFZMiWYVVyJZhWTIlkFZMiWYVlyLIKqZEswrLkWYVkyJZBWTIlmFVMBZhWTIlmH&#xA;oPkf8s9Q1NrHVr0xJpLt6jQsWMkiKenECgDEU3bpmz0fZsp1OVcDpO0e2YYuLHG/E+wM081/l0ur&#xA;WCfUYrOyv4ZW9NokMUbW5JCo/EN8QFDWmbDV9neJH0iMZA+7Z1Og7Y8GfrM5QI77PF5eTyHWNLvN&#xA;K1GfT7xQtxAaOAajcBgQfAgg5zmXFLHIxlzD2GDPHLATj9JS5sgGwqT5IMCotkmBUWyQYlRfJBgV&#xA;JskwKi+SDEqLZIMCpPkgwKi+SDAqLZIMSovkgwKk2SYFRfCGJRWg/wDHe03/AJioP+Ti5ZDmGnL9&#xA;J9zWvf8AHf1L/mKn/wCTjYZ8yuP6R7kKmVluCsuRLIKyZEswqrkSzCsmRLIKyZEswrLkWQVUyJZh&#xA;WXIswrJkSyCsmRLMMm/Lu0trvzlpcFzGssLSktG4qp4ozCoPXcZk6KIlmiC4faUzHTzINGn0kAAA&#xA;AKAbADOseCY7F5c1uxU2+k6wtrp6kmC1mtVnMYY8iivzjPEE7V6ZhjTzjtCVR7qv9LsTq8U98kOK&#xA;fUiVX8KKp+i/OH/V+g/6QR/1Ww+Fm/nj/S/tR4+m/wBSP+n/AOOo/SNJ+oJO8kzXV5dyerdXLgKX&#xA;YKEACjZVVVAAy3Dh4Ls3I8y4+o1HiEADhjEUAw/85rW2fy1DctGpuIrlEjlp8QVlbktfA06Zr+14&#xA;jwgetu29npkZjG9jH9TxJ85wPYlRbJMCotkgxKi+SDAqTZJgVF8kGJUWyQYFSfJBgVF8kGBUWyQY&#xA;lRfJBgVJskwKi+EMSitB/wCO9pv/ADFQf8nFyyHMNOX6T7mte/47+pf8xU//ACcbDPmVx/SPchUy&#xA;stwVlyJZBWTIlmFVciWYVkyJZBWTIlmFZciyCqmRLMKy5FmFZMiWQVkyJZhln5Y/8pzpP/GR/wDk&#xA;0+Zeg/vo/jo4Pav+LT/HUM18/WWo6n5+j0621JdPBskkDSytFGSrNUDj+0czddCU8/CJcPp73Wdm&#xA;ZIY9KZyjxeroL7kGPy/1/wD6me1/6SZMp/IZP9UHzLkfyri/1GX+lC9fIOvD/pprX/pJkwfkMn+q&#xA;R+ZZfyrh/wBRl/pQg9b8q63pmmzXz+YYJlhAPox3MhdqkCijud8qzaTJjiZeIDXm36fX4ssxAYpC&#xA;++IZJ+YzM35a6WzEszG0JJ3JJhObDtD/ABaP+b9zqeyRWtn/AJ33vG3znw9YVFskwKi2SDEqL5IM&#xA;CpNkmBUXyQYlRbJBgVJ8kGBUXyQYFRbJBiVF8kGBUmyTAqL4QxKK0H/jvab/AMxUH/JxcshzDTl+&#xA;k+5rXv8Ajv6l/wAxU/8AycbDPmVx/SPchUystwVlyJZBWTIlmFVciWYVkyJZBWTIlmFZciyCqmRL&#xA;MKy5FmFZMiWQVkyJZhln5Y/8pzpP/GR/+TT5l6D++j+Ojg9q/wCLT/HUMu/MTRo9X/MGOzkvYbAG&#xA;xRxPcHilVZ/hHucy9fh8TPViPp6uv7K1BxaUyETL1ch8EvH5ZWv/AFMunf8AIwf81ZR/Jo/1SLlf&#xA;yzL/AFKfyVF/LW1H/TSad/yMH/NWD+TR/qkGQ7al/qWT5IPWvItvp+mz3q65Y3LQgEQRuC71IFFA&#xA;J33yrLoRCJlxxNN+n7UOSYj4c431IZb+YZB/LPSqf8un/Jk5stf/AIrH/N+50vZX+Oz/AM773jj5&#xA;oA9WVFskwKi2SDEqL5IMCpNkmBUXyQYlRbJBgVJ8kGBUXyQYFRbJBiVF8kGBUmyTAqL4QxKK0H/j&#xA;vab/AMxUH/JxcshzDTl+k+5rXv8Ajv6l/wAxU/8AycbDPmVx/SPchUystwVlyJZBWTIlmFVciWYV&#xA;kyJZBWTIlmFZciyCqmRLMKy5FmFZMiWQVkyJZhln5Y/8pzpP/GR/+TT5l6D++j+Ojg9q/wCLT/HU&#xA;Mu/MS20K5/MGOPW7x7Kx+ooTNGhduQZ+K0CvT7sy9fGBz+s1Hhdf2VPLHSk4o8UuL9SXjRPym7eY&#xA;bv8A5Eyf9UMo8HSfzz8v2OV+Z1/+pR+Y/wCKRukeQfLut6iqaLe3E+mW45X15IvD4j9mKJWRDypu&#xA;SRQZLFoMeWXoJMRzP6Axz9rZsELyxiJn6R+k78k2utT/ACm0RzYiyS+eP4ZJFjFxQ96ySEA/7HMi&#xA;WTR4vTXF9rhww9o5xx8XDfnX2D9K6+8reXPNOhTSeVLswMh5vYhmELSAHiHhc/u2O9GG3zyU9Niz&#xA;4ycJry6fLowx63NpcoGoF/0uteR6+54/cQywzSQyqUljYpIjbFWU0IPyOaEgg0XqhIEWORQzYWJU&#xA;WyQYlRfJBgVJskwKi+SDEqLZIMCpPkgwKi+SDAqLZIMSovkgwKk2SYFRfCGJRWg/8d7Tf+YqD/k4&#xA;uWQ5hpy/Sfc1r3/Hf1L/AJip/wDk42GfMrj+ke5CplZbgrLkSyCsmRLMKq5EswrJkSyCsmRLMKy5&#xA;FkFVMiWYVlyLMKyZEsgrJkSzDLPyx/5TnSf+Mj/8mnzL0H99H8dHB7V/xaf46hl/5hW/l+f8woo9&#xA;eupbTT/qKEzQrybmGfiNlk2/2JzM18cZ1H7w1Hhdf2XLLHSE4gJT4uvw9yEGjfk5212+/wCAb/sm&#xA;ynwdH/Pl+P8ANcj8x2j/AKnD8f56f6a66b+Ul5caWxLSNNSQbNxe49HkdhQ+kAcycZ4NGTDz++vu&#xA;cLKPF7RjHJ0r/c8X3vJ3zng9cWVflXe3UHnO1hhJ9O6WWOdB0KiNnB+hlBzZdlzIzADq6btzHGWm&#xA;JPONV86Qf5o28MHnfUVioA5jkZR2d4lZvvJr9ODtGIGeVfjZPY8jLTRvz+9iDZhuwKi2SDEqL5IM&#xA;CpNkmBUXyQYlRbJBgVJ8kGBUXyQYFRbJBiVF8kGBUmyTAqL4QxKK0H/jvab/AMxUH/JxcshzDTl+&#xA;k+5rXv8Ajv6l/wAxU/8AycbDPmVx/SPchUystwVlyJZBWTIlmFVciWYVkyJZBWTIlmFZciyCqmRL&#xA;MKy5FmFZMiWQVkyJZhknkC/tLDzfpl3dyCK3jlIklbZV5oygk9hVtzmRo5iOWJPJxO0ccp4JRiLN&#xA;PYvMPlTyV5iv11C9vx6vprGphuIgpVSSOob+bN5n02HLLikftDzGl1up08eCMdr6xKWj8svy9H/H&#xA;+/8A0kxf805R/Jun/nfaHK/lnV/zR/pSi9LGh6DLN5cuLiOfQdSBNnM8itxd1CywSstOPL7SHbv3&#xA;yeLw8ROIm8cuX6Qf0MM3i5wM8QRlhzFfKQ+4sb1b8m9WW6Y6XdQzWjGqeuWSRQex4qwPz/DMHL2N&#xA;MH0EEebs8HtHjMf3kSJeXJlfkX8vrfy47Xd1MtzqkqlQy1CRptyCV3Ne7U/t2Oh0Aw7k3J0/afap&#xA;1HpiKgPt97zD8y9C1nT/ADHc3d/+9hvpGkt7lQQjL2T2KLQUzT9oYZwyEy/i6vRdk6nHkwiMNjEb&#xA;j8d7DmzCdiVFskGJUXyQYFSbJMCovkgxKi2SDAqT5IMCovkgwKi2SDEqL5IMCpNkmBUXwhiUVoP/&#xA;AB3tN/5ioP8Ak4uWQ5hpy/Sfc1r3/Hf1L/mKn/5ONhnzK4/pHuQqZWW4Ky5EsgrJkSzCquRLMKyZ&#xA;EsgrJkSzCsuRZBVTIlmFZcizCsmRLIKyZEswqpgLMKyZEswrLkWQVUyJZhNLbzN5is4RDa6lcwwr&#xA;9mNZXCj5CtBl0NTkiKEiB73Gy6LDM3KESfcpWvmbXbXVo9VS8lkvY/8AdkrtJyXujcjup8MlDU5I&#xA;z47PEwyaPFLGcfCBHy2Z55k/Mzy1rfk+e0uLd/0lMgC25WqxyjpIsngPv7Zt8/aOPJhII9R+95/S&#xA;9kZsOoEgfQOveO6nkjZpXpCotkgxKi+SDAqTZJgVF8kGJUWyQYFSfJBgVF8kGBUWyQYlRfJBgVJs&#xA;kwKi+EMSitB/472m/wDMVB/ycXLIcw05fpPuTXW/KXmt9c1B00W/ZGuZmVhbTEEGQkEHjk545Wdi&#xA;148sOEbj5oZfKHmz/qyX/wD0izf805A45dxbRmh3j5qq+UfNf/Vlv/8ApGm/5pyPhS7iz8aH84fN&#xA;VXyl5q/6s19/0jTf805HwpdxZDPD+cPmrL5T80/9Wa+/6Rpv+acHhT7izGfH/OHzVV8qeaP+rPff&#xA;9I03/NOROKfcfkyGfH/OHzVV8q+Z/wDqz3v/AEjS/wDNOR8GfcfkyGox/wA6PzCqvlbzN/1aL3/p&#xA;Hl/5pyPgz7j8mY1GP+dH5hVXyx5l/wCrTe/9I8v/ADTgOGf80/JkNRj/AJ0fmFVfLPmT/q03n/SP&#xA;L/zTkfBn/NPyZjU4/wCdH5hWXy15j/6tV5/0jy/805HwJ/zT8mQ1OL+dH5hVXy35i/6td5/yIl/5&#xA;pyJwT/mn5MxqsX86PzCqvlzzD/1a7v8A5ES/804DgyfzT8mQ1WL+dH5hVXy75g/6tl3/AMiJP+ac&#xA;icGT+afkyGqxfz4/MKq+Xtf/AOrbdf8AIiT/AJpyP5fJ/NPyLMavF/Pj8wrL5f17/q23X/ImT/mn&#xA;InT5P5svkWQ1eH+fH5hzaBr3/Vtuv+RMn/NOI0+T+bL5FTq8P8+PzCk3l7X/APq23X/IiT/mnJfl&#xA;8n80/IsTq8X8+PzCk3l3zB/1bLv/AJESf805IYMn80/JidVi/nx+YUm8ueYf+rXd/wDIiX/mnD4G&#xA;T+afkwOqxfzo/MKLeW/MX/Vru/8AkRL/AM05IYJ/zT8mJ1WL+dH5hSby15j/AOrVef8ASPL/AM05&#xA;IYJ/zT8mB1OL+dH5hSbyz5k/6tN5/wBI8v8AzTkvBn/NPyY/mcf86PzCk3ljzL/1ab3/AKR5f+ac&#xA;Iwz/AJp+TA6nH/Oj8wpN5X8zf9Wi9/6R5f8AmnJDDPuPyYnUY/50fmFJvK3mf/q0Xv8A0jS/805L&#xA;wZ9x+TE6jH/Oj8wot5U80f8AVnvv+kab/mnJDFPuPyYHPj/nD5qTeU/NP/Vmvv8ApGm/5pwjFPuL&#xA;E58f84fNSbyl5q/6s19/0jTf805IYpdxYHPD+cPmpN5R81/9WW//AOkab/mnJeFLuLE5ofzh81Jv&#xA;KHmz/qyX/wD0izf805IY5dxYnND+cPmiNE8peak1zT3fRr5UW5hZmNtMAAJASSeOThjlY2LTkyw4&#xA;TuPm+0s3bzTsVdirsVdirsVdirsVdirsVdirsVdirsVdirsVdirsVdirsVdirsVdirsVdirsVdir&#xA;sVdirsVdirsVdirsVdirsVdirsVdirsVdirsVSDzF598n+XJkg1nVIbS4cclgPKSTj2JSMOwB7Ej&#xA;K55ox5luxaec/pFojTfNvlrU9Jn1aw1GG40+1VnuZ0P92qLybmp+JaKK7jGOWJFg7IlgnGQiRuUb&#xA;peqafqtjFf6dOtzZzcvSnT7LcWKNT5MpGSjMSFjkxnjlA1IUUNrnmfQNCRH1a9jtfU/u1apdqdSE&#xA;UMxHvTIZc8Mf1GmzBpsmU+gW3ovmTQtbieTSryO6WOnqBCQy16ckYBhX5Y4s8Mn0m1z6bJiPrFIW&#xA;788eU7S7a0uNTiW4Q8XUcmCnwLKCo+/Kp63DE0ZC2/H2ZqJx4owNJwLiBrcXCyKYCvqCUEFSlK8q&#xA;9KUzJ4hV9HDMCDw1uhNG1/SNagefTLlbmKJvTkZQwo1AaUYA9DleLNDILibbc+myYTUxRSq//Mfy&#xA;TYXc1nd6okVzbuY5oykpKspoRspGVy1mKJondth2fnkBIR2PuRq+b/LT6NNrSahFJpdvtPcoS4Q1&#xA;C0YKCwNSO2WDNAx4r2ajpsgnwEepdfeavLtho0OtXl/Fb6ZcIksFxISodZFDJwUjkxKmtAK4TliB&#xA;xE7MY4ZmXCB6ghPL35geTfMVw1to+qw3VyoJ9D4o5CB1KpIEZgPEDBDNCXIpy6fJDeQpkGWtLsVd&#xA;irsVdirsVdirsVdirsVdirsVdirsVdirsVdirsVdirsVeGflrZ2Gq6t5+1/WNNTWtesrmURWMyLI&#xA;3FBJxijVwwBf0/TG3amYGEAmUiLLtdRIxEIxPDEtaDfaGIfPtjZ+Xbjy9qD6PdXF7azTVjUGIlFW&#xA;DggTaWq+AO22VxlGpgR4TwlunGV4yZCQ4h+LZ9+S3/ks9G/6Of8AqKlzJ0X90Pj97hdpf38vh9wS&#xA;LR7Oy1n84dfGsxpcvYQoLC2nAdFQcByCNttyr/sq5iwiJ6iXFvXJzss5Y9HDg24juQr6ha6dov5t&#xA;6T+jFS0S8tpG1CGMBI+IWQ8iooB9gE/KuQyRjj1UeHaxv9rPFKWXRT49+E7fYk0Oi6ppWnX629jY&#xA;+ZNAleR5NQhZHnUAbkSKeaso32DAHMPwZwjKoxyY+/q7IajHlnG5Tw5RXpPL5cvuTvzF5l020/LC&#xA;AaSHgj1AG0ghduTovJvWBJNSAAVHzGZObUxjpRwbcW363C0+jnLXHxNzD1E9/clH5fappWi+df0V&#xA;YXoutO1S2iX1QGAF1GlT9oDqwen+sMr0OSOPLwxNxkB827tTFPLp+OceGcCf9L+K+SVHUrnTfN/m&#xA;+8j8vxa7BDOz3PqhT6CB3+MAq5370HbCJmOXIeHi3+SDjE8OIGfAa+azT9N4/lR5w1xXhSHWJY3i&#xA;sbZqx24jnB9PjQcSPUpT+UDLMcf3M5fzunc05sn+E44b+nqeuy5be21jzp+Xei6wBJpCaFbTxWsu&#xA;8Usxt3O4O27RKCD1pTvloHFOETy4Q0SJhjyyj9XGfvR/5y6PpGha15R1fRLeLT9YOoJCq2qLEZYw&#xA;VryVKA8ahenRqZdqYiJiRsbcbRzlOM4y3FPaMznWOxV2KuxV2KuxV2KuxV2KuxV2KuxV2KuxV2Ku&#xA;xV2KuxV2KuxV5/5h/KG0vtfm8waHq935d1W6BF7JZn4Ja9WKgoanv8VCd6V3zGnp7Ng8JczFrDGP&#xA;DICQ81TQfyi0rSrLWFk1G7v9T1y0ls7zUbluT8JlKsVXx6H4iemCGlAB3JMgyya6UjHYARN0grD8&#xA;nb3T7VLSy836tbWsdfTghlaONeRLHiqsAKkk5UNEQKE5Bul2kJGzjgSnOv8A5bWeqXlrqdtqFzp2&#xA;tW0axHUID8cgReNZBUEtTvy+dcnm0YmRIExkOrDT9onGDExEoHoVby1+X9lpF/Nqd3dzatqs6mN7&#xA;u6NaIRQhVPLqNtydtscGjEJGRJlLvK6ntGWSIhECEB0CWt+VMURuINP1m7stNuWJmsENUIbYr9pa&#xA;im24O3WuYx7L5iM5RiejmR7cOxnjjKceUk0b8vtJN1pDCRzZaOpEFkwVld2YszuT3ZqE7dsu/k+F&#xA;x/mw6ON/K2Thnt6snM/oCp5j8i6ZrDWM0Lfo67sJhPBcW6IDUUNCKCu6g5Zm0kZ0R6SD0atN2hPH&#xA;xA+oSFUVTQ/J1rpOtaxqqztM+sPzmhdQFX4mag8ft98ni04hKUr+phn1hyQjCq4EiT8pNPgstc06&#xA;01CaDTNboXswqssLLIHUxk+FOPy+WVDRACQB2k3S7SlIxkQOKHXvRGv/AJV6LrOh6Rp8lxNbX2iQ&#xA;xQ2GqQEJMohRVFe2/EN7HocsnpoyiB1j1acetlGUjW0uYQehflBbWuv2+va9rN55i1CyINibs/u4&#xA;mG6sFJckqdxvSu9K4w01G5EyKcmsuPDGIiD3PQcyXCdirsVdirsVdirsVdirsVdirsVdirsVdirs&#xA;VdirsVdirsVdirsVdirsVdirsVdirsVdirsVdirsVdirsVdirsVdirsVdirsVdirsVdirsVdirsV&#xA;dirsVdirsVdirsVdirsVdirsVdirsVdirsVdirsVdirsVdirsVdirsVdirsVdirsVdirsVdir//Z</xmpGImg:image>
               </rdf:li>
            </rdf:Alt>
         </xmp:Thumbnails>
         <xmpMM:InstanceID>xmp.iid:a6d01804-d487-274b-9369-acf68529f724</xmpMM:InstanceID>
         <xmpMM:DocumentID>xmp.did:a6d01804-d487-274b-9369-acf68529f724</xmpMM:DocumentID>
         <xmpMM:OriginalDocumentID>uuid:5D20892493BFDB11914A8590D31508C8</xmpMM:OriginalDocumentID>
         <xmpMM:RenditionClass>proof:pdf</xmpMM:RenditionClass>
         <xmpMM:DerivedFrom rdf:parseType="Resource">
            <stRef:instanceID>xmp.iid:9abfa668-2609-c146-aeb5-945099e7e6e3</stRef:instanceID>
            <stRef:documentID>xmp.did:9abfa668-2609-c146-aeb5-945099e7e6e3</stRef:documentID>
            <stRef:originalDocumentID>uuid:5D20892493BFDB11914A8590D31508C8</stRef:originalDocumentID>
            <stRef:renditionClass>proof:pdf</stRef:renditionClass>
         </xmpMM:DerivedFrom>
         <xmpMM:History>
            <rdf:Seq>
               <rdf:li rdf:parseType="Resource">
                  <stEvt:action>saved</stEvt:action>
                  <stEvt:instanceID>xmp.iid:9abfa668-2609-c146-aeb5-945099e7e6e3</stEvt:instanceID>
                  <stEvt:when>2017-04-11T01:59:07-05:00</stEvt:when>
                  <stEvt:softwareAgent>Adobe Illustrator CC (Windows)</stEvt:softwareAgent>
                  <stEvt:changed>/</stEvt:changed>
               </rdf:li>
               <rdf:li rdf:parseType="Resource">
                  <stEvt:action>saved</stEvt:action>
                  <stEvt:instanceID>xmp.iid:a6d01804-d487-274b-9369-acf68529f724</stEvt:instanceID>
                  <stEvt:when>2017-08-15T21:15:23-05:00</stEvt:when>
                  <stEvt:softwareAgent>Adobe Illustrator CC (Windows)</stEvt:softwareAgent>
                  <stEvt:changed>/</stEvt:changed>
               </rdf:li>
            </rdf:Seq>
         </xmpMM:History>
         <illustrator:StartupProfile>Print</illustrator:StartupProfile>
         <xmpTPg:HasVisibleOverprint>False</xmpTPg:HasVisibleOverprint>
         <xmpTPg:HasVisibleTransparency>True</xmpTPg:HasVisibleTransparency>
         <xmpTPg:NPages>1</xmpTPg:NPages>
         <xmpTPg:MaxPageSize rdf:parseType="Resource">
            <stDim:w>155.705994</stDim:w>
            <stDim:h>74.254028</stDim:h>
            <stDim:unit>Pixels</stDim:unit>
         </xmpTPg:MaxPageSize>
         <xmpTPg:PlateNames>
            <rdf:Seq>
               <rdf:li>Cyan</rdf:li>
               <rdf:li>Magenta</rdf:li>
               <rdf:li>Yellow</rdf:li>
               <rdf:li>Black</rdf:li>
            </rdf:Seq>
         </xmpTPg:PlateNames>
         <xmpTPg:SwatchGroups>
            <rdf:Seq>
               <rdf:li rdf:parseType="Resource">
                  <xmpG:groupName>Grupo de muestras por defecto</xmpG:groupName>
                  <xmpG:groupType>0</xmpG:groupType>
               </rdf:li>
            </rdf:Seq>
         </xmpTPg:SwatchGroups>
         <pdf:Producer>Adobe PDF library 10.01</pdf:Producer>
      </rdf:Description>
   </rdf:RDF>
</x:xmpmeta>
                                                                                                    
                                                                                                    
                                                                                                    
                                                                                                    
                                                                                                    
                                                                                                    
                                                                                                    
                                                                                                    
                                                                                                    
                                                                                                    
                                                                                                    
                                                                                                    
                                                                                                    
                                                                                                    
                                                                                                    
                                                                                                    
                                                                                                    
                                                                                                    
                                                                                                    
                                                                                                    
                           
<?xpacket end="w"?>
	</metadata>
<g>
	<rect id="XMLID_246_" x="0.397" y="0" class="st0" width="154.914" height="74.254"/>
	<linearGradient id="XMLID_2_" gradientUnits="userSpaceOnUse" x1="0.397" y1="24.077" x2="155.311" y2="24.077">
		<stop  offset="0" style="stop-color:#783214"/>
		<stop  offset="0.5" style="stop-color:#F16529"/>
		<stop  offset="1" style="stop-color:#783214"/>
	</linearGradient>
	<rect id="XMLID_221_" x="0.397" y="0" class="st1" width="154.914" height="48.154"/>
	<rect id="XMLID_318_" y="57.455" class="st2" width="155.706" height="13.102"/>
	<linearGradient id="SVGID_1_" gradientUnits="userSpaceOnUse" x1="49.044" y1="61.396" x2="106.745" y2="61.396">
		<stop  offset="0" style="stop-color:#783214"/>
		<stop  offset="0.5" style="stop-color:#F16529"/>
		<stop  offset="1" style="stop-color:#783214"/>
	</linearGradient>
	<path class="st3" d="M52.981,62.437V61.11h3.427v3.137c-0.333,0.322-0.815,0.606-1.448,0.852c-0.632,0.245-1.272,0.368-1.92,0.368
		c-0.824,0-1.542-0.173-2.154-0.519s-1.072-0.84-1.38-1.482s-0.462-1.342-0.462-2.098c0-0.82,0.172-1.549,0.516-2.187
		c0.344-0.637,0.847-1.126,1.509-1.466c0.505-0.262,1.133-0.392,1.885-0.392c0.978,0,1.741,0.204,2.291,0.614
		c0.549,0.41,0.903,0.977,1.061,1.7l-1.579,0.295c-0.111-0.387-0.319-0.691-0.626-0.915c-0.306-0.224-0.688-0.336-1.146-0.336
		c-0.695,0-1.247,0.22-1.657,0.661c-0.41,0.439-0.615,1.094-0.615,1.96c0,0.935,0.208,1.636,0.623,2.103
		c0.416,0.468,0.959,0.701,1.633,0.701c0.333,0,0.667-0.065,1.001-0.196c0.335-0.131,0.623-0.289,0.862-0.476v-0.998h-1.821V62.437z
		 M57.917,65.331v-7.81h1.59v6.483h3.953v1.326h-5.543V65.331z M64.271,61.442c0-0.802,0.12-1.476,0.36-2.02
		c0.179-0.401,0.423-0.761,0.733-1.08c0.31-0.318,0.649-0.555,1.018-0.709c0.491-0.207,1.056-0.311,1.697-0.311
		c1.16,0,2.088,0.359,2.785,1.079c0.696,0.72,1.044,1.721,1.044,3.003c0,1.271-0.346,2.266-1.037,2.983
		c-0.691,0.717-1.615,1.077-2.771,1.077c-1.171,0-2.102-0.357-2.793-1.072C64.617,63.68,64.271,62.695,64.271,61.442z M65.91,61.389
		c0,0.892,0.206,1.567,0.618,2.027s0.935,0.69,1.568,0.69s1.154-0.229,1.56-0.685c0.407-0.457,0.61-1.142,0.61-2.055
		c0-0.902-0.198-1.575-0.593-2.02c-0.396-0.444-0.921-0.666-1.577-0.666s-1.184,0.225-1.584,0.674S65.91,60.482,65.91,61.389z
		 M72.747,62.769l1.547-0.15c0.093,0.52,0.282,0.901,0.566,1.145c0.285,0.243,0.669,0.365,1.152,0.365
		c0.512,0,0.898-0.108,1.157-0.325c0.26-0.217,0.39-0.47,0.39-0.76c0-0.187-0.055-0.345-0.164-0.476s-0.3-0.244-0.572-0.341
		c-0.186-0.064-0.61-0.179-1.273-0.344c-0.852-0.211-1.45-0.471-1.794-0.778c-0.483-0.434-0.725-0.962-0.725-1.585
		c0-0.401,0.114-0.776,0.341-1.125c0.227-0.35,0.555-0.615,0.982-0.798c0.428-0.183,0.945-0.273,1.55-0.273
		c0.988,0,1.732,0.216,2.231,0.649c0.5,0.434,0.762,1.012,0.787,1.735l-1.589,0.069c-0.068-0.404-0.214-0.695-0.438-0.873
		c-0.224-0.177-0.56-0.266-1.007-0.266c-0.462,0-0.824,0.095-1.085,0.284c-0.168,0.122-0.252,0.285-0.252,0.489
		c0,0.187,0.079,0.346,0.236,0.478c0.201,0.169,0.688,0.344,1.461,0.527c0.773,0.182,1.346,0.371,1.716,0.566
		c0.371,0.195,0.661,0.462,0.87,0.8c0.21,0.339,0.314,0.757,0.314,1.255c0,0.451-0.125,0.873-0.376,1.268
		c-0.25,0.394-0.604,0.687-1.063,0.878s-1.029,0.287-1.713,0.287c-0.996,0-1.76-0.23-2.293-0.69S72.851,63.649,72.747,62.769z
		 M87.587,65.331h-1.729l-0.688-1.789h-3.147l-0.65,1.789h-1.687l3.067-7.874h1.681L87.587,65.331z M84.66,62.216l-1.085-2.922
		l-1.063,2.922H84.66z M88.436,65.331v-7.874h3.346c0.842,0,1.453,0.07,1.835,0.212c0.381,0.142,0.687,0.394,0.915,0.755
		c0.229,0.361,0.344,0.775,0.344,1.241c0,0.59-0.174,1.078-0.521,1.463c-0.348,0.385-0.867,0.628-1.558,0.729
		c0.344,0.2,0.627,0.42,0.852,0.66c0.224,0.24,0.525,0.666,0.904,1.278l0.962,1.536h-1.901l-1.149-1.713
		c-0.408-0.613-0.688-0.999-0.838-1.158s-0.31-0.269-0.479-0.327c-0.168-0.06-0.435-0.089-0.8-0.089h-0.322v3.287
		C90.026,65.331,88.436,65.331,88.436,65.331z M90.026,60.787h1.176c0.763,0,1.239-0.032,1.429-0.097
		c0.19-0.064,0.339-0.176,0.446-0.333s0.161-0.354,0.161-0.591c0-0.265-0.071-0.479-0.212-0.642c-0.142-0.163-0.342-0.267-0.6-0.31
		c-0.129-0.018-0.516-0.026-1.16-0.026h-1.24C90.026,58.788,90.026,60.787,90.026,60.787z M96.326,65.331v-7.874h1.59v7.874H96.326z
		 M99.108,61.442c0-0.802,0.12-1.476,0.36-2.02c0.179-0.401,0.423-0.761,0.733-1.08c0.31-0.318,0.648-0.555,1.018-0.709
		c0.49-0.207,1.056-0.311,1.697-0.311c1.16,0,2.088,0.359,2.785,1.079c0.696,0.72,1.044,1.721,1.044,3.003
		c0,1.271-0.346,2.266-1.036,2.983c-0.691,0.718-1.615,1.077-2.771,1.077c-1.171,0-2.103-0.357-2.793-1.072
		C99.454,63.68,99.108,62.695,99.108,61.442z M100.747,61.389c0,0.892,0.206,1.567,0.617,2.027c0.412,0.46,0.935,0.69,1.568,0.69
		s1.154-0.229,1.561-0.685c0.406-0.457,0.609-1.142,0.609-2.055c0-0.902-0.197-1.575-0.593-2.02
		c-0.396-0.444-0.922-0.666-1.577-0.666s-1.184,0.225-1.584,0.674C100.947,59.805,100.747,60.482,100.747,61.389z"/>
	<g id="XMLID_339_">
		<path id="XMLID_380_" class="st4" d="M91.133,39.693l-3.417-3.423c0.715-1.129,1.136-2.463,1.136-3.898
			c0-4.013-3.272-7.285-7.285-7.285c-4.015,0-7.286,3.272-7.286,7.285c0,4.021,3.272,7.286,7.286,7.286
			c1.428,0,2.767-0.421,3.89-1.135l3.423,3.423c0.31,0.31,0.721,0.469,1.129,0.469c0.404,0,0.813-0.159,1.123-0.469
			C91.759,41.32,91.759,40.313,91.133,39.693L91.133,39.693z M81.566,37.381c-2.762,0-5.009-2.247-5.009-5.009
			c0-2.761,2.247-5.008,5.009-5.008c2.761,0,5.008,2.247,5.008,5.008C86.574,35.134,84.327,37.381,81.566,37.381L81.566,37.381z"/>
		<path id="XMLID_377_" class="st4" d="M75.621,26.404h-8.643c-0.292,0-0.526,0.234-0.526,0.527v0.526
			c0,0.288,0.234,0.521,0.526,0.521h7.409C74.737,27.405,75.146,26.879,75.621,26.404L75.621,26.404z"/>
		<path id="XMLID_373_" class="st4" d="M70.636,11.191h6.852c0.86,0,1.562-0.703,1.562-1.562v-0.03c0-0.86-0.703-1.556-1.562-1.556
			H76.68c-0.433,0-0.779-0.351-0.779-0.783V7.23c0-1.001-0.813-1.814-1.819-1.814H74.04c-1.001,0-1.814,0.813-1.814,1.814v0.03
			c0,0.433-0.351,0.783-0.783,0.783h-0.807c-0.86,0-1.556,0.697-1.556,1.556v0.03C69.079,10.488,69.776,11.191,70.636,11.191
			L70.636,11.191z M74.065,6.463c0.433,0,0.783,0.357,0.783,0.789c0,0.433-0.351,0.789-0.783,0.789
			c-0.439,0-0.791-0.357-0.791-0.789C73.274,6.82,73.626,6.463,74.065,6.463L74.065,6.463z"/>
		<path id="XMLID_370_" class="st4" d="M66.978,31.126c-0.292,0-0.526,0.241-0.526,0.527v0.527c0,0.286,0.234,0.526,0.526,0.526
			h6.173c-0.005-0.111-0.017-0.222-0.017-0.328c0-0.427,0.04-0.842,0.099-1.252C73.233,31.126,66.978,31.126,66.978,31.126z"/>
		<path id="XMLID_367_" class="st4" d="M81.671,23.257V22.73c0-0.286-0.234-0.521-0.527-0.521H66.978
			c-0.292,0-0.526,0.235-0.526,0.521v0.527c0,0.292,0.234,0.526,0.526,0.526h14.166C81.438,23.783,81.671,23.549,81.671,23.257
			L81.671,23.257z"/>
		<path id="XMLID_364_" class="st4" d="M64.878,35.849v-20.99h18.368v9.251c0.942,0.193,1.825,0.55,2.621,1.023V11.67
			c0-1.019-0.825-1.843-1.838-1.843h-3.955c-0.118,1.357-1.224,2.41-2.587,2.41h-6.852c-1.363,0-2.47-1.053-2.587-2.382h-3.955
			c-1.019,0-1.838,0.819-1.838,1.838v24.938c0,1.019,0.825,1.844,1.838,1.844h11.668c-0.779-0.743-1.417-1.633-1.873-2.627
			L64.878,35.849L64.878,35.849z"/>
		<path id="XMLID_360_" class="st4" d="M81.671,18.008c0-0.288-0.234-0.521-0.527-0.521H66.978c-0.292,0-0.526,0.234-0.526,0.521
			v0.526c0,0.294,0.234,0.527,0.526,0.527h14.166c0.294,0,0.527-0.234,0.527-0.527V18.008z"/>
	</g>
</g>
</svg>
