<?xml version="1.0" encoding="utf-8"?>
<!-- Generator: Adobe Illustrator 17.0.0, SVG Export Plug-In . SVG Version: 6.00 Build 0)  -->
<!DOCTYPE svg PUBLIC "-//W3C//DTD SVG 1.1//EN" "http://www.w3.org/Graphics/SVG/1.1/DTD/svg11.dtd" [
	<!ENTITY ns_extend "http://ns.adobe.com/Extensibility/1.0/">
	<!ENTITY ns_ai "http://ns.adobe.com/AdobeIllustrator/10.0/">
	<!ENTITY ns_graphs "http://ns.adobe.com/Graphs/1.0/">
	<!ENTITY ns_vars "http://ns.adobe.com/Variables/1.0/">
	<!ENTITY ns_imrep "http://ns.adobe.com/ImageReplacement/1.0/">
	<!ENTITY ns_sfw "http://ns.adobe.com/SaveForWeb/1.0/">
	<!ENTITY ns_custom "http://ns.adobe.com/GenericCustomNamespace/1.0/">
	<!ENTITY ns_adobe_xpath "http://ns.adobe.com/XPath/1.0/">
]>
<svg version="1.1" id="Capa_1" xmlns:x="&ns_extend;" xmlns:i="&ns_ai;" xmlns:graph="&ns_graphs;"
	 xmlns="http://www.w3.org/2000/svg" xmlns:xlink="http://www.w3.org/1999/xlink" x="0px" y="0px" width="154.914px"
	 height="74.254px" viewBox="0 0 154.914 74.254" style="enable-background:new 0 0 154.914 74.254;" xml:space="preserve">
<style type="text/css">
	.st0{opacity:0.5;fill:#FFFFFF;enable-background:new    ;}
	.st1{fill:url(#XMLID_2_);}
	.st2{fill:none;}
	.st3{fill:url(#SVGID_1_);}
	.st4{fill:#FFFFFF;}
</style>
<metadata><?xpacket begin="﻿" id="W5M0MpCehiHzreSzNTczkc9d"?>
<x:xmpmeta xmlns:x="adobe:ns:meta/" x:xmptk="Adobe XMP Core 5.5-c014 79.151739, 2013/04/03-12:12:15        ">
   <rdf:RDF xmlns:rdf="http://www.w3.org/1999/02/22-rdf-syntax-ns#">
      <rdf:Description rdf:about=""
            xmlns:dc="http://purl.org/dc/elements/1.1/"
            xmlns:xmp="http://ns.adobe.com/xap/1.0/"
            xmlns:xmpGImg="http://ns.adobe.com/xap/1.0/g/img/"
            xmlns:xmpMM="http://ns.adobe.com/xap/1.0/mm/"
            xmlns:stRef="http://ns.adobe.com/xap/1.0/sType/ResourceRef#"
            xmlns:stEvt="http://ns.adobe.com/xap/1.0/sType/ResourceEvent#"
            xmlns:illustrator="http://ns.adobe.com/illustrator/1.0/"
            xmlns:xmpTPg="http://ns.adobe.com/xap/1.0/t/pg/"
            xmlns:stDim="http://ns.adobe.com/xap/1.0/sType/Dimensions#"
            xmlns:xmpG="http://ns.adobe.com/xap/1.0/g/"
            xmlns:pdf="http://ns.adobe.com/pdf/1.3/">
         <dc:format>image/svg+xml</dc:format>
         <dc:title>
            <rdf:Alt>
               <rdf:li xml:lang="x-default">Imprimir</rdf:li>
            </rdf:Alt>
         </dc:title>
         <xmp:MetadataDate>2017-08-15T21:14:48-05:00</xmp:MetadataDate>
         <xmp:ModifyDate>2017-08-15T21:14:48-05:00</xmp:ModifyDate>
         <xmp:CreateDate>2017-08-15T21:14:48-05:00</xmp:CreateDate>
         <xmp:CreatorTool>Adobe Illustrator CC (Windows)</xmp:CreatorTool>
         <xmp:Thumbnails>
            <rdf:Alt>
               <rdf:li rdf:parseType="Resource">
                  <xmpGImg:width>256</xmpGImg:width>
                  <xmpGImg:height>124</xmpGImg:height>
                  <xmpGImg:format>JPEG</xmpGImg:format>
                  <xmpGImg:image>/9j/4AAQSkZJRgABAgEASABIAAD/7QAsUGhvdG9zaG9wIDMuMAA4QklNA+0AAAAAABAASAAAAAEA&#xA;AQBIAAAAAQAB/+4ADkFkb2JlAGTAAAAAAf/bAIQABgQEBAUEBgUFBgkGBQYJCwgGBggLDAoKCwoK&#xA;DBAMDAwMDAwQDA4PEA8ODBMTFBQTExwbGxscHx8fHx8fHx8fHwEHBwcNDA0YEBAYGhURFRofHx8f&#xA;Hx8fHx8fHx8fHx8fHx8fHx8fHx8fHx8fHx8fHx8fHx8fHx8fHx8fHx8fHx8f/8AAEQgAfAEAAwER&#xA;AAIRAQMRAf/EAaIAAAAHAQEBAQEAAAAAAAAAAAQFAwIGAQAHCAkKCwEAAgIDAQEBAQEAAAAAAAAA&#xA;AQACAwQFBgcICQoLEAACAQMDAgQCBgcDBAIGAnMBAgMRBAAFIRIxQVEGE2EicYEUMpGhBxWxQiPB&#xA;UtHhMxZi8CRygvElQzRTkqKyY3PCNUQnk6OzNhdUZHTD0uIIJoMJChgZhJRFRqS0VtNVKBry4/PE&#xA;1OT0ZXWFlaW1xdXl9WZ2hpamtsbW5vY3R1dnd4eXp7fH1+f3OEhYaHiImKi4yNjo+Ck5SVlpeYmZ&#xA;qbnJ2en5KjpKWmp6ipqqusra6voRAAICAQIDBQUEBQYECAMDbQEAAhEDBCESMUEFURNhIgZxgZEy&#xA;obHwFMHR4SNCFVJicvEzJDRDghaSUyWiY7LCB3PSNeJEgxdUkwgJChgZJjZFGidkdFU38qOzwygp&#xA;0+PzhJSktMTU5PRldYWVpbXF1eX1RlZmdoaWprbG1ub2R1dnd4eXp7fH1+f3OEhYaHiImKi4yNjo&#xA;+DlJWWl5iZmpucnZ6fkqOkpaanqKmqq6ytrq+v/aAAwDAQACEQMRAD8A5imc+XrArLgLMKqZEsgr&#xA;LkWYVkyJZhWTIlmFVMiWQVkyJZhWXIsgqpkSzCsuRZhWTIlkFZMiWYVVwMwrJkSyCsuRZhzYqVJ8&#xA;IYlRfJBgVF8kGJUmyQYFRbJBgVF8kGBUWyTEqT5IMCotkgwKi2SDEqL5IMCpNhYFRfJBiVFskGBU&#xA;nyQYFpMSoVlwFmFVMiWQVlyLMKyZEswrJkSzCqmRLIKyZEswrLkWQVUyJZhWXIswrJkSyCsmRLMK&#xA;q4GYVkyJZBNdP8v65f0NnYXE6no6RsV/4KnHLIafJP6Yk/BqyavFj+qUR8U/tfys843Iq1tHbA9P&#xA;WlUH7k5nMuHZWc9K95cDL27po8iZe4L5/wAoPOCLyQW8p/lSWh/4ZVGTPZOYd3zaR2/pz/OHwSW9&#xA;/LzzpbV9TSZmp/vrjN/ybL5VLQZo84n73Ih2rppcpj47fekV7pOq2dfrdnPb06+rE6f8SAyiWKUe&#xA;YIcmOaEvpkD7il7YAyKi2SDAqL5IMCotkmJUnyQYFRbJBgVFskGJUXyQYFSbCwKi+SDEqLZIMCpP&#xA;kgwLSYlQrLgLMKqZEsgrLkWYVkyJZhWTIlmFVMiWQVkyJZhWXIsgqpkSzCsuRZhWTIlkHqflX8nh&#xA;dabHqOv3b2cUqiRbePirqh3BkdwVUkdqbd/DNtp+y+KPFM06HV9ucM+DEOI9/wCpmWm/lR5IgVZP&#xA;RkvgRVZJpSQfekfpqfuzOx9mYR04vi6vL21qTtfD7h+u2R2Hl7QtPobLT7eBl6Okahv+Cpy/HMuG&#xA;nxw+mIDgZdXlyfVKR+KYZc47sVdiqhd39jZp6l3cRW6fzyuqD72IyMpxjzNM4Y5TNRBPuY7qH5n+&#xA;SbKobUVncfsW6vLX/ZKOH45iT7Qwx/iv3Ofj7I1Ev4a9+zxP8wNc0nXPMUuo6ZFJDBJGiuJVVCXQ&#xA;cSwClhQgDNDq80cmTijyeq7P088OIQmbLF2zHDllRfJBgVFskxKk+SDAqLZIMCotkgxKi+SDAqTY&#xA;WBUXyQYlRbJBgVJ8kGBaTEqFZcBZhVTIlkFZcizCsmRLMKyZEswqpkSyCsmRLMKy5FkFVMiWYVly&#xA;LMIyweFLyB5xWBZEMo61QMC23yxiRYtZgmJrm9v/ADh07WtS0Wxl0tXubKN2kuooasWDKvpPxX7S&#xA;r8X35vu1Mc5wHDuOryvYeXHjySE9pdL+0PJ9J1/XtGkP1C8mtSD8UQY8K/5UbVU/SM0OPPkx/SSH&#xA;qculxZh64iX472daN+dGrQgJqlpHeL09WI+lJ8yKMp+gDNji7YmPrF/Y6jP7O45b45GPv3/H2p43&#xA;506TwBTTpy+9VLIB7b7/AKsyD21D+aXEHs1kv64/ak2o/nNrMlRY2UFsp/akLSt9H2F/DMbJ21M/&#xA;SAPtc3F7N4h9cjL7P1sW1Hz55vvqibVJlU/swkQinh+7C5hT12aXOR+77nZY+y9PDlAfHf72PObm&#xA;5m/bnnkPu7sfxJyjeR7y5RqI7gm9l+X/AJzv15W+kzhSKgygQgj29UpXMqGizS5RP3fe4OXtLTw5&#xA;zHw3+5jlzBNbzyQTIY5omKSRtsVZTQg/I5QQQaLkiQkLHIoZsIQVF8kGBUWyTEqT5IMCotkgwKi2&#xA;SDEqL5IMCpNhYFRfJBiVFskGBUnyQYFpMSoVlwFmFVMiWQVlyLMKyZEswrJkSzCqmRLIKyZEswrL&#xA;kWQVUyJZhWXIswirO3lubmK3iFZZnWOMeLOaD8TiI2aCykIgk8g+g9R13Svy/wDLmnWNw017KEMU&#xA;CVq78KFjVtlReQAHYUGdJkzR0uMA2XjcWmnrcspCojr+O9Kl87/lp5mAj1i1WCcinK6jofks8dSB&#xA;8yMx/wA5ps31ij5/rcv+T9Zp98ZseR/QVK8/KLy7qEZudB1Ixo32RyW4h+QZSGH3nIT7JxzF45fp&#xA;Dbi7ezYzw5YX/sSkH/KoPNaz+mGtjHX++9RgtPGnHl+GYJ7HzXWzsh7Q6er9Xur9qdWP5LLTnqWp&#xA;0A3ZIE/43c/8a5lY+xf50vk4WX2l/mQ+Z/QP1os+Xvyl0Pe9uIriVOvrTGZ/pih2/wCFy78vpMX1&#xA;EE++/sDj/m+0M/0ggeQr7T+tSl/NfyVpKGPRtNZ6Cg9KKO3jP0/a/wCFxPaeGG0I/ZSjsXU5d8kv&#xA;mST+Pix3U/zu8wzVWwtLezQ9GblM4+RPFf8Ahcxp9r5D9IA+1zMXs/ij9RMvs/Hzed6jfXN/ez3t&#xA;0we5uHMkzhQoLMak0UAZrZTMiSeZdzDGIRERyCCbEKVF8kGBUWyTEqT5IMCotkgwKi2SDEqL5IMC&#xA;pNhYFRfJBiVFskGBUnyQYFpMSoVlwFmFVMiWQVlyLMKyZEswrJkSzCqmRLIKyZEswrLkWQVUyJZh&#xA;WXIswi7G5ktbuC6j/vIJFlSv8yEMP1YxlRB7llASiQer37XvLmm/mD5f07UYZXs5uJktpHQmgegd&#xA;HU8aiq7EH3FRnR58EdVASGzx+m1U9DllEjiHV5zq35UebtOq8UC38I/btm5N/wAA3F/uBzT5uzMs&#xA;OQ4vc9Dp+2tPPmeE+f62PwT6vpF2RHJcWF0uzgF4XHsR8JzBEp4ztcT8nZmGPNHcCcfmyFPzL86+&#xA;h6P6QNOnP04udP8AW45k/wAp56ri+wOH/Iulu+D7T+tJtR1vWNQJ+vXs9wP5ZJGZR8lJoMxZ55z+&#xA;okudi0uLH9ERH4LrHyp5l1Ghs9NuJVPSTgVT/g24r+OWY9LlnyiWnNrsOP6pxDI9P/JnzRc0a7kt&#xA;7JP2lZjI4+QQFf8Ahsz8fZOU86Dq83b+CP0gy+z7/wBSfR/kx5asoDLrGryUp9sGO2QH/Z+p+vMs&#xA;dlY4j1y/Q6+Xb2aZrHAfaf1PINVtYrXUbq2hmW4hgleOK4QhlkVWIVwRUUYb5ppxEZEA29HjmZQB&#xA;IokckC2AJKi+SDAqLZJiVJ8kGBUWyQYFRbJBiVF8kGBUmwsCovkgxKi2SDAqT5IMC0mJUKy4CzCq&#xA;mRLIKy5FmFZMiWYVkyJZhVTIlkFZMiWYVlyLIKqZEswrLkWYR+kW8NxqdnbzHjDNNHHI3grOAT9x&#xA;wwAMgD3scsjGBI5gF7X+bPmDWdC07TrXR2Nnbz80kniAHERhQkan9nYk7eG3fN72nnnjjEQ2BeY7&#xA;F02PNORyeojp7+rDNG/N3zbZFVuXj1CEbFZ1o9PZ04n/AIKua3F2pljz9TuM/YeCfK4ny/UzC2/M&#xA;/wAma3EINesPQJ/38guIh8mA5g/7HM6PaWDIKyRr7XWS7F1OE3ilfuPCf1faqfoD8oOX1v61bemR&#xA;y9AXZp4/Y58/ox/L6L6rH+mUavtL6alffw/pqnHzx+W2i/8AHLsxNKvR7eAKajxkl4N9O+P57S4v&#xA;oF+4fpK/yXrs395Kh5y/QEn1L87L9qrp2nRReDzu0h+fFfTp95yjJ2zI/TGve5WL2cgPrmT7tv1s&#xA;U1L8yfOd7UNqTwIeiW4WGn+yQB/xzDn2hml/FXu2dhj7J08P4b9+7Gbia8u5S80klxKdyzlnanzN&#xA;TmMSZHfdzRGMRQoBCNiFKi2SDAqL5IMCotkmJUnyQYFRbJBgVFskGJUXyQYFSbCwKi+SDEqLZIMC&#xA;pPkgwLSYlQrLgLMKqZEsgrLkWYVkyJZhWTIlmFVMiWQVkyJZhWXIsgqpkSzCsuRZhWTIlkHsHl78&#xA;2NDvtLj0zzZbeowAR7hoxNFIB0Z03YN8gfHbN1h7ShKPDlH6XnNT2NkhPjwH4XRCYP8Al7+XnmGM&#xA;y6FeCCUitLaUSAE/zxOSy/L4csOg0+XeBr3fqao9qavTmssbHmK+0ftY3q35P+ZbMlrF4tRiHQIf&#xA;Sk/4Bzx+5jmBm7Jyx+n1O00/b+Cf13A/MfZ+pjo8r+ZBP6B0u79WtOPoyfrpTMA6XLdcMvk7Ua7B&#xA;V8ca94Tux/K3zheUL26WiHo08gH/AAqc2/DMrH2Vml0r3uFm7d00ORMvcP10yKx/JOEDnqeqGg3Z&#xA;IECgD/Xcn/iOZ2PsYD6pfJ1WX2jJ2hD5/qH60SdE/J/Qt7u4huZk6+pK1w30xxVX/hct8HSYuZB+&#xA;N/c0fmO0M/0gge6vtP61Kf8AN7ydpSGLRdLdwO0ccdrEfuq3/C4ntPDDaEf0KOxNRk3yT+0yP4+L&#xA;x3VbqK71G6u4oRbx3ErypADyCB2LcAaLsK06ZpZy4pEja3pccDGAiTdDmgWwBJUXyQYFRbJMSpPk&#xA;gwKi2SDAqLZIMSovkgwKk2FgVF8kGJUWyQYFSfJBgWkxKhWXAWYVUyJZBWXIswrJkSzCsmRLMKqZ&#xA;EsgrJkSzCsuRZBVTIlmFZcizCsmRLIKyZEswrwySRuskbFJFNVdSQQfEEYLrkyoEUWW6N+Zfm7Tu&#xA;K/XPrkI/3VdD1P8Ah9pP+GzMxdpZodb97rs/Y2nyfw8J8tv2MoH52XRgC/olPXpvJ6x4V/1OFf8A&#xA;hszP5bNfTv73X/6Go39Zr3ft/Qkmpfmr5vuqiKaOzQ9oIxWn+tJzP3ZiZO1c0uREfc52LsHTQ5gy&#xA;95/VTFtR1nVtQNb68mue9JZGcD5AmgzEnmnP6iS7HHp8eP6IiPuCWvkAzKi+SDEqTZIMCotkgwKi&#xA;+SDAqLZJiVJ8kGBUWyQYFRbJBiVF8kGBUmwsCovkgxKi2SDAqT5IMCrJp9//AMs0v/AN/TCQUCQV&#xA;lsL/AP5Zpf8AgG/pgILISCsthff8s0v/AADf0yJBZiQ71VbC+/5Z5f8AgG/pkeEshId6stjff8s8&#xA;v/AN/TImJZiQ71VbG9/5Z5P+Ab+mRMSzEh3qyWN7/wAs8n/AN/TImJZCY71VbK9/5Z5P+Ab+mRMS&#xA;zEx3qy2V5/viT/gG/pg4SyEx3qq2d5/viT/gG/pkTEsxMd6stnd/74k/4Fv6ZHhPczE496qtnd/7&#xA;4k/4Fv6ZExPcyE496stpd/75k/4E/wBMiYnuZice9WW0uv8AfMn/AAJ/pkeE9zITj3qq2l1/vl/+&#xA;BP8ATImJ7mYnHvCstrdf75f/AIE/0wcB7mYyR7w5rW6/3y//AAJ/pg4D3Kcke8KTWl1/vl/+BP8A&#xA;TJCJ7mBnHvCi1pdf75k/4E/0yQie5iZx71J7S7/3zJ/wJ/pkhE9zAzj3qLWd3/viT/gW/pkhE9zA&#xA;zj3qTWd3/viT/gW/pkhE9zEzj3qLWd5/viT/AIBv6YRE9zAzHeotZXn++JP+Ab+mS4SxMx3qTWV5&#xA;/viT/gG/pkhEsDMd6i1je/8ALPJ/wDf0yQiWBmO9Saxvf+WeT/gG/pkuEsTId6i1jff8s8v/AADf&#xA;0yQiWBkO9Sawvv8Alnl/4Bv6ZLhLEyHeotYX3/LNL/wDf0wiJYGQ71JrC+/5Zpf+Ab+mSALAyCi2&#xA;n3//ACzS/wDAN/TJAFiZB935v3lHYq7FXYq7FXYq7FXYq7FXYq7FXYq7FXYq7FXYq7FXYq7FXYq7&#xA;FXYq7FXYq7FXYq7FXYq7FXYq7FXYq7FXYq7FXYq7FXYq7FVlxPDbwSXE7iKCFWklkY0VUUVZifAA&#xA;YkpAtj0X5k/l/K4RPMWnlm2FbiMD7yQMq8aHeG78tk/mlNr/AF7RdPa1W9vYbdr5glmJHC+qxpQJ&#xA;X7X2h0ycpgczza445SuhyQN5558nWV3LaXes2kF1CeMsMkqq6t4EE5CWeANEhsjpckhYiSEfFrej&#xA;Tae2pRX9u+nqCXvFlQwgDrWSvEffkhkjV2KYHFMS4aPF3Im2ura6t0uLWZJ7eUco5omDow8VZag5&#xA;IEEWGMomJoiioW+raZc3k9lb3Uct3a/70QIwLp/rDtkRkiSQDuGUsM4xEiDR5IObzd5XguzaTara&#xA;pcKSrRtKo4sNiGNaA+xyuWqxA0ZC26OhzSjxCEq9yatLEsRlZ1EQHIyEgKFpWtelMusVbjCJJrql&#xA;tt5q8t3VyLW31O2luGNFjWRSWPgu/wAX0ZRHVYpGhIX73Knoc8I8UoSA9y/UfMeg6ZOsGoX8FrMy&#xA;h1jlcKxUkgGh7VU5PJnhA1IgFhi0uXILhEkeSpput6Pqgc6dewXfp09QQyK5WvTkAaitO+HHlhP6&#xA;SCwy4MmP64mPvde63o9jdW9peXkNvc3RC20MjhWkJIUBQeu5phlkjEgE7lYYZyBIBIHNdqmr6XpV&#xA;sLrUrqKztywQSzMEXkakCp77YZzERZNMceOUzURZS+z88eT726jtLTWbSe6mPGKGOVWZm8AAchHP&#xA;AmgQ2S0uWIsxICF8i+Z77zJZ3t9PFbw28d09vbRQSiaQKm/75lLIrEMPhGDDkMwSy1OEYyAL5Jrp&#xA;/mHQ9RvLqzsL+C6u7Jit3BE6s8TBipDgdPiBGWRmCaBaZY5RAJGxTDJMHYq7FXYq7FXYq7FXYq7F&#xA;XYq7FXYq7FXYq7FUo84/8ojrn/bPuv8Aky2QyfSfc2YfrHvD5t0mC5m/K8rF5BW8Pozt/ioMC4Cz&#xA;OTJwWPn+6A4/b/Z8Ns1YH7v6fi7skDL9df0WU6zJZP5c/KsWd0byCO7EfrspU8kmiV14nccGBUew&#xA;yeSuHHXewxA8WWxW3617Bz+ZPm3j5TXzSfXT4GZV9DY/F8SSfb/hkD/ey9PG2D+5h6/D/Su8sejD&#xA;5D8+2zq1le8+cujMrgWqFiFCl92/lP8AqiuQx7Ysg5Hu7mzNZzYjzH87veq/lp/ygei/8w4/Wc2O&#xA;k/uo+50/aH9/L3vPrm+urDXvzCurVzHOkShJF6rzkVCR70bNZOZjPKRzp3mPGJ48Alyv9DKfKfkP&#xA;ync+SbRri1jlmvbYTT3rD96rutTxc7rwrTbbbMnT6LFLCLHMc3C1faWeOoNEgRNV0/BYbbarf3Xk&#xA;PS9MmmZLSXU2tZJa/wC6VVHCn/JDSE/7HNV4spaeMCduOvht+t3vgQjq5zA9Qx8Xx3/V9rIfO+m+&#xA;TNLWKzl0W8ijt1ST9I2KquxJUK8r1BJPjvmZrMWDHUeCW3WP63X9nZtTluQyRN36ZfoCC833UM3n&#xA;fRLr9FvrUUukxyDT2AeRwxmILUDVK1qdsGpkDmgeHj9HL5p0UCNNkjx+GRkO/wAl35dww6t55uNb&#xA;0yxj0fTrSAwTWSSKWaVhT4oxxKjv9mlV8a5PRATzGcRwxA5NXaZOPTjHOXHIm78vexfz3f2nmHzD&#xA;r+pHUY7ZtFSODSImdVaZopfjKePR2FPFcp1MxknKV1w8nI0eM4ccI8N8e8vLb+z7WQ/mbr6a/wDl&#xA;DpmqqRznuYPXUfsyokiyD/ggae2Zeqy8eAS83A0ODwtVKPcD+hN/J1rHPr8P1j8u4tBEQaSPU+SO&#xA;UdR8IAESGp+eX4Bcv7vh83G1Mqhtl4/L8Fj35b+ZI/Lf5V+aNYYj1LbUrn6up/ameGBIh/wbCvtl&#xA;emycGKR82zWYvEzwj/RH6WF/l/qtj5T81+WdVXVIrsa9FJb67Esiu0DzS/B6m9VpWJjXuGyvBIQl&#xA;E3z5t+pickJCq4eT6fzbOgdirsVdirsVdirsVdirsVdirsVdirsVdirsVQms6f8ApLSL7TvU9L67&#xA;by2/q05cfVQpy41FaV6VwSFimUJUQe55hZ/kv5vs9CXQLfz1NFo6rJH9UjsVUFJizSLyE/KjF275&#xA;iflpVXFt7nPOtgZcRh6vf+xN7n8nrH9G+WNPstQa3g8t3Bui0kQla4d5FlepDx8Ksp8afRhOlFRA&#xA;P0sY643IkfWK9zV1+V/mBfMWrazo/ml9LOruHnhS0WQgL9kc2lHSp3AGCWllxGUZVfkyjrocEYyh&#xA;xcPn+xV038po7XRtctrjVZLzVdeXhdanLHuADy2j59z1+PBHR1GQJsy6pn2jc4kRqMOjWm/l5500&#xA;2yhsbPzm8VrAvCGIWMZCr4VMhORjpMkRQybe5nPX4ZSMpYrJ/pH9SbWfkG2i1vXdQurj61ba6hjl&#xA;szHw4KevxhzX7hk46QccpE2J9GqfaBOOEYijj6pPH+WevW1pJpVj5lmh0SQsPqrRBnCMasoYMOve&#xA;lAfDMb+T5gcMZkQ7nN/lbEZCcsQOQdbT6XyDocnlhPL4DrBEfUjuNjKJd/3hNKEmtD7bZkS0GM4v&#xA;D6fpcSHauUZ/G6np0ruSe5/LvzBfwpY6n5lmuNMSlYVj4s4X7PJixr4/FXMY9n5JDhnkJj7nNj2v&#xA;hgeLHhAn33+z9ScjybGnmfTdaiuisWm2YsUtSnIsqhwGMnIdpP5cyxpAMkZg/TGqcA68nDLGRvOX&#xA;Ffy6fDvQN3+X8yeZrjX9F1P9GS3cLx3UHo+qju4IMm0kdDWjf6wrkJaMjIZwPDfkzj2iDiGPJHiE&#xA;TtvX6D/Y15d/KzyvpmlpaX1pBqt0GZpLyaFQzcjsACXoANuuHDoYQjRAke9jqe08uSdxJiO60mk/&#xA;JqRvLV35eTWytjNerfWtbbkYeKsrJ/e/FyBXfbp03yH5D0GHFtd8v2t38qfvBk4d+Gjvz+x6Xmwd&#xA;Q8tb8kJH8vLoD66TYPqj6pdqtsVaUNGkaw1E3w8QjfFvuRttvhfk/Tw3tduzPaPr4+Hfhrn+xNPN&#xA;v5MeTta0WSx06zttGvWZHi1C3t1LJxapBUGPkGWo+175bk00ZCgKaMWtnGVkmQZrpdtdWum2ttd3&#xA;H1u6giSOa64+n6rqoDPwq/HkRWlcviKG7iyIJJCJwsXYq7FXYq7FXYq7FXYq7FXYq7FXYq7FXYq7&#xA;FXYq7FXYq7FXYq7FXYq7FXYq7FXYq7FXYq7FXYq7FXYq7FXYq7FXYq7FXYq7FXYq7FXYq7FXYq7F&#xA;XYq7FXYq7FXYq7FXYq7FXYq7FXYq7FXYq7FXYq7FXYq7FXYq7FXYq7FXYq7FXYq7FX//2Q==</xmpGImg:image>
               </rdf:li>
            </rdf:Alt>
         </xmp:Thumbnails>
         <xmpMM:InstanceID>xmp.iid:02b33c3e-7c3e-a445-8f7c-ae45cef8a2fa</xmpMM:InstanceID>
         <xmpMM:DocumentID>xmp.did:02b33c3e-7c3e-a445-8f7c-ae45cef8a2fa</xmpMM:DocumentID>
         <xmpMM:OriginalDocumentID>uuid:5D20892493BFDB11914A8590D31508C8</xmpMM:OriginalDocumentID>
         <xmpMM:RenditionClass>proof:pdf</xmpMM:RenditionClass>
         <xmpMM:DerivedFrom rdf:parseType="Resource">
            <stRef:instanceID>xmp.iid:9abfa668-2609-c146-aeb5-945099e7e6e3</stRef:instanceID>
            <stRef:documentID>xmp.did:9abfa668-2609-c146-aeb5-945099e7e6e3</stRef:documentID>
            <stRef:originalDocumentID>uuid:5D20892493BFDB11914A8590D31508C8</stRef:originalDocumentID>
            <stRef:renditionClass>proof:pdf</stRef:renditionClass>
         </xmpMM:DerivedFrom>
         <xmpMM:History>
            <rdf:Seq>
               <rdf:li rdf:parseType="Resource">
                  <stEvt:action>saved</stEvt:action>
                  <stEvt:instanceID>xmp.iid:9abfa668-2609-c146-aeb5-945099e7e6e3</stEvt:instanceID>
                  <stEvt:when>2017-04-11T01:59:07-05:00</stEvt:when>
                  <stEvt:softwareAgent>Adobe Illustrator CC (Windows)</stEvt:softwareAgent>
                  <stEvt:changed>/</stEvt:changed>
               </rdf:li>
               <rdf:li rdf:parseType="Resource">
                  <stEvt:action>saved</stEvt:action>
                  <stEvt:instanceID>xmp.iid:02b33c3e-7c3e-a445-8f7c-ae45cef8a2fa</stEvt:instanceID>
                  <stEvt:when>2017-08-15T21:14:48-05:00</stEvt:when>
                  <stEvt:softwareAgent>Adobe Illustrator CC (Windows)</stEvt:softwareAgent>
                  <stEvt:changed>/</stEvt:changed>
               </rdf:li>
            </rdf:Seq>
         </xmpMM:History>
         <illustrator:StartupProfile>Print</illustrator:StartupProfile>
         <xmpTPg:HasVisibleOverprint>False</xmpTPg:HasVisibleOverprint>
         <xmpTPg:HasVisibleTransparency>True</xmpTPg:HasVisibleTransparency>
         <xmpTPg:NPages>1</xmpTPg:NPages>
         <xmpTPg:MaxPageSize rdf:parseType="Resource">
            <stDim:w>154.914001</stDim:w>
            <stDim:h>74.254028</stDim:h>
            <stDim:unit>Pixels</stDim:unit>
         </xmpTPg:MaxPageSize>
         <xmpTPg:PlateNames>
            <rdf:Seq>
               <rdf:li>Cyan</rdf:li>
               <rdf:li>Magenta</rdf:li>
               <rdf:li>Yellow</rdf:li>
               <rdf:li>Black</rdf:li>
            </rdf:Seq>
         </xmpTPg:PlateNames>
         <xmpTPg:SwatchGroups>
            <rdf:Seq>
               <rdf:li rdf:parseType="Resource">
                  <xmpG:groupName>Grupo de muestras por defecto</xmpG:groupName>
                  <xmpG:groupType>0</xmpG:groupType>
               </rdf:li>
            </rdf:Seq>
         </xmpTPg:SwatchGroups>
         <pdf:Producer>Adobe PDF library 10.01</pdf:Producer>
      </rdf:Description>
   </rdf:RDF>
</x:xmpmeta>
                                                                                                    
                                                                                                    
                                                                                                    
                                                                                                    
                                                                                                    
                                                                                                    
                                                                                                    
                                                                                                    
                                                                                                    
                                                                                                    
                                                                                                    
                                                                                                    
                                                                                                    
                                                                                                    
                                                                                                    
                                                                                                    
                                                                                                    
                                                                                                    
                                                                                                    
                                                                                                    
                           
<?xpacket end="w"?>
	</metadata>
<g>
	<rect id="XMLID_283_" y="0" class="st0" width="154.914" height="74.254"/>
	<linearGradient id="XMLID_2_" gradientUnits="userSpaceOnUse" x1="0" y1="24.077" x2="154.914" y2="24.077">
		<stop  offset="0" style="stop-color:#783214"/>
		<stop  offset="0.5" style="stop-color:#F16529"/>
		<stop  offset="1" style="stop-color:#783214"/>
	</linearGradient>
	<rect id="XMLID_273_" y="0" class="st1" width="154.914" height="48.154"/>
	<rect id="XMLID_303_" x="0" y="57.455" class="st2" width="154.494" height="13.102"/>
	<linearGradient id="SVGID_1_" gradientUnits="userSpaceOnUse" x1="38.333" y1="60.4335" x2="116.923" y2="60.4335">
		<stop  offset="0" style="stop-color:#783214"/>
		<stop  offset="0.5" style="stop-color:#F16529"/>
		<stop  offset="1" style="stop-color:#783214"/>
	</linearGradient>
	<path class="st3" d="M38.333,57.457h3.147c0.623,0,1.088,0.026,1.394,0.078c0.307,0.052,0.58,0.16,0.822,0.325
		c0.241,0.164,0.443,0.384,0.604,0.657c0.161,0.274,0.242,0.581,0.242,0.921c0,0.369-0.1,0.708-0.298,1.016
		c-0.199,0.308-0.468,0.539-0.809,0.693c0.48,0.139,0.849,0.377,1.106,0.714s0.387,0.732,0.387,1.187
		c0,0.358-0.083,0.707-0.25,1.045c-0.166,0.339-0.394,0.609-0.682,0.812c-0.289,0.202-0.644,0.326-1.066,0.373
		c-0.265,0.028-0.904,0.047-1.917,0.054h-2.68V57.457z M39.923,58.768v1.821h1.042c0.62,0,1.004-0.01,1.155-0.027
		c0.272-0.032,0.486-0.126,0.642-0.282c0.155-0.155,0.233-0.36,0.233-0.614c0-0.244-0.067-0.441-0.201-0.594
		c-0.135-0.152-0.334-0.244-0.599-0.277c-0.158-0.018-0.61-0.026-1.359-0.026L39.923,58.768L39.923,58.768z M39.923,61.899v2.105
		h1.472c0.573,0,0.937-0.017,1.09-0.049c0.236-0.043,0.429-0.147,0.578-0.314c0.148-0.166,0.223-0.389,0.223-0.668
		c0-0.236-0.057-0.438-0.172-0.602c-0.115-0.165-0.28-0.285-0.497-0.36c-0.216-0.075-0.687-0.112-1.41-0.112H39.923z M46.223,65.331
		v-7.874h1.59v7.874H46.223z M49.333,57.457h3.147c0.623,0,1.088,0.026,1.394,0.078c0.307,0.052,0.58,0.16,0.822,0.325
		c0.241,0.164,0.443,0.384,0.604,0.657c0.161,0.274,0.242,0.581,0.242,0.921c0,0.369-0.1,0.708-0.298,1.016
		c-0.199,0.308-0.468,0.539-0.809,0.693c0.48,0.139,0.849,0.377,1.106,0.714s0.387,0.732,0.387,1.187
		c0,0.358-0.083,0.707-0.25,1.045c-0.166,0.339-0.394,0.609-0.682,0.812c-0.289,0.202-0.644,0.326-1.066,0.373
		c-0.265,0.028-0.904,0.047-1.917,0.054h-2.68V57.457z M50.923,58.768v1.821h1.042c0.62,0,1.004-0.01,1.155-0.027
		c0.272-0.032,0.486-0.126,0.642-0.282c0.155-0.155,0.233-0.36,0.233-0.614c0-0.244-0.067-0.441-0.201-0.594
		c-0.135-0.152-0.334-0.244-0.599-0.277c-0.158-0.018-0.61-0.026-1.359-0.026L50.923,58.768L50.923,58.768z M50.923,61.899v2.105
		h1.472c0.573,0,0.937-0.017,1.09-0.049c0.236-0.043,0.429-0.147,0.578-0.314c0.148-0.166,0.223-0.389,0.223-0.668
		c0-0.236-0.057-0.438-0.172-0.602c-0.115-0.165-0.28-0.285-0.497-0.36c-0.216-0.075-0.687-0.112-1.41-0.112H50.923z M57.314,65.331
		v-7.81h1.59v6.483h3.953v1.326h-5.543V65.331z M63.942,65.331v-7.874h1.59v7.874H63.942z M66.725,61.442
		c0-0.802,0.12-1.476,0.36-2.02c0.179-0.401,0.423-0.761,0.733-1.08c0.31-0.318,0.649-0.555,1.018-0.709
		c0.491-0.207,1.056-0.311,1.697-0.311c1.16,0,2.088,0.359,2.785,1.079c0.696,0.72,1.044,1.721,1.044,3.003
		c0,1.271-0.346,2.266-1.037,2.983c-0.691,0.717-1.615,1.077-2.771,1.077c-1.171,0-2.102-0.357-2.793-1.072
		C67.07,63.68,66.725,62.695,66.725,61.442z M68.363,61.389c0,0.892,0.206,1.567,0.618,2.027s0.935,0.69,1.568,0.69
		s1.154-0.229,1.56-0.685c0.407-0.457,0.61-1.142,0.61-2.055c0-0.902-0.198-1.575-0.593-2.02c-0.396-0.444-0.921-0.666-1.577-0.666
		s-1.184,0.225-1.584,0.674S68.363,60.482,68.363,61.389z M79.266,62.437V61.11h3.428v3.137c-0.334,0.322-0.816,0.606-1.448,0.852
		s-1.272,0.368-1.92,0.368c-0.823,0-1.542-0.173-2.154-0.519s-1.072-0.84-1.38-1.482s-0.462-1.342-0.462-2.098
		c0-0.82,0.172-1.549,0.516-2.187c0.344-0.637,0.847-1.126,1.509-1.466c0.505-0.262,1.133-0.392,1.885-0.392
		c0.978,0,1.741,0.204,2.291,0.614s0.903,0.977,1.061,1.7l-1.579,0.295c-0.111-0.387-0.319-0.691-0.626-0.915
		c-0.306-0.224-0.688-0.336-1.146-0.336c-0.694,0-1.247,0.22-1.657,0.661c-0.41,0.439-0.615,1.094-0.615,1.96
		c0,0.935,0.208,1.636,0.623,2.103c0.416,0.468,0.959,0.701,1.632,0.701c0.334,0,0.668-0.065,1.002-0.196
		c0.335-0.131,0.623-0.289,0.862-0.476v-0.998h-1.822V62.437z M84.164,65.331v-7.874h3.347c0.841,0,1.452,0.07,1.835,0.212
		c0.381,0.142,0.686,0.394,0.915,0.755s0.344,0.775,0.344,1.241c0,0.59-0.174,1.078-0.521,1.463
		c-0.348,0.385-0.867,0.628-1.559,0.729c0.344,0.2,0.628,0.42,0.852,0.66c0.225,0.24,0.525,0.666,0.905,1.278l0.962,1.536h-1.902
		l-1.148-1.713c-0.408-0.613-0.688-0.999-0.838-1.158s-0.311-0.269-0.479-0.327c-0.168-0.06-0.436-0.089-0.801-0.089h-0.322v3.287
		C85.754,65.331,84.164,65.331,84.164,65.331z M85.754,60.787h1.177c0.763,0,1.239-0.032,1.429-0.097s0.338-0.176,0.445-0.333
		s0.162-0.354,0.162-0.591c0-0.265-0.071-0.479-0.213-0.642c-0.141-0.163-0.341-0.267-0.599-0.31
		c-0.129-0.018-0.516-0.026-1.16-0.026h-1.241C85.754,58.788,85.754,60.787,85.754,60.787z M99.203,65.331h-1.729l-0.688-1.789
		h-3.148l-0.649,1.789h-1.687l3.066-7.874h1.682L99.203,65.331z M96.276,62.216l-1.085-2.922l-1.063,2.922H96.276z M100.058,65.331
		v-7.874h5.397v1.332h-3.808v1.864h3.287v1.332h-3.287v3.346H100.058z M106.535,57.006l0.741-1.606h1.692l-1.478,1.606H106.535z
		 M106.718,65.331v-7.874h1.59v7.874H106.718z M116.923,65.331h-1.729l-0.688-1.789h-3.147l-0.649,1.789h-1.688l3.067-7.874h1.681
		L116.923,65.331z M113.996,62.216l-1.086-2.922l-1.063,2.922H113.996z"/>
	<g id="XMLID_74_">
		<path id="XMLID_407_" class="st4" d="M63.582,14.26l7.044,2.37c0.578,0.253,3.331,1.259,8.215,0.049
			c6.168-1.528,19.52-4.179,19.656-4.208l-0.501-2.51c-0.005,0-0.039,0.01-0.087,0.02L85.184,8.184
			c-1.401-0.194-3.657-0.141-5.049,0.132L63.12,11.613c-2.213-0.112-4.315,1.245-5.019,3.454c-0.408,1.269-0.296,2.626,0.316,3.808
			c0.316,0.609,0.74,1.129,1.25,1.557c-0.768,0.599-1.367,1.421-1.688,2.413c-0.403,1.269-0.291,2.626,0.321,3.813
			c0.331,0.643,0.793,1.183,1.342,1.615c-0.753,0.594-1.347,1.416-1.664,2.393c-0.403,1.275-0.291,2.626,0.321,3.814
			c0.613,1.187,1.649,2.062,2.919,2.471l12.268,3.92c0.671,0.214,1.774,0.263,2.466,0.102l21.533-4.932c0,0-0.132-0.554-0.286-1.245
			c-0.157-0.685-0.847-1.118-1.533-0.963l-19.602,4.49c-0.691,0.159-1.796,0.111-2.467-0.103l-11.6-3.706
			c-0.618-0.199-1.123-0.628-1.426-1.207c-0.296-0.579-0.355-1.24-0.156-1.858c0.413-1.284,1.786-1.985,3.069-1.581
			c0.005-0.014,7.096,2.253,10.002,3.177c0.671,0.214,1.774,0.263,2.466,0.107l21.533-4.932c0,0-0.132-0.559-0.286-1.25
			c-0.157-0.685-0.842-1.118-1.533-0.958l-19.602,4.489c-0.691,0.156-1.796,0.107-2.467-0.107l-11.6-3.706
			c-0.618-0.199-1.123-0.628-1.426-1.207c-0.296-0.579-0.355-1.24-0.156-1.858c0.413-1.284,1.786-1.985,3.069-1.581
			c0-0.005,7.19,2.291,10.117,3.225c0.676,0.219,1.781,0.263,2.467,0.107l21.533-4.932c0,0-0.127-0.559-0.288-1.25
			c-0.156-0.686-0.842-1.118-1.532-0.958l-19.602,4.484c-0.691,0.161-1.791,0.112-2.467-0.102L62.119,18.91
			c-0.623-0.199-1.129-0.628-1.426-1.207c-0.301-0.579-0.355-1.24-0.156-1.858C60.946,14.566,62.318,13.851,63.582,14.26
			L63.582,14.26z"/>
	</g>
</g>
</svg>
