<?xml version="1.0" encoding="utf-8"?>
<!-- Generator: Adobe Illustrator 17.0.0, SVG Export Plug-In . SVG Version: 6.00 Build 0)  -->
<!DOCTYPE svg PUBLIC "-//W3C//DTD SVG 1.1//EN" "http://www.w3.org/Graphics/SVG/1.1/DTD/svg11.dtd" [
	<!ENTITY ns_extend "http://ns.adobe.com/Extensibility/1.0/">
	<!ENTITY ns_ai "http://ns.adobe.com/AdobeIllustrator/10.0/">
	<!ENTITY ns_graphs "http://ns.adobe.com/Graphs/1.0/">
	<!ENTITY ns_vars "http://ns.adobe.com/Variables/1.0/">
	<!ENTITY ns_imrep "http://ns.adobe.com/ImageReplacement/1.0/">
	<!ENTITY ns_sfw "http://ns.adobe.com/SaveForWeb/1.0/">
	<!ENTITY ns_custom "http://ns.adobe.com/GenericCustomNamespace/1.0/">
	<!ENTITY ns_adobe_xpath "http://ns.adobe.com/XPath/1.0/">
]>
<svg version="1.1" id="Capa_1" xmlns:x="&ns_extend;" xmlns:i="&ns_ai;" xmlns:graph="&ns_graphs;"
	 xmlns="http://www.w3.org/2000/svg" xmlns:xlink="http://www.w3.org/1999/xlink" x="0px" y="0px" width="155.706px"
	 height="74.254px" viewBox="0 0 155.706 74.254" style="enable-background:new 0 0 155.706 74.254;" xml:space="preserve">
<style type="text/css">
	.st0{opacity:0.5;fill:#FFFFFF;enable-background:new    ;}
	.st1{fill:url(#XMLID_2_);}
	.st2{fill:none;}
	.st3{fill:url(#SVGID_1_);}
	.st4{fill:#FEFEFE;}
</style>
<metadata><?xpacket begin="﻿" id="W5M0MpCehiHzreSzNTczkc9d"?>
<x:xmpmeta xmlns:x="adobe:ns:meta/" x:xmptk="Adobe XMP Core 5.5-c014 79.151739, 2013/04/03-12:12:15        ">
   <rdf:RDF xmlns:rdf="http://www.w3.org/1999/02/22-rdf-syntax-ns#">
      <rdf:Description rdf:about=""
            xmlns:dc="http://purl.org/dc/elements/1.1/"
            xmlns:xmp="http://ns.adobe.com/xap/1.0/"
            xmlns:xmpGImg="http://ns.adobe.com/xap/1.0/g/img/"
            xmlns:xmpMM="http://ns.adobe.com/xap/1.0/mm/"
            xmlns:stRef="http://ns.adobe.com/xap/1.0/sType/ResourceRef#"
            xmlns:stEvt="http://ns.adobe.com/xap/1.0/sType/ResourceEvent#"
            xmlns:illustrator="http://ns.adobe.com/illustrator/1.0/"
            xmlns:xmpTPg="http://ns.adobe.com/xap/1.0/t/pg/"
            xmlns:stDim="http://ns.adobe.com/xap/1.0/sType/Dimensions#"
            xmlns:xmpG="http://ns.adobe.com/xap/1.0/g/"
            xmlns:pdf="http://ns.adobe.com/pdf/1.3/">
         <dc:format>image/svg+xml</dc:format>
         <dc:title>
            <rdf:Alt>
               <rdf:li xml:lang="x-default">Imprimir</rdf:li>
            </rdf:Alt>
         </dc:title>
         <xmp:MetadataDate>2017-08-15T21:13:58-05:00</xmp:MetadataDate>
         <xmp:ModifyDate>2017-08-15T21:13:58-05:00</xmp:ModifyDate>
         <xmp:CreateDate>2017-08-15T21:13:58-05:00</xmp:CreateDate>
         <xmp:CreatorTool>Adobe Illustrator CC (Windows)</xmp:CreatorTool>
         <xmp:Thumbnails>
            <rdf:Alt>
               <rdf:li rdf:parseType="Resource">
                  <xmpGImg:width>256</xmpGImg:width>
                  <xmpGImg:height>124</xmpGImg:height>
                  <xmpGImg:format>JPEG</xmpGImg:format>
                  <xmpGImg:image>/9j/4AAQSkZJRgABAgEASABIAAD/7QAsUGhvdG9zaG9wIDMuMAA4QklNA+0AAAAAABAASAAAAAEA&#xA;AQBIAAAAAQAB/+4ADkFkb2JlAGTAAAAAAf/bAIQABgQEBAUEBgUFBgkGBQYJCwgGBggLDAoKCwoK&#xA;DBAMDAwMDAwQDA4PEA8ODBMTFBQTExwbGxscHx8fHx8fHx8fHwEHBwcNDA0YEBAYGhURFRofHx8f&#xA;Hx8fHx8fHx8fHx8fHx8fHx8fHx8fHx8fHx8fHx8fHx8fHx8fHx8fHx8fHx8f/8AAEQgAfAEAAwER&#xA;AAIRAQMRAf/EAaIAAAAHAQEBAQEAAAAAAAAAAAQFAwIGAQAHCAkKCwEAAgIDAQEBAQEAAAAAAAAA&#xA;AQACAwQFBgcICQoLEAACAQMDAgQCBgcDBAIGAnMBAgMRBAAFIRIxQVEGE2EicYEUMpGhBxWxQiPB&#xA;UtHhMxZi8CRygvElQzRTkqKyY3PCNUQnk6OzNhdUZHTD0uIIJoMJChgZhJRFRqS0VtNVKBry4/PE&#xA;1OT0ZXWFlaW1xdXl9WZ2hpamtsbW5vY3R1dnd4eXp7fH1+f3OEhYaHiImKi4yNjo+Ck5SVlpeYmZ&#xA;qbnJ2en5KjpKWmp6ipqqusra6voRAAICAQIDBQUEBQYECAMDbQEAAhEDBCESMUEFURNhIgZxgZEy&#xA;obHwFMHR4SNCFVJicvEzJDRDghaSUyWiY7LCB3PSNeJEgxdUkwgJChgZJjZFGidkdFU38qOzwygp&#xA;0+PzhJSktMTU5PRldYWVpbXF1eX1RlZmdoaWprbG1ub2R1dnd4eXp7fH1+f3OEhYaHiImKi4yNjo&#xA;+DlJWWl5iZmpucnZ6fkqOkpaanqKmqq6ytrq+v/aAAwDAQACEQMRAD8AhHm7/lLtc/7aF1/yebNH&#xA;k+o+96jD9A9wS1cqbgrJkSzCquRZhWTIlkFZciWYVVyJZhWTIlkFZciWYVkwFmFVcgzCsmAsgrJk&#xA;SzCsmRLMKy5FkFVMiWYbbFSpPhDEqL5IMCovkgxKk2SDAqLZIMCovkgwKi2SYlSfJBgVFskGBUWy&#xA;QYlRfJBgVJsLAqL5IMSotkgwKk+SDApt5u/5S7XP+2hdf8nmyzJ9R97Xh+ge4JauVNwVkyJZhVXI&#xA;swrJkSyCsuRLMKq5EswrJkSyCsuRLMKyYCzCquQZhWTAWQVkyJZhWTIlmFZciyCqmRLMNtipUnwh&#xA;iWTeXfIE+v8Al+81Cxu43v7d6JYftEAVPImnEt+x22+7Y6fQnLjMon1Do6jWdpjBlEJRPCf4vx9r&#xA;ELiKWGV4pUMcsZKujAhlYGhBB6EZhkEGi7ASBFjkh2whBUWyQYFRfJBgVFskxKk+SDAqLZIMCotk&#xA;gxKi+SDAqTYWBUXyQYlRbJBgVJ8kGBTbzd/yl2uf9tC6/wCTzZZk+o+9rw/QPcEtXKm4KyZEswqr&#xA;kWYVkyJZBWXIlmFVciWYVkyJZBWXIlmFZMBZhVXIMwrJgLII3T7Oe9vbezgAM9zIkMQOw5OwUV+k&#xA;4xgZEAcys5iETI8gLe6aV+UXlG1tEjvYXv7mg9Sd5JIwW78VjZQB8650WPsvEB6hxF4/N25qJSuJ&#xA;4R7gfvRo/K/yKP8ApWf8l7j/AKqZP+TMH837T+tq/lrVfz/sj+pcPyy8jj/pW/8AJe4/6qY/yZg/&#xA;m/af1p/lvVfz/sj+pKvMvlb8t9A05ry80+pNRBAs8/OR/wCVf3n3ntmPqdLpcMeKUftP63L0ev12&#xA;onwxl7zwx2+xhFp5f1LSXtfNl5o6vowm9Q2AZmaOM/YchyTxFfh5H57HNbDTyx1mlH0Xyd1l1cMo&#xA;OnjP95X1d56/gfBlGr2AtCvnzyZIrxMpk1GzGySR9ZDx7EU+NfpGbDLDh/f4fiHUYcvF/gupG/8A&#xA;Ce7u/Y8+8++ZdO8w6ut/Z2X1T90qzsx+ORwNy1Nvh+yD1I6+A1ms1Ecs+ICnddn6SeDHwylxb/Ji&#xA;zZjBzSotkgwKi+SDAqLZJiVJ8kGBUWyQYFRbJBiVF8kGBUmwsCovkgxKi2SDAqT5IMCm3m7/AJS7&#xA;XP8AtoXX/J5ssyfUfe14foHuCWrlTcFZMiWYVVyLMKyZEsgrLkSzCquRLMKyZEsgrLkSzCsmAswq&#xA;rkGYVkwFkGReRf8AlMNH/wCYuL/iQy7Sf3sfeHG1/wDcT/ql7X+aFzc23k67mtpXhlV4QJI2KMKy&#xA;KDuKHOg7SkY4SQa5PJ9jQEtQARY3+54mvmHX/wDq5XX/ACPk/wCas5j8xk/nH5l7YaTF/Mj8grLr&#xA;+vf9XK6/5HSf81ZE6jJ/Ol8yyGkw/wAyPyD0byN5Ivb5odb8xvJcBQGsbW4ZnNOodwxO3gv0nN1o&#xA;NDKdZMtnuBeb7V7TjjvFgofziPuH63o9w1utvKbkoLcI3rGSnDhT4uVdqU61zeSqt+TzMAbFc3z9&#xA;5gdguqv5eNxF5VkuESQMSInloSAoO5G1QPCle2cpmP1eHfhW93ph9AzUc/D8a/H6aYm+YgdgVJsk&#xA;GBUWyQYFRfJBgVFskxKk+SDAqLZIMCotkgxKi+SDAqTYWBUXyQYlRbJBgVJ8kGBTbzd/yl2uf9tC&#xA;6/5PNlmT6j72vD9A9wS1cqbgrJkSzCquRZhWTIlkFZciWYVVyJZhWTIlkFZciWYVkwFmFVcgzCsm&#xA;AsgyLyL/AMpho/8AzFxf8SGXaT+9j7w42v8A7if9UvZvzY/5Qm8/4yQ/8nVzfdqf3B+H3vK9if4z&#xA;H4/c8JXOVe7D1P8ALr8ui3pazrMXwbPZ2bjr3EkgPb+Vc3fZ3Z1+uY9w/W8z2v2xV4sR95/QHqMs&#xA;scUbyyuI44wWd2ICqoFSST2zfEgCy8rGJJoc3lOt+av8Z+Y7Xy3ZzPb6LLLxmmUUefgCxO/Rfh+E&#xA;H5nwzQ5tV+ZyjFE1D73q9PofyeE5pC8oHy/HX5Jn+aunWWm+Q7eysohDbQ3MSoi/6r7nxJ7nMntL&#xA;HGGARiKAIcLsbNLJqjKRsmJ/Q8TfOeD1xUmyQYFRbJBgVF8kGBUWyTEqT5IMCotkgwKi2SDEqL5I&#xA;MCpNhYFRfJBiVFskGBUnyQYFNvN3/KXa5/20Lr/k82WZPqPva8P0D3BLVypuCsmRLMKq5FmFZMiW&#xA;QVlyJZhVXIlmFZMiWQVlyJZhWTAWYVVyDMKyYCyDIvIv/KYaP/zFxf8AEhl2k/vY+8ONr/7if9Uv&#xA;ZvzY/wCUJvP+MkP/ACdXN92p/cH4fe8r2J/jMfj9zyXyxpeqyLPrWnwJdHRnhlmtnXnyVuR5ce4X&#xA;09+/fOf0+KZucRfBWz1uszYxWKZ4fEBF/L9b2/y55s0rXNKN/DIIfRFbyKRgDCQKnkdvh22bOm0+&#xA;rhlhxDaufk8VrNBkwZOAi75ef47nmP5g+f5dZkbTtOYppSH426NOw7n/ACPAfSfbQ9odoHKeGP0f&#xA;e9T2T2SMA45/3n+5/alH5df8ptpf+u//ACabKezv7+P46OT2x/i0/wAdQ9E/Ob/lEE/5i4v+Ivm7&#xA;7W/uvi812B/jH+af0PCnzmw9kVJskGBUWyQYFRfJBgVFskxKk+SDAqLZIMCotkgxKi+SDAqTYWBU&#xA;XyQYlRbJBgVJ8kGBTbzd/wApdrn/AG0Lr/k82WZPqPva8P0D3BLVypuCsmRLMKq5FmFZMiWQVlyJ&#xA;ZhVXIlmFZMiWQVlyJZhWTAWYVVyDMKyYCyDIvIv/ACmGj/8AMXF/xIZdpP72PvDja/8AuJ/1S9m/&#xA;Nj/lCbz/AIyQ/wDJ1c33an9wfh97yvYn+Mx+P3PKvJ/nW/8ALP1v6pBFN9b9Pn6vLb0uVKcSP580&#xA;Ol1ssF0Aber13Z0NTw8RI4b5ef8AYhNR1h7y8uLiCJbBLsD6xbW5ZYmNeW6knau9Olcx8ubikSBw&#xA;3zA5OXg04hEAni4eRPNL2ylyCyD8uv8AlNtL/wBd/wDk02Z3Z39/H8dHV9sf4tP8dQ9E/Ob/AJRB&#xA;P+YuL/iL5u+1v7r4vNdgf4x/mn9Dwp85sPZFSbJBgVFskGBUXyQYFRbJMSpPkgwKi2SDAqLZIMSo&#xA;vkgwKk2FgVF8kGJUWyQYFSfJBgU283f8pdrn/bQuv+TzZZk+o+9rw/QPcEtXKm4KyZEswqrkWYVk&#xA;yJZBWXIlmFVciWYVkyJZBWXIlmFZMBZhVXIMwrJgLIJr5e1FdM1uw1B15pazxyuo6lVYFgPemSw5&#xA;OCYl3Fr1GLxMcod4IfSDpoXmXSAGKX+m3HFvhY0JUhhXiQQQe2dYRDND+dEvBg5dPk/mzCXf8q48&#xA;lf8AVrT/AIOX/mrKP5Owfzfvcn+V9T/PP2fqbH5d+Sx/0rE/4OT/AJqx/k7B/N+9f5Y1X88/Z+p3&#xA;/Ku/Jn/VsT/g5P8AmrH+TsH8371/ljVfzz9n6lew8keVtPvI7yz09IbmEkxyBpCQSCO7EdDk8eix&#xA;QPFGNFry9pZ8kTGUrifcwr86PMNg9hb6JBKsl36wnuFUg+mqKyhW8GYtWntmv7Wzx4RAc7dv2BpZ&#xA;CRyEVGqHm8ffNEHqCpNkgwKi2SDAqL5IMCotkmJUnyQYFRbJBgVFskGJUXyQYFSbCwKi+SDEqLZI&#xA;MCpPkgwKbebv+Uu1z/toXX/J5ssyfUfe14foHuCWrlTcFZMiWYVVyLMKyZEsgrLkSzCquRLMKyZE&#xA;sgrLkSzCsmAswqrkGYVkwFkFZMiWYRMM00f927JXrxJH6sFkJ4QeaIW7uv8Afz/8Ef65HjPeyGOP&#xA;cFVbu6/38/8AwR/rgMz3shjj3Btrq6/38/8AwR/rg4z3pOOPcFJru6/38/8AwR/rkhM97A449wQj&#xA;4hSovkgxKk2SDAqLZIMCovkgwKi2SYlSfJBgVFskGBUWyQYlRfJBgVJsLAqL5IMSotkgwKk+SDAs&#xA;r81eU/NMvmrWZYtGvnikvrlkdbaYqymZiCCF3By7JjlxHYuPhyw4BuOXel6+UPNv/Vkv/wDpFm/5&#xA;pyvw5dxbhmh3j5qq+UfNf/Vlv/8ApGm/5pyJxS7iyGaH84fNVXyl5q/6s19/0jTf805HwpdxZjPD&#xA;+cPmqr5T80/9Wa+/6Rpv+acHhT7iyGfH/OHzVV8qeaP+rPff9I03/NOROKfcfkzGfH/OHzVl8q+Z&#xA;/wDqz3v/AEjS/wDNOR8GfcfkyGox/wA6PzCqvlbzN/1aL3/pHl/5pwHDPuPyZjUY/wCdH5hVXyx5&#xA;l/6tN7/0jy/805HwZ/zT8mQ1GP8AnR+YVV8s+ZP+rTef9I8v/NOROGf80/JkNTj/AJ0fmFVfLXmP&#xA;/q1Xn/SPL/zTkfAn/NPyZjU4v50fmFZPLfmL/q13n/IiX/mnAcE/5p+TIanF/Oj8wqr5c8w/9Wu7&#xA;/wCREv8AzTkTgyfzT8mY1WL+dH5hVXy75g/6tl3/AMiJP+acicGT+afkyGqxfz4/MKq+Xtf/AOrb&#xA;df8AIiT/AJpyP5fJ/NPyLMavF/Pj8wrL5f17/q23X/ImT/mnInT5P5svkWQ1eH+fH5hzaBrv/Vtu&#xA;v+RMn/NOP5fJ/Nl8ik6vD/Pj8wpN5f1//q23X/IiT/mnJDT5P5p+RYHV4v58fmFJvLvmD/q2Xf8A&#xA;yIk/5pyQwZP5p+TE6rF/Pj8wpN5c8w/9Wu7/AOREv/NOHwMn80/JgdVi/nR+YUm8t+Yv+rXd/wDI&#xA;iX/mnJDBP+afkxOqxfzo/MKTeWvMf/VqvP8ApHl/5pyXgT/mn5MDqcX86PzCi3lnzJ/1arz/AKR5&#xA;f+acl4M/5p+TE6nF/Oj8wpN5Y8y/9Wm9/wCkeX/mnD4M/wCafkwOpx/zo/MKTeV/M3/Vovf+keX/&#xA;AJpyQwz7j8mJ1GP+dH5hSbyt5n/6tF7/ANI0v/NOS8GfcfkxOox/zo/MKTeVfNH/AFZ77/pGm/5p&#xA;yXhT7j8mB1GP+cPmFFvKfmn/AKs19/0jTf8ANOEYp9xYnPj/AJw+ak3lLzV/1Zr7/pGm/wCacl4U&#xA;u4sDnh/OHzUm8o+a/wDqy3//AEjTf805IYpdxYnND+cPmpN5Q82f9WS//wCkWb/mnJeHLuLA5ofz&#xA;h81JvJ/m3/qyX/8A0izf804fDl3Fic0O8fN9v5vXl3Yq7FXYq7FXYq7FXYq7FXYq7FXYq7FXYq7F&#xA;XYq7FXYq7FXYq7FXYq7FXYq7FXYq7FXYq7FXYq7FXYq7FXYq7FVK8u7aytJry6kENtbRtLPK3RUQ&#xA;FmY/IDATQtIBJoILy/5k0PzDYG/0a7W8tA5iMqBhR1AJUhgp6MMEJiQsMsmOUDUhRQPmD8wPJvl+&#xA;5W11fVIra6YA+hR5HAboWWNXKg++QnnhHYlsxabJMXEWuufPflG20WDW5dTi/RVzJ6MN0vJ1MlGb&#xA;hRAxBoh6jE54CPFeyx02Qy4QPUgIPzY/L2eaOGLWY3llYIi+nNuzGgG6ZAavH3tp0GYC+FEzfmN5&#xA;KhE7S6oiLbT/AFSdiktEm+L4CeP+Q33YTqcY6sRospqo8xfwTfWNb0rRrE32p3C21opVTK1SKsaA&#xA;AKCTlmTJGAuRoNOLDLJLhiLKEj83+XJJbqJL1TJY2wvbtCkgMdu0ayhzVf5HBp1yA1EN9+Qv4Nh0&#xA;mQAGvqND38kFa/mT5GuZlhi1eH1HIC8w8YqTT7Tqq/jlY1uImuJul2bnAswLIpJoo4WmdwsSKXZz&#xA;0CgVJ+7MkkAW4QiSaHNB6Nr2ka1bPc6Xcrcwo/puyhhRgAaUYA9DleLNHILibbc+nniNTFFLrjz9&#xA;5QtrqW0n1JI7iF2ilQrJ8LoeLAnjTYjKZa7DE0ZbhyYdl6iURIQ2O/ROrO9tL22S5tJknt5BVJYy&#xA;GU/SMyYTEhYNhw8mOUJcMhRQGr+adA0eZINSvFt5ZF5orK5qtSK/CD3GU5tVjxmpGi5Gn0ObMLhG&#xA;wFbSdf0bV0ZtNvI7kJ9tUPxLXxU0YfdksWeGT6TbDPpcmI+uJihG86eWF019SN+osY5vqzzcXoJu&#xA;PLhTjXofDI/m8fDxXtdfFs/IZuPg4fVV9OTWl+dvKmq3ItbHUopbhvsRGqM3+qHC1+jHHq8czUZb&#xA;ozaDNjFyiQF/m/XW0Ly9eaknpmaJQIFmJCGR2CryoQaVNTTJajL4cDJjpMHi5BHoiPL19Nf6JZ3s&#xA;00FxLcRiRpbVWWEluyByzbdN/wAOmSwyMogmt+5hqICEzEAiu/mlmo/mL5J06/awvNWhjukPGRBz&#xA;cK3QhmRWVSO9TtlctVjiaJ3bYaHNKPEImlXV/PflHSBbNqGpxQpeR+tauA0iyR/zK0YYUyU9RCNW&#xA;ebHHpMs74Y8kNp/5meRtRu1tLLVo5rhld1jCSglYkMjndANkQnBHU45GgUz0WWIsx2TK181+XbrR&#xA;DrsN/F+iF5crxyY0HBuJ+2FP2tsmMsTHivZqlgmJcBHq7kBon5j+SNcvxp+l6tFPeGvCEh42agqe&#xA;HqKnLb+XIwzwkaBZ5NLkgLkNkw8w+Z9B8u2SXutXiWVtJIIUkcM1XILBQEDHopyc8giLLXjxSmai&#xA;LTC2uYLq3iubdxLBOiyQyLurI45Kw9iDkgbYEUaKphQ7FXYq7FXYq7FXln/OQvmcab5Qi0aKURXO&#xA;uTCFmJI428ZDSsaVNKlVPsTmJq51Gu9z+z8XFPi/msb/ACY1zQtG8/ar5W0m/F9ompIk+mT0Zazx&#xA;RhpFo4U1K8v+BGVaaYjMxB2Lka3HKWMTIqQ5ph+TuiaL5hv/ADTq2vWUN/q7ahJHIl0izekjV2Cu&#xA;CoqeS9Ogph0sIyMjIWbRrckoCEYmo0zXyd5U/LyCzv7LRTBqVr9aMl1bySJdJDOvJAAjVCECoBpU&#xA;jucvxYsYBEd3Fz58xIMrBr3MZ/J/RdHnvvNZnsbeU2+rSLbl4kb01VmoEqPhA9sx9JCJMrH8Tldo&#xA;ZJAQoneKQaH5f/TujfmNZIvK4jvjcWoG59WGSZwB7sAV+nMeGPjjkHn+tzMmbw54T04a+dLhrr+e&#xA;bXyT5Y5GRgxl1gV/Ztaxgkju0SO3zYZE5PGEIfP4Mhh/LHLl/wBL8f2pxqQA88/mIAKAaEwAH/MJ&#xA;Fk5/3uX+p+gNeL+4wf8ADP8AfFE6V5e0G6/Jr63cWUBuo7G5nS64KsoljMhQ+oBy6gDr7YYYYHTW&#xA;QLooyajJHW0Ca4gK6dEJe+Z7i1/JnTIZJSb3UlezjJO/oRyurHft6ShPpyrJqCNKB1lt8P7G/FpR&#xA;LXyIHpjv8a/Xuu/LnU9K0fzjLo2n3ou9M1GCP05RyA+sxJVvtBacjz7eGR0OSOPNwRNxkPt/Fsu1&#xA;MM8unGSUeGcCfkT/AGfamnkTTNOvvNHnNb21hulW+IUTIslOU09acgaVplmixxlly8QB9X6ZNPaW&#xA;acMGDhJj6Oh8oor8swLbWvM2m2xJ061uv9HXeiHnItBX/JQCvtkuzfTPJEfSD+tj2z6sWGcvrlHf&#xA;7Px8VTzFb29x+aOgw3ESTQtazco5FDKaJMRUGo6jDqIg6uAO44T+lGkmY6DKQaPEP96hLyztdJ/N&#xA;jSY9LjW2W9tn+twRAKjCkm5UdPsA/RXIzgMerjwbcQ3+1nDJLLoJnIb4ZbE/D9bDLj/yV99/23T/&#xA;AMmFzB/5DH/hn6HZj/HY/wDCv0sn/NXR9J0/ytp+qWNtFZalBcQejcQIsbn4GbqoFaFeQzP7QxRj&#xA;jEgKlYdX2TmnPNKEiZRIOx3UPzS1uxvdT0Dy/qVx9VsWKXusPv8ACCKKvwgmtOf3jHXZRKUYSNDm&#xA;V7LwSjCeSIuXKP4+Sj+XXmZ4PJ3mbR7W49a50WG6uNMnWvxxFHKsinfaQcv9lg0easc4g/TdL2jp&#xA;rzY5kbTIB/Hu+5Gflt5S8oX/AOXAu9TtIJZbtbk395KFMkYSR1BWRgTHxQBqj55bo8GOWGyOd20d&#xA;oanLHUVEnaqDIrXy75MXyVJHpaW+pWFtbXH1S5kKXRUsGdgrkHj8RrQdDmTHFj8P07ive4cs2Xxf&#xA;VcZEi+jHPyt0vTD+VhvzaQm+EV8Bd+mnrDeRf7ynL7O3XplOkgPBut93I185fmKs16Xn6sLjyJ5B&#xA;0m6JXSL/AFecaga8RxW5VBWn+RK+Yw3xwB5GTmnbLkkPqERXyeta/wCRvyxtr/RZ7yO20a5tpwNN&#xA;MDJZmWVSGVWZeJchgCN61+ebCeHGCL2dRj1GYiQFy7+rz785NZ0LXfzAsvLWraiLDRdKtpZLu4ox&#xA;pdzRExiiBieP7v72zH1MhKfCTQDmaOEoYjMC5H7mWf8AOPvmn9L+Sv0ZNJzvNEk+rnepMD1aFvkP&#xA;iQf6uX6TJcK7nF7QxcOS+knp+ZTguxV2KuxV2KuxVierfl3p2r+drHzPqNw1wunwmG20x0RoAWDV&#xA;dq1qavX6B4ZTLCDISPRyIagxgYjr1WeYfy00fVNY0fWLN/0VfaPL6sb2saASDkrcJBQVHw/cTgng&#xA;BII2ITj1UoxMTuJJVr/5OWt5rtzrWiazeeX7u+qb9bQnhKW+0aK0ZBY7ncivbIT0oMriTG27FriI&#xA;iMoiQHK2SeSfJOkeUNIOn6dzkMjmW5uZSDJI5FKmgAAA2AH66nLcOEYxQcfUaiWWVlryl5NtvLc2&#xA;qywXD3B1W6a7kDgDgzEnitO2+DFhEL8ynPqDkEbH0ilvlPyVa+XLzV7mC5edtXuPrMiuAAh5O1Fp&#xA;1+3gw4BAk39TLUao5REEVwikD5U/LHRvLevXusWkryPdB1ihcLxhSR+ZVCN+wHyyvDpI45GQ6tup&#xA;7QnlgIHp9qJuPIVpPrOvaobqQSa9ZGxmjCrSNTEsXJT3NErvhlpQZSlf1CkR1xEIRr6JX9tpHB+T&#xA;0S2qWFx5g1GbS0p/oAk4xUB5U41ZRv7Zjjs4VRlLh7nLPbBviEIcff1T668haXcatpN4zkWWjxel&#xA;aaZxBh6H4jWpJ+z92Xy0cTKJ6R5BxYdoTjCcf4pneXVfr3kfTdUnsLmAjT7rT5fWhmgjQEkEGjDa&#xA;u6jHPo4zII9JieidN2hPGJA+qMhW6WSflm36Sv7601y9sW1CZ5547dvTBLuzUPEivHmaVzHPZ3qM&#xA;hOUeI9HKj2x6IxljhLgFC92Q+W/LWm+X7E2lkGbm3qTTSENI7kUqxAH3Zl6fTRwxqLgazWT1EuKX&#xA;wHQJf5k8lLrWqW+pJqM9hc20Zije3+FgCWqQwIIqGIynU6LxZifEYkDo5Gj7S8HGYGMZxkb3XeXv&#xA;JFjpF/JqUt1PqOpyLwN3dNzYLtsv3dSclp9FHHLiJMpd5Y6vtKWaIgAIQHQJa/5YWD+XJtD+uyiK&#xA;a9N8ZuK8gxQJxp0ptlX8nR8Mwv8Aitu/leXjDJwixHhatPyvtfrltcatq19q6WjCS3trqQtEGHSq&#xA;ty226YY6AWDKUpV3on2seEiEIw4uZA3TKy8j6dF5k1HXrt/r1zfgII5kUpEgpRVBr2VRX2y6OliJ&#xA;mZ3JcaeukcUcY9Ij3dVo8iadF5tXzFaSG2LQG3ubFEX0ZlIKnkP+B/4HD+ViMnGNtuS/npHD4Z33&#xA;sHqGOXX5KWZkuIdN1u907SbtuVxpkbco2B/Z+0AR4cgcoPZ43qRET0cqPax2MoxlIdWaad5b07Tf&#xA;Ly6DYqYrNYXhUndv3gPJye7EsSczI4hGPCOTrp55Tnxy52g/Lfk620LyqfLsVw80JWZfXcAN+/LE&#xA;7DbblkcWEQhws8+pOTJxkJSn5TaA/kiLyndyy3FvBI81veDik0cjszcl2I25Ee4yA0seDgLYddPx&#xA;fECXaL+S1pbazZ6lrWt3uujTSG0+2uifTjKmq15NJUKQDQUG30ZGGkAIJJlTPJryYkRiI3zpOvLf&#xA;5a6PpGpavqd241W91if15pLqNCE3ZuMYNaCr/q8MshgESSd7aMuqlIADYRb0X8u9P0XznqPmXTrh&#xA;4I9TiEdxpaoogBAX41puDyUn6ThjhEZGQ6onqDKAienVluXOO7FXYq7FXYq7FXYq7FXYq7FXYq7F&#xA;XYq7FXYq7FXYq7FXYq7FXYq7FXYq7FXYq7FXYq7FXYq7FXYq7FXYq7FXYq7FXYq7FXYq7FXYq7FX&#xA;Yq7FXYq7FXYq7FXYq7FXYq7FXYq7FXYq7FXYq7FXYq7FXYq7FXYq7FXYq7FXYq//2Q==</xmpGImg:image>
               </rdf:li>
            </rdf:Alt>
         </xmp:Thumbnails>
         <xmpMM:InstanceID>xmp.iid:c6b6ddc2-64f2-9541-9fdc-c3c9fe699522</xmpMM:InstanceID>
         <xmpMM:DocumentID>xmp.did:c6b6ddc2-64f2-9541-9fdc-c3c9fe699522</xmpMM:DocumentID>
         <xmpMM:OriginalDocumentID>uuid:5D20892493BFDB11914A8590D31508C8</xmpMM:OriginalDocumentID>
         <xmpMM:RenditionClass>proof:pdf</xmpMM:RenditionClass>
         <xmpMM:DerivedFrom rdf:parseType="Resource">
            <stRef:instanceID>xmp.iid:9abfa668-2609-c146-aeb5-945099e7e6e3</stRef:instanceID>
            <stRef:documentID>xmp.did:9abfa668-2609-c146-aeb5-945099e7e6e3</stRef:documentID>
            <stRef:originalDocumentID>uuid:5D20892493BFDB11914A8590D31508C8</stRef:originalDocumentID>
            <stRef:renditionClass>proof:pdf</stRef:renditionClass>
         </xmpMM:DerivedFrom>
         <xmpMM:History>
            <rdf:Seq>
               <rdf:li rdf:parseType="Resource">
                  <stEvt:action>saved</stEvt:action>
                  <stEvt:instanceID>xmp.iid:9abfa668-2609-c146-aeb5-945099e7e6e3</stEvt:instanceID>
                  <stEvt:when>2017-04-11T01:59:07-05:00</stEvt:when>
                  <stEvt:softwareAgent>Adobe Illustrator CC (Windows)</stEvt:softwareAgent>
                  <stEvt:changed>/</stEvt:changed>
               </rdf:li>
               <rdf:li rdf:parseType="Resource">
                  <stEvt:action>saved</stEvt:action>
                  <stEvt:instanceID>xmp.iid:c6b6ddc2-64f2-9541-9fdc-c3c9fe699522</stEvt:instanceID>
                  <stEvt:when>2017-08-15T21:13:58-05:00</stEvt:when>
                  <stEvt:softwareAgent>Adobe Illustrator CC (Windows)</stEvt:softwareAgent>
                  <stEvt:changed>/</stEvt:changed>
               </rdf:li>
            </rdf:Seq>
         </xmpMM:History>
         <illustrator:StartupProfile>Print</illustrator:StartupProfile>
         <xmpTPg:HasVisibleOverprint>False</xmpTPg:HasVisibleOverprint>
         <xmpTPg:HasVisibleTransparency>True</xmpTPg:HasVisibleTransparency>
         <xmpTPg:NPages>1</xmpTPg:NPages>
         <xmpTPg:MaxPageSize rdf:parseType="Resource">
            <stDim:w>155.705994</stDim:w>
            <stDim:h>74.254028</stDim:h>
            <stDim:unit>Pixels</stDim:unit>
         </xmpTPg:MaxPageSize>
         <xmpTPg:PlateNames>
            <rdf:Seq>
               <rdf:li>Cyan</rdf:li>
               <rdf:li>Magenta</rdf:li>
               <rdf:li>Yellow</rdf:li>
               <rdf:li>Black</rdf:li>
            </rdf:Seq>
         </xmpTPg:PlateNames>
         <xmpTPg:SwatchGroups>
            <rdf:Seq>
               <rdf:li rdf:parseType="Resource">
                  <xmpG:groupName>Grupo de muestras por defecto</xmpG:groupName>
                  <xmpG:groupType>0</xmpG:groupType>
               </rdf:li>
            </rdf:Seq>
         </xmpTPg:SwatchGroups>
         <pdf:Producer>Adobe PDF library 10.01</pdf:Producer>
      </rdf:Description>
   </rdf:RDF>
</x:xmpmeta>
                                                                                                    
                                                                                                    
                                                                                                    
                                                                                                    
                                                                                                    
                                                                                                    
                                                                                                    
                                                                                                    
                                                                                                    
                                                                                                    
                                                                                                    
                                                                                                    
                                                                                                    
                                                                                                    
                                                                                                    
                                                                                                    
                                                                                                    
                                                                                                    
                                                                                                    
                                                                                                    
                           
<?xpacket end="w"?>
	</metadata>
<g>
	<rect id="XMLID_248_" x="0.541" y="0" class="st0" width="154.914" height="74.254"/>
	<linearGradient id="XMLID_2_" gradientUnits="userSpaceOnUse" x1="0.541" y1="24.077" x2="155.706" y2="24.077">
		<stop  offset="0" style="stop-color:#783214"/>
		<stop  offset="0.5" style="stop-color:#F16529"/>
		<stop  offset="1" style="stop-color:#783214"/>
	</linearGradient>
	<rect id="XMLID_257_" x="0.541" y="0" class="st1" width="155.165" height="48.154"/>
	<rect id="XMLID_320_" y="57.455" class="st2" width="155.706" height="13.102"/>
	<linearGradient id="SVGID_1_" gradientUnits="userSpaceOnUse" x1="16.133" y1="60.433" x2="139.529" y2="60.433">
		<stop  offset="0" style="stop-color:#783214"/>
		<stop  offset="0.5" style="stop-color:#F16529"/>
		<stop  offset="1" style="stop-color:#783214"/>
	</linearGradient>
	<path class="st3" d="M24.034,65.331h-1.729l-0.688-1.789H18.47l-0.65,1.789h-1.687l3.067-7.874h1.681L24.034,65.331z
		 M21.107,62.216l-1.085-2.922l-1.063,2.922H21.107z M29.916,62.437l1.542,0.488c-0.236,0.859-0.629,1.498-1.179,1.915
		c-0.55,0.417-1.247,0.626-2.092,0.626c-1.045,0-1.905-0.357-2.578-1.072c-0.673-0.714-1.01-1.69-1.01-2.93
		c0-1.311,0.338-2.328,1.015-3.054c0.677-0.725,1.566-1.087,2.669-1.087c0.963,0,1.746,0.284,2.347,0.854
		c0.358,0.337,0.626,0.82,0.806,1.45l-1.574,0.376c-0.093-0.408-0.288-0.73-0.583-0.967c-0.296-0.236-0.655-0.354-1.077-0.354
		c-0.583,0-1.057,0.21-1.421,0.628c-0.363,0.42-0.545,1.098-0.545,2.036c0,0.995,0.179,1.704,0.537,2.127s0.824,0.634,1.396,0.634
		c0.422,0,0.786-0.135,1.09-0.402C29.564,63.435,29.783,63.013,29.916,62.437z M34.594,65.331v-6.542h-2.336v-1.332h6.257v1.332
		h-2.331v6.542H34.594z M39.492,65.331v-7.874h1.59v7.874H39.492z M44.605,65.331l-2.814-7.874h1.724l1.993,5.827l1.928-5.827h1.687
		l-2.82,7.874H44.605z M49.885,65.331v-7.874h1.59v7.874H49.885z M52.984,57.457h2.906c0.655,0,1.155,0.05,1.499,0.15
		c0.462,0.136,0.857,0.378,1.187,0.726c0.33,0.347,0.58,0.772,0.752,1.275s0.258,1.123,0.258,1.861c0,0.647-0.081,1.206-0.242,1.676
		c-0.197,0.572-0.478,1.036-0.843,1.391c-0.276,0.269-0.648,0.479-1.117,0.629c-0.351,0.11-0.82,0.166-1.407,0.166h-2.992
		L52.984,57.457L52.984,57.457z M54.574,58.789v5.216h1.187c0.444,0,0.765-0.025,0.961-0.076c0.258-0.064,0.472-0.173,0.642-0.327
		s0.309-0.407,0.417-0.76s0.161-0.834,0.161-1.442s-0.054-1.076-0.161-1.402c-0.107-0.325-0.258-0.58-0.451-0.762
		c-0.193-0.184-0.438-0.307-0.736-0.371c-0.222-0.05-0.657-0.075-1.305-0.075h-0.715V58.789z M68.034,65.331h-1.729l-0.688-1.789
		H62.47l-0.65,1.789h-1.687l3.067-7.874h1.681L68.034,65.331z M65.107,62.216l-1.085-2.922l-1.063,2.922H65.107z M68.872,57.457
		h2.906c0.655,0,1.155,0.05,1.499,0.15c0.462,0.136,0.857,0.378,1.187,0.726c0.33,0.347,0.58,0.772,0.752,1.275
		s0.258,1.123,0.258,1.861c0,0.647-0.081,1.206-0.242,1.676c-0.197,0.572-0.478,1.036-0.843,1.391
		c-0.276,0.269-0.648,0.479-1.117,0.629c-0.351,0.11-0.82,0.166-1.407,0.166h-2.992v-7.874H68.872z M70.462,58.789v5.216h1.187
		c0.444,0,0.765-0.025,0.961-0.076c0.258-0.064,0.472-0.173,0.642-0.327s0.309-0.407,0.417-0.76s0.161-0.834,0.161-1.442
		s-0.054-1.076-0.161-1.402c-0.107-0.325-0.258-0.58-0.451-0.762c-0.193-0.184-0.438-0.307-0.736-0.371
		c-0.222-0.05-0.657-0.075-1.305-0.075h-0.715V58.789z M79.872,57.457h2.906c0.655,0,1.154,0.05,1.498,0.15
		c0.462,0.136,0.857,0.378,1.188,0.726c0.329,0.347,0.58,0.772,0.752,1.275s0.258,1.123,0.258,1.861
		c0,0.647-0.081,1.206-0.242,1.676c-0.196,0.572-0.478,1.036-0.843,1.391c-0.276,0.269-0.648,0.479-1.117,0.629
		c-0.352,0.11-0.82,0.166-1.407,0.166h-2.992v-7.874H79.872z M81.461,58.789v5.216h1.188c0.443,0,0.765-0.025,0.961-0.076
		c0.258-0.064,0.472-0.173,0.642-0.327c0.171-0.154,0.31-0.407,0.417-0.76s0.161-0.834,0.161-1.442s-0.054-1.076-0.161-1.402
		c-0.107-0.325-0.258-0.58-0.451-0.762c-0.193-0.184-0.438-0.307-0.736-0.371c-0.222-0.05-0.657-0.075-1.305-0.075h-0.716V58.789z
		 M87.773,65.331v-7.874h1.59v7.874H87.773z M90.872,57.457h2.906c0.655,0,1.154,0.05,1.498,0.15
		c0.462,0.136,0.857,0.378,1.188,0.726c0.329,0.347,0.58,0.772,0.752,1.275s0.258,1.123,0.258,1.861
		c0,0.647-0.081,1.206-0.242,1.676c-0.196,0.572-0.478,1.036-0.843,1.391c-0.276,0.269-0.648,0.479-1.117,0.629
		c-0.352,0.11-0.82,0.166-1.407,0.166h-2.992v-7.874H90.872z M92.461,58.789v5.216h1.188c0.443,0,0.765-0.025,0.961-0.076
		c0.258-0.064,0.472-0.173,0.642-0.327c0.171-0.154,0.31-0.407,0.417-0.76s0.161-0.834,0.161-1.442s-0.054-1.076-0.161-1.402
		c-0.107-0.325-0.258-0.58-0.451-0.762c-0.193-0.184-0.438-0.307-0.736-0.371c-0.222-0.05-0.657-0.075-1.305-0.075h-0.716V58.789z
		 M105.921,65.331h-1.729l-0.688-1.789h-3.147l-0.649,1.789h-1.687l3.066-7.874h1.682L105.921,65.331z M102.995,62.216l-1.085-2.922
		l-1.063,2.922H102.995z M100.997,57.006l0.741-1.606h1.691l-1.477,1.606H100.997z M111.803,62.437l1.541,0.488
		c-0.236,0.859-0.629,1.498-1.179,1.915s-1.247,0.626-2.092,0.626c-1.046,0-1.905-0.357-2.578-1.072
		c-0.674-0.714-1.01-1.69-1.01-2.93c0-1.311,0.338-2.328,1.015-3.054c0.677-0.725,1.566-1.087,2.67-1.087
		c0.963,0,1.745,0.284,2.347,0.854c0.358,0.337,0.627,0.82,0.806,1.45l-1.573,0.376c-0.094-0.408-0.288-0.73-0.583-0.967
		c-0.296-0.236-0.654-0.354-1.077-0.354c-0.583,0-1.057,0.21-1.421,0.628c-0.363,0.42-0.545,1.098-0.545,2.036
		c0,0.995,0.18,1.704,0.537,2.127c0.358,0.423,0.824,0.634,1.396,0.634c0.423,0,0.786-0.135,1.091-0.402
		C111.452,63.435,111.67,63.013,111.803,62.437z M116.481,65.331v-6.542h-2.336v-1.332h6.257v1.332h-2.331v6.542H116.481z
		 M121.379,65.331v-7.874h1.59v7.874H121.379z M129.522,62.437l1.542,0.488c-0.236,0.859-0.63,1.498-1.179,1.915
		c-0.55,0.417-1.247,0.626-2.093,0.626c-1.045,0-1.904-0.357-2.578-1.072c-0.673-0.714-1.01-1.69-1.01-2.93
		c0-1.311,0.339-2.328,1.016-3.054c0.677-0.725,1.566-1.087,2.669-1.087c0.964,0,1.746,0.284,2.348,0.854
		c0.357,0.337,0.626,0.82,0.806,1.45l-1.574,0.376c-0.093-0.408-0.287-0.73-0.582-0.967c-0.296-0.236-0.655-0.354-1.077-0.354
		c-0.584,0-1.058,0.21-1.421,0.628c-0.363,0.42-0.545,1.098-0.545,2.036c0,0.995,0.179,1.704,0.537,2.127
		c0.357,0.423,0.823,0.634,1.396,0.634c0.422,0,0.786-0.135,1.09-0.402C129.171,63.435,129.39,63.013,129.522,62.437z
		 M139.529,65.331H137.8l-0.688-1.789h-3.147l-0.65,1.789h-1.687l3.067-7.874h1.681L139.529,65.331z M136.601,62.216l-1.085-2.922
		l-1.063,2.922H136.601z"/>
	<path id="XMLID_284_" class="st4" d="M90.634,18.201v16.996c0,2.098-1.752,3.85-4.033,3.85H66.636c-2.28,0-4.027-1.752-4.027-3.85
		V15.049c0-2.275,1.747-4.028,4.027-4.028h16.991l-4.029,4.028H66.636v20.149H86.6V22.234L90.634,18.201z M87.654,9.796
		l-1.398,1.574l4.206,4.207l1.401-1.403L87.654,9.796z M90.461,6.994l-1.4,1.398l4.199,4.381l1.41-1.404L90.461,6.994z
		 M72.07,25.383l4.199,4.383l12.792-12.787l-4.208-4.205L72.07,25.383z M70.665,31.163h4.031l-4.031-4.028V31.163z"/>
</g>
</svg>
