<?xml version="1.0" encoding="utf-8"?>
<!-- Generator: Adobe Illustrator 17.0.0, SVG Export Plug-In . SVG Version: 6.00 Build 0)  -->
<!DOCTYPE svg PUBLIC "-//W3C//DTD SVG 1.1//EN" "http://www.w3.org/Graphics/SVG/1.1/DTD/svg11.dtd" [
	<!ENTITY ns_extend "http://ns.adobe.com/Extensibility/1.0/">
	<!ENTITY ns_ai "http://ns.adobe.com/AdobeIllustrator/10.0/">
	<!ENTITY ns_graphs "http://ns.adobe.com/Graphs/1.0/">
	<!ENTITY ns_vars "http://ns.adobe.com/Variables/1.0/">
	<!ENTITY ns_imrep "http://ns.adobe.com/ImageReplacement/1.0/">
	<!ENTITY ns_sfw "http://ns.adobe.com/SaveForWeb/1.0/">
	<!ENTITY ns_custom "http://ns.adobe.com/GenericCustomNamespace/1.0/">
	<!ENTITY ns_adobe_xpath "http://ns.adobe.com/XPath/1.0/">
]>
<svg version="1.1" id="Capa_1" xmlns:x="&ns_extend;" xmlns:i="&ns_ai;" xmlns:graph="&ns_graphs;"
	 xmlns="http://www.w3.org/2000/svg" xmlns:xlink="http://www.w3.org/1999/xlink" x="0px" y="0px" width="154.914px"
	 height="74.254px" viewBox="0 0 154.914 74.254" style="enable-background:new 0 0 154.914 74.254;" xml:space="preserve">
<style type="text/css">
	.st0{opacity:0.5;fill:#FFFFFF;enable-background:new    ;}
	.st1{fill:url(#XMLID_2_);}
	.st2{fill:none;}
	.st3{fill:url(#SVGID_1_);}
	.st4{fill:#FFFFFF;}
</style>
<metadata><?xpacket begin="﻿" id="W5M0MpCehiHzreSzNTczkc9d"?>
<x:xmpmeta xmlns:x="adobe:ns:meta/" x:xmptk="Adobe XMP Core 5.5-c014 79.151739, 2013/04/03-12:12:15        ">
   <rdf:RDF xmlns:rdf="http://www.w3.org/1999/02/22-rdf-syntax-ns#">
      <rdf:Description rdf:about=""
            xmlns:dc="http://purl.org/dc/elements/1.1/"
            xmlns:xmp="http://ns.adobe.com/xap/1.0/"
            xmlns:xmpGImg="http://ns.adobe.com/xap/1.0/g/img/"
            xmlns:xmpMM="http://ns.adobe.com/xap/1.0/mm/"
            xmlns:stRef="http://ns.adobe.com/xap/1.0/sType/ResourceRef#"
            xmlns:stEvt="http://ns.adobe.com/xap/1.0/sType/ResourceEvent#"
            xmlns:illustrator="http://ns.adobe.com/illustrator/1.0/"
            xmlns:xmpTPg="http://ns.adobe.com/xap/1.0/t/pg/"
            xmlns:stDim="http://ns.adobe.com/xap/1.0/sType/Dimensions#"
            xmlns:xmpG="http://ns.adobe.com/xap/1.0/g/"
            xmlns:pdf="http://ns.adobe.com/pdf/1.3/">
         <dc:format>image/svg+xml</dc:format>
         <dc:title>
            <rdf:Alt>
               <rdf:li xml:lang="x-default">Imprimir</rdf:li>
            </rdf:Alt>
         </dc:title>
         <xmp:MetadataDate>2017-08-15T21:15:46-05:00</xmp:MetadataDate>
         <xmp:ModifyDate>2017-08-15T21:15:46-05:00</xmp:ModifyDate>
         <xmp:CreateDate>2017-08-15T21:15:46-05:00</xmp:CreateDate>
         <xmp:CreatorTool>Adobe Illustrator CC (Windows)</xmp:CreatorTool>
         <xmp:Thumbnails>
            <rdf:Alt>
               <rdf:li rdf:parseType="Resource">
                  <xmpGImg:width>256</xmpGImg:width>
                  <xmpGImg:height>124</xmpGImg:height>
                  <xmpGImg:format>JPEG</xmpGImg:format>
                  <xmpGImg:image>/9j/4AAQSkZJRgABAgEASABIAAD/7QAsUGhvdG9zaG9wIDMuMAA4QklNA+0AAAAAABAASAAAAAEA&#xA;AQBIAAAAAQAB/+4ADkFkb2JlAGTAAAAAAf/bAIQABgQEBAUEBgUFBgkGBQYJCwgGBggLDAoKCwoK&#xA;DBAMDAwMDAwQDA4PEA8ODBMTFBQTExwbGxscHx8fHx8fHx8fHwEHBwcNDA0YEBAYGhURFRofHx8f&#xA;Hx8fHx8fHx8fHx8fHx8fHx8fHx8fHx8fHx8fHx8fHx8fHx8fHx8fHx8fHx8f/8AAEQgAfAEAAwER&#xA;AAIRAQMRAf/EAaIAAAAHAQEBAQEAAAAAAAAAAAQFAwIGAQAHCAkKCwEAAgIDAQEBAQEAAAAAAAAA&#xA;AQACAwQFBgcICQoLEAACAQMDAgQCBgcDBAIGAnMBAgMRBAAFIRIxQVEGE2EicYEUMpGhBxWxQiPB&#xA;UtHhMxZi8CRygvElQzRTkqKyY3PCNUQnk6OzNhdUZHTD0uIIJoMJChgZhJRFRqS0VtNVKBry4/PE&#xA;1OT0ZXWFlaW1xdXl9WZ2hpamtsbW5vY3R1dnd4eXp7fH1+f3OEhYaHiImKi4yNjo+Ck5SVlpeYmZ&#xA;qbnJ2en5KjpKWmp6ipqqusra6voRAAICAQIDBQUEBQYECAMDbQEAAhEDBCESMUEFURNhIgZxgZEy&#xA;obHwFMHR4SNCFVJicvEzJDRDghaSUyWiY7LCB3PSNeJEgxdUkwgJChgZJjZFGidkdFU38qOzwygp&#xA;0+PzhJSktMTU5PRldYWVpbXF1eX1RlZmdoaWprbG1ub2R1dnd4eXp7fH1+f3OEhYaHiImKi4yNjo&#xA;+DlJWWl5iZmpucnZ6fkqOkpaanqKmqq6ytrq+v/aAAwDAQACEQMRAD8A5imc+XrArLgLMKqZEsgr&#xA;LkWYVkyJZhWTIlmFVMiWQVkyJZhWXIsgqpkSzCsuRZhWTIlkFZMiWYVVwMwrJkSyCsuRZhzYqVJ8&#xA;IYlRfJBgVF8kGJUmyQYFRbJBgVF8kGBUWyTEqT5IMCotkgwKi2SDEqL5IMCpNhYFRfJBiVFskGBU&#xA;nyQYFpMSoVlwFmFVMiWQVlyLMKyZEswrJkSzCqmRLIKyZEswrLkWQVUyJZhWXIswrJkSyCsmRLMK&#xA;q4GYVkyJZB6j5c8leTT5TtNZ1qaSM3Fechk4IDzZVUAD/JzdafRYPBE8h5vN6vtLU/mJYsQBry8l&#xA;Y6D+UHfUf+Szf0yXgaL+d9rD812l/M+xDeZPJHkweUbzWtEmklNvT05BJzQnmqspBH+Vg1GiweCZ&#xA;4zyTpO0tT+YjiygC/LyeWPmlD0hUXyQYlSbJBgVFskGBUXyQYFRbJMSpPkgwKi2SDAqLZIMSovkg&#xA;wKk2FgVF8kGJUWyQYFSfJBgWkxKhWXAWYVUyJZBWXIswrJkSzCsmRLMKqZEsgrJkSzCsuRZBVTIl&#xA;mFZcizCsmRLIKyZEswqrgZhWTIlkHqWp/wDkm9P/ANdf+Tz5us3+JR/HUvN6f/jTl7v0B5m2aN6c&#xA;vSdM/wDJMah/rt/yeTN7h/xKX46vL6j/AI0o+79BeVvmlD0ZUXyQYlSbJBgVFskGBUXyQYFRbJMS&#xA;pPkgwKi2SDAqLZIMSovkgwKk2FgVF8kGJUWyQYFSfJBgWkxKhWXAWYVUyJZBWXIswrJkSzCsmRLM&#xA;KqZEsgrJkSzCsuRZBVTIlmFZcizCsmRLIKyZEswqrgZhWTIlkHsOiw6DrP5d2Gk3eqQ2jLVpB6kY&#xA;dSsrGhViPHOgwxx5dNGEpAf2vJaiWbDrZZIwMvge4Ic/lL5cNr9c/TbfVP8Alo/den14/brx+1tk&#xA;P5JxVxce3fs2/wAv5+Lh8P1d29q2tw6Bov5c6hpFnqkN2zUaMepGXYtKpoFUnwyzNHHi00oRkD/a&#xA;06eWbNrI5JQMfge4vG3znw9YVF8kGJUmyQYFRbJBgVF8kGBUWyTEqT5IMCotkgwKi2SDEqL5IMCp&#xA;NhYFRfJBiVFskGBUnyQYFpMSoVlwFmFVMiWQVlyLMKyZEswrJkSzCqmRLIKyZEswrLkWQVUyJZhW&#xA;XIswrJkSyCM0+1e8vbe0jIV7iRIlY9AXYKCfvwxjxSA71nMRiZHoLeoL+Rl2P+lvH/yIP/Nebb+R&#xA;j/O+x0H+iOP8w/P9ioPyPuh/0t0/5En/AJrwfyKf532J/wBEkf5h+f7F4/JO6H/S2T/kSf8AmvB/&#xA;Ih/nfYy/0Sx/mH5/sZWfJMp8if4X+tr6n/LVwNP96PX+xX6OubD8kfy/hX8fjbqP5TH5v8xw/C/6&#xA;PCxE/khdH/pbJ/yJP/NeYH8in+d9jtf9Ekf5h+f7Fh/Iy6P/AEt4/wDkQf8AmvD/ACMf532I/wBE&#xA;cf5n2/sWN+RF2f8ApcR/8iG/5rw/yOf532I/0RR/mfb+x5ZqFo9ne3FpIQz28rxOw6EoxUkfdmpl&#xA;HhJHc76E+KIkOotBtiFKi+SDAqLZJiVJ8kGBUWyQYFRbJBiVF8kGBUmwsCovkgxKi2SDAqT5IMC0&#xA;mJUKy4CzCqmRLIKy5FmFZMiWYVkyJZhVTIlkFZMiWYVlyLIKqZEswrLkWYR+k6fcalqNtp9vT17q&#xA;RIoyxooLmlSfDDCBnIRHVjkyDHAyPIC3p+k/kvr1lqdndyX1qyW88crKvqVIRwxAqvtm1x9lTjIG&#xA;xsXR5e3cUoGPDLcEdGSfmD+X2p+ZtTtru0uYYUhh9Jll51J5s1RxU+OZOu0Ms0gQQKDhdl9qQ08D&#xA;GQJs3s8x81eUb/yzdw295LFMZ0MiPEWpQGhB5Bc0Wr0ksJAPV6jQa+GpiTEEV3p5oX5W61q2l2+o&#xA;x3NvDFcAsiOX5cakAmikb0zIw9lZMkBIEC3E1PbuLDkMCJEj3M/Pku/P5e/4Z9eL63/v74vT/wB6&#xA;fX8OX2dumbf8lL8t4Vi/+PW8/wDylD8549Hh7uv08LzzzB+Vus6PpNxqc11byxW4BdEL8qMwXaqg&#xA;d81OfsyeOBkSNnf6btvHmyCAEgT7ki8qeT9Q8z3c9vZyxQmBPUkeUtShNABxDZRpdLLMSB0crXa6&#xA;GniDIE33PUfy8/LzU/LGqXN3d3MEyTwekqxc6g81ap5KP5c3mh0MsMiSQdnmO1O1IaiAjEEUb3Y1&#xA;q/5Ka/e6peXcd9aqlzPJKqt6lQHcsAaL75jZOy5ykTY3Lm4u3McYCPDLYAdHl+radcabqN1p9xT1&#xA;7SV4ZCpqpZDQkHwzVzgYyMT0d3iyCcRIciLS98ASVFskxKk+SDAqLZIMCotkgxKi+SDAqTYWBUXy&#xA;QYlRbJBgVJ8kGBaTEqFZcBZhVTIlkFZcizCsmRLMKyZEswqpkSyCsmRLMKy5FkFVMiWYVlyLMMi8&#xA;h/8AKY6N/wAxcX/Ehl+k/vY+8ONr/wC4n/VLL/ziv76DzciQXMsSfVIzxR2UV5PvQHMrtSchl2PR&#xA;wOwscZYLIB9R/QxTSNV1RtUsw15OQZ4wQZHoRzHvmvx5ZcQ3PN22bDDgl6RyPRnf52f8dXTP+MD/&#xA;APE82PbX1x9zqPZv6J+9MNWnmh/KLTXhkaN6QjkhKmnI9xlmaRGjjXk06aIl2jMEXzeatquqf8tk&#xA;/wDyMf8Armj8Wfefm9OcGP8Amj5PQrGeab8m9ReaRpH5sOTksaesnc5u8cidFK/xu81miI9pRAFf&#xA;2FCfkf8A8dbU/wDjAn/E8j2N9Uvcz9o/oh73n17q+qi6mAvZwA7UHqv4n3zWyyys7l3EcMOEekfJ&#xA;mP5Nahfz+b3Se5llT6pKeLuzCvJN6E5sey5yOXc9HUduY4jBsAPUP0sP8+/8plrX/MZN/wASOYuq&#xA;/vZe9ztB/cQ/qhjj5SHIKi2SYlSfJBgVFskGBUWyQYlRfJBgVJsLAqL5IMSotkgwKk+SDAtJiVCs&#xA;uAswqpkSyCsuRZhWTIlmFZMiWYVUyJZBWTIlmFZciyCqmRLMKy5FmGReQ/8AlMdG/wCYuL/iQy/S&#xA;f3sfeHG1/wDcT/ql6Z+ZH5feYtf8xLfaekTW4t0iJeQKeSsxO3+yzZ6/RZMuTijyp0nZXaeLBi4Z&#xA;3dpBp35S+cIL+2mkjg4RSo7UlBNFYE9sxIdl5hIHbn3uwydt6cxIBO47ky/Oz/jq6Z/xgf8A4nk+&#xA;2vrj7mr2b+ifvTz9CX2tfldptjYhWnKxuA7cRRWNd8yTgll0kYx57OGNVDBr5zny3Yk35TecD/uu&#xA;D/kaP6Zrf5JzeXzdx/L+m7z8mTXOh3+iflRqVjfBVuFJchG5CjSpTfNicEsWklGXP9rqI6qGfXxn&#xA;Dl+wpP8Akf8A8dbU/wDjAn/E8o7G+qXucr2j+iHvSm6/J/znJPK6xwcWdmH70dCa+GVnsvNfT5t0&#xA;e29OABZ+TJPy1/LzzH5f8xtf6ikS25t3iBSQMeTMpG3+xzM0GiyYsnFLlTre1O0sWbFwwu7eY+ff&#xA;+Uy1r/mMm/4kc1mq/vZe93eg/uIf1Qxx8pDkFRbJMSpPkgwKi2SDAqLZIMSovkgwKk2FgVF8kGJU&#xA;WyQYFSfJBgWkxKhWXAWYVUyJZBWXIswrJkSzCsmRLMKqZEsgrJkSzCsuRZBVTIlmFZcizCIt5ZYZ&#xA;UlicxyxsHjdSQyspqCCOhBwXRsJIBFHkyVPzC860A/S9x94/pmR+dzfzi4v8maf+YFVfzA85/wDV&#xA;2n+8f0yP57N/OLIdmaf+YEBqOr6nqk6z6jcyXUyrxVpDWijeg8Mx8uWUzcjbmYMEMQqAEQj9O81+&#xA;Y9PtltbPUJobdK8Ilb4RU1NAa03yUNXlgKjIgMMugwZJcUoglFN5884f9XWf7x/TJ/n8384tf8la&#xA;b+YEDqXmzzJqFs1re6jNNbvQvEzfCaGoqBSu+Rnq8sxUpEhlj0GHHLijEApfp2sappU7T6ddSWsr&#xA;LxZozSq+BHQ5HFllA3E0yz4IZRUwCEwb8wvOo/6W8/3j+mZH57N/OLiHszT/AMwKT/mJ52pT9MXH&#xA;3j+mS/O5v5xYns3T/wAwMZuJZZpXmlcySyMXkkYkszMakknqScou9y5QAAoId8IYlRbJMSpPkgwK&#xA;i2SDAqLZIMSovkgwKk2FgVF8kGJUWyQYFSfJBgVZNPv/APlml/4Bv6YSCgSCsthf/wDLNL/wDf0w&#xA;EFkJBWWwvv8Alml/4Bv6ZEgsxId6qthff8s8v/AN/TI8JZCQ71ZbG+/5Z5f+Ab+mRMSzEh3qq2N7&#xA;/wAs8n/AN/TImJZiQ71ZLG9/5Z5P+Ab+mRMSyEx3qq2V7/yzyf8AAN/TImJZiY71ZbK8/wB8Sf8A&#xA;AN/TBwlkJjvVVs7z/fEn/AN/TImJZiY71ZbO7/3xJ/wLf0yPCe5mJx71VbO7/wB8Sf8AAt/TImJ7&#xA;mQnHvVltLv8A3zJ/wJ/pkTE9zMTj3qy2l1/vmT/gT/TI8J7mQnHvVVtLr/fL/wDAn+mRMT3MxOPe&#xA;FZbW6/3y/wDwJ/pg4D3Mxkj3hzWt1/vl/wDgT/TBwHuU5I94UmtLr/fL/wDAn+mSET3MDOPeFFrS&#xA;6/3zJ/wJ/pkhE9zEzj3qT2l3/vmT/gT/AEyQie5gZx71FrO7/wB8Sf8AAt/TJCJ7mBnHvUms7v8A&#xA;3xJ/wLf0yQie5iZx71FrO8/3xJ/wDf0wiJ7mBmO9RayvP98Sf8A39MlwliZjvUmsrz/fEn/AN/TJ&#xA;CJYGY71FrG9/5Z5P+Ab+mSESwMx3qTWN7/yzyf8AAN/TJcJYmQ71FrG+/wCWeX/gG/pkhEsDId6k&#xA;1hff8s8v/AN/TJcJYmQ71FrC+/5Zpf8AgG/phESwMh3qTWF9/wAs0v8AwDf0yQBYGQUW0+//AOWa&#xA;X/gG/pkgCxMg+7837yjsVdirsVdirsVdirsVdirsVdirsVdirsVdirsVdirsVdirsVdirsVdirsV&#xA;dirsVdirsVdirsVdirsVdirsVdiqE1TVtM0mze91O6js7OMgPPMwRAWNFqT4k4JSAFllGBkaG5UI&#xA;/Mvl+TRjrUeo27aQoJa/EimEBW4H460+1tg441d7J8KXFw1uq6TrWk6xam70u7ivbYMYzNAwdeQA&#xA;JWo774xkJCws4SiaIpbpnmDRNVluItNvoLyS0YLcpC6uY2JIAYA7fZP3YxnGXIrPFKNWKtC6l5y8&#xA;qaZdtZ6hq1ra3SAF4JZVVwGFRUE9xkJZoRNEhnDTZJC4xJCYafqenalbC60+6ivLZiQJoHWRKjqO&#xA;SkioycZCQsG2ucJRNSFFS03XdG1R50069hu2tiFuBC6vwJqAGp0rxOCGSMuRumWTDOFcQItE3d5a&#xA;2dtJdXcqwW8Q5SyueKqPEk5KUgBZ5MYQMjQFlLbPzh5Vvbhbe01a0mnc0jiWZOTHwUV3PyyqOoxy&#xA;NCQtuno8sRZjKvcr6n5g0PS5Ej1G+htHkBaNZnCFgNqiuHJmhD6iAjFpsmTeETL3LNP8z+XtRuBb&#xA;WOo29zOQWEUUis1B1NBghqMcjUZAlOTSZYC5RICYyyxRRtLK6xxoOTuxCqAO5J6ZaSALLRGJJoc0&#xA;vsfMvl+/uDbWWoW88+9IkkUsaCp4j9r6MphqcczUZAlyMuizY48UoyA9ytqWsaVpkayahdxWqNXg&#xA;ZWClqdeIO5+jJ5M0IC5EBhh0+TKahEy9y7TtV0zUojNYXUV1GpozROGofA06fTjjyxmLibRlwTxm&#xA;pgxPm7TtW0zU4mm0+6iuokbg7xMHAalaGnzw48sZi4m1y4Z4zUwYnzQcnm7yxHaxXb6pbLbTMyRT&#xA;GRQrMlOQBr2rkPzOOr4hTYNHmJMeE2PJZbec/Kd1cR21vq1rLcTMEiiSVSzMdgAAcEdTjJoSCy0e&#xA;aIsxIHuUm8++SkYq2t2YZTQgzJsR9OP5rH/OCfyWb+ZL5Ik+a/LQtbe7Op2wtbtzFbTmReEjg0Kq&#xA;1aE1yXjQoGxRa/y2SyOE2EVfaxpdhNawXt1FbzXsgitI5GCmWQkDigPU1YZOUwKs82EccpAkC65q&#xA;D+ZvL6NfK+oQK2mAHUAZF/cA9PU/l+nB4kd9+TLwZ7bH1cvNC2XnryZfXKWtprdlNcynjFCs8fJm&#xA;OwCiu59hkY5oE0CGUtNkiLMSml/qFhp1pJeX9xHaWkQrJPM6xotdhVmIGWGQAstUYmRoblL9G85e&#xA;VNbmaDSdWtb2dQSYYpVMlBsTwryp70yMckZciznhnH6gQnGTanYq7FXYq7FXYq7FXnP/ADkD/wCS&#xA;v1H/AIy23/J9MxtX/dlzNB/eh4/Y6hdx+U7j8subfXL3XLVIa9TaXADg08A6I3+yzCBPD4fm7MxH&#xA;H4vQRPzZf+XHmYeW/wAjNW1RW43K3c8Vnvv68qRohH+qTyPsMtw5ODCS0anF4moEfJJvyy1DT/Kn&#xA;nDQTDqUV5B5hs1h1RI5A/oXMrlo0cDoVPBanxbKdPIQmN/qG7kauBy45bVwnb3J75ou9Jtfzl1eT&#xA;U9Dl1+A2ESpZwwidlfjCRKVPQAArX3yWUgZjY4tv1MMEZHTR4ZcG/Pl3u8tyap5R8s+b/MUlhLo1&#xA;pqLJFomnTlhIsjs4U8Xo37tXBqRuBkcZOKE5Vwg8gzzCObJjhfEY/UUH+W19YeWPNujRw6hFd2+v&#xA;WaRagsbhvRupGLIjAdCrcV+k5XpZDHkjvfEN/e3a6Es2KVijA7eYetfmT/ygus/8w5/WM2Ws/upe&#xA;503Z39/D3sJv/J/lt/ylg1UWUcOoxWMNwLuMcHMnw15Efa5V75gZNPD8vxV6qdri1mUawwu48RFJ&#xA;Xrd5d6jc+Sbm4sxq1zNZ/vLR2C+uQxFGZgRvSvTMfNIyOIkcRrl3uVp4RgMwB4AJc+5nvlC1caoz&#xA;y+T4tB4RMUvUlikJYlR6dERSKgk19s2Glj6t8fB5up1s/RtmOTflR+fNC/mvNLJDo2mF2jtNQvFS&#xA;6ZTT4VKgA/8AB1+jKu1CSIx6Slu39hxAM5/xQjsj73yD5QilsJY/9xctvIPQkhkEbyMPiVSX5cjt&#xA;XxyzJoMIMT9FHo04u1dSRIH1gjexdfL+xJtM0+z8wfmJrb6xGLldOCxWlrLugUHjXidiO/zbMbFj&#xA;jm1M+Pfh5Bzc+WWn0WMYzXHuSPx+KW/UbXQPzW0+20lBBbalbMbu1T7I2kNQOwrGD9+S4Bi1URDY&#xA;SG4+bHxZZ9DKWTcwlsfl+tiH5e6veeWp7bVbg/7gdUmayu37RyxgMjt8g9flyzC0OU4iJH6JGi7L&#xA;tTDHUAwH95AcQ8x+P0Mw/K3Q9H1XyPbrqVnFeLFcTmMTIH4liK0r40zY9n4ozwjiF7l1Ha+eePUH&#xA;gJFgckD+SOhaNdaBNqNzZQzX1vfuILl0BkQLFEy8WO4oSTkOy8UTDiI3Ev1Mu28845BEE8Jjy+JY&#xA;z5Ht5pLC+ZPJUXmQfXZR9dkmijKfCn7qjo52+19OU6UGj+749+bla2QEh+9OP0jaj801/MrR3vfL&#xA;vlLS4tNj0Ka+vzALBSrpC8zcASyBQa15Ggy/VQuEI1w2eTiaHLw5MkjLjqPPvpI3803eq6j5I0nV&#xA;Qya7oesx2t6j/aZVmhVHPifhKt7ivfIeKZGEZfVGX6m78uIRySj9E4WPtRepf72/mx/xih/4kcsl&#xA;zytEeWFXn8i+Vbn8j49Yayhg1WGx+tJfoOEhkRiaMRTlzpx38fHJ+DE4bremv8zManhv03ySya6u&#xA;fOOq/lvouvzO+nXdm1xdRszL60kRlQFyNyXWBRX/ACj44LMzAS5Uy4RiGSUeYKZfnb5a0Pyja6F5&#xA;m8tWkWmata38cKJaqIxKnpu/xKvWhj4nbflvlmpgIVKOxto0WWWQyjI2Ke45nurdirsVdirsVdir&#xA;sVY5+YPk/wDxf5XudC+t/UfrDxP9Y9P1aek4enDlHWvGn2sry4+ONN2DL4cuKrY/F+T9knn7T/Np&#xA;v+RsoYo3svRoJJYbf0El9Tn8OwVqcT065V+WHGJW3fnD4ZhXNLLb8iSmg6ZoNxrnr6ZZag+oXcIt&#xA;eH1jkEUR19ZuFFVhXf7XTbK/yfpEb2u249oeoyEdyK58vsTrzV+TnlXV9MW30q3g0O9jlSWO/toA&#xA;XHGtVIVo6g1/m675PLpIyFD0lrwa+cJXL1DuTHSPI89l52ufNVxqIuZ7uwjspoBD6Y5oIuUob1H+&#xA;0Ya8abV67ZKGCp8d9KYZNSJYhjAqpXz967zt5H/xXPpS3F76OnafP9YubL0uf1g1Hwl+a8fh5L9k&#xA;/axz6fxKs7D7U6XV+CJUPURV9yB8zflN5a1SwSHS4YdFvIpVljvbeEFhxr8JCtHUGvj1yvNooSFR&#xA;9JbdP2lkhK5EzHcSyHXdEm1jy3c6PNchJrqERSXYj25bVcR8h1I6csvy4uOBiTzcbBmGPIJgcjyY&#xA;gPyp1iext9K1HzTPcaNAEX6jFbrCCkf2V5eo/T3BzC/ISIEZTPD3U7EdqwjIzjjAmet3+hNPMX5e&#xA;vqN9pV3peo/oltIi9G1VYBNQD7NKug2G3Q5Zn0XEYmJ4eHls1aXtIY4yjOPHxnfev0I3RfL/AJps&#xA;tQS41DzI+o2qhg9qbWOIMSKA81ZiKHfJ4sGWMrlPiHdTVn1OGcKjj4T38RKN80eWbLzDphsrlmjZ&#xA;WEkE6fajkAIBFeo33GT1OmjmjwlhotZLTz4o79472PW35c3897aS69rUuqW1ia29uylamtfiYsx7&#xA;Cvc+OYUezpGQOSZkI9HYz7YhGMhhxiEpcz+Ajde8jy3esDWtH1F9K1Nl4TyKvNJAAButR2A8QadO&#xA;+W59CZT8SEuCTRpe0xDF4WSPiQ6eS7y35HOm6pNrOp376pq8q8BcOvBUUihCrVu23y7ZLT6LgkZy&#xA;PFNjrO0vEgMcI8GMdFDTfy5tLbyfdeW7q5+tR3MjSrc+nwMbkLwYLyfdSteu/TBj0IjiOMm7Tm7U&#xA;lLOM0Rw1tVpp5M8sf4a0RdL+s/W+Mjyetw9P7ZrTjyfp88v0un8KHDduNrtX4+TjqlDyH5O/wppE&#xA;2nfW/rvq3DXHq+n6VOSInHjyk/331rg0mm8GPDd7p1+s/MTEq4dq72O6X+WHmnSIpoNJ83PZ288z&#xA;TvEtkjDm4AJq0pPRQMox6OcNozoe79rlZe0cWQgzx2QK+r9iZXPkLVb+PQzqmuG9utG1Bb83LWyo&#xA;ZVRlYRcVeifZ+1v8stOmkeHilZib5OONZGJlwwoSjXPko+YvyrsdW856d5pgu/qVxZzQT3UAiDi4&#xA;NvIrqeXNODFV4k0Pb6XJpBLIJg1S4deYYjjIsG/ha25/K715vNkv6T4/4oVEp6Ffq/Ak1/vP3nX/&#xA;ACcTpd5b/Uo1tCAr6PPmkq/krrc+mQaJqPnG5n0CEKp06G2WAMiNyC8vUk6Hf4lOQGklXCZelsPa&#xA;EeIyEBxd9sg84flbpGvaZplvYzvo97ogUaTe24q0SqBRSKqSPhB+0DXv1y7JpxICtq5OPh1coEk+&#xA;oS5pNZ/k/q19rllqnnLzJLr6aawezsvSEMXMEGr7sCKgVAG/c02yI05JuRumctZERIhHht6dmU4L&#xA;sVdirsVdirsVdirsVdirsVdirsVdirsVdirsVdirsVdirsVdirsVdirsVdirsVdirsVdirsVdirs&#xA;VdirsVdirsVdirsVdirsVdirsVdirsVdirsVdirsVdirsVdirsVdirsVdirsVdirsVdirsVdirsV&#xA;dirsVdirsVdirsVf/9k=</xmpGImg:image>
               </rdf:li>
            </rdf:Alt>
         </xmp:Thumbnails>
         <xmpMM:InstanceID>xmp.iid:30ee54f0-416a-3e49-9d00-fd7da43fba33</xmpMM:InstanceID>
         <xmpMM:DocumentID>xmp.did:30ee54f0-416a-3e49-9d00-fd7da43fba33</xmpMM:DocumentID>
         <xmpMM:OriginalDocumentID>uuid:5D20892493BFDB11914A8590D31508C8</xmpMM:OriginalDocumentID>
         <xmpMM:RenditionClass>proof:pdf</xmpMM:RenditionClass>
         <xmpMM:DerivedFrom rdf:parseType="Resource">
            <stRef:instanceID>xmp.iid:9abfa668-2609-c146-aeb5-945099e7e6e3</stRef:instanceID>
            <stRef:documentID>xmp.did:9abfa668-2609-c146-aeb5-945099e7e6e3</stRef:documentID>
            <stRef:originalDocumentID>uuid:5D20892493BFDB11914A8590D31508C8</stRef:originalDocumentID>
            <stRef:renditionClass>proof:pdf</stRef:renditionClass>
         </xmpMM:DerivedFrom>
         <xmpMM:History>
            <rdf:Seq>
               <rdf:li rdf:parseType="Resource">
                  <stEvt:action>saved</stEvt:action>
                  <stEvt:instanceID>xmp.iid:9abfa668-2609-c146-aeb5-945099e7e6e3</stEvt:instanceID>
                  <stEvt:when>2017-04-11T01:59:07-05:00</stEvt:when>
                  <stEvt:softwareAgent>Adobe Illustrator CC (Windows)</stEvt:softwareAgent>
                  <stEvt:changed>/</stEvt:changed>
               </rdf:li>
               <rdf:li rdf:parseType="Resource">
                  <stEvt:action>saved</stEvt:action>
                  <stEvt:instanceID>xmp.iid:30ee54f0-416a-3e49-9d00-fd7da43fba33</stEvt:instanceID>
                  <stEvt:when>2017-08-15T21:15:46-05:00</stEvt:when>
                  <stEvt:softwareAgent>Adobe Illustrator CC (Windows)</stEvt:softwareAgent>
                  <stEvt:changed>/</stEvt:changed>
               </rdf:li>
            </rdf:Seq>
         </xmpMM:History>
         <illustrator:StartupProfile>Print</illustrator:StartupProfile>
         <xmpTPg:HasVisibleOverprint>False</xmpTPg:HasVisibleOverprint>
         <xmpTPg:HasVisibleTransparency>True</xmpTPg:HasVisibleTransparency>
         <xmpTPg:NPages>1</xmpTPg:NPages>
         <xmpTPg:MaxPageSize rdf:parseType="Resource">
            <stDim:w>154.914001</stDim:w>
            <stDim:h>74.254028</stDim:h>
            <stDim:unit>Pixels</stDim:unit>
         </xmpTPg:MaxPageSize>
         <xmpTPg:PlateNames>
            <rdf:Seq>
               <rdf:li>Cyan</rdf:li>
               <rdf:li>Magenta</rdf:li>
               <rdf:li>Yellow</rdf:li>
               <rdf:li>Black</rdf:li>
            </rdf:Seq>
         </xmpTPg:PlateNames>
         <xmpTPg:SwatchGroups>
            <rdf:Seq>
               <rdf:li rdf:parseType="Resource">
                  <xmpG:groupName>Grupo de muestras por defecto</xmpG:groupName>
                  <xmpG:groupType>0</xmpG:groupType>
               </rdf:li>
            </rdf:Seq>
         </xmpTPg:SwatchGroups>
         <pdf:Producer>Adobe PDF library 10.01</pdf:Producer>
      </rdf:Description>
   </rdf:RDF>
</x:xmpmeta>
                                                                                                    
                                                                                                    
                                                                                                    
                                                                                                    
                                                                                                    
                                                                                                    
                                                                                                    
                                                                                                    
                                                                                                    
                                                                                                    
                                                                                                    
                                                                                                    
                                                                                                    
                                                                                                    
                                                                                                    
                                                                                                    
                                                                                                    
                                                                                                    
                                                                                                    
                                                                                                    
                           
<?xpacket end="w"?>
	</metadata>
<g>
	<rect id="XMLID_72_" y="0" class="st0" width="154.914" height="74.254"/>
	<linearGradient id="XMLID_2_" gradientUnits="userSpaceOnUse" x1="0" y1="24.077" x2="154.914" y2="24.077">
		<stop  offset="0" style="stop-color:#783214"/>
		<stop  offset="0.5" style="stop-color:#F16529"/>
		<stop  offset="1" style="stop-color:#783214"/>
	</linearGradient>
	<rect id="XMLID_56_" y="0" class="st1" width="154.914" height="48.154"/>
	<rect id="XMLID_330_" x="0" y="57.455" class="st2" width="154.494" height="13.102"/>
	<linearGradient id="SVGID_1_" gradientUnits="userSpaceOnUse" x1="18.135" y1="61.394" x2="135.472" y2="61.394">
		<stop  offset="0" style="stop-color:#783214"/>
		<stop  offset="0.5" style="stop-color:#F16529"/>
		<stop  offset="1" style="stop-color:#783214"/>
	</linearGradient>
	<path class="st3" d="M18.135,65.331v-7.874h2.379l1.429,5.371l1.413-5.371h2.385v7.874h-1.477v-6.198l-1.563,6.198H21.17
		l-1.558-6.198v6.198H18.135z M34.42,65.331h-1.729l-0.688-1.789h-3.147l-0.65,1.789H26.52l3.067-7.874h1.681L34.42,65.331z
		 M31.493,62.216l-1.085-2.922l-1.063,2.922H31.493z M35.264,65.331v-7.874h2.551c0.967,0,1.597,0.039,1.891,0.118
		c0.451,0.118,0.829,0.375,1.133,0.771s0.457,0.907,0.457,1.534c0,0.482-0.088,0.89-0.263,1.219s-0.398,0.588-0.668,0.776
		c-0.271,0.188-0.545,0.313-0.825,0.373c-0.379,0.075-0.929,0.112-1.649,0.112h-1.037v2.971H35.264z M36.854,58.789v2.234h0.87
		c0.626,0,1.045-0.041,1.257-0.124c0.211-0.082,0.377-0.211,0.497-0.387c0.12-0.175,0.18-0.379,0.18-0.611
		c0-0.287-0.084-0.523-0.252-0.709c-0.168-0.187-0.381-0.303-0.639-0.35c-0.19-0.036-0.571-0.054-1.144-0.054L36.854,58.789
		L36.854,58.789z M48.885,65.331h-1.729l-0.688-1.789H43.32l-0.65,1.789h-1.687l3.067-7.874h1.681L48.885,65.331z M45.958,62.216
		l-1.085-2.922l-1.063,2.922H45.958z M52.371,57.457h2.906c0.655,0,1.155,0.05,1.499,0.15c0.462,0.136,0.857,0.378,1.187,0.726
		c0.33,0.347,0.58,0.772,0.752,1.275s0.258,1.123,0.258,1.861c0,0.647-0.081,1.206-0.242,1.676
		c-0.197,0.572-0.478,1.036-0.843,1.391c-0.276,0.269-0.648,0.479-1.117,0.629c-0.351,0.11-0.82,0.166-1.407,0.166h-2.992
		L52.371,57.457L52.371,57.457z M53.96,58.789v5.216h1.187c0.444,0,0.765-0.025,0.961-0.076c0.258-0.064,0.472-0.173,0.642-0.327
		s0.309-0.407,0.417-0.76s0.161-0.834,0.161-1.442s-0.054-1.076-0.161-1.402c-0.107-0.325-0.258-0.58-0.451-0.762
		c-0.193-0.184-0.438-0.307-0.736-0.371c-0.222-0.05-0.657-0.075-1.305-0.075H53.96V58.789z M60.32,65.331v-7.874h5.838v1.332H61.91
		v1.745h3.953v1.327H61.91v2.144h4.399v1.326C66.309,65.331,60.32,65.331,60.32,65.331z M75.751,62.437l1.542,0.488
		c-0.236,0.859-0.629,1.498-1.179,1.915s-1.247,0.626-2.092,0.626c-1.045,0-1.905-0.357-2.578-1.072
		c-0.673-0.714-1.01-1.69-1.01-2.93c0-1.311,0.338-2.328,1.015-3.054c0.677-0.725,1.566-1.087,2.669-1.087
		c0.963,0,1.746,0.284,2.347,0.854c0.358,0.337,0.626,0.82,0.806,1.45l-1.574,0.376c-0.093-0.408-0.288-0.73-0.583-0.967
		c-0.296-0.236-0.655-0.354-1.077-0.354c-0.583,0-1.057,0.21-1.421,0.628c-0.363,0.42-0.545,1.098-0.545,2.036
		c0,0.995,0.179,1.704,0.537,2.127s0.824,0.634,1.396,0.634c0.422,0,0.786-0.135,1.09-0.402
		C75.4,63.435,75.619,63.013,75.751,62.437z M78.335,61.442c0-0.802,0.12-1.476,0.359-2.02c0.18-0.401,0.424-0.761,0.733-1.08
		c0.31-0.318,0.649-0.555,1.018-0.709c0.491-0.207,1.057-0.311,1.697-0.311c1.16,0,2.089,0.359,2.785,1.079s1.045,1.721,1.045,3.003
		c0,1.271-0.346,2.266-1.037,2.983c-0.69,0.718-1.614,1.077-2.771,1.077c-1.171,0-2.102-0.357-2.793-1.072
		C78.681,63.68,78.335,62.695,78.335,61.442z M79.973,61.389c0,0.892,0.206,1.567,0.618,2.027c0.411,0.46,0.935,0.69,1.568,0.69
		s1.153-0.229,1.56-0.685c0.407-0.457,0.61-1.142,0.61-2.055c0-0.902-0.198-1.575-0.594-2.02s-0.921-0.666-1.576-0.666
		s-1.184,0.225-1.585,0.674C80.174,59.805,79.973,60.482,79.973,61.389z M87.229,65.331v-7.874h1.547l3.223,5.259v-5.259h1.477
		v7.874h-1.595l-3.175-5.135v5.135H87.229z M96.93,65.331v-6.542h-2.337v-1.332h6.258v1.332H98.52v6.542H96.93z M101.876,65.331
		v-7.874h5.839v1.332h-4.249v1.745h3.953v1.327h-3.953v2.144h4.399v1.326C107.865,65.331,101.876,65.331,101.876,65.331z
		 M109.229,65.331v-7.874h1.547l3.223,5.259v-5.259h1.477v7.874h-1.595l-3.175-5.135v5.135H109.229z M117.108,65.331v-7.874h1.59
		v7.874H117.108z M120.208,57.457h2.905c0.655,0,1.155,0.05,1.499,0.15c0.462,0.136,0.857,0.378,1.187,0.726
		c0.33,0.347,0.58,0.772,0.752,1.275s0.258,1.123,0.258,1.861c0,0.647-0.08,1.206-0.241,1.676c-0.197,0.572-0.479,1.036-0.844,1.391
		c-0.275,0.269-0.647,0.479-1.117,0.629c-0.351,0.11-0.819,0.166-1.407,0.166h-2.991v-7.874H120.208z M121.798,58.789v5.216h1.187
		c0.444,0,0.765-0.025,0.962-0.076c0.258-0.064,0.472-0.173,0.642-0.327s0.309-0.407,0.416-0.76s0.161-0.834,0.161-1.442
		s-0.054-1.076-0.161-1.402c-0.107-0.325-0.258-0.58-0.451-0.762c-0.193-0.184-0.438-0.307-0.735-0.371
		c-0.223-0.05-0.657-0.075-1.306-0.075h-0.715V58.789z M127.835,61.442c0-0.802,0.12-1.476,0.359-2.02
		c0.18-0.401,0.424-0.761,0.733-1.08c0.31-0.318,0.649-0.555,1.018-0.709c0.491-0.207,1.057-0.311,1.697-0.311
		c1.16,0,2.089,0.359,2.785,1.079s1.045,1.721,1.045,3.003c0,1.271-0.346,2.266-1.037,2.983c-0.69,0.718-1.614,1.077-2.771,1.077
		c-1.171,0-2.102-0.357-2.793-1.072C128.181,63.68,127.835,62.695,127.835,61.442z M129.473,61.389c0,0.892,0.206,1.567,0.618,2.027
		c0.411,0.46,0.935,0.69,1.568,0.69s1.153-0.229,1.56-0.685c0.407-0.457,0.61-1.142,0.61-2.055c0-0.902-0.198-1.575-0.594-2.02
		s-0.921-0.666-1.576-0.666s-1.184,0.225-1.585,0.674C129.674,59.805,129.473,60.482,129.473,61.389z"/>
	<g id="XMLID_386_">
		<path id="XMLID_387_" class="st4" d="M73.676,7.621v10.153c0,0.622,0.503,1.125,1.125,1.125h3.951v3.055H63.661
			c-0.622,0-1.125,0.503-1.125,1.125v4.015h-3.951c-0.622,0-1.125,0.503-1.125,1.125v10.153c0,0.622,0.503,1.125,1.125,1.125h10.153
			c0.622,0,1.125-0.503,1.125-1.125V28.218c0-0.622-0.503-1.125-1.125-1.125h-3.96v-2.899h13.966v2.899h-3.951
			c-0.622,0-1.125,0.503-1.125,1.125v10.153c0,0.622,0.503,1.125,1.125,1.125h10.152c0.622,0,1.125-0.503,1.125-1.125V28.218
			c0-0.622-0.503-1.125-1.125-1.125h-3.951v-2.899H94.96v2.899h-3.951c-0.622,0-1.125,0.503-1.125,1.125v10.153
			c0,0.622,0.503,1.125,1.125,1.125h10.152c0.622,0,1.125-0.503,1.125-1.125V28.218c0-0.622-0.503-1.125-1.125-1.125H97.21v-4.015
			c0-0.622-0.503-1.125-1.125-1.125H80.993v-3.055h3.951c0.622,0,1.125-0.503,1.125-1.125V7.621c0-0.622-0.503-1.125-1.125-1.125
			H74.792C74.179,6.496,73.676,6.998,73.676,7.621L73.676,7.621z M67.612,37.236H59.71v-7.911h7.903L67.612,37.236L67.612,37.236z
			 M83.819,37.236h-7.912v-7.911h7.912V37.236z M100.027,37.236h-7.903v-7.911h7.911v7.911H100.027z M75.917,8.737h7.912v7.911
			h-7.912V8.737z"/>
	</g>
</g>
</svg>
