<?xml version="1.0" encoding="utf-8"?>
<!-- Generator: Adobe Illustrator 17.0.0, SVG Export Plug-In . SVG Version: 6.00 Build 0)  -->
<!DOCTYPE svg PUBLIC "-//W3C//DTD SVG 1.1//EN" "http://www.w3.org/Graphics/SVG/1.1/DTD/svg11.dtd" [
	<!ENTITY ns_extend "http://ns.adobe.com/Extensibility/1.0/">
	<!ENTITY ns_ai "http://ns.adobe.com/AdobeIllustrator/10.0/">
	<!ENTITY ns_graphs "http://ns.adobe.com/Graphs/1.0/">
	<!ENTITY ns_vars "http://ns.adobe.com/Variables/1.0/">
	<!ENTITY ns_imrep "http://ns.adobe.com/ImageReplacement/1.0/">
	<!ENTITY ns_sfw "http://ns.adobe.com/SaveForWeb/1.0/">
	<!ENTITY ns_custom "http://ns.adobe.com/GenericCustomNamespace/1.0/">
	<!ENTITY ns_adobe_xpath "http://ns.adobe.com/XPath/1.0/">
]>
<svg version="1.1" id="Capa_1" xmlns:x="&ns_extend;" xmlns:i="&ns_ai;" xmlns:graph="&ns_graphs;"
	 xmlns="http://www.w3.org/2000/svg" xmlns:xlink="http://www.w3.org/1999/xlink" x="0px" y="0px" width="155.706px"
	 height="74.254px" viewBox="0 0 155.706 74.254" style="enable-background:new 0 0 155.706 74.254;" xml:space="preserve">
<style type="text/css">
	.st0{opacity:0.5;fill:#FFFFFF;enable-background:new    ;}
	.st1{fill:url(#XMLID_2_);}
	.st2{fill:none;}
	.st3{fill:url(#SVGID_1_);}
	.st4{fill:#FEFEFE;}
</style>
<metadata><?xpacket begin="﻿" id="W5M0MpCehiHzreSzNTczkc9d"?>
<x:xmpmeta xmlns:x="adobe:ns:meta/" x:xmptk="Adobe XMP Core 5.5-c014 79.151739, 2013/04/03-12:12:15        ">
   <rdf:RDF xmlns:rdf="http://www.w3.org/1999/02/22-rdf-syntax-ns#">
      <rdf:Description rdf:about=""
            xmlns:dc="http://purl.org/dc/elements/1.1/"
            xmlns:xmp="http://ns.adobe.com/xap/1.0/"
            xmlns:xmpGImg="http://ns.adobe.com/xap/1.0/g/img/"
            xmlns:xmpMM="http://ns.adobe.com/xap/1.0/mm/"
            xmlns:stRef="http://ns.adobe.com/xap/1.0/sType/ResourceRef#"
            xmlns:stEvt="http://ns.adobe.com/xap/1.0/sType/ResourceEvent#"
            xmlns:illustrator="http://ns.adobe.com/illustrator/1.0/"
            xmlns:xmpTPg="http://ns.adobe.com/xap/1.0/t/pg/"
            xmlns:stDim="http://ns.adobe.com/xap/1.0/sType/Dimensions#"
            xmlns:xmpG="http://ns.adobe.com/xap/1.0/g/"
            xmlns:pdf="http://ns.adobe.com/pdf/1.3/">
         <dc:format>image/svg+xml</dc:format>
         <dc:title>
            <rdf:Alt>
               <rdf:li xml:lang="x-default">Imprimir</rdf:li>
            </rdf:Alt>
         </dc:title>
         <xmp:MetadataDate>2017-08-15T21:16:08-05:00</xmp:MetadataDate>
         <xmp:ModifyDate>2017-08-15T21:16:08-05:00</xmp:ModifyDate>
         <xmp:CreateDate>2017-08-15T21:16:07-05:00</xmp:CreateDate>
         <xmp:CreatorTool>Adobe Illustrator CC (Windows)</xmp:CreatorTool>
         <xmp:Thumbnails>
            <rdf:Alt>
               <rdf:li rdf:parseType="Resource">
                  <xmpGImg:width>256</xmpGImg:width>
                  <xmpGImg:height>124</xmpGImg:height>
                  <xmpGImg:format>JPEG</xmpGImg:format>
                  <xmpGImg:image>/9j/4AAQSkZJRgABAgEASABIAAD/7QAsUGhvdG9zaG9wIDMuMAA4QklNA+0AAAAAABAASAAAAAEA&#xA;AQBIAAAAAQAB/+4ADkFkb2JlAGTAAAAAAf/bAIQABgQEBAUEBgUFBgkGBQYJCwgGBggLDAoKCwoK&#xA;DBAMDAwMDAwQDA4PEA8ODBMTFBQTExwbGxscHx8fHx8fHx8fHwEHBwcNDA0YEBAYGhURFRofHx8f&#xA;Hx8fHx8fHx8fHx8fHx8fHx8fHx8fHx8fHx8fHx8fHx8fHx8fHx8fHx8fHx8f/8AAEQgAfAEAAwER&#xA;AAIRAQMRAf/EAaIAAAAHAQEBAQEAAAAAAAAAAAQFAwIGAQAHCAkKCwEAAgIDAQEBAQEAAAAAAAAA&#xA;AQACAwQFBgcICQoLEAACAQMDAgQCBgcDBAIGAnMBAgMRBAAFIRIxQVEGE2EicYEUMpGhBxWxQiPB&#xA;UtHhMxZi8CRygvElQzRTkqKyY3PCNUQnk6OzNhdUZHTD0uIIJoMJChgZhJRFRqS0VtNVKBry4/PE&#xA;1OT0ZXWFlaW1xdXl9WZ2hpamtsbW5vY3R1dnd4eXp7fH1+f3OEhYaHiImKi4yNjo+Ck5SVlpeYmZ&#xA;qbnJ2en5KjpKWmp6ipqqusra6voRAAICAQIDBQUEBQYECAMDbQEAAhEDBCESMUEFURNhIgZxgZEy&#xA;obHwFMHR4SNCFVJicvEzJDRDghaSUyWiY7LCB3PSNeJEgxdUkwgJChgZJjZFGidkdFU38qOzwygp&#xA;0+PzhJSktMTU5PRldYWVpbXF1eX1RlZmdoaWprbG1ub2R1dnd4eXp7fH1+f3OEhYaHiImKi4yNjo&#xA;+DlJWWl5iZmpucnZ6fkqOkpaanqKmqq6ytrq+v/aAAwDAQACEQMRAD8AgGvf8d/Uv+Yqf/k42aKf&#xA;MvU4/pHuQqZWW4Ky5EsgrJkSzCquRLMKyZEsgrJkSzCsuRZBVTIlmFZcizCsmRLIKyZEswqpgLMK&#xA;yZEswrLkWQVUyJZht8QpUWwhiVJ8kGBUWyTAqLZIMSovkgwKk2SYFRfJBiVFskGBUnyQYFRfJBgV&#xA;FskGJUXyQYFSbJMCovhDEorQf+O9pv8AzFQf8nFyyHMNOX6T7mte/wCO/qX/ADFT/wDJxsM+ZXH9&#xA;I9yFTKy3BWXIlkFZMiWYVVyJZhWTIlkFZMiWYVlyLIKqZEswrLkWYVkyJZBWTIlmFVMBZhWTIlmF&#xA;ZciyCqmRLMNviFKi2EMSpPkgwKi2SYFRbJBiVF8kGBUmyTAqL5IMSotkgwKk+SDAqL5IMCotkgxK&#xA;i+SDAqTZJgVF8IYlFaD/AMd7Tf8AmKg/5OLlkOYacv0n3Na9/wAd/Uv+Yqf/AJONhnzK4/pHuQqZ&#xA;WW4Ky5EsgrJkSzCquRLMKyZEsgrJkSzCsuRZBVTIlmFZcizCsmRLIKyZEswqpgLMKyZEswrLkWQe&#xA;9fldDCnkqxkRFV5TM0rAAFiJnUFj3oBTOq7LiBgiff8AeXhO3JE6qQPSvuDf5owxP5Kv3dAzxGFo&#xA;2IqVJmRSR4bEjHtQA4JfD7wvYciNVEDrf3F4I2coHvCpPkgwKi2SYFRbJBiVF8kGBUmyTAqL5IMS&#xA;otkgwKk+SDAqL5IMCotkgxKi+SDAqTZJgVF8IYlFaD/x3tN/5ioP+Ti5ZDmGnL9J9zWvf8d/Uv8A&#xA;mKn/AOTjYZ8yuP6R7kKmVluCsuRLIKyZEswqrkSzCsmRLIKyZEswrLkWQVUyJZhWXIswrJkSyCsm&#xA;RLMKqYCzCsmRLMKy5FkHvv5Y/wDKD6b/AM9/+oiTOr7M/uI/H7y8H23/AI1P4f7kO/M7/lB9S/54&#xA;f9REePaf9xL4feF7E/xqHx/3JeBNnJh70qT5IMCotkmBUWyQYlRfJBgVJskwKi+SDEqLZIMCpPkg&#xA;wKi+SDAqLZIMSovkgwKk2SYFRfCGJRWg/wDHe03/AJioP+Ti5ZDmGnL9J9zWvf8AHf1L/mKn/wCT&#xA;jYZ8yuP6R7kKmVluCsuRLIKyZEswqrkSzCsmRLIKyZEswrLkWQVUyJZhWXIswrJkSyCsmRLMKqYC&#xA;zCsmRLMJnpmiavqXM6fZzXQjp6hiRmC16VIGSx4Zz+kEteXU48f1yEfe93/L2yu7LyfYW13C8FxH&#xA;63OKQFWHKd2FQfEGudV2fAxwxEhR3+8vC9rZIz1MpRNjb/ch35hWV3e+UL+2tIXnuJPR4RRgsx4z&#xA;IxoB7CuDtCBlhkIizt94T2TkjDUxlI0N/wDcl4TqeiaxpoQ6hZzWokqIzKjKGI60JzlsmGcPqBD3&#xA;OLU48n0SEq7ksfIBsKi2SYFRbJBiVF8kGBUmyTAqL5IMSotkgwKk+SDAqL5IMCotkgxKi+SDAqTZ&#xA;JgVF8IYlFaD/AMd7Tf8AmKg/5OLlkOYacv0n3Na9/wAd/Uv+Yqf/AJONhnzK4/pHuQqZWW4Ky5Es&#xA;grJkSzCquRLMKyZEsgrJkSzCsuRZBVTIlmFZcizCsmRLIKyZEswqpgLMKyZEswyfyV5wvPLWoGVB&#xA;6tlPQXdv/MB0ZfBlrtmTo9XLDK/4TzDg9odnx1MKO0hyL3vS9UsdUsYr6xlEtvKKqw6g9wR2I7jO&#xA;rxZY5IiUTs8HnwTxTMJiiG9R1Gz06zlvb2UQ20I5O7fqHiT2GHJkjCJlI0AjDhlkkIxFyLwPzr5w&#xA;vPMmoCVx6VlBUWlv/KD1Zj3Zqb5yes1ks0r/AIRyD3vZ/Z8dNChvI8yxl8xQ5xUWyTAqLZIMSovk&#xA;gwKk2SYFRfJBiVFskGBUnyQYFRfJBgVFskGJUXyQYFSbJMCovhDEorQf+O9pv/MVB/ycXLIcw05f&#xA;pPua17/jv6l/zFT/APJxsM+ZXH9I9yFTKy3BWXIlkFZMiWYVVyJZhWTIlkFZMiWYVlyLIKqZEswr&#xA;LkWYVkyJZBWTIlmFVMBZh7b+UWh6RL5Va6ntIp57iaRZHlRXPBaKF+IH4fbOg7LwwOKyASS8l23q&#xA;cgz8IJAAHJ5l5ns7ez8x6na268IIbmVIk/lUMaD6M0WqgI5JAcgXqdDkM8MJHmYhMfJ3nHUPLl4X&#xA;iHrWUv8AvRaE0DeDKd+LDxyek1ksEtt49Q1dodnQ1MaO0hyP46L/ADl50v8AzHcrzBt7GLeG0BqA&#xA;abux25N+rDrNbLOe6Pcjs/syGmjtvM8yk+g2sN3r2m2k45Q3F1BFKvSqvIqsPuOU6eIlkiDyJDka&#xA;uZhinIcxEn7HqP5uaHpEPlRLi3tIoJraaNYmiRUIVqqV+EDbN/2phgMVgAUXlOxNTkOeiSQQebxN&#xA;s5560qLZIMSovkgwKk2SYFRfJBiVFskGBUnyQYFRfJBgVFskGJUXyQYFSbJMCovhDEorQf8Ajvab&#xA;/wAxUH/JxcshzDTl+k+5rXv+O/qX/MVP/wAnGwz5lcf0j3IVMrLcFZciWQVkyJZhVXIlmFZMiWQV&#xA;kyJZhWXIsgqpkSzCsuRZhWTIlkFZMiWYVUwFmHs/5TeZ9BtfLLWN7fQWlxDM7FJ5Fi5K9CGUuQD3&#xA;G2b7szU444+GRAIPV5XtrR5ZZuKMTIEdBbLX1nyLI5d77S3djVmMtuST7knM45sB6w+YdWNPqhsI&#xA;5PlJ36V8if8ALZpf/Iy3/rg8XT98PmGXgav+bk+UnfpXyJ3vNL/5GW/9cfF0/fD5hfA1f83J8pOX&#xA;WPIqOrrfaWrqQVYS24II6EGuIzYO+HzCDp9UdjHJ8pMT/NjzPoN15ZFlZ30F3cTTIwS3kWXiqVJL&#xA;FCQPDMLtPU45Y+GJBN9HZ9i6PLHNxSiYgDqKeMNmgeqKi2SDEqL5IMCpNkmBUXyQYlRbJBgVJ8kG&#xA;BUXyQYFRbJBiVF8kGBUmyTAqL4QxKK0H/jvab/zFQf8AJxcshzDTl+k+5rXv+O/qX/MVP/ycbDPm&#xA;Vx/SPchUystwVlyJZBWTIlmFVciWYVkyJZBWTIlmFZciyCqmRLMKy5FmFZMiWQVkyJZhVTAWYVky&#xA;JZhWXIsgqpkSzDb4hSothDEqT5IMCotkmBUWyQYlRfJBgVJskwKi+SDEqLZIMCpPkgwKi+SDAqLZ&#xA;IMSovkgwKk2SYFRfCGJRWg/8d7Tf+YqD/k4uWQ5hpy/Sfcmut+UvNb65qDpot+yNczMrC2mIIMhI&#xA;IPHJzxys7Frx5YcI3HzQy+UPNn/Vkv8A/pFm/wCacgccu4tozQ7x81VfKPmv/qy3/wD0jTf805Hw&#xA;pdxZ+ND+cPmqr5S81f8AVmvv+kab/mnI+FLuLIZ4fzh81ZfKfmn/AKs19/0jTf8ANODwp9xZjPj/&#xA;AJw+aqvlTzR/1Z77/pGm/wCacicU+4/JkM+P+cPmqr5V8z/9We9/6Rpf+acj4M+4/JkNRj/nR+YV&#xA;V8reZv8Aq0Xv/SPL/wA05HwZ9x+TMajH/Oj8wqr5Y8y/9Wm9/wCkeX/mnAcM/wCafkyGox/zo/MK&#xA;q+WfMn/VpvP+keX/AJpyPgz/AJp+TManH/Oj8wrL5a8x/wDVqvP+keX/AJpyPgT/AJp+TIanF/Oj&#xA;8wqr5b8xf9Wu8/5ES/8ANOROCf8ANPyZjVYv50fmFVfLnmH/AKtd3/yIl/5pwHBk/mn5MhqsX86P&#xA;zCqvl3zB/wBWy7/5ESf805E4Mn80/JkNVi/nx+YVV8va/wD9W26/5ESf805H8vk/mn5FmNXi/nx+&#xA;YVl8v69/1bbr/kTJ/wA05E6fJ/Nl8iyGrw/z4/MObQNe/wCrbdf8iZP+acRp8n82XyKnV4f58fmF&#xA;JvL2v/8AVtuv+REn/NOS/L5P5p+RYnV4v58fmFJvLvmD/q2Xf/IiT/mnJDBk/mn5MTqsX8+PzCk3&#xA;lzzD/wBWu7/5ES/804fAyfzT8mB1WL+dH5hRby35i/6td3/yIl/5pyQwT/mn5MTqsX86PzCk3lrz&#xA;H/1arz/pHl/5pyQwT/mn5MDqcX86PzCk3lnzJ/1abz/pHl/5pyXgz/mn5MfzOP8AnR+YUm8seZf+&#xA;rTe/9I8v/NOEYZ/zT8mB1OP+dH5hSbyv5m/6tF7/ANI8v/NOSGGfcfkxOox/zo/MKTeVvM//AFaL&#xA;3/pGl/5pyXgz7j8mJ1GP+dH5hRbyp5o/6s99/wBI03/NOSGKfcfkwOfH/OHzUm8p+af+rNff9I03&#xA;/NOEYp9xYnPj/nD5qTeUvNX/AFZr7/pGm/5pyQxS7iwOeH84fNSbyj5r/wCrLf8A/SNN/wA05Lwp&#xA;dxYnND+cPmpN5Q82f9WS/wD+kWb/AJpyQxy7ixOaH84fNEaJ5S81Jrmnu+jXyotzCzMbaYAASAkk&#xA;8cnDHKxsWnJlhwncfN9pZu3mnYq7FXYq7FXYq7FXYq7FXYq7FXYq7FXYq7FXYq7FXYq7FXYq7FXY&#xA;q7FXYq7FXYq7FXYq7FXYq7FXYq7FXYq7FVK7ure0tZrq4f07e3RpZpDUhUQFmO2+wGAmkgWaDE7X&#xA;84Py0uplhi163DuQF9QSRrU7btIqqPvyoaiHe5B0eUfwpx5g85eWfL0VvNrF+lpFd1+rOQ7h+IBN&#xA;OCt2YZKeWMeZa8eCc/pF0gdJ/M3yLq+oQ6dp2rR3F7cErDCqSgsQCx3ZAOgyMdRCRoHdsnpMsRZG&#xA;y7UvzK8i6ZfvYXusQx3cbcJIxzfi3cMyKyqR3qcEtTjiaJWGjyyFiOydTaxpUGm/pSW8hTTuAk+u&#xA;F19Io32WD1oa128ctMwBd7NIxyMuED1dyVaL5/8AJ2tXf1PTdUinujXjCQ8bNTc8BIqctvDKsepx&#xA;zNA7t+XR5cYuUdkfrfmHRtDtkudWultYJH9NHYMauQTQBQx6DJ5MsYC5GmvDgnlNQFlXutV0+101&#xA;tSnmVLFIxK0+5XgaENsCe+GWQCPEeTGGKUpcIHqSSH8yvI00ixpq8PJjQcg6D6WZQBmONdhP8Tln&#xA;szUAXwFO7/VdN0+zN7e3McFrtSZ2AU13HHxr2pmRPLGAuRoOLiwznLhiCZJfpPnPyvq1z9W0/UI5&#xA;rg14xUZGanXiHC16dspxavFM1GW7fm7Pz4o8U4kBG6trOmaTbLc6jcLbws4jV2BNWIJAooJ6A5Zl&#xA;zQxi5Gg1afTZM0uGAsqsuo2UWnnUXlAslj9Yz7lfTpy5bb9MkckRHiv082IwyM+AD1XVeaSR/mJ5&#xA;Kdwg1WIE9CwdR9JZQMxh2hhP8TmS7J1IH0H7GRKyuodCGVgCrA1BB6EHMwF15FJPrXnLyxos6wan&#xA;qEdvOwB9L4ncA9CVQMQPnlGXU48ZqRouTg0WXKLhEkK8HmTQrjSZdXgvY5dOhVmmuEJYIEFW5AfE&#xA;CB2pXJDNAx4gfSwlpskZ8BFSKUxfmh5BlkWNdZhDMaAuJEX6WZQo+k5UNbiP8Teezc4H0lk6OrqH&#xA;QhlYAqwNQQehBzKcEhIx558qNp99qI1BDZabIsN9NxkpG7MECkcan4jTbKfzEKJvYOQdJk4hGt5c&#xA;ktX83Py6d1RdajLMQFHpzbk7D9jIDV4+9sOgzD+H7l99+a35fWN5PZXesRxXVrI8M8ZjmJWSNirL&#xA;UIRsRkjqcYNEsY6LKQCI7FHaV588oarY3l/Y6pFJZ6eAb24blGkYapHIyBOtMlHNCQJB5Nc9PkiQ&#xA;CNyg9K/NP8v9V1BNPsdbgku5G4RRMHj5seio0iorE9gDvgjngTQLKelyRFkbMqy5x3Yq7FXYq7FX&#xA;Yq7FUo84/wDKI65/2z7r/ky2QyfSfc2YfrHvDynyd5V8saj/AM4/i7v9PtjdJZ6hML4xosyyQzTm&#xA;NvVpy+HiB16bdMxMeOJw7jvdhlyzjqKB6j9DD9Qu9RvPIH5cM8YvbhL65htoZvsyLHcIkcbFtuOw&#xA;T5ZjSJMIe9zIADJk6bD7nrnlW08zx61DJqvk7SdIs4w7PqFs0BljIQ048d9+hzNxiXFvEAOtzShw&#xA;+mcpHu3eejy7rek2WtSafp2mecvLN3LNJPqUDRyXSClTSVW9RWUfF8IYA798wjjlEGgJx73ZDLGZ&#xA;jZljmOnRFa5e6Jqegfl5punRyW3lu9v3S8tJZC5RlnjVlaQncD1pOJ8PDBklGUcYH0kpwxnCeWUt&#xA;5iOx+B/UHo2seTvy6ttS0ee5S30m7t5P9x3oulr6roVYAkceZUgU37++ZuTBiBiTUT06OtxarOYy&#xA;AuQPPqwr8ztV0fWvPEWh6lfCz0vS7aUyTEMR9bmjqv2A1eJ4f8NmDrZxnl4ZGoxH2u07Nxzx4TOI&#xA;uUiPkPwUToPmH9KfkzqtnK/K60qE2zjv6VQYT8uPwj/Vw483FppDrEIzafg1sSOUjf62Oy6jMfKW&#xA;m6RcaBaWa6gqJaa7NxHLi4JcuFqp7Gp6ZhymfCETADi5SdjDGPGlMZJHh5wDLtc0mNfNHkzy5qcn&#xA;r6bb2oVg1eEkyKVp2qCY1Wngcys2MeLixy3iA4GmzHwc2aAqZl8h+CVTzJdaJYeZ7Jp/LUtsbe4W&#xA;Kzv4HFvHK1VKtRUHLj88GolCOUXjqjsRtadHDLPBKsoNx3idyPtW/mFqOmal5stdGv7sWunWMTvc&#xA;y/EaTypVBRQa0+H7zkO0ckJ5hCRqMRv723sjDkxac5YR4pyIr3A/2r/L+tfXvyx1ixkcNPptvLFW&#xA;taxMpMZ/Wv0YdNn49LKJ5xB+XRGt03h66ExymQfj1/Wxm61GZfKdjptxoFtbx3yLHba3LxFSGqXL&#xA;KtVPzOYhyHwhEwA4uUnOGEHUSmMkjw84D7nsnl7Tn03QrCweQTPbQJG0gNQSq78a/s+HtnR4MfBA&#xA;R7g8fqsviZZTAqywH8r9N0/VrvX9T1WCO71Nrto3E6rJwQ1OwatKmo+Qpmt7PhGZnKQuVu57Wyyx&#xA;xxwgahw9EiuYINN8xeftK00enpX6KkmMCf3ay8YjQU2HEyuAO3TKiBGeWMfp4f1N4kZ4sE5fXx/Z&#xA;v+oJOLbzJN+W49PyvZvpixM7a3+5a5EaSFmcLyElVpTp09sgBM4foHD39W2UsY1P95Liv6d6/U9f&#xA;8k6voL+W9Es7O+SR3s0W2hlZUuJFhBjdvS5MdmjatKgUzb6eceCIB6PPavFPxJkj+L4b+bx2D/yW&#xA;n5gf9tKD/qKTNZH+6ye/9Lupf3+L+qfuZZ5YsvNj2ekc/JOkPYtHb8r5mgMpiKrWUg78uPxfPMvF&#xA;GdD0Rpwc8sdy/eSvfbdr8/dH0iDy7p11BY28V1Pq8InnSJFkcPFMzc2Aq3I7muHWwAiDX8TDs3JI&#xA;zIJNcP6kP+eGn6bZ2/lzS7a3i0/SNT1JBqn1dFgV1QqF5lAvRXYiuHVxAoDYE7roJE8UibkBsifz&#xA;x8o+U7H8uJ7u00+2srzT3txp8sEaxPVplRk5KAWHBmah7iuS1OOIhsOTXos0zlokkF6J5Qu7u88p&#xA;6JeXhLXlzYWs1yzChMjwqz1B/wAo5k4zcQT3OHlAEyBysptk2t2KuxV2KuxV2KoXVbBNR0u8093M&#xA;aXkEluzruVEqFCRXwrgkLFMoyog9zzG1/IGGKwTSpvNWrSaKp+LTEk4QEFuZASrIKsa/Z65i/lNq&#xA;4jTnHX73wx4u9kHmr8qNJ1vTdF060u5tJg0Kv1E2wBYVC0PImvIFK8utd8nk04kABtTVh1koGRI4&#xA;uJrQPy31bStWt7+fzdq2pRQEl7K6md4ZAVK0dS5BpWuCGnIN8RLLJq4yiQIRHmlVx+SEMct5Ho3m&#xA;G+0rSr5i1xpkRJiIbquzIKU2HIHbbfKjoufDIgHo3R7S5cURKQ6shvPyw8sXPlG28sFJEtLM87W4&#xA;DD1klJJaTkRQlixqKU/ClstLAw4OgaIa7JHKcnUpbov5R29pq9pqer6xd61Jp9DYxXJPCMqar1Zz&#xA;8J3AFN8qhogJCUiZVyb8vaRMDGMRDi50nHl7yDpek3epXlw36SvNTm9eaa5jQldyeKihoKsctxaW&#xA;MSSdzJpz62UxED0iI6ISf8s9Oa81qa2u5LW31uH0ri0RF9NCCp5p03qD95ys6KNyINCTbHtKQEAR&#xA;ZgdijbjyJplz5Qh8tXEjSQ26KILmgEiupJDjtXenyyUtJGWLwz0YQ7QnHOco5nopXv5f2F/oNlpl&#xA;9dTS3GnbWepLRJ0A6DuCKAD6PHIz0UZwEZE3HkerPH2nLHllOIFS5x6IO2/LJHvoLvWdZvNW+rMG&#xA;gimYhQVIO9Wc9u1Mqj2dcgZylKm+XbBETHHCMOLnSbaP5N0+wvtQvp2+vXOoy+rI8yKeO5PFRvQf&#xA;Fl2HRxhKUj6jLvcbUdozyQjAemMBWyHn8g2LX+qXNvcPbRarbtbz2yKvpjkAOajxqK/ScgdBHikQ&#xA;a4xVNse1Z8EIyHEccrB6oifyXptz5Uj8uXDtJBCgWK4oA6upJVx2rv8Adlh0cTi8M8g0x7QnHOcw&#xA;5np+hMdB0t9K0m309rl7sWy8I5pAA3AfZU0/lGw9suw4+CAjd04+pzDLMzrhtjWr/lpDcavPq2j6&#xA;rdaLd3VTdfVj8Dk7k0BQgk7nfrmLk0IMjKMjEnnTnYe1CICE4xnEcrVtM/LbSNP0TU9OSeaW51eN&#xA;o73UZSGlbkD07ftE+/c5PHooxgY3vLmWvL2lOeSMqAEOQ6JMv5OMLIacfM2p/oynFrJX4xFCaleF&#xA;Sm/+rlQ7P2rjlw9zee1rlxeHDi7+qN1n8ptKuo9LbSb640a80mH6vbXduxLmMlmPIgoeRZ2NQR9o&#xA;5ZPRRNcJMTFpxdpSHFxgSEjdFUi/KvSIfJF55WjupQNQkWa8vyA0ryLIklaHb/dYFP45IaSIxmF8&#xA;+rA9oSOUZK5cglsf5RatFEkMPnbWooo1CRxpO6qqqKAKA9AAMiNIR/HJme0Infw4fJkvnnyXa+bt&#xA;MtbC5uXtUtbqO8V4wGJaNHQKa9v3mX5sImK83F0+oOIkgXYpEecPJ+jebNGfStVRjCWEkUsZCyRS&#xA;KCA6EgitCRuMllxCYosMOaWOXFFg8P5ExXE1onmDzJqOtaVYsGttMmYrGAuwUks+3Hb4QNsoGl/n&#xA;EkOUddz4YiJPV6kiIiKiKFRQFVVFAANgABmW4DeKuxV2KuxV2KuxV2KuxV2KuxV2KuxV2KuxV2Ku&#xA;xV2KuxV2KuxV2KuxV2KuxV2KuxV2KuxV2KuxV2KuxV2KuxV2KuxV2KuxV2KuxV2KuxV2KuxV2Kux&#xA;V2KuxV2KuxV2KuxV2KuxV2KuxV2KuxV2KuxV2KuxV2KuxV2KuxV2Kv8A/9k=</xmpGImg:image>
               </rdf:li>
            </rdf:Alt>
         </xmp:Thumbnails>
         <xmpMM:InstanceID>xmp.iid:7fa7f767-4777-7048-9374-7c5876f54fe5</xmpMM:InstanceID>
         <xmpMM:DocumentID>xmp.did:7fa7f767-4777-7048-9374-7c5876f54fe5</xmpMM:DocumentID>
         <xmpMM:OriginalDocumentID>uuid:5D20892493BFDB11914A8590D31508C8</xmpMM:OriginalDocumentID>
         <xmpMM:RenditionClass>proof:pdf</xmpMM:RenditionClass>
         <xmpMM:DerivedFrom rdf:parseType="Resource">
            <stRef:instanceID>xmp.iid:9abfa668-2609-c146-aeb5-945099e7e6e3</stRef:instanceID>
            <stRef:documentID>xmp.did:9abfa668-2609-c146-aeb5-945099e7e6e3</stRef:documentID>
            <stRef:originalDocumentID>uuid:5D20892493BFDB11914A8590D31508C8</stRef:originalDocumentID>
            <stRef:renditionClass>proof:pdf</stRef:renditionClass>
         </xmpMM:DerivedFrom>
         <xmpMM:History>
            <rdf:Seq>
               <rdf:li rdf:parseType="Resource">
                  <stEvt:action>saved</stEvt:action>
                  <stEvt:instanceID>xmp.iid:9abfa668-2609-c146-aeb5-945099e7e6e3</stEvt:instanceID>
                  <stEvt:when>2017-04-11T01:59:07-05:00</stEvt:when>
                  <stEvt:softwareAgent>Adobe Illustrator CC (Windows)</stEvt:softwareAgent>
                  <stEvt:changed>/</stEvt:changed>
               </rdf:li>
               <rdf:li rdf:parseType="Resource">
                  <stEvt:action>saved</stEvt:action>
                  <stEvt:instanceID>xmp.iid:7fa7f767-4777-7048-9374-7c5876f54fe5</stEvt:instanceID>
                  <stEvt:when>2017-08-15T21:16:08-05:00</stEvt:when>
                  <stEvt:softwareAgent>Adobe Illustrator CC (Windows)</stEvt:softwareAgent>
                  <stEvt:changed>/</stEvt:changed>
               </rdf:li>
            </rdf:Seq>
         </xmpMM:History>
         <illustrator:StartupProfile>Print</illustrator:StartupProfile>
         <xmpTPg:HasVisibleOverprint>False</xmpTPg:HasVisibleOverprint>
         <xmpTPg:HasVisibleTransparency>True</xmpTPg:HasVisibleTransparency>
         <xmpTPg:NPages>1</xmpTPg:NPages>
         <xmpTPg:MaxPageSize rdf:parseType="Resource">
            <stDim:w>155.705994</stDim:w>
            <stDim:h>74.254028</stDim:h>
            <stDim:unit>Pixels</stDim:unit>
         </xmpTPg:MaxPageSize>
         <xmpTPg:PlateNames>
            <rdf:Seq>
               <rdf:li>Cyan</rdf:li>
               <rdf:li>Magenta</rdf:li>
               <rdf:li>Yellow</rdf:li>
               <rdf:li>Black</rdf:li>
            </rdf:Seq>
         </xmpTPg:PlateNames>
         <xmpTPg:SwatchGroups>
            <rdf:Seq>
               <rdf:li rdf:parseType="Resource">
                  <xmpG:groupName>Grupo de muestras por defecto</xmpG:groupName>
                  <xmpG:groupType>0</xmpG:groupType>
               </rdf:li>
            </rdf:Seq>
         </xmpTPg:SwatchGroups>
         <pdf:Producer>Adobe PDF library 10.01</pdf:Producer>
      </rdf:Description>
   </rdf:RDF>
</x:xmpmeta>
                                                                                                    
                                                                                                    
                                                                                                    
                                                                                                    
                                                                                                    
                                                                                                    
                                                                                                    
                                                                                                    
                                                                                                    
                                                                                                    
                                                                                                    
                                                                                                    
                                                                                                    
                                                                                                    
                                                                                                    
                                                                                                    
                                                                                                    
                                                                                                    
                                                                                                    
                                                                                                    
                           
<?xpacket end="w"?>
	</metadata>
<g>
	<rect id="XMLID_282_" x="0.397" y="0" class="st0" width="154.914" height="74.254"/>
	<linearGradient id="XMLID_2_" gradientUnits="userSpaceOnUse" x1="0.397" y1="24.077" x2="155.311" y2="24.077">
		<stop  offset="0" style="stop-color:#783214"/>
		<stop  offset="0.5" style="stop-color:#F16529"/>
		<stop  offset="1" style="stop-color:#783214"/>
	</linearGradient>
	<rect id="XMLID_265_" x="0.397" y="0" class="st1" width="154.914" height="48.154"/>
	<rect id="XMLID_275_" y="57.455" class="st2" width="155.706" height="13.102"/>
	<linearGradient id="SVGID_1_" gradientUnits="userSpaceOnUse" x1="19.058" y1="61.396" x2="136.803" y2="61.396">
		<stop  offset="0" style="stop-color:#783214"/>
		<stop  offset="0.5" style="stop-color:#F16529"/>
		<stop  offset="1" style="stop-color:#783214"/>
	</linearGradient>
	<path class="st3" d="M19.058,57.457h2.906c0.655,0,1.155,0.05,1.499,0.15c0.462,0.136,0.857,0.378,1.187,0.726
		c0.33,0.347,0.58,0.772,0.752,1.275s0.258,1.123,0.258,1.861c0,0.647-0.081,1.206-0.242,1.676
		c-0.197,0.572-0.478,1.036-0.843,1.391c-0.276,0.269-0.648,0.479-1.117,0.629c-0.351,0.11-0.82,0.166-1.407,0.166h-2.992
		L19.058,57.457L19.058,57.457z M20.648,58.789v5.216h1.187c0.444,0,0.765-0.025,0.961-0.076c0.258-0.064,0.472-0.173,0.642-0.327
		s0.309-0.407,0.417-0.76s0.161-0.834,0.161-1.442s-0.054-1.076-0.161-1.402c-0.107-0.325-0.258-0.58-0.451-0.762
		c-0.193-0.184-0.438-0.307-0.736-0.371c-0.222-0.05-0.657-0.075-1.305-0.075h-0.715V58.789z M27.007,65.331v-7.874h5.838v1.332
		h-4.249v1.745h3.953v1.327h-3.953v2.144h4.399v1.326C32.995,65.331,27.007,65.331,27.007,65.331z M33.941,62.769l1.547-0.15
		c0.093,0.52,0.282,0.901,0.566,1.145c0.285,0.243,0.669,0.365,1.152,0.365c0.512,0,0.898-0.108,1.157-0.325
		c0.26-0.217,0.39-0.47,0.39-0.76c0-0.187-0.055-0.345-0.164-0.476s-0.3-0.244-0.572-0.341c-0.186-0.064-0.61-0.179-1.273-0.344
		c-0.852-0.211-1.45-0.471-1.794-0.778c-0.483-0.434-0.725-0.962-0.725-1.585c0-0.401,0.114-0.776,0.341-1.125
		c0.227-0.35,0.555-0.615,0.982-0.798c0.428-0.183,0.945-0.273,1.55-0.273c0.988,0,1.732,0.216,2.231,0.649
		c0.5,0.434,0.762,1.012,0.787,1.735l-1.59,0.069c-0.068-0.404-0.214-0.695-0.438-0.873c-0.224-0.177-0.56-0.266-1.007-0.266
		c-0.462,0-0.824,0.095-1.085,0.284c-0.168,0.122-0.252,0.285-0.252,0.489c0,0.187,0.079,0.346,0.236,0.478
		c0.201,0.169,0.688,0.344,1.461,0.527c0.773,0.182,1.346,0.371,1.716,0.566c0.371,0.195,0.661,0.462,0.87,0.8
		c0.21,0.339,0.314,0.757,0.314,1.255c0,0.451-0.125,0.873-0.376,1.268c-0.25,0.394-0.605,0.687-1.063,0.878
		s-1.029,0.287-1.713,0.287c-0.996,0-1.76-0.23-2.293-0.69S34.045,63.649,33.941,62.769z M46.719,62.437l1.542,0.488
		c-0.236,0.859-0.629,1.498-1.179,1.915s-1.247,0.626-2.092,0.626c-1.045,0-1.905-0.357-2.578-1.072
		c-0.673-0.714-1.01-1.69-1.01-2.93c0-1.311,0.338-2.328,1.015-3.054c0.677-0.725,1.566-1.087,2.669-1.087
		c0.963,0,1.746,0.284,2.347,0.854c0.358,0.337,0.626,0.82,0.806,1.45l-1.574,0.376c-0.093-0.408-0.288-0.73-0.583-0.967
		c-0.296-0.236-0.655-0.354-1.077-0.354c-0.583,0-1.057,0.21-1.421,0.628c-0.363,0.42-0.545,1.098-0.545,2.036
		c0,0.995,0.179,1.704,0.537,2.127s0.824,0.634,1.396,0.634c0.422,0,0.786-0.135,1.09-0.402
		C46.368,63.435,46.587,63.013,46.719,62.437z M56.726,65.331h-1.729l-0.688-1.789h-3.147l-0.65,1.789h-1.687l3.067-7.874h1.681
		L56.726,65.331z M53.798,62.216l-1.085-2.922l-1.063,2.922H53.798z M57.574,65.331v-7.874h3.346c0.841,0,1.453,0.07,1.834,0.212
		c0.381,0.142,0.687,0.394,0.916,0.755s0.344,0.775,0.344,1.241c0,0.59-0.174,1.078-0.521,1.463s-0.867,0.628-1.558,0.729
		c0.344,0.2,0.627,0.42,0.852,0.66c0.224,0.24,0.525,0.666,0.905,1.278l0.961,1.536h-1.901l-1.149-1.713
		c-0.408-0.613-0.688-0.999-0.838-1.158s-0.31-0.269-0.478-0.327c-0.168-0.06-0.435-0.089-0.8-0.089h-0.322v3.287
		C59.165,65.331,57.574,65.331,57.574,65.331z M59.164,60.787h1.176c0.763,0,1.239-0.032,1.429-0.097s0.338-0.176,0.446-0.333
		s0.161-0.354,0.161-0.591c0-0.265-0.071-0.479-0.212-0.642c-0.142-0.163-0.341-0.267-0.599-0.31
		c-0.129-0.018-0.516-0.026-1.16-0.026h-1.241C59.164,58.788,59.164,60.787,59.164,60.787z M69.176,62.437V61.11h3.427v3.137
		c-0.333,0.322-0.815,0.606-1.448,0.852c-0.632,0.245-1.272,0.368-1.92,0.368c-0.824,0-1.542-0.173-2.154-0.519
		s-1.072-0.84-1.38-1.482s-0.462-1.342-0.462-2.098c0-0.82,0.172-1.549,0.516-2.187c0.344-0.637,0.847-1.126,1.509-1.466
		c0.505-0.262,1.133-0.392,1.885-0.392c0.978,0,1.741,0.204,2.291,0.614c0.549,0.41,0.903,0.977,1.061,1.7l-1.579,0.295
		c-0.111-0.387-0.319-0.691-0.626-0.915c-0.306-0.224-0.688-0.336-1.146-0.336c-0.695,0-1.247,0.22-1.657,0.661
		c-0.41,0.439-0.615,1.094-0.615,1.96c0,0.935,0.208,1.636,0.623,2.103c0.416,0.468,0.959,0.701,1.633,0.701
		c0.333,0,0.667-0.065,1.001-0.196c0.335-0.131,0.623-0.289,0.862-0.476v-0.998h-1.821V62.437z M81.169,65.331H79.44l-0.688-1.789
		h-3.147l-0.65,1.789h-1.687l3.067-7.874h1.681L81.169,65.331z M78.242,62.216l-1.085-2.922l-1.063,2.922H78.242z M82.018,65.331
		v-7.874h3.346c0.842,0,1.453,0.07,1.835,0.212c0.381,0.142,0.687,0.394,0.915,0.755c0.229,0.361,0.344,0.775,0.344,1.241
		c0,0.59-0.174,1.078-0.521,1.463c-0.348,0.385-0.867,0.628-1.558,0.729c0.344,0.2,0.627,0.42,0.852,0.66
		c0.224,0.24,0.525,0.666,0.904,1.278l0.962,1.536h-1.901l-1.149-1.713c-0.408-0.613-0.688-0.999-0.838-1.158
		s-0.31-0.269-0.479-0.327c-0.168-0.06-0.435-0.089-0.8-0.089h-0.322v3.287C83.608,65.331,82.018,65.331,82.018,65.331z
		 M83.608,60.787h1.176c0.763,0,1.239-0.032,1.429-0.097c0.19-0.064,0.339-0.176,0.446-0.333s0.161-0.354,0.161-0.591
		c0-0.265-0.071-0.479-0.212-0.642c-0.142-0.163-0.342-0.267-0.6-0.31c-0.129-0.018-0.516-0.026-1.16-0.026h-1.24
		C83.608,58.788,83.608,60.787,83.608,60.787z M92.69,61.442c0-0.802,0.12-1.476,0.36-2.02c0.179-0.401,0.423-0.761,0.733-1.08
		c0.31-0.318,0.648-0.555,1.018-0.709c0.49-0.207,1.056-0.311,1.697-0.311c1.16,0,2.088,0.359,2.785,1.079
		c0.696,0.72,1.044,1.721,1.044,3.003c0,1.271-0.346,2.266-1.036,2.983c-0.691,0.718-1.615,1.077-2.771,1.077
		c-1.171,0-2.103-0.357-2.793-1.072C93.036,63.68,92.69,62.695,92.69,61.442z M94.329,61.389c0,0.892,0.206,1.567,0.617,2.027
		c0.412,0.46,0.935,0.69,1.568,0.69s1.154-0.229,1.561-0.685c0.406-0.457,0.609-1.142,0.609-2.055c0-0.902-0.197-1.575-0.593-2.02
		c-0.396-0.444-0.922-0.666-1.577-0.666s-1.184,0.225-1.584,0.674C94.529,59.805,94.329,60.482,94.329,61.389z M101.574,57.457
		h3.147c0.623,0,1.088,0.026,1.394,0.078c0.307,0.052,0.58,0.16,0.822,0.325c0.241,0.164,0.443,0.384,0.604,0.657
		c0.161,0.274,0.241,0.581,0.241,0.921c0,0.369-0.1,0.708-0.298,1.016c-0.199,0.308-0.468,0.539-0.809,0.693
		c0.48,0.139,0.849,0.377,1.106,0.714s0.387,0.732,0.387,1.187c0,0.358-0.083,0.707-0.25,1.045
		c-0.166,0.339-0.394,0.609-0.682,0.812s-0.644,0.326-1.066,0.373c-0.265,0.028-0.904,0.047-1.917,0.054h-2.681v-7.875H101.574z
		 M103.164,58.768v1.821h1.042c0.62,0,1.005-0.01,1.155-0.027c0.271-0.032,0.485-0.126,0.642-0.282
		c0.155-0.155,0.233-0.36,0.233-0.614c0-0.244-0.067-0.441-0.201-0.594c-0.135-0.152-0.334-0.244-0.599-0.277
		c-0.158-0.018-0.61-0.026-1.359-0.026L103.164,58.768L103.164,58.768z M103.164,61.899v2.105h1.472
		c0.573,0,0.937-0.017,1.091-0.049c0.236-0.043,0.429-0.147,0.577-0.314c0.148-0.166,0.223-0.389,0.223-0.668
		c0-0.236-0.057-0.438-0.172-0.602c-0.114-0.165-0.28-0.285-0.497-0.36c-0.216-0.075-0.687-0.112-1.409-0.112H103.164z
		 M112.354,57.457h1.584v4.984c0,0.651-0.057,1.153-0.172,1.504c-0.153,0.458-0.433,0.826-0.838,1.104
		c-0.404,0.277-0.938,0.417-1.601,0.417c-0.776,0-1.375-0.218-1.794-0.653s-0.63-1.073-0.634-1.915l1.499-0.172
		c0.018,0.451,0.084,0.771,0.198,0.957c0.172,0.282,0.434,0.424,0.784,0.424c0.354,0,0.605-0.102,0.752-0.304
		c0.147-0.202,0.221-0.622,0.221-1.259L112.354,57.457L112.354,57.457z M115.63,65.331v-7.874h5.838v1.332h-4.248v1.745h3.953v1.327
		h-3.953v2.144h4.398v1.326C121.618,65.331,115.63,65.331,115.63,65.331z M124.74,65.331v-6.542h-2.337v-1.332h6.258v1.332h-2.331
		v6.542H124.74z M129.166,61.442c0-0.802,0.12-1.476,0.359-2.02c0.18-0.401,0.424-0.761,0.733-1.08
		c0.31-0.318,0.649-0.555,1.018-0.709c0.491-0.207,1.057-0.311,1.697-0.311c1.16,0,2.089,0.359,2.785,1.079s1.045,1.721,1.045,3.003
		c0,1.271-0.346,2.266-1.037,2.983c-0.69,0.718-1.614,1.077-2.771,1.077c-1.171,0-2.102-0.357-2.793-1.072
		C129.511,63.68,129.166,62.695,129.166,61.442z M130.803,61.389c0,0.892,0.206,1.567,0.618,2.027c0.411,0.46,0.935,0.69,1.568,0.69
		s1.153-0.229,1.56-0.685c0.407-0.457,0.61-1.142,0.61-2.055c0-0.902-0.198-1.575-0.594-2.02s-0.921-0.666-1.576-0.666
		s-1.184,0.225-1.585,0.674C131.004,59.805,130.803,60.482,130.803,61.389z"/>
	<path id="XMLID_292_" class="st4" d="M89.046,29.529c-1.168,0-1.944,0.972-1.944,1.945v2.921H68.807v-2.921
		c0-0.973-0.977-1.945-1.954-1.945c-1.161,0-1.941,0.972-1.941,1.945v4.869c0,1.164,0.781,1.941,1.941,1.941h22.192
		c0.972,0,1.75-0.777,1.75-1.941v-4.869C90.796,30.501,90.018,29.529,89.046,29.529L89.046,29.529z M77.371,31.67
		c0.191,0.199,0.773,0.199,1.163,0l6.624-6.808c0.187-0.196,0.187-0.391,0.187-0.784c-0.187-0.194-0.38-0.388-0.577-0.388h-3.313
		V11.43c0-0.973-0.577-1.561-1.362-1.561h-4.285c-0.967,0-1.556,0.588-1.556,1.561v12.259h-3.11c-0.388,0-0.587,0.194-0.78,0.388
		c0,0.393,0,0.588,0.194,0.784L77.371,31.67z"/>
</g>
</svg>
