<!-- Generator: Adobe Illustrator 17.0.0, SVG Export Plug-In  -->
<svg version="1.1"
	 xmlns="http://www.w3.org/2000/svg" xmlns:xlink="http://www.w3.org/1999/xlink" xmlns:a="http://ns.adobe.com/AdobeSVGViewerExtensions/3.0/"
	 x="0px" y="0px" width="902.565px" height="242.555px" viewBox="0 0 902.565 242.555"
	 style="enable-background:new 0 0 902.565 242.555;" xml:space="preserve">
<style type="text/css">
	.st0{fill:#FFFFFF;stroke:#000000;stroke-width:3;stroke-miterlimit:10;}
	.st1{fill:#CCCCCC;}
	.st2{fill:none;stroke:#000000;stroke-miterlimit:10;}
	.st3{fill:#E54F26;}
	.st4{fill:none;stroke:#000000;stroke-linejoin:round;stroke-miterlimit:10;}
	.st5{fill:#FFFFFF;}
	.st6{fill:#E7E6E6;}
	.st7{fill:#A7A8AC;}
	.st8{fill:none;}
	.st9{fill:#282F39;}
</style>
<defs>
</defs>
<g>
	<rect x="1.5" y="42.533" class="st0" width="335.234" height="187.969"/>
	<g>
		<path d="M111.128,66.426V55.066h2.294v11.359H111.128z"/>
		<path d="M123.076,66.426h-2.177v-4.2c0-0.888-0.047-1.463-0.14-1.724s-0.244-0.464-0.453-0.608
			c-0.21-0.145-0.461-0.217-0.756-0.217c-0.377,0-0.716,0.104-1.015,0.31c-0.3,0.207-0.506,0.48-0.616,0.821
			c-0.111,0.341-0.167,0.972-0.167,1.891v3.728h-2.177v-8.229h2.021v1.209c0.719-0.93,1.622-1.395,2.713-1.395
			c0.48,0,0.919,0.087,1.317,0.26c0.397,0.173,0.698,0.394,0.902,0.662s0.346,0.573,0.426,0.914c0.08,0.342,0.12,0.829,0.12,1.465
			V66.426z"/>
		<path d="M125.083,66.968l2.487,0.303c0.041,0.289,0.137,0.488,0.287,0.597c0.206,0.155,0.531,0.232,0.976,0.232
			c0.568,0,0.995-0.085,1.279-0.256c0.19-0.113,0.336-0.297,0.434-0.55c0.067-0.182,0.101-0.515,0.101-1v-1.201
			c-0.65,0.889-1.472,1.333-2.464,1.333c-1.105,0-1.981-0.468-2.627-1.402c-0.506-0.739-0.759-1.658-0.759-2.759
			c0-1.379,0.331-2.433,0.995-3.161s1.489-1.093,2.476-1.093c1.018,0,1.857,0.447,2.519,1.341v-1.155h2.038v7.385
			c0,0.972-0.08,1.697-0.24,2.178s-0.385,0.857-0.674,1.131c-0.29,0.274-0.676,0.488-1.159,0.644
			c-0.482,0.155-1.094,0.232-1.832,0.232c-1.395,0-2.385-0.239-2.968-0.717c-0.584-0.478-0.876-1.084-0.876-1.817
			C125.075,67.159,125.078,67.071,125.083,66.968z M127.028,62.141c0,0.873,0.169,1.513,0.507,1.918
			c0.339,0.405,0.756,0.608,1.252,0.608c0.532,0,0.981-0.208,1.349-0.624c0.366-0.416,0.55-1.031,0.55-1.848
			c0-0.853-0.176-1.485-0.527-1.898c-0.351-0.413-0.795-0.62-1.332-0.62c-0.522,0-0.952,0.203-1.291,0.608
			C127.197,60.69,127.028,61.309,127.028,62.141z"/>
		<path d="M137.063,66.426h-2.178v-8.229h2.022v1.17c0.346-0.552,0.657-0.916,0.934-1.092s0.591-0.264,0.941-0.264
			c0.496,0,0.974,0.137,1.434,0.41l-0.674,1.898c-0.367-0.237-0.708-0.356-1.022-0.356c-0.306,0-0.563,0.084-0.775,0.252
			s-0.378,0.472-0.5,0.911c-0.121,0.438-0.182,1.358-0.182,2.758V66.426z"/>
		<path d="M145.919,63.807l2.17,0.364c-0.279,0.796-0.72,1.401-1.321,1.817s-1.354,0.623-2.259,0.623
			c-1.431,0-2.49-0.467-3.177-1.402c-0.543-0.749-0.813-1.694-0.813-2.836c0-1.363,0.356-2.432,1.069-3.204s1.614-1.158,2.704-1.158
			c1.225,0,2.19,0.404,2.898,1.213c0.707,0.809,1.046,2.047,1.015,3.715h-5.455c0.016,0.646,0.191,1.148,0.527,1.508
			c0.335,0.358,0.754,0.538,1.255,0.538c0.341,0,0.628-0.093,0.86-0.279C145.625,64.52,145.801,64.22,145.919,63.807z
			 M146.043,61.606c-0.016-0.631-0.178-1.109-0.488-1.438c-0.31-0.328-0.687-0.492-1.131-0.492c-0.476,0-0.868,0.173-1.178,0.519
			c-0.311,0.347-0.463,0.816-0.457,1.411H146.043z"/>
		<path d="M149.213,64.078l2.185-0.333c0.094,0.423,0.282,0.745,0.566,0.964c0.284,0.22,0.682,0.33,1.193,0.33
			c0.563,0,0.986-0.104,1.271-0.311c0.191-0.145,0.287-0.338,0.287-0.581c0-0.165-0.052-0.302-0.155-0.41
			c-0.108-0.104-0.352-0.199-0.729-0.287c-1.757-0.388-2.87-0.741-3.34-1.062c-0.65-0.444-0.977-1.062-0.977-1.852
			c0-0.713,0.282-1.313,0.845-1.798c0.563-0.485,1.437-0.729,2.619-0.729c1.126,0,1.963,0.184,2.511,0.55
			c0.548,0.367,0.925,0.909,1.131,1.628l-2.053,0.379c-0.088-0.32-0.255-0.565-0.5-0.735c-0.245-0.171-0.596-0.256-1.05-0.256
			c-0.573,0-0.984,0.08-1.232,0.24c-0.165,0.113-0.248,0.261-0.248,0.441c0,0.155,0.072,0.287,0.217,0.396
			c0.196,0.145,0.875,0.349,2.034,0.611c1.16,0.264,1.97,0.587,2.43,0.969c0.454,0.388,0.682,0.928,0.682,1.62
			c0,0.754-0.315,1.402-0.945,1.944c-0.63,0.543-1.563,0.813-2.797,0.813c-1.121,0-2.009-0.227-2.662-0.682
			C149.842,65.476,149.414,64.858,149.213,64.078z"/>
		<path d="M158.303,62.195c0-0.724,0.178-1.424,0.534-2.101s0.861-1.193,1.515-1.55s1.384-0.534,2.189-0.534
			c1.245,0,2.265,0.404,3.061,1.213s1.193,1.83,1.193,3.064c0,1.245-0.401,2.276-1.205,3.096c-0.803,0.818-1.814,1.228-3.033,1.228
			c-0.755,0-1.474-0.17-2.158-0.511s-1.205-0.841-1.562-1.5C158.48,63.942,158.303,63.141,158.303,62.195z M160.534,62.311
			c0,0.816,0.193,1.441,0.581,1.875s0.865,0.65,1.434,0.65s1.045-0.217,1.43-0.65s0.577-1.064,0.577-1.891
			c0-0.806-0.192-1.426-0.577-1.86c-0.385-0.434-0.861-0.65-1.43-0.65s-1.046,0.217-1.434,0.65
			C160.728,60.87,160.534,61.495,160.534,62.311z"/>
		<path d="M172.142,64.078l2.185-0.333c0.094,0.423,0.282,0.745,0.566,0.964c0.284,0.22,0.682,0.33,1.193,0.33
			c0.563,0,0.986-0.104,1.271-0.311c0.191-0.145,0.287-0.338,0.287-0.581c0-0.165-0.052-0.302-0.155-0.41
			c-0.108-0.104-0.352-0.199-0.729-0.287c-1.757-0.388-2.87-0.741-3.34-1.062c-0.65-0.444-0.977-1.062-0.977-1.852
			c0-0.713,0.282-1.313,0.845-1.798c0.563-0.485,1.437-0.729,2.619-0.729c1.126,0,1.963,0.184,2.511,0.55
			c0.548,0.367,0.925,0.909,1.131,1.628l-2.053,0.379c-0.088-0.32-0.255-0.565-0.5-0.735c-0.245-0.171-0.596-0.256-1.05-0.256
			c-0.573,0-0.984,0.08-1.232,0.24c-0.165,0.113-0.248,0.261-0.248,0.441c0,0.155,0.072,0.287,0.217,0.396
			c0.196,0.145,0.875,0.349,2.034,0.611c1.16,0.264,1.97,0.587,2.43,0.969c0.454,0.388,0.682,0.928,0.682,1.62
			c0,0.754-0.315,1.402-0.945,1.944c-0.63,0.543-1.563,0.813-2.797,0.813c-1.121,0-2.009-0.227-2.662-0.682
			C172.771,65.476,172.343,64.858,172.142,64.078z"/>
		<path d="M181.734,57.081v-2.015h2.178v2.015H181.734z M181.734,66.426v-8.229h2.178v8.229H181.734z"/>
		<path d="M185.377,64.078l2.185-0.333c0.094,0.423,0.282,0.745,0.566,0.964c0.284,0.22,0.682,0.33,1.193,0.33
			c0.563,0,0.986-0.104,1.271-0.311c0.191-0.145,0.287-0.338,0.287-0.581c0-0.165-0.052-0.302-0.155-0.41
			c-0.108-0.104-0.352-0.199-0.729-0.287c-1.757-0.388-2.87-0.741-3.34-1.062c-0.65-0.444-0.977-1.062-0.977-1.852
			c0-0.713,0.282-1.313,0.845-1.798c0.563-0.485,1.437-0.729,2.619-0.729c1.126,0,1.963,0.184,2.511,0.55
			c0.548,0.367,0.925,0.909,1.131,1.628l-2.053,0.379c-0.088-0.32-0.255-0.565-0.5-0.735c-0.245-0.171-0.596-0.256-1.05-0.256
			c-0.573,0-0.984,0.08-1.232,0.24c-0.165,0.113-0.248,0.261-0.248,0.441c0,0.155,0.072,0.287,0.217,0.396
			c0.196,0.145,0.875,0.349,2.034,0.611c1.16,0.264,1.97,0.587,2.43,0.969c0.454,0.388,0.682,0.928,0.682,1.62
			c0,0.754-0.315,1.402-0.945,1.944c-0.63,0.543-1.563,0.813-2.797,0.813c-1.121,0-2.009-0.227-2.662-0.682
			C186.006,65.476,185.578,64.858,185.377,64.078z"/>
		<path d="M198.744,58.196v1.736h-1.488v3.316c0,0.671,0.015,1.063,0.043,1.174s0.093,0.203,0.193,0.275s0.224,0.108,0.368,0.108
			c0.201,0,0.493-0.07,0.876-0.21l0.186,1.689c-0.506,0.217-1.08,0.325-1.72,0.325c-0.393,0-0.747-0.065-1.062-0.197
			c-0.315-0.132-0.547-0.302-0.694-0.512c-0.146-0.209-0.249-0.491-0.306-0.848c-0.047-0.254-0.069-0.765-0.069-1.535v-3.587h-1
			v-1.736h1v-1.635l2.185-1.271v2.905H198.744z"/>
		<path d="M205.02,63.807l2.17,0.364c-0.279,0.796-0.72,1.401-1.321,1.817s-1.354,0.623-2.259,0.623
			c-1.431,0-2.49-0.467-3.177-1.402c-0.543-0.749-0.813-1.694-0.813-2.836c0-1.363,0.356-2.432,1.069-3.204s1.614-1.158,2.704-1.158
			c1.225,0,2.19,0.404,2.898,1.213c0.707,0.809,1.046,2.047,1.015,3.715h-5.455c0.016,0.646,0.191,1.148,0.527,1.508
			c0.335,0.358,0.754,0.538,1.255,0.538c0.341,0,0.628-0.093,0.86-0.279C204.726,64.52,204.901,64.22,205.02,63.807z
			 M205.144,61.606c-0.016-0.631-0.178-1.109-0.488-1.438c-0.31-0.328-0.687-0.492-1.131-0.492c-0.476,0-0.868,0.173-1.178,0.519
			c-0.311,0.347-0.463,0.816-0.457,1.411H205.144z"/>
		<path d="M208.918,58.196h2.007v1.124c0.718-0.873,1.573-1.31,2.564-1.31c0.527,0,0.984,0.108,1.372,0.325
			c0.387,0.217,0.705,0.545,0.953,0.984c0.361-0.439,0.751-0.768,1.17-0.984c0.418-0.217,0.865-0.325,1.341-0.325
			c0.604,0,1.115,0.123,1.534,0.368c0.418,0.245,0.73,0.605,0.938,1.081c0.149,0.351,0.225,0.919,0.225,1.704v5.262h-2.178v-4.703
			c0-0.816-0.075-1.344-0.225-1.581c-0.201-0.31-0.512-0.465-0.93-0.465c-0.305,0-0.592,0.093-0.86,0.279
			c-0.269,0.186-0.462,0.458-0.581,0.817c-0.119,0.358-0.178,0.926-0.178,1.7v3.952h-2.178v-4.51c0-0.801-0.039-1.317-0.116-1.55
			c-0.078-0.232-0.197-0.405-0.36-0.52c-0.163-0.113-0.384-0.17-0.663-0.17c-0.335,0-0.638,0.09-0.906,0.271
			c-0.269,0.181-0.461,0.441-0.577,0.782s-0.175,0.906-0.175,1.697v3.998h-2.177V58.196z"/>
		<path d="M224.818,60.707l-1.977-0.356c0.223-0.795,0.604-1.384,1.147-1.767c0.542-0.382,1.348-0.573,2.417-0.573
			c0.972,0,1.694,0.115,2.17,0.345s0.81,0.521,1.004,0.876c0.193,0.354,0.29,1.003,0.29,1.948l-0.023,2.542
			c0,0.723,0.035,1.257,0.104,1.6c0.07,0.344,0.2,0.712,0.392,1.104h-2.154c-0.057-0.145-0.126-0.359-0.209-0.644
			c-0.036-0.129-0.062-0.214-0.077-0.255c-0.372,0.361-0.771,0.633-1.193,0.813c-0.424,0.181-0.876,0.271-1.356,0.271
			c-0.847,0-1.515-0.229-2.003-0.689s-0.732-1.041-0.732-1.743c0-0.465,0.111-0.88,0.333-1.244c0.223-0.364,0.534-0.643,0.935-0.837
			c0.399-0.193,0.978-0.362,1.731-0.507c1.018-0.191,1.723-0.369,2.115-0.535v-0.217c0-0.418-0.104-0.717-0.31-0.895
			c-0.207-0.179-0.597-0.268-1.17-0.268c-0.388,0-0.69,0.076-0.907,0.229S224.952,60.325,224.818,60.707z M227.731,62.474
			c-0.279,0.094-0.721,0.204-1.325,0.333c-0.604,0.13-0.999,0.256-1.186,0.38c-0.284,0.202-0.426,0.457-0.426,0.768
			c0,0.305,0.113,0.568,0.341,0.79c0.228,0.223,0.517,0.333,0.868,0.333c0.393,0,0.767-0.129,1.123-0.387
			c0.264-0.196,0.437-0.437,0.52-0.721c0.057-0.187,0.085-0.54,0.085-1.062V62.474z"/>
	</g>
	<g>
		<path class="st1" d="M29.928,101.521l1.03-2.17h1.828l-1.704,2.17H29.928z"/>
		<path class="st1" d="M39.907,107.759l1.371,0.179c-0.149,0.945-0.533,1.686-1.15,2.22c-0.617,0.535-1.375,0.802-2.274,0.802
			c-1.126,0-2.031-0.367-2.716-1.104s-1.026-1.791-1.026-3.166c0-0.888,0.147-1.666,0.441-2.332
			c0.295-0.666,0.742-1.166,1.345-1.499c0.602-0.333,1.256-0.5,1.964-0.5c0.894,0,1.625,0.226,2.193,0.678s0.932,1.094,1.092,1.926
			l-1.355,0.209c-0.129-0.553-0.357-0.969-0.686-1.247c-0.328-0.279-0.725-0.419-1.189-0.419c-0.703,0-1.273,0.252-1.713,0.756
			s-0.658,1.301-0.658,2.391c0,1.105,0.212,1.908,0.635,2.409c0.424,0.502,0.977,0.752,1.658,0.752c0.548,0,1.005-0.168,1.372-0.504
			C39.576,108.974,39.809,108.457,39.907,107.759z"/>
		<path class="st1" d="M47.842,109.759c-0.517,0.438-1.014,0.749-1.491,0.93c-0.479,0.181-0.991,0.271-1.539,0.271
			c-0.903,0-1.599-0.221-2.084-0.662s-0.729-1.006-0.729-1.693c0-0.402,0.092-0.771,0.275-1.104
			c0.184-0.334,0.424-0.601,0.721-0.803c0.297-0.201,0.631-0.354,1.003-0.457c0.274-0.072,0.688-0.142,1.24-0.209
			c1.126-0.135,1.955-0.295,2.487-0.48c0.005-0.191,0.008-0.313,0.008-0.364c0-0.568-0.132-0.969-0.396-1.201
			c-0.356-0.314-0.886-0.473-1.588-0.473c-0.656,0-1.141,0.115-1.453,0.345c-0.313,0.23-0.544,0.637-0.693,1.221l-1.364-0.186
			c0.124-0.584,0.328-1.056,0.612-1.415c0.284-0.358,0.694-0.635,1.232-0.829c0.537-0.193,1.159-0.29,1.867-0.29
			c0.702,0,1.273,0.083,1.712,0.248c0.439,0.165,0.763,0.373,0.969,0.624c0.207,0.25,0.352,0.566,0.435,0.949
			c0.046,0.237,0.069,0.666,0.069,1.286v1.859c0,1.297,0.029,2.117,0.089,2.46c0.06,0.344,0.177,0.673,0.353,0.988h-1.456
			C47.976,110.484,47.883,110.145,47.842,109.759z M47.726,106.644c-0.507,0.206-1.266,0.382-2.278,0.526
			c-0.573,0.083-0.979,0.176-1.217,0.279c-0.237,0.104-0.421,0.255-0.55,0.453c-0.129,0.199-0.193,0.42-0.193,0.663
			c0,0.371,0.141,0.682,0.422,0.93s0.693,0.372,1.236,0.372c0.537,0,1.015-0.118,1.434-0.353c0.418-0.235,0.726-0.557,0.922-0.965
			c0.149-0.315,0.225-0.78,0.225-1.396V106.644z"/>
		<path class="st1" d="M51.282,110.773v-8.229h1.256v1.248c0.32-0.584,0.616-0.969,0.887-1.154c0.271-0.187,0.569-0.279,0.896-0.279
			c0.47,0,0.947,0.149,1.434,0.449l-0.48,1.294c-0.341-0.201-0.683-0.302-1.023-0.302c-0.305,0-0.578,0.092-0.821,0.274
			c-0.242,0.184-0.416,0.438-0.519,0.764c-0.155,0.496-0.232,1.038-0.232,1.627v4.309H51.282z"/>
		<path class="st1" d="M56.551,110.773V99.414h1.396v11.359H56.551z"/>
		<path class="st1" d="M59.589,106.659c0-1.524,0.423-2.653,1.271-3.387c0.708-0.609,1.57-0.914,2.588-0.914
			c1.132,0,2.056,0.371,2.774,1.112c0.718,0.741,1.077,1.765,1.077,3.072c0,1.059-0.159,1.892-0.477,2.499
			c-0.318,0.606-0.78,1.078-1.388,1.414c-0.606,0.335-1.27,0.503-1.987,0.503c-1.152,0-2.083-0.369-2.793-1.107
			C59.943,109.112,59.589,108.049,59.589,106.659z M61.021,106.659c0,1.054,0.23,1.843,0.69,2.367
			c0.459,0.524,1.038,0.786,1.735,0.786c0.692,0,1.269-0.264,1.728-0.79c0.46-0.527,0.69-1.33,0.69-2.41
			c0-1.018-0.231-1.788-0.693-2.313c-0.463-0.524-1.037-0.787-1.725-0.787c-0.697,0-1.276,0.261-1.735,0.783
			C61.252,104.817,61.021,105.605,61.021,106.659z"/>
		<path class="st1" d="M68.376,108.317l1.379-0.217c0.078,0.553,0.293,0.976,0.647,1.271c0.354,0.294,0.849,0.441,1.483,0.441
			c0.641,0,1.116-0.13,1.426-0.392c0.311-0.261,0.465-0.566,0.465-0.918c0-0.314-0.137-0.563-0.41-0.744
			c-0.191-0.124-0.667-0.281-1.426-0.473c-1.023-0.258-1.732-0.481-2.127-0.67c-0.396-0.188-0.695-0.449-0.899-0.782
			c-0.204-0.334-0.306-0.701-0.306-1.104c0-0.367,0.084-0.706,0.252-1.019s0.396-0.572,0.686-0.779
			c0.217-0.16,0.513-0.296,0.888-0.406c0.374-0.111,0.775-0.167,1.204-0.167c0.646,0,1.213,0.093,1.701,0.279
			c0.488,0.186,0.849,0.438,1.081,0.755c0.232,0.318,0.393,0.743,0.48,1.274l-1.364,0.187c-0.062-0.424-0.241-0.754-0.538-0.992
			c-0.297-0.237-0.717-0.356-1.259-0.356c-0.641,0-1.099,0.106-1.372,0.318s-0.41,0.459-0.41,0.743c0,0.182,0.057,0.344,0.17,0.488
			c0.113,0.15,0.292,0.274,0.535,0.372c0.139,0.052,0.55,0.171,1.231,0.356c0.987,0.264,1.675,0.479,2.065,0.647
			c0.39,0.168,0.696,0.411,0.918,0.731s0.333,0.719,0.333,1.193c0,0.465-0.136,0.903-0.406,1.313
			c-0.271,0.411-0.663,0.729-1.174,0.953c-0.512,0.225-1.091,0.337-1.736,0.337c-1.069,0-1.884-0.222-2.444-0.666
			S68.531,109.19,68.376,108.317z"/>
		<path class="st1" d="M77.543,101.521l1.03-2.17h1.828l-1.704,2.17H77.543z"/>
		<path class="st1" d="M81.634,106.659c0-1.524,0.423-2.653,1.271-3.387c0.708-0.609,1.57-0.914,2.588-0.914
			c1.132,0,2.056,0.371,2.774,1.112c0.718,0.741,1.077,1.765,1.077,3.072c0,1.059-0.159,1.892-0.477,2.499
			c-0.318,0.606-0.78,1.078-1.388,1.414c-0.606,0.335-1.27,0.503-1.987,0.503c-1.152,0-2.083-0.369-2.793-1.107
			C81.988,109.112,81.634,108.049,81.634,106.659z M83.066,106.659c0,1.054,0.23,1.843,0.69,2.367
			c0.459,0.524,1.038,0.786,1.735,0.786c0.692,0,1.269-0.264,1.728-0.79c0.46-0.527,0.69-1.33,0.69-2.41
			c0-1.018-0.231-1.788-0.693-2.313c-0.463-0.524-1.037-0.787-1.725-0.787c-0.697,0-1.276,0.261-1.735,0.783
			C83.297,104.817,83.066,105.605,83.066,106.659z"/>
		<path class="st1" d="M90.963,110.773v-8.229h1.256v1.248c0.32-0.584,0.616-0.969,0.887-1.154c0.271-0.187,0.569-0.279,0.896-0.279
			c0.47,0,0.947,0.149,1.434,0.449l-0.48,1.294c-0.341-0.201-0.683-0.302-1.023-0.302c-0.305,0-0.578,0.092-0.821,0.274
			c-0.242,0.184-0.416,0.438-0.519,0.764c-0.155,0.496-0.232,1.038-0.232,1.627v4.309H90.963z"/>
		<path class="st1" d="M101.347,101.521l1.03-2.17h1.828l-1.704,2.17H101.347z"/>
		<path class="st1" d="M110.822,110.773h-1.395v-8.888c-0.336,0.32-0.776,0.641-1.321,0.961s-1.034,0.561-1.469,0.721v-1.349
			c0.78-0.366,1.462-0.811,2.046-1.333c0.584-0.521,0.997-1.027,1.24-1.519h0.898V110.773z"/>
		<path class="st1" d="M115.457,101.521l1.03-2.17h1.828l-1.704,2.17H115.457z"/>
		<path class="st1" d="M127.404,104.094h-7.5v-1.302h7.5V104.094z M127.404,107.542h-7.5v-1.302h7.5V107.542z"/>
		<path class="st1" d="M134.418,101.521l1.03-2.17h1.828l-1.704,2.17H134.418z"/>
		<path class="st1" d="M143.894,110.773h-1.395v-8.888c-0.336,0.32-0.776,0.641-1.321,0.961s-1.034,0.561-1.469,0.721v-1.349
			c0.78-0.366,1.462-0.811,2.046-1.333c0.584-0.521,0.997-1.027,1.24-1.519h0.898V110.773z"/>
		<path class="st1" d="M148.528,101.521l1.03-2.17h1.828l-1.704,2.17H148.528z"/>
		<path class="st1" d="M153.502,110.773v-1.589h1.589v1.589c0,0.584-0.104,1.055-0.311,1.414c-0.206,0.359-0.534,0.637-0.983,0.833
			l-0.388-0.597c0.294-0.129,0.512-0.319,0.65-0.569c0.14-0.251,0.218-0.611,0.232-1.081H153.502z M153.502,104.133v-1.589h1.589
			v1.589H153.502z"/>
		<path class="st1" d="M167.295,110.773v-1.038c-0.521,0.816-1.289,1.224-2.301,1.224c-0.656,0-1.26-0.181-1.81-0.542
			c-0.551-0.361-0.977-0.866-1.278-1.515c-0.303-0.648-0.454-1.394-0.454-2.235c0-0.821,0.138-1.566,0.411-2.236
			c0.273-0.669,0.685-1.182,1.232-1.538c0.547-0.356,1.159-0.534,1.836-0.534c0.496,0,0.938,0.104,1.325,0.313
			s0.702,0.482,0.945,0.817v-4.075h1.387v11.359H167.295z M162.886,106.667c0,1.054,0.223,1.841,0.667,2.363
			c0.444,0.521,0.969,0.782,1.572,0.782c0.61,0,1.128-0.249,1.554-0.748c0.427-0.498,0.64-1.259,0.64-2.281
			c0-1.127-0.217-1.953-0.651-2.479c-0.434-0.527-0.968-0.791-1.604-0.791c-0.62,0-1.138,0.253-1.554,0.76
			C163.094,104.778,162.886,105.577,162.886,106.667z"/>
		<path class="st1" d="M170.767,110.773v-8.229h1.256v1.248c0.32-0.584,0.616-0.969,0.887-1.154
			c0.271-0.187,0.569-0.279,0.896-0.279c0.47,0,0.947,0.149,1.434,0.449l-0.48,1.294c-0.341-0.201-0.683-0.302-1.023-0.302
			c-0.305,0-0.578,0.092-0.821,0.274c-0.242,0.184-0.416,0.438-0.519,0.764c-0.155,0.496-0.232,1.038-0.232,1.627v4.309H170.767z"/>
		<path class="st1" d="M175.548,106.659c0-1.524,0.423-2.653,1.271-3.387c0.708-0.609,1.57-0.914,2.588-0.914
			c1.132,0,2.056,0.371,2.774,1.112c0.718,0.741,1.077,1.765,1.077,3.072c0,1.059-0.159,1.892-0.477,2.499
			c-0.318,0.606-0.78,1.078-1.388,1.414c-0.606,0.335-1.27,0.503-1.987,0.503c-1.152,0-2.083-0.369-2.793-1.107
			C175.902,109.112,175.548,108.049,175.548,106.659z M176.98,106.659c0,1.054,0.23,1.843,0.69,2.367
			c0.459,0.524,1.038,0.786,1.735,0.786c0.692,0,1.269-0.264,1.728-0.79c0.46-0.527,0.69-1.33,0.69-2.41
			c0-1.018-0.231-1.788-0.693-2.313c-0.463-0.524-1.037-0.787-1.725-0.787c-0.697,0-1.276,0.261-1.735,0.783
			C177.211,104.817,176.98,105.605,176.98,106.659z"/>
		<path class="st1" d="M184.893,113.927v-11.383h1.271v1.069c0.3-0.418,0.639-0.732,1.016-0.941s0.834-0.313,1.371-0.313
			c0.703,0,1.322,0.181,1.86,0.542c0.537,0.362,0.942,0.872,1.216,1.53c0.274,0.659,0.411,1.381,0.411,2.166
			c0,0.842-0.151,1.601-0.453,2.274c-0.303,0.674-0.741,1.19-1.317,1.55s-1.182,0.538-1.817,0.538c-0.465,0-0.882-0.098-1.251-0.294
			c-0.37-0.196-0.673-0.444-0.911-0.744v4.006H184.893z M186.156,106.705c0,1.06,0.214,1.842,0.643,2.348
			c0.429,0.507,0.948,0.76,1.558,0.76c0.62,0,1.15-0.262,1.593-0.786c0.441-0.524,0.662-1.337,0.662-2.438
			c0-1.049-0.216-1.834-0.647-2.355c-0.431-0.521-0.946-0.782-1.546-0.782c-0.594,0-1.119,0.277-1.576,0.833
			C186.385,104.839,186.156,105.646,186.156,106.705z"/>
		<path class="st1" d="M201.174,109.526l0.201,1.231c-0.393,0.083-0.744,0.124-1.054,0.124c-0.507,0-0.899-0.08-1.178-0.24
			c-0.279-0.16-0.476-0.37-0.589-0.632c-0.114-0.261-0.171-0.81-0.171-1.646v-4.734h-1.022v-1.085h1.022v-2.037l1.387-0.837v2.874
			h1.403v1.085h-1.403v4.813c0,0.397,0.024,0.653,0.074,0.767c0.049,0.114,0.129,0.204,0.24,0.271
			c0.11,0.067,0.27,0.101,0.477,0.101C200.716,109.58,200.92,109.562,201.174,109.526z"/>
		<path class="st1" d="M207.907,109.759c-0.517,0.438-1.014,0.749-1.491,0.93c-0.479,0.181-0.991,0.271-1.539,0.271
			c-0.903,0-1.599-0.221-2.084-0.662s-0.729-1.006-0.729-1.693c0-0.402,0.092-0.771,0.275-1.104
			c0.184-0.334,0.424-0.601,0.721-0.803c0.297-0.201,0.631-0.354,1.003-0.457c0.274-0.072,0.688-0.142,1.24-0.209
			c1.126-0.135,1.955-0.295,2.487-0.48c0.005-0.191,0.008-0.313,0.008-0.364c0-0.568-0.132-0.969-0.396-1.201
			c-0.356-0.314-0.886-0.473-1.588-0.473c-0.656,0-1.141,0.115-1.453,0.345c-0.313,0.23-0.544,0.637-0.693,1.221l-1.364-0.186
			c0.124-0.584,0.328-1.056,0.612-1.415c0.284-0.358,0.694-0.635,1.232-0.829c0.537-0.193,1.159-0.29,1.867-0.29
			c0.702,0,1.273,0.083,1.712,0.248c0.439,0.165,0.763,0.373,0.969,0.624c0.207,0.25,0.352,0.566,0.435,0.949
			c0.046,0.237,0.069,0.666,0.069,1.286v1.859c0,1.297,0.029,2.117,0.089,2.46c0.06,0.344,0.177,0.673,0.353,0.988h-1.456
			C208.041,110.484,207.948,110.145,207.907,109.759z M207.791,106.644c-0.507,0.206-1.266,0.382-2.278,0.526
			c-0.573,0.083-0.979,0.176-1.217,0.279c-0.237,0.104-0.421,0.255-0.55,0.453c-0.129,0.199-0.193,0.42-0.193,0.663
			c0,0.371,0.141,0.682,0.422,0.93s0.693,0.372,1.236,0.372c0.537,0,1.015-0.118,1.434-0.353c0.418-0.235,0.726-0.557,0.922-0.965
			c0.149-0.315,0.225-0.78,0.225-1.396V106.644z"/>
		<path class="st1" d="M212.649,110.773h-1.294V99.414h1.395v4.053c0.59-0.739,1.341-1.108,2.255-1.108
			c0.507,0,0.985,0.102,1.438,0.306s0.824,0.491,1.116,0.86s0.521,0.815,0.686,1.337s0.248,1.079,0.248,1.674
			c0,1.41-0.349,2.5-1.046,3.27s-1.534,1.154-2.511,1.154c-0.971,0-1.733-0.405-2.286-1.216V110.773z M212.634,106.597
			c0,0.987,0.135,1.7,0.403,2.139c0.439,0.718,1.033,1.077,1.782,1.077c0.609,0,1.137-0.265,1.581-0.794s0.666-1.318,0.666-2.367
			c0-1.074-0.213-1.868-0.639-2.379c-0.427-0.512-0.942-0.768-1.546-0.768c-0.61,0-1.137,0.265-1.581,0.795
			C212.856,104.829,212.634,105.595,212.634,106.597z"/>
		<path class="st1" d="M220.158,110.773V99.414h1.396v11.359H220.158z"/>
		<path class="st1" d="M229.349,108.123l1.441,0.179c-0.228,0.842-0.648,1.495-1.264,1.96c-0.614,0.465-1.399,0.697-2.355,0.697
			c-1.204,0-2.158-0.37-2.863-1.111s-1.058-1.781-1.058-3.119c0-1.385,0.356-2.459,1.069-3.224s1.638-1.146,2.774-1.146
			c1.1,0,1.999,0.374,2.696,1.123c0.697,0.75,1.046,1.804,1.046,3.162c0,0.082-0.003,0.206-0.008,0.372h-6.137
			c0.052,0.903,0.308,1.596,0.767,2.076c0.46,0.48,1.033,0.721,1.721,0.721c0.512,0,0.948-0.134,1.31-0.403
			C228.85,109.142,229.137,108.712,229.349,108.123z M224.769,105.868h4.596c-0.063-0.691-0.238-1.211-0.527-1.558
			c-0.444-0.537-1.021-0.806-1.728-0.806c-0.641,0-1.18,0.215-1.616,0.644S224.815,105.15,224.769,105.868z"/>
		<path class="st1" d="M242.344,110.773v-1.209c-0.641,0.93-1.512,1.395-2.611,1.395c-0.486,0-0.939-0.093-1.36-0.278
			c-0.421-0.187-0.733-0.42-0.938-0.701c-0.204-0.282-0.348-0.627-0.43-1.035c-0.058-0.273-0.086-0.707-0.086-1.302v-5.099h1.396
			v4.564c0,0.729,0.028,1.219,0.085,1.472c0.088,0.367,0.273,0.655,0.558,0.864s0.636,0.314,1.054,0.314
			c0.419,0,0.812-0.107,1.178-0.322c0.367-0.214,0.627-0.506,0.779-0.875s0.229-0.905,0.229-1.608v-4.409h1.395v8.229H242.344z"/>
		<path class="st1" d="M245.219,108.317l1.379-0.217c0.078,0.553,0.293,0.976,0.647,1.271c0.354,0.294,0.849,0.441,1.483,0.441
			c0.641,0,1.116-0.13,1.426-0.392c0.311-0.261,0.465-0.566,0.465-0.918c0-0.314-0.137-0.563-0.41-0.744
			c-0.191-0.124-0.667-0.281-1.426-0.473c-1.023-0.258-1.732-0.481-2.127-0.67c-0.396-0.188-0.695-0.449-0.899-0.782
			c-0.204-0.334-0.306-0.701-0.306-1.104c0-0.367,0.084-0.706,0.252-1.019s0.396-0.572,0.686-0.779
			c0.217-0.16,0.513-0.296,0.888-0.406c0.374-0.111,0.775-0.167,1.204-0.167c0.646,0,1.213,0.093,1.701,0.279
			c0.488,0.186,0.849,0.438,1.081,0.755c0.232,0.318,0.393,0.743,0.48,1.274l-1.364,0.187c-0.062-0.424-0.241-0.754-0.538-0.992
			c-0.297-0.237-0.717-0.356-1.259-0.356c-0.641,0-1.099,0.106-1.372,0.318s-0.41,0.459-0.41,0.743c0,0.182,0.057,0.344,0.17,0.488
			c0.113,0.15,0.292,0.274,0.535,0.372c0.139,0.052,0.55,0.171,1.231,0.356c0.987,0.264,1.675,0.479,2.065,0.647
			c0.39,0.168,0.696,0.411,0.918,0.731s0.333,0.719,0.333,1.193c0,0.465-0.136,0.903-0.406,1.313
			c-0.271,0.411-0.663,0.729-1.174,0.953c-0.512,0.225-1.091,0.337-1.736,0.337c-1.069,0-1.884-0.222-2.444-0.666
			S245.374,109.19,245.219,108.317z"/>
		<path class="st1" d="M259.345,108.123l1.441,0.179c-0.228,0.842-0.648,1.495-1.264,1.96c-0.614,0.465-1.399,0.697-2.355,0.697
			c-1.204,0-2.158-0.37-2.863-1.111s-1.058-1.781-1.058-3.119c0-1.385,0.356-2.459,1.069-3.224s1.638-1.146,2.774-1.146
			c1.1,0,1.999,0.374,2.696,1.123c0.697,0.75,1.046,1.804,1.046,3.162c0,0.082-0.003,0.206-0.008,0.372h-6.137
			c0.052,0.903,0.308,1.596,0.767,2.076c0.46,0.48,1.033,0.721,1.721,0.721c0.512,0,0.948-0.134,1.31-0.403
			C258.846,109.142,259.133,108.712,259.345,108.123z M254.765,105.868h4.596c-0.063-0.691-0.238-1.211-0.527-1.558
			c-0.444-0.537-1.021-0.806-1.728-0.806c-0.641,0-1.18,0.215-1.616,0.644S254.812,105.15,254.765,105.868z"/>
		<path class="st1" d="M262.521,110.773v-8.229h1.256v1.248c0.32-0.584,0.616-0.969,0.887-1.154
			c0.271-0.187,0.569-0.279,0.896-0.279c0.47,0,0.947,0.149,1.434,0.449l-0.48,1.294c-0.341-0.201-0.683-0.302-1.023-0.302
			c-0.305,0-0.578,0.092-0.821,0.274c-0.242,0.184-0.416,0.438-0.519,0.764c-0.155,0.496-0.232,1.038-0.232,1.627v4.309H262.521z"/>
		<path class="st1" d="M267.264,108.317l1.379-0.217c0.078,0.553,0.293,0.976,0.647,1.271c0.354,0.294,0.849,0.441,1.483,0.441
			c0.641,0,1.116-0.13,1.426-0.392c0.311-0.261,0.465-0.566,0.465-0.918c0-0.314-0.137-0.563-0.41-0.744
			c-0.191-0.124-0.667-0.281-1.426-0.473c-1.023-0.258-1.732-0.481-2.127-0.67c-0.396-0.188-0.695-0.449-0.899-0.782
			c-0.204-0.334-0.306-0.701-0.306-1.104c0-0.367,0.084-0.706,0.252-1.019s0.396-0.572,0.686-0.779
			c0.217-0.16,0.513-0.296,0.888-0.406c0.374-0.111,0.775-0.167,1.204-0.167c0.646,0,1.213,0.093,1.701,0.279
			c0.488,0.186,0.849,0.438,1.081,0.755c0.232,0.318,0.393,0.743,0.48,1.274l-1.364,0.187c-0.062-0.424-0.241-0.754-0.538-0.992
			c-0.297-0.237-0.717-0.356-1.259-0.356c-0.641,0-1.099,0.106-1.372,0.318s-0.41,0.459-0.41,0.743c0,0.182,0.057,0.344,0.17,0.488
			c0.113,0.15,0.292,0.274,0.535,0.372c0.139,0.052,0.55,0.171,1.231,0.356c0.987,0.264,1.675,0.479,2.065,0.647
			c0.39,0.168,0.696,0.411,0.918,0.731s0.333,0.719,0.333,1.193c0,0.465-0.136,0.903-0.406,1.313
			c-0.271,0.411-0.663,0.729-1.174,0.953c-0.512,0.225-1.091,0.337-1.736,0.337c-1.069,0-1.884-0.222-2.444-0.666
			S267.419,109.19,267.264,108.317z"/>
		<path class="st1" d="M276.12,110.773v-1.589h1.589v1.589c0,0.584-0.104,1.055-0.311,1.414c-0.206,0.359-0.534,0.637-0.983,0.833
			l-0.388-0.597c0.294-0.129,0.512-0.319,0.65-0.569c0.14-0.251,0.218-0.611,0.232-1.081H276.12z M276.12,104.133v-1.589h1.589
			v1.589H276.12z"/>
	</g>
	<g>
		<path class="st1" d="M30.592,151.09v-1.589h1.588v1.589H30.592z"/>
		<path class="st1" d="M35.001,151.09v-1.589h1.588v1.589H35.001z"/>
		<path class="st1" d="M39.41,151.09v-1.589h1.588v1.589H39.41z"/>
		<path class="st1" d="M43.819,151.09v-1.589h1.588v1.589H43.819z"/>
		<path class="st1" d="M48.229,151.09v-1.589h1.588v1.589H48.229z"/>
		<path class="st1" d="M52.638,151.09v-1.589h1.588v1.589H52.638z"/>
		<path class="st1" d="M57.047,151.09v-1.589h1.588v1.589H57.047z"/>
		<path class="st1" d="M61.456,151.09v-1.589h1.588v1.589H61.456z"/>
		<path class="st1" d="M65.865,151.09v-1.589h1.588v1.589H65.865z"/>
		<path class="st1" d="M70.274,151.09v-1.589h1.588v1.589H70.274z"/>
		<path class="st1" d="M74.684,151.09v-1.589h1.588v1.589H74.684z"/>
		<path class="st1" d="M79.093,151.09v-1.589h1.588v1.589H79.093z"/>
		<path class="st1" d="M83.502,151.09v-1.589h1.588v1.589H83.502z"/>
		<path class="st1" d="M87.911,151.09v-1.589h1.588v1.589H87.911z"/>
		<path class="st1" d="M92.32,151.09v-1.589h1.588v1.589H92.32z"/>
		<path class="st1" d="M96.729,151.09v-1.589h1.588v1.589H96.729z"/>
		<path class="st1" d="M101.139,151.09v-1.589h1.588v1.589H101.139z"/>
		<path class="st1" d="M105.548,151.09v-1.589h1.588v1.589H105.548z"/>
		<path class="st1" d="M109.957,151.09v-1.589h1.588v1.589H109.957z"/>
		<path class="st1" d="M114.366,151.09v-1.589h1.588v1.589H114.366z"/>
		<path class="st1" d="M118.775,151.09v-1.589h1.588v1.589H118.775z"/>
		<path class="st1" d="M123.185,151.09v-1.589h1.588v1.589H123.185z"/>
		<path class="st1" d="M127.594,151.09v-1.589h1.588v1.589H127.594z"/>
		<path class="st1" d="M132.003,151.09v-1.589h1.588v1.589H132.003z"/>
		<path class="st1" d="M136.412,151.09v-1.589H138v1.589H136.412z"/>
		<path class="st1" d="M140.821,151.09v-1.589h1.588v1.589H140.821z"/>
	</g>
	<line class="st2" x1="23.418" y1="80.649" x2="317.728" y2="80.649"/>
	<path class="st3" d="M116.146,189.168c0,7.423-0.643,13.44-8.064,13.44H31.48c-7.422,0-8.063-6.017-8.063-13.44l0,0
		c0-7.423,0.641-13.439,8.063-13.439h76.602C115.504,175.729,116.146,181.745,116.146,189.168L116.146,189.168z"/>
	<path class="st4" d="M317.874,107.527c0,8.905-1.845,10.75-10.751,10.75H32.971c-8.905,0-10.75-1.845-10.75-10.75v-5.376
		c0-8.905,1.845-10.75,10.75-10.75h274.152c8.906,0,10.751,1.845,10.751,10.75V107.527z"/>
	<path class="st4" d="M317.874,150.764c0,8.906-1.845,10.751-10.751,10.751H32.971c-8.905,0-10.75-1.845-10.75-10.751v-5.375
		c0-8.906,1.845-10.752,10.75-10.752h274.152c8.906,0,10.751,1.846,10.751,10.752V150.764z"/>
	<g>
		<path class="st5" d="M31.963,194.094v-11.359h1.503v11.359H31.963z"/>
		<path class="st5" d="M35.938,194.094v-8.229h1.256v1.17c0.604-0.903,1.477-1.355,2.619-1.355c0.495,0,0.951,0.089,1.367,0.268
			c0.416,0.178,0.728,0.412,0.934,0.701c0.207,0.289,0.352,0.633,0.434,1.03c0.052,0.259,0.078,0.71,0.078,1.356v5.06H41.23v-5.006
			c0-0.568-0.055-0.993-0.163-1.274s-0.301-0.506-0.577-0.674s-0.601-0.252-0.973-0.252c-0.594,0-1.106,0.188-1.538,0.565
			s-0.647,1.093-0.647,2.146v4.494H35.938z"/>
		<path class="st5" d="M44.508,194.775l1.356,0.202c0.057,0.418,0.214,0.723,0.473,0.914c0.346,0.258,0.818,0.388,1.418,0.388
			c0.646,0,1.145-0.13,1.495-0.388c0.352-0.259,0.589-0.62,0.713-1.085c0.072-0.284,0.106-0.881,0.102-1.79
			c-0.61,0.718-1.369,1.077-2.278,1.077c-1.132,0-2.007-0.408-2.627-1.225c-0.62-0.815-0.93-1.795-0.93-2.937
			c0-0.785,0.142-1.51,0.426-2.174c0.284-0.663,0.696-1.176,1.236-1.538c0.539-0.361,1.174-0.542,1.902-0.542
			c0.971,0,1.771,0.393,2.401,1.178v-0.992h1.287v7.113c0,1.281-0.131,2.189-0.392,2.724c-0.261,0.535-0.674,0.957-1.24,1.268
			c-0.565,0.31-1.262,0.465-2.088,0.465c-0.981,0-1.774-0.221-2.379-0.663C44.779,196.329,44.487,195.664,44.508,194.775z
			 M45.663,189.832c0,1.08,0.214,1.867,0.643,2.363s0.966,0.744,1.612,0.744c0.64,0,1.178-0.247,1.611-0.74s0.651-1.267,0.651-2.32
			c0-1.008-0.224-1.768-0.671-2.278c-0.446-0.512-0.985-0.768-1.615-0.768c-0.62,0-1.147,0.252-1.581,0.756
			S45.663,188.84,45.663,189.832z"/>
		<path class="st5" d="M53.574,194.094v-8.229h1.256v1.248c0.32-0.584,0.616-0.969,0.887-1.154c0.271-0.187,0.569-0.279,0.896-0.279
			c0.47,0,0.947,0.149,1.434,0.449l-0.48,1.294c-0.341-0.201-0.683-0.302-1.023-0.302c-0.305,0-0.578,0.092-0.821,0.274
			c-0.242,0.184-0.416,0.438-0.519,0.764c-0.155,0.496-0.232,1.038-0.232,1.627v4.309H53.574z"/>
		<path class="st5" d="M64.508,191.443l1.441,0.179c-0.228,0.842-0.648,1.495-1.264,1.96c-0.614,0.465-1.399,0.697-2.355,0.697
			c-1.204,0-2.158-0.37-2.863-1.111s-1.058-1.781-1.058-3.119c0-1.385,0.356-2.459,1.069-3.224s1.638-1.146,2.774-1.146
			c1.1,0,1.999,0.374,2.696,1.123c0.697,0.75,1.046,1.804,1.046,3.162c0,0.082-0.003,0.206-0.008,0.372h-6.137
			c0.052,0.903,0.308,1.596,0.767,2.076c0.46,0.48,1.033,0.721,1.721,0.721c0.512,0,0.948-0.134,1.31-0.403
			C64.009,192.462,64.296,192.032,64.508,191.443z M59.928,189.188h4.596c-0.063-0.691-0.238-1.211-0.527-1.558
			c-0.444-0.537-1.021-0.806-1.728-0.806c-0.641,0-1.18,0.215-1.616,0.644S59.975,188.471,59.928,189.188z"/>
		<path class="st5" d="M67.143,191.638l1.379-0.217c0.078,0.553,0.293,0.976,0.647,1.271c0.354,0.294,0.849,0.441,1.483,0.441
			c0.641,0,1.116-0.13,1.426-0.392c0.311-0.261,0.465-0.566,0.465-0.918c0-0.314-0.137-0.563-0.41-0.744
			c-0.191-0.124-0.667-0.281-1.426-0.473c-1.023-0.258-1.732-0.481-2.127-0.67c-0.396-0.188-0.695-0.449-0.899-0.782
			c-0.204-0.334-0.306-0.701-0.306-1.104c0-0.367,0.084-0.706,0.252-1.019s0.396-0.572,0.686-0.779
			c0.217-0.16,0.513-0.296,0.888-0.406c0.374-0.111,0.775-0.167,1.204-0.167c0.646,0,1.213,0.093,1.701,0.279
			c0.488,0.186,0.849,0.438,1.081,0.755c0.232,0.318,0.393,0.743,0.48,1.274l-1.364,0.187c-0.062-0.424-0.241-0.754-0.538-0.992
			c-0.297-0.237-0.717-0.356-1.259-0.356c-0.641,0-1.099,0.106-1.372,0.318s-0.41,0.459-0.41,0.743c0,0.182,0.057,0.344,0.17,0.488
			c0.113,0.15,0.292,0.274,0.535,0.372c0.139,0.052,0.55,0.171,1.231,0.356c0.987,0.264,1.675,0.479,2.065,0.647
			c0.39,0.168,0.696,0.411,0.918,0.731s0.333,0.719,0.333,1.193c0,0.465-0.136,0.903-0.406,1.313
			c-0.271,0.411-0.663,0.729-1.174,0.953c-0.512,0.225-1.091,0.337-1.736,0.337c-1.069,0-1.884-0.222-2.444-0.666
			S67.298,192.511,67.143,191.638z"/>
		<path class="st5" d="M81.005,193.079c-0.517,0.438-1.014,0.749-1.491,0.93c-0.479,0.181-0.991,0.271-1.539,0.271
			c-0.903,0-1.599-0.221-2.084-0.662s-0.729-1.006-0.729-1.693c0-0.402,0.092-0.771,0.275-1.104
			c0.184-0.334,0.424-0.601,0.721-0.803c0.297-0.201,0.631-0.354,1.003-0.457c0.274-0.072,0.688-0.142,1.24-0.209
			c1.126-0.135,1.955-0.295,2.487-0.48c0.005-0.191,0.008-0.313,0.008-0.364c0-0.568-0.132-0.969-0.396-1.201
			c-0.356-0.314-0.886-0.473-1.588-0.473c-0.656,0-1.141,0.115-1.453,0.345c-0.313,0.23-0.544,0.637-0.693,1.221l-1.364-0.186
			c0.124-0.584,0.328-1.056,0.612-1.415c0.284-0.358,0.694-0.635,1.232-0.829c0.537-0.193,1.159-0.29,1.867-0.29
			c0.702,0,1.273,0.083,1.712,0.248c0.439,0.165,0.763,0.373,0.969,0.624c0.207,0.25,0.352,0.566,0.435,0.949
			c0.046,0.237,0.069,0.666,0.069,1.286v1.859c0,1.297,0.029,2.117,0.089,2.46c0.06,0.344,0.177,0.673,0.353,0.988h-1.456
			C81.139,193.805,81.046,193.466,81.005,193.079z M80.889,189.964c-0.507,0.206-1.266,0.382-2.278,0.526
			c-0.573,0.083-0.979,0.176-1.217,0.279c-0.237,0.104-0.421,0.255-0.55,0.453c-0.129,0.199-0.193,0.42-0.193,0.663
			c0,0.371,0.141,0.682,0.422,0.93s0.693,0.372,1.236,0.372c0.537,0,1.015-0.118,1.434-0.353c0.418-0.235,0.726-0.557,0.922-0.965
			c0.149-0.315,0.225-0.78,0.225-1.396V189.964z"/>
		<path class="st5" d="M84.445,194.094v-8.229h1.256v1.248c0.32-0.584,0.616-0.969,0.887-1.154c0.271-0.187,0.569-0.279,0.896-0.279
			c0.47,0,0.947,0.149,1.434,0.449l-0.48,1.294c-0.341-0.201-0.683-0.302-1.023-0.302c-0.305,0-0.578,0.092-0.821,0.274
			c-0.242,0.184-0.416,0.438-0.519,0.764c-0.155,0.496-0.232,1.038-0.232,1.627v4.309H84.445z"/>
	</g>
	<g>
		<g>
			<path class="st5" d="M102.035,188.908c1.848,0,3.346-1.821,3.346-4.066c0-2.244-0.492-4.063-3.346-4.063
				c-2.854,0-3.346,1.818-3.346,4.063C98.689,187.087,100.188,188.908,102.035,188.908z"/>
			<path class="st5" d="M95.717,195.109C95.715,194.975,95.715,195.072,95.717,195.109L95.717,195.109z"/>
			<path class="st5" d="M108.353,195.218C108.355,195.182,108.353,194.959,108.353,195.218L108.353,195.218z"/>
			<path class="st5" d="M108.348,194.948c-0.063-3.911-0.572-5.023-4.48-5.73c0,0-0.552,0.702-1.832,0.702
				c-1.281,0-1.831-0.702-1.831-0.702c-3.865,0.698-4.407,1.794-4.477,5.603c-0.009,0.311-0.011,0.327-0.011,0.289
				c0,0.068,0,0.193,0,0.412c0,0,0.93,1.876,6.318,1.876c5.389,0,6.317-1.876,6.317-1.876c0-0.141,0-0.237,0-0.304
				C108.353,195.24,108.35,195.197,108.348,194.948z"/>
		</g>
	</g>
</g>
<g>
	<g>
		<g>
			<rect x="535.981" y="14.818" class="st5" width="238.248" height="155.716"/>
		</g>
		<g>
			<path d="M774.229,171.364H535.982c-0.46,0-0.831-0.371-0.831-0.83V14.818c0-0.46,0.371-0.83,0.831-0.83h238.248
				c0.46,0,0.832,0.37,0.832,0.83v155.716C775.062,170.993,774.69,171.364,774.229,171.364z M536.81,169.703H773.4V15.647H536.81
				V169.703z"/>
		</g>
	</g>
	<g>
		<path class="st3" d="M788.672,7.824c0,3.861-3.131,6.994-6.997,6.994H528.534c-3.862,0-6.994-3.133-6.994-6.994l0,0
			c0-3.864,3.132-6.994,6.994-6.994h253.141C785.541,0.83,788.672,3.96,788.672,7.824L788.672,7.824z"/>
		<path d="M781.675,15.647H528.534c-4.311,0-7.823-3.509-7.823-7.823c0-4.314,3.512-7.824,7.823-7.824h253.141
			c4.315,0,7.826,3.511,7.826,7.824C789.501,12.139,785.99,15.647,781.675,15.647z M528.534,1.659c-3.398,0-6.164,2.766-6.164,6.165
			c0,3.398,2.766,6.164,6.164,6.164h253.141c3.402,0,6.168-2.766,6.168-6.164c0-3.399-2.766-6.165-6.168-6.165H528.534z"/>
	</g>
	<g>
		<rect x="521.54" y="170.534" width="267.132" height="8.92"/>
		<path class="st3" d="M788.672,180.285H521.54c-0.458,0-0.829-0.371-0.829-0.831v-8.92c0-0.459,0.371-0.831,0.829-0.831h267.132
			c0.459,0,0.829,0.372,0.829,0.831v8.92C789.501,179.914,789.131,180.285,788.672,180.285z M522.37,178.624h265.473v-7.26H522.37
			V178.624z"/>
	</g>
	<g>
		<rect x="509.359" y="179.454" width="291.494" height="8.919"/>
		<path class="st3" d="M800.854,189.203H509.359c-0.458,0-0.829-0.372-0.829-0.83v-8.919c0-0.458,0.371-0.83,0.829-0.83h291.494
			c0.459,0,0.831,0.372,0.831,0.83v8.919C801.685,188.831,801.313,189.203,800.854,189.203z M510.189,187.543h289.836v-7.258
			H510.189V187.543z"/>
	</g>
	<g>
		<g>
			<path d="M715.873,92.681c0,33.557-27.204,60.761-60.763,60.761c-33.555,0-60.771-27.204-60.771-60.761
				c0-33.561,27.216-60.762,60.771-60.762C688.669,31.919,715.873,59.12,715.873,92.681z"/>
		</g>
		<g>
			<path class="st3" d="M655.11,154.27c-33.966,0-61.601-27.63-61.601-61.59c0-33.962,27.635-61.592,61.601-61.592
				c33.962,0,61.593,27.63,61.593,61.592C716.703,126.641,689.072,154.27,655.11,154.27z M655.11,32.749
				c-33.053,0-59.94,26.885-59.94,59.932c0,33.045,26.888,59.93,59.94,59.93c33.047,0,59.934-26.885,59.934-59.93
				C715.044,59.634,688.157,32.749,655.11,32.749z"/>
		</g>
	</g>
	<g>
		<path d="M748.658,93.51h-32.785c-0.459,0-0.829-0.371-0.829-0.829s0.37-0.83,0.829-0.83h32.785c0.46,0,0.831,0.372,0.831,0.83
			S749.118,93.51,748.658,93.51z"/>
	</g>
	<g>
		<path d="M594.34,93.51h-32.79c-0.459,0-0.829-0.371-0.829-0.829s0.37-0.83,0.829-0.83h32.79c0.459,0,0.83,0.372,0.83,0.83
			S594.799,93.51,594.34,93.51z"/>
	</g>
	<g>
		<rect x="648.567" y="188.376" class="st6" width="13.085" height="30.38"/>
		<path d="M661.652,219.586h-13.085c-0.459,0-0.83-0.371-0.83-0.83v-30.38c0-0.46,0.371-0.83,0.83-0.83h13.085
			c0.458,0,0.831,0.37,0.831,0.83v30.38C662.483,219.215,662.11,219.586,661.652,219.586z M649.398,217.926h11.425v-28.719h-11.425
			V217.926z"/>
	</g>
	<g>
		<rect x="639.643" y="218.756" class="st7" width="30.239" height="7.56"/>
		<path d="M669.882,227.145h-30.239c-0.46,0-0.831-0.371-0.831-0.829v-7.56c0-0.459,0.371-0.83,0.831-0.83h30.239
			c0.459,0,0.83,0.371,0.83,0.83v7.56C670.712,226.773,670.341,227.145,669.882,227.145z M640.474,225.485h28.577v-5.899h-28.577
			V225.485z"/>
	</g>
	<g>
		<rect x="619.14" y="226.315" class="st7" width="71.941" height="11.731"/>
		<path d="M691.081,238.877H619.14c-0.459,0-0.829-0.371-0.829-0.831v-11.73c0-0.458,0.37-0.83,0.829-0.83h71.941
			c0.459,0,0.83,0.372,0.83,0.83v11.73C691.911,238.506,691.54,238.877,691.081,238.877z M619.97,237.215h70.281v-10.07H619.97
			V237.215z"/>
	</g>
	<g>
		<path class="st5" d="M619.14,238.877h-18.635c-0.459,0-0.829-0.371-0.829-0.831c0-0.46,0.37-0.831,0.829-0.831h18.635
			c0.46,0,0.83,0.371,0.83,0.831C619.97,238.506,619.6,238.877,619.14,238.877z"/>
	</g>
	<g>
		<path class="st5" d="M706.546,238.877h-15.465c-0.458,0-0.83-0.371-0.83-0.831c0-0.46,0.372-0.831,0.83-0.831h15.465
			c0.46,0,0.831,0.371,0.831,0.831C707.377,238.506,707.006,238.877,706.546,238.877z"/>
	</g>
	<g>
		<path class="st5" d="M716.136,238.877h-5.359c-0.459,0-0.83-0.371-0.83-0.831c0-0.46,0.371-0.831,0.83-0.831h5.359
			c0.459,0,0.829,0.371,0.829,0.831C716.965,238.506,716.595,238.877,716.136,238.877z"/>
	</g>
	<g>
		<path d="M587.078,239.037h-83.262c-0.189,0-0.365-0.064-0.506-0.173l-20.305-11.722c-0.257-0.146-0.414-0.422-0.414-0.718
			c0-0.298,0.157-0.57,0.414-0.72l20.317-11.727c0.137-0.105,0.309-0.167,0.493-0.167h83.262c0.459,0,0.831,0.372,0.831,0.829
			v23.566C587.909,238.666,587.537,239.037,587.078,239.037z M504.053,237.377h82.197v-21.904h-82.193l-18.975,10.952
			L504.053,237.377z"/>
	</g>
	<g>
		<path d="M503.816,242.555c-0.458,0-0.828-0.369-0.828-0.828v-30.605c0-0.459,0.37-0.83,0.828-0.83s0.831,0.371,0.831,0.83v30.605
			C504.647,242.186,504.274,242.555,503.816,242.555z"/>
	</g>
	<g>
		<path d="M811.146,83.191h-22.474c-0.459,0-0.829-0.371-0.829-0.83s0.37-0.83,0.829-0.83h22.474c0.459,0,0.829,0.371,0.829,0.83
			S811.604,83.191,811.146,83.191z"/>
	</g>
	<g>
		<path d="M825.049,83.191h-8.923c-0.458,0-0.83-0.371-0.83-0.83s0.372-0.83,0.83-0.83h8.923c0.46,0,0.83,0.371,0.83,0.83
			S825.509,83.191,825.049,83.191z"/>
	</g>
	<g>
		<path d="M833.659,83.191h-4.355c-0.459,0-0.83-0.371-0.83-0.83s0.371-0.83,0.83-0.83h4.355c0.458,0,0.83,0.371,0.83,0.83
			S834.117,83.191,833.659,83.191z"/>
	</g>
	<g>
		<path d="M499.949,83.191h22.474c0.458,0,0.83-0.371,0.83-0.83s-0.372-0.83-0.83-0.83h-22.474c-0.458,0-0.83,0.371-0.83,0.83
			S499.491,83.191,499.949,83.191z"/>
	</g>
	<g>
		<path d="M486.047,83.191h8.923c0.458,0,0.83-0.371,0.83-0.83s-0.372-0.83-0.83-0.83h-8.923c-0.459,0-0.83,0.371-0.83,0.83
			S485.588,83.191,486.047,83.191z"/>
	</g>
	<g>
		<path d="M477.436,83.191h4.357c0.458,0,0.83-0.371,0.83-0.83s-0.372-0.83-0.83-0.83h-4.357c-0.457,0-0.829,0.371-0.829,0.83
			S476.978,83.191,477.436,83.191z"/>
	</g>
	<g>
		<path d="M426.857,242.555c-0.459,0-0.83-0.369-0.83-0.828v-27.147c0-0.457,0.371-0.829,0.83-0.829c0.459,0,0.83,0.372,0.83,0.829
			v27.147C427.686,242.186,427.315,242.555,426.857,242.555z"/>
	</g>
	<g>
		<path d="M457.826,242.555c-0.458,0-0.829-0.369-0.829-0.828v-27.147c0-0.457,0.371-0.829,0.829-0.829
			c0.46,0,0.83,0.372,0.83,0.829v27.147C458.656,242.186,458.286,242.555,457.826,242.555z"/>
	</g>
	<g>
		<path class="st8" d="M443.386,196.008c-0.345,0.025-0.693,0.047-1.042,0.047C442.692,196.055,443.041,196.041,443.386,196.008z"/>
	</g>
	<g>
		<path class="st8" d="M442.344,196.055c-0.35,0-0.697-0.021-1.041-0.047C441.645,196.041,441.994,196.055,442.344,196.055z"/>
	</g>
	<g>
		<path d="M469.785,242.555h-54.886c-0.46,0-0.83-0.369-0.83-0.828v-42.449c0-0.46,0.37-0.831,0.83-0.831h17.448l1.777-5.122
			c0.085-0.25,0.286-0.443,0.538-0.521c0.256-0.074,0.529-0.029,0.739,0.126c1.747,1.291,3.81,2.071,5.969,2.251
			c0.651,0.063,1.291,0.066,1.933,0c2.172-0.182,4.234-0.96,5.978-2.25c0.211-0.16,0.485-0.207,0.738-0.127
			c0.253,0.078,0.454,0.271,0.54,0.521l1.779,5.122h17.445c0.46,0,0.831,0.371,0.831,0.831v42.449
			C470.616,242.186,470.245,242.555,469.785,242.555z M415.728,240.896h53.228v-40.79h-17.207c-0.352,0-0.667-0.224-0.782-0.558
			l-1.62-4.66c-1.781,1.103-3.797,1.77-5.893,1.944c-0.726,0.071-1.5,0.073-2.233-0.001c-2.085-0.174-4.1-0.841-5.883-1.941
			l-1.616,4.658c-0.115,0.334-0.43,0.558-0.783,0.558h-17.21V240.896z"/>
	</g>
	<g>
		<path d="M442.344,196.884c-0.374,0-0.742-0.021-1.108-0.051c-0.45-0.042-0.876-0.113-1.297-0.2
			c-2.036-0.369-3.9-1.169-5.524-2.371c-0.286-0.21-0.564-0.43-0.826-0.661c-2.93-2.544-4.612-6.22-4.612-10.085v-12.369
			c0-0.459,0.371-0.83,0.83-0.83h25.074c0.46,0,0.832,0.371,0.832,0.83v12.369c0,3.863-1.685,7.54-4.617,10.09
			c-0.264,0.229-0.539,0.448-0.824,0.658c-1.601,1.184-3.518,2.005-5.543,2.373c-0.402,0.083-0.828,0.154-1.264,0.196
			C443.084,196.862,442.714,196.884,442.344,196.884z M430.636,171.976v11.54c0,3.383,1.473,6.604,4.042,8.834
			c0.233,0.205,0.477,0.395,0.725,0.579c1.418,1.052,3.049,1.747,4.85,2.074c0.385,0.079,0.753,0.142,1.128,0.177
			c0.616,0.053,1.289,0.053,1.939,0c0.361-0.035,0.728-0.098,1.091-0.171c1.797-0.327,3.475-1.047,4.872-2.079
			c0.25-0.186,0.49-0.377,0.723-0.578c2.572-2.232,4.045-5.454,4.045-8.836v-11.54H430.636z"/>
	</g>
	<g>
		<path d="M728.726,238.207v-23.566c0-0.457,0.372-0.829,0.832-0.829h83.262c0.186,0,0.356,0.062,0.492,0.167l20.318,11.727
			c0.256,0.15,0.414,0.422,0.414,0.72c0,0.296-0.158,0.571-0.414,0.718l-20.307,11.722c-0.14,0.108-0.315,0.173-0.504,0.173h-83.262
			C729.098,239.037,728.726,238.666,728.726,238.207z M831.552,226.425l-18.974-10.952h-82.193v21.904h82.197L831.552,226.425z"/>
	</g>
	<g>
		<path d="M812.819,242.555c0.457,0,0.828-0.369,0.828-0.828v-30.605c0-0.459-0.371-0.83-0.828-0.83c-0.46,0-0.832,0.371-0.832,0.83
			v30.605C811.987,242.186,812.359,242.555,812.819,242.555z"/>
	</g>
	<g>
		<path d="M894.054,242.555c0.459,0,0.831-0.369,0.831-0.828v-27.147c0-0.457-0.372-0.829-0.831-0.829s-0.83,0.372-0.83,0.829
			v27.147C893.224,242.186,893.595,242.555,894.054,242.555z"/>
	</g>
	<g>
		<path d="M858.808,242.555c0.459,0,0.83-0.369,0.83-0.828v-27.147c0-0.457-0.371-0.829-0.83-0.829
			c-0.459,0-0.831,0.372-0.831,0.829v27.147C857.977,242.186,858.349,242.555,858.808,242.555z"/>
	</g>
	<g>
		<path d="M873.25,196.008c0.344,0.025,0.694,0.047,1.042,0.047C873.944,196.055,873.594,196.041,873.25,196.008z"/>
	</g>
	<g>
		<path d="M874.292,196.055c0.35,0,0.697-0.021,1.041-0.047C874.989,196.041,874.642,196.055,874.292,196.055z"/>
	</g>
	<g>
		<path d="M846.019,241.727v-42.449c0-0.46,0.371-0.831,0.83-0.831h17.445l1.779-5.122c0.088-0.25,0.289-0.443,0.541-0.521
			c0.252-0.08,0.525-0.033,0.738,0.127c1.744,1.29,3.807,2.068,5.979,2.25c0.642,0.066,1.281,0.063,1.933,0
			c2.158-0.18,4.222-0.96,5.969-2.251c0.21-0.155,0.483-0.2,0.739-0.126c0.252,0.078,0.453,0.271,0.539,0.521l1.776,5.122h17.448
			c0.459,0,0.83,0.371,0.83,0.831v42.449c0,0.459-0.371,0.828-0.83,0.828h-54.887C846.39,242.555,846.019,242.186,846.019,241.727z
			 M900.905,200.106h-17.209c-0.354,0-0.668-0.224-0.783-0.558l-1.617-4.658c-1.782,1.101-3.797,1.768-5.882,1.941
			c-0.733,0.074-1.508,0.072-2.233,0.001c-2.094-0.175-4.112-0.842-5.893-1.944l-1.619,4.66c-0.115,0.334-0.432,0.558-0.783,0.558
			h-17.205v40.79h53.225V200.106z"/>
	</g>
	<g>
		<path d="M873.17,196.833c-0.434-0.042-0.86-0.113-1.263-0.196c-2.025-0.368-3.943-1.189-5.543-2.373
			c-0.285-0.21-0.559-0.43-0.825-0.658c-2.931-2.55-4.616-6.226-4.616-10.09v-12.369c0-0.459,0.371-0.83,0.83-0.83h25.076
			c0.459,0,0.83,0.371,0.83,0.83v12.369c0,3.865-1.681,7.541-4.611,10.085c-0.264,0.231-0.541,0.451-0.828,0.661
			c-1.623,1.202-3.486,2.002-5.523,2.371c-0.421,0.087-0.849,0.158-1.297,0.2c-0.365,0.029-0.734,0.051-1.107,0.051
			C873.921,196.884,873.551,196.862,873.17,196.833z M862.584,171.976v11.54c0,3.382,1.474,6.604,4.045,8.836
			c0.233,0.201,0.474,0.393,0.724,0.578c1.397,1.032,3.074,1.752,4.873,2.079c0.361,0.073,0.729,0.136,1.09,0.171
			c0.65,0.053,1.322,0.053,1.939,0c0.373-0.035,0.743-0.098,1.128-0.177c1.8-0.327,3.434-1.023,4.85-2.074
			c0.249-0.185,0.491-0.374,0.726-0.579c2.566-2.23,4.041-5.451,4.041-8.834v-11.54H862.584z"/>
	</g>
	<g>
		<g>
			<path d="M508.365,57.761c-0.213,0-0.424-0.082-0.587-0.243l-18.78-18.781c-0.325-0.324-0.325-0.849,0-1.174
				c0.323-0.324,0.85-0.324,1.174,0l18.78,18.78c0.324,0.325,0.324,0.85,0,1.175C508.79,57.679,508.578,57.761,508.365,57.761z"/>
		</g>
		<g>
			<path d="M489.583,57.761c-0.211,0-0.424-0.082-0.585-0.243c-0.325-0.325-0.325-0.85,0-1.175l18.78-18.78
				c0.324-0.324,0.851-0.324,1.174,0c0.324,0.325,0.324,0.85,0,1.174l-18.78,18.781C490.01,57.679,489.798,57.761,489.583,57.761z"
				/>
		</g>
	</g>
	<g>
		<g>
			<path d="M813.581,57.761c-0.213,0-0.426-0.082-0.588-0.243l-18.781-18.781c-0.324-0.324-0.324-0.849,0-1.174
				c0.324-0.324,0.85-0.324,1.175,0l18.78,18.78c0.324,0.325,0.324,0.85,0,1.175C814.005,57.679,813.794,57.761,813.581,57.761z"/>
		</g>
		<g>
			<path d="M794.8,57.761c-0.213,0-0.424-0.082-0.588-0.243c-0.324-0.325-0.324-0.85,0-1.175l18.781-18.78
				c0.324-0.324,0.851-0.324,1.174,0c0.324,0.325,0.324,0.85,0,1.174l-18.78,18.781C795.226,57.679,795.013,57.761,794.8,57.761z"/>
		</g>
	</g>
	<g>
		<path d="M484.955,180.285h-9.823c-0.459,0-0.83-0.371-0.83-0.831c0-0.458,0.371-0.83,0.83-0.83h9.823
			c0.458,0,0.83,0.372,0.83,0.83C485.785,179.914,485.413,180.285,484.955,180.285z"/>
	</g>
	<g>
		<path class="st5" d="M628.961,216.651h-9.821c-0.459,0-0.829-0.37-0.829-0.829c0-0.459,0.37-0.83,0.829-0.83h9.821
			c0.457,0,0.831,0.371,0.831,0.83C629.792,216.281,629.418,216.651,628.961,216.651z"/>
	</g>
	<g>
		<path class="st5" d="M636.76,204.619h-17.62c-0.459,0-0.829-0.371-0.829-0.831c0-0.458,0.37-0.829,0.829-0.829h17.62
			c0.459,0,0.829,0.371,0.829,0.829C637.589,204.248,637.219,204.619,636.76,204.619z"/>
	</g>
	<g>
		<path class="st5" d="M681.661,216.651h9.822c0.458,0,0.829-0.37,0.829-0.829c0-0.459-0.371-0.83-0.829-0.83h-9.822
			c-0.457,0-0.83,0.371-0.83,0.83C680.831,216.281,681.204,216.651,681.661,216.651z"/>
	</g>
	<g>
		<path class="st5" d="M673.863,204.619h17.62c0.458,0,0.829-0.371,0.829-0.831c0-0.458-0.371-0.829-0.829-0.829h-17.62
			c-0.46,0-0.83,0.371-0.83,0.829C673.033,204.248,673.403,204.619,673.863,204.619z"/>
	</g>
	<g>
		<path d="M491.793,165.259h-16.661c-0.459,0-0.83-0.372-0.83-0.83c0-0.459,0.371-0.831,0.83-0.831h16.661
			c0.46,0,0.832,0.372,0.832,0.831C492.625,164.887,492.253,165.259,491.793,165.259z"/>
	</g>
	<g>
		<path d="M824.845,180.285h9.822c0.458,0,0.83-0.371,0.83-0.831c0-0.458-0.372-0.83-0.83-0.83h-9.822
			c-0.459,0-0.83,0.372-0.83,0.83C824.015,179.914,824.386,180.285,824.845,180.285z"/>
	</g>
	<g>
		<path d="M818.005,165.259h16.662c0.458,0,0.83-0.372,0.83-0.83c0-0.459-0.372-0.831-0.83-0.831h-16.662
			c-0.459,0-0.83,0.372-0.83,0.831C817.175,164.887,817.546,165.259,818.005,165.259z"/>
	</g>
	<g>
		<g>
			<g>
				<rect x="618.517" y="63.152" class="st5" width="75.191" height="70.143"/>
				<path class="st9" d="M693.708,133.807h-75.191c-0.284,0-0.51-0.23-0.51-0.512V63.152c0-0.281,0.226-0.512,0.51-0.512h75.191
					c0.281,0,0.509,0.231,0.509,0.512v70.143C694.217,133.576,693.989,133.807,693.708,133.807z M619.028,132.784h74.167V63.662
					h-74.167V132.784z"/>
			</g>
			<g>
				<path class="st5" d="M693.708,56.941c0-4.574-3.708-8.281-8.282-8.281H626.8c-4.572,0-8.283,3.707-8.283,8.281v6.211h75.191
					V56.941z"/>
				<path class="st9" d="M693.708,63.662h-75.191c-0.284,0-0.51-0.228-0.51-0.51v-6.211c0-4.848,3.943-8.79,8.793-8.79h58.626
					c4.848,0,8.791,3.942,8.791,8.79v6.211C694.217,63.435,693.989,63.662,693.708,63.662z M619.028,62.641h74.167v-5.699
					c0-4.285-3.485-7.77-7.77-7.77H626.8c-4.286,0-7.771,3.484-7.771,7.77V62.641z"/>
			</g>
		</g>
		<g>
			<path class="st5" d="M628.286,55.908c0,1.459-1.182,2.645-2.647,2.645c-1.458,0-2.645-1.186-2.645-2.645
				c0-1.461,1.187-2.645,2.645-2.645C627.104,53.264,628.286,54.447,628.286,55.908z"/>
			<path class="st9" d="M625.639,59.063c-1.74,0-3.154-1.414-3.154-3.155c0-1.742,1.414-3.157,3.154-3.157
				c1.742,0,3.16,1.415,3.16,3.157C628.799,57.649,627.381,59.063,625.639,59.063z M625.639,53.772
				c-1.175,0-2.135,0.958-2.135,2.136c0,1.178,0.96,2.134,2.135,2.134c1.179,0,2.136-0.956,2.136-2.134
				C627.774,54.73,626.817,53.772,625.639,53.772z"/>
		</g>
		<g>
			<circle class="st5" cx="633.722" cy="55.908" r="2.646"/>
			<path class="st9" d="M633.721,59.063c-1.741,0-3.153-1.414-3.153-3.155c0-1.742,1.412-3.157,3.153-3.157
				c1.742,0,3.157,1.415,3.157,3.157C636.878,57.649,635.463,59.063,633.721,59.063z M633.721,53.772
				c-1.176,0-2.134,0.958-2.134,2.136c0,1.178,0.958,2.134,2.134,2.134c1.178,0,2.136-0.956,2.136-2.134
				C635.857,54.73,634.898,53.772,633.721,53.772z"/>
		</g>
		<g>
			<path class="st5" d="M644.446,55.908c0,1.459-1.183,2.645-2.646,2.645c-1.463,0-2.645-1.186-2.645-2.645
				c0-1.461,1.182-2.645,2.645-2.645C643.264,53.264,644.446,54.447,644.446,55.908z"/>
			<path class="st9" d="M641.8,59.063c-1.738,0-3.157-1.414-3.157-3.155c0-1.742,1.419-3.157,3.157-3.157
				c1.742,0,3.158,1.415,3.158,3.157C644.958,57.649,643.542,59.063,641.8,59.063z M641.8,53.772c-1.176,0-2.133,0.958-2.133,2.136
				c0,1.178,0.957,2.134,2.133,2.134s2.136-0.956,2.136-2.134C643.936,54.73,642.976,53.772,641.8,53.772z"/>
		</g>
		<g>
			<line class="st5" x1="677.062" y1="58.553" x2="682.354" y2="58.553"/>
			<path class="st9" d="M682.354,59.063h-5.293c-0.283,0-0.511-0.228-0.511-0.511s0.228-0.511,0.511-0.511h5.293
				c0.281,0,0.512,0.228,0.512,0.511S682.636,59.063,682.354,59.063z"/>
		</g>
		<g>
			<g>
				<line class="st5" x1="684.582" y1="53.857" x2="689.275" y2="58.553"/>
				<path class="st9" d="M689.275,59.063c-0.131,0-0.261-0.05-0.361-0.149l-4.693-4.697c-0.199-0.198-0.199-0.521,0-0.72
					c0.198-0.2,0.523-0.2,0.722,0l4.696,4.694c0.2,0.2,0.2,0.522,0,0.723C689.538,59.014,689.407,59.063,689.275,59.063z"/>
			</g>
			<g>
				<line class="st5" x1="684.582" y1="58.553" x2="689.273" y2="53.857"/>
				<path class="st9" d="M684.582,59.063c-0.129,0-0.265-0.05-0.361-0.149c-0.199-0.2-0.199-0.522,0-0.723l4.692-4.696
					c0.201-0.2,0.523-0.2,0.723,0c0.2,0.198,0.2,0.523,0,0.722l-4.693,4.697C684.843,59.014,684.711,59.063,684.582,59.063z"/>
			</g>
		</g>
		<g>
			<rect x="626.098" y="69.361" class="st3" width="60.03" height="5.865"/>
			<path d="M686.128,75.74h-60.03c-0.285,0-0.511-0.23-0.511-0.514v-5.865c0-0.281,0.226-0.51,0.511-0.51h60.03
				c0.283,0,0.511,0.229,0.511,0.51v5.865C686.639,75.51,686.411,75.74,686.128,75.74z M626.608,74.717h59.006v-4.843h-59.006
				V74.717z"/>
		</g>
		<g>
			<rect x="626.098" y="81.092" width="26.8" height="5.866"/>
			<path d="M652.898,87.471h-26.8c-0.285,0-0.511-0.229-0.511-0.513v-5.866c0-0.279,0.226-0.509,0.511-0.509h26.8
				c0.28,0,0.512,0.229,0.512,0.509v5.866C653.409,87.242,653.178,87.471,652.898,87.471z M626.608,86.447h25.779v-4.845h-25.779
				V86.447z"/>
		</g>
		<g>
			<rect x="661.978" y="81.092" width="24.15" height="5.866"/>
			<path d="M686.128,87.471h-24.15c-0.281,0-0.512-0.229-0.512-0.513v-5.866c0-0.279,0.23-0.509,0.512-0.509h24.15
				c0.283,0,0.511,0.229,0.511,0.509v5.866C686.639,87.242,686.411,87.471,686.128,87.471z M662.49,86.447h23.124v-4.845H662.49
				V86.447z"/>
		</g>
		<g>
			<rect x="626.098" y="92.824" class="st3" width="42.564" height="5.864"/>
			<path d="M668.662,99.199h-42.564c-0.285,0-0.511-0.227-0.511-0.511v-5.864c0-0.283,0.226-0.514,0.511-0.514h42.564
				c0.283,0,0.509,0.23,0.509,0.514v5.864C669.171,98.973,668.945,99.199,668.662,99.199z M626.608,98.176h41.54v-4.843h-41.54
				V98.176z"/>
		</g>
		<g>
			<rect x="626.098" y="104.553" width="13.058" height="5.864"/>
			<path class="st9" d="M639.155,110.932h-13.058c-0.285,0-0.511-0.23-0.511-0.515v-5.864c0-0.281,0.226-0.512,0.511-0.512h13.058
				c0.283,0,0.512,0.23,0.512,0.512v5.864C639.667,110.701,639.438,110.932,639.155,110.932z M626.608,109.906h12.034v-4.842
				h-12.034V109.906z"/>
		</g>
		<g>
			<rect x="648.118" y="104.553" width="38.01" height="5.864"/>
			<path d="M686.128,110.932h-38.01c-0.282,0-0.511-0.23-0.511-0.515v-5.864c0-0.281,0.228-0.512,0.511-0.512h38.01
				c0.283,0,0.511,0.23,0.511,0.512v5.864C686.639,110.701,686.411,110.932,686.128,110.932z M648.629,109.906h36.985v-4.842
				h-36.985V109.906z"/>
		</g>
		<g>
			<rect x="626.098" y="116.283" class="st3" width="23.235" height="5.864"/>
			<path d="M649.333,122.662h-23.235c-0.285,0-0.511-0.23-0.511-0.515v-5.864c0-0.283,0.226-0.511,0.511-0.511h23.235
				c0.281,0,0.51,0.228,0.51,0.511v5.864C649.843,122.432,649.614,122.662,649.333,122.662z M626.608,121.639h22.211v-4.844h-22.211
				V121.639z"/>
		</g>
		<g>
			<g>
				<path class="st5" d="M661.856,113.969c0,0,1.706,32.961,24.458,41.152v-48.212L661.856,113.969z"/>
			</g>
			<g>
				<path class="st5" d="M686.313,106.909v48.212c22.75-8.191,24.457-41.152,24.457-41.152L686.313,106.909z"/>
			</g>
			<g>
				<path class="st3" d="M686.313,106.909l-24.458,7.06c0,0,1.706,32.961,24.458,41.152c22.75-8.191,24.457-41.152,24.457-41.152
					L686.313,106.909z"/>
				<path d="M686.313,155.63c-0.06,0-0.118-0.011-0.174-0.029c-22.809-8.211-24.777-41.272-24.795-41.604
					c-0.011-0.236,0.144-0.454,0.369-0.52l24.456-7.059c0.094-0.029,0.191-0.029,0.286,0l24.456,7.059
					c0.229,0.065,0.381,0.283,0.367,0.52c-0.016,0.332-1.985,33.394-24.794,41.604C686.431,155.619,686.371,155.63,686.313,155.63z
					 M662.396,114.346c0.297,3.762,3.254,32.637,23.917,40.23c20.667-7.599,23.621-36.469,23.919-40.23l-23.919-6.904
					L662.396,114.346z"/>
			</g>
			<g>
				<path class="st5" d="M697.067,143.078c-2.257,2.852-4.994,5.365-8.324,7.204"/>
				<path d="M688.743,150.795c-0.179,0-0.356-0.098-0.445-0.265c-0.138-0.246-0.051-0.558,0.197-0.696
					c3.04-1.678,5.787-4.059,8.17-7.074c0.174-0.22,0.496-0.257,0.718-0.084c0.22,0.176,0.258,0.496,0.084,0.718
					c-2.468,3.123-5.318,5.589-8.476,7.339C688.913,150.773,688.827,150.795,688.743,150.795z"/>
			</g>
			<g>
				<path class="st5" d="M702.265,134.283c-0.948,2.143-2.074,4.275-3.403,6.3"/>
				<path d="M698.858,141.094c-0.095,0-0.19-0.025-0.277-0.082c-0.236-0.158-0.303-0.474-0.148-0.709
					c1.236-1.881,2.367-3.975,3.364-6.227c0.116-0.254,0.417-0.372,0.673-0.258c0.26,0.114,0.377,0.416,0.26,0.674
					c-1.018,2.301-2.175,4.445-3.443,6.371C699.19,141.015,699.026,141.094,698.858,141.094z"/>
			</g>
			<g>
				<line class="st5" x1="686.313" y1="111.266" x2="686.313" y2="141.127"/>
				<path d="M686.313,141.641c-0.282,0-0.511-0.229-0.511-0.514v-29.861c0-0.281,0.229-0.508,0.511-0.508
					c0.281,0,0.51,0.227,0.51,0.508v29.861C686.823,141.411,686.595,141.641,686.313,141.641z"/>
			</g>
		</g>
	</g>
</g>
</svg>