<!-- Generator: Adobe Illustrator 17.0.0, SVG Export Plug-In  -->
<svg version="1.1"
	 xmlns="http://www.w3.org/2000/svg" xmlns:xlink="http://www.w3.org/1999/xlink" xmlns:a="http://ns.adobe.com/AdobeSVGViewerExtensions/3.0/"
	 x="0px" y="0px" width="653.373px" height="36.215px" viewBox="0 0 653.373 36.215"
	 style="enable-background:new 0 0 653.373 36.215;" xml:space="preserve">
<style type="text/css">
	.st0{fill:url(#SVGID_1_);}
	.st1{fill:#F1F1F1;}
	.st2{fill:url(#SVGID_2_);}
</style>
<defs>
</defs>
<linearGradient id="SVGID_1_" gradientUnits="userSpaceOnUse" x1="0" y1="18.1074" x2="653.373" y2="18.1074">
	<stop  offset="0" style="stop-color:#783214"/>
	<stop  offset="0.5" style="stop-color:#F16529"/>
	<stop  offset="1" style="stop-color:#783214"/>
</linearGradient>
<polygon class="st0" points="0,36.215 7.814,0 653.373,0 630.754,35.953 "/>
<g>
	<path class="st1" d="M92.487,23.898h-5.542l-1.147,4.078h-1.636l5.127-17.506h0.83l5.151,17.506h-1.624L92.487,23.898z
		 M87.373,22.397h4.699l-2.307-8.069l-0.049-0.646l-0.049,0.646L87.373,22.397z"/>
	<path class="st1" d="M107.111,23.924c0,0.594-0.12,1.151-0.36,1.672c-0.239,0.521-0.562,0.977-0.964,1.367
		c-0.403,0.391-0.871,0.697-1.404,0.922c-0.533,0.224-1.097,0.336-1.69,0.336h-1.257c-0.595,0-1.158-0.112-1.691-0.336
		c-0.533-0.225-1.001-0.531-1.403-0.922c-0.403-0.391-0.725-0.846-0.965-1.367c-0.239-0.521-0.36-1.078-0.36-1.672v-0.696
		l1.575-0.257v0.953c0,0.391,0.079,0.754,0.238,1.092c0.158,0.338,0.372,0.635,0.641,0.891c0.269,0.258,0.58,0.459,0.934,0.605
		c0.354,0.146,0.727,0.219,1.117,0.219h1.099c0.391,0,0.761-0.072,1.111-0.219c0.35-0.146,0.658-0.348,0.928-0.605
		c0.268-0.256,0.481-0.553,0.641-0.891c0.158-0.338,0.238-0.701,0.238-1.092v-0.525c0-0.602-0.119-1.103-0.354-1.502
		c-0.236-0.398-0.55-0.738-0.94-1.02c-0.391-0.279-0.832-0.518-1.324-0.713s-0.999-0.391-1.52-0.586
		c-0.521-0.195-1.027-0.411-1.52-0.647c-0.492-0.235-0.934-0.53-1.324-0.886c-0.391-0.354-0.705-0.787-0.94-1.299
		c-0.236-0.514-0.354-1.144-0.354-1.893v-0.33c0-0.594,0.112-1.15,0.336-1.672c0.225-0.521,0.531-0.977,0.922-1.367
		s0.849-0.697,1.373-0.922c0.525-0.224,1.084-0.336,1.679-0.336h1.123c0.594,0,1.151,0.112,1.673,0.336
		c0.52,0.225,0.977,0.531,1.367,0.922s0.697,0.847,0.921,1.367c0.224,0.521,0.336,1.078,0.336,1.672v0.452l-1.575,0.257v-0.709
		c0-0.391-0.072-0.754-0.219-1.092s-0.347-0.633-0.599-0.885c-0.253-0.252-0.548-0.452-0.885-0.599
		c-0.338-0.146-0.702-0.22-1.093-0.22h-0.977c-0.391,0-0.755,0.073-1.093,0.22c-0.337,0.146-0.635,0.347-0.891,0.599
		c-0.257,0.252-0.458,0.547-0.604,0.885s-0.22,0.701-0.22,1.092v0.33c0,0.562,0.118,1.033,0.354,1.416
		c0.235,0.383,0.549,0.71,0.939,0.982c0.391,0.273,0.832,0.509,1.324,0.709c0.492,0.199,0.999,0.402,1.52,0.609
		c0.521,0.207,1.027,0.436,1.521,0.684c0.492,0.248,0.934,0.554,1.324,0.916c0.391,0.361,0.704,0.804,0.94,1.324
		c0.235,0.521,0.354,1.156,0.354,1.904V23.924z"/>
	<path class="st1" d="M120.008,18.625c-0.224,0.521-0.531,0.977-0.922,1.367s-0.848,0.698-1.373,0.922
		c-0.525,0.225-1.084,0.336-1.678,0.336h-3.968v6.727h-1.575V10.471h5.543c0.594,0,1.152,0.112,1.678,0.336
		c0.525,0.225,0.982,0.531,1.373,0.922s0.698,0.848,0.922,1.373c0.225,0.525,0.336,1.085,0.336,1.679v2.173
		C120.344,17.547,120.232,18.105,120.008,18.625z M118.769,14.78c0-0.391-0.074-0.755-0.221-1.093s-0.348-0.635-0.604-0.891
		s-0.554-0.458-0.891-0.604c-0.338-0.146-0.703-0.22-1.094-0.22h-3.894v7.775h3.894c0.391,0,0.756-0.072,1.094-0.219
		c0.337-0.146,0.635-0.346,0.891-0.599c0.256-0.252,0.457-0.548,0.604-0.886c0.146-0.337,0.221-0.701,0.221-1.092V14.78z"/>
	<path class="st1" d="M123.347,27.977V10.471h9.851v1.502h-8.275v6.506h6.701v1.502h-6.701v6.494h8.275v1.502H123.347z"/>
	<path class="st1" d="M145.459,25.596c-0.223,0.521-0.53,0.977-0.921,1.367s-0.847,0.697-1.367,0.922
		c-0.521,0.224-1.079,0.336-1.673,0.336h-1.244c-0.595,0-1.154-0.112-1.68-0.336c-0.523-0.225-0.982-0.531-1.373-0.922
		s-0.697-0.846-0.922-1.367c-0.223-0.521-0.335-1.078-0.335-1.672v-9.4c0-0.594,0.112-1.15,0.335-1.672
		c0.225-0.521,0.531-0.977,0.922-1.367s0.85-0.697,1.373-0.922c0.525-0.224,1.085-0.336,1.68-0.336h1.244
		c0.594,0,1.152,0.112,1.673,0.336c0.521,0.225,0.977,0.531,1.367,0.922s0.698,0.847,0.921,1.367
		c0.225,0.521,0.336,1.078,0.336,1.672v0.709l-1.574,0.244v-0.953c0-0.391-0.073-0.754-0.22-1.092s-0.347-0.633-0.599-0.885
		s-0.547-0.452-0.885-0.599s-0.701-0.22-1.092-0.22h-1.1c-0.391,0-0.754,0.073-1.092,0.22s-0.635,0.347-0.891,0.599
		c-0.258,0.252-0.459,0.547-0.605,0.885s-0.219,0.701-0.219,1.092v9.4c0,0.391,0.072,0.754,0.219,1.092s0.348,0.635,0.605,0.891
		c0.256,0.258,0.553,0.459,0.891,0.605s0.701,0.219,1.092,0.219h1.1c0.391,0,0.754-0.072,1.092-0.219s0.633-0.348,0.885-0.605
		c0.252-0.256,0.452-0.553,0.599-0.891s0.22-0.701,0.22-1.092v-0.953l1.574,0.257v0.696
		C145.795,24.518,145.684,25.075,145.459,25.596z"/>
	<path class="st1" d="M153.547,11.973v16.004h-1.574V11.973h-4.176v-1.502h9.925v1.502H153.547z"/>
	<path class="st1" d="M169.482,25.596c-0.223,0.521-0.53,0.977-0.921,1.367s-0.847,0.697-1.367,0.922
		c-0.521,0.224-1.079,0.336-1.673,0.336h-1.244c-0.595,0-1.154-0.112-1.68-0.336c-0.523-0.225-0.982-0.531-1.373-0.922
		s-0.697-0.846-0.922-1.367c-0.223-0.521-0.335-1.078-0.335-1.672v-9.4c0-0.594,0.112-1.15,0.335-1.672
		c0.225-0.521,0.531-0.977,0.922-1.367s0.85-0.697,1.373-0.922c0.525-0.224,1.085-0.336,1.68-0.336h1.244
		c0.594,0,1.152,0.112,1.673,0.336c0.521,0.225,0.977,0.531,1.367,0.922s0.698,0.847,0.921,1.367
		c0.225,0.521,0.336,1.078,0.336,1.672v9.4C169.818,24.518,169.707,25.075,169.482,25.596z M168.244,14.523
		c0-0.391-0.073-0.754-0.22-1.092s-0.347-0.633-0.599-0.885s-0.547-0.452-0.885-0.599s-0.701-0.22-1.092-0.22h-1.1
		c-0.391,0-0.754,0.073-1.092,0.22s-0.635,0.347-0.891,0.599c-0.258,0.252-0.459,0.547-0.605,0.885s-0.219,0.701-0.219,1.092v9.4
		c0,0.391,0.072,0.754,0.219,1.092s0.348,0.635,0.605,0.891c0.256,0.258,0.553,0.459,0.891,0.605s0.701,0.219,1.092,0.219h1.1
		c0.391,0,0.754-0.072,1.092-0.219s0.633-0.348,0.885-0.605c0.252-0.256,0.452-0.553,0.599-0.891s0.22-0.701,0.22-1.092V14.523z"/>
	<path class="st1" d="M183.174,23.924c0,0.594-0.121,1.151-0.361,1.672c-0.239,0.521-0.561,0.977-0.963,1.367
		c-0.404,0.391-0.871,0.697-1.404,0.922c-0.533,0.224-1.098,0.336-1.691,0.336h-1.257c-0.595,0-1.157-0.112-1.69-0.336
		c-0.533-0.225-1.002-0.531-1.404-0.922s-0.725-0.846-0.965-1.367c-0.239-0.521-0.359-1.078-0.359-1.672v-0.696l1.574-0.257v0.953
		c0,0.391,0.08,0.754,0.238,1.092s0.373,0.635,0.641,0.891c0.27,0.258,0.58,0.459,0.934,0.605c0.355,0.146,0.727,0.219,1.117,0.219
		h1.1c0.391,0,0.76-0.072,1.11-0.219c0.35-0.146,0.659-0.348,0.928-0.605c0.269-0.256,0.481-0.553,0.642-0.891
		c0.158-0.338,0.237-0.701,0.237-1.092v-0.525c0-0.602-0.118-1.103-0.354-1.502c-0.236-0.398-0.549-0.738-0.939-1.02
		c-0.391-0.279-0.832-0.518-1.324-0.713s-1-0.391-1.52-0.586c-0.521-0.195-1.027-0.411-1.52-0.647
		c-0.493-0.235-0.935-0.53-1.325-0.886c-0.391-0.354-0.704-0.787-0.94-1.299c-0.236-0.514-0.354-1.144-0.354-1.893v-0.33
		c0-0.594,0.111-1.15,0.336-1.672c0.224-0.521,0.531-0.977,0.922-1.367s0.848-0.697,1.373-0.922
		c0.525-0.224,1.084-0.336,1.678-0.336h1.123c0.594,0,1.152,0.112,1.673,0.336c0.521,0.225,0.977,0.531,1.367,0.922
		s0.698,0.847,0.921,1.367c0.225,0.521,0.336,1.078,0.336,1.672v0.452l-1.574,0.257v-0.709c0-0.391-0.073-0.754-0.22-1.092
		s-0.347-0.633-0.599-0.885s-0.547-0.452-0.885-0.599s-0.701-0.22-1.092-0.22h-0.977c-0.391,0-0.756,0.073-1.094,0.22
		c-0.337,0.146-0.635,0.347-0.891,0.599s-0.457,0.547-0.604,0.885s-0.221,0.701-0.221,1.092v0.33c0,0.562,0.118,1.033,0.354,1.416
		c0.235,0.383,0.55,0.71,0.94,0.982c0.391,0.273,0.832,0.509,1.324,0.709c0.492,0.199,0.998,0.402,1.52,0.609
		c0.521,0.207,1.027,0.436,1.52,0.684s0.934,0.554,1.324,0.916c0.391,0.361,0.704,0.804,0.94,1.324
		c0.235,0.521,0.354,1.156,0.354,1.904V23.924z"/>
	<path class="st1" d="M201.82,25.352c-0.225,0.521-0.531,0.977-0.922,1.367s-0.85,0.697-1.373,0.922
		c-0.525,0.224-1.086,0.336-1.68,0.336h-5.541V10.471h5.541c0.594,0,1.154,0.112,1.68,0.336c0.523,0.225,0.982,0.531,1.373,0.922
		s0.697,0.848,0.922,1.373c0.223,0.525,0.335,1.085,0.335,1.679v8.899C202.155,24.273,202.043,24.831,201.82,25.352z M200.58,14.78
		c0-0.391-0.072-0.755-0.219-1.093s-0.348-0.635-0.605-0.891c-0.256-0.256-0.553-0.458-0.891-0.604s-0.701-0.22-1.092-0.22h-3.895
		v14.502h3.895c0.391,0,0.754-0.073,1.092-0.22s0.635-0.346,0.891-0.599c0.258-0.252,0.459-0.547,0.605-0.885
		s0.219-0.701,0.219-1.092V14.78z"/>
	<path class="st1" d="M205.902,27.977V10.471h9.852v1.502h-8.276v6.506h6.702v1.502h-6.702v6.494h8.276v1.502H205.902z"/>
	<path class="st1" d="M234.102,23.924c0,0.594-0.121,1.151-0.361,1.672c-0.239,0.521-0.561,0.977-0.963,1.367
		c-0.404,0.391-0.871,0.697-1.404,0.922c-0.533,0.224-1.098,0.336-1.691,0.336h-1.257c-0.595,0-1.157-0.112-1.69-0.336
		c-0.533-0.225-1.002-0.531-1.404-0.922s-0.725-0.846-0.965-1.367c-0.239-0.521-0.359-1.078-0.359-1.672v-0.696l1.574-0.257v0.953
		c0,0.391,0.08,0.754,0.238,1.092s0.373,0.635,0.641,0.891c0.27,0.258,0.58,0.459,0.934,0.605c0.355,0.146,0.727,0.219,1.117,0.219
		h1.1c0.391,0,0.76-0.072,1.11-0.219c0.35-0.146,0.659-0.348,0.928-0.605c0.269-0.256,0.481-0.553,0.642-0.891
		c0.158-0.338,0.237-0.701,0.237-1.092v-0.525c0-0.602-0.118-1.103-0.354-1.502c-0.236-0.398-0.549-0.738-0.939-1.02
		c-0.391-0.279-0.832-0.518-1.324-0.713s-1-0.391-1.52-0.586c-0.521-0.195-1.027-0.411-1.52-0.647
		c-0.493-0.235-0.935-0.53-1.325-0.886c-0.391-0.354-0.704-0.787-0.94-1.299c-0.236-0.514-0.354-1.144-0.354-1.893v-0.33
		c0-0.594,0.111-1.15,0.336-1.672c0.224-0.521,0.531-0.977,0.922-1.367s0.848-0.697,1.373-0.922
		c0.525-0.224,1.084-0.336,1.678-0.336h1.123c0.594,0,1.152,0.112,1.673,0.336c0.521,0.225,0.977,0.531,1.367,0.922
		s0.698,0.847,0.921,1.367c0.225,0.521,0.336,1.078,0.336,1.672v0.452l-1.574,0.257v-0.709c0-0.391-0.073-0.754-0.22-1.092
		s-0.347-0.633-0.599-0.885s-0.547-0.452-0.885-0.599s-0.701-0.22-1.092-0.22h-0.977c-0.391,0-0.756,0.073-1.094,0.22
		c-0.337,0.146-0.635,0.347-0.891,0.599s-0.457,0.547-0.604,0.885s-0.221,0.701-0.221,1.092v0.33c0,0.562,0.118,1.033,0.354,1.416
		c0.235,0.383,0.55,0.71,0.94,0.982c0.391,0.273,0.832,0.509,1.324,0.709c0.492,0.199,0.998,0.402,1.52,0.609
		c0.521,0.207,1.027,0.436,1.52,0.684s0.934,0.554,1.324,0.916c0.391,0.361,0.704,0.804,0.94,1.324
		c0.235,0.521,0.354,1.156,0.354,1.904V23.924z"/>
	<path class="st1" d="M237.482,27.977V10.471h9.852v1.502h-8.277v6.506h6.702v1.502h-6.702v6.494h8.277v1.502H237.482z"/>
	<path class="st1" d="M259.932,27.977h-0.501l-0.915-1.404c-0.383,0.505-0.848,0.905-1.393,1.203
		c-0.545,0.297-1.151,0.445-1.818,0.445h-0.916c-0.594,0-1.152-0.112-1.678-0.336c-0.525-0.225-0.982-0.531-1.373-0.922
		s-0.698-0.846-0.922-1.367c-0.225-0.521-0.336-1.078-0.336-1.672v-9.4c0-0.594,0.111-1.15,0.336-1.672
		c0.224-0.521,0.531-0.977,0.922-1.367s0.848-0.697,1.373-0.922c0.525-0.224,1.084-0.336,1.678-0.336h1.246
		c0.594,0,1.15,0.112,1.672,0.336c0.521,0.225,0.977,0.531,1.367,0.922s0.697,0.847,0.922,1.367
		c0.224,0.521,0.336,1.078,0.336,1.672v0.709l-1.575,0.244v-0.953c0-0.391-0.073-0.754-0.22-1.092s-0.346-0.633-0.598-0.885
		c-0.253-0.252-0.548-0.452-0.885-0.599c-0.338-0.146-0.703-0.22-1.094-0.22h-1.098c-0.391,0-0.756,0.073-1.094,0.22
		c-0.337,0.146-0.635,0.347-0.891,0.599s-0.457,0.547-0.604,0.885s-0.221,0.701-0.221,1.092v9.4c0,0.391,0.074,0.754,0.221,1.092
		s0.348,0.635,0.604,0.891c0.256,0.258,0.554,0.459,0.891,0.605c0.338,0.146,0.703,0.219,1.094,0.219h1.098
		c0.391,0,0.756-0.072,1.094-0.219c0.337-0.146,0.632-0.348,0.885-0.605c0.252-0.256,0.451-0.553,0.598-0.891s0.22-0.701,0.22-1.092
		v-3.65h-2.796v-1.502h4.371V27.977z"/>
	<path class="st1" d="M272.949,25.596c-0.223,0.521-0.53,0.977-0.921,1.367s-0.847,0.697-1.367,0.922
		c-0.521,0.224-1.079,0.336-1.673,0.336h-1.244c-0.595,0-1.154-0.112-1.68-0.336c-0.523-0.225-0.982-0.531-1.373-0.922
		s-0.697-0.846-0.922-1.367c-0.223-0.521-0.335-1.078-0.335-1.672V10.471h1.575v13.453c0,0.391,0.072,0.754,0.219,1.092
		s0.348,0.635,0.605,0.891c0.256,0.258,0.553,0.459,0.891,0.605s0.701,0.219,1.092,0.219h1.1c0.391,0,0.754-0.072,1.092-0.219
		s0.633-0.348,0.885-0.605c0.252-0.256,0.452-0.553,0.599-0.891s0.22-0.701,0.22-1.092V10.471h1.574v13.453
		C273.285,24.518,273.174,25.075,272.949,25.596z"/>
	<path class="st1" d="M285.273,27.977l-4.749-7.471h-2.161v7.471h-1.574V10.471h5.555c0.594,0,1.15,0.112,1.672,0.336
		c0.521,0.225,0.977,0.531,1.367,0.922s0.697,0.848,0.922,1.373c0.224,0.525,0.336,1.085,0.336,1.679v1.416
		c0,0.595-0.112,1.153-0.336,1.679c-0.225,0.525-0.531,0.982-0.922,1.373s-0.847,0.697-1.367,0.922
		c-0.521,0.224-1.078,0.336-1.672,0.336l4.748,7.471H285.273z M285.065,14.78c0-0.391-0.073-0.755-0.22-1.093
		s-0.346-0.635-0.598-0.891c-0.253-0.256-0.548-0.458-0.885-0.604c-0.338-0.146-0.703-0.22-1.094-0.22h-3.906v7.031h3.906
		c0.391,0,0.756-0.073,1.094-0.22c0.337-0.146,0.632-0.349,0.885-0.604c0.252-0.256,0.451-0.553,0.598-0.891s0.22-0.702,0.22-1.093
		V14.78z"/>
	<path class="st1" d="M290.095,27.977V10.471h1.575v17.506H290.095z"/>
	<path class="st1" d="M305.189,25.352c-0.225,0.521-0.531,0.977-0.922,1.367s-0.85,0.697-1.373,0.922
		c-0.525,0.224-1.086,0.336-1.68,0.336h-5.541V10.471h5.541c0.594,0,1.154,0.112,1.68,0.336c0.523,0.225,0.982,0.531,1.373,0.922
		s0.697,0.848,0.922,1.373c0.223,0.525,0.335,1.085,0.335,1.679v8.899C305.524,24.273,305.412,24.831,305.189,25.352z
		 M303.949,14.78c0-0.391-0.072-0.755-0.219-1.093s-0.348-0.635-0.605-0.891c-0.256-0.256-0.553-0.458-0.891-0.604
		s-0.701-0.22-1.092-0.22h-3.895v14.502h3.895c0.391,0,0.754-0.073,1.092-0.22s0.635-0.346,0.891-0.599
		c0.258-0.252,0.459-0.547,0.605-0.885s0.219-0.701,0.219-1.092V14.78z"/>
	<path class="st1" d="M315.84,23.898h-5.543l-1.146,4.078h-1.637l5.127-17.506h0.83l5.152,17.506h-1.624L315.84,23.898z
		 M310.725,22.397h4.699l-2.307-8.069l-0.049-0.646l-0.049,0.646L310.725,22.397z"/>
	<path class="st1" d="M330.385,25.352c-0.225,0.521-0.531,0.977-0.922,1.367s-0.85,0.697-1.373,0.922
		c-0.525,0.224-1.086,0.336-1.68,0.336h-5.541V10.471h5.541c0.594,0,1.154,0.112,1.68,0.336c0.523,0.225,0.982,0.531,1.373,0.922
		s0.697,0.848,0.922,1.373c0.223,0.525,0.335,1.085,0.335,1.679v8.899C330.72,24.273,330.607,24.831,330.385,25.352z M329.145,14.78
		c0-0.391-0.072-0.755-0.219-1.093s-0.348-0.635-0.605-0.891c-0.256-0.256-0.553-0.458-0.891-0.604s-0.701-0.22-1.092-0.22h-3.895
		v14.502h3.895c0.391,0,0.754-0.073,1.092-0.22s0.635-0.346,0.891-0.599c0.258-0.252,0.459-0.547,0.605-0.885
		s0.219-0.701,0.219-1.092V14.78z"/>
	<path class="st1" d="M340.217,27.977V10.471h9.852v1.502h-8.277v6.506h6.703v1.502h-6.703v6.494h8.277v1.502H340.217z"/>
	<path class="st1" d="M362.092,27.977l-7.301-12.744l-0.146-0.758v13.502h-1.574V10.471h0.818l7.299,12.757l0.16,0.745V10.471h1.574
		v17.506H362.092z"/>
	<path class="st1" d="M382.191,18.625c-0.225,0.521-0.531,0.977-0.922,1.367s-0.848,0.698-1.373,0.922
		c-0.525,0.225-1.084,0.336-1.678,0.336h-3.969v6.727h-1.574V10.471h5.543c0.594,0,1.152,0.112,1.678,0.336
		c0.525,0.225,0.982,0.531,1.373,0.922s0.697,0.848,0.922,1.373s0.336,1.085,0.336,1.679v2.173
		C382.527,17.547,382.416,18.105,382.191,18.625z M380.953,14.78c0-0.391-0.074-0.755-0.221-1.093s-0.348-0.635-0.604-0.891
		s-0.555-0.458-0.891-0.604c-0.338-0.146-0.703-0.22-1.094-0.22h-3.895v7.775h3.895c0.391,0,0.756-0.072,1.094-0.219
		c0.336-0.146,0.635-0.346,0.891-0.599c0.256-0.252,0.457-0.548,0.604-0.886c0.146-0.337,0.221-0.701,0.221-1.092V14.78z"/>
	<path class="st1" d="M392.098,23.898h-5.543l-1.146,4.078h-1.637l5.127-17.506h0.83l5.152,17.506h-1.625L392.098,23.898z
		 M386.982,22.397h4.699l-2.307-8.069l-0.049-0.646l-0.049,0.646L386.982,22.397z M388.703,8.481h-1.123l2.002-3.003h2.49
		L388.703,8.481z"/>
	<path class="st1" d="M406.721,27.977h-0.5l-0.916-1.404c-0.383,0.505-0.846,0.905-1.391,1.203
		c-0.545,0.297-1.152,0.445-1.818,0.445h-0.916c-0.594,0-1.154-0.112-1.68-0.336c-0.523-0.225-0.982-0.531-1.373-0.922
		s-0.697-0.846-0.922-1.367c-0.223-0.521-0.334-1.078-0.334-1.672v-9.4c0-0.594,0.111-1.15,0.334-1.672
		c0.225-0.521,0.531-0.977,0.922-1.367s0.85-0.697,1.373-0.922c0.525-0.224,1.086-0.336,1.68-0.336h1.244
		c0.594,0,1.152,0.112,1.674,0.336c0.52,0.225,0.977,0.531,1.367,0.922s0.697,0.847,0.92,1.367c0.225,0.521,0.336,1.078,0.336,1.672
		v0.709l-1.574,0.244v-0.953c0-0.391-0.072-0.754-0.219-1.092s-0.348-0.633-0.6-0.885s-0.547-0.452-0.885-0.599
		s-0.701-0.22-1.092-0.22h-1.1c-0.391,0-0.754,0.073-1.092,0.22s-0.635,0.347-0.891,0.599c-0.258,0.252-0.459,0.547-0.605,0.885
		s-0.219,0.701-0.219,1.092v9.4c0,0.391,0.072,0.754,0.219,1.092s0.348,0.635,0.605,0.891c0.256,0.258,0.553,0.459,0.891,0.605
		s0.701,0.219,1.092,0.219h1.1c0.391,0,0.754-0.072,1.092-0.219s0.633-0.348,0.885-0.605c0.252-0.256,0.453-0.553,0.6-0.891
		s0.219-0.701,0.219-1.092v-3.65h-2.795v-1.502h4.369V27.977z"/>
	<path class="st1" d="M410.48,27.977V10.471h1.574v17.506H410.48z"/>
	<path class="st1" d="M425.08,27.977l-7.301-12.744l-0.146-0.758v13.502h-1.574V10.471h0.818l7.299,12.757l0.16,0.745V10.471h1.574
		v17.506H425.08z"/>
	<path class="st1" d="M436.482,23.898h-5.543l-1.146,4.078h-1.637l5.127-17.506h0.83l5.152,17.506h-1.625L436.482,23.898z
		 M431.367,22.397h4.699l-2.307-8.069l-0.049-0.646l-0.049,0.646L431.367,22.397z"/>
	<path class="st1" d="M451.105,23.924c0,0.594-0.119,1.151-0.359,1.672c-0.24,0.521-0.563,0.977-0.965,1.367
		s-0.871,0.697-1.404,0.922c-0.533,0.224-1.096,0.336-1.689,0.336h-1.258c-0.594,0-1.158-0.112-1.691-0.336
		c-0.533-0.225-1-0.531-1.402-0.922c-0.404-0.391-0.725-0.846-0.965-1.367c-0.24-0.521-0.359-1.078-0.359-1.672v-0.696l1.574-0.257
		v0.953c0,0.391,0.078,0.754,0.238,1.092c0.158,0.338,0.371,0.635,0.641,0.891c0.268,0.258,0.58,0.459,0.934,0.605
		s0.727,0.219,1.117,0.219h1.098c0.391,0,0.762-0.072,1.111-0.219s0.66-0.348,0.928-0.605c0.27-0.256,0.482-0.553,0.641-0.891
		s0.238-0.701,0.238-1.092v-0.525c0-0.602-0.117-1.103-0.354-1.502c-0.236-0.398-0.549-0.738-0.939-1.02
		c-0.391-0.279-0.834-0.518-1.326-0.713s-0.998-0.391-1.52-0.586c-0.52-0.195-1.027-0.411-1.52-0.647
		c-0.492-0.235-0.934-0.53-1.324-0.886c-0.391-0.354-0.703-0.787-0.939-1.299c-0.236-0.514-0.354-1.144-0.354-1.893v-0.33
		c0-0.594,0.111-1.15,0.334-1.672c0.225-0.521,0.531-0.977,0.922-1.367s0.85-0.697,1.373-0.922c0.525-0.224,1.086-0.336,1.68-0.336
		h1.123c0.594,0,1.15,0.112,1.672,0.336c0.521,0.225,0.977,0.531,1.367,0.922s0.697,0.847,0.922,1.367
		c0.223,0.521,0.336,1.078,0.336,1.672v0.452l-1.574,0.257v-0.709c0-0.391-0.074-0.754-0.221-1.092s-0.346-0.633-0.598-0.885
		s-0.549-0.452-0.885-0.599c-0.338-0.146-0.703-0.22-1.094-0.22h-0.977c-0.391,0-0.754,0.073-1.092,0.22s-0.635,0.347-0.891,0.599
		c-0.258,0.252-0.459,0.547-0.605,0.885s-0.219,0.701-0.219,1.092v0.33c0,0.562,0.117,1.033,0.354,1.416s0.549,0.71,0.939,0.982
		c0.391,0.273,0.832,0.509,1.324,0.709c0.492,0.199,1,0.402,1.521,0.609c0.52,0.207,1.025,0.436,1.52,0.684
		c0.492,0.248,0.934,0.554,1.324,0.916c0.391,0.361,0.703,0.804,0.939,1.324c0.236,0.521,0.354,1.156,0.354,1.904V23.924z"/>
	<path class="st1" d="M471.932,27.977h-0.818l-3.406-13.172l-0.049-0.684l-0.072,0.684l-3.383,13.172h-0.816l-4.652-17.506h1.576
		l3.43,13.307l0.049,0.646l0.049-0.646l3.369-13.307h0.879l3.369,13.307l0.049,0.646l0.061-0.646l3.418-13.307h1.574L471.932,27.977
		z"/>
	<path class="st1" d="M479.061,27.977V10.471h9.852v1.502h-8.277v6.506h6.701v1.502h-6.701v6.494h8.277v1.502H479.061z"/>
	<path class="st1" d="M501.43,25.352c-0.225,0.521-0.531,0.977-0.922,1.367s-0.848,0.697-1.373,0.922
		c-0.525,0.224-1.084,0.336-1.678,0.336h-5.543V10.471h5.543c0.594,0,1.152,0.112,1.678,0.336c0.525,0.225,0.982,0.531,1.373,0.922
		s0.697,0.848,0.922,1.373s0.336,1.085,0.336,1.679v0.171c0,0.415-0.055,0.813-0.164,1.189c-0.111,0.379-0.268,0.731-0.471,1.057
		c-0.203,0.326-0.443,0.621-0.721,0.885c-0.275,0.265-0.586,0.486-0.928,0.666c0.342,0.179,0.652,0.4,0.928,0.664
		c0.277,0.266,0.518,0.563,0.721,0.893c0.203,0.328,0.359,0.684,0.471,1.061c0.109,0.379,0.164,0.775,0.164,1.191v1.123
		C501.766,24.273,501.654,24.831,501.43,25.352z M500.191,14.78c0-0.391-0.074-0.755-0.221-1.093s-0.348-0.635-0.604-0.891
		s-0.555-0.458-0.891-0.604c-0.338-0.146-0.703-0.22-1.094-0.22h-3.895v6.03h3.895c0.391,0,0.756-0.073,1.094-0.22
		c0.336-0.146,0.635-0.348,0.891-0.604c0.256-0.258,0.457-0.555,0.604-0.893c0.146-0.337,0.221-0.701,0.221-1.092V14.78z
		 M500.191,22.3c0-0.391-0.074-0.755-0.221-1.093s-0.348-0.633-0.604-0.885s-0.555-0.451-0.891-0.598
		c-0.338-0.146-0.703-0.221-1.094-0.221h-3.895v6.971h3.895c0.391,0,0.756-0.073,1.094-0.22c0.336-0.146,0.635-0.346,0.891-0.599
		c0.256-0.252,0.457-0.547,0.604-0.885s0.221-0.701,0.221-1.092V22.3z"/>
</g>
<g>
	<g>
		<path d="M69.66,10.537c-0.002-0.137-0.045-0.27-0.139-0.375l-5.699-6.514c0,0-0.002-0.002-0.006-0.004
			c-0.035-0.037-0.072-0.068-0.115-0.096c-0.012-0.008-0.025-0.016-0.039-0.023c-0.035-0.02-0.074-0.035-0.113-0.047
			c-0.01-0.004-0.018-0.008-0.031-0.012c-0.043-0.01-0.088-0.016-0.133-0.016H49.373c-0.639,0-1.16,0.52-1.16,1.16v27.25
			c0,0.639,0.521,1.16,1.16,1.16h19.133c0.641,0,1.16-0.521,1.16-1.16v-21.26C69.666,10.58,69.662,10.559,69.66,10.537z
			 M49.373,4.611h13.432v5.932c0,0.32,0.26,0.58,0.58,0.58h5.121v12.018H49.373V4.611z"/>
		<g>
			<path class="st1" d="M49.4,28.795l1.02-0.1c0.063,0.342,0.186,0.594,0.373,0.754c0.188,0.16,0.441,0.24,0.76,0.24
				c0.338,0,0.592-0.07,0.764-0.213c0.172-0.143,0.256-0.31,0.256-0.502c0-0.123-0.035-0.227-0.107-0.313
				c-0.072-0.086-0.199-0.162-0.377-0.225c-0.123-0.043-0.402-0.119-0.84-0.227c-0.561-0.139-0.955-0.311-1.182-0.514
				c-0.318-0.285-0.479-0.633-0.479-1.045c0-0.264,0.076-0.51,0.225-0.74c0.15-0.23,0.367-0.406,0.648-0.525
				c0.281-0.121,0.623-0.182,1.021-0.182c0.65,0,1.141,0.143,1.471,0.43c0.328,0.285,0.502,0.666,0.518,1.143l-1.047,0.045
				c-0.045-0.266-0.141-0.457-0.289-0.574c-0.145-0.117-0.369-0.176-0.664-0.176c-0.303,0-0.543,0.063-0.715,0.188
				c-0.111,0.08-0.166,0.188-0.166,0.322c0,0.123,0.053,0.228,0.156,0.316c0.133,0.109,0.453,0.225,0.963,0.346
				c0.51,0.121,0.887,0.244,1.131,0.373c0.244,0.129,0.436,0.305,0.572,0.527c0.139,0.223,0.207,0.5,0.207,0.826
				c0,0.299-0.082,0.576-0.246,0.836c-0.166,0.26-0.4,0.453-0.701,0.578c-0.303,0.127-0.68,0.189-1.129,0.189
				c-0.656,0-1.16-0.15-1.512-0.453C49.68,29.816,49.469,29.375,49.4,28.795z"/>
			<path class="st1" d="M57.822,28.574l1.016,0.322c-0.156,0.566-0.416,0.988-0.777,1.262c-0.363,0.275-0.82,0.414-1.379,0.414
				c-0.689,0-1.256-0.236-1.699-0.707c-0.443-0.471-0.666-1.115-0.666-1.932c0-0.863,0.225-1.533,0.672-2.012
				c0.443-0.477,1.029-0.717,1.758-0.717c0.635,0,1.15,0.188,1.545,0.563c0.238,0.223,0.414,0.541,0.531,0.957l-1.037,0.248
				c-0.06-0.27-0.189-0.482-0.381-0.639c-0.197-0.154-0.434-0.232-0.713-0.232c-0.385,0-0.695,0.137-0.936,0.414
				c-0.24,0.275-0.359,0.723-0.359,1.342c0,0.654,0.119,1.123,0.354,1.4c0.238,0.279,0.543,0.418,0.922,0.418
				c0.277,0,0.518-0.088,0.717-0.266C57.59,29.234,57.734,28.955,57.822,28.574z"/>
			<path class="st1" d="M60.906,30.482v-4.311h-1.541v-0.877h4.125v0.877h-1.539v4.311H60.906z"/>
			<path class="st1" d="M65.529,30.482v-2.184l-1.904-3.004h1.229l1.221,2.053l1.197-2.053h1.207l-1.906,3.012v2.176H65.529z"/>
		</g>
		<path d="M62.107,13.642v5.711c0,0.229-0.186,0.416-0.414,0.416H55.98c-0.229,0-0.414-0.188-0.414-0.416v-5.711
			c0-0.23,0.186-0.414,0.414-0.414h4.363v-2.197c0-0.83-0.676-1.504-1.506-1.504c-0.83,0-1.506,0.674-1.506,1.504V12.1
			c0,0.229-0.186,0.416-0.416,0.416c-0.229,0-0.414-0.188-0.414-0.416v-1.068c0-1.287,1.049-2.336,2.336-2.336
			c1.287,0,2.336,1.049,2.336,2.336v2.197h0.519C61.922,13.229,62.107,13.412,62.107,13.642z M61.281,18.939v-4.881h-4.885v4.881
			H61.281z"/>
	</g>
</g>
</svg>