<!-- Generator: Adobe Illustrator 17.0.0, SVG Export Plug-In  -->
<svg version="1.1"
	 xmlns="http://www.w3.org/2000/svg" xmlns:xlink="http://www.w3.org/1999/xlink" xmlns:a="http://ns.adobe.com/AdobeSVGViewerExtensions/3.0/"
	 x="0px" y="0px" width="89.087px" height="86.862px" viewBox="0 0 89.087 86.862"
	 style="enable-background:new 0 0 89.087 86.862;" xml:space="preserve">
<style type="text/css">
	.st0{fill-rule:evenodd;clip-rule:evenodd;}
</style>
<defs>
</defs>
<g>
	<path class="st0" d="M44.765,0c5.277,0,9.577,4.329,9.577,9.635c0,5.307-4.3,9.634-9.577,9.634c-5.275,0-9.58-4.327-9.58-9.634
		C35.186,4.329,39.49,0,44.765,0"/>
	<path class="st0" d="M9.88,31.094v0.035l-0.046,0.354c0,0.496,0.281,0.866,0.846,1.11c0.569,0.241,1.446,0.363,2.633,0.363
		c0.903,0,1.61-0.103,2.123-0.3c0.516-0.198,0.773-0.472,0.773-0.818c0-0.527-1.019-0.95-3.045-1.283
		c-0.237-0.037-0.414-0.066-0.529-0.084c-0.131-0.024-0.321-0.055-0.569-0.095c-3.22-0.527-5.292-1.099-6.207-1.714
		c-0.445-0.304-0.786-0.655-1.016-1.066c-0.222-0.41-0.337-0.875-0.337-1.384c0-1.26,0.74-2.219,2.219-2.876
		c1.48-0.658,3.645-0.988,6.495-0.988c2.816,0,4.902,0.308,6.26,0.923c1.355,0.62,2.035,1.573,2.035,2.851v0.149H16.18v-0.058
		c0-0.443-0.265-0.773-0.806-0.999c-0.54-0.229-1.333-0.343-2.374-0.343c-0.808,0-1.432,0.079-1.866,0.241
		c-0.441,0.161-0.66,0.394-0.66,0.69c0,0.534,1.162,0.986,3.488,1.362c0.447,0.066,0.799,0.122,1.054,0.161
		c1.656,0.277,2.836,0.517,3.538,0.716c0.702,0.196,1.307,0.434,1.818,0.704c0.565,0.31,1.01,0.704,1.316,1.178
		c0.307,0.474,0.462,0.992,0.462,1.559c0,1.298-0.808,2.294-2.418,2.994c-1.612,0.7-3.935,1.05-6.96,1.05
		c-2.991,0-5.157-0.337-6.497-1.008c-1.339-0.675-2.001-1.751-2.001-3.237v-0.188H9.88z M24.491,35.312v-12.77h15.204v2.752H30.2
		v2.035h8.78v2.717H30.2v2.478h9.856v2.788H24.491z M42.439,35.312v-12.77h7.225l7.732,8.566v-8.566h5.485v12.77h-7.493
		l-7.482-8.599v8.599H42.439z M77.632,30.219L74.9,25.578l-2.888,4.641H77.632z M68.934,35.312H63.21l8.837-12.77h6.334l8.43,12.77
		h-6.357l-1.286-2.305h-8.858L68.934,35.312z"/>
	<path class="st0" d="M16.9,80.332l-5.1-4.794l15.525-26.945c0.846-1.47-0.212-3.306-1.909-3.306H0v-6.741h40.908L16.9,80.332z"/>
	<path class="st0" d="M72.187,80.332l5.1-4.794L61.762,48.593c-0.846-1.47,0.212-3.306,1.908-3.306h25.417v-6.741H48.178
		L72.187,80.332z"/>
	<path class="st0" d="M44.488,45.67l0.055-0.095l23.052,38.103l-6.119,3.185L46.62,61.986c-0.874-1.466-2.998-1.468-3.868,0
		c-4.951,8.346-14.757,24.876-14.757,24.876l-5.992-2.963C22.002,83.899,43.257,47.766,44.488,45.67"/>
</g>
</svg>