<!-- Generator: Adobe Illustrator 17.0.0, SVG Export Plug-In  -->
<svg version="1.1"
	 xmlns="http://www.w3.org/2000/svg" xmlns:xlink="http://www.w3.org/1999/xlink" xmlns:a="http://ns.adobe.com/AdobeSVGViewerExtensions/3.0/"
	 x="0px" y="0px" width="365.031px" height="55.692px" viewBox="0 0 365.031 55.692"
	 style="enable-background:new 0 0 365.031 55.692;" xml:space="preserve">
<defs>
</defs>
<g>
	<path d="M0,23.434V5.57h1.907v17.864H0z"/>
	<path d="M18.466,23.434L8.982,9.107v14.327H7.075V5.57h1.806l9.484,14.276V5.57h1.907v17.864H18.466z"/>
	<path d="M30.685,7.276v16.158h-1.907V7.276h-5.168V5.57h12.244v1.706H30.685z"/>
	<path d="M49.452,23.434l-4.064-7.929h-4.291v7.929H39.19V5.57h6.85c0.769,0,1.48,0.113,2.132,0.339
		c0.652,0.226,1.213,0.552,1.681,0.979c0.468,0.426,0.832,0.949,1.091,1.568c0.259,0.619,0.389,1.313,0.389,2.083
		c0,1.305-0.36,2.371-1.079,3.199s-1.656,1.359-2.81,1.593l4.24,8.104H49.452z M48.436,8.091c-0.661-0.543-1.518-0.815-2.572-0.815
		h-4.767v6.549h4.767c1.054,0,1.911-0.268,2.572-0.803c0.661-0.535,0.991-1.354,0.991-2.458S49.096,8.635,48.436,8.091z"/>
	<path d="M67.441,16.999c-0.017,0.711-0.08,1.347-0.188,1.907c-0.109,0.561-0.276,1.066-0.502,1.518
		c-0.226,0.452-0.548,0.887-0.966,1.305c-0.602,0.602-1.288,1.063-2.058,1.38c-0.77,0.318-1.605,0.477-2.509,0.477
		c-1.807,0-3.329-0.619-4.566-1.856c-0.418-0.418-0.74-0.853-0.966-1.305c-0.226-0.452-0.394-0.958-0.502-1.518
		c-0.109-0.56-0.172-1.196-0.188-1.907c-0.017-0.711-0.025-1.543-0.025-2.497s0.008-1.785,0.025-2.497
		c0.016-0.71,0.079-1.346,0.188-1.907c0.108-0.56,0.276-1.066,0.502-1.518c0.226-0.452,0.547-0.886,0.966-1.305
		c1.238-1.237,2.76-1.856,4.566-1.856s3.329,0.619,4.566,1.856c0.418,0.418,0.74,0.853,0.966,1.305
		c0.226,0.452,0.393,0.958,0.502,1.518c0.108,0.561,0.171,1.196,0.188,1.907c0.017,0.711,0.025,1.543,0.025,2.497
		S67.458,16.288,67.441,16.999z M65.521,12.131c-0.025-0.644-0.079-1.192-0.163-1.643c-0.083-0.452-0.209-0.841-0.376-1.167
		c-0.167-0.326-0.394-0.631-0.678-0.916c-0.385-0.402-0.849-0.715-1.393-0.941c-0.543-0.226-1.108-0.339-1.693-0.339
		s-1.15,0.113-1.693,0.339c-0.544,0.226-1.008,0.539-1.393,0.941c-0.285,0.284-0.511,0.589-0.678,0.916
		c-0.167,0.326-0.292,0.715-0.376,1.167c-0.084,0.451-0.138,1-0.163,1.643c-0.025,0.644-0.038,1.435-0.038,2.371
		c0,0.937,0.013,1.728,0.038,2.371c0.025,0.644,0.079,1.192,0.163,1.644c0.083,0.452,0.208,0.84,0.376,1.167
		c0.167,0.326,0.393,0.631,0.678,0.916c0.384,0.401,0.849,0.715,1.393,0.94c0.543,0.226,1.108,0.339,1.693,0.339
		s1.15-0.113,1.693-0.339c0.543-0.226,1.008-0.539,1.393-0.94c0.284-0.285,0.51-0.59,0.678-0.916
		c0.167-0.326,0.292-0.715,0.376-1.167c0.084-0.452,0.138-1,0.163-1.644c0.025-0.644,0.038-1.434,0.038-2.371
		C65.56,13.565,65.547,12.775,65.521,12.131z"/>
	<path d="M84.339,16.258c-0.009,0.686-0.063,1.359-0.163,2.02c-0.101,0.661-0.272,1.292-0.514,1.895
		c-0.243,0.602-0.599,1.138-1.066,1.606c-0.536,0.535-1.188,0.945-1.957,1.229c-0.77,0.285-1.623,0.427-2.56,0.427h-6.122V5.57
		h6.122c0.937,0,1.79,0.143,2.56,0.427c0.769,0.285,1.421,0.694,1.957,1.229c0.468,0.468,0.824,0.982,1.066,1.543
		c0.242,0.561,0.414,1.146,0.514,1.756c0.1,0.61,0.154,1.238,0.163,1.881c0.008,0.645,0.013,1.276,0.013,1.895
		C84.352,14.92,84.348,15.573,84.339,16.258z M82.433,12.658c-0.009-0.543-0.046-1.062-0.113-1.556
		c-0.067-0.493-0.184-0.957-0.351-1.392c-0.167-0.435-0.401-0.812-0.703-1.129c-0.468-0.485-0.995-0.824-1.581-1.016
		c-0.585-0.192-1.229-0.289-1.932-0.289h-3.889v14.452h3.889c0.703,0,1.347-0.096,1.932-0.289c0.585-0.192,1.112-0.531,1.581-1.016
		c0.301-0.317,0.535-0.715,0.703-1.192c0.167-0.477,0.284-0.987,0.351-1.53s0.104-1.108,0.113-1.694
		c0.008-0.585,0.012-1.154,0.012-1.706S82.441,13.202,82.433,12.658z"/>
	<path d="M100.597,19.984c-0.31,0.744-0.744,1.384-1.305,1.919s-1.221,0.949-1.982,1.242c-0.761,0.292-1.593,0.439-2.497,0.439
		s-1.735-0.146-2.497-0.439s-1.417-0.707-1.969-1.242c-0.552-0.535-0.983-1.175-1.292-1.919s-0.464-1.56-0.464-2.446V5.57h1.907
		v11.817c0,0.686,0.101,1.305,0.301,1.857c0.201,0.552,0.489,1.021,0.865,1.405c0.376,0.385,0.832,0.686,1.368,0.903
		c0.535,0.218,1.129,0.326,1.781,0.326s1.246-0.108,1.781-0.326c0.535-0.217,0.991-0.518,1.368-0.903
		c0.376-0.384,0.669-0.853,0.878-1.405c0.209-0.552,0.314-1.171,0.314-1.857V5.57h1.907v11.968
		C101.062,18.425,100.907,19.24,100.597,19.984z"/>
	<path d="M116.981,20.511c-0.36,0.661-0.812,1.217-1.355,1.668c-0.544,0.452-1.159,0.799-1.844,1.041
		c-0.686,0.242-1.43,0.364-2.233,0.364c-0.887,0-1.719-0.159-2.497-0.477c-0.778-0.317-1.468-0.778-2.07-1.38
		c-0.418-0.418-0.74-0.853-0.966-1.305c-0.226-0.452-0.394-0.958-0.502-1.518c-0.109-0.56-0.172-1.196-0.188-1.907
		c-0.017-0.711-0.025-1.543-0.025-2.497s0.008-1.785,0.025-2.497c0.016-0.71,0.079-1.346,0.188-1.907
		c0.108-0.56,0.276-1.066,0.502-1.518c0.226-0.452,0.547-0.886,0.966-1.305c0.602-0.602,1.292-1.062,2.07-1.38
		c0.778-0.317,1.61-0.477,2.497-0.477c0.803,0,1.547,0.122,2.233,0.364c0.686,0.243,1.3,0.589,1.844,1.041
		c0.543,0.452,0.995,1.008,1.355,1.668c0.359,0.661,0.615,1.41,0.765,2.246h-1.957c-0.234-1.104-0.719-1.982-1.455-2.634
		c-0.736-0.652-1.665-0.979-2.785-0.979c-0.585,0-1.15,0.109-1.693,0.326c-0.544,0.218-1.008,0.527-1.393,0.928
		c-0.285,0.285-0.511,0.59-0.678,0.916c-0.167,0.326-0.292,0.719-0.376,1.179c-0.084,0.46-0.138,1.012-0.163,1.656
		c-0.025,0.644-0.038,1.435-0.038,2.371c0,0.937,0.013,1.728,0.038,2.371c0.025,0.644,0.079,1.196,0.163,1.656
		c0.083,0.46,0.208,0.853,0.376,1.179c0.167,0.326,0.393,0.632,0.678,0.916c0.384,0.401,0.849,0.711,1.393,0.928
		c0.543,0.218,1.108,0.326,1.693,0.326c1.121,0,2.058-0.326,2.81-0.979c0.753-0.652,1.246-1.53,1.48-2.634h1.907
		C117.596,19.102,117.341,19.851,116.981,20.511z"/>
	<path d="M132.663,20.511c-0.36,0.661-0.812,1.217-1.355,1.668c-0.544,0.452-1.159,0.799-1.844,1.041
		c-0.686,0.242-1.43,0.364-2.233,0.364c-0.887,0-1.719-0.159-2.497-0.477c-0.778-0.317-1.468-0.778-2.07-1.38
		c-0.418-0.418-0.74-0.853-0.966-1.305c-0.226-0.452-0.394-0.958-0.502-1.518c-0.109-0.56-0.172-1.196-0.188-1.907
		c-0.017-0.711-0.025-1.543-0.025-2.497s0.008-1.785,0.025-2.497c0.016-0.71,0.079-1.346,0.188-1.907
		c0.108-0.56,0.276-1.066,0.502-1.518c0.226-0.452,0.547-0.886,0.966-1.305c0.602-0.602,1.292-1.062,2.07-1.38
		c0.778-0.317,1.61-0.477,2.497-0.477c0.803,0,1.547,0.122,2.233,0.364c0.686,0.243,1.3,0.589,1.844,1.041
		c0.543,0.452,0.995,1.008,1.355,1.668c0.359,0.661,0.615,1.41,0.765,2.246h-1.957c-0.234-1.104-0.719-1.982-1.455-2.634
		c-0.736-0.652-1.665-0.979-2.785-0.979c-0.585,0-1.15,0.109-1.693,0.326c-0.544,0.218-1.008,0.527-1.393,0.928
		c-0.285,0.285-0.511,0.59-0.678,0.916c-0.167,0.326-0.292,0.719-0.376,1.179c-0.084,0.46-0.138,1.012-0.163,1.656
		c-0.025,0.644-0.038,1.435-0.038,2.371c0,0.937,0.013,1.728,0.038,2.371c0.025,0.644,0.079,1.196,0.163,1.656
		c0.083,0.46,0.208,0.853,0.376,1.179c0.167,0.326,0.393,0.632,0.678,0.916c0.384,0.401,0.849,0.711,1.393,0.928
		c0.543,0.218,1.108,0.326,1.693,0.326c1.121,0,2.058-0.326,2.81-0.979c0.753-0.652,1.246-1.53,1.48-2.634h1.907
		C133.277,19.102,133.022,19.851,132.663,20.511z"/>
	<path d="M137.643,23.434V5.57h1.907v17.864H137.643z"/>
	<path d="M156.51,16.999c-0.017,0.711-0.08,1.347-0.188,1.907c-0.109,0.561-0.276,1.066-0.502,1.518
		c-0.226,0.452-0.548,0.887-0.966,1.305c-0.602,0.602-1.288,1.063-2.058,1.38c-0.77,0.318-1.605,0.477-2.509,0.477
		c-1.807,0-3.329-0.619-4.566-1.856c-0.418-0.418-0.74-0.853-0.966-1.305c-0.226-0.452-0.394-0.958-0.502-1.518
		c-0.109-0.56-0.172-1.196-0.188-1.907c-0.017-0.711-0.025-1.543-0.025-2.497s0.008-1.785,0.025-2.497
		c0.016-0.71,0.079-1.346,0.188-1.907c0.108-0.56,0.276-1.066,0.502-1.518c0.226-0.452,0.547-0.886,0.966-1.305
		c1.238-1.237,2.76-1.856,4.566-1.856s3.329,0.619,4.566,1.856c0.418,0.418,0.74,0.853,0.966,1.305
		c0.226,0.452,0.393,0.958,0.502,1.518c0.108,0.561,0.171,1.196,0.188,1.907c0.017,0.711,0.025,1.543,0.025,2.497
		S156.527,16.288,156.51,16.999z M154.591,12.131c-0.025-0.644-0.079-1.192-0.163-1.643c-0.083-0.452-0.209-0.841-0.376-1.167
		c-0.167-0.326-0.394-0.631-0.678-0.916c-0.385-0.402-0.849-0.715-1.393-0.941c-0.543-0.226-1.108-0.339-1.693-0.339
		s-1.15,0.113-1.693,0.339c-0.544,0.226-1.008,0.539-1.393,0.941c-0.285,0.284-0.511,0.589-0.678,0.916
		c-0.167,0.326-0.292,0.715-0.376,1.167c-0.084,0.451-0.138,1-0.163,1.643c-0.025,0.644-0.038,1.435-0.038,2.371
		c0,0.937,0.013,1.728,0.038,2.371c0.025,0.644,0.079,1.192,0.163,1.644c0.083,0.452,0.208,0.84,0.376,1.167
		c0.167,0.326,0.393,0.631,0.678,0.916c0.384,0.401,0.849,0.715,1.393,0.94c0.543,0.226,1.108,0.339,1.693,0.339
		s1.15-0.113,1.693-0.339c0.543-0.226,1.008-0.539,1.393-0.94c0.284-0.285,0.51-0.59,0.678-0.916
		c0.167-0.326,0.292-0.715,0.376-1.167c0.084-0.452,0.138-1,0.163-1.644c0.025-0.644,0.038-1.434,0.038-2.371
		C154.629,13.565,154.616,12.775,154.591,12.131z M150.715,3.839h-1.656L151.267,0h2.158L150.715,3.839z"/>
	<path d="M172.417,23.434l-9.484-14.327v14.327h-1.907V5.57h1.806l9.484,14.276V5.57h1.907v17.864H172.417z"/>
	<path d="M196.052,23.434l-1.43-4.04h-7.803l-1.43,4.04h-2.032L189.93,5.57h1.606l6.548,17.864H196.052z M190.758,8.305
		l-3.362,9.434h6.674L190.758,8.305z"/>
	<path d="M200.97,23.434V5.57h1.907v16.158h9.133v1.706H200.97z"/>
	<path d="M233.975,16.258c-0.009,0.686-0.063,1.359-0.163,2.02c-0.101,0.661-0.272,1.292-0.514,1.895
		c-0.243,0.602-0.599,1.138-1.066,1.606c-0.536,0.535-1.188,0.945-1.957,1.229c-0.77,0.285-1.623,0.427-2.56,0.427h-6.122V5.57
		h6.122c0.937,0,1.79,0.143,2.56,0.427c0.769,0.285,1.421,0.694,1.957,1.229c0.468,0.468,0.824,0.982,1.066,1.543
		c0.242,0.561,0.414,1.146,0.514,1.756c0.1,0.61,0.154,1.238,0.163,1.881c0.008,0.645,0.013,1.276,0.013,1.895
		C233.988,14.92,233.983,15.573,233.975,16.258z M232.068,12.658c-0.009-0.543-0.046-1.062-0.113-1.556
		c-0.067-0.493-0.184-0.957-0.351-1.392c-0.167-0.435-0.401-0.812-0.703-1.129c-0.468-0.485-0.995-0.824-1.581-1.016
		c-0.585-0.192-1.229-0.289-1.932-0.289H223.5v14.452h3.889c0.703,0,1.347-0.096,1.932-0.289c0.585-0.192,1.112-0.531,1.581-1.016
		c0.301-0.317,0.535-0.715,0.703-1.192c0.167-0.477,0.284-0.987,0.351-1.53s0.104-1.108,0.113-1.694
		c0.008-0.585,0.012-1.154,0.012-1.706S232.077,13.202,232.068,12.658z"/>
	<path d="M238.479,23.434V5.57h1.907v17.864H238.479z"/>
	<path d="M255.878,20.637c-0.292,0.627-0.711,1.158-1.254,1.593s-1.196,0.77-1.957,1.003s-1.602,0.351-2.521,0.351
		c-1.338,0-2.484-0.184-3.438-0.552c-0.953-0.368-1.848-0.97-2.685-1.807l1.305-1.305c0.736,0.736,1.48,1.247,2.233,1.531
		c0.753,0.285,1.631,0.426,2.635,0.426c1.305,0,2.333-0.289,3.086-0.866c0.753-0.577,1.129-1.392,1.129-2.446
		c0-0.468-0.071-0.895-0.213-1.279c-0.143-0.385-0.356-0.703-0.64-0.954c-0.285-0.251-0.581-0.43-0.891-0.54
		c-0.31-0.108-0.79-0.213-1.442-0.313l-2.083-0.326c-1.422-0.234-2.518-0.686-3.287-1.355c-0.903-0.803-1.355-1.915-1.355-3.337
		c0-0.752,0.134-1.442,0.402-2.07c0.267-0.627,0.648-1.158,1.142-1.593c0.493-0.435,1.091-0.773,1.794-1.016
		c0.702-0.242,1.497-0.364,2.383-0.364c1.137,0,2.116,0.155,2.936,0.464c0.819,0.31,1.614,0.808,2.384,1.493l-1.229,1.229
		c-0.552-0.502-1.146-0.882-1.781-1.142c-0.636-0.259-1.43-0.389-2.384-0.389c-1.204,0-2.133,0.301-2.785,0.903
		s-0.979,1.405-0.979,2.409c0,0.903,0.268,1.589,0.803,2.058c0.284,0.234,0.64,0.435,1.066,0.602
		c0.427,0.167,0.874,0.293,1.343,0.376l1.957,0.301c0.417,0.067,0.79,0.138,1.116,0.213s0.615,0.163,0.866,0.263
		c0.251,0.101,0.48,0.213,0.69,0.339c0.209,0.125,0.405,0.272,0.59,0.439c1.003,0.853,1.505,2.033,1.505,3.538
		C256.317,19.303,256.17,20.009,255.878,20.637z"/>
	<path d="M260.307,23.434V5.57h11.09v1.706h-9.183v6.298h7.828v1.706h-7.828v6.448h9.183v1.706H260.307z"/>
	<path d="M286.751,23.434l-9.484-14.327v14.327h-1.907V5.57h1.806l9.484,14.276V5.57h1.907v17.864H286.751z M284.493,3.274
		c-0.368,0.143-0.694,0.213-0.979,0.213c-0.352,0-0.661-0.05-0.929-0.15c-0.268-0.101-0.552-0.242-0.853-0.427
		c-0.234-0.133-0.464-0.255-0.69-0.364c-0.226-0.108-0.464-0.163-0.715-0.163c-0.201,0-0.406,0.042-0.615,0.125
		c-0.209,0.084-0.498,0.31-0.866,0.678l-0.928-0.903c0.284-0.284,0.54-0.51,0.765-0.678c0.226-0.167,0.431-0.296,0.615-0.389
		c0.184-0.092,0.359-0.15,0.527-0.176c0.167-0.025,0.326-0.038,0.477-0.038c0.368,0,0.678,0.055,0.929,0.163
		c0.25,0.109,0.535,0.255,0.853,0.439c0.267,0.167,0.505,0.293,0.715,0.376c0.209,0.084,0.439,0.125,0.69,0.125
		c0.184,0,0.385-0.042,0.602-0.125c0.217-0.083,0.51-0.309,0.878-0.677l0.928,0.903C285.329,2.777,284.861,3.132,284.493,3.274z"/>
	<path d="M305.518,16.999c-0.017,0.711-0.08,1.347-0.188,1.907c-0.109,0.561-0.276,1.066-0.502,1.518
		c-0.226,0.452-0.548,0.887-0.966,1.305c-0.602,0.602-1.288,1.063-2.058,1.38c-0.77,0.318-1.605,0.477-2.509,0.477
		c-1.807,0-3.329-0.619-4.566-1.856c-0.418-0.418-0.74-0.853-0.966-1.305c-0.226-0.452-0.394-0.958-0.502-1.518
		c-0.109-0.56-0.172-1.196-0.188-1.907c-0.017-0.711-0.025-1.543-0.025-2.497s0.008-1.785,0.025-2.497
		c0.016-0.71,0.079-1.346,0.188-1.907c0.108-0.56,0.276-1.066,0.502-1.518c0.226-0.452,0.547-0.886,0.966-1.305
		c1.238-1.237,2.76-1.856,4.566-1.856s3.329,0.619,4.566,1.856c0.418,0.418,0.74,0.853,0.966,1.305
		c0.226,0.452,0.393,0.958,0.502,1.518c0.108,0.561,0.171,1.196,0.188,1.907c0.017,0.711,0.025,1.543,0.025,2.497
		S305.535,16.288,305.518,16.999z M303.599,12.131c-0.025-0.644-0.079-1.192-0.163-1.643c-0.083-0.452-0.209-0.841-0.376-1.167
		c-0.167-0.326-0.394-0.631-0.678-0.916c-0.385-0.402-0.849-0.715-1.393-0.941c-0.543-0.226-1.108-0.339-1.693-0.339
		s-1.15,0.113-1.693,0.339c-0.544,0.226-1.008,0.539-1.393,0.941c-0.285,0.284-0.511,0.589-0.678,0.916
		c-0.167,0.326-0.292,0.715-0.376,1.167c-0.084,0.451-0.138,1-0.163,1.643c-0.025,0.644-0.038,1.435-0.038,2.371
		c0,0.937,0.013,1.728,0.038,2.371c0.025,0.644,0.079,1.192,0.163,1.644c0.083,0.452,0.208,0.84,0.376,1.167
		c0.167,0.326,0.393,0.631,0.678,0.916c0.384,0.401,0.849,0.715,1.393,0.94c0.543,0.226,1.108,0.339,1.693,0.339
		s1.15-0.113,1.693-0.339c0.543-0.226,1.008-0.539,1.393-0.94c0.284-0.285,0.51-0.59,0.678-0.916
		c0.167-0.326,0.292-0.715,0.376-1.167c0.084-0.452,0.138-1,0.163-1.644c0.025-0.644,0.038-1.434,0.038-2.371
		C303.637,13.565,303.624,12.775,303.599,12.131z"/>
	<path d="M330.156,23.434h-1.781l-3.964-14.301l-3.964,14.301h-1.781L314.099,5.57h2.032l3.488,14.402l3.939-14.402h1.706
		l3.939,14.402L332.69,5.57h2.032L330.156,23.434z"/>
	<path d="M337.708,23.434V5.57h11.09v1.706h-9.183v6.298h7.828v1.706h-7.828v6.448h9.183v1.706H337.708z"/>
	<path d="M364.642,20.624c-0.259,0.619-0.623,1.138-1.091,1.556s-1.029,0.732-1.681,0.941s-1.372,0.313-2.158,0.313h-6.95V5.57
		h6.724c0.769,0,1.48,0.109,2.132,0.326c0.652,0.218,1.208,0.531,1.668,0.941c0.46,0.41,0.82,0.908,1.079,1.493
		c0.259,0.586,0.389,1.255,0.389,2.007c0,0.954-0.25,1.773-0.752,2.459c-0.502,0.686-1.129,1.171-1.882,1.455
		c0.853,0.318,1.551,0.837,2.095,1.556c0.543,0.719,0.815,1.614,0.815,2.685C365.031,19.294,364.901,20.005,364.642,20.624z
		 M362.572,8.982c-0.184-0.384-0.431-0.702-0.74-0.953s-0.677-0.439-1.104-0.564c-0.426-0.125-0.891-0.188-1.393-0.188h-4.667v6.197
		h4.667c0.502,0,0.966-0.063,1.393-0.188c0.427-0.125,0.794-0.313,1.104-0.564s0.556-0.573,0.74-0.966
		c0.184-0.393,0.276-0.857,0.276-1.392S362.756,9.367,362.572,8.982z M362.158,16.058c-0.644-0.585-1.518-0.878-2.622-0.878h-4.867
		v6.549h4.867c1.104,0,1.978-0.297,2.622-0.891s0.966-1.393,0.966-2.396C363.124,17.438,362.802,16.643,362.158,16.058z"/>
</g>
<g>
	<g>
		<path d="M63.785,52.092c-0.31,0.744-0.744,1.384-1.305,1.919s-1.221,0.949-1.982,1.242c-0.761,0.292-1.593,0.439-2.497,0.439
			s-1.735-0.146-2.497-0.439s-1.417-0.707-1.969-1.242c-0.552-0.535-0.983-1.175-1.292-1.919s-0.464-1.56-0.464-2.446V37.678h1.907
			v11.817c0,0.686,0.101,1.305,0.301,1.857c0.201,0.552,0.489,1.021,0.865,1.405c0.376,0.385,0.832,0.686,1.368,0.903
			c0.535,0.218,1.129,0.326,1.781,0.326s1.246-0.108,1.781-0.326c0.535-0.217,0.991-0.518,1.368-0.903
			c0.376-0.384,0.669-0.853,0.878-1.405c0.209-0.552,0.314-1.171,0.314-1.857V37.678h1.907v11.968
			C64.249,50.533,64.094,51.348,63.785,52.092z"/>
		<path d="M79.491,52.745c-0.292,0.627-0.711,1.158-1.254,1.593s-1.196,0.77-1.957,1.003s-1.602,0.351-2.521,0.351
			c-1.338,0-2.484-0.184-3.438-0.552c-0.953-0.368-1.848-0.97-2.685-1.807l1.305-1.305c0.736,0.736,1.48,1.247,2.233,1.531
			c0.753,0.285,1.631,0.426,2.635,0.426c1.305,0,2.333-0.289,3.086-0.866c0.753-0.577,1.129-1.392,1.129-2.446
			c0-0.468-0.071-0.895-0.213-1.279c-0.143-0.385-0.356-0.703-0.64-0.954c-0.285-0.251-0.581-0.43-0.891-0.54
			c-0.31-0.108-0.79-0.213-1.442-0.313l-2.083-0.326c-1.422-0.234-2.518-0.686-3.287-1.355c-0.903-0.803-1.355-1.915-1.355-3.337
			c0-0.752,0.134-1.442,0.402-2.07c0.267-0.627,0.648-1.158,1.142-1.593c0.493-0.435,1.091-0.773,1.794-1.016
			c0.702-0.242,1.497-0.364,2.383-0.364c1.137,0,2.116,0.155,2.936,0.464c0.819,0.31,1.614,0.808,2.384,1.493l-1.229,1.229
			c-0.552-0.502-1.146-0.882-1.781-1.142c-0.636-0.259-1.43-0.389-2.384-0.389c-1.204,0-2.133,0.301-2.785,0.903
			s-0.979,1.405-0.979,2.409c0,0.903,0.268,1.589,0.803,2.058c0.284,0.234,0.64,0.435,1.066,0.602
			c0.427,0.167,0.874,0.293,1.343,0.376l1.957,0.301c0.417,0.067,0.79,0.138,1.116,0.213s0.615,0.163,0.866,0.263
			c0.251,0.101,0.48,0.213,0.69,0.339c0.209,0.125,0.405,0.272,0.59,0.439c1.003,0.853,1.505,2.033,1.505,3.538
			C79.931,51.411,79.784,52.117,79.491,52.745z"/>
		<path d="M94.332,55.542l-1.43-4.04h-7.803l-1.43,4.04h-2.032l6.573-17.864h1.606l6.548,17.864H94.332z M89.038,40.413
			l-3.362,9.434h6.674L89.038,40.413z"/>
		<path d="M110.641,55.542l-9.484-14.327v14.327H99.25V37.678h1.806l9.484,14.276V37.678h1.907v17.864H110.641z"/>
		<path d="M129.998,48.366c-0.009,0.686-0.063,1.359-0.163,2.02c-0.101,0.661-0.272,1.292-0.514,1.895
			c-0.243,0.602-0.599,1.138-1.066,1.606c-0.536,0.535-1.188,0.945-1.957,1.229c-0.77,0.285-1.623,0.427-2.56,0.427h-6.122V37.678
			h6.122c0.937,0,1.79,0.143,2.56,0.427c0.769,0.285,1.421,0.694,1.957,1.229c0.468,0.468,0.824,0.982,1.066,1.543
			c0.242,0.561,0.414,1.146,0.514,1.756c0.1,0.61,0.154,1.238,0.163,1.881c0.008,0.645,0.013,1.276,0.013,1.895
			C130.01,47.028,130.006,47.681,129.998,48.366z M128.091,44.766c-0.009-0.543-0.046-1.062-0.113-1.556
			c-0.067-0.493-0.184-0.957-0.351-1.392c-0.167-0.435-0.401-0.812-0.703-1.129c-0.468-0.485-0.995-0.824-1.581-1.016
			c-0.585-0.192-1.229-0.289-1.932-0.289h-3.889v14.452h3.889c0.703,0,1.347-0.096,1.932-0.289c0.585-0.192,1.112-0.531,1.581-1.016
			c0.301-0.317,0.535-0.715,0.703-1.192c0.167-0.477,0.284-0.987,0.351-1.53s0.104-1.108,0.113-1.694
			c0.008-0.585,0.012-1.154,0.012-1.706S128.099,45.31,128.091,44.766z"/>
		<path d="M146.293,49.106c-0.017,0.711-0.08,1.347-0.188,1.907c-0.109,0.561-0.276,1.066-0.502,1.518
			c-0.226,0.452-0.548,0.887-0.966,1.305c-0.602,0.602-1.288,1.063-2.058,1.38c-0.77,0.318-1.605,0.477-2.509,0.477
			c-1.807,0-3.329-0.619-4.566-1.856c-0.418-0.418-0.74-0.853-0.966-1.305c-0.226-0.452-0.394-0.958-0.502-1.518
			c-0.109-0.56-0.172-1.196-0.188-1.907c-0.017-0.711-0.025-1.543-0.025-2.497s0.008-1.785,0.025-2.497
			c0.016-0.71,0.079-1.346,0.188-1.907c0.108-0.56,0.276-1.066,0.502-1.518c0.226-0.452,0.547-0.886,0.966-1.305
			c1.238-1.237,2.76-1.856,4.566-1.856s3.329,0.619,4.566,1.856c0.418,0.418,0.74,0.853,0.966,1.305
			c0.226,0.452,0.393,0.958,0.502,1.518c0.108,0.561,0.171,1.196,0.188,1.907c0.017,0.711,0.025,1.543,0.025,2.497
			S146.31,48.396,146.293,49.106z M144.374,44.239c-0.025-0.644-0.079-1.192-0.163-1.643c-0.083-0.452-0.209-0.841-0.376-1.167
			c-0.167-0.326-0.394-0.631-0.678-0.916c-0.385-0.402-0.849-0.715-1.393-0.941c-0.543-0.226-1.108-0.339-1.693-0.339
			s-1.15,0.113-1.693,0.339c-0.544,0.226-1.008,0.539-1.393,0.941c-0.285,0.284-0.511,0.589-0.678,0.916
			c-0.167,0.326-0.292,0.715-0.376,1.167c-0.084,0.451-0.138,1-0.163,1.643c-0.025,0.644-0.038,1.435-0.038,2.371
			c0,0.937,0.013,1.728,0.038,2.371c0.025,0.644,0.079,1.192,0.163,1.644c0.083,0.452,0.208,0.84,0.376,1.167
			c0.167,0.326,0.393,0.631,0.678,0.916c0.384,0.401,0.849,0.715,1.393,0.94c0.543,0.226,1.108,0.339,1.693,0.339
			s1.15-0.113,1.693-0.339c0.543-0.226,1.008-0.539,1.393-0.94c0.284-0.285,0.51-0.59,0.678-0.916
			c0.167-0.326,0.292-0.715,0.376-1.167c0.084-0.452,0.138-1,0.163-1.644c0.025-0.644,0.038-1.434,0.038-2.371
			C144.412,45.673,144.399,44.883,144.374,44.239z"/>
		<path d="M157.057,55.542V37.678h11.09v1.706h-9.183v6.298h7.828v1.706h-7.828v6.448h9.183v1.706H157.057z"/>
		<path d="M172.11,55.542V37.678h1.907v16.158h9.133v1.706H172.11z"/>
		<path d="M192.734,55.542V37.678h1.907v16.158h9.133v1.706H192.734z"/>
		<path d="M207.11,55.542V37.678h11.09v1.706h-9.183v6.298h7.828v1.706h-7.828v6.448h9.183v1.706H207.11z"/>
		<path d="M233.555,55.542l-9.484-14.327v14.327h-1.907V37.678h1.806l9.484,14.276V37.678h1.907v17.864H233.555z"/>
		<path d="M252.046,51.666c-0.234,0.728-0.627,1.384-1.179,1.97c-0.636,0.686-1.359,1.2-2.17,1.543s-1.677,0.514-2.597,0.514
			c-0.887,0-1.719-0.159-2.497-0.477c-0.778-0.317-1.468-0.778-2.07-1.38c-0.418-0.418-0.74-0.853-0.966-1.305
			c-0.226-0.452-0.394-0.958-0.502-1.518c-0.109-0.56-0.172-1.196-0.188-1.907c-0.017-0.711-0.025-1.543-0.025-2.497
			s0.008-1.785,0.025-2.497c0.016-0.71,0.079-1.346,0.188-1.907c0.108-0.56,0.276-1.066,0.502-1.518
			c0.226-0.452,0.547-0.886,0.966-1.305c1.238-1.237,2.76-1.856,4.566-1.856c0.853,0,1.635,0.13,2.346,0.389
			c0.711,0.26,1.334,0.627,1.87,1.104c0.535,0.477,0.974,1.042,1.317,1.694s0.581,1.372,0.715,2.158h-1.907
			c-0.251-1.137-0.757-2.028-1.518-2.672c-0.761-0.644-1.702-0.966-2.823-0.966c-0.585,0-1.15,0.113-1.693,0.339
			c-0.544,0.226-1.008,0.539-1.393,0.941c-0.285,0.284-0.511,0.589-0.678,0.916c-0.167,0.326-0.292,0.715-0.376,1.167
			c-0.084,0.451-0.138,1-0.163,1.643c-0.025,0.644-0.038,1.435-0.038,2.371c0,0.937,0.013,1.728,0.038,2.371
			c0.025,0.644,0.079,1.196,0.163,1.656c0.083,0.46,0.208,0.853,0.376,1.179c0.167,0.326,0.393,0.632,0.678,0.916
			c0.384,0.401,0.849,0.711,1.393,0.928c0.543,0.218,1.108,0.326,1.693,0.326c0.652,0,1.275-0.129,1.869-0.389s1.1-0.64,1.518-1.142
			c0.368-0.435,0.627-0.907,0.778-1.418c0.15-0.51,0.226-1.116,0.226-1.819v-1.355H246.1v-1.681h6.298v2.835
			C252.397,50.056,252.28,50.938,252.046,51.666z"/>
		<path d="M268.593,52.092c-0.31,0.744-0.744,1.384-1.305,1.919s-1.221,0.949-1.982,1.242c-0.761,0.292-1.593,0.439-2.497,0.439
			s-1.735-0.146-2.497-0.439s-1.417-0.707-1.969-1.242c-0.552-0.535-0.983-1.175-1.292-1.919s-0.464-1.56-0.464-2.446V37.678h1.907
			v11.817c0,0.686,0.101,1.305,0.301,1.857c0.201,0.552,0.489,1.021,0.865,1.405c0.376,0.385,0.832,0.686,1.368,0.903
			c0.535,0.218,1.129,0.326,1.781,0.326s1.246-0.108,1.781-0.326c0.535-0.217,0.991-0.518,1.368-0.903
			c0.376-0.384,0.669-0.853,0.878-1.405c0.209-0.552,0.314-1.171,0.314-1.857V37.678h1.907v11.968
			C269.057,50.533,268.902,51.348,268.593,52.092z"/>
		<path d="M284.387,55.542l-1.43-4.04h-7.803l-1.43,4.04h-2.032l6.573-17.864h1.606l6.548,17.864H284.387z M279.093,40.413
			l-3.362,9.434h6.674L279.093,40.413z"/>
		<path d="M296.543,52.443c-0.276,0.694-0.661,1.28-1.154,1.756s-1.079,0.845-1.756,1.104c-0.677,0.259-1.426,0.389-2.245,0.389
			c-0.854,0-1.61-0.129-2.271-0.389s-1.267-0.665-1.819-1.217l1.279-1.28c0.318,0.335,0.682,0.615,1.092,0.84
			c0.41,0.226,0.982,0.339,1.719,0.339c1.17,0,2.074-0.355,2.709-1.066c0.636-0.71,0.954-1.727,0.954-3.048V37.678h1.907v12.445
			C296.958,50.976,296.819,51.75,296.543,52.443z"/>
		<path d="M301.875,55.542V37.678h11.09v1.706h-9.183v6.298h7.828v1.706h-7.828v6.448h9.183v1.706H301.875z"/>
	</g>
</g>
</svg>